<svg width="54" height="53" viewBox="0 0 54 53" fill="none" xmlns="http://www.w3.org/2000/svg">
<rect x="1.02649" y="0.5" width="51.8421" height="51.8421" rx="19.5" fill="#2998FF" stroke="#E6E6E6"/>
<g clip-path="url(#clip0_1849_1347)">
<path d="M33.5521 13.2159L30.1259 13.2104C26.2767 13.2104 23.7892 15.7626 23.7892 19.7127V22.7107H20.3443C20.0467 22.7107 19.8056 22.952 19.8056 23.2497V27.5934C19.8056 27.8911 20.0469 28.1322 20.3443 28.1322H23.7892V39.0928C23.7892 39.3904 24.0303 39.6315 24.3279 39.6315H28.8225C29.1202 39.6315 29.3613 39.3902 29.3613 39.0928V28.1322H33.3891C33.6868 28.1322 33.9279 27.8911 33.9279 27.5934L33.9295 23.2497C33.9295 23.1068 33.8726 22.9699 33.7717 22.8687C33.6709 22.7676 33.5334 22.7107 33.3905 22.7107H29.3613V20.1693C29.3613 18.9478 29.6523 18.3277 31.2435 18.3277L33.5516 18.3268C33.849 18.3268 34.09 18.0855 34.09 17.7881V13.7547C34.09 13.4576 33.8492 13.2165 33.5521 13.2159Z" fill="white"/>
</g>
<defs>
<clipPath id="clip0_1849_1347">
<rect width="26.4211" height="26.4211" fill="white" transform="translate(13.737 13.2104)"/>
</clipPath>
</defs>
</svg>
