<svg width="54" height="53" viewBox="0 0 54 53" fill="none" xmlns="http://www.w3.org/2000/svg">
<rect x="1.34216" y="0.5" width="51.8421" height="51.8421" rx="19.5" fill="#2998FF" stroke="#E6E6E6"/>
<g clip-path="url(#clip0_1849_1364)">
<path d="M40.4479 20.9783C40.386 19.5745 40.1589 18.6093 39.8337 17.773C39.4983 16.8853 38.9821 16.0905 38.3059 15.4298C37.6452 14.7589 36.8452 14.2375 35.9678 13.9072C35.1266 13.582 34.1665 13.355 32.7627 13.2931C31.3483 13.226 30.8993 13.2104 27.3122 13.2104C23.725 13.2104 23.276 13.226 21.8669 13.2879C20.4631 13.3498 19.498 13.577 18.6619 13.902C17.7739 14.2375 16.9792 14.7536 16.3185 15.4298C15.6475 16.0905 15.1263 16.8905 14.7959 17.768C14.4707 18.6093 14.2436 19.5692 14.1818 20.9731C14.1146 22.3874 14.0991 22.8364 14.0991 26.4236C14.0991 30.0107 14.1146 30.4597 14.1765 31.8688C14.2384 33.2727 14.4656 34.2378 14.7908 35.0741C15.1263 35.9618 15.6475 36.7566 16.3185 37.4173C16.9792 38.0883 17.7792 38.6096 18.6566 38.9399C19.498 39.2651 20.4579 39.4921 21.8619 39.554C23.2708 39.6161 23.72 39.6314 27.3071 39.6314C30.8943 39.6314 31.3433 39.6161 32.7524 39.554C34.1562 39.4921 35.1214 39.2651 35.9575 38.9399C37.7331 38.2534 39.137 36.8495 39.8235 35.0741C40.1485 34.2328 40.3757 33.2727 40.4376 31.8688C40.4995 30.4597 40.515 30.0107 40.515 26.4236C40.515 22.8364 40.5098 22.3874 40.4479 20.9783ZM38.0686 31.7656C38.0117 33.0559 37.795 33.7527 37.6144 34.2172C37.1704 35.3683 36.2569 36.2818 35.1058 36.7257C34.6413 36.9064 33.9395 37.1231 32.6542 37.1798C31.2606 37.2419 30.8427 37.2572 27.3174 37.2572C23.7922 37.2572 23.369 37.2419 21.9805 37.1798C20.6901 37.1231 19.9933 36.9064 19.5288 36.7257C18.956 36.514 18.4346 36.1785 18.0114 35.7398C17.5727 35.3114 17.2372 34.7953 17.0255 34.2225C16.8449 33.7579 16.6282 33.0559 16.5715 31.7708C16.5094 30.3772 16.4941 29.9591 16.4941 26.4338C16.4941 22.9086 16.5094 22.4854 16.5715 21.0971C16.6282 19.8067 16.8449 19.1099 17.0255 18.6454C17.2372 18.0724 17.5727 17.5512 18.0167 17.1278C18.4449 16.6891 18.9611 16.3536 19.534 16.1421C19.9986 15.9615 20.7006 15.7448 21.9857 15.6879C23.3793 15.626 23.7974 15.6105 27.3225 15.6105C30.853 15.6105 31.2709 15.626 32.6594 15.6879C33.9498 15.7448 34.6466 15.9615 35.1111 16.1421C35.6839 16.3536 36.2053 16.6891 36.6285 17.1278C37.0672 17.5563 37.4027 18.0724 37.6144 18.6454C37.795 19.1099 38.0117 19.8118 38.0686 21.0971C38.1305 22.4906 38.146 22.9086 38.146 26.4338C38.146 29.9591 38.1305 30.372 38.0686 31.7656Z" fill="white"/>
<path d="M27.3123 19.6362C23.5652 19.6362 20.5251 22.6762 20.5251 26.4234C20.5251 30.1707 23.5652 33.2106 27.3123 33.2106C31.0595 33.2106 34.0995 30.1707 34.0995 26.4234C34.0995 22.6762 31.0595 19.6362 27.3123 19.6362ZM27.3123 30.8261C24.8814 30.8261 22.9096 28.8545 22.9096 26.4234C22.9096 23.9923 24.8814 22.0207 27.3123 22.0207C29.7433 22.0207 31.7149 23.9923 31.7149 26.4234C31.7149 28.8545 29.7433 30.8261 27.3123 30.8261Z" fill="white"/>
<path d="M35.9528 19.3677C35.9528 20.2427 35.2433 20.9522 34.368 20.9522C33.493 20.9522 32.7835 20.2427 32.7835 19.3677C32.7835 18.4925 33.493 17.7832 34.368 17.7832C35.2433 17.7832 35.9528 18.4925 35.9528 19.3677Z" fill="white"/>
</g>
<defs>
<clipPath id="clip0_1849_1364">
<rect width="26.4211" height="26.4211" fill="white" transform="translate(14.0527 13.2104)"/>
</clipPath>
</defs>
</svg>
