<svg width="54" height="53" viewBox="0 0 54 53" fill="none" xmlns="http://www.w3.org/2000/svg">
<rect x="1.18433" y="0.5" width="51.8421" height="51.8421" rx="19.5" fill="#2998FF" stroke="#E6E6E6"/>
<g clip-path="url(#clip0_1849_1357)">
<path d="M25.8047 31.8209C23.7564 31.6073 21.9096 31.1028 20.3285 29.8662C20.1323 29.7123 19.9297 29.564 19.7507 29.3922C19.0586 28.7275 18.9889 27.9663 19.5365 27.1818C20.005 26.5105 20.7914 26.3309 21.6088 26.7163C21.7671 26.7911 21.9179 26.8843 22.0624 26.9845C25.0091 29.0092 29.0572 29.0651 32.015 27.0755C32.308 26.8508 32.6213 26.6676 32.9843 26.5741C33.6902 26.3929 34.3485 26.6521 34.7273 27.2698C35.1601 27.9751 35.1546 28.6636 34.6214 29.2112C33.8034 30.0508 32.8197 30.6581 31.7266 31.0821C30.6931 31.4828 29.5611 31.6845 28.4406 31.8184C28.6097 32.0024 28.6894 32.0929 28.7951 32.1992C30.3165 33.7278 31.8445 35.25 33.3609 36.7832C33.8775 37.3057 33.9855 37.9535 33.701 38.5611C33.39 39.2253 32.6938 39.6622 32.0111 39.6154C31.5786 39.5855 31.2413 39.3703 30.9416 39.0684C29.7935 37.9131 28.6238 36.7791 27.499 35.6019C27.1716 35.2596 27.0142 35.3244 26.7253 35.6216C25.5703 36.8106 24.3964 37.9814 23.2157 39.1456C22.6855 39.6683 22.0546 39.7624 21.4397 39.4638C20.7861 39.1469 20.3702 38.4798 20.4023 37.8093C20.4245 37.3558 20.6475 37.0093 20.9588 36.6986C22.4644 35.1952 23.9659 33.6879 25.4679 32.182C25.5672 32.0818 25.6599 31.9756 25.8047 31.8209Z" fill="white"/>
<path d="M27.0518 26.5838C23.3978 26.5714 20.4015 23.5422 20.4228 19.8824C20.4439 16.1821 23.4421 13.2002 27.1321 13.2105C30.8295 13.2204 33.7973 16.2452 33.7788 19.9839C33.76 23.6363 30.7429 26.5966 27.0518 26.5838ZM30.3727 19.8912C30.3663 18.074 28.9191 16.6274 27.1055 16.6257C25.2767 16.6238 23.8165 18.0967 23.8306 19.9305C23.8441 21.7408 25.3038 23.1772 27.1224 23.1706C28.9354 23.1642 30.3788 21.7081 30.3727 19.8912Z" fill="white"/>
</g>
<defs>
<clipPath id="clip0_1849_1357">
<rect width="26.4211" height="26.4211" fill="white" transform="translate(13.8948 13.2104)"/>
</clipPath>
</defs>
</svg>
