<svg width="53" height="53" viewBox="0 0 53 53" fill="none" xmlns="http://www.w3.org/2000/svg">
<rect x="0.5" y="0.5" width="51.8421" height="51.8421" rx="19.5" fill="#2998FF" stroke="#E6E6E6"/>
<g clip-path="url(#clip0_1849_1352)">
<path d="M39.4915 32.4976C39.4595 32.4287 39.4297 32.3715 39.402 32.3257C38.9436 31.5001 38.0676 30.4867 36.7745 29.2853L36.7472 29.2578L36.7335 29.2443L36.7197 29.2304H36.7058C36.119 28.671 35.7473 28.2948 35.5917 28.1023C35.307 27.7354 35.2432 27.3641 35.3988 26.9878C35.5087 26.7035 35.9218 26.1032 36.6369 25.1859C37.013 24.6998 37.311 24.3102 37.531 24.0167C39.1176 21.9073 39.8055 20.5594 39.5945 19.9723L39.5125 19.8352C39.4575 19.7526 39.3153 19.677 39.0863 19.6081C38.8568 19.5394 38.5634 19.528 38.2056 19.5738L34.2439 19.6012C34.1797 19.5785 34.0881 19.5806 33.9687 19.6081C33.8495 19.6357 33.7898 19.6495 33.7898 19.6495L33.7209 19.684L33.6661 19.7254C33.6202 19.7527 33.5698 19.8009 33.5147 19.8697C33.4599 19.9382 33.4141 20.0187 33.3775 20.1104C32.9462 21.2201 32.4558 22.2518 31.9054 23.2055C31.5661 23.7742 31.2544 24.2671 30.9698 24.6844C30.6856 25.1015 30.4471 25.4089 30.2547 25.6059C30.0619 25.8031 29.888 25.9611 29.7318 26.0804C29.5758 26.1998 29.4568 26.2503 29.3743 26.2318C29.2917 26.2134 29.2139 26.1951 29.1402 26.1768C29.0119 26.0942 28.9087 25.9819 28.8309 25.8397C28.7527 25.6976 28.7001 25.5187 28.6726 25.3032C28.6453 25.0875 28.6291 24.902 28.6244 24.746C28.6201 24.5903 28.6221 24.3699 28.6314 24.0857C28.641 23.8012 28.6453 23.6088 28.6453 23.5079C28.6453 23.1594 28.652 22.7811 28.6657 22.373C28.6796 21.9649 28.6908 21.6415 28.7002 21.4033C28.7095 21.1649 28.7139 20.9126 28.7139 20.6466C28.7139 20.3806 28.6977 20.1721 28.6657 20.0207C28.6341 19.8695 28.5856 19.7227 28.5216 19.5804C28.4573 19.4383 28.3631 19.3283 28.2396 19.2503C28.1158 19.1723 27.9619 19.1105 27.7788 19.0645C27.2927 18.9545 26.6737 18.895 25.9215 18.8857C24.2158 18.8674 23.1198 18.9776 22.6338 19.216C22.4412 19.3168 22.2669 19.4544 22.1111 19.6286C21.946 19.8304 21.9229 19.9405 22.0421 19.9587C22.5925 20.0411 22.9821 20.2383 23.2114 20.5501L23.294 20.7153C23.3583 20.8345 23.4225 21.0456 23.4867 21.3481C23.5508 21.6507 23.5922 21.9854 23.6104 22.3521C23.6562 23.0217 23.6562 23.5949 23.6104 24.0717C23.5645 24.5487 23.5211 24.92 23.4797 25.186C23.4384 25.452 23.3765 25.6675 23.294 25.8325C23.2114 25.9976 23.1564 26.0985 23.1288 26.1351C23.1013 26.1717 23.0784 26.1948 23.0602 26.2038C22.941 26.2495 22.817 26.2728 22.6887 26.2728C22.5602 26.2728 22.4044 26.2085 22.221 26.0801C22.0377 25.9516 21.8474 25.7752 21.6502 25.5504C21.453 25.3257 21.2306 25.0116 20.9828 24.6081C20.7353 24.2046 20.4785 23.7278 20.2126 23.1775L19.9925 22.7785C19.855 22.5218 19.667 22.148 19.4286 21.6574C19.19 21.1667 18.9791 20.692 18.7958 20.2334C18.7225 20.0409 18.6124 19.8942 18.4657 19.7934L18.3968 19.752C18.351 19.7153 18.2776 19.6765 18.1768 19.635C18.0758 19.5936 17.9705 19.564 17.8604 19.5457L14.0911 19.5731C13.7059 19.5731 13.4446 19.6603 13.307 19.8346L13.2519 19.917C13.2244 19.963 13.2105 20.0363 13.2105 20.1372C13.2105 20.2381 13.2381 20.362 13.2931 20.5086C13.8434 21.8018 14.4417 23.049 15.0882 24.2503C15.7348 25.4517 16.2966 26.4195 16.7733 27.1527C17.2502 27.8865 17.7362 28.579 18.2315 29.2299C18.7268 29.8811 19.0546 30.2984 19.215 30.4817C19.3756 30.6654 19.5017 30.8027 19.5934 30.8944L19.9374 31.2245C20.1575 31.4447 20.4807 31.7083 20.9072 32.0155C21.3337 32.3228 21.8059 32.6254 22.3241 32.9237C22.8423 33.2215 23.4452 33.4645 24.1331 33.6525C24.8209 33.8407 25.4904 33.9162 26.1416 33.8797H27.7236C28.0444 33.852 28.2875 33.7511 28.4527 33.577L28.5075 33.5081C28.5443 33.4533 28.5787 33.3683 28.6105 33.2538C28.6427 33.1392 28.6587 33.0129 28.6587 32.8756C28.6493 32.4813 28.6793 32.126 28.7479 31.8096C28.8165 31.4933 28.8946 31.2549 28.982 31.0943C29.0694 30.9338 29.168 30.7984 29.2777 30.6887C29.3876 30.5787 29.466 30.512 29.512 30.4891C29.5576 30.466 29.5941 30.4504 29.6216 30.441C29.8417 30.3676 30.1007 30.4387 30.3991 30.6544C30.6972 30.8699 30.9768 31.136 31.2383 31.4523C31.4997 31.7688 31.8138 32.124 32.1805 32.5183C32.5475 32.9127 32.8684 33.2059 33.1434 33.3987L33.4185 33.5638C33.6021 33.6739 33.8406 33.7748 34.1341 33.8665C34.4271 33.9582 34.6838 33.9811 34.9043 33.9353L38.4257 33.8804C38.774 33.8804 39.0451 33.8227 39.2373 33.7083C39.43 33.5936 39.5444 33.4673 39.5813 33.33C39.6181 33.1925 39.6201 33.0364 39.5883 32.862C39.5557 32.688 39.5235 32.5664 39.4915 32.4976Z" fill="white"/>
</g>
<defs>
<clipPath id="clip0_1849_1352">
<rect width="26.4211" height="26.4211" fill="white" transform="translate(13.2105 13.2104)"/>
</clipPath>
</defs>
</svg>
