<svg width="24" height="20" viewBox="0 0 24 20" fill="none" xmlns="http://www.w3.org/2000/svg">
<path fill-rule="evenodd" clip-rule="evenodd" d="M1.72947 6.16818C2.11608 4.46001 3.60787 3.25 5.32722 3.25H12.6926C14.2071 3.25 15.6253 4.00761 16.4874 5.27725L19.1072 9.13562L22.2074 11.0322C23.3195 11.7126 24 12.938 24 14.2604V15.4853C24 16.5249 23.1735 17.3676 22.1538 17.3676H20.1501C19.77 18.4643 18.7442 19.25 17.5385 19.25C16.3327 19.25 15.307 18.4643 14.9268 17.3676H9.07319C8.69304 18.4643 7.66728 19.25 6.46154 19.25C5.2558 19.25 4.23004 18.4643 3.84988 17.3676H1.84615C0.826551 17.3676 0 16.5249 0 15.4853V13.12C0 12.7153 0.0639798 12.3133 0.189477 11.9295L0.956577 9.58303L1.72947 6.16818ZM3.84988 15.4853C4.23004 14.3886 5.2558 13.6029 6.46154 13.6029C7.66728 13.6029 8.69304 14.3886 9.07319 15.4853H14.9268C15.307 14.3886 16.3327 13.6029 17.5385 13.6029C18.7442 13.6029 19.77 14.3886 20.1501 15.4853H22.1538V14.2604C22.1538 13.5992 21.8136 12.9865 21.2575 12.6463L18.2059 10.7794H2.51147L1.94089 12.5247C1.87814 12.7166 1.84615 12.9176 1.84615 13.12V15.4853H3.84988ZM14.9695 6.3487L16.6998 8.89706H10.1538V5.13235H12.6926C13.6013 5.13235 14.4522 5.58692 14.9695 6.3487ZM8.30769 5.13235H5.32722C4.46755 5.13235 3.72165 5.73736 3.52834 6.59144L3.00651 8.89706H8.30769V5.13235ZM17.5385 15.4853C17.0287 15.4853 16.6154 15.9067 16.6154 16.4265C16.6154 16.9463 17.0287 17.3676 17.5385 17.3676C18.0483 17.3676 18.4615 16.9463 18.4615 16.4265C18.4615 15.9067 18.0483 15.4853 17.5385 15.4853ZM5.53846 16.4265C5.53846 15.9067 5.95174 15.4853 6.46154 15.4853C6.97134 15.4853 7.38462 15.9067 7.38462 16.4265C7.38462 16.9463 6.97134 17.3676 6.46154 17.3676C5.95174 17.3676 5.53846 16.9463 5.53846 16.4265Z" fill="white"/>
<rect x="6.5" y="0.75" width="5" height="4" rx="1" fill="white"/>
</svg>
