<svg width="21" height="20" viewBox="0 0 21 20" fill="none" xmlns="http://www.w3.org/2000/svg">
<path fill-rule="evenodd" clip-rule="evenodd" d="M4.53912 0.25C3.7107 0.25 3.03912 0.921573 3.03912 1.75V4.75C3.03912 4.96265 3.08337 5.16496 3.16316 5.34823C3.05137 5.49675 2.96597 5.66779 2.91482 5.85532L0.815551 13.5527L0.789124 13.6496V13.75V17.5C0.789124 17.9142 1.12491 18.25 1.53912 18.25H3.03912V19C3.03912 19.4142 3.37491 19.75 3.78912 19.75C4.20334 19.75 4.53912 19.4142 4.53912 19V18.25H16.5391V19C16.5391 19.4142 16.8749 19.75 17.2891 19.75C17.7033 19.75 18.0391 19.4142 18.0391 19V18.25H19.5391C19.9533 18.25 20.2891 17.9142 20.2891 17.5V13.75V13.6496L20.2627 13.5527L18.1634 5.85532C18.1123 5.66779 18.0269 5.49676 17.9151 5.34823C17.9949 5.16496 18.0391 4.96265 18.0391 4.75V1.75C18.0391 0.921573 17.3676 0.25 16.5391 0.25H4.53912ZM4.36197 6.25L4.53912 6.25H6.03912C6.03912 6.66421 6.37491 7 6.78912 7H9.03912C9.45334 7 9.78912 6.66421 9.78912 6.25H11.2891C11.2891 6.66421 11.6249 7 12.0391 7H14.2891C14.7033 7 15.0391 6.66421 15.0391 6.25H16.5391H16.7163L18.5572 13H2.52106L4.36197 6.25ZM15.0391 4.75H16.5391V1.75H4.53912V4.75H6.03912V4C6.03912 3.58579 6.37491 3.25 6.78912 3.25H9.03912C9.45334 3.25 9.78912 3.58579 9.78912 4V4.75H11.2891V4C11.2891 3.58579 11.6249 3.25 12.0391 3.25H14.2891C14.7033 3.25 15.0391 3.58579 15.0391 4V4.75ZM2.28912 14.5H18.7891V16.75H17.2891H3.78912H2.28912V14.5Z" fill="black"/>
</svg>
