<svg width="21" height="20" viewBox="0 0 21 20" fill="none" xmlns="http://www.w3.org/2000/svg">
<path fill-rule="evenodd" clip-rule="evenodd" d="M11.6957 0.280236L19.7469 4.7531C20.8032 5.33997 20.8032 6.66003 19.7469 7.2469L18.3913 8L19.7469 8.7531C20.8032 9.33997 20.8032 10.66 19.7469 11.2469L18.3913 12L19.7469 12.7531C20.8032 13.34 20.8032 14.66 19.7469 15.2469L11.6957 19.7198C11.0231 20.0934 10.0551 20.0934 9.38255 19.7198L1.33139 15.2469C0.275035 14.66 0.275035 13.34 1.33139 12.7531L2.68698 12L1.33139 11.2469C0.275035 10.66 0.275035 9.33997 1.33139 8.7531L2.68698 8L1.33139 7.2469C0.275035 6.66003 0.275035 5.33997 1.33139 4.7531L9.38255 0.280236C10.0551 -0.0934121 11.0231 -0.0934121 11.6957 0.280236ZM11.6957 11.7198L16.3321 9.14396L17.873 10L16.3321 10.856L14.273 12L10.7244 13.9714C10.6559 14.0095 10.4224 14.0095 10.3538 13.9714L6.80523 12L4.7461 10.856L3.20523 10L4.7461 9.14396L9.38255 11.7198C10.0551 12.0934 11.0231 12.0934 11.6957 11.7198ZM4.7461 13.144L3.20523 14L10.3538 17.9714C10.4224 18.0095 10.6559 18.0095 10.7244 17.9714L17.873 14L16.3321 13.144L11.6957 15.7198C11.0231 16.0934 10.0551 16.0934 9.38255 15.7198L4.7461 13.144ZM10.3538 2.02855C10.4224 1.99048 10.6559 1.99048 10.7244 2.02855L17.873 6L10.7244 9.97145C10.6559 10.0095 10.4224 10.0095 10.3538 9.97145L3.20523 6L10.3538 2.02855Z" fill="black"/>
</svg>
