<svg width="23" height="18" viewBox="0 0 23 18" fill="none" xmlns="http://www.w3.org/2000/svg">
<path fill-rule="evenodd" clip-rule="evenodd" d="M2.35731 0H20.7209C21.7251 0 22.5391 0.89543 22.5391 2V16C22.5391 17.1046 21.7251 18 20.7209 18H2.35731C1.35315 18 0.539124 17.1046 0.539124 16V2C0.539124 0.89543 1.35315 0 2.35731 0ZM2.53912 2V16H20.5391V2H2.53912ZM5.53912 10H10.5391V13H9.53912V15H13.5391V13H12.5391V10H17.5391V11H19.5391V7H17.5391V8H12.5391V5H13.5391V3H9.53912V5H10.5391V8H5.53912V7H3.53912V11H5.53912V10Z" fill="black"/>
</svg>
