<svg width="21" height="18" viewBox="0 0 21 18" fill="none" xmlns="http://www.w3.org/2000/svg">
<path fill-rule="evenodd" clip-rule="evenodd" d="M2.53945 6.567L2.02492 6.87168C1.54215 7.13989 0.933354 6.96595 0.665146 6.48317C0.396938 6.00038 0.570878 5.39158 1.05365 5.12337L9.08222 0.377528C9.98827 -0.125843 11.09 -0.125843 11.996 0.377528L20.0246 5.12337C20.5074 5.39158 20.6813 6.00038 20.4131 6.48317C20.1449 6.96595 19.5361 7.13989 19.0533 6.87168L18.5392 6.56721V17.4C18.5392 17.7314 18.2705 18 17.9392 18H12.1393C11.8079 18 11.5393 17.7314 11.5393 17.4V14.2C11.5393 14.0895 11.4497 14 11.3393 14H9.73932C9.62887 14 9.53932 14.0895 9.53932 14.2V17.4C9.53932 17.7314 9.2707 18 8.93933 18H3.13944C2.80808 18 2.53945 17.7314 2.53945 17.4V6.567ZM7.53912 10C7.53912 9.44771 7.98684 9 8.53912 9H12.539C13.0913 9 13.539 9.44771 13.539 10C13.539 10.5523 13.0913 11 12.539 11H8.53912C7.98684 11 7.53912 10.5523 7.53912 10ZM4.53941 15.8V5.38271L10.0535 2.11752C10.3555 1.94973 10.7227 1.94973 11.0248 2.11752L16.5392 5.38292V15.8C16.5392 15.9105 16.4497 16 16.3392 16H13.7392C13.6288 16 13.5393 15.9105 13.5393 15.8V13C13.5393 12.4477 13.0915 12 12.5393 12H8.53936C7.98708 12 7.53936 12.4477 7.53936 13V15.8C7.53936 15.9105 7.44982 16 7.33936 16H4.73941C4.62896 16 4.53941 15.9105 4.53941 15.8Z" fill="black"/>
</svg>
