<svg width="20" height="21" viewBox="0 0 20 21" fill="none" xmlns="http://www.w3.org/2000/svg">
<path fill-rule="evenodd" clip-rule="evenodd" d="M11.3431 4.99827L12.7681 6.40161L6.44992 12.8173C6.13288 13.1409 6.13288 13.6617 6.44992 13.9853C6.75077 14.2924 7.25334 14.291 7.55097 13.9836L14.5024 6.922C15.5172 5.88637 15.5172 4.22316 14.5024 3.18753C13.5341 2.19943 11.8209 2.22141 10.872 3.18941L3.28472 10.8916C1.57172 12.639 1.57172 15.445 3.28472 17.1924C4.94813 18.8892 7.80562 18.8616 9.44305 17.1908L18.2921 8.20358L19.7172 9.60679L10.8698 18.5924C8.4559 21.0554 4.31026 21.0955 1.85651 18.5925C-0.618878 16.0673 -0.618878 12.0166 1.85822 9.48976L9.44551 1.7876C11.1689 0.0295329 14.1703 -0.008973 15.9309 1.78775C17.7077 3.60101 17.7077 6.50852 15.9293 8.32342L8.98204 15.3807C7.90737 16.4907 6.10952 16.4957 5.02132 15.385C3.94242 14.2838 3.94242 12.5189 5.02312 11.4158L11.3431 4.99827Z" fill="black"/>
</svg>
