<svg width="16" height="16" viewBox="0 0 16 16" fill="none" xmlns="http://www.w3.org/2000/svg">
<path fill-rule="evenodd" clip-rule="evenodd" d="M7.99996 15.3332C3.94987 15.3332 0.666626 12.0499 0.666626 7.99984C0.666626 3.94975 3.94987 0.666504 7.99996 0.666504C12.05 0.666504 15.3333 3.94975 15.3333 7.99984C15.3333 12.0499 12.05 15.3332 7.99996 15.3332ZM7.99994 13.9998C11.3136 13.9998 13.9999 11.3135 13.9999 7.99984C13.9999 4.68613 11.3136 1.99984 7.99994 1.99984C4.68623 1.99984 1.99994 4.68613 1.99994 7.99984C1.99994 11.3135 4.68623 13.9998 7.99994 13.9998ZM11.3333 7.33317H8.66661V3.99984H7.33327V8.6665H11.3333V7.33317Z" fill="black"/>
</svg>
