<svg width="14" height="14" viewBox="0 0 14 14" fill="none" xmlns="http://www.w3.org/2000/svg">
<path fill-rule="evenodd" clip-rule="evenodd" d="M8.42214 8.42214C8.81209 8.0322 9.44431 8.0322 9.83426 8.42215L13.7075 12.2954C14.0975 12.6854 14.0975 13.3176 13.7075 13.7075C13.3176 14.0975 12.6854 14.0975 12.2954 13.7075L8.42214 9.83426C8.0322 9.44431 8.0322 8.81209 8.42214 8.42214ZM1.70457 13.7075C1.31463 14.0975 0.682403 14.0975 0.292458 13.7075C-0.0974861 13.3176 -0.0974861 12.6854 0.292458 12.2954L5.58789 7L0.292458 1.70457C-0.0974861 1.31463 -0.0974861 0.682403 0.292458 0.292458C0.682403 -0.0974861 1.31463 -0.0974861 1.70457 0.292458L7 5.58789L12.2954 0.292458C12.6854 -0.0974861 13.3176 -0.0974861 13.7075 0.292458C14.0975 0.682403 14.0975 1.31463 13.7075 1.70457L1.70457 13.7075Z" fill="#31303D"/>
</svg>
