<svg width="78" height="26" viewBox="0 0 78 26" fill="none" xmlns="http://www.w3.org/2000/svg">
<path d="M29.6315 19.261C29.676 19.3772 29.7875 19.4539 29.9119 19.4539H31.8029C31.902 19.4539 31.9947 19.405 32.0507 19.3232C32.1066 19.2414 32.1186 19.1373 32.0827 19.0449L27.8803 8.23886C27.8354 8.12342 27.7242 8.04741 27.6004 8.04749C27.4765 8.04756 27.3654 8.12371 27.3207 8.2392L23.1333 19.0453C23.0975 19.1376 23.1096 19.2417 23.1656 19.3234C23.2215 19.4051 23.3142 19.4539 23.4132 19.4539H25.3043C25.4298 19.4539 25.5421 19.3757 25.5858 19.258L25.9634 18.2382H29.2401L29.6315 19.261ZM38.7908 12.8802C38.625 12.8802 38.4906 13.0146 38.4906 13.1804V14.8463C38.4906 15.0121 38.625 15.1465 38.7908 15.1465H40.2466V16.2463C39.6606 16.8699 38.8421 17.2477 37.9203 17.2477C37.0054 17.2477 36.2126 16.9926 35.6507 16.4674C35.0927 15.9458 34.7235 15.1213 34.7235 13.9008C34.7235 12.8233 35.088 11.9916 35.6567 11.4297C36.2269 10.8662 37.0226 10.5539 37.9203 10.5539C38.7992 10.5539 39.6089 10.9111 40.1844 11.4866C40.2407 11.5428 40.317 11.5745 40.3967 11.5745C40.4763 11.5745 40.5526 11.5428 40.6089 11.4866L41.8396 10.2559C41.9562 10.1393 41.9569 9.95052 41.8413 9.83303C40.841 8.81685 39.4588 8.19757 37.9203 8.19757C34.8551 8.19757 32.3671 10.616 32.3671 13.9008C32.3671 15.6851 32.9412 17.1156 33.9089 18.1014C34.8761 19.0866 36.2134 19.604 37.6951 19.604C38.7919 19.604 39.6455 19.3787 40.4344 18.8026L40.4729 19.2259C40.487 19.3805 40.6166 19.4989 40.7719 19.4989H42.3027C42.4685 19.4989 42.6029 19.3645 42.6029 19.1988V13.1804C42.6029 13.0146 42.4685 12.8802 42.3027 12.8802H38.7908ZM51.5995 10.704C51.7653 10.704 51.8997 10.5696 51.8997 10.4038V8.64782C51.8997 8.48205 51.7653 8.34766 51.5995 8.34766H44.5906C44.4248 8.34766 44.2904 8.48205 44.2904 8.64782V19.1537C44.2904 19.3195 44.4248 19.4539 44.5906 19.4539H51.5995C51.7653 19.4539 51.8997 19.3195 51.8997 19.1537V17.3977C51.8997 17.232 51.7653 17.0976 51.5995 17.0976H46.6467V15.0714H50.714C50.8798 15.0714 51.0142 14.937 51.0142 14.7713V13.0303C51.0142 12.8645 50.8798 12.7301 50.714 12.7301H46.6467V10.704H51.5995ZM59.0571 17.0976H55.47V8.64782C55.47 8.48205 55.3357 8.34766 55.1699 8.34766H53.4139C53.2481 8.34766 53.1137 8.48205 53.1137 8.64782V19.1537C53.1137 19.3195 53.2481 19.4539 53.4139 19.4539H59.0571C59.2228 19.4539 59.3572 19.3195 59.3572 19.1537V17.3977C59.3572 17.232 59.2228 17.0976 59.0571 17.0976ZM65.9654 19.261C66.0099 19.3772 66.1214 19.4539 66.2457 19.4539H68.1368C68.2359 19.4539 68.3286 19.405 68.3846 19.3232C68.4405 19.2414 68.4525 19.1373 68.4166 19.0449L64.2142 8.23886C64.1693 8.12342 64.0581 8.04741 63.9343 8.04749C63.8104 8.04756 63.6993 8.12371 63.6546 8.2392L59.4672 19.0453C59.4314 19.1376 59.4435 19.2417 59.4995 19.3234C59.5554 19.4051 59.6481 19.4539 59.7471 19.4539H61.6382C61.7637 19.4539 61.876 19.3757 61.9196 19.258L62.2973 18.2382H65.574L65.9654 19.261ZM76.8806 19.4539C76.9897 19.4539 77.0903 19.3947 77.1432 19.2992C77.1961 19.2038 77.193 19.0872 77.1352 18.9946L74.4872 14.7578C74.9277 14.5938 75.3934 14.3414 75.7801 13.9531C76.2875 13.4436 76.6405 12.7179 76.6405 11.7095C76.6405 10.8824 76.4018 10.2433 76.03 9.75715C75.6613 9.27503 75.1753 8.96071 74.7043 8.75538C74.2333 8.5501 73.7665 8.44892 73.4203 8.39861C73.2464 8.37335 73.1009 8.36063 72.9979 8.35422C72.9464 8.35101 72.9053 8.34937 72.8765 8.34853L72.8426 8.34778L72.833 8.34767L72.83 8.34766L72.829 8.34766H72.8286C72.8285 8.34766 72.8284 8.34766 72.8284 8.64782V8.34766H69.3314C69.1656 8.34766 69.0312 8.48205 69.0312 8.64782V10.4038C69.0312 10.4607 69.0474 10.5165 69.0779 10.5646L70.4515 12.7301H69.3314C69.1656 12.7301 69.0312 12.8645 69.0312 13.0303V19.1537C69.0312 19.3195 69.1656 19.4539 69.3314 19.4539H71.0874C71.2532 19.4539 71.3875 19.3195 71.3875 19.1537V15.0714H71.9263L74.5697 19.3125C74.6245 19.4004 74.7208 19.4539 74.8245 19.4539H76.8806ZM26.7478 16.122L27.6006 13.6843L28.4533 16.122H26.7478ZM63.0817 16.122L63.9344 13.6843L64.7872 16.122H63.0817ZM73.2054 12.6923L71.9598 10.704L72.8279 10.704H72.828L72.8282 10.704H72.8284L72.8298 10.704L72.8406 10.7042C72.8509 10.7045 72.8669 10.705 72.8879 10.7061C72.93 10.7083 72.9915 10.7129 73.0658 10.7221C73.2161 10.7407 73.411 10.7775 73.6017 10.8484C73.7938 10.9198 73.9652 11.0197 74.0865 11.155C74.2021 11.284 74.2842 11.4577 74.2842 11.7095C74.2842 12.0989 74.0948 12.3256 73.8409 12.4753C73.639 12.5943 73.402 12.6587 73.2054 12.6923Z" fill="#F2F2F2" stroke="#F2F2F2" stroke-width="0.600337" stroke-linejoin="round"/>
<path d="M29.8418 19.1805C29.8529 19.2096 29.8808 19.2288 29.9119 19.2288H31.8029C31.8277 19.2288 31.8509 19.2165 31.8649 19.1961C31.8788 19.1756 31.8818 19.1496 31.8729 19.1265L27.6705 8.32046C27.6593 8.2916 27.6315 8.2726 27.6005 8.27261C27.5696 8.27263 27.5418 8.29167 27.5306 8.32054L23.3432 19.1266C23.3343 19.1497 23.3373 19.1757 23.3513 19.1961C23.3653 19.2166 23.3885 19.2288 23.4132 19.2288H25.3043C25.3357 19.2288 25.3637 19.2092 25.3746 19.1798L25.8068 18.0131H29.395L29.8418 19.1805ZM38.7908 13.1053C38.7493 13.1053 38.7157 13.1389 38.7157 13.1804V14.8463C38.7157 14.8878 38.7493 14.9214 38.7908 14.9214H40.4717V16.3337C39.841 17.0409 38.9385 17.4728 37.9203 17.4728C36.9655 17.4728 36.1116 17.2064 35.497 16.6319C34.8833 16.0583 34.4983 15.1683 34.4983 13.9008C34.4983 12.7703 34.8821 11.8786 35.4985 11.2695C36.1152 10.6601 36.9698 10.3288 37.9203 10.3288C38.8604 10.3288 39.727 10.7107 40.3436 11.3274C40.3577 11.3414 40.3768 11.3493 40.3967 11.3493C40.4166 11.3493 40.4356 11.3414 40.4497 11.3274L41.6804 10.0967C41.7096 10.0675 41.7097 10.0203 41.6808 9.99097C40.7216 9.01651 39.3968 8.4227 37.9203 8.4227C34.9815 8.4227 32.5923 10.7383 32.5923 13.9008C32.5923 15.6357 33.1495 17.0064 34.0696 17.9437C34.9896 18.8809 36.2666 19.3789 37.6951 19.3789C38.9026 19.3789 39.7832 19.0991 40.6207 18.3646L40.6971 19.2055C40.7006 19.2442 40.7331 19.2738 40.7719 19.2738H42.3027C42.3442 19.2738 42.3778 19.2402 42.3778 19.1988V13.1804C42.3778 13.1389 42.3442 13.1053 42.3027 13.1053H38.7908ZM51.5995 10.4789C51.641 10.4789 51.6746 10.4453 51.6746 10.4038V8.64782C51.6746 8.60638 51.641 8.57278 51.5995 8.57278H44.5906C44.5491 8.57278 44.5155 8.60638 44.5155 8.64782V19.1537C44.5155 19.1952 44.5491 19.2288 44.5906 19.2288H51.5995C51.641 19.2288 51.6746 19.1952 51.6746 19.1537V17.3977C51.6746 17.3563 51.641 17.3227 51.5995 17.3227H46.4216V14.8463H50.714C50.7555 14.8463 50.7891 14.8127 50.7891 14.7713V13.0303C50.7891 12.9888 50.7555 12.9552 50.714 12.9552H46.4216V10.4789H51.5995ZM59.0571 17.3227H55.2449V8.64782C55.2449 8.60638 55.2113 8.57278 55.1699 8.57278H53.4139C53.3724 8.57278 53.3388 8.60638 53.3388 8.64782V19.1537C53.3388 19.1952 53.3724 19.2288 53.4139 19.2288H59.0571C59.0985 19.2288 59.1321 19.1952 59.1321 19.1537V17.3977C59.1321 17.3563 59.0985 17.3227 59.0571 17.3227ZM66.1757 19.1805C66.1868 19.2096 66.2146 19.2288 66.2457 19.2288H68.1368C68.1616 19.2288 68.1848 19.2165 68.1987 19.1961C68.2127 19.1756 68.2157 19.1496 68.2067 19.1265L64.0044 8.32046C63.9932 8.2916 63.9654 8.2726 63.9344 8.27261C63.9034 8.27263 63.8757 8.29167 63.8645 8.32054L59.6771 19.1266C59.6682 19.1497 59.6712 19.1757 59.6852 19.1961C59.6992 19.2166 59.7223 19.2288 59.7471 19.2288H61.6382C61.6696 19.2288 61.6976 19.2092 61.7085 19.1798L62.1406 18.0131H65.7289L66.1757 19.1805ZM76.8806 19.2288C76.9079 19.2288 76.933 19.214 76.9463 19.1901C76.9595 19.1662 76.9587 19.1371 76.9443 19.114L74.1452 14.6355C74.6387 14.4862 75.1863 14.2303 75.6206 13.7943C76.0851 13.3278 76.4154 12.6595 76.4154 11.7095C76.4154 10.9287 76.1911 10.3384 75.8512 9.8939C75.5121 9.45046 75.0613 9.1566 74.6143 8.96175C74.1673 8.76691 73.7214 8.66986 73.3879 8.6214C73.2209 8.59715 73.0817 8.585 72.9839 8.57891C72.935 8.57586 72.8965 8.57433 72.87 8.57356L72.8395 8.57288L72.8314 8.5728L72.8292 8.57278L72.8286 8.57278L72.8285 8.57278C72.8284 8.57278 72.8284 8.57278 72.8284 8.64782V8.57278H69.3314C69.2899 8.57278 69.2563 8.60638 69.2563 8.64782V10.4038C69.2563 10.418 69.2604 10.432 69.268 10.444L70.8609 12.9552H69.3314C69.2899 12.9552 69.2563 12.9888 69.2563 13.0303V19.1537C69.2563 19.1952 69.2899 19.2288 69.3314 19.2288H71.0874C71.1288 19.2288 71.1624 19.1952 71.1624 19.1537V14.8463H72.0513L74.7608 19.1934C74.7745 19.2154 74.7986 19.2288 74.8245 19.2288H76.8806ZM26.4306 16.3472L27.6006 13.0024L28.7705 16.3472H26.4306ZM62.7645 16.3472L63.9344 13.0024L65.1044 16.3472H62.7645ZM73.0922 12.9357L71.5531 10.4789H72.8284L72.8284 10.4789L72.8292 10.4789L72.8325 10.4789L72.8462 10.4791C72.8584 10.4795 72.8766 10.4801 72.8998 10.4813C72.9464 10.4838 73.0132 10.4887 73.0935 10.4987C73.2545 10.5186 73.4679 10.5584 73.6802 10.6374C73.8928 10.7164 74.1003 10.8332 74.2541 11.0048C74.4065 11.1747 74.5093 11.4017 74.5093 11.7095C74.5093 12.1952 74.2622 12.4883 73.9553 12.6692C73.6646 12.8406 73.322 12.9095 73.0922 12.9357Z" fill="black" stroke="black" stroke-width="0.150084" stroke-linejoin="round"/>
<mask id="path-3-outside-1_665_4899" maskUnits="userSpaceOnUse" x="22.2631" y="7.19727" width="55" height="13" fill="black">
<rect fill="white" x="22.2631" y="7.19727" width="55" height="13"/>
<path fill-rule="evenodd" clip-rule="evenodd" d="M29.9118 19.3035C29.8496 19.3035 29.7939 19.2651 29.7716 19.2071L29.3433 18.0878H25.8589L25.445 19.2055C25.4231 19.2644 25.367 19.3035 25.3042 19.3035H23.4131C23.3636 19.3035 23.3173 19.2791 23.2893 19.2382C23.2613 19.1974 23.2553 19.1454 23.2732 19.0992L27.4606 8.29312C27.4829 8.23538 27.5385 8.1973 27.6004 8.19727C27.6623 8.19723 27.7179 8.23523 27.7404 8.29295L31.9427 19.099C31.9607 19.1452 31.9547 19.1973 31.9267 19.2382C31.8988 19.2791 31.8524 19.3035 31.8029 19.3035H29.9118ZM25.7545 17.9377H29.4465L29.9118 19.1534H31.8029L27.6005 8.34735L23.4131 19.1534H25.3042L25.7545 17.9377ZM27.6005 12.7748L26.3248 16.4219H28.8762L27.6005 12.7748ZM27.6005 13.2294L26.5363 16.2718H28.6647L27.6005 13.2294ZM38.6406 13.1801C38.6406 13.0972 38.7078 13.03 38.7907 13.03H42.3027C42.3856 13.03 42.4528 13.0972 42.4528 13.1801V19.1984C42.4528 19.2813 42.3856 19.3485 42.3027 19.3485H40.7718C40.6942 19.3485 40.6294 19.2893 40.6223 19.212L40.559 18.5153C39.7384 19.1931 38.8649 19.4536 37.6951 19.4536C36.2488 19.4536 34.9517 18.9491 34.016 17.996C33.08 17.0425 32.5172 15.6519 32.5172 13.9005C32.5172 10.6972 34.9393 8.34735 37.9202 8.34735C39.4174 8.34735 40.7613 8.94965 41.7342 9.93802C41.7921 9.99676 41.7917 10.0911 41.7334 10.1494L40.5027 11.3801C40.4441 11.4387 40.3491 11.4387 40.2905 11.3801C39.6875 10.7772 38.8399 10.4035 37.9202 10.4035C36.9874 10.4035 36.1524 10.7285 35.5512 11.3226C34.9507 11.9159 34.5733 12.7877 34.5733 13.9005C34.5733 15.1524 34.9531 16.0205 35.5482 16.5768C36.1452 17.1349 36.9788 17.3974 37.9202 17.3974C38.9063 17.3974 39.7806 16.9838 40.3966 16.3046V14.9961H38.7907C38.7078 14.9961 38.6406 14.9289 38.6406 14.846V13.1801ZM40.5467 16.3619C39.9013 17.0973 38.9708 17.5475 37.9202 17.5475C35.9841 17.5475 34.4232 16.4669 34.4232 13.9005C34.4232 11.6042 35.9841 10.2534 37.9202 10.2534C38.8804 10.2534 39.7657 10.6434 40.396 11.2734C40.3962 11.2736 40.3964 11.2738 40.3966 11.274L41.6272 10.0433C41.6273 10.0434 41.6272 10.0433 41.6272 10.0433C41.608 10.0238 41.5886 10.0043 41.569 9.98502C41.5529 9.96919 41.5368 9.95347 41.5205 9.93786C40.5846 9.0401 39.322 8.49743 37.9202 8.49743C35.0236 8.49743 32.6673 10.7787 32.6673 13.9005C32.6673 17.3374 34.8735 19.3035 37.6951 19.3035C38.8733 19.3035 39.7293 19.035 40.5424 18.3328C40.589 18.2926 40.6354 18.251 40.6818 18.2079L40.7718 19.1984H42.3027V13.1801H38.7907V14.846H40.5467V16.3619ZM51.7495 10.4035C51.7495 10.4864 51.6823 10.5536 51.5995 10.5536H46.4966V12.8799H50.714C50.7968 12.8799 50.864 12.9471 50.864 13.03V14.771C50.864 14.8538 50.7968 14.921 50.714 14.921H46.4966V17.2474H51.5995C51.6823 17.2474 51.7495 17.3145 51.7495 17.3974V19.1534C51.7495 19.2363 51.6823 19.3035 51.5995 19.3035H44.5905C44.5076 19.3035 44.4404 19.2363 44.4404 19.1534V8.64752C44.4404 8.56463 44.5076 8.49743 44.5905 8.49743H51.5995C51.6823 8.49743 51.7495 8.56463 51.7495 8.64752V10.4035ZM51.5995 17.3974V19.1534H44.5905V8.64752H51.5995V10.4035H46.3465V13.03H50.714V14.771H46.3465V17.3974H51.5995ZM59.057 17.3974V19.1534H53.4138V8.64752H55.1698V17.3974H59.057ZM55.3199 17.2474H59.057C59.1399 17.2474 59.2071 17.3145 59.2071 17.3974V19.1534C59.2071 19.2363 59.1399 19.3035 59.057 19.3035H53.4138C53.3309 19.3035 53.2637 19.2363 53.2637 19.1534V8.64752C53.2637 8.56463 53.3309 8.49743 53.4138 8.49743H55.1698C55.2527 8.49743 55.3199 8.56463 55.3199 8.64752V17.2474ZM66.2457 19.3035C66.1835 19.3035 66.1277 19.2651 66.1055 19.2071L65.6772 18.0878H62.1928L61.7788 19.2055C61.757 19.2644 61.7009 19.3035 61.6381 19.3035H59.747C59.6975 19.3035 59.6512 19.2791 59.6232 19.2382C59.5952 19.1974 59.5892 19.1454 59.6071 19.0992L63.7944 8.29312C63.8168 8.23538 63.8724 8.1973 63.9343 8.19727C63.9962 8.19723 64.0518 8.23523 64.0743 8.29295L68.2766 19.099C68.2946 19.1452 68.2886 19.1973 68.2606 19.2382C68.2326 19.2791 68.1863 19.3035 68.1367 19.3035H66.2457ZM62.0884 17.9377H65.7804L66.2457 19.1534H68.1367L63.9344 8.34735L59.747 19.1534H61.6381L62.0884 17.9377ZM63.9344 12.7748L62.6587 16.4219H65.2101L63.9344 12.7748ZM63.9344 13.2294L62.8702 16.2718H64.9986L63.9344 13.2294ZM77.0118 19.2262C76.9854 19.2739 76.9351 19.3035 76.8806 19.3035H74.8244C74.7726 19.3035 74.7244 19.2768 74.697 19.2328L72.0096 14.921H71.2374V19.1534C71.2374 19.2363 71.1702 19.3035 71.0873 19.3035H69.3313C69.2484 19.3035 69.1812 19.2363 69.1812 19.1534V13.03C69.1812 12.9471 69.2484 12.8799 69.3313 12.8799H70.7243L69.2046 10.4839C69.1893 10.4599 69.1812 10.432 69.1812 10.4035V8.64752C69.1812 8.56463 69.2484 8.49743 69.3313 8.49743H72.8283V8.64752H69.3313V10.4035L70.9973 13.03H69.3313V19.1534H71.0873V14.771H72.0929L74.8244 19.1534H76.8806L74.029 14.5909C74.0781 14.5771 74.1279 14.5623 74.1782 14.5464C75.1709 14.2322 76.3403 13.4806 76.3403 11.7092C76.3403 8.64752 72.8283 8.64752 72.8283 8.64752C72.8283 8.49743 72.8284 8.49743 72.8285 8.49743L72.8287 8.49743L72.8294 8.49744L72.8319 8.49745L72.8405 8.49754C72.8478 8.49765 72.8585 8.49785 72.8721 8.49824C72.8994 8.49904 72.9387 8.5006 72.9885 8.5037C73.088 8.5099 73.2294 8.52224 73.3986 8.54683C73.7364 8.59591 74.1893 8.69433 74.6442 8.89265C75.0993 9.091 75.5618 9.39168 75.9107 9.84801C76.2612 10.3064 76.4903 10.9129 76.4903 11.7092C76.4903 12.6787 76.1525 13.3661 75.6737 13.8469C75.2554 14.267 74.7365 14.5226 74.2602 14.6777L77.0078 19.0739C77.0368 19.1201 77.0383 19.1785 77.0118 19.2262ZM72.8283 10.4035H71.4175L73.0534 13.015C73.5187 12.9699 74.5843 12.7448 74.5843 11.7092C74.5843 10.4035 72.8283 10.4035 72.8283 10.4035ZM73.1304 12.8551C73.3527 12.8257 73.6579 12.7571 73.9171 12.6043C74.2063 12.4338 74.4342 12.1628 74.4342 11.7092C74.4342 11.4201 74.3383 11.2109 74.1982 11.0545C74.0552 10.8951 73.8597 10.7839 73.654 10.7074C73.4489 10.6311 73.2416 10.5924 73.0842 10.5729C73.0059 10.5631 72.9408 10.5583 72.8958 10.5559C72.8733 10.5547 72.8558 10.5541 72.8443 10.5539C72.8385 10.5537 72.8342 10.5537 72.8315 10.5536L72.8287 10.5536L72.8283 10.5536H71.6886L73.1304 12.8551Z"/>
</mask>
<path fill-rule="evenodd" clip-rule="evenodd" d="M29.9118 19.3035C29.8496 19.3035 29.7939 19.2651 29.7716 19.2071L29.3433 18.0878H25.8589L25.445 19.2055C25.4231 19.2644 25.367 19.3035 25.3042 19.3035H23.4131C23.3636 19.3035 23.3173 19.2791 23.2893 19.2382C23.2613 19.1974 23.2553 19.1454 23.2732 19.0992L27.4606 8.29312C27.4829 8.23538 27.5385 8.1973 27.6004 8.19727C27.6623 8.19723 27.7179 8.23523 27.7404 8.29295L31.9427 19.099C31.9607 19.1452 31.9547 19.1973 31.9267 19.2382C31.8988 19.2791 31.8524 19.3035 31.8029 19.3035H29.9118ZM25.7545 17.9377H29.4465L29.9118 19.1534H31.8029L27.6005 8.34735L23.4131 19.1534H25.3042L25.7545 17.9377ZM27.6005 12.7748L26.3248 16.4219H28.8762L27.6005 12.7748ZM27.6005 13.2294L26.5363 16.2718H28.6647L27.6005 13.2294ZM38.6406 13.1801C38.6406 13.0972 38.7078 13.03 38.7907 13.03H42.3027C42.3856 13.03 42.4528 13.0972 42.4528 13.1801V19.1984C42.4528 19.2813 42.3856 19.3485 42.3027 19.3485H40.7718C40.6942 19.3485 40.6294 19.2893 40.6223 19.212L40.559 18.5153C39.7384 19.1931 38.8649 19.4536 37.6951 19.4536C36.2488 19.4536 34.9517 18.9491 34.016 17.996C33.08 17.0425 32.5172 15.6519 32.5172 13.9005C32.5172 10.6972 34.9393 8.34735 37.9202 8.34735C39.4174 8.34735 40.7613 8.94965 41.7342 9.93802C41.7921 9.99676 41.7917 10.0911 41.7334 10.1494L40.5027 11.3801C40.4441 11.4387 40.3491 11.4387 40.2905 11.3801C39.6875 10.7772 38.8399 10.4035 37.9202 10.4035C36.9874 10.4035 36.1524 10.7285 35.5512 11.3226C34.9507 11.9159 34.5733 12.7877 34.5733 13.9005C34.5733 15.1524 34.9531 16.0205 35.5482 16.5768C36.1452 17.1349 36.9788 17.3974 37.9202 17.3974C38.9063 17.3974 39.7806 16.9838 40.3966 16.3046V14.9961H38.7907C38.7078 14.9961 38.6406 14.9289 38.6406 14.846V13.1801ZM40.5467 16.3619C39.9013 17.0973 38.9708 17.5475 37.9202 17.5475C35.9841 17.5475 34.4232 16.4669 34.4232 13.9005C34.4232 11.6042 35.9841 10.2534 37.9202 10.2534C38.8804 10.2534 39.7657 10.6434 40.396 11.2734C40.3962 11.2736 40.3964 11.2738 40.3966 11.274L41.6272 10.0433C41.6273 10.0434 41.6272 10.0433 41.6272 10.0433C41.608 10.0238 41.5886 10.0043 41.569 9.98502C41.5529 9.96919 41.5368 9.95347 41.5205 9.93786C40.5846 9.0401 39.322 8.49743 37.9202 8.49743C35.0236 8.49743 32.6673 10.7787 32.6673 13.9005C32.6673 17.3374 34.8735 19.3035 37.6951 19.3035C38.8733 19.3035 39.7293 19.035 40.5424 18.3328C40.589 18.2926 40.6354 18.251 40.6818 18.2079L40.7718 19.1984H42.3027V13.1801H38.7907V14.846H40.5467V16.3619ZM51.7495 10.4035C51.7495 10.4864 51.6823 10.5536 51.5995 10.5536H46.4966V12.8799H50.714C50.7968 12.8799 50.864 12.9471 50.864 13.03V14.771C50.864 14.8538 50.7968 14.921 50.714 14.921H46.4966V17.2474H51.5995C51.6823 17.2474 51.7495 17.3145 51.7495 17.3974V19.1534C51.7495 19.2363 51.6823 19.3035 51.5995 19.3035H44.5905C44.5076 19.3035 44.4404 19.2363 44.4404 19.1534V8.64752C44.4404 8.56463 44.5076 8.49743 44.5905 8.49743H51.5995C51.6823 8.49743 51.7495 8.56463 51.7495 8.64752V10.4035ZM51.5995 17.3974V19.1534H44.5905V8.64752H51.5995V10.4035H46.3465V13.03H50.714V14.771H46.3465V17.3974H51.5995ZM59.057 17.3974V19.1534H53.4138V8.64752H55.1698V17.3974H59.057ZM55.3199 17.2474H59.057C59.1399 17.2474 59.2071 17.3145 59.2071 17.3974V19.1534C59.2071 19.2363 59.1399 19.3035 59.057 19.3035H53.4138C53.3309 19.3035 53.2637 19.2363 53.2637 19.1534V8.64752C53.2637 8.56463 53.3309 8.49743 53.4138 8.49743H55.1698C55.2527 8.49743 55.3199 8.56463 55.3199 8.64752V17.2474ZM66.2457 19.3035C66.1835 19.3035 66.1277 19.2651 66.1055 19.2071L65.6772 18.0878H62.1928L61.7788 19.2055C61.757 19.2644 61.7009 19.3035 61.6381 19.3035H59.747C59.6975 19.3035 59.6512 19.2791 59.6232 19.2382C59.5952 19.1974 59.5892 19.1454 59.6071 19.0992L63.7944 8.29312C63.8168 8.23538 63.8724 8.1973 63.9343 8.19727C63.9962 8.19723 64.0518 8.23523 64.0743 8.29295L68.2766 19.099C68.2946 19.1452 68.2886 19.1973 68.2606 19.2382C68.2326 19.2791 68.1863 19.3035 68.1367 19.3035H66.2457ZM62.0884 17.9377H65.7804L66.2457 19.1534H68.1367L63.9344 8.34735L59.747 19.1534H61.6381L62.0884 17.9377ZM63.9344 12.7748L62.6587 16.4219H65.2101L63.9344 12.7748ZM63.9344 13.2294L62.8702 16.2718H64.9986L63.9344 13.2294ZM77.0118 19.2262C76.9854 19.2739 76.9351 19.3035 76.8806 19.3035H74.8244C74.7726 19.3035 74.7244 19.2768 74.697 19.2328L72.0096 14.921H71.2374V19.1534C71.2374 19.2363 71.1702 19.3035 71.0873 19.3035H69.3313C69.2484 19.3035 69.1812 19.2363 69.1812 19.1534V13.03C69.1812 12.9471 69.2484 12.8799 69.3313 12.8799H70.7243L69.2046 10.4839C69.1893 10.4599 69.1812 10.432 69.1812 10.4035V8.64752C69.1812 8.56463 69.2484 8.49743 69.3313 8.49743H72.8283V8.64752H69.3313V10.4035L70.9973 13.03H69.3313V19.1534H71.0873V14.771H72.0929L74.8244 19.1534H76.8806L74.029 14.5909C74.0781 14.5771 74.1279 14.5623 74.1782 14.5464C75.1709 14.2322 76.3403 13.4806 76.3403 11.7092C76.3403 8.64752 72.8283 8.64752 72.8283 8.64752C72.8283 8.49743 72.8284 8.49743 72.8285 8.49743L72.8287 8.49743L72.8294 8.49744L72.8319 8.49745L72.8405 8.49754C72.8478 8.49765 72.8585 8.49785 72.8721 8.49824C72.8994 8.49904 72.9387 8.5006 72.9885 8.5037C73.088 8.5099 73.2294 8.52224 73.3986 8.54683C73.7364 8.59591 74.1893 8.69433 74.6442 8.89265C75.0993 9.091 75.5618 9.39168 75.9107 9.84801C76.2612 10.3064 76.4903 10.9129 76.4903 11.7092C76.4903 12.6787 76.1525 13.3661 75.6737 13.8469C75.2554 14.267 74.7365 14.5226 74.2602 14.6777L77.0078 19.0739C77.0368 19.1201 77.0383 19.1785 77.0118 19.2262ZM72.8283 10.4035H71.4175L73.0534 13.015C73.5187 12.9699 74.5843 12.7448 74.5843 11.7092C74.5843 10.4035 72.8283 10.4035 72.8283 10.4035ZM73.1304 12.8551C73.3527 12.8257 73.6579 12.7571 73.9171 12.6043C74.2063 12.4338 74.4342 12.1628 74.4342 11.7092C74.4342 11.4201 74.3383 11.2109 74.1982 11.0545C74.0552 10.8951 73.8597 10.7839 73.654 10.7074C73.4489 10.6311 73.2416 10.5924 73.0842 10.5729C73.0059 10.5631 72.9408 10.5583 72.8958 10.5559C72.8733 10.5547 72.8558 10.5541 72.8443 10.5539C72.8385 10.5537 72.8342 10.5537 72.8315 10.5536L72.8287 10.5536L72.8283 10.5536H71.6886L73.1304 12.8551Z" fill="#333333"/>
<path d="M29.7716 19.2071L29.9118 19.1534L29.9118 19.1534L29.7716 19.2071ZM29.3433 18.0878L29.4834 18.0342C29.4612 17.9761 29.4055 17.9377 29.3433 17.9377V18.0878ZM25.8589 18.0878V17.9377C25.7961 17.9377 25.74 17.9768 25.7182 18.0357L25.8589 18.0878ZM25.445 19.2055L25.3042 19.1534L25.3042 19.1534L25.445 19.2055ZM23.2732 19.0992L23.4131 19.1534L23.4131 19.1534L23.2732 19.0992ZM27.4606 8.29312L27.3206 8.23889V8.23889L27.4606 8.29312ZM27.6004 8.19727L27.6005 8.34735L27.6004 8.19727ZM27.7404 8.29295L27.6005 8.34735L27.6005 8.34735L27.7404 8.29295ZM31.9427 19.099L32.0826 19.0446L31.9427 19.099ZM31.9267 19.2382L32.0506 19.3229L32.0506 19.3229L31.9267 19.2382ZM25.7545 17.9377V17.7877C25.6917 17.7877 25.6355 17.8267 25.6137 17.8856L25.7545 17.9377ZM29.4465 17.9377L29.5867 17.8841C29.5645 17.826 29.5087 17.7877 29.4465 17.7877V17.9377ZM29.9118 19.1534L29.7716 19.2071C29.7939 19.2651 29.8496 19.3035 29.9118 19.3035V19.1534ZM31.8029 19.1534V19.3035C31.8524 19.3035 31.8988 19.2791 31.9267 19.2382C31.9547 19.1973 31.9607 19.1452 31.9427 19.099L31.8029 19.1534ZM27.6005 8.34735L27.7404 8.29295C27.7179 8.23523 27.6623 8.19723 27.6004 8.19727C27.5385 8.1973 27.4829 8.23538 27.4606 8.29312L27.6005 8.34735ZM23.4131 19.1534L23.2732 19.0992C23.2553 19.1454 23.2613 19.1974 23.2893 19.2382C23.3173 19.2791 23.3636 19.3035 23.4131 19.3035V19.1534ZM25.3042 19.1534V19.3035C25.367 19.3035 25.4231 19.2644 25.445 19.2055L25.3042 19.1534ZM27.6005 12.7748L27.7422 12.7253C27.7211 12.6651 27.6643 12.6248 27.6005 12.6248C27.5367 12.6248 27.4799 12.6651 27.4588 12.7253L27.6005 12.7748ZM26.3248 16.4219L26.1831 16.3723C26.1671 16.4182 26.1742 16.4691 26.2024 16.5087C26.2305 16.5484 26.2761 16.572 26.3248 16.572V16.4219ZM28.8762 16.4219V16.572C28.9248 16.572 28.9705 16.5484 28.9986 16.5087C29.0268 16.4691 29.0339 16.4182 29.0179 16.3723L28.8762 16.4219ZM26.5363 16.2718L26.3946 16.2222C26.3786 16.2682 26.3857 16.319 26.4139 16.3587C26.442 16.3983 26.4876 16.4219 26.5363 16.4219V16.2718ZM27.6005 13.2294L27.7422 13.1798C27.7211 13.1196 27.6643 13.0793 27.6005 13.0793C27.5367 13.0793 27.4799 13.1196 27.4588 13.1798L27.6005 13.2294ZM28.6647 16.2718V16.4219C28.7133 16.4219 28.759 16.3983 28.7871 16.3587C28.8153 16.319 28.8224 16.2682 28.8064 16.2222L28.6647 16.2718ZM40.6223 19.212L40.7718 19.1984V19.1984L40.6223 19.212ZM40.559 18.5153L40.7085 18.5017C40.7034 18.4462 40.6681 18.3981 40.6167 18.3767C40.5653 18.3553 40.5063 18.3641 40.4634 18.3996L40.559 18.5153ZM34.016 17.996L34.1231 17.8908H34.1231L34.016 17.996ZM41.7342 9.93802L41.6273 10.0433V10.0433L41.7342 9.93802ZM41.7334 10.1494L41.6273 10.0433H41.6273L41.7334 10.1494ZM40.5027 11.3801L40.6088 11.4862V11.4862L40.5027 11.3801ZM40.2905 11.3801L40.1843 11.4862V11.4862L40.2905 11.3801ZM35.5512 11.3226L35.6567 11.4294L35.5512 11.3226ZM35.5482 16.5768L35.6507 16.4671L35.5482 16.5768ZM40.3966 16.3046L40.5078 16.4055C40.5328 16.3779 40.5467 16.3419 40.5467 16.3046H40.3966ZM40.3966 14.9961H40.5467C40.5467 14.9132 40.4795 14.846 40.3966 14.846V14.9961ZM40.5467 16.3619L40.6595 16.4608C40.6835 16.4335 40.6968 16.3983 40.6968 16.3619H40.5467ZM40.396 11.2734L40.2899 11.3796L40.29 11.3796L40.396 11.2734ZM40.3966 11.274L40.2905 11.3802C40.3492 11.4387 40.4441 11.4387 40.5027 11.3801L40.3966 11.274ZM41.569 9.98502L41.4637 10.092L41.4637 10.092L41.569 9.98502ZM41.5205 9.93786L41.4166 10.0462V10.0462L41.5205 9.93786ZM40.5424 18.3328L40.4443 18.2192L40.4443 18.2192L40.5424 18.3328ZM40.6818 18.2079L40.8312 18.1943C40.826 18.1373 40.7889 18.0882 40.7354 18.0677C40.6819 18.0473 40.6215 18.059 40.5796 18.098L40.6818 18.2079ZM40.7718 19.1984L40.6223 19.212C40.6294 19.2893 40.6942 19.3485 40.7718 19.3485V19.1984ZM42.3027 19.1984V19.3485C42.3856 19.3485 42.4528 19.2813 42.4528 19.1984H42.3027ZM42.3027 13.1801H42.4528C42.4528 13.0972 42.3856 13.03 42.3027 13.03V13.1801ZM38.7907 13.1801V13.03C38.7078 13.03 38.6406 13.0972 38.6406 13.1801H38.7907ZM38.7907 14.846H38.6406C38.6406 14.9289 38.7078 14.9961 38.7907 14.9961V14.846ZM40.5467 14.846H40.6968C40.6968 14.7631 40.6296 14.6959 40.5467 14.6959V14.846ZM46.4966 10.5536V10.4035C46.4137 10.4035 46.3465 10.4707 46.3465 10.5536H46.4966ZM46.4966 12.8799H46.3465C46.3465 12.9628 46.4137 13.03 46.4966 13.03V12.8799ZM46.4966 14.921V14.771C46.4137 14.771 46.3465 14.8382 46.3465 14.921H46.4966ZM46.4966 17.2474H46.3465C46.3465 17.3302 46.4137 17.3974 46.4966 17.3974V17.2474ZM51.5995 17.3974H51.7495C51.7495 17.3145 51.6823 17.2474 51.5995 17.2474V17.3974ZM51.5995 19.1534V19.3035C51.6823 19.3035 51.7495 19.2363 51.7495 19.1534H51.5995ZM44.5905 19.1534H44.4404C44.4404 19.2363 44.5076 19.3035 44.5905 19.3035V19.1534ZM44.5905 8.64752V8.49743C44.5076 8.49743 44.4404 8.56463 44.4404 8.64752H44.5905ZM51.5995 8.64752H51.7495C51.7495 8.56463 51.6823 8.49743 51.5995 8.49743V8.64752ZM51.5995 10.4035V10.5536C51.6823 10.5536 51.7495 10.4864 51.7495 10.4035H51.5995ZM46.3465 10.4035V10.2534C46.2636 10.2534 46.1964 10.3206 46.1964 10.4035H46.3465ZM46.3465 13.03H46.1964C46.1964 13.1129 46.2636 13.1801 46.3465 13.1801V13.03ZM50.714 13.03H50.864C50.864 12.9471 50.7968 12.8799 50.714 12.8799V13.03ZM50.714 14.771V14.921C50.7968 14.921 50.864 14.8538 50.864 14.771H50.714ZM46.3465 14.771V14.6209C46.2636 14.6209 46.1964 14.6881 46.1964 14.771H46.3465ZM46.3465 17.3974H46.1964C46.1964 17.4803 46.2636 17.5475 46.3465 17.5475V17.3974ZM59.057 17.3974H59.2071C59.2071 17.3145 59.1399 17.2474 59.057 17.2474V17.3974ZM59.057 19.1534V19.3035C59.1399 19.3035 59.2071 19.2363 59.2071 19.1534H59.057ZM53.4138 19.1534H53.2637C53.2637 19.2363 53.3309 19.3035 53.4138 19.3035V19.1534ZM53.4138 8.64752V8.49743C53.3309 8.49743 53.2637 8.56463 53.2637 8.64752H53.4138ZM55.1698 8.64752H55.3199C55.3199 8.56463 55.2527 8.49743 55.1698 8.49743V8.64752ZM55.1698 17.3974H55.0197C55.0197 17.4803 55.0869 17.5475 55.1698 17.5475V17.3974ZM55.3199 17.2474H55.1698C55.1698 17.3302 55.237 17.3974 55.3199 17.3974V17.2474ZM66.1055 19.2071L65.9653 19.2607V19.2607L66.1055 19.2071ZM65.6772 18.0878L65.8173 18.0342C65.7951 17.9761 65.7394 17.9377 65.6772 17.9377V18.0878ZM62.1928 18.0878V17.9377C62.13 17.9377 62.0739 17.9768 62.0521 18.0357L62.1928 18.0878ZM61.7788 19.2055L61.6381 19.1534L61.7788 19.2055ZM59.6071 19.0992L59.747 19.1534L59.747 19.1534L59.6071 19.0992ZM63.7944 8.29312L63.9344 8.34735V8.34735L63.7944 8.29312ZM63.9343 8.19727L63.9344 8.34735L63.9343 8.19727ZM64.0743 8.29295L64.2141 8.23855V8.23855L64.0743 8.29295ZM68.2766 19.099L68.1367 19.1534L68.1367 19.1534L68.2766 19.099ZM68.2606 19.2382L68.3845 19.3229L68.3845 19.3229L68.2606 19.2382ZM62.0884 17.9377V17.7877C62.0256 17.7877 61.9694 17.8267 61.9476 17.8856L62.0884 17.9377ZM65.7804 17.9377L65.9206 17.8841C65.8984 17.826 65.8426 17.7877 65.7804 17.7877V17.9377ZM66.2457 19.1534L66.1055 19.2071C66.1277 19.2651 66.1835 19.3035 66.2457 19.3035V19.1534ZM68.1367 19.1534V19.3035C68.1863 19.3035 68.2326 19.2791 68.2606 19.2382C68.2886 19.1973 68.2946 19.1452 68.2766 19.099L68.1367 19.1534ZM63.9344 8.34735L64.0743 8.29295C64.0518 8.23523 63.9962 8.19723 63.9343 8.19727C63.8724 8.1973 63.8168 8.23538 63.7944 8.29312L63.9344 8.34735ZM59.747 19.1534L59.6071 19.0992C59.5892 19.1454 59.5952 19.1974 59.6232 19.2382C59.6512 19.2791 59.6975 19.3035 59.747 19.3035V19.1534ZM61.6381 19.1534V19.3035C61.7009 19.3035 61.757 19.2644 61.7788 19.2055L61.6381 19.1534ZM63.9344 12.7748L64.0761 12.7253C64.055 12.6651 63.9982 12.6248 63.9344 12.6248C63.8706 12.6248 63.8138 12.6651 63.7927 12.7253L63.9344 12.7748ZM62.6587 16.4219L62.517 16.3723C62.5009 16.4182 62.5081 16.4691 62.5363 16.5087C62.5644 16.5484 62.61 16.572 62.6587 16.572V16.4219ZM65.2101 16.4219V16.572C65.2587 16.572 65.3044 16.5484 65.3325 16.5087C65.3606 16.4691 65.3678 16.4182 65.3518 16.3723L65.2101 16.4219ZM62.8702 16.2718L62.7285 16.2222C62.7124 16.2682 62.7196 16.319 62.7478 16.3587C62.7759 16.3983 62.8215 16.4219 62.8702 16.4219V16.2718ZM63.9344 13.2294L64.0761 13.1798C64.055 13.1196 63.9982 13.0793 63.9344 13.0793C63.8706 13.0793 63.8138 13.1196 63.7927 13.1798L63.9344 13.2294ZM64.9986 16.2718V16.4219C65.0472 16.4219 65.0929 16.3983 65.121 16.3587C65.1491 16.319 65.1563 16.2682 65.1403 16.2222L64.9986 16.2718ZM77.0118 19.2262L77.1431 19.2989L77.1431 19.2989L77.0118 19.2262ZM74.697 19.2328L74.5697 19.3122L74.5697 19.3122L74.697 19.2328ZM72.0096 14.921L72.1369 14.8417C72.1095 14.7977 72.0614 14.771 72.0096 14.771V14.921ZM71.2374 14.921V14.771C71.1545 14.771 71.0873 14.8382 71.0873 14.921H71.2374ZM70.7243 12.8799V13.03C70.7791 13.03 70.8295 13.0002 70.8558 12.9522C70.8822 12.9043 70.8804 12.8457 70.8511 12.7995L70.7243 12.8799ZM69.2046 10.4839L69.0778 10.5643V10.5643L69.2046 10.4839ZM72.8283 8.49743H72.9784C72.9784 8.41454 72.9112 8.34735 72.8283 8.34735V8.49743ZM69.3313 8.64752V8.49743C69.2484 8.49743 69.1812 8.56463 69.1812 8.64752H69.3313ZM69.3313 10.4035H69.1812C69.1812 10.432 69.1893 10.4599 69.2046 10.4839L69.3313 10.4035ZM70.9973 13.03V13.1801C71.052 13.1801 71.1024 13.1503 71.1288 13.1023C71.1551 13.0543 71.1533 12.9958 71.124 12.9496L70.9973 13.03ZM69.3313 13.03V12.8799C69.2484 12.8799 69.1812 12.9471 69.1812 13.03H69.3313ZM69.3313 19.1534H69.1812C69.1812 19.2363 69.2484 19.3035 69.3313 19.3035V19.1534ZM71.0873 19.1534V19.3035C71.1702 19.3035 71.2374 19.2363 71.2374 19.1534H71.0873ZM71.0873 14.771V14.6209C71.0044 14.6209 70.9372 14.6881 70.9372 14.771H71.0873ZM72.0929 14.771L72.2202 14.6916C72.1928 14.6476 72.1447 14.6209 72.0929 14.6209V14.771ZM74.8244 19.1534L74.697 19.2328C74.7244 19.2768 74.7726 19.3035 74.8244 19.3035V19.1534ZM76.8806 19.1534V19.3035C76.9351 19.3035 76.9854 19.2739 77.0118 19.2262C77.0383 19.1785 77.0368 19.1201 77.0078 19.0739L76.8806 19.1534ZM74.029 14.5909L73.9886 14.4463C73.943 14.459 73.9061 14.4925 73.889 14.5366C73.8719 14.5807 73.8766 14.6303 73.9017 14.6704L74.029 14.5909ZM74.1782 14.5464L74.1329 14.4033V14.4033L74.1782 14.5464ZM72.8285 8.49743L72.8287 8.34735L72.8286 8.34735L72.8285 8.49743ZM72.8287 8.49743L72.8291 8.34735L72.8289 8.34735L72.8287 8.49743ZM72.8294 8.49744L72.8302 8.34735L72.8298 8.34735L72.8294 8.49744ZM72.8319 8.49745L72.8335 8.34737L72.8327 8.34737L72.8319 8.49745ZM72.8405 8.49754L72.8426 8.34747L72.8421 8.34747L72.8405 8.49754ZM72.8721 8.49824L72.8677 8.64827V8.64827L72.8721 8.49824ZM72.9885 8.5037L72.9792 8.6535V8.6535L72.9885 8.5037ZM73.3986 8.54683L73.377 8.69536L73.377 8.69536L73.3986 8.54683ZM74.6442 8.89265L74.5843 9.03023L74.6442 8.89265ZM75.9107 9.84801L75.7915 9.93918V9.93918L75.9107 9.84801ZM75.6737 13.8469L75.5673 13.741V13.741L75.6737 13.8469ZM74.2602 14.6777L74.2137 14.535C74.1698 14.5493 74.135 14.583 74.1192 14.6264C74.1034 14.6698 74.1085 14.7181 74.133 14.7573L74.2602 14.6777ZM77.0078 19.0739L77.1351 18.9943L77.1351 18.9943L77.0078 19.0739ZM72.8283 10.4035V10.5536V10.4035ZM71.4175 10.4035V10.2534C71.3629 10.2534 71.3126 10.2831 71.2862 10.3308C71.2598 10.3786 71.2613 10.4369 71.2903 10.4832L71.4175 10.4035ZM73.0534 13.015L72.9262 13.0946C72.9564 13.1428 73.0113 13.1698 73.0679 13.1644L73.0534 13.015ZM73.9171 12.6043L73.8409 12.475L73.8409 12.475L73.9171 12.6043ZM73.1304 12.8551L73.0032 12.9348C73.0344 12.9846 73.0918 13.0116 73.15 13.0039L73.1304 12.8551ZM74.1982 11.0545L74.3099 10.9544L74.1982 11.0545ZM73.654 10.7074L73.7063 10.5667V10.5667L73.654 10.7074ZM73.0842 10.5729L73.0657 10.7218L73.0842 10.5729ZM72.8958 10.5559L72.8878 10.7058L72.8958 10.5559ZM72.8443 10.5539L72.8406 10.7039H72.8406L72.8443 10.5539ZM72.8315 10.5536L72.8333 10.4035L72.8329 10.4035L72.8315 10.5536ZM72.8287 10.5536L72.8301 10.4035L72.8297 10.4035L72.8287 10.5536ZM72.8283 10.5536L72.8293 10.4035H72.8283V10.5536ZM71.6886 10.5536V10.4035C71.634 10.4035 71.5837 10.4331 71.5573 10.4809C71.5309 10.5287 71.5324 10.587 71.5614 10.6333L71.6886 10.5536ZM29.6315 19.2607C29.6759 19.3769 29.7874 19.4536 29.9118 19.4536V19.1534L29.9118 19.1534L29.6315 19.2607ZM29.2031 18.1415L29.6315 19.2607L29.9118 19.1534L29.4834 18.0342L29.2031 18.1415ZM25.8589 18.2379H29.3433V17.9377H25.8589V18.2379ZM25.5857 19.2577L25.9997 18.1399L25.7182 18.0357L25.3042 19.1534L25.5857 19.2577ZM25.3042 19.4536C25.4298 19.4536 25.5421 19.3754 25.5857 19.2577L25.3042 19.1534L25.3042 19.1534V19.4536ZM23.4131 19.4536H25.3042V19.1534H23.4131V19.4536ZM23.1655 19.323C23.2215 19.4047 23.3141 19.4536 23.4131 19.4536V19.1534H23.4131L23.1655 19.323ZM23.1333 19.045C23.0975 19.1373 23.1095 19.2413 23.1655 19.323L23.4131 19.1534L23.4131 19.1534L23.1333 19.045ZM27.3206 8.23889L23.1333 19.045L23.4131 19.1534L27.6005 8.34735L27.3206 8.23889ZM27.6003 8.04718C27.4765 8.04726 27.3654 8.1234 27.3206 8.23889L27.6005 8.34735L27.6005 8.34735L27.6003 8.04718ZM27.8803 8.23856C27.8354 8.12312 27.7242 8.04711 27.6003 8.04718L27.6005 8.34735L27.6005 8.34735L27.8803 8.23856ZM32.0826 19.0446L27.8803 8.23855L27.6005 8.34735L31.8029 19.1534L32.0826 19.0446ZM32.0506 19.3229C32.1066 19.2411 32.1185 19.137 32.0826 19.0446L31.8029 19.1534L31.8029 19.1534L32.0506 19.3229ZM31.8029 19.4536C31.902 19.4536 31.9947 19.4047 32.0506 19.3229L31.8029 19.1534V19.4536ZM29.9118 19.4536H31.8029V19.1534H29.9118V19.4536ZM25.7545 18.0878H29.4465V17.7877H25.7545V18.0878ZM29.3064 17.9914L29.7716 19.2071L30.052 19.0998L29.5867 17.8841L29.3064 17.9914ZM25.445 19.2055L25.8952 17.9899L25.6137 17.8856L25.1635 19.1013L25.445 19.2055ZM26.6779 16.3214L27.7422 13.2789L27.4588 13.1798L26.3946 16.2222L26.6779 16.3214ZM28.6647 16.1217H26.5363V16.4219H28.6647V16.1217ZM27.4588 13.2789L28.523 16.3214L28.8064 16.2222L27.7422 13.1798L27.4588 13.2789ZM38.7907 12.8799C38.6249 12.8799 38.4905 13.0143 38.4905 13.1801H38.7907V12.8799ZM42.3027 12.8799H38.7907V13.1801H42.3027V12.8799ZM42.6028 13.1801C42.6028 13.0143 42.4684 12.8799 42.3027 12.8799V13.1801H42.6028ZM42.6028 19.1984V13.1801H42.3027V19.1984H42.6028ZM42.3027 19.4986C42.4684 19.4986 42.6028 19.3642 42.6028 19.1984H42.3027V19.4986ZM40.7718 19.4986H42.3027V19.1984H40.7718V19.4986ZM40.4729 19.2256C40.4869 19.3802 40.6166 19.4986 40.7718 19.4986V19.1984L40.7718 19.1984L40.4729 19.2256ZM40.4095 18.5289L40.4729 19.2256L40.7718 19.1984L40.7085 18.5017L40.4095 18.5289ZM37.6951 19.6037C38.892 19.6037 39.8017 19.3356 40.6546 18.631L40.4634 18.3996C39.6752 19.0507 38.8378 19.3035 37.6951 19.3035V19.6037ZM33.9089 18.1011C34.876 19.0863 36.2134 19.6037 37.6951 19.6037V19.3035C36.2843 19.3035 35.0273 18.812 34.1231 17.8908L33.9089 18.1011ZM32.3671 13.9005C32.3671 15.6848 32.9412 17.1153 33.9089 18.1011L34.1231 17.8908C33.2188 16.9697 32.6673 15.6189 32.6673 13.9005H32.3671ZM37.9202 8.19727C34.855 8.19727 32.3671 10.6157 32.3671 13.9005H32.6673C32.6673 10.7787 35.0236 8.49743 37.9202 8.49743V8.19727ZM41.8412 9.83273C40.8409 8.81654 39.4588 8.19727 37.9202 8.19727V8.49743C39.376 8.49743 40.6818 9.08276 41.6273 10.0433L41.8412 9.83273ZM41.8395 10.2556C41.9561 10.139 41.9569 9.95021 41.8412 9.83273L41.6273 10.0433V10.0433L41.8395 10.2556ZM40.6088 11.4862L41.8395 10.2556L41.6273 10.0433L40.3966 11.274L40.6088 11.4862ZM40.1843 11.4862C40.3016 11.6035 40.4916 11.6035 40.6088 11.4862L40.3966 11.274L40.1843 11.4862ZM37.9202 10.5536C38.7991 10.5536 39.6089 10.9108 40.1843 11.4862L40.3966 11.274C39.7662 10.6436 38.8807 10.2534 37.9202 10.2534V10.5536ZM35.6567 11.4294C36.2269 10.8659 37.0226 10.5536 37.9202 10.5536V10.2534C36.9521 10.2534 36.0779 10.5911 35.4457 11.2158L35.6567 11.4294ZM34.7234 13.9005C34.7234 12.823 35.0879 11.9913 35.6567 11.4294L35.4457 11.2158C34.8135 11.8406 34.4232 12.7523 34.4232 13.9005H34.7234ZM35.6507 16.4671C35.0926 15.9455 34.7234 15.121 34.7234 13.9005H34.4232C34.4232 15.1837 34.8135 16.0955 35.4457 16.6864L35.6507 16.4671ZM37.9202 17.2474C37.0054 17.2474 36.2126 16.9924 35.6507 16.4671L35.4457 16.6864C36.0779 17.2774 36.9521 17.5475 37.9202 17.5475V17.2474ZM40.2854 16.2038C39.6971 16.8525 38.8627 17.2474 37.9202 17.2474V17.5475C38.9498 17.5475 39.8642 17.1151 40.5078 16.4055L40.2854 16.2038ZM40.2465 14.9961V16.3046H40.5467V14.9961H40.2465ZM38.7907 15.1462H40.3966V14.846H38.7907V15.1462ZM38.4905 14.846C38.4905 15.0118 38.6249 15.1462 38.7907 15.1462V14.846H38.4905ZM38.4905 13.1801V14.846H38.7907V13.1801H38.4905ZM40.4339 16.2629C39.8162 16.9668 38.9263 17.3974 37.9202 17.3974V17.6976C39.0153 17.6976 39.9865 17.2278 40.6595 16.4608L40.4339 16.2629ZM37.9202 17.3974C36.9788 17.3974 36.1452 17.1349 35.5482 16.5768C34.9531 16.0205 34.5733 15.1524 34.5733 13.9005H34.2732C34.2732 15.215 34.6739 16.1704 35.3432 16.7961C36.0106 17.4199 36.9256 17.6976 37.9202 17.6976V17.3974ZM34.5733 13.9005C34.5733 12.7877 34.9507 11.9159 35.5512 11.3226C36.1524 10.7285 36.9874 10.4035 37.9202 10.4035V10.1033C36.917 10.1033 36.0034 10.4537 35.3402 11.1091C34.6762 11.7652 34.2732 12.717 34.2732 13.9005H34.5733ZM37.9202 10.4035C38.8397 10.4035 39.687 10.777 40.2899 11.3796L40.5021 11.1673C39.8444 10.5098 38.9212 10.1033 37.9202 10.1033V10.4035ZM40.29 11.3796C40.29 11.3797 40.2901 11.3798 40.2902 11.3799C40.2903 11.38 40.2904 11.3801 40.2905 11.3802L40.5026 11.1678C40.5026 11.1677 40.5025 11.1676 40.5024 11.1675C40.5023 11.1674 40.5022 11.1673 40.5021 11.1672L40.29 11.3796ZM41.7359 9.93984C41.7359 9.93983 41.7359 9.93984 41.7359 9.93984C41.7359 9.93984 41.7359 9.93983 41.7359 9.93983C41.7359 9.93983 41.7359 9.93984 41.7359 9.93983C41.7359 9.93983 41.7359 9.93983 41.7359 9.93983V9.93983V9.93983C41.7359 9.93983 41.7359 9.93983 41.7359 9.93983C41.7359 9.93983 41.7359 9.93983 41.7359 9.93983C41.7307 10.152 41.5186 10.1468 41.5186 10.1468C41.5186 10.1468 41.5186 10.1468 41.5186 10.1468C41.5186 10.1468 41.5186 10.1468 41.5186 10.1468C41.5186 10.1468 41.5186 10.1468 41.5186 10.1468C41.5186 10.1468 41.5186 10.1468 41.5186 10.1468C41.5186 10.1468 41.5186 10.1468 41.5186 10.1468C41.5186 10.1468 41.5186 10.1468 41.5186 10.1468C41.5186 10.1468 41.5186 10.1468 41.5186 10.1468C41.5186 10.1468 41.5186 10.1468 41.5186 10.1468C41.5186 10.1469 41.5186 10.1468 41.5186 10.1469C41.5186 10.1469 41.5185 10.1468 41.5186 10.1469C41.5186 10.1469 41.5186 10.1469 41.5186 10.1469C41.5186 10.1469 41.5186 10.1468 41.5186 10.1469C41.5186 10.1469 41.5186 10.1469 41.5186 10.1469C41.5186 10.1469 41.5186 10.1469 41.5186 10.1469C41.5186 10.1469 41.5186 10.1469 41.5186 10.1469C41.5186 10.1469 41.5186 10.1469 41.5186 10.1469C41.5186 10.1469 41.5186 10.1469 41.5186 10.1469V10.1469C41.5186 10.1469 41.5186 10.1469 41.5186 10.1469V10.1469C41.5186 10.1469 41.5186 10.1469 41.5186 10.1469C41.5186 10.1469 41.5186 10.1469 41.5186 10.1469C41.5186 10.1469 41.7308 10.152 41.7359 9.93984C41.7359 9.93984 41.7359 9.93984 41.7359 9.93984C41.7359 9.93984 41.7359 9.93984 41.7359 9.93984C41.7359 9.93984 41.7359 9.93984 41.7359 9.93984C41.7359 9.93984 41.7359 9.93984 41.7359 9.93984C41.7359 9.93984 41.7359 9.93984 41.7359 9.93984C41.7359 9.93984 41.7359 9.93984 41.7359 9.93984C41.7359 9.93984 41.7359 9.93984 41.7359 9.93984C41.7359 9.93984 41.7359 9.93984 41.7359 9.93984C41.7359 9.93984 41.7359 9.93984 41.7359 9.93984C41.7359 9.93984 41.7359 9.93984 41.7359 9.93984C41.7359 9.9398 41.736 9.93988 41.7359 9.93984C41.7359 9.93984 41.7359 9.93984 41.7359 9.93984C41.7359 9.93984 41.7359 9.93984 41.7359 9.93984C41.7359 9.93984 41.7359 9.93984 41.7359 9.93984L41.5186 10.1468C41.5186 10.1469 41.5186 10.1468 41.5186 10.1469C41.5186 10.1469 41.5186 10.1469 41.5186 10.1469C41.5186 10.1469 41.5186 10.1469 41.5186 10.1469C41.5186 10.1469 41.5186 10.1469 41.5186 10.1469C41.5186 10.1469 41.5186 10.1469 41.5186 10.1469C41.5186 10.1469 41.5186 10.1469 41.5186 10.1469C41.5186 10.1469 41.5186 10.1469 41.5186 10.1469C41.5237 9.93467 41.7359 9.93984 41.7359 9.93984C41.7359 9.93984 41.7359 9.93984 41.7359 9.93984C41.7359 9.93984 41.7359 9.93984 41.7359 9.93984C41.7359 9.93984 41.7359 9.93984 41.7359 9.93984C41.7359 9.93984 41.7359 9.93984 41.7359 9.93984C41.7359 9.93984 41.7359 9.93984 41.7359 9.93984C41.7359 9.93984 41.7359 9.93984 41.7359 9.93984C41.7359 9.93984 41.7359 9.93984 41.7359 9.93984C41.7359 9.93983 41.7359 9.93984 41.7359 9.93984C41.7358 9.93975 41.736 9.93992 41.7359 9.93984C41.7359 9.93983 41.7359 9.93984 41.7359 9.93983C41.7359 9.93983 41.7359 9.93984 41.7359 9.93983C41.7359 9.93983 41.7359 9.93983 41.7359 9.93983C41.7359 9.93983 41.7359 9.93983 41.7359 9.93983C41.7359 9.93983 41.7359 9.93983 41.7359 9.93983C41.7359 9.93983 41.7359 9.93983 41.7359 9.93983C41.7359 9.93983 41.7359 9.93983 41.7359 9.93983C41.7359 9.93983 41.7359 9.93983 41.7359 9.93983C41.7359 9.93983 41.7359 9.93983 41.7359 9.93983V9.93983C41.7359 9.93983 41.7359 9.93983 41.7359 9.93983C41.7359 9.93983 41.7359 9.93983 41.7359 9.93983C41.7359 9.93983 41.7359 9.93983 41.7359 9.93983C41.7359 9.93983 41.5237 9.93466 41.5186 10.1468C41.5186 10.1468 41.5186 10.1468 41.5186 10.1468V10.1468C41.5186 10.1468 41.5186 10.1468 41.5186 10.1468C41.5186 10.1468 41.5186 10.1468 41.5186 10.1468V10.1468C41.5186 10.1468 41.5186 10.1468 41.5186 10.1468C41.5186 10.1468 41.5186 10.1468 41.5186 10.1468C41.5186 10.1468 41.5186 10.1468 41.5186 10.1468C41.5186 10.1468 41.5186 10.1468 41.5186 10.1468C41.5186 10.1468 41.5186 10.1468 41.5186 10.1468C41.5186 10.1469 41.5185 10.1468 41.5186 10.1468C41.5186 10.1468 41.5186 10.1468 41.5186 10.1468V10.1468C41.5186 10.1468 41.5186 10.1468 41.5186 10.1468L41.7359 9.93984ZM41.7342 9.93805C41.7145 9.91808 41.6946 9.89801 41.6743 9.87806L41.4637 10.092C41.4826 10.1105 41.5014 10.1295 41.5203 10.1486L41.7342 9.93805ZM41.6743 9.87806C41.6578 9.86178 41.6411 9.84561 41.6244 9.82955L41.4166 10.0462C41.4324 10.0613 41.4481 10.0766 41.4637 10.092L41.6743 9.87806ZM41.6244 9.82955C40.6613 8.90572 39.3617 8.34735 37.9202 8.34735V8.64752C39.2822 8.64752 40.5079 9.17448 41.4166 10.0462L41.6244 9.82955ZM37.9202 8.34735C34.9393 8.34735 32.5172 10.6972 32.5172 13.9005H32.8173C32.8173 10.8602 35.1079 8.64752 37.9202 8.64752V8.34735ZM32.5172 13.9005C32.5172 15.6519 33.08 17.0425 34.016 17.996C34.9517 18.9491 36.2488 19.4536 37.6951 19.4536V19.1534C36.3197 19.1534 35.103 18.6748 34.2302 17.7857C33.3576 16.8969 32.8173 15.586 32.8173 13.9005H32.5172ZM37.6951 19.4536C38.9019 19.4536 39.795 19.1765 40.6405 18.4464L40.4443 18.2192C39.6636 18.8934 38.8447 19.1534 37.6951 19.1534V19.4536ZM40.6405 18.4464C40.6885 18.405 40.7363 18.3621 40.784 18.3178L40.5796 18.098C40.5345 18.1399 40.4895 18.1803 40.4443 18.2192L40.6405 18.4464ZM51.5995 10.7037C51.7652 10.7037 51.8996 10.5693 51.8996 10.4035H51.5995V10.7037ZM46.4966 10.7037H51.5995V10.4035H46.4966V10.7037ZM46.6467 12.8799V10.5536H46.3465V12.8799H46.6467ZM50.714 12.7298H46.4966V13.03H50.714V12.7298ZM51.0141 13.03C51.0141 12.8642 50.8797 12.7298 50.714 12.7298V13.03H51.0141ZM51.0141 14.771V13.03H50.714V14.771H51.0141ZM50.714 15.0711C50.8797 15.0711 51.0141 14.9367 51.0141 14.771H50.714V15.0711ZM46.4966 15.0711H50.714V14.771H46.4966V15.0711ZM46.6467 17.2474V14.921H46.3465V17.2474H46.6467ZM51.5995 17.0973H46.4966V17.3974H51.5995V17.0973ZM51.8996 17.3974C51.8996 17.2317 51.7652 17.0973 51.5995 17.0973V17.3974H51.8996ZM51.8996 19.1534V17.3974H51.5995V19.1534H51.8996ZM51.5995 19.4536C51.7652 19.4536 51.8996 19.3192 51.8996 19.1534H51.5995V19.4536ZM44.5905 19.4536H51.5995V19.1534H44.5905V19.4536ZM44.2903 19.1534C44.2903 19.3192 44.4247 19.4536 44.5905 19.4536V19.1534H44.2903ZM44.2903 8.64752V19.1534H44.5905V8.64752H44.2903ZM44.5905 8.34735C44.4247 8.34735 44.2903 8.48174 44.2903 8.64752H44.5905V8.34735ZM51.5995 8.34735H44.5905V8.64752H51.5995V8.34735ZM51.8996 8.64752C51.8996 8.48174 51.7652 8.34735 51.5995 8.34735V8.64752H51.8996ZM51.8996 10.4035V8.64752H51.5995V10.4035H51.8996ZM59.057 17.0973H55.3199V17.3974H59.057V17.0973ZM59.3572 17.3974C59.3572 17.2317 59.2228 17.0973 59.057 17.0973V17.3974H59.3572ZM59.3572 19.1534V17.3974H59.057V19.1534H59.3572ZM59.057 19.4536C59.2228 19.4536 59.3572 19.3192 59.3572 19.1534H59.057V19.4536ZM53.4138 19.4536H59.057V19.1534H53.4138V19.4536ZM53.1137 19.1534C53.1137 19.3192 53.2481 19.4536 53.4138 19.4536V19.1534H53.1137ZM53.1137 8.64752V19.1534H53.4138V8.64752H53.1137ZM53.4138 8.34735C53.2481 8.34735 53.1137 8.48174 53.1137 8.64752H53.4138V8.34735ZM55.1698 8.34735H53.4138V8.64752H55.1698V8.34735ZM55.47 8.64752C55.47 8.48174 55.3356 8.34735 55.1698 8.34735V8.64752H55.47ZM55.47 17.2474V8.64752H55.1698V17.2474H55.47ZM65.9653 19.2607C66.0098 19.3769 66.1213 19.4536 66.2457 19.4536V19.1534L66.2457 19.1534L65.9653 19.2607ZM65.537 18.1415L65.9653 19.2607L66.2457 19.1534L65.8173 18.0342L65.537 18.1415ZM62.1928 18.2379H65.6772V17.9377H62.1928V18.2379ZM61.9196 19.2577L62.3336 18.1399L62.0521 18.0357L61.6381 19.1534L61.9196 19.2577ZM61.6381 19.4536C61.7637 19.4536 61.876 19.3754 61.9196 19.2577L61.6381 19.1534H61.6381V19.4536ZM59.747 19.4536H61.6381V19.1534H59.747V19.4536ZM59.4994 19.323C59.5554 19.4047 59.648 19.4536 59.747 19.4536V19.1534H59.747L59.4994 19.323ZM59.4671 19.045C59.4314 19.1373 59.4434 19.2413 59.4994 19.323L59.747 19.1534V19.1534L59.4671 19.045ZM63.6545 8.23889L59.4671 19.045L59.747 19.1534L63.9344 8.34735L63.6545 8.23889ZM63.9342 8.04718C63.8103 8.04726 63.6992 8.1234 63.6545 8.2389L63.9344 8.34735L63.9344 8.34735L63.9342 8.04718ZM64.2141 8.23855C64.1693 8.12312 64.0581 8.04711 63.9342 8.04718L63.9344 8.34735L63.9344 8.34735L64.2141 8.23855ZM68.4165 19.0446L64.2141 8.23855L63.9344 8.34735L68.1367 19.1534L68.4165 19.0446ZM68.3845 19.3229C68.4404 19.2411 68.4524 19.137 68.4165 19.0446L68.1367 19.1534L68.1367 19.1534L68.3845 19.3229ZM68.1367 19.4536C68.2358 19.4536 68.3285 19.4047 68.3845 19.3229L68.1368 19.1534L68.1367 19.1534V19.4536ZM66.2457 19.4536H68.1367V19.1534H66.2457V19.4536ZM62.0884 18.0878H65.7804V17.7877H62.0884V18.0878ZM65.6403 17.9914L66.1055 19.2071L66.3859 19.0998L65.9206 17.8841L65.6403 17.9914ZM61.7788 19.2055L62.2291 17.9899L61.9476 17.8856L61.4974 19.1013L61.7788 19.2055ZM63.0118 16.3214L64.0761 13.279L63.7927 13.1798L62.7285 16.2222L63.0118 16.3214ZM64.9986 16.1217H62.8702V16.4219H64.9986V16.1217ZM63.7927 13.279L64.8569 16.3214L65.1403 16.2222L64.0761 13.1798L63.7927 13.279ZM76.8806 19.4536C76.9897 19.4536 77.0902 19.3944 77.1431 19.2989L76.8806 19.1534L76.8806 19.1534V19.4536ZM74.8244 19.4536H76.8806V19.1534H74.8244V19.4536ZM74.5697 19.3122C74.6245 19.4001 74.7208 19.4536 74.8244 19.4536V19.1534L74.8244 19.1534L74.5697 19.3122ZM71.8822 15.0004L74.5697 19.3122L74.8244 19.1534L72.1369 14.8417L71.8822 15.0004ZM71.2374 15.0711H72.0096V14.771H71.2374V15.0711ZM71.3875 19.1534V14.921H71.0873V19.1534H71.3875ZM71.0873 19.4536C71.2531 19.4536 71.3875 19.3192 71.3875 19.1534H71.0873V19.4536ZM69.3313 19.4536H71.0873V19.1534H69.3313V19.4536ZM69.0312 19.1534C69.0312 19.3192 69.1656 19.4536 69.3313 19.4536V19.1534H69.0312ZM69.0312 13.03V19.1534H69.3313V13.03H69.0312ZM69.3313 12.7298C69.1656 12.7298 69.0312 12.8642 69.0312 13.03H69.3313V12.7298ZM70.7243 12.7298H69.3313V13.03H70.7243V12.7298ZM69.0778 10.5643L70.5976 12.9603L70.8511 12.7995L69.3313 10.4035L69.0778 10.5643ZM69.0312 10.4035C69.0312 10.4604 69.0474 10.5162 69.0778 10.5643L69.3313 10.4035L69.3313 10.4035H69.0312ZM69.0312 8.64752V10.4035H69.3313V8.64752H69.0312ZM69.3313 8.34735C69.1656 8.34735 69.0312 8.48174 69.0312 8.64752H69.3313V8.34735ZM72.8283 8.34735H69.3313V8.64752H72.8283V8.34735ZM72.9784 8.64752V8.49743H72.6782V8.64752H72.9784ZM71.9655 14.8503L74.697 19.2328L74.9518 19.074L72.2202 14.6916L71.9655 14.8503ZM74.0693 14.7354C74.1201 14.7212 74.1715 14.706 74.2235 14.6895L74.1329 14.4033C74.0843 14.4187 74.0362 14.433 73.9886 14.4463L74.0693 14.7354ZM74.2235 14.6895C74.7348 14.5277 75.3015 14.2503 75.7415 13.7764C76.1846 13.2991 76.4903 12.6315 76.4903 11.7092H76.1902C76.1902 12.5584 75.9113 13.1523 75.5215 13.5722C75.1286 13.9954 74.6143 14.251 74.1329 14.4033L74.2235 14.6895ZM76.4903 11.7092C76.4903 10.9129 76.2612 10.3064 75.9107 9.84801C75.5618 9.39168 75.0993 9.091 74.6442 8.89265C74.1893 8.69433 73.7364 8.59591 73.3986 8.54683C73.2294 8.52224 73.088 8.5099 72.9885 8.5037C72.9387 8.5006 72.8994 8.49904 72.8721 8.49824C72.8585 8.49785 72.8478 8.49765 72.8405 8.49754C72.8368 8.49749 72.8339 8.49746 72.8319 8.49745C72.8309 8.49744 72.83 8.49744 72.8294 8.49744C72.8291 8.49744 72.8289 8.49743 72.8287 8.49743C72.8286 8.49743 72.8285 8.49743 72.8285 8.49743C72.8284 8.49743 72.8283 8.49743 72.8283 8.64752C72.8283 8.7976 72.8282 8.7976 72.8282 8.7976C72.8282 8.7976 72.8282 8.7976 72.8282 8.7976C72.8282 8.7976 72.8283 8.7976 72.8284 8.7976C72.8287 8.7976 72.8291 8.79761 72.8298 8.79761C72.8311 8.79762 72.8333 8.79764 72.8363 8.79768C72.8422 8.79776 72.8513 8.79794 72.8634 8.79829C72.8876 8.79899 72.9236 8.80041 72.9699 8.80329C73.0624 8.80906 73.1955 8.82064 73.3555 8.84388C73.6762 8.89049 74.1013 8.98342 74.5243 9.16782C74.9473 9.35219 75.3628 9.62558 75.6723 10.0304C75.9803 10.4331 76.1902 10.9747 76.1902 11.7092H76.4903ZM72.8286 8.34735C72.8286 8.34735 72.8281 8.34735 72.8276 8.34735C72.8272 8.34736 72.8258 8.34737 72.8248 8.34739C72.8224 8.34745 72.8185 8.3476 72.8136 8.34809C72.8036 8.34908 72.789 8.35154 72.7726 8.35814C72.736 8.37281 72.7134 8.39822 72.7008 8.41845C72.69 8.4359 72.6854 8.45148 72.6837 8.45786C72.6816 8.46545 72.6806 8.47161 72.6801 8.47479C72.6791 8.48109 72.6788 8.48609 72.6787 8.48751C72.6785 8.48961 72.6785 8.49129 72.6784 8.49215C72.6783 8.49492 72.6783 8.49761 72.6783 8.49849C72.6783 8.50144 72.6783 8.50664 72.6783 8.51595C72.6782 8.53485 72.6782 8.5725 72.6782 8.64752H72.9784C72.9784 8.57246 72.9784 8.53506 72.9784 8.51644C72.9784 8.50699 72.9785 8.50281 72.9785 8.50107C72.9785 8.4996 72.9785 8.50112 72.9784 8.5033C72.9784 8.50402 72.9783 8.50559 72.9782 8.5076C72.9781 8.50895 72.9778 8.51388 72.9768 8.52016C72.9763 8.52331 72.9753 8.52946 72.9732 8.53704C72.9715 8.54341 72.9669 8.55898 72.9561 8.57643C72.9435 8.59666 72.9209 8.62206 72.8843 8.63673C72.8534 8.64915 72.8246 8.64752 72.8283 8.64752L72.8286 8.34735ZM72.8289 8.34735L72.8287 8.34735L72.8283 8.64752L72.8285 8.64752L72.8289 8.34735ZM72.8298 8.34735L72.8291 8.34735L72.8283 8.64752L72.829 8.64752L72.8298 8.34735ZM72.8327 8.34737L72.8302 8.34735L72.8287 8.64752L72.8311 8.64753L72.8327 8.34737ZM72.8421 8.34747L72.8335 8.34737L72.8302 8.64752L72.8389 8.64762L72.8421 8.34747ZM72.8765 8.34822C72.862 8.34781 72.8507 8.34759 72.8426 8.34747L72.8384 8.64761C72.845 8.64771 72.8549 8.64789 72.8677 8.64827L72.8765 8.34822ZM72.9979 8.35391C72.9463 8.3507 72.9053 8.34906 72.8765 8.34822L72.8677 8.64827C72.8935 8.64901 72.9312 8.65051 72.9792 8.6535L72.9979 8.35391ZM73.4202 8.39831C73.2463 8.37304 73.1008 8.36032 72.9978 8.35391L72.9792 8.6535C73.0752 8.65948 73.2124 8.67144 73.377 8.69536L73.4202 8.39831ZM74.7042 8.75507C74.2333 8.54979 73.7664 8.44862 73.4202 8.39831L73.377 8.69536C73.7063 8.7432 74.1453 8.83888 74.5843 9.03023L74.7042 8.75507ZM76.03 9.75684C75.6613 9.27472 75.1753 8.9604 74.7042 8.75507L74.5843 9.03023C75.0233 9.22159 75.4623 9.50863 75.7915 9.93918L76.03 9.75684ZM76.6404 11.7092C76.6404 10.8821 76.4017 10.243 76.03 9.75684L75.7915 9.93918C76.1208 10.3697 76.3403 10.9438 76.3403 11.7092H76.6404ZM75.78 13.9528C76.2874 13.4433 76.6404 12.7175 76.6404 11.7092H76.3403C76.3403 12.6398 76.0176 13.2889 75.5673 13.741L75.78 13.9528ZM74.3067 14.8204C74.7973 14.6606 75.3397 14.3949 75.78 13.9528L75.5673 13.741C75.171 14.139 74.6756 14.3845 74.2137 14.535L74.3067 14.8204ZM77.1351 18.9943L74.3875 14.5982L74.133 14.7573L76.8806 19.1534L77.1351 18.9943ZM77.1431 19.2989C77.196 19.2035 77.1929 19.0869 77.1351 18.9943L76.8806 19.1534V19.1534L77.1431 19.2989ZM74.4342 11.7092C74.4342 12.1628 74.2063 12.4338 73.9171 12.6043C73.6201 12.7794 73.2628 12.8439 73.039 12.8656L73.0679 13.1644C73.3093 13.141 73.7174 13.0705 74.0695 12.8629C74.4294 12.6507 74.7344 12.2912 74.7344 11.7092H74.4342ZM72.8283 10.4035C72.8283 10.5536 72.8282 10.5536 72.8282 10.5536C72.8282 10.5536 72.8282 10.5536 72.8281 10.5536C72.8281 10.5536 72.8281 10.5536 72.8282 10.5536C72.8282 10.5536 72.8284 10.5536 72.8287 10.5536C72.8292 10.5536 72.8302 10.5536 72.8315 10.5536C72.8342 10.5537 72.8385 10.5537 72.8443 10.5539C72.8558 10.5541 72.8733 10.5547 72.8958 10.5559C72.9408 10.5583 73.0059 10.5631 73.0842 10.5729C73.2416 10.5924 73.4489 10.6311 73.654 10.7074C73.8597 10.7839 74.0552 10.8951 74.1982 11.0545C74.3383 11.2109 74.4342 11.4201 74.4342 11.7092H74.7344C74.7344 11.3455 74.6108 11.0651 74.4216 10.8542C74.2354 10.6464 73.9918 10.5128 73.7586 10.426C73.5247 10.3391 73.2929 10.2963 73.1211 10.275C73.0348 10.2643 72.9627 10.2589 72.9117 10.2562C72.8862 10.2548 72.8659 10.2541 72.8517 10.2538C72.8446 10.2536 72.8391 10.2535 72.8351 10.2535C72.8332 10.2534 72.8316 10.2534 72.8304 10.2534C72.8299 10.2534 72.8294 10.2534 72.829 10.2534C72.8289 10.2534 72.8287 10.2534 72.8286 10.2534C72.8285 10.2534 72.8284 10.2534 72.8284 10.2534C72.8284 10.2534 72.8283 10.2534 72.8283 10.4035ZM73.8409 12.475C73.6064 12.6132 73.3237 12.6782 73.1107 12.7063L73.15 13.0039C73.3816 12.9733 73.7094 12.901 73.9933 12.7336L73.8409 12.475ZM74.2841 11.7092C74.2841 12.0988 74.0946 12.3254 73.8409 12.475L73.9933 12.7336C74.318 12.5421 74.5843 12.2269 74.5843 11.7092H74.2841ZM74.0864 11.1547C74.2021 11.2837 74.2841 11.4574 74.2841 11.7092H74.5843C74.5843 11.3828 74.4745 11.138 74.3099 10.9544L74.0864 11.1547ZM73.6017 10.8481C73.7937 10.9195 73.9651 11.0194 74.0864 11.1547L74.3099 10.9544C74.1453 10.7707 73.9258 10.6483 73.7063 10.5667L73.6017 10.8481ZM73.0657 10.7218C73.216 10.7404 73.411 10.7772 73.6017 10.8481L73.7063 10.5667C73.4868 10.4851 73.2673 10.4443 73.1027 10.4239L73.0657 10.7218ZM72.8878 10.7058C72.9299 10.708 72.9914 10.7126 73.0657 10.7218L73.1027 10.4239C73.0204 10.4137 72.9518 10.4086 72.9037 10.4061L72.8878 10.7058ZM72.8406 10.7039C72.8508 10.7042 72.8668 10.7047 72.8878 10.7058L72.9037 10.4061C72.8797 10.4048 72.8609 10.4041 72.848 10.4038L72.8406 10.7039ZM72.8297 10.7037C72.8318 10.7037 72.8355 10.7038 72.8406 10.7039L72.848 10.4038C72.8416 10.4037 72.8367 10.4036 72.8333 10.4035L72.8297 10.7037ZM72.8273 10.7037L72.8301 10.7037L72.8329 10.4035L72.8301 10.4035L72.8273 10.7037ZM72.8273 10.7037L72.8277 10.7037L72.8297 10.4035L72.8293 10.4035L72.8273 10.7037ZM73.2576 12.7754L71.8158 10.4739L71.5614 10.6333L73.0032 12.9348L73.2576 12.7754ZM29.9118 19.3035H31.8029V19.0033H29.9118V19.3035ZM31.9427 19.099L27.7404 8.29295L27.4606 8.40175L31.663 19.2078L31.9427 19.099ZM27.4606 8.29312L23.2732 19.0992L23.5531 19.2076L27.7404 8.40158L27.4606 8.29312ZM23.4131 19.3035H25.3042V19.0033H23.4131V19.3035ZM26.4665 16.4714L27.7422 12.8244L27.4588 12.7253L26.1831 16.3723L26.4665 16.4714ZM28.8762 16.2718H26.3248V16.572H28.8762V16.2718ZM27.4588 12.8244L28.7345 16.4714L29.0179 16.3723L27.7422 12.7253L27.4588 12.8244ZM40.5027 11.3801L41.7334 10.1495L41.5211 9.93722L40.2905 11.1679L40.5027 11.3801ZM40.5323 18.2215L40.6223 19.212L40.9213 19.1849L40.8312 18.1943L40.5323 18.2215ZM40.7718 19.3485H42.3027V19.0484H40.7718V19.3485ZM42.4528 19.1984V13.1801H42.1526V19.1984H42.4528ZM42.3027 13.03H38.7907V13.3301H42.3027V13.03ZM38.6406 13.1801V14.846H38.9408V13.1801H38.6406ZM38.7907 14.9961H40.5467V14.6959H38.7907V14.9961ZM40.3966 14.846V16.3619H40.6968V14.846H40.3966ZM51.5995 17.2474H46.3465V17.5475H51.5995V17.2474ZM51.7495 19.1534V17.3974H51.4494V19.1534H51.7495ZM44.5905 19.3035H51.5995V19.0033H44.5905V19.3035ZM44.4404 8.64752V19.1534H44.7406V8.64752H44.4404ZM51.5995 8.49743H44.5905V8.7976H51.5995V8.49743ZM51.7495 10.4035V8.64752H51.4494V10.4035H51.7495ZM46.3465 10.5536H51.5995V10.2534H46.3465V10.5536ZM46.4966 13.03V10.4035H46.1964V13.03H46.4966ZM50.714 12.8799H46.3465V13.1801H50.714V12.8799ZM50.864 14.771V13.03H50.5639V14.771H50.864ZM46.3465 14.921H50.714V14.6209H46.3465V14.921ZM46.4966 17.3974V14.771H46.1964V17.3974H46.4966ZM59.057 17.2474H55.1698V17.5475H59.057V17.2474ZM59.2071 19.1534V17.3974H58.9069V19.1534H59.2071ZM53.4138 19.3035H59.057V19.0033H53.4138V19.3035ZM53.2637 8.64752V19.1534H53.5639V8.64752H53.2637ZM55.1698 8.49743H53.4138V8.7976H55.1698V8.49743ZM55.3199 17.3974V8.64752H55.0197V17.3974H55.3199ZM66.2457 19.3035H68.1367V19.0033H66.2457V19.3035ZM68.2766 19.099L64.0743 8.29295L63.7945 8.40175L67.9969 19.2078L68.2766 19.099ZM63.7944 8.29312L59.6071 19.0992L59.887 19.2076L64.0743 8.40158L63.7944 8.29312ZM59.747 19.3035H61.6381V19.0033H59.747V19.3035ZM62.8003 16.4714L64.0761 12.8244L63.7927 12.7253L62.517 16.3723L62.8003 16.4714ZM65.2101 16.2718H62.6587V16.572H65.2101V16.2718ZM63.7927 12.8244L65.0684 16.4714L65.3518 16.3723L64.0761 12.7253L63.7927 12.8244ZM72.8283 8.49743H69.3313V8.7976H72.8283V8.49743ZM69.1812 8.64752V10.4035H69.4814V8.64752H69.1812ZM69.2046 10.4839L70.8705 13.1104L71.124 12.9496L69.4581 10.3231L69.2046 10.4839ZM70.9973 12.8799H69.3313V13.1801H70.9973V12.8799ZM69.1812 13.03V19.1534H69.4814V13.03H69.1812ZM69.3313 19.3035H71.0873V19.0033H69.3313V19.3035ZM71.2374 19.1534V14.771H70.9372V19.1534H71.2374ZM71.0873 14.921H72.0929V14.6209H71.0873V14.921ZM74.8244 19.3035H76.8806V19.0033H74.8244V19.3035ZM77.0078 19.0739L74.1562 14.5113L73.9017 14.6704L76.7533 19.233L77.0078 19.0739ZM71.4175 10.5536H72.8283V10.2534H71.4175V10.5536ZM73.1806 12.9353L71.5447 10.3238L71.2903 10.4832L72.9262 13.0946L73.1806 12.9353ZM71.6886 10.7037H72.8283V10.4035H71.6886V10.7037Z" fill="#333333" mask="url(#path-3-outside-1_665_4899)"/>
<path d="M29.8418 18.8798C29.8529 18.9088 29.8808 18.928 29.9119 18.928H31.8029C31.8277 18.928 31.8509 18.9158 31.8649 18.8953C31.8788 18.8749 31.8818 18.8488 31.8729 18.8257L27.6705 8.01968C27.6593 7.99082 27.6315 7.97181 27.6005 7.97183C27.5696 7.97185 27.5418 7.99089 27.5306 8.01976L23.3432 18.8258C23.3343 18.8489 23.3373 18.8749 23.3513 18.8954C23.3653 18.9158 23.3885 18.928 23.4132 18.928H25.3043C25.3357 18.928 25.3637 18.9084 25.3746 18.879L25.8068 17.7123H29.395L29.8418 18.8798ZM38.7908 12.8045C38.7493 12.8045 38.7157 12.8381 38.7157 12.8796V14.5455C38.7157 14.587 38.7493 14.6206 38.7908 14.6206H40.4717V16.0329C39.841 16.7401 38.9385 17.172 37.9203 17.172C36.9655 17.172 36.1116 16.9056 35.497 16.3311C34.8833 15.7575 34.4983 14.8676 34.4983 13.6C34.4983 12.4695 34.8821 11.5778 35.4985 10.9687C36.1152 10.3593 36.9698 10.028 37.9203 10.028C38.8604 10.028 39.727 10.4099 40.3436 11.0266C40.3577 11.0407 40.3768 11.0486 40.3967 11.0486C40.4166 11.0486 40.4356 11.0407 40.4497 11.0266L41.6804 9.79589C41.7096 9.76675 41.7097 9.71956 41.6808 9.69018C40.7216 8.71573 39.3968 8.12192 37.9203 8.12192C34.9815 8.12192 32.5923 10.4375 32.5923 13.6C32.5923 15.3349 33.1495 16.7056 34.0696 17.6429C34.9896 18.5801 36.2666 19.0781 37.6951 19.0781C38.9026 19.0781 39.7832 18.7983 40.6207 18.0638L40.6971 18.9048C40.7006 18.9434 40.7331 18.973 40.7719 18.973H42.3027C42.3442 18.973 42.3778 18.9394 42.3778 18.898V12.8796C42.3778 12.8381 42.3442 12.8045 42.3027 12.8045H38.7908ZM51.5995 10.1781C51.641 10.1781 51.6746 10.1445 51.6746 10.103V8.34704C51.6746 8.3056 51.641 8.272 51.5995 8.272H44.5906C44.5491 8.272 44.5155 8.3056 44.5155 8.34704V18.8529C44.5155 18.8944 44.5491 18.928 44.5906 18.928H51.5995C51.641 18.928 51.6746 18.8944 51.6746 18.8529V17.097C51.6746 17.0555 51.641 17.0219 51.5995 17.0219H46.4216V14.5455H50.714C50.7555 14.5455 50.7891 14.5119 50.7891 14.4705V12.7295C50.7891 12.6881 50.7555 12.6545 50.714 12.6545H46.4216V10.1781H51.5995ZM59.0571 17.0219H55.2449V8.34704C55.2449 8.3056 55.2113 8.272 55.1699 8.272H53.4139C53.3724 8.272 53.3388 8.3056 53.3388 8.34704V18.8529C53.3388 18.8944 53.3724 18.928 53.4139 18.928H59.0571C59.0985 18.928 59.1321 18.8944 59.1321 18.8529V17.097C59.1321 17.0555 59.0985 17.0219 59.0571 17.0219ZM66.1757 18.8798C66.1868 18.9088 66.2146 18.928 66.2457 18.928H68.1368C68.1616 18.928 68.1848 18.9158 68.1987 18.8953C68.2127 18.8749 68.2157 18.8488 68.2067 18.8257L64.0044 8.01968C63.9932 7.99082 63.9654 7.97181 63.9344 7.97183C63.9034 7.97185 63.8757 7.99089 63.8645 8.01976L59.6771 18.8258C59.6682 18.8489 59.6712 18.8749 59.6852 18.8954C59.6992 18.9158 59.7223 18.928 59.7471 18.928H61.6382C61.6696 18.928 61.6976 18.9084 61.7085 18.879L62.1406 17.7123H65.7289L66.1757 18.8798ZM76.8806 18.928C76.9079 18.928 76.933 18.9132 76.9463 18.8893C76.9595 18.8655 76.9587 18.8363 76.9443 18.8132L74.1452 14.3347C74.6387 14.1854 75.1863 13.9295 75.6206 13.4935C76.0851 13.027 76.4154 12.3587 76.4154 11.4088C76.4154 10.6279 76.1911 10.0376 75.8512 9.59312C75.5121 9.14968 75.0613 8.85582 74.6143 8.66097C74.1673 8.46613 73.7214 8.36908 73.3879 8.32062C73.2209 8.29636 73.0817 8.28421 72.9839 8.27813C72.935 8.27508 72.8965 8.27355 72.87 8.27278L72.8395 8.2721L72.8314 8.27201L72.8292 8.272L72.8286 8.272L72.8285 8.272C72.8284 8.272 72.8284 8.272 72.8284 8.34704V8.272H69.3314C69.2899 8.272 69.2563 8.3056 69.2563 8.34704V10.103C69.2563 10.1173 69.2604 10.1312 69.268 10.1432L70.8609 12.6545H69.3314C69.2899 12.6545 69.2563 12.6881 69.2563 12.7295V18.8529C69.2563 18.8944 69.2899 18.928 69.3314 18.928H71.0874C71.1288 18.928 71.1624 18.8944 71.1624 18.8529V14.5455H72.0513L74.7608 18.8926C74.7745 18.9146 74.7986 18.928 74.8245 18.928H76.8806ZM26.4306 16.0464L27.6006 12.7016L28.7705 16.0464H26.4306ZM62.7645 16.0464L63.9344 12.7016L65.1044 16.0464H62.7645ZM73.0922 12.635L71.5531 10.1781H72.8284L72.8284 10.1781L72.8292 10.1781L72.8325 10.1781L72.8462 10.1784C72.8584 10.1787 72.8766 10.1793 72.8998 10.1805C72.9464 10.183 73.0132 10.188 73.0935 10.1979C73.2545 10.2179 73.4679 10.2577 73.6802 10.3366C73.8928 10.4156 74.1003 10.5324 74.2541 10.704C74.4065 10.8739 74.5093 11.101 74.5093 11.4088C74.5093 11.8944 74.2622 12.1875 73.9553 12.3684C73.6646 12.5398 73.322 12.6087 73.0922 12.635Z" fill="#4F4F4F" stroke="#4F4F4F" stroke-width="0.150084" stroke-linejoin="round"/>
<path d="M29.9119 18.5531H31.8029L27.6006 7.74707L23.4132 18.5531H25.3043L25.7545 17.3375H29.4466L29.9119 18.5531ZM27.6006 12.1746L28.8763 15.8216H26.3248L27.6006 12.1746Z" fill="#828282"/>
<path d="M38.7908 12.5798V14.2457H40.5467V15.7616C39.9014 16.497 38.9709 16.9472 37.9203 16.9472C35.9842 16.9472 34.4233 15.8666 34.4233 13.3002C34.4233 11.0039 35.9842 9.65314 37.9203 9.65314C38.8808 9.65314 39.7663 10.0434 40.3967 10.6737L41.6273 9.44302C40.6818 8.48248 39.3761 7.89715 37.9203 7.89715C35.0236 7.89715 32.6673 10.1784 32.6673 13.3002C32.6673 16.7371 34.8736 18.7032 37.6951 18.7032C38.9408 18.7032 39.8263 18.4031 40.6818 17.6076L40.7719 18.5982H42.3027V12.5798H38.7908Z" fill="#828282"/>
<path d="M51.5995 9.80323V8.04724H44.5906V18.5531H51.5995V16.7972H46.3466V14.1707H50.714V12.4297H46.3466V9.80323H51.5995Z" fill="#828282"/>
<path d="M55.1699 16.7972V8.04724H53.4139V18.5531H59.0571V16.7972H55.1699Z" fill="#828282"/>
<path d="M66.2457 18.5531H68.1368L63.9344 7.74707L59.7471 18.5531H61.6382L62.0884 17.3375H65.7805L66.2457 18.5531ZM63.9344 12.1746L65.2102 15.8216H62.6587L63.9344 12.1746Z" fill="#828282"/>
<path d="M76.8806 18.5531L74.029 13.9906C75.0496 13.7054 76.3403 12.97 76.3403 11.109C76.3403 8.04724 72.8284 8.04724 72.8284 8.04724H69.3314V9.80323L70.9973 12.4297H69.3314V18.5531H71.0874V14.1707H72.0929L74.8245 18.5531H76.8806ZM71.4176 9.80323H72.8284C72.8284 9.80323 74.5843 9.80323 74.5843 11.109C74.5843 12.1445 73.5187 12.3697 73.0535 12.4147L71.4176 9.80323Z" fill="#828282"/>
<path d="M29.9119 18.5531H31.8029L27.6006 7.74707L23.4132 18.5531H25.3043L25.7545 17.3375H29.4466L29.9119 18.5531ZM27.6006 12.1746L28.8763 15.8216H26.3248L27.6006 12.1746Z" stroke="#828282" stroke-width="0.150084" stroke-linejoin="round"/>
<path d="M38.7908 12.5798V14.2457H40.5467V15.7616C39.9014 16.497 38.9709 16.9472 37.9203 16.9472C35.9842 16.9472 34.4233 15.8666 34.4233 13.3002C34.4233 11.0039 35.9842 9.65314 37.9203 9.65314C38.8808 9.65314 39.7663 10.0434 40.3967 10.6737L41.6273 9.44302C40.6818 8.48248 39.3761 7.89715 37.9203 7.89715C35.0236 7.89715 32.6673 10.1784 32.6673 13.3002C32.6673 16.7371 34.8736 18.7032 37.6951 18.7032C38.9408 18.7032 39.8263 18.4031 40.6818 17.6076L40.7719 18.5982H42.3027V12.5798H38.7908Z" stroke="#828282" stroke-width="0.150084" stroke-linejoin="round"/>
<path d="M51.5995 9.80323V8.04724H44.5906V18.5531H51.5995V16.7972H46.3466V14.1707H50.714V12.4297H46.3466V9.80323H51.5995Z" stroke="#828282" stroke-width="0.150084" stroke-linejoin="round"/>
<path d="M55.1699 16.7972V8.04724H53.4139V18.5531H59.0571V16.7972H55.1699Z" stroke="#828282" stroke-width="0.150084" stroke-linejoin="round"/>
<path d="M66.2457 18.5531H68.1368L63.9344 7.74707L59.7471 18.5531H61.6382L62.0884 17.3375H65.7805L66.2457 18.5531ZM63.9344 12.1746L65.2102 15.8216H62.6587L63.9344 12.1746Z" stroke="#828282" stroke-width="0.150084" stroke-linejoin="round"/>
<path d="M76.8806 18.5531L74.029 13.9906C75.0496 13.7054 76.3403 12.97 76.3403 11.109C76.3403 8.04724 72.8284 8.04724 72.8284 8.04724H69.3314V9.80323L70.9973 12.4297H69.3314V18.5531H71.0874V14.1707H72.0929L74.8245 18.5531H76.8806ZM71.4176 9.80323H72.8284C72.8284 9.80323 74.5843 9.80323 74.5843 11.109C74.5843 12.1445 73.5187 12.3697 73.0535 12.4147L71.4176 9.80323Z" stroke="#828282" stroke-width="0.150084" stroke-linejoin="round"/>
<mask id="mask0_665_4899" style="mask-type:alpha" maskUnits="userSpaceOnUse" x="0" y="0" width="30" height="26">
<path d="M15.6088 7.44691L17.1096 3.99497L2.40135 0.0927734L0 13.1501L6.2285 21.7049L7.72934 19.1535L15.6088 7.44691Z" fill="#828282"/>
<path d="M18.4604 12.6248L18.2352 5.64589H27.1653L29.4916 19.6037L21.6872 25.6821L10.9562 24.7066L12.6821 20.5042L13.7327 19.9039L18.4604 12.6248Z" fill="#828282"/>
</mask>
<g mask="url(#mask0_665_4899)">
<path d="M6.02993 14.3284L6.43909 14.0727L6.37589 13.1332L6.02993 14.3284ZM6.9208 16.9088L7.3212 16.6278L6.92 15.8283L6.9208 16.9088ZM6.51561 16.1013L6.92 15.8283L6.62321 14.9738L6.51561 16.1013ZM5.9661 13.3795L6.37589 13.1332L6.43909 12.1936L5.9661 13.3795ZM6.21588 15.2384L6.62321 14.9738L6.43909 14.0727L6.21588 15.2384ZM21.5022 14.5495L21.7593 14.2917L21.8373 13.1332L21.5022 14.5495ZM6.02993 12.4306L6.43909 12.1936L6.62321 11.2925L6.02993 12.4306ZM21.5809 13.3795L21.8373 13.1332L21.7593 11.9747L21.5809 13.3795ZM21.5022 12.2095L21.7593 11.9747L21.5323 10.8636L21.5022 12.2095ZM6.21588 11.5206L6.62321 11.2925L6.92 10.4381L6.21588 11.5206ZM21.2729 11.0874L21.5323 10.8636L21.1663 9.81L21.2729 11.0874ZM20.9034 10.0233L21.1663 9.81L20.6716 8.82415L20.9034 10.0233ZM6.51561 10.6576L6.92 10.4381L7.3212 9.63854L6.51561 10.6576ZM20.4038 9.0277L20.6716 8.82415L20.0584 7.91618L20.4038 9.0277ZM19.7844 8.11072L20.0584 7.91618L19.3367 7.09627L19.7844 8.11072ZM6.9208 9.85018L7.3212 9.63854L7.81857 8.90218L6.9208 9.85018ZM19.0556 7.28267L19.3367 7.09627L18.5168 6.37459L19.0556 7.28267ZM18.2275 6.55383L18.5168 6.37459L17.6088 5.76132L18.2275 6.55383ZM7.4231 9.1065L7.81857 8.90218L8.40385 8.23723L7.4231 9.1065ZM17.3105 5.93447L17.6088 5.76132L16.623 5.26662L17.3105 5.93447ZM16.3149 5.43486L16.623 5.26662L15.5694 4.90067L16.3149 5.43486ZM8.01419 8.43496L8.40385 8.23723L9.0688 7.65195L8.01419 8.43496ZM15.2509 5.06528L15.5694 4.90067L14.4583 4.67364L15.2509 5.06528ZM14.1287 4.836L14.4583 4.67364L13.2998 4.5957L14.1287 4.836ZM8.68574 7.84386L9.0688 7.65195L9.80517 7.15458L8.68574 7.84386ZM12.9587 4.75729L13.2998 4.5957L12.1413 4.67364L12.9587 4.75729ZM11.7887 4.836L12.1413 4.67364L11.0302 4.90067L11.7887 4.836ZM9.42942 7.34156L9.80517 7.15458L10.6047 6.75338L9.42942 7.34156ZM10.6666 5.06528L11.0302 4.90067L9.97663 5.26662L10.6666 5.06528ZM19.0556 19.4763L19.3367 19.1701L20.0584 18.3502L19.0556 19.4763ZM17.9033 18.324L18.1957 18.0291L17.5308 18.6144L17.9033 18.324ZM19.7844 18.6483L20.0584 18.3502L20.6716 17.4422L19.7844 18.6483ZM20.4038 17.7313L20.6716 17.4422L21.1663 16.4563L20.4038 17.7313ZM20.9034 16.7356L21.1663 16.4563L21.5323 15.4028L20.9034 16.7356ZM17.2317 18.9151L17.5308 18.6144L16.7944 19.1118L17.2317 18.9151ZM21.2729 15.6716L21.5323 15.4028L21.7593 14.2917L21.2729 15.6716ZM7.4231 17.6525L7.81857 17.3642L7.3212 16.6278L7.4231 17.6525ZM8.01419 18.324L8.40385 18.0291L7.81857 17.3642L8.01419 18.324ZM16.488 19.4174L16.7944 19.1118L15.9949 19.513L16.488 19.4174ZM8.68574 18.9151L9.0688 18.6144L8.40385 18.0291L8.68574 18.9151ZM9.42942 19.4174L9.80517 19.1118L9.0688 18.6144L9.42942 19.4174ZM10.2369 19.8226L10.6047 19.513L9.80517 19.1118L10.2369 19.8226ZM15.6806 19.8226L15.9949 19.513L15.1404 19.8097L15.6806 19.8226ZM11.0998 20.1223L11.4591 19.8097L10.6047 19.513L11.0998 20.1223ZM12.0099 20.3083L12.3603 19.9939L11.4591 19.8097L12.0099 20.3083ZM12.9587 20.3721L13.2998 20.0571L12.3603 19.9939L12.9587 20.3721ZM14.8177 20.1223L15.1404 19.8097L14.2393 19.9939L14.8177 20.1223ZM13.9076 20.3083L14.2393 19.9939L13.2998 20.0571L13.9076 20.3083ZM8.68574 18.9151L9.42942 19.4174L9.0688 18.6144L8.68574 18.9151ZM6.9208 16.9088L7.4231 17.6525L7.3212 16.6278L6.9208 16.9088ZM12.9587 20.3721L13.9076 20.3083L13.2998 20.0571L12.9587 20.3721ZM6.51561 16.1013L6.9208 16.9088L6.92 15.8283L6.51561 16.1013ZM6.21588 15.2384L6.51561 16.1013L6.62321 14.9738L6.21588 15.2384ZM12.0099 20.3083L12.9587 20.3721L12.3603 19.9939L12.0099 20.3083ZM6.02993 14.3284L6.21588 15.2384L6.43909 14.0727L6.02993 14.3284ZM11.0998 20.1223L12.0099 20.3083L11.4591 19.8097L11.0998 20.1223ZM14.8177 20.1223L15.6806 19.8226L15.1404 19.8097L14.8177 20.1223ZM10.2369 19.8226L11.0998 20.1223L10.6047 19.513L10.2369 19.8226ZM9.42942 19.4174L10.2369 19.8226L9.80517 19.1118L9.42942 19.4174ZM13.9076 20.3083L14.8177 20.1223L14.2393 19.9939L13.9076 20.3083ZM15.6806 19.8226L16.488 19.4174L15.9949 19.513L15.6806 19.8226ZM8.01419 18.324L8.68574 18.9151L8.40385 18.0291L8.01419 18.324ZM7.4231 17.6525L8.01419 18.324L7.81857 17.3642L7.4231 17.6525ZM21.5022 14.5495L21.2729 15.6716L21.7593 14.2917L21.5022 14.5495ZM16.488 19.4174L17.2317 18.9151L16.7944 19.1118L16.488 19.4174ZM21.2729 15.6716L20.9034 16.7356L21.5323 15.4028L21.2729 15.6716ZM19.7844 18.6483L19.0556 19.4763L20.0584 18.3502L19.7844 18.6483ZM17.2317 18.9151L17.9033 18.324L17.5308 18.6144L17.2317 18.9151ZM20.4038 17.7313L19.7844 18.6483L20.6716 17.4422L20.4038 17.7313ZM20.9034 16.7356L20.4038 17.7313L21.1663 16.4563L20.9034 16.7356ZM19.0556 7.28267L19.7844 8.11072L19.3367 7.09627L19.0556 7.28267ZM10.2369 6.93638L9.42942 7.34156L10.6047 6.75338L10.2369 6.93638ZM7.4231 9.1065L6.9208 9.85018L7.81857 8.90218L7.4231 9.1065ZM18.2275 6.55383L19.0556 7.28267L18.5168 6.37459L18.2275 6.55383ZM21.5022 12.2095L21.5809 13.3795L21.7593 11.9747L21.5022 12.2095ZM21.2729 11.0874L21.5022 12.2095L21.5323 10.8636L21.2729 11.0874ZM17.3105 5.93447L18.2275 6.55383L17.6088 5.76132L17.3105 5.93447ZM8.01419 8.43496L7.4231 9.1065L8.40385 8.23723L8.01419 8.43496ZM16.3149 5.43486L17.3105 5.93447L16.623 5.26662L16.3149 5.43486ZM6.02993 12.4306L5.9661 13.3795L6.43909 12.1936L6.02993 12.4306ZM15.2509 5.06528L16.3149 5.43486L15.5694 4.90067L15.2509 5.06528ZM8.68574 7.84386L8.01419 8.43496L9.0688 7.65195L8.68574 7.84386ZM14.1287 4.836L15.2509 5.06528L14.4583 4.67364L14.1287 4.836ZM5.9661 13.3795L6.02993 14.3284L6.37589 13.1332L5.9661 13.3795ZM12.9587 4.75729L14.1287 4.836L13.2998 4.5957L12.9587 4.75729ZM9.42942 7.34156L8.68574 7.84386L9.80517 7.15458L9.42942 7.34156ZM11.7887 4.836L12.9587 4.75729L12.1413 4.67364L11.7887 4.836ZM21.5809 13.3795L21.5022 14.5495L21.8373 13.1332L21.5809 13.3795ZM6.51561 10.6576L6.21588 11.5206L6.92 10.4381L6.51561 10.6576ZM10.6666 5.06528L11.7887 4.836L11.0302 4.90067L10.6666 5.06528ZM9.60258 5.43486L10.6666 5.06528L9.97663 5.26662L9.60258 5.43486ZM20.9034 10.0233L21.2729 11.0874L21.1663 9.81L20.9034 10.0233ZM20.4038 9.0277L20.9034 10.0233L20.6716 8.82415L20.4038 9.0277ZM6.21588 11.5206L6.02993 12.4306L6.62321 11.2925L6.21588 11.5206ZM6.9208 9.85018L6.51561 10.6576L7.3212 9.63854L6.9208 9.85018ZM19.7844 8.11072L20.4038 9.0277L20.0584 7.91618L19.7844 8.11072ZM17.6049 18.6249L17.9033 18.324L17.2317 18.9151L17.6049 18.6249ZM14.4884 20.4412L14.8177 20.1223L13.9076 20.3083L14.4884 20.4412ZM19.5049 18.9523L19.7844 18.6483L20.4038 17.7313L19.5049 18.9523ZM20.1305 18.0262L20.4038 17.7313L20.9034 16.7356L20.1305 18.0262ZM13.5692 20.629L13.9076 20.3083L12.9587 20.3721L13.5692 20.629ZM6.51237 17.1955L6.9208 16.9088L6.51561 16.1013L6.51237 17.1955ZM18.7688 19.7887L19.0556 19.4763L19.7844 18.6483L18.7688 19.7887ZM6.10312 16.3799L6.51561 16.1013L6.21588 15.2384L6.10312 16.3799ZM12.6108 20.6935L12.9587 20.3721L12.0099 20.3083L12.6108 20.6935ZM5.80038 15.5083L6.21588 15.2384L6.02993 14.3284L5.80038 15.5083ZM20.6351 17.0206L20.9034 16.7356L21.2729 15.6716L20.6351 17.0206ZM15.36 20.1385L15.6806 19.8226L14.8177 20.1223L15.36 20.1385ZM11.6525 20.629L12.0099 20.3083L11.0998 20.1223L11.6525 20.629ZM10.7333 20.4412L11.0998 20.1223L10.2369 19.8226L10.7333 20.4412ZM9.8617 20.1385L10.2369 19.8226L9.42942 19.4174L9.8617 20.1385ZM16.1755 19.7292L16.488 19.4174L15.6806 19.8226L16.1755 19.7292ZM21.0084 15.9459L21.2729 15.6716L21.5022 14.5495L21.0084 15.9459ZM9.04613 19.7292L9.42942 19.4174L8.68574 18.9151L9.04613 19.7292ZM8.295 19.2219L8.68574 18.9151L8.01419 18.324L8.295 19.2219ZM7.01971 17.9466L7.4231 17.6525L6.9208 16.9088L7.01971 17.9466ZM7.61672 18.6249L8.01419 18.324L7.4231 17.6525L7.61672 18.6249ZM16.9267 19.2219L17.2317 18.9151L16.488 19.4174L16.9267 19.2219ZM21.0084 11.3157L21.2729 11.0874L20.9034 10.0233L21.0084 11.3157ZM14.9259 5.23319L15.2509 5.06528L14.1287 4.836L14.9259 5.23319ZM16.0006 5.60648L16.3149 5.43486L15.2509 5.06528L16.0006 5.60648ZM7.61672 8.63665L8.01419 8.43496L8.68574 7.84386L7.61672 8.63665ZM7.01971 9.31493L7.4231 9.1065L8.01419 8.43496L7.01971 9.31493ZM17.0063 6.11109L17.3105 5.93447L16.3149 5.43486L17.0063 6.11109ZM5.61257 14.5891L6.02993 14.3284L5.9661 13.3795L5.61257 14.5891ZM9.04613 7.53229L9.42942 7.34156L10.2369 6.93638L9.04613 7.53229ZM10.2957 5.23319L10.6666 5.06528L9.60258 5.43486L10.2957 5.23319ZM17.9324 6.73666L18.2275 6.55383L17.3105 5.93447L17.9324 6.73666ZM13.7925 5.00161L14.1287 4.836L12.9587 4.75729L13.7925 5.00161ZM6.51237 10.0661L6.9208 9.85018L7.4231 9.1065L6.51237 10.0661ZM18.7688 7.47281L19.0556 7.28267L18.2275 6.55383L18.7688 7.47281ZM5.5481 13.6308L5.9661 13.3795L6.02993 12.4306L5.5481 13.6308ZM21.24 14.8125L21.5022 14.5495L21.5809 13.3795L21.24 14.8125ZM19.5049 8.30916L19.7844 8.11072L19.0556 7.28267L19.5049 8.30916ZM12.6108 4.92211L12.9587 4.75729L11.7887 4.836L12.6108 4.92211ZM6.10312 10.8816L6.51561 10.6576L6.9208 9.85018L6.10312 10.8816ZM20.1305 9.23533L20.4038 9.0277L19.7844 8.11072L20.1305 9.23533ZM11.4291 5.00161L11.7887 4.836L10.6666 5.06528L11.4291 5.00161ZM8.295 8.03963L8.68574 7.84386L9.42942 7.34156L8.295 8.03963ZM20.6351 10.241L20.9034 10.0233L20.4038 9.0277L20.6351 10.241ZM21.3195 13.6308L21.5809 13.3795L21.5022 12.2095L21.3195 13.6308ZM5.80038 11.7532L6.21588 11.5206L6.51561 10.6576L5.80038 11.7532ZM5.61257 12.6724L6.02993 12.4306L6.21588 11.5206L5.61257 12.6724ZM21.24 12.449L21.5022 12.2095L21.2729 11.0874L21.24 12.449ZM6.51237 17.1955L7.01971 17.9466L6.9208 16.9088L6.51237 17.1955ZM21.0084 15.9459L20.6351 17.0206L21.2729 15.6716L21.0084 15.9459ZM10.7333 20.4412L11.6525 20.629L11.0998 20.1223L10.7333 20.4412ZM7.01971 17.9466L7.61672 18.6249L7.4231 17.6525L7.01971 17.9466ZM15.36 20.1385L16.1755 19.7292L15.6806 19.8226L15.36 20.1385ZM9.04613 19.7292L9.8617 20.1385L9.42942 19.4174L9.04613 19.7292ZM13.5692 20.629L14.4884 20.4412L13.9076 20.3083L13.5692 20.629ZM21.24 14.8125L21.0084 15.9459L21.5022 14.5495L21.24 14.8125ZM11.6525 20.629L12.6108 20.6935L12.0099 20.3083L11.6525 20.629ZM20.1305 18.0262L19.5049 18.9523L20.4038 17.7313L20.1305 18.0262ZM5.61257 14.5891L5.80038 15.5083L6.02993 14.3284L5.61257 14.5891ZM9.8617 20.1385L10.7333 20.4412L10.2369 19.8226L9.8617 20.1385ZM7.61672 18.6249L8.295 19.2219L8.01419 18.324L7.61672 18.6249ZM14.4884 20.4412L15.36 20.1385L14.8177 20.1223L14.4884 20.4412ZM5.80038 15.5083L6.10312 16.3799L6.21588 15.2384L5.80038 15.5083ZM16.9267 19.2219L17.6049 18.6249L17.2317 18.9151L16.9267 19.2219ZM12.6108 20.6935L13.5692 20.629L12.9587 20.3721L12.6108 20.6935ZM16.1755 19.7292L16.9267 19.2219L16.488 19.4174L16.1755 19.7292ZM6.10312 16.3799L6.51237 17.1955L6.51561 16.1013L6.10312 16.3799ZM19.5049 18.9523L18.7688 19.7887L19.7844 18.6483L19.5049 18.9523ZM20.6351 17.0206L20.1305 18.0262L20.9034 16.7356L20.6351 17.0206ZM8.295 19.2219L9.04613 19.7292L8.68574 18.9151L8.295 19.2219ZM5.5481 13.6308L5.61257 14.5891L5.9661 13.3795L5.5481 13.6308ZM17.0063 6.11109L17.9324 6.73666L17.3105 5.93447L17.0063 6.11109ZM21.0084 11.3157L21.24 12.449L21.2729 11.0874L21.0084 11.3157ZM9.04613 7.53229L8.295 8.03963L9.42942 7.34156L9.04613 7.53229ZM12.6108 4.92211L13.7925 5.00161L12.9587 4.75729L12.6108 4.92211ZM6.51237 10.0661L6.10312 10.8816L6.9208 9.85018L6.51237 10.0661ZM21.24 12.449L21.3195 13.6308L21.5022 12.2095L21.24 12.449ZM17.9324 6.73666L18.7688 7.47281L18.2275 6.55383L17.9324 6.73666ZM7.61672 8.63665L7.01971 9.31493L8.01419 8.43496L7.61672 8.63665ZM9.22103 5.60648L10.2957 5.23319L9.60258 5.43486L9.22103 5.60648ZM21.3195 13.6308L21.24 14.8125L21.5809 13.3795L21.3195 13.6308ZM13.7925 5.00161L14.9259 5.23319L14.1287 4.836L13.7925 5.00161ZM18.7688 7.47281L19.5049 8.30916L19.0556 7.28267L18.7688 7.47281ZM5.61257 12.6724L5.5481 13.6308L6.02993 12.4306L5.61257 12.6724ZM9.8617 7.12304L9.04613 7.53229L10.2369 6.93638L9.8617 7.12304ZM6.10312 10.8816L5.80038 11.7532L6.51561 10.6576L6.10312 10.8816ZM19.5049 8.30916L20.1305 9.23533L19.7844 8.11072L19.5049 8.30916ZM14.9259 5.23319L16.0006 5.60648L15.2509 5.06528L14.9259 5.23319ZM10.2957 5.23319L11.4291 5.00161L10.6666 5.06528L10.2957 5.23319ZM5.80038 11.7532L5.61257 12.6724L6.21588 11.5206L5.80038 11.7532ZM20.1305 9.23533L20.6351 10.241L20.4038 9.0277L20.1305 9.23533ZM8.295 8.03963L7.61672 8.63665L8.68574 7.84386L8.295 8.03963ZM16.0006 5.60648L17.0063 6.11109L16.3149 5.43486L16.0006 5.60648ZM7.01971 9.31493L6.51237 10.0661L7.4231 9.1065L7.01971 9.31493ZM20.6351 10.241L21.0084 11.3157L20.9034 10.0233L20.6351 10.241ZM11.4291 5.00161L12.6108 4.92211L11.7887 4.836L11.4291 5.00161Z" fill="#F2F2F2"/>
<path d="M6.10316 16.3797L3.90222 13.6305L8.21545 21.1502L6.10316 16.3797ZM20.1305 18.0259L20.6351 17.0203L21.0084 15.9456L20.1305 18.0259ZM19.6736 13.6305L19.6091 14.5889L21.3195 13.6305H19.6736ZM21.3195 13.6305L19.4213 11.753L19.6091 12.6722L21.3195 13.6305ZM19.6091 14.5889L19.4213 15.5081L21.3195 13.6305L19.6091 14.5889ZM21.3195 13.6305L19.1186 10.8814L19.4213 11.753L21.3195 13.6305ZM19.4213 15.5081L19.1186 16.3797L21.3195 13.6305L19.4213 15.5081ZM21.3195 13.6305L17.0063 6.11086L19.1186 10.8814L21.3195 13.6305ZM19.1186 16.3797L18.7093 17.1952L21.3195 13.6305L19.1186 16.3797ZM17.0063 6.11086L18.7093 10.0658L19.1186 10.8814L17.0063 6.11086ZM18.7093 17.1952L18.202 17.9464L21.3195 13.6305L18.7093 17.1952ZM17.0063 6.11086L18.202 9.3147L18.7093 10.0658L17.0063 6.11086ZM18.202 17.9464L17.0063 21.1502L21.3195 13.6305L18.202 17.9464ZM17.0063 6.11086L17.605 8.63641L18.202 9.3147L17.0063 6.11086ZM18.202 17.9464L17.605 18.6246L17.0063 21.1502L18.202 17.9464ZM17.0063 6.11086L16.9267 8.0394L17.605 8.63641L17.0063 6.11086ZM17.605 18.6246L16.9267 19.2216L17.0063 21.1502L17.605 18.6246ZM17.0063 6.11086L16.1756 7.53206L16.9267 8.0394L17.0063 6.11086ZM16.9267 19.2216L16.1756 19.729L17.0063 21.1502L16.9267 19.2216ZM17.0063 6.11086L15.36 7.12281L16.1756 7.53206L17.0063 6.11086ZM16.1756 19.729L15.36 20.1382L17.0063 21.1502L16.1756 19.729ZM17.0063 6.11086L14.4884 6.82007L15.36 7.12281L17.0063 6.11086ZM15.36 20.1382L14.4884 20.441L17.0063 21.1502L15.36 20.1382ZM17.0063 6.11086L13.5692 6.63226L14.4884 6.82007L17.0063 6.11086ZM14.4884 20.441L13.5692 20.6288L17.0063 21.1502L14.4884 20.441ZM17.0063 6.11086H8.21545L13.5692 6.63226L17.0063 6.11086ZM13.5692 20.6288L12.6109 20.6933L17.0063 21.1502L13.5692 20.6288ZM8.21545 6.11086L12.6109 6.56779L13.5692 6.63226L8.21545 6.11086ZM12.6109 20.6933L11.6525 20.6288L17.0063 21.1502L12.6109 20.6933ZM8.21545 6.11086L11.6525 6.63226L12.6109 6.56779L8.21545 6.11086ZM11.6525 20.6288L8.21545 21.1502H17.0063L11.6525 20.6288ZM8.21545 6.11086L10.7333 6.82007L11.6525 6.63226L8.21545 6.11086ZM11.6525 20.6288L10.7333 20.441L8.21545 21.1502L11.6525 20.6288ZM8.21545 6.11086L9.86173 7.12281L10.7333 6.82007L8.21545 6.11086ZM10.7333 20.441L9.86173 20.1382L8.21545 21.1502L10.7333 20.441ZM8.21545 6.11086L9.04617 7.53206L9.86173 7.12281L8.21545 6.11086ZM9.86173 20.1382L9.04617 19.729L8.21545 21.1502L9.86173 20.1382ZM8.21545 6.11086L8.29504 8.0394L9.04617 7.53206L8.21545 6.11086ZM9.04617 19.729L8.29504 19.2216L8.21545 21.1502L9.04617 19.729ZM8.21545 6.11086L7.61676 8.63641L8.29504 8.0394L8.21545 6.11086ZM8.29504 19.2216L7.61676 18.6246L8.21545 21.1502L8.29504 19.2216ZM8.21545 6.11086L7.01974 9.3147L7.61676 8.63641L8.21545 6.11086ZM7.61676 18.6246L7.01974 17.9464L8.21545 21.1502L7.61676 18.6246ZM8.21545 6.11086L3.90222 13.6305L7.01974 9.3147L8.21545 6.11086ZM7.01974 17.9464L6.5124 17.1952L8.21545 21.1502L7.01974 17.9464ZM3.90222 13.6305L6.5124 10.0658L7.01974 9.3147L3.90222 13.6305ZM6.5124 17.1952L6.10316 16.3797L8.21545 21.1502L6.5124 17.1952ZM3.90222 13.6305L6.10316 10.8814L6.5124 10.0658L3.90222 13.6305ZM21.3195 13.6305L19.6091 12.6722L19.6736 13.6305H21.3195ZM21.3195 13.6305L20.1305 9.2351L17.0063 6.11086L21.3195 13.6305ZM17.0063 6.11086L12.6109 4.92188L8.21545 6.11086H17.0063ZM8.21545 6.11086L5.09121 9.2351L3.90222 13.6305L8.21545 6.11086ZM3.90222 13.6305L5.80042 11.753L6.10316 10.8814L3.90222 13.6305ZM6.10316 16.3797L5.80042 15.5081L3.90222 13.6305L6.10316 16.3797ZM3.90222 13.6305L5.09121 18.0259L8.21545 21.1502L3.90222 13.6305ZM8.21545 21.1502L12.6109 22.3392L17.0063 21.1502H8.21545ZM17.0063 21.1502L20.1305 18.0259L21.3195 13.6305L17.0063 21.1502ZM21.3195 13.6305L21.0084 11.3154L20.1305 9.2351L21.3195 13.6305ZM20.1305 9.2351L18.7688 7.47258L17.0063 6.11086L20.1305 9.2351ZM17.0063 6.11086L14.926 5.23296L12.6109 4.92188L17.0063 6.11086ZM12.6109 4.92188L10.2958 5.23296L8.21545 6.11086L12.6109 4.92188ZM8.21545 6.11086L6.45293 7.47258L5.09121 9.2351L8.21545 6.11086ZM5.09121 9.2351L4.2133 11.3154L3.90222 13.6305L5.09121 9.2351ZM3.90222 13.6305L5.61261 12.6722L5.80042 11.753L3.90222 13.6305ZM5.80042 15.5081L5.61261 14.5889L3.90222 13.6305L5.80042 15.5081ZM3.90222 13.6305L4.2133 15.9456L5.09121 18.0259L3.90222 13.6305ZM5.09121 18.0259L6.45293 19.7885L8.21545 21.1502L5.09121 18.0259ZM8.21545 21.1502L10.2958 22.0281L12.6109 22.3392L8.21545 21.1502ZM12.6109 22.3392L14.926 22.0281L17.0063 21.1502L12.6109 22.3392ZM17.0063 21.1502L18.7688 19.7885L20.1305 18.0259L17.0063 21.1502ZM20.1305 18.0259L21.0084 15.9456L21.3195 13.6305L20.1305 18.0259ZM21.3195 13.6305L21.24 12.4488L21.0084 11.3154L21.3195 13.6305ZM21.0084 11.3154L20.6351 10.2407L20.1305 9.2351L21.0084 11.3154ZM20.1305 9.2351L19.505 8.30893L18.7688 7.47258L20.1305 9.2351ZM18.7688 7.47258L17.9325 6.73643L17.0063 6.11086L18.7688 7.47258ZM17.0063 6.11086L16.0007 5.60624L14.926 5.23296L17.0063 6.11086ZM14.926 5.23296L13.7926 5.00137L12.6109 4.92188L14.926 5.23296ZM12.6109 4.92188L11.4292 5.00137L10.2958 5.23296L12.6109 4.92188ZM10.2958 5.23296L9.22107 5.60624L8.21545 6.11086L10.2958 5.23296ZM8.21545 6.11086L7.28927 6.73643L6.45293 7.47258L8.21545 6.11086ZM6.45293 7.47258L5.71678 8.30893L5.09121 9.2351L6.45293 7.47258ZM5.09121 9.2351L4.58659 10.2407L4.2133 11.3154L5.09121 9.2351ZM4.2133 11.3154L3.98172 12.4488L3.90222 13.6305L4.2133 11.3154ZM3.90222 13.6305H5.54813L5.61261 12.6722L3.90222 13.6305ZM5.61261 14.5889L5.54813 13.6305H3.90222L5.61261 14.5889ZM3.90222 13.6305L3.98172 14.8122L4.2133 15.9456L3.90222 13.6305ZM4.2133 15.9456L4.58659 17.0203L5.09121 18.0259L4.2133 15.9456ZM5.09121 18.0259L5.71678 18.9521L6.45293 19.7885L5.09121 18.0259ZM6.45293 19.7885L7.28927 20.5246L8.21545 21.1502L6.45293 19.7885ZM8.21545 21.1502L9.22107 21.6548L10.2958 22.0281L8.21545 21.1502ZM10.2958 22.0281L11.4292 22.2597L12.6109 22.3392L10.2958 22.0281ZM12.6109 22.3392L13.7926 22.2597L14.926 22.0281L12.6109 22.3392ZM14.926 22.0281L16.0007 21.6548L17.0063 21.1502L14.926 22.0281ZM17.0063 21.1502L17.9325 20.5246L18.7688 19.7885L17.0063 21.1502ZM18.7688 19.7885L19.505 18.9521L20.1305 18.0259L18.7688 19.7885ZM21.0084 15.9456L21.24 14.8122L21.3195 13.6305L21.0084 15.9456Z" fill="#F2F2F2"/>
</g>
<path fill-rule="evenodd" clip-rule="evenodd" d="M18.147 16.8542L17.441 2.26953L15.9349 4.14132L16.5458 18.6132C16.9512 18.3009 17.7901 17.419 18.147 16.8542Z" fill="white"/>
<path fill-rule="evenodd" clip-rule="evenodd" d="M14.2914 17.0161C14.2584 17.041 14.2194 17.0554 14.1779 17.0554H14.1262H10.9618C10.8436 17.0554 10.746 16.9378 10.746 16.794V15.2331C10.746 15.0893 10.8431 14.9717 10.9618 14.9717H14.1779C14.2321 14.9717 14.2819 14.9962 14.3199 15.0366C14.3263 15.0404 14.3325 15.0444 14.3384 15.0486L15.497 15.878C15.6035 15.9542 15.6035 16.0795 15.497 16.1558L14.3201 16.9982C14.311 17.0047 14.3014 17.0107 14.2914 17.0161V17.0161Z" fill="white"/>
<path fill-rule="evenodd" clip-rule="evenodd" d="M11.376 17.0475H10.4307C10.3134 17.0475 10.2148 16.9299 10.2148 16.7861V15.2688C10.2148 15.125 10.312 15.0092 10.4307 15.0074L12.2425 14.9785C12.5481 14.9736 11.8404 17.0475 11.376 17.0475Z" fill="#F2F2F2"/>
<path fill-rule="evenodd" clip-rule="evenodd" d="M16.1111 7.57819H15.1658C15.0493 7.57819 14.9259 7.4786 14.9499 7.36234L15.4176 5.10199C15.4417 4.98572 15.5148 4.88768 15.6335 4.88613L17.4453 4.86231C17.7509 4.85828 16.5755 7.57819 16.1111 7.57819Z" fill="#F2F2F2"/>
<path fill-rule="evenodd" clip-rule="evenodd" d="M14.1651 3.35336L16.8529 1.26804L16.8531 1.26797C17.1246 0.9981 17.5082 1.2007 17.5122 1.55583L17.55 4.87959L8.64728 22.3341C8.59713 22.4324 8.47398 22.5139 8.37557 22.5139H5.83296C5.73474 22.5139 5.69428 22.4329 5.7449 22.3341L15.0557 4.16192L14.1947 3.88409C13.923 3.79637 13.9746 3.5011 14.1651 3.35336V3.35336Z" fill="white"/>
<path fill-rule="evenodd" clip-rule="evenodd" d="M14.1453 3.3641L16.8332 1.27878L16.8333 1.27872C17.1048 1.00884 17.4884 1.21144 17.4924 1.56657L17.5302 4.89033L8.6275 22.3448C8.57735 22.4432 8.4542 22.5247 8.35579 22.5247H5.81319C5.71496 22.5247 5.6745 22.4436 5.72512 22.3448L15.0359 4.17266L14.1749 3.89483C13.9032 3.80711 13.9548 3.51185 14.1453 3.3641V3.3641Z" fill="white"/>
<mask id="mask1_665_4899" style="mask-type:alpha" maskUnits="userSpaceOnUse" x="5" y="1" width="13" height="22">
<path fill-rule="evenodd" clip-rule="evenodd" d="M14.1453 3.3641L16.8332 1.27878L16.8333 1.27872C17.1048 1.00884 17.4884 1.21144 17.4924 1.56657L17.5302 4.89033L8.6275 22.3448C8.57735 22.4432 8.4542 22.5247 8.35579 22.5247H5.81319C5.71496 22.5247 5.6745 22.4436 5.72512 22.3448L15.0359 4.17266L14.1749 3.89483C13.9032 3.80711 13.9548 3.51185 14.1453 3.3641V3.3641Z" fill="#FC3110"/>
</mask>
<g mask="url(#mask1_665_4899)">
<path d="M18.2162 3.0536L7.40136 24.1477L7.36523 24.1292L18.1801 3.03516L18.2162 3.0536Z" fill="#F2F2F2"/>
<path d="M18.8516 1.23231L6.29747 25.7188L6.26135 25.7004L18.8155 1.21387L18.8516 1.23231Z" fill="#F2F2F2"/>
<path d="M19.4871 -0.587997L5.19359 27.291L5.15747 27.2725L19.4509 -0.606445L19.4871 -0.587997Z" fill="#F2F2F2"/>
<path d="M20.1225 -2.40831L4.08971 28.8631L4.05359 28.8447L20.0864 -2.42676L20.1225 -2.40831Z" fill="#F2F2F2"/>
<path d="M20.7579 -4.2296L2.98583 30.4343L2.94971 30.4159L20.7218 -4.24805L20.7579 -4.2296Z" fill="#F2F2F2"/>
<path d="M21.3933 -6.04991L1.88195 32.0064L1.84583 31.988L21.3572 -6.06836L21.3933 -6.04991Z" fill="#F2F2F2"/>
<path d="M22.0289 -7.87022L0.778187 33.5786L0.742065 33.5601L21.9928 -7.88867L22.0289 -7.87022Z" fill="#F2F2F2"/>
<path d="M22.6643 -9.69151L-0.325695 35.1498L-0.361816 35.1313L22.6282 -9.70996L22.6643 -9.69151Z" fill="#F2F2F2"/>
<path d="M23.2997 -11.5118L-1.42958 36.7219L-1.4657 36.7035L23.2636 -11.5303L23.2997 -11.5118Z" fill="#F2F2F2"/>
<path d="M23.9352 -13.3321L-2.53346 38.2941L-2.56958 38.2756L23.8991 -13.3506L23.9352 -13.3321Z" fill="#F2F2F2"/>
<path d="M24.5706 -15.1534L-3.63734 39.8652L-3.67346 39.8468L24.5345 -15.1719L24.5706 -15.1534Z" fill="#F2F2F2"/>
<path d="M25.2061 -16.9737L-4.7411 41.4374L-4.77722 41.419L25.17 -16.9922L25.2061 -16.9737Z" fill="#F2F2F2"/>
<path d="M25.8416 -18.795L-5.84498 43.0086L-5.8811 42.9901L25.8054 -18.8135L25.8416 -18.795Z" fill="#F2F2F2"/>
<path d="M26.477 -20.6153L-6.94886 44.5807L-6.98499 44.5623L26.4409 -20.6338L26.477 -20.6153Z" fill="#F2F2F2"/>
</g>
</svg>
