<svg width="23" height="24" viewBox="0 0 23 24" fill="none" xmlns="http://www.w3.org/2000/svg">
<path d="M12.5 1C12.5 0.447715 12.0523 0 11.5 0C10.9477 0 10.5 0.447715 10.5 1V14.5858L5.84315 9.92893C5.45262 9.53841 4.81946 9.53841 4.42893 9.92893C4.03841 10.3195 4.03841 10.9526 4.42893 11.3431L10.7929 17.7071C11.1834 18.0976 11.8166 18.0976 12.2071 17.7071L18.5711 11.3431C18.9616 10.9526 18.9616 10.3195 18.5711 9.92893C18.1805 9.53841 17.5474 9.53841 17.1569 9.92893L12.5 14.5858V1Z" fill="black"/>
<path d="M2.5 17C2.5 16.4477 2.05228 16 1.5 16C0.947715 16 0.5 16.4477 0.5 17V20C0.5 22.2091 2.29086 24 4.5 24H18.5C20.7091 24 22.5 22.2091 22.5 20V17C22.5 16.4477 22.0523 16 21.5 16C20.9477 16 20.5 16.4477 20.5 17V20C20.5 21.1046 19.6046 22 18.5 22H4.5C3.39543 22 2.5 21.1046 2.5 20V17Z" fill="black"/>
</svg>
