<svg width="42" height="42" viewBox="0 0 42 42" fill="none" xmlns="http://www.w3.org/2000/svg">
<rect width="42" height="42" rx="21" fill="#0DC143"/>
<path d="M30.4069 11.5601C28.1555 9.24248 25.0434 7.98438 21.865 7.98438C15.1109 7.98438 9.68121 13.4803 9.74742 20.1682C9.74742 22.2871 10.3434 24.3398 11.3366 26.1938L9.61499 32.4844L16.038 30.829C17.8258 31.8222 19.8123 32.2857 21.7988 32.2857C28.4866 32.2857 33.9163 26.7898 33.9163 20.1019C33.9163 16.8573 32.6582 13.8114 30.4069 11.5601ZM21.865 30.233C20.0772 30.233 18.2893 29.7695 16.7663 28.8425L16.369 28.6438L12.5285 29.6371L13.5217 25.8628L13.2569 25.4655C10.3434 20.7641 11.7339 14.5398 16.5015 11.6263C21.269 8.71275 27.4272 10.1033 30.3407 14.8709C33.2542 19.6384 31.8636 25.7965 27.0961 28.7101C25.5731 29.7033 23.719 30.233 21.865 30.233ZM27.692 22.883L26.9636 22.5519C26.9636 22.5519 25.9042 22.0884 25.242 21.7573C25.1758 21.7573 25.1096 21.6911 25.0434 21.6911C24.8447 21.6911 24.7123 21.7573 24.5799 21.8236C24.5799 21.8236 24.5136 21.8898 23.5866 22.9492C23.5204 23.0817 23.388 23.1479 23.2555 23.1479H23.1893C23.1231 23.1479 22.9907 23.0817 22.9244 23.0155L22.5934 22.883C21.865 22.5519 21.2028 22.1546 20.6731 21.6249C20.5407 21.4925 20.342 21.3601 20.2096 21.2276C19.7461 20.7641 19.2826 20.2344 18.9515 19.6384L18.8853 19.506C18.819 19.4398 18.819 19.3736 18.7528 19.2411C18.7528 19.1087 18.7528 18.9763 18.819 18.9101C18.819 18.9101 19.0839 18.579 19.2826 18.3803C19.415 18.2479 19.4812 18.0492 19.6136 17.9168C19.7461 17.7182 19.8123 17.4533 19.7461 17.2546C19.6799 16.9236 18.8853 15.1357 18.6866 14.7384C18.5542 14.5398 18.4217 14.4736 18.2231 14.4073H18.0244C17.892 14.4073 17.6934 14.4073 17.4947 14.4073C17.3623 14.4073 17.2299 14.4736 17.0974 14.4736L17.0312 14.5398C16.8988 14.606 16.7663 14.7384 16.6339 14.8046C16.5015 14.9371 16.4353 15.0695 16.3028 15.2019C15.8393 15.7979 15.5744 16.5263 15.5744 17.2546C15.5744 17.7844 15.7069 18.3141 15.9055 18.7776L15.9717 18.9763C16.5677 20.2344 17.3623 21.3601 18.4217 22.3533L18.6866 22.6182C18.8853 22.8168 19.0839 22.9492 19.2163 23.1479C20.6069 24.3398 22.1961 25.2006 23.9839 25.6641C24.1826 25.7303 24.4474 25.7303 24.6461 25.7965C24.8447 25.7965 25.1096 25.7965 25.3082 25.7965C25.6393 25.7965 26.0366 25.6641 26.3015 25.5317C26.5001 25.3992 26.6326 25.3992 26.765 25.2668L26.8974 25.1344C27.0299 25.0019 27.1623 24.9357 27.2947 24.8033C27.4272 24.6709 27.5596 24.5384 27.6258 24.406C27.7582 24.1411 27.8244 23.8101 27.8907 23.479C27.8907 23.3465 27.8907 23.1479 27.8907 23.0155C27.8907 23.0155 27.8244 22.9492 27.692 22.883Z" fill="white"/>
</svg>
