<svg width="42" height="42" viewBox="0 0 42 42" fill="none" xmlns="http://www.w3.org/2000/svg">
<rect y="0.0263672" width="41.984" height="41.9473" rx="20.9736" fill="white"/>
<path fill-rule="evenodd" clip-rule="evenodd" d="M19.1384 0.0768937C17.9683 0.190999 16.5299 0.457519 15.3705 0.775226C12.6399 1.52335 9.90527 2.9484 7.66187 4.7923C6.62057 5.64813 5.0445 7.27915 4.28662 8.28543C2.66248 10.4415 1.45842 12.8736 0.767639 15.3934C0.3784 16.8131 0.168236 18.0707 0.0543766 19.6608C-0.0182211 20.6754 -0.0181391 21.3122 0.0547047 22.3268C0.167006 23.8895 0.316138 24.8179 0.69258 26.2965C1.06517 27.7599 1.43915 28.7505 2.20573 30.3043C2.93343 31.7793 3.78951 33.1095 4.79267 34.3239C5.56392 35.2575 6.95944 36.6412 7.86695 37.372C9.90354 39.0121 12.6059 40.4187 15.0984 41.1362C18.7663 42.1918 22.588 42.2503 26.2537 41.3068C26.8693 41.1483 27.7367 40.8844 28.1814 40.7203C29.226 40.3349 30.8111 39.5748 31.8102 38.9802C33.0241 38.2579 34.462 37.1374 35.6131 36.0166C37.3943 34.2825 38.6838 32.5131 39.7765 30.3043C40.5437 28.7533 40.9179 27.7633 41.2913 26.2965C41.6678 24.8179 41.8169 23.8895 41.9292 22.3268C42.0022 21.3108 42.0022 20.6768 41.9292 19.6608C41.8169 18.0981 41.6678 17.1697 41.2913 15.691C40.9223 14.2415 40.547 13.249 39.7759 11.6832C38.672 9.44166 37.3585 7.65305 35.4989 5.85903C34.4109 4.80936 33.366 3.98199 32.182 3.2328C31.2524 2.64455 29.2295 1.64968 28.1814 1.26544C27.0709 0.858159 25.3444 0.424378 24.0681 0.231933C22.8383 0.0465422 20.2767 -0.0340125 19.1384 0.0768937ZM23.2888 15.6024C23.8301 15.8123 24.436 16.303 24.7839 16.8132C25.3239 17.6052 25.3396 17.7577 25.3396 22.2042V26.1692L25.1382 26.3705L24.9369 26.5719H19.2493C12.901 26.5719 12.9571 26.5763 12.1355 26.0162C11.625 25.668 11.1342 25.0618 10.9253 24.5211C10.798 24.1916 10.7799 23.7095 10.7568 20.0312C10.7385 17.1257 10.7577 15.8602 10.8219 15.7404C10.8719 15.6469 10.9935 15.5372 11.092 15.4966C11.194 15.4546 13.7838 15.4307 17.0955 15.441C22.4131 15.4577 22.9518 15.4717 23.2888 15.6024ZM31.1181 15.598C31.2305 15.7583 31.2457 16.4026 31.2447 20.9506C31.2441 23.7942 31.222 26.2012 31.1957 26.2997C31.1331 26.533 30.9534 26.5962 30.7136 26.469C30.6077 26.4128 29.504 25.6286 28.2609 24.7262L26.0007 23.0856L26.0188 20.9978L26.0369 18.91L28.0877 17.4056C30.2649 15.8084 30.8253 15.4157 30.9272 15.4157C30.962 15.4157 31.0479 15.4977 31.1181 15.598Z" fill="#2D8CFF"/>
</svg>
