<svg width="26" height="26" viewBox="0 0 26 26" fill="none" xmlns="http://www.w3.org/2000/svg">
<path fill-rule="evenodd" clip-rule="evenodd" d="M10.5 2C15.044 2 18.7558 5.56617 18.9884 10.0518L20.9857 9.94822C20.6983 4.40527 16.1139 0 10.5 0C4.701 0 -9.53674e-06 4.70101 -9.53674e-06 10.5C-9.53674e-06 12.1999 0.404678 13.8081 1.12383 15.2308C1.12334 15.2488 1.13164 15.3485 1.09277 15.585C1.05206 15.8328 0.985737 16.0999 0.90696 16.4172C0.880697 16.523 0.85305 16.6344 0.824509 16.7524C0.720802 17.1814 0.605207 17.7018 0.590546 18.1927C0.576338 18.6684 0.649103 19.3362 1.15663 19.8436C1.66404 20.3508 2.33174 20.4236 2.80747 20.4094C3.2984 20.3948 3.81879 20.2793 4.24788 20.1756C4.36623 20.147 4.47783 20.1193 4.58384 20.093C4.90088 20.0143 5.16784 19.9481 5.41539 19.9074C5.65161 19.8686 5.75135 19.8768 5.76942 19.8763C7.03693 20.5169 8.45187 20.9081 9.94821 20.9857L10.0518 18.9884C8.82588 18.9248 7.67022 18.6019 6.63698 18.0737C6.09706 17.7977 5.47256 17.8711 5.09104 17.9339C4.75594 17.9889 4.3783 18.0829 4.04387 18.166C3.9514 18.189 3.86223 18.2112 3.77818 18.2315C3.34692 18.3357 3.0086 18.4025 2.7479 18.4103C2.67929 18.4123 2.62917 18.4099 2.59375 18.4061C2.59006 18.3708 2.58761 18.3208 2.58965 18.2524C2.59744 17.9918 2.66426 17.6536 2.76851 17.2224C2.7888 17.1385 2.81095 17.0495 2.83391 16.9572C2.91716 16.6226 3.01119 16.2447 3.0663 15.9094C3.12905 15.5275 3.20232 14.9031 2.92626 14.363C2.33433 13.2051 1.99999 11.893 1.99999 10.5C1.99999 5.80558 5.80557 2 10.5 2ZM2.60768 18.4791C2.6077 18.4791 2.60749 18.4786 2.60702 18.4775L2.60768 18.4791ZM2.52233 18.3928C2.52134 18.3924 2.52081 18.3922 2.5208 18.3922L2.52233 18.3928Z" fill="white"/>
<path fill-rule="evenodd" clip-rule="evenodd" d="M17.5 11C13.9101 11 11 13.9101 11 17.5C11 21.0899 13.9101 24 17.5 24C18.5657 24 19.5687 23.7443 20.4539 23.2918C20.947 23.0397 21.5026 23.1115 21.8044 23.1611C22.0783 23.2061 22.3885 23.2833 22.6532 23.3492C22.7247 23.3669 22.7929 23.3839 22.8561 23.3992C23.1391 23.4676 23.3581 23.512 23.5282 23.5282C23.512 23.3582 23.4675 23.1394 23.3992 22.8566C23.3839 22.7935 23.367 22.7254 23.3492 22.654C23.2833 22.3892 23.206 22.0789 23.161 21.8047C23.1113 21.5027 23.0397 20.9471 23.2918 20.4539C23.7443 19.5687 24 18.5657 24 17.5C24 13.9101 21.0899 11 17.5 11ZM23.5291 23.7411C23.529 23.741 23.5294 23.7388 23.5305 23.7349C23.5297 23.7393 23.5292 23.7412 23.5291 23.7411ZM23.7349 23.5304C23.7388 23.5293 23.741 23.5289 23.7411 23.529C23.7412 23.5291 23.7393 23.5297 23.7349 23.5304ZM9 17.5C9 12.8056 12.8056 9 17.5 9C22.1944 9 26 12.8056 26 17.5C26 18.8578 25.6809 20.1438 25.1128 21.2846C25.1138 21.3169 25.1179 21.3791 25.1345 21.4804C25.1651 21.6669 25.2147 21.8665 25.2761 22.1139C25.2972 22.1988 25.3196 22.2892 25.3432 22.3867C25.425 22.7251 25.5214 23.1551 25.5337 23.5669C25.5455 23.9635 25.4872 24.5635 25.0252 25.0254C24.5632 25.4872 23.9634 25.5455 23.5668 25.5336C23.155 25.5214 22.725 25.425 22.3864 25.3433C22.2888 25.3197 22.1981 25.2972 22.1132 25.2761C21.866 25.2148 21.6664 25.1653 21.48 25.1346C21.3789 25.118 21.3167 25.1139 21.2844 25.1129C20.1436 25.681 18.8577 26 17.5 26C12.8056 26 9 22.1944 9 17.5Z" fill="white"/>
</svg>
