<svg width="17" height="22" viewBox="0 0 17 22" fill="none" xmlns="http://www.w3.org/2000/svg">
<path d="M0.230469 4.92188C0.230469 3.74609 0.567708 2.76628 1.24219 1.98242C1.92578 1.19857 2.88281 0.806641 4.11328 0.806641C5.36198 0.806641 6.32357 1.19857 6.99805 1.98242C7.67253 2.75716 8.00977 3.73698 8.00977 4.92188V5.97461C8.00977 7.15951 7.67253 8.13932 6.99805 8.91406C6.32357 9.67969 5.37109 10.0625 4.14062 10.0625C2.90104 10.0625 1.93945 9.67513 1.25586 8.90039C0.572266 8.12565 0.230469 7.15039 0.230469 5.97461V4.92188ZM2.77344 5.97461C2.77344 6.49414 2.89193 6.9362 3.12891 7.30078C3.36589 7.65625 3.70312 7.83398 4.14062 7.83398C4.5599 7.83398 4.88346 7.65625 5.11133 7.30078C5.34831 6.94531 5.4668 6.50326 5.4668 5.97461V4.92188C5.4668 4.39323 5.34831 3.94661 5.11133 3.58203C4.87435 3.21745 4.54167 3.03516 4.11328 3.03516C3.6849 3.03516 3.35221 3.22201 3.11523 3.5957C2.88737 3.96029 2.77344 4.40234 2.77344 4.92188V5.97461ZM8.57031 16.1191C8.57031 14.9525 8.91211 13.9772 9.5957 13.1934C10.2793 12.4095 11.2363 12.0176 12.4668 12.0176C13.7155 12.0176 14.6771 12.4095 15.3516 13.1934C16.026 13.9681 16.3633 14.9434 16.3633 16.1191V17.1719C16.3633 18.3568 16.026 19.3366 15.3516 20.1113C14.6771 20.8861 13.7246 21.2734 12.4941 21.2734C11.2546 21.2734 10.2884 20.8861 9.5957 20.1113C8.91211 19.3366 8.57031 18.3568 8.57031 17.1719V16.1191ZM11.127 17.1719C11.127 17.6823 11.2546 18.1243 11.5098 18.498C11.7741 18.8717 12.1022 19.054 12.4941 19.0449C12.9954 19.054 13.3418 18.89 13.5332 18.5527C13.7246 18.2155 13.8203 17.7552 13.8203 17.1719V16.1191C13.8203 15.5996 13.7018 15.1576 13.4648 14.793C13.2279 14.4284 12.8952 14.2461 12.4668 14.2461C12.0293 14.2461 11.6966 14.4284 11.4688 14.793C11.2409 15.1576 11.127 15.5996 11.127 16.1191V17.1719ZM4.70117 19.4961L2.86914 18.4844L11.0859 2.92578L12.918 3.9375L4.70117 19.4961Z" fill="white"/>
</svg>
