<svg width="32" height="32" viewBox="0 0 32 32" fill="none" xmlns="http://www.w3.org/2000/svg">
<path d="M13.7696 10.7696C13.3109 11.2283 13 11.9505 13 13C13 13.5523 12.5523 14 12 14C11.4477 14 11 13.5523 11 13C11 11.5495 11.4391 10.2717 12.3554 9.35539C13.2717 8.43908 14.5495 8 16 8C17.4505 8 18.7283 8.43908 19.6446 9.35539C20.5609 10.2717 21 11.5495 21 13C21 14.4505 20.5609 15.7283 19.6446 16.6446C18.9455 17.3437 18.0361 17.765 17 17.9255V18.9995C17 19.5518 16.5523 20 16 20C15.4477 20 15 19.5523 15 19V17C15 16.4477 15.4477 16 16 16C17.0495 16 17.7717 15.6891 18.2304 15.2304C18.6891 14.7717 19 14.0495 19 13C19 11.9505 18.6891 11.2283 18.2304 10.7696C17.7717 10.3109 17.0495 10 16 10C14.9505 10 14.2283 10.3109 13.7696 10.7696Z" fill="white"/>
<path d="M17 22C17 21.4477 16.5523 21 16 21C15.4477 21 15 21.4477 15 22V23C15 23.5523 15.4477 24 16 24C16.5523 24 17 23.5523 17 23V22Z" fill="white"/>
<path fill-rule="evenodd" clip-rule="evenodd" d="M3 16C3 8.8203 8.8203 3 16 3C23.1797 3 29 8.8203 29 16C29 23.1797 23.1797 29 16 29C8.8203 29 3 23.1797 3 16ZM16 5C9.92487 5 5 9.92487 5 16C5 22.0751 9.92487 27 16 27C22.0751 27 27 22.0751 27 16C27 9.92487 22.0751 5 16 5Z" fill="white"/>
</svg>
