<svg width="25" height="25" viewBox="0 0 25 25" fill="none" xmlns="http://www.w3.org/2000/svg">
<path fill-rule="evenodd" clip-rule="evenodd" d="M8.9128 1.73391C8.10105 0.665136 6.62211 0.222304 5.34608 0.875806C4.71862 1.19715 3.95773 1.62556 3.27309 2.12189C0.475911 4.14965 0.269902 7.97542 2.13447 10.6363C3.38158 12.416 5.19403 14.6793 7.75588 17.2411C10.3175 19.8028 12.5806 21.6151 14.3602 22.8622C17.0233 24.7283 20.8457 24.5236 22.8752 21.7239C23.3829 21.0235 23.811 20.2656 24.1301 19.6419C24.7821 18.3678 24.334 16.8976 23.2722 16.0911L20.9781 14.3488C19.5252 13.2453 17.4806 13.3844 16.1906 14.6744C16.0638 14.8012 15.8583 14.8012 15.7315 14.6744L10.3226 9.26553C10.1958 9.13876 10.1958 8.93323 10.3226 8.80646C11.6127 7.51639 11.7517 5.47178 10.6483 4.01889L8.9128 1.73391ZM6.25775 2.65594C6.59084 2.48534 7.03837 2.57265 7.3201 2.94358L9.05556 5.22856C9.55426 5.88518 9.4914 6.80921 8.90837 7.39224C8.00056 8.30006 8.00056 9.77192 8.90837 10.6797L14.3173 16.0887C15.2251 16.9965 16.697 16.9965 17.6048 16.0887C18.1878 15.5056 19.1118 15.4428 19.7685 15.9415L22.0625 17.6838C22.4319 17.9643 22.5164 18.4051 22.3497 18.7309C22.0572 19.3025 21.6818 19.9626 21.2558 20.5501C19.9849 22.3034 17.4502 22.5853 15.508 21.2243C13.822 20.0429 11.6483 18.3051 9.1701 15.8269C6.69166 13.3485 4.95383 11.1746 3.77237 9.48857C2.41314 7.54885 2.69585 5.01059 4.44695 3.74116C5.01635 3.32838 5.67786 2.95291 6.25775 2.65594Z" fill="white"/>
<path d="M16.1644 1.01361C15.6196 0.922811 15.1044 1.29083 15.0136 1.8356C14.9228 2.38037 15.2908 2.8956 15.8356 2.98639L16.1991 3.04697C19.1494 3.53869 21.4613 5.85062 21.953 8.80094L22.0136 9.1644C22.1044 9.70917 22.6196 10.0772 23.1644 9.98639C23.7092 9.8956 24.0772 9.38037 23.9864 8.8356L23.9258 8.47214C23.2936 4.67888 20.3211 1.70639 16.5279 1.07418L16.1644 1.01361Z" fill="white"/>
<path d="M15.1414 5.01005C14.5947 4.93195 14.0882 5.31184 14.0101 5.85858C13.932 6.40531 14.3119 6.91184 14.8586 6.98995L15.3887 7.06569C16.7087 7.25425 17.7458 8.29134 17.9343 9.61127L18.0101 10.1414C18.0882 10.6882 18.5947 11.0681 19.1414 10.9899C19.6882 10.9118 20.0681 10.4053 19.99 9.85858L19.9142 9.32843C19.6 7.12854 17.8715 5.40006 15.6716 5.08579L15.1414 5.01005Z" fill="white"/>
</svg>
