<svg width="25" height="25" viewBox="0 0 25 25" fill="none" xmlns="http://www.w3.org/2000/svg">
<path d="M6 14C7.10457 14 8 13.1046 8 12C8 10.8954 7.10457 10 6 10C4.89543 10 4 10.8954 4 12C4 13.1046 4.89543 14 6 14Z" fill="white"/>
<path d="M14 12C14 13.1046 13.1046 14 12 14C10.8954 14 10 13.1046 10 12C10 10.8954 10.8954 10 12 10C13.1046 10 14 10.8954 14 12Z" fill="white"/>
<path d="M18 14C19.1046 14 20 13.1046 20 12C20 10.8954 19.1046 10 18 10C16.8954 10 16 10.8954 16 12C16 13.1046 16.8954 14 18 14Z" fill="white"/>
<path fill-rule="evenodd" clip-rule="evenodd" d="M12 0C5.37258 0 0 5.37258 0 12C0 18.6274 5.37258 24 12 24C13.929 24 15.7544 23.5441 17.3716 22.7333L17.3914 22.7348L17.4071 22.7363C17.5222 22.7486 17.6946 22.7866 17.9341 22.8612C18.3199 22.9814 18.7573 23.1555 19.2488 23.3512C19.3771 23.4023 19.5091 23.4548 19.6448 23.5083C20.2614 23.751 20.9605 24.0141 21.5876 24.1407C21.9031 24.2043 22.2561 24.2457 22.6042 24.2082C22.9596 24.17 23.3727 24.0414 23.707 23.7072C24.0413 23.373 24.17 22.9598 24.2083 22.6044C24.2458 22.2563 24.2044 21.9032 24.1407 21.5878C24.0141 20.9608 23.7509 20.2617 23.5081 19.6453C23.4548 19.5099 23.4024 19.3782 23.3514 19.2502C23.1556 18.7585 22.9812 18.3207 22.861 17.9346C22.7865 17.6952 22.7484 17.5227 22.7362 17.4076L22.7346 17.3914L22.7332 17.3718C23.544 15.7546 24 13.9291 24 12C24 5.37258 18.6274 0 12 0ZM2 12C2 6.47715 6.47715 2 12 2C17.5228 2 22 6.47715 22 12C22 13.6386 21.6067 15.1823 20.9102 16.5448C20.7138 16.929 20.7174 17.3355 20.7473 17.6182C20.7795 17.9214 20.8602 18.236 20.9515 18.5293C21.0971 18.9969 21.3097 19.5301 21.5087 20.0292L21.5104 20.0335L21.5109 20.0348C21.5575 20.1516 21.6033 20.2665 21.6473 20.3782C21.8953 21.0078 22.0933 21.5529 22.1802 21.9835C22.199 22.0766 22.2103 22.1537 22.2164 22.2164C22.1536 22.2102 22.0764 22.199 21.9831 22.1802C21.5524 22.0932 21.0072 21.8953 20.3776 21.6473C20.2638 21.6025 20.1468 21.5559 20.0278 21.5084C19.529 21.3096 18.9961 21.0972 18.5288 20.9517C18.2357 20.8604 17.9211 20.7797 17.6181 20.7475C17.3356 20.7175 16.9291 20.7138 16.5448 20.9102C15.1823 21.6067 13.6386 22 12 22C6.47715 22 2 17.5228 2 12ZM22.7323 17.3341C22.7327 17.331 22.7328 17.3294 22.7327 17.3293C22.7327 17.3293 22.7326 17.33 22.7325 17.3315L22.7323 17.3341Z" fill="white"/>
</svg>
