<svg width="42" height="42" viewBox="0 0 42 42" fill="none" xmlns="http://www.w3.org/2000/svg">
<path d="M38.5574 13.4263H21.3442C19.8233 13.4263 18.5901 14.6594 18.5901 16.1804V38.2132C18.5901 39.7341 19.8233 40.9673 21.3442 40.9673H38.5574C40.0783 40.9673 41.3115 39.7341 41.3115 38.2132V16.1804C41.3115 14.6594 40.0783 13.4263 38.5574 13.4263ZM24.0983 38.2132H21.3442V35.4591H24.0983V38.2132ZM24.0983 33.3935H21.3442V30.6394H24.0983V33.3935ZM24.0983 28.5738H21.3442V25.8197H24.0983V28.5738ZM28.918 38.2132H26.1639V35.4591H28.918V38.2132ZM28.918 33.3935H26.1639V30.6394H28.918V33.3935ZM28.918 28.5738H26.1639V25.8197H28.918V28.5738ZM33.7377 38.2132H30.9836V35.4591H33.7377V38.2132ZM33.7377 33.3935H30.9836V30.6394H33.7377V33.3935ZM33.7377 28.5738H30.9836V25.8197H33.7377V28.5738ZM38.5574 38.2132H35.8033V30.6394H38.5574V38.2132ZM38.5574 28.5738H35.8033V25.8197H38.5574V28.5738ZM38.5574 21.6886H21.3442V16.1804H38.5574V21.6886Z" fill="black"/>
<path d="M21.3443 9.29501H29.6066L21.3443 1.03271V9.29501Z" fill="black"/>
<path d="M38.5574 12.7377H30.2951V9.29506C30.2951 9.1125 30.2225 8.93735 30.0934 8.80825L21.8311 0.545954C21.702 0.416856 21.5268 0.344238 21.3443 0.344238H0.688525C0.30829 0.344238 0 0.652528 0 1.03276V36.836C0 37.2163 0.30829 37.5246 0.688525 37.5246H17.9016V38.2131C17.904 40.1136 19.4438 41.6534 21.3443 41.6557H38.5574C40.4579 41.6534 41.9976 40.1136 42 38.2131V16.1803C41.9976 14.2798 40.4579 12.74 38.5574 12.7377ZM27.9444 8.60653H22.0328V2.6949L27.9444 8.60653ZM17.9016 16.1803V36.1475H1.37705V1.72129H20.6557V9.29506C20.6557 9.67529 20.964 9.98358 21.3443 9.98358H28.918V12.7377H21.3443C19.4438 12.74 17.904 14.2798 17.9016 16.1803ZM40.623 38.2131C40.623 39.3538 39.6981 40.2787 38.5574 40.2787H21.3443C20.2036 40.2787 19.2787 39.3538 19.2787 38.2131V16.1803C19.2787 15.0396 20.2036 14.1147 21.3443 14.1147H38.5574C39.6981 14.1147 40.623 15.0396 40.623 16.1803V38.2131Z" fill="#343433"/>
<path d="M38.5574 15.4917H21.3443C20.964 15.4917 20.6557 15.8 20.6557 16.1802V21.6884C20.6557 22.0687 20.964 22.3769 21.3443 22.3769H38.5574C38.9376 22.3769 39.2459 22.0687 39.2459 21.6884V16.1802C39.2459 15.8 38.9376 15.4917 38.5574 15.4917ZM37.8688 20.9999H22.0328V16.8687H37.8688V20.9999Z" fill="#343433"/>
<path d="M24.0984 25.1311H21.3443C20.964 25.1311 20.6557 25.4394 20.6557 25.8196V28.5737C20.6557 28.954 20.964 29.2623 21.3443 29.2623H24.0984C24.4786 29.2623 24.7869 28.954 24.7869 28.5737V25.8196C24.7869 25.4394 24.4786 25.1311 24.0984 25.1311ZM23.4098 27.8852H22.0328V26.5082H23.4098V27.8852Z" fill="#343433"/>
<path d="M28.918 25.1311H26.1639C25.7837 25.1311 25.4754 25.4394 25.4754 25.8196V28.5737C25.4754 28.954 25.7837 29.2623 26.1639 29.2623H28.918C29.2983 29.2623 29.6066 28.954 29.6066 28.5737V25.8196C29.6066 25.4394 29.2983 25.1311 28.918 25.1311ZM28.2295 27.8852H26.8525V26.5082H28.2295V27.8852Z" fill="#343433"/>
<path d="M33.7377 25.1311H30.9836C30.6034 25.1311 30.2951 25.4394 30.2951 25.8196V28.5737C30.2951 28.954 30.6034 29.2623 30.9836 29.2623H33.7377C34.1179 29.2623 34.4262 28.954 34.4262 28.5737V25.8196C34.4262 25.4394 34.1179 25.1311 33.7377 25.1311ZM33.0492 27.8852H31.6721V26.5082H33.0492V27.8852Z" fill="#343433"/>
<path d="M24.0984 29.9507H21.3443C20.964 29.9507 20.6557 30.259 20.6557 30.6392V33.3933C20.6557 33.7735 20.964 34.0818 21.3443 34.0818H24.0984C24.4786 34.0818 24.7869 33.7735 24.7869 33.3933V30.6392C24.7869 30.259 24.4786 29.9507 24.0984 29.9507ZM23.4098 32.7048H22.0328V31.3277H23.4098V32.7048Z" fill="#343433"/>
<path d="M28.918 29.9507H26.1639C25.7837 29.9507 25.4754 30.259 25.4754 30.6392V33.3933C25.4754 33.7735 25.7837 34.0818 26.1639 34.0818H28.918C29.2983 34.0818 29.6066 33.7735 29.6066 33.3933V30.6392C29.6066 30.259 29.2983 29.9507 28.918 29.9507ZM28.2295 32.7048H26.8525V31.3277H28.2295V32.7048Z" fill="#343433"/>
<path d="M33.7377 29.9507H30.9836C30.6034 29.9507 30.2951 30.259 30.2951 30.6392V33.3933C30.2951 33.7735 30.6034 34.0818 30.9836 34.0818H33.7377C34.1179 34.0818 34.4262 33.7735 34.4262 33.3933V30.6392C34.4262 30.259 34.1179 29.9507 33.7377 29.9507ZM33.0492 32.7048H31.6721V31.3277H33.0492V32.7048Z" fill="#343433"/>
<path d="M24.0984 34.7705H21.3443C20.964 34.7705 20.6557 35.0788 20.6557 35.459V38.2131C20.6557 38.5934 20.964 38.9016 21.3443 38.9016H24.0984C24.4786 38.9016 24.7869 38.5934 24.7869 38.2131V35.459C24.7869 35.0788 24.4786 34.7705 24.0984 34.7705ZM23.4098 37.5246H22.0328V36.1476H23.4098V37.5246Z" fill="#343433"/>
<path d="M28.918 34.7705H26.1639C25.7837 34.7705 25.4754 35.0788 25.4754 35.459V38.2131C25.4754 38.5934 25.7837 38.9016 26.1639 38.9016H28.918C29.2983 38.9016 29.6066 38.5934 29.6066 38.2131V35.459C29.6066 35.0788 29.2983 34.7705 28.918 34.7705ZM28.2295 37.5246H26.8525V36.1476H28.2295V37.5246Z" fill="#343433"/>
<path d="M33.7377 34.7705H30.9836C30.6034 34.7705 30.2951 35.0788 30.2951 35.459V38.2131C30.2951 38.5934 30.6034 38.9016 30.9836 38.9016H33.7377C34.1179 38.9016 34.4262 38.5934 34.4262 38.2131V35.459C34.4262 35.0788 34.1179 34.7705 33.7377 34.7705ZM33.0492 37.5246H31.6721V36.1476H33.0492V37.5246Z" fill="#343433"/>
<path d="M38.5574 25.1311H35.8033C35.423 25.1311 35.1147 25.4394 35.1147 25.8196V28.5737C35.1147 28.954 35.423 29.2623 35.8033 29.2623H38.5574C38.9376 29.2623 39.2459 28.954 39.2459 28.5737V25.8196C39.2459 25.4394 38.9376 25.1311 38.5574 25.1311ZM37.8688 27.8852H36.4918V26.5082H37.8688V27.8852Z" fill="#343433"/>
<path d="M38.5574 29.9507H35.8033C35.423 29.9507 35.1147 30.259 35.1147 30.6392V38.213C35.1147 38.5932 35.423 38.9015 35.8033 38.9015H38.5574C38.9376 38.9015 39.2459 38.5932 39.2459 38.213V30.6392C39.2459 30.259 38.9376 29.9507 38.5574 29.9507ZM37.8688 37.5245H36.4918V31.3277H37.8688V37.5245Z" fill="#343433"/>
<path d="M4.13113 9.98364H5.50819V11.3607H4.13113V9.98364Z" fill="#343433"/>
<path d="M6.88525 9.98364H16.5246V11.3607H6.88525V9.98364Z" fill="#343433"/>
<path d="M4.13113 14.1147H5.50819V15.4918H4.13113V14.1147Z" fill="#343433"/>
<path d="M6.88525 14.1147H16.5246V15.4918H6.88525V14.1147Z" fill="#343433"/>
<path d="M4.13113 18.2458H5.50819V19.6229H4.13113V18.2458Z" fill="#343433"/>
<path d="M6.88525 18.2458H16.5246V19.6229H6.88525V18.2458Z" fill="#343433"/>
<path d="M4.13113 22.377H5.50819V23.754H4.13113V22.377Z" fill="#343433"/>
<path d="M6.88525 22.377H16.5246V23.754H6.88525V22.377Z" fill="#343433"/>
<path d="M4.13113 26.5081H5.50819V27.8851H4.13113V26.5081Z" fill="#343433"/>
<path d="M6.88525 26.5081H16.5246V27.8851H6.88525V26.5081Z" fill="#343433"/>
<path d="M4.13113 30.6394H5.50819V32.0164H4.13113V30.6394Z" fill="#343433"/>
<path d="M6.88525 30.6394H16.5246V32.0164H6.88525V30.6394Z" fill="#343433"/>
</svg>
