<svg width="45" height="32" viewBox="0 0 45 32" fill="none" xmlns="http://www.w3.org/2000/svg">
<path d="M43.3125 4.5H39.9375C39.4378 4.5 38.989 4.71734 38.68 5.0625H37.0259L34.837 2.51016L34.8258 2.4975C34.1395 1.71294 33.2934 1.0842 32.3443 0.653447C31.3951 0.222698 30.3648 -9.9255e-05 29.3224 3.31708e-08H26.0494C24.8013 3.31708e-08 23.5955 0.347344 22.5555 0.985078C21.3982 0.346641 20.0862 3.31708e-08 18.7467 3.31708e-08H16.489C14.4567 3.31708e-08 12.4391 0.788836 10.9202 2.30625L8.16469 5.0625H6.31997C6.01102 4.71734 5.56221 4.5 5.0625 4.5H1.6875C0.755508 4.5 0 5.25551 0 6.1875V23.0625C0 23.9945 0.755508 24.75 1.6875 24.75H5.0625C5.7972 24.75 6.42192 24.2803 6.6536 23.625H7.97555L13.2736 28.376C15.0695 30.2358 17.4871 31.5 20.0644 31.5C21.2168 31.5 22.3341 31.2293 23.3058 30.7315C25.0591 30.7664 26.8988 30.0025 28.1623 28.523C29.5463 28.1307 30.7992 27.2977 31.7285 26.0902C33.2043 25.7807 34.5922 24.9306 35.4846 23.625H38.3464C38.5781 24.2803 39.2028 24.75 39.9375 24.75H43.3125C44.2445 24.75 45 23.9945 45 23.0625V6.1875C45 5.25551 44.2445 4.5 43.3125 4.5ZM3.375 22.5C2.75365 22.5 2.25 21.9964 2.25 21.375C2.25 20.7537 2.75365 20.25 3.375 20.25C3.99635 20.25 4.5 20.7537 4.5 21.375C4.5 21.9964 3.99635 22.5 3.375 22.5ZM32.3803 22.095C31.301 23.1001 29.7869 22.8915 29.5713 22.6575C29.6707 23.5984 28.2876 25.5433 26.1204 25.3913C25.7308 26.6937 24.1363 27.7696 22.5 27.2018C21.8749 27.8269 20.9208 28.125 20.0644 28.125C18.3101 28.125 16.7055 27.1027 15.6248 25.9516L9.90844 20.8252C9.49585 20.4548 8.96098 20.25 8.40656 20.25H6.75V8.4375H8.63086C9.22711 8.4375 9.79945 8.20055 10.2213 7.77867L13.3066 4.69336C13.7245 4.2754 14.2207 3.94386 14.7667 3.71765C15.3127 3.49145 15.898 3.37501 16.489 3.375H18.7467C19.1545 3.375 19.556 3.43055 19.942 3.53672L16.8996 7.0868C15.243 9.01898 15.2234 11.8413 16.8532 13.7974C19.1305 16.5302 23.2782 16.5556 25.6057 13.9366L27.4324 11.8216L32.5259 18.5625C33.4709 19.5891 33.2958 21.2435 32.3803 22.095ZM38.25 20.25H36.5303C36.5376 18.8254 36.0522 17.4846 35.1408 16.425L29.6508 9.16031C29.9679 8.49164 29.8153 7.66758 29.2282 7.15992C28.5198 6.54884 27.4542 6.63265 26.8474 7.3343L23.0766 11.7021C22.1043 12.7856 20.389 12.767 19.4456 11.6367C19.1689 11.3062 19.0186 10.8881 19.0216 10.4571C19.0245 10.026 19.1805 9.61003 19.4618 9.28336L23.5343 4.53164C23.8452 4.16878 24.231 3.87751 24.6652 3.67786C25.0993 3.4782 25.5715 3.37488 26.0494 3.375H29.3224C30.4552 3.375 31.533 3.86297 32.2805 4.71375L35.4741 8.4375H38.25V20.25ZM41.625 22.5C41.0036 22.5 40.5 21.9964 40.5 21.375C40.5 20.7537 41.0036 20.25 41.625 20.25C42.2464 20.25 42.75 20.7537 42.75 21.375C42.75 21.9964 42.2464 22.5 41.625 22.5Z" fill="black"/>
</svg>
