<svg width="43" height="42" viewBox="0 0 43 42" fill="none" xmlns="http://www.w3.org/2000/svg">
<g clip-path="url(#clip0_17_22017)">
<path d="M9.7667 7.69995H11.1667C11.9398 7.69995 12.5667 7.0731 12.5667 6.29995V2.09995C12.5667 1.32681 11.9398 0.699951 11.1667 0.699951H9.7667C8.99355 0.699951 8.3667 1.32681 8.3667 2.09995V6.29995C8.3667 7.0731 8.99355 7.69995 9.7667 7.69995Z" fill="#343433"/>
<path d="M32.1667 7.69995H33.5667C34.3399 7.69995 34.9667 7.0731 34.9667 6.29995V2.09995C34.9667 1.32681 34.3399 0.699951 33.5667 0.699951H32.1667C31.3936 0.699951 30.7667 1.32681 30.7667 2.09995V6.29995C30.7667 7.0731 31.3936 7.69995 32.1667 7.69995Z" fill="#343433"/>
<path d="M39.1667 3.5H34.9667V6.3C34.9667 7.07314 34.3398 7.7 33.5667 7.7H32.1667C31.3936 7.7 30.7667 7.07314 30.7667 6.3V3.5H12.5667V6.3C12.5667 7.07314 11.9398 7.7 11.1667 7.7H9.7667C8.99355 7.7 8.3667 7.07314 8.3667 6.3V3.5H4.1667C2.62041 3.5 1.3667 4.75371 1.3667 6.3V11.9H41.9667V6.3C41.9667 4.75371 40.713 3.5 39.1667 3.5Z" fill="#343433"/>
<path d="M15.3667 18.8999H19.5667V23.0999H15.3667V18.8999Z" fill="#343433"/>
<path d="M23.7667 18.8999H27.9667V23.0999H23.7667V18.8999Z" fill="#343433"/>
<path d="M32.1667 18.8999H36.3667V23.0999H32.1667V18.8999Z" fill="#343433"/>
<path d="M6.96667 25.8999H11.1667V30.0999H6.96667V25.8999Z" fill="#343433"/>
<path d="M15.3667 25.8999H19.5667V30.0999H15.3667V25.8999Z" fill="#343433"/>
<path d="M23.7667 25.8999H27.9667V30.0999H23.7667V25.8999Z" fill="#343433"/>
<path d="M32.1667 25.8999H36.3667V30.0999H32.1667V25.8999Z" fill="#343433"/>
<path d="M6.96667 32.8999H11.1667V37.0999H6.96667V32.8999Z" fill="#343433"/>
<path d="M15.3667 32.8999H19.5667V37.0999H15.3667V32.8999Z" fill="#343433"/>
<path d="M23.7667 32.8999H27.9667V37.0999H23.7667V32.8999Z" fill="#343433"/>
<path d="M39.1667 2.8H35.6667V2.1C35.6667 0.940283 34.7265 0 33.5667 0H32.1667C31.007 0 30.0667 0.940283 30.0667 2.1V2.8H13.2667V2.1C13.2667 0.940283 12.3265 0 11.1667 0H9.76675C8.60703 0 7.66675 0.940283 7.66675 2.1V2.8H4.16675C2.23457 2.80239 0.669141 4.36782 0.666748 6.3V38.5C0.669141 40.4322 2.23457 41.9976 4.16675 42H39.1667C41.0989 41.9976 42.6644 40.4322 42.6667 38.5V6.3C42.6644 4.36782 41.0989 2.80239 39.1667 2.8ZM31.4667 2.1C31.4667 1.71343 31.7802 1.4 32.1667 1.4H33.5667C33.9533 1.4 34.2667 1.71343 34.2667 2.1V6.3C34.2667 6.68657 33.9533 7 33.5667 7H32.1667C31.7802 7 31.4667 6.68657 31.4667 6.3V2.1ZM9.06675 2.1C9.06675 1.71343 9.38018 1.4 9.76675 1.4H11.1667C11.5533 1.4 11.8667 1.71343 11.8667 2.1V6.3C11.8667 6.68657 11.5533 7 11.1667 7H9.76675C9.38018 7 9.06675 6.68657 9.06675 6.3V2.1ZM2.06675 6.3C2.06675 5.14028 3.00703 4.2 4.16675 4.2H7.66675V6.3C7.66675 7.45972 8.60703 8.4 9.76675 8.4H11.1667C12.3265 8.4 13.2667 7.45972 13.2667 6.3V4.2H30.0667V6.3C30.0667 7.45972 31.007 8.4 32.1667 8.4H33.5667C34.7265 8.4 35.6667 7.45972 35.6667 6.3V4.2H39.1667C40.3265 4.2 41.2667 5.14028 41.2667 6.3V11.2H2.06675V6.3ZM41.2667 38.5C41.2667 39.6597 40.3265 40.6 39.1667 40.6H4.16675C3.00703 40.6 2.06675 39.6597 2.06675 38.5V12.6H41.2667V38.5Z" fill="black"/>
<path d="M20.2667 18.2H14.6667V23.7999H20.2667V18.2ZM18.8667 22.4H16.0667V19.6H18.8667V22.4Z" fill="black"/>
<path d="M28.6668 18.2H23.0668V23.7999H28.6668V18.2ZM27.2668 22.4H24.4668V19.6H27.2668V22.4Z" fill="black"/>
<path d="M37.0668 18.2H31.4668V23.7999H37.0668V18.2ZM35.6668 22.4H32.8668V19.6H35.6668V22.4Z" fill="black"/>
<path d="M11.8667 25.2H6.26672V30.8H11.8667V25.2ZM10.4667 29.4H7.66672V26.6H10.4667V29.4Z" fill="black"/>
<path d="M20.2667 25.2H14.6667V30.8H20.2667V25.2ZM18.8667 29.4H16.0667V26.6H18.8667V29.4Z" fill="black"/>
<path d="M28.6668 25.2H23.0668V30.8H28.6668V25.2ZM27.2668 29.4H24.4668V26.6H27.2668V29.4Z" fill="black"/>
<path d="M37.0668 25.2H31.4668V30.8H37.0668V25.2ZM35.6668 29.4H32.8668V26.6H35.6668V29.4Z" fill="black"/>
<path d="M11.8667 32.2H6.26672V37.7999H11.8667V32.2ZM10.4667 36.4H7.66672V33.6H10.4667V36.4Z" fill="black"/>
<path d="M20.2667 32.2H14.6667V37.7999H20.2667V32.2ZM18.8667 36.4H16.0667V33.6H18.8667V36.4Z" fill="black"/>
<path d="M28.6668 32.2H23.0668V37.7999H28.6668V32.2ZM27.2668 36.4H24.4668V33.6H27.2668V36.4Z" fill="black"/>
</g>
<defs>
<clipPath id="clip0_17_22017">
<rect width="42" height="42" fill="white" transform="translate(0.666748)"/>
</clipPath>
</defs>
</svg>
