<svg width="34" height="34" viewBox="0 0 34 34" fill="none" xmlns="http://www.w3.org/2000/svg">
<path fill-rule="evenodd" clip-rule="evenodd" d="M32.9268 0.740006C33.476 1.28918 33.476 2.17957 32.9268 2.72874L21.9888 13.6668C22.5379 14.216 22.5379 15.1064 21.9888 15.6556L20.7156 16.9287C22.5668 20.2696 22.4272 24.4691 20.1402 27.7263L16.9581 32.2583C16.0495 33.5524 14.1932 33.7136 13.0751 32.5955L9.0656 28.586L9.06195 28.5824L9.05831 28.5787L5.08816 24.6086L5.08447 24.6049L5.08079 24.6012L1.07129 20.5917C-0.0468051 19.4736 0.114392 17.6173 1.40849 16.7087L5.94057 13.5266C9.19775 11.2397 13.3972 11.1 16.7381 12.9513L18.0113 11.6781C18.5605 11.1289 19.4508 11.1289 20 11.6781L30.9381 0.740006C31.4872 0.190831 32.3776 0.190831 32.9268 0.740006ZM10.9286 14.539C13.1133 14.2811 15.3716 15.0046 17.0169 16.6499C18.6622 18.2953 19.3857 20.5535 19.1278 22.7383L10.9286 14.539ZM7.97589 15.5546C7.83402 15.6406 7.69421 15.7319 7.55672 15.8284L3.28486 18.8278L6.07884 21.6218L8.06758 19.6331C8.61675 19.0839 9.50714 19.0839 10.0563 19.6331C10.6055 20.1822 10.6055 21.0726 10.0563 21.6218L8.06758 23.6105L10.0563 25.5993L12.0451 23.6105C12.5942 23.0614 13.4846 23.0614 14.0338 23.6105C14.583 24.1597 14.583 25.0501 14.0338 25.5993L12.0451 27.588L14.839 30.382L17.8384 26.1101C17.935 25.9726 18.0262 25.8328 18.1122 25.6909C18.0775 25.6623 18.0438 25.6317 18.0113 25.5992L8.06758 15.6555C8.03509 15.623 8.00453 15.5894 7.97589 15.5546Z" fill="black"/>
</svg>
