<svg width="50" height="32" viewBox="0 0 50 32" fill="none" xmlns="http://www.w3.org/2000/svg">
<g clip-path="url(#clip0_8_707)">
<rect width="50" height="32" rx="3" fill="white"/>
<g clip-path="url(#clip1_8_707)">
<path fill-rule="evenodd" clip-rule="evenodd" d="M34.7739 15.4209V21.9996H38.4521V18.1011H42.6207C44.3751 18.0882 45.8655 16.9745 46.4274 15.4209H34.7739Z" fill="#37A72E"/>
<path fill-rule="evenodd" clip-rule="evenodd" d="M34.2835 10C34.4977 12.689 37.0579 14.8122 40.1847 14.8122C40.1949 14.8122 46.5802 14.8122 46.5802 14.8122C46.6274 14.5656 46.6521 14.311 46.6521 14.0508C46.6521 11.8233 44.8435 10.0165 42.6061 10.0001L34.2835 10Z" fill="url(#paint0_linear_8_707)"/>
<path fill-rule="evenodd" clip-rule="evenodd" d="M28.8398 14.7482L28.8427 14.7421L28.8431 14.7422C28.8808 14.6749 28.953 14.6294 29.036 14.6294C29.1558 14.6294 29.2533 14.7243 29.2566 14.8426L29.2567 14.8426V21.9391H32.9348V10H29.2567C28.7902 10.0154 28.2632 10.3555 28.0673 10.773L25.1402 17.0104C25.133 17.0359 25.1217 17.0597 25.1071 17.0811L25.1061 17.0831L25.1057 17.083C25.0614 17.1464 24.9877 17.1878 24.9042 17.1878C24.7687 17.1878 24.659 17.0787 24.659 16.9442V10H20.9808V21.9391H24.659V21.9377C25.1203 21.9138 25.6349 21.5775 25.828 21.1661L28.8322 14.7643C28.8345 14.7588 28.8371 14.7534 28.8398 14.7482Z" fill="#37A72E"/>
<path fill-rule="evenodd" clip-rule="evenodd" d="M15.1052 14.9523L12.9555 21.9391H10.3095L8.15844 14.948C8.1377 14.8361 8.03897 14.7513 7.92031 14.7513C7.78657 14.7513 7.67816 14.859 7.67816 14.9919C7.67816 14.9929 7.67817 14.9939 7.67818 14.9949L7.67816 21.9391H4V10H7.15709H8.09733C8.77413 10 9.48336 10.5219 9.68113 11.1647L11.4712 16.9826C11.5603 17.272 11.7048 17.2717 11.7937 16.9826L13.5838 11.1647C13.7817 10.5214 14.4907 10 15.1676 10L16.1076 10H19.2644V21.9391H15.5862V14.9949C15.5862 14.9939 15.5862 14.9929 15.5862 14.9919C15.5862 14.859 15.4778 14.7513 15.3441 14.7513C15.2239 14.7513 15.1242 14.8382 15.1052 14.9523Z" fill="#37A72E"/>
</g>
</g>
<defs>
<linearGradient id="paint0_linear_8_707" x1="34.2835" y1="12.4061" x2="46.6521" y2="12.4061" gradientUnits="userSpaceOnUse">
<stop stop-color="#00A0E5"/>
<stop offset="1" stop-color="#0077C3"/>
</linearGradient>
<clipPath id="clip0_8_707">
<rect width="50" height="32" fill="white"/>
</clipPath>
<clipPath id="clip1_8_707">
<rect width="42.6667" height="12" fill="white" transform="translate(4 10)"/>
</clipPath>
</defs>
</svg>
