<svg width="50" height="32" viewBox="0 0 50 32" fill="none" xmlns="http://www.w3.org/2000/svg">
<g clip-path="url(#clip0_8_718)">
<rect width="50" height="32" rx="3" fill="#299D37"/>
<path fill-rule="evenodd" clip-rule="evenodd" d="M38.1526 23.06H39.0664C38.9025 23.1516 38.6832 23.3253 38.4079 23.5808L37.4942 24.5143L37.9954 25.2316C38.5195 25.9784 38.978 26.5484 39.3711 26.9414H38.0641C37.9004 26.5613 37.6874 26.175 37.4254 25.7819L36.8359 24.8975L37.347 24.249C37.8053 23.6529 38.074 23.2565 38.1526 23.06ZM36.7671 23.4924V26.4992L36.8064 26.7252C36.8325 26.7645 36.8917 26.7974 36.9831 26.8235V26.9414H35.7154V26.8235L35.8923 26.7252C35.9185 26.6859 35.9316 26.6107 35.9316 26.4992V23.4924L35.8923 23.2762C35.8662 23.2304 35.807 23.2009 35.7154 23.1877V23.06H36.9831V23.1877C36.8915 23.2007 36.8323 23.2304 36.8064 23.2762L36.7671 23.4924ZM34.8804 23.4924V26.4992L34.9197 26.7252L35.0966 26.8235V26.9414H33.8192V26.8235C33.9107 26.7974 33.9764 26.7645 34.0157 26.7252L34.045 26.4992V24.9368H32.5514V26.4992L32.5907 26.7252C32.617 26.7645 32.6758 26.7974 32.7673 26.8235V26.9414H31.4801V26.8235C31.585 26.7974 31.6503 26.7645 31.6766 26.7252L31.7159 26.4992V23.4924L31.6766 23.2762C31.6503 23.2304 31.585 23.2009 31.4801 23.1877V23.06H32.7673V23.1877C32.6756 23.2007 32.6168 23.2304 32.5907 23.2762L32.5514 23.4924V24.6813H34.045V23.4924L34.0157 23.2762C33.9764 23.2304 33.9107 23.2009 33.8192 23.1877V23.06H35.0966V23.1877C35.0048 23.2007 34.9458 23.2304 34.9197 23.2762L34.8804 23.4924ZM28.6996 23.1877V23.06H29.8196C29.8326 23.2369 29.8788 23.4269 29.9572 23.6299L30.7826 25.949C30.9202 26.3552 31.0544 26.6859 31.1855 26.9414H30.2029L29.7805 25.5461H28.5324L28.2671 26.4697L28.1884 26.9414H27.4809L28.7385 24.0328C28.8631 23.725 28.9252 23.5153 28.9252 23.4039C28.9256 23.2795 28.8502 23.2074 28.6996 23.1877ZM29.1615 23.7085L28.6308 25.2709H29.6921L29.1615 23.7085ZM27.1765 23.9051H26.9601L26.911 23.738C26.8585 23.548 26.7799 23.4236 26.6752 23.3646L26.1347 23.2958H25.6141C25.496 23.2958 25.4176 23.3155 25.3783 23.3548C25.3457 23.3876 25.3292 23.4464 25.3292 23.5317V24.4553H25.5453C26.1742 24.4553 26.6099 24.5176 26.8523 24.642C27.1995 24.8124 27.3731 25.1465 27.3731 25.6443C27.3731 26.1292 27.2355 26.4762 26.9601 26.6859C26.7178 26.8563 26.3413 26.9414 25.8301 26.9414H24.2777V26.8235L24.4642 26.7252L24.4937 26.4992V23.4924L24.4642 23.2762C24.4381 23.2304 24.376 23.2009 24.2777 23.1877V23.06H27.1765V23.9051ZM25.3292 24.701V26.3617C25.3292 26.4927 25.3522 26.5778 25.3979 26.6171C25.4506 26.6696 25.5422 26.6958 25.6731 26.6958H25.791C26.0402 26.6958 26.2234 26.6105 26.3415 26.4403C26.4462 26.283 26.4987 26.0309 26.4987 25.6836C26.4987 25.3431 26.4429 25.1007 26.3315 24.9565C26.2135 24.7861 25.994 24.701 25.6731 24.701H25.3292ZM23.9338 24.1704C23.9338 24.6224 23.7963 24.9467 23.5209 25.1432C23.2851 25.3136 22.9184 25.3987 22.4204 25.3987H22.0273V26.4992L22.0666 26.7252C22.0863 26.7645 22.1484 26.7974 22.2531 26.8235V26.9414H20.9757V26.8235L21.1526 26.7252L21.1919 26.4992V23.4924L21.1526 23.2762C21.1264 23.2304 21.0673 23.2009 20.9757 23.1877V23.06H22.5872C23.0261 23.06 23.347 23.1254 23.5502 23.2565C23.8061 23.4269 23.9338 23.7315 23.9338 24.1704ZM22.0865 23.3351C22.0472 23.3613 22.0275 23.4202 22.0275 23.512V25.153H22.4206C22.6629 25.153 22.8333 25.0612 22.9315 24.8779C23.0168 24.7142 23.0593 24.4652 23.0593 24.1311C23.0593 23.5743 22.8266 23.2958 22.3616 23.2958H22.2633L22.0865 23.3351ZM20.3865 23.9051H20.1801L20.131 23.738C20.0656 23.548 19.9836 23.4236 19.8854 23.3646L19.3547 23.2958H18.9224L18.7651 23.3351L18.7258 23.4825V24.6813H19.2368C19.5906 24.6813 19.8231 24.642 19.9345 24.5634V25.0547C19.8233 24.9761 19.5906 24.9368 19.2368 24.9368H18.7258V26.3911C18.7258 26.5091 18.7651 26.591 18.8438 26.6368L19.3351 26.6958H19.4432L19.9738 26.6171C20.0656 26.5582 20.1377 26.4141 20.19 26.1848L20.2293 26.0374H20.4749V26.9414H17.6744V26.8235C17.7727 26.7974 17.835 26.7645 17.8611 26.7252L17.9004 26.4992V23.4924L17.8611 23.2762C17.835 23.2304 17.7727 23.2009 17.6744 23.1877V23.06H20.3865V23.9051ZM17.0357 23.9051H16.8293L16.7802 23.738C16.7213 23.548 16.6393 23.4236 16.5346 23.3646L16.0138 23.2958H15.4733C15.3619 23.2958 15.2833 23.3155 15.2375 23.3548C15.2178 23.3876 15.208 23.4464 15.208 23.5317V24.4553H15.4242C16.0466 24.4553 16.4821 24.5176 16.7311 24.642C17.0717 24.8124 17.2421 25.1465 17.2421 25.6443C17.2421 26.1292 17.1045 26.4762 16.8293 26.6859C16.5935 26.8563 16.2168 26.9414 15.6993 26.9414H14.1369V26.8235C14.2419 26.7974 14.3073 26.7645 14.3335 26.7252L14.3728 26.4992V23.4924L14.3335 23.2762C14.3073 23.2304 14.2419 23.2009 14.1369 23.1877V23.06H17.0357V23.9051ZM13.1248 23.3744C13.0069 23.2893 12.8235 23.2467 12.5745 23.2467C12.1815 23.2467 11.903 23.3908 11.7393 23.6791C11.6017 23.9281 11.5329 24.3341 11.5329 24.8975C11.5329 25.461 11.6082 25.8768 11.7589 26.1455C11.9423 26.4796 12.2567 26.6466 12.7023 26.6466C13.0299 26.6466 13.3542 26.568 13.6751 26.4108L13.793 26.6564C13.4196 26.8856 12.9808 27.0004 12.4763 27.0004C11.2446 27.0004 10.6289 26.3485 10.6289 25.0449C10.6289 23.6759 11.2676 22.9912 12.545 22.9912C13.0364 22.9912 13.4131 23.0502 13.6751 23.1681V23.9738H13.4294L13.3606 23.738C13.3082 23.5743 13.2296 23.4531 13.1248 23.3744ZM15.208 24.701V26.3617C15.208 26.4927 15.2277 26.5778 15.267 26.6171C15.3194 26.6696 15.4144 26.6958 15.5519 26.6958H15.66C16.1317 26.6958 16.3675 26.3583 16.3675 25.6836C16.3675 25.3431 16.3119 25.1007 16.2005 24.9565C16.0761 24.7861 15.8532 24.701 15.5323 24.701H15.208Z" fill="white"/>
<path fill-rule="evenodd" clip-rule="evenodd" d="M29.545 5.93658L30.1877 6.52423L22.0707 11.1888L18.1408 8.91159L18.5081 8.17702L22.0707 10.2154L29.545 5.93658ZM27.9106 5L28.7737 5.44074L22.0707 9.29724L18.9488 7.5159L19.4814 6.87315L22.0707 8.36066L27.9106 5ZM30.757 7.13025L31.2345 7.773L22.0707 13.0435L17.645 10.5093L17.847 9.70125L22.0707 12.1253L30.757 7.13025Z" fill="white"/>
<path fill-rule="evenodd" clip-rule="evenodd" d="M32.0794 9.4991C32.3486 10.2583 32.4834 11.0538 32.4834 11.8865C32.4834 12.7191 32.3486 13.5271 32.0794 14.3105L31.8958 14.8067C31.5163 15.7003 30.9838 16.4962 30.2981 17.1941C29.6002 17.8794 28.8047 18.4061 27.9107 18.7734C26.9683 19.1774 25.9949 19.3794 24.9908 19.3794C23.9745 19.3794 23.0012 19.1771 22.0709 18.7734C21.2015 18.4061 20.4118 17.8794 19.7019 17.1941C19.004 16.4962 18.4715 15.7003 18.1042 14.8067C17.7123 13.8635 17.5165 12.8902 17.5165 11.8865V11.3906L22.0709 13.98L31.6754 8.4707L32.0794 9.4991Z" fill="white"/>
</g>
<defs>
<clipPath id="clip0_8_718">
<rect width="50" height="32" fill="white"/>
</clipPath>
</defs>
</svg>
