<svg width="50" height="32" viewBox="0 0 50 32" fill="none" xmlns="http://www.w3.org/2000/svg">
<g clip-path="url(#clip0_8_719)">
<rect width="50" height="32" rx="3" fill="#0F3560"/>
<path d="M29.3632 23.8644H20.614V8.14062H29.3632V23.8644Z" fill="#FF5F00"/>
<path d="M21.1745 16.001C21.1745 12.8113 22.6679 9.97008 24.9936 8.13906C23.2929 6.80014 21.1465 6.00098 18.8139 6.00098C13.2916 6.00098 8.81519 10.4781 8.81519 16.001C8.81519 21.5239 13.2916 26.001 18.8139 26.001C21.1465 26.001 23.2929 25.2018 24.9936 23.8629C22.6679 22.0319 21.1745 19.1906 21.1745 16.001Z" fill="#EB001B"/>
<path d="M41.1631 16.001C41.1631 21.5239 36.6867 26.001 31.1644 26.001C28.8317 26.001 26.6854 25.2018 24.9841 23.8629C27.3103 22.0319 28.8038 19.1906 28.8038 16.001C28.8038 12.8113 27.3103 9.97008 24.9841 8.13906C26.6854 6.80014 28.8317 6.00098 31.1644 6.00098C36.6867 6.00098 41.1631 10.4781 41.1631 16.001Z" fill="#F79E1B"/>
<path d="M16.3391 16.0641C16.3391 15.6273 16.6254 15.2685 17.0931 15.2685C17.54 15.2685 17.8418 15.6118 17.8418 16.0641C17.8418 16.5164 17.54 16.8597 17.0931 16.8597C16.6254 16.8597 16.3391 16.5009 16.3391 16.0641ZM18.3512 16.0641V14.8216H17.8108V15.1233C17.6394 14.8995 17.3794 14.7591 17.0259 14.7591C16.329 14.7591 15.7827 15.3054 15.7827 16.0641C15.7827 16.8234 16.329 17.3691 17.0259 17.3691C17.3794 17.3691 17.6394 17.2287 17.8108 17.0049V17.3067H18.3512V16.0641ZM36.6109 16.0641C36.6109 15.6273 36.8972 15.2685 37.3649 15.2685C37.8124 15.2685 38.1136 15.6118 38.1136 16.0641C38.1136 16.5164 37.8124 16.8597 37.3649 16.8597C36.8972 16.8597 36.6109 16.5009 36.6109 16.0641ZM38.6235 16.0641V13.8236H38.0826V15.1233C37.9112 14.8995 37.6512 14.7591 37.2977 14.7591C36.6008 14.7591 36.0545 15.3054 36.0545 16.0641C36.0545 16.8234 36.6008 17.3691 37.2977 17.3691C37.6512 17.3691 37.9112 17.2287 38.0826 17.0049V17.3067H38.6235V16.0641ZM25.0584 15.2429C25.4066 15.2429 25.6303 15.4613 25.6874 15.8457H24.3979C24.4556 15.4869 24.6734 15.2429 25.0584 15.2429ZM25.0691 14.7591C24.3407 14.7591 23.8314 15.2893 23.8314 16.0641C23.8314 16.8544 24.3616 17.3691 25.1054 17.3691C25.4798 17.3691 25.8225 17.2757 26.1242 17.021L25.8594 16.6205C25.6511 16.7865 25.3857 16.8806 25.1364 16.8806C24.7883 16.8806 24.4711 16.7193 24.3931 16.2718H26.2385C26.2439 16.2045 26.2492 16.1367 26.2492 16.0641C26.2439 15.2893 25.7654 14.7591 25.0691 14.7591ZM31.5937 16.0641C31.5937 15.6273 31.88 15.2685 32.3477 15.2685C32.7946 15.2685 33.0963 15.6118 33.0963 16.0641C33.0963 16.5164 32.7946 16.8597 32.3477 16.8597C31.88 16.8597 31.5937 16.5009 31.5937 16.0641ZM33.6057 16.0641V14.8216H33.0654V15.1233C32.8934 14.8995 32.6339 14.7591 32.2805 14.7591C31.5836 14.7591 31.0373 15.3054 31.0373 16.0641C31.0373 16.8234 31.5836 17.3691 32.2805 17.3691C32.6339 17.3691 32.8934 17.2287 33.0654 17.0049V17.3067H33.6057V16.0641ZM28.5421 16.0641C28.5421 16.8181 29.067 17.3691 29.868 17.3691C30.2423 17.3691 30.4916 17.2858 30.7618 17.0728L30.5023 16.636C30.2994 16.7818 30.0864 16.8597 29.8519 16.8597C29.4205 16.8544 29.1033 16.5426 29.1033 16.0641C29.1033 15.5857 29.4205 15.2738 29.8519 15.2685C30.0864 15.2685 30.2994 15.3464 30.5023 15.4922L30.7618 15.0554C30.4916 14.8424 30.2423 14.7591 29.868 14.7591C29.067 14.7591 28.5421 15.3101 28.5421 16.0641ZM35.5088 14.7591C35.197 14.7591 34.9941 14.9049 34.8536 15.1233V14.8216H34.3181V17.3067H34.859V15.9135C34.859 15.5023 35.0357 15.2738 35.3892 15.2738C35.4987 15.2738 35.613 15.2893 35.7272 15.3363L35.8939 14.8269C35.7742 14.7799 35.6183 14.7591 35.5088 14.7591ZM21.0237 15.0191C20.7637 14.8477 20.4054 14.7591 20.0103 14.7591C19.3807 14.7591 18.9754 15.0608 18.9754 15.5547C18.9754 15.96 19.2771 16.2099 19.8329 16.2879L20.0882 16.3242C20.3846 16.3658 20.5244 16.4438 20.5244 16.5842C20.5244 16.7764 20.3269 16.8859 19.9579 16.8859C19.5836 16.8859 19.3134 16.7663 19.1313 16.6259L18.8766 17.0466C19.173 17.265 19.5473 17.3691 19.9525 17.3691C20.6702 17.3691 21.0862 17.0311 21.0862 16.558C21.0862 16.1212 20.7589 15.8927 20.218 15.8148L19.9633 15.7779C19.7294 15.7469 19.5419 15.7005 19.5419 15.5339C19.5419 15.3518 19.7187 15.2429 20.015 15.2429C20.3322 15.2429 20.6393 15.3625 20.7898 15.4559L21.0237 15.0191ZM27.9958 14.7591C27.684 14.7591 27.481 14.9049 27.3412 15.1233V14.8216H26.8056V17.3067H27.346V15.9135C27.346 15.5023 27.5227 15.2738 27.8762 15.2738C27.9857 15.2738 28.0999 15.2893 28.2142 15.3363L28.3808 14.8269C28.2612 14.7799 28.1053 14.7591 27.9958 14.7591ZM23.3844 14.8216H22.5007V14.0676H21.9544V14.8216H21.4504V15.3155H21.9544V16.4491C21.9544 17.0258 22.1782 17.3691 22.8173 17.3691C23.0518 17.3691 23.322 17.2965 23.4933 17.1769L23.3374 16.7139C23.1762 16.8074 22.9994 16.8544 22.859 16.8544C22.5888 16.8544 22.5007 16.6878 22.5007 16.4384V15.3155H23.3844V14.8216ZM15.3049 17.3067V15.7469C15.3049 15.1596 14.9306 14.7644 14.3271 14.7591C14.01 14.7537 13.6827 14.8525 13.4535 15.2012C13.2822 14.9257 13.012 14.7591 12.6323 14.7591C12.3669 14.7591 12.1075 14.837 11.9045 15.128V14.8216H11.3636V17.3067H11.9093V15.929C11.9093 15.4976 12.1485 15.2685 12.5181 15.2685C12.8769 15.2685 13.0584 15.5023 13.0584 15.9237V17.3067H13.6047V15.929C13.6047 15.4976 13.854 15.2685 14.2129 15.2685C14.5818 15.2685 14.7586 15.5023 14.7586 15.9237V17.3067H15.3049Z" fill="white"/>
</g>
<defs>
<clipPath id="clip0_8_719">
<rect width="50" height="32" fill="white"/>
</clipPath>
</defs>
</svg>
