<svg width="50" height="32" viewBox="0 0 50 32" fill="none" xmlns="http://www.w3.org/2000/svg">
<rect width="50" height="32" rx="3" fill="#5485EC"/>
<path d="M23.9714 16.827V21.2502H22.5682V10.3269H26.2898C26.734 10.3176 27.1757 10.3964 27.5893 10.5587C28.0029 10.721 28.3803 10.9636 28.6996 11.2726C29.0222 11.5627 29.279 11.9186 29.4526 12.3162C29.6262 12.7138 29.7127 13.144 29.7063 13.5778C29.7155 14.014 29.6304 14.447 29.4566 14.8472C29.2829 15.2473 29.0246 15.6052 28.6996 15.8962C28.0489 16.5168 27.2456 16.8268 26.2898 16.8262H23.9714V16.827ZM23.9714 11.6717V15.4848H26.3246C26.5826 15.4925 26.8393 15.4462 27.0784 15.3489C27.3175 15.2517 27.5336 15.1056 27.713 14.9201C27.8915 14.7466 28.0333 14.539 28.1302 14.3098C28.2271 14.0805 28.277 13.8341 28.277 13.5853C28.277 13.3364 28.2271 13.09 28.1302 12.8607C28.0333 12.6315 27.8915 12.4239 27.713 12.2505C27.5359 12.061 27.3205 11.9113 27.0811 11.8114C26.8418 11.7115 26.5839 11.6636 26.3246 11.6709H23.9714V11.6717Z" fill="white"/>
<path d="M32.9399 13.5322C33.977 13.5322 34.7957 13.8094 35.3959 14.3637C35.9962 14.918 36.296 15.678 36.2954 16.6437V21.2499H34.9532V20.2128H34.8922C34.3111 21.0669 33.5383 21.494 32.5738 21.494C31.7505 21.494 31.0616 21.2499 30.5073 20.7619C30.2413 20.5379 30.0286 20.2573 29.8848 19.9407C29.7409 19.624 29.6696 19.2793 29.6759 18.9316C29.6759 18.1582 29.9681 17.5432 30.5527 17.0865C31.1372 16.6298 31.9175 16.4008 32.8937 16.3997C33.7269 16.3997 34.4131 16.5522 34.9523 16.8573V16.5365C34.9539 16.2995 34.9027 16.065 34.8025 15.8502C34.7022 15.6354 34.5554 15.4456 34.3727 15.2945C34.0017 14.9597 33.5181 14.7771 33.0183 14.7829C32.2345 14.7829 31.6142 15.1135 31.1575 15.7748L29.9216 14.9965C30.6015 14.0203 31.6075 13.5322 32.9399 13.5322ZM31.1244 18.9621C31.1235 19.1407 31.1652 19.3169 31.2462 19.4761C31.3271 19.6353 31.4449 19.7728 31.5898 19.8772C31.9002 20.1213 32.2854 20.2507 32.6801 20.2433C33.2723 20.2423 33.8399 20.0066 34.2586 19.5879C34.7234 19.1503 34.9558 18.637 34.9558 18.0478C34.5183 17.6992 33.9082 17.5249 33.1255 17.5249C32.5555 17.5249 32.0802 17.6623 31.6996 17.9371C31.3153 18.216 31.1244 18.5551 31.1244 18.9621Z" fill="white"/>
<path d="M44 13.7764L39.3144 24.5446H37.8659L39.6047 20.7768L36.5237 13.7764H38.0489L40.2758 19.1452H40.3063L42.4721 13.7764H44Z" fill="white"/>
<path d="M18.301 15.8736C18.3015 15.446 18.2653 15.0191 18.1929 14.5977H12.275V17.0145H15.6645C15.5951 17.4005 15.4483 17.7685 15.2329 18.0962C15.0175 18.424 14.738 18.7047 14.4112 18.9215V20.4903H16.4341C17.6185 19.3982 18.301 17.7832 18.301 15.8736Z" fill="white"/>
<path d="M12.2751 22.0059C13.9685 22.0059 15.3944 21.4498 16.4342 20.4911L14.4113 18.9223C13.8482 19.304 13.1231 19.5219 12.2751 19.5219C10.6383 19.5219 9.24898 18.4185 8.75219 16.9316H6.66827V18.5484C7.19057 19.5877 7.99147 20.4614 8.98153 21.072C9.9716 21.6825 11.1119 22.0058 12.2751 22.0059Z" fill="white"/>
<path d="M8.75212 16.9319C8.48948 16.1527 8.48948 15.309 8.75212 14.5298V12.9131H6.6682C6.22883 13.7874 6 14.7524 6 15.7309C6 16.7094 6.22883 17.6743 6.6682 18.5486L8.75212 16.9319Z" fill="white"/>
<path d="M12.2751 11.9395C13.17 11.9248 14.0347 12.263 14.6823 12.8807L16.4734 11.0897C15.3377 10.0229 13.8331 9.43729 12.2751 9.45549C11.1119 9.45554 9.9716 9.77889 8.98153 10.3894C7.99147 11 7.19057 11.8737 6.66827 12.913L8.75219 14.5297C9.24898 13.0429 10.6383 11.9395 12.2751 11.9395Z" fill="white"/>
</svg>
