<svg width="18" height="18" viewBox="0 0 18 18" fill="none" xmlns="http://www.w3.org/2000/svg">
<path fill-rule="evenodd" clip-rule="evenodd" d="M8.14238 6.25367C8.53096 5.73001 8.6703 5.17812 8.23083 4.69098C7.24461 3.31099 6.58136 2.45761 6.16533 2.04665C5.37441 1.26535 4.07334 1.37103 3.38834 2.04598C3.02043 2.4085 2.89587 2.53299 2.5181 2.9167C0.413862 5.02207 1.69713 9.47274 5.10854 12.8875C8.51918 16.3015 12.9694 17.5854 15.0781 15.4756C15.4267 15.1396 15.7218 14.8443 15.9546 14.5982C16.6259 13.8887 16.7278 12.645 15.9502 11.8371C15.5515 11.4228 14.7377 10.7916 13.2997 9.76295C12.8593 9.36912 12.337 9.45447 11.8583 9.76857C11.628 9.91966 11.4604 10.0725 11.1439 10.3893L10.5692 10.9643C10.4935 11.04 9.46574 10.5253 8.46803 9.52662C7.46979 8.52739 6.95542 7.49954 7.03076 7.42421L7.60584 6.84881C7.70625 6.74831 7.75425 6.69965 7.81581 6.63495C7.94407 6.50015 8.05026 6.37782 8.14238 6.25367ZM11.6293 12.0249L12.2041 11.4498C12.3783 11.2755 12.4912 11.1683 12.583 11.0944C13.8427 11.999 14.5723 12.5679 14.8703 12.8775C15.0492 13.0634 15.0214 13.4026 14.8659 13.567C14.6506 13.7945 14.371 14.0743 14.0278 14.4053C12.6643 15.7694 9.07192 14.733 6.16885 11.8271C3.26486 8.92023 2.22891 5.32734 3.58215 3.97336C3.95839 3.59123 4.0776 3.47208 4.44027 3.11473C4.57625 2.98075 4.94664 2.95066 5.11206 3.11407C5.43236 3.43047 6.02651 4.19124 6.90053 5.40874C6.85528 5.46492 6.79877 5.5284 6.73 5.60068C6.67952 5.65373 6.63747 5.69635 6.54553 5.78838L5.97102 6.36321C4.99366 7.34049 5.82601 9.00378 7.40773 10.587C8.98836 12.1692 10.6523 13.0025 11.6293 12.0249Z" fill="black"/>
</svg>
