<svg width="21" height="20" viewBox="0 0 21 20" fill="none" xmlns="http://www.w3.org/2000/svg">
<path fill-rule="evenodd" clip-rule="evenodd" d="M9.85664 6.3379C10.3747 5.63969 10.5605 4.90384 9.97456 4.25431C8.65961 2.41433 7.77527 1.27649 7.22057 0.728537C6.16601 -0.313196 4.43124 -0.172285 3.51791 0.727647C3.02736 1.21101 2.86128 1.377 2.35759 1.88861C-0.448062 4.69577 1.26297 10.63 5.81151 15.183C10.359 19.735 16.2927 21.4469 19.1042 18.6338C19.569 18.1858 19.9626 17.792 20.2729 17.464C21.168 16.518 21.3038 14.8597 20.267 13.7824C19.7355 13.2301 18.6504 12.3885 16.7331 11.0169C16.1458 10.4918 15.4495 10.6056 14.8112 11.0244C14.5041 11.2259 14.2806 11.4297 13.8587 11.8521L13.0924 12.6187C12.9915 12.7197 11.6211 12.0334 10.2908 10.7018C8.95984 9.36953 8.27402 7.99906 8.37447 7.89862L9.14124 7.13142C9.27512 6.99742 9.33912 6.93254 9.4212 6.84627C9.59221 6.66654 9.7338 6.50344 9.85664 6.3379ZM14.5059 14.0329L15.2723 13.2661C15.5045 13.0337 15.655 12.8907 15.7774 12.7922C17.4571 13.9984 18.4298 14.7568 18.8272 15.1697C19.0657 15.4176 19.0287 15.8699 18.8213 16.089C18.5343 16.3924 18.1614 16.7655 17.7039 17.2068C15.8858 19.0256 11.096 17.6437 7.22525 13.7691C3.35327 9.89332 1.97201 5.10279 3.77632 3.29748C4.27798 2.78798 4.43692 2.62912 4.92048 2.15265C5.10178 1.97401 5.59564 1.93389 5.8162 2.15176C6.24326 2.57364 7.03546 3.58799 8.20083 5.21133C8.1405 5.28623 8.06515 5.37087 7.97345 5.46724C7.90615 5.53798 7.85008 5.59481 7.7275 5.71751L6.96148 6.48396C5.65833 7.787 6.76814 10.0047 8.8771 12.1157C10.9846 14.2253 13.2031 15.3364 14.5059 14.0329Z" fill="white"/>
</svg>
