<svg width="21" height="21" viewBox="0 0 21 21" fill="none" xmlns="http://www.w3.org/2000/svg">
<path fill-rule="evenodd" clip-rule="evenodd" d="M9.47456 4.25438C10.0605 4.90391 9.87474 5.63976 9.35664 6.33797C9.2338 6.50351 9.09221 6.66661 8.9212 6.84634C8.83912 6.93261 8.77512 6.99748 8.64124 7.13149L7.87447 7.89869C7.77402 7.99913 8.45984 9.3696 9.79083 10.7019C11.1211 12.0335 12.4915 12.7198 12.5924 12.6188L13.3587 11.8521C13.7806 11.4298 14.0041 11.226 14.3112 11.0245C14.9495 10.6057 15.6458 10.4919 16.2331 11.017C18.1504 12.3885 19.2355 13.2302 19.767 13.7825C20.8038 14.8598 20.668 16.518 19.7729 17.464C19.4626 17.7921 19.069 18.1858 18.6042 18.6339C15.7927 21.447 9.85902 19.7351 5.31151 15.1831C0.762969 10.6301 -0.948062 4.69584 1.85759 1.88868C2.36128 1.37707 2.52736 1.21108 3.01791 0.727716C3.93124 -0.172217 5.66601 -0.313127 6.72057 0.728606C7.27527 1.27656 8.15961 2.4144 9.47456 4.25438ZM14.7723 13.2662L14.0059 14.033C12.7031 15.3364 10.4846 14.2254 8.3771 12.1158C6.26814 10.0048 5.15833 7.78707 6.46148 6.48403L7.2275 5.71758C7.35008 5.59488 7.40615 5.53805 7.47345 5.46731C7.56515 5.37094 7.6405 5.2863 7.70083 5.2114C6.53546 3.58806 5.74326 2.57371 5.3162 2.15183C5.09564 1.93396 4.60178 1.97408 4.42048 2.15272C3.93692 2.62918 3.77798 2.78805 3.27632 3.29755C1.47201 5.10286 2.85327 9.89338 6.72525 13.7692C10.596 17.6437 15.3858 19.0257 17.2039 17.2069C17.6614 16.7655 18.0343 16.3925 18.3213 16.0891C18.5287 15.8699 18.5657 15.4176 18.3272 15.1698C17.9298 14.7569 16.9571 13.9985 15.2774 12.7923C15.155 12.8908 15.0045 13.0337 14.7723 13.2662ZM13.2072 8.7071L18.5001 3.41421V7H20.5001V-3.45625e-06H13.5001V2H17.0858L11.793 7.29289L13.2072 8.7071Z" fill="black"/>
</svg>
