<svg width="43" height="46" viewBox="0 0 43 46" fill="none" xmlns="http://www.w3.org/2000/svg">
<path fill-rule="evenodd" clip-rule="evenodd" d="M11.1484 7.74421C5.61336 11.7282 0.983448 15.0816 0.859655 15.1961C0.682271 15.3603 0.635225 15.4765 0.63727 15.7452C0.638661 15.9326 0.684725 16.1444 0.739544 16.2158C0.887474 16.4085 1.16566 16.5359 1.43828 16.5359C1.62835 16.5359 3.78126 15.023 11.5196 9.45137C16.9314 5.5548 21.4022 2.35026 21.4547 2.33005C21.5073 2.30993 23.4158 3.63696 25.6958 5.27907C27.9757 6.92127 29.9131 8.30328 30.0009 8.35032C30.271 8.4949 30.6388 8.44818 30.8828 8.23848L31.1124 8.04113L31.1367 5.86572L31.1609 3.6903H32.7935H34.4261V7.56764C34.4261 11.1418 34.4373 11.4582 34.5692 11.613C34.6479 11.7054 36.2018 12.8509 38.022 14.1584C40.9863 16.2879 41.3645 16.5359 41.6463 16.5359C42.0973 16.5359 42.3625 16.2528 42.3625 15.7714C42.3625 15.5422 42.3098 15.349 42.2194 15.2466C42.1406 15.1575 40.7046 14.1014 39.0284 12.8997L35.9806 10.7147V6.67695V2.63917L35.7688 2.38749L35.557 2.13573H32.7787H30.0004L29.7996 2.3366C29.599 2.53706 29.5987 2.54049 29.5987 4.25453C29.5987 5.19889 29.5711 5.98689 29.5373 6.00554C29.5036 6.02428 27.7474 4.79298 25.6346 3.26942C22.3044 0.867861 21.7546 0.499428 21.5028 0.500001C21.2483 0.500492 19.9628 1.39985 11.1484 7.74421ZM17.6531 8.57418C17.2553 8.64078 16.6258 8.86595 16.2724 9.06812C15.4417 9.54325 14.754 10.4149 14.4609 11.3636C14.269 11.985 14.2478 12.9427 14.4122 13.5603C14.5885 14.2223 15.0141 14.9366 15.5194 15.4186C16.2879 16.1517 17.2522 16.5379 18.3044 16.534C18.9876 16.5314 19.4419 16.4251 20.0892 16.1161C21.1649 15.6028 22.0251 14.4255 22.2354 13.179C22.5133 11.531 21.6661 9.80221 20.1964 9.01887C19.4561 8.62426 18.4278 8.4445 17.6531 8.57418ZM19.044 10.2546C19.6994 10.4532 20.3535 11.1013 20.5856 11.7822C20.7193 12.1745 20.7032 12.9214 20.5515 13.3668C20.3739 13.888 19.8664 14.4362 19.307 14.7109C18.9276 14.8972 18.7315 14.9401 18.2667 14.9383C17.5656 14.9356 17.0787 14.7343 16.5894 14.245C15.6658 13.3213 15.624 11.9269 16.4909 10.9626C17.1947 10.1798 18.0313 9.94777 19.044 10.2546ZM26.9078 10.2834C25.5455 10.6498 24.4314 11.7692 24.0645 13.1404C23.9183 13.687 23.9245 14.5917 24.0786 15.1831C24.332 16.1559 24.9893 17.048 25.8196 17.5455C26.2629 17.8112 26.8638 18.0415 27.3078 18.1158C27.4203 18.1346 26.8847 18.1551 26.1175 18.1612L24.7228 18.1723L24.3993 17.8351C23.6759 17.0807 22.6457 16.6178 21.6905 16.6178H21.141L19.7253 18.0251L18.3096 19.4324L16.8783 18.0158L15.4469 16.5991L14.3135 16.6302C13.2007 16.6608 13.1689 16.6669 12.5733 16.9615C12.2397 17.1266 11.8042 17.4009 11.6056 17.571C11.1321 17.9769 10.6539 18.7274 10.4517 19.3819C10.2965 19.8844 10.2893 20.1525 10.2893 25.4133C10.2893 30.6742 10.2965 30.9423 10.4517 31.4448C10.6426 32.0627 11.1205 32.8341 11.5398 33.2013C11.9435 33.5547 12.5238 33.8863 13.0242 34.0494L13.4394 34.1847L13.4803 39.6449L13.5212 45.1051L13.7508 45.3026L13.9804 45.5H22.3168H30.6532L30.8828 45.3027L31.1124 45.1052L31.1533 42.0912L31.1942 39.0772L32.613 39.0363C33.9817 38.9968 34.0373 38.9886 34.188 38.8022C34.274 38.696 34.3442 38.4999 34.3442 38.3666C34.3442 38.2333 34.197 37.246 34.017 36.1726C33.837 35.0992 33.6897 34.1693 33.6897 34.1062C33.6897 34.0431 33.8806 33.9023 34.1138 33.7934C34.7298 33.5058 35.2811 32.9301 35.6136 32.2273C36.1015 31.1963 36.0977 31.1312 35.2489 25.9861C34.5217 21.5772 34.5 21.4722 34.1795 20.802C33.933 20.2869 33.7132 19.9789 33.289 19.5548C32.8628 19.1286 32.5595 18.9125 32.0418 18.6664C31.654 18.482 31.1275 18.3049 30.826 18.2573C30.5335 18.2113 29.8524 18.1704 29.3123 18.1664L28.3305 18.1593L28.8408 18.0485C30.8571 17.6104 32.2363 15.5637 31.8917 13.5209C31.7515 12.6894 31.3298 11.8657 30.7597 11.3098C30.2121 10.7759 29.6606 10.4562 28.9822 10.2795C28.3874 10.1245 27.4922 10.1262 26.9078 10.2834ZM28.9304 11.9559C29.4564 12.1823 30.0245 12.7899 30.2048 13.3191C30.2765 13.5294 30.3351 13.931 30.3351 14.2115C30.3351 14.6276 30.2858 14.8168 30.0679 15.2376C29.3197 16.6831 27.4516 17.0103 26.2984 15.8978C25.9006 15.5141 25.5937 14.9173 25.5337 14.4113C25.5081 14.1948 25.532 13.8307 25.5868 13.6021C25.8581 12.4712 26.9361 11.6548 28.0485 11.738C28.2983 11.7567 28.6952 11.8547 28.9304 11.9559ZM16.346 19.7678C17.771 21.1863 17.9784 21.3633 18.2154 21.3633C18.362 21.3633 18.5624 21.3225 18.6608 21.2727C18.759 21.223 19.5231 20.5029 20.3587 19.6726L21.8778 18.1628L22.2229 18.2817C22.7324 18.4573 23.1011 18.7337 23.467 19.2145C23.6464 19.4501 23.8752 19.6612 23.9754 19.6836C24.0757 19.706 25.6121 19.7352 27.3896 19.7484C30.5733 19.7721 30.6287 19.7754 31.1124 19.9672C31.4712 20.1096 31.7484 20.3071 32.1426 20.7013C32.5368 21.0954 32.7265 21.3616 32.8475 21.6906C32.9402 21.9424 33.3252 24.05 33.7219 26.477C34.4069 30.6675 34.4268 30.8266 34.3126 31.2057C34.1827 31.6369 33.8581 32.1113 33.5976 32.2508C33.5055 32.3001 33.4165 32.3266 33.3996 32.3097C33.3828 32.293 33.0552 30.3846 32.6715 28.069C32.288 25.7534 31.9352 23.7209 31.8879 23.5524C31.8297 23.346 31.7238 23.2059 31.5633 23.1229C31.2104 22.9404 30.9413 22.9721 30.6525 23.2301C30.4439 23.4165 30.3953 23.5221 30.3983 23.7824C30.4003 23.9594 30.9023 27.0949 31.5139 30.7502C32.1256 34.4055 32.626 37.4129 32.626 37.4333C32.626 37.4537 32.0378 37.4822 31.319 37.4965C30.0858 37.5211 30.0013 37.5332 29.8258 37.7089C29.6404 37.8943 29.6395 37.909 29.5987 40.8999L29.5578 43.9045L27.9419 43.9267L26.3259 43.9489V40.6538V37.3587L26.6969 37.1619C27.1413 36.9261 27.5204 36.513 27.7327 36.0332C27.8777 35.7053 27.8868 35.487 27.8641 32.879L27.8396 30.077L27.5622 29.5655C27.4096 29.2841 27.1217 28.9036 26.9223 28.7198C26.723 28.5361 26.3189 28.273 26.0244 28.1352C25.5451 27.9109 25.3853 27.8804 24.4993 27.8439L23.5096 27.8031L23.9544 27.6893C24.5667 27.5326 25.0037 27.2585 25.4911 26.7252C26.9015 25.182 26.4239 22.68 24.5424 21.7545C24.0257 21.5003 23.9488 21.486 23.0954 21.4863C22.2711 21.4865 22.1535 21.5064 21.7198 21.719C21.1146 22.0157 20.5148 22.6154 20.2177 23.2208C20.0047 23.6548 19.9849 23.7717 19.9849 24.5951C19.9849 25.3958 20.0085 25.5448 20.1985 25.9452C20.316 26.1927 20.5618 26.5636 20.745 26.7693C21.1177 27.1883 21.8893 27.6361 22.4176 27.7403C22.7126 27.7984 22.6458 27.8105 21.9862 27.818C21.5569 27.823 20.9862 27.8841 20.718 27.954C19.7507 28.2059 19.0314 28.7994 18.6064 29.6965L18.3485 30.2407L18.3229 32.7993C18.2919 35.8694 18.3184 36.0246 18.9867 36.6899C19.2207 36.9229 19.5323 37.1765 19.6791 37.2534L19.9459 37.3933L19.9246 40.6489L19.9031 43.9045L17.469 43.9262L15.0349 43.9479V33.7303C15.0349 23.5643 15.034 23.5116 14.8677 23.3001C14.6497 23.023 14.2346 22.9439 13.9017 23.116C13.7627 23.1879 13.6109 23.3176 13.5646 23.4043C13.5097 23.5067 13.4803 25.1206 13.4803 28.0262C13.4803 30.4816 13.4526 32.4906 13.4189 32.4904C13.3117 32.4899 12.7935 32.1549 12.5522 31.9301C12.4243 31.811 12.2217 31.5293 12.1022 31.3043L11.8848 30.8952V25.4133V19.9314L12.106 19.5123C12.3723 19.0073 12.958 18.4718 13.425 18.3064C13.6129 18.2397 13.9864 18.1823 14.255 18.1788L14.7433 18.1723L16.346 19.7678ZM23.6819 23.0865C23.9695 23.1949 24.4173 23.6172 24.5854 23.9385C24.6554 24.0723 24.7154 24.3685 24.7187 24.5968C24.7296 25.3463 24.1751 26.0177 23.3959 26.1982C22.9646 26.2982 22.3399 26.1023 22.0129 25.7644C21.6967 25.4376 21.4986 24.9873 21.4986 24.5951C21.4986 24.243 21.6868 23.7682 21.9321 23.5014C22.3255 23.0734 23.1369 22.881 23.6819 23.0865ZM25.1466 29.5019C25.5887 29.6331 26.0919 30.0795 26.2392 30.471C26.2929 30.6135 26.3259 31.591 26.3259 33.0342V35.367L26.0892 35.6038C25.9389 35.754 25.7277 35.8605 25.5116 35.8951C25.3242 35.9251 25.0902 36.0149 24.9915 36.0947C24.8128 36.2394 24.8122 36.2506 24.7714 40.0722L24.7305 43.9045L23.1145 43.9267L21.4986 43.9489V40.1898V36.4306L21.2868 36.1789C21.1567 36.0243 20.9979 35.9271 20.875 35.9271C20.5319 35.9271 20.1244 35.7058 19.9903 35.4467C19.8836 35.2401 19.8622 34.8396 19.8622 33.0388C19.8622 31.6415 19.8951 30.7805 19.9553 30.6006C20.1523 30.0125 20.5974 29.6077 21.2122 29.4581C21.3472 29.4252 22.1966 29.3946 23.0996 29.3899C24.3263 29.3837 24.8441 29.412 25.1466 29.5019Z" fill="#FCD03E"/>
</svg>
