<svg width="45" height="42" viewBox="0 0 45 42" fill="none" xmlns="http://www.w3.org/2000/svg">
<path fill-rule="evenodd" clip-rule="evenodd" d="M7.98506 0.482614C7.75225 0.698359 7.7511 0.706051 7.7511 2.01458C7.7511 3.27218 7.75995 3.33805 7.95429 3.52055C8.06606 3.62559 8.2849 3.73691 8.4406 3.76812L8.72372 3.82471L8.72098 6.48836L8.71833 9.15202L4.67577 11.8488C1.16779 14.189 0.59616 14.6013 0.352209 14.9662C-0.324911 15.9794 0.00463001 17.3712 1.0693 17.9952C1.58089 18.2949 2.21973 18.3671 2.75325 18.1853C2.98049 18.1078 3.62233 17.7447 4.17965 17.3782C4.73687 17.0118 5.23131 16.7119 5.27835 16.7119C5.33246 16.7119 5.36377 18.8304 5.36377 22.4897C5.36377 27.8828 5.37411 28.2764 5.5185 28.4004C5.60365 28.4736 5.74335 28.5582 5.82903 28.5886C6.07192 28.6748 6.40668 28.4742 6.5088 28.1811C6.57017 28.0052 6.60164 25.8539 6.60164 21.8401V15.7653L14.0952 10.7835C18.2168 8.04349 21.6302 5.77181 21.6807 5.7352C21.7324 5.6978 25.0968 7.88151 29.3732 10.7281L36.9739 15.7875L36.9975 18.1273C37.0105 19.4141 37.0042 20.5113 36.9833 20.5655C36.956 20.6367 36.7897 20.6307 36.3849 20.5439C36.0767 20.4777 35.3669 20.3989 34.8076 20.3687C32.5967 20.2493 30.2775 20.896 28.3727 22.1635C27.4637 22.7683 26.6364 23.528 25.9527 24.3857C25.279 25.2308 24.7996 26.0628 24.3758 27.1225C23.8727 28.3805 23.6464 29.5846 23.6402 31.036C23.6345 32.341 23.7814 33.3034 24.1529 34.3956C24.2745 34.7532 24.3741 35.0985 24.3741 35.163C24.3741 35.2557 24.0523 35.2801 22.8267 35.2801C21.6475 35.2801 21.2795 35.2539 21.2797 35.1696C21.28 35.1089 21.27 31.6571 21.2576 27.4992L21.2352 19.9393L21.0348 19.6171C20.647 18.9934 20.8145 19.0108 15.2092 19.011C9.49369 19.0111 9.73419 18.9822 9.36477 19.7148L9.16582 20.1094V27.6947V35.2801H7.89037H6.61491L6.58617 33.5208C6.56035 31.9386 6.54046 31.7428 6.38899 31.5756C6.19465 31.3611 5.82797 31.3337 5.5796 31.5149C5.42221 31.6299 5.40435 31.789 5.36377 33.4381L5.31956 35.2359L3.66955 35.2801L2.01963 35.3243L1.6801 35.5947C1.49345 35.7434 1.24852 36.0419 1.13596 36.2579C0.975747 36.5653 0.938434 36.7563 0.964341 37.1369C1.00272 37.7019 1.26055 38.1536 1.72741 38.4735L2.03502 38.6843L14.4823 38.7285L26.9298 38.7727L27.2656 39.0913C27.7895 39.5883 28.705 40.1989 29.5604 40.6221C31.0518 41.3598 32.6547 41.7342 34.3213 41.7342C36.0492 41.7342 37.6894 41.3313 39.2568 40.5217C40.2973 39.9843 41.2368 39.277 42.0599 38.4112C43.7433 36.6404 44.7571 34.3861 44.9602 31.9618C45.1937 29.1743 44.3833 26.5181 42.636 24.3435C41.6392 23.1029 40.53 22.2102 39.085 21.4855L38.2381 21.0608L38.2513 18.9115C38.2586 17.7295 38.2819 16.745 38.303 16.7238C38.3243 16.7026 38.8297 17.0067 39.4261 17.3997C40.0226 17.7925 40.6893 18.1607 40.9077 18.2179C41.681 18.4202 42.5061 18.1483 43.0512 17.5114C43.399 17.105 43.5612 16.6472 43.5612 16.0714C43.5612 15.5766 43.3828 15.137 43.0092 14.7116C42.6899 14.3478 37.5909 10.9124 37.2396 10.8242C37.0984 10.7888 36.9343 10.8224 36.7916 10.9159C36.6001 11.0414 36.5704 11.1189 36.5933 11.434L36.6202 11.8046L39.3371 13.6197C40.8314 14.618 42.1134 15.5132 42.1859 15.6092C42.3421 15.8157 42.3617 16.2658 42.2274 16.5605C42.0879 16.8667 41.655 17.095 41.3179 17.0404C41.1429 17.012 37.4921 14.6362 31.6226 10.7311C22.2873 4.52031 22.2041 4.46744 21.7657 4.46859C21.3283 4.46974 21.2223 4.53729 11.8774 10.7676C3.84763 16.1213 2.38454 17.0656 2.12025 17.0656C1.88453 17.0656 1.7366 16.9929 1.50865 16.765C1.28248 16.5388 1.20803 16.3885 1.20803 16.158C1.20803 15.9757 1.28725 15.7509 1.40361 15.6029C1.51122 15.4661 6.09694 12.3656 11.594 8.71275C17.0912 5.05985 21.6364 2.04199 21.6947 2.00618C21.7587 1.96683 24.1085 3.47952 27.6513 5.84078C30.8693 7.98549 33.5573 9.76141 33.6246 9.78731C33.835 9.86804 34.1805 9.73293 34.3242 9.51365C34.6493 9.01744 34.768 9.11019 28.2515 4.76718C22.5912 0.99483 22.134 0.707908 21.7823 0.707908C21.4362 0.707908 21.1401 0.883333 18.3132 2.76323C16.6134 3.89368 15.1928 4.83199 15.1563 4.84844C15.1198 4.86489 15.09 4.64074 15.09 4.35037V3.82232L15.3853 3.76689C15.5477 3.73638 15.7714 3.6148 15.8824 3.49667C16.0521 3.31612 16.0914 3.15599 16.1293 2.49258C16.154 2.05852 16.1456 1.47424 16.1106 1.19422C16.0629 0.812597 15.9903 0.632486 15.8208 0.475452L15.5947 0.265808H11.9068H8.21902L7.98506 0.482614ZM14.8951 1.99079C14.8807 2.30734 14.8391 2.56597 14.8026 2.56552C14.7661 2.56508 13.4232 2.56473 11.8184 2.56473H8.90056V1.99V1.41527H11.9109H14.9212L14.8951 1.99079ZM13.8521 4.76188V5.72114L11.9711 6.97238C10.9366 7.66055 10.0613 8.22361 10.0259 8.22361C9.99052 8.22361 9.9616 7.22888 9.9616 6.01311V3.80261H11.9068H13.8521V4.76188ZM19.9547 27.6981C19.9543 31.771 19.9539 35.1434 19.9536 35.1925C19.9532 35.2516 18.352 35.2739 15.2005 35.2588L10.4479 35.2359L10.4251 27.8528C10.4125 23.7922 10.4214 20.4197 10.4447 20.3585C10.4782 20.2706 11.4811 20.252 15.2212 20.27L19.9551 20.2929L19.9547 27.6981ZM35.9002 21.7079C36.8924 21.881 37.6875 22.1463 38.5833 22.6034C40.8228 23.7462 42.5789 25.8073 43.3226 28.1662C43.6531 29.2145 43.7507 29.8779 43.7502 31.0714C43.7494 32.7262 43.4195 34.0459 42.6403 35.5107C42.1664 36.4016 41.6527 37.0818 40.897 37.819C40.1553 38.5426 39.5411 38.9919 38.6846 39.4375C37.2805 40.168 35.9259 40.4969 34.3213 40.4969C32.7569 40.4969 31.4163 40.18 30.0212 39.4805C27.5886 38.2608 25.7104 35.8654 25.0982 33.2023C24.9976 32.7646 24.8893 32.0882 24.8575 31.6991C24.7883 30.8512 24.9329 29.4368 25.1798 28.5457C25.8948 25.9655 27.8321 23.6573 30.2478 22.5072C31.5808 21.8726 32.7763 21.5961 34.2434 21.583C34.7355 21.5786 35.4811 21.6348 35.9002 21.7079ZM36.3249 25.5318C36.2246 25.6169 35.5083 26.9996 34.7328 28.6044C33.9575 30.2092 32.8414 32.512 32.2527 33.7216C31.664 34.9312 31.1836 36.0055 31.1852 36.109C31.1886 36.3363 31.3367 36.542 31.5966 36.6804C31.8866 36.8348 32.121 36.8055 32.3619 36.5843C32.4838 36.4726 33.6312 34.2217 34.9806 31.4477C36.3016 28.732 37.4188 26.4143 37.4633 26.2973C37.5763 26 37.4333 25.6787 37.1148 25.514C36.7705 25.336 36.5498 25.341 36.3249 25.5318ZM17.7633 26.1761C17.6533 26.2203 17.5239 26.3597 17.476 26.4857C17.4281 26.6118 17.3889 27.0451 17.3889 27.4488C17.3889 28.0574 17.4202 28.2224 17.5722 28.4156C17.7034 28.5826 17.8374 28.6486 18.0448 28.6486C18.5381 28.6486 18.6268 28.4565 18.6268 27.3881C18.6268 26.481 18.6193 26.4451 18.3938 26.2677C18.1389 26.0671 18.0623 26.0561 17.7633 26.1761ZM30.6042 26.2617C29.8061 26.3766 29.3392 26.7403 29.141 27.4015C29.0823 27.5977 29.0566 28.3217 29.0748 29.2684C29.1023 30.6978 29.1198 30.8396 29.3068 31.1402C29.4307 31.3395 29.6704 31.545 29.9258 31.6707C30.268 31.8393 30.4843 31.876 31.1382 31.876C31.8461 31.876 31.9794 31.8492 32.3455 31.634C32.6416 31.4599 32.8151 31.2741 32.9644 30.9709C33.155 30.5839 33.1718 30.4384 33.1718 29.1791C33.1718 28.4254 33.14 27.6586 33.1012 27.4752C32.9144 26.5937 31.8599 26.0812 30.6042 26.2617ZM31.6245 27.5876C31.785 27.7481 31.8013 27.8823 31.8013 29.0367C31.8013 30.1549 31.781 30.3342 31.6333 30.5165C31.5011 30.6798 31.3845 30.7218 31.0859 30.714C30.8078 30.7067 30.6638 30.6513 30.5466 30.5065C30.409 30.3366 30.3866 30.1331 30.3866 29.0534C30.3866 27.912 30.403 27.7802 30.5669 27.6043C30.8062 27.3474 31.3753 27.3384 31.6245 27.5876ZM36.9297 30.7642C36.4022 30.8844 36.1772 31.0076 35.8927 31.3316C35.5081 31.7696 35.4003 32.3831 35.4411 33.9028C35.4712 35.0298 35.4952 35.185 35.6947 35.5442C35.8405 35.8068 36.0494 36.0162 36.3119 36.1632C36.6537 36.3546 36.8187 36.3854 37.5044 36.3854C38.1252 36.3854 38.3767 36.3465 38.6482 36.2085C38.8396 36.1113 39.1181 35.8789 39.2672 35.6922L39.5381 35.3526L39.5675 33.7567C39.5916 32.4519 39.5711 32.093 39.4548 31.7886C39.2883 31.3527 39.0378 31.095 38.6046 30.914C38.2121 30.75 37.3361 30.6717 36.9297 30.7642ZM38.0727 32.1531C38.2365 32.3613 38.256 32.5067 38.256 33.5179C38.256 34.1404 38.2187 34.7478 38.1731 34.8678C38.1221 35.0017 37.9737 35.1244 37.7887 35.1854C37.4687 35.291 37.2479 35.2483 36.996 35.0319C36.8615 34.9165 36.8413 34.727 36.8413 33.5864C36.8413 32.3917 36.8572 32.2579 37.0181 32.097C37.1349 31.9802 37.3128 31.9202 37.5422 31.9202C37.812 31.9202 37.9303 31.9721 38.0727 32.1531ZM25.413 36.9606C25.571 37.2024 25.7004 37.4404 25.7004 37.4896C25.7004 37.5494 21.8915 37.5786 14.1837 37.5777C5.10912 37.5767 2.62009 37.5529 2.44591 37.4652C2.17357 37.3282 2.09992 36.8766 2.31478 36.6617C2.44599 36.5306 3.44567 36.5182 13.792 36.5196L25.1256 36.5212L25.413 36.9606Z" fill="#FCD03E"/>
</svg>
