<svg width="46" height="46" viewBox="0 0 46 46" fill="none" xmlns="http://www.w3.org/2000/svg">
<g clip-path="url(#clip0_121_8015)">
<path d="M34.5136 34.6894H22.2968C22.1321 34.686 21.9753 34.6181 21.8602 34.5002C21.7451 34.3824 21.681 34.224 21.6815 34.0593V30.4706H22.912V33.4589H34.5136V18.8691H27.8708C27.531 18.8691 27.2186 18.6112 27.2186 18.2714V8.08568L25.8003 9.11321C25.7354 9.16019 25.6619 9.19381 25.5839 9.21209C25.5059 9.23038 25.425 9.23297 25.346 9.21972C25.267 9.20647 25.1914 9.17764 25.1236 9.13492C25.0558 9.09219 24.9972 9.03641 24.9512 8.97083C24.857 8.83747 24.8196 8.67216 24.8471 8.51121C24.8747 8.35026 24.965 8.20682 25.0982 8.1124L34.7555 1.20499C34.8601 1.13041 34.9853 1.09033 35.1138 1.09033C35.2422 1.09033 35.3674 1.13041 35.472 1.20499L45.1535 8.11231C45.2597 8.18802 45.3391 8.29551 45.3802 8.41927C45.4214 8.54304 45.4221 8.67667 45.3823 8.80088C45.3426 8.92509 45.2643 9.03345 45.159 9.11031C45.0536 9.18718 44.9266 9.22857 44.7961 9.22852C44.6739 9.22846 44.555 9.18833 44.4578 9.11427L43.0389 8.08841V18.2714C43.0389 18.6112 42.7266 18.8691 42.3868 18.8691H35.744V43.0585C35.7462 43.1371 35.7323 43.2153 35.7033 43.2884C35.6743 43.3615 35.6307 43.4279 35.5752 43.4836C35.5197 43.5393 35.4535 43.5832 35.3805 43.6125C35.3075 43.6419 35.2294 43.656 35.1508 43.6542H15.2655V42.4238H34.5136V34.6894ZM41.8085 7.21038L35.1163 2.46156L28.4491 7.20528V17.6386H30.3827C39.0947 17.6386 39.6663 17.6386 41.8085 17.6386V7.21038Z" fill="#B90000" stroke="#B90000" stroke-width="0.5"/>
<path d="M16.1443 30.4151V26.5543L16.0792 26.6118C15.9714 26.6993 15.8368 26.747 15.6981 26.7469C15.6125 26.747 15.5278 26.7291 15.4496 26.6943C15.3714 26.6596 15.3013 26.6088 15.244 26.5453L13.6005 24.7347C13.544 24.6724 13.5009 24.5992 13.4738 24.5196C13.4467 24.44 13.4362 24.3557 13.443 24.2719C13.4498 24.1881 13.4736 24.1065 13.5131 24.0323C13.5527 23.9581 13.607 23.8928 13.6727 23.8403L21.9126 17.2633C22.0216 17.1763 22.1569 17.1289 22.2964 17.1289C22.4359 17.1289 22.5712 17.1763 22.6802 17.2633L30.9199 23.8403C30.9857 23.8928 31.0399 23.9582 31.0794 24.0324C31.1188 24.1066 31.1427 24.1882 31.1494 24.272C31.1561 24.3558 31.1456 24.4401 31.1185 24.5197C31.0913 24.5993 31.0482 24.6725 30.9917 24.7347L29.3475 26.5453C29.2435 26.6611 29.0991 26.7325 28.944 26.7449C28.7889 26.7573 28.6349 26.7096 28.5139 26.6118L28.4488 26.5543V30.4151C28.4488 30.7549 28.1603 30.998 27.8205 30.998H16.7726C16.4328 30.998 16.1443 30.7549 16.1443 30.4151ZM28.8255 25.2899L29.6402 24.3928L22.2966 18.5311L14.9531 24.3928L15.7678 25.2899L21.912 20.368C22.0212 20.2806 22.1568 20.233 22.2966 20.233C22.4365 20.233 22.5721 20.2806 22.6812 20.368L28.8255 25.2899ZM27.2185 29.7675V25.5686L22.2966 21.6361L17.3748 25.5686V29.7675H27.2185Z" fill="#B90000" stroke="#B90000" stroke-width="0.5"/>
<path d="M0.819342 37.7196L9.05909 31.1426C9.16809 31.0556 9.30343 31.0082 9.44291 31.0082C9.58238 31.0082 9.71772 31.0556 9.82673 31.1426L18.0665 37.7196C18.1322 37.7721 18.1864 37.8374 18.2259 37.9117C18.2654 37.9859 18.2892 38.0675 18.2959 38.1513C18.3026 38.2351 18.2921 38.3194 18.2649 38.399C18.2378 38.4786 18.1946 38.5517 18.1381 38.614L16.4939 40.4245C16.3922 40.5402 16.2496 40.6117 16.0961 40.6242C15.9426 40.6366 15.7903 40.5888 15.6714 40.4911L15.6172 40.4336V44.2944C15.6172 44.6341 15.3067 44.8846 14.9668 44.8846H3.91898C3.83999 44.8873 3.76129 44.8739 3.68758 44.8454C3.61387 44.8169 3.54669 44.7738 3.49005 44.7186C3.43342 44.6635 3.3885 44.5975 3.358 44.5246C3.32749 44.4517 3.31203 44.3734 3.31254 44.2944V40.4337L3.23642 40.4912C3.11359 40.5892 2.95808 40.6368 2.80141 40.6245C2.64474 40.6121 2.49863 40.5407 2.39267 40.4246L0.747889 38.6141C0.691338 38.5519 0.64814 38.4787 0.620958 38.3992C0.593777 38.3196 0.583191 38.2353 0.589853 38.1515C0.596516 38.0677 0.620287 37.9861 0.659697 37.9119C0.699106 37.8376 0.753321 37.7722 0.818991 37.7197L0.819342 37.7196ZM4.543 43.6543H14.3868V39.448L9.46488 35.5156L4.543 39.4481V43.6543ZM2.91404 39.1693L9.0583 34.2474C9.16743 34.16 9.30308 34.1124 9.44291 34.1124C9.58273 34.1124 9.71838 34.16 9.82752 34.2474L15.9718 39.1693L16.7862 38.2722L9.44264 32.4105L2.09965 38.2722L2.91404 39.1693Z" fill="#B90000" stroke="#B90000" stroke-width="0.5"/>
</g>
<defs>
<clipPath id="clip0_121_8015">
<rect width="45" height="45" fill="white" transform="matrix(-1 0 0 1 45.5 0.5)"/>
</clipPath>
</defs>
</svg>
