<svg width="38" height="46" viewBox="0 0 38 46" fill="none" xmlns="http://www.w3.org/2000/svg">
<path d="M36.4133 8.87557L19.6749 0.649557C19.4748 0.551166 19.2549 0.5 19.0319 0.5C18.809 0.5 18.5891 0.551166 18.389 0.649557L1.62402 8.85149C1.37585 8.97124 1.16599 9.15784 1.01806 9.39032C0.870122 9.6228 0.789973 9.89194 0.786621 10.1675V25.8608C0.786621 30.0811 3.53916 35.2508 7.0282 37.6295L18.2031 45.2452C18.4478 45.4112 18.7368 45.5 19.0325 45.5C19.3282 45.5 19.6171 45.4112 19.8618 45.2452L31.0091 37.6305C34.4984 35.2508 37.2136 30.0811 37.2136 25.8608V10.1909C37.2174 9.91859 37.1443 9.65072 37.0028 9.41806C36.8612 9.18539 36.6569 8.99737 36.4133 8.87557ZM34.2827 25.8608C34.2827 29.1009 32.0385 33.3813 29.359 35.2079L19.0288 42.2599L8.67474 35.2077C5.99547 33.3813 3.71753 29.1009 3.71753 25.8608V11.0807L19.0001 3.59637L34.2827 11.1031V25.8608Z" fill="#B90000" stroke="white" stroke-width="0.5"/>
<path d="M12.9757 21.4611C12.6976 21.1896 12.323 21.0396 11.9343 21.0443C11.5457 21.0489 11.1748 21.2078 10.9033 21.4859C10.6317 21.764 10.4818 22.1386 10.4864 22.5273C10.4911 22.9159 10.6499 23.2868 10.9281 23.5584L15.987 28.4976C16.2608 28.7649 16.6282 28.9145 17.0108 28.9145C17.3935 28.9145 17.7609 28.7649 18.0347 28.4976L27.149 19.6002C27.4271 19.3287 27.586 18.9578 27.5906 18.5692C27.5953 18.1805 27.4454 17.8059 27.1739 17.5278C26.9024 17.2497 26.5315 17.0908 26.1429 17.0862C25.7542 17.0815 25.3796 17.2314 25.1015 17.5029L17.0114 25.4009L12.9757 21.4611Z" fill="#B90000" stroke="white" stroke-width="0.5"/>
</svg>
