<svg width="46" height="46" viewBox="0 0 46 46" fill="none" xmlns="http://www.w3.org/2000/svg">
<path d="M8.14054 36.1836C7.30247 36.1836 6.59615 35.5204 6.59615 34.6762V17.0234H6.39547C5.55783 17.0234 4.85107 17.6705 4.85107 18.5147V36.434C4.85107 37.2782 5.55731 37.9414 6.39547 37.9414H8.49479C8.58682 37.3134 8.81436 36.7134 9.16141 36.1836H8.14054Z" fill="#B90000" stroke="#B90000" stroke-width="0.5"/>
<path d="M14.4453 14.4849C14.5488 14.6071 14.6957 14.6836 14.8546 14.6981C15.0134 14.7126 15.1716 14.6639 15.2953 14.5625L19.0566 11.4801C19.1192 11.4292 19.1712 11.3664 19.2096 11.2953C19.248 11.2241 19.2721 11.146 19.2805 11.0654C19.2889 10.9849 19.2814 10.9034 19.2585 10.8258C19.2356 10.7482 19.1976 10.6759 19.1469 10.613C19.0961 10.5502 19.0336 10.4981 18.9628 10.4596C18.892 10.4212 18.8143 10.3973 18.7343 10.3891C18.6543 10.381 18.5735 10.3889 18.4965 10.4123C18.4195 10.4357 18.3479 10.4742 18.2857 10.5256L14.987 13.2289L14.0676 12.1446C14.0158 12.0824 13.9522 12.031 13.8806 11.9936C13.809 11.9562 13.7307 11.9335 13.6503 11.9268C13.5699 11.92 13.489 11.9294 13.4122 11.9543C13.3354 11.9792 13.2643 12.0192 13.2029 12.072C13.1416 12.1248 13.0912 12.1893 13.0547 12.2618C13.0183 12.3342 12.9964 12.4133 12.9904 12.4943C12.9845 12.5754 12.9945 12.6568 13.02 12.7339C13.0454 12.8111 13.0858 12.8823 13.1387 12.9436L14.4453 14.4849Z" fill="#B90000" stroke="#B90000" stroke-width="0.5"/>
<path d="M16.2279 18.8516C19.852 18.8516 22.8005 15.8647 22.8005 12.1934C22.8005 8.522 19.852 5.53503 16.2279 5.53503C12.6038 5.53503 9.65527 8.522 9.65527 12.1934C9.65527 15.8647 12.6038 18.8516 16.2279 18.8516ZM16.2279 6.7655C19.1785 6.7655 21.5789 9.20007 21.5789 12.1934C21.5789 15.1867 19.1785 17.6211 16.2279 17.6211C13.2774 17.6211 10.8768 15.1866 10.8768 12.1934C10.8768 9.20016 13.2773 6.76506 16.2279 6.76506V6.7655Z" fill="#B90000" stroke="#B90000" stroke-width="0.5"/>
<path d="M28.4972 21.5059V18.5147C28.4972 16.992 27.2444 15.793 25.7328 15.793H24.6581V17.0234H25.7328C26.5708 17.0234 27.2757 17.6705 27.2757 18.5147V37.9414H16.5435V39.1719H30.4697C30.6317 39.1719 30.787 39.1071 30.9016 38.9917C31.0161 38.8763 31.0805 38.7198 31.0805 38.5566C31.0805 38.3935 31.0161 38.237 30.9016 38.1216C30.787 38.0062 30.6317 37.9414 30.4697 37.9414H28.4972V29.416H41.149V36.434C41.149 37.2782 40.4428 37.9414 39.6046 37.9414H37.9267C37.7647 37.9414 37.6094 38.0062 37.4948 38.1216C37.3803 38.237 37.316 38.3935 37.316 38.5566C37.316 38.7198 37.3803 38.8763 37.4948 38.9917C37.6094 39.1071 37.7647 39.1719 37.9267 39.1719H39.6046C41.1162 39.1719 42.3706 37.9566 42.3706 36.434V28.8081C42.3706 28.8031 42.3577 28.7981 42.3576 28.7931C42.3576 28.7818 42.3507 28.7705 42.3498 28.7593C42.3491 28.75 42.3451 28.7408 42.344 28.7315C42.3426 28.7209 42.3394 28.7104 42.3376 28.6999C42.3357 28.6893 42.3333 28.6808 42.3312 28.6713C42.3291 28.6618 42.326 28.6515 42.3233 28.6416C42.3206 28.6317 42.3177 28.6227 42.3145 28.6133C42.3114 28.6039 42.3077 28.5942 42.3041 28.5847C42.3004 28.5753 42.2968 28.5665 42.2928 28.5575C42.2888 28.5485 42.2841 28.5391 42.2796 28.53C42.2752 28.5209 42.2709 28.5124 42.2658 28.5036C42.2606 28.4948 42.2556 28.4865 42.2503 28.478C42.245 28.4696 42.2391 28.4605 42.2329 28.4521C42.2267 28.4438 42.2218 28.4368 42.2159 28.4293C42.2101 28.4217 42.2021 28.4117 42.1948 28.4036C42.1914 28.3997 42.1886 28.3957 42.1851 28.3919L36.6971 22.3848C36.4393 22.1053 36.1266 21.8829 35.7789 21.7316C35.4312 21.5803 35.0561 21.5034 34.6774 21.5059H28.4972ZM40.3457 28.1855H28.4972V22.7363H34.6774C34.8867 22.733 35.0943 22.7736 35.2871 22.8557C35.4799 22.9377 35.6536 23.0593 35.7971 23.2128L40.3457 28.1855Z" fill="#B90000" stroke="#B90000" stroke-width="0.5"/>
<path d="M12.7876 34.209C11.9294 34.209 11.0904 34.4654 10.3768 34.9457C9.66319 35.426 9.107 36.1087 8.77856 36.9074C8.45012 37.7061 8.36419 38.585 8.53162 39.4329C8.69906 40.2808 9.11235 41.0596 9.71922 41.6709C10.3261 42.2822 11.0993 42.6985 11.9411 42.8672C12.7828 43.0358 13.6553 42.9493 14.4482 42.6185C15.2412 42.2876 15.9189 41.7274 16.3957 41.0085C16.8725 40.2897 17.127 39.4446 17.127 38.5801C17.1257 37.4212 16.6681 36.3102 15.8546 35.4907C15.0411 34.6713 13.9381 34.2103 12.7876 34.209ZM12.7876 41.7206C12.171 41.7206 11.5682 41.5364 11.0554 41.1913C10.5427 40.8462 10.1431 40.3557 9.90712 39.7819C9.67114 39.208 9.6094 38.5765 9.72971 37.9673C9.85002 37.3581 10.147 36.7985 10.583 36.3593C11.0191 35.92 11.5746 35.6209 12.1794 35.4998C12.7842 35.3786 13.4111 35.4408 13.9808 35.6785C14.5505 35.9162 15.0375 36.3188 15.3801 36.8353C15.7226 37.3517 15.9055 37.959 15.9055 38.5801C15.9045 39.4128 15.5758 40.211 14.9913 40.7998C14.4067 41.3886 13.6142 41.7197 12.7876 41.7206Z" fill="#B90000" stroke="#B90000" stroke-width="0.5"/>
<path d="M34.1983 42.9512C35.0565 42.9512 35.8955 42.6948 36.6091 42.2145C37.3227 41.7342 37.8789 41.0515 38.2074 40.2528C38.5358 39.4541 38.6217 38.5752 38.4543 37.7273C38.2868 36.8794 37.8735 36.1006 37.2667 35.4893C36.6598 34.878 35.8866 34.4617 35.0448 34.293C34.203 34.1244 33.3305 34.211 32.5376 34.5418C31.7447 34.8726 31.067 35.4329 30.5902 36.1517C30.1134 36.8706 29.8589 37.7157 29.8589 38.5802C29.8602 39.7391 30.3178 40.8501 31.1313 41.6695C31.9448 42.4889 33.0478 42.9499 34.1983 42.9512ZM34.1983 35.4396C34.8149 35.4396 35.4177 35.6238 35.9305 35.9689C36.4432 36.314 36.8428 36.8045 37.0788 37.3783C37.3148 37.9522 37.3765 38.5837 37.2562 39.1929C37.1359 39.8021 36.839 40.3617 36.4029 40.8009C35.9669 41.2402 35.4113 41.5393 34.8065 41.6604C34.2017 41.7816 33.5748 41.7194 33.0051 41.4817C32.4354 41.244 31.9485 40.8415 31.6059 40.325C31.2633 39.8085 31.0804 39.2013 31.0804 38.5802C31.0813 37.7475 31.4101 36.9492 31.9946 36.3605C32.5791 35.7717 33.3717 35.4405 34.1983 35.4396Z" fill="#B90000" stroke="#B90000" stroke-width="0.5"/>
<path d="M15.7868 26.4577C15.8439 26.5176 15.9123 26.5653 15.9881 26.5979C16.0639 26.6305 16.1455 26.6473 16.2279 26.6473C16.3103 26.6473 16.3918 26.6305 16.4676 26.5979C16.5434 26.5653 16.6119 26.5176 16.6689 26.4577L23.147 19.6461C24.1591 18.5819 24.9054 17.4121 25.3647 16.1695C25.8336 14.9226 26.0316 13.5889 25.9454 12.2584C25.7794 9.82394 24.7327 7.53538 23.0037 5.82621C21.1913 4.04544 18.7597 3.04871 16.2279 3.04871C13.6961 3.04871 11.2645 4.04544 9.45213 5.82621C7.723 7.53551 6.67632 9.82428 6.51037 12.2589C6.42418 13.5895 6.62222 14.9232 7.09113 16.1701C7.55044 17.4127 8.29663 18.5824 9.30877 19.6467L15.7868 26.4577ZM7.72905 12.3429C7.87477 10.2085 8.79258 8.20206 10.3086 6.70371C11.8925 5.14926 14.0165 4.27935 16.2279 4.27935C18.4392 4.27935 20.5632 5.14926 22.1471 6.70371C23.6632 8.20204 24.581 10.2085 24.7267 12.3429C24.8008 13.4989 24.628 14.6575 24.2199 15.7405C23.8191 16.825 23.1613 17.8528 22.2649 18.7953L16.2279 25.1427L10.1913 18.7953C9.29455 17.8529 8.63683 16.8251 8.2359 15.7403C7.82787 14.6573 7.65504 13.4988 7.72905 12.3429Z" fill="#B90000" stroke="#B90000" stroke-width="0.5"/>
</svg>
