<svg width="31" height="36" viewBox="0 0 31 36" fill="none" xmlns="http://www.w3.org/2000/svg">
<path fill-rule="evenodd" clip-rule="evenodd" d="M9.875 1.53125C9.875 0.7546 10.5046 0.125 11.2812 0.125H19.7188C20.4954 0.125 21.125 0.7546 21.125 1.53125V4.34375H29.5625C30.3392 4.34375 30.9688 4.97335 30.9688 5.75C30.9688 6.52665 30.3392 7.15625 29.5625 7.15625H1.4375C0.66085 7.15625 0.03125 6.52665 0.03125 5.75C0.03125 4.97335 0.66085 4.34375 1.4375 4.34375H9.875V1.53125ZM12.6875 4.34375H18.3125V2.9375H12.6875V4.34375Z" fill="#B90000"/>
<path d="M12.6875 15.5938C13.4642 15.5938 14.0938 16.2233 14.0938 17V28.25C14.0938 29.0266 13.4642 29.6562 12.6875 29.6562C11.9108 29.6562 11.2812 29.0266 11.2812 28.25V17C11.2812 16.2233 11.9108 15.5938 12.6875 15.5938Z" fill="#B90000"/>
<path d="M19.7188 17C19.7188 16.2233 19.0892 15.5938 18.3125 15.5938C17.5358 15.5938 16.9062 16.2233 16.9062 17V28.25C16.9062 29.0266 17.5358 29.6562 18.3125 29.6562C19.0892 29.6562 19.7188 29.0266 19.7188 28.25V17Z" fill="#B90000"/>
<path fill-rule="evenodd" clip-rule="evenodd" d="M3.18764 10.4536C3.45474 10.1457 3.84234 9.96875 4.25 9.96875H26.75C27.1577 9.96875 27.5453 10.1457 27.8124 10.4536C28.0795 10.7616 28.1998 11.1703 28.1421 11.5739L25.2728 31.6591C24.9759 33.7375 23.1959 35.2812 21.0964 35.2812H9.90356C7.8041 35.2812 6.02411 33.7375 5.72721 31.6591L2.85788 11.5739C2.80023 11.1703 2.92054 10.7616 3.18764 10.4536ZM5.87142 12.7812L8.51144 31.2614C8.61041 31.9542 9.20373 32.4688 9.90356 32.4688H21.0964C21.7963 32.4688 22.3896 31.9542 22.4886 31.2614L25.1286 12.7812H5.87142Z" fill="#B90000"/>
</svg>
