<svg width="24" height="24" viewBox="0 0 24 24" fill="none" xmlns="http://www.w3.org/2000/svg">
<rect width="24" height="24" rx="12" fill="#419FD9"/>
<path fill-rule="evenodd" clip-rule="evenodd" d="M14.6677 17.9425C15.5065 18.3095 15.821 17.5406 15.821 17.5406L18.0402 6.39216C18.0227 5.64078 17.0093 6.09511 17.0093 6.09511L4.58519 10.9704C4.58519 10.9704 3.99108 11.1801 4.0435 11.547C4.09592 11.914 4.56772 12.0887 4.56772 12.0887L7.69558 13.1372C7.69558 13.1372 8.63918 16.2301 8.83139 16.8242C9.00613 17.4008 9.1634 17.4183 9.1634 17.4183C9.33814 17.4882 9.49541 17.3659 9.49541 17.3659L11.5224 15.5311L14.6677 17.9425ZM15.2094 8.36671C15.2094 8.36671 15.6462 8.1046 15.6288 8.36671C15.6288 8.36671 15.6987 8.40165 15.4715 8.64629C15.2618 8.85598 10.3166 13.2944 9.65263 13.8885C9.6002 13.9235 9.56526 13.9759 9.56526 14.0458L9.37304 15.6883C9.33809 15.8631 9.11093 15.8806 9.05851 15.7233L8.23723 13.0323C8.20228 12.9274 8.23723 12.8051 8.34207 12.7352L15.2094 8.36671Z" fill="white"/>
</svg>
