<svg width="24" height="24" viewBox="0 0 24 24" fill="none" xmlns="http://www.w3.org/2000/svg">
<rect width="24" height="24" rx="12" fill="#00AFF0"/>
<path d="M18.9691 13.2487C18.9643 13.275 18.961 13.3016 18.956 13.328L18.9304 13.1769C18.9444 13.2004 18.956 13.2249 18.9691 13.2487C19.0465 12.8273 19.0871 12.3959 19.0871 11.9647C19.0871 11.0086 18.9 10.081 18.5301 9.20774C18.1733 8.3642 17.6628 7.60666 17.0119 6.95625C16.362 6.30584 15.604 5.79535 14.7609 5.43855C13.8879 5.06917 12.9603 4.88198 12.0042 4.88198C11.5535 4.88198 11.1022 4.92426 10.663 5.00859C10.662 5.00883 10.6608 5.00883 10.6596 5.00907C10.6843 5.02213 10.7093 5.03377 10.7335 5.04731L10.5846 5.02403C10.6095 5.01928 10.6347 5.01405 10.6596 5.00907C10.057 4.68861 9.37925 4.51758 8.69321 4.51758C7.57316 4.51758 6.52011 4.95372 5.72813 5.74594C4.93638 6.53793 4.5 7.59098 4.5 8.71102C4.5 9.4239 4.68339 10.1247 5.0276 10.744C5.03211 10.7183 5.0352 10.6924 5.04019 10.6668L5.06584 10.8152C5.05254 10.7919 5.0409 10.7677 5.0276 10.744C4.95776 11.1452 4.92094 11.5552 4.92094 11.9647C4.92094 12.9211 5.10812 13.8485 5.47799 14.7219C5.83431 15.5657 6.34504 16.3228 6.99521 16.9732C7.64609 17.6236 8.40316 18.1348 9.24717 18.4907C10.1202 18.8608 11.048 19.0482 12.0042 19.0482C12.4203 19.0482 12.8375 19.0102 13.2446 18.938C13.2209 18.9247 13.1967 18.9125 13.1724 18.8985L13.3237 18.9251C13.2976 18.9301 13.2712 18.9332 13.2446 18.938C13.872 19.2929 14.5823 19.4815 15.3075 19.4815C16.4273 19.4815 17.4799 19.046 18.2719 18.2536C19.0641 17.4621 19.5 16.4088 19.5 15.2887C19.5 14.5735 19.3157 13.8703 18.9691 13.2487ZM12.0324 16.3026C9.51607 16.3026 8.39033 15.0654 8.39033 14.1383C8.39033 13.6627 8.74143 13.3294 9.22531 13.3294C10.3021 13.3294 10.0232 14.8756 12.0324 14.8756C13.061 14.8756 13.629 14.3172 13.629 13.7456C13.629 13.4019 13.4594 13.0209 12.7821 12.8539L10.5439 12.2952C8.74143 11.8431 8.41432 10.8687 8.41432 9.95269C8.41432 8.05087 10.205 7.3368 11.8866 7.3368C13.4356 7.3368 15.2617 8.19293 15.2617 9.33387C15.2617 9.82275 14.8383 10.1071 14.3547 10.1071C13.4356 10.1071 13.6048 8.83502 11.7535 8.83502C10.8349 8.83502 10.3261 9.25097 10.3261 9.84627C10.3261 10.4404 11.0516 10.6302 11.6816 10.7737L13.3382 11.1414C15.1529 11.5457 15.613 12.6052 15.613 13.6031C15.613 15.1486 14.4267 16.3026 12.0324 16.3026ZM13.1724 18.8985C13.1967 18.9125 13.2209 18.9247 13.2446 18.938C13.2712 18.9332 13.2976 18.9301 13.3237 18.9251L13.1724 18.8985ZM18.956 13.328C18.961 13.3016 18.9643 13.275 18.9691 13.2487C18.956 13.2249 18.9444 13.2004 18.9304 13.1769L18.956 13.328ZM5.04019 10.6668C5.0352 10.6924 5.03211 10.7183 5.0276 10.744C5.0409 10.7677 5.05254 10.7919 5.06584 10.8152L5.04019 10.6668ZM10.7335 5.04731C10.7093 5.03377 10.6843 5.02213 10.6596 5.00907C10.6347 5.01405 10.6095 5.01928 10.5846 5.02403L10.7335 5.04731Z" fill="white"/>
</svg>
