<svg width="24" height="24" viewBox="0 0 24 24" fill="none" xmlns="http://www.w3.org/2000/svg">
<g id="Instagram">
<g id="Instagram_2">
<rect id="Rectangle" width="24" height="24" rx="12" fill="url(#paint0_linear_8_501)"/>
<path id="Vector" d="M9.50077 12C9.50077 10.6193 10.6197 9.4998 12.0004 9.4998C13.381 9.4998 14.5006 10.6193 14.5006 12C14.5006 13.3807 13.381 14.5002 12.0004 14.5002C10.6197 14.5002 9.50077 13.3807 9.50077 12ZM8.14921 12C8.14921 14.127 9.87337 15.8512 12.0004 15.8512C14.1274 15.8512 15.8515 14.127 15.8515 12C15.8515 9.873 14.1274 8.14884 12.0004 8.14884C9.87337 8.14884 8.14921 9.873 8.14921 12ZM15.104 7.99614C15.1039 8.17414 15.1566 8.34817 15.2555 8.49621C15.3543 8.64426 15.4948 8.75967 15.6592 8.82785C15.8237 8.89604 16.0046 8.91393 16.1792 8.87928C16.3538 8.84462 16.5142 8.75897 16.6401 8.63315C16.766 8.50733 16.8518 8.347 16.8866 8.17243C16.9214 7.99787 16.9037 7.8169 16.8356 7.65242C16.7676 7.48794 16.6523 7.34733 16.5043 7.24838C16.3563 7.14943 16.1823 7.09657 16.0043 7.0965H16.004C15.7654 7.09661 15.5366 7.19142 15.3678 7.3601C15.1991 7.52878 15.1042 7.75754 15.104 7.99614ZM8.97037 18.1048C8.23915 18.0715 7.84171 17.9497 7.57759 17.8468C7.22743 17.7105 6.97759 17.5481 6.71491 17.2858C6.45223 17.0235 6.28963 16.7739 6.15391 16.4237C6.05095 16.1597 5.92915 15.7622 5.89591 15.031C5.85955 14.2404 5.85229 14.0029 5.85229 12.0001C5.85229 9.9972 5.86015 9.76038 5.89591 8.96916C5.92921 8.23794 6.05191 7.84116 6.15391 7.57638C6.29023 7.22622 6.45259 6.97638 6.71491 6.7137C6.97723 6.45102 7.22683 6.28842 7.57759 6.1527C7.84159 6.04974 8.23915 5.92794 8.97037 5.8947C9.76093 5.85834 9.99841 5.85108 12.0004 5.85108C14.0023 5.85108 14.24 5.85894 15.0313 5.8947C15.7625 5.928 16.1593 6.0507 16.424 6.1527C16.7742 6.28842 17.024 6.45138 17.2867 6.7137C17.5494 6.97602 17.7114 7.22622 17.8477 7.57638C17.9507 7.84038 18.0725 8.23794 18.1057 8.96916C18.1421 9.76038 18.1493 9.9972 18.1493 12.0001C18.1493 14.0029 18.1421 14.2397 18.1057 15.031C18.0724 15.7622 17.95 16.1596 17.8477 16.4237C17.7114 16.7739 17.549 17.0237 17.2867 17.2858C17.0244 17.5479 16.7742 17.7105 16.424 17.8468C16.16 17.9498 15.7625 18.0716 15.0313 18.1048C14.2407 18.1412 14.0032 18.1484 12.0004 18.1484C9.99751 18.1484 9.76069 18.1412 8.97037 18.1048ZM8.90827 4.54542C8.10985 4.58178 7.56427 4.70838 7.08781 4.89378C6.59437 5.08524 6.17665 5.3421 5.75923 5.75886C5.34181 6.17562 5.08561 6.594 4.89415 7.08744C4.70875 7.5642 4.58215 8.10948 4.54579 8.9079C4.50883 9.70758 4.50037 9.96324 4.50037 12C4.50037 14.0368 4.50883 14.2924 4.54579 15.0921C4.58215 15.8906 4.70875 16.4358 4.89415 16.9126C5.08561 17.4057 5.34187 17.8246 5.75923 18.2411C6.17659 18.6577 6.59437 18.9142 7.08781 19.1062C7.56517 19.2916 8.10985 19.4182 8.90827 19.4546C9.70837 19.4909 9.96361 19.5 12.0004 19.5C14.0371 19.5 14.2928 19.4915 15.0925 19.4546C15.8909 19.4182 16.4362 19.2916 16.9129 19.1062C17.4061 18.9142 17.8241 18.6579 18.2415 18.2411C18.6589 17.8244 18.9146 17.4057 19.1066 16.9126C19.292 16.4358 19.4192 15.8905 19.4549 15.0921C19.4913 14.2918 19.4998 14.0368 19.4998 12C19.4998 9.96324 19.4913 9.70758 19.4549 8.9079C19.4186 8.10942 19.292 7.5639 19.1066 7.08744C18.9146 6.5943 18.6583 6.17628 18.2415 5.75886C17.8247 5.34144 17.4061 5.08524 16.9135 4.89378C16.4362 4.70838 15.8909 4.58118 15.0931 4.54542C14.2934 4.50906 14.0377 4.5 12.001 4.5C9.96421 4.5 9.70837 4.50846 8.90827 4.54542Z" fill="white"/>
</g>
</g>
<defs>
<linearGradient id="paint0_linear_8_501" x1="17.4375" y1="0.937499" x2="1.5" y2="33.1875" gradientUnits="userSpaceOnUse">
<stop stop-color="#5B00C4"/>
<stop offset="1" stop-color="#D00049"/>
</linearGradient>
</defs>
</svg>
