<svg width="24" height="24" viewBox="0 0 24 24" fill="none" xmlns="http://www.w3.org/2000/svg">
<g id="YouTube">
<g id="YouTube_2">
<rect id="Rectangle" width="24" height="24" rx="12" fill="#FF0000"/>
<path id="Exclude" fill-rule="evenodd" clip-rule="evenodd" d="M17.869 7.07027C18.5115 7.24326 19.0181 7.74984 19.191 8.39234C19.5123 9.56615 19.4999 12.0126 19.4999 12.0126C19.4999 12.0126 19.4999 14.4467 19.191 15.6205C19.0181 16.263 18.5115 16.7696 17.869 16.9426C16.6952 17.2515 12 17.2515 12 17.2515C12 17.2515 7.31712 17.2515 6.13097 16.9302C5.48846 16.7572 4.98188 16.2506 4.80889 15.6081C4.5 14.4467 4.5 12.0002 4.5 12.0002C4.5 12.0002 4.5 9.56615 4.80889 8.39234C4.98188 7.74984 5.50082 7.2309 6.13097 7.05792C7.30477 6.74902 12 6.74902 12 6.74902C12 6.74902 16.6952 6.74902 17.869 7.07027ZM14.4094 12.0002L10.5049 14.249V9.75148L14.4094 12.0002Z" fill="white"/>
</g>
</g>
</svg>
