<svg width="23" height="23" viewBox="0 0 23 23" fill="none" xmlns="http://www.w3.org/2000/svg">
<path fill-rule="evenodd" clip-rule="evenodd" d="M0.5 11.4639C0.5 17.539 5.42487 22.4639 11.5 22.4639C17.5751 22.4639 22.5 17.539 22.5 11.4639C22.5 5.38873 17.5751 0.463867 11.5 0.463867C5.42487 0.463867 0.5 5.38873 0.5 11.4639ZM20.5 11.4639C20.5 16.4344 16.4706 20.4639 11.5 20.4639C6.52944 20.4639 2.5 16.4344 2.5 11.4639C2.5 6.4933 6.52944 2.46387 11.5 2.46387C16.4706 2.46387 20.5 6.4933 20.5 11.4639ZM11.5003 17.4622C12.0528 17.4622 12.5007 17.0145 12.5007 16.4622C12.5007 15.9099 12.0528 15.4622 11.5003 15.4622C10.9479 15.4622 10.5 15.9099 10.5 16.4622C10.5 17.0145 10.9479 17.4622 11.5003 17.4622ZM12.5036 5.46221H10.503V13.4622H12.5036V5.46221Z" fill="#FCD03E"/>
</svg>
