<svg width="21" height="21" viewBox="0 0 21 21" fill="none" xmlns="http://www.w3.org/2000/svg">
<path fill-rule="evenodd" clip-rule="evenodd" d="M0.909546 18.4546C0.909546 19.5592 1.80498 20.4546 2.90955 20.4546H16.3238L20.9095 15.8688V2.45459C20.9095 1.35002 20.0141 0.45459 18.9095 0.45459H2.90955C1.80498 0.45459 0.909546 1.35002 0.909546 2.45459V18.4546ZM2.90955 2.45459H18.9095V13.4546H15.9095C14.805 13.4546 13.9095 14.35 13.9095 15.4546V18.4546H2.90955V2.45459ZM15.9095 15.4546H18.4953L15.9095 18.0404V15.4546ZM5.90955 13.4546V15.4546H11.9095V13.4546H5.90955ZM5.90955 11.4546V9.45459H15.9095V11.4546H5.90955ZM5.90955 5.45459V7.45459H15.9095V5.45459H5.90955Z" fill="#343433"/>
</svg>
