<svg width="32" height="32" viewBox="0 0 32 32" fill="none" xmlns="http://www.w3.org/2000/svg">
<path d="M20 5.34668V23.3067" stroke="#0E4194" stroke-width="1.5" stroke-linecap="round" stroke-linejoin="round"/>
<path d="M12 7.70654V26.6665" stroke="#0E4194" stroke-width="1.5" stroke-linecap="round" stroke-linejoin="round"/>
<path fill-rule="evenodd" clip-rule="evenodd" d="M20.8427 5.47066L27.088 7.552C27.6333 7.73333 28 8.24266 28 8.81733V24.824C28 25.8147 26.9573 26.46 26.0707 26.016L21.1933 23.5773C20.4427 23.2013 19.5587 23.2013 18.808 23.5773L13.1933 26.3853C12.4427 26.7613 11.5587 26.7613 10.808 26.3853L4.73733 23.3507C4.28533 23.124 4 22.6627 4 22.1573V7.03866C4 6.128 4.892 5.48533 5.75467 5.77333L11.156 7.57333C11.704 7.756 12.2947 7.756 12.8427 7.57333L19.156 5.46933C19.704 5.288 20.296 5.288 20.8427 5.47066Z" stroke="#0E4194" stroke-width="1.5" stroke-linecap="round" stroke-linejoin="round"/>
</svg>
