<svg width="55" height="61" viewBox="0 0 55 61" fill="none" xmlns="http://www.w3.org/2000/svg">
<path d="M13.125 10.375H41.875" stroke="#3F3F3F" stroke-width="2.5" stroke-linecap="round" stroke-linejoin="round"/>
<path fill-rule="evenodd" clip-rule="evenodd" d="M50.5 59.25H44.75C43.1687 59.25 41.875 57.9563 41.875 56.375V44.875C41.875 43.2937 43.1687 42 44.75 42H50.5C52.0813 42 53.375 43.2937 53.375 44.875V56.375C53.375 57.9563 52.0813 59.25 50.5 59.25Z" stroke="#3F3F3F" stroke-width="2.5" stroke-linecap="round" stroke-linejoin="round"/>
<path d="M13.125 50.625H41.875" stroke="#3F3F3F" stroke-width="2.5" stroke-linecap="round" stroke-linejoin="round"/>
<path fill-rule="evenodd" clip-rule="evenodd" d="M10.25 59.25H4.5C2.91875 59.25 1.625 57.9563 1.625 56.375V44.875C1.625 43.2937 2.91875 42 4.5 42H10.25C11.8313 42 13.125 43.2937 13.125 44.875V56.375C13.125 57.9563 11.8313 59.25 10.25 59.25Z" stroke="#3F3F3F" stroke-width="2.5" stroke-linecap="round" stroke-linejoin="round"/>
<path fill-rule="evenodd" clip-rule="evenodd" d="M50.5 19H44.75C43.1687 19 41.875 17.7063 41.875 16.125V4.625C41.875 3.04375 43.1687 1.75 44.75 1.75H50.5C52.0813 1.75 53.375 3.04375 53.375 4.625V16.125C53.375 17.7063 52.0813 19 50.5 19Z" stroke="#3F3F3F" stroke-width="2.5" stroke-linecap="round" stroke-linejoin="round"/>
<path fill-rule="evenodd" clip-rule="evenodd" d="M10.25 19H4.5C2.91875 19 1.625 17.7063 1.625 16.125V4.625C1.625 3.04375 2.91875 1.75 4.5 1.75H10.25C11.8313 1.75 13.125 3.04375 13.125 4.625V16.125C13.125 17.7063 11.8313 19 10.25 19Z" stroke="#3F3F3F" stroke-width="2.5" stroke-linecap="round" stroke-linejoin="round"/>
<path d="M28.3625 39.125L32.675 30.5H22.325L26.6375 21.875" stroke="#3F3F3F" stroke-width="2.5" stroke-linecap="round" stroke-linejoin="round"/>
</svg>
