<svg width="76" height="76" viewBox="0 0 76 76" fill="none" xmlns="http://www.w3.org/2000/svg">
<path d="M27.2637 22.1602H39.2324" stroke="#3F3F3F" stroke-width="2.5" stroke-linecap="round" stroke-linejoin="round"/>
<path d="M28.4961 38H18.9921V60.1759" stroke="#3F3F3F" stroke-width="2.5" stroke-linecap="round" stroke-linejoin="round"/>
<path d="M18.9921 60.1764H6.32019V23.9409C6.32019 21.7675 7.49898 19.7651 9.39947 18.7106L30.343 7.07458C32.1506 6.07019 34.3487 6.07019 36.1563 7.07458L57.0998 18.7106C58.9986 19.7664 60.176 21.7684 60.176 23.9409V28.4965" stroke="#3F3F3F" stroke-width="2.5" stroke-linecap="round" stroke-linejoin="round"/>
<path d="M69.6799 56.3741C69.6799 52.8748 66.8432 50.0381 63.3439 50.0381H38C34.5008 50.0381 31.6641 52.8748 31.6641 56.3741" stroke="#3F3F3F" stroke-width="2.5" stroke-linecap="round" stroke-linejoin="round"/>
<path d="M31.6641 56.375V66.5126C31.6641 68.2622 33.0824 69.6805 34.832 69.6805H37.9684C39.718 69.6805 41.1363 68.2622 41.1363 66.5126V64.4185H60.2076V66.5126C60.2076 68.2622 61.626 69.6805 63.3756 69.6805H66.5119C68.2615 69.6805 69.6799 68.2622 69.6799 66.5126V56.375" stroke="#3F3F3F" stroke-width="2.5" stroke-linecap="round" stroke-linejoin="round"/>
<path d="M43.5028 57.3252H38.7667" stroke="#3F3F3F" stroke-width="2.5" stroke-linecap="round" stroke-linejoin="round"/>
<path d="M62.5773 57.3252H57.8411" stroke="#3F3F3F" stroke-width="2.5" stroke-linecap="round" stroke-linejoin="round"/>
<path d="M64.9437 49.8385L69.6799 47.472" stroke="#3F3F3F" stroke-width="2.5" stroke-linecap="round" stroke-linejoin="round"/>
<path d="M36.416 49.8385L31.6641 47.472" stroke="#3F3F3F" stroke-width="2.5" stroke-linecap="round" stroke-linejoin="round"/>
<path d="M42.9674 38C40.7685 38.0056 38.8606 39.519 38.3548 41.659L36.3463 50.2443L38.3548 41.659C38.8606 39.519 40.7685 38.0056 42.9674 38H58.3765C60.5754 38.0056 62.4833 39.519 62.9891 41.659L64.9976 50.2443" stroke="#3F3F3F" stroke-width="2.5" stroke-linecap="round" stroke-linejoin="round"/>
</svg>
