<svg width="82" height="82" viewBox="0 0 82 82" fill="none" xmlns="http://www.w3.org/2000/svg">
<path d="M56.8733 52.5746H49.8103" stroke="#3F3F3F" stroke-width="2.5" stroke-linecap="round" stroke-linejoin="round"/>
<path fill-rule="evenodd" clip-rule="evenodd" d="M67.6778 66.2868V51.7041C67.6778 46.4865 63.4481 42.2568 58.2305 42.2568H20.4348C15.2172 42.2568 10.9875 46.4865 10.9875 51.7041V66.2868C10.9866 67.5403 11.4842 68.7428 12.3705 69.6291C13.2569 70.5155 14.4593 71.013 15.7128 71.0122H20.3814C21.6343 71.0122 22.8359 70.5142 23.7215 69.6279C24.6072 68.7417 25.1043 67.5398 25.1034 66.2868V63.1655H53.5485V66.2868C53.5477 67.5409 54.0457 68.7438 54.9328 69.6303C55.8198 70.5167 57.0231 71.0139 58.2772 71.0122H62.9458C64.2005 71.0148 65.4046 70.518 66.2924 69.6315C67.1802 68.7449 67.6787 67.5415 67.6778 66.2868Z" stroke="#3F3F3F" stroke-width="2.5" stroke-linecap="round" stroke-linejoin="round"/>
<path d="M60.6915 42.5876L57.9838 30.9961" stroke="#3F3F3F" stroke-width="2.5" stroke-linecap="round" stroke-linejoin="round"/>
<path d="M47.6695 24.3262H27.8445C24.5627 24.3265 21.713 26.5863 20.965 29.7818L17.9637 42.5871" stroke="#3F3F3F" stroke-width="2.5" stroke-linecap="round" stroke-linejoin="round"/>
<rect x="47.6695" y="7.65332" width="23.3431" height="23.3431" rx="2" stroke="#3F3F3F" stroke-width="2.5" stroke-linecap="round" stroke-linejoin="round"/>
<path d="M63.1259 16.6162L58.2105 21.5449L55.256 18.5804" stroke="#3F3F3F" stroke-width="2.5" stroke-linecap="round" stroke-linejoin="round"/>
<path d="M28.6415 52.5746H21.5786" stroke="#3F3F3F" stroke-width="2.5" stroke-linecap="round" stroke-linejoin="round"/>
<path d="M57.0867 52.5746H50.0238" stroke="#3F3F3F" stroke-width="2.5" stroke-linecap="round" stroke-linejoin="round"/>
<path d="M60.6148 41.9807L67.6778 38.4492" stroke="#3F3F3F" stroke-width="2.5" stroke-linecap="round" stroke-linejoin="round"/>
<path d="M18.0505 41.9807L10.9875 38.4492" stroke="#3F3F3F" stroke-width="2.5" stroke-linecap="round" stroke-linejoin="round"/>
</svg>
