<?xml version="1.0" standalone="no"?>
<!DOCTYPE svg PUBLIC "-//W3C//DTD SVG 20010904//EN"
 "http://www.w3.org/TR/2001/REC-SVG-20010904/DTD/svg10.dtd">
<svg version="1.0" xmlns="http://www.w3.org/2000/svg"
 width="260.000000pt" height="260.000000pt" viewBox="0 0 260.000000 260.000000"
 preserveAspectRatio="xMidYMid meet">
<metadata>
Created by potrace 1.11, written by Peter Selinger 2001-2013
</metadata>
<g transform="translate(0.000000,260.000000) scale(0.100000,-0.100000)"
fill="#000000" stroke="none">
<path d="M0 1300 l0 -1300 1300 0 1300 0 0 1300 0 1300 -1300 0 -1300 0 0
-1300z m1062 66 c125 -319 228 -581 228 -583 0 -2 -44 -3 -98 -3 l-99 0 -43
113 c-23 61 -51 133 -62 160 l-20 47 -223 0 -222 0 -61 -157 -60 -158 -101 -3
-101 -3 9 24 c5 12 96 243 203 512 107 270 208 523 223 563 l28 73 85 -3 85
-3 229 -579z m1084 565 c54 -24 105 -77 135 -137 20 -41 24 -64 24 -144 0 -88
-2 -99 -31 -150 -17 -30 -50 -69 -72 -87 l-41 -31 54 -31 c101 -57 150 -152
143 -278 -6 -128 -55 -199 -177 -257 l-66 -31 -337 -3 -338 -3 0 585 0 586
333 0 c302 0 336 -2 373 -19z"/>
<path d="M658 1502 c-48 -125 -90 -235 -94 -244 -6 -17 7 -18 180 -18 102 0
186 2 186 3 0 7 -171 461 -178 474 -4 6 -46 -91 -94 -215z"/>
<path d="M1630 1619 l0 -170 198 3 c188 3 199 4 230 26 45 33 66 77 66 142 1
65 -24 114 -74 147 -31 22 -42 23 -226 23 l-194 0 0 -171z"/>
<path d="M1630 1120 l0 -180 193 0 c105 0 208 5 227 10 41 11 94 61 109 103
35 91 -22 213 -108 237 -20 5 -123 10 -228 10 l-193 0 0 -180z"/>
</g>
</svg>
