<svg width="31" height="31" viewBox="0 0 31 31" fill="none" xmlns="http://www.w3.org/2000/svg">
<rect x="0.000244141" width="31" height="31" rx="15.5" fill="#61656B"/>
<path fill-rule="evenodd" clip-rule="evenodd" d="M12.7543 16.6777V15.0555H17.2435C17.2843 15.2921 17.3182 15.5287 17.3182 15.8396C17.3182 18.5433 15.4981 20.4629 12.7543 20.4629C10.126 20.4629 8.00024 18.3472 8.00024 15.7314C8.00024 13.1156 10.126 11 12.7543 11C14.0379 11 15.111 11.4664 15.9395 12.2369L14.6491 13.4739C14.296 13.1359 13.678 12.7439 12.7543 12.7439C11.1311 12.7439 9.80679 14.0822 9.80679 15.7314C9.80679 17.3807 11.1311 18.719 12.7543 18.719C14.6356 18.719 15.3419 17.3739 15.4505 16.6777H12.7543ZM21.5832 15.0551H22.9415V16.4069H21.5832V17.7587H20.2249V16.4069H18.8666V15.0551H20.2249V13.7032H21.5832V15.0551Z" fill="white"/>
</svg>
