<svg width="31" height="31" viewBox="0 0 31 31" fill="none" xmlns="http://www.w3.org/2000/svg">
<rect width="31" height="31" rx="15.5" fill="#61656B"/>
<path fill-rule="evenodd" clip-rule="evenodd" d="M15.9429 7.18164C13.7787 7.18164 13.5071 7.1911 12.6571 7.22979C11.8087 7.26863 11.2296 7.40294 10.723 7.6C10.1988 7.80354 9.75425 8.07581 9.31132 8.51891C8.86805 8.96184 8.59579 9.40643 8.39158 9.93038C8.19402 10.4372 8.05955 11.0165 8.02137 11.8645C7.98335 12.7145 7.97339 12.9863 7.97339 15.1504C7.97339 17.3146 7.98302 17.5854 8.02153 18.4354C8.06055 19.2838 8.19486 19.8628 8.39175 20.3695C8.59545 20.8936 8.86772 21.3382 9.31082 21.7812C9.75359 22.2244 10.1982 22.4974 10.722 22.7009C11.229 22.898 11.8082 23.0323 12.6564 23.0711C13.5064 23.1098 13.7778 23.1193 15.9419 23.1193C18.1062 23.1193 18.377 23.1098 19.227 23.0711C20.0753 23.0323 20.6551 22.898 21.1621 22.7009C21.686 22.4974 22.13 22.2244 22.5727 21.7812C23.016 21.3382 23.2883 20.8936 23.4925 20.3697C23.6884 19.8628 23.8228 19.2836 23.8627 18.4356C23.9009 17.5856 23.9108 17.3146 23.9108 15.1504C23.9108 12.9863 23.9009 12.7146 23.8627 11.8646C23.8228 11.0163 23.6884 10.4372 23.4925 9.93055C23.2883 9.40643 23.016 8.96184 22.5727 8.51891C22.1295 8.07564 21.6862 7.80337 21.1616 7.6C20.6536 7.40294 20.0742 7.26863 19.2258 7.22979C18.3758 7.1911 18.1052 7.18164 15.9404 7.18164H15.9429ZM15.2277 8.61762C15.4398 8.61729 15.6766 8.61762 15.9425 8.61762C18.0702 8.61762 18.3224 8.62526 19.1626 8.66344C19.9396 8.69897 20.3613 8.82879 20.6422 8.93787C21.014 9.0823 21.2792 9.25496 21.5579 9.53387C21.8368 9.81278 22.0095 10.0784 22.1542 10.4503C22.2633 10.7308 22.3933 11.1525 22.4287 11.9295C22.4668 12.7695 22.4751 13.0219 22.4751 15.1486C22.4751 17.2752 22.4668 17.5276 22.4287 18.3676C22.3931 19.1446 22.2633 19.5663 22.1542 19.8468C22.0098 20.2187 21.8368 20.4835 21.5579 20.7622C21.279 21.0412 21.0142 21.2138 20.6422 21.3582C20.3616 21.4678 19.9396 21.5973 19.1626 21.6328C18.3226 21.671 18.0702 21.6793 15.9425 21.6793C13.8147 21.6793 13.5625 21.671 12.7225 21.6328C11.9455 21.597 11.5238 21.4672 11.2428 21.3581C10.8709 21.2136 10.6053 21.041 10.3264 20.7621C10.0475 20.4832 9.8748 20.2182 9.73003 19.8462C9.62096 19.5656 9.49097 19.1439 9.45561 18.367C9.41742 17.5269 9.40979 17.2746 9.40979 15.1466C9.40979 13.0186 9.41742 12.7675 9.45561 11.9275C9.49114 11.1505 9.62096 10.7289 9.73003 10.448C9.87447 10.0761 10.0475 9.81045 10.3264 9.53154C10.6053 9.25264 10.8709 9.07998 11.2428 8.93521C11.5237 8.82564 11.9455 8.69615 12.7225 8.66045C13.4576 8.62725 13.7425 8.61729 15.2277 8.61563V8.61762ZM20.1963 9.94043C19.6684 9.94043 19.2401 10.3683 19.2401 10.8964C19.2401 11.4243 19.6684 11.8526 20.1963 11.8526C20.7243 11.8526 21.1526 11.4243 21.1526 10.8964C21.1526 10.3684 20.7243 9.9401 20.1963 9.9401V9.94043ZM15.9424 11.0576C13.6824 11.0576 11.85 12.89 11.85 15.15C11.85 17.4099 13.6824 19.2414 15.9424 19.2414C18.2023 19.2414 20.034 17.4099 20.034 15.15C20.034 12.89 18.2022 11.0576 15.9422 11.0576H15.9424ZM15.9426 12.4939C17.4095 12.4939 18.5988 13.6831 18.5988 15.1502C18.5988 16.6171 17.4095 17.8064 15.9426 17.8064C14.4755 17.8064 13.2863 16.6171 13.2863 15.1502C13.2863 13.6831 14.4755 12.4939 15.9426 12.4939Z" fill="white"/>
</svg>
