<svg width="31" height="31" viewBox="0 0 31 31" fill="none" xmlns="http://www.w3.org/2000/svg">
<rect width="31" height="31" rx="15.5" fill="#61656B"/>
<path fill-rule="evenodd" clip-rule="evenodd" d="M17.5848 11.5354C17.5848 10.6551 16.8429 9.93922 15.9309 9.93922C15.0196 9.93922 14.2771 10.6551 14.2771 11.5354C14.2771 12.4151 15.0196 13.1314 15.9309 13.1314C16.8429 13.1314 17.5848 12.4151 17.5848 11.5354ZM19.9252 11.5355C19.9252 13.6612 18.1342 15.3902 15.9309 15.3902C13.7281 15.3902 11.9366 13.6612 11.9366 11.5355C11.9366 9.40922 13.7281 7.67969 15.9309 7.67969C18.1342 7.67969 19.9252 9.40922 19.9252 11.5355ZM19.8767 17.6102C19.1545 18.0481 18.3703 18.3586 17.5573 18.5374L19.7902 20.693C20.2476 21.1336 20.2476 21.8493 19.7902 22.2904C19.3332 22.7315 18.5926 22.7315 18.1361 22.2904L15.9407 20.1721L13.7473 22.2904C13.5186 22.5107 13.2189 22.6209 12.9192 22.6209C12.6199 22.6209 12.3207 22.5107 12.092 22.2904C11.6351 21.8493 11.6351 21.1341 12.0915 20.693L14.3247 18.5374C13.5116 18.3586 12.7275 18.0476 12.0053 17.6102C11.4587 17.2776 11.2945 16.5806 11.6389 16.0526C11.9823 15.5238 12.7045 15.3646 13.2521 15.6973C14.8873 16.6902 16.9937 16.6904 18.6299 15.6973C19.1774 15.3646 19.8994 15.5238 20.2436 16.0526C20.5879 16.5802 20.4233 17.2776 19.8767 17.6102Z" fill="white"/>
</svg>
