<svg width="31" height="31" viewBox="0 0 31 31" fill="none" xmlns="http://www.w3.org/2000/svg">
<rect width="31" height="31" rx="15.5" fill="#61656B"/>
<path fill-rule="evenodd" clip-rule="evenodd" d="M16.0232 12.1797L16.0545 12.6967L15.532 12.6334C13.6299 12.3907 11.9681 11.5677 10.5572 10.1855L9.86745 9.49972L9.68978 10.0062C9.31354 11.1351 9.55391 12.3274 10.3377 13.1293C10.7558 13.5725 10.6617 13.6358 9.94061 13.372C9.68978 13.2876 9.4703 13.2243 9.4494 13.2559C9.37624 13.3298 9.62707 14.2899 9.82564 14.6698C10.0974 15.1973 10.6513 15.7143 11.2575 16.0203L11.7696 16.263L11.1634 16.2735C10.5781 16.2735 10.5572 16.2841 10.6199 16.5057C10.829 17.1915 11.6546 17.9195 12.5743 18.236L13.2223 18.4576L12.6579 18.7953C11.8218 19.2806 10.8394 19.5549 9.857 19.576C9.38669 19.5866 9 19.6288 9 19.6604C9 19.766 10.275 20.3568 11.0171 20.5889C13.2432 21.2748 15.8873 20.9793 17.873 19.8082C19.284 18.9746 20.6949 17.3181 21.3533 15.7143C21.7086 14.8597 22.064 13.2981 22.064 12.549C22.064 12.0636 22.0953 12.0003 22.6806 11.42C23.0255 11.0824 23.3495 10.7131 23.4122 10.6076C23.5167 10.4071 23.5062 10.4071 22.9732 10.5865C22.0849 10.903 21.9594 10.8608 22.3984 10.386C22.7224 10.0484 23.1091 9.43642 23.1091 9.25705C23.1091 9.2254 22.9523 9.27815 22.7746 9.37311C22.5865 9.47862 22.1685 9.63689 21.8549 9.73185L21.2906 9.91122L20.7785 9.56303C20.4963 9.37311 20.0991 9.16209 19.8901 9.09878C19.3571 8.95107 18.5419 8.97217 18.0612 9.14099C16.7548 9.61579 15.9291 10.8397 16.0232 12.1797Z" fill="white"/>
</svg>
