<svg width="16" height="15" viewBox="0 0 16 15" fill="none" xmlns="http://www.w3.org/2000/svg">
<path fill-rule="evenodd" clip-rule="evenodd" d="M14.1246 2H1.87482C1.4382 2 1.09171 2.372 1.02608 2.85101L7.99972 8.10208L14.9734 2.85101C14.9077 2.372 14.5612 2 14.1246 2ZM14.9999 10.9921L10.2802 7.58209L14.9999 4.02805V10.9921ZM1 10.9921V4.02805L5.71968 7.58209L1 10.9921ZM8.24034 9.11795L9.47845 8.18594L14.9716 12.156C14.9042 12.631 14.5595 13 14.1246 13H1.87482C1.43995 13 1.09521 12.631 1.02783 12.156L6.521 8.18494L7.7591 9.11795C7.8326 9.17295 7.91572 9.19995 7.99972 9.19995C8.08372 9.19995 8.16684 9.17295 8.24034 9.11795Z" fill="#E94250"/>
</svg>
