<svg width="15" height="15" viewBox="0 0 15 15" fill="none" xmlns="http://www.w3.org/2000/svg">
<path d="M12.0963 1.84193C10.8686 0.654143 9.23622 0 7.50006 0C5.76387 0 4.13157 0.654114 2.9038 1.84193C1.67613 3.02969 1 4.60886 1 6.2886C1 7.96834 1.67613 9.54757 2.9038 10.7354L7.17889 14.8713C7.26759 14.9571 7.38384 15 7.50006 15C7.61631 15 7.73256 14.9571 7.82123 14.8713L12.0962 10.7354C13.3239 9.5476 14 7.96837 14 6.28863C14 4.60883 13.3239 3.02966 12.0963 1.84193ZM9.5414 8.26351C8.99615 8.79103 8.27121 9.08157 7.50009 9.08157C6.72897 9.08157 6.00403 8.79106 5.45881 8.26354C4.91353 7.73602 4.61326 7.03465 4.61326 6.2886C4.61326 5.54258 4.91353 4.84121 5.45881 4.31366C6.00403 3.78614 6.72897 3.49563 7.50009 3.49563C8.27121 3.49563 8.99615 3.78614 9.5414 4.31366C10.0867 4.84115 10.387 5.54252 10.387 6.28857C10.3869 7.03462 10.0866 7.73602 9.5414 8.26351Z" fill="#E94250"/>
</svg>
