<svg width="48" height="48" viewBox="0 0 48 48" fill="none" xmlns="http://www.w3.org/2000/svg">
<circle cx="24" cy="24" r="23" stroke="#E1DECE" stroke-width="2"/>
<path d="M24.9609 12C19.9512 12 15 15.3398 15 20.7451C15 24.1826 16.9336 26.1357 18.1055 26.1357C18.5889 26.1357 18.8672 24.7881 18.8672 24.4072C18.8672 23.9531 17.71 22.9863 17.71 21.0967C17.71 17.1709 20.6982 14.3877 24.5654 14.3877C27.8906 14.3877 30.3516 16.2773 30.3516 19.749C30.3516 22.3418 29.3115 27.2051 25.9424 27.2051C24.7266 27.2051 23.6865 26.3262 23.6865 25.0664C23.6865 23.2207 24.9756 21.4336 24.9756 19.5293C24.9756 16.2969 20.3906 16.8828 20.3906 20.7891C20.3906 21.6094 20.4932 22.5176 20.8594 23.2646C20.1855 26.165 18.8086 30.4863 18.8086 33.4746C18.8086 34.3975 18.9404 35.3057 19.0283 36.2285C19.1943 36.4141 19.1113 36.3945 19.3652 36.3018C21.8262 32.9326 21.7383 32.2734 22.8516 27.8643C23.4521 29.0068 25.0049 29.6221 26.2354 29.6221C31.4209 29.6221 33.75 24.5684 33.75 20.0127C33.75 15.1641 29.5605 12 24.9609 12Z" fill="#E1DECE"/>
</svg>
