<svg width="48" height="48" viewBox="0 0 48 48" fill="none" xmlns="http://www.w3.org/2000/svg">
<circle cx="24" cy="24" r="23" stroke="#E1DECE" stroke-width="2"/>
<path d="M34.8472 17.9418C35.0078 17.3993 34.8472 17 34.0747 17H31.5182C30.8672 17 30.5677 17.3429 30.4071 17.7248C30.4071 17.7248 29.105 20.8976 27.2648 22.9549C26.6701 23.5495 26.3967 23.7405 26.0712 23.7405C25.9106 23.7405 25.6632 23.5495 25.6632 23.0069V17.9418C25.6632 17.2908 25.4809 17 24.9427 17H20.9236C20.5156 17 20.2726 17.3038 20.2726 17.5859C20.2726 18.2023 21.1927 18.3455 21.2882 20.0816V23.849C21.2882 24.6736 21.1406 24.8255 20.8151 24.8255C19.947 24.8255 17.8377 21.6398 16.5877 17.9939C16.3359 17.2865 16.0885 17 15.4332 17H12.8767C12.1476 17 12 17.3429 12 17.7248C12 18.4019 12.8681 21.7656 16.0408 26.2101C18.1545 29.2439 21.1319 30.8889 23.8403 30.8889C25.4679 30.8889 25.6675 30.5243 25.6675 29.895C25.6675 26.9957 25.52 26.7222 26.3359 26.7222C26.7135 26.7222 27.3646 26.9132 28.8837 28.3759C30.6198 30.112 30.9062 30.8889 31.8785 30.8889H34.4349C35.1641 30.8889 35.533 30.5243 35.3203 29.8038C34.8342 28.2891 31.5486 25.1727 31.401 24.9644C31.0234 24.4783 31.1319 24.2613 31.401 23.8273C31.4054 23.8229 34.526 19.4306 34.8472 17.9418V17.9418Z" fill="#E1DECE"/>
</svg>
