<svg width="134" height="134" viewBox="0 0 134 134" fill="none" xmlns="http://www.w3.org/2000/svg">
<path fill-rule="evenodd" clip-rule="evenodd" d="M45.8737 10.8012C43.6074 12.1177 43.4309 12.6604 43.22 18.9777L43.0286 24.7071L39.9826 24.8271C22.5684 25.5131 9.01818 40.4005 10.0559 57.7067C10.3253 62.1989 11.0319 65.0776 12.8163 68.9516C16.3366 76.5946 22.5535 82.3344 30.5888 85.3602L33.8423 86.5855L34.0467 91.1176C34.2408 95.4228 34.2075 95.7037 33.3769 96.7331C32.8957 97.3291 32.4073 98.1957 32.2914 98.659C32.175 99.1224 32.1321 103.651 32.1957 108.722L32.3113 117.942L33.4695 119.816C34.1868 120.977 35.3416 122.133 36.5018 122.851C38.1331 123.861 38.726 124.01 41.085 124C45.094 123.983 47.4411 122.565 49.3041 119.034C50.0615 117.598 50.1098 116.929 50.1098 107.837V98.1677L48.9718 96.87C47.9525 95.7071 47.8725 95.4369 48.2063 94.2718C48.4111 93.557 48.5787 91.4932 48.5787 89.6857V86.3996L50.7796 85.7086C56.4575 83.9257 62.0864 79.9129 66.1277 74.7661L66.8767 73.8125L67.5408 75.2068C68.1862 76.5624 68.18 76.6606 67.3219 78.7336C66.458 80.8209 66.3899 80.881 64.1116 81.5617L61.7841 82.2573L61.68 89.1779L61.5758 96.0981L63.936 96.8136C66.231 97.5092 66.3225 97.5878 67.2342 99.6528L68.1724 101.776L67.0199 104.116L65.8674 106.456L70.7155 111.271L75.5636 116.086L77.8632 114.934L80.1628 113.782L82.2834 114.721C84.3449 115.634 84.4238 115.726 85.1185 118.024L85.8331 120.387L92.7339 120.283L99.6348 120.178L100.376 117.857C101.108 115.564 101.144 115.526 103.369 114.662L105.622 113.788L107.777 115.006L109.932 116.224L114.661 111.499C117.262 108.901 119.39 106.599 119.39 106.384C119.39 106.168 118.936 105.138 118.381 104.094L117.372 102.196L118.063 100.162C118.889 97.7289 118.976 97.6495 121.791 96.7699L124 96.0793L123.896 89.2124L123.792 82.3455L121.342 81.5238C118.945 80.7205 118.874 80.6576 118.12 78.6577L117.349 76.6126L118.37 74.5289C118.931 73.3829 119.39 72.2308 119.39 71.9687C119.39 71.3413 110.526 62.4975 109.897 62.4975C109.63 62.4975 108.537 62.9973 107.468 63.6086L105.526 64.7193L103.559 63.9294C101.541 63.1184 100.504 62.2526 100.861 61.6746C100.972 61.4949 105.375 61.3477 110.646 61.3477C121.39 61.3477 121.704 61.2803 123.182 58.6472C123.969 57.2445 123.983 56.8344 123.982 35.617C123.98 14.7373 123.955 13.9731 123.22 12.7658C122.801 12.0786 121.898 11.1741 121.212 10.7552C119.99 10.009 119.219 9.99368 83.6016 10.001C47.5372 10.0082 47.2279 10.0148 45.8737 10.8012ZM119.773 14.2065C120.519 14.9539 120.538 15.4839 120.538 35.5837C120.538 53.6181 120.464 56.3013 119.942 57.0464L119.347 57.8984H83.4649C56.0675 57.8984 47.4748 57.7895 47.1242 57.4384C46.7782 57.092 46.6649 51.7857 46.6649 35.9102C46.6649 16.8437 46.725 14.7753 47.2984 14.141C47.9035 13.4714 49.5272 13.44 83.4695 13.44C118.497 13.44 119.018 13.4511 119.773 14.2065ZM62.8432 17.6995C60.1799 18.4703 57.7746 21.8606 57.7673 24.8543C57.7639 26.1351 58.8104 28.429 59.9338 29.6029L60.9133 30.6273L58.6963 36.5016C57.4768 39.7329 56.3167 42.592 56.1184 42.8553C55.9197 43.1186 55.4114 43.3344 54.9885 43.3344C52.8125 43.3344 50.491 46.1357 50.4941 48.7579C50.4967 51.3806 53.1742 54.0615 55.7934 54.0642C60.1328 54.0692 62.7521 49.2075 60.3227 45.6573L59.4354 44.3608L61.8086 38.1945L64.1813 32.0282L65.8536 31.8166C66.773 31.7001 68.0549 31.3234 68.7014 30.9796L69.8776 30.3541L74.1626 33.4436L78.4477 36.5334L78.2058 38.3581C77.4506 44.0591 83.1044 48.4168 88.1948 46.0571C91.1501 44.6869 92.5965 42.4123 92.5965 39.1346V37.2842L96.5991 34.9122L100.602 32.5406L102.053 33.6743C104.788 35.8094 107.96 36.2356 110.969 34.8716C117.016 32.1305 118.475 24.768 113.882 20.1689C107.837 14.1164 97.9085 18.7114 98.3981 27.3347L98.5294 29.6504L94.7213 31.9174L90.9128 34.184L88.9741 33.2021C86.599 31.9987 84.1566 31.9212 82.0767 32.9833C80.8511 33.6087 80.4629 33.6609 79.9267 33.2707C79.5669 33.0089 77.642 31.6196 75.6497 30.1831L72.0268 27.5716L72.2155 25.8956C72.4976 23.391 72.0295 21.6314 70.6676 20.0788C68.5601 17.675 65.8142 16.8403 62.8432 17.6995ZM67.8126 22.2979C69.2878 23.8662 69.2422 25.6511 67.6874 27.2079C66.8415 28.0549 66.1487 28.3872 65.2289 28.3872C63.6359 28.3872 61.7427 26.8779 61.4051 25.3387C60.893 23.0043 63.4456 20.4717 65.8031 20.9749C66.3294 21.0872 67.2339 21.6828 67.8126 22.2979ZM110.316 21.7449C112.119 22.6674 112.947 24.4135 112.784 26.9503C112.669 28.7494 112.439 29.3668 111.537 30.31C109.223 32.7288 105.584 32.6422 103.368 30.1153C101.313 27.7713 101.414 24.6059 103.61 22.5578C105.569 20.7304 107.805 20.4594 110.316 21.7449ZM43.1454 30.2077L43.0286 32.0282L39.7752 32.2627C35.8878 32.5433 33.8863 33.0599 30.7446 34.5937C23.8908 37.94 19.321 43.9683 17.749 51.7382C15.32 63.7412 23.2424 76.0799 35.3581 79.1636C38.5637 79.9796 44.3438 79.9164 47.4316 79.0318C51.9631 77.7341 56.8598 74.6419 59.2961 71.5406C61.1747 69.149 62.7303 66.3934 63.531 64.0378L64.4458 61.3477H66.2727C67.5297 61.3477 68.0997 61.5052 68.0997 61.8528C68.0997 63.7876 65.4222 69.8872 63.4464 72.4531C60.1462 76.7403 55.395 80.259 50.3678 82.1389C47.6892 83.1411 46.5688 83.3351 42.5808 83.4884C36.7559 83.7122 33.4071 83.0334 28.7018 80.6748C21.6559 77.1431 16.6635 70.9266 14.2586 62.6891C13.361 59.6146 13.3545 52.8818 14.246 49.4666C17.4172 37.3187 28.2857 28.5286 40.2747 28.4155L43.2621 28.3872L43.1454 30.2077ZM43.22 46.9754C43.4279 59.047 43.4684 59.2766 45.6368 60.6003C46.7231 61.2634 47.5981 61.345 53.6503 61.3462C61.5257 61.3481 61.2405 61.1503 59.228 65.2148C57.6732 68.3553 53.3966 72.6946 50.4925 74.0785C41.8715 78.1867 32.6779 76.5536 26.3405 69.7887C19.7888 62.7949 19.0642 52.673 24.5285 44.4792C28.0469 39.204 34.8011 35.5787 40.7321 35.7822L43.0286 35.8608L43.22 46.9754ZM87.1823 36.2153C88.3333 36.8113 89.1517 38.252 89.1517 39.6819C89.1517 40.9145 87.4874 42.8139 86.1895 43.0623C83.6981 43.5394 81.1695 41.0973 81.6916 38.7176C81.9928 37.3444 83.9101 35.6692 85.1809 35.6692C85.7014 35.6692 86.6021 35.9148 87.1823 36.2153ZM98.338 45.0591V46.7838H107.524H116.711V45.0591V43.3344H107.524H98.338V45.0591ZM57.4956 47.5867C58.1114 48.5724 57.4983 50.1894 56.4039 50.4642C55.2912 50.744 53.9374 49.7583 53.9374 48.6679C53.9374 46.9857 56.6122 46.1728 57.4956 47.5867ZM98.338 52.3411V54.0657H100.06H101.783V52.3411V50.6164H100.06H98.338V52.3411ZM105.611 52.3411V54.0657H107.333H109.055V52.3411V50.6164H107.333H105.611V52.3411ZM112.883 52.3411V54.0657H114.797H116.711V52.3411V50.6164H114.797H112.883V52.3411ZM24.7785 56.1787C24.3471 56.611 25.3239 60.9077 26.3459 63.0724C27.6075 65.7445 29.4899 68.0287 31.687 69.553C33.6433 70.9105 37.8648 72.4623 39.601 72.4623C40.9081 72.4623 40.9234 72.4428 40.9234 70.7813V69.0999L39.2213 68.8443C36.7421 68.4722 33.0994 66.5106 31.5748 64.7273C29.8187 62.6726 28.6027 60.0393 28.378 57.8025L28.195 55.982H26.5847C25.6994 55.982 24.8864 56.0706 24.7785 56.1787ZM84.5585 62.0552C84.5585 62.55 83.8982 63.0482 82.3576 63.7155L80.1567 64.6687L77.7629 63.5001L75.3687 62.3312L72.8827 64.7986C71.5151 66.1557 70.3962 67.1675 70.3962 67.0468C70.3962 66.9265 70.5601 66.3278 70.7603 65.7165C70.9604 65.1056 71.3118 63.8726 71.5407 62.9766L71.9568 61.3477H78.2578C84.1275 61.3477 84.5585 61.396 84.5585 62.0552ZM97.6498 63.6864C98.3123 65.6778 98.4808 65.8683 99.9778 66.3167C100.865 66.5823 102.409 67.2143 103.41 67.721L105.228 68.6427L107.172 67.6562C109.386 66.5325 109.096 66.416 112.387 69.7557C115.458 72.8735 115.34 72.5551 114.238 74.7316L113.253 76.6782L114.173 78.4987C114.679 79.5001 115.311 81.0462 115.576 81.935C116.024 83.4339 116.214 83.6026 118.203 84.266L120.347 84.9808L120.455 89.2162L120.562 93.4516L118.269 94.1396C116.231 94.7509 115.949 94.9583 115.73 96.0049C115.594 96.6526 114.979 98.2528 114.363 99.5605L113.244 101.938L114.291 103.879L115.338 105.821L112.313 108.868L109.288 111.915L107.303 110.838C105.428 109.821 105.257 109.794 104.22 110.348C103.617 110.671 102.089 111.311 100.826 111.769C98.5837 112.584 98.5114 112.655 97.7715 114.762L97.0136 116.921H92.7933H88.5729L87.7848 114.727C87.0671 112.728 86.8616 112.493 85.4771 112.092C84.6412 111.85 83.0891 111.211 82.0281 110.672L80.0985 109.693L78.4618 110.624C77.5616 111.136 76.623 111.555 76.3762 111.555C76.1293 111.555 74.6457 110.263 73.0798 108.685L70.2324 105.815L71.228 103.782C72.1719 101.855 72.1922 101.691 71.6196 100.616C71.2873 99.9924 70.6393 98.4548 70.18 97.1988C69.3613 94.9609 69.3012 94.9008 67.1787 94.1925L65.0131 93.4697L65.121 89.2254L65.2289 84.9808L67.3908 84.2599C69.3417 83.6095 69.5764 83.4132 69.7945 82.2477C69.9277 81.5376 70.5279 79.9811 71.1281 78.7896L72.2197 76.6222L71.308 74.9052C70.8066 73.9609 70.3962 72.9774 70.3962 72.7199C70.3962 72.4623 71.6643 70.9902 73.2138 69.4491L76.0317 66.6467L78.0504 67.6708L80.0691 68.6952L82.6011 67.5359C83.9935 66.8985 85.5828 66.2673 86.1332 66.1331C86.9584 65.9327 87.2551 65.4892 87.8242 63.6067L88.5147 61.3239L92.7251 61.4316L96.9359 61.5393L97.6498 63.6864ZM88.0034 69.6196C78.788 72.0541 72.6928 79.8872 72.6928 89.2967C72.6928 94.8939 74.6488 99.6321 78.5036 103.375C82.7526 107.5 86.9466 109.255 92.5564 109.255C98.6247 109.255 102.612 107.647 106.803 103.507C115.546 94.8724 114.742 80.727 105.086 73.2675C100.276 69.5514 93.6315 68.1326 88.0034 69.6196ZM95.7023 72.8475C104.362 74.466 110.495 82.9825 109.171 91.5488C108.312 97.1064 104.668 101.991 99.5942 104.385C97.1667 105.531 96.7254 105.611 92.7879 105.613C88.8428 105.614 88.4145 105.537 85.9904 104.388C71.5725 97.5487 73.4381 77.214 88.865 73.0544C91.3147 72.3941 93.0015 72.3427 95.7023 72.8475ZM44.7511 90.4948C44.7511 92.5326 44.5773 93.9457 44.2918 94.2316C44.0208 94.5029 42.7182 94.6915 41.1148 94.6915C39.5114 94.6915 38.2089 94.5029 37.9379 94.2316C37.6523 93.9457 37.4786 92.5326 37.4786 90.4948V87.2179H41.1148H44.7511V90.4948ZM102.035 89.9965C101.936 90.3656 101.742 91.1682 101.605 91.7802C100.953 94.693 97.5893 97.7653 94.4147 98.3467C93.0065 98.6046 92.9793 98.6422 92.9793 100.341V102.073L94.6983 101.879C97.0286 101.616 100.387 99.8498 102.04 98.0171C103.621 96.2648 105.048 93.2815 105.419 90.9547L105.678 89.3258H103.947C102.624 89.3258 102.174 89.4834 102.035 89.9965ZM46.2056 98.984C46.5355 99.3144 46.6649 101.865 46.6649 108.041C46.6649 115.995 46.6071 116.732 45.8925 117.89C44.2474 120.556 41.3778 121.357 38.6671 119.909C35.7424 118.345 35.5648 117.658 35.5648 107.901C35.5648 101.834 35.6945 99.314 36.0241 98.984C36.3307 98.677 38.0229 98.5241 41.1148 98.5241C44.2068 98.5241 45.899 98.677 46.2056 98.984Z" fill="white"/>
</svg>
