<svg width="75" height="116" viewBox="0 0 75 116" fill="none" xmlns="http://www.w3.org/2000/svg">
<path fill-rule="evenodd" clip-rule="evenodd" d="M33.2246 0.38183C27.9599 1.5692 22.6205 5.2538 19.7481 9.68173C13.7346 18.9515 16.096 31.4463 25.0844 37.9214L27.3971 39.5875V52.2693V64.9511L25.717 65.1385C24.7925 65.2414 23.2923 65.665 22.3827 66.0801C20.1558 67.0955 16.2946 68.3579 13.3944 69.0183C6.11578 70.6757 1.12279 75.9672 0.312278 82.8822C-0.120222 86.5698 -0.0985016 98.5302 0.346573 101.92C1.22453 108.61 5.75149 113.656 12.4139 115.373C15.6601 116.209 59.7111 116.209 62.9573 115.373C67.7087 114.148 71.3958 111.226 73.5534 106.973L74.8387 104.439L74.9538 92.9156C75.0635 81.9436 75.0303 81.2889 74.261 79.2549C73.218 76.4976 70.9961 73.5914 68.6758 71.949C66.4417 70.3678 64.9167 69.7089 61.8991 69.0202C59.114 68.3843 55.236 67.105 52.9885 66.0801C52.0789 65.665 50.5787 65.2414 49.6542 65.1385L47.9741 64.9511V52.2784V39.6056L50.3847 37.8407C59.3982 31.2416 61.6499 18.6533 55.4528 9.50871C53.6835 6.89801 52.2111 6.26174 51.4018 7.75744C51.0306 8.44347 51.1887 8.89882 52.4916 10.8898C55.6052 15.6502 56.45 21.2131 54.8286 26.2788C50.7662 38.9693 34.4222 42.9999 25.1096 33.6077C21.4103 29.8771 19.7759 25.9957 19.7759 20.941C19.7759 15.7068 21.7113 11.4096 25.6876 7.81473C31.1288 2.89565 38.6241 1.87942 45.7785 5.0902C47.8903 6.03821 49.1173 5.69934 49.1173 4.16858C49.1173 1.42558 39.1378 -0.952165 33.2246 0.38183ZM25.5051 14.5141C24.9187 15.5982 24.9975 21.5154 25.6049 22.0145C25.877 22.2376 27.463 22.4706 29.1297 22.5317L32.1603 22.6432L32.2769 24.8917C32.4072 27.4006 32.8008 28.1089 34.0656 28.1089C35.3303 28.1089 35.7239 27.4006 35.8542 24.8917L35.9708 22.6432H37.6856H39.4004L39.517 24.8917C39.6473 27.4006 40.0409 28.1089 41.3056 28.1089C42.5704 28.1089 42.964 27.4006 43.0943 24.8917L43.2109 22.6432H44.9257H46.6404L46.757 24.8917C46.8214 26.1284 47.0566 27.3584 47.2802 27.6245C47.7916 28.2344 49.2011 28.2521 49.8032 27.6565C50.3866 27.0795 50.4415 15.5778 49.8661 14.5141C49.4252 13.6992 47.9882 13.545 47.2882 14.2374C47.0295 14.4934 46.831 15.7199 46.831 17.0645V19.4392H44.9257H43.0204V17.0645C43.0204 14.5149 42.6249 13.7851 41.2428 13.7851C40.0771 13.7851 39.5909 14.8323 39.5909 17.3412V19.4392H37.6856H35.7803V17.3412C35.7803 14.7881 35.2968 13.7851 34.0656 13.7851C32.8344 13.7851 32.3508 14.7881 32.3508 17.3412V19.4392H30.4455H28.5402V17.3412C28.5402 14.7881 28.0567 13.7851 26.8255 13.7851C26.3 13.7851 25.7292 14.1006 25.5051 14.5141ZM38.8288 41.9068C40.6102 41.7824 42.6252 41.5762 43.3062 41.4485L44.5446 41.2163L44.5362 58.5043C44.5267 77.9646 44.5481 77.8048 41.6627 79.982C40.4083 80.9285 39.8938 81.0691 37.6856 81.0691C35.4774 81.0691 34.9629 80.9285 33.7085 79.982C30.8212 77.8037 30.8445 77.976 30.835 58.4089L30.8266 41.0259L33.2082 41.5793C34.8547 41.9615 36.5897 42.0629 38.8288 41.9068ZM27.5022 72.6822C27.6383 75.3257 27.9591 77.4908 28.3543 78.4305C29.7802 81.8226 34.0221 84.6501 37.6856 84.6501C40.1328 84.6501 43.1465 83.3116 44.8742 81.4578C47.105 79.0634 47.6179 77.5613 47.869 72.6822L48.0873 68.4416H49.2751C51.1777 68.4416 53.0216 69.6297 53.9758 71.4707C54.736 72.937 54.8332 73.6833 54.8332 78.0536C54.8332 82.4182 54.7349 83.1743 53.9758 84.6557C53.4682 85.6467 52.5746 86.6399 51.7847 87.0915C50.5185 87.8156 49.8055 87.8541 37.6856 87.8541C23.5145 87.8541 23.4379 87.842 21.616 85.3154C20.801 84.1853 20.719 83.638 20.612 78.619C20.503 73.5228 20.5544 73.0407 21.3741 71.485C22.3507 69.6305 24.1954 68.4416 26.0961 68.4416H27.2839L27.5022 72.6822ZM17.4896 77.8772C17.4896 82.4717 17.6386 84.6501 18.0135 85.5378C18.8046 87.4108 20.7278 89.3784 22.6342 90.2646C24.2667 91.0238 24.9145 91.0581 37.6349 91.0581C51.9874 91.0581 52.3216 91.0177 54.7661 88.983C55.4086 88.4481 56.3296 87.3818 56.8128 86.6132C57.6248 85.321 57.7056 84.6893 57.8816 78.2507L58.0722 71.286L59.6615 72.7082C62.1156 74.9031 62.4543 76.3536 62.4543 84.6697C62.4543 92.5783 62.1331 94.1328 60.0563 96.2727C59.3841 96.9655 58.1484 97.8988 57.31 98.3474C55.8357 99.1356 55.2687 99.1684 40.0131 99.3508C25.5276 99.5238 24.2057 99.5932 23.8201 100.199C23.5137 100.68 23.5141 101.037 23.8208 101.518C24.211 102.13 25.4342 102.178 40.5854 102.178H56.929L58.7337 101.291C61.2418 100.058 63.49 97.7797 64.6831 95.2629C65.6823 93.1546 65.6933 93.0385 65.6933 84.6501C65.6933 77.4757 65.5935 75.951 65.0459 74.7554C64.3192 73.1688 64.3573 73.1262 65.8274 73.8782C67.37 74.6675 70.0236 77.6646 70.9668 79.6835C71.7315 81.3205 71.799 82.1445 71.9156 91.2465C72.02 99.4262 71.9373 101.425 71.416 103.332C70.3125 107.371 67.0266 110.765 63.0518 111.973C60.272 112.817 15.1579 112.826 12.2862 111.982C8.37316 110.832 5.07549 107.401 3.95175 103.309C3.43428 101.425 3.35121 99.4085 3.45562 91.2465C3.57222 82.1445 3.63967 81.3205 4.40445 79.6835C5.34757 77.6646 8.00125 74.6675 9.54377 73.8782C11.0139 73.1262 11.052 73.1688 10.3253 74.7554C9.77774 75.951 9.6779 77.4757 9.6779 84.6501C9.6779 93.0495 9.68781 93.152 10.6934 95.2745C11.9269 97.8769 14.717 100.612 17.0293 101.486C18.7101 102.121 18.749 102.118 19.412 101.308C20.3605 100.15 19.9565 99.1687 18.2101 98.39C16.2412 97.5117 13.8402 94.8983 13.3288 93.0766C12.7687 91.0799 12.7965 78.1622 13.365 76.2846C13.8028 74.839 16.4481 71.4571 17.1409 71.4571C17.3383 71.4571 17.4896 74.2461 17.4896 77.8772Z" fill="white"/>
</svg>
