<svg width="118" height="118" viewBox="0 0 118 118" fill="none" xmlns="http://www.w3.org/2000/svg">
<path fill-rule="evenodd" clip-rule="evenodd" d="M57.4628 0.766798C57.0401 1.18854 56.6942 1.87866 56.6942 2.3004C56.6942 3.28803 58.01 4.60079 59 4.60079C59.9899 4.60079 61.3057 3.28803 61.3057 2.3004C61.3057 1.31276 59.9899 0 59 0C58.5772 0 57.8855 0.345059 57.4628 0.766798ZM44.7815 2.15202C31.9471 5.9285 20.389 15.6584 14.3174 27.7964C11.8622 32.7047 9.42735 41.3009 9.42735 45.0605C9.42735 46.6685 9.09379 47.5415 8.4797 47.5415C7.59816 47.5415 4.6115 50.5029 3.59046 52.3896C2.18629 54.9844 0.204537 62.6175 0.204537 65.4321C0.204537 67.7463 0.464313 68.444 2.90913 72.6967L3.81527 74.2729L1.76819 79.1451C0.0266137 83.29 -0.216254 84.155 0.141899 84.9386C0.632629 86.0137 2.11904 86.5006 3.18005 85.9339C3.61928 85.6997 4.67184 83.7306 5.76013 81.1089C7.25192 77.5149 7.74572 76.6798 8.37902 76.6798C9.47385 76.6798 17.2425 78.2863 17.5961 78.5861C17.7563 78.7214 15.8952 87.1769 13.4604 97.3753C11.0256 107.574 9.12492 116.206 9.23674 116.558C9.34857 116.91 9.86812 117.426 10.3911 117.705C11.8107 118.463 13.1326 117.724 13.6203 115.899C14.0046 114.462 16.7791 102.818 19.8776 89.6418L21.4723 82.8587L24.5005 85.7008C27.6778 88.6825 33.0612 92.4813 36.6842 94.2974C44.6393 98.2851 54.8524 100.198 63.4619 99.3123C75.1487 98.1099 84.9299 93.6752 93.446 85.7169C95.108 84.1638 96.5072 83.0048 96.5556 83.1413C96.604 83.2778 98.296 90.3768 100.316 98.917C104.983 118.654 104.588 117.272 105.713 117.784C106.867 118.308 108.402 117.631 108.708 116.462C108.88 115.805 107.385 109.226 101.287 83.8019C100.633 81.0767 100.232 78.7291 100.397 78.5846C100.714 78.3055 108.721 76.6791 109.775 76.6795C110.212 76.6798 110.959 78.0221 112.24 81.1089C113.328 83.7306 114.381 85.6997 114.82 85.9339C115.881 86.5006 117.367 86.0137 117.858 84.9386C118.216 84.155 117.974 83.2904 116.234 79.1508L114.19 74.2844L115.017 72.8942C117.261 69.1269 117.788 67.6818 117.792 65.2856C117.796 62.5987 115.926 55.3184 114.509 52.5015C113.562 50.6202 111.041 48.1135 109.513 47.5338C108.711 47.2298 108.573 46.9277 108.573 45.4846C108.573 41.304 106.255 32.9305 103.678 27.7964C100.327 21.1238 94.8813 14.5546 89.039 10.1386C83.3747 5.85681 72.5571 1.1502 68.3807 1.1502C66.6629 1.1502 65.5862 2.61248 66.2433 4.05215C66.4831 4.57664 66.8966 5.07314 67.1625 5.15595C67.4288 5.23838 69.2891 5.76096 71.297 6.31727C85.6239 10.2851 97.2596 21.3599 102.031 35.5702C103.351 39.4986 104.34 45.3067 104.343 49.143L104.345 51.7025L102.281 52.8811C99.402 54.5243 99.2648 54.4726 99.5607 51.8547C99.8612 49.1982 99.1857 43.1631 98.1393 39.1546C97.2297 35.6703 94.6619 30.1072 92.5206 26.9825C84.3442 15.0503 69.0486 7.87579 55.2532 9.50255C47.3404 10.4354 40.4291 13.1307 34.5218 17.5873C25.4524 24.4294 20.0609 34.0286 18.6459 45.8519C18.3958 47.941 18.3124 50.7256 18.4588 52.0898L18.7232 54.5535L16.2849 53.1894L13.8466 51.8252L13.7233 49.779C13.6552 48.6537 13.784 46.1605 14.0088 44.2381C15.4003 32.3547 22.1037 20.8999 32.0513 13.4086C35.541 10.7804 42.307 7.50389 46.7029 6.31382C51.1421 5.11148 51.413 4.9746 51.8646 3.71015C52.1447 2.92687 52.0682 2.53657 51.5168 1.9285C50.5772 0.892553 48.8691 0.949296 44.7815 2.15202ZM67.9476 14.9108C78.3479 17.636 87.2217 25.0275 91.7478 34.736C92.5249 36.4018 93.2688 38.2165 93.4018 38.7682L93.6431 39.7715L82.7583 37.1318C66.1887 33.1134 61.5647 32.5061 53.8121 33.3281C49.3932 33.797 45.3636 34.6689 27.3623 39.0504L24.3541 39.7823L24.5923 38.7735C25.0262 36.9382 27.876 31.3398 29.5811 28.9742C35.1079 21.3055 43.2635 16.1216 52.5986 14.3437C56.4356 13.613 64.0702 13.8948 67.9476 14.9108ZM65.7249 37.9588C67.2044 38.1628 74.3313 39.7412 81.5628 41.4669L94.7107 44.6043L94.9401 46.1685C95.0665 47.0293 95.1157 49.1134 95.05 50.8004L94.9305 53.8676L83.5941 54.0593C72.5356 54.2464 72.2109 54.274 70.3463 55.1895C67.9038 56.3884 65.3187 58.9676 64.2531 61.2687C63.468 62.9641 63.4123 63.7209 63.302 74.2445C63.1675 87.0903 63.6187 85.8711 59 85.8711C54.3812 85.8711 54.8324 87.0903 54.6979 74.2445C54.5876 63.7209 54.5319 62.9641 53.7468 61.2687C52.6812 58.9676 50.0961 56.3884 47.6536 55.1895C45.789 54.274 45.4643 54.2464 34.4058 54.0593L23.0694 53.8676L22.9499 50.8004C22.8842 49.1134 22.9334 47.0312 23.059 46.1731L23.2877 44.6127L36.4363 41.4711C43.6682 39.7432 50.5361 38.1793 51.6986 37.996C54.6291 37.534 62.4889 37.5129 65.7249 37.9588ZM55.7335 42.7555C53.9236 43.7282 52.9225 44.8378 52.235 46.634C51.3977 48.8217 51.6713 51.6814 52.8898 53.4792C53.9912 55.1033 57.0643 56.7465 58.9792 56.7346C61.6872 56.7178 64.9587 54.4875 65.8925 52.0215C66.9738 49.166 65.8636 45.35 63.4073 43.4809C62.2222 42.5788 61.517 42.3625 59.4265 42.2606C57.6246 42.1724 56.5513 42.3162 55.7335 42.7555ZM60.9902 47.5511C61.922 48.4808 62.1034 48.9183 61.9048 49.7556C61.7687 50.3303 61.2995 51.1021 60.8626 51.4713C59.2109 52.8654 56.6105 51.9299 56.0951 49.7556C55.8965 48.9183 56.0779 48.4808 57.0097 47.5511C57.6492 46.9131 58.5446 46.3913 59 46.3913C59.4553 46.3913 60.3507 46.9131 60.9902 47.5511ZM14.146 57.118C18.0799 59.1903 18.8846 59.4809 20.2945 59.3383C21.1864 59.2478 22.181 59.0546 22.5041 58.9085C22.8269 58.7624 23.4322 58.8932 23.8491 59.1984C24.5262 59.6949 24.6031 60.1964 24.5743 63.9264C24.5451 67.7301 24.4478 68.2715 23.4752 70.0547C22.8884 71.1305 21.8524 72.5479 21.1734 73.2047L19.9387 74.399L13.91 73.1399L7.88137 71.8812L6.35923 69.6437C5.52226 68.413 4.7264 66.8173 4.59114 66.098C4.301 64.5545 6.41533 56.324 7.60277 54.3764C8.34866 53.1522 8.35596 53.1502 8.98619 53.94C9.33435 54.3764 11.6562 55.8068 14.146 57.118ZM110.648 54.7544C110.941 55.3211 111.738 57.8066 112.419 60.2784C113.871 65.5436 113.806 66.3706 111.693 69.613L110.212 71.8873L104.108 73.1545L98.0048 74.4212L96.2221 72.4582C94.0094 70.0206 93.3933 68.0327 93.3933 63.3264C93.3933 60.2102 93.491 59.6788 94.1508 59.1965C94.5677 58.892 95.173 58.7624 95.4958 58.9085C95.8189 59.0546 96.8112 59.2474 97.7008 59.3375C99.1134 59.4809 99.9223 59.1819 104.096 56.9727C106.724 55.5818 108.978 54.1735 109.105 53.8438C109.395 53.0904 109.96 53.424 110.648 54.7544ZM46.5576 59.6435C47.1413 60.0787 48.1478 61.0866 48.7941 61.8829L49.9693 63.3306L50.0826 74.0424L50.1956 84.7546L49.1219 84.5046C47.1859 84.0538 42.8374 82.1214 40.074 80.4835C37.0808 78.7096 31.9929 74.0697 30.0492 71.3422L28.7987 69.587L28.9497 64.1028L29.1004 58.6183L37.2983 58.7352C44.881 58.843 45.5758 58.9112 46.5576 59.6435ZM89.0509 64.1235L89.2012 69.587L87.9281 71.3724C86.16 73.8527 80.6812 78.9154 78.1058 80.449C75.7785 81.8346 70.5923 84.1186 68.8953 84.505L67.8385 84.7458V74.6033C67.8385 68.3846 67.9964 64.0434 68.2462 63.3816C68.7823 61.9634 70.8109 59.8513 72.2577 59.2049C73.0951 58.8311 75.5299 58.6861 81.1554 58.675L88.9003 58.6601L89.0509 64.1235ZM28.929 77.0153C33.0485 81.6058 39.5525 85.9282 45.4013 87.9621C54.103 90.9879 63.8969 90.9879 72.5986 87.9621C78.4793 85.9171 84.8738 81.6579 89.1478 76.9394L91.6341 74.1946L93.1862 75.7068C94.0397 76.5384 94.7383 77.3623 94.7383 77.5379C94.7383 77.7131 93.2496 79.3974 91.4297 81.2806C73.9025 99.4208 44.7327 99.6309 26.9553 81.7453C22.8477 77.613 22.875 77.682 24.6438 75.8747C25.4489 75.0523 26.2102 74.3794 26.3354 74.3794C26.4607 74.3794 27.6278 75.5657 28.929 77.0153Z" fill="white"/>
</svg>
