<svg width="117" height="117" viewBox="0 0 117 117" fill="none" xmlns="http://www.w3.org/2000/svg">
<path fill-rule="evenodd" clip-rule="evenodd" d="M23.3757 0.85695C22.3883 2.39489 20.0341 8.79573 20.2492 9.35675C20.5583 10.1627 22.0066 10.721 32.255 13.9862L41.5534 16.9486L46.8773 21.7094C49.8051 24.3278 52.8037 26.9981 53.5402 27.6429L54.8796 28.8156L53.6057 30.4023C52.4683 31.818 52.3793 32.0941 52.7766 32.9667C53.1287 33.7394 53.4507 33.92 54.311 33.8259C55.2039 33.728 56.283 32.6147 60.3032 27.6421C63 24.3069 65.3846 21.5193 65.602 21.4481C65.8193 21.3769 74.1265 27.0377 84.0625 34.0274C103.958 48.0238 103.822 47.9023 103.834 51.7178C103.841 53.9871 103.192 55.4789 100.827 58.6272C99.972 59.7644 99.2728 60.9257 99.2728 61.2068C99.2728 61.7274 101.912 69.5672 107.839 86.6471C112.022 98.7031 111.893 98.27 111.337 98.4536C105.257 100.461 99.5027 102.067 99.2782 101.82C99.1187 101.645 98.4259 99.9584 97.7385 98.0731C97.0511 96.1878 96.2628 94.3985 95.9868 94.0969C95.4806 93.5438 91.8129 93.724 73.116 95.2212C67.0343 95.7083 65.1471 95.033 62.4595 91.4079C61.8162 90.5403 56.2613 66.5926 56.2632 64.6936C56.2647 62.6457 56.6259 62.0428 62.3773 54.4925C64.8753 51.2124 66.9193 48.2006 66.9193 47.7995C66.9193 47.048 65.6058 45.0397 61.1273 38.9436C59.0818 36.1591 58.3433 35.4206 57.6042 35.4206C56.7504 35.4206 55.8811 36.3396 55.8811 37.2419C55.8811 37.4331 57.4953 39.8607 59.4677 42.6361L63.0548 47.6822L58.4575 53.8343C55.9294 57.2179 53.606 60.5863 53.2943 61.3195C52.3758 63.4817 52.6183 66.4326 54.2961 73.5072C55.1651 77.1731 56.479 82.7112 57.2155 85.8145C58.7205 92.1548 59.3825 93.7015 61.4508 95.7121C64.1057 98.2925 65.763 98.8467 70.5353 98.7503C72.8381 98.7034 78.9187 98.3428 84.0476 97.9482C89.1766 97.5536 93.477 97.2866 93.6041 97.3552C93.7316 97.4237 94.4799 99.2892 95.2671 101.501C96.8779 106.024 97.4005 106.562 99.5073 105.866C100.244 105.623 100.897 105.484 100.959 105.557C101.021 105.631 101.881 108.135 102.87 111.122C104.082 114.785 104.902 116.679 105.386 116.938C106.295 117.425 115.474 114.905 116.548 113.873C117.25 113.198 117.233 113.088 115.787 108.865C114.523 105.176 114.18 104.53 113.43 104.423C112.311 104.264 111.453 104.974 111.453 106.058C111.453 106.523 111.797 107.906 112.218 109.13C112.639 110.355 112.854 111.467 112.694 111.601C112.028 112.164 107.604 113.226 107.303 112.896C107.127 112.703 106.376 110.709 105.634 108.463L104.284 104.38L109.867 102.56C116.417 100.424 116.359 100.508 114.677 95.6698C111.469 86.4395 106.923 73.273 105.094 67.9146L102.99 61.7506L104.908 58.8823C107.287 55.3231 107.927 52.8905 107.292 49.8284C106.546 46.2322 105.248 44.6871 99.6005 40.6708C87.3062 31.9277 66.0366 17.0685 65.5468 16.8804C65.2381 16.7619 64.3626 17.3226 63.483 18.2027L61.9555 19.7312L55.207 14.1972C47.2084 7.6379 47.5 7.84128 44.6323 6.82894C38.4996 4.66371 24.6043 0 24.2865 0C24.0882 0 23.6783 0.385437 23.3757 0.85695ZM35.9604 7.54382L45.5382 10.8547L52.1497 16.2386C55.7859 19.1999 58.9661 21.8701 59.2169 22.1725C59.5834 22.6143 59.4415 23.0367 58.4929 24.3271C57.844 25.2099 57.1733 25.8818 57.0024 25.8205C56.5905 25.6719 46.0543 16.3407 44.8664 15.0716C44.1489 14.3057 41.7749 13.3814 34.3991 10.9964C29.1525 9.3 24.741 7.84166 24.596 7.75558C24.2108 7.52706 25.5236 4.18572 25.9887 4.21124C26.2053 4.22343 30.6925 5.7229 35.9604 7.54382ZM17.5852 22.3058C9.33273 31.1732 2.19402 43.3567 0.483475 51.4931C-0.45097 55.9382 -0.0577796 59.2742 1.89828 63.4958C3.01618 65.9089 7.16733 69.9949 10.0152 71.486C20.1883 76.8116 33.2001 72.9759 37.8906 63.2692C39.144 60.6743 39.3088 59.9796 39.4455 56.7038C39.6251 52.4007 39.2148 50.2016 37.3608 45.5269C34.9792 39.5237 30.2959 32.0785 24.5351 25.1372C20.0414 19.7224 20.0037 19.7072 17.5852 22.3058ZM24.2572 30.4693C29.2994 37.0663 33.2081 43.8164 35.0127 49.0434C35.7229 51.0997 35.8969 52.3988 35.8923 55.6065C35.8866 59.2377 35.7857 59.8086 34.7934 61.8116C32.8865 65.6602 28.2721 69.0515 23.6041 70.0352C17.6719 71.2852 11.9625 69.6018 7.69793 65.346C2.49701 60.1552 2.21915 53.8153 6.77452 44.2723C9.38602 38.8015 13.3613 32.7945 18.1508 27.0823L19.8727 25.0286L20.9735 26.3205C21.5787 27.0312 23.0563 28.8982 24.2572 30.4693ZM31.0648 51.0555C30.5254 51.3701 30.4303 51.9826 30.4904 54.7575C30.5509 57.5554 30.4276 58.3354 29.7116 59.681C28.8754 61.2532 26.4706 63.2341 24.7399 63.7765C23.0434 64.3082 22.9783 66.6859 24.6458 67.2153C25.5468 67.5017 28.6839 65.9718 30.5399 64.3409C31.2718 63.698 32.3486 62.1978 32.9329 61.0079C33.8525 59.1337 33.9945 58.3929 33.9933 55.4762C33.9918 52.3996 33.9142 52.0462 33.0947 51.3819C32.0746 50.5555 31.9547 50.5364 31.0648 51.0555ZM63.7022 60.4584C61.2689 63.2775 60.8292 63.997 60.8292 65.1632C60.8292 67.2363 65.2731 86.3649 66.0732 87.7356C66.8443 89.0565 68.8198 90.5346 70.3225 90.9143C71.6083 91.2396 86.3851 89.9108 86.9975 89.4149C87.664 88.8752 87.5905 87.4089 86.867 86.8082C86.3634 86.39 85.0251 86.4174 78.9487 86.9712C71.5173 87.6484 70.2837 87.5692 69.2727 86.35C69.0139 86.0385 68.3786 83.9209 67.8602 81.6448C64.6469 67.5341 64.2347 65.4805 64.5175 65.0029C64.6869 64.7168 65.6263 63.5742 66.6049 62.4644L68.3844 60.4462L70.1908 60.6941C71.1846 60.8305 72.0251 60.984 72.0586 61.0354C72.0917 61.0868 72.8994 63.6047 73.8532 66.6303L75.5874 72.1311L74.2986 74.9614C72.8419 78.1595 72.6946 79.4057 73.709 79.9488C75.1969 80.746 75.9341 80.0448 77.5461 76.3001C78.4002 74.315 79.0995 72.4587 79.0995 72.1746C79.0995 71.8908 78.3907 69.4125 77.5248 66.668C76.6589 63.9231 76.0586 61.5693 76.1911 61.4368C76.3235 61.3043 77.4053 61.3522 78.5947 61.5434L80.7579 61.8908L85.207 74.0785C91.1921 90.4737 90.6036 89.1985 92.1185 89.053C93.1702 88.9517 93.3925 88.7617 93.4941 87.8785C93.6201 86.7831 83.9605 59.6117 83.1494 58.7795C82.7367 58.3556 71.6037 57.13 68.1693 57.13C66.6384 57.13 66.4614 57.2617 63.7022 60.4584Z" fill="white"/>
</svg>
