<svg width="118" height="102" viewBox="0 0 118 102" fill="none" xmlns="http://www.w3.org/2000/svg">
<path fill-rule="evenodd" clip-rule="evenodd" d="M26.443 0.68147C24.939 1.20573 23.7319 2.05445 21.9348 3.85179C19.2142 6.57296 18.8263 7.78719 20.4404 8.52943C21.3309 8.93908 21.5906 8.78614 24.017 6.42234C27.8863 2.65227 29.5292 2.50436 33.6372 5.5562L35.998 7.30978L21.6125 21.8999C13.7004 29.9244 7.15916 36.4118 7.07667 36.3162C6.9938 36.2209 6.12478 35.0345 5.14603 33.6802C3.7038 31.6846 3.36617 30.9117 3.36617 29.6038C3.36617 28.7164 3.65047 27.5595 3.99808 27.0333C4.34607 26.5067 7.62648 23.0158 11.2879 19.2755C14.9496 15.5353 17.9458 12.2809 17.9458 12.0432C17.9458 11.3912 16.825 10.3945 16.0918 10.3945C15.29 10.3945 1.73748 24.0887 0.956317 25.6885C0.10226 27.4375 -0.181275 29.2069 0.111852 30.9574C0.392317 32.6316 1.83915 34.9397 7.06516 42.0473C10.7684 47.0839 11.1962 47.2698 13.532 44.856L15.0291 43.3088L16.108 44.3515L17.1865 45.3942L15.8766 46.7699C8.99235 54.0003 8.85807 65.9637 15.58 73.2185C17.9534 75.7798 20.2159 77.3072 23.425 78.5137C26.0251 79.4918 26.08 79.5417 26.7783 81.5516C27.1685 82.6756 28.1081 84.4474 28.8659 85.4893C30.1139 87.2054 33.209 89.6497 34.9233 90.2742C35.495 90.4821 35.5947 91.0351 35.5947 93.9905C35.5947 99.0135 36.5827 100.997 39.4756 101.783C41.3122 102.283 43.7037 101.394 44.834 99.7914C45.97 98.1814 47.5423 98.2678 49.0701 100.024C49.7783 100.838 50.8499 101.538 51.77 101.788C53.0814 102.144 53.5383 102.084 55.0266 101.357C55.9789 100.891 56.9446 100.098 57.1725 99.5924C57.4994 98.8683 57.8858 98.6739 58.9988 98.6739C60.1118 98.6739 60.4982 98.8683 60.8251 99.5924C61.053 100.098 62.0187 100.891 62.971 101.357C64.4592 102.084 64.9162 102.144 66.2276 101.788C67.1476 101.538 68.2192 100.838 68.9275 100.024C70.4553 98.2678 72.0276 98.1814 73.1636 99.7914C75.504 103.108 80.5486 102.4 81.9935 98.552C82.2298 97.9232 82.4029 94.4369 82.4029 90.3122C82.4029 84.924 82.521 83.1279 82.8824 83.0233C85.0168 82.4057 87.208 81.4169 88.077 80.6793C88.6491 80.1937 90.1531 79.58 91.4192 79.316C97.698 78.0061 101.246 75.3101 99.0796 73.4957C98.5908 73.0861 97.993 73.2402 95.5513 74.4048C93.9345 75.1761 92.5564 75.7511 92.4885 75.683C92.421 75.6144 92.571 74.66 92.8219 73.5619C93.2217 71.8138 93.4841 71.444 94.9294 70.5895C101.183 66.891 102.319 57.2283 97.1394 51.8053L95.8268 50.4316L97.2061 49.095L98.5854 47.7584L100.095 49.5008C104.443 54.518 105.317 61.6024 102.325 67.5593C101.321 69.558 101.202 70.0706 101.576 70.7769C102.3 72.1409 103.882 71.6941 104.935 69.8283C109.037 62.5595 107.843 52.7803 102.121 46.7699L100.811 45.3942L101.89 44.3515L102.969 43.3088L104.466 44.856C106.801 47.2698 107.229 47.0839 110.932 42.0473C116.158 34.9397 117.605 32.6316 117.886 30.9574C118.193 29.1241 117.885 27.3949 116.915 25.495C116.534 24.7496 111.074 18.97 104.78 12.6515C93.8121 1.63938 93.2481 1.13719 91.1813 0.538597C88.6686 -0.188547 86.1625 0.181994 84.1685 1.57549C77.7696 6.04754 72.0437 10.6563 72.0437 11.335C72.0437 11.7598 72.7761 12.8605 73.6712 13.7809L75.2984 15.4543L69.3303 21.4426L63.3619 27.4309H58.9988H54.6357L48.6672 21.4426L42.6992 15.4543L44.3264 13.7809C45.2215 12.8605 45.9539 11.7586 45.9539 11.3319C45.9539 10.1359 33.7078 1.09731 31.1967 0.439863C28.8298 -0.179641 28.9284 -0.184675 26.443 0.68147ZM90.7228 3.83049C91.949 4.29086 113.237 25.517 114.081 27.1212C115.144 29.1419 114.799 30.9865 112.852 33.6802C111.873 35.0345 111.013 36.2116 110.941 36.296C110.869 36.3804 104.344 29.9372 96.4411 21.9777C85.5647 11.0237 82.17 7.38645 82.4754 7.01513C82.6975 6.74526 83.9138 5.82684 85.1787 4.97464C87.556 3.37283 88.8121 3.11341 90.7228 3.83049ZM40.5161 10.6849L41.7638 11.7497L26.5972 27.0383C12.2559 41.4948 11.4007 42.2851 10.8827 41.5579C10.5811 41.1351 10.0697 40.4405 9.74627 40.0146C9.18496 39.2762 9.83682 38.5541 23.8133 24.4302C31.8735 16.2849 38.6484 9.62015 38.8686 9.62015C39.0884 9.62015 39.8301 10.0991 40.5161 10.6849ZM94.1647 24.3938L108.808 39.1674L107.832 40.6558C107.295 41.4743 106.748 42.1441 106.617 42.1441C106.486 42.1441 99.5864 35.2878 91.2841 26.9074L76.1897 11.6711L77.4738 10.6497C78.1801 10.0883 78.9298 9.62673 79.1397 9.62441C79.35 9.62208 86.1111 16.2682 94.1647 24.3938ZM40.2207 40.7654L28.7285 52.3629L23.0663 46.6619L17.404 40.9613L18.8152 39.5372L20.2259 38.1135L23.4515 41.2904C26.6421 44.4336 26.6973 44.4673 28.6472 44.4673C30.338 44.4673 30.8103 44.2884 31.9686 43.2089C33.402 41.8735 33.9841 39.9499 33.5198 38.0833C33.3825 37.5304 31.9487 35.6823 30.3338 33.9767L27.3972 30.875L29.0005 29.2573L30.6035 27.6392L33.6499 30.6953C36.5927 33.648 36.7672 33.7576 38.7888 33.9268C40.7409 34.0902 40.9754 34.0147 42.2798 32.7993C43.7762 31.4054 44.349 29.5182 43.8659 27.5753C43.7209 26.993 42.2868 25.1519 40.6788 23.4843L37.7548 20.4526L39.0601 19.0935L40.3649 17.7349L46.0391 23.4514L51.7128 29.1675L40.2207 40.7654ZM77.3257 23.4773C75.7139 25.1488 74.2767 26.993 74.1316 27.5753C73.6486 29.5182 74.2214 31.4054 75.7177 32.7993C77.0222 34.0147 77.2566 34.0902 79.2088 33.9268C81.2303 33.7576 81.4049 33.648 84.3477 30.6953L87.3941 27.6392L89.0151 29.2751L90.6357 30.911L88.1088 33.5268C84.7878 36.9651 84.3212 37.7325 84.3212 39.759C84.3212 41.2195 84.5322 41.6741 85.8106 42.9642C87.1619 44.3279 87.4869 44.4673 89.3109 44.4673C91.3102 44.4673 91.339 44.4499 94.5461 41.2904L97.7717 38.1135L99.174 39.5287L100.576 40.9439L94.9256 46.6545L89.2748 52.3652L77.7827 40.7727L66.2909 29.1802L71.9432 23.4665L77.5958 17.7527L78.926 19.0955L80.2566 20.4379L77.3257 23.4773ZM38.4093 25.8446C39.8155 27.3144 40.9661 28.7082 40.9661 28.9421C40.9661 29.4927 39.5561 30.9156 39.0106 30.9156C38.4707 30.9156 33.2927 25.8841 33.2927 25.3594C33.2927 24.8038 34.8696 23.1718 35.4067 23.1718C35.6519 23.1718 37.0032 24.3744 38.4093 25.8446ZM83.8171 24.0136C84.3051 24.4766 84.7049 25.0578 84.7049 25.3052C84.7049 25.8678 79.5606 30.9156 78.987 30.9156C78.7557 30.9156 78.2208 30.5671 77.7988 30.1412C77.3767 29.7153 77.0314 29.1756 77.0314 28.9421C77.0314 28.3973 82.0173 23.1718 82.5371 23.1718C82.7524 23.1718 83.3287 23.5505 83.8171 24.0136ZM75.4093 43.0238L87.4033 55.1324L86.7249 57.1462L86.0466 59.1604L80.6756 55.2362C77.7217 53.0776 72.8582 49.5081 69.8679 47.3035C63.4693 42.5867 61.8756 41.7752 58.9988 41.7705C55.2948 41.7643 54.1564 42.5971 43.4025 53.1791C37.9923 58.5029 33.4611 62.9022 33.3334 62.9552C33.2056 63.0087 32.5464 61.2663 31.8693 59.0833L30.6377 55.115L42.6098 43.0153L54.5819 30.9156H58.9988H63.4156L75.4093 43.0238ZM27.6795 36.193C30.3626 38.9003 30.8617 40.2233 29.4813 40.969C29.073 41.1893 28.623 41.3698 28.481 41.3698C28.3391 41.3698 26.9444 40.1184 25.3813 38.589L22.5399 35.8085L23.5758 34.7171C24.1455 34.1169 24.7299 33.626 24.8737 33.626C25.018 33.626 26.2807 34.7809 27.6795 36.193ZM94.4218 34.7171L95.4577 35.8085L92.6162 38.589C91.0532 40.1184 89.5315 41.3698 89.2349 41.3698C88.4545 41.3698 87.7735 40.564 87.7789 39.6468C87.7831 38.9227 92.4827 33.626 93.1208 33.626C93.2666 33.626 93.8521 34.1169 94.4218 34.7171ZM62.5505 46.2209C66.2498 48.7577 66.2855 53.8868 62.6234 56.7056C61.4155 57.6352 60.8005 57.8254 58.9988 57.8254C57.1971 57.8254 56.582 57.6352 55.3742 56.7056C50.3189 52.8147 52.7131 45.2417 58.9988 45.2417C60.6386 45.2417 61.4482 45.4647 62.5505 46.2209ZM20.943 49.232L22.1719 50.5117L20.9821 51.652C17.8391 54.6636 16.6846 60.3258 18.321 64.7026C19.3577 67.4745 22.0553 70.361 24.5779 71.3971L26.4142 72.1514L26.169 73.7002C26.0343 74.552 25.7999 75.3833 25.648 75.5478C25.4964 75.712 24.1563 75.2327 22.6703 74.4827C15.0832 70.6522 11.8051 61.59 15.1733 53.7599C15.9426 51.9722 18.8781 47.952 19.4141 47.952C19.5787 47.952 20.2666 48.5277 20.943 49.232ZM73.7242 54.3155C76.1962 56.1116 78.22 57.7088 78.222 57.8645C78.2239 58.0205 77.4822 58.3996 76.5733 58.7078C74.0092 59.5762 72.0659 61.2396 63.6063 69.805C59.2823 74.1834 55.637 77.7657 55.5058 77.7657C55.3746 77.7657 55.1778 76.6424 55.0684 75.2698C54.5052 68.1873 48.1067 61.8909 41.4734 61.8909C40.5614 61.8909 39.8105 61.76 39.8048 61.6005C39.7906 61.2005 49.1967 52.208 49.2903 52.5317C49.3318 52.6749 49.5478 53.5082 49.7703 54.3832C50.2829 56.3986 52.9241 59.4581 54.9553 60.3893C57.0282 61.3391 60.9747 61.3391 63.0274 60.3889C65.9502 59.0357 68.103 56.1171 68.4671 53.0122C68.5937 51.9327 68.8174 51.0495 68.9635 51.0495C69.1101 51.0495 71.2525 52.5193 73.7242 54.3155ZM26.0236 54.3612C27.0703 55.4499 27.6703 56.7575 28.9031 60.636L30.4608 65.5351L29.1141 67.3642L27.7674 69.1929L26.4779 68.6493C23.6567 67.4598 21.6635 65.0437 20.958 61.9578C20.6119 60.4459 20.6506 59.699 21.1686 57.902C21.7299 55.9533 23.7001 52.9855 24.4325 52.9855C24.5806 52.9855 25.2962 53.6046 26.0236 54.3612ZM95.0077 54.3352C96.0889 55.5777 97.3661 58.8309 97.3661 60.3421C97.3661 62.0624 96.1226 64.9528 94.8143 66.2731C94.0374 67.0571 93.2854 67.6987 93.143 67.6987C93.0011 67.6987 92.6458 66.9681 92.3538 66.0752C92.0618 65.182 91.194 63.6483 90.4255 62.6672L89.0277 60.883L89.7774 58.386C90.2839 56.6986 90.9764 55.419 91.9141 54.4374C92.6772 53.639 93.4212 52.9855 93.5674 52.9855C93.7139 52.9855 94.362 53.593 95.0077 54.3352ZM84.7049 62.2846C90.5609 65.2853 91.596 73.0098 86.7349 77.4284C84.741 79.2409 82.9212 79.8251 79.8791 79.6296C77.9365 79.5049 77.0947 79.2339 75.8033 78.3178C73.1747 76.4535 71.9148 74.3154 71.7314 71.4072C71.5384 68.3488 72.117 66.4992 73.8838 64.5257C76.8097 61.257 81.0048 60.3886 84.7049 62.2846ZM45.1866 66.208C53.9869 70.0617 53.9262 83.1182 45.0899 87.0567C42.5795 88.1757 38.5962 88.1803 36.0943 87.0667C28.8394 83.838 26.9525 74.3367 32.4344 68.6404C35.7328 65.2129 40.7352 64.2589 45.1866 66.208ZM78.3386 65.9842C76.9516 66.6746 75.496 69.0682 75.4983 70.6553C75.499 71.2651 75.8359 72.321 76.2472 73.0017C78.3655 76.5073 82.7167 76.5855 84.985 73.1589C87.7912 68.9195 82.9465 63.6897 78.3386 65.9842ZM81.9425 69.3249C82.1957 69.5805 82.4029 70.1554 82.4029 70.6026C82.4029 71.0498 82.1957 71.6248 81.9425 71.8804C81.6892 72.1359 81.1195 72.345 80.6763 72.345C80.2332 72.345 79.6634 72.1359 79.4102 71.8804C79.157 71.6248 78.9498 71.0498 78.9498 70.6026C78.9498 70.1554 79.157 69.5805 79.4102 69.3249C79.6634 69.0694 80.2332 68.8603 80.6763 68.8603C81.1195 68.8603 81.6892 69.0694 81.9425 69.3249ZM68.2069 71.5664C68.2069 73.2336 69.5268 76.4957 70.8984 78.2179L72.0797 79.7016H65.2576H58.4352L63.0274 75.0553C65.5531 72.4999 67.7515 70.409 67.913 70.409C68.0746 70.409 68.2069 70.9298 68.2069 71.5664ZM37.6508 72.3628C33.6023 74.9806 35.5905 81.65 40.4144 81.6318C42.39 81.6244 43.6135 80.9658 44.7296 79.3086C45.4709 78.2082 45.6059 77.6065 45.462 76.0473C45.3155 74.4606 45.0496 73.9174 43.8986 72.853C42.731 71.7731 42.2234 71.5718 40.6841 71.5772C39.5166 71.5815 38.4205 71.8653 37.6508 72.3628ZM41.7335 75.4425C42.1555 75.8684 42.5008 76.3911 42.5008 76.6041C42.5008 77.1392 41.0655 78.54 40.5169 78.54C39.8493 78.54 38.6641 77.3448 38.6641 76.6715C38.6641 75.9188 39.7791 74.6681 40.4501 74.6681C40.734 74.6681 41.3115 75.0166 41.7335 75.4425ZM60.1498 89.1878V95.1892H58.9988H57.8478V89.1878V83.1863H58.9988H60.1498V89.1878ZM66.9692 90.1128C67.0559 95.6647 66.9704 97.0055 66.4808 97.7598C65.7844 98.8323 64.8993 98.9268 63.9209 98.0331C63.2894 97.4566 63.2192 96.6784 63.2192 90.268V83.1437L65.0416 83.2618L66.8641 83.3799L66.9692 90.1128ZM72.0437 89.1878V95.1892H71.0845H70.1253V89.1878V83.1863H71.0845H72.0437V89.1878ZM78.9498 90.4655C78.9498 97.9685 78.8136 98.6739 77.3656 98.6739C77.0011 98.6739 76.4314 98.4002 76.0995 98.0657C75.5953 97.5565 75.4967 96.2919 75.4967 90.3219V83.1863H77.2233H78.9498V90.4655ZM54.1526 97.9557C53.2897 98.9179 52.2669 98.8621 51.539 97.8132C51.0736 97.1434 50.9417 95.8552 50.9417 91.991V87.0292L52.7641 85.2411L54.5865 83.4531L54.6917 90.3455C54.783 96.3504 54.7135 97.33 54.1526 97.9557ZM47.8723 92.4789C47.8723 95.1118 47.845 95.1892 46.9131 95.1892C45.9896 95.1892 45.9539 95.0967 45.9539 92.7046C45.9539 90.275 46.1503 89.8781 47.3927 89.7991C47.7334 89.7775 47.8723 90.5526 47.8723 92.4789ZM42.5008 94.3873C42.5008 97.6037 42.0343 98.6739 40.632 98.6739C39.3708 98.6739 39.0478 97.8287 39.0478 94.531V91.3173H40.7743H42.5008V94.3873Z" fill="white"/>
</svg>
