<svg width="108" height="100" viewBox="0 0 108 100" fill="none" xmlns="http://www.w3.org/2000/svg">
<path fill-rule="evenodd" clip-rule="evenodd" d="M39.298 0.323482C37.3043 0.765122 35.0317 2.31031 33.8459 4.03015C32.5547 5.90313 32.1455 8.61231 32.1455 15.287V21.3872H34.0277H35.91V18.6061V15.825H69.414H102.918V17.6791V19.5332H72.9902H43.0625V21.3872V23.2413H72.9902H102.918V25.7821C102.918 28.6078 102.075 30.3439 100.201 31.38C98.7299 32.1935 98.6031 31.7126 99.7181 29.5452C100.264 28.485 100.656 27.5717 100.59 27.5161C100.34 27.3036 98.052 26.2078 97.8588 26.2078C97.7474 26.2078 96.9746 27.5428 96.1419 29.1744L94.6278 32.1409H92.9322H91.2371L92.3966 29.8785C93.0343 28.6341 93.5026 27.5706 93.4371 27.5153C93.1092 27.2372 90.867 26.2078 90.5892 26.2078C90.4134 26.2078 89.6086 27.5428 88.8011 29.1744L87.3329 32.1409H85.7142C84.8239 32.1409 84.0955 32.0519 84.0955 31.9432C84.0955 31.8342 84.519 30.922 85.0366 29.916C85.5542 28.91 85.9777 27.9058 85.9777 27.6844C85.9777 27.3696 83.8256 26.2078 83.2417 26.2078C83.1732 26.2078 82.456 27.5428 81.6486 29.1744L80.1804 32.1409H78.5617C77.6714 32.1409 76.9429 32.0519 76.9429 31.9432C76.9429 31.8342 77.3664 30.922 77.8841 29.916C78.4017 28.91 78.8252 27.9451 78.8252 27.7719C78.8252 27.502 76.4822 26.2078 75.9932 26.2078C75.899 26.2078 75.1405 27.5428 74.3078 29.1744L72.7937 32.1409H70.7274H68.6611V33.8095V35.4782H70.7342H72.8076L74.3804 38.6023L75.9536 41.7268L77.3894 41.0052C79.0262 40.1827 79.1004 39.9072 78.1152 38.3031C77.7248 37.6671 77.2896 36.7712 77.1489 36.3125C76.9121 35.5427 77.0107 35.4782 78.419 35.4782H79.9463L81.4603 38.4447C82.293 40.0763 83.1363 41.4113 83.3339 41.4113C83.5316 41.4113 84.2814 41.135 84.9997 40.7976L86.306 40.1839L85.2007 38.0272C84.5928 36.841 84.0955 35.7723 84.0955 35.6529C84.0955 35.5335 84.8152 35.4867 85.6954 35.5498C87.2859 35.6629 87.3047 35.6814 88.8888 38.6795L90.4827 41.6949L91.9742 40.9681C93.5974 40.1772 93.5997 40.1394 92.182 37.402C91.385 35.8631 91.7125 35.4919 93.0192 36.4531C95.0091 37.9167 95.555 39.0406 95.7059 41.9864L95.8478 44.7486H85.8305H75.8136V46.4173V48.0859H85.7895H95.7654V49.94V51.7941H87.6717H79.5781V53.4627V55.1314H87.7128H95.8478L95.7059 57.8936C95.555 60.8394 95.0091 61.9633 93.0192 63.4269C91.6851 64.4081 91.4366 64.0525 92.2384 62.3096C92.6002 61.5228 93.0279 60.5879 93.1882 60.2327C93.4194 59.7221 93.1668 59.4366 91.987 58.8751L90.4932 58.1643L88.8945 61.1905C87.3043 64.1997 87.2863 64.2171 85.6954 64.3302C84.8152 64.3932 84.0955 64.3465 84.0955 64.2271C84.0955 64.1077 84.5928 63.039 85.2007 61.8528L86.306 59.6961L84.9997 59.0824C84.2814 58.745 83.5391 58.4687 83.3505 58.4687C82.6657 58.4687 79.5822 64.9135 79.58 66.3486C79.5781 67.6457 79.6537 67.7391 80.7033 67.7391C81.7325 67.7391 81.9572 67.992 83.3426 70.7056C84.1753 72.3372 84.9338 73.6721 85.0279 73.6721C85.517 73.6721 87.86 72.378 87.86 72.108C87.86 71.9349 87.4365 70.97 86.9188 69.964C86.4012 68.958 85.9777 68.0458 85.9777 67.9368C85.9777 67.8281 86.7062 67.7391 87.5965 67.7391H89.2152L90.6833 70.7056C91.4908 72.3372 92.2678 73.6721 92.4097 73.6721C92.6676 73.6721 94.036 73.0021 94.9124 72.447C95.2598 72.2267 95.0938 71.6304 94.2536 70.0789C93.6358 68.9387 93.1303 67.9456 93.1303 67.8722C93.1303 67.7992 93.8587 67.7391 94.749 67.7391H96.3677L97.8359 70.7056C98.6434 72.3372 99.4482 73.6721 99.624 73.6721C99.9022 73.6721 102.145 72.6424 102.473 72.3639C102.538 72.3083 102.146 71.395 101.6 70.3348C100.491 68.1778 100.613 67.6839 102.056 68.4907C103.91 69.5275 104.587 70.8858 104.741 73.8765L104.883 76.6387H90.3479H75.8136V78.4927V80.3468H90.3069H104.8V82.2009V84.055H88.4246H72.0491V85.7236V87.3923H88.4246H104.8L104.799 89.7099C104.799 91.1761 104.557 92.5014 104.141 93.3179C103.459 94.6554 100.955 96.6085 100.739 95.9711C100.672 95.772 101.05 94.7652 101.581 93.734L102.545 91.8591L101.044 91.1045L99.5427 90.3503L98.0264 93.3209L96.51 96.2919H94.8145H93.1193L94.2555 94.0751L95.3916 91.8584L93.8993 91.1086C93.0787 90.6963 92.3499 90.3588 92.2795 90.3588C92.2091 90.3588 91.4908 91.6937 90.6833 93.3253L89.2152 96.2919H87.5965C86.7062 96.2919 85.9777 96.2029 85.9777 96.0942C85.9777 95.9852 86.4012 95.073 86.9188 94.067C87.4365 93.0609 87.86 92.0961 87.86 91.9229C87.86 91.6759 85.535 90.3588 85.0991 90.3588C85.0441 90.3588 84.3383 91.6937 83.5308 93.3253L82.0627 96.2919H80.4439C79.5536 96.2919 78.8252 96.2029 78.8252 96.0942C78.8252 95.9852 79.2487 95.073 79.7663 94.067C80.2839 93.0609 80.7074 92.0961 80.7074 91.9229C80.7074 91.653 78.3644 90.3588 77.8754 90.3588C77.7813 90.3588 77.0228 91.6937 76.19 93.3253L74.676 96.2919H72.9804H71.2853L72.4214 94.0751L73.5575 91.8584L72.0566 91.1042L70.5561 90.3503L69.0398 93.3209L67.5234 96.2919H63.5748H59.6263V98.1459V100H79.3714C91.9975 100 99.7949 99.8569 100.998 99.6025C103.304 99.1152 105.572 97.5493 106.958 95.4876L108 93.9361V82.1994V70.4627L106.858 68.6435C105.227 66.0445 103.076 64.7296 100.063 64.4911C98.7348 64.3862 97.6477 64.2579 97.6477 64.206C97.6477 64.1544 97.9827 63.3846 98.3923 62.4954C99.0804 61.0021 99.1369 60.0466 99.1369 49.94C99.1369 39.8334 99.0804 38.8778 98.3923 37.3846C97.9827 36.4954 97.6477 35.7218 97.6477 35.6651C97.6477 35.6087 98.396 35.4519 99.3104 35.3169C101.352 35.0154 103.686 33.4035 105.075 31.3373L106.118 29.7866L106.235 18.6339C106.314 11.1535 106.214 7.01632 105.931 6.06815C105.371 4.19071 103.131 1.79858 101.036 0.840398C99.3669 0.0768901 98.9046 0.0646527 70.1669 0.00680563C51.6376 -0.0302759 40.3739 0.0854184 39.298 0.323482ZM45.3197 6.45046C46.0666 7.92259 46.775 9.22304 46.894 9.33985C47.176 9.61759 49.8386 8.3672 49.8386 7.95708C49.8386 7.78391 49.4151 6.81905 48.8975 5.81302C48.3799 4.807 47.9563 3.8948 47.9563 3.78578C47.9563 3.67713 48.6848 3.58814 49.5751 3.58814H51.1938L52.662 6.55465C53.4694 8.18624 54.1877 9.52117 54.2581 9.52117C54.3285 9.52117 55.0573 9.18373 55.878 8.77139L57.3702 8.0216L56.2341 5.80487L55.098 3.58814H56.7284H58.3588L59.6383 6.09114C61.495 9.72364 61.3546 9.61351 63.0523 8.76026L64.5228 8.0216L63.3866 5.80487L62.2505 3.58814H63.9457H65.6412L67.1462 6.53686C68.649 9.48112 68.6532 9.4852 69.7637 9.10401C71.6749 8.44766 71.8281 7.94484 70.753 5.85456C70.2237 4.82554 69.7904 3.88516 69.7904 3.76464C69.7904 3.64413 70.5008 3.59667 71.3692 3.6597C72.921 3.77169 72.971 3.81915 74.3063 6.45046C75.0532 7.92259 75.7616 9.22304 75.8806 9.33985C76.1626 9.61759 78.8252 8.3672 78.8252 7.95708C78.8252 7.78391 78.4017 6.81905 77.8841 5.81302C77.3664 4.807 76.9429 3.8948 76.9429 3.78578C76.9429 3.67713 77.6714 3.58814 78.5617 3.58814H80.1804L81.6486 6.55465C82.456 8.18624 83.1743 9.52117 83.2447 9.52117C83.3151 9.52117 84.0439 9.18373 84.8646 8.77139L86.3568 8.0216L85.2207 5.80487L84.0846 3.58814H85.715H87.3454L88.6249 6.09114C90.4816 9.72364 90.3411 9.61351 92.0389 8.76026L93.5093 8.0216L92.3732 5.80487L91.2371 3.58814H92.9322H94.6278L96.1328 6.53686C97.6356 9.48112 97.6397 9.4852 98.7503 9.10401C100.661 8.44766 100.815 7.94484 99.7396 5.85456C99.2103 4.82554 98.777 3.89999 98.777 3.79765C98.777 3.44204 100.099 4.0739 100.977 4.84854C102.413 6.11598 102.918 7.4702 102.918 10.0589V12.4877H69.414H35.91L35.9156 9.98469C35.9209 7.55697 36.4415 5.81896 37.2411 5.55976C37.4557 5.49042 38.0855 6.34626 38.6411 7.46204C39.6312 9.45035 39.6733 9.48298 40.7703 9.10623C42.6887 8.44766 42.8423 7.94632 41.7664 5.85456C41.2371 4.82554 40.8038 3.88516 40.8038 3.76464C40.8038 3.64413 41.5142 3.59667 42.3826 3.6597C43.9344 3.77169 43.9844 3.81915 45.3197 6.45046ZM32.5219 25.3183C16.428 28.2251 4.96283 38.3624 0.83356 53.3367C0.102872 55.9861 -0.016086 57.3055 0.0016071 62.5477C0.0245705 69.2691 0.488356 71.7094 2.76851 77.1048C5.25345 82.9844 10.8671 89.7114 16.2898 93.3086C29.1998 101.872 46.3497 101.851 59.1836 93.2567C61.7186 91.5591 66.5936 86.8305 68.4789 84.2404C76.379 73.3877 77.7689 58.8344 72.06 46.7439C68.1811 38.5293 60.753 31.4037 52.5705 28.0482C47.691 26.0473 44.519 25.4113 38.7333 25.2734C35.8347 25.2044 33.0395 25.2244 32.5219 25.3183ZM35.91 30.2868V32.1409H37.604H39.298V30.4941C39.298 29.5882 39.4373 28.7624 39.6075 28.6589C39.9165 28.4709 44.5258 29.009 44.784 29.2634C44.8589 29.3371 44.7268 30.0187 44.49 30.7785C43.9788 32.4194 44.263 32.8202 46.1509 33.1221C47.438 33.3275 47.4888 33.2908 47.7391 31.9766C47.8814 31.2298 48.218 30.5353 48.4871 30.4336C49.0526 30.2201 53.2278 31.9518 53.224 32.3986C53.2229 32.5629 52.8852 33.1977 52.4737 33.8095C52.0623 34.4214 51.7246 35.0165 51.7235 35.1319C51.722 35.2472 52.3913 35.7129 53.2112 36.1668L54.7016 36.9919L55.4774 35.4934C55.9043 34.6691 56.3421 33.995 56.4502 33.995C56.5586 33.995 57.5791 34.6884 58.7187 35.5357L60.7903 37.0764L59.6436 38.2419C59.013 38.8827 58.4969 39.5372 58.4969 39.6962C58.4969 39.8549 58.9825 40.4634 59.5762 41.0482L60.6555 42.111L61.7171 41.0197C62.3009 40.4193 62.9665 39.928 63.1958 39.928C63.675 39.928 66.4024 43.3313 66.4024 43.9298C66.4024 44.1486 66.1061 44.4271 65.7436 44.548C65.3811 44.6692 64.7599 45.0111 64.3631 45.3081C63.6539 45.8388 63.6539 45.8703 64.3545 47.1522C65.1842 48.6696 65.4059 48.7133 67.1037 47.6936C67.7997 47.2757 68.4043 46.9842 68.4472 47.0462C68.9645 47.7974 70.4439 51.8074 70.2448 51.9187C70.0983 52.0006 69.3436 52.2691 68.5669 52.5157C66.9817 53.0192 67.0133 52.9447 67.5599 54.883C67.8731 55.9939 68.0983 56.2498 68.5929 56.0566C68.9411 55.9209 69.7509 55.7229 70.3923 55.6168C71.536 55.4273 71.5642 55.4585 71.804 57.1831C72.2836 60.6276 72.2561 60.6936 70.3551 60.6936H68.6611V62.3623V64.031H70.3551C72.0197 64.031 72.0487 64.0517 72.0273 65.2361C71.993 67.1391 71.4716 69.4137 71.0846 69.3477C70.8904 69.3147 70.1145 69.1742 69.3605 69.0358C68.0425 68.7937 67.9718 68.8356 67.5456 70.1082C66.9987 71.7409 67.2019 72.0943 68.8666 72.4021C69.5864 72.5349 70.2421 72.7507 70.3242 72.8812C70.4658 73.1067 68.8553 77.3124 68.4898 77.6725C68.3945 77.7663 67.7038 77.4867 66.9542 77.051C65.4048 76.1507 65.1292 76.2319 64.2848 77.8405C63.626 79.0961 63.5865 79.0282 65.8143 80.4859C66.5296 80.9535 66.5262 80.9887 65.6589 82.2309C65.1717 82.9281 64.4305 83.8766 64.0115 84.3383L63.2496 85.1778L61.996 83.9812L60.7424 82.7846L59.5393 83.9693L58.3366 85.1544L59.5514 86.3892L60.7662 87.6241L59.9139 88.3746C58.9148 89.2545 56.772 90.7296 56.4931 90.7296C56.3866 90.7296 55.9333 90.1456 55.4853 89.4318C55.0374 88.718 54.5578 88.1347 54.4192 88.1354C54.2811 88.1362 53.6136 88.4695 52.9364 88.8763L51.705 89.6157L52.4922 91.1357C52.9251 91.9715 53.2104 92.7231 53.1265 92.8058C53.0425 92.8885 51.9719 93.3617 50.7473 93.8571L48.521 94.7578L48.0674 93.7633C47.8178 93.2167 47.6063 92.4769 47.5968 92.1202C47.5769 91.3633 47.4741 91.35 45.6035 91.8617C44.1124 92.2696 43.9509 92.653 44.5822 94.2887C44.7972 94.8449 44.8393 95.4312 44.6763 95.5914C44.5133 95.7512 43.2368 95.9974 41.839 96.1383L39.298 96.3942V94.6744V92.9545H37.604H35.91V94.6232C35.91 96.4958 35.843 96.5229 32.3461 96.0505C30.5953 95.8142 30.5636 95.7864 30.756 94.6599C30.8637 94.028 31.0647 93.2304 31.2025 92.8874C31.3986 92.4002 31.1389 92.1784 30.011 91.8699C28.0234 91.3259 28.0877 91.2973 27.5837 92.9545C27.2727 93.9769 26.9204 94.4378 26.449 94.4378C25.9235 94.4378 23.7646 93.5964 22.0551 92.7257C21.9923 92.6935 22.2882 92.1061 22.7124 91.4205C23.7477 89.7481 23.7032 89.5297 22.1628 88.7124C20.8614 88.0223 20.8294 88.0223 20.2907 88.7209C19.9892 89.1118 19.6421 89.724 19.519 90.0807C19.3963 90.4374 19.1136 90.7296 18.8915 90.7296C18.2839 90.7296 14.8288 88.0431 14.8288 87.571C14.8288 87.3452 15.3276 86.6896 15.9371 86.1145L17.045 85.0688L15.9661 84.0056C15.3724 83.4209 14.7547 82.9425 14.5935 82.9425C14.432 82.9425 13.7789 83.4398 13.1423 84.0479L11.9844 85.1533L10.395 83.1487C9.52088 82.0463 8.80563 81.0517 8.80563 80.9386C8.80563 80.8252 9.49001 80.3887 10.3269 79.9682L11.8481 79.204L11.0105 77.7359C10.5497 76.9283 10.0769 76.269 9.95982 76.2704C9.84274 76.2716 9.23854 76.6042 8.6174 77.0095C7.99626 77.4148 7.35178 77.7474 7.18501 77.7485C6.73139 77.7522 4.97337 73.6395 5.19021 73.0826C5.29335 72.8174 5.99844 72.4859 6.75661 72.3457C8.09075 72.0992 8.12802 72.0491 7.91946 70.7813C7.61303 68.9216 7.20609 68.6417 5.54031 69.1452C4.76896 69.3785 4.07705 69.5086 4.00213 69.4348C3.74389 69.1805 3.19766 64.6402 3.38852 64.3358C3.49355 64.1682 4.3319 64.031 5.25157 64.031H6.92338V62.3623V60.6936H5.00801H3.09263L3.33431 59.1177C3.46682 58.2507 3.66822 57.0674 3.78116 56.4875C3.9995 55.3687 3.83123 55.3936 7.05551 55.9984C7.23207 56.0314 7.59572 55.3472 7.86413 54.4784L8.35238 52.898L6.69676 52.4875C5.78613 52.2617 5.04113 51.8671 5.04113 51.6109C5.04113 51.3543 5.46878 50.1921 5.99167 49.0278L6.94183 46.9112L8.27182 47.684C9.00326 48.1089 9.75767 48.4567 9.9489 48.4567C10.1398 48.4567 10.6227 47.826 11.0222 47.0547L11.7483 45.653L10.2715 44.8157C8.59369 43.8649 8.62117 43.6855 10.817 41.2258L12.141 39.7426L13.3784 40.9425L14.6157 42.1425L15.8528 40.9615L17.0898 39.7804L15.8652 38.5237L14.6406 37.2674L16.1464 35.9695C18.6483 33.8133 18.826 33.7877 19.7908 35.4389L20.6408 36.8936L22.0638 36.1783C22.8468 35.7849 23.4871 35.3091 23.4871 35.1211C23.4871 34.9327 23.134 34.1896 22.7026 33.4691L21.9181 32.159L24.0669 31.2231C25.2489 30.7081 26.4287 30.2868 26.6892 30.2868C26.9493 30.2868 27.3499 31.0206 27.5791 31.9177L27.9959 33.5485L29.6003 33.0731C31.251 32.5844 31.2887 32.5028 30.8196 30.404C30.564 29.2611 30.6017 29.2159 32.0092 28.989C32.8088 28.8599 33.7172 28.7012 34.0277 28.6363C35.7944 28.2681 35.91 28.3697 35.91 30.2868ZM37.7922 37.4128V39.084L40.2915 39.3362C46.9791 40.0111 54.1105 44.393 57.61 49.9778L58.9306 52.0855L60.404 51.4763C61.2145 51.1411 61.8789 50.7117 61.8812 50.5222C61.8914 49.6141 58.4792 45.201 56.0142 42.9334C51.6373 38.9068 46.076 36.4256 40.3724 35.9547L37.7922 35.7415V37.4128ZM23.0749 39.9755C19.9858 41.9363 16.1633 45.8291 14.3485 48.8624C12.5799 51.8185 11.0783 56.3862 10.7948 59.6739L10.5787 62.1769H12.3273C13.9822 62.1769 14.0763 62.1224 14.0823 61.1571C14.097 58.8989 15.2772 54.7754 16.7532 51.826C18.5203 48.2947 22.0555 44.4775 25.2056 42.6991C26.2273 42.1221 27.1176 41.6126 27.1839 41.5666C27.3217 41.471 25.7944 38.4447 25.6084 38.4447C25.5411 38.4447 24.4012 39.1333 23.0749 39.9755ZM33.4631 43.3284C30.18 43.9406 26.3869 46.0123 23.6965 48.6629C15.8546 56.387 15.8912 68.6127 23.7785 76.2319C27.8491 80.1644 31.9091 81.8037 37.6191 81.8212C43.186 81.8379 47.4816 80.1317 51.4641 76.3231C55.4469 72.5137 57.3755 67.9501 57.3585 62.3771C57.3409 56.7526 55.6766 52.7534 51.6843 48.7437C46.9083 43.9461 40.4469 42.0261 33.4631 43.3284ZM39.4637 51.6246C39.4829 56.0425 39.592 56.991 40.1827 57.8795C40.8543 58.8889 40.9593 58.9182 43.0934 58.6801C45.5267 58.409 48.4476 57.5105 50.8972 56.2794L52.4847 55.4818L52.8829 56.5116C53.102 57.0782 53.3708 57.9804 53.4804 58.5169C53.6731 59.4622 53.6012 59.5052 51.1411 59.9272C48.5308 60.3751 44.1828 62.1053 42.9857 63.1725C42.6138 63.504 42.3096 64.0562 42.3096 64.3999C42.3096 65.6588 44.7046 69.6959 46.7287 71.8496C49.0206 74.2877 49.01 74.5406 46.5593 75.9619L45.4883 76.5834L44.2348 74.2013C42.6409 71.1736 38.9953 67.3683 37.6883 67.3683C36.4182 67.3683 32.5057 71.507 31.0018 74.4412L29.8653 76.6598L28.1818 75.5188C27.2562 74.8914 26.4987 74.2907 26.4987 74.1839C26.4987 74.0771 27.3036 73.1704 28.2869 72.1689C30.9311 69.4764 32.9575 66.0052 32.8208 64.4018C32.7188 63.2048 32.5167 63.0097 30.2226 61.8925C28.8546 61.2257 26.3982 60.4033 24.7641 60.0644C23.1299 59.7254 21.7336 59.4054 21.6606 59.3531C21.4219 59.1826 22.8009 55.4611 23.0531 55.5949C26.8308 57.5981 32.3574 59.1466 34.1482 58.7042C34.8853 58.5218 35.2211 58.1154 35.4947 57.0745C36.1761 54.4836 36.3425 51.6153 35.9495 49.2366C35.7338 47.932 35.6521 46.7135 35.7677 46.5292C35.8836 46.3449 36.7574 46.2441 37.7094 46.3056L39.4411 46.4173L39.4637 51.6246ZM32.3288 48.5494C32.6006 50.0549 32.6966 51.9235 32.598 53.7883L32.5219 55.2263L31.0391 54.9927C29.1723 54.6987 24.9929 52.9328 24.9929 52.4382C24.9929 51.5671 30.6521 47.3636 31.8462 47.3476C31.9919 47.3458 32.2091 47.8868 32.3288 48.5494ZM46.655 49.0374C47.6992 49.7294 49.0398 50.7955 49.6342 51.4066L50.715 52.5179L48.1649 53.6934C46.7622 54.3397 44.9982 54.8859 44.2446 54.9074L42.8743 54.946L42.7549 52.7211C42.6894 51.4974 42.7433 49.7794 42.875 48.9032C43.0877 47.4833 43.2029 47.3358 43.9351 47.5449C44.3869 47.6739 45.6107 48.3455 46.655 49.0374ZM36.5014 61.2762C35.808 61.9596 35.7703 62.3393 36.2996 63.3138C36.7351 64.1155 38.1547 64.2672 38.8463 63.586C39.5378 62.9048 39.3838 61.5065 38.57 61.0774C37.5807 60.5561 37.1952 60.5931 36.5014 61.2762ZM61.1264 64.1237C61.1038 70.5109 55.7632 79.244 50.0554 82.2265C49.1079 82.7215 48.3328 83.3437 48.3328 83.6092C48.3328 84.2893 49.4189 86.2799 49.79 86.2799C50.5881 86.2799 55.1364 82.9848 57.0762 81.0013C60.9469 77.044 63.3411 72.3491 64.3262 66.7846C65.1179 62.3126 65.1906 62.5477 63.0143 62.5477H61.1321L61.1264 64.1237ZM24.5412 63.4803C25.8452 63.7833 27.4188 64.2887 28.0377 64.6039L29.1629 65.1771L28.3467 66.6074C27.898 67.3939 26.7724 68.8171 25.846 69.7693C24.1794 71.4825 24.155 71.4929 23.6001 70.7127C22.8724 69.6892 21.7555 66.498 21.4235 64.4945C21.1204 62.6664 21.085 62.6775 24.5412 63.4803ZM53.8222 64.8653C53.6821 65.9358 53.0629 67.8834 52.4459 69.1927L51.3241 71.5733L49.9922 70.3051C48.5011 68.8853 46.4506 65.9944 46.4506 65.3118C46.4506 64.8074 51.5228 63.1302 53.5575 62.9615C53.9675 62.9274 54.0232 63.3275 53.8222 64.8653ZM39.4162 73.2086C41.0575 75.4124 42.1579 77.6536 41.7811 78.0244C41.4216 78.3789 33.809 78.4008 33.4514 78.0485C32.843 77.4493 36.7875 71.4473 37.7896 71.4473C37.9627 71.4473 38.6949 72.2397 39.4162 73.2086ZM14.557 73.5991L13.3441 74.2365L14.4719 76.1818C16.0357 78.8788 20.0916 83.0089 22.8622 84.7265C26.7269 87.1216 30.4774 88.395 35.6276 89.0606L37.4158 89.292V87.4149V85.5382H35.8008C29.653 85.5382 21.5311 80.7933 17.9808 75.1276C17.2238 73.9191 16.4163 72.9376 16.187 72.9461C15.9578 72.9546 15.2241 73.2483 14.557 73.5991Z" fill="white"/>
</svg>
