<svg width="118" height="118" viewBox="0 0 118 118" fill="none" xmlns="http://www.w3.org/2000/svg">
<path fill-rule="evenodd" clip-rule="evenodd" d="M73.3492 0.590625C72.4813 0.898685 71.0644 1.75534 70.2007 2.49499L68.6304 3.83925L65.2766 3.39308C59.9238 2.68067 49.7421 3.13797 44.8188 4.31227C26.0118 8.79851 11.1385 21.5655 4.03707 39.319C1.24367 46.3019 -0.402148 56.1848 0.0849614 63.0492C0.358433 66.8997 0.812557 67.7403 2.40391 67.3409L3.39539 67.0919V61.6815C3.39539 54.7822 4.20583 49.3668 6.10402 43.5854C11.9367 25.8185 26.5864 12.176 44.4871 7.84057C51.2882 6.19362 59.508 5.74554 64.9805 6.72419C66.0341 6.91255 66.1389 7.05335 65.9881 8.08073C65.8953 8.71104 66.1143 9.87998 66.4741 10.6783L67.1284 12.1296L63.4529 18.4918C61.4312 21.9913 59.7773 25.1038 59.7773 25.4088C59.7773 26.2251 60.7623 26.9019 61.7415 26.7584C62.3923 26.6629 63.3393 25.3409 65.6939 21.2406C70.4776 12.9103 70.3341 13.1148 71.5837 12.8405C72.2097 12.7031 73.1187 12.168 73.6039 11.6512C74.5068 10.6898 76.0088 10.4374 77.0202 11.0769C77.4686 11.3608 77.1859 11.8453 75.5803 13.5433C73.3753 15.875 72.818 16.9857 72.818 19.0473C72.818 21.4358 74.3495 23.4576 77.3554 25.0378C84.0929 28.5788 89.4748 33.9619 93.015 40.7009C94.0774 42.7226 94.7924 43.5793 96.0171 44.2971C98.9597 46.0219 101.458 45.4299 104.763 42.2251C106.272 40.7615 106.664 40.547 106.962 41.0197C108.046 42.7349 106.732 45.1035 104.945 44.6546C103.935 44.401 102.735 45.2393 102.735 46.1984C102.735 46.8463 103.781 47.9247 104.409 47.9247C104.667 47.9247 105.043 48.4822 105.245 49.1635C105.75 50.8707 107.86 52.2441 109.709 52.0703C111.017 51.9471 111.136 52.0223 111.328 53.0961C112.338 58.7528 111.829 67.1406 110.051 74.1102C105.279 92.8227 90.6447 107.613 71.667 112.904C67.7939 113.984 62.3168 114.674 57.6099 114.676C33.967 114.683 13.052 99.3445 5.84052 76.7093C5.26711 74.9093 4.63387 73.2209 4.43327 72.9569C3.90436 72.2614 2.26238 72.3684 1.9751 73.1173C1.33457 74.7865 4.33854 83.3109 7.49477 88.7819C13.9591 99.9856 24.2149 109.049 35.7482 113.75C58.3102 122.945 84.524 116.889 100.516 98.7844C107.116 91.3135 111.452 82.9407 113.741 73.25C114.926 68.2336 115.369 58.2065 114.642 52.8825L114.175 49.4669L115.538 47.8745C117.263 45.8592 118.243 43.0035 117.948 40.8528C117.827 39.9674 117.138 37.8459 116.419 36.1391C112.581 27.0377 106.922 19.1252 99.7084 12.7772C96.5364 9.98586 95.3294 9.44915 94.3735 10.4052C93.4898 11.2891 93.9302 12.1461 96.3105 14.1748C101.079 18.2394 105.668 23.5109 108.644 28.3417C109.613 29.9146 110.406 31.3513 110.406 31.5347C110.406 31.7184 108.176 34.1 105.45 36.8273C101.027 41.2522 100.352 41.7866 99.1806 41.7866C97.6974 41.7866 97.1696 41.3032 95.6657 38.5663C93.7422 35.0664 91.4639 32.0131 88.7526 29.3011C86.0413 26.5892 82.9886 24.3104 79.4895 22.3865C76.739 20.8742 76.27 20.3574 76.27 18.8409C76.27 17.626 76.7486 17.0263 81.2734 12.5704C84.025 9.86041 86.3439 7.643 86.426 7.643C86.5085 7.643 87.0301 7.81563 87.5847 8.02663C89.0338 8.57753 90.1591 7.89658 90.0049 6.5623C89.9063 5.70756 89.3659 5.25909 86.8176 3.91751C82.9138 1.86199 77.7393 -0.0385369 76.1541 0.000593915C75.4795 0.0170902 74.2172 0.28295 73.3492 0.590625ZM80.0399 4.43005C81.4471 4.98402 82.7278 5.55333 82.8858 5.69566C83.0435 5.83761 82.5234 6.588 81.7298 7.36294L80.2869 8.77242L78.1076 7.96909C75.4599 6.99389 73.8616 7.2022 71.8741 8.78201C70.4204 9.93752 69.3661 9.96016 69.3661 8.83572C69.3661 8.17165 72.8011 4.61189 74.1604 3.86687C75.4162 3.17863 77.3251 3.36124 80.0399 4.43005ZM42.2107 12.3233C40.8767 13.6576 42.7914 16.1375 44.232 14.9417C45.3765 13.9918 44.721 11.863 43.2846 11.863C42.9471 11.863 42.4638 12.0702 42.2107 12.3233ZM80.9493 17.3106C79.9175 18.3426 80.7207 19.9193 82.2783 19.9193C83.4147 19.9193 84.1151 18.6595 83.5574 17.6175C83.1021 16.7666 81.6623 16.5974 80.9493 17.3106ZM92.8904 18.8056C91.5357 19.1981 89.8174 21.0208 89.4603 22.4452C88.819 24.9994 90.7839 28.0973 93.3502 28.5788C95.0923 28.9056 96.2809 28.5768 97.712 27.3722C100.462 25.0574 99.8226 20.649 96.5187 19.149C94.6861 18.3173 94.6041 18.3096 92.8904 18.8056ZM42.1382 19.7225C41.551 20.4303 41.9169 22.0558 42.7339 22.3692C43.6505 22.721 44.8188 21.9211 44.8188 20.9417C44.8188 19.3163 43.1174 18.5425 42.1382 19.7225ZM95.5131 22.4724C96.7681 23.6084 96.1567 25.2902 94.4886 25.2902C94.0456 25.2902 93.476 25.0831 93.2229 24.8299C92.2448 23.8516 92.9345 21.8375 94.2474 21.8375C94.5577 21.8375 95.1272 22.1233 95.5131 22.4724ZM20.7319 25.7506C19.4301 27.0527 20.9608 29.2221 22.5729 28.3593C23.9268 27.6346 23.3408 25.2902 21.8058 25.2902C21.4683 25.2902 20.985 25.4974 20.7319 25.7506ZM42.2272 26.885C41.1153 27.9972 42.1094 29.6752 43.743 29.4439C44.4736 29.3403 44.6271 29.0855 44.6271 27.9757C44.6271 26.8282 44.4874 26.6165 43.6655 26.5205C43.1366 26.4588 42.4895 26.6226 42.2272 26.885ZM53.4487 30.5518C47.2724 31.4058 40.7954 34.6778 36.2495 39.24C26.3141 49.2103 24.6878 64.9294 32.3523 76.9134C37.704 85.2812 47.3157 90.4979 57.3962 90.5056C69.9076 90.5152 80.3801 83.5959 85.387 72.0132C86.3819 69.7118 86.5794 68.8873 86.2737 68.3157C85.242 66.388 83.6307 67.2906 82.4754 70.4441C79.7821 77.7969 72.3094 84.3728 64.2978 86.4406C56.2053 88.5295 47.3365 86.5576 40.5495 81.1606C33.7354 75.7421 29.822 66.0373 30.9761 57.4197C32.2326 48.0387 37.6177 40.4009 45.7505 36.4659C49.856 34.4791 53.0851 33.7291 57.5005 33.736C68.0428 33.7525 77.006 39.2899 81.6527 48.6575C83.1206 51.6168 84.3245 56.2285 84.3245 58.8925C84.3245 61.022 84.9597 62.1192 86.1928 62.1192C87.88 62.1192 88.1842 60.0825 87.2341 55.1516C86.0394 48.9517 83.8217 44.5679 79.5589 39.9796C75.0691 35.1462 70.068 32.2962 63.8046 31.0014C60.6338 30.3458 56.2981 30.1574 53.4487 30.5518ZM77.4383 30.8318C77.1851 31.1368 77.0348 31.784 77.1034 32.2705C77.207 33.0013 77.4617 33.1548 78.5713 33.1548C79.6809 33.1548 79.9356 33.0013 80.0391 32.2705C80.1891 31.2116 79.501 30.2775 78.5713 30.2775C78.2011 30.2775 77.691 30.5269 77.4383 30.8318ZM24.3583 32.1301C23.1954 33.4152 23.8221 34.8811 25.5343 34.8811C26.1227 34.8811 26.5802 34.5405 26.8821 33.8771C27.286 32.9906 27.235 32.788 26.4479 32.1508C25.3433 31.2558 25.1507 31.2538 24.3583 32.1301ZM98.7445 34.6149C97.3062 35.6668 98.8354 38.2755 100.338 37.3337C101.282 36.7414 101.422 35.2249 100.589 34.6149C100.212 34.3394 99.797 34.1138 99.6665 34.1138C99.5361 34.1138 99.1215 34.3394 98.7445 34.6149ZM113.618 38.0158C114.703 40.7722 114.875 42.4982 114.197 43.826C113.504 45.1848 109.912 48.692 109.213 48.692C108.089 48.692 108.112 47.6374 109.267 46.1834C110.847 44.1954 111.055 42.5968 110.08 39.9486L109.277 37.7687L110.686 36.3255C111.461 35.5318 112.211 35.0116 112.353 35.1692C112.495 35.3273 113.064 36.6082 113.618 38.0158ZM54.8728 38.3872C51.4193 40.5988 51.8543 45.4192 55.676 47.2929C57.6106 48.2416 59.5219 47.8733 61.1581 46.2367C62.8668 44.5276 63.1679 42.6946 62.102 40.4922C60.7423 37.6828 57.4633 36.7279 54.8728 38.3872ZM27.7182 38.4719C27.5974 38.7873 27.5552 39.4464 27.6247 39.9363C27.7236 40.6341 27.9913 40.8275 28.8597 40.8275C30.2267 40.8275 31.0114 39.7978 30.395 38.8134C29.8485 37.9402 28.012 37.7062 27.7182 38.4719ZM58.9335 41.4796C59.1866 41.7328 59.3937 42.3025 59.3937 42.7456C59.3937 43.1887 59.1866 43.7584 58.9335 44.0116C58.6803 44.2648 58.1108 44.472 57.6678 44.472C57.2248 44.472 56.6552 44.2648 56.4021 44.0116C56.1489 43.7584 55.9418 43.1887 55.9418 42.7456C55.9418 42.3025 56.1489 41.7328 56.4021 41.4796C56.6552 41.2264 57.2248 41.0193 57.6678 41.0193C58.1108 41.0193 58.6803 41.2264 58.9335 41.4796ZM89.0038 44.9324C88.3622 45.5742 88.4293 46.9687 89.1304 47.5507C90.026 48.2942 91.612 47.444 91.612 46.2202C91.612 44.8315 89.9332 44.0028 89.0038 44.9324ZM39.9309 47.0005C37.3691 48.3061 36.3731 51.8282 37.8712 54.2854C38.6851 55.6205 40.754 56.7491 42.3837 56.7468C43.746 56.7453 45.7179 55.5706 46.5878 54.2428C47.4312 52.9553 47.4393 50.1955 46.6035 48.9195C45.1671 46.727 42.1631 45.8631 39.9309 47.0005ZM70.7085 46.9894C68.8828 47.9124 68.0236 49.3779 68.0236 51.5693C68.0236 53.8005 68.8851 55.2103 70.8174 56.1414C72.4931 56.949 73.8992 56.9049 75.3863 55.998C78.8589 53.8799 78.9364 49.5291 75.542 47.261C74.0366 46.2551 72.3485 46.1604 70.7085 46.9894ZM8.63737 48.1806C8.49661 48.321 8.38154 48.8412 8.38154 49.3361C8.38154 50.3512 9.35538 51.0341 17.2688 55.5687C20.6709 57.5183 22.3577 58.2814 22.8909 58.1118C23.7657 57.834 24.2168 56.9202 23.9211 56.0229C23.6495 55.1981 10.9747 47.9247 9.80873 47.9247C9.30513 47.9247 8.77775 48.0398 8.63737 48.1806ZM43.6943 50.6585C44.3731 51.928 43.5669 53.3808 42.2701 53.225C41.7159 53.1583 41.029 52.7505 40.7444 52.3189C40.3037 51.651 40.3148 51.4074 40.8184 50.6884C41.5805 49.6001 43.1193 49.584 43.6943 50.6585ZM74.2755 50.3033C74.5286 50.5565 74.7358 51.1262 74.7358 51.5693C74.7358 52.0124 74.5286 52.5821 74.2755 52.8353C74.0224 53.0885 73.4528 53.2956 73.0098 53.2956C72.5668 53.2956 71.9972 53.0885 71.7441 52.8353C71.4909 52.5821 71.2838 52.0124 71.2838 51.5693C71.2838 51.1262 71.4909 50.5565 71.7441 50.3033C71.9972 50.0501 72.5668 49.8429 73.0098 49.8429C73.4528 49.8429 74.0224 50.0501 74.2755 50.3033ZM54.9676 52.1693C54.3263 52.3557 53.0517 53.1506 52.1347 53.9355C45.9802 59.2048 49.5273 69.05 57.5677 69.0162C60.2027 69.0051 62.3559 67.9927 64.1152 65.9368C67.1783 62.3575 66.9861 57.7838 63.6312 54.4281C61.2563 52.053 58.1514 51.2436 54.9676 52.1693ZM60.1969 55.8081C63.4536 57.4922 63.7309 62.3801 60.7051 64.7606C59.085 66.035 57.3843 66.1654 55.3323 65.1718C52.3686 63.737 51.3442 60.2809 53.0916 57.6134C54.5246 55.4256 57.8327 54.585 60.1969 55.8081ZM92.0692 63.1083C90.9285 63.9074 91.0121 64.9865 92.2832 65.8658C94.5396 67.4276 104.973 73.2447 105.518 73.2447C106.4 73.2447 107.065 72.2046 106.816 71.2129C106.605 70.3697 105.132 69.4382 94.4664 63.4006C93.0369 62.5915 92.8409 62.5677 92.0692 63.1083ZM38.8657 65.6951C37.2966 67.2646 36.8402 69.2568 37.595 71.2409C39.1158 75.2376 45.029 75.4678 46.8632 71.6016C47.6702 69.9005 47.6702 68.9161 46.8632 67.2151C46.0006 65.3966 44.3068 64.4241 41.9997 64.4226C40.4034 64.4214 39.9589 64.6017 38.8657 65.6951ZM69.5145 65.6809C66.1308 68.7826 68.2676 74.3956 72.8318 74.3956C77.0167 74.3956 79.4193 69.9289 77.1215 66.4213C76.288 65.1488 74.6575 64.4211 72.6397 64.4211C71.1956 64.4211 70.6483 64.6416 69.5145 65.6809ZM43.4492 68.0928C43.7806 68.4247 44.0517 69.0166 44.0517 69.4083C44.0517 70.1698 43.0952 71.3265 42.465 71.3265C41.4409 71.3265 40.5998 70.4637 40.5998 69.4141C40.5998 67.7172 42.2897 66.9335 43.4492 68.0928ZM74.0343 68.1251C75.0027 69.0017 74.9118 70.0425 73.8026 70.7695C72.5119 71.6154 71.2838 70.9544 71.2838 69.4141C71.2838 67.7023 72.7885 66.9972 74.0343 68.1251ZM9.30551 73.7733C8.96952 74.6484 9.26332 75.6075 10.0116 76.079C10.9954 76.6985 12.0253 75.9144 12.0253 74.5456C12.0253 73.5742 11.8703 73.4215 10.776 73.316C9.93377 73.2347 9.45471 73.3839 9.30551 73.7733ZM16.6919 73.5006C16.275 73.9172 16.4 75.357 16.8964 75.8534C18.0524 77.0097 19.763 75.8618 19.3484 74.2087C19.1616 73.4649 18.8598 73.2447 18.0271 73.2447C17.4333 73.2447 16.8323 73.3598 16.6919 73.5006ZM23.7358 73.9889C23.1045 75.169 23.8735 76.3939 25.1488 76.2409C27.271 75.9861 27.271 73.5723 25.1488 73.3176C24.4623 73.2351 24.0289 73.4411 23.7358 73.9889ZM54.6435 74.0457C52.4058 75.8066 51.865 78.7257 53.3643 80.9511C54.4482 82.5593 55.681 83.2069 57.6678 83.2111C60.5122 83.2169 62.6102 81.1119 62.6087 78.2534C62.6071 75.1471 60.6119 73.2447 57.3552 73.2447C56.2187 73.2447 55.327 73.5082 54.6435 74.0457ZM58.7912 76.9164C59.6108 77.7367 59.5483 78.7406 58.6251 79.5762C57.4944 80.5993 55.9418 79.8374 55.9418 78.2592C55.9418 76.5413 57.6237 75.7487 58.7912 76.9164ZM84.9505 80.5779C84.2938 81.5155 84.4921 82.3092 85.5204 82.8597C86.5154 83.3922 87.7765 82.6637 87.7765 81.5561C87.7765 79.7753 85.9542 79.1442 84.9505 80.5779ZM88.8312 86.319C88.017 86.7931 87.951 88.3227 88.7169 88.9584C89.4764 89.5891 90.4498 89.334 91.1149 88.3304C91.6127 87.5792 91.5886 87.4158 90.8729 86.6999C89.9773 85.8041 89.7786 85.7669 88.8312 86.319ZM35.1768 88.3618C34.608 89.6109 35.3298 90.5965 36.6929 90.4319C38.7986 90.1768 38.7491 87.763 36.6331 87.5098C35.8579 87.4173 35.5162 87.6172 35.1768 88.3618ZM29.3123 91.4946C28.9809 91.8264 28.7097 92.3321 28.7097 92.6183C28.7097 93.29 29.7641 94.3446 30.4357 94.3446C30.9807 94.3446 32.1617 93.3345 32.1617 92.868C32.1617 92.2933 30.9416 90.8919 30.4414 90.8919C30.1519 90.8919 29.644 91.1631 29.3123 91.4946ZM70.7165 91.8974C69.9421 92.6724 70.0871 93.5198 71.1097 94.1977C71.7786 94.6412 72.0198 94.6304 72.7398 94.1259C73.7366 93.4277 73.8141 92.7103 72.9826 91.8782C72.212 91.1079 71.5001 91.114 70.7165 91.8974ZM92.0078 93.1707C91.3765 94.3508 92.1455 95.5757 93.4208 95.4226C94.7053 95.2684 95.4064 94.2081 94.8315 93.2896C94.201 92.2822 92.521 92.2116 92.0078 93.1707ZM52.8185 94.4294C52.4802 94.6991 50.7708 97.4233 49.0195 100.483C47.2686 103.542 45.5637 106.517 45.2315 107.093C44.446 108.455 45.0309 109.498 46.5789 109.498C47.6046 109.498 47.9517 109.024 51.618 102.616C55.2069 96.3438 55.5091 95.6643 55.0316 94.9435C54.383 93.9644 53.6228 93.788 52.8185 94.4294ZM23.0497 95.1721C21.9377 96.2843 22.9319 97.9623 24.5655 97.731C25.2961 97.6274 25.4495 97.3727 25.4495 96.2628C25.4495 95.1153 25.3099 94.9036 24.488 94.8077C23.9591 94.7459 23.312 94.9097 23.0497 95.1721ZM70.4523 99.5122C70.122 100.237 70.1351 100.598 70.5071 101.047C71.7383 102.53 74.1064 101.023 73.2016 99.3319C72.6071 98.2205 70.9923 98.3268 70.4523 99.5122ZM70.5071 106.441C69.7558 107.346 70.6145 108.923 71.8591 108.923C73.1038 108.923 73.9625 107.346 73.2112 106.441C72.943 106.118 72.3347 105.854 71.8591 105.854C71.3835 105.854 70.7752 106.118 70.5071 106.441Z" fill="white"/>
</svg>
