<svg width="99" height="116" viewBox="0 0 99 116" fill="none" xmlns="http://www.w3.org/2000/svg">
<path fill-rule="evenodd" clip-rule="evenodd" d="M45.3988 0.224884C42.0157 1.14629 39.4642 3.19879 38.0942 6.10065C37.2679 7.85105 37.2038 8.46431 37.2003 14.635C37.1965 21.5914 37.4189 22.7998 39.1475 25.2053C39.6897 25.96 39.8671 26.8659 39.8671 28.8826V31.5589H25.93C12.8269 31.5589 11.8514 31.6057 9.62074 32.3438C5.70042 33.6409 2.91087 36.1656 1.04341 40.1061L0 42.308V73.8087V105.309L1.24904 107.818C2.79642 110.925 5.81067 113.757 8.87109 114.979L11.0636 115.854L48.4059 115.957C89.5899 116.071 88.4278 116.13 92.2051 113.734C94.6345 112.193 96.2009 110.359 97.6255 107.386L98.8092 104.916L98.9355 94.0535C99.0454 84.5804 98.9832 83.0721 98.4499 82.2673C97.7132 81.1558 95.9781 81.0234 95.0755 82.0097C94.5528 82.5803 94.4494 84.233 94.3487 93.6073C94.2373 103.977 94.1889 104.617 93.4064 106.048C92.3378 108.003 90.5776 109.749 88.7895 110.627C87.4344 111.294 85.5299 111.333 50.0383 111.428C25.0426 111.495 12.2249 111.398 11.2364 111.135C9.02025 110.545 6.65837 108.563 5.45282 106.281L4.38728 104.265L4.3911 73.8521L4.39491 43.4395L5.29297 41.5325C6.34325 39.3024 8.72573 37.1424 10.8187 36.5227C11.8232 36.2251 16.7602 36.0848 26.234 36.0848H40.1711L40.3928 38.6307C40.5145 40.0311 40.7998 44.4861 41.0268 48.5311C41.2538 52.5762 41.5708 58.177 41.7318 60.9774C41.8928 63.7778 41.9581 66.1965 41.8768 66.3519C41.7959 66.5073 39.0789 66.6348 35.8388 66.6348H29.948V59.9021C29.948 51.2682 29.3299 49.3982 25.9399 47.7757C24.053 46.8727 22.4018 46.8199 20.5073 47.6025C18.6158 48.384 17.7651 49.1881 16.9315 50.9827C16.278 52.3895 16.2299 53.932 16.2223 73.8151L16.2139 95.139L17.0723 96.8189C19.2369 101.055 24.8107 101.707 28.0149 98.0989C29.6821 96.2218 29.9434 94.7045 29.9457 86.8977L29.948 79.8165L36.1474 79.9202L42.3468 80.0239L42.5376 88.1634L42.7283 96.3029L43.7973 97.6871C46.2855 100.909 50.5163 101.39 53.6244 98.8046C55.8845 96.9249 56.0447 96.2316 56.2038 87.6524L56.3491 79.8169L62.5096 79.9206L68.6705 80.0239L68.8613 88.2008C69.0726 97.2628 69.1333 97.4853 71.8957 99.3443C75.1965 101.565 79.8611 100.275 81.5962 96.6604C82.1429 95.521 82.2139 92.9073 82.2139 73.8627C82.2139 59.5415 82.0777 51.9968 81.8068 51.29C81.2285 49.7803 79.9737 48.5409 78.2081 47.7353C75.3689 46.4398 72.5798 47.0628 70.4426 49.4695C69.7826 50.2125 69.2088 50.8567 69.1672 50.9016C69.126 50.9461 68.9971 54.4619 68.8811 58.7144L68.6705 66.4462L62.6618 66.5499L56.6532 66.654L56.6585 65.0413C56.6616 64.1546 57.0038 57.913 57.4192 51.1712C57.8343 44.4295 58.1754 38.2773 58.1765 37.4992L58.1792 36.0848H72.6015H87.0235L89.0065 37.0617C90.0972 37.5991 91.5092 38.6597 92.1444 39.4189C94.1789 41.8505 94.422 43.4481 94.422 54.3873C94.422 63.4678 94.4777 64.3047 95.1197 64.8791C96.1155 65.77 97.696 65.667 98.406 64.6649C98.9046 63.9615 99 62.3344 99 54.5332C99 49.4216 98.8256 44.3254 98.6128 43.2079C97.7555 38.711 94.6085 34.7508 90.3086 32.7583L88.1272 31.7475L73.2905 31.6325L58.4543 31.5178L58.6912 28.9924C58.8571 27.2288 59.3042 25.7348 60.1752 24.038C61.4113 21.6294 61.4231 21.5555 61.5433 15.4278C61.686 8.16523 61.2339 6.12366 58.9018 3.50429C56.7974 1.14138 54.2493 0.145304 49.9769 0.0166922C48.0884 -0.0402589 46.0283 0.0532767 45.3988 0.224884ZM54.0124 5.2611C54.7205 5.73255 55.6903 6.69129 56.1671 7.39129C56.9809 8.58463 57.0347 9.04288 57.0347 14.7753C57.0347 20.4923 56.9794 20.9675 56.1763 22.1337C54.4981 24.5713 53.5752 24.9586 49.4439 24.9586C46.1065 24.9586 45.5797 24.8617 44.3161 24.0157C41.8905 22.3917 41.3931 20.8129 41.3931 14.7361C41.3931 10.0209 41.4835 9.28954 42.2514 7.78505C43.5432 5.25506 45.3279 4.41739 49.4435 4.40947C52.2316 4.40419 52.919 4.53242 54.0124 5.2611ZM51.2328 29.4891L54.3962 29.2541L54.1913 31.0664C54.0784 32.0632 53.4528 42.2137 52.8008 53.6228C51.5231 75.9759 51.5101 76.0638 49.4687 76.0638C47.752 76.0638 47.034 75.2763 46.8615 73.2041C46.6631 70.8239 44.4451 31.0754 44.4451 29.9013C44.4451 29.047 44.5084 29.0286 46.2572 29.3703C47.2541 29.5649 49.4928 29.6184 51.2328 29.4891ZM21.64 40.4437C20.4238 41.2855 20.5004 43.0449 21.7895 43.8796C22.683 44.4585 22.8925 44.468 23.7924 43.9709C25.175 43.2075 25.376 41.2991 24.1621 40.4584C23.0786 39.7082 22.7048 39.706 21.64 40.4437ZM74.5838 40.6108C74.1642 41.0256 73.8208 41.7045 73.8208 42.1194C73.8208 42.9627 75.084 44.3824 75.834 44.3824C76.8793 44.3824 78.0173 43.203 78.0173 42.1194C78.0173 41.422 77.7125 40.8197 77.1693 40.4437C76.0488 39.6675 75.5021 39.7029 74.5838 40.6108ZM24.6722 52.1726C25.3078 52.7413 25.3699 53.5349 25.3699 61.1003C25.3699 68.2977 25.4539 69.4959 26.0013 70.0937C26.5732 70.7187 27.358 70.7835 34.3498 70.7835C43.0946 70.7835 42.5208 70.552 42.5322 74.0837L42.5376 75.6866H34.6515C27.8486 75.6866 26.6693 75.7722 26.0677 76.3108C25.4302 76.8811 25.3699 77.6863 25.3699 85.6557C25.3699 92.9386 25.2719 94.5152 24.7759 95.2148C24.066 96.2169 22.4854 96.3199 21.4897 95.429C20.8297 94.8388 20.7919 93.6722 20.7919 73.8664C20.7919 54.9123 20.8518 52.8624 21.4233 52.2382C22.2096 51.3794 23.7508 51.3481 24.6722 52.1726ZM77.0861 52.0836C77.8007 52.6003 77.8304 53.3252 77.9353 72.9217C77.9952 84.0882 77.9521 93.5945 77.8396 94.0467C77.3474 96.0215 75.2217 96.6838 73.8208 95.2989C73.1017 94.588 73.0578 94.0418 73.0578 85.8054C73.0578 78.2026 72.9758 76.9765 72.4264 76.3764C71.853 75.75 71.0606 75.6866 63.7949 75.6866H55.7948L56.0332 74.508C56.1645 73.8596 56.2717 72.7565 56.2717 72.0564V70.7835H64.0654C70.6417 70.7835 71.9526 70.6911 72.4585 70.191C72.9666 69.6886 73.0578 68.3512 73.0578 61.4115C73.0578 54.6124 73.1585 53.0827 73.6518 52.3868C74.3393 51.4164 75.9645 51.2731 77.0861 52.0836ZM94.9725 72.4608C94.4464 73.2543 94.4323 73.5315 94.871 74.4408C95.8164 76.3994 99 75.7605 99 73.6122C99 71.6314 96.0762 70.7956 94.9725 72.4608ZM51.6936 87.4728C51.6936 94.0418 51.6395 94.5981 50.9306 95.2989C50.1615 96.0593 48.8068 96.2769 48.0312 95.7647C46.9435 95.0466 46.7341 93.6507 46.7341 87.1206V80.4011H49.2139H51.6936V87.4728ZM21.4233 103.909C20.0716 105.385 20.9292 107.462 22.8902 107.462C24.1957 107.462 24.9884 106.719 24.9884 105.495C24.9884 103.53 22.7009 102.513 21.4233 103.909ZM47.7096 104.058C47.383 104.519 47.1156 105.185 47.1156 105.539C47.1156 107.359 50.0787 108.051 51.1229 106.476C52.5989 104.249 49.2536 101.878 47.7096 104.058ZM74.4522 103.909C73.186 105.292 74.0409 107.462 75.8523 107.462C77.2314 107.462 78.0173 106.736 78.0173 105.463C78.0173 103.441 75.7752 102.463 74.4522 103.909Z" fill="white"/>
</svg>
