<svg width="101" height="116" viewBox="0 0 101 116" fill="none" xmlns="http://www.w3.org/2000/svg">
<path fill-rule="evenodd" clip-rule="evenodd" d="M41.8239 0.392288C31.8194 1.46285 24.5711 5.56725 21.4956 11.9028L20.2515 14.4664L20.1408 22.9548C20.0313 31.3305 20.0447 31.4994 21.1288 35.6678L22.2273 39.8924L19.3831 41.4427C8.23507 47.5194 1.20477 51.7519 0.635623 52.7298C-0.395383 54.5016 -0.168169 56.3074 1.28831 57.921C3.47469 60.3425 4.3171 60.1243 14.1014 54.6056C18.6825 52.0217 22.5671 49.8512 22.7334 49.7823C22.8997 49.7129 23.033 52.5957 23.0293 56.1883L23.0222 62.7199L12.2188 68.7491C0.677946 75.1898 0.0215482 75.7091 0.0189494 78.4015C0.0163505 80.8878 2.82721 83.2177 5.12534 82.6344C5.68521 82.4924 9.85861 80.2853 14.3999 77.7296C18.9409 75.1736 22.7415 73.0826 22.8462 73.0826C22.9506 73.0826 23.0349 75.4988 23.0337 78.4524C23.0315 83.4171 22.9179 84.3053 21.5286 90.2282C20.2548 95.6583 20.061 97.0074 20.2581 99.0837C21.1239 108.209 24.645 113.611 30.9373 115.468C32.7253 115.996 35.4648 116.059 52.4221 115.963L71.8575 115.852L73.9811 114.842C75.1495 114.286 76.8595 113.044 77.7814 112.081C80.5536 109.186 82.6517 103.817 82.3699 100.339C82.27 99.104 82.1141 98.8791 81.2928 98.7818C80.0231 98.6322 79.6637 99.1775 79.1165 102.083C78.518 105.259 76.9319 108.396 75.0518 110.12C72.2046 112.731 72.959 112.65 51.4853 112.646L32.132 112.642L30.2731 111.764C27.0891 110.258 25.3352 107.745 24.129 102.958C23.1143 98.9307 23.2082 97.3326 24.8923 89.9935L26.3774 83.5211L26.3759 63.3228L26.3748 43.1249L24.8982 37.4724L23.4221 31.82L23.4147 23.5095C23.4072 15.3889 23.4284 15.156 24.3373 13.305C24.8489 12.2631 25.6642 11.0324 26.1494 10.57L27.0312 9.72893L27.8561 11.4582C28.3098 12.4093 29.2773 13.6494 30.0065 14.2136C31.1823 15.124 31.6523 15.2397 34.1739 15.2397C36.7346 15.2397 37.1552 15.1319 38.4201 14.1529C40.4465 12.5842 41.2098 10.6069 41.2198 6.90235L41.228 3.84063L42.3882 3.60512C43.8733 3.30365 58.966 3.29612 60.444 3.59645L61.5604 3.82292L61.7152 7.1081C61.8414 9.78809 62.0479 10.7019 62.8361 12.0671C64.124 14.2972 66.2135 15.482 68.8595 15.482C72.0004 15.482 73.9191 14.1374 75.3236 10.951L76.0517 9.29973L77.2338 10.951C79.3949 13.9686 79.4684 14.3846 79.4684 23.5924V32.0412L77.9834 37.9921L76.4983 43.9429V63.371V82.7995L77.6169 87.8C78.2321 90.55 78.9279 93.0356 79.1629 93.3231C79.3979 93.611 80.0223 93.7953 80.5503 93.7331C81.901 93.5737 81.9474 92.3656 80.7942 87.3753C80.0461 84.1365 79.8397 82.2576 79.8397 78.6875C79.8397 74.5051 79.8928 74.1528 80.4894 74.383C80.8469 74.521 84.2355 76.3813 88.0198 78.5172C91.8045 80.6531 95.2736 82.521 95.7295 82.6676C97.9382 83.379 101.003 80.9108 101 78.4234C100.996 75.7856 100.342 75.2535 89.8639 69.3539L80.0253 63.8149L79.9236 57.3324C79.8679 53.7668 79.9206 50.8498 80.0413 50.8498C80.1619 50.8498 83.562 52.7136 87.5969 54.9911C91.6322 57.2691 95.4444 59.2365 96.0685 59.3631C99.4462 60.0489 102.201 55.8522 100.402 52.7611C99.6764 51.5153 100.526 52.0549 89.6782 45.9507C84.7775 43.1931 80.7144 40.8944 80.6487 40.8424C80.5833 40.7904 81.0537 38.7687 81.6938 36.3503L82.8581 31.9527L82.7411 23.0309L82.6242 14.1092L81.536 11.8482C79.1469 6.88502 73.9306 3.12278 67.2018 1.50958C61.2686 0.0874351 49.5091 -0.430325 41.8239 0.392288ZM37.8866 7.16274C37.8866 10.2128 37.5573 11.0467 36.0377 11.8444C33.2042 13.3314 30.4613 11.4914 30.4613 8.10255C30.4613 6.72675 30.3473 6.80965 34.1739 5.40296C37.8814 4.04035 37.8866 4.04261 37.8866 7.16274ZM68.3976 5.21228C72.8914 6.78177 73.3373 7.32892 72.2581 9.95126C71.1825 12.5642 68.2335 13.1441 66.2513 11.1322C65.0529 9.91584 64.989 9.71574 64.989 7.17555C64.989 4.07766 65.0492 4.04299 68.3976 5.21228ZM47.9108 23.9602C43.893 24.2036 38.9536 24.9154 36.6759 25.5802C32.5853 26.7736 29.3438 28.6656 29.3497 29.8564C29.3512 30.1074 30.1791 33.6164 31.1901 37.6541C32.419 42.5623 33.2413 45.1537 33.672 45.4732C34.0696 45.7683 35.4949 45.9511 37.4006 45.9511C39.9787 45.9511 40.6061 45.8286 41.2195 45.2061C41.9568 44.4577 41.8907 43.4188 41.0695 42.8479C40.8504 42.6956 39.5436 42.5687 38.1651 42.5653C36.7865 42.5623 35.659 42.4899 35.659 42.4047C35.659 42.3196 35.0041 39.6863 34.2037 36.553L32.7483 30.8557L33.5599 30.3161C36.6247 28.2779 42.4751 27.3151 51.6235 27.3437C59.7078 27.3686 63.3651 27.8355 67.2166 29.3334C70.5105 30.615 70.3913 30.0667 68.7889 36.5635L67.3562 42.3712L57.3859 42.4718C50.7881 42.5381 47.2477 42.713 46.9203 42.9888C46.174 43.6174 46.3255 44.7068 47.2511 45.3643C47.9494 45.861 49.652 45.9511 58.3478 45.9511C67.5998 45.9511 68.6932 45.8855 69.3622 45.2916C69.8894 44.8236 70.6026 42.6361 71.8166 37.7607C72.7582 33.9815 73.5282 30.4653 73.5282 29.9472C73.5282 26.5083 59.5979 23.2525 47.9108 23.9602ZM23.036 44.6084C23.036 45.8821 22.9532 45.9496 18.1167 48.6288C15.4109 50.1278 11.3073 52.4381 8.99691 53.7627C6.68689 55.0876 4.51498 56.1163 4.17045 56.0489C3.78693 55.9739 3.54449 55.5699 3.54449 55.0058C3.54449 54.0464 3.77059 53.8889 10.5985 50.095C12.0279 49.3007 15.2858 47.4561 17.8382 45.9959C20.3907 44.5361 22.6046 43.3351 22.7575 43.3272C22.9105 43.3197 23.036 43.8962 23.036 44.6084ZM88.9357 49.2509C96.53 53.5238 97.4748 54.1591 97.4748 54.996C97.4748 55.709 97.2806 55.937 96.6729 55.937C96.2318 55.937 92.2656 53.9021 87.859 51.415C79.9878 46.9723 79.8475 46.8716 79.8438 45.6684C79.8415 44.995 79.9652 44.4445 80.1181 44.4453C80.2711 44.446 84.2392 46.6086 88.9357 49.2509ZM23.036 67.9318C23.036 69.1813 22.9922 69.2118 14.0547 74.2214C9.11534 76.9903 4.72957 79.266 4.30893 79.278C3.17917 79.3108 3.08486 77.8031 4.17156 77.0853C5.70266 76.0739 22.4705 66.689 22.7575 66.6826C22.9105 66.6792 23.036 67.2414 23.036 67.9318ZM89.2416 72.7058C96.3614 76.6971 97.6452 77.5473 97.6523 78.2757C97.6567 78.7486 97.4087 79.2336 97.1013 79.3534C96.7776 79.4792 93.0267 77.6102 88.1932 74.9136C79.9073 70.2918 79.8441 70.247 79.8419 69.0042C79.8404 68.1443 79.9964 67.7901 80.3398 67.8737C80.6145 67.9408 84.6205 70.1151 89.2416 72.7058ZM44.9407 84.791C40.0437 85.3472 35.2985 86.9789 34.8081 88.2755C34.5675 88.9124 37.225 98.0862 37.884 98.8919C38.5467 99.7028 64.2792 99.7507 65.0752 98.9427C65.3555 98.6579 66.228 96.2047 67.0136 93.4912C68.6312 87.904 68.6174 87.8233 65.8378 86.6137C61.8726 84.8886 51.8121 84.011 44.9407 84.791ZM61.8333 88.7043C63.0585 89.0458 64.2079 89.4742 64.388 89.6562C64.5762 89.8473 64.3356 91.2362 63.8196 92.9342L62.9237 95.8806L51.5347 95.9801L40.1454 96.08L39.2146 93.0028C38.7027 91.3105 38.3644 89.7926 38.4636 89.6302C38.6325 89.3529 42.6444 88.3765 45.1263 88.0087C47.8488 87.6055 59.6536 88.0969 61.8333 88.7043Z" fill="white"/>
</svg>
