<svg width="117" height="117" viewBox="0 0 117 117" fill="none" xmlns="http://www.w3.org/2000/svg">
<path fill-rule="evenodd" clip-rule="evenodd" d="M52.0892 0.296366C43.0926 1.30574 31.8811 5.46286 25.9461 9.98998C24.3035 11.2428 24.169 12.8863 25.631 13.8446C26.7406 14.5712 27.0648 14.4557 31.1323 11.8834C32.285 11.1544 34.7712 9.88214 36.6573 9.05567C52.6618 2.04266 71.161 3.10767 85.9294 11.8929C90.5262 14.6272 93.4613 16.9706 97.4458 21.0889C122.957 47.4533 115.369 90.7838 82.3813 107.111C56.9424 119.702 26.1004 110.277 11.6238 85.4897C1.80197 68.6722 2.1007 47.3073 12.3962 30.2292C14.3566 26.977 14.4431 26.7286 13.9321 25.8137C13.1849 24.4759 11.3811 24.3166 10.299 25.4929C8.89604 27.0174 5.64544 33.0756 4.07521 37.0921C-6.59523 64.3843 4.28211 95.0743 29.7663 109.578C38.8151 114.728 47.6318 117 58.5667 117C65.359 117 69.2029 116.481 75.1241 114.764C94.0108 109.287 109.288 94.0089 114.765 75.1197C116.481 69.2022 117 65.3571 117 58.5659C117 51.7735 116.481 47.9296 114.764 42.0082C109.284 23.1087 94.0195 7.84397 75.1256 2.36883C68.0426 0.31618 59.0891 -0.489335 52.0892 0.296366ZM53.4151 11.6791C49.5938 12.1177 44.4117 13.4715 40.6707 15.0094C34.8364 17.4073 30.951 19.9678 26.0795 24.6253C16.4626 33.8193 11.5678 45.2673 11.5678 58.5659C11.5678 71.5463 16.0442 82.3979 25.165 91.5276C29.596 95.9629 32.5464 98.1466 37.4297 100.605C44.5291 104.18 50.5563 105.578 58.7572 105.552C65.383 105.531 69.9444 104.7 75.4701 102.509C82.2902 99.8041 86.3173 97.1559 91.5596 91.9288C95.9605 87.5408 98.148 84.5847 100.606 79.7032C104.133 72.6982 105.566 66.5921 105.566 58.5659C105.566 46.2782 101.4 35.5756 93.1896 26.7679C86.3326 19.4123 78.3587 14.764 68.9529 12.6386C64.4887 11.63 57.5688 11.2024 53.4151 11.6791ZM68.408 17.0144C79.679 19.7956 89.4228 26.9839 95.2891 36.8459C97.4656 40.5047 97.4953 40.832 95.6221 40.5153C79.5677 37.8012 75.3261 37.4423 59.1383 37.4297C43.8402 37.4175 40.2032 37.6541 28.8461 39.3981C25.3883 39.9293 22.002 40.4487 21.3208 40.5523C19.7029 40.7981 19.7353 40.4319 21.6149 37.2133C28.1271 26.0629 39.5505 18.2665 52.2797 16.2855C55.9532 15.7139 64.7474 16.1114 68.408 17.0144ZM17.033 17.2244C16.3361 18.0642 16.4538 19.7548 17.2498 20.3371C19.3222 21.8525 21.6774 19.6824 20.4501 17.3886C19.9662 16.4848 17.736 16.3777 17.033 17.2244ZM76.6658 42.3698C79.5997 42.6773 82.8873 43.0401 83.9717 43.1761L85.9435 43.4238L87.1609 46.1364C89.313 50.9325 90.3346 58.2435 89.5035 62.9032C89.2559 64.2936 89.0528 64.48 86.1402 65.9908C77.9049 70.2626 71.5454 77.4479 68.2823 86.1683C67.4497 88.3932 67.3507 88.4968 65.5644 89.0108C63.0667 89.7295 54.0583 89.7295 51.5934 89.0108C49.777 88.4812 49.7553 88.4557 48.5208 85.3803C46.7261 80.9084 44.5051 77.38 41.3768 74.0303C37.9696 70.3819 35.0989 68.1536 30.9906 65.9679C27.8135 64.2776 27.8048 64.2693 27.564 62.5096C26.8735 57.4734 27.8829 50.6186 29.9873 46.0533L31.188 43.4489L34.6847 43.0069C38.7823 42.4887 45.8261 41.8486 49.6124 41.6497C54.8074 41.3772 71.406 41.8189 76.6658 42.3698ZM24.6483 47.8015C23.381 51.7548 22.593 57.7516 22.9577 60.6692C23.2587 63.0804 23.5201 62.9787 18.9393 62.236L16.0816 61.7727L16.1143 57.2162C16.144 53.1117 17.0086 47.2205 17.7467 46.0941C17.9966 45.7123 22.9558 44.5841 24.7097 44.5101L25.7175 44.4675L24.6483 47.8015ZM95.9079 45.1213C97.6893 45.4829 99.2549 45.9322 99.3868 46.1196C100.114 47.1515 100.989 53.1026 101.019 57.2162L101.052 61.7727L98.1941 62.236C96.6224 62.491 95.0738 62.7123 94.7534 62.7283C94.2661 62.7527 94.1662 62.0863 94.146 58.6611C94.1186 54.1127 93.6713 51.2804 92.3357 47.2033C91.2887 44.0064 91.0631 44.1379 95.9079 45.1213ZM54.8737 47.8511C45.2119 51.4435 44.5653 64.3348 53.8198 68.8566C56.3746 70.1045 60.6171 70.1605 63.1959 68.9797C65.4588 67.9436 67.6818 65.7187 68.8573 63.3129C70.0968 60.7755 70.1387 56.5399 68.9506 53.9218C66.568 48.6718 60.1312 45.896 54.8737 47.8511ZM62.6167 53.0744C64.7516 54.8024 65.4985 56.4431 65.3293 59.0365C65.0728 62.9726 62.0673 65.5873 58.0961 65.3285C54.1601 65.0721 51.5454 62.0665 51.8041 58.0953C51.9668 55.5991 53.2361 53.6547 55.528 52.3908C57.5421 51.28 60.7866 51.5929 62.6167 53.0744ZM22.2124 67.3351C35.3866 70.6898 45.3883 82.5454 46.5813 96.2205C46.906 99.9417 46.9547 99.9181 42.6319 98.1188C32.7011 93.9857 25.112 87.0085 20.4947 77.7664C19.03 74.8343 17.3694 70.2961 16.8505 67.8061C16.5994 66.6001 16.6264 66.5677 17.8957 66.5677C18.612 66.5677 20.5549 66.9129 22.2124 67.3351ZM100.283 67.8061C98.4746 76.4831 92.5202 86.0742 85.4478 91.7017C81.253 95.0396 74.7137 98.5654 71.5397 99.2002C70.386 99.4307 70.3787 99.4219 70.3921 97.7652C70.4416 91.5623 73.3637 83.868 77.786 78.2972C82.603 72.2284 92.6939 66.6805 99.0816 66.5886C100.53 66.5677 100.539 66.5772 100.283 67.8061ZM58.7572 94.193C60.0146 94.193 62.2113 94.0497 63.6386 93.8744L66.2342 93.5559L66.0784 97.1132L65.9225 100.671L64.0547 100.923C63.0271 101.062 60.5576 101.175 58.5667 101.175C56.5758 101.175 54.1063 101.062 53.0787 100.923L51.2109 100.671L51.0554 97.1205L50.8999 93.5707L53.6853 93.8816C55.2174 94.0531 57.4998 94.193 58.7572 94.193Z" fill="white"/>
</svg>
