<svg width="112" height="112" viewBox="0 0 112 112" fill="none" xmlns="http://www.w3.org/2000/svg">
<path fill-rule="evenodd" clip-rule="evenodd" d="M71.0223 0.586309C66.9426 1.4654 63.3189 3.50019 60.0779 6.7309C56.7835 10.0154 55.9301 11.5304 52.9673 19.3557C51.0082 24.5299 50.7511 25.0031 49.8372 25.1121C49.05 25.2064 48.8417 25.0726 48.8417 24.472C48.8417 24.0548 48.6349 23.2592 48.3819 22.7044L47.9221 21.6953L42.4608 21.917C33.9006 22.2651 31.3886 23.1351 29.7626 26.3162C28.7419 28.3134 28.6987 30.1205 29.6239 32.1342C31.0773 35.2984 32.9461 36.0805 39.0552 36.0805C41.5432 36.0805 43.5785 36.1659 43.5785 36.2703C43.5785 36.3748 42.0416 38.3619 40.1634 40.6864C36.4574 45.2724 34.2675 49.3127 33.2758 53.3932C32.3611 57.1557 32.389 84.7351 33.3096 87.4168C33.8096 88.872 33.9882 91.2473 34.1555 98.6577C34.357 107.574 34.4115 108.124 35.2198 109.423C36.7082 111.816 37.5476 112 46.9676 112C54.7229 112 55.4173 111.944 56.7064 111.22C58.8812 109.998 59.1587 109.295 59.3681 104.483L59.556 100.161L61.6237 100.228C62.761 100.264 66.0914 100.475 69.0249 100.697C71.9584 100.919 82.828 101.101 93.1792 101.101H112V99.4094V97.7181L94.6127 97.7129C71.4039 97.7057 62.2888 97.1416 48.9248 94.885C42.9056 93.8688 41.1514 93.0938 38.7856 90.4073C36.1879 87.457 36.0555 86.6305 36.0578 73.3574C36.0597 62.3231 36.1006 61.5993 36.7176 61.7853C40.2319 62.8437 54.2748 64.4838 63.1414 64.8713C68.3663 65.0998 69.0505 65.0589 69.6264 64.4827C70.5366 63.5728 70.4212 61.9093 69.208 58.443C65.7362 48.5223 57.456 43.2215 45.4311 43.2215C43.9984 43.2215 42.8266 43.1354 42.8266 43.0306C42.8266 42.7633 51.0628 32.7638 51.5109 32.4868C51.9361 32.2241 58.0553 31.198 59.2091 31.1961C59.8508 31.195 59.9621 31.3822 59.835 32.2496C59.6579 33.4553 60.1015 33.9161 62.0391 34.5392C65.079 35.5172 67.9666 39.1594 68.5704 42.7769C69.0813 45.8373 71.8381 45.8223 72.3497 42.7566C72.9595 39.1023 75.9193 35.4307 78.9987 34.5084C80.7088 33.9961 81.2731 33.4019 81.1077 32.2872C80.9754 31.395 80.6629 31.1548 78.3532 30.1686L76.8494 29.5267L79.293 29.2771C80.637 29.1399 88.5461 29.0076 96.8683 28.9836L112 28.9396V27.004V25.0688L96.8683 25.309C88.5461 25.4409 79.9344 25.6589 77.7317 25.7931L73.7272 26.037L73.1712 24.9516C72.8652 24.3544 72.4971 23.1566 72.3531 22.2903C72.0246 20.3133 71.3204 19.668 70.0031 20.1367C69.2215 20.4148 68.9054 20.9293 68.4057 22.7383C67.5189 25.9483 67.0674 26.6229 65.6606 26.8409C62.57 27.3201 53.5293 28.4506 53.4308 28.3706C53.1421 28.1353 58.7647 13.9286 59.7594 12.3786C61.3925 9.83458 64.5222 7.02067 67.2505 5.64397C71.4997 3.49944 72.6907 3.39608 93.2969 3.38894L112 3.38255V1.69128V0L92.733 0.0296913C77.7156 0.0529933 72.9268 0.175893 71.0223 0.586309ZM45.5326 4.39431C45.3394 4.76789 44.9732 5.71877 44.7187 6.5069C44.2586 7.93283 44.0447 8.09031 40.8529 9.34824C40.1255 9.63501 39.8191 10.0232 39.8191 10.6573C39.8191 11.7397 40.3638 12.2317 41.9334 12.5666C43.3834 12.8762 44.4725 14.0289 45.0661 15.8822C45.9191 18.5458 48.0048 18.5458 48.8579 15.8822C49.4643 13.9883 50.5797 12.839 52.0838 12.5572C53.6492 12.2636 54.2549 11.5473 53.953 10.3461C53.7944 9.71431 53.3816 9.33885 52.6895 9.19753C50.5872 8.76832 49.8289 8.1076 49.03 6.00854C48.3315 4.17256 48.1157 3.93353 47.0646 3.83055C46.2259 3.74787 45.7823 3.91136 45.5326 4.39431ZM47.5462 10.5562C47.9334 11.1831 47.0624 11.9017 46.5436 11.383C46.1097 10.9493 46.3811 10.1477 46.962 10.1477C47.1443 10.1477 47.4071 10.3314 47.5462 10.5562ZM45.0823 26.3087C45.0823 27.8403 46.2605 28.9396 47.9018 28.9396C48.6255 28.9396 49.2176 29.0783 49.2176 29.2478C49.2176 29.4173 48.6124 30.2629 47.8725 31.127L46.5274 32.698L41.0116 32.6972C34.7638 32.6969 33.1912 32.2511 32.5574 30.3016C32.0378 28.7039 33.0179 26.8781 34.6912 26.326C36.3138 25.7908 40.054 25.2921 42.9206 25.2289L45.0823 25.1812V26.3087ZM72.6065 34.7219C71.4249 35.9603 70.3877 36.8995 70.3012 36.8089C70.2151 36.7183 69.249 35.7058 68.1542 34.5584L66.1644 32.4725L68.3091 30.2122L70.4542 27.9519L72.6046 30.2111L74.7546 32.4702L72.6065 34.7219ZM53.8105 47.7259C56.8932 48.6779 60.2696 50.8597 62.3049 53.2147C64.0159 55.1942 66.0644 58.9924 66.2249 60.4826L66.323 61.3948L62.5636 61.3144C58.0737 61.2178 46.9883 60.1677 46.2567 59.7693C45.8932 59.5712 46.0605 59.4085 46.8206 59.2206C49.4116 58.5798 51.1094 55.4539 50.3658 52.6934C49.1143 48.0457 42.4755 47.3226 40.439 51.6125C39.2195 54.1821 39.974 57.0997 42.2627 58.6647L43.3905 59.4359L42.2627 59.2469C36.5751 58.2949 36.0597 58.1543 36.0653 57.5548C36.0781 56.115 37.3052 51.8665 38.3867 49.5168L39.5544 46.9799H45.4744C50.3173 46.9799 51.8334 47.1155 53.8105 47.7259ZM78.7291 47.5406C75.5475 48.6576 73.6806 52.4047 74.1817 56.6679C74.6719 60.8374 76.7783 63.908 80.3524 65.6628L82.4885 66.7114L97.2443 66.8253L112 66.9395V65.0401V63.1409H110.12H108.241V60.5101V57.8792H110.12H112V56V54.1208H110.1H108.199L108.314 52.3356L108.429 50.5503L110.214 50.4357L112 50.3211V48.6505V46.9799L96.1164 46.9964C83.4758 47.0096 79.9257 47.1208 78.7291 47.5406ZM83.0524 52.2416V54.1208H80.4208C78.2832 54.1208 77.7892 54.0103 77.7892 53.5322C77.7892 51.8827 79.6836 50.4038 81.8306 50.3774C83.0483 50.3624 83.0524 50.3688 83.0524 52.2416ZM90.498 52.3356L90.6126 54.1208H88.7122H86.8119V52.2209V50.3211L88.5976 50.4357L90.3833 50.5503L90.498 52.3356ZM97.7142 52.2416V54.1208H95.8345H93.9548V52.2416V50.3624H95.8345H97.7142V52.2416ZM104.857 52.2416V54.1208H102.977H101.098V52.2416V50.3624H102.977H104.857V52.2416ZM46.3699 52.9625C47.6913 54.4222 46.5063 56.3443 44.5823 55.8617C43.1574 55.5043 42.7962 53.8555 43.9394 52.9298C45.0199 52.0552 45.5552 52.0623 46.3699 52.9625ZM9.44294 53.0685C9.13429 53.377 8.99181 55.2092 8.99181 58.8692V64.2188L5.58803 66.9358C3.47711 68.621 1.79966 70.3078 1.17071 71.3767L0.157165 73.1007L0.0402475 89.2617C-0.0849413 106.522 -0.0183998 107.305 1.74928 109.406C3.73689 111.767 4.80268 111.983 14.443 111.983C24.1686 111.983 25.2938 111.746 27.1626 109.296C28.8261 107.116 28.9728 105.345 28.8427 89.0163C28.7329 75.2539 28.6577 73.7046 28.0269 72.2558C27.3337 70.6626 24.9791 68.2625 21.6667 65.7718L19.9174 64.4564L19.9058 59.5009C19.8994 56.7754 19.7291 54.1118 19.5276 53.5815C19.1614 52.6186 19.155 52.6175 14.5276 52.6175C11.4249 52.6175 9.7452 52.7663 9.44294 53.0685ZM53.5241 53.5401C52.8447 54.2189 52.6011 54.8687 52.6011 56C52.6011 57.1313 52.8447 57.7811 53.5241 58.4599C54.203 59.139 54.853 59.3826 55.9846 59.3826C57.1162 59.3826 57.7662 59.139 58.4451 58.4599C59.1245 57.7811 59.3681 57.1313 59.3681 56C59.3681 54.8687 59.1245 54.2189 58.4451 53.5401C57.7662 52.861 57.1162 52.6175 55.9846 52.6175C54.853 52.6175 54.203 52.861 53.5241 53.5401ZM16.1347 59.5705V63.1409H14.255H12.3753V59.5705V56H14.255H16.1347V59.5705ZM83.0524 60.3221C83.0524 62.0442 82.9118 62.7651 82.5757 62.7651C81.6231 62.7651 79.4603 60.9464 78.6111 59.4314L77.7411 57.8792H80.3968H83.0524V60.3221ZM90.5713 60.5101V63.1409H88.6916H86.8119V60.5101V57.8792H88.6916H90.5713V60.5101ZM97.7142 60.5101V63.1409H95.8345H93.9548V60.5101V57.8792H95.8345H97.7142V60.5101ZM104.857 60.5101V63.1409H102.977H101.098V60.5101V57.8792H102.977H104.857V60.5101ZM20.5836 69.337C23.4084 71.6172 24.7814 73.0601 24.7814 73.7482C24.7814 73.9087 20.028 74.0403 14.2182 74.0403H3.65493L4.34967 72.9541C4.73163 72.3569 6.39781 70.7599 8.05195 69.4058L11.0595 66.9437L14.3114 66.9215L17.5633 66.8993L20.5836 69.337ZM40.4574 74.7096C39.9191 75.3046 39.8191 76.2645 39.8191 80.8407C39.8191 89.0562 40.6736 90.1198 47.6748 90.6189C58.3248 91.3781 72.4779 92.0753 73.0189 91.8678C73.3524 91.74 73.7234 91.3262 73.8434 90.9489C74.0659 90.2476 70.4828 77.1958 69.8614 76.4449C69.5057 76.0145 68.4215 75.9172 53.7289 74.9911C48.8699 74.6848 44.0394 74.3376 42.995 74.2196C41.4386 74.0437 40.9804 74.132 40.4574 74.7096ZM76.4595 76.5509C75.9464 77.0639 75.8746 77.595 76.0761 79.3779C76.7182 85.0512 79.9968 89.7113 85.1055 92.2121C88.2574 93.7549 90.1833 93.9597 101.525 93.9597H112V92.2685V90.5772H102.089C96.6379 90.5772 91.2664 90.4054 90.1525 90.1957C87.295 89.6571 84.3449 88.0609 82.6491 86.1348C81.3111 84.6149 79.669 81.153 79.669 79.8515C79.669 79.3779 81.9002 79.302 95.8345 79.302H112V77.6107V75.9195H94.5454C78.6998 75.9195 77.0329 75.9777 76.4595 76.5509ZM25.1573 89.4497V101.101H14.255H3.35267V89.4497V77.7987H14.255H25.1573V89.4497ZM58.4282 78.7781C63.1839 79.1085 67.1557 79.4569 67.255 79.5516C67.5429 79.8282 69.8403 88.1184 69.6753 88.2872C69.5933 88.3714 63.8377 88.1098 56.8854 87.7061C45.3966 87.0394 44.1973 86.9075 43.7236 86.2599C43.3586 85.7608 43.2026 84.3766 43.2026 81.6333V77.719L46.4921 77.9479C48.3015 78.0742 53.6726 78.4477 58.4282 78.7781ZM18.0144 83.2483V84.9396H19.7062H21.3979V83.2483V81.5571H19.7062H18.0144V83.2483ZM13.4471 83.5302C13.1306 83.7888 12.5753 84.8069 12.2133 85.7931C11.5475 87.6073 10.6858 88.3218 8.54707 88.834C6.73164 89.2685 6.74367 91.5356 8.56324 91.9219C10.779 92.3921 11.3091 92.8446 12.2794 95.0933C13.1245 97.0506 13.3824 97.3423 14.2704 97.3423C15.4644 97.3423 15.8731 96.9104 16.4888 94.9993C16.9983 93.4185 18.4618 92.0805 19.6817 92.0805C20.7216 92.0805 21.3979 91.4025 21.3979 90.3599C21.3979 89.3813 20.8468 88.8946 19.3302 88.5326C17.8148 88.1711 17.002 87.3758 16.4772 85.7398C15.7099 83.3487 14.6324 82.5628 13.4471 83.5302ZM14.8644 90.782C14.6667 91.2973 14.5182 91.3274 14.058 90.9455C13.62 90.5821 13.5922 90.3588 13.9336 89.9477C14.4956 89.2704 15.2016 89.9037 14.8644 90.782ZM46.962 98.0676C49.3398 98.4923 52.3004 98.9685 53.541 99.1264L55.7966 99.4128L55.903 103.412C55.9899 106.681 55.8989 107.522 55.406 108.015C54.5132 108.907 39.4217 108.918 38.53 108.027C38.0397 107.537 37.9394 106.358 37.9394 101.081V94.7257L40.289 96.0103C42.0477 96.9721 43.7259 97.4896 46.962 98.0676ZM25.1573 105.527C25.1573 106.524 24.1979 107.705 22.9757 108.211C22.2175 108.525 19.4471 108.625 13.7576 108.545C5.64254 108.43 5.62186 108.427 4.71471 107.49C4.21471 106.973 3.69253 106.17 3.5538 105.705L3.30192 104.859H14.2298C24.4506 104.859 25.1573 104.902 25.1573 105.527Z" fill="white"/>
</svg>
