<svg width="70" height="113" viewBox="0 0 70 113" fill="none" xmlns="http://www.w3.org/2000/svg">
<path fill-rule="evenodd" clip-rule="evenodd" d="M38.1123 0.605932C35.571 1.90175 35.2149 2.82289 35.0861 8.4295C34.9808 13.031 35.0431 13.5774 35.8552 15.1484C36.6007 16.5905 37.0572 16.9774 38.7687 17.6184L40.7985 18.3784L40.6913 20.0885L40.5844 21.7985L38.085 22.0288C36.0251 22.2184 33.252 23.2296 22.3197 27.7764C15.0235 30.8111 8.26137 33.6627 7.29277 34.113C4.96221 35.1964 2.56743 37.5197 1.26584 39.9594L0.209947 41.9388L0.104974 72.3967L0 102.855L0.837095 105.065C1.84107 107.718 4.66651 110.679 7.51579 112.065L9.43838 113H35.0088H60.5793L62.7718 111.936C65.5173 110.604 68.1662 107.745 69.2102 104.987C69.9862 102.938 70 102.279 70 67.5892C70 33.0148 69.9838 32.2342 69.2183 30.2118C68.3473 27.9124 66.0606 25.1228 64.0288 23.8817C62.7357 23.0917 62.6942 22.9929 62.6942 20.6877V18.3089L64.1522 17.8772C64.954 17.6397 66.1217 16.9177 66.7477 16.2732L67.8851 15.1009L68.0136 9.51936C68.1547 3.3986 67.9055 2.40754 65.8461 0.898157C64.8655 0.179565 64.1184 0.132444 52.1199 0.0359227C40.6113 -0.0567988 39.3081 -0.00397791 38.1123 0.605932ZM64.0127 3.96519C64.4929 4.4402 64.6167 5.47419 64.6167 9.01927C64.6167 11.9791 64.4618 13.6295 64.1553 13.9324C63.8158 14.2679 60.4778 14.3884 51.5281 14.3884H39.362L38.9159 13.4205C38.6702 12.8881 38.4695 10.7506 38.4695 8.67042C38.4695 2.97413 37.4859 3.3682 51.7081 3.3682C61.8321 3.3682 63.4897 3.44876 64.0127 3.96519ZM59.2335 20.0885V21.9885H51.7354H44.2373V20.0885V18.1884H51.7354H59.2335V20.0885ZM60.9665 26.302C63.2456 27.3508 65.0482 29.2561 65.9268 31.5438C66.504 33.0467 66.5524 36.4071 66.4547 68.1593L66.3471 103.12L65.4988 104.687C64.6029 106.342 63.0098 107.849 61.0138 108.929C59.9206 109.52 57.6324 109.59 36.0205 109.689C9.71178 109.809 9.6914 109.808 6.79328 107.435C5.97311 106.763 4.89299 105.347 4.39389 104.287L3.48604 102.36L3.4822 73.262C3.47797 40.749 3.38491 41.9305 6.16306 39.1853C7.39198 37.9704 9.82752 36.8167 21.1239 32.0978C28.5451 28.9977 35.2676 26.232 36.0628 25.9516C37.1371 25.5727 40.2729 25.4386 48.2747 25.4291C58.759 25.4162 59.0916 25.4393 60.9665 26.302ZM37.316 29.5468C36.7872 29.719 34.1052 30.8024 31.3559 31.9542C28.6066 33.1063 22.5954 35.6265 17.9978 37.5543C7.65384 41.8925 6.94209 42.5449 7.43235 47.2411C7.75612 50.3404 9.0704 52.9138 11.4071 55.0247C13.8646 57.244 16.5093 58.2305 19.8731 58.1814C24.4165 58.1157 25.2494 57.5335 36.2585 46.7322C45.4993 37.6664 46.1595 36.9288 46.1514 35.6786C46.1395 33.7767 44.9252 31.3739 43.4521 30.3372C42.0932 29.3811 39.0351 28.9871 37.316 29.5468ZM41.5457 33.3887C41.9686 33.8067 42.3147 34.5348 42.3147 35.0068C42.3147 36.1821 25.0329 53.2569 23.005 54.085C20.0207 55.304 16.0094 54.6029 13.7288 52.4639C11.3225 50.2066 10.1032 46.0296 11.4175 44.5449C11.9489 43.9445 33.7484 34.5538 38.4695 32.8916C39.6661 32.4706 40.8024 32.6541 41.5457 33.3887ZM59.2335 34.7187V36.4287H60.9638H62.6942V34.7187V33.0087H60.9638H59.2335V34.7187ZM59.2335 41.9388V43.6489H60.9638H62.6942V41.9388V40.2288H60.9638H59.2335V41.9388ZM59.2335 49.1589V50.869H60.9638H62.6942V49.1589V47.4489H60.9638H59.2335V49.1589ZM9.95056 62.9186C9.38609 63.2644 8.56437 64.181 8.1241 64.955C7.34507 66.325 7.32353 66.8357 7.32353 83.9873C7.32353 104.05 7.24432 103.509 10.4135 105.115L12.1008 105.97H35.0088H57.9169L59.6042 105.115C62.7734 103.509 62.6942 104.05 62.6942 83.9873C62.6942 66.8023 62.6742 66.3273 61.889 64.9467C60.2848 62.1263 61.7167 62.268 34.9496 62.2794C13.3212 62.2885 10.8761 62.3509 9.95056 62.9186ZM58.6348 66.534C59.1547 67.267 59.2335 69.5748 59.2335 84.039C59.2335 94.7969 59.0924 100.96 58.8355 101.435C58.4487 102.149 57.7785 102.17 35.0088 102.17C12.2392 102.17 11.569 102.149 11.1822 101.435C10.9249 100.96 10.7842 94.7506 10.7842 83.8892C10.7842 68.7806 10.8488 67.0086 11.4206 66.3842C12.0235 65.7257 13.2628 65.6892 35.0465 65.6892H58.0365L58.6348 66.534ZM29.9751 75.8301C24.7487 84.0663 23.6559 86.5345 24.0401 89.2336C24.5872 93.0782 27.092 96.3812 30.5407 97.8051C32.3499 98.5522 37.6678 98.5522 39.4769 97.8051C44.4295 95.7603 47.1381 90.1867 45.5043 85.4028C44.7929 83.3211 35.586 68.3493 35.0165 68.3493C34.8547 68.3493 32.5856 71.7157 29.9751 75.8301ZM38.6633 80.2245L42.114 85.6395L42.1182 88.2996C42.1232 91.4312 41.265 92.974 38.8371 94.1984C35.576 95.8423 30.7238 94.8786 28.7927 92.2034C28.0579 91.1846 27.8953 90.4782 27.8953 88.2996V85.6395L31.3555 80.2245C33.2585 77.246 34.905 74.8094 35.0142 74.8094C35.123 74.8094 36.7653 77.246 38.6633 80.2245Z" fill="white"/>
</svg>
