<svg width="171" height="93" viewBox="0 0 171 93" fill="none" xmlns="http://www.w3.org/2000/svg">
<path d="M0 0H171V80.0269L0 93V0Z" fill="#FFAB11"/>
<path d="M40.28 43.3V37.98H41.74C42.4067 37.18 42.9 36.0867 43.22 34.7C43.54 33.3133 43.7 31.6067 43.7 29.58V25.9H53.92V37.98H55.98V43.3H53.74V40H42.54V43.3H40.28ZM44.32 37.98H51.36V27.9H46.06V29.82C46.06 31.7533 45.9133 33.38 45.62 34.7C45.34 36.02 44.9067 37.1133 44.32 37.98ZM62.5053 40.2C61.4653 40.2 60.5653 39.9867 59.8053 39.56C59.0453 39.1333 58.452 38.5267 58.0253 37.74C57.612 36.9533 57.4053 36.02 57.4053 34.94C57.4053 33.86 57.612 32.9333 58.0253 32.16C58.452 31.3733 59.0453 30.7667 59.8053 30.34C60.5653 29.9133 61.4653 29.7 62.5053 29.7C63.5453 29.7 64.4453 29.9133 65.2053 30.34C65.9786 30.7667 66.572 31.3733 66.9853 32.16C67.412 32.9333 67.6253 33.86 67.6253 34.94C67.6253 36.02 67.412 36.9533 66.9853 37.74C66.572 38.5267 65.9786 39.1333 65.2053 39.56C64.4453 39.9867 63.5453 40.2 62.5053 40.2ZM62.5053 38.28C63.292 38.28 63.9186 38.0067 64.3853 37.46C64.852 36.9 65.0853 36.06 65.0853 34.94C65.0853 33.82 64.852 32.9867 64.3853 32.44C63.9186 31.8933 63.292 31.62 62.5053 31.62C61.7186 31.62 61.092 31.8933 60.6253 32.44C60.1586 32.9867 59.9253 33.82 59.9253 34.94C59.9253 36.06 60.1586 36.9 60.6253 37.46C61.092 38.0067 61.7186 38.28 62.5053 38.28ZM74.7142 40.2C73.6742 40.2 72.7609 39.9867 71.9742 39.56C71.2009 39.1333 70.6009 38.5267 70.1742 37.74C69.7476 36.94 69.5342 35.9933 69.5342 34.9C69.5342 33.8067 69.7476 32.8733 70.1742 32.1C70.6142 31.3267 71.2209 30.7333 71.9942 30.32C72.7676 29.9067 73.6742 29.7 74.7142 29.7C75.3809 29.7 76.0276 29.8067 76.6542 30.02C77.2942 30.22 77.8142 30.5133 78.2142 30.9L77.4542 32.64C77.0942 32.3067 76.6876 32.06 76.2342 31.9C75.7942 31.7267 75.3609 31.64 74.9342 31.64C74.0409 31.64 73.3409 31.92 72.8342 32.48C72.3409 33.04 72.0942 33.8533 72.0942 34.92C72.0942 35.9867 72.3409 36.8067 72.8342 37.38C73.3409 37.9533 74.0409 38.24 74.9342 38.24C75.3476 38.24 75.7742 38.16 76.2142 38C76.6676 37.84 77.0809 37.5933 77.4542 37.26L78.2142 38.98C77.8009 39.3667 77.2742 39.6667 76.6342 39.88C76.0076 40.0933 75.3676 40.2 74.7142 40.2ZM82.5258 40V31.86H79.0658V29.9H88.4858V31.86H85.0058V40H82.5258ZM94.0133 40.2C93.1333 40.2 92.3599 39.9933 91.6933 39.58C91.0266 39.1533 90.5066 38.5467 90.1333 37.76C89.7599 36.9733 89.5733 36.0333 89.5733 34.94C89.5733 33.8467 89.7599 32.9133 90.1333 32.14C90.5066 31.3533 91.0266 30.7533 91.6933 30.34C92.3599 29.9133 93.1333 29.7 94.0133 29.7C94.8666 29.7 95.6133 29.9133 96.2533 30.34C96.9066 30.7533 97.3399 31.3133 97.5533 32.02H97.3333L97.5533 29.9H99.9533C99.9133 30.3133 99.8733 30.7333 99.8333 31.16C99.8066 31.5867 99.7933 32.0067 99.7933 32.42V40H97.3133L97.2933 37.92H97.5333C97.3199 38.6133 96.8866 39.1667 96.2333 39.58C95.5799 39.9933 94.8399 40.2 94.0133 40.2ZM94.7133 38.28C95.4999 38.28 96.1333 38.0067 96.6133 37.46C97.0933 36.9 97.3333 36.06 97.3333 34.94C97.3333 33.82 97.0933 32.9867 96.6133 32.44C96.1333 31.8933 95.4999 31.62 94.7133 31.62C93.9266 31.62 93.2933 31.8933 92.8133 32.44C92.3333 32.9867 92.0933 33.82 92.0933 34.94C92.0933 36.06 92.3266 36.9 92.7933 37.46C93.2733 38.0067 93.9133 38.28 94.7133 38.28ZM102.709 40V29.9H108.089C109.356 29.9 110.282 30.1333 110.869 30.6C111.456 31.0533 111.749 31.7 111.749 32.54C111.749 33.18 111.536 33.7133 111.109 34.14C110.682 34.5667 110.116 34.8333 109.409 34.94V34.66C110.276 34.7133 110.942 34.9667 111.409 35.42C111.876 35.8733 112.109 36.46 112.109 37.18C112.109 38.0467 111.776 38.7333 111.109 39.24C110.442 39.7467 109.496 40 108.269 40H102.709ZM105.029 38.46H108.009C108.596 38.46 109.042 38.34 109.349 38.1C109.669 37.86 109.829 37.5067 109.829 37.04C109.829 36.5733 109.669 36.22 109.349 35.98C109.042 35.74 108.596 35.62 108.009 35.62H105.029V38.46ZM105.029 34.08H107.789C108.322 34.08 108.736 33.9667 109.029 33.74C109.322 33.5 109.469 33.1667 109.469 32.74C109.469 32.3133 109.322 31.9867 109.029 31.76C108.736 31.5333 108.322 31.42 107.789 31.42H105.029V34.08ZM114.291 40V29.9H116.771V33.86H118.291L121.251 29.9H123.931L120.211 34.94L119.671 34.16C120.044 34.2 120.371 34.3 120.651 34.46C120.944 34.62 121.218 34.8467 121.471 35.14C121.738 35.42 121.998 35.78 122.251 36.22L124.371 40H121.711L119.991 36.96C119.818 36.6533 119.644 36.4133 119.471 36.24C119.298 36.0667 119.104 35.9467 118.891 35.88C118.678 35.8133 118.418 35.78 118.111 35.78H116.771V40H114.291ZM129.677 40.2C128.797 40.2 128.024 39.9933 127.357 39.58C126.691 39.1533 126.171 38.5467 125.797 37.76C125.424 36.9733 125.237 36.0333 125.237 34.94C125.237 33.8467 125.424 32.9133 125.797 32.14C126.171 31.3533 126.691 30.7533 127.357 30.34C128.024 29.9133 128.797 29.7 129.677 29.7C130.531 29.7 131.277 29.9133 131.917 30.34C132.571 30.7533 133.004 31.3133 133.217 32.02H132.997L133.217 29.9H135.617C135.577 30.3133 135.537 30.7333 135.497 31.16C135.471 31.5867 135.457 32.0067 135.457 32.42V40H132.977L132.957 37.92H133.197C132.984 38.6133 132.551 39.1667 131.897 39.58C131.244 39.9933 130.504 40.2 129.677 40.2ZM130.377 38.28C131.164 38.28 131.797 38.0067 132.277 37.46C132.757 36.9 132.997 36.06 132.997 34.94C132.997 33.82 132.757 32.9867 132.277 32.44C131.797 31.8933 131.164 31.62 130.377 31.62C129.591 31.62 128.957 31.8933 128.477 32.44C127.997 32.9867 127.757 33.82 127.757 34.94C127.757 36.06 127.991 36.9 128.457 37.46C128.937 38.0067 129.577 38.28 130.377 38.28ZM46.06 64.2C45.02 64.2 44.12 63.9867 43.36 63.56C42.6 63.1333 42.0067 62.5267 41.58 61.74C41.1667 60.9533 40.96 60.02 40.96 58.94C40.96 57.86 41.1667 56.9333 41.58 56.16C42.0067 55.3733 42.6 54.7667 43.36 54.34C44.12 53.9133 45.02 53.7 46.06 53.7C47.1 53.7 48 53.9133 48.76 54.34C49.5333 54.7667 50.1267 55.3733 50.54 56.16C50.9667 56.9333 51.18 57.86 51.18 58.94C51.18 60.02 50.9667 60.9533 50.54 61.74C50.1267 62.5267 49.5333 63.1333 48.76 63.56C48 63.9867 47.1 64.2 46.06 64.2ZM46.06 62.28C46.8467 62.28 47.4733 62.0067 47.94 61.46C48.4067 60.9 48.64 60.06 48.64 58.94C48.64 57.82 48.4067 56.9867 47.94 56.44C47.4733 55.8933 46.8467 55.62 46.06 55.62C45.2733 55.62 44.6467 55.8933 44.18 56.44C43.7133 56.9867 43.48 57.82 43.48 58.94C43.48 60.06 43.7133 60.9 44.18 61.46C44.6467 62.0067 45.2733 62.28 46.06 62.28ZM55.7289 64V55.86H52.2689V53.9H61.6889V55.86H58.2089V64H55.7289ZM69.5247 64V61.86H72.7647V52.06H74.0047L69.8447 54.54V52.1L73.5047 49.9H75.3447V61.86H78.3847V64H69.5247ZM85.3052 66.6V62.1H86.4652C86.8652 61.4733 87.1518 60.74 87.3252 59.9C87.5118 59.0467 87.6052 58.0067 87.6052 56.78V53.9H95.3852V62.1H97.0252V66.6H94.9052V64H87.4252V66.6H85.3052ZM88.7052 62.12H93.0452V55.78H89.7252V57.34C89.7252 58.2333 89.6385 59.1067 89.4652 59.96C89.2918 60.8133 89.0385 61.5333 88.7052 62.12ZM98.8614 64V53.9H101.341V57.86H105.901V53.9H108.381V64H105.901V59.78H101.341V64H98.8614ZM110.385 64L111.925 61.34C112.191 60.8867 112.518 60.5267 112.905 60.26C113.305 59.98 113.718 59.84 114.145 59.84H114.585L114.565 60.06C113.378 60.06 112.465 59.8 111.825 59.28C111.185 58.76 110.865 58 110.865 57C110.865 56.0133 111.191 55.2533 111.845 54.72C112.511 54.1733 113.485 53.9 114.765 53.9H119.785V64H117.505V60.44H116.365C115.951 60.44 115.585 60.5533 115.265 60.78C114.958 61.0067 114.698 61.3 114.485 61.66L113.165 64H110.385ZM115.245 58.82H117.505V55.52H115.245C114.565 55.52 114.051 55.6667 113.705 55.96C113.371 56.2533 113.205 56.6533 113.205 57.16C113.205 57.6933 113.371 58.1067 113.705 58.4C114.051 58.68 114.565 58.82 115.245 58.82Z" fill="white"/>
<path d="M24.56 29.18H22.5L27.76 12.96H29.82L24.56 29.18ZM29.9897 29.18H27.9297L33.1897 12.96H35.2497L29.9897 29.18Z" fill="white"/>
</svg>
