<?xml version="1.0" encoding="utf-8"?>
<svg width="70" height="70" viewBox="0 0 70 70" fill="none" xmlns="http://www.w3.org/2000/svg">
<path d="M31.15 6.22992C27.37 6.85992 26.6 7.41992 26.6 9.79992C26.6 15.3299 23.45 17.7799 18.97 15.8199C17.5 15.1199 15.68 14.6999 14.98 14.8399C13.3 15.1199 9.52004 20.1599 7.98004 24.1499L6.79004 27.4399L10.01 30.4499C12.04 32.2699 13.3 34.0199 13.3 34.9999C13.3 35.9799 12.04 37.7299 10.01 39.5499L6.79004 42.5599L7.98004 45.8499C9.52004 49.8399 13.3 54.8799 14.98 55.1599C15.68 55.2999 17.5 54.8799 18.97 54.1799C23.45 52.1499 26.6 54.6699 26.6 60.1999C26.6 61.5999 27.09 62.5099 28.14 63.0699C29.82 63.9799 38.71 64.1899 41.23 63.3499L42.91 62.8599L40.88 61.1799C39.27 59.9199 38.01 59.5699 34.93 59.4999H31.01L30.52 56.6299C29.96 53.3399 27.09 50.0499 24.08 49.2799C23.03 48.9999 20.72 49.1399 19.04 49.6299C15.4 50.6099 15.12 50.3999 13.23 46.7599L11.83 43.9599L14.21 41.6499C18.48 37.5199 18.48 32.4799 14.21 28.3499L11.83 26.0399L13.23 23.2399C15.12 19.5999 15.4 19.3899 19.04 20.3699C20.72 20.8599 23.03 20.9999 24.08 20.7199C27.09 19.9499 29.96 16.6599 30.52 13.3699L31.01 10.4999H35H38.99L39.48 13.3699C40.04 16.6599 42.91 19.9499 45.92 20.7199C46.97 20.9999 49.28 20.8599 50.96 20.3699C52.64 19.9499 54.32 19.7399 54.67 20.0199C55.02 20.2299 56 21.6999 56.77 23.2399L58.24 26.1099L56.07 28.0699C54.04 29.8899 52.5 32.6899 52.5 34.5099C52.5 34.9999 53.55 35.6999 54.81 36.1199C57.05 36.7499 57.12 36.7499 56.84 35.2099C56.63 33.9499 57.33 32.8999 59.92 30.5199L63.21 27.4399L62.02 24.1499C60.48 20.1599 56.7 15.1199 55.02 14.8399C54.32 14.6999 52.5 15.1199 51.03 15.8199C46.55 17.8499 43.4 15.3299 43.4 9.79992C43.4 8.53992 42.91 7.48992 42.21 7.13992C40.39 6.15992 34.37 5.73992 31.15 6.22992Z" fill="#181000"/>
<path d="M31.1502 24.1503C23.1702 27.0203 20.8602 37.1003 26.8802 43.1203C29.0502 45.2903 34.2302 47.3903 35.0002 46.3403C35.2802 46.0603 35.7702 45.0103 36.2602 43.8903C37.0302 42.0003 37.0302 42.0003 34.5802 42.0003C30.9402 42.0003 28.0002 38.9203 28.0002 35.0003C28.0002 32.6903 28.4202 31.6403 30.0302 30.0303C34.3702 25.6903 42.0002 28.6303 42.0002 34.5803C42.0002 37.0303 42.0002 37.0303 43.9602 36.2603C46.8302 35.0003 46.9002 34.7903 46.2002 32.0603C44.3102 25.4803 37.5202 21.8403 31.1502 24.1503Z" fill="#181000"/>
<path d="M45.7799 38.5702C42.4199 39.5502 38.7099 44.1002 38.1499 47.8802C37.5199 51.9402 39.8299 56.9802 43.3299 59.2902C45.9199 61.0402 50.9599 61.4602 54.3199 60.2002C55.9999 59.5002 56.4899 59.7802 60.2699 63.3502C64.5399 67.4102 65.0299 67.6902 66.3599 66.3602C67.6899 65.0302 67.4099 64.5402 63.3499 60.2702C59.7799 56.4902 59.4999 56.0002 60.1999 54.3202C60.5499 53.2702 60.8999 50.8902 60.8999 49.0702C60.8999 44.7302 58.7999 41.4402 54.5999 39.3402C51.3099 37.7302 49.3499 37.5202 45.7799 38.5702ZM52.0799 42.9802C55.1599 44.2402 56.6999 46.6202 56.6999 49.9102C56.6999 55.3702 50.1199 58.7302 45.5699 55.5802C43.4699 54.1102 41.9999 50.6102 42.4899 48.1602C42.9099 45.8502 45.7099 42.9102 47.8099 42.4902C48.6499 42.3502 49.4199 42.1402 49.5599 42.0702C49.6299 42.0702 50.8199 42.4202 52.0799 42.9802Z" fill="#FFAB11"/>
</svg>
