<?xml version="1.0" encoding="utf-8"?>
<svg width="70" height="70" viewBox="0 0 70 70" fill="none" xmlns="http://www.w3.org/2000/svg">
<path d="M6.58004 11.3395C-0.139961 17.2195 -0.139961 25.8295 6.58004 32.1295L9.10004 34.5795V45.9895C9.10004 57.2595 9.10004 57.4695 10.85 59.1495C13.3 61.6695 17.64 61.5995 19.95 59.0795C21.63 57.2595 21.7 56.9095 21.7 45.6395V34.0895L24.5 31.7095C28.49 28.2795 29.96 23.2395 28.42 17.9195C27.02 13.2295 22.68 8.88953 19.74 9.23952C17.85 9.44952 17.85 9.51952 17.5 15.7495C17.15 21.9095 17.08 22.0495 15.4 22.0495C13.72 22.0495 13.65 21.8395 13.44 17.1495C13.37 14.4195 13.16 11.5495 12.95 10.6395C12.39 8.32952 9.66004 8.67952 6.58004 11.3395ZM11.13 25.2695C12.95 26.8095 17.22 27.0195 18.97 25.6895C20.79 24.2895 21.7 21.9795 21.7 18.4095L21.77 15.0495L23.1 16.7295C24.92 18.8995 24.99 24.1495 23.17 26.8095C22.47 27.9295 20.93 29.3995 19.67 30.1695L17.5 31.4295L17.36 43.8895L17.15 56.3495H15.4H13.65L13.44 43.9595L13.3 31.5695L10.92 30.0995C6.09004 27.1595 4.48004 21.3495 7.35004 17.1495L8.75004 15.0495L9.10004 19.4595C9.38004 23.0295 9.80004 24.2195 11.13 25.2695Z" fill="#FFAB11"/>
<path d="M31.5002 17.0792C31.5002 19.8092 32.2702 20.2992 36.7502 20.2992C40.9502 20.2992 41.3002 20.4392 43.1902 22.6792C44.2402 24.0092 45.7102 26.0392 46.4102 27.2292L47.6702 29.3992L38.7102 29.4692H29.7502L28.1402 31.5692L26.4602 33.5992H39.4802C52.3602 33.5992 61.2502 34.6492 63.4902 36.4692C64.9602 37.7292 64.6802 43.8192 63.0002 45.4992C61.0402 47.4592 59.8502 47.2492 58.2402 44.5192C55.5802 40.0392 48.8602 39.6892 45.5702 43.8192C44.3102 45.4292 44.0302 45.4992 34.3002 45.4992H24.4302L24.6402 47.3892L24.8502 49.3492L34.5102 49.5592C42.7002 49.6992 44.1002 49.9092 44.1002 50.8192C44.1002 51.4492 45.1502 52.9892 46.4802 54.3192C48.4402 56.2792 49.3502 56.6992 51.8702 56.6992C54.3902 56.6992 55.1602 56.2792 57.4002 53.9692C58.8002 52.4992 60.9702 51.0292 62.1602 50.7492C66.9202 49.7692 69.0902 45.3592 68.4602 38.3592C67.9702 33.4592 66.2202 32.0592 58.7302 30.5892C55.5102 29.8892 52.7102 28.9792 52.4302 28.4892C49.9802 24.3592 44.8002 17.7092 43.4002 17.0092C40.8802 15.7492 31.5002 15.8192 31.5002 17.0792ZM54.8102 46.9692C56.7702 50.0492 53.0602 53.6192 49.7702 51.7992C48.0902 50.9592 47.7402 47.7392 49.1402 46.3392C50.3302 45.1492 53.9002 45.5692 54.8102 46.9692Z" fill="#181000"/>
</svg>
