<?xml version="1.0" encoding="utf-8"?>
<svg width="70" height="70" viewBox="0 0 70 70" fill="none" xmlns="http://www.w3.org/2000/svg">
<path d="M39.2002 3.99042C38.6402 4.20042 37.4502 5.04042 36.6102 5.81042C35.6302 6.65042 33.4602 7.42042 31.1502 7.77042C19.3202 9.38042 9.38017 19.3204 7.77017 31.2204C4.83017 52.5704 26.8802 68.9504 46.4802 59.9904C54.6002 56.2804 61.0402 47.6004 62.2302 38.9204C62.5802 36.2604 63.2802 34.4404 64.4702 33.1804C69.8602 27.4404 61.5302 11.9004 49.9802 6.23042C45.7102 4.13042 41.2302 3.15042 39.2002 3.99042ZM46.3402 9.38042C53.6902 12.3904 58.8002 17.8504 61.2502 25.2704C62.7902 29.7504 62.0202 30.8004 57.3302 30.8004C54.0402 30.8004 53.9002 30.7304 52.4302 27.7904C49.9102 22.7504 47.8802 20.6504 43.4702 18.2704L39.2002 16.0304V12.6704C39.2002 9.52042 40.1102 7.70042 41.6502 7.70042C42.0002 7.70042 44.1702 8.47042 46.3402 9.38042ZM35.0002 14.0004C35.0002 17.3604 36.7502 20.0204 39.7602 21.2104C43.8202 22.8204 46.6202 25.5504 48.4402 29.4704C50.1202 33.3204 52.4302 35.0004 56.0702 35.0004H58.3102L57.8902 38.5704C57.0502 45.6404 51.8702 52.7104 45.0102 56.1404C42.2102 57.4704 40.5302 57.7504 35.0002 57.7504C29.3302 57.7504 27.7902 57.4704 24.8502 56.0704C20.4402 53.8304 16.1702 49.5604 14.0702 45.2204C12.0402 41.1604 11.3402 33.6704 12.5302 28.9104C14.7702 20.0204 23.9402 12.1104 32.4102 11.9704C34.8602 11.9004 35.0002 12.0404 35.0002 14.0004Z" fill="#181000"/>
<mask id="mask0_2_109" style="mask-type:alpha" maskUnits="userSpaceOnUse" x="7" y="3" width="60" height="60">
<path d="M39.2002 3.99042C38.6402 4.20042 37.4502 5.04042 36.6102 5.81042C35.6302 6.65042 33.4602 7.42042 31.1502 7.77042C19.3202 9.38042 9.38017 19.3204 7.77017 31.2204C4.83017 52.5704 26.8802 68.9504 46.4802 59.9904C54.6002 56.2804 61.0402 47.6004 62.2302 38.9204C62.5802 36.2604 63.2802 34.4404 64.4702 33.1804C69.8602 27.4404 61.5302 11.9004 49.9802 6.23042C45.7102 4.13042 41.2302 3.15042 39.2002 3.99042ZM46.3402 9.38042C53.6902 12.3904 58.8002 17.8504 61.2502 25.2704C62.7902 29.7504 62.0202 30.8004 57.3302 30.8004C54.0402 30.8004 53.9002 30.7304 52.4302 27.7904C49.9102 22.7504 47.8802 20.6504 43.4702 18.2704L39.2002 16.0304V12.6704C39.2002 9.52042 40.1102 7.70042 41.6502 7.70042C42.0002 7.70042 44.1702 8.47042 46.3402 9.38042ZM35.0002 14.0004C35.0002 17.3604 36.7502 20.0204 39.7602 21.2104C43.8202 22.8204 46.6202 25.5504 48.4402 29.4704C50.1202 33.3204 52.4302 35.0004 56.0702 35.0004H58.3102L57.8902 38.5704C57.0502 45.6404 51.8702 52.7104 45.0102 56.1404C42.2102 57.4704 40.5302 57.7504 35.0002 57.7504C29.3302 57.7504 27.7902 57.4704 24.8502 56.0704C20.4402 53.8304 16.1702 49.5604 14.0702 45.2204C12.0402 41.1604 11.3402 33.6704 12.5302 28.9104C14.7702 20.0204 23.9402 12.1104 32.4102 11.9704C34.8602 11.9004 35.0002 12.0404 35.0002 14.0004Z" fill="#181000"/>
</mask>
<g mask="url(#mask0_2_109)">
<path d="M34.4998 15.0005C35.4998 13.0005 33.4999 8.50052 38.4999 4.00052C43.4999 -0.499476 42.9999 1.50052 42.9999 1.50052L63.4999 11.5005C64.9999 18.0005 67 31.3005 67 32.5005C67 33.7005 57.3333 35.1672 52 36.0005C46.1667 31.0005 33.4998 17.0005 34.4998 15.0005Z" fill="#FFAB11"/>
</g>
<path d="M29.61 26.6009C23.45 30.3109 23.8 40.4609 30.24 43.8209C38.99 48.3709 48.37 38.9909 43.82 30.2409C42.21 27.0909 38.85 25.2009 35 25.2009C33.11 25.2009 30.94 25.7609 29.61 26.6009ZM38.99 30.9409C42.56 34.3009 40.04 40.6009 35.07 40.6009C31.78 40.6009 29.4 38.3609 29.4 35.0709C29.4 30.0309 35.28 27.4409 38.99 30.9409Z" fill="#181000"/>
</svg>
