<?xml version="1.0" encoding="utf-8"?>
<svg width="70" height="70" viewBox="0 0 70 70" fill="none" xmlns="http://www.w3.org/2000/svg">
<path d="M63.9802 6.15976C63.5602 6.43975 63.0702 7.20975 62.7902 7.83976C62.4402 8.88976 60.4802 9.02975 43.2602 9.23975C24.2202 9.44975 24.1502 9.44975 20.1602 11.3398C9.24018 16.4498 2.66018 28.8398 4.90018 40.0398C9.94018 66.0098 44.2402 70.6998 55.7202 47.1098C57.4702 43.5398 57.6802 42.2098 57.7502 36.6098V30.0998H60.0602C61.8102 30.0998 62.5102 30.4498 63.0002 31.8498C63.7002 33.7398 65.0302 34.0898 66.3602 32.7598C67.5502 31.5698 67.5502 7.62975 66.3602 6.43975C65.3802 5.45975 65.0302 5.45975 63.9802 6.15976ZM63.0002 19.6698V26.1098L59.3602 25.6898C57.3302 25.4098 51.8702 24.2198 47.2502 23.0298C37.1702 20.4398 28.2102 19.9498 24.8502 21.8398C16.9402 26.1798 14.0702 34.8598 17.9202 42.6298C23.4502 53.6898 39.2702 53.6198 44.9402 42.4898C46.7602 38.8498 46.9002 33.3898 45.2902 30.1698C44.6602 28.8398 44.2402 27.6498 44.3802 27.4398C44.5902 27.2998 46.4802 27.5798 48.6502 28.0698C53.4802 29.1198 54.1802 30.3798 53.6902 37.2398C53.1302 45.4998 48.6502 52.2198 41.1602 56.0698C36.8202 58.3098 28.6302 58.7298 23.6602 56.9798C18.4102 55.1598 11.9002 48.5798 10.2202 43.5398C8.61018 38.8498 8.61018 32.6198 10.1502 28.0698C12.1102 22.0498 18.6202 15.9598 25.2002 13.9298C26.1802 13.6498 35.0702 13.3698 45.0102 13.3698L63.0002 13.2998V19.6698ZM37.1002 26.5298C43.3302 31.0098 43.6802 39.3398 37.8702 44.3098C31.7102 49.4898 22.1202 45.5698 20.5802 37.2398C20.0902 34.5798 21.7702 29.4698 23.8002 27.6498C27.3002 24.4998 33.5302 23.9398 37.1002 26.5298Z" fill="#181000"/>
<path d="M29.8904 27.0196C29.6104 27.2996 29.4004 28.4896 29.4004 29.6096C29.4004 31.2896 29.1904 31.5696 28.2104 31.1496C27.5104 30.7996 26.1804 30.5896 25.2004 30.5196C22.6104 30.4496 22.3304 33.3196 24.7804 34.4396C25.7604 34.8596 26.6004 35.4196 26.6004 35.6996C26.6004 35.9796 25.7604 36.5396 24.7804 36.9596C22.3304 38.0796 22.6104 40.9496 25.2004 40.8796C26.1804 40.8096 27.5104 40.5996 28.2104 40.2496C29.1904 39.8296 29.4004 40.1096 29.4004 42.2096C29.4004 44.8696 30.3804 45.7096 32.4104 44.6596C33.1104 44.3096 33.6004 43.2596 33.6004 41.9296C33.6004 40.1096 33.8104 39.8296 34.8604 40.2496C37.6604 41.4396 39.2004 41.4396 39.6904 40.2496C39.9704 39.3396 39.5504 38.4996 38.2204 37.3096L36.3304 35.6996L38.2204 34.0896C39.5504 32.8996 39.9704 32.0596 39.6904 31.1496C39.2004 29.9596 37.6604 29.9596 34.8604 31.1496C33.9504 31.4996 33.6704 31.1496 33.4604 29.2596C33.3204 27.5796 32.9004 26.8796 31.8504 26.7396C31.0104 26.5996 30.1704 26.7396 29.8904 27.0196Z" fill="#FFAB11"/>
</svg>
