<svg width="412" height="67" viewBox="0 0 412 67" fill="none" xmlns="http://www.w3.org/2000/svg">
<path d="M59.3132 59.295C89.8439 59.295 114.594 47.7462 114.594 33.5C114.594 19.2538 89.8439 7.705 59.3132 7.705C28.7826 7.705 4.03265 19.2538 4.03265 33.5C4.03265 47.7462 28.7826 59.295 59.3132 59.295Z" fill="#573B2F"/>
<path d="M27.0522 37.52C23.5237 38.0225 23.5237 38.525 23.5237 38.525C41.8385 39.0275 64.8581 42.0425 81.1566 41.205C86.0375 41.2167 92.7377 41.8348 92.2464 41.205C90.3645 38.793 30.5808 37.0175 27.0522 37.52Z" fill="white"/>
<path d="M45.5351 43.215C36.6633 40.267 22.5715 41.9865 16.6346 43.215C32.093 43.215 29.9086 44.0525 37.1338 44.89C42.9139 45.56 45.1429 44.0525 45.5351 43.215Z" fill="#E79C4F"/>
<path d="M102.16 46.7325C92.4816 42.0425 79.5882 43.3825 74.7716 44.89C84.8532 43.818 95.2708 46.9 99.1354 48.4075L102.16 46.7325Z" fill="#E79C4F"/>
<path d="M15.1223 33.165C11.9298 33.835 8.51328 35.2125 7.05707 35.9941L7.8972 37.52C9.74549 36.9616 11.4257 35.51 15.1223 35.175C18.8189 34.84 45.8711 34.5221 45.8711 34.5221C45.8711 34.5221 51.92 28.6242 56.7928 26.8171C61.6655 25.01 83.9569 33.0704 88.8858 37.0346C96.8166 38.3746 103.336 42.8241 105.184 44.3875L107.033 43.0475C106.36 39.997 94.3745 35.1361 88.8858 33.8521C81.1566 26.8171 59.3132 23.1675 56.7928 23.4671C54.2724 23.7667 48.1673 28.7712 44.5269 31.3396C36.2936 31.6746 18.3148 32.495 15.1223 33.165Z" fill="white"/>
<path d="M114.594 33.5C114.594 47.7462 89.8439 59.295 59.3132 59.295C28.7826 59.295 4.03265 47.7462 4.03265 33.5C4.03265 19.2538 28.7826 7.705 59.3132 7.705C89.8439 7.705 114.594 19.2538 114.594 33.5ZM7.2886 33.5C7.2886 46.907 30.5808 55.4425 59.3132 55.4425C88.0457 55.4425 111.338 46.907 111.338 33.5C111.338 20.0929 88.0457 11.2225 59.3132 11.2225C30.5808 11.2225 7.2886 20.0929 7.2886 33.5Z" fill="#E79C4F"/>
<path d="M232.044 18.425C218.736 17.755 209.697 25.8509 206.84 29.9825L211.041 32.83C212.116 30.954 213.617 30.15 214.233 29.9825V48.4075H219.442V26.465C220.786 25.125 225.267 24.0084 227.339 23.6175V48.4075H232.548C232.38 41.4841 232.044 27.403 232.044 26.465C232.044 25.527 237.869 24.1759 240.781 23.6175V48.4075H245.654V18.425C240.546 18.425 234.452 19.6534 232.044 20.2675V18.425Z" fill="#181000"/>
<path fill-rule="evenodd" clip-rule="evenodd" d="M264.809 17.755C286.148 17.755 284.569 49.2785 264.809 49.4125C243.302 49.4125 245.318 17.755 264.809 17.755ZM264.809 22.9475C276.813 22.9475 279.091 43.55 264.809 43.55C251.199 43.55 250.527 23.6175 264.809 22.9475Z" fill="#181000"/>
<path fill-rule="evenodd" clip-rule="evenodd" d="M137.95 48.575C137.838 38.3015 144.032 17.889 169.707 18.425V48.575H164.498C164.498 35.6775 141.31 29.48 143.158 48.575H137.95ZM149.208 31.3225C151.896 28.475 158.718 22.914 164.498 23.45V36.18C162.706 34.3934 157.138 30.9205 149.208 31.3225Z" fill="#181000"/>
<path fill-rule="evenodd" clip-rule="evenodd" d="M176.427 18.76H203.143V26.13C201.687 26.4092 198.64 27.1685 198.103 27.9725C197.912 28.2575 198.411 28.5561 199.277 29.0745C201.464 30.3838 205.995 33.0955 207.68 40.535V48.575H176.427V18.76ZM181.132 23.6175H192.894C188.973 26.2417 181.132 31.8585 181.132 33.3325V23.6175ZM181.972 43.55C183.316 39.6975 187.047 31.825 191.214 31.155C196.422 30.3175 203.648 38.525 203.143 43.55H181.972Z" fill="#181000"/>
<path d="M318.308 48.7425H287.157V18.76H316.225V23.115H292.702H292.029V23.785V26.9675V27.9145L292.925 27.5993C300.657 24.8789 306.764 27.2152 311.077 30.5773C313.241 32.2642 314.95 34.2079 316.167 35.8952C317.397 37.5977 318.093 38.9916 318.272 39.5625C318.454 40.143 318.557 41.0318 318.596 42.0881C318.635 43.1299 318.609 44.2816 318.557 45.3603C318.505 46.4374 318.427 47.433 318.362 48.1596C318.343 48.3807 318.324 48.577 318.308 48.7425ZM291.525 42.88V43.55H292.197H312.697H313.51L313.357 42.7534C312.498 38.3036 310.972 35.6215 308.831 33.9184C306.717 32.2365 304.087 31.586 301.238 31.0013C296.265 29.9806 292.756 33.4869 291.625 35.3274L291.525 35.4886V35.6775V42.88Z" fill="#E79C4F" stroke="#573B2F"/>
<path d="M337.141 40.867L337.551 40.1511L336.765 39.8975C330.303 37.8158 326.733 33.8243 324.87 29.6912C323.122 25.8133 322.872 21.7941 323.195 19.095H328.786C328.429 26.5133 330.785 30.7582 334.101 32.9488C337.467 35.173 341.644 35.1546 344.443 34.4866L344.511 34.4698L344.578 34.439C345.616 33.9412 346.413 32.8962 347.031 31.6804C347.659 30.4464 348.16 28.9353 348.55 27.3634C349.262 24.4988 349.642 21.3448 349.793 19.095H355.311C354.051 32.0795 348.664 39.7679 342.474 44.1379C336.408 48.4189 329.508 49.5599 324.794 49.2916V44.1781C328.922 43.8947 331.781 43.3554 333.694 42.7755C334.698 42.4713 335.455 42.1517 336.002 41.8442C336.526 41.5501 336.936 41.2238 337.141 40.867Z" fill="#E79C4F" stroke="#573B2F"/>
<path d="M407.631 18.9806V49.245H402.591V24.9575V24.3661L402.002 24.2927C397.956 23.7885 394.015 25.905 390.809 28.5946C388.019 30.9315 385.69 33.7804 384.185 36.0011C382.32 32.6078 379.215 30.0191 376.049 28.1421C372.554 26.0677 368.915 24.8204 366.613 24.3039L365.793 24.12V24.9575V49.245H360.584V18.9963C365.208 18.331 369.926 19.427 374.009 21.1325C378.254 22.9054 381.755 25.3116 383.667 26.9702L384.148 27.3875L384.592 26.9313C392.536 18.7585 402.947 18.197 407.631 18.9806Z" fill="#E79C4F" stroke="#573B2F"/>
</svg>
