<svg width="111" height="53" viewBox="0 0 111 53" fill="none" xmlns="http://www.w3.org/2000/svg">
<path d="M55.3132 52.295C85.8439 52.295 110.594 40.7462 110.594 26.5C110.594 12.2538 85.8439 0.705002 55.3132 0.705002C24.7826 0.705002 0.0326538 12.2538 0.0326538 26.5C0.0326538 40.7462 24.7826 52.295 55.3132 52.295Z" fill="#573B2F"/>
<path d="M23.0522 30.52C19.5237 31.0225 19.5237 31.525 19.5237 31.525C37.8385 32.0275 60.8581 35.0425 77.1566 34.205C82.0375 34.2167 88.7377 34.8348 88.2464 34.205C86.3645 31.793 26.5808 30.0175 23.0522 30.52Z" fill="white"/>
<path d="M41.5351 36.215C32.6633 33.267 18.5715 34.9865 12.6346 36.215C28.093 36.215 25.9086 37.0525 33.1338 37.89C38.9139 38.56 41.1429 37.0525 41.5351 36.215Z" fill="#E79C4F"/>
<path d="M98.1599 39.7325C88.4816 35.0425 75.5882 36.3825 70.7716 37.89C80.8532 36.818 91.2708 39.9 95.1354 41.4075L98.1599 39.7325Z" fill="#E79C4F"/>
<path d="M11.1223 26.165C7.92982 26.835 4.51328 28.2125 3.05707 28.9941L3.8972 30.52C5.74549 29.9616 7.42575 28.51 11.1223 28.175C14.8189 27.84 41.8711 27.5221 41.8711 27.5221C41.8711 27.5221 47.92 21.6242 52.7928 19.8171C57.6655 18.01 79.9569 26.0704 84.8858 30.0346C92.8166 31.3746 99.336 35.8241 101.184 37.3875L103.033 36.0475C102.36 32.997 90.3745 28.1361 84.8858 26.8521C77.1566 19.8171 55.3132 16.1675 52.7928 16.4671C50.2724 16.7667 44.1673 21.7712 40.5269 24.3396C32.2936 24.6746 14.3148 25.495 11.1223 26.165Z" fill="white"/>
<path d="M110.594 26.5C110.594 40.7462 85.8439 52.295 55.3132 52.295C24.7826 52.295 0.0326538 40.7462 0.0326538 26.5C0.0326538 12.2538 24.7826 0.705002 55.3132 0.705002C85.8439 0.705002 110.594 12.2538 110.594 26.5ZM3.2886 26.5C3.2886 39.907 26.5808 48.4425 55.3132 48.4425C84.0457 48.4425 107.338 39.907 107.338 26.5C107.338 13.0929 84.0457 4.2225 55.3132 4.2225C26.5808 4.2225 3.2886 13.0929 3.2886 26.5Z" fill="#E79C4F"/>
</svg>
