<svg width="100" height="100" viewBox="0 0 100 100" fill="none" xmlns="http://www.w3.org/2000/svg">
<rect width="100" height="100" rx="50" fill="#FFAB11"/>
<path d="M62.3362 76.9955C63.0532 76.9996 63.7638 76.8609 64.4266 76.5875C65.0894 76.314 65.6911 75.9113 66.1965 75.4028L73.5122 68.0871C74.015 67.5813 74.2972 66.8971 74.2972 66.184C74.2972 65.4708 74.015 64.7866 73.5122 64.2808L62.7142 53.4828C62.2084 52.98 61.5242 52.6978 60.811 52.6978C60.0979 52.6978 59.4137 52.98 58.9079 53.4828L54.5887 57.775C51.5983 56.9777 48.8288 55.5099 46.4902 53.4828C44.4686 51.1405 43.0014 48.3722 42.198 45.3843L46.4902 41.0651C46.9929 40.5593 47.2752 39.8751 47.2752 39.1619C47.2752 38.4488 46.9929 37.7646 46.4902 37.2588L35.6921 26.4608C35.1864 25.958 34.5022 25.6758 33.789 25.6758C33.0758 25.6758 32.3916 25.958 31.8858 26.4608L24.5972 33.8034C24.0887 34.3089 23.686 34.9106 23.4125 35.5733C23.139 36.2361 23.0003 36.9467 23.0045 37.6637C23.2494 48.036 27.3941 57.9351 34.6123 65.3876C42.0649 72.6059 51.964 76.7506 62.3362 76.9955ZM33.8025 32.2107L40.7942 39.2024L37.3119 42.6848C36.982 42.9937 36.735 43.3806 36.5935 43.8098C36.4521 44.239 36.4206 44.6968 36.502 45.1413C37.511 49.6505 39.6472 53.8301 42.7109 57.2891C46.1672 60.3567 50.3478 62.4935 54.8586 63.498C55.2964 63.5895 55.7501 63.5708 56.1789 63.4436C56.6077 63.3163 56.9981 63.0846 57.3152 62.7691L60.7975 59.2057L67.7892 66.1975L62.3902 71.5965C53.438 71.366 44.8961 67.7932 38.4456 61.5813C32.2177 55.1282 28.6346 46.5751 28.4035 37.6097L33.8025 32.2107Z" fill="white"/>
<path d="M71.6022 46.2661C71.6147 46.8318 72.0651 47.3012 72.6309 47.3012H76.0163C76.5601 47.3012 77.0065 46.8665 76.9959 46.3228C76.9403 43.4448 76.3625 40.5979 75.288 37.9215C74.0918 34.9422 72.3048 32.2359 70.0346 29.9658C67.7645 27.6956 65.0582 25.9086 62.0789 24.7124C59.4025 23.6379 56.5557 23.0601 53.6776 23.0044C53.1339 22.9939 52.6992 23.4403 52.6992 23.9841V27.3695C52.6992 27.9353 53.1686 28.3857 53.7343 28.3982C55.8892 28.4457 58.0215 28.8742 60.0319 29.6665C62.3637 30.5855 64.4816 31.9743 66.2538 33.7465C68.0261 35.5188 69.4149 37.6367 70.3339 39.9685C71.1262 41.9789 71.5547 44.1112 71.6022 46.2661Z" fill="white"/>
<path d="M52.6982 38.2027C52.6982 38.755 53.1468 39.1987 53.6982 39.2299C58.3327 39.4925 60.507 41.6668 60.7695 46.3013C60.8008 46.8527 61.2445 47.3012 61.7968 47.3012H65.1958C65.7481 47.3012 66.1984 46.8512 66.1738 46.2995C65.8287 38.5683 61.4311 34.1708 53.7 33.8257C53.1483 33.8011 52.6982 34.2514 52.6982 34.8037V38.2027Z" fill="white"/>
</svg>
