<svg width="60" height="60" viewBox="0 0 60 60" fill="none" xmlns="http://www.w3.org/2000/svg">
<path d="M30 3.75C17.5732 3.75 7.5 13.8232 7.5 26.25C7.5 32.4611 10.0166 38.085 14.0869 42.1564C18.1582 46.23 27.75 52.125 28.3125 58.3125C28.3968 59.2402 29.0685 60 30 60C30.9315 60 31.6032 59.2402 31.6875 58.3125C32.25 52.125 41.8417 46.23 45.9131 42.1564C49.9834 38.085 52.5 32.4611 52.5 26.25C52.5 13.8232 42.4268 3.75 30 3.75Z" fill="#FF4433"/>
<path d="M30 34.125C34.3492 34.125 37.8749 30.5992 37.8749 26.25C37.8749 21.9008 34.3492 18.375 30 18.375C25.6508 18.375 22.125 21.9008 22.125 26.25C22.125 30.5992 25.6508 34.125 30 34.125Z" fill="white"/>
</svg>
