<svg width="20" height="18" viewBox="0 0 20 18" fill="none" xmlns="http://www.w3.org/2000/svg">
<path d="M6.48438 11.7189H17.0705C17.3326 11.7189 17.5626 11.5456 17.6335 11.2938L19.9774 3.09052C20.0278 2.91367 19.9933 2.72369 19.8824 2.57675C19.7713 2.43027 19.5985 2.34375 19.4142 2.34375H5.13168L4.71283 0.458984C4.65332 0.190582 4.41528 0 4.14062 0H0.585938C0.262146 0 0 0.262146 0 0.585938C0 0.909882 0.262146 1.17188 0.585938 1.17188H3.67035L5.78629 10.6934C5.16373 10.9641 4.72656 11.5837 4.72656 12.3048C4.72656 13.2741 5.51514 14.0627 6.48438 14.0627H17.0705C17.3944 14.0627 17.6564 13.8007 17.6564 13.4767C17.6564 13.1529 17.3944 12.8908 17.0705 12.8908H6.48438C6.16165 12.8908 5.89844 12.6282 5.89844 12.3048C5.89844 11.9815 6.16165 11.7189 6.48438 11.7189Z" fill="#16B6D2"/>
<path d="M5.89844 15.8204C5.89844 16.7898 6.68701 17.5782 7.6564 17.5782C8.62564 17.5782 9.41422 16.7898 9.41422 15.8204C9.41422 14.8512 8.62564 14.0626 7.6564 14.0626C6.68701 14.0626 5.89844 14.8512 5.89844 15.8204Z" fill="#16B6D2"/>
<path d="M14.1406 15.8204C14.1406 16.7898 14.9292 17.5782 15.8984 17.5782C16.8678 17.5782 17.6562 16.7898 17.6562 15.8204C17.6562 14.8512 16.8678 14.0626 15.8984 14.0626C14.9292 14.0626 14.1406 14.8512 14.1406 15.8204Z" fill="#16B6D2"/>
</svg>
