<svg width="15" height="18" viewBox="0 0 15 18" fill="none" xmlns="http://www.w3.org/2000/svg">
<path d="M7.38658 8.66055C8.57639 8.66055 9.60667 8.23382 10.4485 7.39188C11.2903 6.55008 11.717 5.52008 11.717 4.33014C11.717 3.14061 11.2903 2.11048 10.4483 1.2684C9.60639 0.426732 8.57625 0 7.38658 0C6.19664 0 5.16664 0.426732 4.32483 1.26854C3.48302 2.11034 3.05615 3.14048 3.05615 4.33014C3.05615 5.52008 3.48302 6.55021 4.32497 7.39202C5.16691 8.23369 6.19705 8.66055 7.38658 8.66055Z" fill="#16B6D2"/>
<path d="M14.9636 13.825C14.9394 13.4746 14.8903 13.0925 14.818 12.6889C14.745 12.2824 14.651 11.898 14.5386 11.5467C14.4224 11.1836 14.2644 10.8251 14.069 10.4815C13.8663 10.1248 13.6282 9.81429 13.361 9.55875C13.0816 9.2914 12.7395 9.07646 12.3439 8.91968C11.9496 8.76372 11.5127 8.68471 11.0454 8.68471C10.8619 8.68471 10.6844 8.76001 10.3416 8.98319C10.1306 9.12077 9.88386 9.27988 9.60843 9.45587C9.37291 9.60593 9.05385 9.74653 8.65977 9.87382C8.27528 9.99823 7.8849 10.0613 7.49959 10.0613C7.11428 10.0613 6.72403 9.99823 6.33914 9.87382C5.94546 9.74667 5.62641 9.60607 5.39116 9.45601C5.11833 9.28167 4.87143 9.12255 4.65731 8.98305C4.31493 8.75988 4.1373 8.68457 3.95376 8.68457C3.48629 8.68457 3.04955 8.76372 2.65546 8.91981C2.26014 9.07632 1.9179 9.29127 1.63821 9.55888C1.37114 9.81457 1.13288 10.125 0.930419 10.4815C0.735227 10.8251 0.577208 11.1835 0.460888 11.5469C0.348547 11.8982 0.254586 12.2824 0.181612 12.6889C0.109324 13.0919 0.0602173 13.4742 0.0359383 13.8254C0.0120709 14.1694 0 14.5264 0 14.8871C0 15.8256 0.298343 16.5853 0.886662 17.1457C1.46771 17.6986 2.23654 17.9791 3.17149 17.9791H11.8285C12.7635 17.9791 13.532 17.6987 14.1132 17.1457C14.7017 16.5858 15 15.8258 15 14.8869C14.9999 14.5247 14.9877 14.1673 14.9636 13.825Z" fill="#16B6D2"/>
</svg>
