<svg width="16" height="13" viewBox="0 0 16 13" fill="none" xmlns="http://www.w3.org/2000/svg">
<path d="M1 2.33333C1 1.97971 1.14048 1.64057 1.39052 1.39052C1.64057 1.14048 1.97971 1 2.33333 1H13C13.3536 1 13.6928 1.14048 13.9428 1.39052C14.1929 1.64057 14.3333 1.97971 14.3333 2.33333V10.3333C14.3333 10.687 14.1929 11.0261 13.9428 11.2761C13.6928 11.5262 13.3536 11.6667 13 11.6667H2.33333C1.97971 11.6667 1.64057 11.5262 1.39052 11.2761C1.14048 11.0261 1 10.687 1 10.3333V2.33333Z" stroke="#469C45" stroke-width="2" stroke-linecap="round" stroke-linejoin="round"/>
<path d="M1 3.66675L6.00067 7.66742C6.47353 8.04576 7.06108 8.25188 7.66667 8.25188C8.27225 8.25188 8.85981 8.04576 9.33267 7.66742L14.3333 3.66675" stroke="#469C45" stroke-width="2" stroke-linejoin="round"/>
</svg>
