<svg width="42" height="42" viewBox="0 0 42 42" fill="none" xmlns="http://www.w3.org/2000/svg">
<path fill-rule="evenodd" clip-rule="evenodd" d="M10.2205 17.2488C13.3483 24.0596 18.9141 29.4744 25.8332 32.4084L25.855 32.4177L27.1917 33.0135C28.8938 33.7718 30.8945 33.2332 31.9858 31.7228L34.2159 28.6363C34.3521 28.4477 34.317 28.1856 34.136 28.0395L30.2427 24.8987C30.0492 24.7425 29.7646 24.7789 29.6165 24.9787L28.1012 27.0234C27.7333 27.5199 27.0687 27.6925 26.5056 27.4376C21.3319 25.0963 17.1744 20.9388 14.833 15.7651C14.5782 15.202 14.7507 14.5374 15.2473 14.1694L17.292 12.6542C17.4918 12.5061 17.5281 12.2215 17.372 12.028L14.2307 8.13413C14.0847 7.95315 13.8226 7.918 13.6341 8.05411L10.5308 10.2944C9.01044 11.392 8.47501 13.4094 9.25107 15.1165L10.2194 17.2465C10.2198 17.2473 10.2201 17.248 10.2205 17.2488ZM24.7974 34.8204C17.2793 31.6292 11.2324 25.7439 7.83385 18.3418L7.83181 18.3374L6.86143 16.2029C5.568 13.3578 6.46038 9.99533 8.99434 8.16603L12.0976 5.92576C13.4173 4.97304 15.2517 5.2191 16.2737 6.48592L19.415 10.3797C20.508 11.7345 20.2534 13.7267 18.8549 14.7632L17.6833 15.6314C19.6624 19.4716 22.799 22.6083 26.6392 24.5874L27.5075 23.4157C28.5439 22.0172 30.5361 21.7626 31.8909 22.8556L35.7842 25.9965C37.0514 27.0188 37.2972 28.8539 36.3436 30.1736L34.1135 33.2602C32.2946 35.7775 28.9602 36.6752 26.1234 35.4113L24.7974 34.8204Z" fill="white"/>
</svg>
