<svg width="21" height="25" viewBox="0 0 21 25" fill="none" xmlns="http://www.w3.org/2000/svg">
<path d="M16.2539 0.593385C12.4424 -0.197795 8.48429 -0.197795 4.67277 0.593385C2.98691 0.988974 0.861257 3.20428 0.494764 4.94487C-0.164922 8.34694 -0.164922 11.8281 0.494764 15.2302C0.934555 16.9708 3.06021 19.1861 4.67277 19.5817C4.74607 19.5817 4.81937 19.6608 4.81937 19.7399V24.7244C4.81937 24.9617 5.11257 25.1199 5.25916 24.8826L7.45812 22.4299C7.45812 22.4299 9.21728 20.452 9.51047 20.1355C9.51047 20.1355 9.58377 20.0564 9.65707 20.0564C11.856 20.1355 14.1283 19.8982 16.3272 19.5026C18.0131 19.107 20.1387 16.8917 20.5052 15.1511C21.1649 11.749 21.1649 8.26782 20.5052 4.86575C20.0654 3.20428 17.9398 0.988974 16.2539 0.593385ZM16.3272 15.4676C15.9607 16.2587 15.5209 16.8917 14.788 17.2873C14.5681 17.3664 14.3482 17.4455 14.1283 17.5246C13.8351 17.4455 13.6152 17.3664 13.3953 17.2873C11.0497 16.2587 8.85079 14.8346 7.09162 12.7775C6.13874 11.5908 5.33246 10.2458 4.67277 8.82165C4.37958 8.10959 4.08639 7.47664 3.86649 6.76458C3.6466 6.13164 4.01309 5.4987 4.37958 5.02399C4.74607 4.54928 5.18586 4.23281 5.69895 3.99545C6.06544 3.7581 6.43194 3.91634 6.72513 4.23281C7.31152 5.02399 7.89791 5.81517 8.3377 6.68546C8.63089 7.23929 8.55759 7.87223 8.0445 8.26782C7.8979 8.34694 7.82461 8.42606 7.67801 8.5843C7.60471 8.66341 7.45811 8.74253 7.38481 8.90077C7.23822 9.13812 7.23822 9.37547 7.31152 9.61283C7.8979 11.4325 8.99738 12.8567 10.6832 13.6478C10.9764 13.8061 11.1963 13.8852 11.5628 13.8852C12.0759 13.8061 12.2958 13.1731 12.6623 12.8567C13.0288 12.5402 13.4686 12.5402 13.9084 12.7775C14.2749 13.0149 14.6414 13.3314 15.0812 13.6478C15.4476 13.9643 15.8141 14.2017 16.1806 14.5181C16.4005 14.6764 16.4738 15.072 16.3272 15.4676ZM13.2487 9.53371C13.1754 9.53371 13.1021 9.53371 13.2487 9.53371C12.9555 9.53371 12.8822 9.37548 12.8089 9.13812C12.8089 8.97989 12.8089 8.74253 12.7356 8.5843C12.6623 8.26782 12.5157 7.95135 12.2225 7.714C12.0759 7.63488 11.9293 7.55576 11.7827 7.47664C11.5628 7.39753 11.4162 7.39753 11.1963 7.39753C10.9764 7.31841 10.9031 7.16017 10.9031 6.92282C10.9031 6.76458 11.123 6.60635 11.2696 6.60635C12.4424 6.68547 13.322 7.39752 13.4686 8.90077C13.4686 8.97988 13.4686 9.13812 13.4686 9.21724C13.4686 9.37547 13.3953 9.53371 13.2487 9.53371ZM12.5157 6.05252C12.1492 5.89429 11.7827 5.73605 11.3429 5.65693C11.1963 5.65693 10.9764 5.57781 10.8298 5.57781C10.6099 5.57781 10.4634 5.41958 10.5366 5.18222C10.5366 4.94487 10.6832 4.78663 10.9031 4.86575C11.6361 4.94487 12.2958 5.10311 12.9555 5.41958C14.2749 6.13164 15.0079 7.31841 15.2277 8.90077C15.2277 8.97988 15.2277 9.059 15.2277 9.13812C15.2277 9.29636 15.2277 9.45459 15.2277 9.69194C15.2277 9.77106 15.2277 9.85018 15.2277 9.9293C15.1545 10.2458 14.6414 10.3249 14.5681 9.9293C14.5681 9.85018 14.4948 9.69195 14.4948 9.61283C14.4948 8.90077 14.3482 8.1887 14.055 7.55576C13.6152 6.8437 13.1021 6.36899 12.5157 6.05252ZM16.4738 10.7996C16.2539 10.7996 16.1073 10.5622 16.1073 10.3249C16.1073 9.85018 16.034 9.37547 15.9607 8.90077C15.6675 6.36899 13.7618 4.31193 11.4895 3.91634C11.123 3.83722 10.7565 3.83722 10.4634 3.7581C10.2435 3.7581 9.95026 3.7581 9.87696 3.44163C9.80366 3.20428 10.0236 2.96692 10.2435 2.96692C10.3168 2.96692 10.3901 2.96692 10.3901 2.96692C10.5367 2.96692 13.3953 3.04604 10.3901 2.96692C13.4686 3.04604 16.034 5.26134 16.5471 8.5843C16.6204 9.13812 16.6937 9.69195 16.6937 10.3249C16.8403 10.5622 16.6937 10.7996 16.4738 10.7996Z" fill="white"/>
</svg>
