<svg width="22" height="23" viewBox="0 0 22 23" fill="none" xmlns="http://www.w3.org/2000/svg">
<path d="M18.7805 3.36585C16.7108 1.2096 14.1812 0 11.2683 0C5.21254 0 0 4.91048 0 11.2195C0 13.216 0.689896 15.1522 1.60976 16.8293L0 23L5.90244 21.3171C7.5122 22.1955 9.42857 23 11.2683 23C17.324 23 22 17.5285 22 11.2195C21.9233 8.26465 20.8502 5.5221 18.7805 3.36585ZM16.0976 15.7073C15.8676 16.3462 15.0244 16.7494 14.4878 16.8293C14.0279 16.9091 13.4913 16.989 12.878 16.8293C12.4948 16.6695 11.8815 16.5877 11.2683 16.2683C8.50871 15.0704 6.59233 12.0201 6.43902 11.7805C6.28571 11.6208 5.36585 10.4131 5.36585 8.97561C5.36585 7.53811 6.20906 7.05115 6.43902 6.73171C6.66899 6.41226 6.74565 6.17073 6.97561 6.17073C7.12892 6.17073 7.35889 6.17073 7.5122 6.17073C7.66551 6.17073 7.81882 6.17268 8.04878 6.73171C8.27875 7.29074 9.0453 8.89575 9.12195 8.97561C9.19861 9.13533 9.19861 8.81589 9.12195 8.97561C9.0453 9.13533 8.73868 9.37686 8.58537 9.53659C8.43206 9.69631 8.66202 10.0177 8.58537 10.0976C8.43206 10.2573 7.89547 10.419 8.04878 10.6585C8.20209 10.978 8.81533 12.1038 9.65854 12.9024C10.7317 13.8608 11.4983 13.8647 11.8049 14.0244C12.1115 14.1841 12.7247 14.1841 12.878 14.0244C13.0314 13.8647 13.2613 13.2219 13.4146 12.9024C13.5679 12.583 13.7213 12.8226 13.9512 12.9024C14.1812 12.9823 15.8676 13.3037 16.0976 13.4634C16.4042 13.6231 16.5575 13.9445 16.6341 14.0244C16.7108 14.264 16.3275 15.0684 16.0976 15.7073Z" fill="white"/>
</svg>
