<svg width="22" height="23" viewBox="0 0 22 23" fill="none" xmlns="http://www.w3.org/2000/svg">
<path d="M2.09356 16.9555L2.14375 16.7631L2.04814 16.5888C1.15252 14.9559 0.5 13.1038 0.5 11.2195C0.5 5.19671 5.47849 0.5 11.2683 0.5C14.0277 0.5 16.4317 1.64084 18.4198 3.71209C20.3965 5.77154 21.425 8.39056 21.5 11.226C21.4968 17.3107 16.9942 22.5 11.2683 22.5C9.55832 22.5 7.73358 21.7468 6.14195 20.8782L5.96223 20.7801L5.76534 20.8362L0.704789 22.2791L2.09356 16.9555ZM7.50371 13.9984C8.36558 14.9616 9.58581 16.0788 11.0532 16.72C11.3982 16.8977 11.736 17.0067 12.0205 17.089C12.1085 17.1144 12.1872 17.1364 12.2583 17.1562C12.4403 17.2069 12.5731 17.2438 12.6857 17.2908L12.7181 17.3043L12.752 17.3131C13.4739 17.5011 14.1004 17.4039 14.5678 17.3229C14.9059 17.2715 15.3124 17.126 15.6717 16.9025C16.0286 16.6806 16.4001 16.3431 16.568 15.8767C16.6224 15.7256 16.6866 15.5626 16.7539 15.393C16.7596 15.3787 16.7653 15.3643 16.771 15.3499C16.832 15.1965 16.8949 15.0379 16.9498 14.8895C17.0091 14.7292 17.0652 14.5641 17.101 14.4159C17.119 14.3416 17.1346 14.26 17.141 14.1781C17.1469 14.1021 17.1481 13.9899 17.1104 13.872L17.0751 13.7617L17.0061 13.6898C17.0032 13.6856 16.9936 13.6722 16.974 13.6436L16.9719 13.6404C16.9425 13.5974 16.899 13.5337 16.846 13.4659C16.7417 13.3324 16.5812 13.1572 16.3501 13.0314C16.268 12.9811 16.1762 12.9468 16.1153 12.9253C16.0314 12.8956 15.9334 12.8662 15.8312 12.8378C15.626 12.7809 15.3776 12.7212 15.1366 12.6657C14.981 12.6299 14.8231 12.5946 14.6797 12.5626C14.6018 12.5451 14.5282 12.5287 14.4615 12.5136C14.365 12.4918 14.2828 12.4729 14.2186 12.4572C14.1866 12.4494 14.1609 12.4428 14.1414 12.4375C14.1199 12.4317 14.113 12.4293 14.1152 12.4301C14.1092 12.428 14.0945 12.4216 14.0442 12.3921C14.0413 12.3905 14.0378 12.3884 14.0338 12.386C13.9958 12.3634 13.9091 12.3119 13.8182 12.2804C13.6962 12.238 13.4992 12.206 13.2944 12.3159C13.117 12.4111 13.0199 12.5693 12.9639 12.6861C12.91 12.7983 12.8437 12.9559 12.7803 13.1063C12.748 13.1831 12.7164 13.2581 12.6877 13.3241C12.6412 13.4313 12.5987 13.5241 12.5612 13.5963C12.5536 13.611 12.5468 13.6235 12.541 13.6341C12.5049 13.6399 12.4567 13.6442 12.399 13.6442C12.3235 13.6442 12.2453 13.6369 12.1755 13.6234C12.1028 13.6093 12.0567 13.5918 12.0359 13.5809C11.913 13.517 11.7631 13.4742 11.6524 13.4426C11.6444 13.4403 11.6365 13.438 11.629 13.4359C11.4975 13.3981 11.3586 13.358 11.1994 13.2965C10.8894 13.1767 10.4839 12.9679 9.99707 12.5344C9.36442 11.9333 8.86253 11.1187 8.62165 10.6777C8.63679 10.6688 8.65316 10.6592 8.67108 10.6485C8.7089 10.626 8.7537 10.5986 8.79724 10.5684C8.83899 10.5394 8.8943 10.4978 8.94608 10.4438C9.06281 10.3222 9.09265 10.182 9.09947 10.0972C9.10609 10.015 9.09481 9.94431 9.08725 9.90479C9.07904 9.86184 9.06812 9.82132 9.06067 9.79427C9.05895 9.78803 9.05738 9.7824 9.05594 9.77721C9.06484 9.76902 9.07405 9.76057 9.08363 9.7518C9.12405 9.71473 9.17083 9.67185 9.22711 9.61828C9.27205 9.57551 9.32067 9.52777 9.36691 9.47801C9.37671 9.47367 9.38644 9.46899 9.39607 9.46397C9.50324 9.40814 9.56461 9.3286 9.59581 9.27848C9.62823 9.22641 9.64569 9.17809 9.65537 9.14531C9.67463 9.08011 9.67944 9.02038 9.67944 8.97561C9.67944 8.93084 9.67463 8.87111 9.65537 8.80591C9.64569 8.77313 9.62823 8.72481 9.59581 8.67274C9.56841 8.62872 9.51775 8.56202 9.43323 8.50861C9.42289 8.48847 9.41194 8.46697 9.40041 8.44418C9.3165 8.27835 9.20808 8.05644 9.09397 7.81772C8.86418 7.33697 8.62039 6.80696 8.51118 6.54149C8.38914 6.24482 8.2547 6.00665 8.06784 5.85418C7.84262 5.67041 7.61476 5.67063 7.51835 5.67073C7.51624 5.67073 7.51418 5.67073 7.5122 5.67073H7.5113H7.5104H7.50949H7.50859H7.50768H7.50677H7.50587H7.50495H7.50404H7.50313H7.50221H7.50129H7.50037H7.49945H7.49853H7.4976H7.49668H7.49575H7.49482H7.49389H7.49295H7.49202H7.49108H7.49015H7.48921H7.48827H7.48732H7.48638H7.48544H7.48449H7.48354H7.48259H7.48164H7.48068H7.47973H7.47877H7.47782H7.47686H7.4759H7.47493H7.47397H7.473H7.47204H7.47107H7.4701H7.46913H7.46816H7.46718H7.46621H7.46523H7.46425H7.46327H7.46229H7.46131H7.46033H7.45934H7.45835H7.45737H7.45638H7.45539H7.45439H7.4534H7.45241H7.45141H7.45041H7.44941H7.44841H7.44741H7.44641H7.44541H7.4444H7.4434H7.44239H7.44138H7.44037H7.43936H7.43835H7.43733H7.43632H7.4353H7.43428H7.43327H7.43225H7.43123H7.4302H7.42918H7.42816H7.42713H7.4261H7.42508H7.42405H7.42302H7.42199H7.42095H7.41992H7.41888H7.41785H7.41681H7.41577H7.41474H7.4137H7.41265H7.41161H7.41057H7.40952H7.40848H7.40743H7.40639H7.40534H7.40429H7.40324H7.40219H7.40113H7.40008H7.39903H7.39797H7.39691H7.39586H7.3948H7.39374H7.39268H7.39162H7.39056H7.3895H7.38843H7.38737H7.3863H7.38524H7.38417H7.3831H7.38203H7.38096H7.37989H7.37882H7.37775H7.37667H7.3756H7.37453H7.37345H7.37237H7.3713H7.37022H7.36914H7.36806H7.36698H7.3659H7.36482H7.36373H7.36265H7.36157H7.36048H7.3594H7.35831H7.35722H7.35614H7.35505H7.35396H7.35287H7.35178H7.35069H7.3496H7.3485H7.34741H7.34632H7.34522H7.34413H7.34303H7.34194H7.34084H7.33974H7.33865H7.33755H7.33645H7.33535H7.33425H7.33315H7.33205H7.33095H7.32984H7.32874H7.32764H7.32653H7.32543H7.32432H7.32322H7.32211H7.32101H7.3199H7.31879H7.31768H7.31658H7.31547H7.31436H7.31325H7.31214H7.31103H7.30992H7.30881H7.3077H7.30658H7.30547H7.30436H7.30325H7.30213H7.30102H7.2999H7.29879H7.29767H7.29656H7.29544H7.29433H7.29321H7.2921H7.29098H7.28986H7.28874H7.28763H7.28651H7.28539H7.28427H7.28315H7.28204H7.28092H7.2798H7.27868H7.27756H7.27644H7.27532H7.2742H7.27308H7.27196H7.27084H7.26971H7.26859H7.26747H7.26635H7.26523H7.26411H7.26299H7.26186H7.26074H7.25962H7.2585H7.25738H7.25625H7.25513H7.25401H7.25289H7.25176H7.25064H7.24952H7.24839H7.24727H7.24615H7.24503H7.2439H7.24278H7.24166H7.24053H7.23941H7.23829H7.23717H7.23604H7.23492H7.2338H7.23268H7.23155H7.23043H7.22931H7.22819H7.22706H7.22594H7.22482H7.2237H7.22258H7.22145H7.22033H7.21921H7.21809H7.21697H7.21585H7.21473H7.21361H7.21249H7.21137H7.21025H7.20913H7.20801H7.20689H7.20577H7.20465H7.20353H7.20241H7.2013H7.20018H7.19906H7.19794H7.19683H7.19571H7.19459H7.19348H7.19236H7.19125H7.19013H7.18902H7.1879H7.18679H7.18567H7.18456H7.18345H7.18233H7.18122H7.18011H7.179H7.17789H7.17678H7.17567H7.17456H7.17345H7.17234H7.17123H7.17012H7.16901H7.16791H7.1668H7.16569H7.16459H7.16348H7.16238H7.16127H7.16017H7.15907H7.15796H7.15686H7.15576H7.15466H7.15356H7.15246H7.15136H7.15026H7.14916H7.14806H7.14696H7.14587H7.14477H7.14368H7.14258H7.14149H7.14039H7.1393H7.13821H7.13712H7.13603H7.13494H7.13385H7.13276H7.13167H7.13058H7.12949H7.12841H7.12732H7.12624H7.12515H7.12407H7.12299H7.12191H7.12083H7.11975H7.11867H7.11759H7.11651H7.11543H7.11436H7.11328H7.11221H7.11113H7.11006H7.10899H7.10791H7.10684H7.10577H7.10471H7.10364H7.10257H7.1015H7.10044H7.09937H7.09831H7.09725H7.09619H7.09512H7.09406H7.09301H7.09195H7.09089H7.08983H7.08878H7.08772H7.08667H7.08562H7.08457H7.08352H7.08247H7.08142H7.08037H7.07933H7.07828H7.07724H7.07619H7.07515H7.07411H7.07307H7.07203H7.07099H7.06996H7.06892H7.06789H7.06685H7.06582H7.06479H7.06376H7.06273H7.0617H7.06068H7.05965H7.05863H7.0576H7.05658H7.05556H7.05454H7.05352H7.0525H7.05149H7.05047H7.04946H7.04845H7.04744H7.04643H7.04542H7.04441H7.0434H7.0424H7.04139H7.04039H7.03939H7.03839H7.03739H7.0364H7.0354H7.0344H7.03341H7.03242H7.03143H7.03044H7.02945H7.02847H7.02748H7.0265H7.02551H7.02453H7.02355H7.02258H7.0216H7.02062H7.01965H7.01868H7.01771H7.01674H7.01577H7.0148H7.01384H7.01287H7.01191H7.01095H7.00999H7.00903H7.00808H7.00712H7.00617H7.00522H7.00427H7.00332H7.00237H7.00143H7.00048H6.99954H6.9986H6.99766H6.99672H6.99579H6.99485H6.99392H6.99299H6.99206H6.99113H6.9902H6.98928H6.98836H6.98743H6.98651H6.9856H6.98468H6.98377H6.98285H6.98194H6.98103H6.98012H6.97922H6.97831H6.97741H6.97651H6.97561C6.63182 5.67073 6.42575 5.87641 6.31003 6.02784C6.25885 6.09482 6.21071 6.1703 6.17198 6.23103L6.16606 6.24031C6.12258 6.30844 6.08154 6.37248 6.03324 6.43958C6.01273 6.46807 5.9804 6.50057 5.90896 6.5724C5.8839 6.59758 5.85404 6.6276 5.81819 6.66398C5.69971 6.78421 5.55026 6.94291 5.40692 7.14718C5.11242 7.56684 4.86585 8.14718 4.86585 8.97561C4.86585 9.79739 5.12742 10.5366 5.39715 11.0796C5.63888 11.5663 5.90408 11.9288 6.03998 12.0846C6.17139 12.29 6.69124 13.0905 7.50371 13.9984Z" fill="white" stroke="black"/>
</svg>
