<svg width="33" height="23" viewBox="0 0 33 23" fill="none" xmlns="http://www.w3.org/2000/svg">
<path d="M19.3957 2.97254L19.2456 2.78571H19.0059H14.85H14.35V3.28571V8.21429V8.71429H14.85H22.9659H24.0091L23.3557 7.90111L19.3957 2.97254ZM11.55 8.71429H12.05V8.21429V2.46429C12.05 1.38198 12.9327 0.5 14.025 0.5H19.0059C19.8615 0.5 20.6658 0.884264 21.1935 1.54438L21.1943 1.54532L26.8043 8.52746L26.9544 8.71429H27.1941H29.7C30.3386 8.71429 30.85 9.22662 30.85 9.85714V13.1429V13.6429H31.35C31.9886 13.6429 32.5 14.1552 32.5 14.7857C32.5 15.4162 31.9886 15.9286 31.35 15.9286H29.6484H29.0763L29.1529 16.4956C29.1863 16.7424 29.2052 16.9972 29.2052 17.25C29.2052 20.1497 26.8478 22.5 23.9302 22.5C21.0125 22.5 18.6552 20.1497 18.6552 17.25C18.6552 16.9972 18.674 16.7424 18.7074 16.4956L18.784 15.9286H18.2119H14.7933H14.2211L14.2978 16.4956C14.3312 16.7424 14.35 16.9972 14.35 17.25C14.35 20.1497 11.9926 22.5 9.075 22.5C6.15738 22.5 3.8 20.1497 3.8 17.25C3.8 16.9972 3.81884 16.7424 3.85221 16.4956L3.92887 15.9286H3.35672H1.65C1.01144 15.9286 0.5 15.4162 0.5 14.7857C0.5 14.1552 1.01144 13.6429 1.65 13.6429H2.15V13.1429V9.85714C2.15 9.22662 2.66144 8.71429 3.3 8.71429H11.55ZM9.075 14.2857C7.4345 14.2857 6.1 15.6113 6.1 17.25C6.1 18.8887 7.4345 20.2143 9.075 20.2143C10.7155 20.2143 12.05 18.8887 12.05 17.25C12.05 15.6113 10.7155 14.2857 9.075 14.2857ZM23.925 14.2857C22.2845 14.2857 20.95 15.6113 20.95 17.25C20.95 18.8887 22.2845 20.2143 23.925 20.2143C25.5655 20.2143 26.9 18.8887 26.9 17.25C26.9 15.6113 25.5655 14.2857 23.925 14.2857Z" fill="white" stroke="black"/>
</svg>
