<svg width="28" height="27" viewBox="0 0 28 27" fill="none" xmlns="http://www.w3.org/2000/svg">
<path d="M11.778 6.86802L7.56809 2.1606C7.08276 1.61814 6.19299 1.62055 5.62925 2.16784L2.16723 5.52752C1.13684 6.52687 0.841903 8.01082 1.43799 9.20063C4.99909 16.3431 10.9455 22.1115 18.3138 25.5711C19.5408 26.1485 21.0715 25.8628 22.1019 24.8635L25.5963 21.4724C26.1625 20.924 26.1637 20.0572 25.5987 19.5871L20.7206 15.5306C20.2103 15.1063 19.4176 15.1617 18.9062 15.6584L17.2087 17.3051C17.1218 17.3933 17.0075 17.4515 16.8831 17.4706C16.7588 17.4898 16.6315 17.4689 16.5206 17.4112C13.746 15.8635 11.4445 13.6311 9.85039 10.9413C9.79069 10.8338 9.76907 10.7102 9.78885 10.5895C9.80863 10.4689 9.86872 10.3579 9.9599 10.2735L11.6523 8.63284C12.165 8.13377 12.221 7.36347 11.778 6.86802Z" fill="white" stroke="black" stroke-width="2" stroke-linecap="round" stroke-linejoin="round"/>
</svg>
