<svg width="27" height="25" viewBox="0 0 27 25" fill="none" xmlns="http://www.w3.org/2000/svg">
<path d="M4.3428 1.7875L4.13559 2.33018L0.535499 11.7589L0.535412 11.7591C0.507904 11.831 0.493784 11.9074 0.49375 11.9844L4.3428 1.7875ZM4.3428 1.7875H3.76191M4.3428 1.7875H3.76191M3.76191 1.7875H2.15625C1.98883 1.7875 1.82827 1.72099 1.70989 1.60261C1.59151 1.48423 1.525 1.32367 1.525 1.15625C1.525 0.988832 1.59151 0.828272 1.70989 0.709889C1.82827 0.591507 1.98883 0.525 2.15625 0.525H24.8438C25.0112 0.525 25.1717 0.591507 25.2901 0.709888L25.573 0.427046L25.2901 0.70989C25.4085 0.828271 25.475 0.988831 25.475 1.15625C25.475 1.32367 25.4085 1.48423 25.2901 1.60261C25.1717 1.72099 25.0112 1.7875 24.8438 1.7875H23.3649H22.7913L22.9896 2.32576L26.467 11.7658L26.4671 11.7662C26.493 11.8361 26.5062 11.9101 26.5063 11.9846C26.5061 14.4211 24.7022 16.225 22.2656 16.225C19.8291 16.225 18.0251 14.4211 18.025 11.9846C18.025 11.9101 18.0383 11.8361 18.0641 11.7662L18.0643 11.7658L21.5417 2.32576L21.7399 1.7875H21.1663H14.5312H14.1313V2.1875V18.6875V19.0875H14.5312H20.7188C21.4332 19.0875 22.1183 19.3713 22.6235 19.8765C23.1287 20.3817 23.4125 21.0668 23.4125 21.7812C23.4125 22.4957 23.1287 23.1808 22.6235 23.686C22.1183 24.1912 21.4332 24.475 20.7188 24.475H6.28125C5.9275 24.475 5.57722 24.4053 5.2504 24.27C4.92358 24.1346 4.62662 23.9362 4.37648 23.686C4.12634 23.4359 3.92792 23.1389 3.79255 22.8121C3.65718 22.4853 3.5875 22.135 3.5875 21.7812C3.5875 21.4275 3.65718 21.0772 3.79255 20.7504C3.92792 20.4236 4.12634 20.1266 4.37648 19.8765C4.62662 19.6263 4.92358 19.4279 5.25039 19.2925C5.57722 19.1572 5.9275 19.0875 6.28125 19.0875H12.4688H12.8687V18.6875V2.1875V1.7875H12.4688H5.70788H5.12704L5.33417 2.33015L8.93324 11.7589L8.93334 11.7591M3.76191 1.7875L8.93334 11.7591M8.93334 11.7591C8.96084 11.831 8.97497 11.9074 8.975 11.9844L8.93334 11.7591ZM5.10806 5.27983L4.73438 4.30129L4.36069 5.27983L2.2487 10.8104L2.04145 11.3531H2.62238H6.84638H7.4273L7.22006 10.8104L5.10806 5.27983ZM19.7597 10.8148L19.5614 11.3531H20.1351H24.3962H24.9699L24.7715 10.8148L22.641 5.03261L22.2656 4.01398L21.8903 5.03261L19.7597 10.8148ZM4.73438 16.225C2.29779 16.225 0.493804 14.421 0.49375 11.9845L8.975 11.9845C8.97495 14.421 7.17096 16.225 4.73438 16.225Z" fill="white" stroke="black" stroke-width="0.8"/>
</svg>
