<svg width="20" height="26" viewBox="0 0 20 26" fill="none" xmlns="http://www.w3.org/2000/svg">
<mask id="path-1-inside-1_498_2257" fill="white">
<path d="M9.84222 12.2078C8.93216 12.2078 8.05938 11.8728 7.41587 11.2765C6.77236 10.6802 6.41085 9.87143 6.41085 9.02812C6.41085 8.18482 6.77236 7.37605 7.41587 6.77975C8.05938 6.18344 8.93216 5.84844 9.84222 5.84844C10.7523 5.84844 11.6251 6.18344 12.2686 6.77975C12.9121 7.37605 13.2736 8.18482 13.2736 9.02812C13.2736 9.44569 13.1848 9.85916 13.0124 10.2449C12.84 10.6307 12.5872 10.9812 12.2686 11.2765C11.9499 11.5718 11.5717 11.806 11.1553 11.9658C10.739 12.1256 10.2928 12.2078 9.84222 12.2078ZM9.84222 0.125C7.29406 0.125 4.85027 1.06301 3.04845 2.73266C1.24663 4.40232 0.234375 6.66687 0.234375 9.02812C0.234375 15.7055 9.84222 25.5625 9.84222 25.5625C9.84222 25.5625 19.4501 15.7055 19.4501 9.02812C19.4501 6.66687 18.4378 4.40232 16.636 2.73266C14.8342 1.06301 12.3904 0.125 9.84222 0.125Z"/>
</mask>
<path d="M9.84222 12.2078C8.93216 12.2078 8.05938 11.8728 7.41587 11.2765C6.77236 10.6802 6.41085 9.87143 6.41085 9.02812C6.41085 8.18482 6.77236 7.37605 7.41587 6.77975C8.05938 6.18344 8.93216 5.84844 9.84222 5.84844C10.7523 5.84844 11.6251 6.18344 12.2686 6.77975C12.9121 7.37605 13.2736 8.18482 13.2736 9.02812C13.2736 9.44569 13.1848 9.85916 13.0124 10.2449C12.84 10.6307 12.5872 10.9812 12.2686 11.2765C11.9499 11.5718 11.5717 11.806 11.1553 11.9658C10.739 12.1256 10.2928 12.2078 9.84222 12.2078ZM9.84222 0.125C7.29406 0.125 4.85027 1.06301 3.04845 2.73266C1.24663 4.40232 0.234375 6.66687 0.234375 9.02812C0.234375 15.7055 9.84222 25.5625 9.84222 25.5625C9.84222 25.5625 19.4501 15.7055 19.4501 9.02812C19.4501 6.66687 18.4378 4.40232 16.636 2.73266C14.8342 1.06301 12.3904 0.125 9.84222 0.125Z" fill="white"/>
<path d="M9.84222 5.84844V4.84844V5.84844ZM0.234375 9.02812H-0.765625H0.234375ZM9.84222 25.5625L9.12612 26.2605L9.84222 26.9952L10.5583 26.2605L9.84222 25.5625ZM9.84222 11.2078C9.17384 11.2078 8.54672 10.9611 8.09557 10.543L6.73618 12.01C7.57204 12.7846 8.69049 13.2078 9.84222 13.2078V11.2078ZM8.09557 10.543C7.64698 10.1273 7.41085 9.58057 7.41085 9.02812H5.41085C5.41085 10.1623 5.89775 11.2331 6.73618 12.01L8.09557 10.543ZM7.41085 9.02812C7.41085 8.47568 7.64698 7.92892 8.09557 7.51324L6.73618 6.04625C5.89775 6.82318 5.41085 7.89396 5.41085 9.02812H7.41085ZM8.09557 7.51324C8.54672 7.09518 9.17384 6.84844 9.84222 6.84844V4.84844C8.69049 4.84844 7.57204 5.2717 6.73618 6.04625L8.09557 7.51324ZM9.84222 6.84844C10.5106 6.84844 11.1377 7.09518 11.5889 7.51324L12.9483 6.04625C12.1124 5.2717 10.9939 4.84844 9.84222 4.84844V6.84844ZM11.5889 7.51324C12.0375 7.92892 12.2736 8.47568 12.2736 9.02812H14.2736C14.2736 7.89396 13.7867 6.82318 12.9483 6.04625L11.5889 7.51324ZM12.2736 9.02812C12.2736 9.30332 12.2152 9.57788 12.0995 9.83685L13.9253 10.653C14.1545 10.1404 14.2736 9.58805 14.2736 9.02812H12.2736ZM12.0995 9.83685C11.9836 10.0961 11.8115 10.3368 11.5889 10.543L12.9483 12.01C13.3629 11.6257 13.6963 11.1654 13.9253 10.653L12.0995 9.83685ZM11.5889 10.543C11.3661 10.7494 11.0977 10.9168 10.797 11.0322L11.5137 12.8994C12.0457 12.6952 12.5337 12.3941 12.9483 12.01L11.5889 10.543ZM10.797 11.0322C10.4963 11.1476 10.1716 11.2078 9.84222 11.2078V13.2078C10.414 13.2078 10.9818 13.1035 11.5137 12.8994L10.797 11.0322ZM9.84222 -0.875C7.05238 -0.875 4.36293 0.151262 2.36875 1.99917L3.72814 3.46616C5.3376 1.97475 7.53574 1.125 9.84222 1.125V-0.875ZM2.36875 1.99917C0.372009 3.84946 -0.765625 6.37601 -0.765625 9.02812H1.23438C1.23438 6.95773 2.12124 4.95519 3.72814 3.46616L2.36875 1.99917ZM-0.765625 9.02812C-0.765625 10.9157 -0.0934253 12.9429 0.835297 14.8639C1.77115 16.7996 3.00873 18.7108 4.22988 20.3879C5.45328 22.0682 6.6744 23.5329 7.58873 24.5769C8.04638 25.0994 8.4284 25.5179 8.69701 25.8068C8.83135 25.9513 8.93741 26.0635 9.01047 26.1401C9.04701 26.1785 9.07531 26.2079 9.09478 26.2281C9.10451 26.2382 9.11204 26.246 9.11729 26.2514C9.11991 26.2541 9.12196 26.2562 9.12344 26.2577C9.12418 26.2585 9.12477 26.2591 9.12522 26.2596C9.12544 26.2598 9.12567 26.26 9.12578 26.2601C9.12597 26.2603 9.12612 26.2605 9.84222 25.5625C10.5583 24.8645 10.5584 24.8646 10.5584 24.8646C10.5584 24.8646 10.5584 24.8646 10.5583 24.8645C10.5582 24.8644 10.5579 24.8641 10.5575 24.8637C10.5566 24.8628 10.5552 24.8613 10.5532 24.8593C10.5492 24.8551 10.543 24.8487 10.5345 24.8399C10.5176 24.8224 10.492 24.7957 10.4582 24.7602C10.3905 24.6892 10.2901 24.5831 10.1618 24.445C9.90494 24.1688 9.53634 23.765 9.09326 23.2591C8.20611 22.2462 7.02527 20.8294 5.84671 19.2107C4.6659 17.5889 3.50152 15.7838 2.6359 13.9934C1.76316 12.1882 1.23438 10.4792 1.23438 9.02812H-0.765625ZM9.84222 25.5625C10.5583 26.2605 10.5585 26.2603 10.5587 26.2601C10.5588 26.26 10.559 26.2598 10.5592 26.2596C10.5597 26.2591 10.5603 26.2585 10.561 26.2577C10.5625 26.2562 10.5645 26.2541 10.5672 26.2514C10.5724 26.246 10.5799 26.2382 10.5897 26.2281C10.6091 26.2079 10.6374 26.1785 10.674 26.1401C10.747 26.0635 10.8531 25.9513 10.9874 25.8068C11.256 25.5179 11.6381 25.0994 12.0957 24.5769C13.01 23.5329 14.2312 22.0682 15.4546 20.3879C16.6757 18.7108 17.9133 16.7996 18.8491 14.8639C19.7779 12.9429 20.4501 10.9157 20.4501 9.02812H18.4501C18.4501 10.4792 17.9213 12.1882 17.0485 13.9934C16.1829 15.7838 15.0185 17.5889 13.8377 19.2107C12.6592 20.8294 11.4783 22.2462 10.5912 23.2591C10.1481 23.765 9.7795 24.1688 9.52269 24.445C9.39431 24.5831 9.29395 24.6892 9.22628 24.7602C9.19244 24.7957 9.16679 24.8224 9.1499 24.8399C9.14145 24.8487 9.1352 24.8551 9.13121 24.8593C9.12922 24.8613 9.12779 24.8628 9.12694 24.8637C9.12651 24.8641 9.12623 24.8644 9.12609 24.8645C9.12603 24.8646 9.12603 24.8646 9.126 24.8646C9.12604 24.8646 9.12612 24.8645 9.84222 25.5625ZM20.4501 9.02812C20.4501 6.37601 19.3124 3.84946 17.3157 1.99917L15.9563 3.46616C17.5632 4.95519 18.4501 6.95773 18.4501 9.02812H20.4501ZM17.3157 1.99917C15.3215 0.151262 12.6321 -0.875 9.84222 -0.875V1.125C12.1487 1.125 14.3468 1.97475 15.9563 3.46616L17.3157 1.99917Z" fill="black" mask="url(#path-1-inside-1_498_2257)"/>
</svg>
