<svg width="22" height="22" viewBox="0 0 22 22" fill="none" xmlns="http://www.w3.org/2000/svg">
<path d="M10.9905 0.166687C5.01047 0.166687 0.167969 5.02002 0.167969 11C0.167969 16.98 5.01047 21.8334 10.9905 21.8334C16.9813 21.8334 21.8346 16.98 21.8346 11C21.8346 5.02002 16.9813 0.166687 10.9905 0.166687ZM11.0013 19.6667C6.21297 19.6667 2.33464 15.7884 2.33464 11C2.33464 6.21169 6.21297 2.33335 11.0013 2.33335C15.7896 2.33335 19.668 6.21169 19.668 11C19.668 15.7884 15.7896 19.6667 11.0013 19.6667ZM11.543 5.58335H9.91797V12.0834L15.6055 15.4959L16.418 14.1634L11.543 11.2709V5.58335Z" fill="black"/>
</svg>
