<svg width="22" height="28" viewBox="0 0 22 28" fill="none" xmlns="http://www.w3.org/2000/svg">
<path d="M11 15.25C13.0711 15.25 14.75 13.5711 14.75 11.5C14.75 9.42893 13.0711 7.75 11 7.75C8.92893 7.75 7.25 9.42893 7.25 11.5C7.25 13.5711 8.92893 15.25 11 15.25Z" stroke="white" stroke-width="2" stroke-linecap="round" stroke-linejoin="round"/>
<path d="M11 1.5C8.34784 1.5 5.8043 2.55357 3.92893 4.42893C2.05357 6.3043 1 8.84784 1 11.5C1 13.865 1.5025 15.4125 2.875 17.125L11 26.5L19.125 17.125C20.4975 15.4125 21 13.865 21 11.5C21 8.84784 19.9464 6.3043 18.0711 4.42893C16.1957 2.55357 13.6522 1.5 11 1.5V1.5Z" stroke="white" stroke-width="2" stroke-linecap="round" stroke-linejoin="round"/>
</svg>
