<svg width="30" height="30" viewBox="0 0 30 30" fill="none" xmlns="http://www.w3.org/2000/svg">
<path fill-rule="evenodd" clip-rule="evenodd" d="M9.06204 12.5C9.06204 9.22081 11.7204 6.5625 14.9995 6.5625C18.2787 6.5625 20.937 9.22081 20.937 12.5C20.937 15.7792 18.2787 18.4375 14.9995 18.4375C11.7204 18.4375 9.06204 15.7792 9.06204 12.5ZM14.9995 8.4375C12.7559 8.4375 10.937 10.2563 10.937 12.5C10.937 14.7437 12.7559 16.5625 14.9995 16.5625C17.2432 16.5625 19.062 14.7437 19.062 12.5C19.062 10.2563 17.2432 8.4375 14.9995 8.4375Z" fill="#E8AE1B"/>
<path fill-rule="evenodd" clip-rule="evenodd" d="M4.405 11.0711C4.84791 5.6978 9.3381 1.5625 14.7296 1.5625H15.2695C20.661 1.5625 25.1512 5.6978 25.5941 11.0711C25.832 13.9575 24.9404 16.8236 23.1071 19.0657L17.1158 26.3929C16.022 27.7306 13.9771 27.7306 12.8833 26.393L6.892 19.0657C5.05867 16.8236 4.16707 13.9575 4.405 11.0711ZM14.7296 3.4375C10.3139 3.4375 6.63641 6.82435 6.27366 11.2251C6.07564 13.6274 6.8177 16.0128 8.34352 17.8788L14.3349 25.2061C14.6784 25.6262 15.3207 25.6262 15.6642 25.2061L21.6556 17.8788C23.1814 16.0128 23.9234 13.6274 23.7254 11.2251C23.3627 6.82435 19.6852 3.4375 15.2695 3.4375H14.7296Z" fill="#E8AE1B"/>
</svg>
