<svg width="22" height="22" viewBox="0 0 22 22" fill="none" xmlns="http://www.w3.org/2000/svg">
<g clip-path="url(#clip0_602_259)">
<path d="M18.9449 17.7805L13.619 12.4546C14.4455 11.3862 14.8926 10.0798 14.8926 8.70581C14.8926 7.06108 14.2507 5.5189 13.0899 4.3561C11.9292 3.19331 10.3829 2.55347 8.74023 2.55347C7.09756 2.55347 5.55127 3.19536 4.39053 4.3561C3.22773 5.51685 2.58789 7.06108 2.58789 8.70581C2.58789 10.3485 3.22979 11.8948 4.39053 13.0555C5.55127 14.2183 7.09551 14.8582 8.74023 14.8582C10.1143 14.8582 11.4186 14.4111 12.487 13.5867L17.8129 18.9105C17.8285 18.9261 17.8471 18.9385 17.8675 18.947C17.8879 18.9554 17.9097 18.9598 17.9318 18.9598C17.9539 18.9598 17.9758 18.9554 17.9962 18.947C18.0166 18.9385 18.0352 18.9261 18.0508 18.9105L18.9449 18.0184C18.9605 18.0028 18.9729 17.9843 18.9814 17.9638C18.9899 17.9434 18.9942 17.9216 18.9942 17.8995C18.9942 17.8774 18.9899 17.8555 18.9814 17.8351C18.9729 17.8147 18.9605 17.7961 18.9449 17.7805ZM11.9887 11.9542C11.1191 12.8217 9.9666 13.2996 8.74023 13.2996C7.51387 13.2996 6.36133 12.8217 5.4918 11.9542C4.62432 11.0847 4.14648 9.93218 4.14648 8.70581C4.14648 7.47944 4.62432 6.32485 5.4918 5.45737C6.36133 4.58989 7.51387 4.11206 8.74023 4.11206C9.9666 4.11206 11.1212 4.58784 11.9887 5.45737C12.8562 6.3269 13.334 7.47944 13.334 8.70581C13.334 9.93218 12.8562 11.0868 11.9887 11.9542Z" fill="black"/>
</g>
<defs>
<clipPath id="clip0_602_259">
<rect width="21" height="21" fill="white" transform="translate(0.291016 0.256592)"/>
</clipPath>
</defs>
</svg>
