<svg width="38" height="39" viewBox="0 0 38 39" fill="none" xmlns="http://www.w3.org/2000/svg">
<ellipse cx="19.025" cy="19.5" rx="18.525" ry="19.5" fill="#7C509A"/>
<path d="M24.8179 10.2823C21.2875 9.57258 17.6213 9.57258 14.0909 10.2823C12.5293 10.6371 10.5604 12.6242 10.221 14.1855C9.60994 17.2372 9.60994 20.3598 10.221 23.4115C10.6283 24.9728 12.5972 26.9599 14.0909 27.3148C14.1587 27.3148 14.2266 27.3857 14.2266 27.4567V31.9277C14.2266 32.1406 14.4982 32.2826 14.634 32.0697L16.6708 29.8696C16.6708 29.8696 18.3002 28.0954 18.5718 27.8116C18.5718 27.8116 18.6397 27.7406 18.7076 27.7406C20.7443 27.8116 22.849 27.5986 24.8858 27.2438C26.4473 26.889 28.4162 24.9018 28.7557 23.3405C29.3667 20.2889 29.3667 17.1662 28.7557 14.1146C28.3483 12.6242 26.3794 10.6371 24.8179 10.2823ZM24.8858 23.6244C24.5463 24.3341 24.139 24.9018 23.46 25.2567C23.2564 25.3276 23.0527 25.3986 22.849 25.4696C22.5774 25.3986 22.3738 25.3276 22.1701 25.2567C19.9975 24.3341 17.9607 23.0566 16.3313 21.2115C15.4487 20.1469 14.7019 18.9405 14.0909 17.663C13.8193 17.0243 13.5477 16.4565 13.344 15.8178C13.1404 15.2501 13.4798 14.6823 13.8193 14.2565C14.1587 13.8307 14.5661 13.5468 15.0414 13.3339C15.3808 13.121 15.7203 13.263 15.9918 13.5468C16.535 14.2565 17.0781 14.9662 17.4855 15.7469C17.7571 16.2436 17.6892 16.8114 17.2139 17.1662C17.0781 17.2372 17.0102 17.3082 16.8745 17.4501C16.8066 17.5211 16.6708 17.592 16.6029 17.734C16.4671 17.9469 16.4671 18.1598 16.535 18.3727C17.0781 20.005 18.0965 21.2824 19.658 21.9921C19.9296 22.1341 20.1333 22.205 20.4728 22.205C20.948 22.1341 21.1517 21.5663 21.4912 21.2824C21.8306 20.9986 22.238 20.9986 22.6453 21.2115C22.9848 21.4244 23.3243 21.7082 23.7316 21.9921C24.0711 22.276 24.4105 22.4889 24.75 22.7728C24.9537 22.9147 25.0216 23.2696 24.8858 23.6244ZM22.0343 18.3017C21.8985 18.3017 21.9664 18.3017 22.0343 18.3017C21.7627 18.3017 21.6948 18.1598 21.6269 17.9469C21.6269 17.805 21.6269 17.5921 21.559 17.4501C21.4912 17.1662 21.3554 16.8824 21.0838 16.6695C20.948 16.5985 20.8122 16.5275 20.6764 16.4565C20.4728 16.3856 20.337 16.3856 20.1333 16.3856C19.9296 16.3146 19.8617 16.1727 19.8617 15.9598C19.8617 15.8178 20.0654 15.6759 20.2012 15.6759C21.2875 15.7469 22.1022 16.3856 22.238 17.734C22.238 17.805 22.238 17.9469 22.238 18.0179C22.238 18.1598 22.1701 18.3017 22.0343 18.3017ZM21.3554 15.1791C21.0159 15.0372 20.6764 14.8952 20.2691 14.8243C20.1333 14.8243 19.9296 14.7533 19.7938 14.7533C19.5902 14.7533 19.4544 14.6114 19.5223 14.3985C19.5223 14.1855 19.6581 14.0436 19.8617 14.1146C20.5407 14.1855 21.1517 14.3275 21.7627 14.6114C22.9848 15.2501 23.6637 16.3146 23.8674 17.734C23.8674 17.805 23.8674 17.8759 23.8674 17.9469C23.8674 18.0888 23.8674 18.2308 23.8674 18.4437C23.8674 18.5146 23.8674 18.5856 23.8674 18.6566C23.7995 18.9405 23.3243 19.0114 23.2564 18.6566C23.2564 18.5856 23.1885 18.4437 23.1885 18.3727C23.1885 17.734 23.0527 17.0953 22.7811 16.5275C22.3738 15.8888 21.8985 15.463 21.3554 15.1791ZM25.0216 19.4372C24.8179 19.4372 24.6821 19.2243 24.6821 19.0114C24.6821 18.5856 24.6142 18.1598 24.5463 17.734C24.2748 15.463 22.5095 13.6178 20.4049 13.263C20.0654 13.192 19.7259 13.192 19.4544 13.121C19.2507 13.121 18.9791 13.121 18.9112 12.8371C18.8433 12.6242 19.047 12.4113 19.2507 12.4113C19.3186 12.4113 19.3865 12.4113 19.3865 12.4113C22.1701 12.4823 19.5223 12.4113 19.3865 12.4113C22.238 12.4823 24.6142 14.4694 25.0895 17.4501C25.1574 17.9469 25.2253 18.4437 25.2253 19.0114C25.361 19.2243 25.2253 19.4372 25.0216 19.4372Z" fill="white"/>
</svg>
