<svg width="26" height="27" viewBox="0 0 26 27" fill="none" xmlns="http://www.w3.org/2000/svg">
<path d="M13 0.199951C5.82021 0.199951 0 6.02016 0 13.2C0 20.3797 5.82021 26.2 13 26.2C20.1798 26.2 26 20.3797 26 13.2C26 6.02016 20.1798 0.199951 13 0.199951ZM17.9996 14.8669C17.9996 14.8669 19.1493 16.0017 19.4323 16.5285C19.4404 16.5393 19.4445 16.5502 19.4472 16.5556C19.5623 16.7492 19.5894 16.8995 19.5325 17.0119C19.4377 17.1988 19.1127 17.2909 19.0017 17.299H16.9704C16.8296 17.299 16.5344 17.2625 16.1769 17.016C15.902 16.8237 15.6311 16.5082 15.3671 16.2008C14.973 15.7431 14.6318 15.3477 14.2878 15.3477C14.2441 15.3476 14.2007 15.3544 14.1592 15.368C13.8992 15.4519 13.566 15.823 13.566 16.8115C13.566 17.1203 13.3223 17.2977 13.1503 17.2977H12.22C11.9031 17.2977 10.2524 17.1866 8.7899 15.6442C6.99969 13.7552 5.38823 9.9662 5.37469 9.93099C5.27312 9.68589 5.48302 9.55453 5.71187 9.55453H7.76344C8.03698 9.55453 8.12635 9.7211 8.18865 9.8687C8.26177 10.0407 8.5299 10.7245 8.97 11.4937C9.68365 12.7477 10.121 13.2568 10.4718 13.2568C10.5375 13.2561 10.6021 13.2393 10.66 13.2081C11.1177 12.9535 11.0324 11.3217 11.0121 10.9832C11.0121 10.9195 11.0107 10.2533 10.7765 9.9337C10.6085 9.70214 10.3228 9.61412 10.1495 9.58162C10.2196 9.48481 10.3121 9.40631 10.419 9.35276C10.7331 9.19568 11.2992 9.17266 11.8611 9.17266H12.174C12.7833 9.18078 12.9404 9.22006 13.1611 9.27558C13.608 9.38256 13.6175 9.67099 13.5782 10.6582C13.566 10.9385 13.5539 11.2554 13.5539 11.6291C13.5539 11.7104 13.5498 11.797 13.5498 11.8891C13.5363 12.3915 13.52 12.9616 13.8748 13.1959C13.9211 13.2249 13.9745 13.2404 14.0292 13.2406C14.1524 13.2406 14.5234 13.2406 15.5282 11.5167C15.8381 10.9619 16.1074 10.3853 16.334 9.79151C16.3543 9.7563 16.4139 9.64797 16.4843 9.60599C16.5362 9.5795 16.5939 9.56602 16.6522 9.56672H19.064C19.3267 9.56672 19.5068 9.60599 19.5406 9.70755C19.6002 9.8687 19.5298 10.3603 18.4289 11.8512L17.9373 12.4998C16.9393 13.808 16.9393 13.8743 17.9996 14.8669Z" fill="black"/>
</svg>
