<svg width="20" height="23" viewBox="0 0 20 23" fill="none" xmlns="http://www.w3.org/2000/svg">
<path d="M15.0552 0.531289C11.5248 -0.178398 7.85858 -0.178398 4.32816 0.531289C2.76662 0.886133 0.797739 2.87326 0.458276 4.43457C-0.152759 7.48623 -0.152759 10.6089 0.458276 13.6605C0.865632 15.2218 2.83452 17.209 4.32816 17.5638C4.39605 17.5638 4.46394 17.6348 4.46394 17.7057V22.1768C4.46394 22.3897 4.73551 22.5316 4.8713 22.3187L6.90808 20.1187C6.90808 20.1187 8.5375 18.3445 8.80907 18.0606C8.80907 18.0606 8.87697 17.9896 8.94486 17.9896C10.9816 18.0606 13.0863 17.8477 15.1231 17.4928C16.6846 17.138 18.6535 15.1509 18.993 13.5895C19.604 10.5379 19.604 7.41526 18.993 4.3636C18.5856 2.87326 16.6167 0.886133 15.0552 0.531289ZM15.1231 13.8734C14.7836 14.5831 14.3763 15.1509 13.6973 15.5057C13.4937 15.5767 13.29 15.6476 13.0863 15.7186C12.8147 15.6476 12.6111 15.5767 12.4074 15.5057C10.2348 14.5831 8.19804 13.3057 6.56862 11.4605C5.68601 10.396 4.93919 9.18948 4.32816 7.91204C4.05659 7.27332 3.78502 6.70557 3.58134 6.06685C3.37766 5.4991 3.71712 4.93135 4.05658 4.50554C4.39605 4.07973 4.80341 3.79585 5.27866 3.58295C5.61812 3.37004 5.95758 3.51198 6.22915 3.79585C6.77229 4.50554 7.31543 5.21523 7.72279 5.99588C7.99436 6.49267 7.92647 7.06042 7.45122 7.41526C7.31543 7.48623 7.24754 7.5572 7.11176 7.69914C7.04386 7.77011 6.90808 7.84107 6.84018 7.98301C6.7044 8.19592 6.7044 8.40882 6.77229 8.62173C7.31543 10.254 8.33382 11.5314 9.89535 12.2411C10.1669 12.3831 10.3706 12.454 10.7101 12.454C11.1853 12.3831 11.389 11.8153 11.7285 11.5314C12.0679 11.2476 12.4753 11.2476 12.8826 11.4605C13.2221 11.6734 13.5616 11.9573 13.9689 12.2411C14.3084 12.525 14.6478 12.7379 14.9873 13.0218C15.191 13.1637 15.2589 13.5186 15.1231 13.8734ZM12.2716 8.55076C12.2037 8.55076 12.1358 8.55076 12.2716 8.55076C12 8.55076 11.9321 8.40882 11.8642 8.19592C11.8642 8.05398 11.8642 7.84107 11.7964 7.69914C11.7285 7.41526 11.5927 7.13139 11.3211 6.91848C11.1853 6.84751 11.0495 6.77654 10.9137 6.70557C10.7101 6.6346 10.5743 6.6346 10.3706 6.6346C10.1669 6.56364 10.099 6.4217 10.099 6.20879C10.099 6.06685 10.3027 5.92492 10.4385 5.92492C11.5248 5.99589 12.3395 6.6346 12.4753 7.98301C12.4753 8.05398 12.4753 8.19592 12.4753 8.26689C12.4753 8.40882 12.4074 8.55076 12.2716 8.55076ZM11.5927 5.42813C11.2532 5.2862 10.9137 5.14426 10.5064 5.07329C10.3706 5.07329 10.1669 5.00232 10.0311 5.00232C9.82747 5.00232 9.69168 4.86038 9.75957 4.64748C9.75957 4.43457 9.89536 4.29263 10.099 4.3636C10.778 4.43457 11.389 4.57651 12 4.86039C13.2221 5.4991 13.901 6.56363 14.1047 7.98301C14.1047 8.05398 14.1047 8.12495 14.1047 8.19592C14.1047 8.33786 14.1047 8.47979 14.1047 8.6927C14.1047 8.76367 14.1047 8.83464 14.1047 8.90561C14.0368 9.18948 13.5616 9.26045 13.4937 8.90561C13.4937 8.83464 13.4258 8.6927 13.4258 8.62173C13.4258 7.98301 13.29 7.34429 13.0184 6.77654C12.6111 6.13782 12.1358 5.71201 11.5927 5.42813ZM15.2589 9.68626C15.0552 9.68626 14.9194 9.47336 14.9194 9.26045C14.9194 8.83464 14.8515 8.40882 14.7836 7.98301C14.5121 5.71201 12.7469 3.86682 10.6422 3.51198C10.3027 3.44101 9.96325 3.44101 9.69168 3.37004C9.488 3.37004 9.21643 3.37004 9.14854 3.08617C9.08064 2.87326 9.28432 2.66035 9.488 2.66035C9.55589 2.66035 9.62379 2.66035 9.62379 2.66035C9.75957 2.66035 12.4074 2.73132 9.62379 2.66035C12.4753 2.73132 14.8515 4.71845 15.3268 7.69914C15.3947 8.19592 15.4626 8.6927 15.4626 9.26045C15.5983 9.47336 15.4626 9.68626 15.2589 9.68626Z" fill="white"/>
</svg>
