<svg width="20" height="20" viewBox="0 0 20 20" fill="none" xmlns="http://www.w3.org/2000/svg">
<path d="M10.0004 0.398926C4.69839 0.398926 0.400391 4.69693 0.400391 9.99893C0.400391 15.3009 4.69839 19.5989 10.0004 19.5989C15.3024 19.5989 19.6004 15.3009 19.6004 9.99893C19.6004 4.69693 15.3024 0.398926 10.0004 0.398926ZM13.6924 11.2299C13.6924 11.2299 14.5414 12.0679 14.7504 12.4569C14.7564 12.4649 14.7594 12.4729 14.7614 12.4769C14.8464 12.6199 14.8664 12.7309 14.8244 12.8139C14.7544 12.9519 14.5144 13.0199 14.4324 13.0259H12.9324C12.8284 13.0259 12.6104 12.9989 12.3464 12.8169C12.1434 12.6749 11.9434 12.4419 11.7484 12.2149C11.4574 11.8769 11.2054 11.5849 10.9514 11.5849C10.9191 11.5849 10.8871 11.5899 10.8564 11.5999C10.6644 11.6619 10.4184 11.9359 10.4184 12.6659C10.4184 12.8939 10.2384 13.0249 10.1114 13.0249H9.42439C9.19039 13.0249 7.97139 12.9429 6.89139 11.8039C5.56939 10.4089 4.37939 7.61093 4.36939 7.58493C4.29439 7.40393 4.44939 7.30693 4.61839 7.30693H6.13339C6.33539 7.30693 6.40139 7.42993 6.44739 7.53893C6.50139 7.66593 6.69939 8.17093 7.02439 8.73893C7.55139 9.66493 7.87439 10.0409 8.13339 10.0409C8.18196 10.0404 8.22965 10.028 8.27239 10.0049C8.61039 9.81693 8.54739 8.61193 8.53239 8.36193C8.53239 8.31493 8.53139 7.82293 8.35839 7.58693C8.23439 7.41593 8.02339 7.35093 7.89539 7.32693C7.9472 7.25544 8.01545 7.19747 8.09439 7.15793C8.32639 7.04193 8.74439 7.02493 9.15939 7.02493H9.39039C9.84039 7.03093 9.95639 7.05993 10.1194 7.10093C10.4494 7.17993 10.4564 7.39293 10.4274 8.12193C10.4184 8.32893 10.4094 8.56293 10.4094 8.83893C10.4094 8.89893 10.4064 8.96293 10.4064 9.03093C10.3964 9.40193 10.3844 9.82293 10.6464 9.99593C10.6806 10.0174 10.7201 10.0288 10.7604 10.0289C10.8514 10.0289 11.1254 10.0289 11.8674 8.75593C12.0962 8.34618 12.2951 7.9204 12.4624 7.48193C12.4774 7.45593 12.5214 7.37593 12.5734 7.34493C12.6118 7.32536 12.6543 7.31541 12.6974 7.31593H14.4784C14.6724 7.31593 14.8054 7.34493 14.8304 7.41993C14.8744 7.53893 14.8224 7.90193 14.0094 9.00293L13.6464 9.48193C12.9094 10.4479 12.9094 10.4969 13.6924 11.2299Z" fill="white"/>
</svg>
