<svg width="20" height="21" viewBox="0 0 20 21" fill="none" xmlns="http://www.w3.org/2000/svg">
<path d="M16.625 2.99902C14.7929 1.07715 12.5536 -0.000976562 9.975 -0.000976562C4.61429 -0.000976562 0 4.37576 0 9.99902C0 11.7785 0.610714 13.5042 1.425 14.999L0 20.499L5.225 18.999C6.65 19.782 8.34643 20.499 9.975 20.499C15.3357 20.499 19.475 15.6223 19.475 9.99902C19.4071 7.36534 18.4571 4.9209 16.625 2.99902ZM14.25 13.999C14.0464 14.5685 13.3 14.9278 12.825 14.999C12.4179 15.0702 11.9429 15.1414 11.4 14.999C11.0607 14.8567 10.5179 14.7837 9.975 14.499C7.53214 13.4313 5.83571 10.7126 5.7 10.499C5.56429 10.3567 4.75 9.28027 4.75 7.99902C4.75 6.71777 5.49643 6.28375 5.7 5.99902C5.90357 5.7143 5.97143 5.49902 6.175 5.49902C6.31071 5.49902 6.51429 5.49902 6.65 5.49902C6.78571 5.49902 6.92143 5.50076 7.125 5.99902C7.32857 6.49729 8.00714 7.92784 8.075 7.99902C8.14286 8.14138 8.14286 7.85666 8.075 7.99902C8.00714 8.14138 7.73571 8.35666 7.6 8.49902C7.46429 8.64138 7.66786 8.92784 7.6 8.99902C7.46429 9.14138 6.98929 9.28548 7.125 9.49902C7.26071 9.78375 7.80357 10.7872 8.55 11.499C9.5 12.3532 10.1786 12.3567 10.45 12.499C10.7214 12.6414 11.2643 12.6414 11.4 12.499C11.5357 12.3567 11.7393 11.7837 11.875 11.499C12.0107 11.2143 12.1464 11.4278 12.35 11.499C12.5536 11.5702 14.0464 11.8567 14.25 11.999C14.5214 12.1414 14.6571 12.4278 14.725 12.499C14.7929 12.7126 14.4536 13.4296 14.25 13.999Z" fill="white"/>
</svg>
