<svg width="38" height="39" viewBox="0 0 38 39" fill="none" xmlns="http://www.w3.org/2000/svg">
<ellipse cx="18.525" cy="19.5" rx="18.525" ry="19.5" fill="#48C95F"/>
<path d="M26.125 12C24.2929 10.0781 22.0536 9 19.475 9C14.1143 9 9.5 13.3767 9.5 19C9.5 20.7795 10.1107 22.5052 10.925 24L9.5 29.5L14.725 28C16.15 28.783 17.8464 29.5 19.475 29.5C24.8357 29.5 28.975 24.6233 28.975 19C28.9071 16.3663 27.9571 13.9219 26.125 12ZM23.75 23C23.5464 23.5694 22.8 23.9288 22.325 24C21.9179 24.0712 21.4429 24.1424 20.9 24C20.5607 23.8576 20.0179 23.7847 19.475 23.5C17.0321 22.4323 15.3357 19.7135 15.2 19.5C15.0643 19.3576 14.25 18.2812 14.25 17C14.25 15.7188 14.9964 15.2847 15.2 15C15.4036 14.7153 15.4714 14.5 15.675 14.5C15.8107 14.5 16.0143 14.5 16.15 14.5C16.2857 14.5 16.4214 14.5017 16.625 15C16.8286 15.4983 17.5071 16.9288 17.575 17C17.6429 17.1424 17.6429 16.8576 17.575 17C17.5071 17.1424 17.2357 17.3576 17.1 17.5C16.9643 17.6424 17.1679 17.9288 17.1 18C16.9643 18.1424 16.4893 18.2865 16.625 18.5C16.7607 18.7847 17.3036 19.7882 18.05 20.5C19 21.3542 19.6786 21.3576 19.95 21.5C20.2214 21.6424 20.7643 21.6424 20.9 21.5C21.0357 21.3576 21.2393 20.7847 21.375 20.5C21.5107 20.2153 21.6464 20.4288 21.85 20.5C22.0536 20.5712 23.5464 20.8576 23.75 21C24.0214 21.1424 24.1571 21.4288 24.225 21.5C24.2929 21.7135 23.9536 22.4306 23.75 23Z" fill="white"/>
</svg>
