<svg width="72" height="72" viewBox="0 0 72 72" fill="none" xmlns="http://www.w3.org/2000/svg">
<path d="M45.5397 32.82C46.1397 31.5 46.4997 30.06 46.4997 28.5C46.4997 22.71 41.7897 18 35.9997 18C34.4397 18 32.9997 18.36 31.6797 18.96L45.5397 32.82V32.82Z" fill="white" fill-opacity="0.85"/>
<path d="M36 6C19.44 6 6 19.44 6 36C6 52.56 19.44 66 36 66C52.56 66 66 52.56 66 36C66 19.44 52.56 6 36 6ZM36 45C29.04 45 22.65 47.4 17.58 51.36C13.9708 47.056 11.9949 41.617 12 36C12 30.45 13.89 25.35 17.07 21.3L25.65 29.88C25.9479 32.1546 26.9888 34.267 28.6109 35.8891C30.233 37.5112 32.3454 38.5521 34.62 38.85L41.22 45.45C39.51 45.15 37.77 45 36 45V45ZM54.93 50.7L21.3 17.07C25.4906 13.7753 30.6693 11.9892 36 12C49.26 12 60 22.74 60 36C60 41.55 58.11 46.62 54.93 50.7Z" fill="white" fill-opacity="0.85"/>
</svg>
