<svg width="61" height="61" viewBox="0 0 61 61" fill="none" xmlns="http://www.w3.org/2000/svg">
<g clip-path="url(#clip0_211_67)">
<path d="M32.1942 50.8334H6.77756C5.87877 50.8334 5.01679 50.4764 4.38125 49.8408C3.74571 49.2053 3.38867 48.3433 3.38867 47.4445V13.5556C3.38867 12.6568 3.74571 11.7949 4.38125 11.1593C5.01679 10.5238 5.87877 10.1667 6.77756 10.1667H54.222C55.1208 10.1667 55.9828 10.5238 56.6183 11.1593C57.2539 11.7949 57.6109 12.6568 57.6109 13.5556V31.127C55.3535 28.2519 52.0699 26.3634 48.4496 25.8581C44.8293 25.3527 41.1541 26.2698 38.1956 28.4168C35.2372 30.5638 33.2258 33.7736 32.5838 37.3722C31.9419 40.9708 32.7193 44.6781 34.7528 47.7156L33.177 49.6473L32.1942 50.8334ZM11.8609 20.3334V23.0445H40.6665V20.3334H11.8609ZM11.8609 29.8223H30.4998V27.1112H11.8609V29.8223ZM11.8609 41.6834H28.8053V38.9723H11.8609V41.6834Z" fill="white" fill-opacity="0.85"/>
<path d="M57.3235 39.9719C57.3281 38.1853 56.889 36.4254 56.0458 34.8503C55.2026 33.2752 53.9815 31.934 52.4922 30.9471C51.0029 29.9602 49.2919 29.3584 47.5127 29.1957C45.7335 29.033 43.9418 29.3146 42.2982 30.015C40.6546 30.7155 39.2106 31.813 38.0957 33.2091C36.9808 34.6052 36.2299 36.2562 35.9104 38.014C35.5908 39.7718 35.7126 41.5815 36.2648 43.2806C36.8171 44.9798 37.7824 46.5153 39.0743 47.7494L35.7871 51.7652L37.3121 57.8822L43.5138 50.3249C45.4769 50.9054 47.566 50.9054 49.5291 50.3249L55.7307 57.8822L57.2557 51.7652L53.9685 47.7494C55.0256 46.748 55.8682 45.5422 56.4449 44.2052C57.0216 42.8682 57.3206 41.428 57.3235 39.9719ZM39.1252 39.9719C39.105 38.5032 39.5221 37.0617 40.3234 35.8307C41.1247 34.5997 42.2739 33.6348 43.6251 33.0588C44.9762 32.4827 46.4682 32.3215 47.9112 32.5956C49.3542 32.8697 50.6831 33.5668 51.7288 34.5982C52.7746 35.6296 53.49 36.9487 53.784 38.3878C54.0781 39.8269 53.9375 41.3209 53.3802 42.6799C52.8228 44.0389 51.8739 45.2014 50.6541 46.0196C49.4343 46.8378 47.9987 47.2748 46.5299 47.2749C44.5838 47.2795 42.7149 46.5142 41.3308 45.1461C39.9468 43.7779 39.16 41.9179 39.1421 39.9719H39.1252Z" fill="white" fill-opacity="0.85"/>
</g>
<defs>
<clipPath id="clip0_211_67">
<rect width="61" height="61" fill="white"/>
</clipPath>
</defs>
</svg>
