<svg width="72" height="72" viewBox="0 0 72 72" fill="none" xmlns="http://www.w3.org/2000/svg">
<path d="M63.5662 48.9347C63.5504 48.9073 63.5288 48.885 63.5115 48.8591L63.5129 48.8584L44.1413 15.3071L44.1305 15.3129C43.9706 15.0578 43.7375 14.8568 43.4616 14.7361L43.489 14.7203L37.7391 11.3997L44.1262 22.4625L58.6544 47.6257L58.6529 47.6265C58.6702 47.6524 58.6918 47.6747 58.7076 47.7021C58.907 48.0477 58.961 48.4584 58.8577 48.8439C58.7544 49.2293 58.5023 49.558 58.1568 49.7577L58.1669 49.7757L36.667 62.1885L37.598 63.8005C37.6167 63.8401 37.6296 63.8812 37.652 63.9201C37.8461 64.255 38.1621 64.502 38.534 64.6094C38.9059 64.7169 39.3049 64.6765 39.6478 64.4968L39.6514 64.5025L63.0262 51.0076L63.0161 50.9896C63.3614 50.7899 63.6133 50.4613 63.7165 50.076C63.8196 49.6907 63.7656 49.2802 63.5662 48.9347Z" fill="white" fill-opacity="0.85"/>
<path d="M53.1935 48.3429C53.539 48.1432 53.7911 47.8145 53.8944 47.4291C53.9977 47.0436 53.9437 46.6329 53.7443 46.2873C53.7285 46.2599 53.7069 46.2376 53.6896 46.2117L53.6911 46.2109L34.3195 12.6597L34.3087 12.6654C34.1487 12.4103 33.9156 12.2093 33.6398 12.0887L33.6671 12.0729L25.7399 7.49581V7.52749C25.5393 7.41314 25.315 7.34669 25.0844 7.33332C24.8539 7.31996 24.6233 7.36004 24.4108 7.45045L24.4022 7.43533L24.2539 7.52101C24.251 7.52317 24.2474 7.52317 24.2445 7.52533C24.2416 7.52749 24.2395 7.52965 24.2359 7.53109L8.9841 16.3367C8.76065 16.466 8.57445 16.6509 8.44362 16.8735C8.31278 17.096 8.24176 17.3486 8.23746 17.6068L8.23242 17.6039V26.758L8.24754 26.7493C8.2137 27.0568 8.26914 27.3772 8.43546 27.6659C8.44554 27.6832 8.4585 27.6961 8.4693 27.7127L27.7761 61.1538C27.7948 61.1934 27.8078 61.2345 27.8301 61.2733C28.0242 61.6082 28.3402 61.8552 28.7121 61.9627C29.084 62.0702 29.4831 62.0298 29.8259 61.8501L29.8295 61.8558L53.2043 48.3609L53.1935 48.3429ZM21.2723 19.8157C20.7957 20.0909 20.2481 20.2186 19.6989 20.1826C19.1496 20.1466 18.6234 19.9486 18.1868 19.6135C17.7501 19.2784 17.4226 18.8213 17.2457 18.3001C17.0688 17.7789 17.0505 17.217 17.193 16.6853C17.3355 16.1537 17.6324 15.6762 18.0463 15.3134C18.4602 14.9505 18.9723 14.7185 19.5181 14.6467C20.0638 14.575 20.6185 14.6666 21.1121 14.9102C21.6057 15.1537 22.016 15.5381 22.2911 16.0149C22.4741 16.3313 22.5928 16.6806 22.6406 17.0429C22.6884 17.4053 22.6643 17.7735 22.5697 18.1265C22.4751 18.4795 22.3118 18.8104 22.0892 19.1003C21.8666 19.3901 21.589 19.6332 21.2723 19.8157Z" fill="white" fill-opacity="0.85"/>
</svg>
