<svg width="70" height="49" viewBox="0 0 70 49" fill="none" xmlns="http://www.w3.org/2000/svg">
<path d="M40.3156 7L48.7156 17.5H31.5V7H40.3156ZM24.5 5.25V17.5H7C5.06406 17.5 3.5 19.0641 3.5 21V28C1.56406 28 0 29.5641 0 31.5C0 33.4359 1.56406 35 3.5 35H7.12031C7.04375 35.5687 7 36.1594 7 36.75C7 43.5203 12.4797 49 19.25 49C26.0203 49 31.5 43.5203 31.5 36.75C31.5 36.1594 31.4562 35.5687 31.3797 35H38.6313C38.5547 35.5687 38.5109 36.1594 38.5109 36.75C38.5109 43.5203 43.9906 49 50.7609 49C57.5312 49 63.0109 43.5203 63.0109 36.75C63.0109 36.1594 62.9672 35.5687 62.8906 35H66.5C68.4359 35 70 33.4359 70 31.5C70 29.5641 68.4359 28 66.5 28V21C66.5 19.0641 64.9359 17.5 63 17.5H57.6844L45.7844 2.625C44.4609 0.9625 42.4484 0 40.3156 0H29.75C26.8516 0 24.5 2.35156 24.5 5.25ZM14 36.75C14 33.8516 16.3516 31.5 19.25 31.5C22.1484 31.5 24.5 33.8516 24.5 36.75C24.5 39.6484 22.1484 42 19.25 42C16.3516 42 14 39.6484 14 36.75ZM45.5 36.75C45.5 33.8516 47.8516 31.5 50.75 31.5C53.6484 31.5 56 33.8516 56 36.75C56 39.6484 53.6484 42 50.75 42C47.8516 42 45.5 39.6484 45.5 36.75Z" fill="white" fill-opacity="0.85"/>
</svg>
