<svg width="40" height="40" viewBox="0 0 40 40" fill="none" xmlns="http://www.w3.org/2000/svg">
<rect x="0.5" y="0.5" width="39" height="39" rx="19.5" fill="#2998FF" stroke="#E6E6E6"/>
<path d="M24.9995 10.0042L22.406 10C19.4922 10 17.6092 11.9319 17.6092 14.922V17.1914H15.0016C14.7762 17.1914 14.5938 17.3741 14.5938 17.5994V20.8875C14.5938 21.1128 14.7764 21.2953 15.0016 21.2953H17.6092V29.5922C17.6092 29.8175 17.7917 30 18.017 30H21.4193C21.6446 30 21.8271 29.8173 21.8271 29.5922V21.2953H24.8761C25.1014 21.2953 25.2839 21.1128 25.2839 20.8875L25.2852 17.5994C25.2852 17.4912 25.2421 17.3876 25.1657 17.311C25.0894 17.2345 24.9853 17.1914 24.8771 17.1914H21.8271V15.2676C21.8271 14.343 22.0475 13.8736 23.2519 13.8736L24.9991 13.873C25.2242 13.873 25.4067 13.6903 25.4067 13.4651V10.412C25.4067 10.1871 25.2244 10.0046 24.9995 10.0042Z" fill="white"/>
</svg>
