<svg width="40" height="40" viewBox="0 0 40 40" fill="none" xmlns="http://www.w3.org/2000/svg">
<rect x="0.5" y="0.5" width="39" height="39" rx="19.5" fill="#2998FF" stroke="#E6E6E6"/>
<g clip-path="url(#clip0_1849_3470)">
<path d="M19.0154 24.0874C17.4649 23.9256 16.067 23.5438 14.8701 22.6077C14.7216 22.4912 14.5682 22.379 14.4327 22.2489C13.9088 21.7457 13.856 21.1695 14.2706 20.5757C14.6252 20.0675 15.2205 19.9316 15.8393 20.2233C15.9591 20.2799 16.0732 20.3505 16.1826 20.4263C18.4132 21.959 21.4775 22.0013 23.7164 20.4952C23.9383 20.3251 24.1754 20.1865 24.4502 20.1157C24.9845 19.9785 25.4829 20.1747 25.7696 20.6423C26.0972 21.1762 26.093 21.6974 25.6894 22.1119C25.0702 22.7474 24.3256 23.2072 23.4982 23.5281C22.7158 23.8314 21.8589 23.9841 21.0108 24.0855C21.1387 24.2248 21.1991 24.2933 21.2791 24.3737C22.4307 25.5308 23.5874 26.6831 24.7353 27.8437C25.1263 28.2392 25.208 28.7295 24.9927 29.1895C24.7573 29.6922 24.2303 30.023 23.7135 29.9876C23.3861 29.965 23.1308 29.802 22.9039 29.5735C22.0348 28.699 21.1494 27.8406 20.2979 26.9495C20.0502 26.6904 19.931 26.7394 19.7123 26.9644C18.838 27.8644 17.9494 28.7507 17.0556 29.6319C16.6543 30.0276 16.1767 30.0988 15.7113 29.8728C15.2165 29.633 14.9017 29.1279 14.926 28.6204C14.9427 28.2771 15.1116 28.0148 15.3472 27.7796C16.4869 26.6416 17.6235 25.5006 18.7605 24.3607C18.8357 24.2849 18.9058 24.2044 19.0154 24.0874Z" fill="white"/>
<path d="M19.9595 20.1233C17.1935 20.1139 14.9254 17.8208 14.9415 15.0504C14.9574 12.2495 17.227 9.99227 20.0202 10C22.8191 10.0076 25.0656 12.2972 25.0516 15.1273C25.0373 17.8921 22.7535 20.1329 19.9595 20.1233ZM22.4732 15.0572C22.4684 13.6816 21.3729 12.5865 20.0001 12.5852C18.6157 12.5838 17.5104 13.6988 17.5211 15.0869C17.5313 16.4572 18.6363 17.5446 20.0129 17.5395C21.3853 17.5347 22.4779 16.4325 22.4732 15.0572Z" fill="white"/>
</g>
<defs>
<clipPath id="clip0_1849_3470">
<rect width="20" height="20" fill="white" transform="translate(10 10)"/>
</clipPath>
</defs>
</svg>
