<svg width="40" height="40" viewBox="0 0 40 40" fill="none" xmlns="http://www.w3.org/2000/svg">
<rect x="0.5" y="0.5" width="39" height="39" rx="19.5" fill="#2998FF" stroke="#E6E6E6"/>
<g clip-path="url(#clip0_1849_3459)">
<path d="M29.894 24.5997C29.8698 24.5475 29.8472 24.5042 29.8262 24.4696C29.4792 23.8446 28.8161 23.0775 27.8373 22.1681L27.8166 22.1472L27.8063 22.137L27.7958 22.1266H27.7853C27.341 21.7031 27.0597 21.4183 26.9419 21.2726C26.7264 20.9949 26.6781 20.7138 26.7959 20.429C26.8791 20.2138 27.1918 19.7593 27.7331 19.065C28.0178 18.697 28.2433 18.4021 28.4099 18.1799C29.611 16.5831 30.1317 15.5628 29.9719 15.1184L29.9099 15.0146C29.8682 14.9521 29.7606 14.8949 29.5872 14.8427C29.4135 14.7907 29.1914 14.7821 28.9206 14.8168L25.9217 14.8375C25.8731 14.8203 25.8037 14.8219 25.7134 14.8427C25.6231 14.8636 25.5779 14.8741 25.5779 14.8741L25.5257 14.9002L25.4843 14.9315C25.4496 14.9522 25.4114 14.9886 25.3697 15.0407C25.3282 15.0926 25.2936 15.1535 25.2658 15.2229C24.9393 16.0629 24.5681 16.8439 24.1515 17.5659C23.8946 17.9963 23.6587 18.3694 23.4433 18.6853C23.2281 19.0011 23.0476 19.2337 22.9019 19.3829C22.756 19.5322 22.6244 19.6518 22.5061 19.7421C22.3881 19.8325 22.298 19.8707 22.2355 19.8567C22.173 19.8427 22.1141 19.8289 22.0583 19.815C21.9612 19.7525 21.8831 19.6675 21.8242 19.5599C21.765 19.4523 21.7252 19.3169 21.7044 19.1537C21.6836 18.9905 21.6714 18.8501 21.6679 18.732C21.6646 18.6141 21.6661 18.4473 21.6732 18.2321C21.6804 18.0168 21.6836 17.8711 21.6836 17.7948C21.6836 17.5309 21.6888 17.2446 21.6991 16.9357C21.7096 16.6267 21.7181 16.382 21.7252 16.2016C21.7323 16.0211 21.7356 15.8302 21.7356 15.6288C21.7356 15.4275 21.7233 15.2696 21.6991 15.155C21.6752 15.0406 21.6385 14.9295 21.5901 14.8218C21.5414 14.7142 21.4701 14.631 21.3766 14.5719C21.2829 14.5129 21.1664 14.466 21.0278 14.4312C20.6598 14.348 20.1912 14.3029 19.6219 14.2959C18.3307 14.2821 17.501 14.3654 17.1331 14.5459C16.9873 14.6222 16.8554 14.7264 16.7375 14.8582C16.6125 15.011 16.595 15.0944 16.6853 15.1081C17.1019 15.1705 17.3968 15.3198 17.5703 15.5558L17.6329 15.6808C17.6816 15.7711 17.7301 15.9308 17.7788 16.1599C17.8273 16.3889 17.8586 16.6423 17.8724 16.9199C17.9071 17.4267 17.9071 17.8606 17.8724 18.2215C17.8377 18.5826 17.8048 18.8637 17.7735 19.065C17.7422 19.2664 17.6953 19.4295 17.6329 19.5544C17.5703 19.6794 17.5287 19.7557 17.5079 19.7835C17.487 19.8112 17.4697 19.8287 17.4559 19.8355C17.3657 19.8701 17.2718 19.8877 17.1747 19.8877C17.0774 19.8877 16.9595 19.839 16.8207 19.7418C16.6819 19.6446 16.5378 19.511 16.3886 19.3409C16.2393 19.1708 16.0709 18.933 15.8834 18.6276C15.6961 18.3222 15.5017 17.9612 15.3003 17.5447L15.1338 17.2426C15.0296 17.0483 14.8874 16.7653 14.7069 16.394C14.5263 16.0225 14.3666 15.6632 14.2279 15.3161C14.1724 15.1703 14.089 15.0593 13.978 14.9829L13.9259 14.9516C13.8912 14.9239 13.8356 14.8945 13.7593 14.8631C13.6829 14.8318 13.6032 14.8093 13.5198 14.7955L10.6666 14.8162C10.375 14.8162 10.1772 14.8822 10.073 15.0142L10.0313 15.0766C10.0105 15.1113 10 15.1668 10 15.2433C10 15.3196 10.0208 15.4134 10.0625 15.5243C10.479 16.5033 10.932 17.4474 11.4214 18.3568C11.9108 19.2662 12.336 19.9987 12.6969 20.5538C13.0579 21.1092 13.4258 21.6334 13.8007 22.1262C14.1756 22.6191 14.4238 22.935 14.5452 23.0738C14.6668 23.2128 14.7623 23.3167 14.8317 23.3861L15.092 23.636C15.2586 23.8027 15.5033 24.0022 15.8261 24.2347C16.149 24.4674 16.5065 24.6965 16.8987 24.9223C17.291 25.1477 17.7474 25.3317 18.2681 25.4739C18.7887 25.6164 19.2955 25.6735 19.7884 25.6459H20.986C21.2288 25.625 21.4128 25.5486 21.5379 25.4168L21.5793 25.3646C21.6072 25.3232 21.6333 25.2588 21.6573 25.1722C21.6817 25.0854 21.6938 24.9898 21.6938 24.8858C21.6867 24.5874 21.7094 24.3184 21.7614 24.0789C21.8133 23.8395 21.8724 23.659 21.9386 23.5374C22.0047 23.416 22.0793 23.3135 22.1624 23.2304C22.2456 23.1471 22.3049 23.0967 22.3397 23.0793C22.3743 23.0619 22.4019 23.05 22.4227 23.0429C22.5893 22.9874 22.7854 23.0412 23.0112 23.2044C23.2369 23.3676 23.4486 23.569 23.6465 23.8084C23.8444 24.048 24.0821 24.3169 24.3597 24.6153C24.6376 24.9139 24.8805 25.1358 25.0886 25.2818L25.2968 25.4068C25.4359 25.4902 25.6164 25.5665 25.8386 25.636C26.0604 25.7053 26.2547 25.7227 26.4215 25.688L29.0872 25.6464C29.3509 25.6464 29.556 25.6028 29.7015 25.5161C29.8474 25.4294 29.934 25.3338 29.9619 25.2298C29.9898 25.1257 29.9913 25.0076 29.9672 24.8756C29.9425 24.7439 29.9182 24.6518 29.894 24.5997Z" fill="white"/>
</g>
<defs>
<clipPath id="clip0_1849_3459">
<rect width="20" height="20" fill="white" transform="translate(10 10)"/>
</clipPath>
</defs>
</svg>
