<svg width="40" height="38" viewBox="0 0 40 38" fill="none" xmlns="http://www.w3.org/2000/svg">
<path fill-rule="evenodd" clip-rule="evenodd" d="M15.4968 0.0662941C14.5713 0.201778 13.6 0.877163 13.1032 1.73084C12.7468 2.34338 12.6631 2.95083 12.6616 4.93777L12.6603 6.71839H7.70957C2.94614 6.71839 2.74137 6.72434 2.2972 6.87657C1.18855 7.25641 0.375794 8.14101 0.114047 9.25251C0.0181486 9.65943 0.000954045 11.5815 1.61622e-05 21.9898C-0.000765406 29.878 0.026824 34.398 0.0773915 34.6694C0.323507 35.99 1.40324 37.0688 2.73121 37.321C3.30558 37.4301 36.7098 37.4296 37.2886 37.3205C38.1545 37.1573 38.964 36.6068 39.4447 35.8544C40.0154 34.961 39.97 36.0675 39.9955 22.4135C40.0097 14.8495 39.9896 9.91889 39.9433 9.58469C39.7675 8.31344 38.8925 7.27825 37.6298 6.84738C37.2944 6.73295 36.6944 6.71839 32.3028 6.71839H27.3537L27.3522 5.05517C27.3513 4.14044 27.3185 3.16982 27.2793 2.89839C27.0688 1.44039 25.9027 0.272612 24.4468 0.0617545C23.8596 -0.0232458 16.082 -0.0193323 15.4968 0.0662941ZM24.7754 1.52038C25.2249 1.72873 25.6151 2.11976 25.8223 2.56926C25.9727 2.89572 25.985 3.06377 25.9855 4.8008L25.986 6.67926L25.3465 6.70188L24.707 6.72457L24.6822 4.9229L24.6573 3.1213L24.4407 2.90441L24.224 2.68753L20.1811 2.66342C17.4106 2.64691 16.0462 2.66632 15.8456 2.7251C15.3521 2.86982 15.3176 3.01822 15.3176 4.99255V6.71839H14.6533H13.9889V4.93244C13.9889 2.9376 14.0482 2.58124 14.4632 2.07867C14.7385 1.74525 15.1762 1.49549 15.6571 1.39742C15.8358 1.36102 17.8811 1.33699 20.2024 1.34412C24.3034 1.35656 24.4329 1.36157 24.7754 1.52038ZM23.3501 5.36825L23.3287 6.67926H20.007H16.6853L16.6639 5.36825L16.6425 4.05724H20.007H23.3715L23.3501 5.36825ZM37.2981 8.14203C37.7067 8.2646 38.3197 8.82469 38.5019 9.24194C38.6358 9.5486 38.6493 9.86747 38.6705 13.2305L38.6937 16.8856L38.4693 17.0018C38.152 17.1661 23.6705 23.5537 23.5045 23.6025C23.3812 23.6389 23.3677 23.5709 23.3673 22.9097C23.3667 21.9168 23.2742 21.6078 22.935 21.4659C22.5948 21.3235 17.5233 21.3022 17.1245 21.4414C16.7393 21.576 16.6463 21.8457 16.6463 22.8281V23.683L8.98446 20.3078L1.32266 16.9325L1.34463 13.2147L1.36659 9.49695L1.5941 9.08572C1.84186 8.63794 2.21029 8.31336 2.64914 8.15627C3.0443 8.01484 36.8278 8.00091 37.2981 8.14203ZM9.82707 22.1381L16.6463 25.1415L16.6467 26.2811C16.647 26.9078 16.681 27.6279 16.7225 27.8814C17.1565 30.5352 20.4062 31.6304 22.2997 29.7609C23.114 28.9571 23.2847 28.4314 23.3445 26.5455L23.3896 25.1227L30.9511 21.7907C35.1099 19.9582 38.5526 18.4588 38.6016 18.4588C38.6679 18.4588 38.6852 20.5215 38.6691 26.5009L38.6474 34.5431L38.4526 34.925C38.3456 35.1349 38.1185 35.4263 37.9481 35.5724C37.3269 36.1049 38.6122 36.0693 20.007 36.0693C1.16158 36.0693 2.64438 36.1154 1.98731 35.5089C1.76402 35.3028 1.59082 35.0463 1.48672 34.7676C1.3304 34.3492 1.32751 34.1981 1.32751 26.3649V18.3882L2.1677 18.7614C2.62984 18.9667 6.07648 20.4862 9.82707 22.1381ZM21.9609 23.3506V24.0159H19.9679H17.9749V23.4028C17.9749 23.0655 17.9984 22.7662 18.0271 22.7375C18.0557 22.7088 18.9525 22.6853 20.0201 22.6853H21.9609V23.3506ZM21.9592 26.6183C21.9578 27.6902 21.9347 27.9394 21.8124 28.2033C21.4821 28.9163 20.7886 29.3538 19.9887 29.3538C19.0457 29.3538 18.261 28.7096 18.0598 27.7702C17.9677 27.3403 17.9421 25.4837 18.0271 25.3987C18.0557 25.3699 18.9525 25.3465 20.0201 25.3465H21.9609L21.9592 26.6183ZM19.3366 26.7822C19.3144 26.8401 19.3067 27.1482 19.3195 27.4671L19.3427 28.0467L19.9875 28.0694L20.6323 28.0922V27.3846V26.677H20.0046C19.5512 26.677 19.3656 26.7062 19.3366 26.7822Z" fill="#0066FF"/>
<path fill-rule="evenodd" clip-rule="evenodd" d="M15.4968 0.0662941C14.5713 0.201778 13.6 0.877163 13.1032 1.73084C12.7468 2.34338 12.6631 2.95083 12.6616 4.93777L12.6603 6.71839H7.70957C2.94614 6.71839 2.74137 6.72434 2.2972 6.87657C1.18855 7.25641 0.375794 8.14101 0.114047 9.25251C0.0181486 9.65943 0.000954045 11.5815 1.61622e-05 21.9898C-0.000765406 29.878 0.026824 34.398 0.0773915 34.6694C0.323507 35.99 1.40324 37.0688 2.73121 37.321C3.30558 37.4301 36.7098 37.4296 37.2886 37.3205C38.1545 37.1573 38.964 36.6068 39.4447 35.8544C40.0154 34.961 39.97 36.0675 39.9955 22.4135C40.0097 14.8495 39.9896 9.91889 39.9433 9.58469C39.7675 8.31344 38.8925 7.27825 37.6298 6.84738C37.2944 6.73295 36.6944 6.71839 32.3028 6.71839H27.3537L27.3522 5.05517C27.3513 4.14044 27.3185 3.16982 27.2793 2.89839C27.0688 1.44039 25.9027 0.272612 24.4468 0.0617545C23.8596 -0.0232458 16.082 -0.0193323 15.4968 0.0662941ZM24.7754 1.52038C25.2249 1.72873 25.6151 2.11976 25.8223 2.56926C25.9727 2.89572 25.985 3.06377 25.9855 4.8008L25.986 6.67926L25.3465 6.70188L24.707 6.72457L24.6822 4.9229L24.6573 3.1213L24.4407 2.90441L24.224 2.68753L20.1811 2.66342C17.4106 2.64691 16.0462 2.66632 15.8456 2.7251C15.3521 2.86982 15.3176 3.01822 15.3176 4.99255V6.71839H14.6533H13.9889V4.93244C13.9889 2.9376 14.0482 2.58124 14.4632 2.07867C14.7385 1.74525 15.1762 1.49549 15.6571 1.39742C15.8358 1.36102 17.8811 1.33699 20.2024 1.34412C24.3034 1.35656 24.4329 1.36157 24.7754 1.52038ZM23.3501 5.36825L23.3287 6.67926H20.007H16.6853L16.6639 5.36825L16.6425 4.05724H20.007H23.3715L23.3501 5.36825ZM37.2981 8.14203C37.7067 8.2646 38.3197 8.82469 38.5019 9.24194C38.6358 9.5486 38.6493 9.86747 38.6705 13.2305L38.6937 16.8856L38.4693 17.0018C38.152 17.1661 23.6705 23.5537 23.5045 23.6025C23.3812 23.6389 23.3677 23.5709 23.3673 22.9097C23.3667 21.9168 23.2742 21.6078 22.935 21.4659C22.5948 21.3235 17.5233 21.3022 17.1245 21.4414C16.7393 21.576 16.6463 21.8457 16.6463 22.8281V23.683L8.98446 20.3078L1.32266 16.9325L1.34463 13.2147L1.36659 9.49695L1.5941 9.08572C1.84186 8.63794 2.21029 8.31336 2.64914 8.15627C3.0443 8.01484 36.8278 8.00091 37.2981 8.14203ZM9.82707 22.1381L16.6463 25.1415L16.6467 26.2811C16.647 26.9078 16.681 27.6279 16.7225 27.8814C17.1565 30.5352 20.4062 31.6304 22.2997 29.7609C23.114 28.9571 23.2847 28.4314 23.3445 26.5455L23.3896 25.1227L30.9511 21.7907C35.1099 19.9582 38.5526 18.4588 38.6016 18.4588C38.6679 18.4588 38.6852 20.5215 38.6691 26.5009L38.6474 34.5431L38.4526 34.925C38.3456 35.1349 38.1185 35.4263 37.9481 35.5724C37.3269 36.1049 38.6122 36.0693 20.007 36.0693C1.16158 36.0693 2.64438 36.1154 1.98731 35.5089C1.76402 35.3028 1.59082 35.0463 1.48672 34.7676C1.3304 34.3492 1.32751 34.1981 1.32751 26.3649V18.3882L2.1677 18.7614C2.62984 18.9667 6.07648 20.4862 9.82707 22.1381ZM21.9609 23.3506V24.0159H19.9679H17.9749V23.4028C17.9749 23.0655 17.9984 22.7662 18.0271 22.7375C18.0557 22.7088 18.9525 22.6853 20.0201 22.6853H21.9609V23.3506ZM21.9592 26.6183C21.9578 27.6902 21.9347 27.9394 21.8124 28.2033C21.4821 28.9163 20.7886 29.3538 19.9887 29.3538C19.0457 29.3538 18.261 28.7096 18.0598 27.7702C17.9677 27.3403 17.9421 25.4837 18.0271 25.3987C18.0557 25.3699 18.9525 25.3465 20.0201 25.3465H21.9609L21.9592 26.6183ZM19.3366 26.7822C19.3144 26.8401 19.3067 27.1482 19.3195 27.4671L19.3427 28.0467L19.9875 28.0694L20.6323 28.0922V27.3846V26.677H20.0046C19.5512 26.677 19.3656 26.7062 19.3366 26.7822Z" fill="url(#paint0_radial_1199_61)" fill-opacity="0.7"/>
<path fill-rule="evenodd" clip-rule="evenodd" d="M15.4968 0.0662941C14.5713 0.201778 13.6 0.877163 13.1032 1.73084C12.7468 2.34338 12.6631 2.95083 12.6616 4.93777L12.6603 6.71839H7.70957C2.94614 6.71839 2.74137 6.72434 2.2972 6.87657C1.18855 7.25641 0.375794 8.14101 0.114047 9.25251C0.0181486 9.65943 0.000954045 11.5815 1.61622e-05 21.9898C-0.000765406 29.878 0.026824 34.398 0.0773915 34.6694C0.323507 35.99 1.40324 37.0688 2.73121 37.321C3.30558 37.4301 36.7098 37.4296 37.2886 37.3205C38.1545 37.1573 38.964 36.6068 39.4447 35.8544C40.0154 34.961 39.97 36.0675 39.9955 22.4135C40.0097 14.8495 39.9896 9.91889 39.9433 9.58469C39.7675 8.31344 38.8925 7.27825 37.6298 6.84738C37.2944 6.73295 36.6944 6.71839 32.3028 6.71839H27.3537L27.3522 5.05517C27.3513 4.14044 27.3185 3.16982 27.2793 2.89839C27.0688 1.44039 25.9027 0.272612 24.4468 0.0617545C23.8596 -0.0232458 16.082 -0.0193323 15.4968 0.0662941ZM24.7754 1.52038C25.2249 1.72873 25.6151 2.11976 25.8223 2.56926C25.9727 2.89572 25.985 3.06377 25.9855 4.8008L25.986 6.67926L25.3465 6.70188L24.707 6.72457L24.6822 4.9229L24.6573 3.1213L24.4407 2.90441L24.224 2.68753L20.1811 2.66342C17.4106 2.64691 16.0462 2.66632 15.8456 2.7251C15.3521 2.86982 15.3176 3.01822 15.3176 4.99255V6.71839H14.6533H13.9889V4.93244C13.9889 2.9376 14.0482 2.58124 14.4632 2.07867C14.7385 1.74525 15.1762 1.49549 15.6571 1.39742C15.8358 1.36102 17.8811 1.33699 20.2024 1.34412C24.3034 1.35656 24.4329 1.36157 24.7754 1.52038ZM23.3501 5.36825L23.3287 6.67926H20.007H16.6853L16.6639 5.36825L16.6425 4.05724H20.007H23.3715L23.3501 5.36825ZM37.2981 8.14203C37.7067 8.2646 38.3197 8.82469 38.5019 9.24194C38.6358 9.5486 38.6493 9.86747 38.6705 13.2305L38.6937 16.8856L38.4693 17.0018C38.152 17.1661 23.6705 23.5537 23.5045 23.6025C23.3812 23.6389 23.3677 23.5709 23.3673 22.9097C23.3667 21.9168 23.2742 21.6078 22.935 21.4659C22.5948 21.3235 17.5233 21.3022 17.1245 21.4414C16.7393 21.576 16.6463 21.8457 16.6463 22.8281V23.683L8.98446 20.3078L1.32266 16.9325L1.34463 13.2147L1.36659 9.49695L1.5941 9.08572C1.84186 8.63794 2.21029 8.31336 2.64914 8.15627C3.0443 8.01484 36.8278 8.00091 37.2981 8.14203ZM9.82707 22.1381L16.6463 25.1415L16.6467 26.2811C16.647 26.9078 16.681 27.6279 16.7225 27.8814C17.1565 30.5352 20.4062 31.6304 22.2997 29.7609C23.114 28.9571 23.2847 28.4314 23.3445 26.5455L23.3896 25.1227L30.9511 21.7907C35.1099 19.9582 38.5526 18.4588 38.6016 18.4588C38.6679 18.4588 38.6852 20.5215 38.6691 26.5009L38.6474 34.5431L38.4526 34.925C38.3456 35.1349 38.1185 35.4263 37.9481 35.5724C37.3269 36.1049 38.6122 36.0693 20.007 36.0693C1.16158 36.0693 2.64438 36.1154 1.98731 35.5089C1.76402 35.3028 1.59082 35.0463 1.48672 34.7676C1.3304 34.3492 1.32751 34.1981 1.32751 26.3649V18.3882L2.1677 18.7614C2.62984 18.9667 6.07648 20.4862 9.82707 22.1381ZM21.9609 23.3506V24.0159H19.9679H17.9749V23.4028C17.9749 23.0655 17.9984 22.7662 18.0271 22.7375C18.0557 22.7088 18.9525 22.6853 20.0201 22.6853H21.9609V23.3506ZM21.9592 26.6183C21.9578 27.6902 21.9347 27.9394 21.8124 28.2033C21.4821 28.9163 20.7886 29.3538 19.9887 29.3538C19.0457 29.3538 18.261 28.7096 18.0598 27.7702C17.9677 27.3403 17.9421 25.4837 18.0271 25.3987C18.0557 25.3699 18.9525 25.3465 20.0201 25.3465H21.9609L21.9592 26.6183ZM19.3366 26.7822C19.3144 26.8401 19.3067 27.1482 19.3195 27.4671L19.3427 28.0467L19.9875 28.0694L20.6323 28.0922V27.3846V26.677H20.0046C19.5512 26.677 19.3656 26.7062 19.3366 26.7822Z" fill="url(#paint1_radial_1199_61)"/>
<defs>
<radialGradient id="paint0_radial_1199_61" cx="0" cy="0" r="1" gradientUnits="userSpaceOnUse" gradientTransform="translate(10.5556 7.79221) rotate(49.1514) scale(32.2769 32.6629)">
<stop stop-color="white" stop-opacity="0.59"/>
<stop offset="0.697917" stop-color="white" stop-opacity="0"/>
<stop offset="1" stop-color="white" stop-opacity="0"/>
</radialGradient>
<radialGradient id="paint1_radial_1199_61" cx="0" cy="0" r="1" gradientUnits="userSpaceOnUse" gradientTransform="translate(34.5205 32.7273) rotate(-93.9246) scale(32.0231 38.1472)">
<stop stop-opacity="0.23"/>
<stop offset="0.861815" stop-opacity="0"/>
</radialGradient>
</defs>
</svg>
