<svg width="45" height="37" viewBox="0 0 45 37" fill="none" xmlns="http://www.w3.org/2000/svg">
<path fill-rule="evenodd" clip-rule="evenodd" d="M2.66105 0.0659791C1.67946 0.299303 0.805811 1.01493 0.331862 1.97383L0 2.64539V12.2884V21.9314L0.331862 22.6029C0.723814 23.396 1.2297 23.8871 2.06754 24.288L2.63941 24.5616L6.92229 24.5875L11.2053 24.6134L11.2499 24.8514C11.2744 24.9823 11.32 25.3201 11.3511 25.602C11.561 27.5016 12.4934 29.7966 13.7174 31.4269L14.1118 31.952L12.3127 33.7603C10.7147 35.3667 10.5136 35.6006 10.5136 35.8539C10.5136 36.0403 10.5894 36.2148 10.7324 36.3578L10.9512 36.5766L22.4557 36.5467C33.7676 36.5175 33.9745 36.5139 34.8026 36.3319C36.1159 36.0432 38.2274 35.2597 38.2274 35.061C38.2274 34.9934 37.7237 33.938 37.6539 33.8596C37.6403 33.8443 37.4371 33.9284 37.2024 34.0467C36.6052 34.3476 35.5888 34.7051 34.7082 34.9241C33.9716 35.1073 33.8034 35.1105 23.4472 35.1398L12.934 35.1694L14.3632 33.7306C16.039 32.0437 16.0419 32.0368 15.3896 31.2773C13.8909 29.5323 12.9946 27.4715 12.6699 25.0235L12.6143 24.6056H14.5756H16.5368L19.357 27.421C21.9041 29.9636 22.2051 30.2364 22.4641 30.2364C22.6513 30.2364 22.8259 30.1614 22.9668 30.0204L23.1828 29.8045V27.205V24.6056H25.6463H28.1097V23.9018V23.1979H25.1584H22.207L21.9911 23.4139L21.7751 23.6298V25.7211V27.8125L19.4619 25.5052L17.1485 23.1979H10.1681C5.02983 23.1979 3.09559 23.1703 2.8386 23.0933C2.64662 23.0358 2.29919 22.8176 2.06648 22.6084C1.31662 21.9342 1.36369 22.6259 1.36369 12.2884C1.36369 1.95087 1.31662 2.64257 2.06648 1.96838C2.29919 1.75916 2.64662 1.54097 2.8386 1.48343C3.10183 1.4046 6.55304 1.37882 16.8648 1.37882C32.3174 1.37882 31.0578 1.31935 31.7432 2.08161C31.9524 2.31432 32.1706 2.66175 32.2281 2.85372C32.3052 3.11106 32.3328 5.09088 32.3328 10.385V17.5672H33.0366H33.7404V15.1477C33.7404 13.2698 33.7651 12.7287 33.8504 12.7302C34.1241 12.735 35.5184 13.0879 36.1159 13.3038C38.8008 14.2738 41.1186 16.3295 42.4027 18.8794C43.1198 20.3035 43.5942 22.3031 43.5942 23.9018C43.5942 24.8409 43.3745 26.3073 43.1081 27.1463C42.9923 27.511 42.9186 27.8305 42.9445 27.8564C42.9704 27.8823 43.2559 28.0091 43.5788 28.1385L44.1661 28.3735L44.2722 28.1272C44.6324 27.2914 44.9973 25.1947 45 23.9458C45.0032 22.3581 44.5922 20.3656 43.961 18.9104C42.2222 14.9014 38.6843 12.1424 34.3343 11.4034L33.7404 11.3026L33.7394 7.19845C33.7386 4.05588 33.7108 2.99141 33.6209 2.65454C33.3357 1.58716 32.7198 0.832375 31.7377 0.346988L31.0662 0.0151266L17.0288 0.00131355C9.04974 -0.0065167 2.8488 0.0213731 2.66105 0.0659791ZM15.9244 2.83709C15.8277 2.86006 15.4765 2.941 15.1442 3.01693C11.7008 3.80426 9.33295 7.35743 9.90376 10.8807C10.1386 12.3301 10.7736 13.6039 11.7824 14.6495C12.3878 15.277 13.3178 15.9713 13.7968 16.1534L14.0329 16.2431V18.0969C14.0329 19.9478 14.0332 19.951 14.2488 20.1666C14.4479 20.3658 14.5302 20.3826 15.3046 20.3826H16.1444V21.0864V21.7902H16.8482H17.5521V21.0864V20.3826H18.3918C19.1662 20.3826 19.2485 20.3658 19.4476 20.1666C19.6629 19.9513 19.6636 19.945 19.6656 18.121L19.6676 16.2915L20.2961 15.9396C21.0847 15.4979 22.1801 14.4771 22.6878 13.7107C24.852 10.4438 23.9494 6.0731 20.6683 3.93122C19.5506 3.2016 18.4875 2.87581 17.0682 2.82803C16.5359 2.81008 16.0212 2.81422 15.9244 2.83709ZM5.58578 3.53531L5.1069 4.02017L6.46752 5.38289C7.21588 6.1324 7.86966 6.74562 7.92043 6.74562C8.03629 6.74562 8.84202 5.93435 8.84202 5.81778C8.84202 5.73103 6.19619 3.05045 6.11058 3.05045C6.08533 3.05045 5.84911 3.26864 5.58578 3.53531ZM25.4702 4.41423L24.1086 5.77792L24.6138 6.28311L25.119 6.78829L26.5027 5.40462L27.8864 4.02087L27.4072 3.53566C27.1436 3.26881 26.9064 3.05045 26.8799 3.05045C26.8535 3.05045 26.2191 3.66411 25.4702 4.41423ZM18.036 4.32607C19.6335 4.6604 21.133 5.82007 21.851 7.27649C22.9599 9.52579 22.5622 12.0165 20.8124 13.7823C20.2693 14.3302 19.9908 14.5298 19.2922 14.8708C18.8218 15.1005 18.4137 15.326 18.3852 15.372C18.3567 15.418 18.1577 15.4557 17.9428 15.4557H17.5521V13.3441V11.2326H18.7438C19.8918 11.2326 19.9435 11.2247 20.1514 11.0166C20.3595 10.8086 20.3674 10.757 20.3674 9.60894V8.41724H19.6636H18.9598V9.12109V9.82493H16.8482H14.7367V9.12109V8.41724H14.0329H13.329V9.60894C13.329 10.757 13.3369 10.8086 13.545 11.0166C13.753 11.2247 13.8046 11.2326 14.9527 11.2326H16.1444V13.3441V15.4557H15.7537C15.5387 15.4557 15.3397 15.418 15.3112 15.372C15.2828 15.326 14.8747 15.1002 14.4042 14.8702C10.9074 13.1609 10.1386 8.60561 12.8837 5.86045C14.2552 4.4891 16.1368 3.92875 18.036 4.32607ZM3.47522 10.5288V11.2326H5.93867H8.40212V10.5288V9.82493H5.93867H3.47522V10.5288ZM25.2943 10.5288V11.2326H27.7578H30.2212V10.5288V9.82493H27.7578H25.2943V10.5288ZM6.46646 15.6757L5.10488 17.0394L5.61006 17.5446L6.11525 18.0498L7.49891 16.6661L8.88267 15.2823L8.40344 14.7971C8.13985 14.5303 7.90265 14.3119 7.87617 14.3119C7.84978 14.3119 7.21535 14.9256 6.46646 15.6757ZM24.5893 14.797L24.1103 15.282L24.7902 15.9619L25.47 16.6417L25.9745 16.1373L26.4789 15.6329L25.8228 14.9724C25.462 14.6091 25.1446 14.3119 25.1176 14.3119C25.0905 14.3119 24.8528 14.5302 24.5893 14.797ZM18.2559 17.9191V18.9749H16.8482H15.4405V17.9191V16.8634H16.8482H18.2559V17.9191ZM26.9836 17.0418C26.5898 17.4086 26.6139 17.4958 27.8808 20.2908C28.539 21.743 29.0775 22.9615 29.0775 22.9987C29.0775 23.036 31.7004 25.6857 34.9062 28.8868C38.9735 32.9483 40.8545 34.768 41.1308 34.9086C41.739 35.2182 42.7639 35.203 43.4324 34.8747C44.4166 34.3914 44.9548 33.5282 44.9534 32.4359C44.9517 31.2355 45.2198 31.5535 38.7697 25.1038L32.9825 19.3171L30.2671 18.0902C28.7736 17.4154 27.467 16.8634 27.3635 16.8634C27.2598 16.8634 27.089 16.9436 26.9836 17.0418ZM29.3773 19.245C29.4571 19.3193 29.2936 19.5907 29.1688 19.5907C29.111 19.5907 28.9015 19.2036 28.9015 19.0968C28.9015 19.0349 29.2774 19.152 29.3773 19.245ZM31.1843 20.0422L31.4698 20.1418L30.7816 20.834C30.4031 21.2148 30.0675 21.5263 30.036 21.5263C30.0044 21.5263 29.9283 21.4048 29.8668 21.2563C29.7573 20.992 29.766 20.975 30.2713 20.4645C30.5552 20.1775 30.8126 19.9427 30.8432 19.9427C30.8738 19.9427 31.0273 19.9874 31.1843 20.0422ZM36.2918 24.5615L39.8542 28.1247L38.9087 29.0703L37.9631 30.0158L34.3816 26.4343L30.8001 22.8527L31.0129 22.6262L31.2257 22.3997L34.3304 25.5035L37.4351 28.6073L37.9405 28.1019L38.446 27.5964L35.3444 24.494L32.2428 21.3914L32.4393 21.195C32.5473 21.0868 32.6569 20.9984 32.6827 20.9984C32.7084 20.9984 34.3326 22.6019 36.2918 24.5615ZM40.3189 30.4754L39.3775 31.4167L39.1517 31.2046L38.9259 30.9925L39.8727 30.0428L40.8193 29.0931L41.0398 29.3135L41.2602 29.534L40.3189 30.4754ZM42.8753 31.1513C43.6437 31.9515 43.7632 32.3758 43.4131 33.0618C43.2211 33.4382 42.7037 33.7517 42.2745 33.7517C41.8968 33.7517 41.3697 33.4431 40.8691 32.9291L40.3875 32.4345L41.3074 31.5114C41.8134 31.0036 42.2515 30.5883 42.281 30.5883C42.3105 30.5883 42.5779 30.8417 42.8753 31.1513Z" fill="#0066FF"/>
<path fill-rule="evenodd" clip-rule="evenodd" d="M2.66105 0.0659791C1.67946 0.299303 0.805811 1.01493 0.331862 1.97383L0 2.64539V12.2884V21.9314L0.331862 22.6029C0.723814 23.396 1.2297 23.8871 2.06754 24.288L2.63941 24.5616L6.92229 24.5875L11.2053 24.6134L11.2499 24.8514C11.2744 24.9823 11.32 25.3201 11.3511 25.602C11.561 27.5016 12.4934 29.7966 13.7174 31.4269L14.1118 31.952L12.3127 33.7603C10.7147 35.3667 10.5136 35.6006 10.5136 35.8539C10.5136 36.0403 10.5894 36.2148 10.7324 36.3578L10.9512 36.5766L22.4557 36.5467C33.7676 36.5175 33.9745 36.5139 34.8026 36.3319C36.1159 36.0432 38.2274 35.2597 38.2274 35.061C38.2274 34.9934 37.7237 33.938 37.6539 33.8596C37.6403 33.8443 37.4371 33.9284 37.2024 34.0467C36.6052 34.3476 35.5888 34.7051 34.7082 34.9241C33.9716 35.1073 33.8034 35.1105 23.4472 35.1398L12.934 35.1694L14.3632 33.7306C16.039 32.0437 16.0419 32.0368 15.3896 31.2773C13.8909 29.5323 12.9946 27.4715 12.6699 25.0235L12.6143 24.6056H14.5756H16.5368L19.357 27.421C21.9041 29.9636 22.2051 30.2364 22.4641 30.2364C22.6513 30.2364 22.8259 30.1614 22.9668 30.0204L23.1828 29.8045V27.205V24.6056H25.6463H28.1097V23.9018V23.1979H25.1584H22.207L21.9911 23.4139L21.7751 23.6298V25.7211V27.8125L19.4619 25.5052L17.1485 23.1979H10.1681C5.02983 23.1979 3.09559 23.1703 2.8386 23.0933C2.64662 23.0358 2.29919 22.8176 2.06648 22.6084C1.31662 21.9342 1.36369 22.6259 1.36369 12.2884C1.36369 1.95087 1.31662 2.64257 2.06648 1.96838C2.29919 1.75916 2.64662 1.54097 2.8386 1.48343C3.10183 1.4046 6.55304 1.37882 16.8648 1.37882C32.3174 1.37882 31.0578 1.31935 31.7432 2.08161C31.9524 2.31432 32.1706 2.66175 32.2281 2.85372C32.3052 3.11106 32.3328 5.09088 32.3328 10.385V17.5672H33.0366H33.7404V15.1477C33.7404 13.2698 33.7651 12.7287 33.8504 12.7302C34.1241 12.735 35.5184 13.0879 36.1159 13.3038C38.8008 14.2738 41.1186 16.3295 42.4027 18.8794C43.1198 20.3035 43.5942 22.3031 43.5942 23.9018C43.5942 24.8409 43.3745 26.3073 43.1081 27.1463C42.9923 27.511 42.9186 27.8305 42.9445 27.8564C42.9704 27.8823 43.2559 28.0091 43.5788 28.1385L44.1661 28.3735L44.2722 28.1272C44.6324 27.2914 44.9973 25.1947 45 23.9458C45.0032 22.3581 44.5922 20.3656 43.961 18.9104C42.2222 14.9014 38.6843 12.1424 34.3343 11.4034L33.7404 11.3026L33.7394 7.19845C33.7386 4.05588 33.7108 2.99141 33.6209 2.65454C33.3357 1.58716 32.7198 0.832375 31.7377 0.346988L31.0662 0.0151266L17.0288 0.00131355C9.04974 -0.0065167 2.8488 0.0213731 2.66105 0.0659791ZM15.9244 2.83709C15.8277 2.86006 15.4765 2.941 15.1442 3.01693C11.7008 3.80426 9.33295 7.35743 9.90376 10.8807C10.1386 12.3301 10.7736 13.6039 11.7824 14.6495C12.3878 15.277 13.3178 15.9713 13.7968 16.1534L14.0329 16.2431V18.0969C14.0329 19.9478 14.0332 19.951 14.2488 20.1666C14.4479 20.3658 14.5302 20.3826 15.3046 20.3826H16.1444V21.0864V21.7902H16.8482H17.5521V21.0864V20.3826H18.3918C19.1662 20.3826 19.2485 20.3658 19.4476 20.1666C19.6629 19.9513 19.6636 19.945 19.6656 18.121L19.6676 16.2915L20.2961 15.9396C21.0847 15.4979 22.1801 14.4771 22.6878 13.7107C24.852 10.4438 23.9494 6.0731 20.6683 3.93122C19.5506 3.2016 18.4875 2.87581 17.0682 2.82803C16.5359 2.81008 16.0212 2.81422 15.9244 2.83709ZM5.58578 3.53531L5.1069 4.02017L6.46752 5.38289C7.21588 6.1324 7.86966 6.74562 7.92043 6.74562C8.03629 6.74562 8.84202 5.93435 8.84202 5.81778C8.84202 5.73103 6.19619 3.05045 6.11058 3.05045C6.08533 3.05045 5.84911 3.26864 5.58578 3.53531ZM25.4702 4.41423L24.1086 5.77792L24.6138 6.28311L25.119 6.78829L26.5027 5.40462L27.8864 4.02087L27.4072 3.53566C27.1436 3.26881 26.9064 3.05045 26.8799 3.05045C26.8535 3.05045 26.2191 3.66411 25.4702 4.41423ZM18.036 4.32607C19.6335 4.6604 21.133 5.82007 21.851 7.27649C22.9599 9.52579 22.5622 12.0165 20.8124 13.7823C20.2693 14.3302 19.9908 14.5298 19.2922 14.8708C18.8218 15.1005 18.4137 15.326 18.3852 15.372C18.3567 15.418 18.1577 15.4557 17.9428 15.4557H17.5521V13.3441V11.2326H18.7438C19.8918 11.2326 19.9435 11.2247 20.1514 11.0166C20.3595 10.8086 20.3674 10.757 20.3674 9.60894V8.41724H19.6636H18.9598V9.12109V9.82493H16.8482H14.7367V9.12109V8.41724H14.0329H13.329V9.60894C13.329 10.757 13.3369 10.8086 13.545 11.0166C13.753 11.2247 13.8046 11.2326 14.9527 11.2326H16.1444V13.3441V15.4557H15.7537C15.5387 15.4557 15.3397 15.418 15.3112 15.372C15.2828 15.326 14.8747 15.1002 14.4042 14.8702C10.9074 13.1609 10.1386 8.60561 12.8837 5.86045C14.2552 4.4891 16.1368 3.92875 18.036 4.32607ZM3.47522 10.5288V11.2326H5.93867H8.40212V10.5288V9.82493H5.93867H3.47522V10.5288ZM25.2943 10.5288V11.2326H27.7578H30.2212V10.5288V9.82493H27.7578H25.2943V10.5288ZM6.46646 15.6757L5.10488 17.0394L5.61006 17.5446L6.11525 18.0498L7.49891 16.6661L8.88267 15.2823L8.40344 14.7971C8.13985 14.5303 7.90265 14.3119 7.87617 14.3119C7.84978 14.3119 7.21535 14.9256 6.46646 15.6757ZM24.5893 14.797L24.1103 15.282L24.7902 15.9619L25.47 16.6417L25.9745 16.1373L26.4789 15.6329L25.8228 14.9724C25.462 14.6091 25.1446 14.3119 25.1176 14.3119C25.0905 14.3119 24.8528 14.5302 24.5893 14.797ZM18.2559 17.9191V18.9749H16.8482H15.4405V17.9191V16.8634H16.8482H18.2559V17.9191ZM26.9836 17.0418C26.5898 17.4086 26.6139 17.4958 27.8808 20.2908C28.539 21.743 29.0775 22.9615 29.0775 22.9987C29.0775 23.036 31.7004 25.6857 34.9062 28.8868C38.9735 32.9483 40.8545 34.768 41.1308 34.9086C41.739 35.2182 42.7639 35.203 43.4324 34.8747C44.4166 34.3914 44.9548 33.5282 44.9534 32.4359C44.9517 31.2355 45.2198 31.5535 38.7697 25.1038L32.9825 19.3171L30.2671 18.0902C28.7736 17.4154 27.467 16.8634 27.3635 16.8634C27.2598 16.8634 27.089 16.9436 26.9836 17.0418ZM29.3773 19.245C29.4571 19.3193 29.2936 19.5907 29.1688 19.5907C29.111 19.5907 28.9015 19.2036 28.9015 19.0968C28.9015 19.0349 29.2774 19.152 29.3773 19.245ZM31.1843 20.0422L31.4698 20.1418L30.7816 20.834C30.4031 21.2148 30.0675 21.5263 30.036 21.5263C30.0044 21.5263 29.9283 21.4048 29.8668 21.2563C29.7573 20.992 29.766 20.975 30.2713 20.4645C30.5552 20.1775 30.8126 19.9427 30.8432 19.9427C30.8738 19.9427 31.0273 19.9874 31.1843 20.0422ZM36.2918 24.5615L39.8542 28.1247L38.9087 29.0703L37.9631 30.0158L34.3816 26.4343L30.8001 22.8527L31.0129 22.6262L31.2257 22.3997L34.3304 25.5035L37.4351 28.6073L37.9405 28.1019L38.446 27.5964L35.3444 24.494L32.2428 21.3914L32.4393 21.195C32.5473 21.0868 32.6569 20.9984 32.6827 20.9984C32.7084 20.9984 34.3326 22.6019 36.2918 24.5615ZM40.3189 30.4754L39.3775 31.4167L39.1517 31.2046L38.9259 30.9925L39.8727 30.0428L40.8193 29.0931L41.0398 29.3135L41.2602 29.534L40.3189 30.4754ZM42.8753 31.1513C43.6437 31.9515 43.7632 32.3758 43.4131 33.0618C43.2211 33.4382 42.7037 33.7517 42.2745 33.7517C41.8968 33.7517 41.3697 33.4431 40.8691 32.9291L40.3875 32.4345L41.3074 31.5114C41.8134 31.0036 42.2515 30.5883 42.281 30.5883C42.3105 30.5883 42.5779 30.8417 42.8753 31.1513Z" fill="url(#paint0_radial_1197_53)" fill-opacity="0.7"/>
<path fill-rule="evenodd" clip-rule="evenodd" d="M2.66105 0.0659791C1.67946 0.299303 0.805811 1.01493 0.331862 1.97383L0 2.64539V12.2884V21.9314L0.331862 22.6029C0.723814 23.396 1.2297 23.8871 2.06754 24.288L2.63941 24.5616L6.92229 24.5875L11.2053 24.6134L11.2499 24.8514C11.2744 24.9823 11.32 25.3201 11.3511 25.602C11.561 27.5016 12.4934 29.7966 13.7174 31.4269L14.1118 31.952L12.3127 33.7603C10.7147 35.3667 10.5136 35.6006 10.5136 35.8539C10.5136 36.0403 10.5894 36.2148 10.7324 36.3578L10.9512 36.5766L22.4557 36.5467C33.7676 36.5175 33.9745 36.5139 34.8026 36.3319C36.1159 36.0432 38.2274 35.2597 38.2274 35.061C38.2274 34.9934 37.7237 33.938 37.6539 33.8596C37.6403 33.8443 37.4371 33.9284 37.2024 34.0467C36.6052 34.3476 35.5888 34.7051 34.7082 34.9241C33.9716 35.1073 33.8034 35.1105 23.4472 35.1398L12.934 35.1694L14.3632 33.7306C16.039 32.0437 16.0419 32.0368 15.3896 31.2773C13.8909 29.5323 12.9946 27.4715 12.6699 25.0235L12.6143 24.6056H14.5756H16.5368L19.357 27.421C21.9041 29.9636 22.2051 30.2364 22.4641 30.2364C22.6513 30.2364 22.8259 30.1614 22.9668 30.0204L23.1828 29.8045V27.205V24.6056H25.6463H28.1097V23.9018V23.1979H25.1584H22.207L21.9911 23.4139L21.7751 23.6298V25.7211V27.8125L19.4619 25.5052L17.1485 23.1979H10.1681C5.02983 23.1979 3.09559 23.1703 2.8386 23.0933C2.64662 23.0358 2.29919 22.8176 2.06648 22.6084C1.31662 21.9342 1.36369 22.6259 1.36369 12.2884C1.36369 1.95087 1.31662 2.64257 2.06648 1.96838C2.29919 1.75916 2.64662 1.54097 2.8386 1.48343C3.10183 1.4046 6.55304 1.37882 16.8648 1.37882C32.3174 1.37882 31.0578 1.31935 31.7432 2.08161C31.9524 2.31432 32.1706 2.66175 32.2281 2.85372C32.3052 3.11106 32.3328 5.09088 32.3328 10.385V17.5672H33.0366H33.7404V15.1477C33.7404 13.2698 33.7651 12.7287 33.8504 12.7302C34.1241 12.735 35.5184 13.0879 36.1159 13.3038C38.8008 14.2738 41.1186 16.3295 42.4027 18.8794C43.1198 20.3035 43.5942 22.3031 43.5942 23.9018C43.5942 24.8409 43.3745 26.3073 43.1081 27.1463C42.9923 27.511 42.9186 27.8305 42.9445 27.8564C42.9704 27.8823 43.2559 28.0091 43.5788 28.1385L44.1661 28.3735L44.2722 28.1272C44.6324 27.2914 44.9973 25.1947 45 23.9458C45.0032 22.3581 44.5922 20.3656 43.961 18.9104C42.2222 14.9014 38.6843 12.1424 34.3343 11.4034L33.7404 11.3026L33.7394 7.19845C33.7386 4.05588 33.7108 2.99141 33.6209 2.65454C33.3357 1.58716 32.7198 0.832375 31.7377 0.346988L31.0662 0.0151266L17.0288 0.00131355C9.04974 -0.0065167 2.8488 0.0213731 2.66105 0.0659791ZM15.9244 2.83709C15.8277 2.86006 15.4765 2.941 15.1442 3.01693C11.7008 3.80426 9.33295 7.35743 9.90376 10.8807C10.1386 12.3301 10.7736 13.6039 11.7824 14.6495C12.3878 15.277 13.3178 15.9713 13.7968 16.1534L14.0329 16.2431V18.0969C14.0329 19.9478 14.0332 19.951 14.2488 20.1666C14.4479 20.3658 14.5302 20.3826 15.3046 20.3826H16.1444V21.0864V21.7902H16.8482H17.5521V21.0864V20.3826H18.3918C19.1662 20.3826 19.2485 20.3658 19.4476 20.1666C19.6629 19.9513 19.6636 19.945 19.6656 18.121L19.6676 16.2915L20.2961 15.9396C21.0847 15.4979 22.1801 14.4771 22.6878 13.7107C24.852 10.4438 23.9494 6.0731 20.6683 3.93122C19.5506 3.2016 18.4875 2.87581 17.0682 2.82803C16.5359 2.81008 16.0212 2.81422 15.9244 2.83709ZM5.58578 3.53531L5.1069 4.02017L6.46752 5.38289C7.21588 6.1324 7.86966 6.74562 7.92043 6.74562C8.03629 6.74562 8.84202 5.93435 8.84202 5.81778C8.84202 5.73103 6.19619 3.05045 6.11058 3.05045C6.08533 3.05045 5.84911 3.26864 5.58578 3.53531ZM25.4702 4.41423L24.1086 5.77792L24.6138 6.28311L25.119 6.78829L26.5027 5.40462L27.8864 4.02087L27.4072 3.53566C27.1436 3.26881 26.9064 3.05045 26.8799 3.05045C26.8535 3.05045 26.2191 3.66411 25.4702 4.41423ZM18.036 4.32607C19.6335 4.6604 21.133 5.82007 21.851 7.27649C22.9599 9.52579 22.5622 12.0165 20.8124 13.7823C20.2693 14.3302 19.9908 14.5298 19.2922 14.8708C18.8218 15.1005 18.4137 15.326 18.3852 15.372C18.3567 15.418 18.1577 15.4557 17.9428 15.4557H17.5521V13.3441V11.2326H18.7438C19.8918 11.2326 19.9435 11.2247 20.1514 11.0166C20.3595 10.8086 20.3674 10.757 20.3674 9.60894V8.41724H19.6636H18.9598V9.12109V9.82493H16.8482H14.7367V9.12109V8.41724H14.0329H13.329V9.60894C13.329 10.757 13.3369 10.8086 13.545 11.0166C13.753 11.2247 13.8046 11.2326 14.9527 11.2326H16.1444V13.3441V15.4557H15.7537C15.5387 15.4557 15.3397 15.418 15.3112 15.372C15.2828 15.326 14.8747 15.1002 14.4042 14.8702C10.9074 13.1609 10.1386 8.60561 12.8837 5.86045C14.2552 4.4891 16.1368 3.92875 18.036 4.32607ZM3.47522 10.5288V11.2326H5.93867H8.40212V10.5288V9.82493H5.93867H3.47522V10.5288ZM25.2943 10.5288V11.2326H27.7578H30.2212V10.5288V9.82493H27.7578H25.2943V10.5288ZM6.46646 15.6757L5.10488 17.0394L5.61006 17.5446L6.11525 18.0498L7.49891 16.6661L8.88267 15.2823L8.40344 14.7971C8.13985 14.5303 7.90265 14.3119 7.87617 14.3119C7.84978 14.3119 7.21535 14.9256 6.46646 15.6757ZM24.5893 14.797L24.1103 15.282L24.7902 15.9619L25.47 16.6417L25.9745 16.1373L26.4789 15.6329L25.8228 14.9724C25.462 14.6091 25.1446 14.3119 25.1176 14.3119C25.0905 14.3119 24.8528 14.5302 24.5893 14.797ZM18.2559 17.9191V18.9749H16.8482H15.4405V17.9191V16.8634H16.8482H18.2559V17.9191ZM26.9836 17.0418C26.5898 17.4086 26.6139 17.4958 27.8808 20.2908C28.539 21.743 29.0775 22.9615 29.0775 22.9987C29.0775 23.036 31.7004 25.6857 34.9062 28.8868C38.9735 32.9483 40.8545 34.768 41.1308 34.9086C41.739 35.2182 42.7639 35.203 43.4324 34.8747C44.4166 34.3914 44.9548 33.5282 44.9534 32.4359C44.9517 31.2355 45.2198 31.5535 38.7697 25.1038L32.9825 19.3171L30.2671 18.0902C28.7736 17.4154 27.467 16.8634 27.3635 16.8634C27.2598 16.8634 27.089 16.9436 26.9836 17.0418ZM29.3773 19.245C29.4571 19.3193 29.2936 19.5907 29.1688 19.5907C29.111 19.5907 28.9015 19.2036 28.9015 19.0968C28.9015 19.0349 29.2774 19.152 29.3773 19.245ZM31.1843 20.0422L31.4698 20.1418L30.7816 20.834C30.4031 21.2148 30.0675 21.5263 30.036 21.5263C30.0044 21.5263 29.9283 21.4048 29.8668 21.2563C29.7573 20.992 29.766 20.975 30.2713 20.4645C30.5552 20.1775 30.8126 19.9427 30.8432 19.9427C30.8738 19.9427 31.0273 19.9874 31.1843 20.0422ZM36.2918 24.5615L39.8542 28.1247L38.9087 29.0703L37.9631 30.0158L34.3816 26.4343L30.8001 22.8527L31.0129 22.6262L31.2257 22.3997L34.3304 25.5035L37.4351 28.6073L37.9405 28.1019L38.446 27.5964L35.3444 24.494L32.2428 21.3914L32.4393 21.195C32.5473 21.0868 32.6569 20.9984 32.6827 20.9984C32.7084 20.9984 34.3326 22.6019 36.2918 24.5615ZM40.3189 30.4754L39.3775 31.4167L39.1517 31.2046L38.9259 30.9925L39.8727 30.0428L40.8193 29.0931L41.0398 29.3135L41.2602 29.534L40.3189 30.4754ZM42.8753 31.1513C43.6437 31.9515 43.7632 32.3758 43.4131 33.0618C43.2211 33.4382 42.7037 33.7517 42.2745 33.7517C41.8968 33.7517 41.3697 33.4431 40.8691 32.9291L40.3875 32.4345L41.3074 31.5114C41.8134 31.0036 42.2515 30.5883 42.281 30.5883C42.3105 30.5883 42.5779 30.8417 42.8753 31.1513Z" fill="url(#paint1_radial_1197_53)"/>
<defs>
<radialGradient id="paint0_radial_1197_53" cx="0" cy="0" r="1" gradientUnits="userSpaceOnUse" gradientTransform="translate(11.875 7.62012) rotate(45.152) scale(33.677 34.4402)">
<stop stop-color="white" stop-opacity="0.59"/>
<stop offset="0.697917" stop-color="white" stop-opacity="0"/>
<stop offset="1" stop-color="white" stop-opacity="0"/>
</radialGradient>
<radialGradient id="paint1_radial_1197_53" cx="0" cy="0" r="1" gradientUnits="userSpaceOnUse" gradientTransform="translate(38.8356 32.0045) rotate(-94.5126) scale(31.3396 42.8831)">
<stop stop-opacity="0.23"/>
<stop offset="0.861815" stop-opacity="0"/>
</radialGradient>
</defs>
</svg>
