<svg width="40" height="41" viewBox="0 0 40 41" fill="none" xmlns="http://www.w3.org/2000/svg">
<path fill-rule="evenodd" clip-rule="evenodd" d="M12.0336 0.0679308C11.2673 0.269239 10.5947 0.820314 10.2394 1.53769L10.033 1.95447L10.0099 7.63636L9.98693 13.3183L8.25484 13.3463L6.52268 13.3744L5.89316 13.6858C5.13478 14.0607 4.66206 14.5437 4.29512 15.3183L4.03129 15.8752V25.3362V34.7973L4.29512 35.3541C4.62738 36.0554 5.11419 36.5871 5.70403 36.8931C6.08188 37.089 6.15449 37.1609 6.11314 37.298C5.86249 38.1296 6.02203 38.7985 6.61079 39.3848C7.45745 40.2278 8.52409 40.2278 9.37075 39.3848C9.86397 38.8936 10.042 38.4052 9.965 37.7545L9.91582 37.3397H12.6588H15.4017L15.3526 37.7545C15.2755 38.4052 15.4536 38.8936 15.9468 39.3848C16.7935 40.2278 17.8601 40.2278 18.7068 39.3848C19.2962 38.7979 19.4566 38.1225 19.2029 37.2961C19.1605 37.158 19.22 37.094 19.5324 36.9422C20.1492 36.6426 20.6345 36.1317 20.9832 35.4152L21.2973 34.7697L26.0431 37.0545C28.6534 38.3111 30.8713 39.3395 30.9719 39.3398C31.0725 39.34 31.247 39.2559 31.3596 39.1527C31.6032 38.9296 40 21.4923 40 21.2094C40 21.1053 39.9343 20.9419 39.8541 20.8464C39.7739 20.7509 36.9192 19.3342 33.5103 17.6983C26.8057 14.4806 26.9019 14.5183 26.0931 14.7869C25.3103 15.0469 25.2084 15.2091 23.2035 19.3869L21.3696 23.2083L21.3279 19.5417L21.2863 15.8752L21.0224 15.3183C20.6555 14.5437 20.1828 14.0607 19.4244 13.6858L18.7949 13.3744L17.0633 13.3463L15.3317 13.3183L15.3081 7.63636L15.2845 1.95447L14.9987 1.42724C14.5272 0.557739 13.8035 0.0919376 12.8349 0.0347545C12.5317 0.0168327 12.1711 0.0317537 12.0336 0.0679308ZM18.4938 0.0505924C16.9883 0.197051 16.5766 0.270239 16.5766 0.391274C16.5766 0.461044 16.6213 0.760881 16.6759 1.05763L16.7754 1.59704L17.1136 1.54844C18.2402 1.38648 19.5959 1.31371 20.6788 1.35689L21.9052 1.40573L21.9455 1.13832C21.9677 0.991197 22.0051 0.698029 22.0287 0.486802L22.0717 0.102858L21.4371 0.0491753C20.8052 -0.00417338 19.049 -0.00333979 18.4938 0.0505924ZM30.5718 0.953019L28.6875 1.90146L27.9877 1.47734C26.8094 0.763131 26.0942 0.57441 25.1944 0.740291C24.4659 0.874497 23.8541 1.21218 23.2243 1.82769C22.6128 2.42536 22.5124 2.72286 22.8075 3.06246C22.8877 3.15474 25.5167 4.79321 28.6497 6.70359C34.9606 10.5517 34.8038 10.4738 35.7071 10.2116C36.1842 10.0732 36.2793 9.99479 37.7702 8.51053C39.7297 6.55989 39.6882 6.7361 38.4744 5.52234C37.7792 4.82714 37.5695 4.66359 37.3735 4.66359C37.2129 4.66359 36.8283 4.86406 36.231 5.25893L35.3307 5.85427L33.8327 4.86298C33.0089 4.31774 32.334 3.84994 32.333 3.82343C32.332 3.79684 32.7062 3.27469 33.1647 2.66301C34.1988 1.28328 34.2027 1.25586 33.4704 0.523479C33.057 0.11011 32.8896 -0.00342306 32.6993 7.79471e-05C32.5624 0.00257867 31.6324 0.419115 30.5718 0.953019ZM13.3892 1.55203C13.509 1.64147 13.6844 1.81827 13.7789 1.94489C13.948 2.1712 13.9512 2.26715 13.9734 7.7539L13.9959 13.3328H12.6605H11.3251V7.87827C11.3251 4.21713 11.3543 2.34667 11.414 2.18913C11.5314 1.87937 11.8082 1.58528 12.117 1.44233C12.4491 1.28853 13.113 1.3458 13.3892 1.55203ZM31.4575 2.71769C30.6744 3.75891 30.5684 3.99581 30.7412 4.31882C30.8679 4.55531 35.1001 7.33103 35.3342 7.33103C35.4509 7.33103 35.8963 7.09379 36.3519 6.7892C36.7975 6.4912 37.1939 6.24738 37.2328 6.24738C37.2717 6.24738 37.3935 6.34316 37.5034 6.46019L37.7034 6.67309L36.5214 7.84676C35.4424 8.91832 35.3186 9.01635 35.1008 8.97275C34.7947 8.91156 24.4082 2.57024 24.4645 2.47904C24.5495 2.34167 25.1341 2.09401 25.4977 2.04142C26.0246 1.96514 26.4884 2.13053 27.5615 2.77705C28.0661 3.08113 28.5674 3.32787 28.6754 3.32545C28.7834 3.32295 29.6033 2.94985 30.4973 2.4963C31.3913 2.04275 32.1516 1.66964 32.1868 1.66714C32.222 1.66472 31.8938 2.13744 31.4575 2.71769ZM7.48837 4.38493C5.79555 5.71481 3.98553 7.80316 2.78035 9.81716C-0.133993 14.6871 -0.801352 20.8039 0.987331 26.2523C1.31601 27.2537 1.98954 28.8372 2.08665 28.8372C2.14725 28.8372 3.14587 28.3623 3.21964 28.2983C3.23173 28.2879 3.10669 27.9832 2.94173 27.6214C2.77685 27.2595 2.47759 26.4717 2.27687 25.8707C-0.169503 18.5484 2.20885 10.4083 8.22383 5.51709C8.68472 5.14231 8.98172 4.84289 8.95688 4.77804C8.89803 4.62466 8.29852 3.83002 8.24167 3.83002C8.21583 3.83002 7.8769 4.07967 7.48837 4.38493ZM20.2147 7.79649C19.5599 7.95504 18.7322 8.40358 18.0957 8.94491C17.6177 9.35153 17.1479 9.58167 16.7961 9.58167C16.6813 9.58167 16.6599 9.68787 16.6599 10.2601V10.9386L17.088 10.8879C17.635 10.8231 18.4306 10.4471 18.9106 10.0264C19.4897 9.51882 19.75 9.35944 20.3076 9.17164C20.9702 8.94841 21.6857 8.94841 22.3483 9.17164C22.928 9.36695 23.1798 9.52558 23.8048 10.0891C24.7215 10.9155 25.7701 10.9567 26.7357 10.2044C27.3469 9.72813 27.4461 9.76473 28.6114 10.8977C30.2692 12.5097 31.1093 13.1358 32.6548 13.9113C34.0931 14.6331 35.5492 15.0574 37.2493 15.25C37.6801 15.2988 38.0472 15.3533 38.0649 15.3711C38.1667 15.4728 38.5828 17.8706 38.5829 18.355V18.6676H39.2498H39.9166V18.3336C39.9166 17.4613 39.4463 15.1041 39.0035 13.7565C38.7334 12.9347 38.0368 11.2647 37.9067 11.1271C37.8275 11.0433 36.7483 11.5255 36.7499 11.644C36.7504 11.6788 36.9555 12.1949 37.2056 12.7909L37.6604 13.8746L37.414 13.9007C37.042 13.94 35.814 13.6879 34.8312 13.3703C32.9455 12.7612 31.5703 11.8812 29.7455 10.1159C28.6896 9.09445 28.3687 8.83196 28.0392 8.71968C27.2844 8.46243 26.6077 8.59231 25.9231 9.12571C25.398 9.53474 25.1984 9.50982 24.5634 8.95591C23.2998 7.85384 21.719 7.43239 20.2147 7.79649ZM9.99135 16.3336V18.0008H10.6582H11.3251V16.3336V14.6665H12.6588H13.9925V16.3336V18.0008H14.6594H15.3262V16.3336V14.6665H16.7961C17.7066 14.6665 18.3967 14.7051 18.6092 14.7678C19.067 14.9031 19.7576 15.5937 19.8929 16.0515C19.9673 16.3036 19.9942 17.6773 19.9942 21.2303V26.0659L18.7699 28.5977C17.582 31.0542 17.5454 31.1456 17.5434 31.6714C17.5397 32.6459 18.0169 33.2332 19.2713 33.7979C19.9815 34.1177 20.0053 34.1373 19.9597 34.3657C19.8272 35.0281 19.2119 35.7225 18.5932 35.9079C18.1189 36.0501 7.19029 36.047 6.7084 35.9046C6.25052 35.7693 5.55998 35.0788 5.4247 34.6209C5.27832 34.1254 5.27832 16.547 5.4247 16.0515C5.55015 15.6269 6.24793 14.9044 6.65705 14.7754C6.82026 14.724 7.61891 14.6797 8.47007 14.675L9.99135 14.6665V16.3336ZM32.6326 18.7607C35.7907 20.2789 38.3857 21.5311 38.3995 21.5433C38.4654 21.6021 37.8783 22.7551 37.799 22.7227C36.9122 22.3595 26.3292 17.1891 26.2252 17.0682C25.9054 16.6966 26.2083 16.0002 26.6897 16.0002C26.8003 16.0002 29.4745 17.2424 32.6326 18.7607ZM31.4767 21.1697C34.6515 22.6949 37.2492 23.9654 37.2492 23.9931C37.2492 24.061 30.7362 37.6136 30.6627 37.6986C30.6125 37.7566 19.5961 32.5244 19.1054 32.2095C18.6512 31.9181 18.6025 32.0412 21.8328 25.3199C23.492 21.8675 24.9601 18.8229 25.0951 18.5543L25.3407 18.066L25.5224 18.2313C25.6224 18.3222 28.3019 19.6445 31.4767 21.1697ZM7.99077 27.0034V34.6722H8.65763H9.32449V27.0034V19.3345H8.65763H7.99077V27.0034ZM11.9919 27.0034V34.6722H12.6588H13.3256V27.0034V19.3345H12.6588H11.9919V27.0034ZM15.9931 27.0034V34.6722H16.6599H17.3268V27.0034V19.3345H16.6599H15.9931V27.0034ZM27.5381 21.9592C26.1408 22.3381 25.0315 23.259 24.4547 24.5191C23.6269 26.3271 23.9748 28.3033 25.3705 29.7226C26.3178 30.6857 27.376 31.1229 28.7468 31.1174C30.0886 31.112 31.1154 30.6481 32.0891 29.6073C33.802 27.7761 33.7419 25.0005 31.95 23.1995C31.3037 22.5499 30.4919 22.0946 29.6804 21.9266C29.0892 21.8043 28.0513 21.82 27.5381 21.9592ZM28.5171 23.5232C28.1574 23.8398 27.793 24.2452 27.3519 24.8195L27.2046 25.0112L26.642 24.7561C26.3325 24.6158 26.0793 24.4712 26.0793 24.4348C26.0793 24.3482 26.5465 23.9135 26.9004 23.6707C27.2788 23.4111 28.0355 23.1788 28.5206 23.1734L28.9196 23.1689L28.5171 23.5232ZM29.6627 25.5495C29.6112 25.7974 29.5381 26.0193 29.5002 26.0428C29.3881 26.112 28.4967 25.6677 28.4967 25.5426C28.4967 25.4794 28.7686 25.1539 29.101 24.8193L29.7054 24.2109L29.7308 24.6549C29.7448 24.8992 29.7141 25.3017 29.6627 25.5495ZM31.7604 25.2511C31.9496 25.7426 32.0606 26.9654 31.9329 27.1517C31.8762 27.2344 31.7344 27.1995 31.2967 26.9947C30.8108 26.7673 30.7405 26.707 30.7838 26.5547C30.9507 25.9673 31.0812 25.1728 31.0842 24.7265L31.0875 24.2109L31.3353 24.5009C31.4717 24.6604 31.6629 24.998 31.7604 25.2511ZM26.0361 25.9376C26.3349 26.085 26.579 26.2444 26.5785 26.2919C26.578 26.3393 26.5215 26.5845 26.4532 26.8366C26.3848 27.0888 26.3046 27.6245 26.2748 28.0272L26.2207 28.7594L25.945 28.3717C25.4872 27.7278 25.2541 26.7941 25.3654 26.0513C25.397 25.8414 25.4384 25.6696 25.4576 25.6696C25.4769 25.6696 25.7372 25.7903 26.0361 25.9376ZM28.4192 27.0897L28.9206 27.3428L28.7313 27.6107C28.4929 27.9482 27.7477 28.6705 27.6378 28.6705C27.5861 28.6705 27.575 28.4453 27.6082 28.0662C27.6604 27.4707 27.7994 26.8366 27.8778 26.8366C27.8998 26.8366 28.1435 26.9505 28.4192 27.0897ZM30.7687 28.2228L31.3693 28.5253L30.9721 28.8849C30.7537 29.0827 30.3754 29.3422 30.1313 29.4616C29.6958 29.6746 28.6246 29.91 28.5284 29.8136C28.5014 29.7867 28.7223 29.5373 29.0193 29.2596C29.3162 28.9818 29.6858 28.5678 29.8407 28.3396C29.9954 28.1114 30.1325 27.9236 30.1451 27.9225C30.1577 27.9213 30.4383 28.0564 30.7687 28.2228ZM22.4595 31.659L22.1719 32.23L25.1708 33.6702C26.8202 34.4623 28.1825 35.0962 28.1983 35.0789C28.3418 34.9206 28.7437 33.969 28.6897 33.915C28.6006 33.8259 22.9147 31.0879 22.8188 31.0879C22.7794 31.0879 22.6177 31.3449 22.4595 31.659ZM8.45298 37.5443C8.86652 37.9578 8.57352 38.6734 7.99077 38.6734C7.64809 38.6734 7.32391 38.3492 7.32391 38.0065C7.32391 37.6639 7.64809 37.3397 7.99077 37.3397C8.15315 37.3397 8.32403 37.4153 8.45298 37.5443ZM17.789 37.5443C18.2025 37.9578 17.9095 38.6734 17.3268 38.6734C16.9841 38.6734 16.6599 38.3492 16.6599 38.0065C16.6599 37.6639 16.9841 37.3397 17.3268 37.3397C17.4892 37.3397 17.6601 37.4153 17.789 37.5443ZM25.6504 37.7965C25.6284 37.8185 25.1686 37.948 24.6289 38.0843C23.6568 38.3298 22.4326 38.5305 21.2654 38.6358L20.6611 38.6903V39.3544V40.0185L21.3488 39.964C22.5435 39.8693 23.7539 39.6745 24.7873 39.4106C25.3374 39.2701 25.8719 39.1361 25.9751 39.1129C26.2063 39.0609 26.2064 39.0296 25.9795 38.325C25.8081 37.7927 25.749 37.6978 25.6504 37.7965Z" fill="#0066FF"/>
<path fill-rule="evenodd" clip-rule="evenodd" d="M12.0336 0.0679308C11.2673 0.269239 10.5947 0.820314 10.2394 1.53769L10.033 1.95447L10.0099 7.63636L9.98693 13.3183L8.25484 13.3463L6.52268 13.3744L5.89316 13.6858C5.13478 14.0607 4.66206 14.5437 4.29512 15.3183L4.03129 15.8752V25.3362V34.7973L4.29512 35.3541C4.62738 36.0554 5.11419 36.5871 5.70403 36.8931C6.08188 37.089 6.15449 37.1609 6.11314 37.298C5.86249 38.1296 6.02203 38.7985 6.61079 39.3848C7.45745 40.2278 8.52409 40.2278 9.37075 39.3848C9.86397 38.8936 10.042 38.4052 9.965 37.7545L9.91582 37.3397H12.6588H15.4017L15.3526 37.7545C15.2755 38.4052 15.4536 38.8936 15.9468 39.3848C16.7935 40.2278 17.8601 40.2278 18.7068 39.3848C19.2962 38.7979 19.4566 38.1225 19.2029 37.2961C19.1605 37.158 19.22 37.094 19.5324 36.9422C20.1492 36.6426 20.6345 36.1317 20.9832 35.4152L21.2973 34.7697L26.0431 37.0545C28.6534 38.3111 30.8713 39.3395 30.9719 39.3398C31.0725 39.34 31.247 39.2559 31.3596 39.1527C31.6032 38.9296 40 21.4923 40 21.2094C40 21.1053 39.9343 20.9419 39.8541 20.8464C39.7739 20.7509 36.9192 19.3342 33.5103 17.6983C26.8057 14.4806 26.9019 14.5183 26.0931 14.7869C25.3103 15.0469 25.2084 15.2091 23.2035 19.3869L21.3696 23.2083L21.3279 19.5417L21.2863 15.8752L21.0224 15.3183C20.6555 14.5437 20.1828 14.0607 19.4244 13.6858L18.7949 13.3744L17.0633 13.3463L15.3317 13.3183L15.3081 7.63636L15.2845 1.95447L14.9987 1.42724C14.5272 0.557739 13.8035 0.0919376 12.8349 0.0347545C12.5317 0.0168327 12.1711 0.0317537 12.0336 0.0679308ZM18.4938 0.0505924C16.9883 0.197051 16.5766 0.270239 16.5766 0.391274C16.5766 0.461044 16.6213 0.760881 16.6759 1.05763L16.7754 1.59704L17.1136 1.54844C18.2402 1.38648 19.5959 1.31371 20.6788 1.35689L21.9052 1.40573L21.9455 1.13832C21.9677 0.991197 22.0051 0.698029 22.0287 0.486802L22.0717 0.102858L21.4371 0.0491753C20.8052 -0.00417338 19.049 -0.00333979 18.4938 0.0505924ZM30.5718 0.953019L28.6875 1.90146L27.9877 1.47734C26.8094 0.763131 26.0942 0.57441 25.1944 0.740291C24.4659 0.874497 23.8541 1.21218 23.2243 1.82769C22.6128 2.42536 22.5124 2.72286 22.8075 3.06246C22.8877 3.15474 25.5167 4.79321 28.6497 6.70359C34.9606 10.5517 34.8038 10.4738 35.7071 10.2116C36.1842 10.0732 36.2793 9.99479 37.7702 8.51053C39.7297 6.55989 39.6882 6.7361 38.4744 5.52234C37.7792 4.82714 37.5695 4.66359 37.3735 4.66359C37.2129 4.66359 36.8283 4.86406 36.231 5.25893L35.3307 5.85427L33.8327 4.86298C33.0089 4.31774 32.334 3.84994 32.333 3.82343C32.332 3.79684 32.7062 3.27469 33.1647 2.66301C34.1988 1.28328 34.2027 1.25586 33.4704 0.523479C33.057 0.11011 32.8896 -0.00342306 32.6993 7.79471e-05C32.5624 0.00257867 31.6324 0.419115 30.5718 0.953019ZM13.3892 1.55203C13.509 1.64147 13.6844 1.81827 13.7789 1.94489C13.948 2.1712 13.9512 2.26715 13.9734 7.7539L13.9959 13.3328H12.6605H11.3251V7.87827C11.3251 4.21713 11.3543 2.34667 11.414 2.18913C11.5314 1.87937 11.8082 1.58528 12.117 1.44233C12.4491 1.28853 13.113 1.3458 13.3892 1.55203ZM31.4575 2.71769C30.6744 3.75891 30.5684 3.99581 30.7412 4.31882C30.8679 4.55531 35.1001 7.33103 35.3342 7.33103C35.4509 7.33103 35.8963 7.09379 36.3519 6.7892C36.7975 6.4912 37.1939 6.24738 37.2328 6.24738C37.2717 6.24738 37.3935 6.34316 37.5034 6.46019L37.7034 6.67309L36.5214 7.84676C35.4424 8.91832 35.3186 9.01635 35.1008 8.97275C34.7947 8.91156 24.4082 2.57024 24.4645 2.47904C24.5495 2.34167 25.1341 2.09401 25.4977 2.04142C26.0246 1.96514 26.4884 2.13053 27.5615 2.77705C28.0661 3.08113 28.5674 3.32787 28.6754 3.32545C28.7834 3.32295 29.6033 2.94985 30.4973 2.4963C31.3913 2.04275 32.1516 1.66964 32.1868 1.66714C32.222 1.66472 31.8938 2.13744 31.4575 2.71769ZM7.48837 4.38493C5.79555 5.71481 3.98553 7.80316 2.78035 9.81716C-0.133993 14.6871 -0.801352 20.8039 0.987331 26.2523C1.31601 27.2537 1.98954 28.8372 2.08665 28.8372C2.14725 28.8372 3.14587 28.3623 3.21964 28.2983C3.23173 28.2879 3.10669 27.9832 2.94173 27.6214C2.77685 27.2595 2.47759 26.4717 2.27687 25.8707C-0.169503 18.5484 2.20885 10.4083 8.22383 5.51709C8.68472 5.14231 8.98172 4.84289 8.95688 4.77804C8.89803 4.62466 8.29852 3.83002 8.24167 3.83002C8.21583 3.83002 7.8769 4.07967 7.48837 4.38493ZM20.2147 7.79649C19.5599 7.95504 18.7322 8.40358 18.0957 8.94491C17.6177 9.35153 17.1479 9.58167 16.7961 9.58167C16.6813 9.58167 16.6599 9.68787 16.6599 10.2601V10.9386L17.088 10.8879C17.635 10.8231 18.4306 10.4471 18.9106 10.0264C19.4897 9.51882 19.75 9.35944 20.3076 9.17164C20.9702 8.94841 21.6857 8.94841 22.3483 9.17164C22.928 9.36695 23.1798 9.52558 23.8048 10.0891C24.7215 10.9155 25.7701 10.9567 26.7357 10.2044C27.3469 9.72813 27.4461 9.76473 28.6114 10.8977C30.2692 12.5097 31.1093 13.1358 32.6548 13.9113C34.0931 14.6331 35.5492 15.0574 37.2493 15.25C37.6801 15.2988 38.0472 15.3533 38.0649 15.3711C38.1667 15.4728 38.5828 17.8706 38.5829 18.355V18.6676H39.2498H39.9166V18.3336C39.9166 17.4613 39.4463 15.1041 39.0035 13.7565C38.7334 12.9347 38.0368 11.2647 37.9067 11.1271C37.8275 11.0433 36.7483 11.5255 36.7499 11.644C36.7504 11.6788 36.9555 12.1949 37.2056 12.7909L37.6604 13.8746L37.414 13.9007C37.042 13.94 35.814 13.6879 34.8312 13.3703C32.9455 12.7612 31.5703 11.8812 29.7455 10.1159C28.6896 9.09445 28.3687 8.83196 28.0392 8.71968C27.2844 8.46243 26.6077 8.59231 25.9231 9.12571C25.398 9.53474 25.1984 9.50982 24.5634 8.95591C23.2998 7.85384 21.719 7.43239 20.2147 7.79649ZM9.99135 16.3336V18.0008H10.6582H11.3251V16.3336V14.6665H12.6588H13.9925V16.3336V18.0008H14.6594H15.3262V16.3336V14.6665H16.7961C17.7066 14.6665 18.3967 14.7051 18.6092 14.7678C19.067 14.9031 19.7576 15.5937 19.8929 16.0515C19.9673 16.3036 19.9942 17.6773 19.9942 21.2303V26.0659L18.7699 28.5977C17.582 31.0542 17.5454 31.1456 17.5434 31.6714C17.5397 32.6459 18.0169 33.2332 19.2713 33.7979C19.9815 34.1177 20.0053 34.1373 19.9597 34.3657C19.8272 35.0281 19.2119 35.7225 18.5932 35.9079C18.1189 36.0501 7.19029 36.047 6.7084 35.9046C6.25052 35.7693 5.55998 35.0788 5.4247 34.6209C5.27832 34.1254 5.27832 16.547 5.4247 16.0515C5.55015 15.6269 6.24793 14.9044 6.65705 14.7754C6.82026 14.724 7.61891 14.6797 8.47007 14.675L9.99135 14.6665V16.3336ZM32.6326 18.7607C35.7907 20.2789 38.3857 21.5311 38.3995 21.5433C38.4654 21.6021 37.8783 22.7551 37.799 22.7227C36.9122 22.3595 26.3292 17.1891 26.2252 17.0682C25.9054 16.6966 26.2083 16.0002 26.6897 16.0002C26.8003 16.0002 29.4745 17.2424 32.6326 18.7607ZM31.4767 21.1697C34.6515 22.6949 37.2492 23.9654 37.2492 23.9931C37.2492 24.061 30.7362 37.6136 30.6627 37.6986C30.6125 37.7566 19.5961 32.5244 19.1054 32.2095C18.6512 31.9181 18.6025 32.0412 21.8328 25.3199C23.492 21.8675 24.9601 18.8229 25.0951 18.5543L25.3407 18.066L25.5224 18.2313C25.6224 18.3222 28.3019 19.6445 31.4767 21.1697ZM7.99077 27.0034V34.6722H8.65763H9.32449V27.0034V19.3345H8.65763H7.99077V27.0034ZM11.9919 27.0034V34.6722H12.6588H13.3256V27.0034V19.3345H12.6588H11.9919V27.0034ZM15.9931 27.0034V34.6722H16.6599H17.3268V27.0034V19.3345H16.6599H15.9931V27.0034ZM27.5381 21.9592C26.1408 22.3381 25.0315 23.259 24.4547 24.5191C23.6269 26.3271 23.9748 28.3033 25.3705 29.7226C26.3178 30.6857 27.376 31.1229 28.7468 31.1174C30.0886 31.112 31.1154 30.6481 32.0891 29.6073C33.802 27.7761 33.7419 25.0005 31.95 23.1995C31.3037 22.5499 30.4919 22.0946 29.6804 21.9266C29.0892 21.8043 28.0513 21.82 27.5381 21.9592ZM28.5171 23.5232C28.1574 23.8398 27.793 24.2452 27.3519 24.8195L27.2046 25.0112L26.642 24.7561C26.3325 24.6158 26.0793 24.4712 26.0793 24.4348C26.0793 24.3482 26.5465 23.9135 26.9004 23.6707C27.2788 23.4111 28.0355 23.1788 28.5206 23.1734L28.9196 23.1689L28.5171 23.5232ZM29.6627 25.5495C29.6112 25.7974 29.5381 26.0193 29.5002 26.0428C29.3881 26.112 28.4967 25.6677 28.4967 25.5426C28.4967 25.4794 28.7686 25.1539 29.101 24.8193L29.7054 24.2109L29.7308 24.6549C29.7448 24.8992 29.7141 25.3017 29.6627 25.5495ZM31.7604 25.2511C31.9496 25.7426 32.0606 26.9654 31.9329 27.1517C31.8762 27.2344 31.7344 27.1995 31.2967 26.9947C30.8108 26.7673 30.7405 26.707 30.7838 26.5547C30.9507 25.9673 31.0812 25.1728 31.0842 24.7265L31.0875 24.2109L31.3353 24.5009C31.4717 24.6604 31.6629 24.998 31.7604 25.2511ZM26.0361 25.9376C26.3349 26.085 26.579 26.2444 26.5785 26.2919C26.578 26.3393 26.5215 26.5845 26.4532 26.8366C26.3848 27.0888 26.3046 27.6245 26.2748 28.0272L26.2207 28.7594L25.945 28.3717C25.4872 27.7278 25.2541 26.7941 25.3654 26.0513C25.397 25.8414 25.4384 25.6696 25.4576 25.6696C25.4769 25.6696 25.7372 25.7903 26.0361 25.9376ZM28.4192 27.0897L28.9206 27.3428L28.7313 27.6107C28.4929 27.9482 27.7477 28.6705 27.6378 28.6705C27.5861 28.6705 27.575 28.4453 27.6082 28.0662C27.6604 27.4707 27.7994 26.8366 27.8778 26.8366C27.8998 26.8366 28.1435 26.9505 28.4192 27.0897ZM30.7687 28.2228L31.3693 28.5253L30.9721 28.8849C30.7537 29.0827 30.3754 29.3422 30.1313 29.4616C29.6958 29.6746 28.6246 29.91 28.5284 29.8136C28.5014 29.7867 28.7223 29.5373 29.0193 29.2596C29.3162 28.9818 29.6858 28.5678 29.8407 28.3396C29.9954 28.1114 30.1325 27.9236 30.1451 27.9225C30.1577 27.9213 30.4383 28.0564 30.7687 28.2228ZM22.4595 31.659L22.1719 32.23L25.1708 33.6702C26.8202 34.4623 28.1825 35.0962 28.1983 35.0789C28.3418 34.9206 28.7437 33.969 28.6897 33.915C28.6006 33.8259 22.9147 31.0879 22.8188 31.0879C22.7794 31.0879 22.6177 31.3449 22.4595 31.659ZM8.45298 37.5443C8.86652 37.9578 8.57352 38.6734 7.99077 38.6734C7.64809 38.6734 7.32391 38.3492 7.32391 38.0065C7.32391 37.6639 7.64809 37.3397 7.99077 37.3397C8.15315 37.3397 8.32403 37.4153 8.45298 37.5443ZM17.789 37.5443C18.2025 37.9578 17.9095 38.6734 17.3268 38.6734C16.9841 38.6734 16.6599 38.3492 16.6599 38.0065C16.6599 37.6639 16.9841 37.3397 17.3268 37.3397C17.4892 37.3397 17.6601 37.4153 17.789 37.5443ZM25.6504 37.7965C25.6284 37.8185 25.1686 37.948 24.6289 38.0843C23.6568 38.3298 22.4326 38.5305 21.2654 38.6358L20.6611 38.6903V39.3544V40.0185L21.3488 39.964C22.5435 39.8693 23.7539 39.6745 24.7873 39.4106C25.3374 39.2701 25.8719 39.1361 25.9751 39.1129C26.2063 39.0609 26.2064 39.0296 25.9795 38.325C25.8081 37.7927 25.749 37.6978 25.6504 37.7965Z" fill="url(#paint0_radial_1199_76)" fill-opacity="0.7"/>
<path fill-rule="evenodd" clip-rule="evenodd" d="M12.0336 0.0679308C11.2673 0.269239 10.5947 0.820314 10.2394 1.53769L10.033 1.95447L10.0099 7.63636L9.98693 13.3183L8.25484 13.3463L6.52268 13.3744L5.89316 13.6858C5.13478 14.0607 4.66206 14.5437 4.29512 15.3183L4.03129 15.8752V25.3362V34.7973L4.29512 35.3541C4.62738 36.0554 5.11419 36.5871 5.70403 36.8931C6.08188 37.089 6.15449 37.1609 6.11314 37.298C5.86249 38.1296 6.02203 38.7985 6.61079 39.3848C7.45745 40.2278 8.52409 40.2278 9.37075 39.3848C9.86397 38.8936 10.042 38.4052 9.965 37.7545L9.91582 37.3397H12.6588H15.4017L15.3526 37.7545C15.2755 38.4052 15.4536 38.8936 15.9468 39.3848C16.7935 40.2278 17.8601 40.2278 18.7068 39.3848C19.2962 38.7979 19.4566 38.1225 19.2029 37.2961C19.1605 37.158 19.22 37.094 19.5324 36.9422C20.1492 36.6426 20.6345 36.1317 20.9832 35.4152L21.2973 34.7697L26.0431 37.0545C28.6534 38.3111 30.8713 39.3395 30.9719 39.3398C31.0725 39.34 31.247 39.2559 31.3596 39.1527C31.6032 38.9296 40 21.4923 40 21.2094C40 21.1053 39.9343 20.9419 39.8541 20.8464C39.7739 20.7509 36.9192 19.3342 33.5103 17.6983C26.8057 14.4806 26.9019 14.5183 26.0931 14.7869C25.3103 15.0469 25.2084 15.2091 23.2035 19.3869L21.3696 23.2083L21.3279 19.5417L21.2863 15.8752L21.0224 15.3183C20.6555 14.5437 20.1828 14.0607 19.4244 13.6858L18.7949 13.3744L17.0633 13.3463L15.3317 13.3183L15.3081 7.63636L15.2845 1.95447L14.9987 1.42724C14.5272 0.557739 13.8035 0.0919376 12.8349 0.0347545C12.5317 0.0168327 12.1711 0.0317537 12.0336 0.0679308ZM18.4938 0.0505924C16.9883 0.197051 16.5766 0.270239 16.5766 0.391274C16.5766 0.461044 16.6213 0.760881 16.6759 1.05763L16.7754 1.59704L17.1136 1.54844C18.2402 1.38648 19.5959 1.31371 20.6788 1.35689L21.9052 1.40573L21.9455 1.13832C21.9677 0.991197 22.0051 0.698029 22.0287 0.486802L22.0717 0.102858L21.4371 0.0491753C20.8052 -0.00417338 19.049 -0.00333979 18.4938 0.0505924ZM30.5718 0.953019L28.6875 1.90146L27.9877 1.47734C26.8094 0.763131 26.0942 0.57441 25.1944 0.740291C24.4659 0.874497 23.8541 1.21218 23.2243 1.82769C22.6128 2.42536 22.5124 2.72286 22.8075 3.06246C22.8877 3.15474 25.5167 4.79321 28.6497 6.70359C34.9606 10.5517 34.8038 10.4738 35.7071 10.2116C36.1842 10.0732 36.2793 9.99479 37.7702 8.51053C39.7297 6.55989 39.6882 6.7361 38.4744 5.52234C37.7792 4.82714 37.5695 4.66359 37.3735 4.66359C37.2129 4.66359 36.8283 4.86406 36.231 5.25893L35.3307 5.85427L33.8327 4.86298C33.0089 4.31774 32.334 3.84994 32.333 3.82343C32.332 3.79684 32.7062 3.27469 33.1647 2.66301C34.1988 1.28328 34.2027 1.25586 33.4704 0.523479C33.057 0.11011 32.8896 -0.00342306 32.6993 7.79471e-05C32.5624 0.00257867 31.6324 0.419115 30.5718 0.953019ZM13.3892 1.55203C13.509 1.64147 13.6844 1.81827 13.7789 1.94489C13.948 2.1712 13.9512 2.26715 13.9734 7.7539L13.9959 13.3328H12.6605H11.3251V7.87827C11.3251 4.21713 11.3543 2.34667 11.414 2.18913C11.5314 1.87937 11.8082 1.58528 12.117 1.44233C12.4491 1.28853 13.113 1.3458 13.3892 1.55203ZM31.4575 2.71769C30.6744 3.75891 30.5684 3.99581 30.7412 4.31882C30.8679 4.55531 35.1001 7.33103 35.3342 7.33103C35.4509 7.33103 35.8963 7.09379 36.3519 6.7892C36.7975 6.4912 37.1939 6.24738 37.2328 6.24738C37.2717 6.24738 37.3935 6.34316 37.5034 6.46019L37.7034 6.67309L36.5214 7.84676C35.4424 8.91832 35.3186 9.01635 35.1008 8.97275C34.7947 8.91156 24.4082 2.57024 24.4645 2.47904C24.5495 2.34167 25.1341 2.09401 25.4977 2.04142C26.0246 1.96514 26.4884 2.13053 27.5615 2.77705C28.0661 3.08113 28.5674 3.32787 28.6754 3.32545C28.7834 3.32295 29.6033 2.94985 30.4973 2.4963C31.3913 2.04275 32.1516 1.66964 32.1868 1.66714C32.222 1.66472 31.8938 2.13744 31.4575 2.71769ZM7.48837 4.38493C5.79555 5.71481 3.98553 7.80316 2.78035 9.81716C-0.133993 14.6871 -0.801352 20.8039 0.987331 26.2523C1.31601 27.2537 1.98954 28.8372 2.08665 28.8372C2.14725 28.8372 3.14587 28.3623 3.21964 28.2983C3.23173 28.2879 3.10669 27.9832 2.94173 27.6214C2.77685 27.2595 2.47759 26.4717 2.27687 25.8707C-0.169503 18.5484 2.20885 10.4083 8.22383 5.51709C8.68472 5.14231 8.98172 4.84289 8.95688 4.77804C8.89803 4.62466 8.29852 3.83002 8.24167 3.83002C8.21583 3.83002 7.8769 4.07967 7.48837 4.38493ZM20.2147 7.79649C19.5599 7.95504 18.7322 8.40358 18.0957 8.94491C17.6177 9.35153 17.1479 9.58167 16.7961 9.58167C16.6813 9.58167 16.6599 9.68787 16.6599 10.2601V10.9386L17.088 10.8879C17.635 10.8231 18.4306 10.4471 18.9106 10.0264C19.4897 9.51882 19.75 9.35944 20.3076 9.17164C20.9702 8.94841 21.6857 8.94841 22.3483 9.17164C22.928 9.36695 23.1798 9.52558 23.8048 10.0891C24.7215 10.9155 25.7701 10.9567 26.7357 10.2044C27.3469 9.72813 27.4461 9.76473 28.6114 10.8977C30.2692 12.5097 31.1093 13.1358 32.6548 13.9113C34.0931 14.6331 35.5492 15.0574 37.2493 15.25C37.6801 15.2988 38.0472 15.3533 38.0649 15.3711C38.1667 15.4728 38.5828 17.8706 38.5829 18.355V18.6676H39.2498H39.9166V18.3336C39.9166 17.4613 39.4463 15.1041 39.0035 13.7565C38.7334 12.9347 38.0368 11.2647 37.9067 11.1271C37.8275 11.0433 36.7483 11.5255 36.7499 11.644C36.7504 11.6788 36.9555 12.1949 37.2056 12.7909L37.6604 13.8746L37.414 13.9007C37.042 13.94 35.814 13.6879 34.8312 13.3703C32.9455 12.7612 31.5703 11.8812 29.7455 10.1159C28.6896 9.09445 28.3687 8.83196 28.0392 8.71968C27.2844 8.46243 26.6077 8.59231 25.9231 9.12571C25.398 9.53474 25.1984 9.50982 24.5634 8.95591C23.2998 7.85384 21.719 7.43239 20.2147 7.79649ZM9.99135 16.3336V18.0008H10.6582H11.3251V16.3336V14.6665H12.6588H13.9925V16.3336V18.0008H14.6594H15.3262V16.3336V14.6665H16.7961C17.7066 14.6665 18.3967 14.7051 18.6092 14.7678C19.067 14.9031 19.7576 15.5937 19.8929 16.0515C19.9673 16.3036 19.9942 17.6773 19.9942 21.2303V26.0659L18.7699 28.5977C17.582 31.0542 17.5454 31.1456 17.5434 31.6714C17.5397 32.6459 18.0169 33.2332 19.2713 33.7979C19.9815 34.1177 20.0053 34.1373 19.9597 34.3657C19.8272 35.0281 19.2119 35.7225 18.5932 35.9079C18.1189 36.0501 7.19029 36.047 6.7084 35.9046C6.25052 35.7693 5.55998 35.0788 5.4247 34.6209C5.27832 34.1254 5.27832 16.547 5.4247 16.0515C5.55015 15.6269 6.24793 14.9044 6.65705 14.7754C6.82026 14.724 7.61891 14.6797 8.47007 14.675L9.99135 14.6665V16.3336ZM32.6326 18.7607C35.7907 20.2789 38.3857 21.5311 38.3995 21.5433C38.4654 21.6021 37.8783 22.7551 37.799 22.7227C36.9122 22.3595 26.3292 17.1891 26.2252 17.0682C25.9054 16.6966 26.2083 16.0002 26.6897 16.0002C26.8003 16.0002 29.4745 17.2424 32.6326 18.7607ZM31.4767 21.1697C34.6515 22.6949 37.2492 23.9654 37.2492 23.9931C37.2492 24.061 30.7362 37.6136 30.6627 37.6986C30.6125 37.7566 19.5961 32.5244 19.1054 32.2095C18.6512 31.9181 18.6025 32.0412 21.8328 25.3199C23.492 21.8675 24.9601 18.8229 25.0951 18.5543L25.3407 18.066L25.5224 18.2313C25.6224 18.3222 28.3019 19.6445 31.4767 21.1697ZM7.99077 27.0034V34.6722H8.65763H9.32449V27.0034V19.3345H8.65763H7.99077V27.0034ZM11.9919 27.0034V34.6722H12.6588H13.3256V27.0034V19.3345H12.6588H11.9919V27.0034ZM15.9931 27.0034V34.6722H16.6599H17.3268V27.0034V19.3345H16.6599H15.9931V27.0034ZM27.5381 21.9592C26.1408 22.3381 25.0315 23.259 24.4547 24.5191C23.6269 26.3271 23.9748 28.3033 25.3705 29.7226C26.3178 30.6857 27.376 31.1229 28.7468 31.1174C30.0886 31.112 31.1154 30.6481 32.0891 29.6073C33.802 27.7761 33.7419 25.0005 31.95 23.1995C31.3037 22.5499 30.4919 22.0946 29.6804 21.9266C29.0892 21.8043 28.0513 21.82 27.5381 21.9592ZM28.5171 23.5232C28.1574 23.8398 27.793 24.2452 27.3519 24.8195L27.2046 25.0112L26.642 24.7561C26.3325 24.6158 26.0793 24.4712 26.0793 24.4348C26.0793 24.3482 26.5465 23.9135 26.9004 23.6707C27.2788 23.4111 28.0355 23.1788 28.5206 23.1734L28.9196 23.1689L28.5171 23.5232ZM29.6627 25.5495C29.6112 25.7974 29.5381 26.0193 29.5002 26.0428C29.3881 26.112 28.4967 25.6677 28.4967 25.5426C28.4967 25.4794 28.7686 25.1539 29.101 24.8193L29.7054 24.2109L29.7308 24.6549C29.7448 24.8992 29.7141 25.3017 29.6627 25.5495ZM31.7604 25.2511C31.9496 25.7426 32.0606 26.9654 31.9329 27.1517C31.8762 27.2344 31.7344 27.1995 31.2967 26.9947C30.8108 26.7673 30.7405 26.707 30.7838 26.5547C30.9507 25.9673 31.0812 25.1728 31.0842 24.7265L31.0875 24.2109L31.3353 24.5009C31.4717 24.6604 31.6629 24.998 31.7604 25.2511ZM26.0361 25.9376C26.3349 26.085 26.579 26.2444 26.5785 26.2919C26.578 26.3393 26.5215 26.5845 26.4532 26.8366C26.3848 27.0888 26.3046 27.6245 26.2748 28.0272L26.2207 28.7594L25.945 28.3717C25.4872 27.7278 25.2541 26.7941 25.3654 26.0513C25.397 25.8414 25.4384 25.6696 25.4576 25.6696C25.4769 25.6696 25.7372 25.7903 26.0361 25.9376ZM28.4192 27.0897L28.9206 27.3428L28.7313 27.6107C28.4929 27.9482 27.7477 28.6705 27.6378 28.6705C27.5861 28.6705 27.575 28.4453 27.6082 28.0662C27.6604 27.4707 27.7994 26.8366 27.8778 26.8366C27.8998 26.8366 28.1435 26.9505 28.4192 27.0897ZM30.7687 28.2228L31.3693 28.5253L30.9721 28.8849C30.7537 29.0827 30.3754 29.3422 30.1313 29.4616C29.6958 29.6746 28.6246 29.91 28.5284 29.8136C28.5014 29.7867 28.7223 29.5373 29.0193 29.2596C29.3162 28.9818 29.6858 28.5678 29.8407 28.3396C29.9954 28.1114 30.1325 27.9236 30.1451 27.9225C30.1577 27.9213 30.4383 28.0564 30.7687 28.2228ZM22.4595 31.659L22.1719 32.23L25.1708 33.6702C26.8202 34.4623 28.1825 35.0962 28.1983 35.0789C28.3418 34.9206 28.7437 33.969 28.6897 33.915C28.6006 33.8259 22.9147 31.0879 22.8188 31.0879C22.7794 31.0879 22.6177 31.3449 22.4595 31.659ZM8.45298 37.5443C8.86652 37.9578 8.57352 38.6734 7.99077 38.6734C7.64809 38.6734 7.32391 38.3492 7.32391 38.0065C7.32391 37.6639 7.64809 37.3397 7.99077 37.3397C8.15315 37.3397 8.32403 37.4153 8.45298 37.5443ZM17.789 37.5443C18.2025 37.9578 17.9095 38.6734 17.3268 38.6734C16.9841 38.6734 16.6599 38.3492 16.6599 38.0065C16.6599 37.6639 16.9841 37.3397 17.3268 37.3397C17.4892 37.3397 17.6601 37.4153 17.789 37.5443ZM25.6504 37.7965C25.6284 37.8185 25.1686 37.948 24.6289 38.0843C23.6568 38.3298 22.4326 38.5305 21.2654 38.6358L20.6611 38.6903V39.3544V40.0185L21.3488 39.964C22.5435 39.8693 23.7539 39.6745 24.7873 39.4106C25.3374 39.2701 25.8719 39.1361 25.9751 39.1129C26.2063 39.0609 26.2064 39.0296 25.9795 38.325C25.8081 37.7927 25.749 37.6978 25.6504 37.7965Z" fill="url(#paint1_radial_1199_76)"/>
<defs>
<radialGradient id="paint0_radial_1199_76" cx="0" cy="0" r="1" gradientUnits="userSpaceOnUse" gradientTransform="translate(10.5556 8.3372) rotate(51.0571) scale(33.5872 33.584)">
<stop stop-color="white" stop-opacity="0.59"/>
<stop offset="0.697917" stop-color="white" stop-opacity="0"/>
<stop offset="1" stop-color="white" stop-opacity="0"/>
</radialGradient>
<radialGradient id="paint1_radial_1199_76" cx="0" cy="0" r="1" gradientUnits="userSpaceOnUse" gradientTransform="translate(34.5205 35.0162) rotate(-93.6688) scale(34.2527 38.1585)">
<stop stop-opacity="0.23"/>
<stop offset="0.861815" stop-opacity="0"/>
</radialGradient>
</defs>
</svg>
