<svg width="42" height="37" viewBox="0 0 42 37" fill="none" xmlns="http://www.w3.org/2000/svg">
<path fill-rule="evenodd" clip-rule="evenodd" d="M16.5463 1.1558C16.1377 1.34319 15.7929 1.68093 15.5531 2.12863C15.3761 2.45917 15.3726 2.54323 15.3487 7.01091C15.3324 10.0457 15.354 11.6673 15.4138 11.8892C15.5402 12.3589 15.9786 12.8952 16.4206 13.1208C16.7731 13.3007 16.904 13.314 18.4319 13.324C19.3308 13.3299 20.6507 13.3592 21.3652 13.3892L22.6642 13.4437L24.5729 14.9732C26.5813 16.5826 26.6794 16.6362 27.1922 16.4025C27.581 16.2254 27.6507 15.9559 27.6507 14.6307V13.4208L28.8031 13.3859C30.0843 13.3471 30.3819 13.252 30.894 12.7178C31.4352 12.1532 31.4221 12.291 31.4221 7.15816C31.4221 3.44064 31.3993 2.4471 31.3091 2.2318C31.1258 1.79458 30.7458 1.40705 30.2941 1.1967L29.8716 1L23.3766 1.00101C17.2552 1.00193 16.8622 1.01081 16.5463 1.1558ZM30.2133 2.27513L30.5002 2.58823L30.4999 7.13595C30.4996 11.5496 30.4946 11.692 30.3304 11.9612C30.061 12.4031 29.759 12.4799 28.2923 12.4799C27.1947 12.4799 26.9836 12.5007 26.8858 12.6182C26.803 12.7177 26.759 13.1391 26.7289 14.1239L26.687 15.4914L24.8013 13.989L22.9156 12.4866L20.15 12.4828C18.5985 12.4807 17.2535 12.4426 17.0862 12.3962C16.9223 12.3506 16.6772 12.1976 16.5415 12.0559L16.2949 11.7986L16.2718 7.32268C16.2462 2.37075 16.2421 2.41358 16.7717 2.08908C17.0449 1.92163 17.1467 1.91945 23.4878 1.94057L29.9265 1.96211L30.2133 2.27513ZM22.5729 3.21788C21.1849 3.51984 20.0788 4.491 19.5884 5.83828C19.3307 6.54612 19.3376 7.81069 19.6029 8.49908C20.4284 10.6412 22.6814 11.6971 24.7977 10.9337C25.9287 10.5258 26.9267 9.4591 27.2665 8.29526C27.4503 7.66553 27.4384 6.58609 27.2405 5.95058C26.8006 4.53709 25.5056 3.41424 24.047 3.18167C23.3742 3.07432 23.2145 3.07825 22.5729 3.21788ZM24.0295 4.10246C26.7519 4.73043 27.4025 8.29023 25.0686 9.78795C23.5093 10.7884 21.4313 10.1782 20.592 8.47335C20.3427 7.96691 20.3178 7.84689 20.3197 7.15992C20.3215 6.50924 20.3551 6.33124 20.5606 5.88245C20.8107 5.33611 21.441 4.65668 21.9341 4.40174C22.5797 4.06785 23.3825 3.9532 24.0295 4.10246ZM23.5543 6.62926C23.2307 6.8583 23.1782 6.87288 23.1107 6.75228C22.9151 6.40272 22.3612 6.41546 22.248 6.77206C22.1451 7.0964 22.7499 7.95433 23.0815 7.95433C23.1876 7.95433 23.5519 7.75588 23.8912 7.51326C24.3709 7.17015 24.514 7.02013 24.535 6.83777C24.5955 6.3128 24.1386 6.21567 23.5543 6.62926ZM1.39022 13.2453C0.994061 13.4756 1.00001 13.3298 1.00001 22.7463C1.00001 32.2154 0.992049 32.0299 1.40648 32.2518C1.52071 32.3129 2.84159 32.3423 5.47348 32.3423H9.37136L9.60585 32.1406C9.82425 31.9527 9.84328 31.8849 9.88292 31.1522L9.92549 30.3655L15.1635 32.9188C19.9621 35.2579 20.4444 35.4752 20.9136 35.5085C21.3023 35.5362 21.5146 35.5052 21.7936 35.3797C21.9959 35.2888 25.5744 33.0921 29.7459 30.4982C33.9174 27.9043 37.9597 25.3907 38.7287 24.9125C39.5882 24.3781 40.241 23.9097 40.423 23.6972C41.0309 22.9869 41.1792 21.8222 40.7685 20.9829C40.4976 20.4291 39.8493 19.8313 39.3265 19.6532C38.4659 19.3599 38.3795 19.3812 33.0563 21.1959C30.352 22.1178 28.1093 22.872 28.0724 22.872C28.0355 22.872 27.9414 22.674 27.8633 22.4321C27.4362 21.1087 26.3712 20.0195 25.0289 19.5334C24.4574 19.3264 24.321 19.3127 22.5453 19.2842L20.6665 19.2541L18.622 17.5053C17.0489 16.1596 16.4677 15.7124 16.101 15.565C15.6426 15.3809 15.5153 15.3725 12.7615 15.3466L9.89859 15.3194L9.8701 14.437C9.84286 13.5899 9.8323 13.5465 9.60652 13.3525L9.37136 13.1504L5.45806 13.1529C2.83112 13.1547 1.49397 13.185 1.39022 13.2453ZM8.96171 22.7463V31.4204H5.4418H1.92189V22.7463V14.0723H5.4418H8.96171V22.7463ZM15.894 16.482C16.0884 16.5859 17.0689 17.3783 18.073 18.243C19.0771 19.1078 20.0074 19.8996 20.1404 20.0027C20.3738 20.1837 20.4455 20.1902 22.2071 20.1902C23.7592 20.1902 24.108 20.2138 24.5394 20.3481C25.5882 20.6745 26.3677 21.3535 26.838 22.3505C27.0798 22.8629 27.1066 23.0022 27.1344 23.8875C27.1797 25.3344 27.4701 25.2186 23.7959 25.2186C20.548 25.2186 20.5062 25.2245 20.5062 25.6796C20.5062 26.1466 20.5331 26.1502 23.9213 26.1233C27.38 26.0958 27.3309 26.1037 27.7906 25.5008C27.9865 25.244 28.03 25.0903 28.0674 24.5233L28.1117 23.8504L29.1593 23.4938C31.0441 22.8523 36.8131 20.8787 37.4499 20.6576C37.7922 20.5388 38.2556 20.4416 38.4799 20.4416C39.815 20.4416 40.5504 21.9079 39.7788 23.0314C39.6298 23.2483 37.4108 24.6659 30.4978 28.9607C22.2827 34.0645 21.3794 34.6051 21.0648 34.6051C20.7892 34.6051 20.2497 34.3771 18.464 33.5059C17.2249 32.9014 15.8339 32.2268 15.373 32.0068C14.912 31.7868 13.4883 31.0957 12.2092 30.4711L9.88359 29.3354V22.7892V16.243L12.7121 16.2681C15.4618 16.2925 15.5504 16.2984 15.894 16.482ZM4.22626 27.9311C4.07591 28.1606 4.16441 28.5131 4.39463 28.6014C4.47106 28.6308 4.96427 28.6548 5.49058 28.6548C6.33577 28.6548 6.4671 28.6351 6.6151 28.4871C6.81683 28.2854 6.82471 28.1653 6.65223 27.9192C6.52887 27.743 6.46291 27.7329 5.43895 27.7329C4.39295 27.7329 4.35172 27.7396 4.22626 27.9311Z" fill="#0066FF"/>
<path fill-rule="evenodd" clip-rule="evenodd" d="M16.5463 1.1558C16.1377 1.34319 15.7929 1.68093 15.5531 2.12863C15.3761 2.45917 15.3726 2.54323 15.3487 7.01091C15.3324 10.0457 15.354 11.6673 15.4138 11.8892C15.5402 12.3589 15.9786 12.8952 16.4206 13.1208C16.7731 13.3007 16.904 13.314 18.4319 13.324C19.3308 13.3299 20.6507 13.3592 21.3652 13.3892L22.6642 13.4437L24.5729 14.9732C26.5813 16.5826 26.6794 16.6362 27.1922 16.4025C27.581 16.2254 27.6507 15.9559 27.6507 14.6307V13.4208L28.8031 13.3859C30.0843 13.3471 30.3819 13.252 30.894 12.7178C31.4352 12.1532 31.4221 12.291 31.4221 7.15816C31.4221 3.44064 31.3993 2.4471 31.3091 2.2318C31.1258 1.79458 30.7458 1.40705 30.2941 1.1967L29.8716 1L23.3766 1.00101C17.2552 1.00193 16.8622 1.01081 16.5463 1.1558ZM30.2133 2.27513L30.5002 2.58823L30.4999 7.13595C30.4996 11.5496 30.4946 11.692 30.3304 11.9612C30.061 12.4031 29.759 12.4799 28.2923 12.4799C27.1947 12.4799 26.9836 12.5007 26.8858 12.6182C26.803 12.7177 26.759 13.1391 26.7289 14.1239L26.687 15.4914L24.8013 13.989L22.9156 12.4866L20.15 12.4828C18.5985 12.4807 17.2535 12.4426 17.0862 12.3962C16.9223 12.3506 16.6772 12.1976 16.5415 12.0559L16.2949 11.7986L16.2718 7.32268C16.2462 2.37075 16.2421 2.41358 16.7717 2.08908C17.0449 1.92163 17.1467 1.91945 23.4878 1.94057L29.9265 1.96211L30.2133 2.27513ZM22.5729 3.21788C21.1849 3.51984 20.0788 4.491 19.5884 5.83828C19.3307 6.54612 19.3376 7.81069 19.6029 8.49908C20.4284 10.6412 22.6814 11.6971 24.7977 10.9337C25.9287 10.5258 26.9267 9.4591 27.2665 8.29526C27.4503 7.66553 27.4384 6.58609 27.2405 5.95058C26.8006 4.53709 25.5056 3.41424 24.047 3.18167C23.3742 3.07432 23.2145 3.07825 22.5729 3.21788ZM24.0295 4.10246C26.7519 4.73043 27.4025 8.29023 25.0686 9.78795C23.5093 10.7884 21.4313 10.1782 20.592 8.47335C20.3427 7.96691 20.3178 7.84689 20.3197 7.15992C20.3215 6.50924 20.3551 6.33124 20.5606 5.88245C20.8107 5.33611 21.441 4.65668 21.9341 4.40174C22.5797 4.06785 23.3825 3.9532 24.0295 4.10246ZM23.5543 6.62926C23.2307 6.8583 23.1782 6.87288 23.1107 6.75228C22.9151 6.40272 22.3612 6.41546 22.248 6.77206C22.1451 7.0964 22.7499 7.95433 23.0815 7.95433C23.1876 7.95433 23.5519 7.75588 23.8912 7.51326C24.3709 7.17015 24.514 7.02013 24.535 6.83777C24.5955 6.3128 24.1386 6.21567 23.5543 6.62926ZM1.39022 13.2453C0.994061 13.4756 1.00001 13.3298 1.00001 22.7463C1.00001 32.2154 0.992049 32.0299 1.40648 32.2518C1.52071 32.3129 2.84159 32.3423 5.47348 32.3423H9.37136L9.60585 32.1406C9.82425 31.9527 9.84328 31.8849 9.88292 31.1522L9.92549 30.3655L15.1635 32.9188C19.9621 35.2579 20.4444 35.4752 20.9136 35.5085C21.3023 35.5362 21.5146 35.5052 21.7936 35.3797C21.9959 35.2888 25.5744 33.0921 29.7459 30.4982C33.9174 27.9043 37.9597 25.3907 38.7287 24.9125C39.5882 24.3781 40.241 23.9097 40.423 23.6972C41.0309 22.9869 41.1792 21.8222 40.7685 20.9829C40.4976 20.4291 39.8493 19.8313 39.3265 19.6532C38.4659 19.3599 38.3795 19.3812 33.0563 21.1959C30.352 22.1178 28.1093 22.872 28.0724 22.872C28.0355 22.872 27.9414 22.674 27.8633 22.4321C27.4362 21.1087 26.3712 20.0195 25.0289 19.5334C24.4574 19.3264 24.321 19.3127 22.5453 19.2842L20.6665 19.2541L18.622 17.5053C17.0489 16.1596 16.4677 15.7124 16.101 15.565C15.6426 15.3809 15.5153 15.3725 12.7615 15.3466L9.89859 15.3194L9.8701 14.437C9.84286 13.5899 9.8323 13.5465 9.60652 13.3525L9.37136 13.1504L5.45806 13.1529C2.83112 13.1547 1.49397 13.185 1.39022 13.2453ZM8.96171 22.7463V31.4204H5.4418H1.92189V22.7463V14.0723H5.4418H8.96171V22.7463ZM15.894 16.482C16.0884 16.5859 17.0689 17.3783 18.073 18.243C19.0771 19.1078 20.0074 19.8996 20.1404 20.0027C20.3738 20.1837 20.4455 20.1902 22.2071 20.1902C23.7592 20.1902 24.108 20.2138 24.5394 20.3481C25.5882 20.6745 26.3677 21.3535 26.838 22.3505C27.0798 22.8629 27.1066 23.0022 27.1344 23.8875C27.1797 25.3344 27.4701 25.2186 23.7959 25.2186C20.548 25.2186 20.5062 25.2245 20.5062 25.6796C20.5062 26.1466 20.5331 26.1502 23.9213 26.1233C27.38 26.0958 27.3309 26.1037 27.7906 25.5008C27.9865 25.244 28.03 25.0903 28.0674 24.5233L28.1117 23.8504L29.1593 23.4938C31.0441 22.8523 36.8131 20.8787 37.4499 20.6576C37.7922 20.5388 38.2556 20.4416 38.4799 20.4416C39.815 20.4416 40.5504 21.9079 39.7788 23.0314C39.6298 23.2483 37.4108 24.6659 30.4978 28.9607C22.2827 34.0645 21.3794 34.6051 21.0648 34.6051C20.7892 34.6051 20.2497 34.3771 18.464 33.5059C17.2249 32.9014 15.8339 32.2268 15.373 32.0068C14.912 31.7868 13.4883 31.0957 12.2092 30.4711L9.88359 29.3354V22.7892V16.243L12.7121 16.2681C15.4618 16.2925 15.5504 16.2984 15.894 16.482ZM4.22626 27.9311C4.07591 28.1606 4.16441 28.5131 4.39463 28.6014C4.47106 28.6308 4.96427 28.6548 5.49058 28.6548C6.33577 28.6548 6.4671 28.6351 6.6151 28.4871C6.81683 28.2854 6.82471 28.1653 6.65223 27.9192C6.52887 27.743 6.46291 27.7329 5.43895 27.7329C4.39295 27.7329 4.35172 27.7396 4.22626 27.9311Z" fill="url(#paint0_radial_1197_54)" fill-opacity="0.7"/>
<path fill-rule="evenodd" clip-rule="evenodd" d="M16.5463 1.1558C16.1377 1.34319 15.7929 1.68093 15.5531 2.12863C15.3761 2.45917 15.3726 2.54323 15.3487 7.01091C15.3324 10.0457 15.354 11.6673 15.4138 11.8892C15.5402 12.3589 15.9786 12.8952 16.4206 13.1208C16.7731 13.3007 16.904 13.314 18.4319 13.324C19.3308 13.3299 20.6507 13.3592 21.3652 13.3892L22.6642 13.4437L24.5729 14.9732C26.5813 16.5826 26.6794 16.6362 27.1922 16.4025C27.581 16.2254 27.6507 15.9559 27.6507 14.6307V13.4208L28.8031 13.3859C30.0843 13.3471 30.3819 13.252 30.894 12.7178C31.4352 12.1532 31.4221 12.291 31.4221 7.15816C31.4221 3.44064 31.3993 2.4471 31.3091 2.2318C31.1258 1.79458 30.7458 1.40705 30.2941 1.1967L29.8716 1L23.3766 1.00101C17.2552 1.00193 16.8622 1.01081 16.5463 1.1558ZM30.2133 2.27513L30.5002 2.58823L30.4999 7.13595C30.4996 11.5496 30.4946 11.692 30.3304 11.9612C30.061 12.4031 29.759 12.4799 28.2923 12.4799C27.1947 12.4799 26.9836 12.5007 26.8858 12.6182C26.803 12.7177 26.759 13.1391 26.7289 14.1239L26.687 15.4914L24.8013 13.989L22.9156 12.4866L20.15 12.4828C18.5985 12.4807 17.2535 12.4426 17.0862 12.3962C16.9223 12.3506 16.6772 12.1976 16.5415 12.0559L16.2949 11.7986L16.2718 7.32268C16.2462 2.37075 16.2421 2.41358 16.7717 2.08908C17.0449 1.92163 17.1467 1.91945 23.4878 1.94057L29.9265 1.96211L30.2133 2.27513ZM22.5729 3.21788C21.1849 3.51984 20.0788 4.491 19.5884 5.83828C19.3307 6.54612 19.3376 7.81069 19.6029 8.49908C20.4284 10.6412 22.6814 11.6971 24.7977 10.9337C25.9287 10.5258 26.9267 9.4591 27.2665 8.29526C27.4503 7.66553 27.4384 6.58609 27.2405 5.95058C26.8006 4.53709 25.5056 3.41424 24.047 3.18167C23.3742 3.07432 23.2145 3.07825 22.5729 3.21788ZM24.0295 4.10246C26.7519 4.73043 27.4025 8.29023 25.0686 9.78795C23.5093 10.7884 21.4313 10.1782 20.592 8.47335C20.3427 7.96691 20.3178 7.84689 20.3197 7.15992C20.3215 6.50924 20.3551 6.33124 20.5606 5.88245C20.8107 5.33611 21.441 4.65668 21.9341 4.40174C22.5797 4.06785 23.3825 3.9532 24.0295 4.10246ZM23.5543 6.62926C23.2307 6.8583 23.1782 6.87288 23.1107 6.75228C22.9151 6.40272 22.3612 6.41546 22.248 6.77206C22.1451 7.0964 22.7499 7.95433 23.0815 7.95433C23.1876 7.95433 23.5519 7.75588 23.8912 7.51326C24.3709 7.17015 24.514 7.02013 24.535 6.83777C24.5955 6.3128 24.1386 6.21567 23.5543 6.62926ZM1.39022 13.2453C0.994061 13.4756 1.00001 13.3298 1.00001 22.7463C1.00001 32.2154 0.992049 32.0299 1.40648 32.2518C1.52071 32.3129 2.84159 32.3423 5.47348 32.3423H9.37136L9.60585 32.1406C9.82425 31.9527 9.84328 31.8849 9.88292 31.1522L9.92549 30.3655L15.1635 32.9188C19.9621 35.2579 20.4444 35.4752 20.9136 35.5085C21.3023 35.5362 21.5146 35.5052 21.7936 35.3797C21.9959 35.2888 25.5744 33.0921 29.7459 30.4982C33.9174 27.9043 37.9597 25.3907 38.7287 24.9125C39.5882 24.3781 40.241 23.9097 40.423 23.6972C41.0309 22.9869 41.1792 21.8222 40.7685 20.9829C40.4976 20.4291 39.8493 19.8313 39.3265 19.6532C38.4659 19.3599 38.3795 19.3812 33.0563 21.1959C30.352 22.1178 28.1093 22.872 28.0724 22.872C28.0355 22.872 27.9414 22.674 27.8633 22.4321C27.4362 21.1087 26.3712 20.0195 25.0289 19.5334C24.4574 19.3264 24.321 19.3127 22.5453 19.2842L20.6665 19.2541L18.622 17.5053C17.0489 16.1596 16.4677 15.7124 16.101 15.565C15.6426 15.3809 15.5153 15.3725 12.7615 15.3466L9.89859 15.3194L9.8701 14.437C9.84286 13.5899 9.8323 13.5465 9.60652 13.3525L9.37136 13.1504L5.45806 13.1529C2.83112 13.1547 1.49397 13.185 1.39022 13.2453ZM8.96171 22.7463V31.4204H5.4418H1.92189V22.7463V14.0723H5.4418H8.96171V22.7463ZM15.894 16.482C16.0884 16.5859 17.0689 17.3783 18.073 18.243C19.0771 19.1078 20.0074 19.8996 20.1404 20.0027C20.3738 20.1837 20.4455 20.1902 22.2071 20.1902C23.7592 20.1902 24.108 20.2138 24.5394 20.3481C25.5882 20.6745 26.3677 21.3535 26.838 22.3505C27.0798 22.8629 27.1066 23.0022 27.1344 23.8875C27.1797 25.3344 27.4701 25.2186 23.7959 25.2186C20.548 25.2186 20.5062 25.2245 20.5062 25.6796C20.5062 26.1466 20.5331 26.1502 23.9213 26.1233C27.38 26.0958 27.3309 26.1037 27.7906 25.5008C27.9865 25.244 28.03 25.0903 28.0674 24.5233L28.1117 23.8504L29.1593 23.4938C31.0441 22.8523 36.8131 20.8787 37.4499 20.6576C37.7922 20.5388 38.2556 20.4416 38.4799 20.4416C39.815 20.4416 40.5504 21.9079 39.7788 23.0314C39.6298 23.2483 37.4108 24.6659 30.4978 28.9607C22.2827 34.0645 21.3794 34.6051 21.0648 34.6051C20.7892 34.6051 20.2497 34.3771 18.464 33.5059C17.2249 32.9014 15.8339 32.2268 15.373 32.0068C14.912 31.7868 13.4883 31.0957 12.2092 30.4711L9.88359 29.3354V22.7892V16.243L12.7121 16.2681C15.4618 16.2925 15.5504 16.2984 15.894 16.482ZM4.22626 27.9311C4.07591 28.1606 4.16441 28.5131 4.39463 28.6014C4.47106 28.6308 4.96427 28.6548 5.49058 28.6548C6.33577 28.6548 6.4671 28.6351 6.6151 28.4871C6.81683 28.2854 6.82471 28.1653 6.65223 27.9192C6.52887 27.743 6.46291 27.7329 5.43895 27.7329C4.39295 27.7329 4.35172 27.7396 4.22626 27.9311Z" fill="url(#paint1_radial_1197_54)"/>
<path fill-rule="evenodd" clip-rule="evenodd" d="M16.5463 1.1558C16.1377 1.34319 15.7929 1.68093 15.5531 2.12863C15.3761 2.45917 15.3726 2.54323 15.3487 7.01091C15.3324 10.0457 15.354 11.6673 15.4138 11.8892C15.5402 12.3589 15.9786 12.8952 16.4206 13.1208C16.7731 13.3007 16.904 13.314 18.4319 13.324C19.3308 13.3299 20.6507 13.3592 21.3652 13.3892L22.6642 13.4437L24.5729 14.9732C26.5813 16.5826 26.6794 16.6362 27.1922 16.4025C27.581 16.2254 27.6507 15.9559 27.6507 14.6307V13.4208L28.8031 13.3859C30.0843 13.3471 30.3819 13.252 30.894 12.7178C31.4352 12.1532 31.4221 12.291 31.4221 7.15816C31.4221 3.44064 31.3993 2.4471 31.3091 2.2318C31.1258 1.79458 30.7458 1.40705 30.2941 1.1967L29.8716 1L23.3766 1.00101C17.2552 1.00193 16.8622 1.01081 16.5463 1.1558ZM30.2133 2.27513L30.5002 2.58823L30.4999 7.13595C30.4996 11.5496 30.4946 11.692 30.3304 11.9612C30.061 12.4031 29.759 12.4799 28.2923 12.4799C27.1947 12.4799 26.9836 12.5007 26.8858 12.6182C26.803 12.7177 26.759 13.1391 26.7289 14.1239L26.687 15.4914L24.8013 13.989L22.9156 12.4866L20.15 12.4828C18.5985 12.4807 17.2535 12.4426 17.0862 12.3962C16.9223 12.3506 16.6772 12.1976 16.5415 12.0559L16.2949 11.7986L16.2718 7.32268C16.2462 2.37075 16.2421 2.41358 16.7717 2.08908C17.0449 1.92163 17.1467 1.91945 23.4878 1.94057L29.9265 1.96211L30.2133 2.27513ZM22.5729 3.21788C21.1849 3.51984 20.0788 4.491 19.5884 5.83828C19.3307 6.54612 19.3376 7.81069 19.6029 8.49908C20.4284 10.6412 22.6814 11.6971 24.7977 10.9337C25.9287 10.5258 26.9267 9.4591 27.2665 8.29526C27.4503 7.66553 27.4384 6.58609 27.2405 5.95058C26.8006 4.53709 25.5056 3.41424 24.047 3.18167C23.3742 3.07432 23.2145 3.07825 22.5729 3.21788ZM24.0295 4.10246C26.7519 4.73043 27.4025 8.29023 25.0686 9.78795C23.5093 10.7884 21.4313 10.1782 20.592 8.47335C20.3427 7.96691 20.3178 7.84689 20.3197 7.15992C20.3215 6.50924 20.3551 6.33124 20.5606 5.88245C20.8107 5.33611 21.441 4.65668 21.9341 4.40174C22.5797 4.06785 23.3825 3.9532 24.0295 4.10246ZM23.5543 6.62926C23.2307 6.8583 23.1782 6.87288 23.1107 6.75228C22.9151 6.40272 22.3612 6.41546 22.248 6.77206C22.1451 7.0964 22.7499 7.95433 23.0815 7.95433C23.1876 7.95433 23.5519 7.75588 23.8912 7.51326C24.3709 7.17015 24.514 7.02013 24.535 6.83777C24.5955 6.3128 24.1386 6.21567 23.5543 6.62926ZM1.39022 13.2453C0.994061 13.4756 1.00001 13.3298 1.00001 22.7463C1.00001 32.2154 0.992049 32.0299 1.40648 32.2518C1.52071 32.3129 2.84159 32.3423 5.47348 32.3423H9.37136L9.60585 32.1406C9.82425 31.9527 9.84328 31.8849 9.88292 31.1522L9.92549 30.3655L15.1635 32.9188C19.9621 35.2579 20.4444 35.4752 20.9136 35.5085C21.3023 35.5362 21.5146 35.5052 21.7936 35.3797C21.9959 35.2888 25.5744 33.0921 29.7459 30.4982C33.9174 27.9043 37.9597 25.3907 38.7287 24.9125C39.5882 24.3781 40.241 23.9097 40.423 23.6972C41.0309 22.9869 41.1792 21.8222 40.7685 20.9829C40.4976 20.4291 39.8493 19.8313 39.3265 19.6532C38.4659 19.3599 38.3795 19.3812 33.0563 21.1959C30.352 22.1178 28.1093 22.872 28.0724 22.872C28.0355 22.872 27.9414 22.674 27.8633 22.4321C27.4362 21.1087 26.3712 20.0195 25.0289 19.5334C24.4574 19.3264 24.321 19.3127 22.5453 19.2842L20.6665 19.2541L18.622 17.5053C17.0489 16.1596 16.4677 15.7124 16.101 15.565C15.6426 15.3809 15.5153 15.3725 12.7615 15.3466L9.89859 15.3194L9.8701 14.437C9.84286 13.5899 9.8323 13.5465 9.60652 13.3525L9.37136 13.1504L5.45806 13.1529C2.83112 13.1547 1.49397 13.185 1.39022 13.2453ZM8.96171 22.7463V31.4204H5.4418H1.92189V22.7463V14.0723H5.4418H8.96171V22.7463ZM15.894 16.482C16.0884 16.5859 17.0689 17.3783 18.073 18.243C19.0771 19.1078 20.0074 19.8996 20.1404 20.0027C20.3738 20.1837 20.4455 20.1902 22.2071 20.1902C23.7592 20.1902 24.108 20.2138 24.5394 20.3481C25.5882 20.6745 26.3677 21.3535 26.838 22.3505C27.0798 22.8629 27.1066 23.0022 27.1344 23.8875C27.1797 25.3344 27.4701 25.2186 23.7959 25.2186C20.548 25.2186 20.5062 25.2245 20.5062 25.6796C20.5062 26.1466 20.5331 26.1502 23.9213 26.1233C27.38 26.0958 27.3309 26.1037 27.7906 25.5008C27.9865 25.244 28.03 25.0903 28.0674 24.5233L28.1117 23.8504L29.1593 23.4938C31.0441 22.8523 36.8131 20.8787 37.4499 20.6576C37.7922 20.5388 38.2556 20.4416 38.4799 20.4416C39.815 20.4416 40.5504 21.9079 39.7788 23.0314C39.6298 23.2483 37.4108 24.6659 30.4978 28.9607C22.2827 34.0645 21.3794 34.6051 21.0648 34.6051C20.7892 34.6051 20.2497 34.3771 18.464 33.5059C17.2249 32.9014 15.8339 32.2268 15.373 32.0068C14.912 31.7868 13.4883 31.0957 12.2092 30.4711L9.88359 29.3354V22.7892V16.243L12.7121 16.2681C15.4618 16.2925 15.5504 16.2984 15.894 16.482ZM4.22626 27.9311C4.07591 28.1606 4.16441 28.5131 4.39463 28.6014C4.47106 28.6308 4.96427 28.6548 5.49058 28.6548C6.33577 28.6548 6.4671 28.6351 6.6151 28.4871C6.81683 28.2854 6.82471 28.1653 6.65223 27.9192C6.52887 27.743 6.46291 27.7329 5.43895 27.7329C4.39295 27.7329 4.35172 27.7396 4.22626 27.9311Z" stroke="#0066FF"/>
<path fill-rule="evenodd" clip-rule="evenodd" d="M16.5463 1.1558C16.1377 1.34319 15.7929 1.68093 15.5531 2.12863C15.3761 2.45917 15.3726 2.54323 15.3487 7.01091C15.3324 10.0457 15.354 11.6673 15.4138 11.8892C15.5402 12.3589 15.9786 12.8952 16.4206 13.1208C16.7731 13.3007 16.904 13.314 18.4319 13.324C19.3308 13.3299 20.6507 13.3592 21.3652 13.3892L22.6642 13.4437L24.5729 14.9732C26.5813 16.5826 26.6794 16.6362 27.1922 16.4025C27.581 16.2254 27.6507 15.9559 27.6507 14.6307V13.4208L28.8031 13.3859C30.0843 13.3471 30.3819 13.252 30.894 12.7178C31.4352 12.1532 31.4221 12.291 31.4221 7.15816C31.4221 3.44064 31.3993 2.4471 31.3091 2.2318C31.1258 1.79458 30.7458 1.40705 30.2941 1.1967L29.8716 1L23.3766 1.00101C17.2552 1.00193 16.8622 1.01081 16.5463 1.1558ZM30.2133 2.27513L30.5002 2.58823L30.4999 7.13595C30.4996 11.5496 30.4946 11.692 30.3304 11.9612C30.061 12.4031 29.759 12.4799 28.2923 12.4799C27.1947 12.4799 26.9836 12.5007 26.8858 12.6182C26.803 12.7177 26.759 13.1391 26.7289 14.1239L26.687 15.4914L24.8013 13.989L22.9156 12.4866L20.15 12.4828C18.5985 12.4807 17.2535 12.4426 17.0862 12.3962C16.9223 12.3506 16.6772 12.1976 16.5415 12.0559L16.2949 11.7986L16.2718 7.32268C16.2462 2.37075 16.2421 2.41358 16.7717 2.08908C17.0449 1.92163 17.1467 1.91945 23.4878 1.94057L29.9265 1.96211L30.2133 2.27513ZM22.5729 3.21788C21.1849 3.51984 20.0788 4.491 19.5884 5.83828C19.3307 6.54612 19.3376 7.81069 19.6029 8.49908C20.4284 10.6412 22.6814 11.6971 24.7977 10.9337C25.9287 10.5258 26.9267 9.4591 27.2665 8.29526C27.4503 7.66553 27.4384 6.58609 27.2405 5.95058C26.8006 4.53709 25.5056 3.41424 24.047 3.18167C23.3742 3.07432 23.2145 3.07825 22.5729 3.21788ZM24.0295 4.10246C26.7519 4.73043 27.4025 8.29023 25.0686 9.78795C23.5093 10.7884 21.4313 10.1782 20.592 8.47335C20.3427 7.96691 20.3178 7.84689 20.3197 7.15992C20.3215 6.50924 20.3551 6.33124 20.5606 5.88245C20.8107 5.33611 21.441 4.65668 21.9341 4.40174C22.5797 4.06785 23.3825 3.9532 24.0295 4.10246ZM23.5543 6.62926C23.2307 6.8583 23.1782 6.87288 23.1107 6.75228C22.9151 6.40272 22.3612 6.41546 22.248 6.77206C22.1451 7.0964 22.7499 7.95433 23.0815 7.95433C23.1876 7.95433 23.5519 7.75588 23.8912 7.51326C24.3709 7.17015 24.514 7.02013 24.535 6.83777C24.5955 6.3128 24.1386 6.21567 23.5543 6.62926ZM1.39022 13.2453C0.994061 13.4756 1.00001 13.3298 1.00001 22.7463C1.00001 32.2154 0.992049 32.0299 1.40648 32.2518C1.52071 32.3129 2.84159 32.3423 5.47348 32.3423H9.37136L9.60585 32.1406C9.82425 31.9527 9.84328 31.8849 9.88292 31.1522L9.92549 30.3655L15.1635 32.9188C19.9621 35.2579 20.4444 35.4752 20.9136 35.5085C21.3023 35.5362 21.5146 35.5052 21.7936 35.3797C21.9959 35.2888 25.5744 33.0921 29.7459 30.4982C33.9174 27.9043 37.9597 25.3907 38.7287 24.9125C39.5882 24.3781 40.241 23.9097 40.423 23.6972C41.0309 22.9869 41.1792 21.8222 40.7685 20.9829C40.4976 20.4291 39.8493 19.8313 39.3265 19.6532C38.4659 19.3599 38.3795 19.3812 33.0563 21.1959C30.352 22.1178 28.1093 22.872 28.0724 22.872C28.0355 22.872 27.9414 22.674 27.8633 22.4321C27.4362 21.1087 26.3712 20.0195 25.0289 19.5334C24.4574 19.3264 24.321 19.3127 22.5453 19.2842L20.6665 19.2541L18.622 17.5053C17.0489 16.1596 16.4677 15.7124 16.101 15.565C15.6426 15.3809 15.5153 15.3725 12.7615 15.3466L9.89859 15.3194L9.8701 14.437C9.84286 13.5899 9.8323 13.5465 9.60652 13.3525L9.37136 13.1504L5.45806 13.1529C2.83112 13.1547 1.49397 13.185 1.39022 13.2453ZM8.96171 22.7463V31.4204H5.4418H1.92189V22.7463V14.0723H5.4418H8.96171V22.7463ZM15.894 16.482C16.0884 16.5859 17.0689 17.3783 18.073 18.243C19.0771 19.1078 20.0074 19.8996 20.1404 20.0027C20.3738 20.1837 20.4455 20.1902 22.2071 20.1902C23.7592 20.1902 24.108 20.2138 24.5394 20.3481C25.5882 20.6745 26.3677 21.3535 26.838 22.3505C27.0798 22.8629 27.1066 23.0022 27.1344 23.8875C27.1797 25.3344 27.4701 25.2186 23.7959 25.2186C20.548 25.2186 20.5062 25.2245 20.5062 25.6796C20.5062 26.1466 20.5331 26.1502 23.9213 26.1233C27.38 26.0958 27.3309 26.1037 27.7906 25.5008C27.9865 25.244 28.03 25.0903 28.0674 24.5233L28.1117 23.8504L29.1593 23.4938C31.0441 22.8523 36.8131 20.8787 37.4499 20.6576C37.7922 20.5388 38.2556 20.4416 38.4799 20.4416C39.815 20.4416 40.5504 21.9079 39.7788 23.0314C39.6298 23.2483 37.4108 24.6659 30.4978 28.9607C22.2827 34.0645 21.3794 34.6051 21.0648 34.6051C20.7892 34.6051 20.2497 34.3771 18.464 33.5059C17.2249 32.9014 15.8339 32.2268 15.373 32.0068C14.912 31.7868 13.4883 31.0957 12.2092 30.4711L9.88359 29.3354V22.7892V16.243L12.7121 16.2681C15.4618 16.2925 15.5504 16.2984 15.894 16.482ZM4.22626 27.9311C4.07591 28.1606 4.16441 28.5131 4.39463 28.6014C4.47106 28.6308 4.96427 28.6548 5.49058 28.6548C6.33577 28.6548 6.4671 28.6351 6.6151 28.4871C6.81683 28.2854 6.82471 28.1653 6.65223 27.9192C6.52887 27.743 6.46291 27.7329 5.43895 27.7329C4.39295 27.7329 4.35172 27.7396 4.22626 27.9311Z" stroke="url(#paint2_radial_1197_54)" stroke-opacity="0.7"/>
<path fill-rule="evenodd" clip-rule="evenodd" d="M16.5463 1.1558C16.1377 1.34319 15.7929 1.68093 15.5531 2.12863C15.3761 2.45917 15.3726 2.54323 15.3487 7.01091C15.3324 10.0457 15.354 11.6673 15.4138 11.8892C15.5402 12.3589 15.9786 12.8952 16.4206 13.1208C16.7731 13.3007 16.904 13.314 18.4319 13.324C19.3308 13.3299 20.6507 13.3592 21.3652 13.3892L22.6642 13.4437L24.5729 14.9732C26.5813 16.5826 26.6794 16.6362 27.1922 16.4025C27.581 16.2254 27.6507 15.9559 27.6507 14.6307V13.4208L28.8031 13.3859C30.0843 13.3471 30.3819 13.252 30.894 12.7178C31.4352 12.1532 31.4221 12.291 31.4221 7.15816C31.4221 3.44064 31.3993 2.4471 31.3091 2.2318C31.1258 1.79458 30.7458 1.40705 30.2941 1.1967L29.8716 1L23.3766 1.00101C17.2552 1.00193 16.8622 1.01081 16.5463 1.1558ZM30.2133 2.27513L30.5002 2.58823L30.4999 7.13595C30.4996 11.5496 30.4946 11.692 30.3304 11.9612C30.061 12.4031 29.759 12.4799 28.2923 12.4799C27.1947 12.4799 26.9836 12.5007 26.8858 12.6182C26.803 12.7177 26.759 13.1391 26.7289 14.1239L26.687 15.4914L24.8013 13.989L22.9156 12.4866L20.15 12.4828C18.5985 12.4807 17.2535 12.4426 17.0862 12.3962C16.9223 12.3506 16.6772 12.1976 16.5415 12.0559L16.2949 11.7986L16.2718 7.32268C16.2462 2.37075 16.2421 2.41358 16.7717 2.08908C17.0449 1.92163 17.1467 1.91945 23.4878 1.94057L29.9265 1.96211L30.2133 2.27513ZM22.5729 3.21788C21.1849 3.51984 20.0788 4.491 19.5884 5.83828C19.3307 6.54612 19.3376 7.81069 19.6029 8.49908C20.4284 10.6412 22.6814 11.6971 24.7977 10.9337C25.9287 10.5258 26.9267 9.4591 27.2665 8.29526C27.4503 7.66553 27.4384 6.58609 27.2405 5.95058C26.8006 4.53709 25.5056 3.41424 24.047 3.18167C23.3742 3.07432 23.2145 3.07825 22.5729 3.21788ZM24.0295 4.10246C26.7519 4.73043 27.4025 8.29023 25.0686 9.78795C23.5093 10.7884 21.4313 10.1782 20.592 8.47335C20.3427 7.96691 20.3178 7.84689 20.3197 7.15992C20.3215 6.50924 20.3551 6.33124 20.5606 5.88245C20.8107 5.33611 21.441 4.65668 21.9341 4.40174C22.5797 4.06785 23.3825 3.9532 24.0295 4.10246ZM23.5543 6.62926C23.2307 6.8583 23.1782 6.87288 23.1107 6.75228C22.9151 6.40272 22.3612 6.41546 22.248 6.77206C22.1451 7.0964 22.7499 7.95433 23.0815 7.95433C23.1876 7.95433 23.5519 7.75588 23.8912 7.51326C24.3709 7.17015 24.514 7.02013 24.535 6.83777C24.5955 6.3128 24.1386 6.21567 23.5543 6.62926ZM1.39022 13.2453C0.994061 13.4756 1.00001 13.3298 1.00001 22.7463C1.00001 32.2154 0.992049 32.0299 1.40648 32.2518C1.52071 32.3129 2.84159 32.3423 5.47348 32.3423H9.37136L9.60585 32.1406C9.82425 31.9527 9.84328 31.8849 9.88292 31.1522L9.92549 30.3655L15.1635 32.9188C19.9621 35.2579 20.4444 35.4752 20.9136 35.5085C21.3023 35.5362 21.5146 35.5052 21.7936 35.3797C21.9959 35.2888 25.5744 33.0921 29.7459 30.4982C33.9174 27.9043 37.9597 25.3907 38.7287 24.9125C39.5882 24.3781 40.241 23.9097 40.423 23.6972C41.0309 22.9869 41.1792 21.8222 40.7685 20.9829C40.4976 20.4291 39.8493 19.8313 39.3265 19.6532C38.4659 19.3599 38.3795 19.3812 33.0563 21.1959C30.352 22.1178 28.1093 22.872 28.0724 22.872C28.0355 22.872 27.9414 22.674 27.8633 22.4321C27.4362 21.1087 26.3712 20.0195 25.0289 19.5334C24.4574 19.3264 24.321 19.3127 22.5453 19.2842L20.6665 19.2541L18.622 17.5053C17.0489 16.1596 16.4677 15.7124 16.101 15.565C15.6426 15.3809 15.5153 15.3725 12.7615 15.3466L9.89859 15.3194L9.8701 14.437C9.84286 13.5899 9.8323 13.5465 9.60652 13.3525L9.37136 13.1504L5.45806 13.1529C2.83112 13.1547 1.49397 13.185 1.39022 13.2453ZM8.96171 22.7463V31.4204H5.4418H1.92189V22.7463V14.0723H5.4418H8.96171V22.7463ZM15.894 16.482C16.0884 16.5859 17.0689 17.3783 18.073 18.243C19.0771 19.1078 20.0074 19.8996 20.1404 20.0027C20.3738 20.1837 20.4455 20.1902 22.2071 20.1902C23.7592 20.1902 24.108 20.2138 24.5394 20.3481C25.5882 20.6745 26.3677 21.3535 26.838 22.3505C27.0798 22.8629 27.1066 23.0022 27.1344 23.8875C27.1797 25.3344 27.4701 25.2186 23.7959 25.2186C20.548 25.2186 20.5062 25.2245 20.5062 25.6796C20.5062 26.1466 20.5331 26.1502 23.9213 26.1233C27.38 26.0958 27.3309 26.1037 27.7906 25.5008C27.9865 25.244 28.03 25.0903 28.0674 24.5233L28.1117 23.8504L29.1593 23.4938C31.0441 22.8523 36.8131 20.8787 37.4499 20.6576C37.7922 20.5388 38.2556 20.4416 38.4799 20.4416C39.815 20.4416 40.5504 21.9079 39.7788 23.0314C39.6298 23.2483 37.4108 24.6659 30.4978 28.9607C22.2827 34.0645 21.3794 34.6051 21.0648 34.6051C20.7892 34.6051 20.2497 34.3771 18.464 33.5059C17.2249 32.9014 15.8339 32.2268 15.373 32.0068C14.912 31.7868 13.4883 31.0957 12.2092 30.4711L9.88359 29.3354V22.7892V16.243L12.7121 16.2681C15.4618 16.2925 15.5504 16.2984 15.894 16.482ZM4.22626 27.9311C4.07591 28.1606 4.16441 28.5131 4.39463 28.6014C4.47106 28.6308 4.96427 28.6548 5.49058 28.6548C6.33577 28.6548 6.4671 28.6351 6.6151 28.4871C6.81683 28.2854 6.82471 28.1653 6.65223 27.9192C6.52887 27.743 6.46291 27.7329 5.43895 27.7329C4.39295 27.7329 4.35172 27.7396 4.22626 27.9311Z" stroke="url(#paint3_radial_1197_54)"/>
<defs>
<radialGradient id="paint0_radial_1197_54" cx="0" cy="0" r="1" gradientUnits="userSpaceOnUse" gradientTransform="translate(11.5556 8.19122) rotate(46.8654) scale(30.8771 31.5103)">
<stop stop-color="white" stop-opacity="0.59"/>
<stop offset="0.697917" stop-color="white" stop-opacity="0"/>
<stop offset="1" stop-color="white" stop-opacity="0"/>
</radialGradient>
<radialGradient id="paint1_radial_1197_54" cx="0" cy="0" r="1" gradientUnits="userSpaceOnUse" gradientTransform="translate(35.5205 31.2031) rotate(-94.2514) scale(29.5654 38.1317)">
<stop stop-opacity="0.23"/>
<stop offset="0.861815" stop-opacity="0"/>
</radialGradient>
<radialGradient id="paint2_radial_1197_54" cx="0" cy="0" r="1" gradientUnits="userSpaceOnUse" gradientTransform="translate(11.5556 8.19122) rotate(46.8654) scale(30.8771 31.5103)">
<stop stop-color="white" stop-opacity="0.59"/>
<stop offset="0.697917" stop-color="white" stop-opacity="0"/>
<stop offset="1" stop-color="white" stop-opacity="0"/>
</radialGradient>
<radialGradient id="paint3_radial_1197_54" cx="0" cy="0" r="1" gradientUnits="userSpaceOnUse" gradientTransform="translate(35.5205 31.2031) rotate(-94.2514) scale(29.5654 38.1317)">
<stop stop-opacity="0.23"/>
<stop offset="0.861815" stop-opacity="0"/>
</radialGradient>
</defs>
</svg>
