<svg width="40" height="41" viewBox="0 0 40 41" fill="none" xmlns="http://www.w3.org/2000/svg">
<path fill-rule="evenodd" clip-rule="evenodd" d="M19.4912 0.0698421C18.8195 0.345928 18.6586 0.596809 18.1928 2.09434L17.8609 3.16127L16.4843 3.19548C14.9586 3.23336 14.8074 3.27399 14.3799 3.76104C13.9412 4.26068 13.8701 4.82225 14.1695 5.42311C14.3395 5.76432 14.5108 5.92237 15.4249 6.58092C16.3459 7.24464 16.4766 7.36558 16.4312 7.51235C16.4025 7.60511 16.2213 8.17286 16.0285 8.77395C15.7423 9.66616 15.6869 9.93152 15.7263 10.2194C15.8222 10.9188 16.3651 11.4438 17.0799 11.5284C17.5965 11.5896 17.8648 11.4633 19.0277 10.6119L20 9.90006L20.9723 10.6119C22.1352 11.4633 22.4035 11.5896 22.9201 11.5284C23.6349 11.4438 24.1778 10.9188 24.2737 10.2194C24.3131 9.93152 24.2577 9.66616 23.9715 8.77395C23.7787 8.17286 23.598 7.60644 23.5698 7.51532C23.5256 7.37246 23.6647 7.24362 24.5767 6.58272C25.4867 5.92323 25.6622 5.7608 25.8311 5.42194C26.1299 4.82233 26.0585 4.26029 25.6201 3.76104C25.1926 3.27399 25.0414 3.23336 23.5157 3.19548L22.1391 3.16127L21.8072 2.09434C21.4237 0.861623 21.2055 0.442523 20.824 0.206828C20.496 0.00408869 19.8201 -0.0654221 19.4912 0.0698421ZM20.4689 3.04401C20.7402 3.89599 20.9625 4.45826 21.0719 4.56949C21.24 4.74021 21.2922 4.74562 22.7753 4.74562C23.6168 4.74562 24.3043 4.77199 24.303 4.80432C24.3018 4.83665 23.855 5.18006 23.3102 5.56753C22.7655 5.95501 22.2217 6.35344 22.1018 6.45286C21.7255 6.76526 21.7399 7.00252 22.2245 8.47657C22.4648 9.20753 22.6614 9.83243 22.6614 9.8653C22.6614 9.89818 22.5294 9.82131 22.3679 9.69442C22.2065 9.56753 21.6749 9.17716 21.1866 8.82679C19.9704 7.95415 20.0348 7.94882 18.5206 9.04777C17.8704 9.51955 17.3386 9.88479 17.3386 9.85935C17.3386 9.83383 17.5346 9.21019 17.7742 8.47336C18.0986 7.47595 18.1976 7.06836 18.1618 6.87783C18.1087 6.59446 17.9214 6.43031 16.533 5.45012C16.0756 5.12722 15.6999 4.83665 15.6981 4.80432C15.6962 4.77199 16.3832 4.74562 17.2247 4.74562C18.7078 4.74562 18.76 4.74021 18.9281 4.56949C19.0375 4.45826 19.2598 3.89599 19.5311 3.04401C19.7675 2.30194 19.9785 1.69473 20 1.69473C20.0215 1.69473 20.2325 2.30194 20.4689 3.04401ZM18.9883 13.3579C17.7915 13.6103 16.9385 14.0683 16.0782 14.9203C15.335 15.6563 14.9397 16.2847 14.6083 17.257L14.4037 17.8572L14.4038 20.7143L14.4041 23.5714L14.6168 24.1977C14.8691 24.94 15.2913 25.681 15.7607 26.2054L16.1006 26.5851H13.9107H11.7207L12.0173 25.9949C12.1804 25.6702 12.3524 25.183 12.3995 24.9121C12.5252 24.191 12.5056 22.493 12.3648 21.8958C11.9447 20.1139 10.3275 18.8356 8.49315 18.8356C6.48947 18.8356 4.82356 20.3488 4.56885 22.4003C4.46849 23.2083 4.52689 24.6395 4.68368 25.2153C4.79867 25.6378 5.07804 26.2343 5.25589 26.4371C5.35562 26.5509 5.31609 26.5682 4.84963 26.616C2.73299 26.8329 0.91272 28.312 0.215577 30.3816C0.00688846 31.0013 0.00461839 31.0306 0.00234833 33.1867L0 35.3656L0.219648 35.5546L0.439296 35.7437H3.72258H7.00587V37.5871C7.00587 39.5903 7.03937 39.7755 7.43421 39.9554C7.71358 40.0828 10.0555 40.0828 10.3349 39.9554C10.7159 39.7818 10.8612 39.2914 10.6517 38.8861C10.4863 38.5662 10.2186 38.4834 9.35053 38.4834H8.57143L8.57245 36.272C8.5737 33.6491 8.65988 33.0638 9.21722 31.8927C10.1771 29.8756 12.0287 28.5303 14.2928 28.205L14.5739 28.1646L16.6938 33.3044L18.8136 38.4442L17.7825 38.4853C17.2154 38.508 16.6885 38.5563 16.6116 38.5927C16.4434 38.6723 16.2427 39.0387 16.2427 39.2662C16.2427 39.525 16.4467 39.8532 16.671 39.9554C16.8257 40.0259 18.7825 40.0489 24.6184 40.0489C30.4542 40.0489 32.4111 40.0259 32.5658 39.9554C32.9606 39.7755 32.9941 39.5903 32.9941 37.5871V35.7437H36.2774H39.5607L39.7804 35.5546L40 35.3656L39.9979 33.1867C39.9958 31.0444 39.9923 30.9976 39.7902 30.399C39.2146 28.6936 37.9068 27.38 36.2665 26.8597C35.9351 26.7546 35.4322 26.6449 35.1489 26.6158C34.6838 26.5682 34.6444 26.5509 34.7441 26.4371C35.1453 25.9797 35.4013 25.1178 35.4674 24.002C35.5768 22.1572 35.2452 21.0135 34.3222 20.0523C32.1593 17.7999 28.3533 18.8491 27.6352 21.8958C27.4921 22.5029 27.4742 24.3222 27.6049 24.9731C27.6546 25.2202 27.8265 25.684 27.9872 26.0038L28.2793 26.5851H26.0893H23.8994L24.2393 26.2054C24.7087 25.681 25.1309 24.94 25.3832 24.1977L25.5959 23.5714L25.5962 20.7143L25.5963 17.8572L25.3917 17.257C25.0697 16.3126 24.6609 15.655 23.9599 14.954C22.8697 13.8638 21.7153 13.3603 20.1957 13.3122C19.7221 13.2972 19.1788 13.3177 18.9883 13.3579ZM20.9321 14.964C22.3916 15.308 23.6059 16.5223 23.9499 17.9819C24.0149 18.2577 24.0686 18.5853 24.0693 18.7099L24.0704 18.9364L23.5029 18.8841C22.66 18.8064 21.7951 18.5469 20.9568 18.1201C20.5459 17.9109 20.108 17.7397 19.9838 17.7397C19.8595 17.7397 19.5004 17.881 19.186 18.0536C18.8715 18.2262 18.3535 18.4562 18.0351 18.5647C17.4265 18.7721 16.0533 18.9855 15.9557 18.8878C15.8381 18.7703 16.0931 17.6891 16.3741 17.1135C17.1949 15.4323 19.1023 14.5327 20.9321 14.964ZM20.7436 19.7657C21.6013 20.135 22.5625 20.3804 23.4247 20.4499L24.0704 20.502L24.0693 21.7236C24.0685 22.5358 24.0285 23.1133 23.9499 23.4468C23.6059 24.9063 22.3916 26.1206 20.9321 26.4646C18.7688 26.9745 16.5598 25.6089 16.0501 23.4468C15.9715 23.1133 15.9315 22.5358 15.9307 21.7232L15.9296 20.501L16.584 20.4479C17.6206 20.3638 18.8751 20.0147 19.6477 19.5956C19.7769 19.5255 19.9178 19.4668 19.9609 19.4651C20.0039 19.4636 20.3562 19.5988 20.7436 19.7657ZM9.5207 20.6204C9.99632 20.8526 10.4022 21.255 10.6663 21.7564C10.8735 22.1496 10.8802 22.2019 10.8805 23.4149C10.8806 24.8675 10.7904 25.2151 10.2649 25.7852C9.75953 26.3335 9.28219 26.5427 8.53229 26.5445C8.00243 26.5458 7.8371 26.5121 7.458 26.326C6.98975 26.0961 6.55773 25.6619 6.33957 25.2023C6.0317 24.5535 5.98982 22.7451 6.26434 21.9515C6.4872 21.3071 7.13479 20.7086 7.86693 20.4705C8.23663 20.3502 9.1337 20.4316 9.5207 20.6204ZM32.5732 20.6586C33.0819 20.9184 33.5714 21.4719 33.7531 21.9925C33.8643 22.3114 33.8941 22.6381 33.8933 23.5323C33.8923 24.5881 33.8781 24.6976 33.6897 25.1015C33.4105 25.6997 33.0626 26.0703 32.5387 26.3276C32.1631 26.512 31.9965 26.5458 31.4677 26.5445C30.7178 26.5427 30.2405 26.3335 29.7351 25.7852C29.208 25.2134 29.1187 24.8678 29.1231 23.4149C29.127 22.0767 29.1645 21.9066 29.5774 21.3534C29.8195 21.0289 30.3019 20.6691 30.6976 20.5177C31.1691 20.3374 32.078 20.4057 32.5732 20.6586ZM9.80517 28.5653C8.35601 29.7911 7.31601 31.7663 7.04556 33.8063L6.99624 34.1781H4.26137H1.52642L1.52759 32.9061C1.52892 31.4587 1.63029 30.884 2.01025 30.1712C2.29949 29.6285 3.08681 28.8615 3.64485 28.5787C4.39162 28.2003 4.73143 28.1642 7.61339 28.1572L10.2953 28.1507L9.80517 28.5653ZM19.2172 29.1646C19.2172 30.2789 19.282 30.5258 19.62 30.7006C20.0252 30.9102 20.5156 30.7649 20.6892 30.3838C20.7464 30.2584 20.7828 29.784 20.7828 29.1646V28.1507H22.2651H23.7474L23.4439 28.8748C23.277 29.273 22.4427 31.2976 21.5897 33.3739C20.7369 35.4501 20.0215 37.1489 20 37.1489C19.9785 37.1489 19.2631 35.4501 18.4103 33.3739C17.5573 31.2976 16.723 29.273 16.5561 28.8748L16.2526 28.1507H17.7349H19.2172V29.1646ZM26.4971 28.362C27.2383 28.534 28.3324 29.077 28.9762 29.5924C30.1183 30.5067 30.984 31.9166 31.278 33.3408C31.4031 33.9476 31.4267 34.4082 31.4276 36.272L31.4286 38.4834H26.3004H21.1721L21.2773 38.229C21.3351 38.089 22.2923 35.7673 23.4043 33.0696L25.4263 28.1646L25.7072 28.2042C25.8618 28.226 26.2172 28.297 26.4971 28.362ZM35.4917 28.2713C36.2266 28.4445 36.8456 28.8076 37.3804 29.3794C38.2629 30.3227 38.4707 30.994 38.4724 32.9061L38.4736 34.1781H35.7374H33.0013L32.9569 33.8846C32.8318 33.0571 32.6432 32.2785 32.4403 31.7515C31.9839 30.5662 31.1017 29.3186 30.1741 28.5466L29.6983 28.1507L32.3443 28.1519C34.4274 28.1527 35.0969 28.1782 35.4917 28.2713ZM13.1202 38.5927C12.4416 38.9688 12.7255 40.0489 13.5029 40.0489C13.8996 40.0489 14.2857 39.6666 14.2857 39.2738C14.2857 38.686 13.6362 38.3066 13.1202 38.5927Z" fill="#0066FF"/>
<path fill-rule="evenodd" clip-rule="evenodd" d="M19.4912 0.0698421C18.8195 0.345928 18.6586 0.596809 18.1928 2.09434L17.8609 3.16127L16.4843 3.19548C14.9586 3.23336 14.8074 3.27399 14.3799 3.76104C13.9412 4.26068 13.8701 4.82225 14.1695 5.42311C14.3395 5.76432 14.5108 5.92237 15.4249 6.58092C16.3459 7.24464 16.4766 7.36558 16.4312 7.51235C16.4025 7.60511 16.2213 8.17286 16.0285 8.77395C15.7423 9.66616 15.6869 9.93152 15.7263 10.2194C15.8222 10.9188 16.3651 11.4438 17.0799 11.5284C17.5965 11.5896 17.8648 11.4633 19.0277 10.6119L20 9.90006L20.9723 10.6119C22.1352 11.4633 22.4035 11.5896 22.9201 11.5284C23.6349 11.4438 24.1778 10.9188 24.2737 10.2194C24.3131 9.93152 24.2577 9.66616 23.9715 8.77395C23.7787 8.17286 23.598 7.60644 23.5698 7.51532C23.5256 7.37246 23.6647 7.24362 24.5767 6.58272C25.4867 5.92323 25.6622 5.7608 25.8311 5.42194C26.1299 4.82233 26.0585 4.26029 25.6201 3.76104C25.1926 3.27399 25.0414 3.23336 23.5157 3.19548L22.1391 3.16127L21.8072 2.09434C21.4237 0.861623 21.2055 0.442523 20.824 0.206828C20.496 0.00408869 19.8201 -0.0654221 19.4912 0.0698421ZM20.4689 3.04401C20.7402 3.89599 20.9625 4.45826 21.0719 4.56949C21.24 4.74021 21.2922 4.74562 22.7753 4.74562C23.6168 4.74562 24.3043 4.77199 24.303 4.80432C24.3018 4.83665 23.855 5.18006 23.3102 5.56753C22.7655 5.95501 22.2217 6.35344 22.1018 6.45286C21.7255 6.76526 21.7399 7.00252 22.2245 8.47657C22.4648 9.20753 22.6614 9.83243 22.6614 9.8653C22.6614 9.89818 22.5294 9.82131 22.3679 9.69442C22.2065 9.56753 21.6749 9.17716 21.1866 8.82679C19.9704 7.95415 20.0348 7.94882 18.5206 9.04777C17.8704 9.51955 17.3386 9.88479 17.3386 9.85935C17.3386 9.83383 17.5346 9.21019 17.7742 8.47336C18.0986 7.47595 18.1976 7.06836 18.1618 6.87783C18.1087 6.59446 17.9214 6.43031 16.533 5.45012C16.0756 5.12722 15.6999 4.83665 15.6981 4.80432C15.6962 4.77199 16.3832 4.74562 17.2247 4.74562C18.7078 4.74562 18.76 4.74021 18.9281 4.56949C19.0375 4.45826 19.2598 3.89599 19.5311 3.04401C19.7675 2.30194 19.9785 1.69473 20 1.69473C20.0215 1.69473 20.2325 2.30194 20.4689 3.04401ZM18.9883 13.3579C17.7915 13.6103 16.9385 14.0683 16.0782 14.9203C15.335 15.6563 14.9397 16.2847 14.6083 17.257L14.4037 17.8572L14.4038 20.7143L14.4041 23.5714L14.6168 24.1977C14.8691 24.94 15.2913 25.681 15.7607 26.2054L16.1006 26.5851H13.9107H11.7207L12.0173 25.9949C12.1804 25.6702 12.3524 25.183 12.3995 24.9121C12.5252 24.191 12.5056 22.493 12.3648 21.8958C11.9447 20.1139 10.3275 18.8356 8.49315 18.8356C6.48947 18.8356 4.82356 20.3488 4.56885 22.4003C4.46849 23.2083 4.52689 24.6395 4.68368 25.2153C4.79867 25.6378 5.07804 26.2343 5.25589 26.4371C5.35562 26.5509 5.31609 26.5682 4.84963 26.616C2.73299 26.8329 0.91272 28.312 0.215577 30.3816C0.00688846 31.0013 0.00461839 31.0306 0.00234833 33.1867L0 35.3656L0.219648 35.5546L0.439296 35.7437H3.72258H7.00587V37.5871C7.00587 39.5903 7.03937 39.7755 7.43421 39.9554C7.71358 40.0828 10.0555 40.0828 10.3349 39.9554C10.7159 39.7818 10.8612 39.2914 10.6517 38.8861C10.4863 38.5662 10.2186 38.4834 9.35053 38.4834H8.57143L8.57245 36.272C8.5737 33.6491 8.65988 33.0638 9.21722 31.8927C10.1771 29.8756 12.0287 28.5303 14.2928 28.205L14.5739 28.1646L16.6938 33.3044L18.8136 38.4442L17.7825 38.4853C17.2154 38.508 16.6885 38.5563 16.6116 38.5927C16.4434 38.6723 16.2427 39.0387 16.2427 39.2662C16.2427 39.525 16.4467 39.8532 16.671 39.9554C16.8257 40.0259 18.7825 40.0489 24.6184 40.0489C30.4542 40.0489 32.4111 40.0259 32.5658 39.9554C32.9606 39.7755 32.9941 39.5903 32.9941 37.5871V35.7437H36.2774H39.5607L39.7804 35.5546L40 35.3656L39.9979 33.1867C39.9958 31.0444 39.9923 30.9976 39.7902 30.399C39.2146 28.6936 37.9068 27.38 36.2665 26.8597C35.9351 26.7546 35.4322 26.6449 35.1489 26.6158C34.6838 26.5682 34.6444 26.5509 34.7441 26.4371C35.1453 25.9797 35.4013 25.1178 35.4674 24.002C35.5768 22.1572 35.2452 21.0135 34.3222 20.0523C32.1593 17.7999 28.3533 18.8491 27.6352 21.8958C27.4921 22.5029 27.4742 24.3222 27.6049 24.9731C27.6546 25.2202 27.8265 25.684 27.9872 26.0038L28.2793 26.5851H26.0893H23.8994L24.2393 26.2054C24.7087 25.681 25.1309 24.94 25.3832 24.1977L25.5959 23.5714L25.5962 20.7143L25.5963 17.8572L25.3917 17.257C25.0697 16.3126 24.6609 15.655 23.9599 14.954C22.8697 13.8638 21.7153 13.3603 20.1957 13.3122C19.7221 13.2972 19.1788 13.3177 18.9883 13.3579ZM20.9321 14.964C22.3916 15.308 23.6059 16.5223 23.9499 17.9819C24.0149 18.2577 24.0686 18.5853 24.0693 18.7099L24.0704 18.9364L23.5029 18.8841C22.66 18.8064 21.7951 18.5469 20.9568 18.1201C20.5459 17.9109 20.108 17.7397 19.9838 17.7397C19.8595 17.7397 19.5004 17.881 19.186 18.0536C18.8715 18.2262 18.3535 18.4562 18.0351 18.5647C17.4265 18.7721 16.0533 18.9855 15.9557 18.8878C15.8381 18.7703 16.0931 17.6891 16.3741 17.1135C17.1949 15.4323 19.1023 14.5327 20.9321 14.964ZM20.7436 19.7657C21.6013 20.135 22.5625 20.3804 23.4247 20.4499L24.0704 20.502L24.0693 21.7236C24.0685 22.5358 24.0285 23.1133 23.9499 23.4468C23.6059 24.9063 22.3916 26.1206 20.9321 26.4646C18.7688 26.9745 16.5598 25.6089 16.0501 23.4468C15.9715 23.1133 15.9315 22.5358 15.9307 21.7232L15.9296 20.501L16.584 20.4479C17.6206 20.3638 18.8751 20.0147 19.6477 19.5956C19.7769 19.5255 19.9178 19.4668 19.9609 19.4651C20.0039 19.4636 20.3562 19.5988 20.7436 19.7657ZM9.5207 20.6204C9.99632 20.8526 10.4022 21.255 10.6663 21.7564C10.8735 22.1496 10.8802 22.2019 10.8805 23.4149C10.8806 24.8675 10.7904 25.2151 10.2649 25.7852C9.75953 26.3335 9.28219 26.5427 8.53229 26.5445C8.00243 26.5458 7.8371 26.5121 7.458 26.326C6.98975 26.0961 6.55773 25.6619 6.33957 25.2023C6.0317 24.5535 5.98982 22.7451 6.26434 21.9515C6.4872 21.3071 7.13479 20.7086 7.86693 20.4705C8.23663 20.3502 9.1337 20.4316 9.5207 20.6204ZM32.5732 20.6586C33.0819 20.9184 33.5714 21.4719 33.7531 21.9925C33.8643 22.3114 33.8941 22.6381 33.8933 23.5323C33.8923 24.5881 33.8781 24.6976 33.6897 25.1015C33.4105 25.6997 33.0626 26.0703 32.5387 26.3276C32.1631 26.512 31.9965 26.5458 31.4677 26.5445C30.7178 26.5427 30.2405 26.3335 29.7351 25.7852C29.208 25.2134 29.1187 24.8678 29.1231 23.4149C29.127 22.0767 29.1645 21.9066 29.5774 21.3534C29.8195 21.0289 30.3019 20.6691 30.6976 20.5177C31.1691 20.3374 32.078 20.4057 32.5732 20.6586ZM9.80517 28.5653C8.35601 29.7911 7.31601 31.7663 7.04556 33.8063L6.99624 34.1781H4.26137H1.52642L1.52759 32.9061C1.52892 31.4587 1.63029 30.884 2.01025 30.1712C2.29949 29.6285 3.08681 28.8615 3.64485 28.5787C4.39162 28.2003 4.73143 28.1642 7.61339 28.1572L10.2953 28.1507L9.80517 28.5653ZM19.2172 29.1646C19.2172 30.2789 19.282 30.5258 19.62 30.7006C20.0252 30.9102 20.5156 30.7649 20.6892 30.3838C20.7464 30.2584 20.7828 29.784 20.7828 29.1646V28.1507H22.2651H23.7474L23.4439 28.8748C23.277 29.273 22.4427 31.2976 21.5897 33.3739C20.7369 35.4501 20.0215 37.1489 20 37.1489C19.9785 37.1489 19.2631 35.4501 18.4103 33.3739C17.5573 31.2976 16.723 29.273 16.5561 28.8748L16.2526 28.1507H17.7349H19.2172V29.1646ZM26.4971 28.362C27.2383 28.534 28.3324 29.077 28.9762 29.5924C30.1183 30.5067 30.984 31.9166 31.278 33.3408C31.4031 33.9476 31.4267 34.4082 31.4276 36.272L31.4286 38.4834H26.3004H21.1721L21.2773 38.229C21.3351 38.089 22.2923 35.7673 23.4043 33.0696L25.4263 28.1646L25.7072 28.2042C25.8618 28.226 26.2172 28.297 26.4971 28.362ZM35.4917 28.2713C36.2266 28.4445 36.8456 28.8076 37.3804 29.3794C38.2629 30.3227 38.4707 30.994 38.4724 32.9061L38.4736 34.1781H35.7374H33.0013L32.9569 33.8846C32.8318 33.0571 32.6432 32.2785 32.4403 31.7515C31.9839 30.5662 31.1017 29.3186 30.1741 28.5466L29.6983 28.1507L32.3443 28.1519C34.4274 28.1527 35.0969 28.1782 35.4917 28.2713ZM13.1202 38.5927C12.4416 38.9688 12.7255 40.0489 13.5029 40.0489C13.8996 40.0489 14.2857 39.6666 14.2857 39.2738C14.2857 38.686 13.6362 38.3066 13.1202 38.5927Z" fill="url(#paint0_radial_1199_71)" fill-opacity="0.7"/>
<path fill-rule="evenodd" clip-rule="evenodd" d="M19.4912 0.0698421C18.8195 0.345928 18.6586 0.596809 18.1928 2.09434L17.8609 3.16127L16.4843 3.19548C14.9586 3.23336 14.8074 3.27399 14.3799 3.76104C13.9412 4.26068 13.8701 4.82225 14.1695 5.42311C14.3395 5.76432 14.5108 5.92237 15.4249 6.58092C16.3459 7.24464 16.4766 7.36558 16.4312 7.51235C16.4025 7.60511 16.2213 8.17286 16.0285 8.77395C15.7423 9.66616 15.6869 9.93152 15.7263 10.2194C15.8222 10.9188 16.3651 11.4438 17.0799 11.5284C17.5965 11.5896 17.8648 11.4633 19.0277 10.6119L20 9.90006L20.9723 10.6119C22.1352 11.4633 22.4035 11.5896 22.9201 11.5284C23.6349 11.4438 24.1778 10.9188 24.2737 10.2194C24.3131 9.93152 24.2577 9.66616 23.9715 8.77395C23.7787 8.17286 23.598 7.60644 23.5698 7.51532C23.5256 7.37246 23.6647 7.24362 24.5767 6.58272C25.4867 5.92323 25.6622 5.7608 25.8311 5.42194C26.1299 4.82233 26.0585 4.26029 25.6201 3.76104C25.1926 3.27399 25.0414 3.23336 23.5157 3.19548L22.1391 3.16127L21.8072 2.09434C21.4237 0.861623 21.2055 0.442523 20.824 0.206828C20.496 0.00408869 19.8201 -0.0654221 19.4912 0.0698421ZM20.4689 3.04401C20.7402 3.89599 20.9625 4.45826 21.0719 4.56949C21.24 4.74021 21.2922 4.74562 22.7753 4.74562C23.6168 4.74562 24.3043 4.77199 24.303 4.80432C24.3018 4.83665 23.855 5.18006 23.3102 5.56753C22.7655 5.95501 22.2217 6.35344 22.1018 6.45286C21.7255 6.76526 21.7399 7.00252 22.2245 8.47657C22.4648 9.20753 22.6614 9.83243 22.6614 9.8653C22.6614 9.89818 22.5294 9.82131 22.3679 9.69442C22.2065 9.56753 21.6749 9.17716 21.1866 8.82679C19.9704 7.95415 20.0348 7.94882 18.5206 9.04777C17.8704 9.51955 17.3386 9.88479 17.3386 9.85935C17.3386 9.83383 17.5346 9.21019 17.7742 8.47336C18.0986 7.47595 18.1976 7.06836 18.1618 6.87783C18.1087 6.59446 17.9214 6.43031 16.533 5.45012C16.0756 5.12722 15.6999 4.83665 15.6981 4.80432C15.6962 4.77199 16.3832 4.74562 17.2247 4.74562C18.7078 4.74562 18.76 4.74021 18.9281 4.56949C19.0375 4.45826 19.2598 3.89599 19.5311 3.04401C19.7675 2.30194 19.9785 1.69473 20 1.69473C20.0215 1.69473 20.2325 2.30194 20.4689 3.04401ZM18.9883 13.3579C17.7915 13.6103 16.9385 14.0683 16.0782 14.9203C15.335 15.6563 14.9397 16.2847 14.6083 17.257L14.4037 17.8572L14.4038 20.7143L14.4041 23.5714L14.6168 24.1977C14.8691 24.94 15.2913 25.681 15.7607 26.2054L16.1006 26.5851H13.9107H11.7207L12.0173 25.9949C12.1804 25.6702 12.3524 25.183 12.3995 24.9121C12.5252 24.191 12.5056 22.493 12.3648 21.8958C11.9447 20.1139 10.3275 18.8356 8.49315 18.8356C6.48947 18.8356 4.82356 20.3488 4.56885 22.4003C4.46849 23.2083 4.52689 24.6395 4.68368 25.2153C4.79867 25.6378 5.07804 26.2343 5.25589 26.4371C5.35562 26.5509 5.31609 26.5682 4.84963 26.616C2.73299 26.8329 0.91272 28.312 0.215577 30.3816C0.00688846 31.0013 0.00461839 31.0306 0.00234833 33.1867L0 35.3656L0.219648 35.5546L0.439296 35.7437H3.72258H7.00587V37.5871C7.00587 39.5903 7.03937 39.7755 7.43421 39.9554C7.71358 40.0828 10.0555 40.0828 10.3349 39.9554C10.7159 39.7818 10.8612 39.2914 10.6517 38.8861C10.4863 38.5662 10.2186 38.4834 9.35053 38.4834H8.57143L8.57245 36.272C8.5737 33.6491 8.65988 33.0638 9.21722 31.8927C10.1771 29.8756 12.0287 28.5303 14.2928 28.205L14.5739 28.1646L16.6938 33.3044L18.8136 38.4442L17.7825 38.4853C17.2154 38.508 16.6885 38.5563 16.6116 38.5927C16.4434 38.6723 16.2427 39.0387 16.2427 39.2662C16.2427 39.525 16.4467 39.8532 16.671 39.9554C16.8257 40.0259 18.7825 40.0489 24.6184 40.0489C30.4542 40.0489 32.4111 40.0259 32.5658 39.9554C32.9606 39.7755 32.9941 39.5903 32.9941 37.5871V35.7437H36.2774H39.5607L39.7804 35.5546L40 35.3656L39.9979 33.1867C39.9958 31.0444 39.9923 30.9976 39.7902 30.399C39.2146 28.6936 37.9068 27.38 36.2665 26.8597C35.9351 26.7546 35.4322 26.6449 35.1489 26.6158C34.6838 26.5682 34.6444 26.5509 34.7441 26.4371C35.1453 25.9797 35.4013 25.1178 35.4674 24.002C35.5768 22.1572 35.2452 21.0135 34.3222 20.0523C32.1593 17.7999 28.3533 18.8491 27.6352 21.8958C27.4921 22.5029 27.4742 24.3222 27.6049 24.9731C27.6546 25.2202 27.8265 25.684 27.9872 26.0038L28.2793 26.5851H26.0893H23.8994L24.2393 26.2054C24.7087 25.681 25.1309 24.94 25.3832 24.1977L25.5959 23.5714L25.5962 20.7143L25.5963 17.8572L25.3917 17.257C25.0697 16.3126 24.6609 15.655 23.9599 14.954C22.8697 13.8638 21.7153 13.3603 20.1957 13.3122C19.7221 13.2972 19.1788 13.3177 18.9883 13.3579ZM20.9321 14.964C22.3916 15.308 23.6059 16.5223 23.9499 17.9819C24.0149 18.2577 24.0686 18.5853 24.0693 18.7099L24.0704 18.9364L23.5029 18.8841C22.66 18.8064 21.7951 18.5469 20.9568 18.1201C20.5459 17.9109 20.108 17.7397 19.9838 17.7397C19.8595 17.7397 19.5004 17.881 19.186 18.0536C18.8715 18.2262 18.3535 18.4562 18.0351 18.5647C17.4265 18.7721 16.0533 18.9855 15.9557 18.8878C15.8381 18.7703 16.0931 17.6891 16.3741 17.1135C17.1949 15.4323 19.1023 14.5327 20.9321 14.964ZM20.7436 19.7657C21.6013 20.135 22.5625 20.3804 23.4247 20.4499L24.0704 20.502L24.0693 21.7236C24.0685 22.5358 24.0285 23.1133 23.9499 23.4468C23.6059 24.9063 22.3916 26.1206 20.9321 26.4646C18.7688 26.9745 16.5598 25.6089 16.0501 23.4468C15.9715 23.1133 15.9315 22.5358 15.9307 21.7232L15.9296 20.501L16.584 20.4479C17.6206 20.3638 18.8751 20.0147 19.6477 19.5956C19.7769 19.5255 19.9178 19.4668 19.9609 19.4651C20.0039 19.4636 20.3562 19.5988 20.7436 19.7657ZM9.5207 20.6204C9.99632 20.8526 10.4022 21.255 10.6663 21.7564C10.8735 22.1496 10.8802 22.2019 10.8805 23.4149C10.8806 24.8675 10.7904 25.2151 10.2649 25.7852C9.75953 26.3335 9.28219 26.5427 8.53229 26.5445C8.00243 26.5458 7.8371 26.5121 7.458 26.326C6.98975 26.0961 6.55773 25.6619 6.33957 25.2023C6.0317 24.5535 5.98982 22.7451 6.26434 21.9515C6.4872 21.3071 7.13479 20.7086 7.86693 20.4705C8.23663 20.3502 9.1337 20.4316 9.5207 20.6204ZM32.5732 20.6586C33.0819 20.9184 33.5714 21.4719 33.7531 21.9925C33.8643 22.3114 33.8941 22.6381 33.8933 23.5323C33.8923 24.5881 33.8781 24.6976 33.6897 25.1015C33.4105 25.6997 33.0626 26.0703 32.5387 26.3276C32.1631 26.512 31.9965 26.5458 31.4677 26.5445C30.7178 26.5427 30.2405 26.3335 29.7351 25.7852C29.208 25.2134 29.1187 24.8678 29.1231 23.4149C29.127 22.0767 29.1645 21.9066 29.5774 21.3534C29.8195 21.0289 30.3019 20.6691 30.6976 20.5177C31.1691 20.3374 32.078 20.4057 32.5732 20.6586ZM9.80517 28.5653C8.35601 29.7911 7.31601 31.7663 7.04556 33.8063L6.99624 34.1781H4.26137H1.52642L1.52759 32.9061C1.52892 31.4587 1.63029 30.884 2.01025 30.1712C2.29949 29.6285 3.08681 28.8615 3.64485 28.5787C4.39162 28.2003 4.73143 28.1642 7.61339 28.1572L10.2953 28.1507L9.80517 28.5653ZM19.2172 29.1646C19.2172 30.2789 19.282 30.5258 19.62 30.7006C20.0252 30.9102 20.5156 30.7649 20.6892 30.3838C20.7464 30.2584 20.7828 29.784 20.7828 29.1646V28.1507H22.2651H23.7474L23.4439 28.8748C23.277 29.273 22.4427 31.2976 21.5897 33.3739C20.7369 35.4501 20.0215 37.1489 20 37.1489C19.9785 37.1489 19.2631 35.4501 18.4103 33.3739C17.5573 31.2976 16.723 29.273 16.5561 28.8748L16.2526 28.1507H17.7349H19.2172V29.1646ZM26.4971 28.362C27.2383 28.534 28.3324 29.077 28.9762 29.5924C30.1183 30.5067 30.984 31.9166 31.278 33.3408C31.4031 33.9476 31.4267 34.4082 31.4276 36.272L31.4286 38.4834H26.3004H21.1721L21.2773 38.229C21.3351 38.089 22.2923 35.7673 23.4043 33.0696L25.4263 28.1646L25.7072 28.2042C25.8618 28.226 26.2172 28.297 26.4971 28.362ZM35.4917 28.2713C36.2266 28.4445 36.8456 28.8076 37.3804 29.3794C38.2629 30.3227 38.4707 30.994 38.4724 32.9061L38.4736 34.1781H35.7374H33.0013L32.9569 33.8846C32.8318 33.0571 32.6432 32.2785 32.4403 31.7515C31.9839 30.5662 31.1017 29.3186 30.1741 28.5466L29.6983 28.1507L32.3443 28.1519C34.4274 28.1527 35.0969 28.1782 35.4917 28.2713ZM13.1202 38.5927C12.4416 38.9688 12.7255 40.0489 13.5029 40.0489C13.8996 40.0489 14.2857 39.6666 14.2857 39.2738C14.2857 38.686 13.6362 38.3066 13.1202 38.5927Z" fill="url(#paint1_radial_1199_71)"/>
<defs>
<radialGradient id="paint0_radial_1199_71" cx="0" cy="0" r="1" gradientUnits="userSpaceOnUse" gradientTransform="translate(10.5556 8.34394) rotate(51.0797) scale(33.6037 33.5947)">
<stop stop-color="white" stop-opacity="0.59"/>
<stop offset="0.697917" stop-color="white" stop-opacity="0"/>
<stop offset="1" stop-color="white" stop-opacity="0"/>
</radialGradient>
<radialGradient id="paint1_radial_1199_71" cx="0" cy="0" r="1" gradientUnits="userSpaceOnUse" gradientTransform="translate(34.5205 35.0446) rotate(-93.6658) scale(34.2803 38.1587)">
<stop stop-opacity="0.23"/>
<stop offset="0.861815" stop-opacity="0"/>
</radialGradient>
</defs>
</svg>
