<svg width="40" height="40" viewBox="0 0 40 40" fill="none" xmlns="http://www.w3.org/2000/svg">
<path fill-rule="evenodd" clip-rule="evenodd" d="M9.13232 0.0927438C6.70894 0.769515 5.90865 3.82276 7.69575 5.57344C8.05091 5.9214 8.59963 6.25498 9.07369 6.4111C9.19955 6.45253 9.21049 6.62772 9.21049 8.6048C9.21049 10.1041 9.23872 10.8153 9.30392 10.9584C9.40601 11.1824 9.73381 11.3861 9.99226 11.3861C10.2187 11.3861 10.5847 11.1863 10.6668 11.0177C10.7043 10.9409 10.7525 9.88024 10.774 8.66077L10.8131 6.44346L11.204 6.29485C12.0264 5.98222 12.7077 5.29505 13.0547 4.42847C13.2986 3.81917 13.2986 2.69249 13.0547 2.08319C12.702 1.20222 12.0296 0.532406 11.1649 0.200549C10.5984 -0.0169373 9.69613 -0.0647812 9.13232 0.0927438ZM29.1454 0.0927438C26.722 0.769515 25.9217 3.82276 27.7088 5.57344C28.064 5.9214 28.6127 6.25498 29.0868 6.4111C29.2126 6.45253 29.2236 6.62772 29.2236 8.6048C29.2236 10.1041 29.2518 10.8153 29.317 10.9584C29.4191 11.1824 29.7469 11.3861 30.0054 11.3861C30.2317 11.3861 30.5978 11.1863 30.6799 11.0177C30.7174 10.9409 30.7656 9.88024 30.7871 8.66077L30.8262 6.44346L31.2171 6.29485C32.0395 5.98222 32.7208 5.29505 33.0677 4.42847C33.3117 3.81917 33.3117 2.69249 33.0677 2.08319C32.7151 1.20222 32.0427 0.532406 31.178 0.200549C30.6115 -0.0169373 29.7092 -0.0647812 29.1454 0.0927438ZM10.7834 1.75438C12.0919 2.43795 11.9614 4.3345 10.5694 4.8661C9.45386 5.29216 8.20593 4.36054 8.28958 3.16413C8.33359 2.53426 8.65255 2.04097 9.20111 1.75438C9.76078 1.462 10.2237 1.462 10.7834 1.75438ZM30.7965 1.75438C32.105 2.43795 31.9745 4.3345 30.5824 4.8661C29.4669 5.29216 28.219 4.36054 28.3027 3.16413C28.3467 2.53426 28.6656 2.04097 29.2142 1.75438C29.7739 1.462 30.2368 1.462 30.7965 1.75438ZM19.2364 4.97946C17.7102 5.25159 16.3763 6.22128 15.7175 7.53754C15.2347 8.50207 15.1266 9.11271 15.1699 10.6293C15.2078 11.9514 15.2595 12.2033 15.6743 13.0869C15.7804 13.3129 16.0032 13.6698 16.1695 13.8802L16.4719 14.2626L15.9487 14.3596C14.0854 14.7046 12.3035 15.8241 11.1622 17.3666C10.7564 17.915 10.6891 18.3718 10.9723 18.655C11.4065 19.0892 11.9239 18.9705 12.3988 18.3276C13.2119 17.2269 14.5581 16.3173 15.8617 15.9876C16.2088 15.8999 16.5027 15.84 16.5148 15.8547C16.5268 15.8693 17.1757 16.9758 17.9567 18.3136C18.7376 19.6514 19.449 20.8115 19.5376 20.8917C19.7976 21.1269 20.2656 21.086 20.5342 20.8046C20.6563 20.6766 21.3473 19.5516 22.0698 18.3047C22.7922 17.0578 23.4237 15.9933 23.4732 15.939C23.6121 15.7868 24.6369 16.0801 25.4708 16.5108C27.0923 17.3483 28.241 18.8743 28.6748 20.7673C29.1545 22.8604 29.5373 23.8412 30.3525 25.0658C31.1953 26.3317 32.3595 27.423 33.7066 28.2097C34.1505 28.469 34.2696 28.5835 34.3984 28.8746C34.7308 29.6261 34.2214 30.383 33.3833 30.383C32.7721 30.383 31.1224 29.2319 29.8759 27.9357C28.2409 26.2356 27.2317 24.3132 26.6874 21.8618C26.5165 21.0923 26.4537 20.9318 26.2518 20.7477C26.122 20.6295 25.9267 20.5328 25.8178 20.5328C25.5586 20.5328 25.1841 20.7297 25.0826 20.9193C25.0303 21.017 25.0021 22.5056 25.0021 25.1646V29.2596L24.7089 29.4004C24.5477 29.4778 23.4227 29.9948 22.2089 30.5492L20.0022 31.5572L17.792 30.5492C16.5764 29.9949 15.45 29.4779 15.2887 29.4004L14.9955 29.2596V25.1646C14.9955 22.5056 14.9673 21.017 14.915 20.9193C14.8143 20.7311 14.4395 20.5328 14.1845 20.5328C14.0782 20.5328 13.887 20.6205 13.7596 20.7277C13.5566 20.8985 13.4968 21.0556 13.276 21.998C12.7075 24.4241 11.7312 26.2621 10.1217 27.9357C8.8752 29.2319 7.22552 30.383 6.61434 30.383C5.77778 30.383 5.26682 29.626 5.59805 28.8773C5.7283 28.5828 5.84861 28.4709 6.36746 28.1617C7.90456 27.2454 9.7564 25.35 9.75742 24.6917C9.75788 24.4193 9.55924 24.0922 9.32995 23.9878C8.90053 23.7921 8.57352 23.9114 8.23431 24.3875C7.59647 25.2825 6.45252 26.2995 5.32796 26.9713C4.20886 27.6397 3.70979 28.7541 4.0067 29.9216C4.38883 31.4247 5.89958 32.2793 7.38047 31.8301C7.89487 31.674 7.8815 31.6688 7.8815 32.0272C7.8815 32.6824 8.39504 33.7765 8.95119 34.3061C9.35887 34.6943 10.0832 35.0648 11.0766 35.3934C11.6196 35.573 12.0852 35.7318 12.1112 35.7461C12.1373 35.7605 12.0896 35.9757 12.0052 36.2242C11.889 36.5672 11.86 36.8179 11.8854 37.264C11.9469 38.3475 12.5286 39.2278 13.4987 39.7054C13.9585 39.9317 14.0869 39.9593 14.6809 39.9591C15.3172 39.9588 15.4523 39.9236 17.6731 39.1784L19.9988 38.398L22.3245 39.1784C24.5453 39.9236 24.6804 39.9588 25.3167 39.9591C25.9107 39.9593 26.0391 39.9317 26.4989 39.7054C27.469 39.2278 28.0507 38.3475 28.1122 37.264C28.1376 36.8179 28.1086 36.5672 27.9924 36.2242C27.908 35.9757 27.8604 35.7605 27.8864 35.7461C27.9124 35.7318 28.3382 35.5871 28.8327 35.4248C30.3598 34.9236 30.9786 34.5307 31.5156 33.7217C31.8458 33.2242 32.1161 32.4614 32.1161 32.0272C32.1161 31.6688 32.1027 31.674 32.6171 31.8301C34.1022 32.2806 35.6077 31.429 35.9909 29.9216C36.1442 29.3187 36.0954 28.7834 35.836 28.2236C35.5639 27.6363 35.2396 27.317 34.3773 26.7871C32.9378 25.9024 31.6921 24.5297 31.0237 23.0912C30.6829 22.358 30.5817 22.0328 30.2051 20.4612C29.8766 19.0904 29.3944 18.0617 28.637 17.1156C27.5264 15.7285 25.7816 14.6805 24.049 14.3596L23.5257 14.2626L23.8281 13.8802C24.5423 12.9766 24.8463 11.9285 24.8444 10.3769C24.8427 9.07409 24.7161 8.42718 24.2961 7.57506C23.7257 6.41774 22.5735 5.4611 21.3374 5.11838C20.7065 4.94342 19.7814 4.88221 19.2364 4.97946ZM20.5546 6.54087C21.8836 6.79291 22.9306 7.81022 23.2122 9.12318C23.3509 9.77009 23.2656 11.5707 23.073 12.058C22.579 13.3081 21.5173 14.0878 20.182 14.181C18.8004 14.2776 17.4541 13.41 16.9366 12.0897C16.8026 11.7479 16.761 11.4415 16.7332 10.5948C16.6941 9.40665 16.7654 8.93548 17.0817 8.28944C17.575 7.28221 18.7705 6.5182 19.9295 6.46965C20.0419 6.46488 20.3232 6.49693 20.5546 6.54087ZM2.27518 12.3553C0.840098 12.8222 -0.115997 14.274 0.0113524 15.7929C0.107353 16.9381 0.965883 18.1048 2.01079 18.51L2.48078 18.6923L2.50361 20.9483L2.52644 23.2045L2.7458 23.3931C2.89629 23.5224 3.06053 23.5816 3.26911 23.5816C3.47768 23.5816 3.64193 23.5224 3.79242 23.3931L4.01178 23.2045L4.03461 20.9483L4.05744 18.6923L4.52743 18.51C4.83154 18.3921 5.16136 18.176 5.46203 17.8976C6.89015 16.5755 6.90148 14.4411 5.48759 13.1039C4.84639 12.4975 4.33801 12.2956 3.38637 12.2695C2.88073 12.2556 2.48821 12.286 2.27518 12.3553ZM35.7346 12.3553C34.2995 12.8222 33.3434 14.274 33.4707 15.7929C33.5667 16.9381 34.4253 18.1048 35.4702 18.51L35.9402 18.6923L35.963 20.9483L35.9858 23.2045L36.2052 23.3931C36.3557 23.5224 36.5199 23.5816 36.7285 23.5816C36.9371 23.5816 37.1013 23.5224 37.2518 23.3931L37.4712 23.2045L37.494 20.9483L37.5168 18.6923L37.9868 18.51C38.2909 18.3921 38.6208 18.176 38.9214 17.8976C40.3495 16.5755 40.3609 14.4411 38.947 13.1039C38.3058 12.4975 37.7974 12.2956 36.8458 12.2695C36.3401 12.2556 35.9476 12.286 35.7346 12.3553ZM4.04641 13.9637C5.02213 14.4614 5.27761 15.7358 4.57301 16.5906C3.93298 17.367 2.60524 17.367 1.96521 16.5906C1.71411 16.286 1.54923 15.8498 1.54923 15.4904C1.54923 14.8999 1.94613 14.247 2.475 13.9676C2.86978 13.759 3.64146 13.7571 4.04641 13.9637ZM37.5058 13.9637C38.4815 14.4614 38.737 15.7358 38.0324 16.5906C37.3924 17.367 36.0646 17.367 35.4246 16.5906C35.1735 16.286 35.0086 15.8498 35.0086 15.4904C35.0086 14.8999 35.4055 14.247 35.9344 13.9676C36.3292 13.759 37.1008 13.7571 37.5058 13.9637ZM21.6967 15.8226C21.415 16.3515 20.0395 18.6564 20.0058 18.6559C19.9804 18.6555 19.6693 18.1542 19.3142 17.5419C18.9592 16.9295 18.579 16.279 18.4694 16.0963L18.2701 15.764H19.999C20.9499 15.764 21.7138 15.7904 21.6967 15.8226ZM9.82988 20.9176C9.25466 21.4929 9.8273 22.4497 10.5948 22.1956C10.7148 22.1558 10.8948 22.0029 10.9946 21.8557C11.2245 21.5171 11.1767 21.2008 10.8512 20.9041C10.5235 20.6055 10.1368 20.6107 9.82988 20.9176ZM13.4016 28.4851C13.3824 28.5041 13.2041 28.4478 13.0052 28.3598C12.8063 28.2718 12.527 28.178 12.3846 28.1513L12.1257 28.1027L12.7593 27.1516L13.3929 26.2005L13.4147 27.3254C13.4265 27.9441 13.4207 28.4659 13.4016 28.4851ZM27.2301 28.2882C26.8861 28.4072 26.5959 28.5051 26.5851 28.5057C26.5744 28.5063 26.5656 27.9753 26.5656 27.3258V26.1449L27.2106 27.1083L27.8555 28.0718L27.2301 28.2882ZM15.0531 31.012C16.6971 31.7624 18.0427 32.3945 18.0433 32.4166C18.0439 32.4388 17.0155 32.9256 15.7581 33.4987L13.4718 34.5405L12.0251 34.0538C10.281 33.467 9.94324 33.2554 9.59794 32.5328C9.42517 32.1714 9.39702 31.4603 9.53696 30.9933C9.64539 30.6314 10.143 30.0394 10.4893 29.8603C10.8971 29.6495 11.1049 29.6056 11.5949 29.6271C12.0156 29.6455 12.3715 29.788 15.0531 31.012ZM29.429 29.8207C29.8432 30.0323 30.3428 30.6001 30.4606 30.9933C30.5749 31.3747 30.5798 32.0983 30.47 32.3909C30.3295 32.7657 30.0065 33.1758 29.6836 33.3895C29.3848 33.5872 15.4099 38.3234 14.858 38.414C14.4959 38.4734 13.9383 38.2389 13.7005 37.9273C13.3397 37.4541 13.3509 36.7603 13.7264 36.3139C13.9391 36.0612 14.1781 35.9385 16.6763 34.8008C17.3643 34.4874 20.0555 33.2548 22.6568 32.0617C25.2581 30.8685 27.5448 29.8263 27.7382 29.7456C28.1972 29.5541 28.9747 29.5887 29.429 29.8207ZM26.4606 36.6152C26.6213 36.9999 26.5645 37.56 26.3317 37.887C26.1313 38.1684 25.6299 38.4307 25.2873 38.4334C25.0724 38.435 24.273 38.1915 23.0542 37.7532L22.4745 37.5447L24.266 36.9407C25.2513 36.6085 26.1208 36.3339 26.1982 36.3305C26.2897 36.3265 26.3817 36.4263 26.4606 36.6152Z" fill="#0066FF"/>
<path fill-rule="evenodd" clip-rule="evenodd" d="M9.13232 0.0927438C6.70894 0.769515 5.90865 3.82276 7.69575 5.57344C8.05091 5.9214 8.59963 6.25498 9.07369 6.4111C9.19955 6.45253 9.21049 6.62772 9.21049 8.6048C9.21049 10.1041 9.23872 10.8153 9.30392 10.9584C9.40601 11.1824 9.73381 11.3861 9.99226 11.3861C10.2187 11.3861 10.5847 11.1863 10.6668 11.0177C10.7043 10.9409 10.7525 9.88024 10.774 8.66077L10.8131 6.44346L11.204 6.29485C12.0264 5.98222 12.7077 5.29505 13.0547 4.42847C13.2986 3.81917 13.2986 2.69249 13.0547 2.08319C12.702 1.20222 12.0296 0.532406 11.1649 0.200549C10.5984 -0.0169373 9.69613 -0.0647812 9.13232 0.0927438ZM29.1454 0.0927438C26.722 0.769515 25.9217 3.82276 27.7088 5.57344C28.064 5.9214 28.6127 6.25498 29.0868 6.4111C29.2126 6.45253 29.2236 6.62772 29.2236 8.6048C29.2236 10.1041 29.2518 10.8153 29.317 10.9584C29.4191 11.1824 29.7469 11.3861 30.0054 11.3861C30.2317 11.3861 30.5978 11.1863 30.6799 11.0177C30.7174 10.9409 30.7656 9.88024 30.7871 8.66077L30.8262 6.44346L31.2171 6.29485C32.0395 5.98222 32.7208 5.29505 33.0677 4.42847C33.3117 3.81917 33.3117 2.69249 33.0677 2.08319C32.7151 1.20222 32.0427 0.532406 31.178 0.200549C30.6115 -0.0169373 29.7092 -0.0647812 29.1454 0.0927438ZM10.7834 1.75438C12.0919 2.43795 11.9614 4.3345 10.5694 4.8661C9.45386 5.29216 8.20593 4.36054 8.28958 3.16413C8.33359 2.53426 8.65255 2.04097 9.20111 1.75438C9.76078 1.462 10.2237 1.462 10.7834 1.75438ZM30.7965 1.75438C32.105 2.43795 31.9745 4.3345 30.5824 4.8661C29.4669 5.29216 28.219 4.36054 28.3027 3.16413C28.3467 2.53426 28.6656 2.04097 29.2142 1.75438C29.7739 1.462 30.2368 1.462 30.7965 1.75438ZM19.2364 4.97946C17.7102 5.25159 16.3763 6.22128 15.7175 7.53754C15.2347 8.50207 15.1266 9.11271 15.1699 10.6293C15.2078 11.9514 15.2595 12.2033 15.6743 13.0869C15.7804 13.3129 16.0032 13.6698 16.1695 13.8802L16.4719 14.2626L15.9487 14.3596C14.0854 14.7046 12.3035 15.8241 11.1622 17.3666C10.7564 17.915 10.6891 18.3718 10.9723 18.655C11.4065 19.0892 11.9239 18.9705 12.3988 18.3276C13.2119 17.2269 14.5581 16.3173 15.8617 15.9876C16.2088 15.8999 16.5027 15.84 16.5148 15.8547C16.5268 15.8693 17.1757 16.9758 17.9567 18.3136C18.7376 19.6514 19.449 20.8115 19.5376 20.8917C19.7976 21.1269 20.2656 21.086 20.5342 20.8046C20.6563 20.6766 21.3473 19.5516 22.0698 18.3047C22.7922 17.0578 23.4237 15.9933 23.4732 15.939C23.6121 15.7868 24.6369 16.0801 25.4708 16.5108C27.0923 17.3483 28.241 18.8743 28.6748 20.7673C29.1545 22.8604 29.5373 23.8412 30.3525 25.0658C31.1953 26.3317 32.3595 27.423 33.7066 28.2097C34.1505 28.469 34.2696 28.5835 34.3984 28.8746C34.7308 29.6261 34.2214 30.383 33.3833 30.383C32.7721 30.383 31.1224 29.2319 29.8759 27.9357C28.2409 26.2356 27.2317 24.3132 26.6874 21.8618C26.5165 21.0923 26.4537 20.9318 26.2518 20.7477C26.122 20.6295 25.9267 20.5328 25.8178 20.5328C25.5586 20.5328 25.1841 20.7297 25.0826 20.9193C25.0303 21.017 25.0021 22.5056 25.0021 25.1646V29.2596L24.7089 29.4004C24.5477 29.4778 23.4227 29.9948 22.2089 30.5492L20.0022 31.5572L17.792 30.5492C16.5764 29.9949 15.45 29.4779 15.2887 29.4004L14.9955 29.2596V25.1646C14.9955 22.5056 14.9673 21.017 14.915 20.9193C14.8143 20.7311 14.4395 20.5328 14.1845 20.5328C14.0782 20.5328 13.887 20.6205 13.7596 20.7277C13.5566 20.8985 13.4968 21.0556 13.276 21.998C12.7075 24.4241 11.7312 26.2621 10.1217 27.9357C8.8752 29.2319 7.22552 30.383 6.61434 30.383C5.77778 30.383 5.26682 29.626 5.59805 28.8773C5.7283 28.5828 5.84861 28.4709 6.36746 28.1617C7.90456 27.2454 9.7564 25.35 9.75742 24.6917C9.75788 24.4193 9.55924 24.0922 9.32995 23.9878C8.90053 23.7921 8.57352 23.9114 8.23431 24.3875C7.59647 25.2825 6.45252 26.2995 5.32796 26.9713C4.20886 27.6397 3.70979 28.7541 4.0067 29.9216C4.38883 31.4247 5.89958 32.2793 7.38047 31.8301C7.89487 31.674 7.8815 31.6688 7.8815 32.0272C7.8815 32.6824 8.39504 33.7765 8.95119 34.3061C9.35887 34.6943 10.0832 35.0648 11.0766 35.3934C11.6196 35.573 12.0852 35.7318 12.1112 35.7461C12.1373 35.7605 12.0896 35.9757 12.0052 36.2242C11.889 36.5672 11.86 36.8179 11.8854 37.264C11.9469 38.3475 12.5286 39.2278 13.4987 39.7054C13.9585 39.9317 14.0869 39.9593 14.6809 39.9591C15.3172 39.9588 15.4523 39.9236 17.6731 39.1784L19.9988 38.398L22.3245 39.1784C24.5453 39.9236 24.6804 39.9588 25.3167 39.9591C25.9107 39.9593 26.0391 39.9317 26.4989 39.7054C27.469 39.2278 28.0507 38.3475 28.1122 37.264C28.1376 36.8179 28.1086 36.5672 27.9924 36.2242C27.908 35.9757 27.8604 35.7605 27.8864 35.7461C27.9124 35.7318 28.3382 35.5871 28.8327 35.4248C30.3598 34.9236 30.9786 34.5307 31.5156 33.7217C31.8458 33.2242 32.1161 32.4614 32.1161 32.0272C32.1161 31.6688 32.1027 31.674 32.6171 31.8301C34.1022 32.2806 35.6077 31.429 35.9909 29.9216C36.1442 29.3187 36.0954 28.7834 35.836 28.2236C35.5639 27.6363 35.2396 27.317 34.3773 26.7871C32.9378 25.9024 31.6921 24.5297 31.0237 23.0912C30.6829 22.358 30.5817 22.0328 30.2051 20.4612C29.8766 19.0904 29.3944 18.0617 28.637 17.1156C27.5264 15.7285 25.7816 14.6805 24.049 14.3596L23.5257 14.2626L23.8281 13.8802C24.5423 12.9766 24.8463 11.9285 24.8444 10.3769C24.8427 9.07409 24.7161 8.42718 24.2961 7.57506C23.7257 6.41774 22.5735 5.4611 21.3374 5.11838C20.7065 4.94342 19.7814 4.88221 19.2364 4.97946ZM20.5546 6.54087C21.8836 6.79291 22.9306 7.81022 23.2122 9.12318C23.3509 9.77009 23.2656 11.5707 23.073 12.058C22.579 13.3081 21.5173 14.0878 20.182 14.181C18.8004 14.2776 17.4541 13.41 16.9366 12.0897C16.8026 11.7479 16.761 11.4415 16.7332 10.5948C16.6941 9.40665 16.7654 8.93548 17.0817 8.28944C17.575 7.28221 18.7705 6.5182 19.9295 6.46965C20.0419 6.46488 20.3232 6.49693 20.5546 6.54087ZM2.27518 12.3553C0.840098 12.8222 -0.115997 14.274 0.0113524 15.7929C0.107353 16.9381 0.965883 18.1048 2.01079 18.51L2.48078 18.6923L2.50361 20.9483L2.52644 23.2045L2.7458 23.3931C2.89629 23.5224 3.06053 23.5816 3.26911 23.5816C3.47768 23.5816 3.64193 23.5224 3.79242 23.3931L4.01178 23.2045L4.03461 20.9483L4.05744 18.6923L4.52743 18.51C4.83154 18.3921 5.16136 18.176 5.46203 17.8976C6.89015 16.5755 6.90148 14.4411 5.48759 13.1039C4.84639 12.4975 4.33801 12.2956 3.38637 12.2695C2.88073 12.2556 2.48821 12.286 2.27518 12.3553ZM35.7346 12.3553C34.2995 12.8222 33.3434 14.274 33.4707 15.7929C33.5667 16.9381 34.4253 18.1048 35.4702 18.51L35.9402 18.6923L35.963 20.9483L35.9858 23.2045L36.2052 23.3931C36.3557 23.5224 36.5199 23.5816 36.7285 23.5816C36.9371 23.5816 37.1013 23.5224 37.2518 23.3931L37.4712 23.2045L37.494 20.9483L37.5168 18.6923L37.9868 18.51C38.2909 18.3921 38.6208 18.176 38.9214 17.8976C40.3495 16.5755 40.3609 14.4411 38.947 13.1039C38.3058 12.4975 37.7974 12.2956 36.8458 12.2695C36.3401 12.2556 35.9476 12.286 35.7346 12.3553ZM4.04641 13.9637C5.02213 14.4614 5.27761 15.7358 4.57301 16.5906C3.93298 17.367 2.60524 17.367 1.96521 16.5906C1.71411 16.286 1.54923 15.8498 1.54923 15.4904C1.54923 14.8999 1.94613 14.247 2.475 13.9676C2.86978 13.759 3.64146 13.7571 4.04641 13.9637ZM37.5058 13.9637C38.4815 14.4614 38.737 15.7358 38.0324 16.5906C37.3924 17.367 36.0646 17.367 35.4246 16.5906C35.1735 16.286 35.0086 15.8498 35.0086 15.4904C35.0086 14.8999 35.4055 14.247 35.9344 13.9676C36.3292 13.759 37.1008 13.7571 37.5058 13.9637ZM21.6967 15.8226C21.415 16.3515 20.0395 18.6564 20.0058 18.6559C19.9804 18.6555 19.6693 18.1542 19.3142 17.5419C18.9592 16.9295 18.579 16.279 18.4694 16.0963L18.2701 15.764H19.999C20.9499 15.764 21.7138 15.7904 21.6967 15.8226ZM9.82988 20.9176C9.25466 21.4929 9.8273 22.4497 10.5948 22.1956C10.7148 22.1558 10.8948 22.0029 10.9946 21.8557C11.2245 21.5171 11.1767 21.2008 10.8512 20.9041C10.5235 20.6055 10.1368 20.6107 9.82988 20.9176ZM13.4016 28.4851C13.3824 28.5041 13.2041 28.4478 13.0052 28.3598C12.8063 28.2718 12.527 28.178 12.3846 28.1513L12.1257 28.1027L12.7593 27.1516L13.3929 26.2005L13.4147 27.3254C13.4265 27.9441 13.4207 28.4659 13.4016 28.4851ZM27.2301 28.2882C26.8861 28.4072 26.5959 28.5051 26.5851 28.5057C26.5744 28.5063 26.5656 27.9753 26.5656 27.3258V26.1449L27.2106 27.1083L27.8555 28.0718L27.2301 28.2882ZM15.0531 31.012C16.6971 31.7624 18.0427 32.3945 18.0433 32.4166C18.0439 32.4388 17.0155 32.9256 15.7581 33.4987L13.4718 34.5405L12.0251 34.0538C10.281 33.467 9.94324 33.2554 9.59794 32.5328C9.42517 32.1714 9.39702 31.4603 9.53696 30.9933C9.64539 30.6314 10.143 30.0394 10.4893 29.8603C10.8971 29.6495 11.1049 29.6056 11.5949 29.6271C12.0156 29.6455 12.3715 29.788 15.0531 31.012ZM29.429 29.8207C29.8432 30.0323 30.3428 30.6001 30.4606 30.9933C30.5749 31.3747 30.5798 32.0983 30.47 32.3909C30.3295 32.7657 30.0065 33.1758 29.6836 33.3895C29.3848 33.5872 15.4099 38.3234 14.858 38.414C14.4959 38.4734 13.9383 38.2389 13.7005 37.9273C13.3397 37.4541 13.3509 36.7603 13.7264 36.3139C13.9391 36.0612 14.1781 35.9385 16.6763 34.8008C17.3643 34.4874 20.0555 33.2548 22.6568 32.0617C25.2581 30.8685 27.5448 29.8263 27.7382 29.7456C28.1972 29.5541 28.9747 29.5887 29.429 29.8207ZM26.4606 36.6152C26.6213 36.9999 26.5645 37.56 26.3317 37.887C26.1313 38.1684 25.6299 38.4307 25.2873 38.4334C25.0724 38.435 24.273 38.1915 23.0542 37.7532L22.4745 37.5447L24.266 36.9407C25.2513 36.6085 26.1208 36.3339 26.1982 36.3305C26.2897 36.3265 26.3817 36.4263 26.4606 36.6152Z" fill="url(#paint0_radial_1199_66)" fill-opacity="0.7"/>
<path fill-rule="evenodd" clip-rule="evenodd" d="M9.13232 0.0927438C6.70894 0.769515 5.90865 3.82276 7.69575 5.57344C8.05091 5.9214 8.59963 6.25498 9.07369 6.4111C9.19955 6.45253 9.21049 6.62772 9.21049 8.6048C9.21049 10.1041 9.23872 10.8153 9.30392 10.9584C9.40601 11.1824 9.73381 11.3861 9.99226 11.3861C10.2187 11.3861 10.5847 11.1863 10.6668 11.0177C10.7043 10.9409 10.7525 9.88024 10.774 8.66077L10.8131 6.44346L11.204 6.29485C12.0264 5.98222 12.7077 5.29505 13.0547 4.42847C13.2986 3.81917 13.2986 2.69249 13.0547 2.08319C12.702 1.20222 12.0296 0.532406 11.1649 0.200549C10.5984 -0.0169373 9.69613 -0.0647812 9.13232 0.0927438ZM29.1454 0.0927438C26.722 0.769515 25.9217 3.82276 27.7088 5.57344C28.064 5.9214 28.6127 6.25498 29.0868 6.4111C29.2126 6.45253 29.2236 6.62772 29.2236 8.6048C29.2236 10.1041 29.2518 10.8153 29.317 10.9584C29.4191 11.1824 29.7469 11.3861 30.0054 11.3861C30.2317 11.3861 30.5978 11.1863 30.6799 11.0177C30.7174 10.9409 30.7656 9.88024 30.7871 8.66077L30.8262 6.44346L31.2171 6.29485C32.0395 5.98222 32.7208 5.29505 33.0677 4.42847C33.3117 3.81917 33.3117 2.69249 33.0677 2.08319C32.7151 1.20222 32.0427 0.532406 31.178 0.200549C30.6115 -0.0169373 29.7092 -0.0647812 29.1454 0.0927438ZM10.7834 1.75438C12.0919 2.43795 11.9614 4.3345 10.5694 4.8661C9.45386 5.29216 8.20593 4.36054 8.28958 3.16413C8.33359 2.53426 8.65255 2.04097 9.20111 1.75438C9.76078 1.462 10.2237 1.462 10.7834 1.75438ZM30.7965 1.75438C32.105 2.43795 31.9745 4.3345 30.5824 4.8661C29.4669 5.29216 28.219 4.36054 28.3027 3.16413C28.3467 2.53426 28.6656 2.04097 29.2142 1.75438C29.7739 1.462 30.2368 1.462 30.7965 1.75438ZM19.2364 4.97946C17.7102 5.25159 16.3763 6.22128 15.7175 7.53754C15.2347 8.50207 15.1266 9.11271 15.1699 10.6293C15.2078 11.9514 15.2595 12.2033 15.6743 13.0869C15.7804 13.3129 16.0032 13.6698 16.1695 13.8802L16.4719 14.2626L15.9487 14.3596C14.0854 14.7046 12.3035 15.8241 11.1622 17.3666C10.7564 17.915 10.6891 18.3718 10.9723 18.655C11.4065 19.0892 11.9239 18.9705 12.3988 18.3276C13.2119 17.2269 14.5581 16.3173 15.8617 15.9876C16.2088 15.8999 16.5027 15.84 16.5148 15.8547C16.5268 15.8693 17.1757 16.9758 17.9567 18.3136C18.7376 19.6514 19.449 20.8115 19.5376 20.8917C19.7976 21.1269 20.2656 21.086 20.5342 20.8046C20.6563 20.6766 21.3473 19.5516 22.0698 18.3047C22.7922 17.0578 23.4237 15.9933 23.4732 15.939C23.6121 15.7868 24.6369 16.0801 25.4708 16.5108C27.0923 17.3483 28.241 18.8743 28.6748 20.7673C29.1545 22.8604 29.5373 23.8412 30.3525 25.0658C31.1953 26.3317 32.3595 27.423 33.7066 28.2097C34.1505 28.469 34.2696 28.5835 34.3984 28.8746C34.7308 29.6261 34.2214 30.383 33.3833 30.383C32.7721 30.383 31.1224 29.2319 29.8759 27.9357C28.2409 26.2356 27.2317 24.3132 26.6874 21.8618C26.5165 21.0923 26.4537 20.9318 26.2518 20.7477C26.122 20.6295 25.9267 20.5328 25.8178 20.5328C25.5586 20.5328 25.1841 20.7297 25.0826 20.9193C25.0303 21.017 25.0021 22.5056 25.0021 25.1646V29.2596L24.7089 29.4004C24.5477 29.4778 23.4227 29.9948 22.2089 30.5492L20.0022 31.5572L17.792 30.5492C16.5764 29.9949 15.45 29.4779 15.2887 29.4004L14.9955 29.2596V25.1646C14.9955 22.5056 14.9673 21.017 14.915 20.9193C14.8143 20.7311 14.4395 20.5328 14.1845 20.5328C14.0782 20.5328 13.887 20.6205 13.7596 20.7277C13.5566 20.8985 13.4968 21.0556 13.276 21.998C12.7075 24.4241 11.7312 26.2621 10.1217 27.9357C8.8752 29.2319 7.22552 30.383 6.61434 30.383C5.77778 30.383 5.26682 29.626 5.59805 28.8773C5.7283 28.5828 5.84861 28.4709 6.36746 28.1617C7.90456 27.2454 9.7564 25.35 9.75742 24.6917C9.75788 24.4193 9.55924 24.0922 9.32995 23.9878C8.90053 23.7921 8.57352 23.9114 8.23431 24.3875C7.59647 25.2825 6.45252 26.2995 5.32796 26.9713C4.20886 27.6397 3.70979 28.7541 4.0067 29.9216C4.38883 31.4247 5.89958 32.2793 7.38047 31.8301C7.89487 31.674 7.8815 31.6688 7.8815 32.0272C7.8815 32.6824 8.39504 33.7765 8.95119 34.3061C9.35887 34.6943 10.0832 35.0648 11.0766 35.3934C11.6196 35.573 12.0852 35.7318 12.1112 35.7461C12.1373 35.7605 12.0896 35.9757 12.0052 36.2242C11.889 36.5672 11.86 36.8179 11.8854 37.264C11.9469 38.3475 12.5286 39.2278 13.4987 39.7054C13.9585 39.9317 14.0869 39.9593 14.6809 39.9591C15.3172 39.9588 15.4523 39.9236 17.6731 39.1784L19.9988 38.398L22.3245 39.1784C24.5453 39.9236 24.6804 39.9588 25.3167 39.9591C25.9107 39.9593 26.0391 39.9317 26.4989 39.7054C27.469 39.2278 28.0507 38.3475 28.1122 37.264C28.1376 36.8179 28.1086 36.5672 27.9924 36.2242C27.908 35.9757 27.8604 35.7605 27.8864 35.7461C27.9124 35.7318 28.3382 35.5871 28.8327 35.4248C30.3598 34.9236 30.9786 34.5307 31.5156 33.7217C31.8458 33.2242 32.1161 32.4614 32.1161 32.0272C32.1161 31.6688 32.1027 31.674 32.6171 31.8301C34.1022 32.2806 35.6077 31.429 35.9909 29.9216C36.1442 29.3187 36.0954 28.7834 35.836 28.2236C35.5639 27.6363 35.2396 27.317 34.3773 26.7871C32.9378 25.9024 31.6921 24.5297 31.0237 23.0912C30.6829 22.358 30.5817 22.0328 30.2051 20.4612C29.8766 19.0904 29.3944 18.0617 28.637 17.1156C27.5264 15.7285 25.7816 14.6805 24.049 14.3596L23.5257 14.2626L23.8281 13.8802C24.5423 12.9766 24.8463 11.9285 24.8444 10.3769C24.8427 9.07409 24.7161 8.42718 24.2961 7.57506C23.7257 6.41774 22.5735 5.4611 21.3374 5.11838C20.7065 4.94342 19.7814 4.88221 19.2364 4.97946ZM20.5546 6.54087C21.8836 6.79291 22.9306 7.81022 23.2122 9.12318C23.3509 9.77009 23.2656 11.5707 23.073 12.058C22.579 13.3081 21.5173 14.0878 20.182 14.181C18.8004 14.2776 17.4541 13.41 16.9366 12.0897C16.8026 11.7479 16.761 11.4415 16.7332 10.5948C16.6941 9.40665 16.7654 8.93548 17.0817 8.28944C17.575 7.28221 18.7705 6.5182 19.9295 6.46965C20.0419 6.46488 20.3232 6.49693 20.5546 6.54087ZM2.27518 12.3553C0.840098 12.8222 -0.115997 14.274 0.0113524 15.7929C0.107353 16.9381 0.965883 18.1048 2.01079 18.51L2.48078 18.6923L2.50361 20.9483L2.52644 23.2045L2.7458 23.3931C2.89629 23.5224 3.06053 23.5816 3.26911 23.5816C3.47768 23.5816 3.64193 23.5224 3.79242 23.3931L4.01178 23.2045L4.03461 20.9483L4.05744 18.6923L4.52743 18.51C4.83154 18.3921 5.16136 18.176 5.46203 17.8976C6.89015 16.5755 6.90148 14.4411 5.48759 13.1039C4.84639 12.4975 4.33801 12.2956 3.38637 12.2695C2.88073 12.2556 2.48821 12.286 2.27518 12.3553ZM35.7346 12.3553C34.2995 12.8222 33.3434 14.274 33.4707 15.7929C33.5667 16.9381 34.4253 18.1048 35.4702 18.51L35.9402 18.6923L35.963 20.9483L35.9858 23.2045L36.2052 23.3931C36.3557 23.5224 36.5199 23.5816 36.7285 23.5816C36.9371 23.5816 37.1013 23.5224 37.2518 23.3931L37.4712 23.2045L37.494 20.9483L37.5168 18.6923L37.9868 18.51C38.2909 18.3921 38.6208 18.176 38.9214 17.8976C40.3495 16.5755 40.3609 14.4411 38.947 13.1039C38.3058 12.4975 37.7974 12.2956 36.8458 12.2695C36.3401 12.2556 35.9476 12.286 35.7346 12.3553ZM4.04641 13.9637C5.02213 14.4614 5.27761 15.7358 4.57301 16.5906C3.93298 17.367 2.60524 17.367 1.96521 16.5906C1.71411 16.286 1.54923 15.8498 1.54923 15.4904C1.54923 14.8999 1.94613 14.247 2.475 13.9676C2.86978 13.759 3.64146 13.7571 4.04641 13.9637ZM37.5058 13.9637C38.4815 14.4614 38.737 15.7358 38.0324 16.5906C37.3924 17.367 36.0646 17.367 35.4246 16.5906C35.1735 16.286 35.0086 15.8498 35.0086 15.4904C35.0086 14.8999 35.4055 14.247 35.9344 13.9676C36.3292 13.759 37.1008 13.7571 37.5058 13.9637ZM21.6967 15.8226C21.415 16.3515 20.0395 18.6564 20.0058 18.6559C19.9804 18.6555 19.6693 18.1542 19.3142 17.5419C18.9592 16.9295 18.579 16.279 18.4694 16.0963L18.2701 15.764H19.999C20.9499 15.764 21.7138 15.7904 21.6967 15.8226ZM9.82988 20.9176C9.25466 21.4929 9.8273 22.4497 10.5948 22.1956C10.7148 22.1558 10.8948 22.0029 10.9946 21.8557C11.2245 21.5171 11.1767 21.2008 10.8512 20.9041C10.5235 20.6055 10.1368 20.6107 9.82988 20.9176ZM13.4016 28.4851C13.3824 28.5041 13.2041 28.4478 13.0052 28.3598C12.8063 28.2718 12.527 28.178 12.3846 28.1513L12.1257 28.1027L12.7593 27.1516L13.3929 26.2005L13.4147 27.3254C13.4265 27.9441 13.4207 28.4659 13.4016 28.4851ZM27.2301 28.2882C26.8861 28.4072 26.5959 28.5051 26.5851 28.5057C26.5744 28.5063 26.5656 27.9753 26.5656 27.3258V26.1449L27.2106 27.1083L27.8555 28.0718L27.2301 28.2882ZM15.0531 31.012C16.6971 31.7624 18.0427 32.3945 18.0433 32.4166C18.0439 32.4388 17.0155 32.9256 15.7581 33.4987L13.4718 34.5405L12.0251 34.0538C10.281 33.467 9.94324 33.2554 9.59794 32.5328C9.42517 32.1714 9.39702 31.4603 9.53696 30.9933C9.64539 30.6314 10.143 30.0394 10.4893 29.8603C10.8971 29.6495 11.1049 29.6056 11.5949 29.6271C12.0156 29.6455 12.3715 29.788 15.0531 31.012ZM29.429 29.8207C29.8432 30.0323 30.3428 30.6001 30.4606 30.9933C30.5749 31.3747 30.5798 32.0983 30.47 32.3909C30.3295 32.7657 30.0065 33.1758 29.6836 33.3895C29.3848 33.5872 15.4099 38.3234 14.858 38.414C14.4959 38.4734 13.9383 38.2389 13.7005 37.9273C13.3397 37.4541 13.3509 36.7603 13.7264 36.3139C13.9391 36.0612 14.1781 35.9385 16.6763 34.8008C17.3643 34.4874 20.0555 33.2548 22.6568 32.0617C25.2581 30.8685 27.5448 29.8263 27.7382 29.7456C28.1972 29.5541 28.9747 29.5887 29.429 29.8207ZM26.4606 36.6152C26.6213 36.9999 26.5645 37.56 26.3317 37.887C26.1313 38.1684 25.6299 38.4307 25.2873 38.4334C25.0724 38.435 24.273 38.1915 23.0542 37.7532L22.4745 37.5447L24.266 36.9407C25.2513 36.6085 26.1208 36.3339 26.1982 36.3305C26.2897 36.3265 26.3817 36.4263 26.4606 36.6152Z" fill="url(#paint1_radial_1199_66)"/>
<defs>
<radialGradient id="paint0_radial_1199_66" cx="0" cy="0" r="1" gradientUnits="userSpaceOnUse" gradientTransform="translate(10.5556 8.32481) rotate(51.0154) scale(33.557 33.5642)">
<stop stop-color="white" stop-opacity="0.59"/>
<stop offset="0.697917" stop-color="white" stop-opacity="0"/>
<stop offset="1" stop-color="white" stop-opacity="0"/>
</radialGradient>
<radialGradient id="paint1_radial_1199_66" cx="0" cy="0" r="1" gradientUnits="userSpaceOnUse" gradientTransform="translate(34.5205 34.9642) rotate(-93.6742) scale(34.202 38.1583)">
<stop stop-opacity="0.23"/>
<stop offset="0.861815" stop-opacity="0"/>
</radialGradient>
</defs>
</svg>
