<svg width="40" height="40" viewBox="0 0 40 40" fill="none" xmlns="http://www.w3.org/2000/svg">
<path fill-rule="evenodd" clip-rule="evenodd" d="M10.6663 0.122667C10.1981 0.288775 9.74857 0.710254 9.53451 1.1839C9.3488 1.59491 9.34755 1.61584 9.32342 4.77971L9.29913 7.96208H5.7259C3.50737 7.96208 1.98015 7.99394 1.69768 8.04619C0.925709 8.18887 0.388884 8.64111 0.13406 9.36341C-0.0418096 9.86174 -0.0460267 27.2968 0.129609 27.6364C0.325784 28.0157 0.835275 28.0787 1.15125 27.7627L1.34297 27.571V18.7389C1.34297 8.90226 1.30775 9.52804 1.87027 9.37185C2.05332 9.32101 3.50058 9.2904 5.73425 9.29016L9.30546 9.28969L9.32662 16.4422L9.34771 23.5947L9.56684 23.7831C9.84689 24.024 10.1761 24.024 10.4562 23.7831L10.6753 23.5946L10.7155 12.596C10.7375 6.54676 10.7639 1.58945 10.774 1.57984C10.7842 1.57016 10.8962 1.5087 11.0228 1.44318C11.2253 1.33845 12.3132 1.324 20.0077 1.324C27.7021 1.324 28.79 1.33845 28.9925 1.44318C29.1192 1.5087 29.2312 1.57016 29.2413 1.57984C29.2515 1.58945 29.2779 6.54676 29.2999 12.596L29.34 23.5946L29.5592 23.7831C29.8392 24.024 30.1685 24.024 30.4485 23.7831L30.6676 23.5947L30.6887 16.4422L30.7099 9.28969L34.2811 9.29016C36.5148 9.2904 37.962 9.32101 38.1451 9.37185C38.7083 9.52827 38.6724 8.86806 38.6724 19.0537V28.2007L38.9007 28.429C39.1969 28.7252 39.4755 28.7252 39.7717 28.429L40 28.2007V18.9503C40 10.8742 39.9849 9.65713 39.8813 9.36341C39.6265 8.64111 39.0896 8.18887 38.3177 8.04619C38.0352 7.99394 36.508 7.96208 34.2895 7.96208H30.7162L30.6919 4.77971C30.6678 1.61584 30.6666 1.59491 30.4808 1.1839C30.3771 0.954457 30.156 0.652308 29.9837 0.504864C29.3553 -0.0330541 29.9283 -0.0042371 19.9743 0.00255717C12.3077 0.00778953 10.9405 0.025439 10.6663 0.122667ZM14.3864 2.75111C13.9788 2.95908 13.9148 3.44647 14.248 3.80352L14.4121 3.97923H19.5527H24.6934V4.64304V5.30685H19.7069C16.2589 5.30685 14.6439 5.33356 14.4722 5.39338C14.1351 5.51091 13.9548 5.86203 14.0668 6.18307C14.2301 6.6518 13.932 6.62931 20.0124 6.63196C25.4912 6.63439 25.6044 6.63142 25.7684 6.47859C26.0042 6.2589 26.0348 5.99596 26.0067 4.42906C25.9831 3.11058 25.9737 3.03772 25.8041 2.86833L25.6262 2.69067L20.1032 2.67145C15.7714 2.65638 14.5383 2.67356 14.3864 2.75111ZM13.0944 8.06798C12.7131 8.23916 12.6667 8.44838 12.6667 10.0001C12.6667 11.6237 12.7159 11.8051 13.1951 11.9487C13.3805 12.0042 13.9949 12.0268 14.8675 12.0102C16.2025 11.9848 16.2533 11.9779 16.4483 11.7947L16.6496 11.6053V9.99255V8.37981L16.4483 8.19043C16.2518 8.00573 16.2116 8.00066 14.7887 7.98152C13.6933 7.96676 13.2718 7.98824 13.0944 8.06798ZM18.4848 8.03346C18.3989 8.07001 18.2583 8.17793 18.1724 8.27344C18.0273 8.43479 18.0163 8.55701 18.0163 9.99895V11.5509L18.2328 11.7674L18.4493 11.984H20.0077H21.5661L21.7825 11.7674L21.9991 11.5509V9.99255V8.43416L21.7828 8.21768L21.5664 8.00113L20.1037 7.9841C19.2992 7.97481 18.5707 7.99699 18.4848 8.03346ZM23.8734 8.01799C23.7875 8.03877 23.6382 8.12865 23.5415 8.21776C23.3701 8.37575 23.3658 8.4201 23.3658 9.99255V11.6053L23.5671 11.7947C23.762 11.9779 23.8129 11.9848 25.1478 12.0102C26.7389 12.0405 27.0505 11.9825 27.2374 11.6211C27.3803 11.3446 27.3364 11.0737 27.1124 10.8496C26.973 10.7102 26.8491 10.6954 25.8258 10.6954H24.6934V9.99255V9.28969H25.7919C26.396 9.28969 26.9534 9.25588 27.0307 9.21457C27.2711 9.08587 27.3843 8.70531 27.2665 8.42104C27.1021 8.02409 26.8313 7.96083 25.3402 7.97114C24.6193 7.97613 23.9593 7.99722 23.8734 8.01799ZM15.322 9.99567V10.7017L14.6777 10.679L14.0334 10.6564L14.0102 10.078C13.9975 9.75982 14.0051 9.45236 14.0273 9.39465C14.0564 9.31882 14.2418 9.28969 14.6948 9.28969H15.322V9.99567ZM20.6715 9.99255V10.6564H20.0077H19.3439L19.3207 10.078C19.3079 9.75982 19.3161 9.45088 19.3389 9.39145C19.3707 9.30875 19.5323 9.28868 20.026 9.30602L20.6715 9.32874V9.99255ZM3.00085 10.7477C2.73291 10.8555 2.67059 11.2123 2.67059 12.6388C2.67059 13.4113 2.70549 14.1352 2.74821 14.2474C2.89987 14.6465 3.17172 14.6877 5.48185 14.6623L7.57823 14.6392L7.77964 14.4499L7.98105 14.2605V12.6478C7.98105 11.0629 7.97792 11.0321 7.80033 10.8652C7.62298 10.6986 7.57667 10.6955 5.35987 10.7016C4.11698 10.7049 3.05544 10.7257 3.00085 10.7477ZM32.2041 10.8761C32.0412 11.0496 32.0343 11.1216 32.0343 12.6587V14.2605L32.2357 14.4499L32.4371 14.6392L34.5335 14.6623C36.2571 14.6812 36.6797 14.6646 36.9098 14.5684C37.3734 14.3747 37.4645 13.8533 37.0948 13.509C36.9344 13.3595 36.825 13.3506 35.1433 13.3506H33.3619V12.6868V12.023H35.0044C36.8506 12.023 37.093 11.9737 37.2627 11.5641C37.3805 11.2798 37.2673 10.8992 37.0268 10.7705C36.9462 10.7274 35.9252 10.6954 34.6302 10.6954H32.3739L32.2041 10.8761ZM6.65343 12.6868V13.3506H5.32582H3.9982V12.6868V12.023H5.32582H6.65343V12.6868ZM13.3178 13.5458C13.1073 13.6728 12.9352 13.8605 12.8297 14.0786C12.6806 14.3865 12.6668 14.551 12.6681 16.011C12.6696 17.7797 12.7526 18.3621 13.1088 19.1042C13.3994 19.7096 14.2813 20.598 14.8625 20.8709L15.3013 21.0768L15.3556 21.6287C15.4536 22.6224 15.803 23.4999 16.4027 24.2587L16.7158 24.6548L15.8822 24.6944C14.8778 24.7421 14.2207 24.9342 13.5262 25.3831C12.8045 25.8496 12.2439 26.471 11.8815 27.2065C11.3414 28.3023 11.342 28.2946 11.3405 34.2275L11.3391 39.5245L11.5674 39.7528C11.8111 39.9964 12.0259 40.0366 12.3009 39.8902C12.6715 39.6929 12.6616 39.8417 12.6647 34.3972C12.6664 31.4123 12.6999 29.0458 12.7443 28.7744C12.9182 27.7111 13.605 26.8134 14.6191 26.3239L15.2048 26.0411H20.0077H24.8105L25.3962 26.3239C26.4104 26.8134 27.0971 27.7111 27.2711 28.7744C27.3154 29.0458 27.3489 31.4123 27.3506 34.3972C27.3538 39.8417 27.3438 39.6929 27.7144 39.8902C27.9895 40.0366 28.2043 39.9964 28.448 39.7528L28.6762 39.5245L28.6749 34.2275C28.6733 28.2946 28.674 28.3023 28.1339 27.2065C27.7714 26.471 27.2108 25.8496 26.4892 25.3831C25.7947 24.9342 25.1375 24.7421 24.1331 24.6944L23.2995 24.6548L23.6126 24.2587C24.2124 23.4999 24.5618 22.6224 24.6597 21.6287L24.7141 21.0768L25.1528 20.8709C25.75 20.5905 26.6242 19.706 26.9123 19.0906C27.2584 18.3513 27.3902 17.5701 27.2882 16.863C27.0625 15.2986 26.1734 14.1599 24.7199 13.5737L24.2639 13.3897L18.9534 13.3697L13.6429 13.3498L13.3178 13.5458ZM24.3905 14.8842C25.1448 15.233 25.7047 15.9075 25.9123 16.7175C26.1424 17.6159 25.8121 18.6626 25.1005 19.2896L24.7324 19.6139L24.6934 18.376C24.6506 17.0195 24.6022 16.852 24.2148 16.7169C23.87 16.5967 16.1453 16.5967 15.8005 16.7169C15.4124 16.8523 15.3648 17.0187 15.322 18.3878L15.2829 19.6373L14.8831 19.2651C14.6277 19.0274 14.402 18.717 14.2587 18.406C14.0381 17.9273 14.0339 17.8921 14.0075 16.2965L13.9806 14.6738L19.0051 14.6956C23.9493 14.717 24.0353 14.72 24.3905 14.8842ZM2.89894 16.2074C2.71127 16.4071 2.70963 16.423 2.70963 18.0103V19.6117L2.92877 19.8003L3.1479 19.9887H5.29497C7.86961 19.9887 7.98105 19.9591 7.98105 19.2759C7.98105 19.1343 7.90662 18.97 7.78932 18.8528L7.59768 18.6611H5.7979H3.9982V17.9973V17.3335H5.72145C7.46632 17.3335 7.66828 17.3049 7.88093 17.0279C8.04485 16.8144 8.00002 16.4082 7.78932 16.1976L7.59768 16.0059H5.343H3.08832L2.89894 16.2074ZM32.226 16.1976C32.0352 16.3883 32.0343 16.3971 32.0343 17.9483C32.0343 18.8058 32.0562 19.5643 32.0828 19.6338C32.205 19.9522 32.4762 19.9887 34.7204 19.9887H36.8675L37.0866 19.8003L37.3057 19.6117V18.0103C37.3057 16.423 37.3041 16.4071 37.1164 16.2074L36.927 16.0059H34.6724H32.4177L32.226 16.1976ZM36.0172 17.9973V18.6611H34.6895H33.3619V17.9973V17.3335H34.6895H36.0172V17.9973ZM23.3479 19.596C23.3596 20.4752 23.3359 21.4342 23.2953 21.7269C23.0396 23.5723 21.3599 24.8537 19.5347 24.5957C18.1036 24.3934 16.9332 23.2166 16.7239 21.7697C16.6415 21.1998 16.6237 18.0882 16.7025 18.0095C16.7316 17.9803 18.2339 17.9657 20.041 17.9769L23.3267 17.9973L23.3479 19.596ZM3.06106 21.4174C2.63693 21.6319 2.58578 22.1921 2.96321 22.489C3.14923 22.6353 3.28433 22.6439 5.37892 22.6439H7.59768L7.78932 22.4522C8.10537 22.1362 8.04235 21.6268 7.66304 21.4306C7.36355 21.2757 3.36384 21.2642 3.06106 21.4174ZM32.3857 21.4046C31.9814 21.6307 31.9051 22.1313 32.226 22.4522L32.4177 22.6439H34.6426H36.8675L37.0827 22.4589C37.3609 22.2195 37.3802 21.7858 37.1241 21.5294C36.9534 21.3587 36.9088 21.355 34.7461 21.3363C33.2331 21.3233 32.493 21.3447 32.3857 21.4046ZM5.16963 25.3543C5.1052 25.3779 4.97337 25.4691 4.87677 25.557C4.7155 25.7038 4.70106 25.7854 4.70106 26.5519V27.3869L4.31292 27.5482C4.09941 27.6369 3.75251 27.8706 3.54205 28.0675C2.43216 29.1057 2.43224 30.8641 3.54228 31.9025C4.02811 32.3569 4.47263 32.5527 5.20461 32.6348C5.9013 32.713 6.23882 32.8998 6.48974 33.3463C6.63672 33.6078 6.66483 33.7515 6.63625 34.0953C6.57823 34.7958 6.15386 35.2201 5.45342 35.2781C4.70402 35.3403 4.13167 34.8618 4.02507 34.0841C3.95939 33.6054 3.72135 33.343 3.35267 33.343C3.05005 33.343 2.77516 33.5619 2.69956 33.863C2.63755 34.11 2.7768 34.7506 2.98726 35.1863C3.2167 35.6614 3.78039 36.192 4.27216 36.3958L4.70106 36.5736V37.4035C4.70106 38.1293 4.72097 38.2548 4.85943 38.4034C5.07193 38.6315 5.34596 38.6897 5.61063 38.5628C5.94105 38.4044 6.02609 38.1527 6.02852 37.3258L6.0307 36.5839L6.50161 36.3577C7.02579 36.106 7.48382 35.6396 7.76261 35.0737C7.91248 34.7695 7.94153 34.5876 7.93911 33.9677C7.93661 33.3226 7.90951 33.1745 7.73161 32.8327C7.2689 31.9438 6.53449 31.456 5.45983 31.3237C4.78392 31.2405 4.57915 31.137 4.25849 30.7166C4.07817 30.4801 4.03983 30.352 4.03983 29.9849C4.03983 29.6177 4.07817 29.4896 4.25849 29.2531C4.54307 28.8801 4.779 28.731 5.16728 28.6789C5.59329 28.6217 6.13449 28.8359 6.38104 29.1592C6.52848 29.3525 6.73153 29.9936 6.73153 30.2659C6.73153 30.2798 6.80845 30.3628 6.90248 30.4504C7.14809 30.6793 7.59096 30.6634 7.8222 30.4173C7.98269 30.2464 7.99846 30.17 7.96301 29.7339C7.88803 28.8097 7.36738 28.0453 6.53301 27.6346L6.02867 27.3863V26.6512C6.02867 25.7967 5.92238 25.5153 5.55081 25.3857C5.41422 25.3381 5.29895 25.302 5.29466 25.3053C5.29028 25.3087 5.23405 25.3308 5.16963 25.3543ZM18.247 28.849C18.0523 29.0437 18.0266 29.1375 18.0542 29.5553C18.0719 29.8242 18.3403 30.4897 18.4767 30.6029C18.5464 30.6608 18.498 31.166 18.2762 32.6944L17.9838 34.7096L18.1398 35.022C18.2256 35.1938 18.5843 35.7541 18.937 36.2672C19.9395 37.7256 20.1012 37.7083 21.2132 36.0227C21.86 35.0422 21.9597 34.8471 21.9576 34.5658C21.9564 34.3872 21.8393 33.4409 21.6977 32.4629C21.4969 31.0771 21.461 30.6673 21.5353 30.6057C21.7655 30.4146 21.9963 29.6551 21.9683 29.1809C21.9552 28.959 21.6025 28.6573 21.3562 28.6573C21.012 28.6573 20.8111 28.8523 20.6757 29.3181C20.4948 29.9402 20.1778 30.1172 19.6933 29.8667C19.5173 29.7757 19.4362 29.6501 19.3404 29.3207C19.1481 28.6591 18.6512 28.4448 18.247 28.849ZM34.3105 29.3606C33.2838 29.5787 32.6606 30.4112 32.6595 31.5663L32.6591 32.0153H32.124C31.5138 32.0153 31.1928 32.1762 30.8818 32.6377L30.7017 32.9049L30.7237 36.0468C30.7487 39.6113 30.7196 39.4519 31.4111 39.8053C31.7529 39.98 31.7764 39.981 35.3334 39.981C38.1981 39.981 38.9618 39.9596 39.163 39.8735C39.4669 39.7435 39.8039 39.3966 39.9169 39.0974C39.9703 38.9561 39.9994 37.8397 39.9983 35.9736C39.9967 33.3105 39.9845 33.0431 39.8512 32.7495C39.629 32.2603 39.2996 32.0681 38.5979 32.0182L38.0086 31.9763L37.9624 31.3028C37.9283 30.8036 37.8719 30.5575 37.7447 30.3516C37.5251 29.9963 37.0816 29.607 36.7282 29.4594C36.3952 29.3202 34.8064 29.2553 34.3105 29.3606ZM14.8591 29.5659C14.6992 29.7691 14.6972 29.8327 14.6972 34.6664C14.6972 39.4754 14.6999 39.5641 14.8556 39.731C15.1871 40.0869 15.7078 40.0173 15.9249 39.5882C15.9998 39.4403 16.0228 38.2882 16.0237 34.6471C16.0249 29.6277 16.0191 29.5426 15.6699 29.4086C15.3671 29.2924 15.0215 29.3595 14.8591 29.5659ZM24.3208 29.4124C24.2662 29.4344 24.1695 29.5528 24.106 29.6757C24.0078 29.8657 23.9907 30.6078 23.9917 34.6471C23.9926 38.2882 24.0156 39.4403 24.0904 39.5882C24.3076 40.0173 24.8282 40.0869 25.1598 39.731C25.3154 39.5641 25.3181 39.4754 25.3181 34.6664C25.3181 29.8327 25.3161 29.7691 25.1562 29.5659C25.0315 29.4071 24.9288 29.3615 24.7072 29.3663C24.5493 29.3696 24.3754 29.3904 24.3208 29.4124ZM36.48 30.8935C36.6022 31.0488 36.6419 31.2121 36.6419 31.5592V32.0191L35.3338 31.9977L34.0257 31.9763L33.9998 31.7492C33.9601 31.4002 34.0574 31.0075 34.2253 30.8395C34.3594 30.7055 34.4906 30.6877 35.3476 30.6877C36.3031 30.6877 36.3207 30.6909 36.48 30.8935ZM20.41 32.7182C20.527 33.4699 20.6249 34.1877 20.6276 34.3134C20.6321 34.5261 20.1365 35.3734 20.0077 35.3734C19.903 35.3734 19.3829 34.5369 19.3829 34.3684C19.3829 34.1783 19.766 31.571 19.8183 31.4046C19.8362 31.3479 19.9287 31.3128 20.024 31.3265C20.1857 31.3499 20.2114 31.4425 20.41 32.7182ZM38.6724 35.9982V38.6534H35.3533H32.0343V37.3258V35.9982H34.0207C36.0281 35.9982 36.3384 35.9617 36.5355 35.7023C36.705 35.4791 36.6641 35.0761 36.4502 34.8623L36.2585 34.6706H34.1464H32.0343V34.0068V33.343H35.3533H38.6724V35.9982Z" fill="#0066FF"/>
<path fill-rule="evenodd" clip-rule="evenodd" d="M10.6663 0.122667C10.1981 0.288775 9.74857 0.710254 9.53451 1.1839C9.3488 1.59491 9.34755 1.61584 9.32342 4.77971L9.29913 7.96208H5.7259C3.50737 7.96208 1.98015 7.99394 1.69768 8.04619C0.925709 8.18887 0.388884 8.64111 0.13406 9.36341C-0.0418096 9.86174 -0.0460267 27.2968 0.129609 27.6364C0.325784 28.0157 0.835275 28.0787 1.15125 27.7627L1.34297 27.571V18.7389C1.34297 8.90226 1.30775 9.52804 1.87027 9.37185C2.05332 9.32101 3.50058 9.2904 5.73425 9.29016L9.30546 9.28969L9.32662 16.4422L9.34771 23.5947L9.56684 23.7831C9.84689 24.024 10.1761 24.024 10.4562 23.7831L10.6753 23.5946L10.7155 12.596C10.7375 6.54676 10.7639 1.58945 10.774 1.57984C10.7842 1.57016 10.8962 1.5087 11.0228 1.44318C11.2253 1.33845 12.3132 1.324 20.0077 1.324C27.7021 1.324 28.79 1.33845 28.9925 1.44318C29.1192 1.5087 29.2312 1.57016 29.2413 1.57984C29.2515 1.58945 29.2779 6.54676 29.2999 12.596L29.34 23.5946L29.5592 23.7831C29.8392 24.024 30.1685 24.024 30.4485 23.7831L30.6676 23.5947L30.6887 16.4422L30.7099 9.28969L34.2811 9.29016C36.5148 9.2904 37.962 9.32101 38.1451 9.37185C38.7083 9.52827 38.6724 8.86806 38.6724 19.0537V28.2007L38.9007 28.429C39.1969 28.7252 39.4755 28.7252 39.7717 28.429L40 28.2007V18.9503C40 10.8742 39.9849 9.65713 39.8813 9.36341C39.6265 8.64111 39.0896 8.18887 38.3177 8.04619C38.0352 7.99394 36.508 7.96208 34.2895 7.96208H30.7162L30.6919 4.77971C30.6678 1.61584 30.6666 1.59491 30.4808 1.1839C30.3771 0.954457 30.156 0.652308 29.9837 0.504864C29.3553 -0.0330541 29.9283 -0.0042371 19.9743 0.00255717C12.3077 0.00778953 10.9405 0.025439 10.6663 0.122667ZM14.3864 2.75111C13.9788 2.95908 13.9148 3.44647 14.248 3.80352L14.4121 3.97923H19.5527H24.6934V4.64304V5.30685H19.7069C16.2589 5.30685 14.6439 5.33356 14.4722 5.39338C14.1351 5.51091 13.9548 5.86203 14.0668 6.18307C14.2301 6.6518 13.932 6.62931 20.0124 6.63196C25.4912 6.63439 25.6044 6.63142 25.7684 6.47859C26.0042 6.2589 26.0348 5.99596 26.0067 4.42906C25.9831 3.11058 25.9737 3.03772 25.8041 2.86833L25.6262 2.69067L20.1032 2.67145C15.7714 2.65638 14.5383 2.67356 14.3864 2.75111ZM13.0944 8.06798C12.7131 8.23916 12.6667 8.44838 12.6667 10.0001C12.6667 11.6237 12.7159 11.8051 13.1951 11.9487C13.3805 12.0042 13.9949 12.0268 14.8675 12.0102C16.2025 11.9848 16.2533 11.9779 16.4483 11.7947L16.6496 11.6053V9.99255V8.37981L16.4483 8.19043C16.2518 8.00573 16.2116 8.00066 14.7887 7.98152C13.6933 7.96676 13.2718 7.98824 13.0944 8.06798ZM18.4848 8.03346C18.3989 8.07001 18.2583 8.17793 18.1724 8.27344C18.0273 8.43479 18.0163 8.55701 18.0163 9.99895V11.5509L18.2328 11.7674L18.4493 11.984H20.0077H21.5661L21.7825 11.7674L21.9991 11.5509V9.99255V8.43416L21.7828 8.21768L21.5664 8.00113L20.1037 7.9841C19.2992 7.97481 18.5707 7.99699 18.4848 8.03346ZM23.8734 8.01799C23.7875 8.03877 23.6382 8.12865 23.5415 8.21776C23.3701 8.37575 23.3658 8.4201 23.3658 9.99255V11.6053L23.5671 11.7947C23.762 11.9779 23.8129 11.9848 25.1478 12.0102C26.7389 12.0405 27.0505 11.9825 27.2374 11.6211C27.3803 11.3446 27.3364 11.0737 27.1124 10.8496C26.973 10.7102 26.8491 10.6954 25.8258 10.6954H24.6934V9.99255V9.28969H25.7919C26.396 9.28969 26.9534 9.25588 27.0307 9.21457C27.2711 9.08587 27.3843 8.70531 27.2665 8.42104C27.1021 8.02409 26.8313 7.96083 25.3402 7.97114C24.6193 7.97613 23.9593 7.99722 23.8734 8.01799ZM15.322 9.99567V10.7017L14.6777 10.679L14.0334 10.6564L14.0102 10.078C13.9975 9.75982 14.0051 9.45236 14.0273 9.39465C14.0564 9.31882 14.2418 9.28969 14.6948 9.28969H15.322V9.99567ZM20.6715 9.99255V10.6564H20.0077H19.3439L19.3207 10.078C19.3079 9.75982 19.3161 9.45088 19.3389 9.39145C19.3707 9.30875 19.5323 9.28868 20.026 9.30602L20.6715 9.32874V9.99255ZM3.00085 10.7477C2.73291 10.8555 2.67059 11.2123 2.67059 12.6388C2.67059 13.4113 2.70549 14.1352 2.74821 14.2474C2.89987 14.6465 3.17172 14.6877 5.48185 14.6623L7.57823 14.6392L7.77964 14.4499L7.98105 14.2605V12.6478C7.98105 11.0629 7.97792 11.0321 7.80033 10.8652C7.62298 10.6986 7.57667 10.6955 5.35987 10.7016C4.11698 10.7049 3.05544 10.7257 3.00085 10.7477ZM32.2041 10.8761C32.0412 11.0496 32.0343 11.1216 32.0343 12.6587V14.2605L32.2357 14.4499L32.4371 14.6392L34.5335 14.6623C36.2571 14.6812 36.6797 14.6646 36.9098 14.5684C37.3734 14.3747 37.4645 13.8533 37.0948 13.509C36.9344 13.3595 36.825 13.3506 35.1433 13.3506H33.3619V12.6868V12.023H35.0044C36.8506 12.023 37.093 11.9737 37.2627 11.5641C37.3805 11.2798 37.2673 10.8992 37.0268 10.7705C36.9462 10.7274 35.9252 10.6954 34.6302 10.6954H32.3739L32.2041 10.8761ZM6.65343 12.6868V13.3506H5.32582H3.9982V12.6868V12.023H5.32582H6.65343V12.6868ZM13.3178 13.5458C13.1073 13.6728 12.9352 13.8605 12.8297 14.0786C12.6806 14.3865 12.6668 14.551 12.6681 16.011C12.6696 17.7797 12.7526 18.3621 13.1088 19.1042C13.3994 19.7096 14.2813 20.598 14.8625 20.8709L15.3013 21.0768L15.3556 21.6287C15.4536 22.6224 15.803 23.4999 16.4027 24.2587L16.7158 24.6548L15.8822 24.6944C14.8778 24.7421 14.2207 24.9342 13.5262 25.3831C12.8045 25.8496 12.2439 26.471 11.8815 27.2065C11.3414 28.3023 11.342 28.2946 11.3405 34.2275L11.3391 39.5245L11.5674 39.7528C11.8111 39.9964 12.0259 40.0366 12.3009 39.8902C12.6715 39.6929 12.6616 39.8417 12.6647 34.3972C12.6664 31.4123 12.6999 29.0458 12.7443 28.7744C12.9182 27.7111 13.605 26.8134 14.6191 26.3239L15.2048 26.0411H20.0077H24.8105L25.3962 26.3239C26.4104 26.8134 27.0971 27.7111 27.2711 28.7744C27.3154 29.0458 27.3489 31.4123 27.3506 34.3972C27.3538 39.8417 27.3438 39.6929 27.7144 39.8902C27.9895 40.0366 28.2043 39.9964 28.448 39.7528L28.6762 39.5245L28.6749 34.2275C28.6733 28.2946 28.674 28.3023 28.1339 27.2065C27.7714 26.471 27.2108 25.8496 26.4892 25.3831C25.7947 24.9342 25.1375 24.7421 24.1331 24.6944L23.2995 24.6548L23.6126 24.2587C24.2124 23.4999 24.5618 22.6224 24.6597 21.6287L24.7141 21.0768L25.1528 20.8709C25.75 20.5905 26.6242 19.706 26.9123 19.0906C27.2584 18.3513 27.3902 17.5701 27.2882 16.863C27.0625 15.2986 26.1734 14.1599 24.7199 13.5737L24.2639 13.3897L18.9534 13.3697L13.6429 13.3498L13.3178 13.5458ZM24.3905 14.8842C25.1448 15.233 25.7047 15.9075 25.9123 16.7175C26.1424 17.6159 25.8121 18.6626 25.1005 19.2896L24.7324 19.6139L24.6934 18.376C24.6506 17.0195 24.6022 16.852 24.2148 16.7169C23.87 16.5967 16.1453 16.5967 15.8005 16.7169C15.4124 16.8523 15.3648 17.0187 15.322 18.3878L15.2829 19.6373L14.8831 19.2651C14.6277 19.0274 14.402 18.717 14.2587 18.406C14.0381 17.9273 14.0339 17.8921 14.0075 16.2965L13.9806 14.6738L19.0051 14.6956C23.9493 14.717 24.0353 14.72 24.3905 14.8842ZM2.89894 16.2074C2.71127 16.4071 2.70963 16.423 2.70963 18.0103V19.6117L2.92877 19.8003L3.1479 19.9887H5.29497C7.86961 19.9887 7.98105 19.9591 7.98105 19.2759C7.98105 19.1343 7.90662 18.97 7.78932 18.8528L7.59768 18.6611H5.7979H3.9982V17.9973V17.3335H5.72145C7.46632 17.3335 7.66828 17.3049 7.88093 17.0279C8.04485 16.8144 8.00002 16.4082 7.78932 16.1976L7.59768 16.0059H5.343H3.08832L2.89894 16.2074ZM32.226 16.1976C32.0352 16.3883 32.0343 16.3971 32.0343 17.9483C32.0343 18.8058 32.0562 19.5643 32.0828 19.6338C32.205 19.9522 32.4762 19.9887 34.7204 19.9887H36.8675L37.0866 19.8003L37.3057 19.6117V18.0103C37.3057 16.423 37.3041 16.4071 37.1164 16.2074L36.927 16.0059H34.6724H32.4177L32.226 16.1976ZM36.0172 17.9973V18.6611H34.6895H33.3619V17.9973V17.3335H34.6895H36.0172V17.9973ZM23.3479 19.596C23.3596 20.4752 23.3359 21.4342 23.2953 21.7269C23.0396 23.5723 21.3599 24.8537 19.5347 24.5957C18.1036 24.3934 16.9332 23.2166 16.7239 21.7697C16.6415 21.1998 16.6237 18.0882 16.7025 18.0095C16.7316 17.9803 18.2339 17.9657 20.041 17.9769L23.3267 17.9973L23.3479 19.596ZM3.06106 21.4174C2.63693 21.6319 2.58578 22.1921 2.96321 22.489C3.14923 22.6353 3.28433 22.6439 5.37892 22.6439H7.59768L7.78932 22.4522C8.10537 22.1362 8.04235 21.6268 7.66304 21.4306C7.36355 21.2757 3.36384 21.2642 3.06106 21.4174ZM32.3857 21.4046C31.9814 21.6307 31.9051 22.1313 32.226 22.4522L32.4177 22.6439H34.6426H36.8675L37.0827 22.4589C37.3609 22.2195 37.3802 21.7858 37.1241 21.5294C36.9534 21.3587 36.9088 21.355 34.7461 21.3363C33.2331 21.3233 32.493 21.3447 32.3857 21.4046ZM5.16963 25.3543C5.1052 25.3779 4.97337 25.4691 4.87677 25.557C4.7155 25.7038 4.70106 25.7854 4.70106 26.5519V27.3869L4.31292 27.5482C4.09941 27.6369 3.75251 27.8706 3.54205 28.0675C2.43216 29.1057 2.43224 30.8641 3.54228 31.9025C4.02811 32.3569 4.47263 32.5527 5.20461 32.6348C5.9013 32.713 6.23882 32.8998 6.48974 33.3463C6.63672 33.6078 6.66483 33.7515 6.63625 34.0953C6.57823 34.7958 6.15386 35.2201 5.45342 35.2781C4.70402 35.3403 4.13167 34.8618 4.02507 34.0841C3.95939 33.6054 3.72135 33.343 3.35267 33.343C3.05005 33.343 2.77516 33.5619 2.69956 33.863C2.63755 34.11 2.7768 34.7506 2.98726 35.1863C3.2167 35.6614 3.78039 36.192 4.27216 36.3958L4.70106 36.5736V37.4035C4.70106 38.1293 4.72097 38.2548 4.85943 38.4034C5.07193 38.6315 5.34596 38.6897 5.61063 38.5628C5.94105 38.4044 6.02609 38.1527 6.02852 37.3258L6.0307 36.5839L6.50161 36.3577C7.02579 36.106 7.48382 35.6396 7.76261 35.0737C7.91248 34.7695 7.94153 34.5876 7.93911 33.9677C7.93661 33.3226 7.90951 33.1745 7.73161 32.8327C7.2689 31.9438 6.53449 31.456 5.45983 31.3237C4.78392 31.2405 4.57915 31.137 4.25849 30.7166C4.07817 30.4801 4.03983 30.352 4.03983 29.9849C4.03983 29.6177 4.07817 29.4896 4.25849 29.2531C4.54307 28.8801 4.779 28.731 5.16728 28.6789C5.59329 28.6217 6.13449 28.8359 6.38104 29.1592C6.52848 29.3525 6.73153 29.9936 6.73153 30.2659C6.73153 30.2798 6.80845 30.3628 6.90248 30.4504C7.14809 30.6793 7.59096 30.6634 7.8222 30.4173C7.98269 30.2464 7.99846 30.17 7.96301 29.7339C7.88803 28.8097 7.36738 28.0453 6.53301 27.6346L6.02867 27.3863V26.6512C6.02867 25.7967 5.92238 25.5153 5.55081 25.3857C5.41422 25.3381 5.29895 25.302 5.29466 25.3053C5.29028 25.3087 5.23405 25.3308 5.16963 25.3543ZM18.247 28.849C18.0523 29.0437 18.0266 29.1375 18.0542 29.5553C18.0719 29.8242 18.3403 30.4897 18.4767 30.6029C18.5464 30.6608 18.498 31.166 18.2762 32.6944L17.9838 34.7096L18.1398 35.022C18.2256 35.1938 18.5843 35.7541 18.937 36.2672C19.9395 37.7256 20.1012 37.7083 21.2132 36.0227C21.86 35.0422 21.9597 34.8471 21.9576 34.5658C21.9564 34.3872 21.8393 33.4409 21.6977 32.4629C21.4969 31.0771 21.461 30.6673 21.5353 30.6057C21.7655 30.4146 21.9963 29.6551 21.9683 29.1809C21.9552 28.959 21.6025 28.6573 21.3562 28.6573C21.012 28.6573 20.8111 28.8523 20.6757 29.3181C20.4948 29.9402 20.1778 30.1172 19.6933 29.8667C19.5173 29.7757 19.4362 29.6501 19.3404 29.3207C19.1481 28.6591 18.6512 28.4448 18.247 28.849ZM34.3105 29.3606C33.2838 29.5787 32.6606 30.4112 32.6595 31.5663L32.6591 32.0153H32.124C31.5138 32.0153 31.1928 32.1762 30.8818 32.6377L30.7017 32.9049L30.7237 36.0468C30.7487 39.6113 30.7196 39.4519 31.4111 39.8053C31.7529 39.98 31.7764 39.981 35.3334 39.981C38.1981 39.981 38.9618 39.9596 39.163 39.8735C39.4669 39.7435 39.8039 39.3966 39.9169 39.0974C39.9703 38.9561 39.9994 37.8397 39.9983 35.9736C39.9967 33.3105 39.9845 33.0431 39.8512 32.7495C39.629 32.2603 39.2996 32.0681 38.5979 32.0182L38.0086 31.9763L37.9624 31.3028C37.9283 30.8036 37.8719 30.5575 37.7447 30.3516C37.5251 29.9963 37.0816 29.607 36.7282 29.4594C36.3952 29.3202 34.8064 29.2553 34.3105 29.3606ZM14.8591 29.5659C14.6992 29.7691 14.6972 29.8327 14.6972 34.6664C14.6972 39.4754 14.6999 39.5641 14.8556 39.731C15.1871 40.0869 15.7078 40.0173 15.9249 39.5882C15.9998 39.4403 16.0228 38.2882 16.0237 34.6471C16.0249 29.6277 16.0191 29.5426 15.6699 29.4086C15.3671 29.2924 15.0215 29.3595 14.8591 29.5659ZM24.3208 29.4124C24.2662 29.4344 24.1695 29.5528 24.106 29.6757C24.0078 29.8657 23.9907 30.6078 23.9917 34.6471C23.9926 38.2882 24.0156 39.4403 24.0904 39.5882C24.3076 40.0173 24.8282 40.0869 25.1598 39.731C25.3154 39.5641 25.3181 39.4754 25.3181 34.6664C25.3181 29.8327 25.3161 29.7691 25.1562 29.5659C25.0315 29.4071 24.9288 29.3615 24.7072 29.3663C24.5493 29.3696 24.3754 29.3904 24.3208 29.4124ZM36.48 30.8935C36.6022 31.0488 36.6419 31.2121 36.6419 31.5592V32.0191L35.3338 31.9977L34.0257 31.9763L33.9998 31.7492C33.9601 31.4002 34.0574 31.0075 34.2253 30.8395C34.3594 30.7055 34.4906 30.6877 35.3476 30.6877C36.3031 30.6877 36.3207 30.6909 36.48 30.8935ZM20.41 32.7182C20.527 33.4699 20.6249 34.1877 20.6276 34.3134C20.6321 34.5261 20.1365 35.3734 20.0077 35.3734C19.903 35.3734 19.3829 34.5369 19.3829 34.3684C19.3829 34.1783 19.766 31.571 19.8183 31.4046C19.8362 31.3479 19.9287 31.3128 20.024 31.3265C20.1857 31.3499 20.2114 31.4425 20.41 32.7182ZM38.6724 35.9982V38.6534H35.3533H32.0343V37.3258V35.9982H34.0207C36.0281 35.9982 36.3384 35.9617 36.5355 35.7023C36.705 35.4791 36.6641 35.0761 36.4502 34.8623L36.2585 34.6706H34.1464H32.0343V34.0068V33.343H35.3533H38.6724V35.9982Z" fill="url(#paint0_radial_1197_49)" fill-opacity="0.7"/>
<path fill-rule="evenodd" clip-rule="evenodd" d="M10.6663 0.122667C10.1981 0.288775 9.74857 0.710254 9.53451 1.1839C9.3488 1.59491 9.34755 1.61584 9.32342 4.77971L9.29913 7.96208H5.7259C3.50737 7.96208 1.98015 7.99394 1.69768 8.04619C0.925709 8.18887 0.388884 8.64111 0.13406 9.36341C-0.0418096 9.86174 -0.0460267 27.2968 0.129609 27.6364C0.325784 28.0157 0.835275 28.0787 1.15125 27.7627L1.34297 27.571V18.7389C1.34297 8.90226 1.30775 9.52804 1.87027 9.37185C2.05332 9.32101 3.50058 9.2904 5.73425 9.29016L9.30546 9.28969L9.32662 16.4422L9.34771 23.5947L9.56684 23.7831C9.84689 24.024 10.1761 24.024 10.4562 23.7831L10.6753 23.5946L10.7155 12.596C10.7375 6.54676 10.7639 1.58945 10.774 1.57984C10.7842 1.57016 10.8962 1.5087 11.0228 1.44318C11.2253 1.33845 12.3132 1.324 20.0077 1.324C27.7021 1.324 28.79 1.33845 28.9925 1.44318C29.1192 1.5087 29.2312 1.57016 29.2413 1.57984C29.2515 1.58945 29.2779 6.54676 29.2999 12.596L29.34 23.5946L29.5592 23.7831C29.8392 24.024 30.1685 24.024 30.4485 23.7831L30.6676 23.5947L30.6887 16.4422L30.7099 9.28969L34.2811 9.29016C36.5148 9.2904 37.962 9.32101 38.1451 9.37185C38.7083 9.52827 38.6724 8.86806 38.6724 19.0537V28.2007L38.9007 28.429C39.1969 28.7252 39.4755 28.7252 39.7717 28.429L40 28.2007V18.9503C40 10.8742 39.9849 9.65713 39.8813 9.36341C39.6265 8.64111 39.0896 8.18887 38.3177 8.04619C38.0352 7.99394 36.508 7.96208 34.2895 7.96208H30.7162L30.6919 4.77971C30.6678 1.61584 30.6666 1.59491 30.4808 1.1839C30.3771 0.954457 30.156 0.652308 29.9837 0.504864C29.3553 -0.0330541 29.9283 -0.0042371 19.9743 0.00255717C12.3077 0.00778953 10.9405 0.025439 10.6663 0.122667ZM14.3864 2.75111C13.9788 2.95908 13.9148 3.44647 14.248 3.80352L14.4121 3.97923H19.5527H24.6934V4.64304V5.30685H19.7069C16.2589 5.30685 14.6439 5.33356 14.4722 5.39338C14.1351 5.51091 13.9548 5.86203 14.0668 6.18307C14.2301 6.6518 13.932 6.62931 20.0124 6.63196C25.4912 6.63439 25.6044 6.63142 25.7684 6.47859C26.0042 6.2589 26.0348 5.99596 26.0067 4.42906C25.9831 3.11058 25.9737 3.03772 25.8041 2.86833L25.6262 2.69067L20.1032 2.67145C15.7714 2.65638 14.5383 2.67356 14.3864 2.75111ZM13.0944 8.06798C12.7131 8.23916 12.6667 8.44838 12.6667 10.0001C12.6667 11.6237 12.7159 11.8051 13.1951 11.9487C13.3805 12.0042 13.9949 12.0268 14.8675 12.0102C16.2025 11.9848 16.2533 11.9779 16.4483 11.7947L16.6496 11.6053V9.99255V8.37981L16.4483 8.19043C16.2518 8.00573 16.2116 8.00066 14.7887 7.98152C13.6933 7.96676 13.2718 7.98824 13.0944 8.06798ZM18.4848 8.03346C18.3989 8.07001 18.2583 8.17793 18.1724 8.27344C18.0273 8.43479 18.0163 8.55701 18.0163 9.99895V11.5509L18.2328 11.7674L18.4493 11.984H20.0077H21.5661L21.7825 11.7674L21.9991 11.5509V9.99255V8.43416L21.7828 8.21768L21.5664 8.00113L20.1037 7.9841C19.2992 7.97481 18.5707 7.99699 18.4848 8.03346ZM23.8734 8.01799C23.7875 8.03877 23.6382 8.12865 23.5415 8.21776C23.3701 8.37575 23.3658 8.4201 23.3658 9.99255V11.6053L23.5671 11.7947C23.762 11.9779 23.8129 11.9848 25.1478 12.0102C26.7389 12.0405 27.0505 11.9825 27.2374 11.6211C27.3803 11.3446 27.3364 11.0737 27.1124 10.8496C26.973 10.7102 26.8491 10.6954 25.8258 10.6954H24.6934V9.99255V9.28969H25.7919C26.396 9.28969 26.9534 9.25588 27.0307 9.21457C27.2711 9.08587 27.3843 8.70531 27.2665 8.42104C27.1021 8.02409 26.8313 7.96083 25.3402 7.97114C24.6193 7.97613 23.9593 7.99722 23.8734 8.01799ZM15.322 9.99567V10.7017L14.6777 10.679L14.0334 10.6564L14.0102 10.078C13.9975 9.75982 14.0051 9.45236 14.0273 9.39465C14.0564 9.31882 14.2418 9.28969 14.6948 9.28969H15.322V9.99567ZM20.6715 9.99255V10.6564H20.0077H19.3439L19.3207 10.078C19.3079 9.75982 19.3161 9.45088 19.3389 9.39145C19.3707 9.30875 19.5323 9.28868 20.026 9.30602L20.6715 9.32874V9.99255ZM3.00085 10.7477C2.73291 10.8555 2.67059 11.2123 2.67059 12.6388C2.67059 13.4113 2.70549 14.1352 2.74821 14.2474C2.89987 14.6465 3.17172 14.6877 5.48185 14.6623L7.57823 14.6392L7.77964 14.4499L7.98105 14.2605V12.6478C7.98105 11.0629 7.97792 11.0321 7.80033 10.8652C7.62298 10.6986 7.57667 10.6955 5.35987 10.7016C4.11698 10.7049 3.05544 10.7257 3.00085 10.7477ZM32.2041 10.8761C32.0412 11.0496 32.0343 11.1216 32.0343 12.6587V14.2605L32.2357 14.4499L32.4371 14.6392L34.5335 14.6623C36.2571 14.6812 36.6797 14.6646 36.9098 14.5684C37.3734 14.3747 37.4645 13.8533 37.0948 13.509C36.9344 13.3595 36.825 13.3506 35.1433 13.3506H33.3619V12.6868V12.023H35.0044C36.8506 12.023 37.093 11.9737 37.2627 11.5641C37.3805 11.2798 37.2673 10.8992 37.0268 10.7705C36.9462 10.7274 35.9252 10.6954 34.6302 10.6954H32.3739L32.2041 10.8761ZM6.65343 12.6868V13.3506H5.32582H3.9982V12.6868V12.023H5.32582H6.65343V12.6868ZM13.3178 13.5458C13.1073 13.6728 12.9352 13.8605 12.8297 14.0786C12.6806 14.3865 12.6668 14.551 12.6681 16.011C12.6696 17.7797 12.7526 18.3621 13.1088 19.1042C13.3994 19.7096 14.2813 20.598 14.8625 20.8709L15.3013 21.0768L15.3556 21.6287C15.4536 22.6224 15.803 23.4999 16.4027 24.2587L16.7158 24.6548L15.8822 24.6944C14.8778 24.7421 14.2207 24.9342 13.5262 25.3831C12.8045 25.8496 12.2439 26.471 11.8815 27.2065C11.3414 28.3023 11.342 28.2946 11.3405 34.2275L11.3391 39.5245L11.5674 39.7528C11.8111 39.9964 12.0259 40.0366 12.3009 39.8902C12.6715 39.6929 12.6616 39.8417 12.6647 34.3972C12.6664 31.4123 12.6999 29.0458 12.7443 28.7744C12.9182 27.7111 13.605 26.8134 14.6191 26.3239L15.2048 26.0411H20.0077H24.8105L25.3962 26.3239C26.4104 26.8134 27.0971 27.7111 27.2711 28.7744C27.3154 29.0458 27.3489 31.4123 27.3506 34.3972C27.3538 39.8417 27.3438 39.6929 27.7144 39.8902C27.9895 40.0366 28.2043 39.9964 28.448 39.7528L28.6762 39.5245L28.6749 34.2275C28.6733 28.2946 28.674 28.3023 28.1339 27.2065C27.7714 26.471 27.2108 25.8496 26.4892 25.3831C25.7947 24.9342 25.1375 24.7421 24.1331 24.6944L23.2995 24.6548L23.6126 24.2587C24.2124 23.4999 24.5618 22.6224 24.6597 21.6287L24.7141 21.0768L25.1528 20.8709C25.75 20.5905 26.6242 19.706 26.9123 19.0906C27.2584 18.3513 27.3902 17.5701 27.2882 16.863C27.0625 15.2986 26.1734 14.1599 24.7199 13.5737L24.2639 13.3897L18.9534 13.3697L13.6429 13.3498L13.3178 13.5458ZM24.3905 14.8842C25.1448 15.233 25.7047 15.9075 25.9123 16.7175C26.1424 17.6159 25.8121 18.6626 25.1005 19.2896L24.7324 19.6139L24.6934 18.376C24.6506 17.0195 24.6022 16.852 24.2148 16.7169C23.87 16.5967 16.1453 16.5967 15.8005 16.7169C15.4124 16.8523 15.3648 17.0187 15.322 18.3878L15.2829 19.6373L14.8831 19.2651C14.6277 19.0274 14.402 18.717 14.2587 18.406C14.0381 17.9273 14.0339 17.8921 14.0075 16.2965L13.9806 14.6738L19.0051 14.6956C23.9493 14.717 24.0353 14.72 24.3905 14.8842ZM2.89894 16.2074C2.71127 16.4071 2.70963 16.423 2.70963 18.0103V19.6117L2.92877 19.8003L3.1479 19.9887H5.29497C7.86961 19.9887 7.98105 19.9591 7.98105 19.2759C7.98105 19.1343 7.90662 18.97 7.78932 18.8528L7.59768 18.6611H5.7979H3.9982V17.9973V17.3335H5.72145C7.46632 17.3335 7.66828 17.3049 7.88093 17.0279C8.04485 16.8144 8.00002 16.4082 7.78932 16.1976L7.59768 16.0059H5.343H3.08832L2.89894 16.2074ZM32.226 16.1976C32.0352 16.3883 32.0343 16.3971 32.0343 17.9483C32.0343 18.8058 32.0562 19.5643 32.0828 19.6338C32.205 19.9522 32.4762 19.9887 34.7204 19.9887H36.8675L37.0866 19.8003L37.3057 19.6117V18.0103C37.3057 16.423 37.3041 16.4071 37.1164 16.2074L36.927 16.0059H34.6724H32.4177L32.226 16.1976ZM36.0172 17.9973V18.6611H34.6895H33.3619V17.9973V17.3335H34.6895H36.0172V17.9973ZM23.3479 19.596C23.3596 20.4752 23.3359 21.4342 23.2953 21.7269C23.0396 23.5723 21.3599 24.8537 19.5347 24.5957C18.1036 24.3934 16.9332 23.2166 16.7239 21.7697C16.6415 21.1998 16.6237 18.0882 16.7025 18.0095C16.7316 17.9803 18.2339 17.9657 20.041 17.9769L23.3267 17.9973L23.3479 19.596ZM3.06106 21.4174C2.63693 21.6319 2.58578 22.1921 2.96321 22.489C3.14923 22.6353 3.28433 22.6439 5.37892 22.6439H7.59768L7.78932 22.4522C8.10537 22.1362 8.04235 21.6268 7.66304 21.4306C7.36355 21.2757 3.36384 21.2642 3.06106 21.4174ZM32.3857 21.4046C31.9814 21.6307 31.9051 22.1313 32.226 22.4522L32.4177 22.6439H34.6426H36.8675L37.0827 22.4589C37.3609 22.2195 37.3802 21.7858 37.1241 21.5294C36.9534 21.3587 36.9088 21.355 34.7461 21.3363C33.2331 21.3233 32.493 21.3447 32.3857 21.4046ZM5.16963 25.3543C5.1052 25.3779 4.97337 25.4691 4.87677 25.557C4.7155 25.7038 4.70106 25.7854 4.70106 26.5519V27.3869L4.31292 27.5482C4.09941 27.6369 3.75251 27.8706 3.54205 28.0675C2.43216 29.1057 2.43224 30.8641 3.54228 31.9025C4.02811 32.3569 4.47263 32.5527 5.20461 32.6348C5.9013 32.713 6.23882 32.8998 6.48974 33.3463C6.63672 33.6078 6.66483 33.7515 6.63625 34.0953C6.57823 34.7958 6.15386 35.2201 5.45342 35.2781C4.70402 35.3403 4.13167 34.8618 4.02507 34.0841C3.95939 33.6054 3.72135 33.343 3.35267 33.343C3.05005 33.343 2.77516 33.5619 2.69956 33.863C2.63755 34.11 2.7768 34.7506 2.98726 35.1863C3.2167 35.6614 3.78039 36.192 4.27216 36.3958L4.70106 36.5736V37.4035C4.70106 38.1293 4.72097 38.2548 4.85943 38.4034C5.07193 38.6315 5.34596 38.6897 5.61063 38.5628C5.94105 38.4044 6.02609 38.1527 6.02852 37.3258L6.0307 36.5839L6.50161 36.3577C7.02579 36.106 7.48382 35.6396 7.76261 35.0737C7.91248 34.7695 7.94153 34.5876 7.93911 33.9677C7.93661 33.3226 7.90951 33.1745 7.73161 32.8327C7.2689 31.9438 6.53449 31.456 5.45983 31.3237C4.78392 31.2405 4.57915 31.137 4.25849 30.7166C4.07817 30.4801 4.03983 30.352 4.03983 29.9849C4.03983 29.6177 4.07817 29.4896 4.25849 29.2531C4.54307 28.8801 4.779 28.731 5.16728 28.6789C5.59329 28.6217 6.13449 28.8359 6.38104 29.1592C6.52848 29.3525 6.73153 29.9936 6.73153 30.2659C6.73153 30.2798 6.80845 30.3628 6.90248 30.4504C7.14809 30.6793 7.59096 30.6634 7.8222 30.4173C7.98269 30.2464 7.99846 30.17 7.96301 29.7339C7.88803 28.8097 7.36738 28.0453 6.53301 27.6346L6.02867 27.3863V26.6512C6.02867 25.7967 5.92238 25.5153 5.55081 25.3857C5.41422 25.3381 5.29895 25.302 5.29466 25.3053C5.29028 25.3087 5.23405 25.3308 5.16963 25.3543ZM18.247 28.849C18.0523 29.0437 18.0266 29.1375 18.0542 29.5553C18.0719 29.8242 18.3403 30.4897 18.4767 30.6029C18.5464 30.6608 18.498 31.166 18.2762 32.6944L17.9838 34.7096L18.1398 35.022C18.2256 35.1938 18.5843 35.7541 18.937 36.2672C19.9395 37.7256 20.1012 37.7083 21.2132 36.0227C21.86 35.0422 21.9597 34.8471 21.9576 34.5658C21.9564 34.3872 21.8393 33.4409 21.6977 32.4629C21.4969 31.0771 21.461 30.6673 21.5353 30.6057C21.7655 30.4146 21.9963 29.6551 21.9683 29.1809C21.9552 28.959 21.6025 28.6573 21.3562 28.6573C21.012 28.6573 20.8111 28.8523 20.6757 29.3181C20.4948 29.9402 20.1778 30.1172 19.6933 29.8667C19.5173 29.7757 19.4362 29.6501 19.3404 29.3207C19.1481 28.6591 18.6512 28.4448 18.247 28.849ZM34.3105 29.3606C33.2838 29.5787 32.6606 30.4112 32.6595 31.5663L32.6591 32.0153H32.124C31.5138 32.0153 31.1928 32.1762 30.8818 32.6377L30.7017 32.9049L30.7237 36.0468C30.7487 39.6113 30.7196 39.4519 31.4111 39.8053C31.7529 39.98 31.7764 39.981 35.3334 39.981C38.1981 39.981 38.9618 39.9596 39.163 39.8735C39.4669 39.7435 39.8039 39.3966 39.9169 39.0974C39.9703 38.9561 39.9994 37.8397 39.9983 35.9736C39.9967 33.3105 39.9845 33.0431 39.8512 32.7495C39.629 32.2603 39.2996 32.0681 38.5979 32.0182L38.0086 31.9763L37.9624 31.3028C37.9283 30.8036 37.8719 30.5575 37.7447 30.3516C37.5251 29.9963 37.0816 29.607 36.7282 29.4594C36.3952 29.3202 34.8064 29.2553 34.3105 29.3606ZM14.8591 29.5659C14.6992 29.7691 14.6972 29.8327 14.6972 34.6664C14.6972 39.4754 14.6999 39.5641 14.8556 39.731C15.1871 40.0869 15.7078 40.0173 15.9249 39.5882C15.9998 39.4403 16.0228 38.2882 16.0237 34.6471C16.0249 29.6277 16.0191 29.5426 15.6699 29.4086C15.3671 29.2924 15.0215 29.3595 14.8591 29.5659ZM24.3208 29.4124C24.2662 29.4344 24.1695 29.5528 24.106 29.6757C24.0078 29.8657 23.9907 30.6078 23.9917 34.6471C23.9926 38.2882 24.0156 39.4403 24.0904 39.5882C24.3076 40.0173 24.8282 40.0869 25.1598 39.731C25.3154 39.5641 25.3181 39.4754 25.3181 34.6664C25.3181 29.8327 25.3161 29.7691 25.1562 29.5659C25.0315 29.4071 24.9288 29.3615 24.7072 29.3663C24.5493 29.3696 24.3754 29.3904 24.3208 29.4124ZM36.48 30.8935C36.6022 31.0488 36.6419 31.2121 36.6419 31.5592V32.0191L35.3338 31.9977L34.0257 31.9763L33.9998 31.7492C33.9601 31.4002 34.0574 31.0075 34.2253 30.8395C34.3594 30.7055 34.4906 30.6877 35.3476 30.6877C36.3031 30.6877 36.3207 30.6909 36.48 30.8935ZM20.41 32.7182C20.527 33.4699 20.6249 34.1877 20.6276 34.3134C20.6321 34.5261 20.1365 35.3734 20.0077 35.3734C19.903 35.3734 19.3829 34.5369 19.3829 34.3684C19.3829 34.1783 19.766 31.571 19.8183 31.4046C19.8362 31.3479 19.9287 31.3128 20.024 31.3265C20.1857 31.3499 20.2114 31.4425 20.41 32.7182ZM38.6724 35.9982V38.6534H35.3533H32.0343V37.3258V35.9982H34.0207C36.0281 35.9982 36.3384 35.9617 36.5355 35.7023C36.705 35.4791 36.6641 35.0761 36.4502 34.8623L36.2585 34.6706H34.1464H32.0343V34.0068V33.343H35.3533H38.6724V35.9982Z" fill="url(#paint1_radial_1197_49)"/>
<defs>
<radialGradient id="paint0_radial_1197_49" cx="0" cy="0" r="1" gradientUnits="userSpaceOnUse" gradientTransform="translate(10.5556 8.32938) rotate(51.0308) scale(33.5682 33.5715)">
<stop stop-color="white" stop-opacity="0.59"/>
<stop offset="0.697917" stop-color="white" stop-opacity="0"/>
<stop offset="1" stop-color="white" stop-opacity="0"/>
</radialGradient>
<radialGradient id="paint1_radial_1197_49" cx="0" cy="0" r="1" gradientUnits="userSpaceOnUse" gradientTransform="translate(34.5205 34.9834) rotate(-93.6722) scale(34.2207 38.1584)">
<stop stop-opacity="0.23"/>
<stop offset="0.861815" stop-opacity="0"/>
</radialGradient>
</defs>
</svg>
