<svg width="40" height="41" viewBox="0 0 40 41" fill="none" xmlns="http://www.w3.org/2000/svg">
<path fill-rule="evenodd" clip-rule="evenodd" d="M13.1632 0.0821613C11.2181 0.454458 9.54107 1.7381 8.6618 3.52779C8.32868 4.20582 8.04023 5.2111 8.04023 5.69415C8.04023 5.95734 8.01458 5.99824 7.82514 6.03719C7.05685 6.19495 6.50584 6.38024 5.88936 6.68801C5.30455 6.9799 5.05888 7.16621 4.43795 7.78863C3.79933 8.42881 3.63766 8.64609 3.32747 9.28095C2.82103 10.3173 2.69605 10.848 2.69167 11.9793C2.68831 12.8566 2.79898 13.5086 3.07093 14.2129C3.10315 14.2963 3.00851 14.4132 2.77035 14.5842C0.713723 16.0612 -0.358586 18.7181 0.108193 21.1804C0.350421 22.4579 0.873357 23.5058 1.78251 24.535L2.23365 25.0456L2.03593 25.4344C1.06748 27.3392 1.10542 29.5958 2.13721 31.4545C2.89017 32.8109 4.30084 33.9497 5.76719 34.385L6.19971 34.5134L6.40236 35.0567C7.83007 38.8826 11.7605 40.8649 15.5395 39.6649C16.0425 39.5051 16.1384 39.4953 16.2826 39.5888C16.7113 39.8667 19.6858 40.0799 21.3366 39.951C23.0029 39.8209 23.6062 39.7116 23.8156 39.5023C23.9939 39.3241 23.9958 39.3013 23.9958 37.4218L23.9959 35.5216L25.0322 35.1822C25.6022 34.9954 26.5364 34.6113 27.1084 34.3284L28.1484 33.8142L29.4548 35.1116C30.8604 36.5076 31.0358 36.6196 31.4575 36.3905C31.8963 36.1521 33.2498 35.0247 34.0747 34.2102C34.8859 33.4093 36.1543 31.9029 36.4015 31.4468C36.6301 31.0249 36.5181 30.8495 35.1223 29.4441L33.8249 28.1377L34.3391 27.0977C34.622 26.5257 35.0061 25.5915 35.1929 25.0215L35.5323 23.9852L37.4203 23.9851C39.6826 23.9851 39.6084 24.0126 39.7654 23.1178C39.8213 22.799 39.9084 21.9663 39.9589 21.2672C40.0566 19.9153 39.9753 18.0713 39.7654 16.8746C39.6084 15.9799 39.6826 16.0073 37.4203 16.0073L35.5323 16.0072L35.1929 14.971C35.0061 14.401 34.622 13.4667 34.3391 12.8947L33.8249 11.8547L35.1223 10.5483C36.5181 9.14298 36.6301 8.96755 36.4015 8.54566C36.1543 8.08952 34.8859 6.58313 34.0747 5.7823C33.2498 4.96778 31.8963 3.84033 31.4575 3.60193C31.0358 3.37285 30.8604 3.48485 29.4548 4.88081L28.1484 6.17829L27.1084 5.66404C26.5364 5.38114 25.6022 4.99703 25.0322 4.81026L23.9959 4.47081L23.9958 2.57061C23.9958 0.288333 24.0295 0.368893 23.0139 0.216923C21.1643 -0.0598748 19.2391 -0.0718415 17.2985 0.181414C16.4187 0.296154 16.3135 0.295606 15.8515 0.17328C15.1797 -0.0045777 13.8517 -0.0496288 13.1632 0.0821613ZM15.3532 1.4204C17.1204 1.79019 18.6612 3.23691 19.1416 4.97763C19.2889 5.51152 19.303 5.77815 19.303 8.02883V10.4949L17.8916 12.469C17.1153 13.5547 16.4378 14.4419 16.3859 14.4405C16.3342 14.4391 15.7814 14.2117 15.1577 13.9353L14.0236 13.4326L13.9634 13.023C13.8176 12.0318 13.0022 11.3145 12.0212 11.3145C11.3794 11.3145 11.0164 11.4615 10.5795 11.8984C10.1484 12.3296 9.99557 12.6987 9.99557 13.309C9.99557 13.8342 10.1351 14.2387 10.4385 14.5931C11.1384 15.4109 12.3785 15.5367 13.2425 14.8778L13.517 14.6684L14.7087 15.1925C16.2183 15.8563 16.2833 15.8746 16.7438 15.766C17.2233 15.6528 17.3795 15.4916 18.402 14.0542C18.8619 13.4077 19.2527 12.8788 19.2705 12.8788C19.2884 12.8788 19.303 14.0227 19.303 15.4207V17.9627H16.575H13.847L13.7501 17.7289C13.6281 17.434 13.1162 16.9674 12.744 16.8114C12.3804 16.6592 11.6023 16.6581 11.2413 16.8093C10.5745 17.0886 10.0933 17.7392 10.0194 18.4615C9.86597 19.9591 11.4081 21.077 12.7864 20.4673C13.2411 20.2661 13.4681 20.0625 13.7256 19.6247L13.9211 19.2923H16.6121H19.303V20.661V22.0298H18.6006H17.8984L17.7475 21.7365C16.9609 20.2072 14.6685 20.4061 14.1112 22.0521C13.9524 22.521 13.9511 22.8426 14.106 23.2972C14.5991 24.7443 16.4361 25.113 17.4628 23.971C17.6575 23.7544 17.8169 23.5281 17.8169 23.4683C17.8169 23.3829 17.9773 23.3594 18.56 23.3594H19.303V24.689V26.0187H16.4451C12.6415 26.0187 12.8216 25.9262 12.3714 28.1106C12.1205 29.3281 12.042 29.5341 11.8281 29.5371C11.7821 29.5377 11.5961 29.6652 11.4148 29.8204C10.3301 30.7489 10.5241 32.4357 11.7895 33.0775C12.7906 33.5852 13.9425 33.2068 14.4322 32.2093C14.7348 31.593 14.727 30.9867 14.4092 30.402C14.2173 30.0492 13.7827 29.6213 13.5169 29.5236C13.4805 29.5101 13.5459 29.024 13.6624 28.4433L13.8741 27.3874L16.5885 27.3668L19.303 27.3463V30.4242C19.303 33.2434 19.2899 33.5542 19.1467 34.1208C18.6139 36.2287 17.0193 37.8536 14.8795 38.4691C14.3814 38.6124 14.0721 38.6471 13.3197 38.644C12.1964 38.6394 11.6571 38.513 10.6604 38.0208C8.72859 37.0667 7.48257 35.1781 7.35946 33.0174C7.28547 31.7198 7.59011 30.5814 8.34253 29.3428C8.60415 28.9121 8.66578 28.7452 8.63122 28.5606C8.57154 28.242 8.32063 28.0522 7.95905 28.0522C7.57165 28.0522 7.31199 28.3545 6.78334 29.421C6.31312 30.3697 6.09279 31.1909 6.02138 32.2611L5.96757 33.0675L5.42007 32.7917C4.11766 32.1355 3.19716 31.0048 2.82494 29.6041C2.66437 28.9999 2.6492 27.7915 2.79468 27.1919C3.18129 25.5977 4.32422 24.2938 5.87848 23.6735C6.44092 23.4491 6.63239 23.2554 6.63239 22.9109C6.63239 22.5804 6.33783 22.2644 6.02975 22.2645C5.45449 22.2646 3.85838 23.1323 3.31574 23.7401C3.23377 23.8318 3.12372 23.9069 3.07108 23.9069C2.94508 23.9069 2.31695 23.1394 2.02552 22.6294C1.8985 22.4072 1.69796 21.9437 1.57978 21.5996C1.39512 21.062 1.36454 20.8473 1.36235 20.0744C1.36055 19.4645 1.4031 19.0114 1.49453 18.6666C2.06838 16.5024 3.97883 14.8807 6.1631 14.7035C6.84998 14.6477 7.15618 14.5155 7.26576 14.2273C7.36681 13.9616 7.30307 13.7099 7.08118 13.4984C6.92045 13.3452 6.84552 13.3349 6.1631 13.3726C5.73997 13.396 5.20123 13.4833 4.91169 13.5754C4.63207 13.6644 4.38155 13.7376 4.35496 13.7381C4.22403 13.7409 4.01942 12.7125 4.02052 12.0575C4.02279 10.6789 4.43607 9.66122 5.37291 8.72712C7.48359 6.62262 10.7718 6.92797 12.53 9.39186C12.7247 9.66459 12.9409 9.90963 13.0104 9.9363C13.2547 10.0301 13.5085 9.98315 13.7142 9.80623C14.0127 9.54946 13.9956 9.16598 13.664 8.68074C12.7745 7.37887 11.3359 6.41145 9.87857 6.13504C9.38418 6.04126 9.36986 6.0318 9.36986 5.79903C9.36986 4.96848 9.95592 3.69954 10.7007 2.91717C11.9472 1.60795 13.6427 1.06257 15.3532 1.4204ZM22.1774 1.43236L22.6662 1.48133V3.3536V5.22588L22.8817 5.44136C23.0329 5.59255 23.2723 5.69939 23.6834 5.79919C24.8612 6.08514 26.3458 6.70576 27.5122 7.3996C28.344 7.89453 28.2725 7.92598 29.8223 6.38524L31.1834 5.03215L31.6371 5.37386C32.2237 5.81546 34.1877 7.7794 34.6293 8.36601L34.971 8.81972L33.6179 10.1808C32.0772 11.7307 32.1086 11.6591 32.6035 12.491C33.2974 13.6573 33.918 15.142 34.204 16.3198C34.3038 16.7308 34.4106 16.9703 34.5618 17.1215L34.7773 17.337H36.6531H38.5289L38.595 18.0995C38.6312 18.519 38.6609 19.3725 38.6609 19.9962C38.6609 20.62 38.6312 21.4734 38.595 21.8929L38.5289 22.6555H36.6531H34.7773L34.5618 22.871C34.4106 23.0222 34.3038 23.2616 34.204 23.6727C33.918 24.8505 33.2974 26.3351 32.6035 27.5015C32.1086 28.3333 32.0772 28.2618 33.6179 29.8116L34.971 31.1727L34.6293 31.6264C34.1877 32.213 32.2237 34.177 31.6371 34.6186L31.1834 34.9603L29.8223 33.6072C28.2725 32.0665 28.344 32.0979 27.5122 32.5928C26.3458 33.2867 24.8612 33.9073 23.6834 34.1933C23.2723 34.2931 23.0329 34.3999 22.8817 34.5511L22.6662 34.7666V36.6424V38.5182L21.9036 38.5843C20.9628 38.6656 18.3278 38.6458 18.0234 38.555L17.7997 38.4884L18.2349 38.1165C18.8098 37.6254 19.5425 36.6424 19.925 35.8489C20.5395 34.574 20.7055 33.5247 20.7088 30.8923L20.7108 29.3133L21.0824 29.2663C24.1899 28.8739 26.913 26.9783 28.3096 24.2352C29.4206 22.0532 29.6295 19.4765 28.8863 17.1239C28.1161 14.6859 26.1527 12.5138 23.7678 11.4613C23.1104 11.1712 21.829 10.8204 21.0824 10.7261L20.7108 10.6792L20.7095 8.59181C20.708 6.37555 20.6332 5.31638 20.4272 4.59939C20.1261 3.55172 19.5564 2.5904 18.7982 1.85065L18.3572 1.42048L18.7715 1.36878C19.2206 1.31278 21.387 1.35321 22.1774 1.43236ZM21.8449 12.2246C24.5706 12.8085 26.8514 14.99 27.7218 17.8453C27.9226 18.5042 27.9363 18.6418 27.9363 19.9962C27.9363 21.3506 27.9226 21.4882 27.7218 22.1471C26.9751 24.5967 25.2573 26.5038 22.9747 27.4175C22.4414 27.631 21.7578 27.8098 21.0041 27.9331L20.7108 27.9811V26.2974V24.6138L20.9259 24.5678C22.3084 24.272 23.5391 23.3233 24.1717 22.0657C24.8225 20.7723 24.8225 19.2202 24.1717 17.9268C23.5391 16.6692 22.3084 15.7204 20.9259 15.4246L20.7108 15.3786V13.695V12.0113L21.0041 12.0593C21.1655 12.0857 21.5438 12.1601 21.8449 12.2246ZM12.4789 12.9252C12.716 13.1905 12.7044 13.5118 12.4487 13.7676C11.9348 14.2814 11.1036 13.7142 11.4159 13.0628C11.6302 12.6161 12.1432 12.5496 12.4789 12.9252ZM21.9117 17.2884C23.0467 18.0493 23.5819 19.5863 23.1858 20.9475C22.9029 21.9193 22.0383 22.8194 21.0709 23.149L20.7108 23.2717V19.9962V16.7207L21.0709 16.8434C21.2688 16.9109 21.6472 17.1112 21.9117 17.2884ZM12.5002 18.2564C12.8307 18.6766 12.5498 19.2923 12.0276 19.2923C11.6938 19.2923 11.5207 19.1844 11.4047 18.9042C11.1259 18.2313 12.0504 17.6846 12.5002 18.2564ZM16.4517 22.2218C16.9399 22.7099 16.4328 23.4959 15.7772 23.2673C15.5062 23.1729 15.2802 22.7643 15.3656 22.523C15.5423 22.0239 16.0994 21.8694 16.4517 22.2218ZM13.0989 30.8875C13.3353 31.1502 13.3692 31.3173 13.2458 31.6125C12.9865 32.2331 12.0291 32.0252 12.0291 31.3482C12.0291 30.7772 12.7284 30.476 13.0989 30.8875Z" fill="#0066FF"/>
<path fill-rule="evenodd" clip-rule="evenodd" d="M13.1632 0.0821613C11.2181 0.454458 9.54107 1.7381 8.6618 3.52779C8.32868 4.20582 8.04023 5.2111 8.04023 5.69415C8.04023 5.95734 8.01458 5.99824 7.82514 6.03719C7.05685 6.19495 6.50584 6.38024 5.88936 6.68801C5.30455 6.9799 5.05888 7.16621 4.43795 7.78863C3.79933 8.42881 3.63766 8.64609 3.32747 9.28095C2.82103 10.3173 2.69605 10.848 2.69167 11.9793C2.68831 12.8566 2.79898 13.5086 3.07093 14.2129C3.10315 14.2963 3.00851 14.4132 2.77035 14.5842C0.713723 16.0612 -0.358586 18.7181 0.108193 21.1804C0.350421 22.4579 0.873357 23.5058 1.78251 24.535L2.23365 25.0456L2.03593 25.4344C1.06748 27.3392 1.10542 29.5958 2.13721 31.4545C2.89017 32.8109 4.30084 33.9497 5.76719 34.385L6.19971 34.5134L6.40236 35.0567C7.83007 38.8826 11.7605 40.8649 15.5395 39.6649C16.0425 39.5051 16.1384 39.4953 16.2826 39.5888C16.7113 39.8667 19.6858 40.0799 21.3366 39.951C23.0029 39.8209 23.6062 39.7116 23.8156 39.5023C23.9939 39.3241 23.9958 39.3013 23.9958 37.4218L23.9959 35.5216L25.0322 35.1822C25.6022 34.9954 26.5364 34.6113 27.1084 34.3284L28.1484 33.8142L29.4548 35.1116C30.8604 36.5076 31.0358 36.6196 31.4575 36.3905C31.8963 36.1521 33.2498 35.0247 34.0747 34.2102C34.8859 33.4093 36.1543 31.9029 36.4015 31.4468C36.6301 31.0249 36.5181 30.8495 35.1223 29.4441L33.8249 28.1377L34.3391 27.0977C34.622 26.5257 35.0061 25.5915 35.1929 25.0215L35.5323 23.9852L37.4203 23.9851C39.6826 23.9851 39.6084 24.0126 39.7654 23.1178C39.8213 22.799 39.9084 21.9663 39.9589 21.2672C40.0566 19.9153 39.9753 18.0713 39.7654 16.8746C39.6084 15.9799 39.6826 16.0073 37.4203 16.0073L35.5323 16.0072L35.1929 14.971C35.0061 14.401 34.622 13.4667 34.3391 12.8947L33.8249 11.8547L35.1223 10.5483C36.5181 9.14298 36.6301 8.96755 36.4015 8.54566C36.1543 8.08952 34.8859 6.58313 34.0747 5.7823C33.2498 4.96778 31.8963 3.84033 31.4575 3.60193C31.0358 3.37285 30.8604 3.48485 29.4548 4.88081L28.1484 6.17829L27.1084 5.66404C26.5364 5.38114 25.6022 4.99703 25.0322 4.81026L23.9959 4.47081L23.9958 2.57061C23.9958 0.288333 24.0295 0.368893 23.0139 0.216923C21.1643 -0.0598748 19.2391 -0.0718415 17.2985 0.181414C16.4187 0.296154 16.3135 0.295606 15.8515 0.17328C15.1797 -0.0045777 13.8517 -0.0496288 13.1632 0.0821613ZM15.3532 1.4204C17.1204 1.79019 18.6612 3.23691 19.1416 4.97763C19.2889 5.51152 19.303 5.77815 19.303 8.02883V10.4949L17.8916 12.469C17.1153 13.5547 16.4378 14.4419 16.3859 14.4405C16.3342 14.4391 15.7814 14.2117 15.1577 13.9353L14.0236 13.4326L13.9634 13.023C13.8176 12.0318 13.0022 11.3145 12.0212 11.3145C11.3794 11.3145 11.0164 11.4615 10.5795 11.8984C10.1484 12.3296 9.99557 12.6987 9.99557 13.309C9.99557 13.8342 10.1351 14.2387 10.4385 14.5931C11.1384 15.4109 12.3785 15.5367 13.2425 14.8778L13.517 14.6684L14.7087 15.1925C16.2183 15.8563 16.2833 15.8746 16.7438 15.766C17.2233 15.6528 17.3795 15.4916 18.402 14.0542C18.8619 13.4077 19.2527 12.8788 19.2705 12.8788C19.2884 12.8788 19.303 14.0227 19.303 15.4207V17.9627H16.575H13.847L13.7501 17.7289C13.6281 17.434 13.1162 16.9674 12.744 16.8114C12.3804 16.6592 11.6023 16.6581 11.2413 16.8093C10.5745 17.0886 10.0933 17.7392 10.0194 18.4615C9.86597 19.9591 11.4081 21.077 12.7864 20.4673C13.2411 20.2661 13.4681 20.0625 13.7256 19.6247L13.9211 19.2923H16.6121H19.303V20.661V22.0298H18.6006H17.8984L17.7475 21.7365C16.9609 20.2072 14.6685 20.4061 14.1112 22.0521C13.9524 22.521 13.9511 22.8426 14.106 23.2972C14.5991 24.7443 16.4361 25.113 17.4628 23.971C17.6575 23.7544 17.8169 23.5281 17.8169 23.4683C17.8169 23.3829 17.9773 23.3594 18.56 23.3594H19.303V24.689V26.0187H16.4451C12.6415 26.0187 12.8216 25.9262 12.3714 28.1106C12.1205 29.3281 12.042 29.5341 11.8281 29.5371C11.7821 29.5377 11.5961 29.6652 11.4148 29.8204C10.3301 30.7489 10.5241 32.4357 11.7895 33.0775C12.7906 33.5852 13.9425 33.2068 14.4322 32.2093C14.7348 31.593 14.727 30.9867 14.4092 30.402C14.2173 30.0492 13.7827 29.6213 13.5169 29.5236C13.4805 29.5101 13.5459 29.024 13.6624 28.4433L13.8741 27.3874L16.5885 27.3668L19.303 27.3463V30.4242C19.303 33.2434 19.2899 33.5542 19.1467 34.1208C18.6139 36.2287 17.0193 37.8536 14.8795 38.4691C14.3814 38.6124 14.0721 38.6471 13.3197 38.644C12.1964 38.6394 11.6571 38.513 10.6604 38.0208C8.72859 37.0667 7.48257 35.1781 7.35946 33.0174C7.28547 31.7198 7.59011 30.5814 8.34253 29.3428C8.60415 28.9121 8.66578 28.7452 8.63122 28.5606C8.57154 28.242 8.32063 28.0522 7.95905 28.0522C7.57165 28.0522 7.31199 28.3545 6.78334 29.421C6.31312 30.3697 6.09279 31.1909 6.02138 32.2611L5.96757 33.0675L5.42007 32.7917C4.11766 32.1355 3.19716 31.0048 2.82494 29.6041C2.66437 28.9999 2.6492 27.7915 2.79468 27.1919C3.18129 25.5977 4.32422 24.2938 5.87848 23.6735C6.44092 23.4491 6.63239 23.2554 6.63239 22.9109C6.63239 22.5804 6.33783 22.2644 6.02975 22.2645C5.45449 22.2646 3.85838 23.1323 3.31574 23.7401C3.23377 23.8318 3.12372 23.9069 3.07108 23.9069C2.94508 23.9069 2.31695 23.1394 2.02552 22.6294C1.8985 22.4072 1.69796 21.9437 1.57978 21.5996C1.39512 21.062 1.36454 20.8473 1.36235 20.0744C1.36055 19.4645 1.4031 19.0114 1.49453 18.6666C2.06838 16.5024 3.97883 14.8807 6.1631 14.7035C6.84998 14.6477 7.15618 14.5155 7.26576 14.2273C7.36681 13.9616 7.30307 13.7099 7.08118 13.4984C6.92045 13.3452 6.84552 13.3349 6.1631 13.3726C5.73997 13.396 5.20123 13.4833 4.91169 13.5754C4.63207 13.6644 4.38155 13.7376 4.35496 13.7381C4.22403 13.7409 4.01942 12.7125 4.02052 12.0575C4.02279 10.6789 4.43607 9.66122 5.37291 8.72712C7.48359 6.62262 10.7718 6.92797 12.53 9.39186C12.7247 9.66459 12.9409 9.90963 13.0104 9.9363C13.2547 10.0301 13.5085 9.98315 13.7142 9.80623C14.0127 9.54946 13.9956 9.16598 13.664 8.68074C12.7745 7.37887 11.3359 6.41145 9.87857 6.13504C9.38418 6.04126 9.36986 6.0318 9.36986 5.79903C9.36986 4.96848 9.95592 3.69954 10.7007 2.91717C11.9472 1.60795 13.6427 1.06257 15.3532 1.4204ZM22.1774 1.43236L22.6662 1.48133V3.3536V5.22588L22.8817 5.44136C23.0329 5.59255 23.2723 5.69939 23.6834 5.79919C24.8612 6.08514 26.3458 6.70576 27.5122 7.3996C28.344 7.89453 28.2725 7.92598 29.8223 6.38524L31.1834 5.03215L31.6371 5.37386C32.2237 5.81546 34.1877 7.7794 34.6293 8.36601L34.971 8.81972L33.6179 10.1808C32.0772 11.7307 32.1086 11.6591 32.6035 12.491C33.2974 13.6573 33.918 15.142 34.204 16.3198C34.3038 16.7308 34.4106 16.9703 34.5618 17.1215L34.7773 17.337H36.6531H38.5289L38.595 18.0995C38.6312 18.519 38.6609 19.3725 38.6609 19.9962C38.6609 20.62 38.6312 21.4734 38.595 21.8929L38.5289 22.6555H36.6531H34.7773L34.5618 22.871C34.4106 23.0222 34.3038 23.2616 34.204 23.6727C33.918 24.8505 33.2974 26.3351 32.6035 27.5015C32.1086 28.3333 32.0772 28.2618 33.6179 29.8116L34.971 31.1727L34.6293 31.6264C34.1877 32.213 32.2237 34.177 31.6371 34.6186L31.1834 34.9603L29.8223 33.6072C28.2725 32.0665 28.344 32.0979 27.5122 32.5928C26.3458 33.2867 24.8612 33.9073 23.6834 34.1933C23.2723 34.2931 23.0329 34.3999 22.8817 34.5511L22.6662 34.7666V36.6424V38.5182L21.9036 38.5843C20.9628 38.6656 18.3278 38.6458 18.0234 38.555L17.7997 38.4884L18.2349 38.1165C18.8098 37.6254 19.5425 36.6424 19.925 35.8489C20.5395 34.574 20.7055 33.5247 20.7088 30.8923L20.7108 29.3133L21.0824 29.2663C24.1899 28.8739 26.913 26.9783 28.3096 24.2352C29.4206 22.0532 29.6295 19.4765 28.8863 17.1239C28.1161 14.6859 26.1527 12.5138 23.7678 11.4613C23.1104 11.1712 21.829 10.8204 21.0824 10.7261L20.7108 10.6792L20.7095 8.59181C20.708 6.37555 20.6332 5.31638 20.4272 4.59939C20.1261 3.55172 19.5564 2.5904 18.7982 1.85065L18.3572 1.42048L18.7715 1.36878C19.2206 1.31278 21.387 1.35321 22.1774 1.43236ZM21.8449 12.2246C24.5706 12.8085 26.8514 14.99 27.7218 17.8453C27.9226 18.5042 27.9363 18.6418 27.9363 19.9962C27.9363 21.3506 27.9226 21.4882 27.7218 22.1471C26.9751 24.5967 25.2573 26.5038 22.9747 27.4175C22.4414 27.631 21.7578 27.8098 21.0041 27.9331L20.7108 27.9811V26.2974V24.6138L20.9259 24.5678C22.3084 24.272 23.5391 23.3233 24.1717 22.0657C24.8225 20.7723 24.8225 19.2202 24.1717 17.9268C23.5391 16.6692 22.3084 15.7204 20.9259 15.4246L20.7108 15.3786V13.695V12.0113L21.0041 12.0593C21.1655 12.0857 21.5438 12.1601 21.8449 12.2246ZM12.4789 12.9252C12.716 13.1905 12.7044 13.5118 12.4487 13.7676C11.9348 14.2814 11.1036 13.7142 11.4159 13.0628C11.6302 12.6161 12.1432 12.5496 12.4789 12.9252ZM21.9117 17.2884C23.0467 18.0493 23.5819 19.5863 23.1858 20.9475C22.9029 21.9193 22.0383 22.8194 21.0709 23.149L20.7108 23.2717V19.9962V16.7207L21.0709 16.8434C21.2688 16.9109 21.6472 17.1112 21.9117 17.2884ZM12.5002 18.2564C12.8307 18.6766 12.5498 19.2923 12.0276 19.2923C11.6938 19.2923 11.5207 19.1844 11.4047 18.9042C11.1259 18.2313 12.0504 17.6846 12.5002 18.2564ZM16.4517 22.2218C16.9399 22.7099 16.4328 23.4959 15.7772 23.2673C15.5062 23.1729 15.2802 22.7643 15.3656 22.523C15.5423 22.0239 16.0994 21.8694 16.4517 22.2218ZM13.0989 30.8875C13.3353 31.1502 13.3692 31.3173 13.2458 31.6125C12.9865 32.2331 12.0291 32.0252 12.0291 31.3482C12.0291 30.7772 12.7284 30.476 13.0989 30.8875Z" fill="url(#paint0_radial_1197_52)" fill-opacity="0.7"/>
<path fill-rule="evenodd" clip-rule="evenodd" d="M13.1632 0.0821613C11.2181 0.454458 9.54107 1.7381 8.6618 3.52779C8.32868 4.20582 8.04023 5.2111 8.04023 5.69415C8.04023 5.95734 8.01458 5.99824 7.82514 6.03719C7.05685 6.19495 6.50584 6.38024 5.88936 6.68801C5.30455 6.9799 5.05888 7.16621 4.43795 7.78863C3.79933 8.42881 3.63766 8.64609 3.32747 9.28095C2.82103 10.3173 2.69605 10.848 2.69167 11.9793C2.68831 12.8566 2.79898 13.5086 3.07093 14.2129C3.10315 14.2963 3.00851 14.4132 2.77035 14.5842C0.713723 16.0612 -0.358586 18.7181 0.108193 21.1804C0.350421 22.4579 0.873357 23.5058 1.78251 24.535L2.23365 25.0456L2.03593 25.4344C1.06748 27.3392 1.10542 29.5958 2.13721 31.4545C2.89017 32.8109 4.30084 33.9497 5.76719 34.385L6.19971 34.5134L6.40236 35.0567C7.83007 38.8826 11.7605 40.8649 15.5395 39.6649C16.0425 39.5051 16.1384 39.4953 16.2826 39.5888C16.7113 39.8667 19.6858 40.0799 21.3366 39.951C23.0029 39.8209 23.6062 39.7116 23.8156 39.5023C23.9939 39.3241 23.9958 39.3013 23.9958 37.4218L23.9959 35.5216L25.0322 35.1822C25.6022 34.9954 26.5364 34.6113 27.1084 34.3284L28.1484 33.8142L29.4548 35.1116C30.8604 36.5076 31.0358 36.6196 31.4575 36.3905C31.8963 36.1521 33.2498 35.0247 34.0747 34.2102C34.8859 33.4093 36.1543 31.9029 36.4015 31.4468C36.6301 31.0249 36.5181 30.8495 35.1223 29.4441L33.8249 28.1377L34.3391 27.0977C34.622 26.5257 35.0061 25.5915 35.1929 25.0215L35.5323 23.9852L37.4203 23.9851C39.6826 23.9851 39.6084 24.0126 39.7654 23.1178C39.8213 22.799 39.9084 21.9663 39.9589 21.2672C40.0566 19.9153 39.9753 18.0713 39.7654 16.8746C39.6084 15.9799 39.6826 16.0073 37.4203 16.0073L35.5323 16.0072L35.1929 14.971C35.0061 14.401 34.622 13.4667 34.3391 12.8947L33.8249 11.8547L35.1223 10.5483C36.5181 9.14298 36.6301 8.96755 36.4015 8.54566C36.1543 8.08952 34.8859 6.58313 34.0747 5.7823C33.2498 4.96778 31.8963 3.84033 31.4575 3.60193C31.0358 3.37285 30.8604 3.48485 29.4548 4.88081L28.1484 6.17829L27.1084 5.66404C26.5364 5.38114 25.6022 4.99703 25.0322 4.81026L23.9959 4.47081L23.9958 2.57061C23.9958 0.288333 24.0295 0.368893 23.0139 0.216923C21.1643 -0.0598748 19.2391 -0.0718415 17.2985 0.181414C16.4187 0.296154 16.3135 0.295606 15.8515 0.17328C15.1797 -0.0045777 13.8517 -0.0496288 13.1632 0.0821613ZM15.3532 1.4204C17.1204 1.79019 18.6612 3.23691 19.1416 4.97763C19.2889 5.51152 19.303 5.77815 19.303 8.02883V10.4949L17.8916 12.469C17.1153 13.5547 16.4378 14.4419 16.3859 14.4405C16.3342 14.4391 15.7814 14.2117 15.1577 13.9353L14.0236 13.4326L13.9634 13.023C13.8176 12.0318 13.0022 11.3145 12.0212 11.3145C11.3794 11.3145 11.0164 11.4615 10.5795 11.8984C10.1484 12.3296 9.99557 12.6987 9.99557 13.309C9.99557 13.8342 10.1351 14.2387 10.4385 14.5931C11.1384 15.4109 12.3785 15.5367 13.2425 14.8778L13.517 14.6684L14.7087 15.1925C16.2183 15.8563 16.2833 15.8746 16.7438 15.766C17.2233 15.6528 17.3795 15.4916 18.402 14.0542C18.8619 13.4077 19.2527 12.8788 19.2705 12.8788C19.2884 12.8788 19.303 14.0227 19.303 15.4207V17.9627H16.575H13.847L13.7501 17.7289C13.6281 17.434 13.1162 16.9674 12.744 16.8114C12.3804 16.6592 11.6023 16.6581 11.2413 16.8093C10.5745 17.0886 10.0933 17.7392 10.0194 18.4615C9.86597 19.9591 11.4081 21.077 12.7864 20.4673C13.2411 20.2661 13.4681 20.0625 13.7256 19.6247L13.9211 19.2923H16.6121H19.303V20.661V22.0298H18.6006H17.8984L17.7475 21.7365C16.9609 20.2072 14.6685 20.4061 14.1112 22.0521C13.9524 22.521 13.9511 22.8426 14.106 23.2972C14.5991 24.7443 16.4361 25.113 17.4628 23.971C17.6575 23.7544 17.8169 23.5281 17.8169 23.4683C17.8169 23.3829 17.9773 23.3594 18.56 23.3594H19.303V24.689V26.0187H16.4451C12.6415 26.0187 12.8216 25.9262 12.3714 28.1106C12.1205 29.3281 12.042 29.5341 11.8281 29.5371C11.7821 29.5377 11.5961 29.6652 11.4148 29.8204C10.3301 30.7489 10.5241 32.4357 11.7895 33.0775C12.7906 33.5852 13.9425 33.2068 14.4322 32.2093C14.7348 31.593 14.727 30.9867 14.4092 30.402C14.2173 30.0492 13.7827 29.6213 13.5169 29.5236C13.4805 29.5101 13.5459 29.024 13.6624 28.4433L13.8741 27.3874L16.5885 27.3668L19.303 27.3463V30.4242C19.303 33.2434 19.2899 33.5542 19.1467 34.1208C18.6139 36.2287 17.0193 37.8536 14.8795 38.4691C14.3814 38.6124 14.0721 38.6471 13.3197 38.644C12.1964 38.6394 11.6571 38.513 10.6604 38.0208C8.72859 37.0667 7.48257 35.1781 7.35946 33.0174C7.28547 31.7198 7.59011 30.5814 8.34253 29.3428C8.60415 28.9121 8.66578 28.7452 8.63122 28.5606C8.57154 28.242 8.32063 28.0522 7.95905 28.0522C7.57165 28.0522 7.31199 28.3545 6.78334 29.421C6.31312 30.3697 6.09279 31.1909 6.02138 32.2611L5.96757 33.0675L5.42007 32.7917C4.11766 32.1355 3.19716 31.0048 2.82494 29.6041C2.66437 28.9999 2.6492 27.7915 2.79468 27.1919C3.18129 25.5977 4.32422 24.2938 5.87848 23.6735C6.44092 23.4491 6.63239 23.2554 6.63239 22.9109C6.63239 22.5804 6.33783 22.2644 6.02975 22.2645C5.45449 22.2646 3.85838 23.1323 3.31574 23.7401C3.23377 23.8318 3.12372 23.9069 3.07108 23.9069C2.94508 23.9069 2.31695 23.1394 2.02552 22.6294C1.8985 22.4072 1.69796 21.9437 1.57978 21.5996C1.39512 21.062 1.36454 20.8473 1.36235 20.0744C1.36055 19.4645 1.4031 19.0114 1.49453 18.6666C2.06838 16.5024 3.97883 14.8807 6.1631 14.7035C6.84998 14.6477 7.15618 14.5155 7.26576 14.2273C7.36681 13.9616 7.30307 13.7099 7.08118 13.4984C6.92045 13.3452 6.84552 13.3349 6.1631 13.3726C5.73997 13.396 5.20123 13.4833 4.91169 13.5754C4.63207 13.6644 4.38155 13.7376 4.35496 13.7381C4.22403 13.7409 4.01942 12.7125 4.02052 12.0575C4.02279 10.6789 4.43607 9.66122 5.37291 8.72712C7.48359 6.62262 10.7718 6.92797 12.53 9.39186C12.7247 9.66459 12.9409 9.90963 13.0104 9.9363C13.2547 10.0301 13.5085 9.98315 13.7142 9.80623C14.0127 9.54946 13.9956 9.16598 13.664 8.68074C12.7745 7.37887 11.3359 6.41145 9.87857 6.13504C9.38418 6.04126 9.36986 6.0318 9.36986 5.79903C9.36986 4.96848 9.95592 3.69954 10.7007 2.91717C11.9472 1.60795 13.6427 1.06257 15.3532 1.4204ZM22.1774 1.43236L22.6662 1.48133V3.3536V5.22588L22.8817 5.44136C23.0329 5.59255 23.2723 5.69939 23.6834 5.79919C24.8612 6.08514 26.3458 6.70576 27.5122 7.3996C28.344 7.89453 28.2725 7.92598 29.8223 6.38524L31.1834 5.03215L31.6371 5.37386C32.2237 5.81546 34.1877 7.7794 34.6293 8.36601L34.971 8.81972L33.6179 10.1808C32.0772 11.7307 32.1086 11.6591 32.6035 12.491C33.2974 13.6573 33.918 15.142 34.204 16.3198C34.3038 16.7308 34.4106 16.9703 34.5618 17.1215L34.7773 17.337H36.6531H38.5289L38.595 18.0995C38.6312 18.519 38.6609 19.3725 38.6609 19.9962C38.6609 20.62 38.6312 21.4734 38.595 21.8929L38.5289 22.6555H36.6531H34.7773L34.5618 22.871C34.4106 23.0222 34.3038 23.2616 34.204 23.6727C33.918 24.8505 33.2974 26.3351 32.6035 27.5015C32.1086 28.3333 32.0772 28.2618 33.6179 29.8116L34.971 31.1727L34.6293 31.6264C34.1877 32.213 32.2237 34.177 31.6371 34.6186L31.1834 34.9603L29.8223 33.6072C28.2725 32.0665 28.344 32.0979 27.5122 32.5928C26.3458 33.2867 24.8612 33.9073 23.6834 34.1933C23.2723 34.2931 23.0329 34.3999 22.8817 34.5511L22.6662 34.7666V36.6424V38.5182L21.9036 38.5843C20.9628 38.6656 18.3278 38.6458 18.0234 38.555L17.7997 38.4884L18.2349 38.1165C18.8098 37.6254 19.5425 36.6424 19.925 35.8489C20.5395 34.574 20.7055 33.5247 20.7088 30.8923L20.7108 29.3133L21.0824 29.2663C24.1899 28.8739 26.913 26.9783 28.3096 24.2352C29.4206 22.0532 29.6295 19.4765 28.8863 17.1239C28.1161 14.6859 26.1527 12.5138 23.7678 11.4613C23.1104 11.1712 21.829 10.8204 21.0824 10.7261L20.7108 10.6792L20.7095 8.59181C20.708 6.37555 20.6332 5.31638 20.4272 4.59939C20.1261 3.55172 19.5564 2.5904 18.7982 1.85065L18.3572 1.42048L18.7715 1.36878C19.2206 1.31278 21.387 1.35321 22.1774 1.43236ZM21.8449 12.2246C24.5706 12.8085 26.8514 14.99 27.7218 17.8453C27.9226 18.5042 27.9363 18.6418 27.9363 19.9962C27.9363 21.3506 27.9226 21.4882 27.7218 22.1471C26.9751 24.5967 25.2573 26.5038 22.9747 27.4175C22.4414 27.631 21.7578 27.8098 21.0041 27.9331L20.7108 27.9811V26.2974V24.6138L20.9259 24.5678C22.3084 24.272 23.5391 23.3233 24.1717 22.0657C24.8225 20.7723 24.8225 19.2202 24.1717 17.9268C23.5391 16.6692 22.3084 15.7204 20.9259 15.4246L20.7108 15.3786V13.695V12.0113L21.0041 12.0593C21.1655 12.0857 21.5438 12.1601 21.8449 12.2246ZM12.4789 12.9252C12.716 13.1905 12.7044 13.5118 12.4487 13.7676C11.9348 14.2814 11.1036 13.7142 11.4159 13.0628C11.6302 12.6161 12.1432 12.5496 12.4789 12.9252ZM21.9117 17.2884C23.0467 18.0493 23.5819 19.5863 23.1858 20.9475C22.9029 21.9193 22.0383 22.8194 21.0709 23.149L20.7108 23.2717V19.9962V16.7207L21.0709 16.8434C21.2688 16.9109 21.6472 17.1112 21.9117 17.2884ZM12.5002 18.2564C12.8307 18.6766 12.5498 19.2923 12.0276 19.2923C11.6938 19.2923 11.5207 19.1844 11.4047 18.9042C11.1259 18.2313 12.0504 17.6846 12.5002 18.2564ZM16.4517 22.2218C16.9399 22.7099 16.4328 23.4959 15.7772 23.2673C15.5062 23.1729 15.2802 22.7643 15.3656 22.523C15.5423 22.0239 16.0994 21.8694 16.4517 22.2218ZM13.0989 30.8875C13.3353 31.1502 13.3692 31.3173 13.2458 31.6125C12.9865 32.2331 12.0291 32.0252 12.0291 31.3482C12.0291 30.7772 12.7284 30.476 13.0989 30.8875Z" fill="url(#paint1_radial_1197_52)"/>
<defs>
<radialGradient id="paint0_radial_1197_52" cx="0" cy="0" r="1" gradientUnits="userSpaceOnUse" gradientTransform="translate(10.5556 8.33621) rotate(51.0538) scale(33.5848 33.5824)">
<stop stop-color="white" stop-opacity="0.59"/>
<stop offset="0.697917" stop-color="white" stop-opacity="0"/>
<stop offset="1" stop-color="white" stop-opacity="0"/>
</radialGradient>
<radialGradient id="paint1_radial_1197_52" cx="0" cy="0" r="1" gradientUnits="userSpaceOnUse" gradientTransform="translate(34.5205 35.0121) rotate(-93.6692) scale(34.2487 38.1585)">
<stop stop-opacity="0.23"/>
<stop offset="0.861815" stop-opacity="0"/>
</radialGradient>
</defs>
</svg>
