<svg width="40" height="45" viewBox="0 0 40 45" fill="none" xmlns="http://www.w3.org/2000/svg">
<path fill-rule="evenodd" clip-rule="evenodd" d="M14.1137 0.0975962C12.8998 0.270929 11.1659 0.955917 10.0872 1.68836C9.47324 2.10529 8.17881 3.38331 7.71785 4.0277C6.6571 5.51058 5.91056 7.71487 5.91056 9.36412C5.91056 9.70541 5.89351 9.72822 5.63731 9.72822C5.20055 9.72822 3.96988 10.1566 3.31521 10.5366C2.57358 10.967 1.3368 12.1871 0.917748 12.9019C-0.337477 15.0424 -0.302254 17.8087 1.0059 19.8327C1.72898 20.9515 2.8701 21.9382 4.00196 22.4233C4.24444 22.5273 4.42898 22.6541 4.41202 22.7051C4.39497 22.7562 3.77625 23.081 3.03713 23.4271C1.42301 24.1828 1.47186 24.1041 1.47186 25.9492C1.47186 27.7946 1.42301 27.7159 3.03713 28.4699L4.38116 29.0977L4.64449 30.0683L4.90783 31.0389L4.06517 32.2352C3.60172 32.8932 3.22252 33.5219 3.22252 33.6324C3.22252 34.0722 4.58202 36.4186 4.9513 36.6162C5.1161 36.7043 5.47232 36.7027 6.61029 36.6083L8.05942 36.4881L8.75915 37.1878L9.45887 37.8876L9.33791 39.381L9.21695 40.8744L9.4408 41.1129C9.97581 41.6831 12.0502 42.7874 12.4143 42.696C12.5394 42.6647 13.1538 42.2799 13.7799 41.8411L14.9181 41.0432L15.886 41.3054L16.8538 41.5676L17.4694 42.8938C17.8343 43.6795 18.1636 44.2651 18.2777 44.3305C18.5409 44.4817 21.4562 44.483 21.7186 44.3321C21.8289 44.2688 22.1667 43.6674 22.5259 42.8954L23.1435 41.5676L24.1169 41.3042L25.0902 41.0408L26.2225 41.8395C26.8452 42.2788 27.4577 42.664 27.5834 42.6956C27.7406 42.7351 28.0036 42.6595 28.4246 42.4537C29.267 42.042 30.2894 41.3996 30.5585 41.1129L30.7823 40.8744L30.6613 39.381L30.5404 37.8876L31.2392 37.1887L31.9381 36.4899L33.4297 36.6107C34.8603 36.7266 34.9295 36.7243 35.1216 36.5543C35.5793 36.1491 36.7767 34.0348 36.7767 33.6321C36.7767 33.5218 36.3975 32.8932 35.9341 32.2352L35.0914 31.0389L35.3548 30.067L35.6181 29.095L36.9442 28.4794C37.7433 28.1083 38.3129 27.7871 38.3773 27.6711C38.5298 27.3965 38.5841 24.982 38.4491 24.4807L38.3409 24.0788L36.9563 23.4225C36.1948 23.0616 35.5718 22.731 35.5718 22.6881C35.5718 22.6451 35.8062 22.5063 36.0928 22.3795C37.1947 21.8922 38.2769 20.9413 38.9965 19.8278C40.2876 17.8302 40.3373 15.07 39.1199 12.9724C38.6712 12.1993 37.4572 10.9853 36.6841 10.5366C35.6456 9.9339 34.7735 9.70356 33.4862 9.69188C32.8744 9.68641 32.2592 9.71394 32.119 9.75315C31.8776 9.82063 31.8641 9.80802 31.8641 9.5153C31.8641 8.31393 31.2544 6.91791 30.3227 5.98627C28.8202 4.48384 26.6861 4.05838 24.6852 4.86239C24.2214 5.0487 24.0302 5.0893 24.0029 5.00717C23.8905 4.67024 22.9629 3.43726 22.3753 2.84394C20.2444 0.69221 17.1515 -0.336013 14.1137 0.0975962ZM16.9827 1.61959C19.6021 2.07637 21.8266 3.81275 23.0065 6.32172C23.3481 7.04796 23.7952 7.17263 24.401 6.71056C24.559 6.59006 24.9368 6.37548 25.2406 6.23376C25.7219 6.00926 25.9059 5.97598 26.6734 5.97515C27.4708 5.97431 27.6125 6.00194 28.1731 6.26759C29.7972 7.03693 30.6218 8.65643 30.2885 10.4223C30.1799 10.9981 30.1846 11.0597 30.355 11.2889C30.5966 11.614 30.9842 11.646 31.7083 11.4006C33.55 10.7763 35.6012 11.2648 36.9964 12.66C39.0329 14.6965 39.0306 17.9283 36.9911 19.9678C36.3981 20.5609 35.9093 20.871 35.0267 21.2143L34.4131 21.453L29.431 21.481L24.4488 21.509V20.19V18.871L25.1903 18.1112L25.9319 17.3515V16.3783V15.4049L26.2131 15.2884C26.8362 15.0303 27.4149 14.0935 27.4149 13.3432C27.4149 12.1946 26.3389 11.1186 25.1903 11.1186C24.0418 11.1186 22.9657 12.1946 22.9657 13.3432C22.9657 14.0935 23.5445 15.0303 24.1676 15.2884C24.4432 15.4026 24.4488 15.4179 24.4488 16.0593V16.7137L23.7073 17.4735L22.9657 18.2332V19.8666V21.5H21.8535H20.7412V16.2278V10.9557L21.0224 10.8392C21.6455 10.5812 22.2242 9.64433 22.2242 8.89399C22.2242 7.74546 21.1482 6.6694 19.9996 6.6694C18.8511 6.6694 17.775 7.74546 17.775 8.89399C17.775 9.64433 18.3538 10.5812 18.9769 10.8392L19.2581 10.9557V16.2278V21.5H18.1458H17.0335V19.863V18.226L15.9212 17.1009L14.8089 15.9758V15.3195C14.8089 14.6762 14.8144 14.6611 15.0901 14.5469C15.7132 14.2888 16.292 13.352 16.292 12.6016C16.292 11.4531 15.2159 10.3771 14.0674 10.3771C12.9189 10.3771 11.8428 11.4531 11.8428 12.6016C11.8428 13.352 12.4216 14.2888 13.0446 14.5469L13.3259 14.6634V15.6402V16.6172L14.4382 17.7423L15.5504 18.8674V20.1881V21.509L10.5683 21.4785C5.63434 21.4483 5.58058 21.4459 5.00932 21.2346C2.59815 20.3427 1.17478 18.0167 1.53359 15.5546C1.89147 13.0992 4.13747 11.1186 6.56394 11.1186C6.76879 11.1186 7.00274 11.0418 7.14938 10.9264C7.38194 10.7436 7.39362 10.6931 7.39362 9.87263C7.39362 7.5014 8.20662 5.47851 9.80007 3.88515C11.708 1.9771 14.316 1.15446 16.9827 1.61959ZM20.5136 8.38002C20.9734 8.83977 20.6476 9.63552 19.9996 9.63552C19.8191 9.63552 19.629 9.55145 19.4857 9.40797C19.3422 9.26457 19.2581 9.07456 19.2581 8.89399C19.2581 8.71343 19.3422 8.52341 19.4857 8.38002C19.629 8.23654 19.8191 8.15246 19.9996 8.15246C20.1802 8.15246 20.3702 8.23654 20.5136 8.38002ZM14.5814 12.0877C15.0412 12.5474 14.7154 13.3432 14.0674 13.3432C13.8868 13.3432 13.6968 13.2591 13.5534 13.1156C13.4099 12.9722 13.3259 12.7822 13.3259 12.6016C13.3259 12.4211 13.4099 12.2311 13.5534 12.0877C13.6968 11.9442 13.8868 11.8601 14.0674 11.8601C14.248 11.8601 14.438 11.9442 14.5814 12.0877ZM25.7043 12.8292C26.1642 13.2889 25.8383 14.0847 25.1903 14.0847C24.8093 14.0847 24.4488 13.7242 24.4488 13.3432C24.4488 12.9621 24.8093 12.6016 25.1903 12.6016C25.3709 12.6016 25.5609 12.6857 25.7043 12.8292ZM8.46365 23.1449C8.26872 23.6528 8.12013 25.2414 8.16648 26.3199C8.24629 28.174 8.62827 29.6359 9.45924 31.2673C11.0363 34.364 13.8112 36.5446 17.2862 37.4184C18.1929 37.6464 18.4428 37.6695 19.9996 37.6695C21.5577 37.6695 21.806 37.6465 22.7159 37.4178C27.315 36.2614 30.6415 32.8099 31.6457 28.1523C31.9186 26.8864 31.8483 23.9597 31.5247 23.1163C31.4817 23.0043 31.6816 22.9831 32.7775 22.9831H34.0816L34.1785 23.3431C34.2318 23.541 34.3435 23.76 34.4268 23.8297C34.5101 23.8993 35.1251 24.2105 35.7934 24.5212L37.0085 25.086V25.9525V26.819L35.7774 27.3867C35.1003 27.699 34.4815 28.0193 34.4023 28.0985C34.323 28.1778 34.1602 28.6547 34.0402 29.1582C33.9203 29.6619 33.757 30.2564 33.6773 30.4796C33.4307 31.1704 33.4736 31.3061 34.3204 32.5142C34.7538 33.1324 35.1083 33.692 35.1083 33.7577C35.1083 33.8476 34.4401 35.0832 34.3343 35.1889C34.3245 35.1988 33.7126 35.1481 32.9744 35.0763C32.2363 35.0045 31.5737 34.9445 31.502 34.943C31.3659 34.9401 29.2266 36.9983 29.0732 37.2796C28.9941 37.4245 29.0661 38.657 29.2264 39.9041L29.2747 40.2799L28.5948 40.6688C28.2209 40.8829 27.864 41.0578 27.8018 41.0578C27.7395 41.0578 27.1828 40.7033 26.5647 40.27C25.3565 39.4231 25.2208 39.3802 24.53 39.6269C24.3069 39.7066 23.7124 39.8698 23.2087 39.9898C22.7051 40.1097 22.2281 40.2727 22.1488 40.352C22.0694 40.4314 21.7476 41.0502 21.4337 41.7272L20.8628 42.958H19.9996H19.1365L18.5656 41.7272C18.2517 41.0502 17.9298 40.4314 17.8505 40.352C17.7711 40.2727 17.2942 40.1097 16.7906 39.9898C16.2869 39.8698 15.6924 39.7066 15.4693 39.6269C14.7784 39.3802 14.6427 39.4231 13.4346 40.27C12.8164 40.7033 12.2597 41.0578 12.1974 41.0578C12.1352 41.0578 11.7784 40.8829 11.4045 40.6688L10.7246 40.2799L10.7729 39.9041C10.9331 38.657 11.0051 37.4245 10.9261 37.2796C10.7727 36.9983 8.63337 34.9401 8.49729 34.943C8.42555 34.9445 7.763 35.0045 7.0249 35.0763C6.2867 35.1481 5.67475 35.1988 5.66493 35.1889C5.55917 35.0832 4.89096 33.8476 4.89096 33.7577C4.89096 33.692 5.2455 33.1324 5.67883 32.5142C6.52566 31.3061 6.56858 31.1704 6.32192 30.4796C6.24221 30.2564 6.07898 29.6619 5.95904 29.1582C5.8391 28.6547 5.67373 28.175 5.59161 28.0923C5.50939 28.0097 4.89059 27.6885 4.21644 27.3786L2.99079 26.8152V25.9492V25.0832L4.20894 24.5198C4.87891 24.2098 5.49382 23.8993 5.57548 23.8297C5.65705 23.76 5.76745 23.541 5.82074 23.3431L5.9177 22.9831H7.22177C8.42453 22.9831 8.52093 22.9957 8.46365 23.1449ZM30.0516 23.2843C30.4084 24.9502 30.4612 26.1455 30.2388 27.5171C29.6191 31.3377 26.9622 34.4488 23.2219 35.7335C21.6988 36.2565 19.4313 36.3747 17.7949 36.0163C14.4199 35.2769 11.6153 32.87 10.331 29.6105C9.57038 27.68 9.43348 25.6709 9.9126 23.4697L10.0184 22.9831H20.0028H29.9871L30.0516 23.2843ZM16.292 25.2076V25.9492H17.0335H17.775V25.2076V24.4661H17.0335H16.292V25.2076ZM19.2581 25.2076V25.9492H19.9996H20.7412V25.2076V24.4661H19.9996H19.2581V25.2076ZM22.2242 25.2076V25.9492H22.9657H23.7073V25.2076V24.4661H22.9657H22.2242V25.2076Z" fill="#0066FF"/>
<path fill-rule="evenodd" clip-rule="evenodd" d="M14.1137 0.0975962C12.8998 0.270929 11.1659 0.955917 10.0872 1.68836C9.47324 2.10529 8.17881 3.38331 7.71785 4.0277C6.6571 5.51058 5.91056 7.71487 5.91056 9.36412C5.91056 9.70541 5.89351 9.72822 5.63731 9.72822C5.20055 9.72822 3.96988 10.1566 3.31521 10.5366C2.57358 10.967 1.3368 12.1871 0.917748 12.9019C-0.337477 15.0424 -0.302254 17.8087 1.0059 19.8327C1.72898 20.9515 2.8701 21.9382 4.00196 22.4233C4.24444 22.5273 4.42898 22.6541 4.41202 22.7051C4.39497 22.7562 3.77625 23.081 3.03713 23.4271C1.42301 24.1828 1.47186 24.1041 1.47186 25.9492C1.47186 27.7946 1.42301 27.7159 3.03713 28.4699L4.38116 29.0977L4.64449 30.0683L4.90783 31.0389L4.06517 32.2352C3.60172 32.8932 3.22252 33.5219 3.22252 33.6324C3.22252 34.0722 4.58202 36.4186 4.9513 36.6162C5.1161 36.7043 5.47232 36.7027 6.61029 36.6083L8.05942 36.4881L8.75915 37.1878L9.45887 37.8876L9.33791 39.381L9.21695 40.8744L9.4408 41.1129C9.97581 41.6831 12.0502 42.7874 12.4143 42.696C12.5394 42.6647 13.1538 42.2799 13.7799 41.8411L14.9181 41.0432L15.886 41.3054L16.8538 41.5676L17.4694 42.8938C17.8343 43.6795 18.1636 44.2651 18.2777 44.3305C18.5409 44.4817 21.4562 44.483 21.7186 44.3321C21.8289 44.2688 22.1667 43.6674 22.5259 42.8954L23.1435 41.5676L24.1169 41.3042L25.0902 41.0408L26.2225 41.8395C26.8452 42.2788 27.4577 42.664 27.5834 42.6956C27.7406 42.7351 28.0036 42.6595 28.4246 42.4537C29.267 42.042 30.2894 41.3996 30.5585 41.1129L30.7823 40.8744L30.6613 39.381L30.5404 37.8876L31.2392 37.1887L31.9381 36.4899L33.4297 36.6107C34.8603 36.7266 34.9295 36.7243 35.1216 36.5543C35.5793 36.1491 36.7767 34.0348 36.7767 33.6321C36.7767 33.5218 36.3975 32.8932 35.9341 32.2352L35.0914 31.0389L35.3548 30.067L35.6181 29.095L36.9442 28.4794C37.7433 28.1083 38.3129 27.7871 38.3773 27.6711C38.5298 27.3965 38.5841 24.982 38.4491 24.4807L38.3409 24.0788L36.9563 23.4225C36.1948 23.0616 35.5718 22.731 35.5718 22.6881C35.5718 22.6451 35.8062 22.5063 36.0928 22.3795C37.1947 21.8922 38.2769 20.9413 38.9965 19.8278C40.2876 17.8302 40.3373 15.07 39.1199 12.9724C38.6712 12.1993 37.4572 10.9853 36.6841 10.5366C35.6456 9.9339 34.7735 9.70356 33.4862 9.69188C32.8744 9.68641 32.2592 9.71394 32.119 9.75315C31.8776 9.82063 31.8641 9.80802 31.8641 9.5153C31.8641 8.31393 31.2544 6.91791 30.3227 5.98627C28.8202 4.48384 26.6861 4.05838 24.6852 4.86239C24.2214 5.0487 24.0302 5.0893 24.0029 5.00717C23.8905 4.67024 22.9629 3.43726 22.3753 2.84394C20.2444 0.69221 17.1515 -0.336013 14.1137 0.0975962ZM16.9827 1.61959C19.6021 2.07637 21.8266 3.81275 23.0065 6.32172C23.3481 7.04796 23.7952 7.17263 24.401 6.71056C24.559 6.59006 24.9368 6.37548 25.2406 6.23376C25.7219 6.00926 25.9059 5.97598 26.6734 5.97515C27.4708 5.97431 27.6125 6.00194 28.1731 6.26759C29.7972 7.03693 30.6218 8.65643 30.2885 10.4223C30.1799 10.9981 30.1846 11.0597 30.355 11.2889C30.5966 11.614 30.9842 11.646 31.7083 11.4006C33.55 10.7763 35.6012 11.2648 36.9964 12.66C39.0329 14.6965 39.0306 17.9283 36.9911 19.9678C36.3981 20.5609 35.9093 20.871 35.0267 21.2143L34.4131 21.453L29.431 21.481L24.4488 21.509V20.19V18.871L25.1903 18.1112L25.9319 17.3515V16.3783V15.4049L26.2131 15.2884C26.8362 15.0303 27.4149 14.0935 27.4149 13.3432C27.4149 12.1946 26.3389 11.1186 25.1903 11.1186C24.0418 11.1186 22.9657 12.1946 22.9657 13.3432C22.9657 14.0935 23.5445 15.0303 24.1676 15.2884C24.4432 15.4026 24.4488 15.4179 24.4488 16.0593V16.7137L23.7073 17.4735L22.9657 18.2332V19.8666V21.5H21.8535H20.7412V16.2278V10.9557L21.0224 10.8392C21.6455 10.5812 22.2242 9.64433 22.2242 8.89399C22.2242 7.74546 21.1482 6.6694 19.9996 6.6694C18.8511 6.6694 17.775 7.74546 17.775 8.89399C17.775 9.64433 18.3538 10.5812 18.9769 10.8392L19.2581 10.9557V16.2278V21.5H18.1458H17.0335V19.863V18.226L15.9212 17.1009L14.8089 15.9758V15.3195C14.8089 14.6762 14.8144 14.6611 15.0901 14.5469C15.7132 14.2888 16.292 13.352 16.292 12.6016C16.292 11.4531 15.2159 10.3771 14.0674 10.3771C12.9189 10.3771 11.8428 11.4531 11.8428 12.6016C11.8428 13.352 12.4216 14.2888 13.0446 14.5469L13.3259 14.6634V15.6402V16.6172L14.4382 17.7423L15.5504 18.8674V20.1881V21.509L10.5683 21.4785C5.63434 21.4483 5.58058 21.4459 5.00932 21.2346C2.59815 20.3427 1.17478 18.0167 1.53359 15.5546C1.89147 13.0992 4.13747 11.1186 6.56394 11.1186C6.76879 11.1186 7.00274 11.0418 7.14938 10.9264C7.38194 10.7436 7.39362 10.6931 7.39362 9.87263C7.39362 7.5014 8.20662 5.47851 9.80007 3.88515C11.708 1.9771 14.316 1.15446 16.9827 1.61959ZM20.5136 8.38002C20.9734 8.83977 20.6476 9.63552 19.9996 9.63552C19.8191 9.63552 19.629 9.55145 19.4857 9.40797C19.3422 9.26457 19.2581 9.07456 19.2581 8.89399C19.2581 8.71343 19.3422 8.52341 19.4857 8.38002C19.629 8.23654 19.8191 8.15246 19.9996 8.15246C20.1802 8.15246 20.3702 8.23654 20.5136 8.38002ZM14.5814 12.0877C15.0412 12.5474 14.7154 13.3432 14.0674 13.3432C13.8868 13.3432 13.6968 13.2591 13.5534 13.1156C13.4099 12.9722 13.3259 12.7822 13.3259 12.6016C13.3259 12.4211 13.4099 12.2311 13.5534 12.0877C13.6968 11.9442 13.8868 11.8601 14.0674 11.8601C14.248 11.8601 14.438 11.9442 14.5814 12.0877ZM25.7043 12.8292C26.1642 13.2889 25.8383 14.0847 25.1903 14.0847C24.8093 14.0847 24.4488 13.7242 24.4488 13.3432C24.4488 12.9621 24.8093 12.6016 25.1903 12.6016C25.3709 12.6016 25.5609 12.6857 25.7043 12.8292ZM8.46365 23.1449C8.26872 23.6528 8.12013 25.2414 8.16648 26.3199C8.24629 28.174 8.62827 29.6359 9.45924 31.2673C11.0363 34.364 13.8112 36.5446 17.2862 37.4184C18.1929 37.6464 18.4428 37.6695 19.9996 37.6695C21.5577 37.6695 21.806 37.6465 22.7159 37.4178C27.315 36.2614 30.6415 32.8099 31.6457 28.1523C31.9186 26.8864 31.8483 23.9597 31.5247 23.1163C31.4817 23.0043 31.6816 22.9831 32.7775 22.9831H34.0816L34.1785 23.3431C34.2318 23.541 34.3435 23.76 34.4268 23.8297C34.5101 23.8993 35.1251 24.2105 35.7934 24.5212L37.0085 25.086V25.9525V26.819L35.7774 27.3867C35.1003 27.699 34.4815 28.0193 34.4023 28.0985C34.323 28.1778 34.1602 28.6547 34.0402 29.1582C33.9203 29.6619 33.757 30.2564 33.6773 30.4796C33.4307 31.1704 33.4736 31.3061 34.3204 32.5142C34.7538 33.1324 35.1083 33.692 35.1083 33.7577C35.1083 33.8476 34.4401 35.0832 34.3343 35.1889C34.3245 35.1988 33.7126 35.1481 32.9744 35.0763C32.2363 35.0045 31.5737 34.9445 31.502 34.943C31.3659 34.9401 29.2266 36.9983 29.0732 37.2796C28.9941 37.4245 29.0661 38.657 29.2264 39.9041L29.2747 40.2799L28.5948 40.6688C28.2209 40.8829 27.864 41.0578 27.8018 41.0578C27.7395 41.0578 27.1828 40.7033 26.5647 40.27C25.3565 39.4231 25.2208 39.3802 24.53 39.6269C24.3069 39.7066 23.7124 39.8698 23.2087 39.9898C22.7051 40.1097 22.2281 40.2727 22.1488 40.352C22.0694 40.4314 21.7476 41.0502 21.4337 41.7272L20.8628 42.958H19.9996H19.1365L18.5656 41.7272C18.2517 41.0502 17.9298 40.4314 17.8505 40.352C17.7711 40.2727 17.2942 40.1097 16.7906 39.9898C16.2869 39.8698 15.6924 39.7066 15.4693 39.6269C14.7784 39.3802 14.6427 39.4231 13.4346 40.27C12.8164 40.7033 12.2597 41.0578 12.1974 41.0578C12.1352 41.0578 11.7784 40.8829 11.4045 40.6688L10.7246 40.2799L10.7729 39.9041C10.9331 38.657 11.0051 37.4245 10.9261 37.2796C10.7727 36.9983 8.63337 34.9401 8.49729 34.943C8.42555 34.9445 7.763 35.0045 7.0249 35.0763C6.2867 35.1481 5.67475 35.1988 5.66493 35.1889C5.55917 35.0832 4.89096 33.8476 4.89096 33.7577C4.89096 33.692 5.2455 33.1324 5.67883 32.5142C6.52566 31.3061 6.56858 31.1704 6.32192 30.4796C6.24221 30.2564 6.07898 29.6619 5.95904 29.1582C5.8391 28.6547 5.67373 28.175 5.59161 28.0923C5.50939 28.0097 4.89059 27.6885 4.21644 27.3786L2.99079 26.8152V25.9492V25.0832L4.20894 24.5198C4.87891 24.2098 5.49382 23.8993 5.57548 23.8297C5.65705 23.76 5.76745 23.541 5.82074 23.3431L5.9177 22.9831H7.22177C8.42453 22.9831 8.52093 22.9957 8.46365 23.1449ZM30.0516 23.2843C30.4084 24.9502 30.4612 26.1455 30.2388 27.5171C29.6191 31.3377 26.9622 34.4488 23.2219 35.7335C21.6988 36.2565 19.4313 36.3747 17.7949 36.0163C14.4199 35.2769 11.6153 32.87 10.331 29.6105C9.57038 27.68 9.43348 25.6709 9.9126 23.4697L10.0184 22.9831H20.0028H29.9871L30.0516 23.2843ZM16.292 25.2076V25.9492H17.0335H17.775V25.2076V24.4661H17.0335H16.292V25.2076ZM19.2581 25.2076V25.9492H19.9996H20.7412V25.2076V24.4661H19.9996H19.2581V25.2076ZM22.2242 25.2076V25.9492H22.9657H23.7073V25.2076V24.4661H22.9657H22.2242V25.2076Z" fill="url(#paint0_radial_1197_37)" fill-opacity="0.7"/>
<path fill-rule="evenodd" clip-rule="evenodd" d="M14.1137 0.0975962C12.8998 0.270929 11.1659 0.955917 10.0872 1.68836C9.47324 2.10529 8.17881 3.38331 7.71785 4.0277C6.6571 5.51058 5.91056 7.71487 5.91056 9.36412C5.91056 9.70541 5.89351 9.72822 5.63731 9.72822C5.20055 9.72822 3.96988 10.1566 3.31521 10.5366C2.57358 10.967 1.3368 12.1871 0.917748 12.9019C-0.337477 15.0424 -0.302254 17.8087 1.0059 19.8327C1.72898 20.9515 2.8701 21.9382 4.00196 22.4233C4.24444 22.5273 4.42898 22.6541 4.41202 22.7051C4.39497 22.7562 3.77625 23.081 3.03713 23.4271C1.42301 24.1828 1.47186 24.1041 1.47186 25.9492C1.47186 27.7946 1.42301 27.7159 3.03713 28.4699L4.38116 29.0977L4.64449 30.0683L4.90783 31.0389L4.06517 32.2352C3.60172 32.8932 3.22252 33.5219 3.22252 33.6324C3.22252 34.0722 4.58202 36.4186 4.9513 36.6162C5.1161 36.7043 5.47232 36.7027 6.61029 36.6083L8.05942 36.4881L8.75915 37.1878L9.45887 37.8876L9.33791 39.381L9.21695 40.8744L9.4408 41.1129C9.97581 41.6831 12.0502 42.7874 12.4143 42.696C12.5394 42.6647 13.1538 42.2799 13.7799 41.8411L14.9181 41.0432L15.886 41.3054L16.8538 41.5676L17.4694 42.8938C17.8343 43.6795 18.1636 44.2651 18.2777 44.3305C18.5409 44.4817 21.4562 44.483 21.7186 44.3321C21.8289 44.2688 22.1667 43.6674 22.5259 42.8954L23.1435 41.5676L24.1169 41.3042L25.0902 41.0408L26.2225 41.8395C26.8452 42.2788 27.4577 42.664 27.5834 42.6956C27.7406 42.7351 28.0036 42.6595 28.4246 42.4537C29.267 42.042 30.2894 41.3996 30.5585 41.1129L30.7823 40.8744L30.6613 39.381L30.5404 37.8876L31.2392 37.1887L31.9381 36.4899L33.4297 36.6107C34.8603 36.7266 34.9295 36.7243 35.1216 36.5543C35.5793 36.1491 36.7767 34.0348 36.7767 33.6321C36.7767 33.5218 36.3975 32.8932 35.9341 32.2352L35.0914 31.0389L35.3548 30.067L35.6181 29.095L36.9442 28.4794C37.7433 28.1083 38.3129 27.7871 38.3773 27.6711C38.5298 27.3965 38.5841 24.982 38.4491 24.4807L38.3409 24.0788L36.9563 23.4225C36.1948 23.0616 35.5718 22.731 35.5718 22.6881C35.5718 22.6451 35.8062 22.5063 36.0928 22.3795C37.1947 21.8922 38.2769 20.9413 38.9965 19.8278C40.2876 17.8302 40.3373 15.07 39.1199 12.9724C38.6712 12.1993 37.4572 10.9853 36.6841 10.5366C35.6456 9.9339 34.7735 9.70356 33.4862 9.69188C32.8744 9.68641 32.2592 9.71394 32.119 9.75315C31.8776 9.82063 31.8641 9.80802 31.8641 9.5153C31.8641 8.31393 31.2544 6.91791 30.3227 5.98627C28.8202 4.48384 26.6861 4.05838 24.6852 4.86239C24.2214 5.0487 24.0302 5.0893 24.0029 5.00717C23.8905 4.67024 22.9629 3.43726 22.3753 2.84394C20.2444 0.69221 17.1515 -0.336013 14.1137 0.0975962ZM16.9827 1.61959C19.6021 2.07637 21.8266 3.81275 23.0065 6.32172C23.3481 7.04796 23.7952 7.17263 24.401 6.71056C24.559 6.59006 24.9368 6.37548 25.2406 6.23376C25.7219 6.00926 25.9059 5.97598 26.6734 5.97515C27.4708 5.97431 27.6125 6.00194 28.1731 6.26759C29.7972 7.03693 30.6218 8.65643 30.2885 10.4223C30.1799 10.9981 30.1846 11.0597 30.355 11.2889C30.5966 11.614 30.9842 11.646 31.7083 11.4006C33.55 10.7763 35.6012 11.2648 36.9964 12.66C39.0329 14.6965 39.0306 17.9283 36.9911 19.9678C36.3981 20.5609 35.9093 20.871 35.0267 21.2143L34.4131 21.453L29.431 21.481L24.4488 21.509V20.19V18.871L25.1903 18.1112L25.9319 17.3515V16.3783V15.4049L26.2131 15.2884C26.8362 15.0303 27.4149 14.0935 27.4149 13.3432C27.4149 12.1946 26.3389 11.1186 25.1903 11.1186C24.0418 11.1186 22.9657 12.1946 22.9657 13.3432C22.9657 14.0935 23.5445 15.0303 24.1676 15.2884C24.4432 15.4026 24.4488 15.4179 24.4488 16.0593V16.7137L23.7073 17.4735L22.9657 18.2332V19.8666V21.5H21.8535H20.7412V16.2278V10.9557L21.0224 10.8392C21.6455 10.5812 22.2242 9.64433 22.2242 8.89399C22.2242 7.74546 21.1482 6.6694 19.9996 6.6694C18.8511 6.6694 17.775 7.74546 17.775 8.89399C17.775 9.64433 18.3538 10.5812 18.9769 10.8392L19.2581 10.9557V16.2278V21.5H18.1458H17.0335V19.863V18.226L15.9212 17.1009L14.8089 15.9758V15.3195C14.8089 14.6762 14.8144 14.6611 15.0901 14.5469C15.7132 14.2888 16.292 13.352 16.292 12.6016C16.292 11.4531 15.2159 10.3771 14.0674 10.3771C12.9189 10.3771 11.8428 11.4531 11.8428 12.6016C11.8428 13.352 12.4216 14.2888 13.0446 14.5469L13.3259 14.6634V15.6402V16.6172L14.4382 17.7423L15.5504 18.8674V20.1881V21.509L10.5683 21.4785C5.63434 21.4483 5.58058 21.4459 5.00932 21.2346C2.59815 20.3427 1.17478 18.0167 1.53359 15.5546C1.89147 13.0992 4.13747 11.1186 6.56394 11.1186C6.76879 11.1186 7.00274 11.0418 7.14938 10.9264C7.38194 10.7436 7.39362 10.6931 7.39362 9.87263C7.39362 7.5014 8.20662 5.47851 9.80007 3.88515C11.708 1.9771 14.316 1.15446 16.9827 1.61959ZM20.5136 8.38002C20.9734 8.83977 20.6476 9.63552 19.9996 9.63552C19.8191 9.63552 19.629 9.55145 19.4857 9.40797C19.3422 9.26457 19.2581 9.07456 19.2581 8.89399C19.2581 8.71343 19.3422 8.52341 19.4857 8.38002C19.629 8.23654 19.8191 8.15246 19.9996 8.15246C20.1802 8.15246 20.3702 8.23654 20.5136 8.38002ZM14.5814 12.0877C15.0412 12.5474 14.7154 13.3432 14.0674 13.3432C13.8868 13.3432 13.6968 13.2591 13.5534 13.1156C13.4099 12.9722 13.3259 12.7822 13.3259 12.6016C13.3259 12.4211 13.4099 12.2311 13.5534 12.0877C13.6968 11.9442 13.8868 11.8601 14.0674 11.8601C14.248 11.8601 14.438 11.9442 14.5814 12.0877ZM25.7043 12.8292C26.1642 13.2889 25.8383 14.0847 25.1903 14.0847C24.8093 14.0847 24.4488 13.7242 24.4488 13.3432C24.4488 12.9621 24.8093 12.6016 25.1903 12.6016C25.3709 12.6016 25.5609 12.6857 25.7043 12.8292ZM8.46365 23.1449C8.26872 23.6528 8.12013 25.2414 8.16648 26.3199C8.24629 28.174 8.62827 29.6359 9.45924 31.2673C11.0363 34.364 13.8112 36.5446 17.2862 37.4184C18.1929 37.6464 18.4428 37.6695 19.9996 37.6695C21.5577 37.6695 21.806 37.6465 22.7159 37.4178C27.315 36.2614 30.6415 32.8099 31.6457 28.1523C31.9186 26.8864 31.8483 23.9597 31.5247 23.1163C31.4817 23.0043 31.6816 22.9831 32.7775 22.9831H34.0816L34.1785 23.3431C34.2318 23.541 34.3435 23.76 34.4268 23.8297C34.5101 23.8993 35.1251 24.2105 35.7934 24.5212L37.0085 25.086V25.9525V26.819L35.7774 27.3867C35.1003 27.699 34.4815 28.0193 34.4023 28.0985C34.323 28.1778 34.1602 28.6547 34.0402 29.1582C33.9203 29.6619 33.757 30.2564 33.6773 30.4796C33.4307 31.1704 33.4736 31.3061 34.3204 32.5142C34.7538 33.1324 35.1083 33.692 35.1083 33.7577C35.1083 33.8476 34.4401 35.0832 34.3343 35.1889C34.3245 35.1988 33.7126 35.1481 32.9744 35.0763C32.2363 35.0045 31.5737 34.9445 31.502 34.943C31.3659 34.9401 29.2266 36.9983 29.0732 37.2796C28.9941 37.4245 29.0661 38.657 29.2264 39.9041L29.2747 40.2799L28.5948 40.6688C28.2209 40.8829 27.864 41.0578 27.8018 41.0578C27.7395 41.0578 27.1828 40.7033 26.5647 40.27C25.3565 39.4231 25.2208 39.3802 24.53 39.6269C24.3069 39.7066 23.7124 39.8698 23.2087 39.9898C22.7051 40.1097 22.2281 40.2727 22.1488 40.352C22.0694 40.4314 21.7476 41.0502 21.4337 41.7272L20.8628 42.958H19.9996H19.1365L18.5656 41.7272C18.2517 41.0502 17.9298 40.4314 17.8505 40.352C17.7711 40.2727 17.2942 40.1097 16.7906 39.9898C16.2869 39.8698 15.6924 39.7066 15.4693 39.6269C14.7784 39.3802 14.6427 39.4231 13.4346 40.27C12.8164 40.7033 12.2597 41.0578 12.1974 41.0578C12.1352 41.0578 11.7784 40.8829 11.4045 40.6688L10.7246 40.2799L10.7729 39.9041C10.9331 38.657 11.0051 37.4245 10.9261 37.2796C10.7727 36.9983 8.63337 34.9401 8.49729 34.943C8.42555 34.9445 7.763 35.0045 7.0249 35.0763C6.2867 35.1481 5.67475 35.1988 5.66493 35.1889C5.55917 35.0832 4.89096 33.8476 4.89096 33.7577C4.89096 33.692 5.2455 33.1324 5.67883 32.5142C6.52566 31.3061 6.56858 31.1704 6.32192 30.4796C6.24221 30.2564 6.07898 29.6619 5.95904 29.1582C5.8391 28.6547 5.67373 28.175 5.59161 28.0923C5.50939 28.0097 4.89059 27.6885 4.21644 27.3786L2.99079 26.8152V25.9492V25.0832L4.20894 24.5198C4.87891 24.2098 5.49382 23.8993 5.57548 23.8297C5.65705 23.76 5.76745 23.541 5.82074 23.3431L5.9177 22.9831H7.22177C8.42453 22.9831 8.52093 22.9957 8.46365 23.1449ZM30.0516 23.2843C30.4084 24.9502 30.4612 26.1455 30.2388 27.5171C29.6191 31.3377 26.9622 34.4488 23.2219 35.7335C21.6988 36.2565 19.4313 36.3747 17.7949 36.0163C14.4199 35.2769 11.6153 32.87 10.331 29.6105C9.57038 27.68 9.43348 25.6709 9.9126 23.4697L10.0184 22.9831H20.0028H29.9871L30.0516 23.2843ZM16.292 25.2076V25.9492H17.0335H17.775V25.2076V24.4661H17.0335H16.292V25.2076ZM19.2581 25.2076V25.9492H19.9996H20.7412V25.2076V24.4661H19.9996H19.2581V25.2076ZM22.2242 25.2076V25.9492H22.9657H23.7073V25.2076V24.4661H22.9657H22.2242V25.2076Z" fill="url(#paint1_radial_1197_37)"/>
<defs>
<radialGradient id="paint0_radial_1197_37" cx="0" cy="0" r="1" gradientUnits="userSpaceOnUse" gradientTransform="translate(10.5556 9.25929) rotate(53.9582) scale(35.8804 34.9146)">
<stop stop-color="white" stop-opacity="0.59"/>
<stop offset="0.697917" stop-color="white" stop-opacity="0"/>
<stop offset="1" stop-color="white" stop-opacity="0"/>
</radialGradient>
<radialGradient id="paint1_radial_1197_37" cx="0" cy="0" r="1" gradientUnits="userSpaceOnUse" gradientTransform="translate(34.5205 38.889) rotate(-93.3043) scale(38.0263 38.1733)">
<stop stop-opacity="0.23"/>
<stop offset="0.861815" stop-opacity="0"/>
</radialGradient>
</defs>
</svg>
