<svg width="70" height="82" viewBox="0 0 70 82" fill="none" xmlns="http://www.w3.org/2000/svg">
<path fill-rule="evenodd" clip-rule="evenodd" d="M21.7799 4.17168C14.2827 6.58753 8.71052 8.46399 8.48517 8.6488C7.97983 9.06324 7.95069 9.98064 8.42768 10.4576C8.641 10.6708 10.2969 11.2772 13.0915 12.1654L17.4248 13.5426L17.5066 17.2553C17.5588 19.6349 17.6568 21.124 17.7793 21.4022C18.0521 22.0222 19.1743 23.1962 19.7039 23.4155L20.1538 23.6019L20.2437 25.9273C20.3405 28.4334 20.5888 29.6389 21.4091 31.5841C22.3506 33.8165 24.1697 36.1619 25.9501 37.4387L26.8323 38.0713L26.8399 40.7083L26.8475 43.345L23.4823 43.4141C20.4002 43.4774 19.9998 43.5189 18.7239 43.9064C16.2173 44.6678 14.1774 45.8876 12.4044 47.685L11.3432 48.7609H6.0302C0.951296 48.7609 0.703615 48.7747 0.404623 49.0737C0.232639 49.2457 0.0511534 49.5488 0.00142697 49.7472C-0.0540006 49.9681 1.50906 55.9722 4.03275 65.2313C7.67466 78.5938 8.20201 80.3961 8.56229 80.7109L8.97008 81.0673H35.0033H61.0365L61.4489 80.7109C61.8155 80.3941 62.3164 78.6888 65.973 65.31C68.9653 54.3618 70.0611 50.1265 69.9974 49.7553C69.8284 48.769 69.779 48.7609 63.9433 48.7609H58.6678L57.5661 47.6592C55.741 45.834 53.7875 44.6674 51.2827 43.9064C50.0067 43.5189 49.6064 43.4774 46.5243 43.4141L43.1591 43.345V40.757V38.169L44.0842 37.4572C45.8658 36.0862 47.4937 34.0284 48.4727 31.9097C49.3633 29.9821 49.6784 28.527 49.7684 25.9281L49.8489 23.6035L50.3008 23.4163C50.832 23.1962 51.9541 22.0231 52.2273 21.4022C52.3497 21.1241 52.4478 19.6366 52.5 17.2637L52.5817 13.5594L53.2548 13.3608L53.9278 13.1623V20.6015V28.0407L51.8691 31.4754C50.7368 33.3646 49.8104 35.0746 49.8104 35.2756C49.8104 35.4765 50.0218 35.8525 50.2802 36.1108L50.7499 36.5806L55.362 36.5341L59.974 36.4877L60.2767 36.1138C60.8598 35.3932 60.6987 34.9452 58.5994 31.4479L56.62 28.1501L56.6211 20.204L56.6224 12.2579L58.9301 11.5532C60.839 10.9703 61.3065 10.7669 61.6351 10.3762C62.0823 9.84476 62.054 9.14844 61.5651 8.66067C61.2736 8.36976 35.5386 -0.0211807 35.0033 4.01826e-05C34.8291 0.00700822 28.8785 1.8841 21.7799 4.17168ZM45.7266 6.19209C51.4502 8.03941 56.1147 9.56969 56.0919 9.59233C56.0692 9.61514 51.3321 11.1315 45.5649 12.9622L35.0793 16.2905L24.7476 13.0296C19.0652 11.236 14.3146 9.71332 14.1906 9.64554C14.0422 9.56446 14.4208 9.38155 15.2991 9.11011C16.0328 8.88318 20.6951 7.38315 25.6598 5.7767C30.6245 4.17009 34.8291 2.8506 35.0033 2.84442C35.1775 2.83825 40.003 4.34461 45.7266 6.19209ZM27.6393 16.7677C31.5153 17.989 34.8687 18.9883 35.0912 18.9883C35.3137 18.9884 38.7166 17.9665 42.6531 16.7176L49.8104 14.4467V17.3297C49.8104 20.9482 49.8856 20.8158 47.3858 21.5935C42.6108 23.0793 39.9712 23.4868 35.0825 23.4926C30.1942 23.4985 27.2781 23.0524 22.6148 21.5859C20.115 20.7998 20.1962 20.9434 20.1962 17.3093C20.1962 15.0543 20.2404 14.4215 20.3942 14.4764C20.5031 14.5152 23.7634 15.5464 27.6393 16.7677ZM24.5299 24.9219C31.127 26.7038 38.76 26.7038 45.509 24.9217C46.3225 24.707 47.0173 24.5312 47.0531 24.5312C47.2127 24.5312 47.0909 27.2471 46.8882 28.203C46.3854 30.5759 45.3597 32.4457 43.555 34.2801C41.8082 36.0553 40.0483 37.0293 37.5371 37.61C35.9994 37.9657 33.0529 37.8431 31.5193 37.3598C27.1652 35.9874 24.0468 32.5569 23.1393 28.1406C22.8944 26.9494 22.7917 24.5312 22.9858 24.5312C23.0393 24.5312 23.7342 24.7069 24.5299 24.9219ZM56.1966 32.7077C56.5166 33.2417 56.7784 33.7226 56.7784 33.7766C56.7784 33.8305 56.0589 33.8747 55.1797 33.8747H53.581L54.0184 33.1224C54.2591 32.7086 54.628 32.0953 54.8381 31.7592C55.2735 31.0632 55.1666 30.9886 56.1966 32.7077ZM32.4376 40.3762C34.7751 40.8001 38.1136 40.4889 40.1897 39.6534C40.4458 39.5504 40.4669 39.7102 40.4669 41.7508V43.9598L37.8285 46.07C36.3774 47.2306 35.1084 48.1802 35.0087 48.1802C34.9087 48.1802 33.6374 47.2283 32.1835 46.0648L29.5397 43.9493V41.8681C29.5397 40.7235 29.5771 39.7495 29.6227 39.7039C29.6685 39.6583 30.0995 39.7508 30.5806 39.9095C31.0618 40.0681 31.8974 40.2783 32.4376 40.3762ZM29.3814 47.2701C30.2088 47.9301 30.9096 48.5356 30.9386 48.6155C30.9702 48.7025 27.8696 48.7609 23.2183 48.7609C18.9431 48.7609 15.4453 48.7063 15.4453 48.6396C15.4453 48.4542 16.9433 47.5146 17.9512 47.0678C19.8363 46.2323 20.7945 46.0868 24.4721 46.0781L27.8769 46.07L29.3814 47.2701ZM50.0479 46.3855C50.7292 46.5597 51.6612 46.8737 52.1192 47.0835C53.0936 47.5296 54.5613 48.4648 54.5613 48.6396C54.5613 48.7063 51.0635 48.7609 46.7883 48.7609C42.137 48.7609 39.0364 48.7025 39.068 48.6155C39.097 48.5356 39.7978 47.9301 40.6252 47.2701L42.1297 46.07L45.4696 46.0694C48.2926 46.0689 49.0011 46.1178 50.0479 46.3855ZM66.9137 51.5158C66.9137 51.5504 65.2747 57.5734 63.2713 64.9003C61.268 72.2274 59.629 78.2566 59.629 78.2986C59.629 78.3407 48.5474 78.3751 35.0033 78.3751C21.4592 78.3751 10.3776 78.3444 10.3776 78.3068C10.3776 78.2476 3.37111 52.4738 3.15288 51.7303C3.0756 51.4669 4.66621 51.4531 34.9927 51.4531C52.5493 51.4531 66.9137 51.4813 66.9137 51.5158ZM33.6851 58.2739C32.5626 58.4948 31.3343 59.1454 30.4364 59.9945C26.9269 63.3138 27.8371 68.8906 32.2319 70.9937C33.191 71.4527 33.3802 71.4862 35.0033 71.4862C36.6234 71.4862 36.818 71.4519 37.7821 70.9948C39.078 70.3808 39.882 69.6836 40.6344 68.5215C43.8302 63.5854 39.4578 57.1379 33.6851 58.2739ZM36.1717 61.043C38.8354 61.8341 39.892 65.1013 38.201 67.3184C37.0541 68.8219 34.9173 69.3124 33.213 68.463C30.0462 66.8849 30.3437 62.2522 33.6862 61.0978C34.7262 60.7387 35.1173 60.7299 36.1717 61.043Z" fill="#0066FF"/>
<path fill-rule="evenodd" clip-rule="evenodd" d="M21.7799 4.17168C14.2827 6.58753 8.71052 8.46399 8.48517 8.6488C7.97983 9.06324 7.95069 9.98064 8.42768 10.4576C8.641 10.6708 10.2969 11.2772 13.0915 12.1654L17.4248 13.5426L17.5066 17.2553C17.5588 19.6349 17.6568 21.124 17.7793 21.4022C18.0521 22.0222 19.1743 23.1962 19.7039 23.4155L20.1538 23.6019L20.2437 25.9273C20.3405 28.4334 20.5888 29.6389 21.4091 31.5841C22.3506 33.8165 24.1697 36.1619 25.9501 37.4387L26.8323 38.0713L26.8399 40.7083L26.8475 43.345L23.4823 43.4141C20.4002 43.4774 19.9998 43.5189 18.7239 43.9064C16.2173 44.6678 14.1774 45.8876 12.4044 47.685L11.3432 48.7609H6.0302C0.951296 48.7609 0.703615 48.7747 0.404623 49.0737C0.232639 49.2457 0.0511534 49.5488 0.00142697 49.7472C-0.0540006 49.9681 1.50906 55.9722 4.03275 65.2313C7.67466 78.5938 8.20201 80.3961 8.56229 80.7109L8.97008 81.0673H35.0033H61.0365L61.4489 80.7109C61.8155 80.3941 62.3164 78.6888 65.973 65.31C68.9653 54.3618 70.0611 50.1265 69.9974 49.7553C69.8284 48.769 69.779 48.7609 63.9433 48.7609H58.6678L57.5661 47.6592C55.741 45.834 53.7875 44.6674 51.2827 43.9064C50.0067 43.5189 49.6064 43.4774 46.5243 43.4141L43.1591 43.345V40.757V38.169L44.0842 37.4572C45.8658 36.0862 47.4937 34.0284 48.4727 31.9097C49.3633 29.9821 49.6784 28.527 49.7684 25.9281L49.8489 23.6035L50.3008 23.4163C50.832 23.1962 51.9541 22.0231 52.2273 21.4022C52.3497 21.1241 52.4478 19.6366 52.5 17.2637L52.5817 13.5594L53.2548 13.3608L53.9278 13.1623V20.6015V28.0407L51.8691 31.4754C50.7368 33.3646 49.8104 35.0746 49.8104 35.2756C49.8104 35.4765 50.0218 35.8525 50.2802 36.1108L50.7499 36.5806L55.362 36.5341L59.974 36.4877L60.2767 36.1138C60.8598 35.3932 60.6987 34.9452 58.5994 31.4479L56.62 28.1501L56.6211 20.204L56.6224 12.2579L58.9301 11.5532C60.839 10.9703 61.3065 10.7669 61.6351 10.3762C62.0823 9.84476 62.054 9.14844 61.5651 8.66067C61.2736 8.36976 35.5386 -0.0211807 35.0033 4.01826e-05C34.8291 0.00700822 28.8785 1.8841 21.7799 4.17168ZM45.7266 6.19209C51.4502 8.03941 56.1147 9.56969 56.0919 9.59233C56.0692 9.61514 51.3321 11.1315 45.5649 12.9622L35.0793 16.2905L24.7476 13.0296C19.0652 11.236 14.3146 9.71332 14.1906 9.64554C14.0422 9.56446 14.4208 9.38155 15.2991 9.11011C16.0328 8.88318 20.6951 7.38315 25.6598 5.7767C30.6245 4.17009 34.8291 2.8506 35.0033 2.84442C35.1775 2.83825 40.003 4.34461 45.7266 6.19209ZM27.6393 16.7677C31.5153 17.989 34.8687 18.9883 35.0912 18.9883C35.3137 18.9884 38.7166 17.9665 42.6531 16.7176L49.8104 14.4467V17.3297C49.8104 20.9482 49.8856 20.8158 47.3858 21.5935C42.6108 23.0793 39.9712 23.4868 35.0825 23.4926C30.1942 23.4985 27.2781 23.0524 22.6148 21.5859C20.115 20.7998 20.1962 20.9434 20.1962 17.3093C20.1962 15.0543 20.2404 14.4215 20.3942 14.4764C20.5031 14.5152 23.7634 15.5464 27.6393 16.7677ZM24.5299 24.9219C31.127 26.7038 38.76 26.7038 45.509 24.9217C46.3225 24.707 47.0173 24.5312 47.0531 24.5312C47.2127 24.5312 47.0909 27.2471 46.8882 28.203C46.3854 30.5759 45.3597 32.4457 43.555 34.2801C41.8082 36.0553 40.0483 37.0293 37.5371 37.61C35.9994 37.9657 33.0529 37.8431 31.5193 37.3598C27.1652 35.9874 24.0468 32.5569 23.1393 28.1406C22.8944 26.9494 22.7917 24.5312 22.9858 24.5312C23.0393 24.5312 23.7342 24.7069 24.5299 24.9219ZM56.1966 32.7077C56.5166 33.2417 56.7784 33.7226 56.7784 33.7766C56.7784 33.8305 56.0589 33.8747 55.1797 33.8747H53.581L54.0184 33.1224C54.2591 32.7086 54.628 32.0953 54.8381 31.7592C55.2735 31.0632 55.1666 30.9886 56.1966 32.7077ZM32.4376 40.3762C34.7751 40.8001 38.1136 40.4889 40.1897 39.6534C40.4458 39.5504 40.4669 39.7102 40.4669 41.7508V43.9598L37.8285 46.07C36.3774 47.2306 35.1084 48.1802 35.0087 48.1802C34.9087 48.1802 33.6374 47.2283 32.1835 46.0648L29.5397 43.9493V41.8681C29.5397 40.7235 29.5771 39.7495 29.6227 39.7039C29.6685 39.6583 30.0995 39.7508 30.5806 39.9095C31.0618 40.0681 31.8974 40.2783 32.4376 40.3762ZM29.3814 47.2701C30.2088 47.9301 30.9096 48.5356 30.9386 48.6155C30.9702 48.7025 27.8696 48.7609 23.2183 48.7609C18.9431 48.7609 15.4453 48.7063 15.4453 48.6396C15.4453 48.4542 16.9433 47.5146 17.9512 47.0678C19.8363 46.2323 20.7945 46.0868 24.4721 46.0781L27.8769 46.07L29.3814 47.2701ZM50.0479 46.3855C50.7292 46.5597 51.6612 46.8737 52.1192 47.0835C53.0936 47.5296 54.5613 48.4648 54.5613 48.6396C54.5613 48.7063 51.0635 48.7609 46.7883 48.7609C42.137 48.7609 39.0364 48.7025 39.068 48.6155C39.097 48.5356 39.7978 47.9301 40.6252 47.2701L42.1297 46.07L45.4696 46.0694C48.2926 46.0689 49.0011 46.1178 50.0479 46.3855ZM66.9137 51.5158C66.9137 51.5504 65.2747 57.5734 63.2713 64.9003C61.268 72.2274 59.629 78.2566 59.629 78.2986C59.629 78.3407 48.5474 78.3751 35.0033 78.3751C21.4592 78.3751 10.3776 78.3444 10.3776 78.3068C10.3776 78.2476 3.37111 52.4738 3.15288 51.7303C3.0756 51.4669 4.66621 51.4531 34.9927 51.4531C52.5493 51.4531 66.9137 51.4813 66.9137 51.5158ZM33.6851 58.2739C32.5626 58.4948 31.3343 59.1454 30.4364 59.9945C26.9269 63.3138 27.8371 68.8906 32.2319 70.9937C33.191 71.4527 33.3802 71.4862 35.0033 71.4862C36.6234 71.4862 36.818 71.4519 37.7821 70.9948C39.078 70.3808 39.882 69.6836 40.6344 68.5215C43.8302 63.5854 39.4578 57.1379 33.6851 58.2739ZM36.1717 61.043C38.8354 61.8341 39.892 65.1013 38.201 67.3184C37.0541 68.8219 34.9173 69.3124 33.213 68.463C30.0462 66.8849 30.3437 62.2522 33.6862 61.0978C34.7262 60.7387 35.1173 60.7299 36.1717 61.043Z" fill="url(#paint0_radial_1215_475)" fill-opacity="0.7"/>
<path fill-rule="evenodd" clip-rule="evenodd" d="M21.7799 4.17168C14.2827 6.58753 8.71052 8.46399 8.48517 8.6488C7.97983 9.06324 7.95069 9.98064 8.42768 10.4576C8.641 10.6708 10.2969 11.2772 13.0915 12.1654L17.4248 13.5426L17.5066 17.2553C17.5588 19.6349 17.6568 21.124 17.7793 21.4022C18.0521 22.0222 19.1743 23.1962 19.7039 23.4155L20.1538 23.6019L20.2437 25.9273C20.3405 28.4334 20.5888 29.6389 21.4091 31.5841C22.3506 33.8165 24.1697 36.1619 25.9501 37.4387L26.8323 38.0713L26.8399 40.7083L26.8475 43.345L23.4823 43.4141C20.4002 43.4774 19.9998 43.5189 18.7239 43.9064C16.2173 44.6678 14.1774 45.8876 12.4044 47.685L11.3432 48.7609H6.0302C0.951296 48.7609 0.703615 48.7747 0.404623 49.0737C0.232639 49.2457 0.0511534 49.5488 0.00142697 49.7472C-0.0540006 49.9681 1.50906 55.9722 4.03275 65.2313C7.67466 78.5938 8.20201 80.3961 8.56229 80.7109L8.97008 81.0673H35.0033H61.0365L61.4489 80.7109C61.8155 80.3941 62.3164 78.6888 65.973 65.31C68.9653 54.3618 70.0611 50.1265 69.9974 49.7553C69.8284 48.769 69.779 48.7609 63.9433 48.7609H58.6678L57.5661 47.6592C55.741 45.834 53.7875 44.6674 51.2827 43.9064C50.0067 43.5189 49.6064 43.4774 46.5243 43.4141L43.1591 43.345V40.757V38.169L44.0842 37.4572C45.8658 36.0862 47.4937 34.0284 48.4727 31.9097C49.3633 29.9821 49.6784 28.527 49.7684 25.9281L49.8489 23.6035L50.3008 23.4163C50.832 23.1962 51.9541 22.0231 52.2273 21.4022C52.3497 21.1241 52.4478 19.6366 52.5 17.2637L52.5817 13.5594L53.2548 13.3608L53.9278 13.1623V20.6015V28.0407L51.8691 31.4754C50.7368 33.3646 49.8104 35.0746 49.8104 35.2756C49.8104 35.4765 50.0218 35.8525 50.2802 36.1108L50.7499 36.5806L55.362 36.5341L59.974 36.4877L60.2767 36.1138C60.8598 35.3932 60.6987 34.9452 58.5994 31.4479L56.62 28.1501L56.6211 20.204L56.6224 12.2579L58.9301 11.5532C60.839 10.9703 61.3065 10.7669 61.6351 10.3762C62.0823 9.84476 62.054 9.14844 61.5651 8.66067C61.2736 8.36976 35.5386 -0.0211807 35.0033 4.01826e-05C34.8291 0.00700822 28.8785 1.8841 21.7799 4.17168ZM45.7266 6.19209C51.4502 8.03941 56.1147 9.56969 56.0919 9.59233C56.0692 9.61514 51.3321 11.1315 45.5649 12.9622L35.0793 16.2905L24.7476 13.0296C19.0652 11.236 14.3146 9.71332 14.1906 9.64554C14.0422 9.56446 14.4208 9.38155 15.2991 9.11011C16.0328 8.88318 20.6951 7.38315 25.6598 5.7767C30.6245 4.17009 34.8291 2.8506 35.0033 2.84442C35.1775 2.83825 40.003 4.34461 45.7266 6.19209ZM27.6393 16.7677C31.5153 17.989 34.8687 18.9883 35.0912 18.9883C35.3137 18.9884 38.7166 17.9665 42.6531 16.7176L49.8104 14.4467V17.3297C49.8104 20.9482 49.8856 20.8158 47.3858 21.5935C42.6108 23.0793 39.9712 23.4868 35.0825 23.4926C30.1942 23.4985 27.2781 23.0524 22.6148 21.5859C20.115 20.7998 20.1962 20.9434 20.1962 17.3093C20.1962 15.0543 20.2404 14.4215 20.3942 14.4764C20.5031 14.5152 23.7634 15.5464 27.6393 16.7677ZM24.5299 24.9219C31.127 26.7038 38.76 26.7038 45.509 24.9217C46.3225 24.707 47.0173 24.5312 47.0531 24.5312C47.2127 24.5312 47.0909 27.2471 46.8882 28.203C46.3854 30.5759 45.3597 32.4457 43.555 34.2801C41.8082 36.0553 40.0483 37.0293 37.5371 37.61C35.9994 37.9657 33.0529 37.8431 31.5193 37.3598C27.1652 35.9874 24.0468 32.5569 23.1393 28.1406C22.8944 26.9494 22.7917 24.5312 22.9858 24.5312C23.0393 24.5312 23.7342 24.7069 24.5299 24.9219ZM56.1966 32.7077C56.5166 33.2417 56.7784 33.7226 56.7784 33.7766C56.7784 33.8305 56.0589 33.8747 55.1797 33.8747H53.581L54.0184 33.1224C54.2591 32.7086 54.628 32.0953 54.8381 31.7592C55.2735 31.0632 55.1666 30.9886 56.1966 32.7077ZM32.4376 40.3762C34.7751 40.8001 38.1136 40.4889 40.1897 39.6534C40.4458 39.5504 40.4669 39.7102 40.4669 41.7508V43.9598L37.8285 46.07C36.3774 47.2306 35.1084 48.1802 35.0087 48.1802C34.9087 48.1802 33.6374 47.2283 32.1835 46.0648L29.5397 43.9493V41.8681C29.5397 40.7235 29.5771 39.7495 29.6227 39.7039C29.6685 39.6583 30.0995 39.7508 30.5806 39.9095C31.0618 40.0681 31.8974 40.2783 32.4376 40.3762ZM29.3814 47.2701C30.2088 47.9301 30.9096 48.5356 30.9386 48.6155C30.9702 48.7025 27.8696 48.7609 23.2183 48.7609C18.9431 48.7609 15.4453 48.7063 15.4453 48.6396C15.4453 48.4542 16.9433 47.5146 17.9512 47.0678C19.8363 46.2323 20.7945 46.0868 24.4721 46.0781L27.8769 46.07L29.3814 47.2701ZM50.0479 46.3855C50.7292 46.5597 51.6612 46.8737 52.1192 47.0835C53.0936 47.5296 54.5613 48.4648 54.5613 48.6396C54.5613 48.7063 51.0635 48.7609 46.7883 48.7609C42.137 48.7609 39.0364 48.7025 39.068 48.6155C39.097 48.5356 39.7978 47.9301 40.6252 47.2701L42.1297 46.07L45.4696 46.0694C48.2926 46.0689 49.0011 46.1178 50.0479 46.3855ZM66.9137 51.5158C66.9137 51.5504 65.2747 57.5734 63.2713 64.9003C61.268 72.2274 59.629 78.2566 59.629 78.2986C59.629 78.3407 48.5474 78.3751 35.0033 78.3751C21.4592 78.3751 10.3776 78.3444 10.3776 78.3068C10.3776 78.2476 3.37111 52.4738 3.15288 51.7303C3.0756 51.4669 4.66621 51.4531 34.9927 51.4531C52.5493 51.4531 66.9137 51.4813 66.9137 51.5158ZM33.6851 58.2739C32.5626 58.4948 31.3343 59.1454 30.4364 59.9945C26.9269 63.3138 27.8371 68.8906 32.2319 70.9937C33.191 71.4527 33.3802 71.4862 35.0033 71.4862C36.6234 71.4862 36.818 71.4519 37.7821 70.9948C39.078 70.3808 39.882 69.6836 40.6344 68.5215C43.8302 63.5854 39.4578 57.1379 33.6851 58.2739ZM36.1717 61.043C38.8354 61.8341 39.892 65.1013 38.201 67.3184C37.0541 68.8219 34.9173 69.3124 33.213 68.463C30.0462 66.8849 30.3437 62.2522 33.6862 61.0978C34.7262 60.7387 35.1173 60.7299 36.1717 61.043Z" fill="url(#paint1_radial_1215_475)"/>
<defs>
<radialGradient id="paint0_radial_1215_475" cx="0" cy="0" r="1" gradientUnits="userSpaceOnUse" gradientTransform="translate(18.4722 16.889) rotate(55.0798) scale(64.5392 61.9591)">
<stop stop-color="white" stop-opacity="0.59"/>
<stop offset="0.697917" stop-color="white" stop-opacity="0"/>
<stop offset="1" stop-color="white" stop-opacity="0"/>
</radialGradient>
<radialGradient id="paint1_radial_1215_475" cx="0" cy="0" r="1" gradientUnits="userSpaceOnUse" gradientTransform="translate(60.411 70.9339) rotate(-93.1705) scale(69.3511 66.8121)">
<stop stop-opacity="0.23"/>
<stop offset="0.861815" stop-opacity="0"/>
</radialGradient>
</defs>
</svg>
