<svg width="80" height="81" viewBox="0 0 80 81" fill="none" xmlns="http://www.w3.org/2000/svg">
<path fill-rule="evenodd" clip-rule="evenodd" d="M59.6457 0.119745C58.7202 0.176083 58.0253 0.296829 57.8666 0.428495C57.5474 0.693409 57.3441 1.44574 57.1977 2.90261C57.0448 4.42531 56.9897 4.52564 56.0768 4.94865L55.2735 5.3207L53.788 4.39477C51.9988 3.27956 51.4778 3.20455 50.7719 3.96021C49.0165 5.83929 47.9766 7.06574 47.8831 7.36722C47.745 7.81285 47.9243 8.14566 49.1577 9.73308L50.1613 11.0247L49.9097 11.6321C49.7712 11.9662 49.6392 12.2597 49.6163 12.2844C49.5935 12.3093 48.2753 11.7573 46.6869 11.058C45.0985 10.3587 43.6689 9.78657 43.5097 9.78657C42.8517 9.78657 42.4092 10.5756 40.0928 15.8793L37.7431 21.2598L37.7023 11.7758C37.6578 1.45365 37.6964 1.87729 36.7806 1.64751C36.3353 1.53578 35.5338 1.89802 35.3885 2.27672C35.3345 2.41756 35.2902 3.7635 35.2902 5.26753V8.00212L34.0638 8.11084C29.3698 8.52641 24.3403 10.5478 20.6471 13.5025C17.9322 15.6748 14.8757 19.3016 14.8757 20.3508C14.8757 20.9536 15.459 21.4972 16.1061 21.4972C16.544 21.4972 16.7128 21.3494 17.5068 20.2708C20.925 15.627 24.9467 12.7878 30.3257 11.221C31.4077 10.9057 34.1904 10.4224 34.9341 10.4205L35.2902 10.4196V35.7399V61.0602H31.4765C26.0518 61.0602 26.1116 61.103 26.1116 57.2334C26.1116 55.3828 26.0576 54.7235 25.8859 54.4784C25.7617 54.3011 25.1031 53.8259 24.4221 53.4224C19.0735 50.253 15.0995 44.6164 13.7625 38.3034C13.347 36.341 13.1905 32.8084 13.4351 30.9132C13.5362 30.1299 13.8013 28.7485 14.0241 27.8435C14.4698 26.0338 14.416 25.6555 13.664 25.3127C13.1243 25.0669 12.9197 25.091 12.4578 25.4543C12.1351 25.708 11.9738 26.112 11.6521 27.472C11.0237 30.1285 10.8683 31.7385 10.9683 34.553C11.1463 39.5581 12.5304 43.8204 15.3642 48.0902C16.7521 50.1815 19.9708 53.3792 22.1157 54.7977L23.7378 55.8705V57.8833C23.7378 60.2041 23.9399 61.0012 24.7755 61.9773C25.0757 62.328 25.6414 62.77 26.0329 62.9594L26.7446 63.3039V66.5008C26.7446 69.9914 26.8972 70.9779 27.6307 72.2294C28.9146 74.4204 31.2396 75.6194 34.204 75.6194H35.2902V77.8965C35.2902 79.8327 35.3317 80.2236 35.5672 80.5072C35.9897 81.0161 36.7118 81.0931 37.2313 80.6844L37.664 80.344V65.7856C37.664 51.3087 37.6657 51.2279 37.9799 51.3276C38.4287 51.47 49.7067 56.4337 49.8051 56.5322C49.8499 56.577 49.8247 56.9457 49.7492 57.3516C49.6275 58.0065 49.5459 58.116 49.0254 58.3231L48.4387 58.5565L47.2355 57.7248C45.5081 56.5306 45.4012 56.5504 43.5793 58.3991C41.766 60.2389 41.7447 60.3535 42.9051 62.0058C43.6924 63.1269 43.71 63.1762 43.5347 63.7619C43.3362 64.4239 43.3253 64.4294 41.6203 64.7205C39.8021 65.0309 39.7213 65.1568 39.7213 67.6783C39.7213 70.3458 39.7664 70.4121 41.8342 70.7845L43.3218 71.0523L43.5581 71.6538L43.7944 72.2553L42.9447 73.4916C42.4709 74.1809 42.095 74.9038 42.095 75.1254C42.095 75.7087 45.0316 78.6262 45.6187 78.6262C45.8664 78.6262 46.5489 78.279 47.2791 77.7819L48.5191 76.9375L49.0656 77.1833C49.3661 77.3184 49.6331 77.4406 49.6589 77.4547C49.6847 77.4688 49.8212 78.1094 49.9624 78.8783C50.3417 80.9443 50.4213 81 52.986 81C55.5716 81 55.7177 80.9144 56.0084 79.2295C56.3265 77.3855 56.3102 77.4199 56.9685 77.2027C57.5681 77.0048 57.5897 77.0122 58.7281 77.8142C60.4099 78.9992 60.5243 78.9758 62.4008 77.0659C63.3481 76.1016 63.9338 75.3797 63.9338 75.1762C63.9338 74.9951 63.542 74.2748 63.0631 73.5756L62.1924 72.3042L62.4376 71.6915L62.6827 71.0789L64.0342 70.8685C64.8538 70.7411 65.536 70.54 65.7675 70.358C66.1383 70.0664 66.1494 69.9939 66.1494 67.8711C66.1494 65.1981 66.1033 65.1129 64.4877 64.7959C63.4461 64.5916 63.6821 64.5772 68.444 64.5546C72.0909 64.5374 73.6005 64.4767 73.8385 64.3384C74.0203 64.2327 75.3509 62.8898 76.7955 61.3543C78.8086 59.2142 79.4444 58.4385 79.5187 58.031C79.5718 57.7387 79.5943 52.9179 79.5685 47.3181L79.5217 37.1366L79.0776 36.7548L78.6336 36.3729H71.6022H64.5708L64.9742 35.463C65.1961 34.9626 65.7403 33.7179 66.1835 32.6972L66.9895 30.8412L66.3345 29.1473C65.9742 28.2155 65.6961 27.4473 65.7165 27.4402C65.737 27.4331 66.1506 27.2394 66.6357 27.0098L67.5176 26.5922L68.7721 27.382C70.626 28.5493 70.9624 28.6751 71.4924 28.3988C71.9001 28.1862 74.5769 25.3086 74.8939 24.7422C75.1373 24.3073 74.9056 23.8118 73.7736 22.3453L72.6915 20.9433L73.0107 20.0586L73.3297 19.1738L74.9051 18.8185C76.8518 18.3795 77.1618 18.2413 77.3732 17.7182C77.5839 17.1969 77.3598 13.0206 77.0946 12.525C76.864 12.0944 76.7272 12.0527 74.6374 11.7783C73.6972 11.6547 72.9132 11.53 72.8952 11.5011C72.8773 11.472 72.6991 11.0876 72.4995 10.6468L72.1364 9.84528L73.0992 8.31704C73.6685 7.41327 74.062 6.61251 74.062 6.35725C74.062 5.90307 73.5313 5.33557 71.328 3.43291C70.5765 2.78392 70.1245 2.50698 69.8167 2.50698C69.5154 2.50698 68.9192 2.85877 67.9185 3.62693L66.4595 4.74672L65.5554 4.44541L64.6513 4.14409L64.2287 2.34224C63.6281 -0.217332 63.8007 -0.133616 59.6457 0.119745ZM62.1839 4.06544C62.3722 4.87902 62.6115 5.68294 62.7158 5.85179C62.8213 6.02286 63.2907 6.26958 63.7756 6.409C64.2543 6.54668 65.0607 6.83185 65.5676 7.04296C66.1481 7.28461 66.6168 7.38684 66.8336 7.31911C67.0231 7.26008 67.7537 6.76839 68.4575 6.22653L69.7368 5.24157L70.5489 5.94121L71.3611 6.64084L70.4986 7.97775C70.0243 8.71299 69.5951 9.4783 69.545 9.67833C69.4821 9.92868 69.6784 10.4716 70.1753 11.4215C70.5722 12.1803 70.8969 12.8951 70.8969 13.01C70.8969 13.5053 71.5472 13.8014 73.0776 14.0034C73.9237 14.1149 74.7049 14.2088 74.8137 14.2119C74.9518 14.2159 75.0115 14.5401 75.0115 15.2877V16.3578L73.3894 16.7186C72.4753 16.9218 71.6535 17.1974 71.5067 17.3498C71.3633 17.4984 71.1253 18.0451 70.9778 18.5648C70.8303 19.0844 70.5738 19.7759 70.4076 20.1014C69.9268 21.0438 70.0131 21.3671 71.1405 22.8444L72.1751 24.2006L71.868 24.6292C71.6991 24.865 71.3798 25.2269 71.1584 25.4336L70.7558 25.8091L69.3454 24.9193C68.5697 24.4298 67.7825 24.0293 67.5963 24.0293C67.41 24.0293 66.7684 24.2785 66.1707 24.5831C65.5729 24.8878 65.0144 25.137 64.9294 25.137C64.802 25.137 64.4113 24.2695 63.8509 22.7425C63.7806 22.5512 63.9465 22.3923 64.491 22.1287C65.6254 21.5795 67.0194 20.1942 67.5766 19.062C69.2956 15.5707 67.9314 11.5522 64.4418 9.82756C63.2603 9.24377 63.2043 9.23269 61.41 9.23269C59.689 9.23269 59.5205 9.26181 58.5338 9.72929C56.7946 10.5533 55.506 11.9426 54.9094 13.6367C54.7509 14.0868 54.5623 14.4433 54.4905 14.4289C53.9358 14.3184 51.9067 13.3245 51.9067 13.1634C51.9067 13.0518 52.0847 12.558 52.3023 12.066C52.5199 11.574 52.6979 10.9947 52.6979 10.7787C52.6979 10.5354 52.302 9.87883 51.6577 9.05387L50.6176 7.7217L51.2768 6.93424C51.6394 6.5011 51.9643 6.14678 51.9986 6.14678C52.0331 6.14678 52.6914 6.53845 53.4617 7.01716C54.2319 7.49587 55.0391 7.88755 55.2556 7.88755C55.4719 7.88755 56.1781 7.62058 56.8245 7.2941C57.4711 6.96779 58.2273 6.60745 58.5048 6.49366C59.0568 6.26736 59.2504 5.84024 59.4151 4.48513C59.468 4.04993 59.5507 3.43006 59.5988 3.1077L59.6863 2.52138L60.6628 2.47469C61.1999 2.4489 61.6848 2.46346 61.7405 2.50698C61.7962 2.5505 61.9957 3.25171 62.1839 4.06544ZM10.5907 7.71711C10.3362 7.97158 10.1281 8.34015 10.1281 8.53606C10.1281 8.96034 14.5945 13.5477 15.1412 13.685C15.3308 13.7326 15.6342 13.7244 15.8156 13.6668C16.2324 13.5345 16.669 12.7076 16.5571 12.262C16.4209 11.7193 11.8314 7.25454 11.4097 7.25454C11.2137 7.25454 10.8452 7.46264 10.5907 7.71711ZM62.9343 11.7372C65.1084 12.5387 66.3964 14.9579 65.7794 17.0807C65.4513 18.2091 64.7441 19.1763 63.8172 19.764C63.4121 20.021 63.0296 20.2312 62.9672 20.2312C62.9047 20.2312 62.6634 19.733 62.4308 19.1242C62.1981 18.5154 61.8487 17.8924 61.6542 17.7395C61.4597 17.5868 60.3265 17.0359 59.1356 16.5156C56.7512 15.4735 56.7209 15.4384 57.2059 14.2778C57.6155 13.2976 58.3615 12.5183 59.3755 12.0116C60.1761 11.6115 60.526 11.5294 61.3876 11.5394C61.9611 11.546 62.6572 11.635 62.9343 11.7372ZM51.7964 15.9036C55.9043 17.7014 59.2858 19.1875 59.3107 19.2064C59.3357 19.225 58.6056 20.9489 57.6886 23.037C56.7715 25.1252 56.0212 26.9781 56.0212 27.1547C56.0212 27.3313 56.1459 27.62 56.2982 27.7963C56.4504 27.9724 58.2486 28.8477 60.294 29.7411C62.3394 30.6345 64.0362 31.3818 64.0645 31.4019C64.0929 31.422 63.6351 32.5486 63.047 33.9056L61.978 36.3729L59.8304 36.3753C58.4229 36.3767 57.5634 36.4449 57.336 36.5731C56.7408 36.9086 51.9958 42.0689 51.7968 42.5971C51.6639 42.9502 51.6054 44.7962 51.599 48.8353C51.5941 51.9905 51.5542 54.5719 51.5104 54.5719C51.4341 54.5719 50.2265 54.0473 41.5412 50.2412L37.7431 48.5767L37.7024 37.9945L37.6618 27.4122L40.6804 20.5379C42.3408 16.7571 43.7975 13.4322 43.9176 13.1494C44.0379 12.8666 44.1792 12.6351 44.2318 12.6351C44.2843 12.6351 47.6883 14.1059 51.7964 15.9036ZM62.2671 25.3032C62.9209 26.9833 63.4298 28.384 63.3981 28.4158C63.3451 28.4689 59.0266 26.6083 58.8881 26.4728C58.8546 26.4401 59.2782 25.3768 59.8294 24.1101C60.4947 22.5808 60.8729 21.881 60.9549 22.0275C61.0229 22.1489 61.6134 23.6229 62.2671 25.3032ZM0.316504 32.8914C0.106978 33.1009 0 33.4188 0 33.8319C0 34.8915 0.200505 34.9487 3.92275 34.9487C5.88935 34.9487 7.26424 34.8833 7.45589 34.7807C8.13795 34.4157 8.12245 33.0995 7.43167 32.7298C7.26978 32.6431 5.70784 32.5749 3.88762 32.5749C0.843958 32.5749 0.612435 32.5954 0.316504 32.8914ZM74.8808 39.4984C74.5315 39.9119 73.8986 40.5889 73.4744 41.0032L72.7031 41.7563L64.2051 41.7154L55.7071 41.6744L57.0639 40.2105L58.4208 38.7467H66.9683H75.5157L74.8808 39.4984ZM77.0688 49.2124V57.6208L75.8051 58.9053L74.5415 60.1899L74.5391 58.0068C74.5369 55.9014 74.523 55.8097 74.1482 55.4352C73.6687 54.9555 72.9194 54.9232 72.4794 55.3632C72.184 55.6586 72.1629 55.8906 72.1629 58.8496C72.1629 61.2577 72.1148 62.0381 71.9631 62.0965C71.8531 62.1386 69.7869 62.1542 67.3717 62.131L62.9804 62.0889L63.3779 61.5038C64.0962 60.4472 63.9704 60.0864 62.3026 58.4187C60.486 56.602 60.3458 56.5766 58.6444 57.7596L57.4738 58.5733L56.8661 58.3315C56.2649 58.0921 56.2561 58.0758 56.0086 56.7659C55.652 54.8792 55.4414 54.5719 54.5049 54.5719H54.1222V49.3496V44.1273H63.1426H72.1629V47.2923C72.1629 50.2464 72.184 50.4784 72.4794 50.7739C72.9507 51.2451 73.7977 51.1959 74.2087 50.6734C74.5177 50.2806 74.5367 50.057 74.5367 46.8093V43.3623L75.7401 42.0831C76.4019 41.3795 76.9716 40.804 77.0061 40.804C77.0406 40.804 77.0688 44.5878 77.0688 49.2124ZM14.939 54.0755C13.9744 54.7833 10.6051 58.3101 10.5842 58.6336C10.5299 59.4717 11.0411 60.1107 11.7656 60.1107C12.164 60.1107 12.604 59.7498 14.5142 57.856C15.7651 56.6157 16.8287 55.4407 16.8779 55.2448C17.0244 54.6605 16.7999 54.1184 16.3055 53.8626C15.6901 53.5444 15.6551 53.5498 14.939 54.0755ZM53.8173 58.1405C54.039 59.5149 54.3563 60.0083 55.1929 60.2791C55.518 60.3843 56.1198 60.6388 56.5303 60.8445C56.9408 61.0501 57.4104 61.2185 57.5737 61.2185C57.737 61.2185 58.3695 60.8681 58.9793 60.4399L60.088 59.6613L60.5789 60.152L61.0696 60.6429L60.3804 61.6288C59.4157 63.0088 59.399 63.1177 59.9652 64.3275C60.2331 64.9001 60.4523 65.4729 60.4523 65.6003C60.4523 65.7279 60.6482 66.0278 60.8875 66.2669C61.2322 66.6112 61.5776 66.7428 62.5491 66.8993L63.7756 67.0968V67.7803C63.7756 68.5421 63.7683 68.5467 62.2271 68.7478C61.1807 68.8842 60.7235 69.2371 60.4629 70.1094C60.3507 70.4853 60.1242 71.057 59.96 71.3799C59.5018 72.2798 59.58 72.7282 60.4034 73.9225L61.1457 74.9991L60.6802 75.4647L60.2146 75.9302L59.0551 75.1418C58.4175 74.7082 57.7899 74.3534 57.6604 74.3534C57.5311 74.3534 57.0559 74.5212 56.6045 74.7261C56.1532 74.9312 55.5254 75.1831 55.2096 75.286C54.368 75.5602 54.1619 75.8817 53.9288 77.2846L53.719 78.5471L53.0635 78.595C52.3241 78.6493 52.3566 78.6992 52.0518 77.0437C51.8331 75.8559 51.6147 75.5446 50.8193 75.2873C50.5035 75.185 49.9091 74.9331 49.4986 74.7274C49.088 74.5218 48.5856 74.3534 48.3822 74.3534C48.1787 74.3534 47.5571 74.6739 47.0009 75.0655C46.4446 75.4572 45.919 75.7777 45.8328 75.7777C45.6359 75.7777 44.9436 75.1363 44.9436 74.9538C44.9436 74.8793 45.264 74.3406 45.6557 73.7566C46.0474 73.1729 46.3679 72.5318 46.3679 72.3321C46.3679 72.1325 46.1995 71.6332 45.9939 71.2227C45.7882 70.8122 45.5353 70.2148 45.4318 69.8954C45.171 69.0893 44.9333 68.9396 43.4616 68.6549L42.1742 68.406L42.1257 67.7451C42.0718 67.0078 41.9721 67.0684 43.7437 66.7619C44.8222 66.5755 45.174 66.3152 45.434 65.5117C45.5362 65.1958 45.7882 64.6014 45.9939 64.1909C46.1995 63.7804 46.3679 63.3052 46.3679 63.1351C46.3679 62.9648 46.0131 62.3038 45.5794 61.6662L44.791 60.5067L45.2479 60.0498L45.7048 59.5929L46.92 60.4057C47.5883 60.8528 48.2034 61.2185 48.2867 61.2185C48.3701 61.2185 48.8953 61.0049 49.4538 60.7437C50.0122 60.4826 50.5845 60.269 50.7253 60.269C50.8662 60.269 51.1743 60.0731 51.4101 59.8338C51.7443 59.4942 51.8831 59.1291 52.0412 58.1721L52.2438 56.9457H52.9342H53.6245L53.8173 58.1405ZM51.4772 62.5456C49.7761 63.1034 48.515 64.2609 47.9364 65.7953C47.6657 66.5133 47.6158 66.9295 47.6695 68.0233C47.7453 69.5709 48.06 70.3246 49.1026 71.4557C51.6266 74.1937 56.2159 73.4864 57.8775 70.1031C58.2583 69.3276 58.3157 69.0229 58.3151 67.7859C58.3145 66.6592 58.2425 66.2058 57.9703 65.6152C57.4851 64.5627 56.2977 63.3546 55.2705 62.8687C54.204 62.3642 52.4784 62.2172 51.4772 62.5456ZM35.2902 68.3631V73.2922L33.8158 73.2042C32.0207 73.0971 31.12 72.7201 30.2222 71.7002C29.2686 70.6168 29.1184 69.8974 29.1184 66.412V63.434H32.2043H35.2902V68.3631ZM54.663 65.2906C57.1007 67.0078 55.9731 70.7136 53.0129 70.7136C51.2352 70.7136 50.0067 69.4706 50.0084 67.6736C50.0108 65.2916 52.7057 63.9118 54.663 65.2906Z" fill="#0066FF"/>
<path fill-rule="evenodd" clip-rule="evenodd" d="M59.6457 0.119745C58.7202 0.176083 58.0253 0.296829 57.8666 0.428495C57.5474 0.693409 57.3441 1.44574 57.1977 2.90261C57.0448 4.42531 56.9897 4.52564 56.0768 4.94865L55.2735 5.3207L53.788 4.39477C51.9988 3.27956 51.4778 3.20455 50.7719 3.96021C49.0165 5.83929 47.9766 7.06574 47.8831 7.36722C47.745 7.81285 47.9243 8.14566 49.1577 9.73308L50.1613 11.0247L49.9097 11.6321C49.7712 11.9662 49.6392 12.2597 49.6163 12.2844C49.5935 12.3093 48.2753 11.7573 46.6869 11.058C45.0985 10.3587 43.6689 9.78657 43.5097 9.78657C42.8517 9.78657 42.4092 10.5756 40.0928 15.8793L37.7431 21.2598L37.7023 11.7758C37.6578 1.45365 37.6964 1.87729 36.7806 1.64751C36.3353 1.53578 35.5338 1.89802 35.3885 2.27672C35.3345 2.41756 35.2902 3.7635 35.2902 5.26753V8.00212L34.0638 8.11084C29.3698 8.52641 24.3403 10.5478 20.6471 13.5025C17.9322 15.6748 14.8757 19.3016 14.8757 20.3508C14.8757 20.9536 15.459 21.4972 16.1061 21.4972C16.544 21.4972 16.7128 21.3494 17.5068 20.2708C20.925 15.627 24.9467 12.7878 30.3257 11.221C31.4077 10.9057 34.1904 10.4224 34.9341 10.4205L35.2902 10.4196V35.7399V61.0602H31.4765C26.0518 61.0602 26.1116 61.103 26.1116 57.2334C26.1116 55.3828 26.0576 54.7235 25.8859 54.4784C25.7617 54.3011 25.1031 53.8259 24.4221 53.4224C19.0735 50.253 15.0995 44.6164 13.7625 38.3034C13.347 36.341 13.1905 32.8084 13.4351 30.9132C13.5362 30.1299 13.8013 28.7485 14.0241 27.8435C14.4698 26.0338 14.416 25.6555 13.664 25.3127C13.1243 25.0669 12.9197 25.091 12.4578 25.4543C12.1351 25.708 11.9738 26.112 11.6521 27.472C11.0237 30.1285 10.8683 31.7385 10.9683 34.553C11.1463 39.5581 12.5304 43.8204 15.3642 48.0902C16.7521 50.1815 19.9708 53.3792 22.1157 54.7977L23.7378 55.8705V57.8833C23.7378 60.2041 23.9399 61.0012 24.7755 61.9773C25.0757 62.328 25.6414 62.77 26.0329 62.9594L26.7446 63.3039V66.5008C26.7446 69.9914 26.8972 70.9779 27.6307 72.2294C28.9146 74.4204 31.2396 75.6194 34.204 75.6194H35.2902V77.8965C35.2902 79.8327 35.3317 80.2236 35.5672 80.5072C35.9897 81.0161 36.7118 81.0931 37.2313 80.6844L37.664 80.344V65.7856C37.664 51.3087 37.6657 51.2279 37.9799 51.3276C38.4287 51.47 49.7067 56.4337 49.8051 56.5322C49.8499 56.577 49.8247 56.9457 49.7492 57.3516C49.6275 58.0065 49.5459 58.116 49.0254 58.3231L48.4387 58.5565L47.2355 57.7248C45.5081 56.5306 45.4012 56.5504 43.5793 58.3991C41.766 60.2389 41.7447 60.3535 42.9051 62.0058C43.6924 63.1269 43.71 63.1762 43.5347 63.7619C43.3362 64.4239 43.3253 64.4294 41.6203 64.7205C39.8021 65.0309 39.7213 65.1568 39.7213 67.6783C39.7213 70.3458 39.7664 70.4121 41.8342 70.7845L43.3218 71.0523L43.5581 71.6538L43.7944 72.2553L42.9447 73.4916C42.4709 74.1809 42.095 74.9038 42.095 75.1254C42.095 75.7087 45.0316 78.6262 45.6187 78.6262C45.8664 78.6262 46.5489 78.279 47.2791 77.7819L48.5191 76.9375L49.0656 77.1833C49.3661 77.3184 49.6331 77.4406 49.6589 77.4547C49.6847 77.4688 49.8212 78.1094 49.9624 78.8783C50.3417 80.9443 50.4213 81 52.986 81C55.5716 81 55.7177 80.9144 56.0084 79.2295C56.3265 77.3855 56.3102 77.4199 56.9685 77.2027C57.5681 77.0048 57.5897 77.0122 58.7281 77.8142C60.4099 78.9992 60.5243 78.9758 62.4008 77.0659C63.3481 76.1016 63.9338 75.3797 63.9338 75.1762C63.9338 74.9951 63.542 74.2748 63.0631 73.5756L62.1924 72.3042L62.4376 71.6915L62.6827 71.0789L64.0342 70.8685C64.8538 70.7411 65.536 70.54 65.7675 70.358C66.1383 70.0664 66.1494 69.9939 66.1494 67.8711C66.1494 65.1981 66.1033 65.1129 64.4877 64.7959C63.4461 64.5916 63.6821 64.5772 68.444 64.5546C72.0909 64.5374 73.6005 64.4767 73.8385 64.3384C74.0203 64.2327 75.3509 62.8898 76.7955 61.3543C78.8086 59.2142 79.4444 58.4385 79.5187 58.031C79.5718 57.7387 79.5943 52.9179 79.5685 47.3181L79.5217 37.1366L79.0776 36.7548L78.6336 36.3729H71.6022H64.5708L64.9742 35.463C65.1961 34.9626 65.7403 33.7179 66.1835 32.6972L66.9895 30.8412L66.3345 29.1473C65.9742 28.2155 65.6961 27.4473 65.7165 27.4402C65.737 27.4331 66.1506 27.2394 66.6357 27.0098L67.5176 26.5922L68.7721 27.382C70.626 28.5493 70.9624 28.6751 71.4924 28.3988C71.9001 28.1862 74.5769 25.3086 74.8939 24.7422C75.1373 24.3073 74.9056 23.8118 73.7736 22.3453L72.6915 20.9433L73.0107 20.0586L73.3297 19.1738L74.9051 18.8185C76.8518 18.3795 77.1618 18.2413 77.3732 17.7182C77.5839 17.1969 77.3598 13.0206 77.0946 12.525C76.864 12.0944 76.7272 12.0527 74.6374 11.7783C73.6972 11.6547 72.9132 11.53 72.8952 11.5011C72.8773 11.472 72.6991 11.0876 72.4995 10.6468L72.1364 9.84528L73.0992 8.31704C73.6685 7.41327 74.062 6.61251 74.062 6.35725C74.062 5.90307 73.5313 5.33557 71.328 3.43291C70.5765 2.78392 70.1245 2.50698 69.8167 2.50698C69.5154 2.50698 68.9192 2.85877 67.9185 3.62693L66.4595 4.74672L65.5554 4.44541L64.6513 4.14409L64.2287 2.34224C63.6281 -0.217332 63.8007 -0.133616 59.6457 0.119745ZM62.1839 4.06544C62.3722 4.87902 62.6115 5.68294 62.7158 5.85179C62.8213 6.02286 63.2907 6.26958 63.7756 6.409C64.2543 6.54668 65.0607 6.83185 65.5676 7.04296C66.1481 7.28461 66.6168 7.38684 66.8336 7.31911C67.0231 7.26008 67.7537 6.76839 68.4575 6.22653L69.7368 5.24157L70.5489 5.94121L71.3611 6.64084L70.4986 7.97775C70.0243 8.71299 69.5951 9.4783 69.545 9.67833C69.4821 9.92868 69.6784 10.4716 70.1753 11.4215C70.5722 12.1803 70.8969 12.8951 70.8969 13.01C70.8969 13.5053 71.5472 13.8014 73.0776 14.0034C73.9237 14.1149 74.7049 14.2088 74.8137 14.2119C74.9518 14.2159 75.0115 14.5401 75.0115 15.2877V16.3578L73.3894 16.7186C72.4753 16.9218 71.6535 17.1974 71.5067 17.3498C71.3633 17.4984 71.1253 18.0451 70.9778 18.5648C70.8303 19.0844 70.5738 19.7759 70.4076 20.1014C69.9268 21.0438 70.0131 21.3671 71.1405 22.8444L72.1751 24.2006L71.868 24.6292C71.6991 24.865 71.3798 25.2269 71.1584 25.4336L70.7558 25.8091L69.3454 24.9193C68.5697 24.4298 67.7825 24.0293 67.5963 24.0293C67.41 24.0293 66.7684 24.2785 66.1707 24.5831C65.5729 24.8878 65.0144 25.137 64.9294 25.137C64.802 25.137 64.4113 24.2695 63.8509 22.7425C63.7806 22.5512 63.9465 22.3923 64.491 22.1287C65.6254 21.5795 67.0194 20.1942 67.5766 19.062C69.2956 15.5707 67.9314 11.5522 64.4418 9.82756C63.2603 9.24377 63.2043 9.23269 61.41 9.23269C59.689 9.23269 59.5205 9.26181 58.5338 9.72929C56.7946 10.5533 55.506 11.9426 54.9094 13.6367C54.7509 14.0868 54.5623 14.4433 54.4905 14.4289C53.9358 14.3184 51.9067 13.3245 51.9067 13.1634C51.9067 13.0518 52.0847 12.558 52.3023 12.066C52.5199 11.574 52.6979 10.9947 52.6979 10.7787C52.6979 10.5354 52.302 9.87883 51.6577 9.05387L50.6176 7.7217L51.2768 6.93424C51.6394 6.5011 51.9643 6.14678 51.9986 6.14678C52.0331 6.14678 52.6914 6.53845 53.4617 7.01716C54.2319 7.49587 55.0391 7.88755 55.2556 7.88755C55.4719 7.88755 56.1781 7.62058 56.8245 7.2941C57.4711 6.96779 58.2273 6.60745 58.5048 6.49366C59.0568 6.26736 59.2504 5.84024 59.4151 4.48513C59.468 4.04993 59.5507 3.43006 59.5988 3.1077L59.6863 2.52138L60.6628 2.47469C61.1999 2.4489 61.6848 2.46346 61.7405 2.50698C61.7962 2.5505 61.9957 3.25171 62.1839 4.06544ZM10.5907 7.71711C10.3362 7.97158 10.1281 8.34015 10.1281 8.53606C10.1281 8.96034 14.5945 13.5477 15.1412 13.685C15.3308 13.7326 15.6342 13.7244 15.8156 13.6668C16.2324 13.5345 16.669 12.7076 16.5571 12.262C16.4209 11.7193 11.8314 7.25454 11.4097 7.25454C11.2137 7.25454 10.8452 7.46264 10.5907 7.71711ZM62.9343 11.7372C65.1084 12.5387 66.3964 14.9579 65.7794 17.0807C65.4513 18.2091 64.7441 19.1763 63.8172 19.764C63.4121 20.021 63.0296 20.2312 62.9672 20.2312C62.9047 20.2312 62.6634 19.733 62.4308 19.1242C62.1981 18.5154 61.8487 17.8924 61.6542 17.7395C61.4597 17.5868 60.3265 17.0359 59.1356 16.5156C56.7512 15.4735 56.7209 15.4384 57.2059 14.2778C57.6155 13.2976 58.3615 12.5183 59.3755 12.0116C60.1761 11.6115 60.526 11.5294 61.3876 11.5394C61.9611 11.546 62.6572 11.635 62.9343 11.7372ZM51.7964 15.9036C55.9043 17.7014 59.2858 19.1875 59.3107 19.2064C59.3357 19.225 58.6056 20.9489 57.6886 23.037C56.7715 25.1252 56.0212 26.9781 56.0212 27.1547C56.0212 27.3313 56.1459 27.62 56.2982 27.7963C56.4504 27.9724 58.2486 28.8477 60.294 29.7411C62.3394 30.6345 64.0362 31.3818 64.0645 31.4019C64.0929 31.422 63.6351 32.5486 63.047 33.9056L61.978 36.3729L59.8304 36.3753C58.4229 36.3767 57.5634 36.4449 57.336 36.5731C56.7408 36.9086 51.9958 42.0689 51.7968 42.5971C51.6639 42.9502 51.6054 44.7962 51.599 48.8353C51.5941 51.9905 51.5542 54.5719 51.5104 54.5719C51.4341 54.5719 50.2265 54.0473 41.5412 50.2412L37.7431 48.5767L37.7024 37.9945L37.6618 27.4122L40.6804 20.5379C42.3408 16.7571 43.7975 13.4322 43.9176 13.1494C44.0379 12.8666 44.1792 12.6351 44.2318 12.6351C44.2843 12.6351 47.6883 14.1059 51.7964 15.9036ZM62.2671 25.3032C62.9209 26.9833 63.4298 28.384 63.3981 28.4158C63.3451 28.4689 59.0266 26.6083 58.8881 26.4728C58.8546 26.4401 59.2782 25.3768 59.8294 24.1101C60.4947 22.5808 60.8729 21.881 60.9549 22.0275C61.0229 22.1489 61.6134 23.6229 62.2671 25.3032ZM0.316504 32.8914C0.106978 33.1009 0 33.4188 0 33.8319C0 34.8915 0.200505 34.9487 3.92275 34.9487C5.88935 34.9487 7.26424 34.8833 7.45589 34.7807C8.13795 34.4157 8.12245 33.0995 7.43167 32.7298C7.26978 32.6431 5.70784 32.5749 3.88762 32.5749C0.843958 32.5749 0.612435 32.5954 0.316504 32.8914ZM74.8808 39.4984C74.5315 39.9119 73.8986 40.5889 73.4744 41.0032L72.7031 41.7563L64.2051 41.7154L55.7071 41.6744L57.0639 40.2105L58.4208 38.7467H66.9683H75.5157L74.8808 39.4984ZM77.0688 49.2124V57.6208L75.8051 58.9053L74.5415 60.1899L74.5391 58.0068C74.5369 55.9014 74.523 55.8097 74.1482 55.4352C73.6687 54.9555 72.9194 54.9232 72.4794 55.3632C72.184 55.6586 72.1629 55.8906 72.1629 58.8496C72.1629 61.2577 72.1148 62.0381 71.9631 62.0965C71.8531 62.1386 69.7869 62.1542 67.3717 62.131L62.9804 62.0889L63.3779 61.5038C64.0962 60.4472 63.9704 60.0864 62.3026 58.4187C60.486 56.602 60.3458 56.5766 58.6444 57.7596L57.4738 58.5733L56.8661 58.3315C56.2649 58.0921 56.2561 58.0758 56.0086 56.7659C55.652 54.8792 55.4414 54.5719 54.5049 54.5719H54.1222V49.3496V44.1273H63.1426H72.1629V47.2923C72.1629 50.2464 72.184 50.4784 72.4794 50.7739C72.9507 51.2451 73.7977 51.1959 74.2087 50.6734C74.5177 50.2806 74.5367 50.057 74.5367 46.8093V43.3623L75.7401 42.0831C76.4019 41.3795 76.9716 40.804 77.0061 40.804C77.0406 40.804 77.0688 44.5878 77.0688 49.2124ZM14.939 54.0755C13.9744 54.7833 10.6051 58.3101 10.5842 58.6336C10.5299 59.4717 11.0411 60.1107 11.7656 60.1107C12.164 60.1107 12.604 59.7498 14.5142 57.856C15.7651 56.6157 16.8287 55.4407 16.8779 55.2448C17.0244 54.6605 16.7999 54.1184 16.3055 53.8626C15.6901 53.5444 15.6551 53.5498 14.939 54.0755ZM53.8173 58.1405C54.039 59.5149 54.3563 60.0083 55.1929 60.2791C55.518 60.3843 56.1198 60.6388 56.5303 60.8445C56.9408 61.0501 57.4104 61.2185 57.5737 61.2185C57.737 61.2185 58.3695 60.8681 58.9793 60.4399L60.088 59.6613L60.5789 60.152L61.0696 60.6429L60.3804 61.6288C59.4157 63.0088 59.399 63.1177 59.9652 64.3275C60.2331 64.9001 60.4523 65.4729 60.4523 65.6003C60.4523 65.7279 60.6482 66.0278 60.8875 66.2669C61.2322 66.6112 61.5776 66.7428 62.5491 66.8993L63.7756 67.0968V67.7803C63.7756 68.5421 63.7683 68.5467 62.2271 68.7478C61.1807 68.8842 60.7235 69.2371 60.4629 70.1094C60.3507 70.4853 60.1242 71.057 59.96 71.3799C59.5018 72.2798 59.58 72.7282 60.4034 73.9225L61.1457 74.9991L60.6802 75.4647L60.2146 75.9302L59.0551 75.1418C58.4175 74.7082 57.7899 74.3534 57.6604 74.3534C57.5311 74.3534 57.0559 74.5212 56.6045 74.7261C56.1532 74.9312 55.5254 75.1831 55.2096 75.286C54.368 75.5602 54.1619 75.8817 53.9288 77.2846L53.719 78.5471L53.0635 78.595C52.3241 78.6493 52.3566 78.6992 52.0518 77.0437C51.8331 75.8559 51.6147 75.5446 50.8193 75.2873C50.5035 75.185 49.9091 74.9331 49.4986 74.7274C49.088 74.5218 48.5856 74.3534 48.3822 74.3534C48.1787 74.3534 47.5571 74.6739 47.0009 75.0655C46.4446 75.4572 45.919 75.7777 45.8328 75.7777C45.6359 75.7777 44.9436 75.1363 44.9436 74.9538C44.9436 74.8793 45.264 74.3406 45.6557 73.7566C46.0474 73.1729 46.3679 72.5318 46.3679 72.3321C46.3679 72.1325 46.1995 71.6332 45.9939 71.2227C45.7882 70.8122 45.5353 70.2148 45.4318 69.8954C45.171 69.0893 44.9333 68.9396 43.4616 68.6549L42.1742 68.406L42.1257 67.7451C42.0718 67.0078 41.9721 67.0684 43.7437 66.7619C44.8222 66.5755 45.174 66.3152 45.434 65.5117C45.5362 65.1958 45.7882 64.6014 45.9939 64.1909C46.1995 63.7804 46.3679 63.3052 46.3679 63.1351C46.3679 62.9648 46.0131 62.3038 45.5794 61.6662L44.791 60.5067L45.2479 60.0498L45.7048 59.5929L46.92 60.4057C47.5883 60.8528 48.2034 61.2185 48.2867 61.2185C48.3701 61.2185 48.8953 61.0049 49.4538 60.7437C50.0122 60.4826 50.5845 60.269 50.7253 60.269C50.8662 60.269 51.1743 60.0731 51.4101 59.8338C51.7443 59.4942 51.8831 59.1291 52.0412 58.1721L52.2438 56.9457H52.9342H53.6245L53.8173 58.1405ZM51.4772 62.5456C49.7761 63.1034 48.515 64.2609 47.9364 65.7953C47.6657 66.5133 47.6158 66.9295 47.6695 68.0233C47.7453 69.5709 48.06 70.3246 49.1026 71.4557C51.6266 74.1937 56.2159 73.4864 57.8775 70.1031C58.2583 69.3276 58.3157 69.0229 58.3151 67.7859C58.3145 66.6592 58.2425 66.2058 57.9703 65.6152C57.4851 64.5627 56.2977 63.3546 55.2705 62.8687C54.204 62.3642 52.4784 62.2172 51.4772 62.5456ZM35.2902 68.3631V73.2922L33.8158 73.2042C32.0207 73.0971 31.12 72.7201 30.2222 71.7002C29.2686 70.6168 29.1184 69.8974 29.1184 66.412V63.434H32.2043H35.2902V68.3631ZM54.663 65.2906C57.1007 67.0078 55.9731 70.7136 53.0129 70.7136C51.2352 70.7136 50.0067 69.4706 50.0084 67.6736C50.0108 65.2916 52.7057 63.9118 54.663 65.2906Z" fill="url(#paint0_radial_1215_485)" fill-opacity="0.7"/>
<path fill-rule="evenodd" clip-rule="evenodd" d="M59.6457 0.119745C58.7202 0.176083 58.0253 0.296829 57.8666 0.428495C57.5474 0.693409 57.3441 1.44574 57.1977 2.90261C57.0448 4.42531 56.9897 4.52564 56.0768 4.94865L55.2735 5.3207L53.788 4.39477C51.9988 3.27956 51.4778 3.20455 50.7719 3.96021C49.0165 5.83929 47.9766 7.06574 47.8831 7.36722C47.745 7.81285 47.9243 8.14566 49.1577 9.73308L50.1613 11.0247L49.9097 11.6321C49.7712 11.9662 49.6392 12.2597 49.6163 12.2844C49.5935 12.3093 48.2753 11.7573 46.6869 11.058C45.0985 10.3587 43.6689 9.78657 43.5097 9.78657C42.8517 9.78657 42.4092 10.5756 40.0928 15.8793L37.7431 21.2598L37.7023 11.7758C37.6578 1.45365 37.6964 1.87729 36.7806 1.64751C36.3353 1.53578 35.5338 1.89802 35.3885 2.27672C35.3345 2.41756 35.2902 3.7635 35.2902 5.26753V8.00212L34.0638 8.11084C29.3698 8.52641 24.3403 10.5478 20.6471 13.5025C17.9322 15.6748 14.8757 19.3016 14.8757 20.3508C14.8757 20.9536 15.459 21.4972 16.1061 21.4972C16.544 21.4972 16.7128 21.3494 17.5068 20.2708C20.925 15.627 24.9467 12.7878 30.3257 11.221C31.4077 10.9057 34.1904 10.4224 34.9341 10.4205L35.2902 10.4196V35.7399V61.0602H31.4765C26.0518 61.0602 26.1116 61.103 26.1116 57.2334C26.1116 55.3828 26.0576 54.7235 25.8859 54.4784C25.7617 54.3011 25.1031 53.8259 24.4221 53.4224C19.0735 50.253 15.0995 44.6164 13.7625 38.3034C13.347 36.341 13.1905 32.8084 13.4351 30.9132C13.5362 30.1299 13.8013 28.7485 14.0241 27.8435C14.4698 26.0338 14.416 25.6555 13.664 25.3127C13.1243 25.0669 12.9197 25.091 12.4578 25.4543C12.1351 25.708 11.9738 26.112 11.6521 27.472C11.0237 30.1285 10.8683 31.7385 10.9683 34.553C11.1463 39.5581 12.5304 43.8204 15.3642 48.0902C16.7521 50.1815 19.9708 53.3792 22.1157 54.7977L23.7378 55.8705V57.8833C23.7378 60.2041 23.9399 61.0012 24.7755 61.9773C25.0757 62.328 25.6414 62.77 26.0329 62.9594L26.7446 63.3039V66.5008C26.7446 69.9914 26.8972 70.9779 27.6307 72.2294C28.9146 74.4204 31.2396 75.6194 34.204 75.6194H35.2902V77.8965C35.2902 79.8327 35.3317 80.2236 35.5672 80.5072C35.9897 81.0161 36.7118 81.0931 37.2313 80.6844L37.664 80.344V65.7856C37.664 51.3087 37.6657 51.2279 37.9799 51.3276C38.4287 51.47 49.7067 56.4337 49.8051 56.5322C49.8499 56.577 49.8247 56.9457 49.7492 57.3516C49.6275 58.0065 49.5459 58.116 49.0254 58.3231L48.4387 58.5565L47.2355 57.7248C45.5081 56.5306 45.4012 56.5504 43.5793 58.3991C41.766 60.2389 41.7447 60.3535 42.9051 62.0058C43.6924 63.1269 43.71 63.1762 43.5347 63.7619C43.3362 64.4239 43.3253 64.4294 41.6203 64.7205C39.8021 65.0309 39.7213 65.1568 39.7213 67.6783C39.7213 70.3458 39.7664 70.4121 41.8342 70.7845L43.3218 71.0523L43.5581 71.6538L43.7944 72.2553L42.9447 73.4916C42.4709 74.1809 42.095 74.9038 42.095 75.1254C42.095 75.7087 45.0316 78.6262 45.6187 78.6262C45.8664 78.6262 46.5489 78.279 47.2791 77.7819L48.5191 76.9375L49.0656 77.1833C49.3661 77.3184 49.6331 77.4406 49.6589 77.4547C49.6847 77.4688 49.8212 78.1094 49.9624 78.8783C50.3417 80.9443 50.4213 81 52.986 81C55.5716 81 55.7177 80.9144 56.0084 79.2295C56.3265 77.3855 56.3102 77.4199 56.9685 77.2027C57.5681 77.0048 57.5897 77.0122 58.7281 77.8142C60.4099 78.9992 60.5243 78.9758 62.4008 77.0659C63.3481 76.1016 63.9338 75.3797 63.9338 75.1762C63.9338 74.9951 63.542 74.2748 63.0631 73.5756L62.1924 72.3042L62.4376 71.6915L62.6827 71.0789L64.0342 70.8685C64.8538 70.7411 65.536 70.54 65.7675 70.358C66.1383 70.0664 66.1494 69.9939 66.1494 67.8711C66.1494 65.1981 66.1033 65.1129 64.4877 64.7959C63.4461 64.5916 63.6821 64.5772 68.444 64.5546C72.0909 64.5374 73.6005 64.4767 73.8385 64.3384C74.0203 64.2327 75.3509 62.8898 76.7955 61.3543C78.8086 59.2142 79.4444 58.4385 79.5187 58.031C79.5718 57.7387 79.5943 52.9179 79.5685 47.3181L79.5217 37.1366L79.0776 36.7548L78.6336 36.3729H71.6022H64.5708L64.9742 35.463C65.1961 34.9626 65.7403 33.7179 66.1835 32.6972L66.9895 30.8412L66.3345 29.1473C65.9742 28.2155 65.6961 27.4473 65.7165 27.4402C65.737 27.4331 66.1506 27.2394 66.6357 27.0098L67.5176 26.5922L68.7721 27.382C70.626 28.5493 70.9624 28.6751 71.4924 28.3988C71.9001 28.1862 74.5769 25.3086 74.8939 24.7422C75.1373 24.3073 74.9056 23.8118 73.7736 22.3453L72.6915 20.9433L73.0107 20.0586L73.3297 19.1738L74.9051 18.8185C76.8518 18.3795 77.1618 18.2413 77.3732 17.7182C77.5839 17.1969 77.3598 13.0206 77.0946 12.525C76.864 12.0944 76.7272 12.0527 74.6374 11.7783C73.6972 11.6547 72.9132 11.53 72.8952 11.5011C72.8773 11.472 72.6991 11.0876 72.4995 10.6468L72.1364 9.84528L73.0992 8.31704C73.6685 7.41327 74.062 6.61251 74.062 6.35725C74.062 5.90307 73.5313 5.33557 71.328 3.43291C70.5765 2.78392 70.1245 2.50698 69.8167 2.50698C69.5154 2.50698 68.9192 2.85877 67.9185 3.62693L66.4595 4.74672L65.5554 4.44541L64.6513 4.14409L64.2287 2.34224C63.6281 -0.217332 63.8007 -0.133616 59.6457 0.119745ZM62.1839 4.06544C62.3722 4.87902 62.6115 5.68294 62.7158 5.85179C62.8213 6.02286 63.2907 6.26958 63.7756 6.409C64.2543 6.54668 65.0607 6.83185 65.5676 7.04296C66.1481 7.28461 66.6168 7.38684 66.8336 7.31911C67.0231 7.26008 67.7537 6.76839 68.4575 6.22653L69.7368 5.24157L70.5489 5.94121L71.3611 6.64084L70.4986 7.97775C70.0243 8.71299 69.5951 9.4783 69.545 9.67833C69.4821 9.92868 69.6784 10.4716 70.1753 11.4215C70.5722 12.1803 70.8969 12.8951 70.8969 13.01C70.8969 13.5053 71.5472 13.8014 73.0776 14.0034C73.9237 14.1149 74.7049 14.2088 74.8137 14.2119C74.9518 14.2159 75.0115 14.5401 75.0115 15.2877V16.3578L73.3894 16.7186C72.4753 16.9218 71.6535 17.1974 71.5067 17.3498C71.3633 17.4984 71.1253 18.0451 70.9778 18.5648C70.8303 19.0844 70.5738 19.7759 70.4076 20.1014C69.9268 21.0438 70.0131 21.3671 71.1405 22.8444L72.1751 24.2006L71.868 24.6292C71.6991 24.865 71.3798 25.2269 71.1584 25.4336L70.7558 25.8091L69.3454 24.9193C68.5697 24.4298 67.7825 24.0293 67.5963 24.0293C67.41 24.0293 66.7684 24.2785 66.1707 24.5831C65.5729 24.8878 65.0144 25.137 64.9294 25.137C64.802 25.137 64.4113 24.2695 63.8509 22.7425C63.7806 22.5512 63.9465 22.3923 64.491 22.1287C65.6254 21.5795 67.0194 20.1942 67.5766 19.062C69.2956 15.5707 67.9314 11.5522 64.4418 9.82756C63.2603 9.24377 63.2043 9.23269 61.41 9.23269C59.689 9.23269 59.5205 9.26181 58.5338 9.72929C56.7946 10.5533 55.506 11.9426 54.9094 13.6367C54.7509 14.0868 54.5623 14.4433 54.4905 14.4289C53.9358 14.3184 51.9067 13.3245 51.9067 13.1634C51.9067 13.0518 52.0847 12.558 52.3023 12.066C52.5199 11.574 52.6979 10.9947 52.6979 10.7787C52.6979 10.5354 52.302 9.87883 51.6577 9.05387L50.6176 7.7217L51.2768 6.93424C51.6394 6.5011 51.9643 6.14678 51.9986 6.14678C52.0331 6.14678 52.6914 6.53845 53.4617 7.01716C54.2319 7.49587 55.0391 7.88755 55.2556 7.88755C55.4719 7.88755 56.1781 7.62058 56.8245 7.2941C57.4711 6.96779 58.2273 6.60745 58.5048 6.49366C59.0568 6.26736 59.2504 5.84024 59.4151 4.48513C59.468 4.04993 59.5507 3.43006 59.5988 3.1077L59.6863 2.52138L60.6628 2.47469C61.1999 2.4489 61.6848 2.46346 61.7405 2.50698C61.7962 2.5505 61.9957 3.25171 62.1839 4.06544ZM10.5907 7.71711C10.3362 7.97158 10.1281 8.34015 10.1281 8.53606C10.1281 8.96034 14.5945 13.5477 15.1412 13.685C15.3308 13.7326 15.6342 13.7244 15.8156 13.6668C16.2324 13.5345 16.669 12.7076 16.5571 12.262C16.4209 11.7193 11.8314 7.25454 11.4097 7.25454C11.2137 7.25454 10.8452 7.46264 10.5907 7.71711ZM62.9343 11.7372C65.1084 12.5387 66.3964 14.9579 65.7794 17.0807C65.4513 18.2091 64.7441 19.1763 63.8172 19.764C63.4121 20.021 63.0296 20.2312 62.9672 20.2312C62.9047 20.2312 62.6634 19.733 62.4308 19.1242C62.1981 18.5154 61.8487 17.8924 61.6542 17.7395C61.4597 17.5868 60.3265 17.0359 59.1356 16.5156C56.7512 15.4735 56.7209 15.4384 57.2059 14.2778C57.6155 13.2976 58.3615 12.5183 59.3755 12.0116C60.1761 11.6115 60.526 11.5294 61.3876 11.5394C61.9611 11.546 62.6572 11.635 62.9343 11.7372ZM51.7964 15.9036C55.9043 17.7014 59.2858 19.1875 59.3107 19.2064C59.3357 19.225 58.6056 20.9489 57.6886 23.037C56.7715 25.1252 56.0212 26.9781 56.0212 27.1547C56.0212 27.3313 56.1459 27.62 56.2982 27.7963C56.4504 27.9724 58.2486 28.8477 60.294 29.7411C62.3394 30.6345 64.0362 31.3818 64.0645 31.4019C64.0929 31.422 63.6351 32.5486 63.047 33.9056L61.978 36.3729L59.8304 36.3753C58.4229 36.3767 57.5634 36.4449 57.336 36.5731C56.7408 36.9086 51.9958 42.0689 51.7968 42.5971C51.6639 42.9502 51.6054 44.7962 51.599 48.8353C51.5941 51.9905 51.5542 54.5719 51.5104 54.5719C51.4341 54.5719 50.2265 54.0473 41.5412 50.2412L37.7431 48.5767L37.7024 37.9945L37.6618 27.4122L40.6804 20.5379C42.3408 16.7571 43.7975 13.4322 43.9176 13.1494C44.0379 12.8666 44.1792 12.6351 44.2318 12.6351C44.2843 12.6351 47.6883 14.1059 51.7964 15.9036ZM62.2671 25.3032C62.9209 26.9833 63.4298 28.384 63.3981 28.4158C63.3451 28.4689 59.0266 26.6083 58.8881 26.4728C58.8546 26.4401 59.2782 25.3768 59.8294 24.1101C60.4947 22.5808 60.8729 21.881 60.9549 22.0275C61.0229 22.1489 61.6134 23.6229 62.2671 25.3032ZM0.316504 32.8914C0.106978 33.1009 0 33.4188 0 33.8319C0 34.8915 0.200505 34.9487 3.92275 34.9487C5.88935 34.9487 7.26424 34.8833 7.45589 34.7807C8.13795 34.4157 8.12245 33.0995 7.43167 32.7298C7.26978 32.6431 5.70784 32.5749 3.88762 32.5749C0.843958 32.5749 0.612435 32.5954 0.316504 32.8914ZM74.8808 39.4984C74.5315 39.9119 73.8986 40.5889 73.4744 41.0032L72.7031 41.7563L64.2051 41.7154L55.7071 41.6744L57.0639 40.2105L58.4208 38.7467H66.9683H75.5157L74.8808 39.4984ZM77.0688 49.2124V57.6208L75.8051 58.9053L74.5415 60.1899L74.5391 58.0068C74.5369 55.9014 74.523 55.8097 74.1482 55.4352C73.6687 54.9555 72.9194 54.9232 72.4794 55.3632C72.184 55.6586 72.1629 55.8906 72.1629 58.8496C72.1629 61.2577 72.1148 62.0381 71.9631 62.0965C71.8531 62.1386 69.7869 62.1542 67.3717 62.131L62.9804 62.0889L63.3779 61.5038C64.0962 60.4472 63.9704 60.0864 62.3026 58.4187C60.486 56.602 60.3458 56.5766 58.6444 57.7596L57.4738 58.5733L56.8661 58.3315C56.2649 58.0921 56.2561 58.0758 56.0086 56.7659C55.652 54.8792 55.4414 54.5719 54.5049 54.5719H54.1222V49.3496V44.1273H63.1426H72.1629V47.2923C72.1629 50.2464 72.184 50.4784 72.4794 50.7739C72.9507 51.2451 73.7977 51.1959 74.2087 50.6734C74.5177 50.2806 74.5367 50.057 74.5367 46.8093V43.3623L75.7401 42.0831C76.4019 41.3795 76.9716 40.804 77.0061 40.804C77.0406 40.804 77.0688 44.5878 77.0688 49.2124ZM14.939 54.0755C13.9744 54.7833 10.6051 58.3101 10.5842 58.6336C10.5299 59.4717 11.0411 60.1107 11.7656 60.1107C12.164 60.1107 12.604 59.7498 14.5142 57.856C15.7651 56.6157 16.8287 55.4407 16.8779 55.2448C17.0244 54.6605 16.7999 54.1184 16.3055 53.8626C15.6901 53.5444 15.6551 53.5498 14.939 54.0755ZM53.8173 58.1405C54.039 59.5149 54.3563 60.0083 55.1929 60.2791C55.518 60.3843 56.1198 60.6388 56.5303 60.8445C56.9408 61.0501 57.4104 61.2185 57.5737 61.2185C57.737 61.2185 58.3695 60.8681 58.9793 60.4399L60.088 59.6613L60.5789 60.152L61.0696 60.6429L60.3804 61.6288C59.4157 63.0088 59.399 63.1177 59.9652 64.3275C60.2331 64.9001 60.4523 65.4729 60.4523 65.6003C60.4523 65.7279 60.6482 66.0278 60.8875 66.2669C61.2322 66.6112 61.5776 66.7428 62.5491 66.8993L63.7756 67.0968V67.7803C63.7756 68.5421 63.7683 68.5467 62.2271 68.7478C61.1807 68.8842 60.7235 69.2371 60.4629 70.1094C60.3507 70.4853 60.1242 71.057 59.96 71.3799C59.5018 72.2798 59.58 72.7282 60.4034 73.9225L61.1457 74.9991L60.6802 75.4647L60.2146 75.9302L59.0551 75.1418C58.4175 74.7082 57.7899 74.3534 57.6604 74.3534C57.5311 74.3534 57.0559 74.5212 56.6045 74.7261C56.1532 74.9312 55.5254 75.1831 55.2096 75.286C54.368 75.5602 54.1619 75.8817 53.9288 77.2846L53.719 78.5471L53.0635 78.595C52.3241 78.6493 52.3566 78.6992 52.0518 77.0437C51.8331 75.8559 51.6147 75.5446 50.8193 75.2873C50.5035 75.185 49.9091 74.9331 49.4986 74.7274C49.088 74.5218 48.5856 74.3534 48.3822 74.3534C48.1787 74.3534 47.5571 74.6739 47.0009 75.0655C46.4446 75.4572 45.919 75.7777 45.8328 75.7777C45.6359 75.7777 44.9436 75.1363 44.9436 74.9538C44.9436 74.8793 45.264 74.3406 45.6557 73.7566C46.0474 73.1729 46.3679 72.5318 46.3679 72.3321C46.3679 72.1325 46.1995 71.6332 45.9939 71.2227C45.7882 70.8122 45.5353 70.2148 45.4318 69.8954C45.171 69.0893 44.9333 68.9396 43.4616 68.6549L42.1742 68.406L42.1257 67.7451C42.0718 67.0078 41.9721 67.0684 43.7437 66.7619C44.8222 66.5755 45.174 66.3152 45.434 65.5117C45.5362 65.1958 45.7882 64.6014 45.9939 64.1909C46.1995 63.7804 46.3679 63.3052 46.3679 63.1351C46.3679 62.9648 46.0131 62.3038 45.5794 61.6662L44.791 60.5067L45.2479 60.0498L45.7048 59.5929L46.92 60.4057C47.5883 60.8528 48.2034 61.2185 48.2867 61.2185C48.3701 61.2185 48.8953 61.0049 49.4538 60.7437C50.0122 60.4826 50.5845 60.269 50.7253 60.269C50.8662 60.269 51.1743 60.0731 51.4101 59.8338C51.7443 59.4942 51.8831 59.1291 52.0412 58.1721L52.2438 56.9457H52.9342H53.6245L53.8173 58.1405ZM51.4772 62.5456C49.7761 63.1034 48.515 64.2609 47.9364 65.7953C47.6657 66.5133 47.6158 66.9295 47.6695 68.0233C47.7453 69.5709 48.06 70.3246 49.1026 71.4557C51.6266 74.1937 56.2159 73.4864 57.8775 70.1031C58.2583 69.3276 58.3157 69.0229 58.3151 67.7859C58.3145 66.6592 58.2425 66.2058 57.9703 65.6152C57.4851 64.5627 56.2977 63.3546 55.2705 62.8687C54.204 62.3642 52.4784 62.2172 51.4772 62.5456ZM35.2902 68.3631V73.2922L33.8158 73.2042C32.0207 73.0971 31.12 72.7201 30.2222 71.7002C29.2686 70.6168 29.1184 69.8974 29.1184 66.412V63.434H32.2043H35.2902V68.3631ZM54.663 65.2906C57.1007 67.0078 55.9731 70.7136 53.0129 70.7136C51.2352 70.7136 50.0067 69.4706 50.0084 67.6736C50.0108 65.2916 52.7057 63.9118 54.663 65.2906Z" fill="url(#paint1_radial_1215_485)"/>
<defs>
<radialGradient id="paint0_radial_1215_485" cx="0" cy="0" r="1" gradientUnits="userSpaceOnUse" gradientTransform="translate(21.0001 16.875) rotate(51.5389) scale(67.5261 67.2663)">
<stop stop-color="white" stop-opacity="0.59"/>
<stop offset="0.697917" stop-color="white" stop-opacity="0"/>
<stop offset="1" stop-color="white" stop-opacity="0"/>
</radialGradient>
<radialGradient id="paint1_radial_1215_485" cx="0" cy="0" r="1" gradientUnits="userSpaceOnUse" gradientTransform="translate(68.6779 70.875) rotate(-93.6063) scale(69.3248 75.9209)">
<stop stop-opacity="0.23"/>
<stop offset="0.861815" stop-opacity="0"/>
</radialGradient>
</defs>
</svg>
