<svg width="81" height="81" viewBox="0 0 81 81" fill="none" xmlns="http://www.w3.org/2000/svg">
<path fill-rule="evenodd" clip-rule="evenodd" d="M71.5901 0.231884C71.3288 0.366033 68.5435 3.04346 65.4006 6.18193L59.6864 11.8884L58.1151 10.8975C56.2404 9.71508 53.0088 8.13713 50.9059 7.37707C33.68 1.15144 14.7914 7.86488 5.305 23.5849C2.78421 27.7624 1.07497 32.568 0.291618 37.6808C-0.0972061 40.2184 -0.0972061 45.9131 0.291618 48.4507C1.07497 53.5635 2.78421 58.3691 5.305 62.5466C11.2935 72.4702 20.9964 78.9385 32.5493 80.7084C35.0869 81.0972 40.7816 81.0972 43.3192 80.7084C57.4159 78.5487 68.8408 69.2432 73.6877 55.9738C77.6195 45.209 76.259 32.6468 70.104 22.8873L69.1146 21.3185L74.9734 15.4434C78.8249 11.5813 80.8693 9.41907 80.9401 9.13271C80.9995 8.89308 80.9997 8.50109 80.9406 8.26162C80.8216 7.77951 73.793 0.597427 73.0631 0.212087C72.5173 -0.076166 72.1818 -0.0715729 71.5901 0.231884ZM74.7585 6.32225L77.1311 8.69875L62.4403 23.3878L47.7494 38.0768L44.151 39.2936C42.1719 39.9628 40.538 40.4959 40.5203 40.4781C40.5025 40.4604 41.0407 38.8213 41.7162 36.8357L42.9445 33.2256L57.5837 18.5857C65.6353 10.5337 72.2596 3.94575 72.3044 3.94575C72.3492 3.94575 73.4536 5.01514 74.7585 6.32225ZM41.0347 8.38722C46.5616 8.91494 51.9059 10.7191 56.499 13.6071L57.4041 14.1763L55.1315 16.4448L52.8589 18.7133L50.5836 17.5882C49.3321 16.9692 47.6311 16.2464 46.8036 15.9816C41.6226 14.3243 36.3204 14.1453 31.0447 15.4499C20.8678 17.9664 12.8406 25.9934 10.3176 36.1762C9.68501 38.7295 9.52441 40.1246 9.52441 43.0658C9.52441 46.0069 9.68501 47.4021 10.3176 49.9553C12.8406 60.1382 20.8618 68.1594 31.0447 70.6824C33.5979 71.315 34.9931 71.4756 37.9342 71.4756C40.8754 71.4756 42.2705 71.315 44.8238 70.6824C55.0066 68.1594 63.0336 60.1322 65.5501 49.9553C66.8547 44.6796 66.6757 39.3774 65.0184 34.1964C64.7536 33.3689 64.0308 31.6679 63.4118 30.4164L62.2867 28.1411L64.5552 25.8685L66.8237 23.5959L67.3929 24.501C71.4493 30.9522 73.3371 38.849 72.6096 46.3246C71.9957 52.6326 69.7225 58.5598 65.8884 63.8488C64.5788 65.6556 60.6741 69.5533 58.7613 70.9632C46.2163 80.2109 29.6522 80.2109 17.1072 70.9632C15.1944 69.5533 11.2897 65.6556 9.98007 63.8488C8.55069 61.8771 6.99523 59.2204 6.16801 57.3382C0.999738 45.578 2.44005 32.5203 10.0399 22.2387C11.5422 20.2062 15.0747 16.6737 17.1072 15.1714C24.1048 9.99906 32.623 7.58391 41.0347 8.38722ZM43.0024 18.2656C45.5045 18.8006 48.1783 19.7537 49.7906 20.6855L50.481 21.0846L45.3408 26.2546C40.2042 31.4211 40.2004 31.4256 39.8198 32.5334L39.4389 33.6421L38.3302 33.5903C33.0647 33.344 28.437 37.7763 28.437 43.0658C28.437 48.1903 32.8097 52.563 37.9342 52.563C43.2237 52.563 47.656 47.9353 47.4097 42.6698L47.3579 41.5611L48.4666 41.1736C49.4526 40.8288 49.7537 40.6126 51.1893 39.2179L52.8035 37.6498L53.1261 38.7344C55.779 47.6532 49.8465 57.0401 40.5303 58.6648C32.056 60.1427 23.836 54.2683 22.3352 45.6618C21.8854 43.0829 22.1242 40.3666 23.033 37.7248C24.5769 33.2359 28.519 29.4374 33.1036 28.0209C34.843 27.4835 35.0061 27.4013 35.2907 26.9193C35.9046 25.8802 35.3778 24.7433 34.212 24.5916C33.4928 24.498 31.2303 25.1909 29.6193 25.9982C25.0907 28.2673 21.5263 32.313 19.9812 36.9377C19.2289 39.1894 19.0075 40.5892 19.0117 43.0658C19.0187 47.1428 19.9451 50.222 22.1828 53.6077C24.9182 57.7461 29.2306 60.6284 34.2915 61.7011C36.1376 62.0923 39.7309 62.0923 41.577 61.7011C50.2143 59.8706 56.3127 52.8656 56.8877 44.1142C57.0492 41.6543 56.5017 38.3302 55.5516 36.0036L55.2223 35.1974L57.5633 32.8602L59.9045 30.5231L60.2339 31.0564C60.6848 31.7857 61.5559 33.854 62.0569 35.3843C64.9513 44.2259 62.501 54.2576 55.8135 60.945C49.0055 67.753 39.0671 70.0989 29.9121 67.0591C26.2307 65.8368 22.8494 63.7395 20.055 60.945C13.2315 54.1215 10.8825 44.105 13.9679 34.9883C16.5111 27.4741 22.3368 21.6479 29.8568 19.0985C32.9278 18.0573 35.3132 17.7139 38.8053 17.8105C40.5244 17.8581 41.6845 17.9838 43.0024 18.2656ZM38.1718 24.2098C37.585 24.45 37.2287 25.0028 37.2287 25.6727C37.2287 26.4957 37.9664 27.2277 38.7957 27.2277C39.571 27.2277 40.31 26.4635 40.31 25.6616C40.31 24.5804 39.1653 23.8032 38.1718 24.2098ZM37.3682 39.7748C36.8085 41.4492 36.3504 42.9886 36.3504 43.1958C36.3504 43.6895 37.3105 44.6496 37.8042 44.6496C38.0114 44.6496 39.5608 44.1882 41.2473 43.6244L44.3137 42.5993L44.2159 43.5341C43.8835 46.7148 41.5939 49.0139 38.4293 49.3447C37.4235 49.4498 35.9695 49.1419 34.9033 48.598C32.7147 47.4814 31.2699 44.5347 31.7211 42.1082C32.208 39.4908 33.8818 37.6507 36.3902 36.9752C36.8474 36.8522 37.4835 36.7467 37.8037 36.741L38.3859 36.7305L37.3682 39.7748Z" fill="#0066FF"/>
<path fill-rule="evenodd" clip-rule="evenodd" d="M71.5901 0.231884C71.3288 0.366033 68.5435 3.04346 65.4006 6.18193L59.6864 11.8884L58.1151 10.8975C56.2404 9.71508 53.0088 8.13713 50.9059 7.37707C33.68 1.15144 14.7914 7.86488 5.305 23.5849C2.78421 27.7624 1.07497 32.568 0.291618 37.6808C-0.0972061 40.2184 -0.0972061 45.9131 0.291618 48.4507C1.07497 53.5635 2.78421 58.3691 5.305 62.5466C11.2935 72.4702 20.9964 78.9385 32.5493 80.7084C35.0869 81.0972 40.7816 81.0972 43.3192 80.7084C57.4159 78.5487 68.8408 69.2432 73.6877 55.9738C77.6195 45.209 76.259 32.6468 70.104 22.8873L69.1146 21.3185L74.9734 15.4434C78.8249 11.5813 80.8693 9.41907 80.9401 9.13271C80.9995 8.89308 80.9997 8.50109 80.9406 8.26162C80.8216 7.77951 73.793 0.597427 73.0631 0.212087C72.5173 -0.076166 72.1818 -0.0715729 71.5901 0.231884ZM74.7585 6.32225L77.1311 8.69875L62.4403 23.3878L47.7494 38.0768L44.151 39.2936C42.1719 39.9628 40.538 40.4959 40.5203 40.4781C40.5025 40.4604 41.0407 38.8213 41.7162 36.8357L42.9445 33.2256L57.5837 18.5857C65.6353 10.5337 72.2596 3.94575 72.3044 3.94575C72.3492 3.94575 73.4536 5.01514 74.7585 6.32225ZM41.0347 8.38722C46.5616 8.91494 51.9059 10.7191 56.499 13.6071L57.4041 14.1763L55.1315 16.4448L52.8589 18.7133L50.5836 17.5882C49.3321 16.9692 47.6311 16.2464 46.8036 15.9816C41.6226 14.3243 36.3204 14.1453 31.0447 15.4499C20.8678 17.9664 12.8406 25.9934 10.3176 36.1762C9.68501 38.7295 9.52441 40.1246 9.52441 43.0658C9.52441 46.0069 9.68501 47.4021 10.3176 49.9553C12.8406 60.1382 20.8618 68.1594 31.0447 70.6824C33.5979 71.315 34.9931 71.4756 37.9342 71.4756C40.8754 71.4756 42.2705 71.315 44.8238 70.6824C55.0066 68.1594 63.0336 60.1322 65.5501 49.9553C66.8547 44.6796 66.6757 39.3774 65.0184 34.1964C64.7536 33.3689 64.0308 31.6679 63.4118 30.4164L62.2867 28.1411L64.5552 25.8685L66.8237 23.5959L67.3929 24.501C71.4493 30.9522 73.3371 38.849 72.6096 46.3246C71.9957 52.6326 69.7225 58.5598 65.8884 63.8488C64.5788 65.6556 60.6741 69.5533 58.7613 70.9632C46.2163 80.2109 29.6522 80.2109 17.1072 70.9632C15.1944 69.5533 11.2897 65.6556 9.98007 63.8488C8.55069 61.8771 6.99523 59.2204 6.16801 57.3382C0.999738 45.578 2.44005 32.5203 10.0399 22.2387C11.5422 20.2062 15.0747 16.6737 17.1072 15.1714C24.1048 9.99906 32.623 7.58391 41.0347 8.38722ZM43.0024 18.2656C45.5045 18.8006 48.1783 19.7537 49.7906 20.6855L50.481 21.0846L45.3408 26.2546C40.2042 31.4211 40.2004 31.4256 39.8198 32.5334L39.4389 33.6421L38.3302 33.5903C33.0647 33.344 28.437 37.7763 28.437 43.0658C28.437 48.1903 32.8097 52.563 37.9342 52.563C43.2237 52.563 47.656 47.9353 47.4097 42.6698L47.3579 41.5611L48.4666 41.1736C49.4526 40.8288 49.7537 40.6126 51.1893 39.2179L52.8035 37.6498L53.1261 38.7344C55.779 47.6532 49.8465 57.0401 40.5303 58.6648C32.056 60.1427 23.836 54.2683 22.3352 45.6618C21.8854 43.0829 22.1242 40.3666 23.033 37.7248C24.5769 33.2359 28.519 29.4374 33.1036 28.0209C34.843 27.4835 35.0061 27.4013 35.2907 26.9193C35.9046 25.8802 35.3778 24.7433 34.212 24.5916C33.4928 24.498 31.2303 25.1909 29.6193 25.9982C25.0907 28.2673 21.5263 32.313 19.9812 36.9377C19.2289 39.1894 19.0075 40.5892 19.0117 43.0658C19.0187 47.1428 19.9451 50.222 22.1828 53.6077C24.9182 57.7461 29.2306 60.6284 34.2915 61.7011C36.1376 62.0923 39.7309 62.0923 41.577 61.7011C50.2143 59.8706 56.3127 52.8656 56.8877 44.1142C57.0492 41.6543 56.5017 38.3302 55.5516 36.0036L55.2223 35.1974L57.5633 32.8602L59.9045 30.5231L60.2339 31.0564C60.6848 31.7857 61.5559 33.854 62.0569 35.3843C64.9513 44.2259 62.501 54.2576 55.8135 60.945C49.0055 67.753 39.0671 70.0989 29.9121 67.0591C26.2307 65.8368 22.8494 63.7395 20.055 60.945C13.2315 54.1215 10.8825 44.105 13.9679 34.9883C16.5111 27.4741 22.3368 21.6479 29.8568 19.0985C32.9278 18.0573 35.3132 17.7139 38.8053 17.8105C40.5244 17.8581 41.6845 17.9838 43.0024 18.2656ZM38.1718 24.2098C37.585 24.45 37.2287 25.0028 37.2287 25.6727C37.2287 26.4957 37.9664 27.2277 38.7957 27.2277C39.571 27.2277 40.31 26.4635 40.31 25.6616C40.31 24.5804 39.1653 23.8032 38.1718 24.2098ZM37.3682 39.7748C36.8085 41.4492 36.3504 42.9886 36.3504 43.1958C36.3504 43.6895 37.3105 44.6496 37.8042 44.6496C38.0114 44.6496 39.5608 44.1882 41.2473 43.6244L44.3137 42.5993L44.2159 43.5341C43.8835 46.7148 41.5939 49.0139 38.4293 49.3447C37.4235 49.4498 35.9695 49.1419 34.9033 48.598C32.7147 47.4814 31.2699 44.5347 31.7211 42.1082C32.208 39.4908 33.8818 37.6507 36.3902 36.9752C36.8474 36.8522 37.4835 36.7467 37.8037 36.741L38.3859 36.7305L37.3682 39.7748Z" fill="url(#paint0_radial_1215_495)" fill-opacity="0.7"/>
<path fill-rule="evenodd" clip-rule="evenodd" d="M71.5901 0.231884C71.3288 0.366033 68.5435 3.04346 65.4006 6.18193L59.6864 11.8884L58.1151 10.8975C56.2404 9.71508 53.0088 8.13713 50.9059 7.37707C33.68 1.15144 14.7914 7.86488 5.305 23.5849C2.78421 27.7624 1.07497 32.568 0.291618 37.6808C-0.0972061 40.2184 -0.0972061 45.9131 0.291618 48.4507C1.07497 53.5635 2.78421 58.3691 5.305 62.5466C11.2935 72.4702 20.9964 78.9385 32.5493 80.7084C35.0869 81.0972 40.7816 81.0972 43.3192 80.7084C57.4159 78.5487 68.8408 69.2432 73.6877 55.9738C77.6195 45.209 76.259 32.6468 70.104 22.8873L69.1146 21.3185L74.9734 15.4434C78.8249 11.5813 80.8693 9.41907 80.9401 9.13271C80.9995 8.89308 80.9997 8.50109 80.9406 8.26162C80.8216 7.77951 73.793 0.597427 73.0631 0.212087C72.5173 -0.076166 72.1818 -0.0715729 71.5901 0.231884ZM74.7585 6.32225L77.1311 8.69875L62.4403 23.3878L47.7494 38.0768L44.151 39.2936C42.1719 39.9628 40.538 40.4959 40.5203 40.4781C40.5025 40.4604 41.0407 38.8213 41.7162 36.8357L42.9445 33.2256L57.5837 18.5857C65.6353 10.5337 72.2596 3.94575 72.3044 3.94575C72.3492 3.94575 73.4536 5.01514 74.7585 6.32225ZM41.0347 8.38722C46.5616 8.91494 51.9059 10.7191 56.499 13.6071L57.4041 14.1763L55.1315 16.4448L52.8589 18.7133L50.5836 17.5882C49.3321 16.9692 47.6311 16.2464 46.8036 15.9816C41.6226 14.3243 36.3204 14.1453 31.0447 15.4499C20.8678 17.9664 12.8406 25.9934 10.3176 36.1762C9.68501 38.7295 9.52441 40.1246 9.52441 43.0658C9.52441 46.0069 9.68501 47.4021 10.3176 49.9553C12.8406 60.1382 20.8618 68.1594 31.0447 70.6824C33.5979 71.315 34.9931 71.4756 37.9342 71.4756C40.8754 71.4756 42.2705 71.315 44.8238 70.6824C55.0066 68.1594 63.0336 60.1322 65.5501 49.9553C66.8547 44.6796 66.6757 39.3774 65.0184 34.1964C64.7536 33.3689 64.0308 31.6679 63.4118 30.4164L62.2867 28.1411L64.5552 25.8685L66.8237 23.5959L67.3929 24.501C71.4493 30.9522 73.3371 38.849 72.6096 46.3246C71.9957 52.6326 69.7225 58.5598 65.8884 63.8488C64.5788 65.6556 60.6741 69.5533 58.7613 70.9632C46.2163 80.2109 29.6522 80.2109 17.1072 70.9632C15.1944 69.5533 11.2897 65.6556 9.98007 63.8488C8.55069 61.8771 6.99523 59.2204 6.16801 57.3382C0.999738 45.578 2.44005 32.5203 10.0399 22.2387C11.5422 20.2062 15.0747 16.6737 17.1072 15.1714C24.1048 9.99906 32.623 7.58391 41.0347 8.38722ZM43.0024 18.2656C45.5045 18.8006 48.1783 19.7537 49.7906 20.6855L50.481 21.0846L45.3408 26.2546C40.2042 31.4211 40.2004 31.4256 39.8198 32.5334L39.4389 33.6421L38.3302 33.5903C33.0647 33.344 28.437 37.7763 28.437 43.0658C28.437 48.1903 32.8097 52.563 37.9342 52.563C43.2237 52.563 47.656 47.9353 47.4097 42.6698L47.3579 41.5611L48.4666 41.1736C49.4526 40.8288 49.7537 40.6126 51.1893 39.2179L52.8035 37.6498L53.1261 38.7344C55.779 47.6532 49.8465 57.0401 40.5303 58.6648C32.056 60.1427 23.836 54.2683 22.3352 45.6618C21.8854 43.0829 22.1242 40.3666 23.033 37.7248C24.5769 33.2359 28.519 29.4374 33.1036 28.0209C34.843 27.4835 35.0061 27.4013 35.2907 26.9193C35.9046 25.8802 35.3778 24.7433 34.212 24.5916C33.4928 24.498 31.2303 25.1909 29.6193 25.9982C25.0907 28.2673 21.5263 32.313 19.9812 36.9377C19.2289 39.1894 19.0075 40.5892 19.0117 43.0658C19.0187 47.1428 19.9451 50.222 22.1828 53.6077C24.9182 57.7461 29.2306 60.6284 34.2915 61.7011C36.1376 62.0923 39.7309 62.0923 41.577 61.7011C50.2143 59.8706 56.3127 52.8656 56.8877 44.1142C57.0492 41.6543 56.5017 38.3302 55.5516 36.0036L55.2223 35.1974L57.5633 32.8602L59.9045 30.5231L60.2339 31.0564C60.6848 31.7857 61.5559 33.854 62.0569 35.3843C64.9513 44.2259 62.501 54.2576 55.8135 60.945C49.0055 67.753 39.0671 70.0989 29.9121 67.0591C26.2307 65.8368 22.8494 63.7395 20.055 60.945C13.2315 54.1215 10.8825 44.105 13.9679 34.9883C16.5111 27.4741 22.3368 21.6479 29.8568 19.0985C32.9278 18.0573 35.3132 17.7139 38.8053 17.8105C40.5244 17.8581 41.6845 17.9838 43.0024 18.2656ZM38.1718 24.2098C37.585 24.45 37.2287 25.0028 37.2287 25.6727C37.2287 26.4957 37.9664 27.2277 38.7957 27.2277C39.571 27.2277 40.31 26.4635 40.31 25.6616C40.31 24.5804 39.1653 23.8032 38.1718 24.2098ZM37.3682 39.7748C36.8085 41.4492 36.3504 42.9886 36.3504 43.1958C36.3504 43.6895 37.3105 44.6496 37.8042 44.6496C38.0114 44.6496 39.5608 44.1882 41.2473 43.6244L44.3137 42.5993L44.2159 43.5341C43.8835 46.7148 41.5939 49.0139 38.4293 49.3447C37.4235 49.4498 35.9695 49.1419 34.9033 48.598C32.7147 47.4814 31.2699 44.5347 31.7211 42.1082C32.208 39.4908 33.8818 37.6507 36.3902 36.9752C36.8474 36.8522 37.4835 36.7467 37.8037 36.741L38.3859 36.7305L37.3682 39.7748Z" fill="url(#paint1_radial_1215_495)"/>
<defs>
<radialGradient id="paint0_radial_1215_495" cx="0" cy="0" r="1" gradientUnits="userSpaceOnUse" gradientTransform="translate(21.371 16.875) rotate(51.0494) scale(67.99 67.9873)">
<stop stop-color="white" stop-opacity="0.59"/>
<stop offset="0.697917" stop-color="white" stop-opacity="0"/>
<stop offset="1" stop-color="white" stop-opacity="0"/>
</radialGradient>
<radialGradient id="paint1_radial_1215_495" cx="0" cy="0" r="1" gradientUnits="userSpaceOnUse" gradientTransform="translate(69.891 70.875) rotate(-93.6698) scale(69.3297 77.2564)">
<stop stop-opacity="0.23"/>
<stop offset="0.861815" stop-opacity="0"/>
</radialGradient>
</defs>
</svg>
