<svg width="80" height="79" viewBox="0 0 80 79" fill="none" xmlns="http://www.w3.org/2000/svg">
<path fill-rule="evenodd" clip-rule="evenodd" d="M55.7855 0.269833C55.3949 0.45362 54.6454 0.992374 54.1197 1.46685C53.3377 2.17287 52.9355 2.38756 51.9038 2.64965C51.2106 2.82563 50.1421 3.20421 49.5299 3.49081C48.5193 3.96351 48.4163 4.06206 48.4163 4.55554C48.4163 4.85457 48.9748 6.35132 49.6574 7.88146C50.3399 9.4116 50.8794 10.6695 50.856 10.6764C50.2751 10.8526 49.3363 11.5389 49.0208 12.0182C48.3673 13.0103 48.3117 13.9051 48.8393 14.9364L49.2859 15.8095L48.8661 16.3083C48.1045 17.2134 48.0837 18.4246 48.8093 19.6192L49.1639 20.2028L47.0572 22.3715C44.0802 25.4359 41.3319 29.2429 39.5544 32.7641C39.2493 33.3682 38.9746 33.8626 38.9439 33.8626C38.9132 33.8626 38.2551 33.4998 37.4816 33.0562C35.4972 31.9187 33.0986 30.7906 31.0517 30.0325L29.2971 29.3828L29.4646 28.6483C29.7872 27.2343 28.9143 25.579 27.6052 25.1227C27.1394 24.9604 27.1076 24.8851 27.1069 23.9455C27.1062 22.8064 26.7388 22.0508 25.8753 21.4123L25.3319 21.0106L25.3293 16.7379C25.3275 13.6341 25.2648 12.3437 25.1007 12.0212C24.8802 11.5881 24.8269 11.5773 22.928 11.5801C21.8574 11.5815 20.502 11.6877 19.916 11.8159C18.9226 12.0331 18.7905 12.0224 17.9627 11.6581C17.444 11.4299 16.5474 11.2303 15.8066 11.1783C14.0703 11.0563 13.4621 11.415 11.9425 13.4576C10.6593 15.1823 10.288 15.3922 8.51566 15.394C7.06295 15.3956 5.83486 15.7294 5.18583 16.2993C4.52597 16.8787 3.9201 18.151 3.66599 19.4902C3.52606 20.2284 3.2748 20.6494 2.28075 21.8111C1.61272 22.5915 0.801218 23.6676 0.477149 24.2023C-0.0149033 25.0142 -0.0811378 25.2422 0.0751257 25.5854C0.178118 25.8115 1.78497 27.0671 3.64592 28.3756L7.02956 30.7551L7.03578 31.661C7.04306 32.7167 7.50776 33.5351 8.46683 34.1811C9.04536 34.5707 9.08549 34.6609 9.10662 35.6168C9.13859 37.0651 9.69279 37.964 11.0404 38.754C11.3369 38.9278 11.3105 39.082 10.6295 41.1512C9.6017 44.2738 9.00328 46.4182 7.65817 51.7974C6.33792 57.0768 6.10494 59.0382 6.50377 61.5141C7.38701 66.9958 11.0004 72.2713 16.2312 75.7151C18.1886 77.0039 19.6434 77.6407 21.3861 77.9713C26.0747 78.8606 36.2217 78.8624 41.1358 77.9745C44.015 77.4544 47.2997 75.4507 50.2359 72.4231C52.6977 69.8847 54.3994 67.1909 55.3335 64.3537L55.7303 63.1481L56.8233 63.2815C57.4245 63.3548 59.6344 63.4136 61.7342 63.412C66.0137 63.4088 66.8762 63.2652 68.9644 62.2068C72.6455 60.3411 76.2214 56.7514 78.1907 52.9452C80.6444 48.2026 80.6098 44.3965 78.0417 36.5262C76.3274 31.2722 73.6342 26.1567 70.6936 22.5692C69.6765 21.3281 69.6019 21.1743 69.9226 20.9762C70.0314 20.909 70.2785 20.4965 70.4716 20.0597C70.8691 19.1612 70.8028 18.341 70.2573 17.4039C69.9803 16.9284 69.9668 16.8059 70.1723 16.6354C70.3065 16.5237 70.5512 16.08 70.7158 15.6488C71.0791 14.6974 70.9728 13.598 70.4486 12.889C70.246 12.615 70.0801 12.3275 70.0801 12.2503C70.0801 12.1732 70.7993 10.8714 71.6783 9.35762C72.5572 7.84382 73.2764 6.51611 73.2764 6.40726C73.2764 5.89479 72.3864 5.209 70.5475 4.30445C68.8557 3.47252 68.4477 3.18876 67.953 2.49961C67.1782 1.42086 65.9686 0.657295 65.0289 0.654099C64.6329 0.652678 63.5806 0.906429 62.6903 1.21789L61.0713 1.78399L60.1155 1.27436C58.1778 0.241421 57.8228 0.0897745 57.1663 0.0132409C56.737 -0.0366569 56.2403 0.0556806 55.7855 0.269833ZM58.7759 2.96662C59.7944 3.48318 60.7572 3.85146 61.0843 3.84933C61.3929 3.84738 62.3207 3.60766 63.1463 3.31662C63.9718 3.02557 64.7751 2.78745 64.9316 2.78745C65.088 2.78745 65.4734 3.0531 65.788 3.37752L66.36 3.96777L65.2681 7.06214C64.6674 8.76417 64.1261 10.2109 64.065 10.2773C64.0038 10.3435 63.5543 10.3174 63.066 10.219C62.5777 10.1208 61.0209 9.98676 59.6064 9.92106L57.0348 9.80155L56.3809 6.9604C55.3915 2.66049 55.4114 3.09838 56.1806 2.5511C56.547 2.29043 56.8877 2.07787 56.9376 2.07876C56.9877 2.07947 57.8148 2.47901 58.7759 2.96662ZM54.2803 7.27363C54.6008 8.71552 54.8178 9.94059 54.7624 9.99599C54.7071 10.0514 54.2922 10.1102 53.8401 10.1267L53.0184 10.1567L51.9605 7.80741C51.3784 6.51522 50.9023 5.38498 50.9023 5.29583C50.9023 5.09695 53.4336 4.38471 53.5872 4.54044C53.6478 4.60171 53.9598 5.83175 54.2803 7.27363ZM69.503 6.15386C70.1135 6.44277 70.6128 6.73381 70.6128 6.80076C70.6128 7.06232 68.0737 11.3109 67.9175 11.3109C67.3821 11.3109 66.1646 10.8785 66.2259 10.7102C66.2657 10.6012 66.6894 9.4132 67.1674 8.07022C67.6452 6.72742 68.1167 5.6286 68.2147 5.62878C68.3129 5.62878 68.8927 5.86513 69.503 6.15386ZM62.8265 12.3684C65.2553 12.7869 68.0993 13.5705 68.5263 13.939C69.1017 14.4353 68.8161 15.3951 68.0932 15.3951C67.9183 15.3951 66.9438 15.1616 65.9276 14.8762C61.8017 13.7177 57.3553 13.5 53.0671 14.2465C51.2607 14.561 51.2319 14.5605 50.8842 14.2128C50.5988 13.9274 50.5651 13.773 50.7068 13.4001C50.9067 12.8741 50.9833 12.8439 53.0332 12.4804C55.2496 12.0873 55.3748 12.0768 58.2096 12.0478C60.0892 12.0287 61.3702 12.1176 62.8265 12.3684ZM16.9894 13.5517C17.1324 13.6946 18.9782 22.1734 18.8836 22.2522C18.8655 22.2675 18.0115 22.6817 16.986 23.1729C15.9606 23.6641 14.4137 24.5122 13.5486 25.0577C12.6835 25.6032 11.9231 26.0494 11.8586 26.0494C11.7507 26.0494 9.64431 23.932 6.87685 21.0417L5.73755 19.8516L5.94779 19.15C6.3523 17.7999 6.57196 17.6703 8.74242 17.5013C11.2377 17.3068 11.9623 16.9581 13.1372 15.3869C14.8044 13.1571 14.7355 13.2102 15.841 13.302C16.38 13.3466 16.8967 13.459 16.9894 13.5517ZM23.2011 17.247V20.8746L22.2415 21.1536C21.2534 21.4409 20.8926 21.4934 20.8926 21.3503C20.8926 21.305 20.5675 19.6964 20.1699 17.7756C19.7725 15.8548 19.5148 14.2158 19.5974 14.1332C19.7798 13.9509 21.4104 13.6685 22.4464 13.6401L23.2011 13.6194V17.247ZM62.6979 16.3747C65.5891 16.9719 68.3949 18.0373 68.5755 18.6066C68.7057 19.0168 68.4028 19.6016 67.9927 19.7317C67.821 19.7863 67.0909 19.5907 66.3699 19.2974C61.9512 17.4991 56.411 17.2633 52.1141 18.6906C51.4782 18.9018 51.188 18.9218 50.9115 18.7739C50.3985 18.4994 50.4213 17.6167 50.9503 17.2701C51.423 16.9604 53.8365 16.3639 55.608 16.119C57.2699 15.8894 60.9996 16.0239 62.6979 16.3747ZM60.6688 20.0176C62.3383 20.2336 64.2733 20.7386 65.9959 21.408C67.1983 21.8752 67.4464 22.0613 68.548 23.3215C72.55 27.9001 75.8968 35.067 77.4348 42.3514C78.2429 46.179 78.0179 48.3272 76.4723 51.5392C75.0473 54.5005 72.6057 57.3346 69.8393 59.2378C68.9135 59.8748 66.6979 60.9397 65.9516 61.1064C65.4813 61.2114 65.2768 60.9897 65.6381 60.7664C66.1343 60.4597 68.406 55.8394 68.7508 54.4356C68.8582 53.9982 68.8041 53.9458 67.9523 53.6629C67.4495 53.4958 67.0078 53.3898 66.9705 53.4271C66.9332 53.4646 66.5372 54.3675 66.0904 55.4339C64.8089 58.4925 63.6724 60.2216 62.5681 60.7926C61.9279 61.1238 58.65 61.33 57.0983 61.1368L56.1407 61.0174L56.1986 59.6029C56.2501 58.3482 56.0528 56.394 55.7543 55.2005L55.6506 54.7859L57.2447 54.9106C59.579 55.0931 59.5961 55.0773 59.8745 52.4668C59.983 51.4504 59.9841 51.449 60.7226 51.2501C62.7331 50.7088 64.6024 49.1775 65.4224 47.4C66.1028 45.9251 66.1968 43.4548 65.6301 41.9421C65.044 40.3779 63.5668 38.9917 61.1892 37.7752C58.7881 36.5464 57.4725 35.7044 57.4725 35.3959C57.4725 34.9277 58.0114 34.6933 59.0655 34.7032C60.2497 34.7144 61.5279 35.0885 63.0348 35.8652C64.0654 36.3965 64.0705 36.3971 64.5219 36.06C64.8332 35.8278 65.1898 35.1388 65.6609 33.8599C66.4907 31.6076 66.5189 31.1649 65.8628 30.6986C65.2707 30.2781 63.4625 29.5108 62.6585 29.3389L62.0734 29.2139L62.1858 27.7649C62.3454 25.7065 62.3378 25.6999 59.4995 25.4224C58.0105 25.2768 57.0941 25.2578 56.8868 25.3682C56.4658 25.5925 56.2343 26.2382 56.2085 27.2596C56.1693 28.8083 56.0365 29.0964 55.2528 29.3304C54.0622 29.6857 53.0248 30.3024 52.1576 31.1708C49.9805 33.3499 49.6144 36.6869 51.2786 39.1793C52.1453 40.477 53.1594 41.2371 56.0251 42.7371C58.9083 44.2459 59.5004 45.0365 58.1627 45.5907C57.0911 46.0346 54.1989 45.3932 52.4534 44.3246C51.5535 43.7738 50.9302 43.6722 50.5827 44.0197C50.4507 44.1516 50.3153 44.1685 50.2267 44.0641C50.1482 43.9714 49.5025 43.1988 48.7919 42.3475C48.0812 41.496 46.8126 40.149 45.9727 39.354C44.593 38.048 41.7053 35.6978 40.9853 35.2947C40.7265 35.15 40.7299 35.0736 41.0231 34.4546C42.9934 30.2946 47.5187 24.3825 50.7638 21.7289C52.4752 20.3291 57.0147 19.5449 60.6688 20.0176ZM7.52925 24.7927L10.0588 27.4398L9.14143 28.23L8.22427 29.0202L5.99059 27.4279C4.76197 26.5521 3.49818 25.6639 3.18193 25.4542C2.86585 25.2443 2.60766 24.9928 2.60837 24.8952C2.60979 24.6835 4.70923 22.1421 4.88094 22.1442C4.94629 22.1451 6.13815 23.337 7.52925 24.7927ZM24.582 23.1296C25.0482 23.456 25.1137 24.2941 24.7001 24.6374C24.5479 24.7638 23.3692 25.2194 22.0809 25.65C18.0303 27.004 15.1359 28.6563 11.8157 31.5097C10.4693 32.6668 10.041 32.8176 9.49764 32.3257C8.90455 31.7889 9.08549 31.1328 10.0712 30.2467C13.2877 27.3547 17.4788 24.9529 21.7805 23.536C24.1449 22.7574 24.0671 22.7688 24.582 23.1296ZM26.9752 27.1592C27.135 27.2814 27.317 27.5941 27.3797 27.8541C27.5516 28.5679 27.0194 28.9786 25.5787 29.2437C22.782 29.7587 19.6654 31.0413 17.2883 32.6554C16.6916 33.0607 15.3861 34.1772 14.3874 35.1368C13.3886 36.0963 12.4549 36.8813 12.3123 36.8813C11.8531 36.8813 11.2593 36.2573 11.2593 35.7745C11.2593 35.1732 12.3596 33.87 14.1158 32.3912C17.2394 29.7608 20.3977 28.1872 24.3553 27.2894C26.0873 26.8966 26.598 26.8712 26.9752 27.1592ZM59.5423 27.5731L60.0585 27.6765L59.9361 28.9493C59.845 29.8992 59.8761 30.3204 60.059 30.6084C60.3184 31.0168 60.3776 31.0418 61.9118 31.389C62.4489 31.5106 63.1436 31.7166 63.4554 31.8466L64.0224 32.0831L63.758 32.8591L63.4936 33.6349L62.3314 33.2132C59.8333 32.3063 57.5202 32.3317 56.3955 33.278C54.8748 34.5576 55.0245 36.4349 56.7475 37.6925C57.1951 38.019 58.4621 38.7408 59.5629 39.2963C62.9355 40.9978 63.8573 42.0993 63.8573 44.4281C63.8573 47.081 62.4141 48.6893 59.4034 49.3916C58.8014 49.5321 58.2321 49.7237 58.1382 49.8176C58.0068 49.949 57.7751 51.3337 57.6579 52.6865C57.6536 52.736 57.2873 52.7477 56.8437 52.7124L56.0373 52.6483L56.0787 51.3499C56.1061 50.4963 56.0418 49.9572 55.8914 49.7759C55.7655 49.6242 55.2024 49.4095 54.6399 49.2989C54.0775 49.1883 53.541 49.0459 53.448 48.9825C53.3548 48.9193 52.9817 48.3315 52.6189 47.6766L51.9592 46.4858L52.9263 46.9287C55.1363 47.9405 57.9093 48.1317 59.3936 47.3746C61.3004 46.4017 61.4902 44.0403 59.7857 42.5002C59.4091 42.16 58.0627 41.3538 56.7938 40.7085C54.4658 39.5246 53.3017 38.6258 52.7732 37.6038C51.7774 35.6783 52.7056 32.9058 54.6929 31.8695C55.0985 31.658 55.9498 31.3554 56.5846 31.1969C57.8928 30.8703 58.1758 30.5361 58.1801 29.3123C58.1865 27.5527 58.3561 27.3359 59.5423 27.5731ZM29.2417 31.6525C41.4787 35.9119 51.1367 45.5227 53.6643 55.9554C54.955 61.2827 53.1814 66.4458 48.4392 71.1671C46.8766 72.7228 43.8822 75.0238 43.6815 74.8231C43.6522 74.7937 43.9088 74.2411 44.2517 73.5951C44.9568 72.2673 45.4663 70.8745 45.8475 69.2328C45.9907 68.6163 46.1079 68.0834 46.1079 68.0482C46.1079 68.0133 45.8681 67.9383 45.5751 67.8817C45.2822 67.8252 44.8027 67.7325 44.5097 67.676C44.113 67.5993 43.977 67.6396 43.977 67.8337C43.977 68.3947 43.0577 71.2248 42.5113 72.3458C41.671 74.0697 40.5744 75.122 39.1646 75.5569C36.8049 76.2847 34.6523 76.5463 30.9254 76.5577L27.374 76.5687L26.5463 76.0821C25.2874 75.342 24.0571 73.8282 22.9965 71.7139C22.4741 70.6728 22.0271 69.7879 22.003 69.7476C21.9788 69.7071 21.5193 69.8236 20.9818 70.0063C20.1397 70.2926 20.0197 70.3888 20.1157 70.7013C20.413 71.6689 21.2875 73.3372 22.191 74.6598C23.3071 76.2938 23.2959 76.3133 21.507 75.8515C19.034 75.2131 16.4697 73.6389 14.1683 71.3463C10.5558 67.7472 8.46257 63.3051 8.46257 59.2371C8.46257 57.7151 8.59433 56.9633 9.52552 53.1684C10.8214 47.8874 12.1117 43.3055 13.0368 40.6991L13.7301 38.7458L15.4344 37.0827C18.8532 33.7468 21.5221 32.2804 25.8265 31.3727C26.6776 31.1933 27.3863 31.0408 27.4012 31.0339C27.4161 31.0271 28.2445 31.3054 29.2417 31.6525ZM27.9067 37.5199C26.0809 37.7274 25.729 37.8192 25.4488 38.1607C25.2131 38.4477 25.1483 38.7343 25.2167 39.1851C25.2689 39.5294 25.365 40.3745 25.4299 41.063L25.5484 42.3147L24.7783 42.6611C23.673 43.1583 21.9396 44.8498 21.3589 45.9977C20.6774 47.3446 20.4132 49.0082 20.6563 50.4212C21.2357 53.7899 23.4967 55.6984 28.3686 56.9315C30.956 57.5862 31.6187 57.8634 32.0042 58.4517C32.2979 58.9001 32.2961 58.9409 31.9637 59.3863C31.7726 59.6423 31.3408 59.9513 31.0045 60.0728C30.0197 60.4286 27.0434 60.3581 25.5983 59.9449C23.6469 59.3868 23.3216 59.3598 22.9933 59.729C22.8079 59.9374 22.568 60.9413 22.3263 62.5202C21.9852 64.7479 21.9749 65.0256 22.2191 65.3983C22.5721 65.9371 24.3526 66.4872 26.5946 66.7502L28.31 66.9515L28.4298 68.324C28.6103 70.3932 28.6232 70.3998 31.8492 70.0571C35.0226 69.7201 34.9997 69.7384 34.8372 67.6901C34.7752 66.9088 34.6871 66.1418 34.6417 65.9857C34.5836 65.7867 34.8249 65.5638 35.4496 65.2398C38.9054 63.447 40.5557 59.922 39.6206 56.3317C38.8519 53.3801 36.9285 51.691 33.1337 50.6353C30.1672 49.81 28.7541 49.3039 28.4366 48.953C28.1496 48.636 28.1479 48.5773 28.411 48.1756C28.9878 47.2954 32.2033 47.0938 34.4092 47.7993C36.291 48.4013 36.4559 48.1999 36.9684 44.6746C37.1964 43.1056 37.2202 42.5233 37.068 42.239C36.8089 41.7548 35.4029 41.3258 33.649 41.1954C32.9006 41.1398 32.2011 41.0406 32.0944 40.9745C31.9877 40.9086 31.8186 40.1804 31.7183 39.3563C31.578 38.201 31.4516 37.7867 31.1668 37.5472C30.7461 37.1935 30.7749 37.1937 27.9067 37.5199ZM29.6594 40.2108C29.7128 40.5771 29.8066 41.2922 29.868 41.8001C29.9294 42.3079 30.0937 42.8181 30.2333 42.9337C30.3727 43.0495 31.1847 43.1698 32.0379 43.2013C32.891 43.2327 33.8968 43.3101 34.273 43.3735L34.957 43.4888L34.8331 44.4912C34.7647 45.0425 34.6845 45.5191 34.6546 45.5502C34.6246 45.5815 34.1111 45.5108 33.5132 45.393C32.2533 45.1453 29.5026 45.2632 28.4487 45.6102C26.8564 46.1346 25.821 47.8299 26.2102 49.2755C26.5682 50.605 27.903 51.395 31.3694 52.3285C34.8738 53.2725 36.3494 54.1427 37.1611 55.7444C38.0825 57.563 37.8898 59.8884 36.6791 61.5596C36.104 62.3539 34.3219 63.6031 33.51 63.7814C32.5424 63.9939 32.3762 64.3844 32.5199 66.1083C32.6674 67.8799 32.6232 67.9495 31.3456 67.9538L30.5229 67.9564L30.3988 66.7578C30.2079 64.9146 30.1175 64.8356 28.0539 64.7056C27.094 64.6452 25.8448 64.5011 25.2781 64.3851L24.2475 64.1745L24.3661 63.1799C24.4313 62.633 24.5353 62.1306 24.5975 62.0637C24.6596 61.9969 25.1899 62.0555 25.7759 62.1942C27.2405 62.5405 30.1125 62.5238 31.4044 62.1614C33.4754 61.5802 34.6729 59.9074 34.2207 58.2276C33.7821 56.5986 32.6236 55.8533 29.0506 54.902C26.2327 54.152 24.9684 53.5742 23.9785 52.5842C23.1746 51.7801 22.6683 50.5156 22.6683 49.3114C22.6683 47.2689 24.011 45.4002 26.2702 44.298C26.9979 43.943 27.6416 43.5268 27.7006 43.373C27.7595 43.2194 27.7327 42.5148 27.6407 41.8075C27.3499 39.5676 27.2985 39.6521 29.0009 39.5715C29.5205 39.5468 29.5697 39.5946 29.6594 40.2108Z" fill="#0066FF"/>
<path fill-rule="evenodd" clip-rule="evenodd" d="M55.7855 0.269833C55.3949 0.45362 54.6454 0.992374 54.1197 1.46685C53.3377 2.17287 52.9355 2.38756 51.9038 2.64965C51.2106 2.82563 50.1421 3.20421 49.5299 3.49081C48.5193 3.96351 48.4163 4.06206 48.4163 4.55554C48.4163 4.85457 48.9748 6.35132 49.6574 7.88146C50.3399 9.4116 50.8794 10.6695 50.856 10.6764C50.2751 10.8526 49.3363 11.5389 49.0208 12.0182C48.3673 13.0103 48.3117 13.9051 48.8393 14.9364L49.2859 15.8095L48.8661 16.3083C48.1045 17.2134 48.0837 18.4246 48.8093 19.6192L49.1639 20.2028L47.0572 22.3715C44.0802 25.4359 41.3319 29.2429 39.5544 32.7641C39.2493 33.3682 38.9746 33.8626 38.9439 33.8626C38.9132 33.8626 38.2551 33.4998 37.4816 33.0562C35.4972 31.9187 33.0986 30.7906 31.0517 30.0325L29.2971 29.3828L29.4646 28.6483C29.7872 27.2343 28.9143 25.579 27.6052 25.1227C27.1394 24.9604 27.1076 24.8851 27.1069 23.9455C27.1062 22.8064 26.7388 22.0508 25.8753 21.4123L25.3319 21.0106L25.3293 16.7379C25.3275 13.6341 25.2648 12.3437 25.1007 12.0212C24.8802 11.5881 24.8269 11.5773 22.928 11.5801C21.8574 11.5815 20.502 11.6877 19.916 11.8159C18.9226 12.0331 18.7905 12.0224 17.9627 11.6581C17.444 11.4299 16.5474 11.2303 15.8066 11.1783C14.0703 11.0563 13.4621 11.415 11.9425 13.4576C10.6593 15.1823 10.288 15.3922 8.51566 15.394C7.06295 15.3956 5.83486 15.7294 5.18583 16.2993C4.52597 16.8787 3.9201 18.151 3.66599 19.4902C3.52606 20.2284 3.2748 20.6494 2.28075 21.8111C1.61272 22.5915 0.801218 23.6676 0.477149 24.2023C-0.0149033 25.0142 -0.0811378 25.2422 0.0751257 25.5854C0.178118 25.8115 1.78497 27.0671 3.64592 28.3756L7.02956 30.7551L7.03578 31.661C7.04306 32.7167 7.50776 33.5351 8.46683 34.1811C9.04536 34.5707 9.08549 34.6609 9.10662 35.6168C9.13859 37.0651 9.69279 37.964 11.0404 38.754C11.3369 38.9278 11.3105 39.082 10.6295 41.1512C9.6017 44.2738 9.00328 46.4182 7.65817 51.7974C6.33792 57.0768 6.10494 59.0382 6.50377 61.5141C7.38701 66.9958 11.0004 72.2713 16.2312 75.7151C18.1886 77.0039 19.6434 77.6407 21.3861 77.9713C26.0747 78.8606 36.2217 78.8624 41.1358 77.9745C44.015 77.4544 47.2997 75.4507 50.2359 72.4231C52.6977 69.8847 54.3994 67.1909 55.3335 64.3537L55.7303 63.1481L56.8233 63.2815C57.4245 63.3548 59.6344 63.4136 61.7342 63.412C66.0137 63.4088 66.8762 63.2652 68.9644 62.2068C72.6455 60.3411 76.2214 56.7514 78.1907 52.9452C80.6444 48.2026 80.6098 44.3965 78.0417 36.5262C76.3274 31.2722 73.6342 26.1567 70.6936 22.5692C69.6765 21.3281 69.6019 21.1743 69.9226 20.9762C70.0314 20.909 70.2785 20.4965 70.4716 20.0597C70.8691 19.1612 70.8028 18.341 70.2573 17.4039C69.9803 16.9284 69.9668 16.8059 70.1723 16.6354C70.3065 16.5237 70.5512 16.08 70.7158 15.6488C71.0791 14.6974 70.9728 13.598 70.4486 12.889C70.246 12.615 70.0801 12.3275 70.0801 12.2503C70.0801 12.1732 70.7993 10.8714 71.6783 9.35762C72.5572 7.84382 73.2764 6.51611 73.2764 6.40726C73.2764 5.89479 72.3864 5.209 70.5475 4.30445C68.8557 3.47252 68.4477 3.18876 67.953 2.49961C67.1782 1.42086 65.9686 0.657295 65.0289 0.654099C64.6329 0.652678 63.5806 0.906429 62.6903 1.21789L61.0713 1.78399L60.1155 1.27436C58.1778 0.241421 57.8228 0.0897745 57.1663 0.0132409C56.737 -0.0366569 56.2403 0.0556806 55.7855 0.269833ZM58.7759 2.96662C59.7944 3.48318 60.7572 3.85146 61.0843 3.84933C61.3929 3.84738 62.3207 3.60766 63.1463 3.31662C63.9718 3.02557 64.7751 2.78745 64.9316 2.78745C65.088 2.78745 65.4734 3.0531 65.788 3.37752L66.36 3.96777L65.2681 7.06214C64.6674 8.76417 64.1261 10.2109 64.065 10.2773C64.0038 10.3435 63.5543 10.3174 63.066 10.219C62.5777 10.1208 61.0209 9.98676 59.6064 9.92106L57.0348 9.80155L56.3809 6.9604C55.3915 2.66049 55.4114 3.09838 56.1806 2.5511C56.547 2.29043 56.8877 2.07787 56.9376 2.07876C56.9877 2.07947 57.8148 2.47901 58.7759 2.96662ZM54.2803 7.27363C54.6008 8.71552 54.8178 9.94059 54.7624 9.99599C54.7071 10.0514 54.2922 10.1102 53.8401 10.1267L53.0184 10.1567L51.9605 7.80741C51.3784 6.51522 50.9023 5.38498 50.9023 5.29583C50.9023 5.09695 53.4336 4.38471 53.5872 4.54044C53.6478 4.60171 53.9598 5.83175 54.2803 7.27363ZM69.503 6.15386C70.1135 6.44277 70.6128 6.73381 70.6128 6.80076C70.6128 7.06232 68.0737 11.3109 67.9175 11.3109C67.3821 11.3109 66.1646 10.8785 66.2259 10.7102C66.2657 10.6012 66.6894 9.4132 67.1674 8.07022C67.6452 6.72742 68.1167 5.6286 68.2147 5.62878C68.3129 5.62878 68.8927 5.86513 69.503 6.15386ZM62.8265 12.3684C65.2553 12.7869 68.0993 13.5705 68.5263 13.939C69.1017 14.4353 68.8161 15.3951 68.0932 15.3951C67.9183 15.3951 66.9438 15.1616 65.9276 14.8762C61.8017 13.7177 57.3553 13.5 53.0671 14.2465C51.2607 14.561 51.2319 14.5605 50.8842 14.2128C50.5988 13.9274 50.5651 13.773 50.7068 13.4001C50.9067 12.8741 50.9833 12.8439 53.0332 12.4804C55.2496 12.0873 55.3748 12.0768 58.2096 12.0478C60.0892 12.0287 61.3702 12.1176 62.8265 12.3684ZM16.9894 13.5517C17.1324 13.6946 18.9782 22.1734 18.8836 22.2522C18.8655 22.2675 18.0115 22.6817 16.986 23.1729C15.9606 23.6641 14.4137 24.5122 13.5486 25.0577C12.6835 25.6032 11.9231 26.0494 11.8586 26.0494C11.7507 26.0494 9.64431 23.932 6.87685 21.0417L5.73755 19.8516L5.94779 19.15C6.3523 17.7999 6.57196 17.6703 8.74242 17.5013C11.2377 17.3068 11.9623 16.9581 13.1372 15.3869C14.8044 13.1571 14.7355 13.2102 15.841 13.302C16.38 13.3466 16.8967 13.459 16.9894 13.5517ZM23.2011 17.247V20.8746L22.2415 21.1536C21.2534 21.4409 20.8926 21.4934 20.8926 21.3503C20.8926 21.305 20.5675 19.6964 20.1699 17.7756C19.7725 15.8548 19.5148 14.2158 19.5974 14.1332C19.7798 13.9509 21.4104 13.6685 22.4464 13.6401L23.2011 13.6194V17.247ZM62.6979 16.3747C65.5891 16.9719 68.3949 18.0373 68.5755 18.6066C68.7057 19.0168 68.4028 19.6016 67.9927 19.7317C67.821 19.7863 67.0909 19.5907 66.3699 19.2974C61.9512 17.4991 56.411 17.2633 52.1141 18.6906C51.4782 18.9018 51.188 18.9218 50.9115 18.7739C50.3985 18.4994 50.4213 17.6167 50.9503 17.2701C51.423 16.9604 53.8365 16.3639 55.608 16.119C57.2699 15.8894 60.9996 16.0239 62.6979 16.3747ZM60.6688 20.0176C62.3383 20.2336 64.2733 20.7386 65.9959 21.408C67.1983 21.8752 67.4464 22.0613 68.548 23.3215C72.55 27.9001 75.8968 35.067 77.4348 42.3514C78.2429 46.179 78.0179 48.3272 76.4723 51.5392C75.0473 54.5005 72.6057 57.3346 69.8393 59.2378C68.9135 59.8748 66.6979 60.9397 65.9516 61.1064C65.4813 61.2114 65.2768 60.9897 65.6381 60.7664C66.1343 60.4597 68.406 55.8394 68.7508 54.4356C68.8582 53.9982 68.8041 53.9458 67.9523 53.6629C67.4495 53.4958 67.0078 53.3898 66.9705 53.4271C66.9332 53.4646 66.5372 54.3675 66.0904 55.4339C64.8089 58.4925 63.6724 60.2216 62.5681 60.7926C61.9279 61.1238 58.65 61.33 57.0983 61.1368L56.1407 61.0174L56.1986 59.6029C56.2501 58.3482 56.0528 56.394 55.7543 55.2005L55.6506 54.7859L57.2447 54.9106C59.579 55.0931 59.5961 55.0773 59.8745 52.4668C59.983 51.4504 59.9841 51.449 60.7226 51.2501C62.7331 50.7088 64.6024 49.1775 65.4224 47.4C66.1028 45.9251 66.1968 43.4548 65.6301 41.9421C65.044 40.3779 63.5668 38.9917 61.1892 37.7752C58.7881 36.5464 57.4725 35.7044 57.4725 35.3959C57.4725 34.9277 58.0114 34.6933 59.0655 34.7032C60.2497 34.7144 61.5279 35.0885 63.0348 35.8652C64.0654 36.3965 64.0705 36.3971 64.5219 36.06C64.8332 35.8278 65.1898 35.1388 65.6609 33.8599C66.4907 31.6076 66.5189 31.1649 65.8628 30.6986C65.2707 30.2781 63.4625 29.5108 62.6585 29.3389L62.0734 29.2139L62.1858 27.7649C62.3454 25.7065 62.3378 25.6999 59.4995 25.4224C58.0105 25.2768 57.0941 25.2578 56.8868 25.3682C56.4658 25.5925 56.2343 26.2382 56.2085 27.2596C56.1693 28.8083 56.0365 29.0964 55.2528 29.3304C54.0622 29.6857 53.0248 30.3024 52.1576 31.1708C49.9805 33.3499 49.6144 36.6869 51.2786 39.1793C52.1453 40.477 53.1594 41.2371 56.0251 42.7371C58.9083 44.2459 59.5004 45.0365 58.1627 45.5907C57.0911 46.0346 54.1989 45.3932 52.4534 44.3246C51.5535 43.7738 50.9302 43.6722 50.5827 44.0197C50.4507 44.1516 50.3153 44.1685 50.2267 44.0641C50.1482 43.9714 49.5025 43.1988 48.7919 42.3475C48.0812 41.496 46.8126 40.149 45.9727 39.354C44.593 38.048 41.7053 35.6978 40.9853 35.2947C40.7265 35.15 40.7299 35.0736 41.0231 34.4546C42.9934 30.2946 47.5187 24.3825 50.7638 21.7289C52.4752 20.3291 57.0147 19.5449 60.6688 20.0176ZM7.52925 24.7927L10.0588 27.4398L9.14143 28.23L8.22427 29.0202L5.99059 27.4279C4.76197 26.5521 3.49818 25.6639 3.18193 25.4542C2.86585 25.2443 2.60766 24.9928 2.60837 24.8952C2.60979 24.6835 4.70923 22.1421 4.88094 22.1442C4.94629 22.1451 6.13815 23.337 7.52925 24.7927ZM24.582 23.1296C25.0482 23.456 25.1137 24.2941 24.7001 24.6374C24.5479 24.7638 23.3692 25.2194 22.0809 25.65C18.0303 27.004 15.1359 28.6563 11.8157 31.5097C10.4693 32.6668 10.041 32.8176 9.49764 32.3257C8.90455 31.7889 9.08549 31.1328 10.0712 30.2467C13.2877 27.3547 17.4788 24.9529 21.7805 23.536C24.1449 22.7574 24.0671 22.7688 24.582 23.1296ZM26.9752 27.1592C27.135 27.2814 27.317 27.5941 27.3797 27.8541C27.5516 28.5679 27.0194 28.9786 25.5787 29.2437C22.782 29.7587 19.6654 31.0413 17.2883 32.6554C16.6916 33.0607 15.3861 34.1772 14.3874 35.1368C13.3886 36.0963 12.4549 36.8813 12.3123 36.8813C11.8531 36.8813 11.2593 36.2573 11.2593 35.7745C11.2593 35.1732 12.3596 33.87 14.1158 32.3912C17.2394 29.7608 20.3977 28.1872 24.3553 27.2894C26.0873 26.8966 26.598 26.8712 26.9752 27.1592ZM59.5423 27.5731L60.0585 27.6765L59.9361 28.9493C59.845 29.8992 59.8761 30.3204 60.059 30.6084C60.3184 31.0168 60.3776 31.0418 61.9118 31.389C62.4489 31.5106 63.1436 31.7166 63.4554 31.8466L64.0224 32.0831L63.758 32.8591L63.4936 33.6349L62.3314 33.2132C59.8333 32.3063 57.5202 32.3317 56.3955 33.278C54.8748 34.5576 55.0245 36.4349 56.7475 37.6925C57.1951 38.019 58.4621 38.7408 59.5629 39.2963C62.9355 40.9978 63.8573 42.0993 63.8573 44.4281C63.8573 47.081 62.4141 48.6893 59.4034 49.3916C58.8014 49.5321 58.2321 49.7237 58.1382 49.8176C58.0068 49.949 57.7751 51.3337 57.6579 52.6865C57.6536 52.736 57.2873 52.7477 56.8437 52.7124L56.0373 52.6483L56.0787 51.3499C56.1061 50.4963 56.0418 49.9572 55.8914 49.7759C55.7655 49.6242 55.2024 49.4095 54.6399 49.2989C54.0775 49.1883 53.541 49.0459 53.448 48.9825C53.3548 48.9193 52.9817 48.3315 52.6189 47.6766L51.9592 46.4858L52.9263 46.9287C55.1363 47.9405 57.9093 48.1317 59.3936 47.3746C61.3004 46.4017 61.4902 44.0403 59.7857 42.5002C59.4091 42.16 58.0627 41.3538 56.7938 40.7085C54.4658 39.5246 53.3017 38.6258 52.7732 37.6038C51.7774 35.6783 52.7056 32.9058 54.6929 31.8695C55.0985 31.658 55.9498 31.3554 56.5846 31.1969C57.8928 30.8703 58.1758 30.5361 58.1801 29.3123C58.1865 27.5527 58.3561 27.3359 59.5423 27.5731ZM29.2417 31.6525C41.4787 35.9119 51.1367 45.5227 53.6643 55.9554C54.955 61.2827 53.1814 66.4458 48.4392 71.1671C46.8766 72.7228 43.8822 75.0238 43.6815 74.8231C43.6522 74.7937 43.9088 74.2411 44.2517 73.5951C44.9568 72.2673 45.4663 70.8745 45.8475 69.2328C45.9907 68.6163 46.1079 68.0834 46.1079 68.0482C46.1079 68.0133 45.8681 67.9383 45.5751 67.8817C45.2822 67.8252 44.8027 67.7325 44.5097 67.676C44.113 67.5993 43.977 67.6396 43.977 67.8337C43.977 68.3947 43.0577 71.2248 42.5113 72.3458C41.671 74.0697 40.5744 75.122 39.1646 75.5569C36.8049 76.2847 34.6523 76.5463 30.9254 76.5577L27.374 76.5687L26.5463 76.0821C25.2874 75.342 24.0571 73.8282 22.9965 71.7139C22.4741 70.6728 22.0271 69.7879 22.003 69.7476C21.9788 69.7071 21.5193 69.8236 20.9818 70.0063C20.1397 70.2926 20.0197 70.3888 20.1157 70.7013C20.413 71.6689 21.2875 73.3372 22.191 74.6598C23.3071 76.2938 23.2959 76.3133 21.507 75.8515C19.034 75.2131 16.4697 73.6389 14.1683 71.3463C10.5558 67.7472 8.46257 63.3051 8.46257 59.2371C8.46257 57.7151 8.59433 56.9633 9.52552 53.1684C10.8214 47.8874 12.1117 43.3055 13.0368 40.6991L13.7301 38.7458L15.4344 37.0827C18.8532 33.7468 21.5221 32.2804 25.8265 31.3727C26.6776 31.1933 27.3863 31.0408 27.4012 31.0339C27.4161 31.0271 28.2445 31.3054 29.2417 31.6525ZM27.9067 37.5199C26.0809 37.7274 25.729 37.8192 25.4488 38.1607C25.2131 38.4477 25.1483 38.7343 25.2167 39.1851C25.2689 39.5294 25.365 40.3745 25.4299 41.063L25.5484 42.3147L24.7783 42.6611C23.673 43.1583 21.9396 44.8498 21.3589 45.9977C20.6774 47.3446 20.4132 49.0082 20.6563 50.4212C21.2357 53.7899 23.4967 55.6984 28.3686 56.9315C30.956 57.5862 31.6187 57.8634 32.0042 58.4517C32.2979 58.9001 32.2961 58.9409 31.9637 59.3863C31.7726 59.6423 31.3408 59.9513 31.0045 60.0728C30.0197 60.4286 27.0434 60.3581 25.5983 59.9449C23.6469 59.3868 23.3216 59.3598 22.9933 59.729C22.8079 59.9374 22.568 60.9413 22.3263 62.5202C21.9852 64.7479 21.9749 65.0256 22.2191 65.3983C22.5721 65.9371 24.3526 66.4872 26.5946 66.7502L28.31 66.9515L28.4298 68.324C28.6103 70.3932 28.6232 70.3998 31.8492 70.0571C35.0226 69.7201 34.9997 69.7384 34.8372 67.6901C34.7752 66.9088 34.6871 66.1418 34.6417 65.9857C34.5836 65.7867 34.8249 65.5638 35.4496 65.2398C38.9054 63.447 40.5557 59.922 39.6206 56.3317C38.8519 53.3801 36.9285 51.691 33.1337 50.6353C30.1672 49.81 28.7541 49.3039 28.4366 48.953C28.1496 48.636 28.1479 48.5773 28.411 48.1756C28.9878 47.2954 32.2033 47.0938 34.4092 47.7993C36.291 48.4013 36.4559 48.1999 36.9684 44.6746C37.1964 43.1056 37.2202 42.5233 37.068 42.239C36.8089 41.7548 35.4029 41.3258 33.649 41.1954C32.9006 41.1398 32.2011 41.0406 32.0944 40.9745C31.9877 40.9086 31.8186 40.1804 31.7183 39.3563C31.578 38.201 31.4516 37.7867 31.1668 37.5472C30.7461 37.1935 30.7749 37.1937 27.9067 37.5199ZM29.6594 40.2108C29.7128 40.5771 29.8066 41.2922 29.868 41.8001C29.9294 42.3079 30.0937 42.8181 30.2333 42.9337C30.3727 43.0495 31.1847 43.1698 32.0379 43.2013C32.891 43.2327 33.8968 43.3101 34.273 43.3735L34.957 43.4888L34.8331 44.4912C34.7647 45.0425 34.6845 45.5191 34.6546 45.5502C34.6246 45.5815 34.1111 45.5108 33.5132 45.393C32.2533 45.1453 29.5026 45.2632 28.4487 45.6102C26.8564 46.1346 25.821 47.8299 26.2102 49.2755C26.5682 50.605 27.903 51.395 31.3694 52.3285C34.8738 53.2725 36.3494 54.1427 37.1611 55.7444C38.0825 57.563 37.8898 59.8884 36.6791 61.5596C36.104 62.3539 34.3219 63.6031 33.51 63.7814C32.5424 63.9939 32.3762 64.3844 32.5199 66.1083C32.6674 67.8799 32.6232 67.9495 31.3456 67.9538L30.5229 67.9564L30.3988 66.7578C30.2079 64.9146 30.1175 64.8356 28.0539 64.7056C27.094 64.6452 25.8448 64.5011 25.2781 64.3851L24.2475 64.1745L24.3661 63.1799C24.4313 62.633 24.5353 62.1306 24.5975 62.0637C24.6596 61.9969 25.1899 62.0555 25.7759 62.1942C27.2405 62.5405 30.1125 62.5238 31.4044 62.1614C33.4754 61.5802 34.6729 59.9074 34.2207 58.2276C33.7821 56.5986 32.6236 55.8533 29.0506 54.902C26.2327 54.152 24.9684 53.5742 23.9785 52.5842C23.1746 51.7801 22.6683 50.5156 22.6683 49.3114C22.6683 47.2689 24.011 45.4002 26.2702 44.298C26.9979 43.943 27.6416 43.5268 27.7006 43.373C27.7595 43.2194 27.7327 42.5148 27.6407 41.8075C27.3499 39.5676 27.2985 39.6521 29.0009 39.5715C29.5205 39.5468 29.5697 39.5946 29.6594 40.2108Z" fill="url(#paint0_radial_1376_154)" fill-opacity="0.7"/>
<path fill-rule="evenodd" clip-rule="evenodd" d="M55.7855 0.269833C55.3949 0.45362 54.6454 0.992374 54.1197 1.46685C53.3377 2.17287 52.9355 2.38756 51.9038 2.64965C51.2106 2.82563 50.1421 3.20421 49.5299 3.49081C48.5193 3.96351 48.4163 4.06206 48.4163 4.55554C48.4163 4.85457 48.9748 6.35132 49.6574 7.88146C50.3399 9.4116 50.8794 10.6695 50.856 10.6764C50.2751 10.8526 49.3363 11.5389 49.0208 12.0182C48.3673 13.0103 48.3117 13.9051 48.8393 14.9364L49.2859 15.8095L48.8661 16.3083C48.1045 17.2134 48.0837 18.4246 48.8093 19.6192L49.1639 20.2028L47.0572 22.3715C44.0802 25.4359 41.3319 29.2429 39.5544 32.7641C39.2493 33.3682 38.9746 33.8626 38.9439 33.8626C38.9132 33.8626 38.2551 33.4998 37.4816 33.0562C35.4972 31.9187 33.0986 30.7906 31.0517 30.0325L29.2971 29.3828L29.4646 28.6483C29.7872 27.2343 28.9143 25.579 27.6052 25.1227C27.1394 24.9604 27.1076 24.8851 27.1069 23.9455C27.1062 22.8064 26.7388 22.0508 25.8753 21.4123L25.3319 21.0106L25.3293 16.7379C25.3275 13.6341 25.2648 12.3437 25.1007 12.0212C24.8802 11.5881 24.8269 11.5773 22.928 11.5801C21.8574 11.5815 20.502 11.6877 19.916 11.8159C18.9226 12.0331 18.7905 12.0224 17.9627 11.6581C17.444 11.4299 16.5474 11.2303 15.8066 11.1783C14.0703 11.0563 13.4621 11.415 11.9425 13.4576C10.6593 15.1823 10.288 15.3922 8.51566 15.394C7.06295 15.3956 5.83486 15.7294 5.18583 16.2993C4.52597 16.8787 3.9201 18.151 3.66599 19.4902C3.52606 20.2284 3.2748 20.6494 2.28075 21.8111C1.61272 22.5915 0.801218 23.6676 0.477149 24.2023C-0.0149033 25.0142 -0.0811378 25.2422 0.0751257 25.5854C0.178118 25.8115 1.78497 27.0671 3.64592 28.3756L7.02956 30.7551L7.03578 31.661C7.04306 32.7167 7.50776 33.5351 8.46683 34.1811C9.04536 34.5707 9.08549 34.6609 9.10662 35.6168C9.13859 37.0651 9.69279 37.964 11.0404 38.754C11.3369 38.9278 11.3105 39.082 10.6295 41.1512C9.6017 44.2738 9.00328 46.4182 7.65817 51.7974C6.33792 57.0768 6.10494 59.0382 6.50377 61.5141C7.38701 66.9958 11.0004 72.2713 16.2312 75.7151C18.1886 77.0039 19.6434 77.6407 21.3861 77.9713C26.0747 78.8606 36.2217 78.8624 41.1358 77.9745C44.015 77.4544 47.2997 75.4507 50.2359 72.4231C52.6977 69.8847 54.3994 67.1909 55.3335 64.3537L55.7303 63.1481L56.8233 63.2815C57.4245 63.3548 59.6344 63.4136 61.7342 63.412C66.0137 63.4088 66.8762 63.2652 68.9644 62.2068C72.6455 60.3411 76.2214 56.7514 78.1907 52.9452C80.6444 48.2026 80.6098 44.3965 78.0417 36.5262C76.3274 31.2722 73.6342 26.1567 70.6936 22.5692C69.6765 21.3281 69.6019 21.1743 69.9226 20.9762C70.0314 20.909 70.2785 20.4965 70.4716 20.0597C70.8691 19.1612 70.8028 18.341 70.2573 17.4039C69.9803 16.9284 69.9668 16.8059 70.1723 16.6354C70.3065 16.5237 70.5512 16.08 70.7158 15.6488C71.0791 14.6974 70.9728 13.598 70.4486 12.889C70.246 12.615 70.0801 12.3275 70.0801 12.2503C70.0801 12.1732 70.7993 10.8714 71.6783 9.35762C72.5572 7.84382 73.2764 6.51611 73.2764 6.40726C73.2764 5.89479 72.3864 5.209 70.5475 4.30445C68.8557 3.47252 68.4477 3.18876 67.953 2.49961C67.1782 1.42086 65.9686 0.657295 65.0289 0.654099C64.6329 0.652678 63.5806 0.906429 62.6903 1.21789L61.0713 1.78399L60.1155 1.27436C58.1778 0.241421 57.8228 0.0897745 57.1663 0.0132409C56.737 -0.0366569 56.2403 0.0556806 55.7855 0.269833ZM58.7759 2.96662C59.7944 3.48318 60.7572 3.85146 61.0843 3.84933C61.3929 3.84738 62.3207 3.60766 63.1463 3.31662C63.9718 3.02557 64.7751 2.78745 64.9316 2.78745C65.088 2.78745 65.4734 3.0531 65.788 3.37752L66.36 3.96777L65.2681 7.06214C64.6674 8.76417 64.1261 10.2109 64.065 10.2773C64.0038 10.3435 63.5543 10.3174 63.066 10.219C62.5777 10.1208 61.0209 9.98676 59.6064 9.92106L57.0348 9.80155L56.3809 6.9604C55.3915 2.66049 55.4114 3.09838 56.1806 2.5511C56.547 2.29043 56.8877 2.07787 56.9376 2.07876C56.9877 2.07947 57.8148 2.47901 58.7759 2.96662ZM54.2803 7.27363C54.6008 8.71552 54.8178 9.94059 54.7624 9.99599C54.7071 10.0514 54.2922 10.1102 53.8401 10.1267L53.0184 10.1567L51.9605 7.80741C51.3784 6.51522 50.9023 5.38498 50.9023 5.29583C50.9023 5.09695 53.4336 4.38471 53.5872 4.54044C53.6478 4.60171 53.9598 5.83175 54.2803 7.27363ZM69.503 6.15386C70.1135 6.44277 70.6128 6.73381 70.6128 6.80076C70.6128 7.06232 68.0737 11.3109 67.9175 11.3109C67.3821 11.3109 66.1646 10.8785 66.2259 10.7102C66.2657 10.6012 66.6894 9.4132 67.1674 8.07022C67.6452 6.72742 68.1167 5.6286 68.2147 5.62878C68.3129 5.62878 68.8927 5.86513 69.503 6.15386ZM62.8265 12.3684C65.2553 12.7869 68.0993 13.5705 68.5263 13.939C69.1017 14.4353 68.8161 15.3951 68.0932 15.3951C67.9183 15.3951 66.9438 15.1616 65.9276 14.8762C61.8017 13.7177 57.3553 13.5 53.0671 14.2465C51.2607 14.561 51.2319 14.5605 50.8842 14.2128C50.5988 13.9274 50.5651 13.773 50.7068 13.4001C50.9067 12.8741 50.9833 12.8439 53.0332 12.4804C55.2496 12.0873 55.3748 12.0768 58.2096 12.0478C60.0892 12.0287 61.3702 12.1176 62.8265 12.3684ZM16.9894 13.5517C17.1324 13.6946 18.9782 22.1734 18.8836 22.2522C18.8655 22.2675 18.0115 22.6817 16.986 23.1729C15.9606 23.6641 14.4137 24.5122 13.5486 25.0577C12.6835 25.6032 11.9231 26.0494 11.8586 26.0494C11.7507 26.0494 9.64431 23.932 6.87685 21.0417L5.73755 19.8516L5.94779 19.15C6.3523 17.7999 6.57196 17.6703 8.74242 17.5013C11.2377 17.3068 11.9623 16.9581 13.1372 15.3869C14.8044 13.1571 14.7355 13.2102 15.841 13.302C16.38 13.3466 16.8967 13.459 16.9894 13.5517ZM23.2011 17.247V20.8746L22.2415 21.1536C21.2534 21.4409 20.8926 21.4934 20.8926 21.3503C20.8926 21.305 20.5675 19.6964 20.1699 17.7756C19.7725 15.8548 19.5148 14.2158 19.5974 14.1332C19.7798 13.9509 21.4104 13.6685 22.4464 13.6401L23.2011 13.6194V17.247ZM62.6979 16.3747C65.5891 16.9719 68.3949 18.0373 68.5755 18.6066C68.7057 19.0168 68.4028 19.6016 67.9927 19.7317C67.821 19.7863 67.0909 19.5907 66.3699 19.2974C61.9512 17.4991 56.411 17.2633 52.1141 18.6906C51.4782 18.9018 51.188 18.9218 50.9115 18.7739C50.3985 18.4994 50.4213 17.6167 50.9503 17.2701C51.423 16.9604 53.8365 16.3639 55.608 16.119C57.2699 15.8894 60.9996 16.0239 62.6979 16.3747ZM60.6688 20.0176C62.3383 20.2336 64.2733 20.7386 65.9959 21.408C67.1983 21.8752 67.4464 22.0613 68.548 23.3215C72.55 27.9001 75.8968 35.067 77.4348 42.3514C78.2429 46.179 78.0179 48.3272 76.4723 51.5392C75.0473 54.5005 72.6057 57.3346 69.8393 59.2378C68.9135 59.8748 66.6979 60.9397 65.9516 61.1064C65.4813 61.2114 65.2768 60.9897 65.6381 60.7664C66.1343 60.4597 68.406 55.8394 68.7508 54.4356C68.8582 53.9982 68.8041 53.9458 67.9523 53.6629C67.4495 53.4958 67.0078 53.3898 66.9705 53.4271C66.9332 53.4646 66.5372 54.3675 66.0904 55.4339C64.8089 58.4925 63.6724 60.2216 62.5681 60.7926C61.9279 61.1238 58.65 61.33 57.0983 61.1368L56.1407 61.0174L56.1986 59.6029C56.2501 58.3482 56.0528 56.394 55.7543 55.2005L55.6506 54.7859L57.2447 54.9106C59.579 55.0931 59.5961 55.0773 59.8745 52.4668C59.983 51.4504 59.9841 51.449 60.7226 51.2501C62.7331 50.7088 64.6024 49.1775 65.4224 47.4C66.1028 45.9251 66.1968 43.4548 65.6301 41.9421C65.044 40.3779 63.5668 38.9917 61.1892 37.7752C58.7881 36.5464 57.4725 35.7044 57.4725 35.3959C57.4725 34.9277 58.0114 34.6933 59.0655 34.7032C60.2497 34.7144 61.5279 35.0885 63.0348 35.8652C64.0654 36.3965 64.0705 36.3971 64.5219 36.06C64.8332 35.8278 65.1898 35.1388 65.6609 33.8599C66.4907 31.6076 66.5189 31.1649 65.8628 30.6986C65.2707 30.2781 63.4625 29.5108 62.6585 29.3389L62.0734 29.2139L62.1858 27.7649C62.3454 25.7065 62.3378 25.6999 59.4995 25.4224C58.0105 25.2768 57.0941 25.2578 56.8868 25.3682C56.4658 25.5925 56.2343 26.2382 56.2085 27.2596C56.1693 28.8083 56.0365 29.0964 55.2528 29.3304C54.0622 29.6857 53.0248 30.3024 52.1576 31.1708C49.9805 33.3499 49.6144 36.6869 51.2786 39.1793C52.1453 40.477 53.1594 41.2371 56.0251 42.7371C58.9083 44.2459 59.5004 45.0365 58.1627 45.5907C57.0911 46.0346 54.1989 45.3932 52.4534 44.3246C51.5535 43.7738 50.9302 43.6722 50.5827 44.0197C50.4507 44.1516 50.3153 44.1685 50.2267 44.0641C50.1482 43.9714 49.5025 43.1988 48.7919 42.3475C48.0812 41.496 46.8126 40.149 45.9727 39.354C44.593 38.048 41.7053 35.6978 40.9853 35.2947C40.7265 35.15 40.7299 35.0736 41.0231 34.4546C42.9934 30.2946 47.5187 24.3825 50.7638 21.7289C52.4752 20.3291 57.0147 19.5449 60.6688 20.0176ZM7.52925 24.7927L10.0588 27.4398L9.14143 28.23L8.22427 29.0202L5.99059 27.4279C4.76197 26.5521 3.49818 25.6639 3.18193 25.4542C2.86585 25.2443 2.60766 24.9928 2.60837 24.8952C2.60979 24.6835 4.70923 22.1421 4.88094 22.1442C4.94629 22.1451 6.13815 23.337 7.52925 24.7927ZM24.582 23.1296C25.0482 23.456 25.1137 24.2941 24.7001 24.6374C24.5479 24.7638 23.3692 25.2194 22.0809 25.65C18.0303 27.004 15.1359 28.6563 11.8157 31.5097C10.4693 32.6668 10.041 32.8176 9.49764 32.3257C8.90455 31.7889 9.08549 31.1328 10.0712 30.2467C13.2877 27.3547 17.4788 24.9529 21.7805 23.536C24.1449 22.7574 24.0671 22.7688 24.582 23.1296ZM26.9752 27.1592C27.135 27.2814 27.317 27.5941 27.3797 27.8541C27.5516 28.5679 27.0194 28.9786 25.5787 29.2437C22.782 29.7587 19.6654 31.0413 17.2883 32.6554C16.6916 33.0607 15.3861 34.1772 14.3874 35.1368C13.3886 36.0963 12.4549 36.8813 12.3123 36.8813C11.8531 36.8813 11.2593 36.2573 11.2593 35.7745C11.2593 35.1732 12.3596 33.87 14.1158 32.3912C17.2394 29.7608 20.3977 28.1872 24.3553 27.2894C26.0873 26.8966 26.598 26.8712 26.9752 27.1592ZM59.5423 27.5731L60.0585 27.6765L59.9361 28.9493C59.845 29.8992 59.8761 30.3204 60.059 30.6084C60.3184 31.0168 60.3776 31.0418 61.9118 31.389C62.4489 31.5106 63.1436 31.7166 63.4554 31.8466L64.0224 32.0831L63.758 32.8591L63.4936 33.6349L62.3314 33.2132C59.8333 32.3063 57.5202 32.3317 56.3955 33.278C54.8748 34.5576 55.0245 36.4349 56.7475 37.6925C57.1951 38.019 58.4621 38.7408 59.5629 39.2963C62.9355 40.9978 63.8573 42.0993 63.8573 44.4281C63.8573 47.081 62.4141 48.6893 59.4034 49.3916C58.8014 49.5321 58.2321 49.7237 58.1382 49.8176C58.0068 49.949 57.7751 51.3337 57.6579 52.6865C57.6536 52.736 57.2873 52.7477 56.8437 52.7124L56.0373 52.6483L56.0787 51.3499C56.1061 50.4963 56.0418 49.9572 55.8914 49.7759C55.7655 49.6242 55.2024 49.4095 54.6399 49.2989C54.0775 49.1883 53.541 49.0459 53.448 48.9825C53.3548 48.9193 52.9817 48.3315 52.6189 47.6766L51.9592 46.4858L52.9263 46.9287C55.1363 47.9405 57.9093 48.1317 59.3936 47.3746C61.3004 46.4017 61.4902 44.0403 59.7857 42.5002C59.4091 42.16 58.0627 41.3538 56.7938 40.7085C54.4658 39.5246 53.3017 38.6258 52.7732 37.6038C51.7774 35.6783 52.7056 32.9058 54.6929 31.8695C55.0985 31.658 55.9498 31.3554 56.5846 31.1969C57.8928 30.8703 58.1758 30.5361 58.1801 29.3123C58.1865 27.5527 58.3561 27.3359 59.5423 27.5731ZM29.2417 31.6525C41.4787 35.9119 51.1367 45.5227 53.6643 55.9554C54.955 61.2827 53.1814 66.4458 48.4392 71.1671C46.8766 72.7228 43.8822 75.0238 43.6815 74.8231C43.6522 74.7937 43.9088 74.2411 44.2517 73.5951C44.9568 72.2673 45.4663 70.8745 45.8475 69.2328C45.9907 68.6163 46.1079 68.0834 46.1079 68.0482C46.1079 68.0133 45.8681 67.9383 45.5751 67.8817C45.2822 67.8252 44.8027 67.7325 44.5097 67.676C44.113 67.5993 43.977 67.6396 43.977 67.8337C43.977 68.3947 43.0577 71.2248 42.5113 72.3458C41.671 74.0697 40.5744 75.122 39.1646 75.5569C36.8049 76.2847 34.6523 76.5463 30.9254 76.5577L27.374 76.5687L26.5463 76.0821C25.2874 75.342 24.0571 73.8282 22.9965 71.7139C22.4741 70.6728 22.0271 69.7879 22.003 69.7476C21.9788 69.7071 21.5193 69.8236 20.9818 70.0063C20.1397 70.2926 20.0197 70.3888 20.1157 70.7013C20.413 71.6689 21.2875 73.3372 22.191 74.6598C23.3071 76.2938 23.2959 76.3133 21.507 75.8515C19.034 75.2131 16.4697 73.6389 14.1683 71.3463C10.5558 67.7472 8.46257 63.3051 8.46257 59.2371C8.46257 57.7151 8.59433 56.9633 9.52552 53.1684C10.8214 47.8874 12.1117 43.3055 13.0368 40.6991L13.7301 38.7458L15.4344 37.0827C18.8532 33.7468 21.5221 32.2804 25.8265 31.3727C26.6776 31.1933 27.3863 31.0408 27.4012 31.0339C27.4161 31.0271 28.2445 31.3054 29.2417 31.6525ZM27.9067 37.5199C26.0809 37.7274 25.729 37.8192 25.4488 38.1607C25.2131 38.4477 25.1483 38.7343 25.2167 39.1851C25.2689 39.5294 25.365 40.3745 25.4299 41.063L25.5484 42.3147L24.7783 42.6611C23.673 43.1583 21.9396 44.8498 21.3589 45.9977C20.6774 47.3446 20.4132 49.0082 20.6563 50.4212C21.2357 53.7899 23.4967 55.6984 28.3686 56.9315C30.956 57.5862 31.6187 57.8634 32.0042 58.4517C32.2979 58.9001 32.2961 58.9409 31.9637 59.3863C31.7726 59.6423 31.3408 59.9513 31.0045 60.0728C30.0197 60.4286 27.0434 60.3581 25.5983 59.9449C23.6469 59.3868 23.3216 59.3598 22.9933 59.729C22.8079 59.9374 22.568 60.9413 22.3263 62.5202C21.9852 64.7479 21.9749 65.0256 22.2191 65.3983C22.5721 65.9371 24.3526 66.4872 26.5946 66.7502L28.31 66.9515L28.4298 68.324C28.6103 70.3932 28.6232 70.3998 31.8492 70.0571C35.0226 69.7201 34.9997 69.7384 34.8372 67.6901C34.7752 66.9088 34.6871 66.1418 34.6417 65.9857C34.5836 65.7867 34.8249 65.5638 35.4496 65.2398C38.9054 63.447 40.5557 59.922 39.6206 56.3317C38.8519 53.3801 36.9285 51.691 33.1337 50.6353C30.1672 49.81 28.7541 49.3039 28.4366 48.953C28.1496 48.636 28.1479 48.5773 28.411 48.1756C28.9878 47.2954 32.2033 47.0938 34.4092 47.7993C36.291 48.4013 36.4559 48.1999 36.9684 44.6746C37.1964 43.1056 37.2202 42.5233 37.068 42.239C36.8089 41.7548 35.4029 41.3258 33.649 41.1954C32.9006 41.1398 32.2011 41.0406 32.0944 40.9745C31.9877 40.9086 31.8186 40.1804 31.7183 39.3563C31.578 38.201 31.4516 37.7867 31.1668 37.5472C30.7461 37.1935 30.7749 37.1937 27.9067 37.5199ZM29.6594 40.2108C29.7128 40.5771 29.8066 41.2922 29.868 41.8001C29.9294 42.3079 30.0937 42.8181 30.2333 42.9337C30.3727 43.0495 31.1847 43.1698 32.0379 43.2013C32.891 43.2327 33.8968 43.3101 34.273 43.3735L34.957 43.4888L34.8331 44.4912C34.7647 45.0425 34.6845 45.5191 34.6546 45.5502C34.6246 45.5815 34.1111 45.5108 33.5132 45.393C32.2533 45.1453 29.5026 45.2632 28.4487 45.6102C26.8564 46.1346 25.821 47.8299 26.2102 49.2755C26.5682 50.605 27.903 51.395 31.3694 52.3285C34.8738 53.2725 36.3494 54.1427 37.1611 55.7444C38.0825 57.563 37.8898 59.8884 36.6791 61.5596C36.104 62.3539 34.3219 63.6031 33.51 63.7814C32.5424 63.9939 32.3762 64.3844 32.5199 66.1083C32.6674 67.8799 32.6232 67.9495 31.3456 67.9538L30.5229 67.9564L30.3988 66.7578C30.2079 64.9146 30.1175 64.8356 28.0539 64.7056C27.094 64.6452 25.8448 64.5011 25.2781 64.3851L24.2475 64.1745L24.3661 63.1799C24.4313 62.633 24.5353 62.1306 24.5975 62.0637C24.6596 61.9969 25.1899 62.0555 25.7759 62.1942C27.2405 62.5405 30.1125 62.5238 31.4044 62.1614C33.4754 61.5802 34.6729 59.9074 34.2207 58.2276C33.7821 56.5986 32.6236 55.8533 29.0506 54.902C26.2327 54.152 24.9684 53.5742 23.9785 52.5842C23.1746 51.7801 22.6683 50.5156 22.6683 49.3114C22.6683 47.2689 24.011 45.4002 26.2702 44.298C26.9979 43.943 27.6416 43.5268 27.7006 43.373C27.7595 43.2194 27.7327 42.5148 27.6407 41.8075C27.3499 39.5676 27.2985 39.6521 29.0009 39.5715C29.5205 39.5468 29.5697 39.5946 29.6594 40.2108Z" fill="url(#paint1_radial_1376_154)"/>
<defs>
<radialGradient id="paint0_radial_1376_154" cx="0" cy="0" r="1" gradientUnits="userSpaceOnUse" gradientTransform="translate(21.1111 16.3832) rotate(50.5627) scale(66.4673 66.6971)">
<stop stop-color="white" stop-opacity="0.59"/>
<stop offset="0.697917" stop-color="white" stop-opacity="0"/>
<stop offset="1" stop-color="white" stop-opacity="0"/>
</radialGradient>
<radialGradient id="paint1_radial_1376_154" cx="0" cy="0" r="1" gradientUnits="userSpaceOnUse" gradientTransform="translate(69.0411 68.8094) rotate(-93.7338) scale(67.314 76.3114)">
<stop stop-opacity="0.23"/>
<stop offset="0.861815" stop-opacity="0"/>
</radialGradient>
</defs>
</svg>
