<svg width="80" height="80" viewBox="0 0 80 80" fill="none" xmlns="http://www.w3.org/2000/svg">
<path fill-rule="evenodd" clip-rule="evenodd" d="M35.7664 0.334983C33.9785 1.23656 32.6069 5.75994 33.3208 8.39983L33.5471 9.23655L32.8005 10.2232C31.3448 12.1463 30.9787 14.0669 31.6372 16.3279L31.732 16.6538L30.1969 16.3806C27.7737 15.9494 24.485 15.7161 22.2541 15.8172C19.0397 15.9629 14.6237 16.956 14.0103 17.6713C13.6213 18.125 13.6669 18.7732 14.118 19.1968C14.5748 19.6261 14.7711 19.6089 17.4088 18.9081C22.7978 17.4764 30.1531 18.1094 36.1136 20.5175C37.7369 21.1734 38.3424 21.4677 43.8989 24.3034C49.8969 27.3644 52.8224 28.2848 57.4547 28.5684C63.4019 28.9324 69.0261 27.6372 73.6648 24.8352C74.3804 24.4029 75.1717 24.0082 75.423 23.9578C76.0715 23.8281 76.9653 24.2493 77.3405 24.8616C77.6544 25.3736 77.6572 25.5425 77.6175 41.2414L77.5773 57.1038L77.2288 57.859C76.7754 58.8415 76.2782 59.4199 75.0156 60.4334C73.0839 61.9843 70.1573 63.574 67.8098 64.3477C65.2127 65.2037 63.48 65.4886 60.3351 65.5772C56.9235 65.6731 55.4191 65.5251 52.6837 64.8248C50.016 64.1419 49.0297 63.7077 42.3361 60.2711C40.2302 59.1898 37.6966 57.9841 36.7059 57.5917C30.7631 55.238 23.1344 54.5253 17.5657 55.804C16.7921 55.9816 15.9743 56.221 15.7483 56.3362C15.055 56.689 14.9494 57.362 15.4811 58.0379C15.7847 58.4241 15.8905 58.4588 16.5359 58.3828C16.9304 58.3365 17.9564 58.1387 18.8159 57.9432C20.1627 57.6369 20.8108 57.588 23.5043 57.5897C26.7018 57.5916 28.9243 57.8196 31.3951 58.3989L32.5658 58.6735L32.673 59.4238C32.7321 59.8364 32.8518 60.3788 32.939 60.629C33.0776 61.0266 33.031 61.183 32.5717 61.8658C31.7094 63.1472 31.3516 64.2713 31.3516 65.6992C31.3516 67.2542 31.7505 68.3719 32.8005 69.7591L33.5471 70.7457L33.3314 71.5774C32.8496 73.4348 33.1684 75.6182 34.2377 77.7848C34.9706 79.2698 35.6231 79.829 36.7746 79.9587C38.0453 80.102 38.5054 79.7424 43.2905 74.8682C48.1996 69.8675 48.8993 68.978 49.7238 66.6894C49.8091 66.4525 49.9221 66.4625 50.9903 66.8018C53.9996 67.7574 57.6558 68.1563 61.4153 67.9392C66.8044 67.6279 71.8009 65.7914 76.1295 62.5306C78.3826 60.8334 79.3822 59.4368 79.8231 57.3696C79.9476 56.7853 79.9997 51.9495 79.9997 40.9494C79.9997 23.5348 80.0508 24.3726 78.9096 23.0763C78.0349 22.0825 77.0713 21.6524 75.702 21.6446C74.7458 21.6393 74.4898 21.7043 73.6703 22.1616C67.9362 25.3605 64.7876 26.2614 59.3578 26.2574C56.6204 26.2553 55.0603 26.0686 52.7287 25.4641C50.28 24.8291 48.6584 24.1574 48.6916 23.7917C48.7058 23.6333 48.9677 22.8617 49.2734 22.0772C50.9089 17.8806 50.5491 13.723 48.2701 10.4777C47.1789 8.92415 39.0658 0.717557 38.2126 0.304508C37.3545 -0.110885 36.6327 -0.10182 35.7664 0.334983ZM41.7335 6.9769C45.8773 11.15 46.4075 11.7422 46.9109 12.7586C48.283 15.5292 48.2719 18.3468 46.8748 21.8626C46.6869 22.3353 46.4821 22.775 46.4192 22.8395C46.3566 22.904 45.5002 22.5282 44.5161 22.0042C41.2539 20.2671 38.6843 19.0153 36.9444 18.3155C35.9989 17.9351 35.0772 17.4849 34.8962 17.3148C34.7151 17.1448 34.3678 16.612 34.1245 16.1312C33.2404 14.384 33.6257 12.6697 35.2877 10.9544C36.2001 10.0128 36.2382 9.80213 35.755 8.37842C35.2069 6.7642 35.5324 4.49501 36.5501 2.83547C36.7216 2.55604 36.9191 2.32756 36.9893 2.32756C37.0595 2.32756 39.1944 4.41968 41.7335 6.9769ZM9.41972 19.6009C7.84582 20.4211 5.12045 22.2808 3.42231 23.6931C1.79793 25.044 0.957921 26.1262 0.415316 27.5668L0.0622788 28.5045L0.0196143 44.4318C-0.0285201 62.3734 -0.083687 61.4514 1.11795 62.7551C1.95718 63.6655 2.79359 64.082 3.96475 64.1728C5.20578 64.2689 5.79902 64.0456 7.77487 62.738C8.66457 62.1493 10.1756 61.2365 11.1327 60.7097C13.0723 59.642 13.3878 59.2508 12.9454 58.4627C12.4794 57.6325 12.013 57.6473 10.2468 58.5486C9.37283 58.9946 7.78424 59.9245 6.71654 60.615C4.60753 61.979 4.18589 62.0965 3.31275 61.564C2.25927 60.9217 2.31803 61.9765 2.36444 44.5645L2.40648 28.8171L2.82547 27.9231C3.05598 27.4313 3.57358 26.7093 3.97569 26.3185C5.10826 25.2178 7.6089 23.3921 9.55177 22.2477C10.5212 21.6766 11.4024 21.0968 11.5098 20.9591C11.7938 20.5955 11.7497 19.7622 11.4317 19.4829C10.883 19.0011 10.531 19.0217 9.41972 19.6009ZM21.0038 22.0201C18.4237 22.2525 15.4085 23.0602 12.7246 24.2377C11.949 24.5781 11.1561 25.0038 10.9628 25.184C10.5793 25.5411 10.5023 26.2117 10.784 26.7382C11.071 27.2744 11.0061 28.7431 10.6609 29.5203C10.0889 30.8085 9.04152 31.514 7.29696 31.7859C6.93267 31.8427 6.59933 32.0268 6.39835 32.2821C6.08579 32.6794 6.07907 32.8657 6.07907 41.0351V49.3821L6.46274 49.7657C6.67372 49.9766 7.01253 50.1493 7.2157 50.1493C7.90317 50.1493 9.12357 50.6068 9.69321 51.0779C10.0048 51.3358 10.4149 51.8828 10.6045 52.2937C11.2419 53.6756 11.5107 53.7091 13.9948 52.7151C18.5867 50.8781 22.6017 50.4469 28.2709 51.182C33.0368 51.8 36.447 53.0491 43.0611 56.5995C47.3646 58.9095 51.5366 60.5924 52.4138 60.3722C53.1707 60.1824 53.5278 59.1681 53.0565 58.5471C52.9414 58.3955 52.1969 58.0552 51.4022 57.791C49.1585 57.0452 47.7182 56.3863 43.5863 54.2157C38.0407 51.3027 35.8563 50.3941 32.3093 49.5256C29.5461 48.8491 26.8731 48.5454 23.5825 48.5345C19.8183 48.522 16.9768 49.0271 13.7368 50.2848L12.5647 50.7399L11.8172 49.9058C11.1135 49.1207 9.2164 47.9614 8.63503 47.9614C8.45516 47.9614 8.42671 46.8237 8.46078 40.9949L8.50142 34.0284L9.32626 33.738C10.4973 33.3256 11.5906 32.4662 12.3047 31.3968C13.0242 30.3195 13.3067 29.2903 13.3295 27.664L13.3461 26.491L14.6745 25.9559C17.9737 24.6266 21.6483 24.0818 25.4791 24.3539C31.6692 24.7935 35.3618 26.0389 42.6487 30.1451C50.1526 34.3736 53.9498 35.4618 60.5115 35.2639C62.5755 35.2016 63.6791 35.0847 65.2657 34.7601L67.3319 34.3375L68.2128 35.289C69.0578 36.2018 70.6583 37.1781 71.3094 37.1781C71.5363 37.1781 71.5605 37.8494 71.5605 44.1374C71.5605 50.626 71.5421 51.1031 71.287 51.1895C69.5056 51.7929 67.9772 53.0302 67.2969 54.4195C66.853 55.3256 66.5128 57.0196 66.6582 57.5986C66.7744 58.0615 66.452 58.1881 64.067 58.6152C62.7033 58.8593 61.5219 58.9445 59.2363 58.9631C56.269 58.9873 56.2049 58.9948 55.9153 59.3524C55.5166 59.8446 55.5435 60.4016 55.9872 60.8453C56.3018 61.1599 56.574 61.229 57.8869 61.3274C61.5461 61.6017 68.0659 60.5382 68.991 59.5161C69.2405 59.2403 69.2527 59.0898 69.1027 58.1213C68.6803 55.3916 69.9146 53.821 72.8495 53.354C73.9422 53.1802 73.9182 53.4015 73.8696 43.9625L73.8266 35.5874L73.4862 35.3119C73.299 35.1603 72.7939 34.9947 72.3638 34.9437C71.0029 34.7826 69.8017 33.9382 69.3235 32.8064C69.0391 32.1332 68.5646 31.7083 68.0975 31.7083C67.8559 31.7083 67.077 31.8763 66.3665 32.0815C64.0464 32.7519 61.5497 33.0135 58.4539 32.9108C53.014 32.7302 50.7177 31.9266 42.1758 27.2149C35.9517 23.7816 31.7365 22.4408 25.8485 22.0212C23.4618 21.8512 22.8811 21.851 21.0038 22.0201ZM39.5062 33.9664C37.0009 34.6573 34.824 36.9127 34.124 39.5427C33.8376 40.6187 33.8376 42.6455 34.124 43.7214C34.7321 46.006 36.2574 47.8495 38.3772 48.8616C39.5806 49.4362 39.6328 49.4461 41.4766 49.4461C43.3104 49.4461 43.378 49.4336 44.524 48.8817C46.6094 47.8775 47.9119 46.3923 48.6592 44.1661C50.0998 39.8747 47.6151 35.0931 43.3519 33.9526C42.3864 33.6944 40.4679 33.7013 39.5062 33.9664ZM43.6285 36.5309C44.629 37.0215 45.6571 38.0801 46.1934 39.1724C46.5872 39.9745 46.6338 40.2343 46.6338 41.6321C46.6338 42.9992 46.5816 43.3063 46.2165 44.085C45.708 45.1699 44.7019 46.2068 43.6604 46.7193C42.5691 47.2564 40.4142 47.2714 39.3549 46.7495C37.4702 45.8207 36.3612 44.1177 36.2645 42.0034C36.1438 39.3701 37.4034 37.3128 39.7206 36.3584C40.69 35.9592 42.6377 36.0452 43.6285 36.5309ZM36.8155 60.1721C38.0679 60.6928 39.1846 61.251 44.5556 64.0408C47.6282 65.6367 47.6343 65.6409 47.4766 66.056C46.8306 67.7551 46.323 68.3683 41.7241 73.0074C39.1878 75.5657 37.0398 77.6356 36.9505 77.6075C36.6802 77.522 35.9549 76.0519 35.6997 75.0721C35.3791 73.8414 35.4048 72.6048 35.7723 71.5597C36.243 70.2217 36.1935 69.9627 35.2877 69.0278C34.2091 67.9145 33.6946 66.871 33.6854 65.7774C33.6755 64.6123 33.9453 63.9053 34.8506 62.7243C35.6656 61.6606 35.7822 61.1646 35.3816 60.4638C35.0855 59.9458 35.0791 59.4666 35.3699 59.5782C35.4924 59.6252 36.1429 59.8925 36.8155 60.1721Z" fill="#0066FF"/>
<path fill-rule="evenodd" clip-rule="evenodd" d="M35.7664 0.334983C33.9785 1.23656 32.6069 5.75994 33.3208 8.39983L33.5471 9.23655L32.8005 10.2232C31.3448 12.1463 30.9787 14.0669 31.6372 16.3279L31.732 16.6538L30.1969 16.3806C27.7737 15.9494 24.485 15.7161 22.2541 15.8172C19.0397 15.9629 14.6237 16.956 14.0103 17.6713C13.6213 18.125 13.6669 18.7732 14.118 19.1968C14.5748 19.6261 14.7711 19.6089 17.4088 18.9081C22.7978 17.4764 30.1531 18.1094 36.1136 20.5175C37.7369 21.1734 38.3424 21.4677 43.8989 24.3034C49.8969 27.3644 52.8224 28.2848 57.4547 28.5684C63.4019 28.9324 69.0261 27.6372 73.6648 24.8352C74.3804 24.4029 75.1717 24.0082 75.423 23.9578C76.0715 23.8281 76.9653 24.2493 77.3405 24.8616C77.6544 25.3736 77.6572 25.5425 77.6175 41.2414L77.5773 57.1038L77.2288 57.859C76.7754 58.8415 76.2782 59.4199 75.0156 60.4334C73.0839 61.9843 70.1573 63.574 67.8098 64.3477C65.2127 65.2037 63.48 65.4886 60.3351 65.5772C56.9235 65.6731 55.4191 65.5251 52.6837 64.8248C50.016 64.1419 49.0297 63.7077 42.3361 60.2711C40.2302 59.1898 37.6966 57.9841 36.7059 57.5917C30.7631 55.238 23.1344 54.5253 17.5657 55.804C16.7921 55.9816 15.9743 56.221 15.7483 56.3362C15.055 56.689 14.9494 57.362 15.4811 58.0379C15.7847 58.4241 15.8905 58.4588 16.5359 58.3828C16.9304 58.3365 17.9564 58.1387 18.8159 57.9432C20.1627 57.6369 20.8108 57.588 23.5043 57.5897C26.7018 57.5916 28.9243 57.8196 31.3951 58.3989L32.5658 58.6735L32.673 59.4238C32.7321 59.8364 32.8518 60.3788 32.939 60.629C33.0776 61.0266 33.031 61.183 32.5717 61.8658C31.7094 63.1472 31.3516 64.2713 31.3516 65.6992C31.3516 67.2542 31.7505 68.3719 32.8005 69.7591L33.5471 70.7457L33.3314 71.5774C32.8496 73.4348 33.1684 75.6182 34.2377 77.7848C34.9706 79.2698 35.6231 79.829 36.7746 79.9587C38.0453 80.102 38.5054 79.7424 43.2905 74.8682C48.1996 69.8675 48.8993 68.978 49.7238 66.6894C49.8091 66.4525 49.9221 66.4625 50.9903 66.8018C53.9996 67.7574 57.6558 68.1563 61.4153 67.9392C66.8044 67.6279 71.8009 65.7914 76.1295 62.5306C78.3826 60.8334 79.3822 59.4368 79.8231 57.3696C79.9476 56.7853 79.9997 51.9495 79.9997 40.9494C79.9997 23.5348 80.0508 24.3726 78.9096 23.0763C78.0349 22.0825 77.0713 21.6524 75.702 21.6446C74.7458 21.6393 74.4898 21.7043 73.6703 22.1616C67.9362 25.3605 64.7876 26.2614 59.3578 26.2574C56.6204 26.2553 55.0603 26.0686 52.7287 25.4641C50.28 24.8291 48.6584 24.1574 48.6916 23.7917C48.7058 23.6333 48.9677 22.8617 49.2734 22.0772C50.9089 17.8806 50.5491 13.723 48.2701 10.4777C47.1789 8.92415 39.0658 0.717557 38.2126 0.304508C37.3545 -0.110885 36.6327 -0.10182 35.7664 0.334983ZM41.7335 6.9769C45.8773 11.15 46.4075 11.7422 46.9109 12.7586C48.283 15.5292 48.2719 18.3468 46.8748 21.8626C46.6869 22.3353 46.4821 22.775 46.4192 22.8395C46.3566 22.904 45.5002 22.5282 44.5161 22.0042C41.2539 20.2671 38.6843 19.0153 36.9444 18.3155C35.9989 17.9351 35.0772 17.4849 34.8962 17.3148C34.7151 17.1448 34.3678 16.612 34.1245 16.1312C33.2404 14.384 33.6257 12.6697 35.2877 10.9544C36.2001 10.0128 36.2382 9.80213 35.755 8.37842C35.2069 6.7642 35.5324 4.49501 36.5501 2.83547C36.7216 2.55604 36.9191 2.32756 36.9893 2.32756C37.0595 2.32756 39.1944 4.41968 41.7335 6.9769ZM9.41972 19.6009C7.84582 20.4211 5.12045 22.2808 3.42231 23.6931C1.79793 25.044 0.957921 26.1262 0.415316 27.5668L0.0622788 28.5045L0.0196143 44.4318C-0.0285201 62.3734 -0.083687 61.4514 1.11795 62.7551C1.95718 63.6655 2.79359 64.082 3.96475 64.1728C5.20578 64.2689 5.79902 64.0456 7.77487 62.738C8.66457 62.1493 10.1756 61.2365 11.1327 60.7097C13.0723 59.642 13.3878 59.2508 12.9454 58.4627C12.4794 57.6325 12.013 57.6473 10.2468 58.5486C9.37283 58.9946 7.78424 59.9245 6.71654 60.615C4.60753 61.979 4.18589 62.0965 3.31275 61.564C2.25927 60.9217 2.31803 61.9765 2.36444 44.5645L2.40648 28.8171L2.82547 27.9231C3.05598 27.4313 3.57358 26.7093 3.97569 26.3185C5.10826 25.2178 7.6089 23.3921 9.55177 22.2477C10.5212 21.6766 11.4024 21.0968 11.5098 20.9591C11.7938 20.5955 11.7497 19.7622 11.4317 19.4829C10.883 19.0011 10.531 19.0217 9.41972 19.6009ZM21.0038 22.0201C18.4237 22.2525 15.4085 23.0602 12.7246 24.2377C11.949 24.5781 11.1561 25.0038 10.9628 25.184C10.5793 25.5411 10.5023 26.2117 10.784 26.7382C11.071 27.2744 11.0061 28.7431 10.6609 29.5203C10.0889 30.8085 9.04152 31.514 7.29696 31.7859C6.93267 31.8427 6.59933 32.0268 6.39835 32.2821C6.08579 32.6794 6.07907 32.8657 6.07907 41.0351V49.3821L6.46274 49.7657C6.67372 49.9766 7.01253 50.1493 7.2157 50.1493C7.90317 50.1493 9.12357 50.6068 9.69321 51.0779C10.0048 51.3358 10.4149 51.8828 10.6045 52.2937C11.2419 53.6756 11.5107 53.7091 13.9948 52.7151C18.5867 50.8781 22.6017 50.4469 28.2709 51.182C33.0368 51.8 36.447 53.0491 43.0611 56.5995C47.3646 58.9095 51.5366 60.5924 52.4138 60.3722C53.1707 60.1824 53.5278 59.1681 53.0565 58.5471C52.9414 58.3955 52.1969 58.0552 51.4022 57.791C49.1585 57.0452 47.7182 56.3863 43.5863 54.2157C38.0407 51.3027 35.8563 50.3941 32.3093 49.5256C29.5461 48.8491 26.8731 48.5454 23.5825 48.5345C19.8183 48.522 16.9768 49.0271 13.7368 50.2848L12.5647 50.7399L11.8172 49.9058C11.1135 49.1207 9.2164 47.9614 8.63503 47.9614C8.45516 47.9614 8.42671 46.8237 8.46078 40.9949L8.50142 34.0284L9.32626 33.738C10.4973 33.3256 11.5906 32.4662 12.3047 31.3968C13.0242 30.3195 13.3067 29.2903 13.3295 27.664L13.3461 26.491L14.6745 25.9559C17.9737 24.6266 21.6483 24.0818 25.4791 24.3539C31.6692 24.7935 35.3618 26.0389 42.6487 30.1451C50.1526 34.3736 53.9498 35.4618 60.5115 35.2639C62.5755 35.2016 63.6791 35.0847 65.2657 34.7601L67.3319 34.3375L68.2128 35.289C69.0578 36.2018 70.6583 37.1781 71.3094 37.1781C71.5363 37.1781 71.5605 37.8494 71.5605 44.1374C71.5605 50.626 71.5421 51.1031 71.287 51.1895C69.5056 51.7929 67.9772 53.0302 67.2969 54.4195C66.853 55.3256 66.5128 57.0196 66.6582 57.5986C66.7744 58.0615 66.452 58.1881 64.067 58.6152C62.7033 58.8593 61.5219 58.9445 59.2363 58.9631C56.269 58.9873 56.2049 58.9948 55.9153 59.3524C55.5166 59.8446 55.5435 60.4016 55.9872 60.8453C56.3018 61.1599 56.574 61.229 57.8869 61.3274C61.5461 61.6017 68.0659 60.5382 68.991 59.5161C69.2405 59.2403 69.2527 59.0898 69.1027 58.1213C68.6803 55.3916 69.9146 53.821 72.8495 53.354C73.9422 53.1802 73.9182 53.4015 73.8696 43.9625L73.8266 35.5874L73.4862 35.3119C73.299 35.1603 72.7939 34.9947 72.3638 34.9437C71.0029 34.7826 69.8017 33.9382 69.3235 32.8064C69.0391 32.1332 68.5646 31.7083 68.0975 31.7083C67.8559 31.7083 67.077 31.8763 66.3665 32.0815C64.0464 32.7519 61.5497 33.0135 58.4539 32.9108C53.014 32.7302 50.7177 31.9266 42.1758 27.2149C35.9517 23.7816 31.7365 22.4408 25.8485 22.0212C23.4618 21.8512 22.8811 21.851 21.0038 22.0201ZM39.5062 33.9664C37.0009 34.6573 34.824 36.9127 34.124 39.5427C33.8376 40.6187 33.8376 42.6455 34.124 43.7214C34.7321 46.006 36.2574 47.8495 38.3772 48.8616C39.5806 49.4362 39.6328 49.4461 41.4766 49.4461C43.3104 49.4461 43.378 49.4336 44.524 48.8817C46.6094 47.8775 47.9119 46.3923 48.6592 44.1661C50.0998 39.8747 47.6151 35.0931 43.3519 33.9526C42.3864 33.6944 40.4679 33.7013 39.5062 33.9664ZM43.6285 36.5309C44.629 37.0215 45.6571 38.0801 46.1934 39.1724C46.5872 39.9745 46.6338 40.2343 46.6338 41.6321C46.6338 42.9992 46.5816 43.3063 46.2165 44.085C45.708 45.1699 44.7019 46.2068 43.6604 46.7193C42.5691 47.2564 40.4142 47.2714 39.3549 46.7495C37.4702 45.8207 36.3612 44.1177 36.2645 42.0034C36.1438 39.3701 37.4034 37.3128 39.7206 36.3584C40.69 35.9592 42.6377 36.0452 43.6285 36.5309ZM36.8155 60.1721C38.0679 60.6928 39.1846 61.251 44.5556 64.0408C47.6282 65.6367 47.6343 65.6409 47.4766 66.056C46.8306 67.7551 46.323 68.3683 41.7241 73.0074C39.1878 75.5657 37.0398 77.6356 36.9505 77.6075C36.6802 77.522 35.9549 76.0519 35.6997 75.0721C35.3791 73.8414 35.4048 72.6048 35.7723 71.5597C36.243 70.2217 36.1935 69.9627 35.2877 69.0278C34.2091 67.9145 33.6946 66.871 33.6854 65.7774C33.6755 64.6123 33.9453 63.9053 34.8506 62.7243C35.6656 61.6606 35.7822 61.1646 35.3816 60.4638C35.0855 59.9458 35.0791 59.4666 35.3699 59.5782C35.4924 59.6252 36.1429 59.8925 36.8155 60.1721Z" fill="url(#paint0_radial_1376_167)" fill-opacity="0.7"/>
<path fill-rule="evenodd" clip-rule="evenodd" d="M35.7664 0.334983C33.9785 1.23656 32.6069 5.75994 33.3208 8.39983L33.5471 9.23655L32.8005 10.2232C31.3448 12.1463 30.9787 14.0669 31.6372 16.3279L31.732 16.6538L30.1969 16.3806C27.7737 15.9494 24.485 15.7161 22.2541 15.8172C19.0397 15.9629 14.6237 16.956 14.0103 17.6713C13.6213 18.125 13.6669 18.7732 14.118 19.1968C14.5748 19.6261 14.7711 19.6089 17.4088 18.9081C22.7978 17.4764 30.1531 18.1094 36.1136 20.5175C37.7369 21.1734 38.3424 21.4677 43.8989 24.3034C49.8969 27.3644 52.8224 28.2848 57.4547 28.5684C63.4019 28.9324 69.0261 27.6372 73.6648 24.8352C74.3804 24.4029 75.1717 24.0082 75.423 23.9578C76.0715 23.8281 76.9653 24.2493 77.3405 24.8616C77.6544 25.3736 77.6572 25.5425 77.6175 41.2414L77.5773 57.1038L77.2288 57.859C76.7754 58.8415 76.2782 59.4199 75.0156 60.4334C73.0839 61.9843 70.1573 63.574 67.8098 64.3477C65.2127 65.2037 63.48 65.4886 60.3351 65.5772C56.9235 65.6731 55.4191 65.5251 52.6837 64.8248C50.016 64.1419 49.0297 63.7077 42.3361 60.2711C40.2302 59.1898 37.6966 57.9841 36.7059 57.5917C30.7631 55.238 23.1344 54.5253 17.5657 55.804C16.7921 55.9816 15.9743 56.221 15.7483 56.3362C15.055 56.689 14.9494 57.362 15.4811 58.0379C15.7847 58.4241 15.8905 58.4588 16.5359 58.3828C16.9304 58.3365 17.9564 58.1387 18.8159 57.9432C20.1627 57.6369 20.8108 57.588 23.5043 57.5897C26.7018 57.5916 28.9243 57.8196 31.3951 58.3989L32.5658 58.6735L32.673 59.4238C32.7321 59.8364 32.8518 60.3788 32.939 60.629C33.0776 61.0266 33.031 61.183 32.5717 61.8658C31.7094 63.1472 31.3516 64.2713 31.3516 65.6992C31.3516 67.2542 31.7505 68.3719 32.8005 69.7591L33.5471 70.7457L33.3314 71.5774C32.8496 73.4348 33.1684 75.6182 34.2377 77.7848C34.9706 79.2698 35.6231 79.829 36.7746 79.9587C38.0453 80.102 38.5054 79.7424 43.2905 74.8682C48.1996 69.8675 48.8993 68.978 49.7238 66.6894C49.8091 66.4525 49.9221 66.4625 50.9903 66.8018C53.9996 67.7574 57.6558 68.1563 61.4153 67.9392C66.8044 67.6279 71.8009 65.7914 76.1295 62.5306C78.3826 60.8334 79.3822 59.4368 79.8231 57.3696C79.9476 56.7853 79.9997 51.9495 79.9997 40.9494C79.9997 23.5348 80.0508 24.3726 78.9096 23.0763C78.0349 22.0825 77.0713 21.6524 75.702 21.6446C74.7458 21.6393 74.4898 21.7043 73.6703 22.1616C67.9362 25.3605 64.7876 26.2614 59.3578 26.2574C56.6204 26.2553 55.0603 26.0686 52.7287 25.4641C50.28 24.8291 48.6584 24.1574 48.6916 23.7917C48.7058 23.6333 48.9677 22.8617 49.2734 22.0772C50.9089 17.8806 50.5491 13.723 48.2701 10.4777C47.1789 8.92415 39.0658 0.717557 38.2126 0.304508C37.3545 -0.110885 36.6327 -0.10182 35.7664 0.334983ZM41.7335 6.9769C45.8773 11.15 46.4075 11.7422 46.9109 12.7586C48.283 15.5292 48.2719 18.3468 46.8748 21.8626C46.6869 22.3353 46.4821 22.775 46.4192 22.8395C46.3566 22.904 45.5002 22.5282 44.5161 22.0042C41.2539 20.2671 38.6843 19.0153 36.9444 18.3155C35.9989 17.9351 35.0772 17.4849 34.8962 17.3148C34.7151 17.1448 34.3678 16.612 34.1245 16.1312C33.2404 14.384 33.6257 12.6697 35.2877 10.9544C36.2001 10.0128 36.2382 9.80213 35.755 8.37842C35.2069 6.7642 35.5324 4.49501 36.5501 2.83547C36.7216 2.55604 36.9191 2.32756 36.9893 2.32756C37.0595 2.32756 39.1944 4.41968 41.7335 6.9769ZM9.41972 19.6009C7.84582 20.4211 5.12045 22.2808 3.42231 23.6931C1.79793 25.044 0.957921 26.1262 0.415316 27.5668L0.0622788 28.5045L0.0196143 44.4318C-0.0285201 62.3734 -0.083687 61.4514 1.11795 62.7551C1.95718 63.6655 2.79359 64.082 3.96475 64.1728C5.20578 64.2689 5.79902 64.0456 7.77487 62.738C8.66457 62.1493 10.1756 61.2365 11.1327 60.7097C13.0723 59.642 13.3878 59.2508 12.9454 58.4627C12.4794 57.6325 12.013 57.6473 10.2468 58.5486C9.37283 58.9946 7.78424 59.9245 6.71654 60.615C4.60753 61.979 4.18589 62.0965 3.31275 61.564C2.25927 60.9217 2.31803 61.9765 2.36444 44.5645L2.40648 28.8171L2.82547 27.9231C3.05598 27.4313 3.57358 26.7093 3.97569 26.3185C5.10826 25.2178 7.6089 23.3921 9.55177 22.2477C10.5212 21.6766 11.4024 21.0968 11.5098 20.9591C11.7938 20.5955 11.7497 19.7622 11.4317 19.4829C10.883 19.0011 10.531 19.0217 9.41972 19.6009ZM21.0038 22.0201C18.4237 22.2525 15.4085 23.0602 12.7246 24.2377C11.949 24.5781 11.1561 25.0038 10.9628 25.184C10.5793 25.5411 10.5023 26.2117 10.784 26.7382C11.071 27.2744 11.0061 28.7431 10.6609 29.5203C10.0889 30.8085 9.04152 31.514 7.29696 31.7859C6.93267 31.8427 6.59933 32.0268 6.39835 32.2821C6.08579 32.6794 6.07907 32.8657 6.07907 41.0351V49.3821L6.46274 49.7657C6.67372 49.9766 7.01253 50.1493 7.2157 50.1493C7.90317 50.1493 9.12357 50.6068 9.69321 51.0779C10.0048 51.3358 10.4149 51.8828 10.6045 52.2937C11.2419 53.6756 11.5107 53.7091 13.9948 52.7151C18.5867 50.8781 22.6017 50.4469 28.2709 51.182C33.0368 51.8 36.447 53.0491 43.0611 56.5995C47.3646 58.9095 51.5366 60.5924 52.4138 60.3722C53.1707 60.1824 53.5278 59.1681 53.0565 58.5471C52.9414 58.3955 52.1969 58.0552 51.4022 57.791C49.1585 57.0452 47.7182 56.3863 43.5863 54.2157C38.0407 51.3027 35.8563 50.3941 32.3093 49.5256C29.5461 48.8491 26.8731 48.5454 23.5825 48.5345C19.8183 48.522 16.9768 49.0271 13.7368 50.2848L12.5647 50.7399L11.8172 49.9058C11.1135 49.1207 9.2164 47.9614 8.63503 47.9614C8.45516 47.9614 8.42671 46.8237 8.46078 40.9949L8.50142 34.0284L9.32626 33.738C10.4973 33.3256 11.5906 32.4662 12.3047 31.3968C13.0242 30.3195 13.3067 29.2903 13.3295 27.664L13.3461 26.491L14.6745 25.9559C17.9737 24.6266 21.6483 24.0818 25.4791 24.3539C31.6692 24.7935 35.3618 26.0389 42.6487 30.1451C50.1526 34.3736 53.9498 35.4618 60.5115 35.2639C62.5755 35.2016 63.6791 35.0847 65.2657 34.7601L67.3319 34.3375L68.2128 35.289C69.0578 36.2018 70.6583 37.1781 71.3094 37.1781C71.5363 37.1781 71.5605 37.8494 71.5605 44.1374C71.5605 50.626 71.5421 51.1031 71.287 51.1895C69.5056 51.7929 67.9772 53.0302 67.2969 54.4195C66.853 55.3256 66.5128 57.0196 66.6582 57.5986C66.7744 58.0615 66.452 58.1881 64.067 58.6152C62.7033 58.8593 61.5219 58.9445 59.2363 58.9631C56.269 58.9873 56.2049 58.9948 55.9153 59.3524C55.5166 59.8446 55.5435 60.4016 55.9872 60.8453C56.3018 61.1599 56.574 61.229 57.8869 61.3274C61.5461 61.6017 68.0659 60.5382 68.991 59.5161C69.2405 59.2403 69.2527 59.0898 69.1027 58.1213C68.6803 55.3916 69.9146 53.821 72.8495 53.354C73.9422 53.1802 73.9182 53.4015 73.8696 43.9625L73.8266 35.5874L73.4862 35.3119C73.299 35.1603 72.7939 34.9947 72.3638 34.9437C71.0029 34.7826 69.8017 33.9382 69.3235 32.8064C69.0391 32.1332 68.5646 31.7083 68.0975 31.7083C67.8559 31.7083 67.077 31.8763 66.3665 32.0815C64.0464 32.7519 61.5497 33.0135 58.4539 32.9108C53.014 32.7302 50.7177 31.9266 42.1758 27.2149C35.9517 23.7816 31.7365 22.4408 25.8485 22.0212C23.4618 21.8512 22.8811 21.851 21.0038 22.0201ZM39.5062 33.9664C37.0009 34.6573 34.824 36.9127 34.124 39.5427C33.8376 40.6187 33.8376 42.6455 34.124 43.7214C34.7321 46.006 36.2574 47.8495 38.3772 48.8616C39.5806 49.4362 39.6328 49.4461 41.4766 49.4461C43.3104 49.4461 43.378 49.4336 44.524 48.8817C46.6094 47.8775 47.9119 46.3923 48.6592 44.1661C50.0998 39.8747 47.6151 35.0931 43.3519 33.9526C42.3864 33.6944 40.4679 33.7013 39.5062 33.9664ZM43.6285 36.5309C44.629 37.0215 45.6571 38.0801 46.1934 39.1724C46.5872 39.9745 46.6338 40.2343 46.6338 41.6321C46.6338 42.9992 46.5816 43.3063 46.2165 44.085C45.708 45.1699 44.7019 46.2068 43.6604 46.7193C42.5691 47.2564 40.4142 47.2714 39.3549 46.7495C37.4702 45.8207 36.3612 44.1177 36.2645 42.0034C36.1438 39.3701 37.4034 37.3128 39.7206 36.3584C40.69 35.9592 42.6377 36.0452 43.6285 36.5309ZM36.8155 60.1721C38.0679 60.6928 39.1846 61.251 44.5556 64.0408C47.6282 65.6367 47.6343 65.6409 47.4766 66.056C46.8306 67.7551 46.323 68.3683 41.7241 73.0074C39.1878 75.5657 37.0398 77.6356 36.9505 77.6075C36.6802 77.522 35.9549 76.0519 35.6997 75.0721C35.3791 73.8414 35.4048 72.6048 35.7723 71.5597C36.243 70.2217 36.1935 69.9627 35.2877 69.0278C34.2091 67.9145 33.6946 66.871 33.6854 65.7774C33.6755 64.6123 33.9453 63.9053 34.8506 62.7243C35.6656 61.6606 35.7822 61.1646 35.3816 60.4638C35.0855 59.9458 35.0791 59.4666 35.3699 59.5782C35.4924 59.6252 36.1429 59.8925 36.8155 60.1721Z" fill="url(#paint1_radial_1376_167)"/>
<defs>
<radialGradient id="paint0_radial_1376_167" cx="0" cy="0" r="1" gradientUnits="userSpaceOnUse" gradientTransform="translate(21.1111 16.663) rotate(51.038) scale(67.1468 67.1498)">
<stop stop-color="white" stop-opacity="0.59"/>
<stop offset="0.697917" stop-color="white" stop-opacity="0"/>
<stop offset="1" stop-color="white" stop-opacity="0"/>
</radialGradient>
<radialGradient id="paint1_radial_1376_167" cx="0" cy="0" r="1" gradientUnits="userSpaceOnUse" gradientTransform="translate(69.0411 69.9848) rotate(-93.6713) scale(68.459 76.3168)">
<stop stop-opacity="0.23"/>
<stop offset="0.861815" stop-opacity="0"/>
</radialGradient>
</defs>
</svg>
