<svg width="80" height="75" viewBox="0 0 80 75" fill="none" xmlns="http://www.w3.org/2000/svg">
<path fill-rule="evenodd" clip-rule="evenodd" d="M66.2481 0.0550457C65.37 0.239227 64.8473 0.829578 64.682 1.82407L64.5911 2.37083L56.0511 2.41129L47.5111 2.4516L47.1883 2.86183C47.0109 3.08756 46.8656 3.49295 46.8656 3.7629C46.8656 4.03284 47.3889 5.55972 48.0286 7.15612L49.1917 10.0588L48.0286 13.0103C47.3889 14.6335 46.8656 16.1934 46.8656 16.4766C46.8656 16.815 46.997 17.1229 47.2491 17.3749L47.6325 17.7584H56.1536H64.6745V24.8555V31.9529L61.1868 32.0025C57.7094 32.0522 57.697 32.0536 57.0714 32.4681C55.9627 33.2023 55.8482 33.6385 55.8482 37.1295C55.8482 39.3592 55.9057 40.3118 56.0623 40.6835C56.2439 41.1135 56.2439 41.2688 56.0623 41.6989C55.9063 42.069 55.8482 43.0111 55.8482 45.1747C55.8482 47.3384 55.9063 48.2805 56.0623 48.6506C56.2439 49.0807 56.2439 49.236 56.0623 49.666C55.9063 50.0361 55.8482 50.9783 55.8482 53.1419C55.8482 55.3055 55.9063 56.2477 56.0623 56.6178C56.2439 57.0478 56.2439 57.2031 56.0623 57.6332C55.9063 58.0033 55.8482 58.9454 55.8482 61.109C55.8482 63.2727 55.9063 64.2148 56.0623 64.5849C56.2439 65.015 56.2439 65.1703 56.0623 65.6003C55.9057 65.972 55.8482 66.9246 55.8482 69.1543C55.8482 71.7368 55.8889 72.2751 56.1159 72.6897C56.4868 73.3672 57.2315 73.9579 57.9627 74.1549C58.3753 74.2659 61.7974 74.3059 68.3166 74.2761L78.0543 74.2314L78.7191 73.7915C79.8405 73.0491 79.9765 72.5446 79.9805 69.1103C79.9832 66.8951 79.9285 66.0434 79.7576 65.6344C79.56 65.1614 79.56 65.0239 79.7576 64.5509C79.9277 64.1438 79.984 63.2881 79.984 61.109C79.984 58.93 79.9277 58.0743 79.7576 57.6672C79.56 57.1942 79.56 57.0567 79.7576 56.5837C79.9277 56.1766 79.984 55.321 79.984 53.1419C79.984 50.9628 79.9277 50.1072 79.7576 49.7001C79.56 49.2271 79.56 49.0896 79.7576 48.6166C80.0808 47.8431 80.0808 42.5064 79.7576 41.7329C79.56 41.2599 79.56 41.1224 79.7576 40.6494C79.9285 40.2404 79.9832 39.3887 79.9805 37.1735C79.9775 34.6622 79.9357 34.1495 79.6901 33.6146C79.0195 32.1539 78.4447 31.9743 74.4432 31.9743H71.2357V28.871C71.2357 25.968 71.2148 25.7411 70.9119 25.3561C70.5062 24.8402 69.6701 24.7916 69.2049 25.2569C68.9127 25.549 68.8924 25.7775 68.8924 28.7718V31.9743H67.9551H67.0178V17.1257V2.2771L67.9161 2.32397L68.8143 2.37083L68.8924 12.0119C68.9776 22.5194 68.9268 21.9863 69.8649 22.2162C70.2083 22.3004 70.3818 22.2293 70.7632 21.848L71.2357 21.3755L71.2354 11.5607C71.2352 2.52533 71.2135 1.70346 70.962 1.21028C70.4649 0.235165 70.018 0.0386426 68.2219 0.00536799C67.3449 -0.011035 66.4567 0.0114606 66.2481 0.0550457ZM64.6745 10.1037V15.4151H57.176C53.0519 15.4151 49.6775 15.3829 49.6775 15.3437C49.6775 15.3043 50.0989 14.1972 50.6138 12.8833C51.1285 11.5693 51.5503 10.3019 51.5511 10.0668C51.5517 9.83168 51.1304 8.58287 50.6148 7.29172C50.0993 6.00057 49.6775 4.91001 49.6775 4.86814C49.6775 4.82643 53.0519 4.79222 57.176 4.79222H64.6745V10.1037ZM15.3652 9.17697C13.5032 9.42582 11.6258 10.8224 10.8085 12.5663C10.4362 13.3605 10.3885 13.6487 10.3885 15.1027C10.3885 16.5895 10.4301 16.8276 10.8335 17.6492C11.378 18.7582 12.4922 19.8972 13.5229 20.3988C14.5124 20.8802 14.4887 20.8498 14.0917 21.1278C13.4243 21.5953 12.9227 22.7093 12.8402 23.9065L12.7634 25.0225L6.92767 30.0215C0.391328 35.6209 0.676114 35.2794 0.822023 37.3405C0.912942 38.6245 1.35973 39.2245 2.2219 39.2205C2.55542 39.2188 4.42193 38.4127 7.57661 36.908C10.2401 35.6374 12.5073 34.5625 12.6147 34.5191C12.7684 34.4572 12.8087 35.418 12.8043 39.0264L12.7987 43.6126L11.5091 49.7051L10.2197 55.7976L6.08612 55.8757C1.71997 55.9582 1.43346 56.0059 0.747662 56.7637C0.107322 57.4712 0 58.095 0 61.109C0 63.2881 0.0562387 64.1438 0.226361 64.5509C0.423977 65.0239 0.423977 65.1614 0.226361 65.6344C0.0554576 66.0434 0.000781093 66.8951 0.00343681 69.1103C0.0074985 72.5446 0.143409 73.0491 1.2649 73.7915L1.92961 74.2314L11.6673 74.2761C18.1865 74.3059 21.6086 74.2659 22.0212 74.1549C22.7525 73.9579 23.4972 73.3672 23.868 72.6897C24.095 72.2751 24.1358 71.7368 24.1358 69.1543C24.1358 66.9246 24.0783 65.972 23.9216 65.6003C23.7401 65.1703 23.7401 65.015 23.9216 64.5849C24.0783 64.2133 24.1358 63.2606 24.1358 61.0309C24.1358 57.6741 24.0742 57.4053 23.1211 56.6034C22.4025 55.9987 21.7191 55.8776 19.0196 55.8767C17.6665 55.8762 16.5592 55.8401 16.5592 55.7964C16.5592 55.7528 17.9826 53.277 19.7226 50.2948L22.886 44.8723L22.9365 42.5539C22.9643 41.2788 23.0385 40.2571 23.1016 40.2837C23.1647 40.3103 24.4224 41.1637 25.8967 42.1802L28.5768 44.0284L28.9911 45.3827C29.2188 46.1275 29.4939 47.0295 29.6022 47.3873L29.799 48.0376L29.2448 48.4027C28.073 49.1747 28.0469 49.2691 27.9934 52.9238C27.9563 55.4596 27.9938 56.2955 28.1594 56.6274C28.3346 56.9786 28.3374 57.14 28.1753 57.5204C27.8775 58.2184 27.8878 64.0855 28.1878 64.6604C28.3817 65.032 28.3804 65.1478 28.1779 65.5533C27.9892 65.9317 27.9545 66.6362 27.9934 69.2943C28.0375 72.3166 28.0661 72.6024 28.3634 73.0001C28.8289 73.6229 29.385 73.9979 30.0841 74.16C30.8836 74.3453 49.1003 74.3453 49.8998 74.16C50.5989 73.9979 51.155 73.6229 51.6206 73.0001C51.9179 72.6024 51.9465 72.3166 51.9905 69.2943C52.0294 66.6362 51.9947 65.9317 51.806 65.5533C51.6036 65.1478 51.6023 65.032 51.7962 64.6604C52.0967 64.0841 52.1064 58.2184 51.8079 57.5182C51.6459 57.1383 51.647 56.9789 51.814 56.659C52.1095 56.0924 52.1045 50.2861 51.8077 49.5756C51.5361 48.9254 50.7689 48.2785 50.0242 48.0717C49.7047 47.9829 48.3806 47.91 47.082 47.9095C44.929 47.9086 44.6843 47.9372 44.3091 48.2324C43.7932 48.6381 43.7447 49.4742 44.2099 49.9394C44.4944 50.2239 44.7306 50.2519 46.8528 50.2519C48.1346 50.2519 49.2945 50.2945 49.4304 50.3467C49.6427 50.4281 49.6775 50.825 49.6775 53.1586V55.8757H39.992H30.3064V53.1586C30.3064 50.825 30.3413 50.4281 30.5536 50.3467C30.6895 50.2945 32.9585 50.2519 35.5958 50.2519C41.0486 50.2519 41.0855 50.2445 41.0855 49.1608C41.0855 48.6936 40.9919 48.4825 40.6739 48.2324C40.3124 47.9479 40.0465 47.9086 38.4868 47.9086C37.5103 47.9086 36.7114 47.8767 36.7114 47.8376C36.7114 47.5483 33.8601 37.3504 33.684 37.0098C33.5605 36.771 31.1034 34.398 28.224 31.7363L22.9885 26.8972L22.9763 25.5132L22.9641 24.1293L27.846 19.1364C30.5311 16.3902 32.8508 13.921 33.0012 13.6492C33.383 12.9589 33.3828 10.7118 33.0009 9.94744C32.6766 9.29803 31.8016 8.92452 31.1684 9.16525C30.9554 9.24633 28.889 10.6504 26.5764 12.2857C24.2639 13.921 22.3391 15.2589 22.2991 15.2589C22.2591 15.2589 22.1891 14.8466 22.1434 14.343C21.8466 11.0694 18.7669 8.72221 15.3652 9.17697ZM18.1215 12.0173C21.2207 13.8784 19.8685 18.6957 16.2467 18.6957C12.625 18.6957 11.2727 13.8784 14.372 12.0173C15.0979 11.5815 15.3632 11.5096 16.2467 11.5096C17.1303 11.5096 17.3956 11.5815 18.1215 12.0173ZM30.049 13.4677C29.5461 14.0196 27.2192 16.4347 24.8778 18.8349L20.6209 23.1987V33.6407V44.0826L17.2076 49.9402L13.7944 55.7976L13.2241 55.846C12.9104 55.8728 12.6537 55.8315 12.6537 55.7547C12.6537 55.6776 13.2161 52.964 13.9035 49.7245L15.1532 43.8344V33.7075C15.1532 23.7642 15.159 23.5733 15.4706 23.1771C15.6451 22.9551 18.4044 20.9295 21.6022 18.6755C24.8 16.4216 28.1897 14.0315 29.1348 13.3641C30.0799 12.6967 30.8779 12.2214 30.9082 12.3076C30.9383 12.3938 30.5517 12.9159 30.049 13.4677ZM12.6979 31.824C12.5884 31.9226 11.5255 32.4332 5.00009 35.5223C4.01263 35.9899 3.26231 36.3142 3.33293 36.2433C3.40354 36.1722 5.54717 34.3182 8.0965 32.1231L12.7318 28.1321L12.776 29.9231C12.8004 30.9081 12.7653 31.7635 12.6979 31.824ZM28.2386 34.929L31.6683 38.1182L32.9401 42.8347C33.6397 45.4289 34.2119 47.6318 34.2119 47.73C34.2119 47.8451 33.861 47.9086 33.2241 47.9086H32.2363L31.4206 45.2927C30.9721 43.8541 30.5359 42.6062 30.4514 42.5198C30.367 42.4334 28.6653 41.238 26.6701 39.8633L23.0423 37.3638L23.0002 33.7166L22.9584 30.0695L23.8835 30.9046C24.3925 31.3641 26.3522 33.175 28.2386 34.929ZM77.5626 37.1295V39.8633L67.9161 39.9036L58.2696 39.9438V37.2348C58.2696 35.7449 58.3169 34.4785 58.3749 34.4205C58.4328 34.3625 62.7738 34.3333 68.0214 34.3554L77.5626 34.3957V37.1295ZM77.4493 42.4159C77.6008 42.512 77.6382 43.1756 77.6055 45.1863L77.5626 47.8305L67.9161 47.8708L58.2696 47.9109V45.2019C58.2696 43.7121 58.3164 42.4461 58.3738 42.3889C58.524 42.2385 77.2115 42.265 77.4493 42.4159ZM77.4493 50.3831C77.6008 50.4791 77.6382 51.1428 77.6055 53.1535L77.5626 55.7976L67.9161 55.8379L58.2696 55.8781V53.1691C58.2696 51.6792 58.3164 50.4132 58.3738 50.356C58.524 50.2056 77.2115 50.2322 77.4493 50.3831ZM21.4673 58.3138C21.6796 58.3952 21.7144 58.7923 21.7144 61.127V63.8452L12.0679 63.8051L2.42139 63.7648L2.37843 61.1206C2.34578 59.1099 2.38312 58.4463 2.53465 58.3502C2.7632 58.2051 21.0923 58.1699 21.4673 58.3138ZM49.4304 58.3138C49.6427 58.3952 49.6775 58.7922 49.6775 61.1258V63.8429H39.992H30.3064V61.122C30.3064 59.0916 30.3559 58.3813 30.5017 58.3224C30.7832 58.2088 49.1351 58.2006 49.4304 58.3138ZM77.4693 58.4351C77.5922 58.5831 77.635 59.455 77.6055 61.2079L77.5626 63.7648L67.9161 63.8051L58.2696 63.8452V61.1233C58.2696 59.0918 58.3191 58.3813 58.4648 58.3224C58.5723 58.2791 62.8518 58.2381 67.9751 58.2313C75.7253 58.221 77.3201 58.2552 77.4693 58.4351ZM21.7144 69.0595C21.7144 71.3931 21.6796 71.79 21.4673 71.8714C21.3313 71.9236 17.0572 71.9662 11.9692 71.9662C4.98228 71.9662 2.67228 71.9203 2.53074 71.7788C2.3286 71.5766 2.25158 66.6423 2.44748 66.4466C2.50465 66.3892 6.86315 66.3424 12.133 66.3424H21.7144V69.0595ZM49.6775 69.0595C49.6775 71.3931 49.6427 71.79 49.4304 71.8714C49.1077 71.9953 30.8763 71.9953 30.5536 71.8714C30.3413 71.79 30.3064 71.3931 30.3064 69.0595V66.3424H39.992H49.6775V69.0595ZM77.6055 68.9773C77.635 70.7302 77.5922 71.6021 77.4693 71.7502C77.3203 71.9297 75.7218 71.9662 68.0268 71.9662C62.9322 71.9662 58.6526 71.9236 58.5167 71.8714C58.3044 71.79 58.2696 71.3929 58.2696 69.0582V66.34L67.9161 66.3802L77.5626 66.4205L77.6055 68.9773Z" fill="#0066FF"/>
<path fill-rule="evenodd" clip-rule="evenodd" d="M66.2481 0.0550457C65.37 0.239227 64.8473 0.829578 64.682 1.82407L64.5911 2.37083L56.0511 2.41129L47.5111 2.4516L47.1883 2.86183C47.0109 3.08756 46.8656 3.49295 46.8656 3.7629C46.8656 4.03284 47.3889 5.55972 48.0286 7.15612L49.1917 10.0588L48.0286 13.0103C47.3889 14.6335 46.8656 16.1934 46.8656 16.4766C46.8656 16.815 46.997 17.1229 47.2491 17.3749L47.6325 17.7584H56.1536H64.6745V24.8555V31.9529L61.1868 32.0025C57.7094 32.0522 57.697 32.0536 57.0714 32.4681C55.9627 33.2023 55.8482 33.6385 55.8482 37.1295C55.8482 39.3592 55.9057 40.3118 56.0623 40.6835C56.2439 41.1135 56.2439 41.2688 56.0623 41.6989C55.9063 42.069 55.8482 43.0111 55.8482 45.1747C55.8482 47.3384 55.9063 48.2805 56.0623 48.6506C56.2439 49.0807 56.2439 49.236 56.0623 49.666C55.9063 50.0361 55.8482 50.9783 55.8482 53.1419C55.8482 55.3055 55.9063 56.2477 56.0623 56.6178C56.2439 57.0478 56.2439 57.2031 56.0623 57.6332C55.9063 58.0033 55.8482 58.9454 55.8482 61.109C55.8482 63.2727 55.9063 64.2148 56.0623 64.5849C56.2439 65.015 56.2439 65.1703 56.0623 65.6003C55.9057 65.972 55.8482 66.9246 55.8482 69.1543C55.8482 71.7368 55.8889 72.2751 56.1159 72.6897C56.4868 73.3672 57.2315 73.9579 57.9627 74.1549C58.3753 74.2659 61.7974 74.3059 68.3166 74.2761L78.0543 74.2314L78.7191 73.7915C79.8405 73.0491 79.9765 72.5446 79.9805 69.1103C79.9832 66.8951 79.9285 66.0434 79.7576 65.6344C79.56 65.1614 79.56 65.0239 79.7576 64.5509C79.9277 64.1438 79.984 63.2881 79.984 61.109C79.984 58.93 79.9277 58.0743 79.7576 57.6672C79.56 57.1942 79.56 57.0567 79.7576 56.5837C79.9277 56.1766 79.984 55.321 79.984 53.1419C79.984 50.9628 79.9277 50.1072 79.7576 49.7001C79.56 49.2271 79.56 49.0896 79.7576 48.6166C80.0808 47.8431 80.0808 42.5064 79.7576 41.7329C79.56 41.2599 79.56 41.1224 79.7576 40.6494C79.9285 40.2404 79.9832 39.3887 79.9805 37.1735C79.9775 34.6622 79.9357 34.1495 79.6901 33.6146C79.0195 32.1539 78.4447 31.9743 74.4432 31.9743H71.2357V28.871C71.2357 25.968 71.2148 25.7411 70.9119 25.3561C70.5062 24.8402 69.6701 24.7916 69.2049 25.2569C68.9127 25.549 68.8924 25.7775 68.8924 28.7718V31.9743H67.9551H67.0178V17.1257V2.2771L67.9161 2.32397L68.8143 2.37083L68.8924 12.0119C68.9776 22.5194 68.9268 21.9863 69.8649 22.2162C70.2083 22.3004 70.3818 22.2293 70.7632 21.848L71.2357 21.3755L71.2354 11.5607C71.2352 2.52533 71.2135 1.70346 70.962 1.21028C70.4649 0.235165 70.018 0.0386426 68.2219 0.00536799C67.3449 -0.011035 66.4567 0.0114606 66.2481 0.0550457ZM64.6745 10.1037V15.4151H57.176C53.0519 15.4151 49.6775 15.3829 49.6775 15.3437C49.6775 15.3043 50.0989 14.1972 50.6138 12.8833C51.1285 11.5693 51.5503 10.3019 51.5511 10.0668C51.5517 9.83168 51.1304 8.58287 50.6148 7.29172C50.0993 6.00057 49.6775 4.91001 49.6775 4.86814C49.6775 4.82643 53.0519 4.79222 57.176 4.79222H64.6745V10.1037ZM15.3652 9.17697C13.5032 9.42582 11.6258 10.8224 10.8085 12.5663C10.4362 13.3605 10.3885 13.6487 10.3885 15.1027C10.3885 16.5895 10.4301 16.8276 10.8335 17.6492C11.378 18.7582 12.4922 19.8972 13.5229 20.3988C14.5124 20.8802 14.4887 20.8498 14.0917 21.1278C13.4243 21.5953 12.9227 22.7093 12.8402 23.9065L12.7634 25.0225L6.92767 30.0215C0.391328 35.6209 0.676114 35.2794 0.822023 37.3405C0.912942 38.6245 1.35973 39.2245 2.2219 39.2205C2.55542 39.2188 4.42193 38.4127 7.57661 36.908C10.2401 35.6374 12.5073 34.5625 12.6147 34.5191C12.7684 34.4572 12.8087 35.418 12.8043 39.0264L12.7987 43.6126L11.5091 49.7051L10.2197 55.7976L6.08612 55.8757C1.71997 55.9582 1.43346 56.0059 0.747662 56.7637C0.107322 57.4712 0 58.095 0 61.109C0 63.2881 0.0562387 64.1438 0.226361 64.5509C0.423977 65.0239 0.423977 65.1614 0.226361 65.6344C0.0554576 66.0434 0.000781093 66.8951 0.00343681 69.1103C0.0074985 72.5446 0.143409 73.0491 1.2649 73.7915L1.92961 74.2314L11.6673 74.2761C18.1865 74.3059 21.6086 74.2659 22.0212 74.1549C22.7525 73.9579 23.4972 73.3672 23.868 72.6897C24.095 72.2751 24.1358 71.7368 24.1358 69.1543C24.1358 66.9246 24.0783 65.972 23.9216 65.6003C23.7401 65.1703 23.7401 65.015 23.9216 64.5849C24.0783 64.2133 24.1358 63.2606 24.1358 61.0309C24.1358 57.6741 24.0742 57.4053 23.1211 56.6034C22.4025 55.9987 21.7191 55.8776 19.0196 55.8767C17.6665 55.8762 16.5592 55.8401 16.5592 55.7964C16.5592 55.7528 17.9826 53.277 19.7226 50.2948L22.886 44.8723L22.9365 42.5539C22.9643 41.2788 23.0385 40.2571 23.1016 40.2837C23.1647 40.3103 24.4224 41.1637 25.8967 42.1802L28.5768 44.0284L28.9911 45.3827C29.2188 46.1275 29.4939 47.0295 29.6022 47.3873L29.799 48.0376L29.2448 48.4027C28.073 49.1747 28.0469 49.2691 27.9934 52.9238C27.9563 55.4596 27.9938 56.2955 28.1594 56.6274C28.3346 56.9786 28.3374 57.14 28.1753 57.5204C27.8775 58.2184 27.8878 64.0855 28.1878 64.6604C28.3817 65.032 28.3804 65.1478 28.1779 65.5533C27.9892 65.9317 27.9545 66.6362 27.9934 69.2943C28.0375 72.3166 28.0661 72.6024 28.3634 73.0001C28.8289 73.6229 29.385 73.9979 30.0841 74.16C30.8836 74.3453 49.1003 74.3453 49.8998 74.16C50.5989 73.9979 51.155 73.6229 51.6206 73.0001C51.9179 72.6024 51.9465 72.3166 51.9905 69.2943C52.0294 66.6362 51.9947 65.9317 51.806 65.5533C51.6036 65.1478 51.6023 65.032 51.7962 64.6604C52.0967 64.0841 52.1064 58.2184 51.8079 57.5182C51.6459 57.1383 51.647 56.9789 51.814 56.659C52.1095 56.0924 52.1045 50.2861 51.8077 49.5756C51.5361 48.9254 50.7689 48.2785 50.0242 48.0717C49.7047 47.9829 48.3806 47.91 47.082 47.9095C44.929 47.9086 44.6843 47.9372 44.3091 48.2324C43.7932 48.6381 43.7447 49.4742 44.2099 49.9394C44.4944 50.2239 44.7306 50.2519 46.8528 50.2519C48.1346 50.2519 49.2945 50.2945 49.4304 50.3467C49.6427 50.4281 49.6775 50.825 49.6775 53.1586V55.8757H39.992H30.3064V53.1586C30.3064 50.825 30.3413 50.4281 30.5536 50.3467C30.6895 50.2945 32.9585 50.2519 35.5958 50.2519C41.0486 50.2519 41.0855 50.2445 41.0855 49.1608C41.0855 48.6936 40.9919 48.4825 40.6739 48.2324C40.3124 47.9479 40.0465 47.9086 38.4868 47.9086C37.5103 47.9086 36.7114 47.8767 36.7114 47.8376C36.7114 47.5483 33.8601 37.3504 33.684 37.0098C33.5605 36.771 31.1034 34.398 28.224 31.7363L22.9885 26.8972L22.9763 25.5132L22.9641 24.1293L27.846 19.1364C30.5311 16.3902 32.8508 13.921 33.0012 13.6492C33.383 12.9589 33.3828 10.7118 33.0009 9.94744C32.6766 9.29803 31.8016 8.92452 31.1684 9.16525C30.9554 9.24633 28.889 10.6504 26.5764 12.2857C24.2639 13.921 22.3391 15.2589 22.2991 15.2589C22.2591 15.2589 22.1891 14.8466 22.1434 14.343C21.8466 11.0694 18.7669 8.72221 15.3652 9.17697ZM18.1215 12.0173C21.2207 13.8784 19.8685 18.6957 16.2467 18.6957C12.625 18.6957 11.2727 13.8784 14.372 12.0173C15.0979 11.5815 15.3632 11.5096 16.2467 11.5096C17.1303 11.5096 17.3956 11.5815 18.1215 12.0173ZM30.049 13.4677C29.5461 14.0196 27.2192 16.4347 24.8778 18.8349L20.6209 23.1987V33.6407V44.0826L17.2076 49.9402L13.7944 55.7976L13.2241 55.846C12.9104 55.8728 12.6537 55.8315 12.6537 55.7547C12.6537 55.6776 13.2161 52.964 13.9035 49.7245L15.1532 43.8344V33.7075C15.1532 23.7642 15.159 23.5733 15.4706 23.1771C15.6451 22.9551 18.4044 20.9295 21.6022 18.6755C24.8 16.4216 28.1897 14.0315 29.1348 13.3641C30.0799 12.6967 30.8779 12.2214 30.9082 12.3076C30.9383 12.3938 30.5517 12.9159 30.049 13.4677ZM12.6979 31.824C12.5884 31.9226 11.5255 32.4332 5.00009 35.5223C4.01263 35.9899 3.26231 36.3142 3.33293 36.2433C3.40354 36.1722 5.54717 34.3182 8.0965 32.1231L12.7318 28.1321L12.776 29.9231C12.8004 30.9081 12.7653 31.7635 12.6979 31.824ZM28.2386 34.929L31.6683 38.1182L32.9401 42.8347C33.6397 45.4289 34.2119 47.6318 34.2119 47.73C34.2119 47.8451 33.861 47.9086 33.2241 47.9086H32.2363L31.4206 45.2927C30.9721 43.8541 30.5359 42.6062 30.4514 42.5198C30.367 42.4334 28.6653 41.238 26.6701 39.8633L23.0423 37.3638L23.0002 33.7166L22.9584 30.0695L23.8835 30.9046C24.3925 31.3641 26.3522 33.175 28.2386 34.929ZM77.5626 37.1295V39.8633L67.9161 39.9036L58.2696 39.9438V37.2348C58.2696 35.7449 58.3169 34.4785 58.3749 34.4205C58.4328 34.3625 62.7738 34.3333 68.0214 34.3554L77.5626 34.3957V37.1295ZM77.4493 42.4159C77.6008 42.512 77.6382 43.1756 77.6055 45.1863L77.5626 47.8305L67.9161 47.8708L58.2696 47.9109V45.2019C58.2696 43.7121 58.3164 42.4461 58.3738 42.3889C58.524 42.2385 77.2115 42.265 77.4493 42.4159ZM77.4493 50.3831C77.6008 50.4791 77.6382 51.1428 77.6055 53.1535L77.5626 55.7976L67.9161 55.8379L58.2696 55.8781V53.1691C58.2696 51.6792 58.3164 50.4132 58.3738 50.356C58.524 50.2056 77.2115 50.2322 77.4493 50.3831ZM21.4673 58.3138C21.6796 58.3952 21.7144 58.7923 21.7144 61.127V63.8452L12.0679 63.8051L2.42139 63.7648L2.37843 61.1206C2.34578 59.1099 2.38312 58.4463 2.53465 58.3502C2.7632 58.2051 21.0923 58.1699 21.4673 58.3138ZM49.4304 58.3138C49.6427 58.3952 49.6775 58.7922 49.6775 61.1258V63.8429H39.992H30.3064V61.122C30.3064 59.0916 30.3559 58.3813 30.5017 58.3224C30.7832 58.2088 49.1351 58.2006 49.4304 58.3138ZM77.4693 58.4351C77.5922 58.5831 77.635 59.455 77.6055 61.2079L77.5626 63.7648L67.9161 63.8051L58.2696 63.8452V61.1233C58.2696 59.0918 58.3191 58.3813 58.4648 58.3224C58.5723 58.2791 62.8518 58.2381 67.9751 58.2313C75.7253 58.221 77.3201 58.2552 77.4693 58.4351ZM21.7144 69.0595C21.7144 71.3931 21.6796 71.79 21.4673 71.8714C21.3313 71.9236 17.0572 71.9662 11.9692 71.9662C4.98228 71.9662 2.67228 71.9203 2.53074 71.7788C2.3286 71.5766 2.25158 66.6423 2.44748 66.4466C2.50465 66.3892 6.86315 66.3424 12.133 66.3424H21.7144V69.0595ZM49.6775 69.0595C49.6775 71.3931 49.6427 71.79 49.4304 71.8714C49.1077 71.9953 30.8763 71.9953 30.5536 71.8714C30.3413 71.79 30.3064 71.3931 30.3064 69.0595V66.3424H39.992H49.6775V69.0595ZM77.6055 68.9773C77.635 70.7302 77.5922 71.6021 77.4693 71.7502C77.3203 71.9297 75.7218 71.9662 68.0268 71.9662C62.9322 71.9662 58.6526 71.9236 58.5167 71.8714C58.3044 71.79 58.2696 71.3929 58.2696 69.0582V66.34L67.9161 66.3802L77.5626 66.4205L77.6055 68.9773Z" fill="url(#paint0_radial_1376_181)" fill-opacity="0.7"/>
<path fill-rule="evenodd" clip-rule="evenodd" d="M66.2481 0.0550457C65.37 0.239227 64.8473 0.829578 64.682 1.82407L64.5911 2.37083L56.0511 2.41129L47.5111 2.4516L47.1883 2.86183C47.0109 3.08756 46.8656 3.49295 46.8656 3.7629C46.8656 4.03284 47.3889 5.55972 48.0286 7.15612L49.1917 10.0588L48.0286 13.0103C47.3889 14.6335 46.8656 16.1934 46.8656 16.4766C46.8656 16.815 46.997 17.1229 47.2491 17.3749L47.6325 17.7584H56.1536H64.6745V24.8555V31.9529L61.1868 32.0025C57.7094 32.0522 57.697 32.0536 57.0714 32.4681C55.9627 33.2023 55.8482 33.6385 55.8482 37.1295C55.8482 39.3592 55.9057 40.3118 56.0623 40.6835C56.2439 41.1135 56.2439 41.2688 56.0623 41.6989C55.9063 42.069 55.8482 43.0111 55.8482 45.1747C55.8482 47.3384 55.9063 48.2805 56.0623 48.6506C56.2439 49.0807 56.2439 49.236 56.0623 49.666C55.9063 50.0361 55.8482 50.9783 55.8482 53.1419C55.8482 55.3055 55.9063 56.2477 56.0623 56.6178C56.2439 57.0478 56.2439 57.2031 56.0623 57.6332C55.9063 58.0033 55.8482 58.9454 55.8482 61.109C55.8482 63.2727 55.9063 64.2148 56.0623 64.5849C56.2439 65.015 56.2439 65.1703 56.0623 65.6003C55.9057 65.972 55.8482 66.9246 55.8482 69.1543C55.8482 71.7368 55.8889 72.2751 56.1159 72.6897C56.4868 73.3672 57.2315 73.9579 57.9627 74.1549C58.3753 74.2659 61.7974 74.3059 68.3166 74.2761L78.0543 74.2314L78.7191 73.7915C79.8405 73.0491 79.9765 72.5446 79.9805 69.1103C79.9832 66.8951 79.9285 66.0434 79.7576 65.6344C79.56 65.1614 79.56 65.0239 79.7576 64.5509C79.9277 64.1438 79.984 63.2881 79.984 61.109C79.984 58.93 79.9277 58.0743 79.7576 57.6672C79.56 57.1942 79.56 57.0567 79.7576 56.5837C79.9277 56.1766 79.984 55.321 79.984 53.1419C79.984 50.9628 79.9277 50.1072 79.7576 49.7001C79.56 49.2271 79.56 49.0896 79.7576 48.6166C80.0808 47.8431 80.0808 42.5064 79.7576 41.7329C79.56 41.2599 79.56 41.1224 79.7576 40.6494C79.9285 40.2404 79.9832 39.3887 79.9805 37.1735C79.9775 34.6622 79.9357 34.1495 79.6901 33.6146C79.0195 32.1539 78.4447 31.9743 74.4432 31.9743H71.2357V28.871C71.2357 25.968 71.2148 25.7411 70.9119 25.3561C70.5062 24.8402 69.6701 24.7916 69.2049 25.2569C68.9127 25.549 68.8924 25.7775 68.8924 28.7718V31.9743H67.9551H67.0178V17.1257V2.2771L67.9161 2.32397L68.8143 2.37083L68.8924 12.0119C68.9776 22.5194 68.9268 21.9863 69.8649 22.2162C70.2083 22.3004 70.3818 22.2293 70.7632 21.848L71.2357 21.3755L71.2354 11.5607C71.2352 2.52533 71.2135 1.70346 70.962 1.21028C70.4649 0.235165 70.018 0.0386426 68.2219 0.00536799C67.3449 -0.011035 66.4567 0.0114606 66.2481 0.0550457ZM64.6745 10.1037V15.4151H57.176C53.0519 15.4151 49.6775 15.3829 49.6775 15.3437C49.6775 15.3043 50.0989 14.1972 50.6138 12.8833C51.1285 11.5693 51.5503 10.3019 51.5511 10.0668C51.5517 9.83168 51.1304 8.58287 50.6148 7.29172C50.0993 6.00057 49.6775 4.91001 49.6775 4.86814C49.6775 4.82643 53.0519 4.79222 57.176 4.79222H64.6745V10.1037ZM15.3652 9.17697C13.5032 9.42582 11.6258 10.8224 10.8085 12.5663C10.4362 13.3605 10.3885 13.6487 10.3885 15.1027C10.3885 16.5895 10.4301 16.8276 10.8335 17.6492C11.378 18.7582 12.4922 19.8972 13.5229 20.3988C14.5124 20.8802 14.4887 20.8498 14.0917 21.1278C13.4243 21.5953 12.9227 22.7093 12.8402 23.9065L12.7634 25.0225L6.92767 30.0215C0.391328 35.6209 0.676114 35.2794 0.822023 37.3405C0.912942 38.6245 1.35973 39.2245 2.2219 39.2205C2.55542 39.2188 4.42193 38.4127 7.57661 36.908C10.2401 35.6374 12.5073 34.5625 12.6147 34.5191C12.7684 34.4572 12.8087 35.418 12.8043 39.0264L12.7987 43.6126L11.5091 49.7051L10.2197 55.7976L6.08612 55.8757C1.71997 55.9582 1.43346 56.0059 0.747662 56.7637C0.107322 57.4712 0 58.095 0 61.109C0 63.2881 0.0562387 64.1438 0.226361 64.5509C0.423977 65.0239 0.423977 65.1614 0.226361 65.6344C0.0554576 66.0434 0.000781093 66.8951 0.00343681 69.1103C0.0074985 72.5446 0.143409 73.0491 1.2649 73.7915L1.92961 74.2314L11.6673 74.2761C18.1865 74.3059 21.6086 74.2659 22.0212 74.1549C22.7525 73.9579 23.4972 73.3672 23.868 72.6897C24.095 72.2751 24.1358 71.7368 24.1358 69.1543C24.1358 66.9246 24.0783 65.972 23.9216 65.6003C23.7401 65.1703 23.7401 65.015 23.9216 64.5849C24.0783 64.2133 24.1358 63.2606 24.1358 61.0309C24.1358 57.6741 24.0742 57.4053 23.1211 56.6034C22.4025 55.9987 21.7191 55.8776 19.0196 55.8767C17.6665 55.8762 16.5592 55.8401 16.5592 55.7964C16.5592 55.7528 17.9826 53.277 19.7226 50.2948L22.886 44.8723L22.9365 42.5539C22.9643 41.2788 23.0385 40.2571 23.1016 40.2837C23.1647 40.3103 24.4224 41.1637 25.8967 42.1802L28.5768 44.0284L28.9911 45.3827C29.2188 46.1275 29.4939 47.0295 29.6022 47.3873L29.799 48.0376L29.2448 48.4027C28.073 49.1747 28.0469 49.2691 27.9934 52.9238C27.9563 55.4596 27.9938 56.2955 28.1594 56.6274C28.3346 56.9786 28.3374 57.14 28.1753 57.5204C27.8775 58.2184 27.8878 64.0855 28.1878 64.6604C28.3817 65.032 28.3804 65.1478 28.1779 65.5533C27.9892 65.9317 27.9545 66.6362 27.9934 69.2943C28.0375 72.3166 28.0661 72.6024 28.3634 73.0001C28.8289 73.6229 29.385 73.9979 30.0841 74.16C30.8836 74.3453 49.1003 74.3453 49.8998 74.16C50.5989 73.9979 51.155 73.6229 51.6206 73.0001C51.9179 72.6024 51.9465 72.3166 51.9905 69.2943C52.0294 66.6362 51.9947 65.9317 51.806 65.5533C51.6036 65.1478 51.6023 65.032 51.7962 64.6604C52.0967 64.0841 52.1064 58.2184 51.8079 57.5182C51.6459 57.1383 51.647 56.9789 51.814 56.659C52.1095 56.0924 52.1045 50.2861 51.8077 49.5756C51.5361 48.9254 50.7689 48.2785 50.0242 48.0717C49.7047 47.9829 48.3806 47.91 47.082 47.9095C44.929 47.9086 44.6843 47.9372 44.3091 48.2324C43.7932 48.6381 43.7447 49.4742 44.2099 49.9394C44.4944 50.2239 44.7306 50.2519 46.8528 50.2519C48.1346 50.2519 49.2945 50.2945 49.4304 50.3467C49.6427 50.4281 49.6775 50.825 49.6775 53.1586V55.8757H39.992H30.3064V53.1586C30.3064 50.825 30.3413 50.4281 30.5536 50.3467C30.6895 50.2945 32.9585 50.2519 35.5958 50.2519C41.0486 50.2519 41.0855 50.2445 41.0855 49.1608C41.0855 48.6936 40.9919 48.4825 40.6739 48.2324C40.3124 47.9479 40.0465 47.9086 38.4868 47.9086C37.5103 47.9086 36.7114 47.8767 36.7114 47.8376C36.7114 47.5483 33.8601 37.3504 33.684 37.0098C33.5605 36.771 31.1034 34.398 28.224 31.7363L22.9885 26.8972L22.9763 25.5132L22.9641 24.1293L27.846 19.1364C30.5311 16.3902 32.8508 13.921 33.0012 13.6492C33.383 12.9589 33.3828 10.7118 33.0009 9.94744C32.6766 9.29803 31.8016 8.92452 31.1684 9.16525C30.9554 9.24633 28.889 10.6504 26.5764 12.2857C24.2639 13.921 22.3391 15.2589 22.2991 15.2589C22.2591 15.2589 22.1891 14.8466 22.1434 14.343C21.8466 11.0694 18.7669 8.72221 15.3652 9.17697ZM18.1215 12.0173C21.2207 13.8784 19.8685 18.6957 16.2467 18.6957C12.625 18.6957 11.2727 13.8784 14.372 12.0173C15.0979 11.5815 15.3632 11.5096 16.2467 11.5096C17.1303 11.5096 17.3956 11.5815 18.1215 12.0173ZM30.049 13.4677C29.5461 14.0196 27.2192 16.4347 24.8778 18.8349L20.6209 23.1987V33.6407V44.0826L17.2076 49.9402L13.7944 55.7976L13.2241 55.846C12.9104 55.8728 12.6537 55.8315 12.6537 55.7547C12.6537 55.6776 13.2161 52.964 13.9035 49.7245L15.1532 43.8344V33.7075C15.1532 23.7642 15.159 23.5733 15.4706 23.1771C15.6451 22.9551 18.4044 20.9295 21.6022 18.6755C24.8 16.4216 28.1897 14.0315 29.1348 13.3641C30.0799 12.6967 30.8779 12.2214 30.9082 12.3076C30.9383 12.3938 30.5517 12.9159 30.049 13.4677ZM12.6979 31.824C12.5884 31.9226 11.5255 32.4332 5.00009 35.5223C4.01263 35.9899 3.26231 36.3142 3.33293 36.2433C3.40354 36.1722 5.54717 34.3182 8.0965 32.1231L12.7318 28.1321L12.776 29.9231C12.8004 30.9081 12.7653 31.7635 12.6979 31.824ZM28.2386 34.929L31.6683 38.1182L32.9401 42.8347C33.6397 45.4289 34.2119 47.6318 34.2119 47.73C34.2119 47.8451 33.861 47.9086 33.2241 47.9086H32.2363L31.4206 45.2927C30.9721 43.8541 30.5359 42.6062 30.4514 42.5198C30.367 42.4334 28.6653 41.238 26.6701 39.8633L23.0423 37.3638L23.0002 33.7166L22.9584 30.0695L23.8835 30.9046C24.3925 31.3641 26.3522 33.175 28.2386 34.929ZM77.5626 37.1295V39.8633L67.9161 39.9036L58.2696 39.9438V37.2348C58.2696 35.7449 58.3169 34.4785 58.3749 34.4205C58.4328 34.3625 62.7738 34.3333 68.0214 34.3554L77.5626 34.3957V37.1295ZM77.4493 42.4159C77.6008 42.512 77.6382 43.1756 77.6055 45.1863L77.5626 47.8305L67.9161 47.8708L58.2696 47.9109V45.2019C58.2696 43.7121 58.3164 42.4461 58.3738 42.3889C58.524 42.2385 77.2115 42.265 77.4493 42.4159ZM77.4493 50.3831C77.6008 50.4791 77.6382 51.1428 77.6055 53.1535L77.5626 55.7976L67.9161 55.8379L58.2696 55.8781V53.1691C58.2696 51.6792 58.3164 50.4132 58.3738 50.356C58.524 50.2056 77.2115 50.2322 77.4493 50.3831ZM21.4673 58.3138C21.6796 58.3952 21.7144 58.7923 21.7144 61.127V63.8452L12.0679 63.8051L2.42139 63.7648L2.37843 61.1206C2.34578 59.1099 2.38312 58.4463 2.53465 58.3502C2.7632 58.2051 21.0923 58.1699 21.4673 58.3138ZM49.4304 58.3138C49.6427 58.3952 49.6775 58.7922 49.6775 61.1258V63.8429H39.992H30.3064V61.122C30.3064 59.0916 30.3559 58.3813 30.5017 58.3224C30.7832 58.2088 49.1351 58.2006 49.4304 58.3138ZM77.4693 58.4351C77.5922 58.5831 77.635 59.455 77.6055 61.2079L77.5626 63.7648L67.9161 63.8051L58.2696 63.8452V61.1233C58.2696 59.0918 58.3191 58.3813 58.4648 58.3224C58.5723 58.2791 62.8518 58.2381 67.9751 58.2313C75.7253 58.221 77.3201 58.2552 77.4693 58.4351ZM21.7144 69.0595C21.7144 71.3931 21.6796 71.79 21.4673 71.8714C21.3313 71.9236 17.0572 71.9662 11.9692 71.9662C4.98228 71.9662 2.67228 71.9203 2.53074 71.7788C2.3286 71.5766 2.25158 66.6423 2.44748 66.4466C2.50465 66.3892 6.86315 66.3424 12.133 66.3424H21.7144V69.0595ZM49.6775 69.0595C49.6775 71.3931 49.6427 71.79 49.4304 71.8714C49.1077 71.9953 30.8763 71.9953 30.5536 71.8714C30.3413 71.79 30.3064 71.3931 30.3064 69.0595V66.3424H39.992H49.6775V69.0595ZM77.6055 68.9773C77.635 70.7302 77.5922 71.6021 77.4693 71.7502C77.3203 71.9297 75.7218 71.9662 68.0268 71.9662C62.9322 71.9662 58.6526 71.9236 58.5167 71.8714C58.3044 71.79 58.2696 71.3929 58.2696 69.0582V66.34L67.9161 66.3802L77.5626 66.4205L77.6055 68.9773Z" fill="url(#paint1_radial_1376_181)"/>
<defs>
<radialGradient id="paint0_radial_1376_181" cx="0" cy="0" r="1" gradientUnits="userSpaceOnUse" gradientTransform="translate(21.1111 15.479) rotate(48.9589) scale(64.3042 65.1355)">
<stop stop-color="white" stop-opacity="0.59"/>
<stop offset="0.697917" stop-color="white" stop-opacity="0"/>
<stop offset="1" stop-color="white" stop-opacity="0"/>
</radialGradient>
<radialGradient id="paint1_radial_1376_181" cx="0" cy="0" r="1" gradientUnits="userSpaceOnUse" gradientTransform="translate(69.0411 65.0116) rotate(-93.9513) scale(63.6149 76.292)">
<stop stop-opacity="0.23"/>
<stop offset="0.861815" stop-opacity="0"/>
</radialGradient>
</defs>
</svg>
