<svg width="81" height="81" viewBox="0 0 81 81" fill="none" xmlns="http://www.w3.org/2000/svg">
<path fill-rule="evenodd" clip-rule="evenodd" d="M38.0009 0.343157C36.1147 0.56782 34.0858 0.978005 32.5213 1.45081C30.6583 2.01396 28.1619 3.09218 27.9503 3.42534C27.7287 3.774 27.8208 4.42466 28.1316 4.70584C28.5299 5.0664 28.9241 4.98968 30.8775 4.17166C33.8466 2.92826 37.1109 2.2906 40.5059 2.2906C43.9008 2.2906 47.1651 2.92826 50.1343 4.17166C52.0877 4.98968 52.4819 5.0664 52.8802 4.70584C53.1909 4.42466 53.283 3.774 53.0614 3.42534C52.6575 2.78971 47.9816 1.1366 45.2026 0.647196C43.7812 0.396857 39.1811 0.202567 38.0009 0.343157ZM12.1995 1.89779C6.11276 3.21931 1.84996 8.45371 1.83837 14.6204C1.82757 20.4131 5.51157 25.3807 11.151 27.1779C12.628 27.6485 15.8254 27.7816 17.4359 27.4392C22.5701 26.348 26.5251 22.393 27.6163 17.2588C27.9587 15.6482 27.8257 12.4508 27.355 10.9738C25.8666 6.30306 22.112 2.86282 17.4591 1.90656C16.0064 1.608 13.5528 1.60393 12.1995 1.89779ZM63.4418 1.91846C58.8318 2.90415 55.1013 6.37977 53.6324 11.0576C53.3135 12.0732 53.2654 12.5443 53.2654 14.653C53.2654 16.7623 53.3135 17.2326 53.6329 18.2496C55.142 23.0558 58.7824 26.4205 63.5758 27.4392C65.1863 27.7816 68.3838 27.6485 69.8607 27.1779C75.5002 25.3807 79.1842 20.4131 79.1733 14.6204C79.1618 8.41896 74.8788 3.19144 68.7443 1.89184C67.379 1.60252 64.8598 1.6152 63.4418 1.91846ZM17.5364 3.99835C24.1116 5.68011 27.6384 12.7859 24.9866 19.0093C24.639 19.8248 23.4628 21.6982 23.2984 21.6982C23.2402 21.6982 23.0645 21.3213 22.908 20.8607C22.4901 19.6313 21.2938 17.9741 20.1843 17.0878L19.2147 16.313L19.5967 15.9136C19.807 15.6938 20.1749 15.0914 20.4146 14.5747C20.7902 13.7651 20.8502 13.4408 20.8484 12.2263C20.8459 10.5314 20.4649 9.41514 19.5241 8.34631C16.2874 4.6692 10.4603 6.05413 9.24723 10.7888C8.83501 12.3976 9.23345 14.4022 10.2232 15.6997C10.6123 16.2098 10.6259 16.2717 10.3796 16.4094C8.99924 17.182 7.44085 19.0919 6.83481 20.7539C6.64553 21.2733 6.44717 21.698 6.39409 21.6978C6.24912 21.6974 5.35078 20.3206 4.89222 19.3964C3.86879 17.3331 3.57759 14.2848 4.17909 11.9325C5.159 8.1013 8.22913 5.00988 12.0481 4.00931C13.6069 3.60084 15.9636 3.59615 17.5364 3.99835ZM68.9021 4.00195C71.8356 4.75234 74.5187 6.85008 75.8591 9.4416C77.8005 13.1945 77.5611 17.4706 75.2147 20.9542C74.9394 21.3631 74.6666 21.6977 74.6089 21.6978C74.5509 21.698 74.418 21.434 74.3136 21.1111C73.8074 19.5463 72.7183 17.998 71.4168 16.994L70.5678 16.339L70.9388 15.8983C73.3306 13.0556 72.2558 8.45105 68.821 6.82675C64.727 4.89058 60.0997 8.0692 60.4236 12.5953C60.5052 13.7348 61.077 15.2265 61.6771 15.8652C61.859 16.0589 61.9783 16.2382 61.9421 16.2634C60.7784 17.0775 59.9504 17.7954 59.4603 18.4154C58.8333 19.2087 58.1479 20.5111 57.9567 21.2726C57.898 21.5067 57.7955 21.6982 57.7288 21.6982C57.5519 21.6982 56.3885 19.862 56.0251 19.0093C54.0423 14.3558 55.546 8.78765 59.5867 5.82164C62.2009 3.90269 65.78 3.2035 68.9021 4.00195ZM16.6306 8.60714C17.5713 9.05193 18.1467 9.63636 18.5749 10.5824C19.2534 12.0813 18.8125 14.0327 17.5555 15.0934C17.2191 15.3774 16.7851 15.7414 16.5914 15.9023C16.1706 16.2519 16.1338 16.8598 16.5131 17.1944C16.6639 17.3272 17.2383 17.6617 17.7899 17.9378C19.5916 18.8392 20.8591 20.5067 21.2846 22.5353C21.4706 23.422 21.4657 23.4519 21.0883 23.7405C20.8754 23.9031 20.2604 24.2545 19.7218 24.5212C16.2949 26.2187 12.4166 26.0245 8.98813 23.9838C8.24009 23.5387 8.23492 23.5301 8.33919 22.8907C8.72542 20.5219 10.0375 18.7724 12.1353 17.829C13.2807 17.314 13.5783 17.049 13.5753 16.5466C13.5723 16.0406 13.5017 15.9427 12.6754 15.2996C11.6958 14.537 11.2008 13.5961 11.1142 12.332C11.0508 11.4078 11.094 11.1894 11.4882 10.4428C12.5203 8.48753 14.718 7.70301 16.6306 8.60714ZM68.29 8.77075C70.7691 10.2236 70.8925 13.6753 68.5259 15.3754C67.1538 16.3611 67.2484 17.0091 68.884 17.8283C70.7815 18.779 72.0145 20.2672 72.544 22.2461C72.8548 23.4078 72.8246 23.5069 72.0134 23.9899C68.5965 26.024 64.7124 26.2165 61.2899 24.5212C60.7513 24.2545 60.1368 23.9033 59.9244 23.7411C59.5432 23.4497 59.5408 23.4333 59.7417 22.4547C60.1923 20.2602 61.746 18.4278 63.8332 17.6292C65.241 17.0905 65.3081 16.4238 64.0619 15.3591C62.9366 14.3978 62.4231 13.4026 62.4276 12.1923C62.4337 10.586 63.2436 9.30148 64.6943 8.59728C65.7592 8.08016 67.233 8.15124 68.29 8.77075ZM3.60248 27.7731C2.96263 28.1797 1.32408 32.8245 0.802578 35.7102C0.406953 37.8991 0.406953 42.7584 0.802578 44.9472C1.32408 47.8329 2.96263 52.4777 3.60248 52.8843C3.95114 53.1058 4.6018 53.0138 4.88298 52.703C5.24354 52.3047 5.16683 51.9105 4.3488 49.9571C3.10541 46.988 2.46774 43.7237 2.46774 40.3287C2.46774 36.9337 3.10541 33.6695 4.3488 30.7003C5.16683 28.7469 5.24354 28.3527 4.88298 27.9544C4.6018 27.6437 3.95114 27.5516 3.60248 27.7731ZM76.1287 27.9544C75.7682 28.3527 75.8449 28.7469 76.6629 30.7003C77.9063 33.6695 78.544 36.9337 78.544 40.3287C78.544 43.7237 77.9063 46.988 76.6629 49.9571C75.8449 51.9105 75.7682 52.3047 76.1287 52.703C76.4099 53.0138 77.0606 53.1058 77.4092 52.8843C78.0491 52.4777 79.6876 47.8329 80.2091 44.9472C80.6048 42.7584 80.6048 37.8991 80.2091 35.7102C79.6876 32.8245 78.0491 28.1797 77.4092 27.7731C77.0606 27.5516 76.4099 27.6437 76.1287 27.9544ZM13.0297 53.1735C7.83475 53.979 3.73932 57.5933 2.26735 62.6721C1.9666 63.7093 1.91587 64.2408 1.92699 66.2393C1.9392 68.4521 1.9691 68.6736 2.44269 70.075C3.63943 73.6154 5.94211 76.2306 9.26367 77.8222C13.5035 79.8535 18.1028 79.5117 22.1294 76.8664C24.8324 75.0905 26.7446 72.3108 27.533 69.0118C27.808 67.8612 27.846 67.3305 27.7759 65.613C27.681 63.2878 27.4357 62.2381 26.5627 60.4193C24.5182 56.1601 20.2164 53.3393 15.3997 53.0991C14.6128 53.06 13.5463 53.0933 13.0297 53.1735ZM64.3812 53.1735C60.0401 53.8465 56.2913 56.5814 54.449 60.4193C53.5761 62.2381 53.3307 63.2878 53.2359 65.613C53.1657 67.3305 53.2038 67.8612 53.4787 69.0118C54.7166 74.192 58.7824 78.023 64.0104 78.9353C66.6738 79.4 69.2188 79.0339 71.7481 77.8222C75.0696 76.2306 77.3723 73.6154 78.569 70.075C79.0426 68.6736 79.0725 68.4521 79.0847 66.2393C79.0958 64.2408 79.0451 63.7093 78.7444 62.6721C77.4174 58.0938 73.9025 54.6334 69.4127 53.4852C67.9499 53.1112 65.6873 52.9709 64.3812 53.1735ZM17.883 55.4848C21.7532 56.6957 24.5811 59.643 25.5729 63.4995C25.9144 64.8273 25.917 67.3214 25.5784 68.6659C25.277 69.8622 24.0483 72.3958 23.5366 72.8768L23.1793 73.2124L22.9833 72.5439C22.5289 70.9937 20.7523 68.6577 19.5679 68.053L19.2176 67.8741L19.8274 66.9784C21.9054 63.9261 20.8736 59.9332 17.576 58.2648C16.4393 57.6896 14.5853 57.5349 13.3228 57.9099C9.83746 58.9449 8.07711 62.8895 9.66791 66.1003C9.91903 66.6072 10.2365 67.1743 10.3735 67.3601C10.6124 67.6848 10.5955 67.7169 9.94736 68.1681C8.52487 69.1579 7.48688 70.4886 6.83997 72.1514L6.41147 73.2525L5.90328 72.564C5.20831 71.6224 4.39107 69.8345 4.10927 68.6396C3.80726 67.3584 3.81008 64.7953 4.1149 63.5018C4.61652 61.3736 5.9897 59.1802 7.78653 57.6373C8.85646 56.7186 11.1125 55.6094 12.56 55.2905C13.9719 54.9795 16.5715 55.0743 17.883 55.4848ZM68.3409 55.2895C69.8656 55.5983 72.103 56.6737 73.2252 57.6373C75.022 59.1802 76.3952 61.3736 76.8968 63.5018C77.2016 64.7953 77.2045 67.3584 76.9025 68.6396C76.6207 69.8345 75.8034 71.6224 75.1084 72.564L74.6003 73.2525L74.1764 72.1633C73.9433 71.5643 73.5374 70.7613 73.274 70.3789C72.7857 69.6695 71.5663 68.4654 70.8992 68.0339L70.5285 67.7942L70.9169 67.3299C73.6103 64.1093 71.969 59.0235 67.8652 57.8745C66.7064 57.5501 64.8438 57.7151 63.7775 58.2369C60.5304 59.8255 59.3954 63.9986 61.4126 66.9313L61.9459 67.7064L61.4331 68.0233C60.6652 68.4978 59.0718 70.2209 58.6639 71.0175C58.4665 71.4032 58.183 72.0639 58.0338 72.4855L57.7628 73.2522L57.2557 72.5638C55.9093 70.7355 55.1773 68.454 55.1764 66.0827C55.1752 62.6888 56.6957 59.5257 59.3127 57.4779C61.9515 55.4132 65.1372 54.6411 68.3409 55.2895ZM16.6323 60.0455C17.9621 60.6218 18.8911 62.0111 18.8972 63.4325C18.9038 64.961 18.3112 66.0196 16.8186 67.1462C15.8293 67.8927 16.0522 68.531 17.5463 69.2288C19.4839 70.134 21.1359 72.3096 21.3392 74.2238L21.4224 75.0066L20.6895 75.4436C17.3802 77.4167 13.3871 77.6257 10.0534 76.0001C9.52434 75.7421 8.89513 75.3747 8.65528 75.1834C8.22083 74.8369 8.21989 74.8322 8.40933 73.9035C8.83454 71.8187 10.1966 70.1462 12.237 69.2036C12.8683 68.9119 13.4281 68.5601 13.4812 68.4219C13.7136 67.8166 13.5687 67.4327 12.9135 66.9178C11.9551 66.1645 11.5862 65.7037 11.3137 64.9198C10.1639 61.6119 13.4014 58.6449 16.6323 60.0455ZM67.9037 60.0024C69.1595 60.5186 70.2535 62.1534 70.2441 63.4995C70.2384 64.3113 69.8455 65.4699 69.3904 66.0181C69.2177 66.2258 68.7423 66.6648 68.3337 66.9934C67.7653 67.4504 67.5906 67.6945 67.5906 68.0311C67.5906 68.5587 67.7733 68.7243 68.9909 69.3002C70.8053 70.1583 72.0476 71.7142 72.5528 73.7613L72.8136 74.8187L72.3669 75.1749C72.1213 75.3708 71.4874 75.7421 70.9584 76.0001C67.6265 77.6247 63.578 77.4126 60.3355 75.4436C59.4859 74.9275 59.435 74.6435 59.9297 73.175C60.5999 71.1855 61.8762 69.8785 64.0147 68.9918C65.1782 68.5092 65.2399 67.6233 64.1618 66.8762C63.0326 66.0937 62.4242 64.9387 62.4242 63.5778C62.4242 63.1155 62.4985 62.5387 62.5895 62.2963C63.398 60.1408 65.7601 59.1212 67.9037 60.0024ZM28.0954 75.9845C27.8131 76.2963 27.7424 76.9049 27.9503 77.2321C28.3569 77.8719 33.0017 79.5105 35.8874 80.032C38.0762 80.4276 42.9355 80.4276 45.1244 80.032C48.0101 79.5105 52.6549 77.8719 53.0614 77.2321C53.283 76.8834 53.1909 76.2328 52.8802 75.9516C52.4819 75.591 52.0877 75.6678 50.1343 76.4858C44.1326 78.9992 36.8659 78.9984 30.8775 76.4841C28.941 75.6709 28.4577 75.5842 28.0954 75.9845Z" fill="#0066FF"/>
<path fill-rule="evenodd" clip-rule="evenodd" d="M38.0009 0.343157C36.1147 0.56782 34.0858 0.978005 32.5213 1.45081C30.6583 2.01396 28.1619 3.09218 27.9503 3.42534C27.7287 3.774 27.8208 4.42466 28.1316 4.70584C28.5299 5.0664 28.9241 4.98968 30.8775 4.17166C33.8466 2.92826 37.1109 2.2906 40.5059 2.2906C43.9008 2.2906 47.1651 2.92826 50.1343 4.17166C52.0877 4.98968 52.4819 5.0664 52.8802 4.70584C53.1909 4.42466 53.283 3.774 53.0614 3.42534C52.6575 2.78971 47.9816 1.1366 45.2026 0.647196C43.7812 0.396857 39.1811 0.202567 38.0009 0.343157ZM12.1995 1.89779C6.11276 3.21931 1.84996 8.45371 1.83837 14.6204C1.82757 20.4131 5.51157 25.3807 11.151 27.1779C12.628 27.6485 15.8254 27.7816 17.4359 27.4392C22.5701 26.348 26.5251 22.393 27.6163 17.2588C27.9587 15.6482 27.8257 12.4508 27.355 10.9738C25.8666 6.30306 22.112 2.86282 17.4591 1.90656C16.0064 1.608 13.5528 1.60393 12.1995 1.89779ZM63.4418 1.91846C58.8318 2.90415 55.1013 6.37977 53.6324 11.0576C53.3135 12.0732 53.2654 12.5443 53.2654 14.653C53.2654 16.7623 53.3135 17.2326 53.6329 18.2496C55.142 23.0558 58.7824 26.4205 63.5758 27.4392C65.1863 27.7816 68.3838 27.6485 69.8607 27.1779C75.5002 25.3807 79.1842 20.4131 79.1733 14.6204C79.1618 8.41896 74.8788 3.19144 68.7443 1.89184C67.379 1.60252 64.8598 1.6152 63.4418 1.91846ZM17.5364 3.99835C24.1116 5.68011 27.6384 12.7859 24.9866 19.0093C24.639 19.8248 23.4628 21.6982 23.2984 21.6982C23.2402 21.6982 23.0645 21.3213 22.908 20.8607C22.4901 19.6313 21.2938 17.9741 20.1843 17.0878L19.2147 16.313L19.5967 15.9136C19.807 15.6938 20.1749 15.0914 20.4146 14.5747C20.7902 13.7651 20.8502 13.4408 20.8484 12.2263C20.8459 10.5314 20.4649 9.41514 19.5241 8.34631C16.2874 4.6692 10.4603 6.05413 9.24723 10.7888C8.83501 12.3976 9.23345 14.4022 10.2232 15.6997C10.6123 16.2098 10.6259 16.2717 10.3796 16.4094C8.99924 17.182 7.44085 19.0919 6.83481 20.7539C6.64553 21.2733 6.44717 21.698 6.39409 21.6978C6.24912 21.6974 5.35078 20.3206 4.89222 19.3964C3.86879 17.3331 3.57759 14.2848 4.17909 11.9325C5.159 8.1013 8.22913 5.00988 12.0481 4.00931C13.6069 3.60084 15.9636 3.59615 17.5364 3.99835ZM68.9021 4.00195C71.8356 4.75234 74.5187 6.85008 75.8591 9.4416C77.8005 13.1945 77.5611 17.4706 75.2147 20.9542C74.9394 21.3631 74.6666 21.6977 74.6089 21.6978C74.5509 21.698 74.418 21.434 74.3136 21.1111C73.8074 19.5463 72.7183 17.998 71.4168 16.994L70.5678 16.339L70.9388 15.8983C73.3306 13.0556 72.2558 8.45105 68.821 6.82675C64.727 4.89058 60.0997 8.0692 60.4236 12.5953C60.5052 13.7348 61.077 15.2265 61.6771 15.8652C61.859 16.0589 61.9783 16.2382 61.9421 16.2634C60.7784 17.0775 59.9504 17.7954 59.4603 18.4154C58.8333 19.2087 58.1479 20.5111 57.9567 21.2726C57.898 21.5067 57.7955 21.6982 57.7288 21.6982C57.5519 21.6982 56.3885 19.862 56.0251 19.0093C54.0423 14.3558 55.546 8.78765 59.5867 5.82164C62.2009 3.90269 65.78 3.2035 68.9021 4.00195ZM16.6306 8.60714C17.5713 9.05193 18.1467 9.63636 18.5749 10.5824C19.2534 12.0813 18.8125 14.0327 17.5555 15.0934C17.2191 15.3774 16.7851 15.7414 16.5914 15.9023C16.1706 16.2519 16.1338 16.8598 16.5131 17.1944C16.6639 17.3272 17.2383 17.6617 17.7899 17.9378C19.5916 18.8392 20.8591 20.5067 21.2846 22.5353C21.4706 23.422 21.4657 23.4519 21.0883 23.7405C20.8754 23.9031 20.2604 24.2545 19.7218 24.5212C16.2949 26.2187 12.4166 26.0245 8.98813 23.9838C8.24009 23.5387 8.23492 23.5301 8.33919 22.8907C8.72542 20.5219 10.0375 18.7724 12.1353 17.829C13.2807 17.314 13.5783 17.049 13.5753 16.5466C13.5723 16.0406 13.5017 15.9427 12.6754 15.2996C11.6958 14.537 11.2008 13.5961 11.1142 12.332C11.0508 11.4078 11.094 11.1894 11.4882 10.4428C12.5203 8.48753 14.718 7.70301 16.6306 8.60714ZM68.29 8.77075C70.7691 10.2236 70.8925 13.6753 68.5259 15.3754C67.1538 16.3611 67.2484 17.0091 68.884 17.8283C70.7815 18.779 72.0145 20.2672 72.544 22.2461C72.8548 23.4078 72.8246 23.5069 72.0134 23.9899C68.5965 26.024 64.7124 26.2165 61.2899 24.5212C60.7513 24.2545 60.1368 23.9033 59.9244 23.7411C59.5432 23.4497 59.5408 23.4333 59.7417 22.4547C60.1923 20.2602 61.746 18.4278 63.8332 17.6292C65.241 17.0905 65.3081 16.4238 64.0619 15.3591C62.9366 14.3978 62.4231 13.4026 62.4276 12.1923C62.4337 10.586 63.2436 9.30148 64.6943 8.59728C65.7592 8.08016 67.233 8.15124 68.29 8.77075ZM3.60248 27.7731C2.96263 28.1797 1.32408 32.8245 0.802578 35.7102C0.406953 37.8991 0.406953 42.7584 0.802578 44.9472C1.32408 47.8329 2.96263 52.4777 3.60248 52.8843C3.95114 53.1058 4.6018 53.0138 4.88298 52.703C5.24354 52.3047 5.16683 51.9105 4.3488 49.9571C3.10541 46.988 2.46774 43.7237 2.46774 40.3287C2.46774 36.9337 3.10541 33.6695 4.3488 30.7003C5.16683 28.7469 5.24354 28.3527 4.88298 27.9544C4.6018 27.6437 3.95114 27.5516 3.60248 27.7731ZM76.1287 27.9544C75.7682 28.3527 75.8449 28.7469 76.6629 30.7003C77.9063 33.6695 78.544 36.9337 78.544 40.3287C78.544 43.7237 77.9063 46.988 76.6629 49.9571C75.8449 51.9105 75.7682 52.3047 76.1287 52.703C76.4099 53.0138 77.0606 53.1058 77.4092 52.8843C78.0491 52.4777 79.6876 47.8329 80.2091 44.9472C80.6048 42.7584 80.6048 37.8991 80.2091 35.7102C79.6876 32.8245 78.0491 28.1797 77.4092 27.7731C77.0606 27.5516 76.4099 27.6437 76.1287 27.9544ZM13.0297 53.1735C7.83475 53.979 3.73932 57.5933 2.26735 62.6721C1.9666 63.7093 1.91587 64.2408 1.92699 66.2393C1.9392 68.4521 1.9691 68.6736 2.44269 70.075C3.63943 73.6154 5.94211 76.2306 9.26367 77.8222C13.5035 79.8535 18.1028 79.5117 22.1294 76.8664C24.8324 75.0905 26.7446 72.3108 27.533 69.0118C27.808 67.8612 27.846 67.3305 27.7759 65.613C27.681 63.2878 27.4357 62.2381 26.5627 60.4193C24.5182 56.1601 20.2164 53.3393 15.3997 53.0991C14.6128 53.06 13.5463 53.0933 13.0297 53.1735ZM64.3812 53.1735C60.0401 53.8465 56.2913 56.5814 54.449 60.4193C53.5761 62.2381 53.3307 63.2878 53.2359 65.613C53.1657 67.3305 53.2038 67.8612 53.4787 69.0118C54.7166 74.192 58.7824 78.023 64.0104 78.9353C66.6738 79.4 69.2188 79.0339 71.7481 77.8222C75.0696 76.2306 77.3723 73.6154 78.569 70.075C79.0426 68.6736 79.0725 68.4521 79.0847 66.2393C79.0958 64.2408 79.0451 63.7093 78.7444 62.6721C77.4174 58.0938 73.9025 54.6334 69.4127 53.4852C67.9499 53.1112 65.6873 52.9709 64.3812 53.1735ZM17.883 55.4848C21.7532 56.6957 24.5811 59.643 25.5729 63.4995C25.9144 64.8273 25.917 67.3214 25.5784 68.6659C25.277 69.8622 24.0483 72.3958 23.5366 72.8768L23.1793 73.2124L22.9833 72.5439C22.5289 70.9937 20.7523 68.6577 19.5679 68.053L19.2176 67.8741L19.8274 66.9784C21.9054 63.9261 20.8736 59.9332 17.576 58.2648C16.4393 57.6896 14.5853 57.5349 13.3228 57.9099C9.83746 58.9449 8.07711 62.8895 9.66791 66.1003C9.91903 66.6072 10.2365 67.1743 10.3735 67.3601C10.6124 67.6848 10.5955 67.7169 9.94736 68.1681C8.52487 69.1579 7.48688 70.4886 6.83997 72.1514L6.41147 73.2525L5.90328 72.564C5.20831 71.6224 4.39107 69.8345 4.10927 68.6396C3.80726 67.3584 3.81008 64.7953 4.1149 63.5018C4.61652 61.3736 5.9897 59.1802 7.78653 57.6373C8.85646 56.7186 11.1125 55.6094 12.56 55.2905C13.9719 54.9795 16.5715 55.0743 17.883 55.4848ZM68.3409 55.2895C69.8656 55.5983 72.103 56.6737 73.2252 57.6373C75.022 59.1802 76.3952 61.3736 76.8968 63.5018C77.2016 64.7953 77.2045 67.3584 76.9025 68.6396C76.6207 69.8345 75.8034 71.6224 75.1084 72.564L74.6003 73.2525L74.1764 72.1633C73.9433 71.5643 73.5374 70.7613 73.274 70.3789C72.7857 69.6695 71.5663 68.4654 70.8992 68.0339L70.5285 67.7942L70.9169 67.3299C73.6103 64.1093 71.969 59.0235 67.8652 57.8745C66.7064 57.5501 64.8438 57.7151 63.7775 58.2369C60.5304 59.8255 59.3954 63.9986 61.4126 66.9313L61.9459 67.7064L61.4331 68.0233C60.6652 68.4978 59.0718 70.2209 58.6639 71.0175C58.4665 71.4032 58.183 72.0639 58.0338 72.4855L57.7628 73.2522L57.2557 72.5638C55.9093 70.7355 55.1773 68.454 55.1764 66.0827C55.1752 62.6888 56.6957 59.5257 59.3127 57.4779C61.9515 55.4132 65.1372 54.6411 68.3409 55.2895ZM16.6323 60.0455C17.9621 60.6218 18.8911 62.0111 18.8972 63.4325C18.9038 64.961 18.3112 66.0196 16.8186 67.1462C15.8293 67.8927 16.0522 68.531 17.5463 69.2288C19.4839 70.134 21.1359 72.3096 21.3392 74.2238L21.4224 75.0066L20.6895 75.4436C17.3802 77.4167 13.3871 77.6257 10.0534 76.0001C9.52434 75.7421 8.89513 75.3747 8.65528 75.1834C8.22083 74.8369 8.21989 74.8322 8.40933 73.9035C8.83454 71.8187 10.1966 70.1462 12.237 69.2036C12.8683 68.9119 13.4281 68.5601 13.4812 68.4219C13.7136 67.8166 13.5687 67.4327 12.9135 66.9178C11.9551 66.1645 11.5862 65.7037 11.3137 64.9198C10.1639 61.6119 13.4014 58.6449 16.6323 60.0455ZM67.9037 60.0024C69.1595 60.5186 70.2535 62.1534 70.2441 63.4995C70.2384 64.3113 69.8455 65.4699 69.3904 66.0181C69.2177 66.2258 68.7423 66.6648 68.3337 66.9934C67.7653 67.4504 67.5906 67.6945 67.5906 68.0311C67.5906 68.5587 67.7733 68.7243 68.9909 69.3002C70.8053 70.1583 72.0476 71.7142 72.5528 73.7613L72.8136 74.8187L72.3669 75.1749C72.1213 75.3708 71.4874 75.7421 70.9584 76.0001C67.6265 77.6247 63.578 77.4126 60.3355 75.4436C59.4859 74.9275 59.435 74.6435 59.9297 73.175C60.5999 71.1855 61.8762 69.8785 64.0147 68.9918C65.1782 68.5092 65.2399 67.6233 64.1618 66.8762C63.0326 66.0937 62.4242 64.9387 62.4242 63.5778C62.4242 63.1155 62.4985 62.5387 62.5895 62.2963C63.398 60.1408 65.7601 59.1212 67.9037 60.0024ZM28.0954 75.9845C27.8131 76.2963 27.7424 76.9049 27.9503 77.2321C28.3569 77.8719 33.0017 79.5105 35.8874 80.032C38.0762 80.4276 42.9355 80.4276 45.1244 80.032C48.0101 79.5105 52.6549 77.8719 53.0614 77.2321C53.283 76.8834 53.1909 76.2328 52.8802 75.9516C52.4819 75.591 52.0877 75.6678 50.1343 76.4858C44.1326 78.9992 36.8659 78.9984 30.8775 76.4841C28.941 75.6709 28.4577 75.5842 28.0954 75.9845Z" fill="url(#paint0_radial_1376_195)" fill-opacity="0.7"/>
<path fill-rule="evenodd" clip-rule="evenodd" d="M38.0009 0.343157C36.1147 0.56782 34.0858 0.978005 32.5213 1.45081C30.6583 2.01396 28.1619 3.09218 27.9503 3.42534C27.7287 3.774 27.8208 4.42466 28.1316 4.70584C28.5299 5.0664 28.9241 4.98968 30.8775 4.17166C33.8466 2.92826 37.1109 2.2906 40.5059 2.2906C43.9008 2.2906 47.1651 2.92826 50.1343 4.17166C52.0877 4.98968 52.4819 5.0664 52.8802 4.70584C53.1909 4.42466 53.283 3.774 53.0614 3.42534C52.6575 2.78971 47.9816 1.1366 45.2026 0.647196C43.7812 0.396857 39.1811 0.202567 38.0009 0.343157ZM12.1995 1.89779C6.11276 3.21931 1.84996 8.45371 1.83837 14.6204C1.82757 20.4131 5.51157 25.3807 11.151 27.1779C12.628 27.6485 15.8254 27.7816 17.4359 27.4392C22.5701 26.348 26.5251 22.393 27.6163 17.2588C27.9587 15.6482 27.8257 12.4508 27.355 10.9738C25.8666 6.30306 22.112 2.86282 17.4591 1.90656C16.0064 1.608 13.5528 1.60393 12.1995 1.89779ZM63.4418 1.91846C58.8318 2.90415 55.1013 6.37977 53.6324 11.0576C53.3135 12.0732 53.2654 12.5443 53.2654 14.653C53.2654 16.7623 53.3135 17.2326 53.6329 18.2496C55.142 23.0558 58.7824 26.4205 63.5758 27.4392C65.1863 27.7816 68.3838 27.6485 69.8607 27.1779C75.5002 25.3807 79.1842 20.4131 79.1733 14.6204C79.1618 8.41896 74.8788 3.19144 68.7443 1.89184C67.379 1.60252 64.8598 1.6152 63.4418 1.91846ZM17.5364 3.99835C24.1116 5.68011 27.6384 12.7859 24.9866 19.0093C24.639 19.8248 23.4628 21.6982 23.2984 21.6982C23.2402 21.6982 23.0645 21.3213 22.908 20.8607C22.4901 19.6313 21.2938 17.9741 20.1843 17.0878L19.2147 16.313L19.5967 15.9136C19.807 15.6938 20.1749 15.0914 20.4146 14.5747C20.7902 13.7651 20.8502 13.4408 20.8484 12.2263C20.8459 10.5314 20.4649 9.41514 19.5241 8.34631C16.2874 4.6692 10.4603 6.05413 9.24723 10.7888C8.83501 12.3976 9.23345 14.4022 10.2232 15.6997C10.6123 16.2098 10.6259 16.2717 10.3796 16.4094C8.99924 17.182 7.44085 19.0919 6.83481 20.7539C6.64553 21.2733 6.44717 21.698 6.39409 21.6978C6.24912 21.6974 5.35078 20.3206 4.89222 19.3964C3.86879 17.3331 3.57759 14.2848 4.17909 11.9325C5.159 8.1013 8.22913 5.00988 12.0481 4.00931C13.6069 3.60084 15.9636 3.59615 17.5364 3.99835ZM68.9021 4.00195C71.8356 4.75234 74.5187 6.85008 75.8591 9.4416C77.8005 13.1945 77.5611 17.4706 75.2147 20.9542C74.9394 21.3631 74.6666 21.6977 74.6089 21.6978C74.5509 21.698 74.418 21.434 74.3136 21.1111C73.8074 19.5463 72.7183 17.998 71.4168 16.994L70.5678 16.339L70.9388 15.8983C73.3306 13.0556 72.2558 8.45105 68.821 6.82675C64.727 4.89058 60.0997 8.0692 60.4236 12.5953C60.5052 13.7348 61.077 15.2265 61.6771 15.8652C61.859 16.0589 61.9783 16.2382 61.9421 16.2634C60.7784 17.0775 59.9504 17.7954 59.4603 18.4154C58.8333 19.2087 58.1479 20.5111 57.9567 21.2726C57.898 21.5067 57.7955 21.6982 57.7288 21.6982C57.5519 21.6982 56.3885 19.862 56.0251 19.0093C54.0423 14.3558 55.546 8.78765 59.5867 5.82164C62.2009 3.90269 65.78 3.2035 68.9021 4.00195ZM16.6306 8.60714C17.5713 9.05193 18.1467 9.63636 18.5749 10.5824C19.2534 12.0813 18.8125 14.0327 17.5555 15.0934C17.2191 15.3774 16.7851 15.7414 16.5914 15.9023C16.1706 16.2519 16.1338 16.8598 16.5131 17.1944C16.6639 17.3272 17.2383 17.6617 17.7899 17.9378C19.5916 18.8392 20.8591 20.5067 21.2846 22.5353C21.4706 23.422 21.4657 23.4519 21.0883 23.7405C20.8754 23.9031 20.2604 24.2545 19.7218 24.5212C16.2949 26.2187 12.4166 26.0245 8.98813 23.9838C8.24009 23.5387 8.23492 23.5301 8.33919 22.8907C8.72542 20.5219 10.0375 18.7724 12.1353 17.829C13.2807 17.314 13.5783 17.049 13.5753 16.5466C13.5723 16.0406 13.5017 15.9427 12.6754 15.2996C11.6958 14.537 11.2008 13.5961 11.1142 12.332C11.0508 11.4078 11.094 11.1894 11.4882 10.4428C12.5203 8.48753 14.718 7.70301 16.6306 8.60714ZM68.29 8.77075C70.7691 10.2236 70.8925 13.6753 68.5259 15.3754C67.1538 16.3611 67.2484 17.0091 68.884 17.8283C70.7815 18.779 72.0145 20.2672 72.544 22.2461C72.8548 23.4078 72.8246 23.5069 72.0134 23.9899C68.5965 26.024 64.7124 26.2165 61.2899 24.5212C60.7513 24.2545 60.1368 23.9033 59.9244 23.7411C59.5432 23.4497 59.5408 23.4333 59.7417 22.4547C60.1923 20.2602 61.746 18.4278 63.8332 17.6292C65.241 17.0905 65.3081 16.4238 64.0619 15.3591C62.9366 14.3978 62.4231 13.4026 62.4276 12.1923C62.4337 10.586 63.2436 9.30148 64.6943 8.59728C65.7592 8.08016 67.233 8.15124 68.29 8.77075ZM3.60248 27.7731C2.96263 28.1797 1.32408 32.8245 0.802578 35.7102C0.406953 37.8991 0.406953 42.7584 0.802578 44.9472C1.32408 47.8329 2.96263 52.4777 3.60248 52.8843C3.95114 53.1058 4.6018 53.0138 4.88298 52.703C5.24354 52.3047 5.16683 51.9105 4.3488 49.9571C3.10541 46.988 2.46774 43.7237 2.46774 40.3287C2.46774 36.9337 3.10541 33.6695 4.3488 30.7003C5.16683 28.7469 5.24354 28.3527 4.88298 27.9544C4.6018 27.6437 3.95114 27.5516 3.60248 27.7731ZM76.1287 27.9544C75.7682 28.3527 75.8449 28.7469 76.6629 30.7003C77.9063 33.6695 78.544 36.9337 78.544 40.3287C78.544 43.7237 77.9063 46.988 76.6629 49.9571C75.8449 51.9105 75.7682 52.3047 76.1287 52.703C76.4099 53.0138 77.0606 53.1058 77.4092 52.8843C78.0491 52.4777 79.6876 47.8329 80.2091 44.9472C80.6048 42.7584 80.6048 37.8991 80.2091 35.7102C79.6876 32.8245 78.0491 28.1797 77.4092 27.7731C77.0606 27.5516 76.4099 27.6437 76.1287 27.9544ZM13.0297 53.1735C7.83475 53.979 3.73932 57.5933 2.26735 62.6721C1.9666 63.7093 1.91587 64.2408 1.92699 66.2393C1.9392 68.4521 1.9691 68.6736 2.44269 70.075C3.63943 73.6154 5.94211 76.2306 9.26367 77.8222C13.5035 79.8535 18.1028 79.5117 22.1294 76.8664C24.8324 75.0905 26.7446 72.3108 27.533 69.0118C27.808 67.8612 27.846 67.3305 27.7759 65.613C27.681 63.2878 27.4357 62.2381 26.5627 60.4193C24.5182 56.1601 20.2164 53.3393 15.3997 53.0991C14.6128 53.06 13.5463 53.0933 13.0297 53.1735ZM64.3812 53.1735C60.0401 53.8465 56.2913 56.5814 54.449 60.4193C53.5761 62.2381 53.3307 63.2878 53.2359 65.613C53.1657 67.3305 53.2038 67.8612 53.4787 69.0118C54.7166 74.192 58.7824 78.023 64.0104 78.9353C66.6738 79.4 69.2188 79.0339 71.7481 77.8222C75.0696 76.2306 77.3723 73.6154 78.569 70.075C79.0426 68.6736 79.0725 68.4521 79.0847 66.2393C79.0958 64.2408 79.0451 63.7093 78.7444 62.6721C77.4174 58.0938 73.9025 54.6334 69.4127 53.4852C67.9499 53.1112 65.6873 52.9709 64.3812 53.1735ZM17.883 55.4848C21.7532 56.6957 24.5811 59.643 25.5729 63.4995C25.9144 64.8273 25.917 67.3214 25.5784 68.6659C25.277 69.8622 24.0483 72.3958 23.5366 72.8768L23.1793 73.2124L22.9833 72.5439C22.5289 70.9937 20.7523 68.6577 19.5679 68.053L19.2176 67.8741L19.8274 66.9784C21.9054 63.9261 20.8736 59.9332 17.576 58.2648C16.4393 57.6896 14.5853 57.5349 13.3228 57.9099C9.83746 58.9449 8.07711 62.8895 9.66791 66.1003C9.91903 66.6072 10.2365 67.1743 10.3735 67.3601C10.6124 67.6848 10.5955 67.7169 9.94736 68.1681C8.52487 69.1579 7.48688 70.4886 6.83997 72.1514L6.41147 73.2525L5.90328 72.564C5.20831 71.6224 4.39107 69.8345 4.10927 68.6396C3.80726 67.3584 3.81008 64.7953 4.1149 63.5018C4.61652 61.3736 5.9897 59.1802 7.78653 57.6373C8.85646 56.7186 11.1125 55.6094 12.56 55.2905C13.9719 54.9795 16.5715 55.0743 17.883 55.4848ZM68.3409 55.2895C69.8656 55.5983 72.103 56.6737 73.2252 57.6373C75.022 59.1802 76.3952 61.3736 76.8968 63.5018C77.2016 64.7953 77.2045 67.3584 76.9025 68.6396C76.6207 69.8345 75.8034 71.6224 75.1084 72.564L74.6003 73.2525L74.1764 72.1633C73.9433 71.5643 73.5374 70.7613 73.274 70.3789C72.7857 69.6695 71.5663 68.4654 70.8992 68.0339L70.5285 67.7942L70.9169 67.3299C73.6103 64.1093 71.969 59.0235 67.8652 57.8745C66.7064 57.5501 64.8438 57.7151 63.7775 58.2369C60.5304 59.8255 59.3954 63.9986 61.4126 66.9313L61.9459 67.7064L61.4331 68.0233C60.6652 68.4978 59.0718 70.2209 58.6639 71.0175C58.4665 71.4032 58.183 72.0639 58.0338 72.4855L57.7628 73.2522L57.2557 72.5638C55.9093 70.7355 55.1773 68.454 55.1764 66.0827C55.1752 62.6888 56.6957 59.5257 59.3127 57.4779C61.9515 55.4132 65.1372 54.6411 68.3409 55.2895ZM16.6323 60.0455C17.9621 60.6218 18.8911 62.0111 18.8972 63.4325C18.9038 64.961 18.3112 66.0196 16.8186 67.1462C15.8293 67.8927 16.0522 68.531 17.5463 69.2288C19.4839 70.134 21.1359 72.3096 21.3392 74.2238L21.4224 75.0066L20.6895 75.4436C17.3802 77.4167 13.3871 77.6257 10.0534 76.0001C9.52434 75.7421 8.89513 75.3747 8.65528 75.1834C8.22083 74.8369 8.21989 74.8322 8.40933 73.9035C8.83454 71.8187 10.1966 70.1462 12.237 69.2036C12.8683 68.9119 13.4281 68.5601 13.4812 68.4219C13.7136 67.8166 13.5687 67.4327 12.9135 66.9178C11.9551 66.1645 11.5862 65.7037 11.3137 64.9198C10.1639 61.6119 13.4014 58.6449 16.6323 60.0455ZM67.9037 60.0024C69.1595 60.5186 70.2535 62.1534 70.2441 63.4995C70.2384 64.3113 69.8455 65.4699 69.3904 66.0181C69.2177 66.2258 68.7423 66.6648 68.3337 66.9934C67.7653 67.4504 67.5906 67.6945 67.5906 68.0311C67.5906 68.5587 67.7733 68.7243 68.9909 69.3002C70.8053 70.1583 72.0476 71.7142 72.5528 73.7613L72.8136 74.8187L72.3669 75.1749C72.1213 75.3708 71.4874 75.7421 70.9584 76.0001C67.6265 77.6247 63.578 77.4126 60.3355 75.4436C59.4859 74.9275 59.435 74.6435 59.9297 73.175C60.5999 71.1855 61.8762 69.8785 64.0147 68.9918C65.1782 68.5092 65.2399 67.6233 64.1618 66.8762C63.0326 66.0937 62.4242 64.9387 62.4242 63.5778C62.4242 63.1155 62.4985 62.5387 62.5895 62.2963C63.398 60.1408 65.7601 59.1212 67.9037 60.0024ZM28.0954 75.9845C27.8131 76.2963 27.7424 76.9049 27.9503 77.2321C28.3569 77.8719 33.0017 79.5105 35.8874 80.032C38.0762 80.4276 42.9355 80.4276 45.1244 80.032C48.0101 79.5105 52.6549 77.8719 53.0614 77.2321C53.283 76.8834 53.1909 76.2328 52.8802 75.9516C52.4819 75.591 52.0877 75.6678 50.1343 76.4858C44.1326 78.9992 36.8659 78.9984 30.8775 76.4841C28.941 75.6709 28.4577 75.5842 28.0954 75.9845Z" fill="url(#paint1_radial_1376_195)"/>
<defs>
<radialGradient id="paint0_radial_1376_195" cx="0" cy="0" r="1" gradientUnits="userSpaceOnUse" gradientTransform="translate(21.617 16.9694) rotate(51.0556) scale(67.1723 67.1665)">
<stop stop-color="white" stop-opacity="0.59"/>
<stop offset="0.697917" stop-color="white" stop-opacity="0"/>
<stop offset="1" stop-color="white" stop-opacity="0"/>
</radialGradient>
<radialGradient id="paint1_radial_1376_195" cx="0" cy="0" r="1" gradientUnits="userSpaceOnUse" gradientTransform="translate(69.547 70.3246) rotate(-93.669) scale(68.5018 76.317)">
<stop stop-opacity="0.23"/>
<stop offset="0.861815" stop-opacity="0"/>
</radialGradient>
</defs>
</svg>
