<svg width="80" height="81" viewBox="0 0 80 81" fill="none" xmlns="http://www.w3.org/2000/svg">
<path fill-rule="evenodd" clip-rule="evenodd" d="M50.3338 0.356671C46.1934 0.923788 42.6691 2.42365 39.3135 5.04664C31.8518 10.8791 28.8396 20.8417 31.8028 29.8874C33.0524 33.7022 35.4909 37.3869 38.4537 39.9372C41.4234 42.4934 45.0378 44.3023 48.6776 45.0542C52.179 45.7773 58.9137 45.7762 62.0454 45.0518L63.0494 44.8197L66.2035 47.95C69.2289 50.9525 69.3827 51.0802 69.9673 51.0769C70.6129 51.0732 71.1283 50.7588 71.4183 50.1919C71.5352 49.963 71.5929 48.3218 71.5929 45.2179V40.5854L73.1238 39.0723C75.3376 36.8838 77.0213 34.4789 78.123 31.9316C82.226 22.4436 79.4378 11.3622 71.3584 5.04664C67.9455 2.37894 64.472 0.91691 60.1936 0.347292C58.1215 0.0713931 52.3767 0.0768642 50.3338 0.356671ZM61.0635 3.61462C67.1305 4.89689 72.1126 8.71633 74.8865 14.2113C75.5086 15.4436 76.3415 17.9964 76.6136 19.5044C76.8734 20.9441 76.8726 24.8381 76.6125 26.226C75.7312 30.9258 73.4462 34.7834 69.5608 38.1305L68.5447 39.0057L68.4969 42.4088L68.4489 45.8119L66.2792 43.6619L64.1094 41.5121L63.4352 41.588C63.0644 41.6298 62.0576 41.8262 61.1978 42.0245C59.7842 42.3504 59.2457 42.3854 55.5704 42.3907C50.0951 42.3985 48.1399 42.0337 44.7635 40.3747C39.2181 37.6501 35.4276 32.7164 34.1331 26.5386C33.7908 24.9051 33.7519 21.2114 34.0589 19.5044C35.1584 13.3918 39.1151 8.10201 44.6942 5.28565C46.0429 4.60489 48.5902 3.78798 50.0212 3.57727C50.666 3.48238 51.3694 3.37483 51.5843 3.33826C52.5662 3.17147 59.991 3.38797 61.0635 3.61462ZM54.0072 11.3478C52.6678 11.752 52.1064 12.0839 51.1576 13.0327C50.0057 14.1846 49.3437 15.618 49.2643 17.1326C49.2075 18.2129 49.2291 18.3039 49.6419 18.7348C50.2139 19.332 51.0463 19.3612 51.7045 18.8074C52.0745 18.496 52.194 18.2254 52.3339 17.381C52.5446 16.1096 53.0597 15.2838 53.9774 14.7459C55.3953 13.915 57.0892 14.1166 58.1914 15.2477C60.093 17.1992 59.347 20.0609 56.6787 21.0514C54.5401 21.8455 54.2417 22.4173 54.2417 25.7209C54.2417 27.1573 54.3116 28.2406 54.4198 28.4777C54.5176 28.6925 54.8414 28.9841 55.1393 29.1254C55.6134 29.3503 55.7522 29.3556 56.251 29.168C57.1611 28.8259 57.3676 28.2317 57.3677 25.9524C57.368 24.525 57.4178 24.0376 57.5634 24.0374C58.0843 24.0371 59.7139 23.07 60.4358 22.3328C63.6754 19.0243 62.6991 13.676 58.5009 11.7342C57.0424 11.0595 55.4238 10.9204 54.0072 11.3478ZM8.67539 27.576C8.07357 27.7026 6.92011 28.1256 6.1121 28.5159C4.88861 29.1069 4.41482 29.4517 3.27839 30.5785C2.11774 31.7294 1.80745 32.1534 1.20079 33.4166C-0.0278609 35.9748 -0.000192751 35.5856 -0.000192751 50.2988C-0.000192751 65.0119 -0.0278609 64.6227 1.20079 67.181C1.80745 68.4442 2.11774 68.8681 3.27839 70.0191C4.41576 71.1467 4.88752 71.49 6.1121 72.0807C8.38433 73.177 9.13949 73.2773 15.1185 73.2773H20.246L23.2144 76.2636C27.1398 80.2123 27.4762 80.4496 28.4945 79.9857C29.2831 79.6263 29.3874 79.1731 29.3874 76.106V73.2773H37.5224C46.8364 73.2773 47.1109 73.25 49.5522 72.0748C50.8023 71.4731 51.2503 71.1469 52.3842 70.013C53.5172 68.88 53.845 68.43 54.447 67.181C55.6 64.7886 55.6675 64.2027 55.6153 57.0465L55.5704 50.8981L55.041 50.4252C54.5941 50.026 54.4234 49.9661 53.9468 50.0419C53.5919 50.0982 53.2222 50.3089 52.9521 50.6084L52.5222 51.0854V57.1464C52.5222 63.8014 52.4849 64.1464 51.5687 65.9614C50.9686 67.15 49.5821 68.5653 48.4608 69.1335C46.5131 70.1205 47.2 70.0608 36.7768 70.1485L27.2056 70.2292L26.7725 70.6623C26.3608 71.0739 26.3353 71.1852 26.261 72.8987L26.1829 74.7019L24.1507 72.6444C23.0331 71.5128 21.9798 70.4888 21.8102 70.3689C21.5601 70.1921 20.4224 70.151 15.7859 70.151C11.2277 70.151 9.88872 70.1038 9.17607 69.9182C6.2839 69.165 4.11219 66.9932 3.3589 64.1011C3.01125 62.7663 3.01125 37.8313 3.3589 36.4965C4.11219 33.6043 6.2839 31.4326 9.17607 30.6793C9.91498 30.4869 11.5533 30.4466 18.6318 30.4466H27.1939L27.7009 29.9935C28.1204 29.6187 28.2079 29.4274 28.2079 28.8834C28.2079 28.3394 28.1204 28.1481 27.7009 27.7732L27.1939 27.3202L18.4818 27.333C11.4464 27.3432 9.55904 27.3901 8.67539 27.576ZM55.3803 32.434C54.8415 32.5353 54.2417 33.3536 54.2417 33.9878C54.2417 35.1934 55.8544 35.9301 56.7229 35.121C57.9338 33.9929 57.0024 32.129 55.3803 32.434ZM9.45697 39.9733C8.46186 40.3806 8.19737 41.6851 8.95597 42.4439L9.38585 42.8737L21.3349 42.9156L33.284 42.9577L33.7941 42.5019C34.2169 42.124 34.3043 41.9335 34.3043 41.3887C34.3043 40.8447 34.2168 40.6534 33.7972 40.2786L33.2903 39.8256L21.5299 39.8354C15.0617 39.8409 9.62892 39.9029 9.45697 39.9733ZM9.45697 48.727C8.46186 49.1344 8.19737 50.4388 8.95597 51.1976L9.38585 51.6275L26.4161 51.6686L43.4463 51.7097L43.9556 51.2547C44.3775 50.8778 44.4649 50.6869 44.4649 50.1425C44.4649 49.5985 44.3773 49.4071 43.9578 49.0323L43.4509 48.5793L26.6102 48.5891C17.3478 48.5946 9.62892 48.6567 9.45697 48.727ZM9.45697 57.4807C8.46186 57.8881 8.19737 59.1926 8.95597 59.9513L9.38585 60.3812L23.2554 60.4193C34.1122 60.4492 37.2099 60.415 37.5158 60.2618C37.7308 60.1542 38.0356 59.8028 38.193 59.4811C38.4708 58.914 38.4708 58.8784 38.193 58.3113C38.0356 57.9896 37.7308 57.6388 37.5158 57.532C37.2129 57.3813 34.0481 57.3393 23.4473 57.3452C15.9246 57.3494 9.62892 57.4104 9.45697 57.4807ZM42.4398 57.475C41.4436 57.9014 41.1802 59.1927 41.9354 59.9477C42.2574 60.2699 42.5145 60.3742 42.9869 60.3742C44.8047 60.3742 45.0154 57.7173 43.2214 57.419C42.9635 57.376 42.6118 57.4012 42.4398 57.475Z" fill="#0066FF"/>
<path fill-rule="evenodd" clip-rule="evenodd" d="M50.3338 0.356671C46.1934 0.923788 42.6691 2.42365 39.3135 5.04664C31.8518 10.8791 28.8396 20.8417 31.8028 29.8874C33.0524 33.7022 35.4909 37.3869 38.4537 39.9372C41.4234 42.4934 45.0378 44.3023 48.6776 45.0542C52.179 45.7773 58.9137 45.7762 62.0454 45.0518L63.0494 44.8197L66.2035 47.95C69.2289 50.9525 69.3827 51.0802 69.9673 51.0769C70.6129 51.0732 71.1283 50.7588 71.4183 50.1919C71.5352 49.963 71.5929 48.3218 71.5929 45.2179V40.5854L73.1238 39.0723C75.3376 36.8838 77.0213 34.4789 78.123 31.9316C82.226 22.4436 79.4378 11.3622 71.3584 5.04664C67.9455 2.37894 64.472 0.91691 60.1936 0.347292C58.1215 0.0713931 52.3767 0.0768642 50.3338 0.356671ZM61.0635 3.61462C67.1305 4.89689 72.1126 8.71633 74.8865 14.2113C75.5086 15.4436 76.3415 17.9964 76.6136 19.5044C76.8734 20.9441 76.8726 24.8381 76.6125 26.226C75.7312 30.9258 73.4462 34.7834 69.5608 38.1305L68.5447 39.0057L68.4969 42.4088L68.4489 45.8119L66.2792 43.6619L64.1094 41.5121L63.4352 41.588C63.0644 41.6298 62.0576 41.8262 61.1978 42.0245C59.7842 42.3504 59.2457 42.3854 55.5704 42.3907C50.0951 42.3985 48.1399 42.0337 44.7635 40.3747C39.2181 37.6501 35.4276 32.7164 34.1331 26.5386C33.7908 24.9051 33.7519 21.2114 34.0589 19.5044C35.1584 13.3918 39.1151 8.10201 44.6942 5.28565C46.0429 4.60489 48.5902 3.78798 50.0212 3.57727C50.666 3.48238 51.3694 3.37483 51.5843 3.33826C52.5662 3.17147 59.991 3.38797 61.0635 3.61462ZM54.0072 11.3478C52.6678 11.752 52.1064 12.0839 51.1576 13.0327C50.0057 14.1846 49.3437 15.618 49.2643 17.1326C49.2075 18.2129 49.2291 18.3039 49.6419 18.7348C50.2139 19.332 51.0463 19.3612 51.7045 18.8074C52.0745 18.496 52.194 18.2254 52.3339 17.381C52.5446 16.1096 53.0597 15.2838 53.9774 14.7459C55.3953 13.915 57.0892 14.1166 58.1914 15.2477C60.093 17.1992 59.347 20.0609 56.6787 21.0514C54.5401 21.8455 54.2417 22.4173 54.2417 25.7209C54.2417 27.1573 54.3116 28.2406 54.4198 28.4777C54.5176 28.6925 54.8414 28.9841 55.1393 29.1254C55.6134 29.3503 55.7522 29.3556 56.251 29.168C57.1611 28.8259 57.3676 28.2317 57.3677 25.9524C57.368 24.525 57.4178 24.0376 57.5634 24.0374C58.0843 24.0371 59.7139 23.07 60.4358 22.3328C63.6754 19.0243 62.6991 13.676 58.5009 11.7342C57.0424 11.0595 55.4238 10.9204 54.0072 11.3478ZM8.67539 27.576C8.07357 27.7026 6.92011 28.1256 6.1121 28.5159C4.88861 29.1069 4.41482 29.4517 3.27839 30.5785C2.11774 31.7294 1.80745 32.1534 1.20079 33.4166C-0.0278609 35.9748 -0.000192751 35.5856 -0.000192751 50.2988C-0.000192751 65.0119 -0.0278609 64.6227 1.20079 67.181C1.80745 68.4442 2.11774 68.8681 3.27839 70.0191C4.41576 71.1467 4.88752 71.49 6.1121 72.0807C8.38433 73.177 9.13949 73.2773 15.1185 73.2773H20.246L23.2144 76.2636C27.1398 80.2123 27.4762 80.4496 28.4945 79.9857C29.2831 79.6263 29.3874 79.1731 29.3874 76.106V73.2773H37.5224C46.8364 73.2773 47.1109 73.25 49.5522 72.0748C50.8023 71.4731 51.2503 71.1469 52.3842 70.013C53.5172 68.88 53.845 68.43 54.447 67.181C55.6 64.7886 55.6675 64.2027 55.6153 57.0465L55.5704 50.8981L55.041 50.4252C54.5941 50.026 54.4234 49.9661 53.9468 50.0419C53.5919 50.0982 53.2222 50.3089 52.9521 50.6084L52.5222 51.0854V57.1464C52.5222 63.8014 52.4849 64.1464 51.5687 65.9614C50.9686 67.15 49.5821 68.5653 48.4608 69.1335C46.5131 70.1205 47.2 70.0608 36.7768 70.1485L27.2056 70.2292L26.7725 70.6623C26.3608 71.0739 26.3353 71.1852 26.261 72.8987L26.1829 74.7019L24.1507 72.6444C23.0331 71.5128 21.9798 70.4888 21.8102 70.3689C21.5601 70.1921 20.4224 70.151 15.7859 70.151C11.2277 70.151 9.88872 70.1038 9.17607 69.9182C6.2839 69.165 4.11219 66.9932 3.3589 64.1011C3.01125 62.7663 3.01125 37.8313 3.3589 36.4965C4.11219 33.6043 6.2839 31.4326 9.17607 30.6793C9.91498 30.4869 11.5533 30.4466 18.6318 30.4466H27.1939L27.7009 29.9935C28.1204 29.6187 28.2079 29.4274 28.2079 28.8834C28.2079 28.3394 28.1204 28.1481 27.7009 27.7732L27.1939 27.3202L18.4818 27.333C11.4464 27.3432 9.55904 27.3901 8.67539 27.576ZM55.3803 32.434C54.8415 32.5353 54.2417 33.3536 54.2417 33.9878C54.2417 35.1934 55.8544 35.9301 56.7229 35.121C57.9338 33.9929 57.0024 32.129 55.3803 32.434ZM9.45697 39.9733C8.46186 40.3806 8.19737 41.6851 8.95597 42.4439L9.38585 42.8737L21.3349 42.9156L33.284 42.9577L33.7941 42.5019C34.2169 42.124 34.3043 41.9335 34.3043 41.3887C34.3043 40.8447 34.2168 40.6534 33.7972 40.2786L33.2903 39.8256L21.5299 39.8354C15.0617 39.8409 9.62892 39.9029 9.45697 39.9733ZM9.45697 48.727C8.46186 49.1344 8.19737 50.4388 8.95597 51.1976L9.38585 51.6275L26.4161 51.6686L43.4463 51.7097L43.9556 51.2547C44.3775 50.8778 44.4649 50.6869 44.4649 50.1425C44.4649 49.5985 44.3773 49.4071 43.9578 49.0323L43.4509 48.5793L26.6102 48.5891C17.3478 48.5946 9.62892 48.6567 9.45697 48.727ZM9.45697 57.4807C8.46186 57.8881 8.19737 59.1926 8.95597 59.9513L9.38585 60.3812L23.2554 60.4193C34.1122 60.4492 37.2099 60.415 37.5158 60.2618C37.7308 60.1542 38.0356 59.8028 38.193 59.4811C38.4708 58.914 38.4708 58.8784 38.193 58.3113C38.0356 57.9896 37.7308 57.6388 37.5158 57.532C37.2129 57.3813 34.0481 57.3393 23.4473 57.3452C15.9246 57.3494 9.62892 57.4104 9.45697 57.4807ZM42.4398 57.475C41.4436 57.9014 41.1802 59.1927 41.9354 59.9477C42.2574 60.2699 42.5145 60.3742 42.9869 60.3742C44.8047 60.3742 45.0154 57.7173 43.2214 57.419C42.9635 57.376 42.6118 57.4012 42.4398 57.475Z" fill="url(#paint0_radial_1376_209)" fill-opacity="0.7"/>
<path fill-rule="evenodd" clip-rule="evenodd" d="M50.3338 0.356671C46.1934 0.923788 42.6691 2.42365 39.3135 5.04664C31.8518 10.8791 28.8396 20.8417 31.8028 29.8874C33.0524 33.7022 35.4909 37.3869 38.4537 39.9372C41.4234 42.4934 45.0378 44.3023 48.6776 45.0542C52.179 45.7773 58.9137 45.7762 62.0454 45.0518L63.0494 44.8197L66.2035 47.95C69.2289 50.9525 69.3827 51.0802 69.9673 51.0769C70.6129 51.0732 71.1283 50.7588 71.4183 50.1919C71.5352 49.963 71.5929 48.3218 71.5929 45.2179V40.5854L73.1238 39.0723C75.3376 36.8838 77.0213 34.4789 78.123 31.9316C82.226 22.4436 79.4378 11.3622 71.3584 5.04664C67.9455 2.37894 64.472 0.91691 60.1936 0.347292C58.1215 0.0713931 52.3767 0.0768642 50.3338 0.356671ZM61.0635 3.61462C67.1305 4.89689 72.1126 8.71633 74.8865 14.2113C75.5086 15.4436 76.3415 17.9964 76.6136 19.5044C76.8734 20.9441 76.8726 24.8381 76.6125 26.226C75.7312 30.9258 73.4462 34.7834 69.5608 38.1305L68.5447 39.0057L68.4969 42.4088L68.4489 45.8119L66.2792 43.6619L64.1094 41.5121L63.4352 41.588C63.0644 41.6298 62.0576 41.8262 61.1978 42.0245C59.7842 42.3504 59.2457 42.3854 55.5704 42.3907C50.0951 42.3985 48.1399 42.0337 44.7635 40.3747C39.2181 37.6501 35.4276 32.7164 34.1331 26.5386C33.7908 24.9051 33.7519 21.2114 34.0589 19.5044C35.1584 13.3918 39.1151 8.10201 44.6942 5.28565C46.0429 4.60489 48.5902 3.78798 50.0212 3.57727C50.666 3.48238 51.3694 3.37483 51.5843 3.33826C52.5662 3.17147 59.991 3.38797 61.0635 3.61462ZM54.0072 11.3478C52.6678 11.752 52.1064 12.0839 51.1576 13.0327C50.0057 14.1846 49.3437 15.618 49.2643 17.1326C49.2075 18.2129 49.2291 18.3039 49.6419 18.7348C50.2139 19.332 51.0463 19.3612 51.7045 18.8074C52.0745 18.496 52.194 18.2254 52.3339 17.381C52.5446 16.1096 53.0597 15.2838 53.9774 14.7459C55.3953 13.915 57.0892 14.1166 58.1914 15.2477C60.093 17.1992 59.347 20.0609 56.6787 21.0514C54.5401 21.8455 54.2417 22.4173 54.2417 25.7209C54.2417 27.1573 54.3116 28.2406 54.4198 28.4777C54.5176 28.6925 54.8414 28.9841 55.1393 29.1254C55.6134 29.3503 55.7522 29.3556 56.251 29.168C57.1611 28.8259 57.3676 28.2317 57.3677 25.9524C57.368 24.525 57.4178 24.0376 57.5634 24.0374C58.0843 24.0371 59.7139 23.07 60.4358 22.3328C63.6754 19.0243 62.6991 13.676 58.5009 11.7342C57.0424 11.0595 55.4238 10.9204 54.0072 11.3478ZM8.67539 27.576C8.07357 27.7026 6.92011 28.1256 6.1121 28.5159C4.88861 29.1069 4.41482 29.4517 3.27839 30.5785C2.11774 31.7294 1.80745 32.1534 1.20079 33.4166C-0.0278609 35.9748 -0.000192751 35.5856 -0.000192751 50.2988C-0.000192751 65.0119 -0.0278609 64.6227 1.20079 67.181C1.80745 68.4442 2.11774 68.8681 3.27839 70.0191C4.41576 71.1467 4.88752 71.49 6.1121 72.0807C8.38433 73.177 9.13949 73.2773 15.1185 73.2773H20.246L23.2144 76.2636C27.1398 80.2123 27.4762 80.4496 28.4945 79.9857C29.2831 79.6263 29.3874 79.1731 29.3874 76.106V73.2773H37.5224C46.8364 73.2773 47.1109 73.25 49.5522 72.0748C50.8023 71.4731 51.2503 71.1469 52.3842 70.013C53.5172 68.88 53.845 68.43 54.447 67.181C55.6 64.7886 55.6675 64.2027 55.6153 57.0465L55.5704 50.8981L55.041 50.4252C54.5941 50.026 54.4234 49.9661 53.9468 50.0419C53.5919 50.0982 53.2222 50.3089 52.9521 50.6084L52.5222 51.0854V57.1464C52.5222 63.8014 52.4849 64.1464 51.5687 65.9614C50.9686 67.15 49.5821 68.5653 48.4608 69.1335C46.5131 70.1205 47.2 70.0608 36.7768 70.1485L27.2056 70.2292L26.7725 70.6623C26.3608 71.0739 26.3353 71.1852 26.261 72.8987L26.1829 74.7019L24.1507 72.6444C23.0331 71.5128 21.9798 70.4888 21.8102 70.3689C21.5601 70.1921 20.4224 70.151 15.7859 70.151C11.2277 70.151 9.88872 70.1038 9.17607 69.9182C6.2839 69.165 4.11219 66.9932 3.3589 64.1011C3.01125 62.7663 3.01125 37.8313 3.3589 36.4965C4.11219 33.6043 6.2839 31.4326 9.17607 30.6793C9.91498 30.4869 11.5533 30.4466 18.6318 30.4466H27.1939L27.7009 29.9935C28.1204 29.6187 28.2079 29.4274 28.2079 28.8834C28.2079 28.3394 28.1204 28.1481 27.7009 27.7732L27.1939 27.3202L18.4818 27.333C11.4464 27.3432 9.55904 27.3901 8.67539 27.576ZM55.3803 32.434C54.8415 32.5353 54.2417 33.3536 54.2417 33.9878C54.2417 35.1934 55.8544 35.9301 56.7229 35.121C57.9338 33.9929 57.0024 32.129 55.3803 32.434ZM9.45697 39.9733C8.46186 40.3806 8.19737 41.6851 8.95597 42.4439L9.38585 42.8737L21.3349 42.9156L33.284 42.9577L33.7941 42.5019C34.2169 42.124 34.3043 41.9335 34.3043 41.3887C34.3043 40.8447 34.2168 40.6534 33.7972 40.2786L33.2903 39.8256L21.5299 39.8354C15.0617 39.8409 9.62892 39.9029 9.45697 39.9733ZM9.45697 48.727C8.46186 49.1344 8.19737 50.4388 8.95597 51.1976L9.38585 51.6275L26.4161 51.6686L43.4463 51.7097L43.9556 51.2547C44.3775 50.8778 44.4649 50.6869 44.4649 50.1425C44.4649 49.5985 44.3773 49.4071 43.9578 49.0323L43.4509 48.5793L26.6102 48.5891C17.3478 48.5946 9.62892 48.6567 9.45697 48.727ZM9.45697 57.4807C8.46186 57.8881 8.19737 59.1926 8.95597 59.9513L9.38585 60.3812L23.2554 60.4193C34.1122 60.4492 37.2099 60.415 37.5158 60.2618C37.7308 60.1542 38.0356 59.8028 38.193 59.4811C38.4708 58.914 38.4708 58.8784 38.193 58.3113C38.0356 57.9896 37.7308 57.6388 37.5158 57.532C37.2129 57.3813 34.0481 57.3393 23.4473 57.3452C15.9246 57.3494 9.62892 57.4104 9.45697 57.4807ZM42.4398 57.475C41.4436 57.9014 41.1802 59.1927 41.9354 59.9477C42.2574 60.2699 42.5145 60.3742 42.9869 60.3742C44.8047 60.3742 45.0154 57.7173 43.2214 57.419C42.9635 57.376 42.6118 57.4012 42.4398 57.475Z" fill="url(#paint1_radial_1376_209)"/>
<defs>
<radialGradient id="paint0_radial_1376_209" cx="0" cy="0" r="1" gradientUnits="userSpaceOnUse" gradientTransform="translate(21.1109 16.8132) rotate(51.0492) scale(67.163 67.1604)">
<stop stop-color="white" stop-opacity="0.59"/>
<stop offset="0.697917" stop-color="white" stop-opacity="0"/>
<stop offset="1" stop-color="white" stop-opacity="0"/>
</radialGradient>
<radialGradient id="paint1_radial_1376_209" cx="0" cy="0" r="1" gradientUnits="userSpaceOnUse" gradientTransform="translate(69.0409 70.1562) rotate(-93.6698) scale(68.4862 76.317)">
<stop stop-opacity="0.23"/>
<stop offset="0.861815" stop-opacity="0"/>
</radialGradient>
</defs>
</svg>
