<svg width="72" height="72" viewBox="0 0 72 72" fill="none" xmlns="http://www.w3.org/2000/svg">
<path fill-rule="evenodd" clip-rule="evenodd" d="M53.7029 2.27533C50.411 5.94157 48.4693 7.62665 45.4585 9.43004C41.8599 11.5857 37.8382 12.9261 33.4153 13.4442C32.6008 13.5395 31.9105 13.6412 31.881 13.6702C31.8244 13.7258 38.5122 30.0282 38.6599 30.1949C38.7492 30.2956 46.1539 29.3274 48.5205 28.9055C52.4259 28.2094 56.6962 26.5017 60.0715 24.2863C62.5023 22.6909 63.8844 21.4857 67.961 17.4071L72 13.3659L64.2672 6.86761C60.0142 3.29355 56.3875 0.252195 56.208 0.109233C55.884 -0.149056 55.8649 -0.132474 53.7029 2.27533ZM24.0857 0.914723C19.5087 2.25905 18.547 2.42995 16.1629 2.32344C9.83308 2.0405 9.35652 2.04378 7.72176 2.38259C5.66613 2.80849 3.64366 3.62593 1.57944 4.86494C0.233303 5.67297 -0.0825723 5.92499 0.016944 6.11127C0.973456 7.90167 8.22941 19.7853 8.35914 19.774C8.45658 19.7655 9.06805 19.3729 9.71801 18.9016C12.4578 16.9152 15.0218 16.0592 18.9034 15.8351C22.8728 15.606 24.5169 15.1303 28.7807 12.9772L31.4093 11.6498L30.984 10.4911C29.7775 7.20478 27.1149 0.0902607 27.0835 0.0691972C27.0636 0.0559018 25.7147 0.436388 24.0857 0.914723ZM26.6781 5.67357C27.2141 7.11082 27.8328 8.77767 28.0532 9.37775L28.4539 10.4687L26.3438 11.5058C23.5865 12.8607 22.0737 13.2531 18.9017 13.4363C17.5952 13.5117 16.0058 13.6819 15.3696 13.8144C13.3816 14.2286 11.1108 15.1227 9.59495 16.088C9.27907 16.2891 8.9672 16.3976 8.90204 16.329C8.83688 16.2604 7.51429 14.0697 5.96319 11.4608C3.16519 6.75498 3.14534 6.71569 3.4701 6.50117C4.09238 6.09006 5.79141 5.3739 7.08734 4.97639C8.2728 4.61263 8.61148 4.57663 10.9057 4.57065C12.2903 4.56692 14.4895 4.61965 15.7927 4.68777C18.6053 4.83492 19.6402 4.69046 23.0491 3.67523C24.2708 3.31148 25.3678 3.02421 25.4871 3.0369C25.6249 3.05184 26.0582 4.0109 26.6781 5.67357ZM62.4297 8.43258L68.4621 13.508L65.2293 16.7371C61.0953 20.8666 59.0577 22.4124 55.4807 24.1337C53.463 25.1047 50.7889 26.0118 48.7426 26.4196C46.4049 26.8854 40.2883 27.68 40.1545 27.535C40.0219 27.3916 35.2659 15.8914 35.2675 15.7184C35.2681 15.6571 36.021 15.4588 36.9405 15.2781C39.39 14.7967 42.1141 13.845 44.5742 12.6114C48.2945 10.7455 50.8458 8.81531 53.9748 5.49909C55.0473 4.36241 55.9471 3.36481 55.9745 3.2822C56.0017 3.19973 56.108 3.18285 56.2107 3.24455C56.3133 3.3064 59.1119 5.641 62.4297 8.43258ZM54.3604 8.59527L52.8194 10.1552L53.6671 11.0102L54.5147 11.8653L55.3063 11.0767L56.0978 10.2881L58.7192 12.489L61.3403 14.6898L60.6354 15.4116L59.9307 16.1336L60.7789 16.9893L61.6272 17.8451L63.2565 16.2016L64.8858 14.558L60.7095 11.0489C58.4126 9.11901 56.3912 7.42632 56.2173 7.28769C55.9087 7.0412 55.8662 7.07123 54.3604 8.59527ZM14.5339 9.85534V11.0504H16.311H18.088V9.85534V8.66025H16.311H14.5339V9.85534ZM50.0754 13.6359C49.3486 13.867 48.109 15.1618 47.8861 15.9228C47.4759 17.3235 47.7651 18.4401 48.8116 19.4958C49.8582 20.5515 50.9652 20.8433 52.3537 20.4295C53.1671 20.187 54.3939 18.9495 54.6342 18.1289C55.0445 16.7283 54.7552 15.6116 53.7087 14.5559C52.6666 13.5048 51.4537 13.1977 50.0754 13.6359ZM52.0813 16.1975C52.816 16.9385 52.2955 18.221 51.2602 18.221C50.6514 18.221 50.0754 17.64 50.0754 17.0259C50.0754 16.4118 50.6514 15.8308 51.2602 15.8308C51.5486 15.8308 51.8522 15.9663 52.0813 16.1975ZM40.6959 16.8173C39.7269 17.3134 39.1189 17.7099 39.1614 17.8179C40.1012 20.2088 42.2627 25.6248 42.2874 25.6507C42.3897 25.7578 46.8178 24.1416 46.819 23.9967C46.8224 23.6119 46.1589 21.9556 46.0015 21.9556C45.9086 21.9556 45.3434 22.1235 44.7451 22.3288C44.147 22.534 43.6466 22.6852 43.6332 22.6649C43.6199 22.6446 43.2695 21.7696 42.8546 20.7206L42.1004 18.8134L42.7188 18.4988C43.0591 18.3258 43.3664 18.1576 43.4018 18.1252C43.4829 18.0508 42.4949 15.9775 42.3832 15.9879C42.3379 15.9921 41.5785 16.3653 40.6959 16.8173ZM18.1621 17.8666C17.0904 18.76 14.7673 20.2106 13.1993 20.9658C10.7441 22.148 9.21006 22.6063 4.41788 23.5886C2.07139 24.0696 0.115276 24.4998 0.0708488 24.5445C0.00243126 24.6137 4.11326 37.3065 4.25927 37.4767C4.28741 37.5094 4.85104 37.4183 5.51182 37.2743C6.17274 37.1303 6.76436 37.0699 6.82671 37.1401C6.8889 37.2102 7.35287 38.8139 7.85756 40.7036C8.36225 42.5933 8.80489 44.2433 8.84117 44.3703C8.90011 44.5763 9.29788 44.5654 12.572 44.2673C14.5876 44.0839 16.9476 43.7929 17.816 43.6207C21.3251 42.925 24.7105 41.4177 27.5384 39.2916C28.7724 38.3638 36.155 31.7082 36.155 31.5235C36.155 31.4336 26.8163 17.881 26.5816 17.6303C26.5468 17.5931 25.2033 18.8877 23.5964 20.5072L20.6746 23.4519L19.7339 20.575C19.2166 18.9927 18.7513 17.6527 18.6998 17.5973C18.6484 17.5417 18.4064 17.663 18.1621 17.8666ZM18.8331 25.4802C19.5636 27.6874 20.1613 29.5655 20.1613 29.6535C20.1613 30.0869 15.9277 32.2645 13.6329 33.0115C12.499 33.3807 5.92647 34.855 5.85657 34.7558C5.74047 34.5912 3.1172 26.4014 3.16504 26.3531C3.20073 26.317 4.55723 26.0143 6.17926 25.6804C10.5294 24.7848 13.7493 23.6111 16.526 21.9089C17.0107 21.6117 17.4293 21.3908 17.4561 21.4178C17.483 21.4449 18.1027 23.2729 18.8331 25.4802ZM29.6211 26.1599C31.444 28.7953 32.9434 31.0302 32.9532 31.1266C32.982 31.4098 26.7232 36.9901 25.29 37.9591C22.7122 39.7015 19.8317 40.8624 16.8293 41.3684C14.6858 41.7297 10.8447 42.0512 10.6987 41.8815C10.5771 41.74 9.16697 36.5746 9.23568 36.5229C9.25834 36.5058 10.0431 36.3408 10.9797 36.1558C11.9164 35.9709 13.4767 35.5571 14.447 35.2361C15.4172 34.915 16.2221 34.6694 16.2353 34.6902C16.2486 34.7111 16.4055 34.973 16.5838 35.2724C16.947 35.8822 17.5447 36.3827 18.5323 36.9043C19.0782 37.1926 19.4263 37.2567 20.4575 37.2592C21.6096 37.2619 21.7952 37.2192 22.6486 36.755C23.6173 36.228 24.1957 35.6158 24.7297 34.5525C25.7409 32.5392 24.8886 29.6302 22.9756 28.5645C22.2859 28.1804 22.2181 28.0879 21.8741 27.0615L21.5074 25.968L23.8332 23.6686C25.1124 22.4041 26.1923 21.3693 26.233 21.369C26.2737 21.3687 27.7984 23.5248 29.6211 26.1599ZM11.0168 27.283C10.1818 27.5711 9.49884 27.8888 9.49884 27.9892C9.49884 28.4094 10.1327 30.0225 10.2978 30.0225C10.4993 30.0225 13.5064 29.0174 13.6063 28.9167C13.6415 28.8812 13.5183 28.3759 13.3324 27.7939C13.1004 27.067 12.9227 26.7397 12.7647 26.7478C12.6382 26.7542 11.8517 26.9952 11.0168 27.283ZM66.2913 29.449C59.6357 31.6699 54.5718 32.2216 48.1928 31.4206C47.1979 31.2957 46.2876 31.2158 46.1696 31.243C46.0061 31.2805 46.4758 32.6945 48.1458 37.193L50.3365 43.0938L51.6498 43.4315C54.5005 44.1647 56.843 44.4193 60.7379 44.4193C63.7569 44.4193 64.7267 44.3631 66.5134 44.0849C68.4965 43.776 71.3262 43.1438 71.4971 42.9714C71.5585 42.9094 69.0124 29.7112 68.7901 28.9394C68.7487 28.7956 68.6693 28.6847 68.6138 28.6929C68.5581 28.7012 67.513 29.0413 66.2913 29.449ZM22.6643 31.688C23.4838 34.0595 20.7553 35.9755 18.8994 34.3318C18.616 34.0809 18.3842 33.8236 18.3842 33.7603C18.3842 33.6968 18.9674 33.3048 19.68 32.889C20.3928 32.4733 21.2424 31.9291 21.5682 31.6796C22.317 31.106 22.4637 31.107 22.6643 31.688ZM67.0316 32.1512C67.0754 32.3362 67.5 34.4522 67.9752 36.8538C68.7636 40.8385 68.8168 41.2275 68.5834 41.3022C68.4427 41.3473 67.4363 41.5176 66.3468 41.6807C63.6489 42.085 60.2381 42.2063 57.7769 41.9856C55.2666 41.7605 52.4274 41.2768 52.2051 41.0361C52.112 40.9354 51.4734 39.3352 50.7858 37.4803L49.5358 34.1074L52.9525 34.1064C57.6328 34.1051 61.3494 33.5662 65.0395 32.3541C66.9251 31.7347 66.9328 31.7338 67.0316 32.1512ZM58.3685 38.5375V39.7326H60.1456H61.9226V38.5375V37.3424H60.1456H58.3685V38.5375ZM34.3039 38.6794C31.1013 39.3773 28.5408 41.843 27.8278 44.9155L27.6477 45.6916L22.1644 45.7372L16.6812 45.7827L15.6829 46.2597C13.0364 47.5244 11.6026 50.5538 12.3777 53.2434C12.516 53.7233 14.3905 57.6692 16.5433 62.0119L20.4575 69.9075V70.9537V72H35.8588H51.2602V70.9537V69.9075L55.1905 61.979C57.5595 57.2003 59.2138 53.6851 59.3546 53.1307C59.9465 50.7997 58.9216 48.0945 56.9468 46.7749C55.4593 45.7809 54.9303 45.708 49.2063 45.708H44.0738L43.8918 44.9238C43.0637 41.356 39.9144 38.7595 36.229 38.6059C35.496 38.5753 34.6297 38.6084 34.3039 38.6794ZM38.2918 41.4983C39.591 42.1116 40.4862 42.9849 41.1145 44.2518C41.4003 44.8283 41.6343 45.3918 41.6343 45.504C41.6343 45.6644 41.2755 45.708 39.9548 45.708C38.0787 45.708 37.1596 45.9175 36.3705 46.5247L35.8588 46.9184L35.3472 46.5247C34.558 45.9175 33.639 45.708 31.7628 45.708C30.4421 45.708 30.0833 45.6644 30.0833 45.504C30.0833 45.0255 31.1676 43.1622 31.7745 42.598C32.4876 41.9348 33.6199 41.3017 34.4884 41.0803C35.5324 40.8141 37.2401 41.0019 38.2918 41.4983ZM34.116 48.6612C34.5325 49.0816 34.6001 49.253 34.6001 49.8908C34.6001 50.5286 34.5325 50.7002 34.1161 51.1204L33.6323 51.6088L28.166 51.6835C22.9374 51.7549 22.6821 51.7716 22.2913 52.0662C21.5378 52.634 21.2738 53.136 21.2486 54.0472L21.2252 54.8953L19.3975 56.1358C18.3922 56.8182 17.4544 57.4417 17.3134 57.5215C17.0908 57.6473 16.8956 57.3448 15.838 55.2351C14.6586 52.8829 14.6189 52.77 14.6174 51.7582C14.6146 50.0081 15.5325 48.7557 17.1986 48.2359C17.4027 48.1722 21.1837 48.132 25.6008 48.1465L33.632 48.1729L34.116 48.6612ZM55.1845 48.4953C56.4848 49.2031 57.1026 50.2553 57.1002 51.7582C57.0988 52.77 57.0591 52.8829 55.8797 55.2351C54.822 57.3448 54.6268 57.6473 54.4043 57.5215C54.2633 57.4417 53.3254 56.8182 52.3202 56.1358L50.4925 54.8953L50.4691 54.0472C50.4439 53.136 50.1799 52.634 49.4264 52.0662C49.0356 51.7716 48.7803 51.7549 43.5516 51.6835L38.0854 51.6088L37.6015 51.1204C37.1867 50.7019 37.1176 50.5275 37.1176 49.9C37.1176 49.1305 37.5005 48.5165 38.1542 48.2382C38.3171 48.1689 42.0823 48.1257 46.5213 48.1424C54.4792 48.1725 54.6005 48.1774 55.1845 48.4953ZM66.6615 52.8786V54.0737H65.4768H64.2921V55.2687V56.4638H65.4768H66.6615V57.6589V58.854H67.8462H69.0309V57.6589V56.4638H70.2157H71.4004V55.2687V54.0737H70.2157H69.0309V52.8786V51.6835H67.8462H66.6615V52.8786ZM2.68671 54.0737V55.2687H1.50199H0.31727V56.4638V57.6589H1.50199H2.68671V58.854V60.0491H3.87143H5.05614V58.854V57.6589H6.24086H7.42558V56.4638V55.2687H6.24086H5.05614V54.0737V52.8786H3.87143H2.68671V54.0737ZM36.0827 53.0308C36.349 53.4654 37.7485 53.9755 38.8588 54.0427L40.0079 54.1122L39.4268 54.7481C38.5447 55.7133 38.3327 56.2348 38.2577 57.6216L38.1911 58.854H35.8588H33.5266L33.4599 57.6216C33.385 56.2348 33.1729 55.7133 32.2909 54.7481L31.7098 54.1122L32.8588 54.0427C33.9692 53.9755 35.3686 53.4654 35.6349 53.0308C35.6863 52.9471 35.787 52.8786 35.8588 52.8786C35.9306 52.8786 36.0313 52.9471 36.0827 53.0308ZM28.9448 54.5146C29.0868 54.7571 29.6343 55.4296 30.1615 56.0091C31.118 57.0605 31.1199 57.0644 31.1199 57.9583V58.854H28.5293H25.9386L24.7521 56.4638L23.5656 54.0737H26.1262H28.6867L28.9448 54.5146ZM46.9656 56.4638L45.7791 58.854H43.1884H40.5977V57.9583C40.5977 57.0644 40.5996 57.0605 41.5561 56.0091C42.0833 55.4296 42.6308 54.7571 42.7728 54.5146L43.031 54.0737H45.5914H48.1521L46.9656 56.4638ZM22.8248 57.9534C23.0704 58.4441 23.2712 58.8757 23.2712 58.9126C23.2712 58.9495 23.059 59.0267 22.7995 59.0842C22.1395 59.2305 20.8658 60.5573 20.6376 61.3362C20.5385 61.6744 20.4539 62.5147 20.4496 63.2035L20.4419 64.456L19.3313 62.2388C18.7204 61.0194 18.2409 59.9602 18.2656 59.8854C18.3019 59.7756 22.2202 57.0623 22.3436 57.0615C22.3627 57.0615 22.5793 57.4628 22.8248 57.9534ZM51.8155 58.6791C52.7319 59.2937 53.478 59.8701 53.4738 59.9601C53.4695 60.0501 52.9731 61.0985 52.3708 62.2899L51.2757 64.456L51.2679 63.2035C51.2637 62.5147 51.1792 61.6744 51.0801 61.3362C50.8519 60.5573 49.5782 59.2305 48.9181 59.0842C48.6587 59.0267 48.4465 58.9495 48.4465 58.9126C48.4465 58.8757 48.6499 58.4387 48.8987 57.9416L49.3511 57.0376L49.7502 57.2997C49.9699 57.4438 50.8993 58.0645 51.8155 58.6791ZM48.5272 61.6109L48.8907 61.9775V65.7937V69.6098H35.8588H22.8269V65.7937V61.9775L23.1905 61.6109L23.5539 61.2442H35.8588H48.1638L48.5272 61.6109ZM8.6103 66.0246V67.2196H7.42558H6.24086V68.4147V69.6098H7.42558H8.6103V70.8049V72H9.79502H10.9797V70.8049V69.6098H12.1645H13.3492V68.4147V67.2196H12.1645H10.9797V66.0246V64.8295H9.79502H8.6103V66.0246ZM61.9226 65.0247C61.1958 65.2558 59.9562 66.5507 59.7333 67.3117C59.3231 68.7123 59.6123 69.829 60.6588 70.8847C61.4258 71.6584 62.1759 72 63.1074 72C64.0388 72 64.7889 71.6584 65.5559 70.8847C67.003 69.4249 67.0462 67.5679 65.6692 66.0228C64.7107 64.9475 63.3261 64.5785 61.9226 65.0247ZM63.9285 67.5864C64.1578 67.8175 64.2921 68.1237 64.2921 68.4147C64.2921 68.7057 64.1578 69.012 63.9285 69.2431C63.6994 69.4743 63.3958 69.6098 63.1074 69.6098C62.8189 69.6098 62.5153 69.4743 62.2862 69.2431C62.0569 69.012 61.9226 68.7057 61.9226 68.4147C61.9226 68.1237 62.0569 67.8175 62.2862 67.5864C62.5153 67.3551 62.8189 67.2196 63.1074 67.2196C63.3958 67.2196 63.6994 67.3551 63.9285 67.5864Z" fill="#0066FF"/>
<path fill-rule="evenodd" clip-rule="evenodd" d="M53.7029 2.27533C50.411 5.94157 48.4693 7.62665 45.4585 9.43004C41.8599 11.5857 37.8382 12.9261 33.4153 13.4442C32.6008 13.5395 31.9105 13.6412 31.881 13.6702C31.8244 13.7258 38.5122 30.0282 38.6599 30.1949C38.7492 30.2956 46.1539 29.3274 48.5205 28.9055C52.4259 28.2094 56.6962 26.5017 60.0715 24.2863C62.5023 22.6909 63.8844 21.4857 67.961 17.4071L72 13.3659L64.2672 6.86761C60.0142 3.29355 56.3875 0.252195 56.208 0.109233C55.884 -0.149056 55.8649 -0.132474 53.7029 2.27533ZM24.0857 0.914723C19.5087 2.25905 18.547 2.42995 16.1629 2.32344C9.83308 2.0405 9.35652 2.04378 7.72176 2.38259C5.66613 2.80849 3.64366 3.62593 1.57944 4.86494C0.233303 5.67297 -0.0825723 5.92499 0.016944 6.11127C0.973456 7.90167 8.22941 19.7853 8.35914 19.774C8.45658 19.7655 9.06805 19.3729 9.71801 18.9016C12.4578 16.9152 15.0218 16.0592 18.9034 15.8351C22.8728 15.606 24.5169 15.1303 28.7807 12.9772L31.4093 11.6498L30.984 10.4911C29.7775 7.20478 27.1149 0.0902607 27.0835 0.0691972C27.0636 0.0559018 25.7147 0.436388 24.0857 0.914723ZM26.6781 5.67357C27.2141 7.11082 27.8328 8.77767 28.0532 9.37775L28.4539 10.4687L26.3438 11.5058C23.5865 12.8607 22.0737 13.2531 18.9017 13.4363C17.5952 13.5117 16.0058 13.6819 15.3696 13.8144C13.3816 14.2286 11.1108 15.1227 9.59495 16.088C9.27907 16.2891 8.9672 16.3976 8.90204 16.329C8.83688 16.2604 7.51429 14.0697 5.96319 11.4608C3.16519 6.75498 3.14534 6.71569 3.4701 6.50117C4.09238 6.09006 5.79141 5.3739 7.08734 4.97639C8.2728 4.61263 8.61148 4.57663 10.9057 4.57065C12.2903 4.56692 14.4895 4.61965 15.7927 4.68777C18.6053 4.83492 19.6402 4.69046 23.0491 3.67523C24.2708 3.31148 25.3678 3.02421 25.4871 3.0369C25.6249 3.05184 26.0582 4.0109 26.6781 5.67357ZM62.4297 8.43258L68.4621 13.508L65.2293 16.7371C61.0953 20.8666 59.0577 22.4124 55.4807 24.1337C53.463 25.1047 50.7889 26.0118 48.7426 26.4196C46.4049 26.8854 40.2883 27.68 40.1545 27.535C40.0219 27.3916 35.2659 15.8914 35.2675 15.7184C35.2681 15.6571 36.021 15.4588 36.9405 15.2781C39.39 14.7967 42.1141 13.845 44.5742 12.6114C48.2945 10.7455 50.8458 8.81531 53.9748 5.49909C55.0473 4.36241 55.9471 3.36481 55.9745 3.2822C56.0017 3.19973 56.108 3.18285 56.2107 3.24455C56.3133 3.3064 59.1119 5.641 62.4297 8.43258ZM54.3604 8.59527L52.8194 10.1552L53.6671 11.0102L54.5147 11.8653L55.3063 11.0767L56.0978 10.2881L58.7192 12.489L61.3403 14.6898L60.6354 15.4116L59.9307 16.1336L60.7789 16.9893L61.6272 17.8451L63.2565 16.2016L64.8858 14.558L60.7095 11.0489C58.4126 9.11901 56.3912 7.42632 56.2173 7.28769C55.9087 7.0412 55.8662 7.07123 54.3604 8.59527ZM14.5339 9.85534V11.0504H16.311H18.088V9.85534V8.66025H16.311H14.5339V9.85534ZM50.0754 13.6359C49.3486 13.867 48.109 15.1618 47.8861 15.9228C47.4759 17.3235 47.7651 18.4401 48.8116 19.4958C49.8582 20.5515 50.9652 20.8433 52.3537 20.4295C53.1671 20.187 54.3939 18.9495 54.6342 18.1289C55.0445 16.7283 54.7552 15.6116 53.7087 14.5559C52.6666 13.5048 51.4537 13.1977 50.0754 13.6359ZM52.0813 16.1975C52.816 16.9385 52.2955 18.221 51.2602 18.221C50.6514 18.221 50.0754 17.64 50.0754 17.0259C50.0754 16.4118 50.6514 15.8308 51.2602 15.8308C51.5486 15.8308 51.8522 15.9663 52.0813 16.1975ZM40.6959 16.8173C39.7269 17.3134 39.1189 17.7099 39.1614 17.8179C40.1012 20.2088 42.2627 25.6248 42.2874 25.6507C42.3897 25.7578 46.8178 24.1416 46.819 23.9967C46.8224 23.6119 46.1589 21.9556 46.0015 21.9556C45.9086 21.9556 45.3434 22.1235 44.7451 22.3288C44.147 22.534 43.6466 22.6852 43.6332 22.6649C43.6199 22.6446 43.2695 21.7696 42.8546 20.7206L42.1004 18.8134L42.7188 18.4988C43.0591 18.3258 43.3664 18.1576 43.4018 18.1252C43.4829 18.0508 42.4949 15.9775 42.3832 15.9879C42.3379 15.9921 41.5785 16.3653 40.6959 16.8173ZM18.1621 17.8666C17.0904 18.76 14.7673 20.2106 13.1993 20.9658C10.7441 22.148 9.21006 22.6063 4.41788 23.5886C2.07139 24.0696 0.115276 24.4998 0.0708488 24.5445C0.00243126 24.6137 4.11326 37.3065 4.25927 37.4767C4.28741 37.5094 4.85104 37.4183 5.51182 37.2743C6.17274 37.1303 6.76436 37.0699 6.82671 37.1401C6.8889 37.2102 7.35287 38.8139 7.85756 40.7036C8.36225 42.5933 8.80489 44.2433 8.84117 44.3703C8.90011 44.5763 9.29788 44.5654 12.572 44.2673C14.5876 44.0839 16.9476 43.7929 17.816 43.6207C21.3251 42.925 24.7105 41.4177 27.5384 39.2916C28.7724 38.3638 36.155 31.7082 36.155 31.5235C36.155 31.4336 26.8163 17.881 26.5816 17.6303C26.5468 17.5931 25.2033 18.8877 23.5964 20.5072L20.6746 23.4519L19.7339 20.575C19.2166 18.9927 18.7513 17.6527 18.6998 17.5973C18.6484 17.5417 18.4064 17.663 18.1621 17.8666ZM18.8331 25.4802C19.5636 27.6874 20.1613 29.5655 20.1613 29.6535C20.1613 30.0869 15.9277 32.2645 13.6329 33.0115C12.499 33.3807 5.92647 34.855 5.85657 34.7558C5.74047 34.5912 3.1172 26.4014 3.16504 26.3531C3.20073 26.317 4.55723 26.0143 6.17926 25.6804C10.5294 24.7848 13.7493 23.6111 16.526 21.9089C17.0107 21.6117 17.4293 21.3908 17.4561 21.4178C17.483 21.4449 18.1027 23.2729 18.8331 25.4802ZM29.6211 26.1599C31.444 28.7953 32.9434 31.0302 32.9532 31.1266C32.982 31.4098 26.7232 36.9901 25.29 37.9591C22.7122 39.7015 19.8317 40.8624 16.8293 41.3684C14.6858 41.7297 10.8447 42.0512 10.6987 41.8815C10.5771 41.74 9.16697 36.5746 9.23568 36.5229C9.25834 36.5058 10.0431 36.3408 10.9797 36.1558C11.9164 35.9709 13.4767 35.5571 14.447 35.2361C15.4172 34.915 16.2221 34.6694 16.2353 34.6902C16.2486 34.7111 16.4055 34.973 16.5838 35.2724C16.947 35.8822 17.5447 36.3827 18.5323 36.9043C19.0782 37.1926 19.4263 37.2567 20.4575 37.2592C21.6096 37.2619 21.7952 37.2192 22.6486 36.755C23.6173 36.228 24.1957 35.6158 24.7297 34.5525C25.7409 32.5392 24.8886 29.6302 22.9756 28.5645C22.2859 28.1804 22.2181 28.0879 21.8741 27.0615L21.5074 25.968L23.8332 23.6686C25.1124 22.4041 26.1923 21.3693 26.233 21.369C26.2737 21.3687 27.7984 23.5248 29.6211 26.1599ZM11.0168 27.283C10.1818 27.5711 9.49884 27.8888 9.49884 27.9892C9.49884 28.4094 10.1327 30.0225 10.2978 30.0225C10.4993 30.0225 13.5064 29.0174 13.6063 28.9167C13.6415 28.8812 13.5183 28.3759 13.3324 27.7939C13.1004 27.067 12.9227 26.7397 12.7647 26.7478C12.6382 26.7542 11.8517 26.9952 11.0168 27.283ZM66.2913 29.449C59.6357 31.6699 54.5718 32.2216 48.1928 31.4206C47.1979 31.2957 46.2876 31.2158 46.1696 31.243C46.0061 31.2805 46.4758 32.6945 48.1458 37.193L50.3365 43.0938L51.6498 43.4315C54.5005 44.1647 56.843 44.4193 60.7379 44.4193C63.7569 44.4193 64.7267 44.3631 66.5134 44.0849C68.4965 43.776 71.3262 43.1438 71.4971 42.9714C71.5585 42.9094 69.0124 29.7112 68.7901 28.9394C68.7487 28.7956 68.6693 28.6847 68.6138 28.6929C68.5581 28.7012 67.513 29.0413 66.2913 29.449ZM22.6643 31.688C23.4838 34.0595 20.7553 35.9755 18.8994 34.3318C18.616 34.0809 18.3842 33.8236 18.3842 33.7603C18.3842 33.6968 18.9674 33.3048 19.68 32.889C20.3928 32.4733 21.2424 31.9291 21.5682 31.6796C22.317 31.106 22.4637 31.107 22.6643 31.688ZM67.0316 32.1512C67.0754 32.3362 67.5 34.4522 67.9752 36.8538C68.7636 40.8385 68.8168 41.2275 68.5834 41.3022C68.4427 41.3473 67.4363 41.5176 66.3468 41.6807C63.6489 42.085 60.2381 42.2063 57.7769 41.9856C55.2666 41.7605 52.4274 41.2768 52.2051 41.0361C52.112 40.9354 51.4734 39.3352 50.7858 37.4803L49.5358 34.1074L52.9525 34.1064C57.6328 34.1051 61.3494 33.5662 65.0395 32.3541C66.9251 31.7347 66.9328 31.7338 67.0316 32.1512ZM58.3685 38.5375V39.7326H60.1456H61.9226V38.5375V37.3424H60.1456H58.3685V38.5375ZM34.3039 38.6794C31.1013 39.3773 28.5408 41.843 27.8278 44.9155L27.6477 45.6916L22.1644 45.7372L16.6812 45.7827L15.6829 46.2597C13.0364 47.5244 11.6026 50.5538 12.3777 53.2434C12.516 53.7233 14.3905 57.6692 16.5433 62.0119L20.4575 69.9075V70.9537V72H35.8588H51.2602V70.9537V69.9075L55.1905 61.979C57.5595 57.2003 59.2138 53.6851 59.3546 53.1307C59.9465 50.7997 58.9216 48.0945 56.9468 46.7749C55.4593 45.7809 54.9303 45.708 49.2063 45.708H44.0738L43.8918 44.9238C43.0637 41.356 39.9144 38.7595 36.229 38.6059C35.496 38.5753 34.6297 38.6084 34.3039 38.6794ZM38.2918 41.4983C39.591 42.1116 40.4862 42.9849 41.1145 44.2518C41.4003 44.8283 41.6343 45.3918 41.6343 45.504C41.6343 45.6644 41.2755 45.708 39.9548 45.708C38.0787 45.708 37.1596 45.9175 36.3705 46.5247L35.8588 46.9184L35.3472 46.5247C34.558 45.9175 33.639 45.708 31.7628 45.708C30.4421 45.708 30.0833 45.6644 30.0833 45.504C30.0833 45.0255 31.1676 43.1622 31.7745 42.598C32.4876 41.9348 33.6199 41.3017 34.4884 41.0803C35.5324 40.8141 37.2401 41.0019 38.2918 41.4983ZM34.116 48.6612C34.5325 49.0816 34.6001 49.253 34.6001 49.8908C34.6001 50.5286 34.5325 50.7002 34.1161 51.1204L33.6323 51.6088L28.166 51.6835C22.9374 51.7549 22.6821 51.7716 22.2913 52.0662C21.5378 52.634 21.2738 53.136 21.2486 54.0472L21.2252 54.8953L19.3975 56.1358C18.3922 56.8182 17.4544 57.4417 17.3134 57.5215C17.0908 57.6473 16.8956 57.3448 15.838 55.2351C14.6586 52.8829 14.6189 52.77 14.6174 51.7582C14.6146 50.0081 15.5325 48.7557 17.1986 48.2359C17.4027 48.1722 21.1837 48.132 25.6008 48.1465L33.632 48.1729L34.116 48.6612ZM55.1845 48.4953C56.4848 49.2031 57.1026 50.2553 57.1002 51.7582C57.0988 52.77 57.0591 52.8829 55.8797 55.2351C54.822 57.3448 54.6268 57.6473 54.4043 57.5215C54.2633 57.4417 53.3254 56.8182 52.3202 56.1358L50.4925 54.8953L50.4691 54.0472C50.4439 53.136 50.1799 52.634 49.4264 52.0662C49.0356 51.7716 48.7803 51.7549 43.5516 51.6835L38.0854 51.6088L37.6015 51.1204C37.1867 50.7019 37.1176 50.5275 37.1176 49.9C37.1176 49.1305 37.5005 48.5165 38.1542 48.2382C38.3171 48.1689 42.0823 48.1257 46.5213 48.1424C54.4792 48.1725 54.6005 48.1774 55.1845 48.4953ZM66.6615 52.8786V54.0737H65.4768H64.2921V55.2687V56.4638H65.4768H66.6615V57.6589V58.854H67.8462H69.0309V57.6589V56.4638H70.2157H71.4004V55.2687V54.0737H70.2157H69.0309V52.8786V51.6835H67.8462H66.6615V52.8786ZM2.68671 54.0737V55.2687H1.50199H0.31727V56.4638V57.6589H1.50199H2.68671V58.854V60.0491H3.87143H5.05614V58.854V57.6589H6.24086H7.42558V56.4638V55.2687H6.24086H5.05614V54.0737V52.8786H3.87143H2.68671V54.0737ZM36.0827 53.0308C36.349 53.4654 37.7485 53.9755 38.8588 54.0427L40.0079 54.1122L39.4268 54.7481C38.5447 55.7133 38.3327 56.2348 38.2577 57.6216L38.1911 58.854H35.8588H33.5266L33.4599 57.6216C33.385 56.2348 33.1729 55.7133 32.2909 54.7481L31.7098 54.1122L32.8588 54.0427C33.9692 53.9755 35.3686 53.4654 35.6349 53.0308C35.6863 52.9471 35.787 52.8786 35.8588 52.8786C35.9306 52.8786 36.0313 52.9471 36.0827 53.0308ZM28.9448 54.5146C29.0868 54.7571 29.6343 55.4296 30.1615 56.0091C31.118 57.0605 31.1199 57.0644 31.1199 57.9583V58.854H28.5293H25.9386L24.7521 56.4638L23.5656 54.0737H26.1262H28.6867L28.9448 54.5146ZM46.9656 56.4638L45.7791 58.854H43.1884H40.5977V57.9583C40.5977 57.0644 40.5996 57.0605 41.5561 56.0091C42.0833 55.4296 42.6308 54.7571 42.7728 54.5146L43.031 54.0737H45.5914H48.1521L46.9656 56.4638ZM22.8248 57.9534C23.0704 58.4441 23.2712 58.8757 23.2712 58.9126C23.2712 58.9495 23.059 59.0267 22.7995 59.0842C22.1395 59.2305 20.8658 60.5573 20.6376 61.3362C20.5385 61.6744 20.4539 62.5147 20.4496 63.2035L20.4419 64.456L19.3313 62.2388C18.7204 61.0194 18.2409 59.9602 18.2656 59.8854C18.3019 59.7756 22.2202 57.0623 22.3436 57.0615C22.3627 57.0615 22.5793 57.4628 22.8248 57.9534ZM51.8155 58.6791C52.7319 59.2937 53.478 59.8701 53.4738 59.9601C53.4695 60.0501 52.9731 61.0985 52.3708 62.2899L51.2757 64.456L51.2679 63.2035C51.2637 62.5147 51.1792 61.6744 51.0801 61.3362C50.8519 60.5573 49.5782 59.2305 48.9181 59.0842C48.6587 59.0267 48.4465 58.9495 48.4465 58.9126C48.4465 58.8757 48.6499 58.4387 48.8987 57.9416L49.3511 57.0376L49.7502 57.2997C49.9699 57.4438 50.8993 58.0645 51.8155 58.6791ZM48.5272 61.6109L48.8907 61.9775V65.7937V69.6098H35.8588H22.8269V65.7937V61.9775L23.1905 61.6109L23.5539 61.2442H35.8588H48.1638L48.5272 61.6109ZM8.6103 66.0246V67.2196H7.42558H6.24086V68.4147V69.6098H7.42558H8.6103V70.8049V72H9.79502H10.9797V70.8049V69.6098H12.1645H13.3492V68.4147V67.2196H12.1645H10.9797V66.0246V64.8295H9.79502H8.6103V66.0246ZM61.9226 65.0247C61.1958 65.2558 59.9562 66.5507 59.7333 67.3117C59.3231 68.7123 59.6123 69.829 60.6588 70.8847C61.4258 71.6584 62.1759 72 63.1074 72C64.0388 72 64.7889 71.6584 65.5559 70.8847C67.003 69.4249 67.0462 67.5679 65.6692 66.0228C64.7107 64.9475 63.3261 64.5785 61.9226 65.0247ZM63.9285 67.5864C64.1578 67.8175 64.2921 68.1237 64.2921 68.4147C64.2921 68.7057 64.1578 69.012 63.9285 69.2431C63.6994 69.4743 63.3958 69.6098 63.1074 69.6098C62.8189 69.6098 62.5153 69.4743 62.2862 69.2431C62.0569 69.012 61.9226 68.7057 61.9226 68.4147C61.9226 68.1237 62.0569 67.8175 62.2862 67.5864C62.5153 67.3551 62.8189 67.2196 63.1074 67.2196C63.3958 67.2196 63.6994 67.3551 63.9285 67.5864Z" fill="url(#paint0_radial_1469_199)" fill-opacity="0.7"/>
<path fill-rule="evenodd" clip-rule="evenodd" d="M53.7029 2.27533C50.411 5.94157 48.4693 7.62665 45.4585 9.43004C41.8599 11.5857 37.8382 12.9261 33.4153 13.4442C32.6008 13.5395 31.9105 13.6412 31.881 13.6702C31.8244 13.7258 38.5122 30.0282 38.6599 30.1949C38.7492 30.2956 46.1539 29.3274 48.5205 28.9055C52.4259 28.2094 56.6962 26.5017 60.0715 24.2863C62.5023 22.6909 63.8844 21.4857 67.961 17.4071L72 13.3659L64.2672 6.86761C60.0142 3.29355 56.3875 0.252195 56.208 0.109233C55.884 -0.149056 55.8649 -0.132474 53.7029 2.27533ZM24.0857 0.914723C19.5087 2.25905 18.547 2.42995 16.1629 2.32344C9.83308 2.0405 9.35652 2.04378 7.72176 2.38259C5.66613 2.80849 3.64366 3.62593 1.57944 4.86494C0.233303 5.67297 -0.0825723 5.92499 0.016944 6.11127C0.973456 7.90167 8.22941 19.7853 8.35914 19.774C8.45658 19.7655 9.06805 19.3729 9.71801 18.9016C12.4578 16.9152 15.0218 16.0592 18.9034 15.8351C22.8728 15.606 24.5169 15.1303 28.7807 12.9772L31.4093 11.6498L30.984 10.4911C29.7775 7.20478 27.1149 0.0902607 27.0835 0.0691972C27.0636 0.0559018 25.7147 0.436388 24.0857 0.914723ZM26.6781 5.67357C27.2141 7.11082 27.8328 8.77767 28.0532 9.37775L28.4539 10.4687L26.3438 11.5058C23.5865 12.8607 22.0737 13.2531 18.9017 13.4363C17.5952 13.5117 16.0058 13.6819 15.3696 13.8144C13.3816 14.2286 11.1108 15.1227 9.59495 16.088C9.27907 16.2891 8.9672 16.3976 8.90204 16.329C8.83688 16.2604 7.51429 14.0697 5.96319 11.4608C3.16519 6.75498 3.14534 6.71569 3.4701 6.50117C4.09238 6.09006 5.79141 5.3739 7.08734 4.97639C8.2728 4.61263 8.61148 4.57663 10.9057 4.57065C12.2903 4.56692 14.4895 4.61965 15.7927 4.68777C18.6053 4.83492 19.6402 4.69046 23.0491 3.67523C24.2708 3.31148 25.3678 3.02421 25.4871 3.0369C25.6249 3.05184 26.0582 4.0109 26.6781 5.67357ZM62.4297 8.43258L68.4621 13.508L65.2293 16.7371C61.0953 20.8666 59.0577 22.4124 55.4807 24.1337C53.463 25.1047 50.7889 26.0118 48.7426 26.4196C46.4049 26.8854 40.2883 27.68 40.1545 27.535C40.0219 27.3916 35.2659 15.8914 35.2675 15.7184C35.2681 15.6571 36.021 15.4588 36.9405 15.2781C39.39 14.7967 42.1141 13.845 44.5742 12.6114C48.2945 10.7455 50.8458 8.81531 53.9748 5.49909C55.0473 4.36241 55.9471 3.36481 55.9745 3.2822C56.0017 3.19973 56.108 3.18285 56.2107 3.24455C56.3133 3.3064 59.1119 5.641 62.4297 8.43258ZM54.3604 8.59527L52.8194 10.1552L53.6671 11.0102L54.5147 11.8653L55.3063 11.0767L56.0978 10.2881L58.7192 12.489L61.3403 14.6898L60.6354 15.4116L59.9307 16.1336L60.7789 16.9893L61.6272 17.8451L63.2565 16.2016L64.8858 14.558L60.7095 11.0489C58.4126 9.11901 56.3912 7.42632 56.2173 7.28769C55.9087 7.0412 55.8662 7.07123 54.3604 8.59527ZM14.5339 9.85534V11.0504H16.311H18.088V9.85534V8.66025H16.311H14.5339V9.85534ZM50.0754 13.6359C49.3486 13.867 48.109 15.1618 47.8861 15.9228C47.4759 17.3235 47.7651 18.4401 48.8116 19.4958C49.8582 20.5515 50.9652 20.8433 52.3537 20.4295C53.1671 20.187 54.3939 18.9495 54.6342 18.1289C55.0445 16.7283 54.7552 15.6116 53.7087 14.5559C52.6666 13.5048 51.4537 13.1977 50.0754 13.6359ZM52.0813 16.1975C52.816 16.9385 52.2955 18.221 51.2602 18.221C50.6514 18.221 50.0754 17.64 50.0754 17.0259C50.0754 16.4118 50.6514 15.8308 51.2602 15.8308C51.5486 15.8308 51.8522 15.9663 52.0813 16.1975ZM40.6959 16.8173C39.7269 17.3134 39.1189 17.7099 39.1614 17.8179C40.1012 20.2088 42.2627 25.6248 42.2874 25.6507C42.3897 25.7578 46.8178 24.1416 46.819 23.9967C46.8224 23.6119 46.1589 21.9556 46.0015 21.9556C45.9086 21.9556 45.3434 22.1235 44.7451 22.3288C44.147 22.534 43.6466 22.6852 43.6332 22.6649C43.6199 22.6446 43.2695 21.7696 42.8546 20.7206L42.1004 18.8134L42.7188 18.4988C43.0591 18.3258 43.3664 18.1576 43.4018 18.1252C43.4829 18.0508 42.4949 15.9775 42.3832 15.9879C42.3379 15.9921 41.5785 16.3653 40.6959 16.8173ZM18.1621 17.8666C17.0904 18.76 14.7673 20.2106 13.1993 20.9658C10.7441 22.148 9.21006 22.6063 4.41788 23.5886C2.07139 24.0696 0.115276 24.4998 0.0708488 24.5445C0.00243126 24.6137 4.11326 37.3065 4.25927 37.4767C4.28741 37.5094 4.85104 37.4183 5.51182 37.2743C6.17274 37.1303 6.76436 37.0699 6.82671 37.1401C6.8889 37.2102 7.35287 38.8139 7.85756 40.7036C8.36225 42.5933 8.80489 44.2433 8.84117 44.3703C8.90011 44.5763 9.29788 44.5654 12.572 44.2673C14.5876 44.0839 16.9476 43.7929 17.816 43.6207C21.3251 42.925 24.7105 41.4177 27.5384 39.2916C28.7724 38.3638 36.155 31.7082 36.155 31.5235C36.155 31.4336 26.8163 17.881 26.5816 17.6303C26.5468 17.5931 25.2033 18.8877 23.5964 20.5072L20.6746 23.4519L19.7339 20.575C19.2166 18.9927 18.7513 17.6527 18.6998 17.5973C18.6484 17.5417 18.4064 17.663 18.1621 17.8666ZM18.8331 25.4802C19.5636 27.6874 20.1613 29.5655 20.1613 29.6535C20.1613 30.0869 15.9277 32.2645 13.6329 33.0115C12.499 33.3807 5.92647 34.855 5.85657 34.7558C5.74047 34.5912 3.1172 26.4014 3.16504 26.3531C3.20073 26.317 4.55723 26.0143 6.17926 25.6804C10.5294 24.7848 13.7493 23.6111 16.526 21.9089C17.0107 21.6117 17.4293 21.3908 17.4561 21.4178C17.483 21.4449 18.1027 23.2729 18.8331 25.4802ZM29.6211 26.1599C31.444 28.7953 32.9434 31.0302 32.9532 31.1266C32.982 31.4098 26.7232 36.9901 25.29 37.9591C22.7122 39.7015 19.8317 40.8624 16.8293 41.3684C14.6858 41.7297 10.8447 42.0512 10.6987 41.8815C10.5771 41.74 9.16697 36.5746 9.23568 36.5229C9.25834 36.5058 10.0431 36.3408 10.9797 36.1558C11.9164 35.9709 13.4767 35.5571 14.447 35.2361C15.4172 34.915 16.2221 34.6694 16.2353 34.6902C16.2486 34.7111 16.4055 34.973 16.5838 35.2724C16.947 35.8822 17.5447 36.3827 18.5323 36.9043C19.0782 37.1926 19.4263 37.2567 20.4575 37.2592C21.6096 37.2619 21.7952 37.2192 22.6486 36.755C23.6173 36.228 24.1957 35.6158 24.7297 34.5525C25.7409 32.5392 24.8886 29.6302 22.9756 28.5645C22.2859 28.1804 22.2181 28.0879 21.8741 27.0615L21.5074 25.968L23.8332 23.6686C25.1124 22.4041 26.1923 21.3693 26.233 21.369C26.2737 21.3687 27.7984 23.5248 29.6211 26.1599ZM11.0168 27.283C10.1818 27.5711 9.49884 27.8888 9.49884 27.9892C9.49884 28.4094 10.1327 30.0225 10.2978 30.0225C10.4993 30.0225 13.5064 29.0174 13.6063 28.9167C13.6415 28.8812 13.5183 28.3759 13.3324 27.7939C13.1004 27.067 12.9227 26.7397 12.7647 26.7478C12.6382 26.7542 11.8517 26.9952 11.0168 27.283ZM66.2913 29.449C59.6357 31.6699 54.5718 32.2216 48.1928 31.4206C47.1979 31.2957 46.2876 31.2158 46.1696 31.243C46.0061 31.2805 46.4758 32.6945 48.1458 37.193L50.3365 43.0938L51.6498 43.4315C54.5005 44.1647 56.843 44.4193 60.7379 44.4193C63.7569 44.4193 64.7267 44.3631 66.5134 44.0849C68.4965 43.776 71.3262 43.1438 71.4971 42.9714C71.5585 42.9094 69.0124 29.7112 68.7901 28.9394C68.7487 28.7956 68.6693 28.6847 68.6138 28.6929C68.5581 28.7012 67.513 29.0413 66.2913 29.449ZM22.6643 31.688C23.4838 34.0595 20.7553 35.9755 18.8994 34.3318C18.616 34.0809 18.3842 33.8236 18.3842 33.7603C18.3842 33.6968 18.9674 33.3048 19.68 32.889C20.3928 32.4733 21.2424 31.9291 21.5682 31.6796C22.317 31.106 22.4637 31.107 22.6643 31.688ZM67.0316 32.1512C67.0754 32.3362 67.5 34.4522 67.9752 36.8538C68.7636 40.8385 68.8168 41.2275 68.5834 41.3022C68.4427 41.3473 67.4363 41.5176 66.3468 41.6807C63.6489 42.085 60.2381 42.2063 57.7769 41.9856C55.2666 41.7605 52.4274 41.2768 52.2051 41.0361C52.112 40.9354 51.4734 39.3352 50.7858 37.4803L49.5358 34.1074L52.9525 34.1064C57.6328 34.1051 61.3494 33.5662 65.0395 32.3541C66.9251 31.7347 66.9328 31.7338 67.0316 32.1512ZM58.3685 38.5375V39.7326H60.1456H61.9226V38.5375V37.3424H60.1456H58.3685V38.5375ZM34.3039 38.6794C31.1013 39.3773 28.5408 41.843 27.8278 44.9155L27.6477 45.6916L22.1644 45.7372L16.6812 45.7827L15.6829 46.2597C13.0364 47.5244 11.6026 50.5538 12.3777 53.2434C12.516 53.7233 14.3905 57.6692 16.5433 62.0119L20.4575 69.9075V70.9537V72H35.8588H51.2602V70.9537V69.9075L55.1905 61.979C57.5595 57.2003 59.2138 53.6851 59.3546 53.1307C59.9465 50.7997 58.9216 48.0945 56.9468 46.7749C55.4593 45.7809 54.9303 45.708 49.2063 45.708H44.0738L43.8918 44.9238C43.0637 41.356 39.9144 38.7595 36.229 38.6059C35.496 38.5753 34.6297 38.6084 34.3039 38.6794ZM38.2918 41.4983C39.591 42.1116 40.4862 42.9849 41.1145 44.2518C41.4003 44.8283 41.6343 45.3918 41.6343 45.504C41.6343 45.6644 41.2755 45.708 39.9548 45.708C38.0787 45.708 37.1596 45.9175 36.3705 46.5247L35.8588 46.9184L35.3472 46.5247C34.558 45.9175 33.639 45.708 31.7628 45.708C30.4421 45.708 30.0833 45.6644 30.0833 45.504C30.0833 45.0255 31.1676 43.1622 31.7745 42.598C32.4876 41.9348 33.6199 41.3017 34.4884 41.0803C35.5324 40.8141 37.2401 41.0019 38.2918 41.4983ZM34.116 48.6612C34.5325 49.0816 34.6001 49.253 34.6001 49.8908C34.6001 50.5286 34.5325 50.7002 34.1161 51.1204L33.6323 51.6088L28.166 51.6835C22.9374 51.7549 22.6821 51.7716 22.2913 52.0662C21.5378 52.634 21.2738 53.136 21.2486 54.0472L21.2252 54.8953L19.3975 56.1358C18.3922 56.8182 17.4544 57.4417 17.3134 57.5215C17.0908 57.6473 16.8956 57.3448 15.838 55.2351C14.6586 52.8829 14.6189 52.77 14.6174 51.7582C14.6146 50.0081 15.5325 48.7557 17.1986 48.2359C17.4027 48.1722 21.1837 48.132 25.6008 48.1465L33.632 48.1729L34.116 48.6612ZM55.1845 48.4953C56.4848 49.2031 57.1026 50.2553 57.1002 51.7582C57.0988 52.77 57.0591 52.8829 55.8797 55.2351C54.822 57.3448 54.6268 57.6473 54.4043 57.5215C54.2633 57.4417 53.3254 56.8182 52.3202 56.1358L50.4925 54.8953L50.4691 54.0472C50.4439 53.136 50.1799 52.634 49.4264 52.0662C49.0356 51.7716 48.7803 51.7549 43.5516 51.6835L38.0854 51.6088L37.6015 51.1204C37.1867 50.7019 37.1176 50.5275 37.1176 49.9C37.1176 49.1305 37.5005 48.5165 38.1542 48.2382C38.3171 48.1689 42.0823 48.1257 46.5213 48.1424C54.4792 48.1725 54.6005 48.1774 55.1845 48.4953ZM66.6615 52.8786V54.0737H65.4768H64.2921V55.2687V56.4638H65.4768H66.6615V57.6589V58.854H67.8462H69.0309V57.6589V56.4638H70.2157H71.4004V55.2687V54.0737H70.2157H69.0309V52.8786V51.6835H67.8462H66.6615V52.8786ZM2.68671 54.0737V55.2687H1.50199H0.31727V56.4638V57.6589H1.50199H2.68671V58.854V60.0491H3.87143H5.05614V58.854V57.6589H6.24086H7.42558V56.4638V55.2687H6.24086H5.05614V54.0737V52.8786H3.87143H2.68671V54.0737ZM36.0827 53.0308C36.349 53.4654 37.7485 53.9755 38.8588 54.0427L40.0079 54.1122L39.4268 54.7481C38.5447 55.7133 38.3327 56.2348 38.2577 57.6216L38.1911 58.854H35.8588H33.5266L33.4599 57.6216C33.385 56.2348 33.1729 55.7133 32.2909 54.7481L31.7098 54.1122L32.8588 54.0427C33.9692 53.9755 35.3686 53.4654 35.6349 53.0308C35.6863 52.9471 35.787 52.8786 35.8588 52.8786C35.9306 52.8786 36.0313 52.9471 36.0827 53.0308ZM28.9448 54.5146C29.0868 54.7571 29.6343 55.4296 30.1615 56.0091C31.118 57.0605 31.1199 57.0644 31.1199 57.9583V58.854H28.5293H25.9386L24.7521 56.4638L23.5656 54.0737H26.1262H28.6867L28.9448 54.5146ZM46.9656 56.4638L45.7791 58.854H43.1884H40.5977V57.9583C40.5977 57.0644 40.5996 57.0605 41.5561 56.0091C42.0833 55.4296 42.6308 54.7571 42.7728 54.5146L43.031 54.0737H45.5914H48.1521L46.9656 56.4638ZM22.8248 57.9534C23.0704 58.4441 23.2712 58.8757 23.2712 58.9126C23.2712 58.9495 23.059 59.0267 22.7995 59.0842C22.1395 59.2305 20.8658 60.5573 20.6376 61.3362C20.5385 61.6744 20.4539 62.5147 20.4496 63.2035L20.4419 64.456L19.3313 62.2388C18.7204 61.0194 18.2409 59.9602 18.2656 59.8854C18.3019 59.7756 22.2202 57.0623 22.3436 57.0615C22.3627 57.0615 22.5793 57.4628 22.8248 57.9534ZM51.8155 58.6791C52.7319 59.2937 53.478 59.8701 53.4738 59.9601C53.4695 60.0501 52.9731 61.0985 52.3708 62.2899L51.2757 64.456L51.2679 63.2035C51.2637 62.5147 51.1792 61.6744 51.0801 61.3362C50.8519 60.5573 49.5782 59.2305 48.9181 59.0842C48.6587 59.0267 48.4465 58.9495 48.4465 58.9126C48.4465 58.8757 48.6499 58.4387 48.8987 57.9416L49.3511 57.0376L49.7502 57.2997C49.9699 57.4438 50.8993 58.0645 51.8155 58.6791ZM48.5272 61.6109L48.8907 61.9775V65.7937V69.6098H35.8588H22.8269V65.7937V61.9775L23.1905 61.6109L23.5539 61.2442H35.8588H48.1638L48.5272 61.6109ZM8.6103 66.0246V67.2196H7.42558H6.24086V68.4147V69.6098H7.42558H8.6103V70.8049V72H9.79502H10.9797V70.8049V69.6098H12.1645H13.3492V68.4147V67.2196H12.1645H10.9797V66.0246V64.8295H9.79502H8.6103V66.0246ZM61.9226 65.0247C61.1958 65.2558 59.9562 66.5507 59.7333 67.3117C59.3231 68.7123 59.6123 69.829 60.6588 70.8847C61.4258 71.6584 62.1759 72 63.1074 72C64.0388 72 64.7889 71.6584 65.5559 70.8847C67.003 69.4249 67.0462 67.5679 65.6692 66.0228C64.7107 64.9475 63.3261 64.5785 61.9226 65.0247ZM63.9285 67.5864C64.1578 67.8175 64.2921 68.1237 64.2921 68.4147C64.2921 68.7057 64.1578 69.012 63.9285 69.2431C63.6994 69.4743 63.3958 69.6098 63.1074 69.6098C62.8189 69.6098 62.5153 69.4743 62.2862 69.2431C62.0569 69.012 61.9226 68.7057 61.9226 68.4147C61.9226 68.1237 62.0569 67.8175 62.2862 67.5864C62.5153 67.3551 62.8189 67.2196 63.1074 67.2196C63.3958 67.2196 63.6994 67.3551 63.9285 67.5864Z" fill="url(#paint1_radial_1469_199)"/>
<defs>
<radialGradient id="paint0_radial_1469_199" cx="0" cy="0" r="1" gradientUnits="userSpaceOnUse" gradientTransform="translate(19 15) rotate(51.0441) scale(60.4401 60.4401)">
<stop stop-color="white" stop-opacity="0.59"/>
<stop offset="0.697917" stop-color="white" stop-opacity="0"/>
<stop offset="1" stop-color="white" stop-opacity="0"/>
</radialGradient>
<radialGradient id="paint1_radial_1469_199" cx="0" cy="0" r="1" gradientUnits="userSpaceOnUse" gradientTransform="translate(62.137 63) rotate(-93.6705) scale(61.6264 68.6852)">
<stop stop-opacity="0.23"/>
<stop offset="0.861815" stop-opacity="0"/>
</radialGradient>
</defs>
</svg>
