<svg width="66" height="71" viewBox="0 0 66 71" fill="none" xmlns="http://www.w3.org/2000/svg">
<path fill-rule="evenodd" clip-rule="evenodd" d="M26.5267 0.704216C25.3439 1.50122 24.9961 2.07146 25.2586 2.78413C25.4667 3.34906 28.8204 8.59043 29.2893 9.08348C29.8239 9.64558 30.6158 9.62367 31.1219 9.03268C31.3348 8.78417 31.509 8.41197 31.509 8.20563C31.509 7.99944 31.0402 7.08839 30.4672 6.18132C29.0779 3.98188 29.0718 3.9696 29.6239 4.46364C34.2886 8.63774 35.364 9.49568 35.9308 9.49568C36.968 9.49568 37.545 8.10984 36.8395 7.31333C36.5794 7.01966 33.2113 4.03035 29.8156 1.07939C28.2569 -0.275232 28.0204 -0.302125 26.5267 0.704216ZM15.81 6.27396C12.9622 7.34172 12.9497 7.58276 15.5536 11.1906C17.4201 13.7769 17.4449 13.8228 17.1445 14.155C16.6439 14.709 16.4677 15.1766 16.4677 15.9511C16.4677 16.9078 16.9938 17.7008 17.9503 18.1862C18.6647 18.5486 18.8325 18.5597 23.6101 18.5597C26.3181 18.5597 28.5338 18.6178 28.5338 18.6889C28.5338 18.7599 27.5686 20.6753 26.3888 22.9452C25.2091 25.215 24.209 27.1925 24.1663 27.3396C24.0201 27.8437 24.485 28.5001 25.6412 29.422C26.4455 30.0633 26.9452 30.3448 27.2804 30.3453C27.8014 30.3463 28.1964 29.9791 35.8891 22.345L39.5255 18.7364L46.1371 18.6895C52.4638 18.6447 52.7736 18.6281 53.3266 18.3017C54.7579 17.4573 55.0451 15.9524 54.1123 14.1859C53.4242 12.8831 52.008 11.4639 50.8162 10.8832C48.8228 9.91169 49.0716 9.9273 35.5951 9.9273H23.2219L21.043 8.04958C18.5868 5.93264 18.1536 5.60826 17.7944 5.61789C17.6556 5.62154 16.7627 5.91687 15.81 6.27396ZM19.9455 10.5913L22.2577 12.5834H35.0353C49.1435 12.5834 48.8205 12.5612 50.2159 13.6299C50.9994 14.2302 52.0048 15.4686 52.0048 15.8335C52.0048 16.0337 50.981 16.0696 45.2579 16.0696H38.511L32.9587 21.5479C29.905 24.5609 27.3708 27.0261 27.3273 27.0261C27.2837 27.0261 28.3318 24.953 29.6562 22.4194C32.1483 17.6522 32.3703 17.0295 31.7863 16.4431C31.3931 16.048 29.7407 15.9328 24.2407 15.9169C20.1508 15.9049 19.7351 15.8789 20.0546 15.6541C20.5444 15.3094 20.8209 14.412 20.6093 13.8532C20.5181 13.6123 19.7287 12.4337 18.8551 11.2343C17.9816 10.0347 17.2278 8.951 17.1802 8.82616C16.9432 8.20579 17.8442 8.78101 19.9455 10.5913ZM29.5255 36.6774C23.3693 37.311 17.0657 39.9387 12.1702 43.9123C10.7065 45.1003 7.92817 47.9462 6.85726 49.3542C2.97595 54.4582 0.702064 60.3285 0.0873534 66.8319C-0.129671 69.1286 0.0134699 69.6826 1.02405 70.4569L1.64851 70.9353L32.7794 70.9781C67.0015 71.0251 64.6099 71.0968 65.4402 69.9983C66.0165 69.2357 66.1048 68.5703 65.8994 66.5361C65.1542 59.1592 62.1131 52.3852 57.1751 47.104C49.967 39.3947 39.9227 35.6071 29.5255 36.6774ZM36.1022 39.321C42.5245 40.0262 48.4187 42.647 53.3204 46.977L54.8838 48.3582L50.4278 48.4412C45.9721 48.5242 45.9718 48.5242 44.98 48.9892C43.6979 49.5903 42.7181 50.5651 42.1756 51.7788C41.2938 53.7526 41.4619 55.4587 42.6562 56.6564C43.5576 57.5603 44.2547 57.7376 46.9083 57.7376C49.2136 57.7376 49.5255 57.8226 49.5255 58.4513C49.5255 58.9957 49.0096 59.8875 48.4721 60.2726C47.9719 60.6308 47.7944 60.6454 42.9873 60.7258L38.0194 60.8088L36.7711 61.4288C34.5177 62.5479 33.2123 64.5091 33.0399 67.0343L32.9493 68.3622H20.6478H8.34619L8.45925 67.9886C8.73726 67.069 9.94156 65.9177 10.9964 65.5629C11.3675 65.4383 13.2697 65.374 16.5971 65.374C20.0701 65.374 21.8473 65.3113 22.3163 65.1722C23.2242 64.9027 24.5934 63.5275 24.8617 62.6156C24.9723 62.2398 25.0627 61.4707 25.0627 60.9066C25.0627 60.0387 25.1252 59.8179 25.4685 59.4733C25.7948 59.1454 26.0417 59.0657 26.7303 59.0657C28.087 59.0657 28.8551 58.7538 29.7825 57.8263C31.2374 56.3714 31.402 54.4671 30.2729 52.1583C29.5726 50.7263 28.5883 49.7693 27.0759 49.0496L25.9718 48.5242L21.4263 48.4697C18.3896 48.4332 16.6743 48.477 16.2582 48.6017C15.0004 48.9786 13.8353 50.467 13.8267 51.7081C13.8199 52.6928 13.6148 52.7574 10.4923 52.7574H7.68123L8.31627 51.8583C11.9216 46.7542 17.4177 42.7206 23.5121 40.7064C27.6316 39.3449 31.9711 38.8673 36.1022 39.321ZM25.622 51.2992C26.53 51.5686 27.8992 52.9438 28.1675 53.8557C28.6677 55.5561 28.1777 56.4096 26.7009 56.4096C25.3425 56.4096 24.5759 56.7212 23.6521 57.649C22.7049 58.6006 22.4181 59.3444 22.4181 60.8511C22.4181 61.5879 22.3349 61.9543 22.1024 62.2429L21.7867 62.6349L16.1933 62.7179L10.5999 62.8009L9.49577 63.3263C8.88867 63.6152 8.05264 64.1656 7.63809 64.5495C6.84156 65.2867 5.72388 67.2838 5.72388 67.9694C5.72388 68.355 5.69512 68.3622 4.14173 68.3622H2.55958L2.66371 67.4076C3.14471 62.9999 3.85561 60.2572 5.35297 57.0321L6.10437 55.4135L9.92239 55.4099C13.2576 55.4067 13.8242 55.368 14.403 55.1039C15.5718 54.5705 16.4635 53.2211 16.4667 51.9807C16.4688 51.139 16.6811 51.0973 20.9644 51.0973C23.604 51.0973 25.1705 51.1652 25.622 51.2992ZM58.3043 52.8188C61.1908 57.1462 62.682 61.4757 63.3294 67.4076L63.4336 68.3622H49.5374H35.6412V67.5929C35.6412 67.1697 35.7316 66.5162 35.8422 66.1403C36.1105 65.2284 37.4797 63.8532 38.3876 63.5838C38.8468 63.4475 40.4929 63.3819 43.4513 63.3819C48.8134 63.3819 49.1086 63.3172 50.6071 61.8122C51.3622 61.0538 51.6751 60.5913 51.8881 59.9182C52.5539 57.8153 51.8908 56.0696 50.1483 55.3385C49.6933 55.1474 48.9336 55.0815 47.1885 55.0815C45.2359 55.0815 44.79 55.0352 44.5385 54.8068C43.9614 54.2822 44.2655 52.9304 45.1635 52.0288C46.0693 51.1196 46.1822 51.1048 51.9222 51.1441L57.2114 51.1803L58.3043 52.8188Z" fill="#0066FF"/>
<path fill-rule="evenodd" clip-rule="evenodd" d="M26.5267 0.704216C25.3439 1.50122 24.9961 2.07146 25.2586 2.78413C25.4667 3.34906 28.8204 8.59043 29.2893 9.08348C29.8239 9.64558 30.6158 9.62367 31.1219 9.03268C31.3348 8.78417 31.509 8.41197 31.509 8.20563C31.509 7.99944 31.0402 7.08839 30.4672 6.18132C29.0779 3.98188 29.0718 3.9696 29.6239 4.46364C34.2886 8.63774 35.364 9.49568 35.9308 9.49568C36.968 9.49568 37.545 8.10984 36.8395 7.31333C36.5794 7.01966 33.2113 4.03035 29.8156 1.07939C28.2569 -0.275232 28.0204 -0.302125 26.5267 0.704216ZM15.81 6.27396C12.9622 7.34172 12.9497 7.58276 15.5536 11.1906C17.4201 13.7769 17.4449 13.8228 17.1445 14.155C16.6439 14.709 16.4677 15.1766 16.4677 15.9511C16.4677 16.9078 16.9938 17.7008 17.9503 18.1862C18.6647 18.5486 18.8325 18.5597 23.6101 18.5597C26.3181 18.5597 28.5338 18.6178 28.5338 18.6889C28.5338 18.7599 27.5686 20.6753 26.3888 22.9452C25.2091 25.215 24.209 27.1925 24.1663 27.3396C24.0201 27.8437 24.485 28.5001 25.6412 29.422C26.4455 30.0633 26.9452 30.3448 27.2804 30.3453C27.8014 30.3463 28.1964 29.9791 35.8891 22.345L39.5255 18.7364L46.1371 18.6895C52.4638 18.6447 52.7736 18.6281 53.3266 18.3017C54.7579 17.4573 55.0451 15.9524 54.1123 14.1859C53.4242 12.8831 52.008 11.4639 50.8162 10.8832C48.8228 9.91169 49.0716 9.9273 35.5951 9.9273H23.2219L21.043 8.04958C18.5868 5.93264 18.1536 5.60826 17.7944 5.61789C17.6556 5.62154 16.7627 5.91687 15.81 6.27396ZM19.9455 10.5913L22.2577 12.5834H35.0353C49.1435 12.5834 48.8205 12.5612 50.2159 13.6299C50.9994 14.2302 52.0048 15.4686 52.0048 15.8335C52.0048 16.0337 50.981 16.0696 45.2579 16.0696H38.511L32.9587 21.5479C29.905 24.5609 27.3708 27.0261 27.3273 27.0261C27.2837 27.0261 28.3318 24.953 29.6562 22.4194C32.1483 17.6522 32.3703 17.0295 31.7863 16.4431C31.3931 16.048 29.7407 15.9328 24.2407 15.9169C20.1508 15.9049 19.7351 15.8789 20.0546 15.6541C20.5444 15.3094 20.8209 14.412 20.6093 13.8532C20.5181 13.6123 19.7287 12.4337 18.8551 11.2343C17.9816 10.0347 17.2278 8.951 17.1802 8.82616C16.9432 8.20579 17.8442 8.78101 19.9455 10.5913ZM29.5255 36.6774C23.3693 37.311 17.0657 39.9387 12.1702 43.9123C10.7065 45.1003 7.92817 47.9462 6.85726 49.3542C2.97595 54.4582 0.702064 60.3285 0.0873534 66.8319C-0.129671 69.1286 0.0134699 69.6826 1.02405 70.4569L1.64851 70.9353L32.7794 70.9781C67.0015 71.0251 64.6099 71.0968 65.4402 69.9983C66.0165 69.2357 66.1048 68.5703 65.8994 66.5361C65.1542 59.1592 62.1131 52.3852 57.1751 47.104C49.967 39.3947 39.9227 35.6071 29.5255 36.6774ZM36.1022 39.321C42.5245 40.0262 48.4187 42.647 53.3204 46.977L54.8838 48.3582L50.4278 48.4412C45.9721 48.5242 45.9718 48.5242 44.98 48.9892C43.6979 49.5903 42.7181 50.5651 42.1756 51.7788C41.2938 53.7526 41.4619 55.4587 42.6562 56.6564C43.5576 57.5603 44.2547 57.7376 46.9083 57.7376C49.2136 57.7376 49.5255 57.8226 49.5255 58.4513C49.5255 58.9957 49.0096 59.8875 48.4721 60.2726C47.9719 60.6308 47.7944 60.6454 42.9873 60.7258L38.0194 60.8088L36.7711 61.4288C34.5177 62.5479 33.2123 64.5091 33.0399 67.0343L32.9493 68.3622H20.6478H8.34619L8.45925 67.9886C8.73726 67.069 9.94156 65.9177 10.9964 65.5629C11.3675 65.4383 13.2697 65.374 16.5971 65.374C20.0701 65.374 21.8473 65.3113 22.3163 65.1722C23.2242 64.9027 24.5934 63.5275 24.8617 62.6156C24.9723 62.2398 25.0627 61.4707 25.0627 60.9066C25.0627 60.0387 25.1252 59.8179 25.4685 59.4733C25.7948 59.1454 26.0417 59.0657 26.7303 59.0657C28.087 59.0657 28.8551 58.7538 29.7825 57.8263C31.2374 56.3714 31.402 54.4671 30.2729 52.1583C29.5726 50.7263 28.5883 49.7693 27.0759 49.0496L25.9718 48.5242L21.4263 48.4697C18.3896 48.4332 16.6743 48.477 16.2582 48.6017C15.0004 48.9786 13.8353 50.467 13.8267 51.7081C13.8199 52.6928 13.6148 52.7574 10.4923 52.7574H7.68123L8.31627 51.8583C11.9216 46.7542 17.4177 42.7206 23.5121 40.7064C27.6316 39.3449 31.9711 38.8673 36.1022 39.321ZM25.622 51.2992C26.53 51.5686 27.8992 52.9438 28.1675 53.8557C28.6677 55.5561 28.1777 56.4096 26.7009 56.4096C25.3425 56.4096 24.5759 56.7212 23.6521 57.649C22.7049 58.6006 22.4181 59.3444 22.4181 60.8511C22.4181 61.5879 22.3349 61.9543 22.1024 62.2429L21.7867 62.6349L16.1933 62.7179L10.5999 62.8009L9.49577 63.3263C8.88867 63.6152 8.05264 64.1656 7.63809 64.5495C6.84156 65.2867 5.72388 67.2838 5.72388 67.9694C5.72388 68.355 5.69512 68.3622 4.14173 68.3622H2.55958L2.66371 67.4076C3.14471 62.9999 3.85561 60.2572 5.35297 57.0321L6.10437 55.4135L9.92239 55.4099C13.2576 55.4067 13.8242 55.368 14.403 55.1039C15.5718 54.5705 16.4635 53.2211 16.4667 51.9807C16.4688 51.139 16.6811 51.0973 20.9644 51.0973C23.604 51.0973 25.1705 51.1652 25.622 51.2992ZM58.3043 52.8188C61.1908 57.1462 62.682 61.4757 63.3294 67.4076L63.4336 68.3622H49.5374H35.6412V67.5929C35.6412 67.1697 35.7316 66.5162 35.8422 66.1403C36.1105 65.2284 37.4797 63.8532 38.3876 63.5838C38.8468 63.4475 40.4929 63.3819 43.4513 63.3819C48.8134 63.3819 49.1086 63.3172 50.6071 61.8122C51.3622 61.0538 51.6751 60.5913 51.8881 59.9182C52.5539 57.8153 51.8908 56.0696 50.1483 55.3385C49.6933 55.1474 48.9336 55.0815 47.1885 55.0815C45.2359 55.0815 44.79 55.0352 44.5385 54.8068C43.9614 54.2822 44.2655 52.9304 45.1635 52.0288C46.0693 51.1196 46.1822 51.1048 51.9222 51.1441L57.2114 51.1803L58.3043 52.8188Z" fill="url(#paint0_radial_1469_217)" fill-opacity="0.7"/>
<path fill-rule="evenodd" clip-rule="evenodd" d="M26.5267 0.704216C25.3439 1.50122 24.9961 2.07146 25.2586 2.78413C25.4667 3.34906 28.8204 8.59043 29.2893 9.08348C29.8239 9.64558 30.6158 9.62367 31.1219 9.03268C31.3348 8.78417 31.509 8.41197 31.509 8.20563C31.509 7.99944 31.0402 7.08839 30.4672 6.18132C29.0779 3.98188 29.0718 3.9696 29.6239 4.46364C34.2886 8.63774 35.364 9.49568 35.9308 9.49568C36.968 9.49568 37.545 8.10984 36.8395 7.31333C36.5794 7.01966 33.2113 4.03035 29.8156 1.07939C28.2569 -0.275232 28.0204 -0.302125 26.5267 0.704216ZM15.81 6.27396C12.9622 7.34172 12.9497 7.58276 15.5536 11.1906C17.4201 13.7769 17.4449 13.8228 17.1445 14.155C16.6439 14.709 16.4677 15.1766 16.4677 15.9511C16.4677 16.9078 16.9938 17.7008 17.9503 18.1862C18.6647 18.5486 18.8325 18.5597 23.6101 18.5597C26.3181 18.5597 28.5338 18.6178 28.5338 18.6889C28.5338 18.7599 27.5686 20.6753 26.3888 22.9452C25.2091 25.215 24.209 27.1925 24.1663 27.3396C24.0201 27.8437 24.485 28.5001 25.6412 29.422C26.4455 30.0633 26.9452 30.3448 27.2804 30.3453C27.8014 30.3463 28.1964 29.9791 35.8891 22.345L39.5255 18.7364L46.1371 18.6895C52.4638 18.6447 52.7736 18.6281 53.3266 18.3017C54.7579 17.4573 55.0451 15.9524 54.1123 14.1859C53.4242 12.8831 52.008 11.4639 50.8162 10.8832C48.8228 9.91169 49.0716 9.9273 35.5951 9.9273H23.2219L21.043 8.04958C18.5868 5.93264 18.1536 5.60826 17.7944 5.61789C17.6556 5.62154 16.7627 5.91687 15.81 6.27396ZM19.9455 10.5913L22.2577 12.5834H35.0353C49.1435 12.5834 48.8205 12.5612 50.2159 13.6299C50.9994 14.2302 52.0048 15.4686 52.0048 15.8335C52.0048 16.0337 50.981 16.0696 45.2579 16.0696H38.511L32.9587 21.5479C29.905 24.5609 27.3708 27.0261 27.3273 27.0261C27.2837 27.0261 28.3318 24.953 29.6562 22.4194C32.1483 17.6522 32.3703 17.0295 31.7863 16.4431C31.3931 16.048 29.7407 15.9328 24.2407 15.9169C20.1508 15.9049 19.7351 15.8789 20.0546 15.6541C20.5444 15.3094 20.8209 14.412 20.6093 13.8532C20.5181 13.6123 19.7287 12.4337 18.8551 11.2343C17.9816 10.0347 17.2278 8.951 17.1802 8.82616C16.9432 8.20579 17.8442 8.78101 19.9455 10.5913ZM29.5255 36.6774C23.3693 37.311 17.0657 39.9387 12.1702 43.9123C10.7065 45.1003 7.92817 47.9462 6.85726 49.3542C2.97595 54.4582 0.702064 60.3285 0.0873534 66.8319C-0.129671 69.1286 0.0134699 69.6826 1.02405 70.4569L1.64851 70.9353L32.7794 70.9781C67.0015 71.0251 64.6099 71.0968 65.4402 69.9983C66.0165 69.2357 66.1048 68.5703 65.8994 66.5361C65.1542 59.1592 62.1131 52.3852 57.1751 47.104C49.967 39.3947 39.9227 35.6071 29.5255 36.6774ZM36.1022 39.321C42.5245 40.0262 48.4187 42.647 53.3204 46.977L54.8838 48.3582L50.4278 48.4412C45.9721 48.5242 45.9718 48.5242 44.98 48.9892C43.6979 49.5903 42.7181 50.5651 42.1756 51.7788C41.2938 53.7526 41.4619 55.4587 42.6562 56.6564C43.5576 57.5603 44.2547 57.7376 46.9083 57.7376C49.2136 57.7376 49.5255 57.8226 49.5255 58.4513C49.5255 58.9957 49.0096 59.8875 48.4721 60.2726C47.9719 60.6308 47.7944 60.6454 42.9873 60.7258L38.0194 60.8088L36.7711 61.4288C34.5177 62.5479 33.2123 64.5091 33.0399 67.0343L32.9493 68.3622H20.6478H8.34619L8.45925 67.9886C8.73726 67.069 9.94156 65.9177 10.9964 65.5629C11.3675 65.4383 13.2697 65.374 16.5971 65.374C20.0701 65.374 21.8473 65.3113 22.3163 65.1722C23.2242 64.9027 24.5934 63.5275 24.8617 62.6156C24.9723 62.2398 25.0627 61.4707 25.0627 60.9066C25.0627 60.0387 25.1252 59.8179 25.4685 59.4733C25.7948 59.1454 26.0417 59.0657 26.7303 59.0657C28.087 59.0657 28.8551 58.7538 29.7825 57.8263C31.2374 56.3714 31.402 54.4671 30.2729 52.1583C29.5726 50.7263 28.5883 49.7693 27.0759 49.0496L25.9718 48.5242L21.4263 48.4697C18.3896 48.4332 16.6743 48.477 16.2582 48.6017C15.0004 48.9786 13.8353 50.467 13.8267 51.7081C13.8199 52.6928 13.6148 52.7574 10.4923 52.7574H7.68123L8.31627 51.8583C11.9216 46.7542 17.4177 42.7206 23.5121 40.7064C27.6316 39.3449 31.9711 38.8673 36.1022 39.321ZM25.622 51.2992C26.53 51.5686 27.8992 52.9438 28.1675 53.8557C28.6677 55.5561 28.1777 56.4096 26.7009 56.4096C25.3425 56.4096 24.5759 56.7212 23.6521 57.649C22.7049 58.6006 22.4181 59.3444 22.4181 60.8511C22.4181 61.5879 22.3349 61.9543 22.1024 62.2429L21.7867 62.6349L16.1933 62.7179L10.5999 62.8009L9.49577 63.3263C8.88867 63.6152 8.05264 64.1656 7.63809 64.5495C6.84156 65.2867 5.72388 67.2838 5.72388 67.9694C5.72388 68.355 5.69512 68.3622 4.14173 68.3622H2.55958L2.66371 67.4076C3.14471 62.9999 3.85561 60.2572 5.35297 57.0321L6.10437 55.4135L9.92239 55.4099C13.2576 55.4067 13.8242 55.368 14.403 55.1039C15.5718 54.5705 16.4635 53.2211 16.4667 51.9807C16.4688 51.139 16.6811 51.0973 20.9644 51.0973C23.604 51.0973 25.1705 51.1652 25.622 51.2992ZM58.3043 52.8188C61.1908 57.1462 62.682 61.4757 63.3294 67.4076L63.4336 68.3622H49.5374H35.6412V67.5929C35.6412 67.1697 35.7316 66.5162 35.8422 66.1403C36.1105 65.2284 37.4797 63.8532 38.3876 63.5838C38.8468 63.4475 40.4929 63.3819 43.4513 63.3819C48.8134 63.3819 49.1086 63.3172 50.6071 61.8122C51.3622 61.0538 51.6751 60.5913 51.8881 59.9182C52.5539 57.8153 51.8908 56.0696 50.1483 55.3385C49.6933 55.1474 48.9336 55.0815 47.1885 55.0815C45.2359 55.0815 44.79 55.0352 44.5385 54.8068C43.9614 54.2822 44.2655 52.9304 45.1635 52.0288C46.0693 51.1196 46.1822 51.1048 51.9222 51.1441L57.2114 51.1803L58.3043 52.8188Z" fill="url(#paint1_radial_1469_217)"/>
<defs>
<radialGradient id="paint0_radial_1469_217" cx="0" cy="0" r="1" gradientUnits="userSpaceOnUse" gradientTransform="translate(17.4167 14.7917) rotate(53.0725) scale(57.9778 56.9541)">
<stop stop-color="white" stop-opacity="0.59"/>
<stop offset="0.697917" stop-color="white" stop-opacity="0"/>
<stop offset="1" stop-color="white" stop-opacity="0"/>
</radialGradient>
<radialGradient id="paint1_radial_1469_217" cx="0" cy="0" r="1" gradientUnits="userSpaceOnUse" gradientTransform="translate(56.9589 62.125) rotate(-93.4126) scale(60.7536 62.979)">
<stop stop-opacity="0.23"/>
<stop offset="0.861815" stop-opacity="0"/>
</radialGradient>
</defs>
</svg>
