<svg width="83" height="74" viewBox="0 0 83 74" fill="none" xmlns="http://www.w3.org/2000/svg">
<path fill-rule="evenodd" clip-rule="evenodd" d="M7.14234 0.244437C5.82427 0.566993 3.96808 1.59536 2.99303 2.54301C1.8824 3.62274 0.888697 5.17497 0.424527 6.55527L0.0620459 7.63352L0.018905 36.5859C-0.0235872 65.0689 -0.019046 65.5593 0.299969 66.8356C0.94838 69.4296 2.67726 71.6826 4.94345 72.8865C7.203 74.0868 4.30153 73.9986 41.5 73.9986C78.6985 73.9986 75.797 74.0868 78.0565 72.8865C80.3227 71.6826 82.0516 69.4296 82.7 66.8356C83.019 65.5593 83.0236 65.0689 82.9811 36.5859L82.938 7.63352L82.5755 6.55527C82.1098 5.17054 81.117 3.62192 79.9958 2.53235C78.9946 1.55911 76.9339 0.459529 75.5912 0.182092C74.237 -0.097806 8.29514 -0.0377577 7.14234 0.244437ZM75.9065 3.24998C77.7142 3.98943 79.1038 5.3963 79.7903 7.182C80.121 8.04221 80.1596 8.47764 80.2259 12.1043L80.2987 16.083H41.5183H2.73808L2.74132 12.8426C2.74311 11.0605 2.81041 9.14145 2.89102 8.57821C3.27556 5.8885 5.14959 3.77155 7.7828 3.05211C8.53745 2.84605 13.219 2.8175 41.8244 2.8444L74.991 2.87558L75.9065 3.24998ZM8.50728 5.42157C7.48617 5.82484 6.58362 6.71819 6.13761 7.76674C5.61862 8.98707 5.72583 10.6532 6.39386 11.7511C7.33388 13.2963 9.22981 14.1427 10.9444 13.7826C13.0377 13.343 14.4176 11.5892 14.4137 9.37279C14.4085 6.37365 11.323 4.30936 8.50728 5.42157ZM18.8677 5.30803C16.3784 6.27832 15.2004 8.95671 16.2574 11.243C17.0213 12.8951 18.4516 13.8443 20.1728 13.8413C22.6197 13.8372 24.5114 11.9608 24.5291 9.52028C24.538 8.29585 24.23 7.47257 23.4356 6.59711C22.2374 5.27669 20.3295 4.73823 18.8677 5.30803ZM28.6064 5.46849C26.9185 6.28554 26.0286 7.6998 26.0392 9.54752C26.0517 11.6975 27.3949 13.3273 29.5226 13.774C31.0241 14.0894 32.3446 13.6666 33.4135 12.528C34.3563 11.5237 34.597 10.915 34.6023 9.52028C34.608 8.10061 34.3093 7.33212 33.3908 6.40301C32.1255 5.12296 30.1265 4.73265 28.6064 5.46849ZM10.7597 8.13359C12.2438 8.84597 11.7206 10.9969 10.0633 10.9969C8.43511 10.9969 8.02738 8.66566 9.5498 8.0614C10.1045 7.84122 10.1572 7.84434 10.7597 8.13359ZM20.8138 8.11177C21.812 8.53375 22.0535 9.78788 21.2861 10.5644C20.4823 11.3775 19.1603 11.0525 18.8019 9.95358C18.5383 9.14588 18.9568 8.29749 19.7674 7.99594C20.1462 7.85517 20.2277 7.86403 20.8138 8.11177ZM31.3416 8.3436C31.8186 8.77624 31.9638 9.33325 31.7614 9.95358C31.534 10.6507 31.0474 10.9969 30.2954 10.9969C28.7152 10.9969 28.2647 8.76328 29.7139 8.11505C30.2955 7.85501 30.8958 7.93917 31.3416 8.3436ZM80.2587 41.7184C80.2569 54.3253 80.1904 64.8556 80.109 65.4247C79.8252 67.4098 78.7603 69.0705 77.0666 70.1697C75.3557 71.28 77.7714 71.2094 41.5 71.2094C5.22857 71.2094 7.6443 71.28 5.93342 70.1697C4.23974 69.0705 3.17484 67.4098 2.89102 65.4247C2.8096 64.8556 2.74311 54.3253 2.74132 41.7184L2.73808 19.0362H41.5H80.2619L80.2587 41.7184ZM11.2748 29.4767L10.8473 29.9094V45.8549V61.8003L11.2659 62.1982L11.6843 62.5959H24.9843H38.2844L38.6759 62.1355L39.0672 61.6752V45.7923V29.9094L38.6397 29.4767L38.2121 29.0442H24.9573H11.7025L11.2748 29.4767ZM47.3964 29.4331C46.77 29.9781 46.77 30.8995 47.3964 31.4445L47.8433 31.8334H59.3566H70.87L71.268 31.4306C71.5429 31.1527 71.6662 30.8455 71.6662 30.4388C71.6662 30.0321 71.5429 29.725 71.268 29.447L70.87 29.0442H59.3566H47.8433L47.3964 29.4331ZM36.2705 45.8201L36.229 59.8068L24.9167 59.8489L13.6044 59.8911V45.8622V31.8334H24.9582H36.3119L36.2705 45.8201ZM47.7313 39.4469C46.5465 39.9742 46.6821 41.6349 47.9402 42.0052C48.3693 42.1315 51.9174 42.1712 59.6922 42.1369L70.8293 42.0876L71.2477 41.6899C71.8243 41.1417 71.8243 40.2443 71.2477 39.6961L70.8293 39.2984L59.53 39.2615C50.3179 39.2315 48.1383 39.2658 47.7313 39.4469ZM47.3964 49.9414C46.8089 50.4525 46.7815 51.3317 47.3344 51.9271L47.7196 52.3417H59.2654C70.7007 52.3417 70.8157 52.3384 71.2388 52.0016C71.6675 51.6605 71.8068 50.9344 71.5655 50.2983C71.2842 49.5569 71.2145 49.5526 59.1951 49.5526H47.8433L47.3964 49.9414ZM47.4596 60.1177C46.9881 60.4798 46.7912 61.2743 47.0418 61.8031C47.4633 62.6924 47.1897 62.6728 59.3078 62.6755C71.2075 62.6781 71.2842 62.6733 71.5655 61.9323C71.786 61.3508 71.6637 60.5999 71.2909 60.2455L70.9154 59.8888L59.3298 59.8941C49.9389 59.8983 47.6902 59.9406 47.4596 60.1177Z" fill="#0066FF"/>
<path fill-rule="evenodd" clip-rule="evenodd" d="M7.14234 0.244437C5.82427 0.566993 3.96808 1.59536 2.99303 2.54301C1.8824 3.62274 0.888697 5.17497 0.424527 6.55527L0.0620459 7.63352L0.018905 36.5859C-0.0235872 65.0689 -0.019046 65.5593 0.299969 66.8356C0.94838 69.4296 2.67726 71.6826 4.94345 72.8865C7.203 74.0868 4.30153 73.9986 41.5 73.9986C78.6985 73.9986 75.797 74.0868 78.0565 72.8865C80.3227 71.6826 82.0516 69.4296 82.7 66.8356C83.019 65.5593 83.0236 65.0689 82.9811 36.5859L82.938 7.63352L82.5755 6.55527C82.1098 5.17054 81.117 3.62192 79.9958 2.53235C78.9946 1.55911 76.9339 0.459529 75.5912 0.182092C74.237 -0.097806 8.29514 -0.0377577 7.14234 0.244437ZM75.9065 3.24998C77.7142 3.98943 79.1038 5.3963 79.7903 7.182C80.121 8.04221 80.1596 8.47764 80.2259 12.1043L80.2987 16.083H41.5183H2.73808L2.74132 12.8426C2.74311 11.0605 2.81041 9.14145 2.89102 8.57821C3.27556 5.8885 5.14959 3.77155 7.7828 3.05211C8.53745 2.84605 13.219 2.8175 41.8244 2.8444L74.991 2.87558L75.9065 3.24998ZM8.50728 5.42157C7.48617 5.82484 6.58362 6.71819 6.13761 7.76674C5.61862 8.98707 5.72583 10.6532 6.39386 11.7511C7.33388 13.2963 9.22981 14.1427 10.9444 13.7826C13.0377 13.343 14.4176 11.5892 14.4137 9.37279C14.4085 6.37365 11.323 4.30936 8.50728 5.42157ZM18.8677 5.30803C16.3784 6.27832 15.2004 8.95671 16.2574 11.243C17.0213 12.8951 18.4516 13.8443 20.1728 13.8413C22.6197 13.8372 24.5114 11.9608 24.5291 9.52028C24.538 8.29585 24.23 7.47257 23.4356 6.59711C22.2374 5.27669 20.3295 4.73823 18.8677 5.30803ZM28.6064 5.46849C26.9185 6.28554 26.0286 7.6998 26.0392 9.54752C26.0517 11.6975 27.3949 13.3273 29.5226 13.774C31.0241 14.0894 32.3446 13.6666 33.4135 12.528C34.3563 11.5237 34.597 10.915 34.6023 9.52028C34.608 8.10061 34.3093 7.33212 33.3908 6.40301C32.1255 5.12296 30.1265 4.73265 28.6064 5.46849ZM10.7597 8.13359C12.2438 8.84597 11.7206 10.9969 10.0633 10.9969C8.43511 10.9969 8.02738 8.66566 9.5498 8.0614C10.1045 7.84122 10.1572 7.84434 10.7597 8.13359ZM20.8138 8.11177C21.812 8.53375 22.0535 9.78788 21.2861 10.5644C20.4823 11.3775 19.1603 11.0525 18.8019 9.95358C18.5383 9.14588 18.9568 8.29749 19.7674 7.99594C20.1462 7.85517 20.2277 7.86403 20.8138 8.11177ZM31.3416 8.3436C31.8186 8.77624 31.9638 9.33325 31.7614 9.95358C31.534 10.6507 31.0474 10.9969 30.2954 10.9969C28.7152 10.9969 28.2647 8.76328 29.7139 8.11505C30.2955 7.85501 30.8958 7.93917 31.3416 8.3436ZM80.2587 41.7184C80.2569 54.3253 80.1904 64.8556 80.109 65.4247C79.8252 67.4098 78.7603 69.0705 77.0666 70.1697C75.3557 71.28 77.7714 71.2094 41.5 71.2094C5.22857 71.2094 7.6443 71.28 5.93342 70.1697C4.23974 69.0705 3.17484 67.4098 2.89102 65.4247C2.8096 64.8556 2.74311 54.3253 2.74132 41.7184L2.73808 19.0362H41.5H80.2619L80.2587 41.7184ZM11.2748 29.4767L10.8473 29.9094V45.8549V61.8003L11.2659 62.1982L11.6843 62.5959H24.9843H38.2844L38.6759 62.1355L39.0672 61.6752V45.7923V29.9094L38.6397 29.4767L38.2121 29.0442H24.9573H11.7025L11.2748 29.4767ZM47.3964 29.4331C46.77 29.9781 46.77 30.8995 47.3964 31.4445L47.8433 31.8334H59.3566H70.87L71.268 31.4306C71.5429 31.1527 71.6662 30.8455 71.6662 30.4388C71.6662 30.0321 71.5429 29.725 71.268 29.447L70.87 29.0442H59.3566H47.8433L47.3964 29.4331ZM36.2705 45.8201L36.229 59.8068L24.9167 59.8489L13.6044 59.8911V45.8622V31.8334H24.9582H36.3119L36.2705 45.8201ZM47.7313 39.4469C46.5465 39.9742 46.6821 41.6349 47.9402 42.0052C48.3693 42.1315 51.9174 42.1712 59.6922 42.1369L70.8293 42.0876L71.2477 41.6899C71.8243 41.1417 71.8243 40.2443 71.2477 39.6961L70.8293 39.2984L59.53 39.2615C50.3179 39.2315 48.1383 39.2658 47.7313 39.4469ZM47.3964 49.9414C46.8089 50.4525 46.7815 51.3317 47.3344 51.9271L47.7196 52.3417H59.2654C70.7007 52.3417 70.8157 52.3384 71.2388 52.0016C71.6675 51.6605 71.8068 50.9344 71.5655 50.2983C71.2842 49.5569 71.2145 49.5526 59.1951 49.5526H47.8433L47.3964 49.9414ZM47.4596 60.1177C46.9881 60.4798 46.7912 61.2743 47.0418 61.8031C47.4633 62.6924 47.1897 62.6728 59.3078 62.6755C71.2075 62.6781 71.2842 62.6733 71.5655 61.9323C71.786 61.3508 71.6637 60.5999 71.2909 60.2455L70.9154 59.8888L59.3298 59.8941C49.9389 59.8983 47.6902 59.9406 47.4596 60.1177Z" fill="url(#paint0_radial_1469_258)" fill-opacity="0.7"/>
<path fill-rule="evenodd" clip-rule="evenodd" d="M7.14234 0.244437C5.82427 0.566993 3.96808 1.59536 2.99303 2.54301C1.8824 3.62274 0.888697 5.17497 0.424527 6.55527L0.0620459 7.63352L0.018905 36.5859C-0.0235872 65.0689 -0.019046 65.5593 0.299969 66.8356C0.94838 69.4296 2.67726 71.6826 4.94345 72.8865C7.203 74.0868 4.30153 73.9986 41.5 73.9986C78.6985 73.9986 75.797 74.0868 78.0565 72.8865C80.3227 71.6826 82.0516 69.4296 82.7 66.8356C83.019 65.5593 83.0236 65.0689 82.9811 36.5859L82.938 7.63352L82.5755 6.55527C82.1098 5.17054 81.117 3.62192 79.9958 2.53235C78.9946 1.55911 76.9339 0.459529 75.5912 0.182092C74.237 -0.097806 8.29514 -0.0377577 7.14234 0.244437ZM75.9065 3.24998C77.7142 3.98943 79.1038 5.3963 79.7903 7.182C80.121 8.04221 80.1596 8.47764 80.2259 12.1043L80.2987 16.083H41.5183H2.73808L2.74132 12.8426C2.74311 11.0605 2.81041 9.14145 2.89102 8.57821C3.27556 5.8885 5.14959 3.77155 7.7828 3.05211C8.53745 2.84605 13.219 2.8175 41.8244 2.8444L74.991 2.87558L75.9065 3.24998ZM8.50728 5.42157C7.48617 5.82484 6.58362 6.71819 6.13761 7.76674C5.61862 8.98707 5.72583 10.6532 6.39386 11.7511C7.33388 13.2963 9.22981 14.1427 10.9444 13.7826C13.0377 13.343 14.4176 11.5892 14.4137 9.37279C14.4085 6.37365 11.323 4.30936 8.50728 5.42157ZM18.8677 5.30803C16.3784 6.27832 15.2004 8.95671 16.2574 11.243C17.0213 12.8951 18.4516 13.8443 20.1728 13.8413C22.6197 13.8372 24.5114 11.9608 24.5291 9.52028C24.538 8.29585 24.23 7.47257 23.4356 6.59711C22.2374 5.27669 20.3295 4.73823 18.8677 5.30803ZM28.6064 5.46849C26.9185 6.28554 26.0286 7.6998 26.0392 9.54752C26.0517 11.6975 27.3949 13.3273 29.5226 13.774C31.0241 14.0894 32.3446 13.6666 33.4135 12.528C34.3563 11.5237 34.597 10.915 34.6023 9.52028C34.608 8.10061 34.3093 7.33212 33.3908 6.40301C32.1255 5.12296 30.1265 4.73265 28.6064 5.46849ZM10.7597 8.13359C12.2438 8.84597 11.7206 10.9969 10.0633 10.9969C8.43511 10.9969 8.02738 8.66566 9.5498 8.0614C10.1045 7.84122 10.1572 7.84434 10.7597 8.13359ZM20.8138 8.11177C21.812 8.53375 22.0535 9.78788 21.2861 10.5644C20.4823 11.3775 19.1603 11.0525 18.8019 9.95358C18.5383 9.14588 18.9568 8.29749 19.7674 7.99594C20.1462 7.85517 20.2277 7.86403 20.8138 8.11177ZM31.3416 8.3436C31.8186 8.77624 31.9638 9.33325 31.7614 9.95358C31.534 10.6507 31.0474 10.9969 30.2954 10.9969C28.7152 10.9969 28.2647 8.76328 29.7139 8.11505C30.2955 7.85501 30.8958 7.93917 31.3416 8.3436ZM80.2587 41.7184C80.2569 54.3253 80.1904 64.8556 80.109 65.4247C79.8252 67.4098 78.7603 69.0705 77.0666 70.1697C75.3557 71.28 77.7714 71.2094 41.5 71.2094C5.22857 71.2094 7.6443 71.28 5.93342 70.1697C4.23974 69.0705 3.17484 67.4098 2.89102 65.4247C2.8096 64.8556 2.74311 54.3253 2.74132 41.7184L2.73808 19.0362H41.5H80.2619L80.2587 41.7184ZM11.2748 29.4767L10.8473 29.9094V45.8549V61.8003L11.2659 62.1982L11.6843 62.5959H24.9843H38.2844L38.6759 62.1355L39.0672 61.6752V45.7923V29.9094L38.6397 29.4767L38.2121 29.0442H24.9573H11.7025L11.2748 29.4767ZM47.3964 29.4331C46.77 29.9781 46.77 30.8995 47.3964 31.4445L47.8433 31.8334H59.3566H70.87L71.268 31.4306C71.5429 31.1527 71.6662 30.8455 71.6662 30.4388C71.6662 30.0321 71.5429 29.725 71.268 29.447L70.87 29.0442H59.3566H47.8433L47.3964 29.4331ZM36.2705 45.8201L36.229 59.8068L24.9167 59.8489L13.6044 59.8911V45.8622V31.8334H24.9582H36.3119L36.2705 45.8201ZM47.7313 39.4469C46.5465 39.9742 46.6821 41.6349 47.9402 42.0052C48.3693 42.1315 51.9174 42.1712 59.6922 42.1369L70.8293 42.0876L71.2477 41.6899C71.8243 41.1417 71.8243 40.2443 71.2477 39.6961L70.8293 39.2984L59.53 39.2615C50.3179 39.2315 48.1383 39.2658 47.7313 39.4469ZM47.3964 49.9414C46.8089 50.4525 46.7815 51.3317 47.3344 51.9271L47.7196 52.3417H59.2654C70.7007 52.3417 70.8157 52.3384 71.2388 52.0016C71.6675 51.6605 71.8068 50.9344 71.5655 50.2983C71.2842 49.5569 71.2145 49.5526 59.1951 49.5526H47.8433L47.3964 49.9414ZM47.4596 60.1177C46.9881 60.4798 46.7912 61.2743 47.0418 61.8031C47.4633 62.6924 47.1897 62.6728 59.3078 62.6755C71.2075 62.6781 71.2842 62.6733 71.5655 61.9323C71.786 61.3508 71.6637 60.5999 71.2909 60.2455L70.9154 59.8888L59.3298 59.8941C49.9389 59.8983 47.6902 59.9406 47.4596 60.1177Z" fill="url(#paint1_radial_1469_258)"/>
<defs>
<radialGradient id="paint0_radial_1469_258" cx="0" cy="0" r="1" gradientUnits="userSpaceOnUse" gradientTransform="translate(21.9028 15.4167) rotate(47.7969) scale(65.2101 66.3712)">
<stop stop-color="white" stop-opacity="0.59"/>
<stop offset="0.697917" stop-color="white" stop-opacity="0"/>
<stop offset="1" stop-color="white" stop-opacity="0"/>
</radialGradient>
<radialGradient id="paint1_radial_1469_258" cx="0" cy="0" r="1" gradientUnits="userSpaceOnUse" gradientTransform="translate(71.6301 64.75) rotate(-94.1154) scale(63.3717 79.137)">
<stop stop-opacity="0.23"/>
<stop offset="0.861815" stop-opacity="0"/>
</radialGradient>
</defs>
</svg>
