<svg width="72" height="73" viewBox="0 0 72 73" fill="none" xmlns="http://www.w3.org/2000/svg">
<path fill-rule="evenodd" clip-rule="evenodd" d="M26.1711 0.0919904C21.1656 0.801756 16.7447 3.97417 14.4171 8.52617C13.0773 11.1464 12.6002 13.4705 12.7378 16.706C12.8684 19.7733 13.5026 22.1941 14.9978 25.3334C17.5024 30.592 21.5321 34.4348 25.691 35.5304C26.9757 35.8689 29.3055 35.8726 30.5657 35.5383C31.8475 35.1981 33.9582 34.13 35.1649 33.2109C38.8579 30.3982 42.0701 25.0496 43.1942 19.8411C43.5292 18.2887 43.6521 14.7881 43.4221 13.3453C42.9485 10.3735 41.6321 7.56369 39.5885 5.16251C37.8364 3.10404 34.642 1.1657 31.8371 0.459346C30.1927 0.0452171 27.6591 -0.119009 26.1711 0.0919904ZM61.8013 3.85716C57.4031 6.03576 56.8597 6.40074 56.8597 7.17539C56.8597 7.63585 57.1037 8.11502 57.5048 8.44154C58.1002 8.92635 58.7166 8.7694 61.402 7.44965C62.8036 6.76082 63.9502 6.23013 63.9502 6.27037C63.9502 6.34506 55.8075 31.7775 55.7716 31.815C55.7606 31.8262 53.8573 30.9438 51.5418 29.8537C49.2263 28.7637 47.1656 27.8694 46.9625 27.8664C46.1313 27.8542 45.8398 28.2565 42.7841 33.632L39.7981 38.885L28.9266 38.8586C16.8231 38.829 16.4825 38.8502 13.6299 39.8098C10.4665 40.8738 8.19134 42.2965 5.81469 44.6968C2.93787 47.602 1.32552 50.6006 0.398875 54.7686C0.116585 56.0379 0.0874841 56.7407 0.0273625 63.7168C-0.0444288 72.04 -0.0296569 72.2178 0.771422 72.7089C1.23482 72.9928 1.7409 72.9983 28.0988 72.9987C57.6761 72.9993 55.5534 73.0684 56.0561 72.091C56.2653 71.6846 56.2846 70.7661 56.2294 63.8897C56.1707 56.6216 56.1474 56.0578 55.8471 54.7059C54.9637 50.7284 53.4002 47.7553 50.7112 44.9391C48.6896 42.822 46.1031 41.0836 43.528 40.1113C43.1421 39.9657 42.8264 39.8135 42.8264 39.7732C42.8264 39.6475 47.2907 31.8052 47.4809 31.597C47.6286 31.4353 48.4359 31.7636 51.9547 33.4159C54.6016 34.6591 56.4258 35.4322 56.7114 35.4322C57.3209 35.4322 57.6965 35.2171 57.9501 34.7225C58.064 34.5003 60.0962 28.2731 62.4659 20.8841C64.8356 13.4951 66.8019 7.42203 66.8354 7.38832C66.8688 7.35462 66.958 7.48677 67.0337 7.68173C67.1091 7.87684 67.6692 9.08285 68.2782 10.3618C69.4441 12.8105 69.6388 13.0405 70.5449 13.0405C71.2162 13.0405 71.7166 12.6863 71.9196 12.0679C72.1283 11.4324 72.0958 11.3464 69.7233 6.25463C68.6865 4.02926 67.7677 2.25247 67.5541 2.05988C66.8555 1.43 66.4376 1.56052 61.8013 3.85716ZM30.4672 3.27554C34.2445 4.00194 37.4293 6.49087 39.2615 10.1481C39.516 10.6562 39.7243 11.111 39.7243 11.1587C39.7243 11.2064 39.3581 11.4139 38.9104 11.6199C37.2292 12.3937 35.1423 12.2266 33.0282 11.1492C31.5486 10.3952 31.2257 10.4436 30.0257 11.5994C29.2433 12.353 27.5859 13.2096 26.4593 13.4427C25.4594 13.6497 23.2752 13.6512 22.2638 13.4457C21.007 13.1903 19.6568 12.7187 18.2312 12.0371C16.3296 11.1281 16.4258 11.2831 17.0289 10.0989C18.5364 7.13901 20.7598 5.06391 23.6813 3.89013C25.6833 3.08578 28.2651 2.85191 30.4672 3.27554ZM33.3724 14.599C34.3875 14.9755 34.6534 15.01 36.5483 15.0092C38.3215 15.0087 38.7417 14.9616 39.4946 14.6789C40.176 14.4232 40.4016 14.3907 40.5011 14.5338C40.6893 14.8045 40.5237 17.8029 40.2471 19.1344C39.3331 23.5342 36.699 28.1678 33.7894 30.4936C31.6575 32.1976 29.894 32.8425 27.6852 32.7255C25.4693 32.608 23.4986 31.5918 21.3998 29.4843C18.8943 26.9682 16.8039 22.9389 16.0101 19.0947C15.7644 17.9055 15.6186 14.6263 15.8031 14.4382C15.8488 14.3914 16.5468 14.6495 17.3542 15.0115C19.7644 16.0922 22.371 16.7229 24.4267 16.7229C26.5809 16.7229 29.2432 15.8941 30.9253 14.6999C31.4182 14.35 31.921 14.0917 32.0429 14.1259C32.1648 14.1601 32.763 14.373 33.3724 14.599ZM22.7911 44.2814L23.6098 46.7456L23.0326 49.4413C22.7151 50.924 22.0892 53.7406 21.6419 55.7007C20.5406 60.5247 20.551 60.4418 20.9739 61.019C21.5519 61.8078 26.919 68.1554 27.2389 68.4285C27.5923 68.73 28.6081 68.7687 28.9675 68.4941C29.104 68.3897 30.6158 66.6379 32.3271 64.6011C34.41 62.1218 35.4648 60.7504 35.518 60.4522C35.5679 60.1726 35.0493 57.5313 34.1253 53.3605L32.653 46.7142L33.4928 44.248L34.3326 41.782L36.5483 41.8638C39.6879 41.9799 41.5241 42.4167 43.9959 43.6357C46.2925 44.7682 48.9053 47.0648 50.3525 49.2232C51.2749 50.5988 52.238 52.733 52.6875 54.3974L53.0795 55.8491L53.1323 62.8651L53.185 69.8811H48.7443H44.3036V63.5606C44.3036 59.1981 44.2525 57.1398 44.1386 56.9159C43.8706 56.3892 43.3797 56.0787 42.8094 56.0751C42.1196 56.071 41.5504 56.5227 41.3551 57.2293C41.2625 57.5648 41.2028 60.1413 41.2024 63.8303L41.2015 69.8811H28.1343H15.0671L15.0242 63.4096L14.9814 56.9381L14.4989 56.505C13.7439 55.8272 12.6959 55.9673 12.1991 56.8128C11.98 57.1857 11.9531 57.9217 11.9531 63.5562V69.8811H7.52158H3.09002L3.09061 63.5333C3.0912 56.566 3.17673 55.5436 3.95048 53.2506C4.75894 50.8549 5.89106 48.9754 7.62631 47.1481C9.95879 44.6923 12.4402 43.2021 15.5497 42.3897C17.0271 42.0037 18.2576 41.8611 20.3233 41.8366L21.9723 41.8172L22.7911 44.2814ZM31.0089 42.0084C31.0089 42.1137 30.787 42.8653 30.5158 43.6789L30.0227 45.1581L28.1659 45.1995L26.3092 45.241L25.7784 43.6401C25.4867 42.7598 25.2478 41.9894 25.2478 41.9282C25.2478 41.8672 26.5441 41.8172 28.1284 41.8172C30.38 41.8172 31.0089 41.8589 31.0089 42.0084ZM31.1649 53.9883L32.4287 59.7732L30.293 62.3134C28.2423 64.7524 28.1471 64.8427 27.8987 64.5831C26.9203 63.5608 23.9184 59.8274 23.9184 59.6329C23.9184 59.3962 26.2249 48.7452 26.3535 48.3877C26.4018 48.2535 26.902 48.2022 28.1607 48.2027L29.901 48.2034L31.1649 53.9883Z" fill="#0066FF"/>
<path fill-rule="evenodd" clip-rule="evenodd" d="M26.1711 0.0919904C21.1656 0.801756 16.7447 3.97417 14.4171 8.52617C13.0773 11.1464 12.6002 13.4705 12.7378 16.706C12.8684 19.7733 13.5026 22.1941 14.9978 25.3334C17.5024 30.592 21.5321 34.4348 25.691 35.5304C26.9757 35.8689 29.3055 35.8726 30.5657 35.5383C31.8475 35.1981 33.9582 34.13 35.1649 33.2109C38.8579 30.3982 42.0701 25.0496 43.1942 19.8411C43.5292 18.2887 43.6521 14.7881 43.4221 13.3453C42.9485 10.3735 41.6321 7.56369 39.5885 5.16251C37.8364 3.10404 34.642 1.1657 31.8371 0.459346C30.1927 0.0452171 27.6591 -0.119009 26.1711 0.0919904ZM61.8013 3.85716C57.4031 6.03576 56.8597 6.40074 56.8597 7.17539C56.8597 7.63585 57.1037 8.11502 57.5048 8.44154C58.1002 8.92635 58.7166 8.7694 61.402 7.44965C62.8036 6.76082 63.9502 6.23013 63.9502 6.27037C63.9502 6.34506 55.8075 31.7775 55.7716 31.815C55.7606 31.8262 53.8573 30.9438 51.5418 29.8537C49.2263 28.7637 47.1656 27.8694 46.9625 27.8664C46.1313 27.8542 45.8398 28.2565 42.7841 33.632L39.7981 38.885L28.9266 38.8586C16.8231 38.829 16.4825 38.8502 13.6299 39.8098C10.4665 40.8738 8.19134 42.2965 5.81469 44.6968C2.93787 47.602 1.32552 50.6006 0.398875 54.7686C0.116585 56.0379 0.0874841 56.7407 0.0273625 63.7168C-0.0444288 72.04 -0.0296569 72.2178 0.771422 72.7089C1.23482 72.9928 1.7409 72.9983 28.0988 72.9987C57.6761 72.9993 55.5534 73.0684 56.0561 72.091C56.2653 71.6846 56.2846 70.7661 56.2294 63.8897C56.1707 56.6216 56.1474 56.0578 55.8471 54.7059C54.9637 50.7284 53.4002 47.7553 50.7112 44.9391C48.6896 42.822 46.1031 41.0836 43.528 40.1113C43.1421 39.9657 42.8264 39.8135 42.8264 39.7732C42.8264 39.6475 47.2907 31.8052 47.4809 31.597C47.6286 31.4353 48.4359 31.7636 51.9547 33.4159C54.6016 34.6591 56.4258 35.4322 56.7114 35.4322C57.3209 35.4322 57.6965 35.2171 57.9501 34.7225C58.064 34.5003 60.0962 28.2731 62.4659 20.8841C64.8356 13.4951 66.8019 7.42203 66.8354 7.38832C66.8688 7.35462 66.958 7.48677 67.0337 7.68173C67.1091 7.87684 67.6692 9.08285 68.2782 10.3618C69.4441 12.8105 69.6388 13.0405 70.5449 13.0405C71.2162 13.0405 71.7166 12.6863 71.9196 12.0679C72.1283 11.4324 72.0958 11.3464 69.7233 6.25463C68.6865 4.02926 67.7677 2.25247 67.5541 2.05988C66.8555 1.43 66.4376 1.56052 61.8013 3.85716ZM30.4672 3.27554C34.2445 4.00194 37.4293 6.49087 39.2615 10.1481C39.516 10.6562 39.7243 11.111 39.7243 11.1587C39.7243 11.2064 39.3581 11.4139 38.9104 11.6199C37.2292 12.3937 35.1423 12.2266 33.0282 11.1492C31.5486 10.3952 31.2257 10.4436 30.0257 11.5994C29.2433 12.353 27.5859 13.2096 26.4593 13.4427C25.4594 13.6497 23.2752 13.6512 22.2638 13.4457C21.007 13.1903 19.6568 12.7187 18.2312 12.0371C16.3296 11.1281 16.4258 11.2831 17.0289 10.0989C18.5364 7.13901 20.7598 5.06391 23.6813 3.89013C25.6833 3.08578 28.2651 2.85191 30.4672 3.27554ZM33.3724 14.599C34.3875 14.9755 34.6534 15.01 36.5483 15.0092C38.3215 15.0087 38.7417 14.9616 39.4946 14.6789C40.176 14.4232 40.4016 14.3907 40.5011 14.5338C40.6893 14.8045 40.5237 17.8029 40.2471 19.1344C39.3331 23.5342 36.699 28.1678 33.7894 30.4936C31.6575 32.1976 29.894 32.8425 27.6852 32.7255C25.4693 32.608 23.4986 31.5918 21.3998 29.4843C18.8943 26.9682 16.8039 22.9389 16.0101 19.0947C15.7644 17.9055 15.6186 14.6263 15.8031 14.4382C15.8488 14.3914 16.5468 14.6495 17.3542 15.0115C19.7644 16.0922 22.371 16.7229 24.4267 16.7229C26.5809 16.7229 29.2432 15.8941 30.9253 14.6999C31.4182 14.35 31.921 14.0917 32.0429 14.1259C32.1648 14.1601 32.763 14.373 33.3724 14.599ZM22.7911 44.2814L23.6098 46.7456L23.0326 49.4413C22.7151 50.924 22.0892 53.7406 21.6419 55.7007C20.5406 60.5247 20.551 60.4418 20.9739 61.019C21.5519 61.8078 26.919 68.1554 27.2389 68.4285C27.5923 68.73 28.6081 68.7687 28.9675 68.4941C29.104 68.3897 30.6158 66.6379 32.3271 64.6011C34.41 62.1218 35.4648 60.7504 35.518 60.4522C35.5679 60.1726 35.0493 57.5313 34.1253 53.3605L32.653 46.7142L33.4928 44.248L34.3326 41.782L36.5483 41.8638C39.6879 41.9799 41.5241 42.4167 43.9959 43.6357C46.2925 44.7682 48.9053 47.0648 50.3525 49.2232C51.2749 50.5988 52.238 52.733 52.6875 54.3974L53.0795 55.8491L53.1323 62.8651L53.185 69.8811H48.7443H44.3036V63.5606C44.3036 59.1981 44.2525 57.1398 44.1386 56.9159C43.8706 56.3892 43.3797 56.0787 42.8094 56.0751C42.1196 56.071 41.5504 56.5227 41.3551 57.2293C41.2625 57.5648 41.2028 60.1413 41.2024 63.8303L41.2015 69.8811H28.1343H15.0671L15.0242 63.4096L14.9814 56.9381L14.4989 56.505C13.7439 55.8272 12.6959 55.9673 12.1991 56.8128C11.98 57.1857 11.9531 57.9217 11.9531 63.5562V69.8811H7.52158H3.09002L3.09061 63.5333C3.0912 56.566 3.17673 55.5436 3.95048 53.2506C4.75894 50.8549 5.89106 48.9754 7.62631 47.1481C9.95879 44.6923 12.4402 43.2021 15.5497 42.3897C17.0271 42.0037 18.2576 41.8611 20.3233 41.8366L21.9723 41.8172L22.7911 44.2814ZM31.0089 42.0084C31.0089 42.1137 30.787 42.8653 30.5158 43.6789L30.0227 45.1581L28.1659 45.1995L26.3092 45.241L25.7784 43.6401C25.4867 42.7598 25.2478 41.9894 25.2478 41.9282C25.2478 41.8672 26.5441 41.8172 28.1284 41.8172C30.38 41.8172 31.0089 41.8589 31.0089 42.0084ZM31.1649 53.9883L32.4287 59.7732L30.293 62.3134C28.2423 64.7524 28.1471 64.8427 27.8987 64.5831C26.9203 63.5608 23.9184 59.8274 23.9184 59.6329C23.9184 59.3962 26.2249 48.7452 26.3535 48.3877C26.4018 48.2535 26.902 48.2022 28.1607 48.2027L29.901 48.2034L31.1649 53.9883Z" fill="url(#paint0_radial_1469_246)" fill-opacity="0.7"/>
<path fill-rule="evenodd" clip-rule="evenodd" d="M26.1711 0.0919904C21.1656 0.801756 16.7447 3.97417 14.4171 8.52617C13.0773 11.1464 12.6002 13.4705 12.7378 16.706C12.8684 19.7733 13.5026 22.1941 14.9978 25.3334C17.5024 30.592 21.5321 34.4348 25.691 35.5304C26.9757 35.8689 29.3055 35.8726 30.5657 35.5383C31.8475 35.1981 33.9582 34.13 35.1649 33.2109C38.8579 30.3982 42.0701 25.0496 43.1942 19.8411C43.5292 18.2887 43.6521 14.7881 43.4221 13.3453C42.9485 10.3735 41.6321 7.56369 39.5885 5.16251C37.8364 3.10404 34.642 1.1657 31.8371 0.459346C30.1927 0.0452171 27.6591 -0.119009 26.1711 0.0919904ZM61.8013 3.85716C57.4031 6.03576 56.8597 6.40074 56.8597 7.17539C56.8597 7.63585 57.1037 8.11502 57.5048 8.44154C58.1002 8.92635 58.7166 8.7694 61.402 7.44965C62.8036 6.76082 63.9502 6.23013 63.9502 6.27037C63.9502 6.34506 55.8075 31.7775 55.7716 31.815C55.7606 31.8262 53.8573 30.9438 51.5418 29.8537C49.2263 28.7637 47.1656 27.8694 46.9625 27.8664C46.1313 27.8542 45.8398 28.2565 42.7841 33.632L39.7981 38.885L28.9266 38.8586C16.8231 38.829 16.4825 38.8502 13.6299 39.8098C10.4665 40.8738 8.19134 42.2965 5.81469 44.6968C2.93787 47.602 1.32552 50.6006 0.398875 54.7686C0.116585 56.0379 0.0874841 56.7407 0.0273625 63.7168C-0.0444288 72.04 -0.0296569 72.2178 0.771422 72.7089C1.23482 72.9928 1.7409 72.9983 28.0988 72.9987C57.6761 72.9993 55.5534 73.0684 56.0561 72.091C56.2653 71.6846 56.2846 70.7661 56.2294 63.8897C56.1707 56.6216 56.1474 56.0578 55.8471 54.7059C54.9637 50.7284 53.4002 47.7553 50.7112 44.9391C48.6896 42.822 46.1031 41.0836 43.528 40.1113C43.1421 39.9657 42.8264 39.8135 42.8264 39.7732C42.8264 39.6475 47.2907 31.8052 47.4809 31.597C47.6286 31.4353 48.4359 31.7636 51.9547 33.4159C54.6016 34.6591 56.4258 35.4322 56.7114 35.4322C57.3209 35.4322 57.6965 35.2171 57.9501 34.7225C58.064 34.5003 60.0962 28.2731 62.4659 20.8841C64.8356 13.4951 66.8019 7.42203 66.8354 7.38832C66.8688 7.35462 66.958 7.48677 67.0337 7.68173C67.1091 7.87684 67.6692 9.08285 68.2782 10.3618C69.4441 12.8105 69.6388 13.0405 70.5449 13.0405C71.2162 13.0405 71.7166 12.6863 71.9196 12.0679C72.1283 11.4324 72.0958 11.3464 69.7233 6.25463C68.6865 4.02926 67.7677 2.25247 67.5541 2.05988C66.8555 1.43 66.4376 1.56052 61.8013 3.85716ZM30.4672 3.27554C34.2445 4.00194 37.4293 6.49087 39.2615 10.1481C39.516 10.6562 39.7243 11.111 39.7243 11.1587C39.7243 11.2064 39.3581 11.4139 38.9104 11.6199C37.2292 12.3937 35.1423 12.2266 33.0282 11.1492C31.5486 10.3952 31.2257 10.4436 30.0257 11.5994C29.2433 12.353 27.5859 13.2096 26.4593 13.4427C25.4594 13.6497 23.2752 13.6512 22.2638 13.4457C21.007 13.1903 19.6568 12.7187 18.2312 12.0371C16.3296 11.1281 16.4258 11.2831 17.0289 10.0989C18.5364 7.13901 20.7598 5.06391 23.6813 3.89013C25.6833 3.08578 28.2651 2.85191 30.4672 3.27554ZM33.3724 14.599C34.3875 14.9755 34.6534 15.01 36.5483 15.0092C38.3215 15.0087 38.7417 14.9616 39.4946 14.6789C40.176 14.4232 40.4016 14.3907 40.5011 14.5338C40.6893 14.8045 40.5237 17.8029 40.2471 19.1344C39.3331 23.5342 36.699 28.1678 33.7894 30.4936C31.6575 32.1976 29.894 32.8425 27.6852 32.7255C25.4693 32.608 23.4986 31.5918 21.3998 29.4843C18.8943 26.9682 16.8039 22.9389 16.0101 19.0947C15.7644 17.9055 15.6186 14.6263 15.8031 14.4382C15.8488 14.3914 16.5468 14.6495 17.3542 15.0115C19.7644 16.0922 22.371 16.7229 24.4267 16.7229C26.5809 16.7229 29.2432 15.8941 30.9253 14.6999C31.4182 14.35 31.921 14.0917 32.0429 14.1259C32.1648 14.1601 32.763 14.373 33.3724 14.599ZM22.7911 44.2814L23.6098 46.7456L23.0326 49.4413C22.7151 50.924 22.0892 53.7406 21.6419 55.7007C20.5406 60.5247 20.551 60.4418 20.9739 61.019C21.5519 61.8078 26.919 68.1554 27.2389 68.4285C27.5923 68.73 28.6081 68.7687 28.9675 68.4941C29.104 68.3897 30.6158 66.6379 32.3271 64.6011C34.41 62.1218 35.4648 60.7504 35.518 60.4522C35.5679 60.1726 35.0493 57.5313 34.1253 53.3605L32.653 46.7142L33.4928 44.248L34.3326 41.782L36.5483 41.8638C39.6879 41.9799 41.5241 42.4167 43.9959 43.6357C46.2925 44.7682 48.9053 47.0648 50.3525 49.2232C51.2749 50.5988 52.238 52.733 52.6875 54.3974L53.0795 55.8491L53.1323 62.8651L53.185 69.8811H48.7443H44.3036V63.5606C44.3036 59.1981 44.2525 57.1398 44.1386 56.9159C43.8706 56.3892 43.3797 56.0787 42.8094 56.0751C42.1196 56.071 41.5504 56.5227 41.3551 57.2293C41.2625 57.5648 41.2028 60.1413 41.2024 63.8303L41.2015 69.8811H28.1343H15.0671L15.0242 63.4096L14.9814 56.9381L14.4989 56.505C13.7439 55.8272 12.6959 55.9673 12.1991 56.8128C11.98 57.1857 11.9531 57.9217 11.9531 63.5562V69.8811H7.52158H3.09002L3.09061 63.5333C3.0912 56.566 3.17673 55.5436 3.95048 53.2506C4.75894 50.8549 5.89106 48.9754 7.62631 47.1481C9.95879 44.6923 12.4402 43.2021 15.5497 42.3897C17.0271 42.0037 18.2576 41.8611 20.3233 41.8366L21.9723 41.8172L22.7911 44.2814ZM31.0089 42.0084C31.0089 42.1137 30.787 42.8653 30.5158 43.6789L30.0227 45.1581L28.1659 45.1995L26.3092 45.241L25.7784 43.6401C25.4867 42.7598 25.2478 41.9894 25.2478 41.9282C25.2478 41.8672 26.5441 41.8172 28.1284 41.8172C30.38 41.8172 31.0089 41.8589 31.0089 42.0084ZM31.1649 53.9883L32.4287 59.7732L30.293 62.3134C28.2423 64.7524 28.1471 64.8427 27.8987 64.5831C26.9203 63.5608 23.9184 59.8274 23.9184 59.6329C23.9184 59.3962 26.2249 48.7452 26.3535 48.3877C26.4018 48.2535 26.902 48.2022 28.1607 48.2027L29.901 48.2034L31.1649 53.9883Z" fill="url(#paint1_radial_1469_246)"/>
<defs>
<radialGradient id="paint0_radial_1469_246" cx="0" cy="0" r="1" gradientUnits="userSpaceOnUse" gradientTransform="translate(19 15.2083) rotate(51.4299) scale(60.9491 60.7677)">
<stop stop-color="white" stop-opacity="0.59"/>
<stop offset="0.697917" stop-color="white" stop-opacity="0"/>
<stop offset="1" stop-color="white" stop-opacity="0"/>
</radialGradient>
<radialGradient id="paint1_radial_1469_246" cx="0" cy="0" r="1" gradientUnits="userSpaceOnUse" gradientTransform="translate(62.137 63.875) rotate(-93.6203) scale(62.4788 68.689)">
<stop stop-opacity="0.23"/>
<stop offset="0.861815" stop-opacity="0"/>
</radialGradient>
</defs>
</svg>
