<svg width="57" height="70" viewBox="0 0 57 70" fill="none" xmlns="http://www.w3.org/2000/svg">
<path fill-rule="evenodd" clip-rule="evenodd" d="M6.78737 0.396502L6.32629 0.793005L6.27847 13.9118C6.25218 21.127 6.27486 27.275 6.32876 27.5738C6.38265 27.8725 6.57047 28.2606 6.74629 28.4364C7.05554 28.7457 7.37826 28.7559 16.8427 28.7559H26.6197V38.1993V47.6427L24.1549 45.1717C22.1746 43.1862 21.6901 42.6118 21.6901 42.2486C21.6901 41.5486 21.2218 40.1195 20.6071 38.9437C18.9263 35.7283 15.4564 33.1527 11.3992 32.1091C9.26481 31.5601 6.61533 31.5269 4.71596 32.0253C2.27582 32.6657 0 34.1856 0 35.175C0 36.1368 0.379413 37.4308 1.10423 38.9409C1.75592 40.2988 2.05547 40.7004 3.43197 42.0629C5.25756 43.8701 6.74613 44.7913 9.17592 45.6175C12.8105 46.8535 16.355 46.7214 19.2822 45.2405L20.0783 44.8376L22.3356 47.1079C23.5772 48.3564 24.6819 49.5442 24.7905 49.7477L24.988 50.1174H19.3225H13.6569L13.1958 50.5139L12.7347 50.9105V53.8967V56.8829L13.1958 57.2796C13.4773 57.5216 13.8635 57.6761 14.1875 57.6761H14.7182L15.0985 62.4002C15.3075 64.9986 15.5484 67.4026 15.6335 67.7427C15.8241 68.5035 16.6574 69.4808 17.3689 69.778C17.7958 69.9563 19.8987 70 28.0605 70H38.2207L38.8957 69.5623C40.1784 68.7305 40.2676 68.4063 40.741 62.8569L41.162 57.9225L41.8866 57.8259C43.1501 57.6572 43.216 57.4652 43.216 53.9532C43.216 50.9561 43.2117 50.9197 42.8126 50.5208L42.4093 50.1174H36.7327C32.9777 50.1174 31.0563 50.0605 31.0563 49.9494C31.0563 49.8571 32.1545 48.6673 33.4968 47.3052L35.9371 44.8289L36.7462 45.2389C38.5355 46.1456 39.8323 46.4208 42.23 46.4029C43.9472 46.3901 44.7453 46.3063 45.7629 46.0319C47.2978 45.618 49.3756 44.659 50.7291 43.7398C53.5827 41.802 55.7182 38.5493 55.9804 35.7416L56.0781 34.696L55.4393 34.1087C53.0692 31.9299 48.592 31.1111 44.5926 32.1252C39.458 33.4273 35.339 37.2998 34.4247 41.6847L34.1812 42.853L31.7149 45.3291L29.2488 47.8052V38.2806V28.7559H39.0076C48.3708 28.7559 48.7821 28.7432 49.1543 28.4419L49.5423 28.1277L49.5861 14.547L49.63 0.966197L49.1469 0.483098L48.6638 0H27.9561H7.24845L6.78737 0.396502ZM11.8303 2.83451C11.8295 3.13307 11.2942 3.95385 10.7478 4.4943C10.3347 4.90279 9.21667 5.58685 8.96197 5.58685C8.91317 5.58685 8.87324 4.92136 8.87324 4.10798V2.62911H10.3521C11.4259 2.62911 11.8308 2.68531 11.8303 2.83451ZM41.3192 3.24531C41.7419 5.57601 44.029 7.86153 46.3791 8.30157L46.9953 8.41692V14.4568V20.4967L46.3492 20.5833C44.0576 20.8907 41.9818 22.8589 41.3514 25.3224L41.1245 26.2089H27.9178H14.7112L14.5855 25.3357C14.3395 23.6268 13.0744 21.6801 11.5983 20.7391C11.2292 20.5038 10.4836 20.1492 9.94132 19.951L8.9554 19.5906L8.91218 14.0161L8.86897 8.44157L9.76319 8.15976C10.9948 7.77148 12.4469 6.75993 13.2057 5.76169C13.7989 4.98134 14.6118 3.29953 14.6205 2.83451C14.6236 2.67183 17.3943 2.62911 27.916 2.62911H41.2075L41.3192 3.24531ZM46.9606 4.24437C47.008 5.77401 47.0071 5.77714 46.632 5.66507C45.9315 5.45589 44.8822 4.76624 44.5744 4.31272C44.23 3.80531 43.8732 3.02528 43.8732 2.77946C43.8732 2.68038 44.4674 2.63519 45.3932 2.66394L46.9132 2.71127L46.9606 4.24437ZM25.7981 4.68261C22.2421 5.4835 19.2562 8.40723 18.3158 12.0096C17.9322 13.4793 18.0585 16.2688 18.5751 17.736C19.0885 19.1938 20.4379 21.1162 21.6152 22.0669C23.5182 23.6038 25.5421 24.3192 27.9862 24.3192C30.8238 24.3192 32.8831 23.4669 34.9339 21.4437C35.9425 20.4485 36.4125 19.8296 36.8677 18.8967C37.9554 16.6674 38.2146 14.3666 37.6337 12.0954C36.7544 8.65782 34.4247 6.1153 31.1323 5.00056C29.5163 4.45354 27.381 4.3262 25.7981 4.68261ZM29.8182 7.31763C30.3501 7.45615 31.142 7.76359 31.5779 8.00087C32.5304 8.5193 34.0042 10.0236 34.4873 10.9706C36.3956 14.7112 34.8695 19.2051 31.0798 21.0049C30.0566 21.4908 29.6236 21.5996 28.4711 21.6601C25.283 21.8273 22.6649 20.2773 21.3061 17.4178C20.6134 15.9602 20.4969 13.8869 21.0125 12.1899C21.3927 10.9379 22.4237 9.39117 23.3447 8.69117C24.1025 8.11507 25.493 7.4223 26.2493 7.24418C27.2305 7.01282 28.77 7.04453 29.8182 7.31763ZM10.7555 13.056C10.3148 13.4965 10.2537 13.9001 10.5345 14.5165C10.8162 15.1345 11.3632 15.2817 13.3776 15.2817C15.4214 15.2817 15.9538 15.0783 16.1705 14.2148C16.2903 13.7374 15.9214 12.9084 15.5208 12.7546C15.3745 12.6986 14.3332 12.6526 13.2068 12.6526C11.2514 12.6526 11.1405 12.6708 10.7555 13.056ZM40.7888 12.7625C40.435 12.905 40.0793 13.7693 40.191 14.2148C40.4082 15.0804 40.9387 15.2817 43.0025 15.2817C44.879 15.2817 45.3965 15.1627 45.7987 14.6387C46.1303 14.2067 46.0436 13.4934 45.606 13.056C45.2182 12.6682 45.1217 12.6531 43.1001 12.6656C41.9438 12.6726 40.9037 12.7163 40.7888 12.7625ZM11.1062 23.7487C11.5705 24.3575 11.9953 25.3341 11.9953 25.7929C11.9953 26.1051 11.8939 26.1268 10.4343 26.1268H8.87324V24.3467C8.87324 23.3675 8.92122 22.5186 8.97972 22.46C9.15948 22.2804 10.6969 23.2121 11.1062 23.7487ZM46.9953 24.6479V26.1268H45.4165H43.8376L43.9446 25.6749C44.1243 24.9147 44.903 23.9538 45.6655 23.5514C46.9248 22.8865 46.9953 22.9446 46.9953 24.6479ZM50.5173 34.6081C51.7382 34.9039 53.4051 35.6423 53.3998 35.8852C53.3901 36.344 52.5583 38.0315 51.8592 39.0114C49.5924 42.1878 44.8981 44.2527 41.1309 43.7301C39.513 43.5057 38.5792 43.2424 38.7011 43.0452C39.0759 42.4389 43.1345 40.5203 45.27 39.9401C47.192 39.4177 47.4388 39.2953 47.6633 38.7535C47.9364 38.0943 47.5333 37.195 46.8928 37.0341C45.7174 36.7392 40.2932 38.6783 38.2453 40.1256C37.6786 40.5261 37.673 40.3524 38.2259 39.5158C39.4844 37.6112 41.7718 35.8702 44.1547 35.003C46.4024 34.1848 48.2877 34.0678 50.5173 34.6081ZM10.7777 34.6704C12.3573 35.0687 14.4322 36.0648 15.5717 36.9722C16.3897 37.6235 17.8216 39.2902 18.2266 40.0623C18.4144 40.4206 18.377 40.413 17.5519 39.9253C15.3499 38.6241 11.8487 37.2801 10.036 37.0405C9.00683 36.9045 8.38028 37.3708 8.38028 38.2729C8.38028 39.1196 8.71779 39.3747 10.454 39.8395C11.2565 40.0545 12.3198 40.39 12.8169 40.5852C13.9017 41.0113 16.6827 42.4514 17.2442 42.8781L17.6456 43.1831L16.9977 43.3675C14.5423 44.0668 11.997 43.9308 9.50094 42.9669C7.01742 42.0077 5.26725 40.649 4.03584 38.724C3.43937 37.7916 2.79343 36.3236 2.79343 35.9005C2.79343 35.609 4.13887 34.9091 5.30176 34.5961C6.60695 34.2445 9.22965 34.2801 10.7777 34.6704ZM40.5869 53.9789V55.2113H40.0403C39.6751 55.2113 39.3704 55.3429 39.1211 55.6081C38.7718 55.98 38.7184 56.3536 38.2719 61.5376C38.0098 64.5806 37.7537 67.1379 37.7026 67.2205C37.6482 67.3086 33.6422 67.3709 28.0268 67.3709C20.5573 67.3709 18.4079 67.3255 18.2804 67.1655C18.1438 66.9941 17.4065 59.2223 17.4152 58.0458L17.4178 57.6761H26.3019C32.7409 57.6761 35.2848 57.6235 35.5449 57.485C36.368 57.0466 36.5477 56.2092 35.9749 55.4811L35.6354 55.0494L25.4996 55.0072L15.3639 54.9648L15.3152 53.8556L15.2667 52.7465H27.9267H40.5869V53.9789Z" fill="#0066FF"/>
<path fill-rule="evenodd" clip-rule="evenodd" d="M6.78737 0.396502L6.32629 0.793005L6.27847 13.9118C6.25218 21.127 6.27486 27.275 6.32876 27.5738C6.38265 27.8725 6.57047 28.2606 6.74629 28.4364C7.05554 28.7457 7.37826 28.7559 16.8427 28.7559H26.6197V38.1993V47.6427L24.1549 45.1717C22.1746 43.1862 21.6901 42.6118 21.6901 42.2486C21.6901 41.5486 21.2218 40.1195 20.6071 38.9437C18.9263 35.7283 15.4564 33.1527 11.3992 32.1091C9.26481 31.5601 6.61533 31.5269 4.71596 32.0253C2.27582 32.6657 0 34.1856 0 35.175C0 36.1368 0.379413 37.4308 1.10423 38.9409C1.75592 40.2988 2.05547 40.7004 3.43197 42.0629C5.25756 43.8701 6.74613 44.7913 9.17592 45.6175C12.8105 46.8535 16.355 46.7214 19.2822 45.2405L20.0783 44.8376L22.3356 47.1079C23.5772 48.3564 24.6819 49.5442 24.7905 49.7477L24.988 50.1174H19.3225H13.6569L13.1958 50.5139L12.7347 50.9105V53.8967V56.8829L13.1958 57.2796C13.4773 57.5216 13.8635 57.6761 14.1875 57.6761H14.7182L15.0985 62.4002C15.3075 64.9986 15.5484 67.4026 15.6335 67.7427C15.8241 68.5035 16.6574 69.4808 17.3689 69.778C17.7958 69.9563 19.8987 70 28.0605 70H38.2207L38.8957 69.5623C40.1784 68.7305 40.2676 68.4063 40.741 62.8569L41.162 57.9225L41.8866 57.8259C43.1501 57.6572 43.216 57.4652 43.216 53.9532C43.216 50.9561 43.2117 50.9197 42.8126 50.5208L42.4093 50.1174H36.7327C32.9777 50.1174 31.0563 50.0605 31.0563 49.9494C31.0563 49.8571 32.1545 48.6673 33.4968 47.3052L35.9371 44.8289L36.7462 45.2389C38.5355 46.1456 39.8323 46.4208 42.23 46.4029C43.9472 46.3901 44.7453 46.3063 45.7629 46.0319C47.2978 45.618 49.3756 44.659 50.7291 43.7398C53.5827 41.802 55.7182 38.5493 55.9804 35.7416L56.0781 34.696L55.4393 34.1087C53.0692 31.9299 48.592 31.1111 44.5926 32.1252C39.458 33.4273 35.339 37.2998 34.4247 41.6847L34.1812 42.853L31.7149 45.3291L29.2488 47.8052V38.2806V28.7559H39.0076C48.3708 28.7559 48.7821 28.7432 49.1543 28.4419L49.5423 28.1277L49.5861 14.547L49.63 0.966197L49.1469 0.483098L48.6638 0H27.9561H7.24845L6.78737 0.396502ZM11.8303 2.83451C11.8295 3.13307 11.2942 3.95385 10.7478 4.4943C10.3347 4.90279 9.21667 5.58685 8.96197 5.58685C8.91317 5.58685 8.87324 4.92136 8.87324 4.10798V2.62911H10.3521C11.4259 2.62911 11.8308 2.68531 11.8303 2.83451ZM41.3192 3.24531C41.7419 5.57601 44.029 7.86153 46.3791 8.30157L46.9953 8.41692V14.4568V20.4967L46.3492 20.5833C44.0576 20.8907 41.9818 22.8589 41.3514 25.3224L41.1245 26.2089H27.9178H14.7112L14.5855 25.3357C14.3395 23.6268 13.0744 21.6801 11.5983 20.7391C11.2292 20.5038 10.4836 20.1492 9.94132 19.951L8.9554 19.5906L8.91218 14.0161L8.86897 8.44157L9.76319 8.15976C10.9948 7.77148 12.4469 6.75993 13.2057 5.76169C13.7989 4.98134 14.6118 3.29953 14.6205 2.83451C14.6236 2.67183 17.3943 2.62911 27.916 2.62911H41.2075L41.3192 3.24531ZM46.9606 4.24437C47.008 5.77401 47.0071 5.77714 46.632 5.66507C45.9315 5.45589 44.8822 4.76624 44.5744 4.31272C44.23 3.80531 43.8732 3.02528 43.8732 2.77946C43.8732 2.68038 44.4674 2.63519 45.3932 2.66394L46.9132 2.71127L46.9606 4.24437ZM25.7981 4.68261C22.2421 5.4835 19.2562 8.40723 18.3158 12.0096C17.9322 13.4793 18.0585 16.2688 18.5751 17.736C19.0885 19.1938 20.4379 21.1162 21.6152 22.0669C23.5182 23.6038 25.5421 24.3192 27.9862 24.3192C30.8238 24.3192 32.8831 23.4669 34.9339 21.4437C35.9425 20.4485 36.4125 19.8296 36.8677 18.8967C37.9554 16.6674 38.2146 14.3666 37.6337 12.0954C36.7544 8.65782 34.4247 6.1153 31.1323 5.00056C29.5163 4.45354 27.381 4.3262 25.7981 4.68261ZM29.8182 7.31763C30.3501 7.45615 31.142 7.76359 31.5779 8.00087C32.5304 8.5193 34.0042 10.0236 34.4873 10.9706C36.3956 14.7112 34.8695 19.2051 31.0798 21.0049C30.0566 21.4908 29.6236 21.5996 28.4711 21.6601C25.283 21.8273 22.6649 20.2773 21.3061 17.4178C20.6134 15.9602 20.4969 13.8869 21.0125 12.1899C21.3927 10.9379 22.4237 9.39117 23.3447 8.69117C24.1025 8.11507 25.493 7.4223 26.2493 7.24418C27.2305 7.01282 28.77 7.04453 29.8182 7.31763ZM10.7555 13.056C10.3148 13.4965 10.2537 13.9001 10.5345 14.5165C10.8162 15.1345 11.3632 15.2817 13.3776 15.2817C15.4214 15.2817 15.9538 15.0783 16.1705 14.2148C16.2903 13.7374 15.9214 12.9084 15.5208 12.7546C15.3745 12.6986 14.3332 12.6526 13.2068 12.6526C11.2514 12.6526 11.1405 12.6708 10.7555 13.056ZM40.7888 12.7625C40.435 12.905 40.0793 13.7693 40.191 14.2148C40.4082 15.0804 40.9387 15.2817 43.0025 15.2817C44.879 15.2817 45.3965 15.1627 45.7987 14.6387C46.1303 14.2067 46.0436 13.4934 45.606 13.056C45.2182 12.6682 45.1217 12.6531 43.1001 12.6656C41.9438 12.6726 40.9037 12.7163 40.7888 12.7625ZM11.1062 23.7487C11.5705 24.3575 11.9953 25.3341 11.9953 25.7929C11.9953 26.1051 11.8939 26.1268 10.4343 26.1268H8.87324V24.3467C8.87324 23.3675 8.92122 22.5186 8.97972 22.46C9.15948 22.2804 10.6969 23.2121 11.1062 23.7487ZM46.9953 24.6479V26.1268H45.4165H43.8376L43.9446 25.6749C44.1243 24.9147 44.903 23.9538 45.6655 23.5514C46.9248 22.8865 46.9953 22.9446 46.9953 24.6479ZM50.5173 34.6081C51.7382 34.9039 53.4051 35.6423 53.3998 35.8852C53.3901 36.344 52.5583 38.0315 51.8592 39.0114C49.5924 42.1878 44.8981 44.2527 41.1309 43.7301C39.513 43.5057 38.5792 43.2424 38.7011 43.0452C39.0759 42.4389 43.1345 40.5203 45.27 39.9401C47.192 39.4177 47.4388 39.2953 47.6633 38.7535C47.9364 38.0943 47.5333 37.195 46.8928 37.0341C45.7174 36.7392 40.2932 38.6783 38.2453 40.1256C37.6786 40.5261 37.673 40.3524 38.2259 39.5158C39.4844 37.6112 41.7718 35.8702 44.1547 35.003C46.4024 34.1848 48.2877 34.0678 50.5173 34.6081ZM10.7777 34.6704C12.3573 35.0687 14.4322 36.0648 15.5717 36.9722C16.3897 37.6235 17.8216 39.2902 18.2266 40.0623C18.4144 40.4206 18.377 40.413 17.5519 39.9253C15.3499 38.6241 11.8487 37.2801 10.036 37.0405C9.00683 36.9045 8.38028 37.3708 8.38028 38.2729C8.38028 39.1196 8.71779 39.3747 10.454 39.8395C11.2565 40.0545 12.3198 40.39 12.8169 40.5852C13.9017 41.0113 16.6827 42.4514 17.2442 42.8781L17.6456 43.1831L16.9977 43.3675C14.5423 44.0668 11.997 43.9308 9.50094 42.9669C7.01742 42.0077 5.26725 40.649 4.03584 38.724C3.43937 37.7916 2.79343 36.3236 2.79343 35.9005C2.79343 35.609 4.13887 34.9091 5.30176 34.5961C6.60695 34.2445 9.22965 34.2801 10.7777 34.6704ZM40.5869 53.9789V55.2113H40.0403C39.6751 55.2113 39.3704 55.3429 39.1211 55.6081C38.7718 55.98 38.7184 56.3536 38.2719 61.5376C38.0098 64.5806 37.7537 67.1379 37.7026 67.2205C37.6482 67.3086 33.6422 67.3709 28.0268 67.3709C20.5573 67.3709 18.4079 67.3255 18.2804 67.1655C18.1438 66.9941 17.4065 59.2223 17.4152 58.0458L17.4178 57.6761H26.3019C32.7409 57.6761 35.2848 57.6235 35.5449 57.485C36.368 57.0466 36.5477 56.2092 35.9749 55.4811L35.6354 55.0494L25.4996 55.0072L15.3639 54.9648L15.3152 53.8556L15.2667 52.7465H27.9267H40.5869V53.9789Z" fill="url(#paint0_radial_1469_189)" fill-opacity="0.7"/>
<path fill-rule="evenodd" clip-rule="evenodd" d="M6.78737 0.396502L6.32629 0.793005L6.27847 13.9118C6.25218 21.127 6.27486 27.275 6.32876 27.5738C6.38265 27.8725 6.57047 28.2606 6.74629 28.4364C7.05554 28.7457 7.37826 28.7559 16.8427 28.7559H26.6197V38.1993V47.6427L24.1549 45.1717C22.1746 43.1862 21.6901 42.6118 21.6901 42.2486C21.6901 41.5486 21.2218 40.1195 20.6071 38.9437C18.9263 35.7283 15.4564 33.1527 11.3992 32.1091C9.26481 31.5601 6.61533 31.5269 4.71596 32.0253C2.27582 32.6657 0 34.1856 0 35.175C0 36.1368 0.379413 37.4308 1.10423 38.9409C1.75592 40.2988 2.05547 40.7004 3.43197 42.0629C5.25756 43.8701 6.74613 44.7913 9.17592 45.6175C12.8105 46.8535 16.355 46.7214 19.2822 45.2405L20.0783 44.8376L22.3356 47.1079C23.5772 48.3564 24.6819 49.5442 24.7905 49.7477L24.988 50.1174H19.3225H13.6569L13.1958 50.5139L12.7347 50.9105V53.8967V56.8829L13.1958 57.2796C13.4773 57.5216 13.8635 57.6761 14.1875 57.6761H14.7182L15.0985 62.4002C15.3075 64.9986 15.5484 67.4026 15.6335 67.7427C15.8241 68.5035 16.6574 69.4808 17.3689 69.778C17.7958 69.9563 19.8987 70 28.0605 70H38.2207L38.8957 69.5623C40.1784 68.7305 40.2676 68.4063 40.741 62.8569L41.162 57.9225L41.8866 57.8259C43.1501 57.6572 43.216 57.4652 43.216 53.9532C43.216 50.9561 43.2117 50.9197 42.8126 50.5208L42.4093 50.1174H36.7327C32.9777 50.1174 31.0563 50.0605 31.0563 49.9494C31.0563 49.8571 32.1545 48.6673 33.4968 47.3052L35.9371 44.8289L36.7462 45.2389C38.5355 46.1456 39.8323 46.4208 42.23 46.4029C43.9472 46.3901 44.7453 46.3063 45.7629 46.0319C47.2978 45.618 49.3756 44.659 50.7291 43.7398C53.5827 41.802 55.7182 38.5493 55.9804 35.7416L56.0781 34.696L55.4393 34.1087C53.0692 31.9299 48.592 31.1111 44.5926 32.1252C39.458 33.4273 35.339 37.2998 34.4247 41.6847L34.1812 42.853L31.7149 45.3291L29.2488 47.8052V38.2806V28.7559H39.0076C48.3708 28.7559 48.7821 28.7432 49.1543 28.4419L49.5423 28.1277L49.5861 14.547L49.63 0.966197L49.1469 0.483098L48.6638 0H27.9561H7.24845L6.78737 0.396502ZM11.8303 2.83451C11.8295 3.13307 11.2942 3.95385 10.7478 4.4943C10.3347 4.90279 9.21667 5.58685 8.96197 5.58685C8.91317 5.58685 8.87324 4.92136 8.87324 4.10798V2.62911H10.3521C11.4259 2.62911 11.8308 2.68531 11.8303 2.83451ZM41.3192 3.24531C41.7419 5.57601 44.029 7.86153 46.3791 8.30157L46.9953 8.41692V14.4568V20.4967L46.3492 20.5833C44.0576 20.8907 41.9818 22.8589 41.3514 25.3224L41.1245 26.2089H27.9178H14.7112L14.5855 25.3357C14.3395 23.6268 13.0744 21.6801 11.5983 20.7391C11.2292 20.5038 10.4836 20.1492 9.94132 19.951L8.9554 19.5906L8.91218 14.0161L8.86897 8.44157L9.76319 8.15976C10.9948 7.77148 12.4469 6.75993 13.2057 5.76169C13.7989 4.98134 14.6118 3.29953 14.6205 2.83451C14.6236 2.67183 17.3943 2.62911 27.916 2.62911H41.2075L41.3192 3.24531ZM46.9606 4.24437C47.008 5.77401 47.0071 5.77714 46.632 5.66507C45.9315 5.45589 44.8822 4.76624 44.5744 4.31272C44.23 3.80531 43.8732 3.02528 43.8732 2.77946C43.8732 2.68038 44.4674 2.63519 45.3932 2.66394L46.9132 2.71127L46.9606 4.24437ZM25.7981 4.68261C22.2421 5.4835 19.2562 8.40723 18.3158 12.0096C17.9322 13.4793 18.0585 16.2688 18.5751 17.736C19.0885 19.1938 20.4379 21.1162 21.6152 22.0669C23.5182 23.6038 25.5421 24.3192 27.9862 24.3192C30.8238 24.3192 32.8831 23.4669 34.9339 21.4437C35.9425 20.4485 36.4125 19.8296 36.8677 18.8967C37.9554 16.6674 38.2146 14.3666 37.6337 12.0954C36.7544 8.65782 34.4247 6.1153 31.1323 5.00056C29.5163 4.45354 27.381 4.3262 25.7981 4.68261ZM29.8182 7.31763C30.3501 7.45615 31.142 7.76359 31.5779 8.00087C32.5304 8.5193 34.0042 10.0236 34.4873 10.9706C36.3956 14.7112 34.8695 19.2051 31.0798 21.0049C30.0566 21.4908 29.6236 21.5996 28.4711 21.6601C25.283 21.8273 22.6649 20.2773 21.3061 17.4178C20.6134 15.9602 20.4969 13.8869 21.0125 12.1899C21.3927 10.9379 22.4237 9.39117 23.3447 8.69117C24.1025 8.11507 25.493 7.4223 26.2493 7.24418C27.2305 7.01282 28.77 7.04453 29.8182 7.31763ZM10.7555 13.056C10.3148 13.4965 10.2537 13.9001 10.5345 14.5165C10.8162 15.1345 11.3632 15.2817 13.3776 15.2817C15.4214 15.2817 15.9538 15.0783 16.1705 14.2148C16.2903 13.7374 15.9214 12.9084 15.5208 12.7546C15.3745 12.6986 14.3332 12.6526 13.2068 12.6526C11.2514 12.6526 11.1405 12.6708 10.7555 13.056ZM40.7888 12.7625C40.435 12.905 40.0793 13.7693 40.191 14.2148C40.4082 15.0804 40.9387 15.2817 43.0025 15.2817C44.879 15.2817 45.3965 15.1627 45.7987 14.6387C46.1303 14.2067 46.0436 13.4934 45.606 13.056C45.2182 12.6682 45.1217 12.6531 43.1001 12.6656C41.9438 12.6726 40.9037 12.7163 40.7888 12.7625ZM11.1062 23.7487C11.5705 24.3575 11.9953 25.3341 11.9953 25.7929C11.9953 26.1051 11.8939 26.1268 10.4343 26.1268H8.87324V24.3467C8.87324 23.3675 8.92122 22.5186 8.97972 22.46C9.15948 22.2804 10.6969 23.2121 11.1062 23.7487ZM46.9953 24.6479V26.1268H45.4165H43.8376L43.9446 25.6749C44.1243 24.9147 44.903 23.9538 45.6655 23.5514C46.9248 22.8865 46.9953 22.9446 46.9953 24.6479ZM50.5173 34.6081C51.7382 34.9039 53.4051 35.6423 53.3998 35.8852C53.3901 36.344 52.5583 38.0315 51.8592 39.0114C49.5924 42.1878 44.8981 44.2527 41.1309 43.7301C39.513 43.5057 38.5792 43.2424 38.7011 43.0452C39.0759 42.4389 43.1345 40.5203 45.27 39.9401C47.192 39.4177 47.4388 39.2953 47.6633 38.7535C47.9364 38.0943 47.5333 37.195 46.8928 37.0341C45.7174 36.7392 40.2932 38.6783 38.2453 40.1256C37.6786 40.5261 37.673 40.3524 38.2259 39.5158C39.4844 37.6112 41.7718 35.8702 44.1547 35.003C46.4024 34.1848 48.2877 34.0678 50.5173 34.6081ZM10.7777 34.6704C12.3573 35.0687 14.4322 36.0648 15.5717 36.9722C16.3897 37.6235 17.8216 39.2902 18.2266 40.0623C18.4144 40.4206 18.377 40.413 17.5519 39.9253C15.3499 38.6241 11.8487 37.2801 10.036 37.0405C9.00683 36.9045 8.38028 37.3708 8.38028 38.2729C8.38028 39.1196 8.71779 39.3747 10.454 39.8395C11.2565 40.0545 12.3198 40.39 12.8169 40.5852C13.9017 41.0113 16.6827 42.4514 17.2442 42.8781L17.6456 43.1831L16.9977 43.3675C14.5423 44.0668 11.997 43.9308 9.50094 42.9669C7.01742 42.0077 5.26725 40.649 4.03584 38.724C3.43937 37.7916 2.79343 36.3236 2.79343 35.9005C2.79343 35.609 4.13887 34.9091 5.30176 34.5961C6.60695 34.2445 9.22965 34.2801 10.7777 34.6704ZM40.5869 53.9789V55.2113H40.0403C39.6751 55.2113 39.3704 55.3429 39.1211 55.6081C38.7718 55.98 38.7184 56.3536 38.2719 61.5376C38.0098 64.5806 37.7537 67.1379 37.7026 67.2205C37.6482 67.3086 33.6422 67.3709 28.0268 67.3709C20.5573 67.3709 18.4079 67.3255 18.2804 67.1655C18.1438 66.9941 17.4065 59.2223 17.4152 58.0458L17.4178 57.6761H26.3019C32.7409 57.6761 35.2848 57.6235 35.5449 57.485C36.368 57.0466 36.5477 56.2092 35.9749 55.4811L35.6354 55.0494L25.4996 55.0072L15.3639 54.9648L15.3152 53.8556L15.2667 52.7465H27.9267H40.5869V53.9789Z" fill="url(#paint1_radial_1469_189)"/>
<defs>
<radialGradient id="paint0_radial_1469_189" cx="0" cy="0" r="1" gradientUnits="userSpaceOnUse" gradientTransform="translate(14.7984 14.5833) rotate(57.0685) scale(54.4422 50.809)">
<stop stop-color="white" stop-opacity="0.59"/>
<stop offset="0.697917" stop-color="white" stop-opacity="0"/>
<stop offset="1" stop-color="white" stop-opacity="0"/>
</radialGradient>
<radialGradient id="paint1_radial_1469_189" cx="0" cy="0" r="1" gradientUnits="userSpaceOnUse" gradientTransform="translate(48.3961 61.25) rotate(-92.9419) scale(59.8706 53.5356)">
<stop stop-opacity="0.23"/>
<stop offset="0.861815" stop-opacity="0"/>
</radialGradient>
</defs>
</svg>
