<svg width="89" height="75" viewBox="0 0 89 75" fill="none" xmlns="http://www.w3.org/2000/svg">
<path fill-rule="evenodd" clip-rule="evenodd" d="M3.46207 0.197591C1.91864 0.61783 0.760694 1.74379 0.311881 3.26148C-0.0983999 4.64823 -0.10654 56.2464 0.303198 57.6315C0.64329 58.7807 1.60514 59.9119 2.70483 60.4555L3.56356 60.8801L28.166 60.9709L52.7684 61.0617L53.5824 61.9579C57.0488 65.7744 60.8481 67.5381 65.5971 67.5356C67.9775 67.5345 69.6604 67.2118 71.8088 66.3444L73.391 65.7057L77.6421 69.9472C82.364 74.6582 82.837 75 84.6348 75C86.7231 75 88.454 73.576 88.885 71.5032C89.0603 70.6612 89.0433 70.3349 88.7774 69.4156C88.4719 68.3601 88.3237 68.1865 84.0431 63.8648L79.6242 59.4038L80.176 58.1823C81.5302 55.184 81.911 50.9111 81.1009 47.8044C80.2368 44.4899 77.9735 41.0043 75.4476 39.0983L74.2955 38.229L74.205 20.8606L74.1146 3.4923L73.6952 2.63766C73.2269 1.68314 72.2976 0.781457 71.3238 0.336884C70.7355 0.068287 67.6915 0.0386853 37.4823 0.0074489C11.5937 -0.0194289 4.10554 0.0225224 3.46207 0.197591ZM70.7818 3.38752L71.3106 3.91835V7.11046V10.3026H37.1205H2.93041V7.0498V3.79704L3.48704 3.32686L4.04349 2.85668H37.1484H70.2531L70.7818 3.38752ZM9.35236 5.24572C8.80477 5.54628 8.53831 5.95979 8.53831 6.50861C8.53831 7.25084 8.70926 7.56393 9.27493 7.85759C10.034 8.25167 10.4955 8.18412 11.0848 7.59244C11.771 6.90361 11.771 6.25563 11.0848 5.5668C10.5335 5.01326 9.96688 4.90829 9.35236 5.24572ZM15.495 5.45075C14.4642 6.34081 15.1455 8.12328 16.5162 8.12328C17.7912 8.12328 18.4288 6.41309 17.501 5.48181C16.9357 4.9141 16.1309 4.90175 15.495 5.45075ZM22.1717 5.24844C21.7809 5.43822 21.3822 6.11071 21.3822 6.57962C21.3822 7.3885 22.1679 8.12328 23.0327 8.12328C23.5653 8.12328 24.4575 7.15658 24.4575 6.57962C24.4575 5.9696 23.5517 5.0316 22.979 5.04831C22.7475 5.05503 22.3842 5.14511 22.1717 5.24844ZM33.8165 5.44458C33.0826 6.00411 33.1675 7.52234 33.9495 7.82363C34.1179 7.88864 41.4444 7.94167 50.2305 7.94167C65.5692 7.94167 66.2219 7.92805 66.6233 7.60188C67.2042 7.12971 67.2042 6.02953 66.6233 5.55735C66.2219 5.23101 65.5676 5.21757 50.1598 5.21757C37.6028 5.21757 34.0495 5.26697 33.8165 5.44458ZM71.3106 24.9219C71.3106 31.3644 71.2688 36.6356 71.2178 36.6356C71.1668 36.6356 70.536 36.4685 69.8158 36.264C68.1045 35.7785 65.0488 35.6078 63.258 35.8979C59.6174 36.4874 56.4989 38.1705 53.9976 40.8955C50.088 45.1553 48.7802 51.2484 50.6142 56.6612C50.8537 57.3685 51.0498 57.9736 51.0498 58.0061C51.0498 58.0386 40.4735 58.0652 27.5467 58.0652H4.04349L3.48704 57.595L2.93041 57.1248V35.1665V13.2083H37.1205H71.3106V24.9219ZM18.4878 16.803L18.0356 17.1715V20.8358C18.0356 25.5679 17.6687 25.1943 22.3149 25.1943H25.7403L26.2079 24.7249C26.6399 24.2912 26.6683 24.1657 26.5809 23.0742C26.4565 21.5179 25.4988 19.5416 24.3571 18.485C22.6203 16.8778 19.4949 15.9821 18.4878 16.803ZM30.3843 18.7558C29.4677 19.2612 29.4958 20.6247 30.4328 21.1111C30.9012 21.3542 31.9191 21.386 37.8284 21.3414C44.2727 21.2929 44.7035 21.2693 45.0613 20.9438C45.5787 20.4735 45.5787 19.382 45.0613 18.9116C44.7027 18.5858 44.2798 18.5633 37.7801 18.5241C31.9234 18.4889 30.8046 18.5239 30.3843 18.7558ZM47.9656 19.0008C47.672 19.2954 47.4318 19.7125 47.4318 19.9277C47.4318 20.1429 47.672 20.5601 47.9656 20.8546L48.4993 21.3906L57.3535 21.3403C65.7678 21.2923 66.2266 21.2725 66.5884 20.9438C66.8442 20.7112 66.969 20.3783 66.969 19.9277C66.969 19.4772 66.8442 19.1443 66.5884 18.9116C66.2266 18.5829 65.7678 18.5631 57.3535 18.5152L48.4993 18.4649L47.9656 19.0008ZM21.4394 19.7679C22.3307 20.2266 23.553 21.6793 23.553 22.2795C23.553 22.3958 23.023 22.4702 22.1963 22.4702H20.8395V21.0174C20.8395 20.2183 20.8856 19.5645 20.9419 19.5645C20.9982 19.5645 21.2219 19.656 21.4394 19.7679ZM13.4734 20.8303C11.544 21.2907 9.4741 23.0381 8.57376 24.9668C8.14087 25.8941 8.08606 26.2266 8.08606 27.9222C8.08606 29.7042 8.12495 29.9125 8.66403 31.0116C9.41368 32.5403 10.6793 33.8136 12.1563 34.5253C13.2426 35.0487 13.4767 35.0919 15.2316 35.0919C16.9916 35.0919 17.2204 35.0494 18.3476 34.5133C20.6532 33.4169 22.2487 31.1303 22.4235 28.6723C22.496 27.6496 22.453 27.3949 22.1427 27.0104C21.7885 26.5714 21.6919 26.5544 19.2409 26.4939L16.7056 26.4314L16.647 23.8895C16.5913 21.4719 16.5676 21.3306 16.1613 21.0008C15.7099 20.6344 14.5918 20.5633 13.4734 20.8303ZM13.8153 26.0978C13.8962 29.3006 13.8436 29.2489 17.1526 29.3713L19.6076 29.4621L19.0025 30.3648C18.6535 30.8853 18.0204 31.5004 17.507 31.8177C16.7193 32.3044 16.457 32.3678 15.2316 32.3678C14.0058 32.3678 13.7448 32.3046 12.9619 31.8186C10.7026 30.4164 10.0633 27.4822 11.5597 25.3841C12.0107 24.7517 13.2811 23.7415 13.6254 23.7415C13.697 23.7415 13.7824 24.8019 13.8153 26.0978ZM30.1477 24.9137C29.5779 25.4856 29.5672 26.2736 30.1222 26.7972L30.541 27.192H42.6948C54.6076 27.192 54.8559 27.1847 55.2105 26.8288C55.7492 26.288 55.693 25.316 55.0956 24.8444C54.6244 24.4721 54.4853 24.4679 42.6054 24.4679H30.5916L30.1477 24.9137ZM58.0063 24.9137C57.4636 25.4584 57.4397 26.0787 57.9372 26.7135L58.312 27.192H62.2788C66.0043 27.192 66.2675 27.1698 66.6072 26.8288C67.1951 26.2386 67.1517 25.4667 66.4974 24.8765C66.058 24.4802 65.9301 24.4679 62.2473 24.4679C58.4571 24.4679 58.4495 24.4686 58.0063 24.9137ZM30.0969 30.8812C29.5752 31.4389 29.5956 32.1849 30.1477 32.7392L30.5916 33.185H37.8441H45.0966L45.5405 32.7392C46.1103 32.1673 46.121 31.3793 45.566 30.8557C45.1503 30.4638 45.094 30.4609 37.8188 30.4609H30.4903L30.0969 30.8812ZM48.2175 30.9269C47.843 31.3028 47.7746 31.5048 47.8643 31.9712C48.106 33.2273 47.7743 33.185 57.3866 33.185C62.1431 33.185 66.1727 33.132 66.3411 33.067C67.1465 32.7568 67.2009 31.0588 66.4193 30.6387C66.2165 30.5298 62.716 30.4609 57.3849 30.4609H48.6816L48.2175 30.9269ZM67.5674 38.6539C72.9521 39.4911 77.2535 43.4869 78.4343 48.7482C78.8398 50.5561 78.8134 53.1295 78.3715 54.8647C77.7747 57.2069 76.7248 59.0062 74.849 60.9017C73.4398 62.3258 72.9691 62.6738 71.4915 63.3848C69.163 64.5053 67.4507 64.8611 64.9967 64.7347C58.5727 64.4036 53.569 59.724 52.6853 53.2208C51.8074 46.7612 56.4831 40.1166 62.8083 38.8352C64.9004 38.4113 65.7899 38.3775 67.5674 38.6539ZM8.51316 39.5251L8.08606 39.8722L8.0345 46.797L7.98313 53.722L8.51823 54.259L9.05315 54.7962H11.6657C14.035 54.7962 14.3228 54.7612 14.7549 54.4198L15.2316 54.0435V46.9739C15.2316 40.1466 15.2191 39.8919 14.8698 39.5413C14.5393 39.2095 14.2669 39.1781 11.7241 39.1781C9.25304 39.1781 8.89215 39.2171 8.51316 39.5251ZM28.0887 39.6566C27.7247 40.121 27.7137 40.332 27.7137 46.8215C27.7137 51.335 27.779 53.6518 27.9145 53.9505C28.2427 54.6733 28.8027 54.7962 31.768 54.7962C34.2976 54.7962 34.5807 54.7634 35.0157 54.4198L35.4924 54.0435V46.9739C35.4924 40.1466 35.4799 39.8919 35.1306 39.5413C34.7965 39.2058 34.5277 39.1781 31.6163 39.1781H28.4635L28.0887 39.6566ZM63.8937 40.9859C58.7303 41.9664 55.0233 46.3038 54.967 51.4303C54.9326 54.5654 55.9066 56.9842 58.0863 59.1757C60.2451 61.3464 62.735 62.415 65.6486 62.421C67.454 62.4248 68.6152 62.149 70.4061 61.2914C74.0241 59.5587 76.3758 55.7949 76.3758 51.7371C76.3758 49.8395 76.1191 48.6441 75.3749 47.0779C74.0932 44.3802 71.8376 42.3653 69.072 41.4476C67.5039 40.9273 65.2573 40.727 63.8937 40.9859ZM12.5181 46.8963V51.8905H11.7041H10.89V46.8963V41.9022H11.7041H12.5181V46.8963ZM32.7789 46.8963V51.8905H31.6031H30.4272V47.0175C30.4272 44.3371 30.4815 42.0898 30.5479 42.0233C30.6141 41.9566 31.1432 41.9022 31.7237 41.9022H32.7789V46.8963ZM18.3639 42.9931C18.1466 43.081 17.882 43.3156 17.776 43.5145C17.5683 43.904 17.495 53.4458 17.6956 53.9708C17.9487 54.6328 18.7255 54.7962 21.6201 54.7962C24.1673 54.7962 24.4499 54.7637 24.8853 54.4198L25.362 54.0435V48.8032V43.5629L24.8853 43.1867C24.4477 42.8411 24.1775 42.8111 21.5839 42.8216C20.0303 42.828 18.5813 42.9052 18.3639 42.9931ZM68.9589 44.3764C73.2385 46.4062 74.8818 51.406 72.6328 55.5543C71.9968 56.7274 70.2804 58.3399 69.081 58.8911C64.6652 60.9207 59.5246 58.6378 58.0631 53.9979C57.5237 52.285 57.6675 50.0053 58.4164 48.3995C59.3788 46.3361 61.0572 44.8231 63.2582 44.0349C63.9525 43.7863 64.5891 43.7229 65.9741 43.7643C67.5531 43.8117 67.9325 43.8895 68.9589 44.3764ZM38.6336 44.2939C38.421 44.3971 38.1565 44.6815 38.0456 44.9257C37.7714 45.5301 37.7708 53.3463 38.0449 53.9505C38.3731 54.6733 38.9331 54.7962 41.8984 54.7962C44.428 54.7962 44.7111 54.7634 45.1461 54.4198L45.6228 54.0435V49.4388V44.8342L45.1461 44.4579C44.7084 44.1121 44.439 44.0825 41.8447 44.0938C40.2911 44.1005 38.8461 44.1906 38.6336 44.2939ZM22.6485 48.8032V51.8905H21.4727H20.2968V48.8032V45.7159H21.4727H22.6485V48.8032ZM42.9093 49.4388V51.8905H41.7335H40.5576V49.4388V46.9871H41.7335H42.9093V49.4388ZM82.1246 65.9289C85.9299 69.7626 86.1444 70.0153 86.1444 70.6589C86.1444 71.5872 85.5033 72.2305 84.5778 72.2305C83.9349 72.2305 83.686 72.0169 79.8223 68.1489L75.745 64.0673L76.8235 62.9731C77.4169 62.3712 77.9478 61.8789 78.0035 61.8789C78.0594 61.8789 79.9138 63.7013 82.1246 65.9289Z" fill="#0066FF"/>
<path fill-rule="evenodd" clip-rule="evenodd" d="M3.46207 0.197591C1.91864 0.61783 0.760694 1.74379 0.311881 3.26148C-0.0983999 4.64823 -0.10654 56.2464 0.303198 57.6315C0.64329 58.7807 1.60514 59.9119 2.70483 60.4555L3.56356 60.8801L28.166 60.9709L52.7684 61.0617L53.5824 61.9579C57.0488 65.7744 60.8481 67.5381 65.5971 67.5356C67.9775 67.5345 69.6604 67.2118 71.8088 66.3444L73.391 65.7057L77.6421 69.9472C82.364 74.6582 82.837 75 84.6348 75C86.7231 75 88.454 73.576 88.885 71.5032C89.0603 70.6612 89.0433 70.3349 88.7774 69.4156C88.4719 68.3601 88.3237 68.1865 84.0431 63.8648L79.6242 59.4038L80.176 58.1823C81.5302 55.184 81.911 50.9111 81.1009 47.8044C80.2368 44.4899 77.9735 41.0043 75.4476 39.0983L74.2955 38.229L74.205 20.8606L74.1146 3.4923L73.6952 2.63766C73.2269 1.68314 72.2976 0.781457 71.3238 0.336884C70.7355 0.068287 67.6915 0.0386853 37.4823 0.0074489C11.5937 -0.0194289 4.10554 0.0225224 3.46207 0.197591ZM70.7818 3.38752L71.3106 3.91835V7.11046V10.3026H37.1205H2.93041V7.0498V3.79704L3.48704 3.32686L4.04349 2.85668H37.1484H70.2531L70.7818 3.38752ZM9.35236 5.24572C8.80477 5.54628 8.53831 5.95979 8.53831 6.50861C8.53831 7.25084 8.70926 7.56393 9.27493 7.85759C10.034 8.25167 10.4955 8.18412 11.0848 7.59244C11.771 6.90361 11.771 6.25563 11.0848 5.5668C10.5335 5.01326 9.96688 4.90829 9.35236 5.24572ZM15.495 5.45075C14.4642 6.34081 15.1455 8.12328 16.5162 8.12328C17.7912 8.12328 18.4288 6.41309 17.501 5.48181C16.9357 4.9141 16.1309 4.90175 15.495 5.45075ZM22.1717 5.24844C21.7809 5.43822 21.3822 6.11071 21.3822 6.57962C21.3822 7.3885 22.1679 8.12328 23.0327 8.12328C23.5653 8.12328 24.4575 7.15658 24.4575 6.57962C24.4575 5.9696 23.5517 5.0316 22.979 5.04831C22.7475 5.05503 22.3842 5.14511 22.1717 5.24844ZM33.8165 5.44458C33.0826 6.00411 33.1675 7.52234 33.9495 7.82363C34.1179 7.88864 41.4444 7.94167 50.2305 7.94167C65.5692 7.94167 66.2219 7.92805 66.6233 7.60188C67.2042 7.12971 67.2042 6.02953 66.6233 5.55735C66.2219 5.23101 65.5676 5.21757 50.1598 5.21757C37.6028 5.21757 34.0495 5.26697 33.8165 5.44458ZM71.3106 24.9219C71.3106 31.3644 71.2688 36.6356 71.2178 36.6356C71.1668 36.6356 70.536 36.4685 69.8158 36.264C68.1045 35.7785 65.0488 35.6078 63.258 35.8979C59.6174 36.4874 56.4989 38.1705 53.9976 40.8955C50.088 45.1553 48.7802 51.2484 50.6142 56.6612C50.8537 57.3685 51.0498 57.9736 51.0498 58.0061C51.0498 58.0386 40.4735 58.0652 27.5467 58.0652H4.04349L3.48704 57.595L2.93041 57.1248V35.1665V13.2083H37.1205H71.3106V24.9219ZM18.4878 16.803L18.0356 17.1715V20.8358C18.0356 25.5679 17.6687 25.1943 22.3149 25.1943H25.7403L26.2079 24.7249C26.6399 24.2912 26.6683 24.1657 26.5809 23.0742C26.4565 21.5179 25.4988 19.5416 24.3571 18.485C22.6203 16.8778 19.4949 15.9821 18.4878 16.803ZM30.3843 18.7558C29.4677 19.2612 29.4958 20.6247 30.4328 21.1111C30.9012 21.3542 31.9191 21.386 37.8284 21.3414C44.2727 21.2929 44.7035 21.2693 45.0613 20.9438C45.5787 20.4735 45.5787 19.382 45.0613 18.9116C44.7027 18.5858 44.2798 18.5633 37.7801 18.5241C31.9234 18.4889 30.8046 18.5239 30.3843 18.7558ZM47.9656 19.0008C47.672 19.2954 47.4318 19.7125 47.4318 19.9277C47.4318 20.1429 47.672 20.5601 47.9656 20.8546L48.4993 21.3906L57.3535 21.3403C65.7678 21.2923 66.2266 21.2725 66.5884 20.9438C66.8442 20.7112 66.969 20.3783 66.969 19.9277C66.969 19.4772 66.8442 19.1443 66.5884 18.9116C66.2266 18.5829 65.7678 18.5631 57.3535 18.5152L48.4993 18.4649L47.9656 19.0008ZM21.4394 19.7679C22.3307 20.2266 23.553 21.6793 23.553 22.2795C23.553 22.3958 23.023 22.4702 22.1963 22.4702H20.8395V21.0174C20.8395 20.2183 20.8856 19.5645 20.9419 19.5645C20.9982 19.5645 21.2219 19.656 21.4394 19.7679ZM13.4734 20.8303C11.544 21.2907 9.4741 23.0381 8.57376 24.9668C8.14087 25.8941 8.08606 26.2266 8.08606 27.9222C8.08606 29.7042 8.12495 29.9125 8.66403 31.0116C9.41368 32.5403 10.6793 33.8136 12.1563 34.5253C13.2426 35.0487 13.4767 35.0919 15.2316 35.0919C16.9916 35.0919 17.2204 35.0494 18.3476 34.5133C20.6532 33.4169 22.2487 31.1303 22.4235 28.6723C22.496 27.6496 22.453 27.3949 22.1427 27.0104C21.7885 26.5714 21.6919 26.5544 19.2409 26.4939L16.7056 26.4314L16.647 23.8895C16.5913 21.4719 16.5676 21.3306 16.1613 21.0008C15.7099 20.6344 14.5918 20.5633 13.4734 20.8303ZM13.8153 26.0978C13.8962 29.3006 13.8436 29.2489 17.1526 29.3713L19.6076 29.4621L19.0025 30.3648C18.6535 30.8853 18.0204 31.5004 17.507 31.8177C16.7193 32.3044 16.457 32.3678 15.2316 32.3678C14.0058 32.3678 13.7448 32.3046 12.9619 31.8186C10.7026 30.4164 10.0633 27.4822 11.5597 25.3841C12.0107 24.7517 13.2811 23.7415 13.6254 23.7415C13.697 23.7415 13.7824 24.8019 13.8153 26.0978ZM30.1477 24.9137C29.5779 25.4856 29.5672 26.2736 30.1222 26.7972L30.541 27.192H42.6948C54.6076 27.192 54.8559 27.1847 55.2105 26.8288C55.7492 26.288 55.693 25.316 55.0956 24.8444C54.6244 24.4721 54.4853 24.4679 42.6054 24.4679H30.5916L30.1477 24.9137ZM58.0063 24.9137C57.4636 25.4584 57.4397 26.0787 57.9372 26.7135L58.312 27.192H62.2788C66.0043 27.192 66.2675 27.1698 66.6072 26.8288C67.1951 26.2386 67.1517 25.4667 66.4974 24.8765C66.058 24.4802 65.9301 24.4679 62.2473 24.4679C58.4571 24.4679 58.4495 24.4686 58.0063 24.9137ZM30.0969 30.8812C29.5752 31.4389 29.5956 32.1849 30.1477 32.7392L30.5916 33.185H37.8441H45.0966L45.5405 32.7392C46.1103 32.1673 46.121 31.3793 45.566 30.8557C45.1503 30.4638 45.094 30.4609 37.8188 30.4609H30.4903L30.0969 30.8812ZM48.2175 30.9269C47.843 31.3028 47.7746 31.5048 47.8643 31.9712C48.106 33.2273 47.7743 33.185 57.3866 33.185C62.1431 33.185 66.1727 33.132 66.3411 33.067C67.1465 32.7568 67.2009 31.0588 66.4193 30.6387C66.2165 30.5298 62.716 30.4609 57.3849 30.4609H48.6816L48.2175 30.9269ZM67.5674 38.6539C72.9521 39.4911 77.2535 43.4869 78.4343 48.7482C78.8398 50.5561 78.8134 53.1295 78.3715 54.8647C77.7747 57.2069 76.7248 59.0062 74.849 60.9017C73.4398 62.3258 72.9691 62.6738 71.4915 63.3848C69.163 64.5053 67.4507 64.8611 64.9967 64.7347C58.5727 64.4036 53.569 59.724 52.6853 53.2208C51.8074 46.7612 56.4831 40.1166 62.8083 38.8352C64.9004 38.4113 65.7899 38.3775 67.5674 38.6539ZM8.51316 39.5251L8.08606 39.8722L8.0345 46.797L7.98313 53.722L8.51823 54.259L9.05315 54.7962H11.6657C14.035 54.7962 14.3228 54.7612 14.7549 54.4198L15.2316 54.0435V46.9739C15.2316 40.1466 15.2191 39.8919 14.8698 39.5413C14.5393 39.2095 14.2669 39.1781 11.7241 39.1781C9.25304 39.1781 8.89215 39.2171 8.51316 39.5251ZM28.0887 39.6566C27.7247 40.121 27.7137 40.332 27.7137 46.8215C27.7137 51.335 27.779 53.6518 27.9145 53.9505C28.2427 54.6733 28.8027 54.7962 31.768 54.7962C34.2976 54.7962 34.5807 54.7634 35.0157 54.4198L35.4924 54.0435V46.9739C35.4924 40.1466 35.4799 39.8919 35.1306 39.5413C34.7965 39.2058 34.5277 39.1781 31.6163 39.1781H28.4635L28.0887 39.6566ZM63.8937 40.9859C58.7303 41.9664 55.0233 46.3038 54.967 51.4303C54.9326 54.5654 55.9066 56.9842 58.0863 59.1757C60.2451 61.3464 62.735 62.415 65.6486 62.421C67.454 62.4248 68.6152 62.149 70.4061 61.2914C74.0241 59.5587 76.3758 55.7949 76.3758 51.7371C76.3758 49.8395 76.1191 48.6441 75.3749 47.0779C74.0932 44.3802 71.8376 42.3653 69.072 41.4476C67.5039 40.9273 65.2573 40.727 63.8937 40.9859ZM12.5181 46.8963V51.8905H11.7041H10.89V46.8963V41.9022H11.7041H12.5181V46.8963ZM32.7789 46.8963V51.8905H31.6031H30.4272V47.0175C30.4272 44.3371 30.4815 42.0898 30.5479 42.0233C30.6141 41.9566 31.1432 41.9022 31.7237 41.9022H32.7789V46.8963ZM18.3639 42.9931C18.1466 43.081 17.882 43.3156 17.776 43.5145C17.5683 43.904 17.495 53.4458 17.6956 53.9708C17.9487 54.6328 18.7255 54.7962 21.6201 54.7962C24.1673 54.7962 24.4499 54.7637 24.8853 54.4198L25.362 54.0435V48.8032V43.5629L24.8853 43.1867C24.4477 42.8411 24.1775 42.8111 21.5839 42.8216C20.0303 42.828 18.5813 42.9052 18.3639 42.9931ZM68.9589 44.3764C73.2385 46.4062 74.8818 51.406 72.6328 55.5543C71.9968 56.7274 70.2804 58.3399 69.081 58.8911C64.6652 60.9207 59.5246 58.6378 58.0631 53.9979C57.5237 52.285 57.6675 50.0053 58.4164 48.3995C59.3788 46.3361 61.0572 44.8231 63.2582 44.0349C63.9525 43.7863 64.5891 43.7229 65.9741 43.7643C67.5531 43.8117 67.9325 43.8895 68.9589 44.3764ZM38.6336 44.2939C38.421 44.3971 38.1565 44.6815 38.0456 44.9257C37.7714 45.5301 37.7708 53.3463 38.0449 53.9505C38.3731 54.6733 38.9331 54.7962 41.8984 54.7962C44.428 54.7962 44.7111 54.7634 45.1461 54.4198L45.6228 54.0435V49.4388V44.8342L45.1461 44.4579C44.7084 44.1121 44.439 44.0825 41.8447 44.0938C40.2911 44.1005 38.8461 44.1906 38.6336 44.2939ZM22.6485 48.8032V51.8905H21.4727H20.2968V48.8032V45.7159H21.4727H22.6485V48.8032ZM42.9093 49.4388V51.8905H41.7335H40.5576V49.4388V46.9871H41.7335H42.9093V49.4388ZM82.1246 65.9289C85.9299 69.7626 86.1444 70.0153 86.1444 70.6589C86.1444 71.5872 85.5033 72.2305 84.5778 72.2305C83.9349 72.2305 83.686 72.0169 79.8223 68.1489L75.745 64.0673L76.8235 62.9731C77.4169 62.3712 77.9478 61.8789 78.0035 61.8789C78.0594 61.8789 79.9138 63.7013 82.1246 65.9289Z" fill="url(#paint0_radial_1469_263)" fill-opacity="0.7"/>
<path fill-rule="evenodd" clip-rule="evenodd" d="M3.46207 0.197591C1.91864 0.61783 0.760694 1.74379 0.311881 3.26148C-0.0983999 4.64823 -0.10654 56.2464 0.303198 57.6315C0.64329 58.7807 1.60514 59.9119 2.70483 60.4555L3.56356 60.8801L28.166 60.9709L52.7684 61.0617L53.5824 61.9579C57.0488 65.7744 60.8481 67.5381 65.5971 67.5356C67.9775 67.5345 69.6604 67.2118 71.8088 66.3444L73.391 65.7057L77.6421 69.9472C82.364 74.6582 82.837 75 84.6348 75C86.7231 75 88.454 73.576 88.885 71.5032C89.0603 70.6612 89.0433 70.3349 88.7774 69.4156C88.4719 68.3601 88.3237 68.1865 84.0431 63.8648L79.6242 59.4038L80.176 58.1823C81.5302 55.184 81.911 50.9111 81.1009 47.8044C80.2368 44.4899 77.9735 41.0043 75.4476 39.0983L74.2955 38.229L74.205 20.8606L74.1146 3.4923L73.6952 2.63766C73.2269 1.68314 72.2976 0.781457 71.3238 0.336884C70.7355 0.068287 67.6915 0.0386853 37.4823 0.0074489C11.5937 -0.0194289 4.10554 0.0225224 3.46207 0.197591ZM70.7818 3.38752L71.3106 3.91835V7.11046V10.3026H37.1205H2.93041V7.0498V3.79704L3.48704 3.32686L4.04349 2.85668H37.1484H70.2531L70.7818 3.38752ZM9.35236 5.24572C8.80477 5.54628 8.53831 5.95979 8.53831 6.50861C8.53831 7.25084 8.70926 7.56393 9.27493 7.85759C10.034 8.25167 10.4955 8.18412 11.0848 7.59244C11.771 6.90361 11.771 6.25563 11.0848 5.5668C10.5335 5.01326 9.96688 4.90829 9.35236 5.24572ZM15.495 5.45075C14.4642 6.34081 15.1455 8.12328 16.5162 8.12328C17.7912 8.12328 18.4288 6.41309 17.501 5.48181C16.9357 4.9141 16.1309 4.90175 15.495 5.45075ZM22.1717 5.24844C21.7809 5.43822 21.3822 6.11071 21.3822 6.57962C21.3822 7.3885 22.1679 8.12328 23.0327 8.12328C23.5653 8.12328 24.4575 7.15658 24.4575 6.57962C24.4575 5.9696 23.5517 5.0316 22.979 5.04831C22.7475 5.05503 22.3842 5.14511 22.1717 5.24844ZM33.8165 5.44458C33.0826 6.00411 33.1675 7.52234 33.9495 7.82363C34.1179 7.88864 41.4444 7.94167 50.2305 7.94167C65.5692 7.94167 66.2219 7.92805 66.6233 7.60188C67.2042 7.12971 67.2042 6.02953 66.6233 5.55735C66.2219 5.23101 65.5676 5.21757 50.1598 5.21757C37.6028 5.21757 34.0495 5.26697 33.8165 5.44458ZM71.3106 24.9219C71.3106 31.3644 71.2688 36.6356 71.2178 36.6356C71.1668 36.6356 70.536 36.4685 69.8158 36.264C68.1045 35.7785 65.0488 35.6078 63.258 35.8979C59.6174 36.4874 56.4989 38.1705 53.9976 40.8955C50.088 45.1553 48.7802 51.2484 50.6142 56.6612C50.8537 57.3685 51.0498 57.9736 51.0498 58.0061C51.0498 58.0386 40.4735 58.0652 27.5467 58.0652H4.04349L3.48704 57.595L2.93041 57.1248V35.1665V13.2083H37.1205H71.3106V24.9219ZM18.4878 16.803L18.0356 17.1715V20.8358C18.0356 25.5679 17.6687 25.1943 22.3149 25.1943H25.7403L26.2079 24.7249C26.6399 24.2912 26.6683 24.1657 26.5809 23.0742C26.4565 21.5179 25.4988 19.5416 24.3571 18.485C22.6203 16.8778 19.4949 15.9821 18.4878 16.803ZM30.3843 18.7558C29.4677 19.2612 29.4958 20.6247 30.4328 21.1111C30.9012 21.3542 31.9191 21.386 37.8284 21.3414C44.2727 21.2929 44.7035 21.2693 45.0613 20.9438C45.5787 20.4735 45.5787 19.382 45.0613 18.9116C44.7027 18.5858 44.2798 18.5633 37.7801 18.5241C31.9234 18.4889 30.8046 18.5239 30.3843 18.7558ZM47.9656 19.0008C47.672 19.2954 47.4318 19.7125 47.4318 19.9277C47.4318 20.1429 47.672 20.5601 47.9656 20.8546L48.4993 21.3906L57.3535 21.3403C65.7678 21.2923 66.2266 21.2725 66.5884 20.9438C66.8442 20.7112 66.969 20.3783 66.969 19.9277C66.969 19.4772 66.8442 19.1443 66.5884 18.9116C66.2266 18.5829 65.7678 18.5631 57.3535 18.5152L48.4993 18.4649L47.9656 19.0008ZM21.4394 19.7679C22.3307 20.2266 23.553 21.6793 23.553 22.2795C23.553 22.3958 23.023 22.4702 22.1963 22.4702H20.8395V21.0174C20.8395 20.2183 20.8856 19.5645 20.9419 19.5645C20.9982 19.5645 21.2219 19.656 21.4394 19.7679ZM13.4734 20.8303C11.544 21.2907 9.4741 23.0381 8.57376 24.9668C8.14087 25.8941 8.08606 26.2266 8.08606 27.9222C8.08606 29.7042 8.12495 29.9125 8.66403 31.0116C9.41368 32.5403 10.6793 33.8136 12.1563 34.5253C13.2426 35.0487 13.4767 35.0919 15.2316 35.0919C16.9916 35.0919 17.2204 35.0494 18.3476 34.5133C20.6532 33.4169 22.2487 31.1303 22.4235 28.6723C22.496 27.6496 22.453 27.3949 22.1427 27.0104C21.7885 26.5714 21.6919 26.5544 19.2409 26.4939L16.7056 26.4314L16.647 23.8895C16.5913 21.4719 16.5676 21.3306 16.1613 21.0008C15.7099 20.6344 14.5918 20.5633 13.4734 20.8303ZM13.8153 26.0978C13.8962 29.3006 13.8436 29.2489 17.1526 29.3713L19.6076 29.4621L19.0025 30.3648C18.6535 30.8853 18.0204 31.5004 17.507 31.8177C16.7193 32.3044 16.457 32.3678 15.2316 32.3678C14.0058 32.3678 13.7448 32.3046 12.9619 31.8186C10.7026 30.4164 10.0633 27.4822 11.5597 25.3841C12.0107 24.7517 13.2811 23.7415 13.6254 23.7415C13.697 23.7415 13.7824 24.8019 13.8153 26.0978ZM30.1477 24.9137C29.5779 25.4856 29.5672 26.2736 30.1222 26.7972L30.541 27.192H42.6948C54.6076 27.192 54.8559 27.1847 55.2105 26.8288C55.7492 26.288 55.693 25.316 55.0956 24.8444C54.6244 24.4721 54.4853 24.4679 42.6054 24.4679H30.5916L30.1477 24.9137ZM58.0063 24.9137C57.4636 25.4584 57.4397 26.0787 57.9372 26.7135L58.312 27.192H62.2788C66.0043 27.192 66.2675 27.1698 66.6072 26.8288C67.1951 26.2386 67.1517 25.4667 66.4974 24.8765C66.058 24.4802 65.9301 24.4679 62.2473 24.4679C58.4571 24.4679 58.4495 24.4686 58.0063 24.9137ZM30.0969 30.8812C29.5752 31.4389 29.5956 32.1849 30.1477 32.7392L30.5916 33.185H37.8441H45.0966L45.5405 32.7392C46.1103 32.1673 46.121 31.3793 45.566 30.8557C45.1503 30.4638 45.094 30.4609 37.8188 30.4609H30.4903L30.0969 30.8812ZM48.2175 30.9269C47.843 31.3028 47.7746 31.5048 47.8643 31.9712C48.106 33.2273 47.7743 33.185 57.3866 33.185C62.1431 33.185 66.1727 33.132 66.3411 33.067C67.1465 32.7568 67.2009 31.0588 66.4193 30.6387C66.2165 30.5298 62.716 30.4609 57.3849 30.4609H48.6816L48.2175 30.9269ZM67.5674 38.6539C72.9521 39.4911 77.2535 43.4869 78.4343 48.7482C78.8398 50.5561 78.8134 53.1295 78.3715 54.8647C77.7747 57.2069 76.7248 59.0062 74.849 60.9017C73.4398 62.3258 72.9691 62.6738 71.4915 63.3848C69.163 64.5053 67.4507 64.8611 64.9967 64.7347C58.5727 64.4036 53.569 59.724 52.6853 53.2208C51.8074 46.7612 56.4831 40.1166 62.8083 38.8352C64.9004 38.4113 65.7899 38.3775 67.5674 38.6539ZM8.51316 39.5251L8.08606 39.8722L8.0345 46.797L7.98313 53.722L8.51823 54.259L9.05315 54.7962H11.6657C14.035 54.7962 14.3228 54.7612 14.7549 54.4198L15.2316 54.0435V46.9739C15.2316 40.1466 15.2191 39.8919 14.8698 39.5413C14.5393 39.2095 14.2669 39.1781 11.7241 39.1781C9.25304 39.1781 8.89215 39.2171 8.51316 39.5251ZM28.0887 39.6566C27.7247 40.121 27.7137 40.332 27.7137 46.8215C27.7137 51.335 27.779 53.6518 27.9145 53.9505C28.2427 54.6733 28.8027 54.7962 31.768 54.7962C34.2976 54.7962 34.5807 54.7634 35.0157 54.4198L35.4924 54.0435V46.9739C35.4924 40.1466 35.4799 39.8919 35.1306 39.5413C34.7965 39.2058 34.5277 39.1781 31.6163 39.1781H28.4635L28.0887 39.6566ZM63.8937 40.9859C58.7303 41.9664 55.0233 46.3038 54.967 51.4303C54.9326 54.5654 55.9066 56.9842 58.0863 59.1757C60.2451 61.3464 62.735 62.415 65.6486 62.421C67.454 62.4248 68.6152 62.149 70.4061 61.2914C74.0241 59.5587 76.3758 55.7949 76.3758 51.7371C76.3758 49.8395 76.1191 48.6441 75.3749 47.0779C74.0932 44.3802 71.8376 42.3653 69.072 41.4476C67.5039 40.9273 65.2573 40.727 63.8937 40.9859ZM12.5181 46.8963V51.8905H11.7041H10.89V46.8963V41.9022H11.7041H12.5181V46.8963ZM32.7789 46.8963V51.8905H31.6031H30.4272V47.0175C30.4272 44.3371 30.4815 42.0898 30.5479 42.0233C30.6141 41.9566 31.1432 41.9022 31.7237 41.9022H32.7789V46.8963ZM18.3639 42.9931C18.1466 43.081 17.882 43.3156 17.776 43.5145C17.5683 43.904 17.495 53.4458 17.6956 53.9708C17.9487 54.6328 18.7255 54.7962 21.6201 54.7962C24.1673 54.7962 24.4499 54.7637 24.8853 54.4198L25.362 54.0435V48.8032V43.5629L24.8853 43.1867C24.4477 42.8411 24.1775 42.8111 21.5839 42.8216C20.0303 42.828 18.5813 42.9052 18.3639 42.9931ZM68.9589 44.3764C73.2385 46.4062 74.8818 51.406 72.6328 55.5543C71.9968 56.7274 70.2804 58.3399 69.081 58.8911C64.6652 60.9207 59.5246 58.6378 58.0631 53.9979C57.5237 52.285 57.6675 50.0053 58.4164 48.3995C59.3788 46.3361 61.0572 44.8231 63.2582 44.0349C63.9525 43.7863 64.5891 43.7229 65.9741 43.7643C67.5531 43.8117 67.9325 43.8895 68.9589 44.3764ZM38.6336 44.2939C38.421 44.3971 38.1565 44.6815 38.0456 44.9257C37.7714 45.5301 37.7708 53.3463 38.0449 53.9505C38.3731 54.6733 38.9331 54.7962 41.8984 54.7962C44.428 54.7962 44.7111 54.7634 45.1461 54.4198L45.6228 54.0435V49.4388V44.8342L45.1461 44.4579C44.7084 44.1121 44.439 44.0825 41.8447 44.0938C40.2911 44.1005 38.8461 44.1906 38.6336 44.2939ZM22.6485 48.8032V51.8905H21.4727H20.2968V48.8032V45.7159H21.4727H22.6485V48.8032ZM42.9093 49.4388V51.8905H41.7335H40.5576V49.4388V46.9871H41.7335H42.9093V49.4388ZM82.1246 65.9289C85.9299 69.7626 86.1444 70.0153 86.1444 70.6589C86.1444 71.5872 85.5033 72.2305 84.5778 72.2305C83.9349 72.2305 83.686 72.0169 79.8223 68.1489L75.745 64.0673L76.8235 62.9731C77.4169 62.3712 77.9478 61.8789 78.0035 61.8789C78.0594 61.8789 79.9138 63.7013 82.1246 65.9289Z" fill="url(#paint1_radial_1469_263)"/>
<defs>
<radialGradient id="paint0_radial_1469_263" cx="0" cy="0" r="1" gradientUnits="userSpaceOnUse" gradientTransform="translate(23.4861 15.625) rotate(46.1861) scale(67.8477 69.3268)">
<stop stop-color="white" stop-opacity="0.59"/>
<stop offset="0.697917" stop-color="white" stop-opacity="0"/>
<stop offset="1" stop-color="white" stop-opacity="0"/>
</radialGradient>
<radialGradient id="paint1_radial_1469_263" cx="0" cy="0" r="1" gradientUnits="userSpaceOnUse" gradientTransform="translate(76.8082 65.625) rotate(-94.3532) scale(64.2478 84.8316)">
<stop stop-opacity="0.23"/>
<stop offset="0.861815" stop-opacity="0"/>
</radialGradient>
</defs>
</svg>
