<svg width="69" height="72" viewBox="0 0 69 72" fill="none" xmlns="http://www.w3.org/2000/svg">
<path fill-rule="evenodd" clip-rule="evenodd" d="M27.6191 0.297552C26.9217 0.645082 26.3942 1.23233 25.9867 2.11497C25.7128 2.708 25.6908 3.03467 25.6483 7.15317L25.6026 11.5572H14.0841C5.84531 11.5572 2.42999 11.6029 2.08951 11.7176C1.31475 11.9787 0.748724 12.4934 0.362742 13.2875L0 14.0337L0.0368203 29.6474L0.0736404 45.2609L0.596543 45.7433L1.11959 46.2257H3.8972C6.61965 46.2257 6.68097 46.2192 6.97932 45.8996C7.35494 45.4971 7.36936 44.9543 7.01642 44.5149C6.75784 44.1931 6.67285 44.1808 4.4264 44.1375L2.10365 44.0927V32.6871V21.2813H19.5337H36.9638V32.6944V44.1075L23.8613 44.1449L10.7589 44.1822L10.4912 44.5149C10.1446 44.9459 10.1522 45.3914 10.5139 45.8543L10.804 46.2257H18.2092H25.6144L25.654 57.6761L25.6938 69.1266L26.0877 69.9341C26.3043 70.3782 26.7119 70.9326 26.9933 71.1661C28.0759 72.0644 27.207 72.0241 44.6021 71.9828L60.414 71.9452L61.1495 71.5349C61.9505 71.0882 62.531 70.4238 62.812 69.6325C62.9459 69.2555 62.9932 67.753 62.9978 63.7361L63.004 58.3455H64.0797C65.4268 58.3455 66.2159 58.001 66.7582 57.1761C67.1122 56.6378 67.134 56.5087 67.134 54.9559C67.134 53.3155 67.1358 53.3062 67.5095 53.0905C68.0066 52.8031 68.7096 51.8103 68.8881 51.1431C68.9795 50.8012 69.0173 47.944 68.9926 43.2376C68.9572 36.4755 68.9333 35.8254 68.7026 35.3589C67.8098 33.5542 65.6528 32.7761 63.8651 33.614C63.4532 33.8069 63.0909 33.9649 63.0601 33.9649C63.0292 33.9649 63.004 29.2719 63.004 23.5361C63.004 13.2953 62.9989 13.1023 62.724 12.8256C62.307 12.4059 61.5578 12.4497 61.1942 12.915C60.9068 13.2827 60.904 13.3832 60.904 23.2733V33.2602H60.3616C59.7259 33.2602 58.7149 33.5928 58.3555 33.9203C58.1206 34.1343 58.0526 34.122 57.3685 33.7418C56.7391 33.3919 56.4806 33.3332 55.5625 33.3321L54.4911 33.3307L54.4379 31.0054C54.3899 28.9067 54.353 28.6183 54.0589 28.0459C53.614 27.1799 53.1196 26.6749 52.3097 26.2589C50.762 25.4642 49.0396 25.7411 47.8091 26.9826C46.5683 28.2343 46.6237 27.631 46.6247 39.8648C46.6251 47.2123 46.6736 50.6983 46.7801 51.085C46.9834 51.8218 47.643 52.7734 48.166 53.0844L48.5839 53.3328V54.9392C48.5839 56.7786 48.7771 57.312 49.6658 57.9252L50.1729 58.2751L55.5384 58.3151L60.904 58.3551V60.1125V61.8699L44.3489 61.8341L27.7938 61.7983V54.0472V46.2961L32.8587 46.2257C37.7226 46.158 37.9395 46.1435 38.3188 45.8601C38.536 45.6979 38.789 45.3491 38.881 45.085C39.1107 44.425 39.1376 14.7955 38.9093 13.8827C38.8243 13.5429 38.5345 13.0058 38.2653 12.6891C37.3564 11.6203 37.4389 11.6361 32.3438 11.5572L27.7938 11.4867V7.3151C27.7938 2.74238 27.8141 2.61597 28.6154 2.19022C28.9699 2.00194 29.3848 1.96573 30.7825 2.00096L32.5112 2.0445L33.0225 3.60811C33.6189 5.43215 33.9932 5.98431 35.022 6.55789L35.7738 6.97701H44.3839C52.9472 6.97701 52.997 6.97532 53.5539 6.6719C54.6472 6.07605 55.1172 5.41707 55.7025 3.65856L56.2397 2.0445H58.1636H60.0875L60.4957 2.50478L60.904 2.96505V5.83281C60.904 8.52075 60.9222 8.72396 61.1942 9.07192C61.5615 9.5422 62.307 9.58109 62.7332 9.15211C63.0115 8.87194 63.0208 8.73862 62.9782 5.59365C62.9294 1.98996 62.9068 1.88568 61.973 0.945683C60.9625 -0.0715408 62.3157 0.00103751 44.3627 0.00117843C28.2324 0.00131936 28.2131 0.00160124 27.6191 0.297552ZM53.9805 2.1502C53.4782 3.76947 53.2791 4.24102 52.978 4.52598L52.6215 4.86308L44.6177 4.90324C40.2155 4.92523 36.4866 4.91184 36.331 4.87337C35.8232 4.74794 35.4571 4.26089 35.1372 3.28524C34.9643 2.75789 34.7938 2.24716 34.7584 2.1502C34.7072 2.0104 36.6869 1.97404 44.3646 1.97404C52.0369 1.97404 54.0239 2.0104 53.9805 2.1502ZM36.6271 13.9675C36.8677 14.2347 36.8938 14.5016 36.8938 16.6804V19.0969L19.4987 19.1327L2.10365 19.1685V16.7282C2.10365 14.4672 2.12465 14.2653 2.38911 13.9796L2.67457 13.6711H19.5175H36.3604L36.6271 13.9675ZM4.22802 15.5475C3.82426 15.9802 3.84008 16.5592 4.26736 16.9893C4.5748 17.2989 4.72852 17.3353 5.72953 17.3353C6.69231 17.3353 6.89686 17.2912 7.1987 17.0182C7.70508 16.5602 7.73868 15.9612 7.28368 15.5032C7.04596 15.2639 6.81706 15.2213 5.76803 15.2213C4.65754 15.2213 4.50172 15.2543 4.22802 15.5475ZM25.3438 15.5032C24.9268 15.9229 24.9704 16.6771 25.4327 17.0431C25.8546 17.3773 26.0317 17.399 26.5177 17.176C26.9809 16.9636 27.2192 16.3732 27.0368 15.8901C26.7782 15.2054 25.8503 14.9933 25.3438 15.5032ZM28.994 15.5927C28.4049 16.3465 28.8193 17.2507 29.7538 17.2507C30.6883 17.2507 31.1027 16.3465 30.5136 15.5927C30.3032 15.3234 30.0944 15.2213 29.7538 15.2213C29.4132 15.2213 29.2044 15.3234 28.994 15.5927ZM32.756 15.4812C32.2945 15.8574 32.3239 16.5772 32.8183 17.0052C33.288 17.4119 33.5974 17.4212 34.0749 17.0431C34.3453 16.8292 34.4438 16.622 34.4438 16.268C34.4438 15.3506 33.4721 14.8976 32.756 15.4812ZM48.7939 15.9936C46.9851 16.3317 45.2816 17.1684 43.8226 18.4352C43.2132 18.9644 43.1239 19.1104 43.1239 19.576C43.1239 19.9323 43.2177 20.1957 43.4057 20.3669C43.872 20.7917 44.3937 20.6867 45.2323 19.9991C46.3276 19.101 46.8329 18.8146 48.0939 18.377C49.5803 17.8611 51.5184 17.825 52.9939 18.2858C54.0644 18.6201 55.4142 19.3772 56.0739 20.0133C56.8243 20.7372 57.5855 20.8032 58.0517 20.1853C58.3732 19.7594 58.2648 19.3248 57.6772 18.6831C56.4787 17.3742 54.4998 16.363 52.4236 15.9986C50.9857 15.7462 50.1242 15.745 48.7939 15.9936ZM48.6906 20.9912C47.1895 21.4742 45.7839 22.6111 45.7839 23.3419C45.7839 23.7863 46.3705 24.3817 46.8083 24.3817C46.9936 24.3817 47.3902 24.1851 47.6896 23.945C48.6136 23.2034 49.2798 22.9327 50.3559 22.8619C51.5963 22.7805 52.4017 23.0319 53.4117 23.8162C54.2237 24.4468 54.6827 24.5208 55.1375 24.0944C55.6395 23.6235 55.5533 22.9179 54.9224 22.3361C54.2514 21.7175 53.2266 21.1585 52.3149 20.9142C51.3083 20.6444 49.6595 20.6794 48.6906 20.9912ZM6.21799 24.0559C6.05531 24.088 5.74031 24.3055 5.51799 24.5391L5.11367 24.9639V32.5296C5.11367 39.6735 5.12823 40.1168 5.37407 40.4818C5.80079 41.115 6.29793 41.1737 10.8303 41.1259L15.0071 41.0818L15.4153 40.6215L15.8237 40.1612V32.5848C15.8237 25.8082 15.7996 24.9735 15.5954 24.6801C15.1311 24.0128 14.7279 23.9575 10.4732 23.9781C8.29546 23.9887 6.38053 24.0236 6.21799 24.0559ZM18.4892 25.113C18.1308 25.5001 18.1234 26.0827 18.4714 26.5152L18.739 26.848H26.0438H33.3486L33.6161 26.5152C33.9642 26.0827 33.9568 25.5001 33.5984 25.113L33.3129 24.8045H26.0438H18.7747L18.4892 25.113ZM13.7237 32.5581V39.0435L10.4687 39.0056L7.21368 38.9678L7.17714 32.6965C7.15712 29.2473 7.17084 26.346 7.2078 26.249C7.25876 26.1151 8.04892 26.0729 10.4994 26.0729H13.7237V32.5581ZM51.611 28.2556C52.3235 28.7256 52.3639 29.0483 52.3639 34.2683C52.3639 39.0255 52.368 39.095 52.6683 39.4168C53.0986 39.8778 53.7944 39.857 54.1737 39.3716C54.4298 39.0439 54.4639 38.8062 54.4639 37.3508C54.4639 35.7199 54.468 35.6994 54.8205 35.5378C55.3052 35.3154 55.7974 35.3323 56.2886 35.5879C56.9235 35.9184 57.1239 36.459 57.1239 37.8398C57.1239 38.938 57.156 39.0834 57.4676 39.397C57.8487 39.7807 58.0668 39.8181 58.572 39.5865C59.0867 39.3503 59.2239 38.88 59.2239 37.3508C59.2239 36.0144 59.2388 35.9466 59.5929 35.6663C60.1471 35.2273 60.9307 35.2764 61.4967 35.7851C61.951 36.1934 61.9542 36.2056 62.0017 37.6875C62.0466 39.0899 62.0707 39.1957 62.4056 39.4609C62.8731 39.831 63.183 39.8168 63.6611 39.4032C64.0411 39.0745 64.0555 39.0118 64.1013 37.5011C64.1462 36.0219 64.1677 35.9238 64.5052 35.6564C65.0866 35.196 65.8744 35.2759 66.448 35.8533L66.924 36.3325V43.4001C66.924 50.9509 66.9139 51.0684 66.2317 51.4358C65.8485 51.6423 49.9747 51.6349 49.5236 51.4281C49.3402 51.3439 49.0852 51.0963 48.957 50.8777C48.745 50.5167 48.7239 49.521 48.7242 39.9326C48.7243 30.1728 48.7427 29.3478 48.9692 28.8914C49.4288 27.9652 50.705 27.658 51.611 28.2556ZM18.8197 29.2336C18.1454 29.5291 17.9757 30.353 18.4837 30.8644C18.7566 31.1391 18.9504 31.1463 26.0438 31.1463C33.1372 31.1463 33.331 31.1391 33.6038 30.8644C34.1367 30.3281 33.9069 29.4481 33.1659 29.1881C32.4667 28.9427 19.3887 28.9843 18.8197 29.2336ZM18.8078 33.5411C18.1596 33.8082 18.0072 34.7163 18.5277 35.2087L18.8518 35.5151H26.0634H33.275L33.5795 35.189C33.9551 34.7863 33.9695 34.2436 33.6163 33.8043L33.3487 33.4716L26.2312 33.4433C22.2953 33.4278 18.977 33.4715 18.8078 33.5411ZM18.5726 38.0621C18.3051 38.2739 18.2037 38.484 18.2037 38.8269C18.2037 39.1698 18.3051 39.3799 18.5726 39.5917C18.9254 39.8712 19.1087 39.8839 22.779 39.8839H26.6165L26.9601 39.5379C27.1491 39.3476 27.3038 39.0277 27.3038 38.8269C27.3038 38.6261 27.1491 38.3062 26.9601 38.1159L26.6165 37.7699H22.779C19.1087 37.7699 18.9254 37.7826 18.5726 38.0621ZM0.826984 50.2426C0.01932 50.6844 0.00364002 50.8256 0.00364002 57.6409C0.00364002 64.4683 0.00966008 64.5213 0.832444 65.0106C1.20219 65.2305 1.99571 65.2511 10.0752 65.2511C18.0496 65.2511 18.948 65.2284 19.2658 65.0188C19.8662 64.6227 20.0237 64.1226 20.0237 62.6117C20.0237 60.9329 19.864 60.6004 19.0575 60.6004C18.273 60.6004 18.0142 60.9643 17.947 62.1609L17.8921 63.1371H9.99787H2.10365V58.2046C2.10365 55.4917 2.13809 53.2721 2.18037 53.2721C2.22251 53.2721 3.74852 54.4228 5.57147 55.8291C7.39456 57.2355 9.10523 58.4783 9.37319 58.591C9.97519 58.8443 10.6406 58.7483 11.2401 58.322C11.4896 58.1446 13.0797 56.9315 14.7737 55.6265L17.8537 53.2535L17.9237 55.151C18.0049 57.3521 18.1364 57.6409 19.0575 57.6409C19.97 57.6409 20.0237 57.4464 20.0237 54.1498C20.0237 51.884 19.9801 51.2 19.8146 50.8779C19.3571 49.9875 19.8517 50.0302 10.0875 50.0364C2.66855 50.041 1.13289 50.0753 0.826984 50.2426ZM15.6837 52.206C15.6837 52.2907 10.3549 56.3848 10.1333 56.4703C9.99899 56.5223 5.25493 53.0313 4.42066 52.2666C4.34562 52.1978 6.77086 52.1447 9.98569 52.1447C13.1196 52.1447 15.6837 52.1723 15.6837 52.206ZM64.936 53.864C65.1755 54.1051 65.1572 55.8708 64.913 56.0748C64.7753 56.1899 62.7788 56.2241 57.738 56.1976L50.7539 56.1611L50.7123 55.1174C50.6895 54.5433 50.7032 53.9884 50.743 53.8843C50.8431 53.6217 64.6757 53.602 64.936 53.864ZM60.904 66.4467V68.9107L60.4954 69.371L60.0869 69.8312L44.5704 69.8732C30.6074 69.911 29.0112 69.8927 28.6287 69.6912C27.8566 69.284 27.798 69.0661 27.7472 66.4137L27.7007 63.9827H44.3022H60.904V66.4467ZM40.8839 65.9557C40.5273 66.3146 40.5235 67.0022 40.876 67.3571C41.2742 67.7579 41.7818 67.8105 44.7813 67.7616L47.4887 67.7173L47.8263 67.3219C48.2399 66.8373 48.2514 66.5286 47.8737 66.0452L47.5836 65.6738H44.3737C41.3505 65.6738 41.1476 65.6902 40.8839 65.9557Z" fill="#0066FF"/>
<path fill-rule="evenodd" clip-rule="evenodd" d="M27.6191 0.297552C26.9217 0.645082 26.3942 1.23233 25.9867 2.11497C25.7128 2.708 25.6908 3.03467 25.6483 7.15317L25.6026 11.5572H14.0841C5.84531 11.5572 2.42999 11.6029 2.08951 11.7176C1.31475 11.9787 0.748724 12.4934 0.362742 13.2875L0 14.0337L0.0368203 29.6474L0.0736404 45.2609L0.596543 45.7433L1.11959 46.2257H3.8972C6.61965 46.2257 6.68097 46.2192 6.97932 45.8996C7.35494 45.4971 7.36936 44.9543 7.01642 44.5149C6.75784 44.1931 6.67285 44.1808 4.4264 44.1375L2.10365 44.0927V32.6871V21.2813H19.5337H36.9638V32.6944V44.1075L23.8613 44.1449L10.7589 44.1822L10.4912 44.5149C10.1446 44.9459 10.1522 45.3914 10.5139 45.8543L10.804 46.2257H18.2092H25.6144L25.654 57.6761L25.6938 69.1266L26.0877 69.9341C26.3043 70.3782 26.7119 70.9326 26.9933 71.1661C28.0759 72.0644 27.207 72.0241 44.6021 71.9828L60.414 71.9452L61.1495 71.5349C61.9505 71.0882 62.531 70.4238 62.812 69.6325C62.9459 69.2555 62.9932 67.753 62.9978 63.7361L63.004 58.3455H64.0797C65.4268 58.3455 66.2159 58.001 66.7582 57.1761C67.1122 56.6378 67.134 56.5087 67.134 54.9559C67.134 53.3155 67.1358 53.3062 67.5095 53.0905C68.0066 52.8031 68.7096 51.8103 68.8881 51.1431C68.9795 50.8012 69.0173 47.944 68.9926 43.2376C68.9572 36.4755 68.9333 35.8254 68.7026 35.3589C67.8098 33.5542 65.6528 32.7761 63.8651 33.614C63.4532 33.8069 63.0909 33.9649 63.0601 33.9649C63.0292 33.9649 63.004 29.2719 63.004 23.5361C63.004 13.2953 62.9989 13.1023 62.724 12.8256C62.307 12.4059 61.5578 12.4497 61.1942 12.915C60.9068 13.2827 60.904 13.3832 60.904 23.2733V33.2602H60.3616C59.7259 33.2602 58.7149 33.5928 58.3555 33.9203C58.1206 34.1343 58.0526 34.122 57.3685 33.7418C56.7391 33.3919 56.4806 33.3332 55.5625 33.3321L54.4911 33.3307L54.4379 31.0054C54.3899 28.9067 54.353 28.6183 54.0589 28.0459C53.614 27.1799 53.1196 26.6749 52.3097 26.2589C50.762 25.4642 49.0396 25.7411 47.8091 26.9826C46.5683 28.2343 46.6237 27.631 46.6247 39.8648C46.6251 47.2123 46.6736 50.6983 46.7801 51.085C46.9834 51.8218 47.643 52.7734 48.166 53.0844L48.5839 53.3328V54.9392C48.5839 56.7786 48.7771 57.312 49.6658 57.9252L50.1729 58.2751L55.5384 58.3151L60.904 58.3551V60.1125V61.8699L44.3489 61.8341L27.7938 61.7983V54.0472V46.2961L32.8587 46.2257C37.7226 46.158 37.9395 46.1435 38.3188 45.8601C38.536 45.6979 38.789 45.3491 38.881 45.085C39.1107 44.425 39.1376 14.7955 38.9093 13.8827C38.8243 13.5429 38.5345 13.0058 38.2653 12.6891C37.3564 11.6203 37.4389 11.6361 32.3438 11.5572L27.7938 11.4867V7.3151C27.7938 2.74238 27.8141 2.61597 28.6154 2.19022C28.9699 2.00194 29.3848 1.96573 30.7825 2.00096L32.5112 2.0445L33.0225 3.60811C33.6189 5.43215 33.9932 5.98431 35.022 6.55789L35.7738 6.97701H44.3839C52.9472 6.97701 52.997 6.97532 53.5539 6.6719C54.6472 6.07605 55.1172 5.41707 55.7025 3.65856L56.2397 2.0445H58.1636H60.0875L60.4957 2.50478L60.904 2.96505V5.83281C60.904 8.52075 60.9222 8.72396 61.1942 9.07192C61.5615 9.5422 62.307 9.58109 62.7332 9.15211C63.0115 8.87194 63.0208 8.73862 62.9782 5.59365C62.9294 1.98996 62.9068 1.88568 61.973 0.945683C60.9625 -0.0715408 62.3157 0.00103751 44.3627 0.00117843C28.2324 0.00131936 28.2131 0.00160124 27.6191 0.297552ZM53.9805 2.1502C53.4782 3.76947 53.2791 4.24102 52.978 4.52598L52.6215 4.86308L44.6177 4.90324C40.2155 4.92523 36.4866 4.91184 36.331 4.87337C35.8232 4.74794 35.4571 4.26089 35.1372 3.28524C34.9643 2.75789 34.7938 2.24716 34.7584 2.1502C34.7072 2.0104 36.6869 1.97404 44.3646 1.97404C52.0369 1.97404 54.0239 2.0104 53.9805 2.1502ZM36.6271 13.9675C36.8677 14.2347 36.8938 14.5016 36.8938 16.6804V19.0969L19.4987 19.1327L2.10365 19.1685V16.7282C2.10365 14.4672 2.12465 14.2653 2.38911 13.9796L2.67457 13.6711H19.5175H36.3604L36.6271 13.9675ZM4.22802 15.5475C3.82426 15.9802 3.84008 16.5592 4.26736 16.9893C4.5748 17.2989 4.72852 17.3353 5.72953 17.3353C6.69231 17.3353 6.89686 17.2912 7.1987 17.0182C7.70508 16.5602 7.73868 15.9612 7.28368 15.5032C7.04596 15.2639 6.81706 15.2213 5.76803 15.2213C4.65754 15.2213 4.50172 15.2543 4.22802 15.5475ZM25.3438 15.5032C24.9268 15.9229 24.9704 16.6771 25.4327 17.0431C25.8546 17.3773 26.0317 17.399 26.5177 17.176C26.9809 16.9636 27.2192 16.3732 27.0368 15.8901C26.7782 15.2054 25.8503 14.9933 25.3438 15.5032ZM28.994 15.5927C28.4049 16.3465 28.8193 17.2507 29.7538 17.2507C30.6883 17.2507 31.1027 16.3465 30.5136 15.5927C30.3032 15.3234 30.0944 15.2213 29.7538 15.2213C29.4132 15.2213 29.2044 15.3234 28.994 15.5927ZM32.756 15.4812C32.2945 15.8574 32.3239 16.5772 32.8183 17.0052C33.288 17.4119 33.5974 17.4212 34.0749 17.0431C34.3453 16.8292 34.4438 16.622 34.4438 16.268C34.4438 15.3506 33.4721 14.8976 32.756 15.4812ZM48.7939 15.9936C46.9851 16.3317 45.2816 17.1684 43.8226 18.4352C43.2132 18.9644 43.1239 19.1104 43.1239 19.576C43.1239 19.9323 43.2177 20.1957 43.4057 20.3669C43.872 20.7917 44.3937 20.6867 45.2323 19.9991C46.3276 19.101 46.8329 18.8146 48.0939 18.377C49.5803 17.8611 51.5184 17.825 52.9939 18.2858C54.0644 18.6201 55.4142 19.3772 56.0739 20.0133C56.8243 20.7372 57.5855 20.8032 58.0517 20.1853C58.3732 19.7594 58.2648 19.3248 57.6772 18.6831C56.4787 17.3742 54.4998 16.363 52.4236 15.9986C50.9857 15.7462 50.1242 15.745 48.7939 15.9936ZM48.6906 20.9912C47.1895 21.4742 45.7839 22.6111 45.7839 23.3419C45.7839 23.7863 46.3705 24.3817 46.8083 24.3817C46.9936 24.3817 47.3902 24.1851 47.6896 23.945C48.6136 23.2034 49.2798 22.9327 50.3559 22.8619C51.5963 22.7805 52.4017 23.0319 53.4117 23.8162C54.2237 24.4468 54.6827 24.5208 55.1375 24.0944C55.6395 23.6235 55.5533 22.9179 54.9224 22.3361C54.2514 21.7175 53.2266 21.1585 52.3149 20.9142C51.3083 20.6444 49.6595 20.6794 48.6906 20.9912ZM6.21799 24.0559C6.05531 24.088 5.74031 24.3055 5.51799 24.5391L5.11367 24.9639V32.5296C5.11367 39.6735 5.12823 40.1168 5.37407 40.4818C5.80079 41.115 6.29793 41.1737 10.8303 41.1259L15.0071 41.0818L15.4153 40.6215L15.8237 40.1612V32.5848C15.8237 25.8082 15.7996 24.9735 15.5954 24.6801C15.1311 24.0128 14.7279 23.9575 10.4732 23.9781C8.29546 23.9887 6.38053 24.0236 6.21799 24.0559ZM18.4892 25.113C18.1308 25.5001 18.1234 26.0827 18.4714 26.5152L18.739 26.848H26.0438H33.3486L33.6161 26.5152C33.9642 26.0827 33.9568 25.5001 33.5984 25.113L33.3129 24.8045H26.0438H18.7747L18.4892 25.113ZM13.7237 32.5581V39.0435L10.4687 39.0056L7.21368 38.9678L7.17714 32.6965C7.15712 29.2473 7.17084 26.346 7.2078 26.249C7.25876 26.1151 8.04892 26.0729 10.4994 26.0729H13.7237V32.5581ZM51.611 28.2556C52.3235 28.7256 52.3639 29.0483 52.3639 34.2683C52.3639 39.0255 52.368 39.095 52.6683 39.4168C53.0986 39.8778 53.7944 39.857 54.1737 39.3716C54.4298 39.0439 54.4639 38.8062 54.4639 37.3508C54.4639 35.7199 54.468 35.6994 54.8205 35.5378C55.3052 35.3154 55.7974 35.3323 56.2886 35.5879C56.9235 35.9184 57.1239 36.459 57.1239 37.8398C57.1239 38.938 57.156 39.0834 57.4676 39.397C57.8487 39.7807 58.0668 39.8181 58.572 39.5865C59.0867 39.3503 59.2239 38.88 59.2239 37.3508C59.2239 36.0144 59.2388 35.9466 59.5929 35.6663C60.1471 35.2273 60.9307 35.2764 61.4967 35.7851C61.951 36.1934 61.9542 36.2056 62.0017 37.6875C62.0466 39.0899 62.0707 39.1957 62.4056 39.4609C62.8731 39.831 63.183 39.8168 63.6611 39.4032C64.0411 39.0745 64.0555 39.0118 64.1013 37.5011C64.1462 36.0219 64.1677 35.9238 64.5052 35.6564C65.0866 35.196 65.8744 35.2759 66.448 35.8533L66.924 36.3325V43.4001C66.924 50.9509 66.9139 51.0684 66.2317 51.4358C65.8485 51.6423 49.9747 51.6349 49.5236 51.4281C49.3402 51.3439 49.0852 51.0963 48.957 50.8777C48.745 50.5167 48.7239 49.521 48.7242 39.9326C48.7243 30.1728 48.7427 29.3478 48.9692 28.8914C49.4288 27.9652 50.705 27.658 51.611 28.2556ZM18.8197 29.2336C18.1454 29.5291 17.9757 30.353 18.4837 30.8644C18.7566 31.1391 18.9504 31.1463 26.0438 31.1463C33.1372 31.1463 33.331 31.1391 33.6038 30.8644C34.1367 30.3281 33.9069 29.4481 33.1659 29.1881C32.4667 28.9427 19.3887 28.9843 18.8197 29.2336ZM18.8078 33.5411C18.1596 33.8082 18.0072 34.7163 18.5277 35.2087L18.8518 35.5151H26.0634H33.275L33.5795 35.189C33.9551 34.7863 33.9695 34.2436 33.6163 33.8043L33.3487 33.4716L26.2312 33.4433C22.2953 33.4278 18.977 33.4715 18.8078 33.5411ZM18.5726 38.0621C18.3051 38.2739 18.2037 38.484 18.2037 38.8269C18.2037 39.1698 18.3051 39.3799 18.5726 39.5917C18.9254 39.8712 19.1087 39.8839 22.779 39.8839H26.6165L26.9601 39.5379C27.1491 39.3476 27.3038 39.0277 27.3038 38.8269C27.3038 38.6261 27.1491 38.3062 26.9601 38.1159L26.6165 37.7699H22.779C19.1087 37.7699 18.9254 37.7826 18.5726 38.0621ZM0.826984 50.2426C0.01932 50.6844 0.00364002 50.8256 0.00364002 57.6409C0.00364002 64.4683 0.00966008 64.5213 0.832444 65.0106C1.20219 65.2305 1.99571 65.2511 10.0752 65.2511C18.0496 65.2511 18.948 65.2284 19.2658 65.0188C19.8662 64.6227 20.0237 64.1226 20.0237 62.6117C20.0237 60.9329 19.864 60.6004 19.0575 60.6004C18.273 60.6004 18.0142 60.9643 17.947 62.1609L17.8921 63.1371H9.99787H2.10365V58.2046C2.10365 55.4917 2.13809 53.2721 2.18037 53.2721C2.22251 53.2721 3.74852 54.4228 5.57147 55.8291C7.39456 57.2355 9.10523 58.4783 9.37319 58.591C9.97519 58.8443 10.6406 58.7483 11.2401 58.322C11.4896 58.1446 13.0797 56.9315 14.7737 55.6265L17.8537 53.2535L17.9237 55.151C18.0049 57.3521 18.1364 57.6409 19.0575 57.6409C19.97 57.6409 20.0237 57.4464 20.0237 54.1498C20.0237 51.884 19.9801 51.2 19.8146 50.8779C19.3571 49.9875 19.8517 50.0302 10.0875 50.0364C2.66855 50.041 1.13289 50.0753 0.826984 50.2426ZM15.6837 52.206C15.6837 52.2907 10.3549 56.3848 10.1333 56.4703C9.99899 56.5223 5.25493 53.0313 4.42066 52.2666C4.34562 52.1978 6.77086 52.1447 9.98569 52.1447C13.1196 52.1447 15.6837 52.1723 15.6837 52.206ZM64.936 53.864C65.1755 54.1051 65.1572 55.8708 64.913 56.0748C64.7753 56.1899 62.7788 56.2241 57.738 56.1976L50.7539 56.1611L50.7123 55.1174C50.6895 54.5433 50.7032 53.9884 50.743 53.8843C50.8431 53.6217 64.6757 53.602 64.936 53.864ZM60.904 66.4467V68.9107L60.4954 69.371L60.0869 69.8312L44.5704 69.8732C30.6074 69.911 29.0112 69.8927 28.6287 69.6912C27.8566 69.284 27.798 69.0661 27.7472 66.4137L27.7007 63.9827H44.3022H60.904V66.4467ZM40.8839 65.9557C40.5273 66.3146 40.5235 67.0022 40.876 67.3571C41.2742 67.7579 41.7818 67.8105 44.7813 67.7616L47.4887 67.7173L47.8263 67.3219C48.2399 66.8373 48.2514 66.5286 47.8737 66.0452L47.5836 65.6738H44.3737C41.3505 65.6738 41.1476 65.6902 40.8839 65.9557Z" fill="url(#paint0_radial_1469_248)" fill-opacity="0.7"/>
<path fill-rule="evenodd" clip-rule="evenodd" d="M27.6191 0.297552C26.9217 0.645082 26.3942 1.23233 25.9867 2.11497C25.7128 2.708 25.6908 3.03467 25.6483 7.15317L25.6026 11.5572H14.0841C5.84531 11.5572 2.42999 11.6029 2.08951 11.7176C1.31475 11.9787 0.748724 12.4934 0.362742 13.2875L0 14.0337L0.0368203 29.6474L0.0736404 45.2609L0.596543 45.7433L1.11959 46.2257H3.8972C6.61965 46.2257 6.68097 46.2192 6.97932 45.8996C7.35494 45.4971 7.36936 44.9543 7.01642 44.5149C6.75784 44.1931 6.67285 44.1808 4.4264 44.1375L2.10365 44.0927V32.6871V21.2813H19.5337H36.9638V32.6944V44.1075L23.8613 44.1449L10.7589 44.1822L10.4912 44.5149C10.1446 44.9459 10.1522 45.3914 10.5139 45.8543L10.804 46.2257H18.2092H25.6144L25.654 57.6761L25.6938 69.1266L26.0877 69.9341C26.3043 70.3782 26.7119 70.9326 26.9933 71.1661C28.0759 72.0644 27.207 72.0241 44.6021 71.9828L60.414 71.9452L61.1495 71.5349C61.9505 71.0882 62.531 70.4238 62.812 69.6325C62.9459 69.2555 62.9932 67.753 62.9978 63.7361L63.004 58.3455H64.0797C65.4268 58.3455 66.2159 58.001 66.7582 57.1761C67.1122 56.6378 67.134 56.5087 67.134 54.9559C67.134 53.3155 67.1358 53.3062 67.5095 53.0905C68.0066 52.8031 68.7096 51.8103 68.8881 51.1431C68.9795 50.8012 69.0173 47.944 68.9926 43.2376C68.9572 36.4755 68.9333 35.8254 68.7026 35.3589C67.8098 33.5542 65.6528 32.7761 63.8651 33.614C63.4532 33.8069 63.0909 33.9649 63.0601 33.9649C63.0292 33.9649 63.004 29.2719 63.004 23.5361C63.004 13.2953 62.9989 13.1023 62.724 12.8256C62.307 12.4059 61.5578 12.4497 61.1942 12.915C60.9068 13.2827 60.904 13.3832 60.904 23.2733V33.2602H60.3616C59.7259 33.2602 58.7149 33.5928 58.3555 33.9203C58.1206 34.1343 58.0526 34.122 57.3685 33.7418C56.7391 33.3919 56.4806 33.3332 55.5625 33.3321L54.4911 33.3307L54.4379 31.0054C54.3899 28.9067 54.353 28.6183 54.0589 28.0459C53.614 27.1799 53.1196 26.6749 52.3097 26.2589C50.762 25.4642 49.0396 25.7411 47.8091 26.9826C46.5683 28.2343 46.6237 27.631 46.6247 39.8648C46.6251 47.2123 46.6736 50.6983 46.7801 51.085C46.9834 51.8218 47.643 52.7734 48.166 53.0844L48.5839 53.3328V54.9392C48.5839 56.7786 48.7771 57.312 49.6658 57.9252L50.1729 58.2751L55.5384 58.3151L60.904 58.3551V60.1125V61.8699L44.3489 61.8341L27.7938 61.7983V54.0472V46.2961L32.8587 46.2257C37.7226 46.158 37.9395 46.1435 38.3188 45.8601C38.536 45.6979 38.789 45.3491 38.881 45.085C39.1107 44.425 39.1376 14.7955 38.9093 13.8827C38.8243 13.5429 38.5345 13.0058 38.2653 12.6891C37.3564 11.6203 37.4389 11.6361 32.3438 11.5572L27.7938 11.4867V7.3151C27.7938 2.74238 27.8141 2.61597 28.6154 2.19022C28.9699 2.00194 29.3848 1.96573 30.7825 2.00096L32.5112 2.0445L33.0225 3.60811C33.6189 5.43215 33.9932 5.98431 35.022 6.55789L35.7738 6.97701H44.3839C52.9472 6.97701 52.997 6.97532 53.5539 6.6719C54.6472 6.07605 55.1172 5.41707 55.7025 3.65856L56.2397 2.0445H58.1636H60.0875L60.4957 2.50478L60.904 2.96505V5.83281C60.904 8.52075 60.9222 8.72396 61.1942 9.07192C61.5615 9.5422 62.307 9.58109 62.7332 9.15211C63.0115 8.87194 63.0208 8.73862 62.9782 5.59365C62.9294 1.98996 62.9068 1.88568 61.973 0.945683C60.9625 -0.0715408 62.3157 0.00103751 44.3627 0.00117843C28.2324 0.00131936 28.2131 0.00160124 27.6191 0.297552ZM53.9805 2.1502C53.4782 3.76947 53.2791 4.24102 52.978 4.52598L52.6215 4.86308L44.6177 4.90324C40.2155 4.92523 36.4866 4.91184 36.331 4.87337C35.8232 4.74794 35.4571 4.26089 35.1372 3.28524C34.9643 2.75789 34.7938 2.24716 34.7584 2.1502C34.7072 2.0104 36.6869 1.97404 44.3646 1.97404C52.0369 1.97404 54.0239 2.0104 53.9805 2.1502ZM36.6271 13.9675C36.8677 14.2347 36.8938 14.5016 36.8938 16.6804V19.0969L19.4987 19.1327L2.10365 19.1685V16.7282C2.10365 14.4672 2.12465 14.2653 2.38911 13.9796L2.67457 13.6711H19.5175H36.3604L36.6271 13.9675ZM4.22802 15.5475C3.82426 15.9802 3.84008 16.5592 4.26736 16.9893C4.5748 17.2989 4.72852 17.3353 5.72953 17.3353C6.69231 17.3353 6.89686 17.2912 7.1987 17.0182C7.70508 16.5602 7.73868 15.9612 7.28368 15.5032C7.04596 15.2639 6.81706 15.2213 5.76803 15.2213C4.65754 15.2213 4.50172 15.2543 4.22802 15.5475ZM25.3438 15.5032C24.9268 15.9229 24.9704 16.6771 25.4327 17.0431C25.8546 17.3773 26.0317 17.399 26.5177 17.176C26.9809 16.9636 27.2192 16.3732 27.0368 15.8901C26.7782 15.2054 25.8503 14.9933 25.3438 15.5032ZM28.994 15.5927C28.4049 16.3465 28.8193 17.2507 29.7538 17.2507C30.6883 17.2507 31.1027 16.3465 30.5136 15.5927C30.3032 15.3234 30.0944 15.2213 29.7538 15.2213C29.4132 15.2213 29.2044 15.3234 28.994 15.5927ZM32.756 15.4812C32.2945 15.8574 32.3239 16.5772 32.8183 17.0052C33.288 17.4119 33.5974 17.4212 34.0749 17.0431C34.3453 16.8292 34.4438 16.622 34.4438 16.268C34.4438 15.3506 33.4721 14.8976 32.756 15.4812ZM48.7939 15.9936C46.9851 16.3317 45.2816 17.1684 43.8226 18.4352C43.2132 18.9644 43.1239 19.1104 43.1239 19.576C43.1239 19.9323 43.2177 20.1957 43.4057 20.3669C43.872 20.7917 44.3937 20.6867 45.2323 19.9991C46.3276 19.101 46.8329 18.8146 48.0939 18.377C49.5803 17.8611 51.5184 17.825 52.9939 18.2858C54.0644 18.6201 55.4142 19.3772 56.0739 20.0133C56.8243 20.7372 57.5855 20.8032 58.0517 20.1853C58.3732 19.7594 58.2648 19.3248 57.6772 18.6831C56.4787 17.3742 54.4998 16.363 52.4236 15.9986C50.9857 15.7462 50.1242 15.745 48.7939 15.9936ZM48.6906 20.9912C47.1895 21.4742 45.7839 22.6111 45.7839 23.3419C45.7839 23.7863 46.3705 24.3817 46.8083 24.3817C46.9936 24.3817 47.3902 24.1851 47.6896 23.945C48.6136 23.2034 49.2798 22.9327 50.3559 22.8619C51.5963 22.7805 52.4017 23.0319 53.4117 23.8162C54.2237 24.4468 54.6827 24.5208 55.1375 24.0944C55.6395 23.6235 55.5533 22.9179 54.9224 22.3361C54.2514 21.7175 53.2266 21.1585 52.3149 20.9142C51.3083 20.6444 49.6595 20.6794 48.6906 20.9912ZM6.21799 24.0559C6.05531 24.088 5.74031 24.3055 5.51799 24.5391L5.11367 24.9639V32.5296C5.11367 39.6735 5.12823 40.1168 5.37407 40.4818C5.80079 41.115 6.29793 41.1737 10.8303 41.1259L15.0071 41.0818L15.4153 40.6215L15.8237 40.1612V32.5848C15.8237 25.8082 15.7996 24.9735 15.5954 24.6801C15.1311 24.0128 14.7279 23.9575 10.4732 23.9781C8.29546 23.9887 6.38053 24.0236 6.21799 24.0559ZM18.4892 25.113C18.1308 25.5001 18.1234 26.0827 18.4714 26.5152L18.739 26.848H26.0438H33.3486L33.6161 26.5152C33.9642 26.0827 33.9568 25.5001 33.5984 25.113L33.3129 24.8045H26.0438H18.7747L18.4892 25.113ZM13.7237 32.5581V39.0435L10.4687 39.0056L7.21368 38.9678L7.17714 32.6965C7.15712 29.2473 7.17084 26.346 7.2078 26.249C7.25876 26.1151 8.04892 26.0729 10.4994 26.0729H13.7237V32.5581ZM51.611 28.2556C52.3235 28.7256 52.3639 29.0483 52.3639 34.2683C52.3639 39.0255 52.368 39.095 52.6683 39.4168C53.0986 39.8778 53.7944 39.857 54.1737 39.3716C54.4298 39.0439 54.4639 38.8062 54.4639 37.3508C54.4639 35.7199 54.468 35.6994 54.8205 35.5378C55.3052 35.3154 55.7974 35.3323 56.2886 35.5879C56.9235 35.9184 57.1239 36.459 57.1239 37.8398C57.1239 38.938 57.156 39.0834 57.4676 39.397C57.8487 39.7807 58.0668 39.8181 58.572 39.5865C59.0867 39.3503 59.2239 38.88 59.2239 37.3508C59.2239 36.0144 59.2388 35.9466 59.5929 35.6663C60.1471 35.2273 60.9307 35.2764 61.4967 35.7851C61.951 36.1934 61.9542 36.2056 62.0017 37.6875C62.0466 39.0899 62.0707 39.1957 62.4056 39.4609C62.8731 39.831 63.183 39.8168 63.6611 39.4032C64.0411 39.0745 64.0555 39.0118 64.1013 37.5011C64.1462 36.0219 64.1677 35.9238 64.5052 35.6564C65.0866 35.196 65.8744 35.2759 66.448 35.8533L66.924 36.3325V43.4001C66.924 50.9509 66.9139 51.0684 66.2317 51.4358C65.8485 51.6423 49.9747 51.6349 49.5236 51.4281C49.3402 51.3439 49.0852 51.0963 48.957 50.8777C48.745 50.5167 48.7239 49.521 48.7242 39.9326C48.7243 30.1728 48.7427 29.3478 48.9692 28.8914C49.4288 27.9652 50.705 27.658 51.611 28.2556ZM18.8197 29.2336C18.1454 29.5291 17.9757 30.353 18.4837 30.8644C18.7566 31.1391 18.9504 31.1463 26.0438 31.1463C33.1372 31.1463 33.331 31.1391 33.6038 30.8644C34.1367 30.3281 33.9069 29.4481 33.1659 29.1881C32.4667 28.9427 19.3887 28.9843 18.8197 29.2336ZM18.8078 33.5411C18.1596 33.8082 18.0072 34.7163 18.5277 35.2087L18.8518 35.5151H26.0634H33.275L33.5795 35.189C33.9551 34.7863 33.9695 34.2436 33.6163 33.8043L33.3487 33.4716L26.2312 33.4433C22.2953 33.4278 18.977 33.4715 18.8078 33.5411ZM18.5726 38.0621C18.3051 38.2739 18.2037 38.484 18.2037 38.8269C18.2037 39.1698 18.3051 39.3799 18.5726 39.5917C18.9254 39.8712 19.1087 39.8839 22.779 39.8839H26.6165L26.9601 39.5379C27.1491 39.3476 27.3038 39.0277 27.3038 38.8269C27.3038 38.6261 27.1491 38.3062 26.9601 38.1159L26.6165 37.7699H22.779C19.1087 37.7699 18.9254 37.7826 18.5726 38.0621ZM0.826984 50.2426C0.01932 50.6844 0.00364002 50.8256 0.00364002 57.6409C0.00364002 64.4683 0.00966008 64.5213 0.832444 65.0106C1.20219 65.2305 1.99571 65.2511 10.0752 65.2511C18.0496 65.2511 18.948 65.2284 19.2658 65.0188C19.8662 64.6227 20.0237 64.1226 20.0237 62.6117C20.0237 60.9329 19.864 60.6004 19.0575 60.6004C18.273 60.6004 18.0142 60.9643 17.947 62.1609L17.8921 63.1371H9.99787H2.10365V58.2046C2.10365 55.4917 2.13809 53.2721 2.18037 53.2721C2.22251 53.2721 3.74852 54.4228 5.57147 55.8291C7.39456 57.2355 9.10523 58.4783 9.37319 58.591C9.97519 58.8443 10.6406 58.7483 11.2401 58.322C11.4896 58.1446 13.0797 56.9315 14.7737 55.6265L17.8537 53.2535L17.9237 55.151C18.0049 57.3521 18.1364 57.6409 19.0575 57.6409C19.97 57.6409 20.0237 57.4464 20.0237 54.1498C20.0237 51.884 19.9801 51.2 19.8146 50.8779C19.3571 49.9875 19.8517 50.0302 10.0875 50.0364C2.66855 50.041 1.13289 50.0753 0.826984 50.2426ZM15.6837 52.206C15.6837 52.2907 10.3549 56.3848 10.1333 56.4703C9.99899 56.5223 5.25493 53.0313 4.42066 52.2666C4.34562 52.1978 6.77086 52.1447 9.98569 52.1447C13.1196 52.1447 15.6837 52.1723 15.6837 52.206ZM64.936 53.864C65.1755 54.1051 65.1572 55.8708 64.913 56.0748C64.7753 56.1899 62.7788 56.2241 57.738 56.1976L50.7539 56.1611L50.7123 55.1174C50.6895 54.5433 50.7032 53.9884 50.743 53.8843C50.8431 53.6217 64.6757 53.602 64.936 53.864ZM60.904 66.4467V68.9107L60.4954 69.371L60.0869 69.8312L44.5704 69.8732C30.6074 69.911 29.0112 69.8927 28.6287 69.6912C27.8566 69.284 27.798 69.0661 27.7472 66.4137L27.7007 63.9827H44.3022H60.904V66.4467ZM40.8839 65.9557C40.5273 66.3146 40.5235 67.0022 40.876 67.3571C41.2742 67.7579 41.7818 67.8105 44.7813 67.7616L47.4887 67.7173L47.8263 67.3219C48.2399 66.8373 48.2514 66.5286 47.8737 66.0452L47.5836 65.6738H44.3737C41.3505 65.6738 41.1476 65.6902 40.8839 65.9557Z" fill="url(#paint1_radial_1469_248)"/>
<defs>
<radialGradient id="paint0_radial_1469_248" cx="0" cy="0" r="1" gradientUnits="userSpaceOnUse" gradientTransform="translate(18.2083 15) rotate(52.2307) scale(59.4573 58.8791)">
<stop stop-color="white" stop-opacity="0.59"/>
<stop offset="0.697917" stop-color="white" stop-opacity="0"/>
<stop offset="1" stop-color="white" stop-opacity="0"/>
</radialGradient>
<radialGradient id="paint1_radial_1469_248" cx="0" cy="0" r="1" gradientUnits="userSpaceOnUse" gradientTransform="translate(59.5479 63) rotate(-93.5179) scale(61.6161 65.8343)">
<stop stop-opacity="0.23"/>
<stop offset="0.861815" stop-opacity="0"/>
</radialGradient>
</defs>
</svg>
