<svg width="72" height="72" viewBox="0 0 72 72" fill="none" xmlns="http://www.w3.org/2000/svg">
<path fill-rule="evenodd" clip-rule="evenodd" d="M33.0376 0.167441C27.0595 1.16047 21.8896 4.96485 19.1633 10.3774C15.5283 17.5932 16.9303 26.3186 22.6549 32.1068C24.0508 33.5181 25.1937 34.3197 25.8088 34.3188C26.8684 34.3173 27.7782 33.0886 27.4194 32.1436C27.34 31.934 26.4232 30.9098 25.3824 29.8675C22.8171 27.2986 21.6446 25.2441 20.9076 22.027C20.4629 20.0858 20.5239 17.0347 21.0474 15.0355C22.4157 9.8095 26.1722 5.79221 31.2438 4.13138C32.8138 3.61718 34.0853 3.42886 36.0059 3.42597C38.5703 3.42211 40.6361 3.90481 42.9051 5.03812C44.4727 5.82114 45.2895 6.40458 46.653 7.71561C48.9843 9.95701 50.4041 12.5212 51.1075 15.7603C51.4998 17.5674 51.4292 20.5715 50.9501 22.4478C49.8148 26.8948 47.1117 30.3388 43.0643 32.495C41.5087 33.3236 41.219 33.6482 41.2239 34.5561C41.2292 35.5041 41.946 36.2478 42.8544 36.2475C43.9044 36.2471 46.937 34.3564 48.9062 32.4744C51.7456 29.7606 53.4407 26.8026 54.3866 22.9108C54.8608 20.9591 54.9098 16.9492 54.4823 15.0633C53.6328 11.3151 52.1366 8.49911 49.5773 5.83174C46.8357 2.97428 43.8036 1.23648 40.0973 0.398184C38.2579 -0.0178288 34.8277 -0.129987 33.0376 0.167441ZM34.7902 7.15129C34.3557 7.58642 34.3212 7.70902 34.3212 8.81936V10.0176L32.8371 10.0846C30.444 10.1926 28.9353 11.091 27.9511 12.9938C27.5814 13.7085 27.5168 14.0334 27.5126 15.1979C27.507 16.8065 27.8823 17.7552 28.9465 18.8217C29.9968 19.8742 30.9285 20.2384 32.7621 20.3135L34.3316 20.3776L34.2864 22.0861C34.2344 24.0402 34.2681 24.0057 32.6196 23.7994C31.5753 23.6687 31.0232 23.1712 30.8652 22.2185C30.8037 21.848 30.6571 21.3563 30.5393 21.1257C30.0849 20.2362 28.6338 20.1227 27.8889 20.9184C27.3318 21.5136 27.3571 23.1359 27.9413 24.2766C28.9162 26.1804 30.4682 27.1138 32.8371 27.2207L34.3212 27.2877V28.4859C34.3212 29.5962 34.3557 29.7188 34.7902 30.154C35.1576 30.5219 35.4031 30.6237 35.9239 30.6237C37.2038 30.6237 37.6906 29.9891 37.6906 28.3209V27.2877L39.1747 27.2184C40.9271 27.1366 41.8049 26.8016 42.8899 25.8001C43.2918 25.429 43.8197 24.718 44.0629 24.2199C44.9691 22.3649 44.5189 19.9208 42.999 18.4434C41.9423 17.4163 41.0706 17.08 39.2549 16.9984L37.6906 16.928V15.1611V13.3941L38.8086 13.4574C40.1944 13.5358 40.7325 13.8837 41.0256 14.8908C41.1391 15.2807 41.2849 15.7804 41.3497 16.0013C41.416 16.2277 41.7215 16.5399 42.0491 16.7167C42.8605 17.1542 43.712 16.9384 44.2381 16.162C44.5662 15.678 44.6055 15.4781 44.5197 14.7285C44.3167 12.9533 43.2008 11.3852 41.5731 10.5875C40.8434 10.23 40.3994 10.1363 39.1837 10.083L37.6906 10.0176V8.98438C37.6906 7.31615 37.2038 6.68161 35.9239 6.68161C35.4031 6.68161 35.1576 6.78332 34.7902 7.15129ZM34.2865 15.2381L34.3321 16.9654H33.2757C31.9899 16.9654 31.3298 16.6593 31.0214 15.9203C30.7362 15.2365 30.8724 14.5177 31.3848 14.0047C31.8461 13.5427 32.164 13.4596 33.3585 13.489L34.241 13.5107L34.2865 15.2381ZM40.0628 20.5126C40.7118 20.7391 41.06 21.2981 41.06 22.1141C41.06 23.2974 39.8646 24.0333 38.2427 23.8484L37.7708 23.7945L37.7252 22.0672L37.6797 20.3398H38.6239C39.1431 20.3398 39.7907 20.4176 40.0628 20.5126ZM61.4368 31.0271C59.1278 31.6641 58.9864 31.7807 51.5506 39.1841C44.4387 46.2652 44.4323 46.2703 44.4276 45.1123C44.4225 43.8229 43.2817 41.5308 42.0101 40.2543C40.8687 39.1086 39.654 38.4153 38.0826 38.0127C36.9055 37.7113 36.2871 37.6938 26.8379 37.6938H16.839L16.5022 37.0329C16.001 36.049 14.8695 35.0312 13.8534 34.6506C13.0398 34.3458 12.6202 34.3194 8.56942 34.3194C4.50818 34.3194 4.10048 34.3451 3.27883 34.653C2.19678 35.0584 1.01573 36.1645 0.46106 37.2921L0.0657181 38.0955L0.0206328 47.4904C-0.0125798 54.3981 0.0252856 57.0055 0.163591 57.3399C0.573213 58.3302 2.09586 58.583 2.8859 57.7918L3.35489 57.3221L3.35585 48.4319C3.35633 42.6875 3.41666 39.3255 3.52608 38.9307C3.63984 38.5202 3.86334 38.2173 4.20702 38.0074C4.67585 37.7211 5.03814 37.6949 8.53733 37.6944C12.5836 37.6938 13.0762 37.7732 13.4582 38.4884C13.5681 38.6937 13.6235 43.6296 13.6235 53.2016V67.6059L13.1545 68.0756L12.6855 68.5453H8.61739C5.11627 68.5453 4.49743 68.5088 4.17589 68.2832C3.52191 67.8244 3.35489 67.1245 3.35489 64.8423V62.7359L2.8859 62.2662C2.51109 61.8908 2.27652 61.7965 1.71816 61.7965C0.19921 61.7965 -0.0621582 62.3912 0.0110057 65.6814C0.0623488 67.9892 0.093636 68.2004 0.510157 69.0501C1.02888 70.1078 2.10372 71.1611 3.1662 71.6528C3.88051 71.9833 4.13931 72 8.56942 72C12.9995 72 13.2583 71.9833 13.9726 71.6528C14.9692 71.1916 16.0382 70.1831 16.4891 69.2791L16.8549 68.5453H30.5329C45.5751 68.5453 44.8218 68.5912 46.9163 67.5473C47.7453 67.1341 49.4279 65.5188 59.0418 55.9066C66.3335 48.6162 70.382 44.4525 70.7162 43.9004C73.565 39.193 71.4851 33.2059 66.3304 31.2751C65.0661 30.8015 62.6908 30.6812 61.4368 31.0271ZM65.6517 34.6768C67.458 35.4503 68.8303 37.8784 68.5948 39.8847C68.3783 41.7292 68.5832 41.4962 56.8003 53.2985C48.0391 62.0742 45.6295 64.402 44.9909 64.7072L44.1887 65.0906L30.671 65.1343L17.1533 65.178V53.1142V41.0503L27.1412 41.0995L37.129 41.1485L38.0189 41.5665C39.1956 42.1192 39.9314 42.7883 40.5071 43.8289C40.9419 44.6153 40.9797 44.812 40.9797 46.2904C40.9797 47.6505 40.9241 48.0014 40.6178 48.5757C39.7772 50.151 38.5095 51.0514 36.7231 51.3416C36.1521 51.4344 34.0585 51.5108 32.0706 51.5114C28.1116 51.5128 27.9684 51.5434 27.5861 52.4678C27.3172 53.1179 27.4916 53.9421 27.9989 54.4195L28.4105 54.8067H34.5718H40.733L50.4832 45.0655C56.5102 39.0442 60.518 35.1611 60.979 34.8966C62.3624 34.1031 64.119 34.0205 65.6517 34.6768Z" fill="#0066FF"/>
<path fill-rule="evenodd" clip-rule="evenodd" d="M33.0376 0.167441C27.0595 1.16047 21.8896 4.96485 19.1633 10.3774C15.5283 17.5932 16.9303 26.3186 22.6549 32.1068C24.0508 33.5181 25.1937 34.3197 25.8088 34.3188C26.8684 34.3173 27.7782 33.0886 27.4194 32.1436C27.34 31.934 26.4232 30.9098 25.3824 29.8675C22.8171 27.2986 21.6446 25.2441 20.9076 22.027C20.4629 20.0858 20.5239 17.0347 21.0474 15.0355C22.4157 9.8095 26.1722 5.79221 31.2438 4.13138C32.8138 3.61718 34.0853 3.42886 36.0059 3.42597C38.5703 3.42211 40.6361 3.90481 42.9051 5.03812C44.4727 5.82114 45.2895 6.40458 46.653 7.71561C48.9843 9.95701 50.4041 12.5212 51.1075 15.7603C51.4998 17.5674 51.4292 20.5715 50.9501 22.4478C49.8148 26.8948 47.1117 30.3388 43.0643 32.495C41.5087 33.3236 41.219 33.6482 41.2239 34.5561C41.2292 35.5041 41.946 36.2478 42.8544 36.2475C43.9044 36.2471 46.937 34.3564 48.9062 32.4744C51.7456 29.7606 53.4407 26.8026 54.3866 22.9108C54.8608 20.9591 54.9098 16.9492 54.4823 15.0633C53.6328 11.3151 52.1366 8.49911 49.5773 5.83174C46.8357 2.97428 43.8036 1.23648 40.0973 0.398184C38.2579 -0.0178288 34.8277 -0.129987 33.0376 0.167441ZM34.7902 7.15129C34.3557 7.58642 34.3212 7.70902 34.3212 8.81936V10.0176L32.8371 10.0846C30.444 10.1926 28.9353 11.091 27.9511 12.9938C27.5814 13.7085 27.5168 14.0334 27.5126 15.1979C27.507 16.8065 27.8823 17.7552 28.9465 18.8217C29.9968 19.8742 30.9285 20.2384 32.7621 20.3135L34.3316 20.3776L34.2864 22.0861C34.2344 24.0402 34.2681 24.0057 32.6196 23.7994C31.5753 23.6687 31.0232 23.1712 30.8652 22.2185C30.8037 21.848 30.6571 21.3563 30.5393 21.1257C30.0849 20.2362 28.6338 20.1227 27.8889 20.9184C27.3318 21.5136 27.3571 23.1359 27.9413 24.2766C28.9162 26.1804 30.4682 27.1138 32.8371 27.2207L34.3212 27.2877V28.4859C34.3212 29.5962 34.3557 29.7188 34.7902 30.154C35.1576 30.5219 35.4031 30.6237 35.9239 30.6237C37.2038 30.6237 37.6906 29.9891 37.6906 28.3209V27.2877L39.1747 27.2184C40.9271 27.1366 41.8049 26.8016 42.8899 25.8001C43.2918 25.429 43.8197 24.718 44.0629 24.2199C44.9691 22.3649 44.5189 19.9208 42.999 18.4434C41.9423 17.4163 41.0706 17.08 39.2549 16.9984L37.6906 16.928V15.1611V13.3941L38.8086 13.4574C40.1944 13.5358 40.7325 13.8837 41.0256 14.8908C41.1391 15.2807 41.2849 15.7804 41.3497 16.0013C41.416 16.2277 41.7215 16.5399 42.0491 16.7167C42.8605 17.1542 43.712 16.9384 44.2381 16.162C44.5662 15.678 44.6055 15.4781 44.5197 14.7285C44.3167 12.9533 43.2008 11.3852 41.5731 10.5875C40.8434 10.23 40.3994 10.1363 39.1837 10.083L37.6906 10.0176V8.98438C37.6906 7.31615 37.2038 6.68161 35.9239 6.68161C35.4031 6.68161 35.1576 6.78332 34.7902 7.15129ZM34.2865 15.2381L34.3321 16.9654H33.2757C31.9899 16.9654 31.3298 16.6593 31.0214 15.9203C30.7362 15.2365 30.8724 14.5177 31.3848 14.0047C31.8461 13.5427 32.164 13.4596 33.3585 13.489L34.241 13.5107L34.2865 15.2381ZM40.0628 20.5126C40.7118 20.7391 41.06 21.2981 41.06 22.1141C41.06 23.2974 39.8646 24.0333 38.2427 23.8484L37.7708 23.7945L37.7252 22.0672L37.6797 20.3398H38.6239C39.1431 20.3398 39.7907 20.4176 40.0628 20.5126ZM61.4368 31.0271C59.1278 31.6641 58.9864 31.7807 51.5506 39.1841C44.4387 46.2652 44.4323 46.2703 44.4276 45.1123C44.4225 43.8229 43.2817 41.5308 42.0101 40.2543C40.8687 39.1086 39.654 38.4153 38.0826 38.0127C36.9055 37.7113 36.2871 37.6938 26.8379 37.6938H16.839L16.5022 37.0329C16.001 36.049 14.8695 35.0312 13.8534 34.6506C13.0398 34.3458 12.6202 34.3194 8.56942 34.3194C4.50818 34.3194 4.10048 34.3451 3.27883 34.653C2.19678 35.0584 1.01573 36.1645 0.46106 37.2921L0.0657181 38.0955L0.0206328 47.4904C-0.0125798 54.3981 0.0252856 57.0055 0.163591 57.3399C0.573213 58.3302 2.09586 58.583 2.8859 57.7918L3.35489 57.3221L3.35585 48.4319C3.35633 42.6875 3.41666 39.3255 3.52608 38.9307C3.63984 38.5202 3.86334 38.2173 4.20702 38.0074C4.67585 37.7211 5.03814 37.6949 8.53733 37.6944C12.5836 37.6938 13.0762 37.7732 13.4582 38.4884C13.5681 38.6937 13.6235 43.6296 13.6235 53.2016V67.6059L13.1545 68.0756L12.6855 68.5453H8.61739C5.11627 68.5453 4.49743 68.5088 4.17589 68.2832C3.52191 67.8244 3.35489 67.1245 3.35489 64.8423V62.7359L2.8859 62.2662C2.51109 61.8908 2.27652 61.7965 1.71816 61.7965C0.19921 61.7965 -0.0621582 62.3912 0.0110057 65.6814C0.0623488 67.9892 0.093636 68.2004 0.510157 69.0501C1.02888 70.1078 2.10372 71.1611 3.1662 71.6528C3.88051 71.9833 4.13931 72 8.56942 72C12.9995 72 13.2583 71.9833 13.9726 71.6528C14.9692 71.1916 16.0382 70.1831 16.4891 69.2791L16.8549 68.5453H30.5329C45.5751 68.5453 44.8218 68.5912 46.9163 67.5473C47.7453 67.1341 49.4279 65.5188 59.0418 55.9066C66.3335 48.6162 70.382 44.4525 70.7162 43.9004C73.565 39.193 71.4851 33.2059 66.3304 31.2751C65.0661 30.8015 62.6908 30.6812 61.4368 31.0271ZM65.6517 34.6768C67.458 35.4503 68.8303 37.8784 68.5948 39.8847C68.3783 41.7292 68.5832 41.4962 56.8003 53.2985C48.0391 62.0742 45.6295 64.402 44.9909 64.7072L44.1887 65.0906L30.671 65.1343L17.1533 65.178V53.1142V41.0503L27.1412 41.0995L37.129 41.1485L38.0189 41.5665C39.1956 42.1192 39.9314 42.7883 40.5071 43.8289C40.9419 44.6153 40.9797 44.812 40.9797 46.2904C40.9797 47.6505 40.9241 48.0014 40.6178 48.5757C39.7772 50.151 38.5095 51.0514 36.7231 51.3416C36.1521 51.4344 34.0585 51.5108 32.0706 51.5114C28.1116 51.5128 27.9684 51.5434 27.5861 52.4678C27.3172 53.1179 27.4916 53.9421 27.9989 54.4195L28.4105 54.8067H34.5718H40.733L50.4832 45.0655C56.5102 39.0442 60.518 35.1611 60.979 34.8966C62.3624 34.1031 64.119 34.0205 65.6517 34.6768Z" fill="url(#paint0_radial_1469_194)" fill-opacity="0.7"/>
<path fill-rule="evenodd" clip-rule="evenodd" d="M33.0376 0.167441C27.0595 1.16047 21.8896 4.96485 19.1633 10.3774C15.5283 17.5932 16.9303 26.3186 22.6549 32.1068C24.0508 33.5181 25.1937 34.3197 25.8088 34.3188C26.8684 34.3173 27.7782 33.0886 27.4194 32.1436C27.34 31.934 26.4232 30.9098 25.3824 29.8675C22.8171 27.2986 21.6446 25.2441 20.9076 22.027C20.4629 20.0858 20.5239 17.0347 21.0474 15.0355C22.4157 9.8095 26.1722 5.79221 31.2438 4.13138C32.8138 3.61718 34.0853 3.42886 36.0059 3.42597C38.5703 3.42211 40.6361 3.90481 42.9051 5.03812C44.4727 5.82114 45.2895 6.40458 46.653 7.71561C48.9843 9.95701 50.4041 12.5212 51.1075 15.7603C51.4998 17.5674 51.4292 20.5715 50.9501 22.4478C49.8148 26.8948 47.1117 30.3388 43.0643 32.495C41.5087 33.3236 41.219 33.6482 41.2239 34.5561C41.2292 35.5041 41.946 36.2478 42.8544 36.2475C43.9044 36.2471 46.937 34.3564 48.9062 32.4744C51.7456 29.7606 53.4407 26.8026 54.3866 22.9108C54.8608 20.9591 54.9098 16.9492 54.4823 15.0633C53.6328 11.3151 52.1366 8.49911 49.5773 5.83174C46.8357 2.97428 43.8036 1.23648 40.0973 0.398184C38.2579 -0.0178288 34.8277 -0.129987 33.0376 0.167441ZM34.7902 7.15129C34.3557 7.58642 34.3212 7.70902 34.3212 8.81936V10.0176L32.8371 10.0846C30.444 10.1926 28.9353 11.091 27.9511 12.9938C27.5814 13.7085 27.5168 14.0334 27.5126 15.1979C27.507 16.8065 27.8823 17.7552 28.9465 18.8217C29.9968 19.8742 30.9285 20.2384 32.7621 20.3135L34.3316 20.3776L34.2864 22.0861C34.2344 24.0402 34.2681 24.0057 32.6196 23.7994C31.5753 23.6687 31.0232 23.1712 30.8652 22.2185C30.8037 21.848 30.6571 21.3563 30.5393 21.1257C30.0849 20.2362 28.6338 20.1227 27.8889 20.9184C27.3318 21.5136 27.3571 23.1359 27.9413 24.2766C28.9162 26.1804 30.4682 27.1138 32.8371 27.2207L34.3212 27.2877V28.4859C34.3212 29.5962 34.3557 29.7188 34.7902 30.154C35.1576 30.5219 35.4031 30.6237 35.9239 30.6237C37.2038 30.6237 37.6906 29.9891 37.6906 28.3209V27.2877L39.1747 27.2184C40.9271 27.1366 41.8049 26.8016 42.8899 25.8001C43.2918 25.429 43.8197 24.718 44.0629 24.2199C44.9691 22.3649 44.5189 19.9208 42.999 18.4434C41.9423 17.4163 41.0706 17.08 39.2549 16.9984L37.6906 16.928V15.1611V13.3941L38.8086 13.4574C40.1944 13.5358 40.7325 13.8837 41.0256 14.8908C41.1391 15.2807 41.2849 15.7804 41.3497 16.0013C41.416 16.2277 41.7215 16.5399 42.0491 16.7167C42.8605 17.1542 43.712 16.9384 44.2381 16.162C44.5662 15.678 44.6055 15.4781 44.5197 14.7285C44.3167 12.9533 43.2008 11.3852 41.5731 10.5875C40.8434 10.23 40.3994 10.1363 39.1837 10.083L37.6906 10.0176V8.98438C37.6906 7.31615 37.2038 6.68161 35.9239 6.68161C35.4031 6.68161 35.1576 6.78332 34.7902 7.15129ZM34.2865 15.2381L34.3321 16.9654H33.2757C31.9899 16.9654 31.3298 16.6593 31.0214 15.9203C30.7362 15.2365 30.8724 14.5177 31.3848 14.0047C31.8461 13.5427 32.164 13.4596 33.3585 13.489L34.241 13.5107L34.2865 15.2381ZM40.0628 20.5126C40.7118 20.7391 41.06 21.2981 41.06 22.1141C41.06 23.2974 39.8646 24.0333 38.2427 23.8484L37.7708 23.7945L37.7252 22.0672L37.6797 20.3398H38.6239C39.1431 20.3398 39.7907 20.4176 40.0628 20.5126ZM61.4368 31.0271C59.1278 31.6641 58.9864 31.7807 51.5506 39.1841C44.4387 46.2652 44.4323 46.2703 44.4276 45.1123C44.4225 43.8229 43.2817 41.5308 42.0101 40.2543C40.8687 39.1086 39.654 38.4153 38.0826 38.0127C36.9055 37.7113 36.2871 37.6938 26.8379 37.6938H16.839L16.5022 37.0329C16.001 36.049 14.8695 35.0312 13.8534 34.6506C13.0398 34.3458 12.6202 34.3194 8.56942 34.3194C4.50818 34.3194 4.10048 34.3451 3.27883 34.653C2.19678 35.0584 1.01573 36.1645 0.46106 37.2921L0.0657181 38.0955L0.0206328 47.4904C-0.0125798 54.3981 0.0252856 57.0055 0.163591 57.3399C0.573213 58.3302 2.09586 58.583 2.8859 57.7918L3.35489 57.3221L3.35585 48.4319C3.35633 42.6875 3.41666 39.3255 3.52608 38.9307C3.63984 38.5202 3.86334 38.2173 4.20702 38.0074C4.67585 37.7211 5.03814 37.6949 8.53733 37.6944C12.5836 37.6938 13.0762 37.7732 13.4582 38.4884C13.5681 38.6937 13.6235 43.6296 13.6235 53.2016V67.6059L13.1545 68.0756L12.6855 68.5453H8.61739C5.11627 68.5453 4.49743 68.5088 4.17589 68.2832C3.52191 67.8244 3.35489 67.1245 3.35489 64.8423V62.7359L2.8859 62.2662C2.51109 61.8908 2.27652 61.7965 1.71816 61.7965C0.19921 61.7965 -0.0621582 62.3912 0.0110057 65.6814C0.0623488 67.9892 0.093636 68.2004 0.510157 69.0501C1.02888 70.1078 2.10372 71.1611 3.1662 71.6528C3.88051 71.9833 4.13931 72 8.56942 72C12.9995 72 13.2583 71.9833 13.9726 71.6528C14.9692 71.1916 16.0382 70.1831 16.4891 69.2791L16.8549 68.5453H30.5329C45.5751 68.5453 44.8218 68.5912 46.9163 67.5473C47.7453 67.1341 49.4279 65.5188 59.0418 55.9066C66.3335 48.6162 70.382 44.4525 70.7162 43.9004C73.565 39.193 71.4851 33.2059 66.3304 31.2751C65.0661 30.8015 62.6908 30.6812 61.4368 31.0271ZM65.6517 34.6768C67.458 35.4503 68.8303 37.8784 68.5948 39.8847C68.3783 41.7292 68.5832 41.4962 56.8003 53.2985C48.0391 62.0742 45.6295 64.402 44.9909 64.7072L44.1887 65.0906L30.671 65.1343L17.1533 65.178V53.1142V41.0503L27.1412 41.0995L37.129 41.1485L38.0189 41.5665C39.1956 42.1192 39.9314 42.7883 40.5071 43.8289C40.9419 44.6153 40.9797 44.812 40.9797 46.2904C40.9797 47.6505 40.9241 48.0014 40.6178 48.5757C39.7772 50.151 38.5095 51.0514 36.7231 51.3416C36.1521 51.4344 34.0585 51.5108 32.0706 51.5114C28.1116 51.5128 27.9684 51.5434 27.5861 52.4678C27.3172 53.1179 27.4916 53.9421 27.9989 54.4195L28.4105 54.8067H34.5718H40.733L50.4832 45.0655C56.5102 39.0442 60.518 35.1611 60.979 34.8966C62.3624 34.1031 64.119 34.0205 65.6517 34.6768Z" fill="url(#paint1_radial_1469_194)"/>
<defs>
<radialGradient id="paint0_radial_1469_194" cx="0" cy="0" r="1" gradientUnits="userSpaceOnUse" gradientTransform="translate(19 15) rotate(51.0441) scale(60.4401 60.4401)">
<stop stop-color="white" stop-opacity="0.59"/>
<stop offset="0.697917" stop-color="white" stop-opacity="0"/>
<stop offset="1" stop-color="white" stop-opacity="0"/>
</radialGradient>
<radialGradient id="paint1_radial_1469_194" cx="0" cy="0" r="1" gradientUnits="userSpaceOnUse" gradientTransform="translate(62.137 63) rotate(-93.6705) scale(61.6264 68.6852)">
<stop stop-opacity="0.23"/>
<stop offset="0.861815" stop-opacity="0"/>
</radialGradient>
</defs>
</svg>
