<svg width="19" height="21" viewBox="0 0 19 21" fill="none" xmlns="http://www.w3.org/2000/svg">
<path d="M4.225 20.1L4.45 19.85L4.65 19.725L4.875 19.85C5.2 19.6 5.475 19.325 5.7 19.05C5.925 18.775 6.35 18.05 7.025 16.925L8.575 14.3C9.4 12.9 13.725 7.025 14.7 5.925C16.95 3.35 17.7 2.575 18 2.175C18.275 1.825 18.45 1.55 18.45 1.35C18.45 1.225 18.375 1.025 18.25 1.025C18.125 1.025 17.925 1.125 17.675 1.3L17.875 0.85L17.025 1.35L17.075 0.999999C17.025 1.15 16.625 1.55 16.525 1.55C16.45 1.55 16.425 1.475 16.425 1.35V1.25L15.725 1.6C15.675 1.6 15.625 1.575 15.625 1.5C15.625 1.425 15.675 1.25 15.725 0.999999C15.375 1.375 14.875 1.8 14.225 2.25C13.35 2.85 9.95 7.125 8.575 9.35C7.65 10.825 7.275 11.7 7.125 11.7C7.075 11.7 7.05 11.6 7.025 11.4C6.575 12.425 6.175 13.275 5.775 13.9C5.375 14.525 5 14.85 4.725 14.85C4.4 14.85 4.125 14.225 3.825 12.95C3.7 12.4 3.425 12.05 3.025 11.85L2.95 11.825C2.875 11.825 2.775 11.875 2.65 11.95C2.525 12.025 2.45 12.1 2.4 12.1H2.375L1.925 11.95L1.525 12.55C1.475 12.625 1.375 12.65 1.3 12.65C1.175 12.65 1.075 12.625 1.025 12.55C0.925 12.9 0.8 13.075 0.7 13.075C0.625 13.075 0.475 13.025 0.275 12.9C0.45 14.225 0.6 15.1 0.75 15.525C1.05 16.35 1.725 18.225 2.375 19.475C2.45 19.625 2.55 19.8 2.625 19.95C2.875 19.8 2.95 19.775 3.125 19.775L3.325 19.8C3.45 19.85 3.525 19.925 3.525 20.05L4.1 19.775C4.2 19.775 4.225 19.875 4.225 20.1Z" fill="#5CD000"/>
</svg>
