<svg width="32" height="49" viewBox="0 0 32 49" fill="none" xmlns="http://www.w3.org/2000/svg">
<path d="M14.7893 0.519559L14.7892 0.519562C10.9264 0.90435 7.7011 2.42359 5.05318 5.0975C2.64828 7.52601 1.20287 10.4485 0.632921 14.064C0.615975 14.1715 0.595801 14.5439 0.577996 15.1689C0.56073 15.775 0.546289 16.5804 0.534717 17.52C0.51158 19.3988 0.5 21.8072 0.5 24.2166C0.5 26.626 0.51158 29.0345 0.534717 30.9132C0.546289 31.8529 0.56073 32.6582 0.577996 33.2643C0.595801 33.8893 0.615975 34.2618 0.632922 34.3693C1.20287 37.9847 2.64828 40.9072 5.05318 43.3357C7.44979 45.7559 10.2249 47.1827 13.7466 47.7953L13.6609 48.2879L13.7466 47.7953C14.0929 47.8555 15.0915 47.9103 16.0061 47.9103C17.6717 47.9103 18.3377 47.8301 19.8363 47.4535C25.3611 46.0648 29.7047 41.6078 31.0779 35.8933L31.0838 35.8689C31.4944 34.1604 31.5 34.137 31.5 24.2166C31.5 14.2962 31.4944 14.2728 31.0838 12.5643L31.0779 12.5399C30.3793 9.63258 29.0203 7.17916 26.9589 5.0975C24.6011 2.71662 21.8684 1.29052 18.4976 0.686404L14.7893 0.519559ZM14.7893 0.519559C15.0986 0.488719 15.8368 0.495685 16.6207 0.530795M14.7893 0.519559L16.6207 0.530795M16.6207 0.530795C17.4022 0.565793 18.1575 0.625491 18.4975 0.686397L16.6207 0.530795ZM30.6739 15.0344L30.6739 15.0343C30.3889 11.5822 29.0286 8.45187 26.7364 5.99302C24.3349 3.41687 21.3537 1.87735 17.8571 1.40719L17.7906 1.90171L17.8571 1.40719C12.4164 0.675678 6.88156 3.20786 3.83348 7.81745L3.83348 7.81745C2.34805 10.0639 1.56041 12.3423 1.33823 15.0343L1.33823 15.0344C1.28006 15.7394 1.2526 20.002 1.2526 24.2166C1.2526 28.4312 1.28006 32.6938 1.33823 33.3989L1.83643 33.3578L1.33823 33.3989C1.62431 36.8649 2.98299 39.9808 5.29772 42.4639C8.98429 46.4186 14.4531 48.0291 19.6559 46.6877C25.7591 45.1141 30.1445 39.8122 30.6739 33.3989L30.1756 33.3578L30.6739 33.3989C30.732 32.6938 30.7595 28.4312 30.7595 24.2166C30.7595 20.002 30.732 15.7394 30.6739 15.0344ZM15.6618 10.2591V6.08773L15.7742 5.99225C15.7742 5.99224 15.7742 5.99224 15.7742 5.99223C15.8143 5.9582 15.8733 5.92133 15.9347 5.8942C15.9643 5.88115 15.9887 5.87291 16.0057 5.86843C16.0058 5.8684 16.0059 5.86838 16.0061 5.86835C16.0062 5.86838 16.0063 5.8684 16.0064 5.86843C16.0234 5.87291 16.0478 5.88115 16.0774 5.8942C16.1388 5.92133 16.1979 5.95821 16.2379 5.99225L16.3503 6.08773V10.2591C16.3503 11.7445 16.3421 12.8562 16.3254 13.6112C16.3171 13.9895 16.3067 14.2732 16.2946 14.4676C16.2905 14.5344 16.2863 14.5874 16.2824 14.6282C16.2807 14.6295 16.279 14.6309 16.2772 14.6322C16.2305 14.6684 16.1761 14.7004 16.1326 14.7188C16.0564 14.7509 16.02 14.7623 16.0061 14.7661C15.9921 14.7623 15.9557 14.7509 15.8795 14.7188C15.8361 14.7004 15.7816 14.6684 15.7349 14.6322C15.7331 14.6309 15.7314 14.6295 15.7297 14.6282C15.7258 14.5874 15.7216 14.5344 15.7175 14.4676C15.7054 14.2732 15.695 13.9895 15.6867 13.6112C15.67 12.8562 15.6618 11.7445 15.6618 10.2591ZM15.685 14.5876C15.6851 14.5877 15.6855 14.5882 15.6863 14.5892C15.6853 14.5881 15.6849 14.5876 15.685 14.5876Z" stroke="#0066FF"/>
<path d="M14.7893 0.519559L14.7892 0.519562C10.9264 0.90435 7.7011 2.42359 5.05318 5.0975C2.64828 7.52601 1.20287 10.4485 0.632921 14.064C0.615975 14.1715 0.595801 14.5439 0.577996 15.1689C0.56073 15.775 0.546289 16.5804 0.534717 17.52C0.51158 19.3988 0.5 21.8072 0.5 24.2166C0.5 26.626 0.51158 29.0345 0.534717 30.9132C0.546289 31.8529 0.56073 32.6582 0.577996 33.2643C0.595801 33.8893 0.615975 34.2618 0.632922 34.3693C1.20287 37.9847 2.64828 40.9072 5.05318 43.3357C7.44979 45.7559 10.2249 47.1827 13.7466 47.7953L13.6609 48.2879L13.7466 47.7953C14.0929 47.8555 15.0915 47.9103 16.0061 47.9103C17.6717 47.9103 18.3377 47.8301 19.8363 47.4535C25.3611 46.0648 29.7047 41.6078 31.0779 35.8933L31.0838 35.8689C31.4944 34.1604 31.5 34.137 31.5 24.2166C31.5 14.2962 31.4944 14.2728 31.0838 12.5643L31.0779 12.5399C30.3793 9.63258 29.0203 7.17916 26.9589 5.0975C24.6011 2.71662 21.8684 1.29052 18.4976 0.686404L14.7893 0.519559ZM14.7893 0.519559C15.0986 0.488719 15.8368 0.495685 16.6207 0.530795M14.7893 0.519559L16.6207 0.530795M16.6207 0.530795C17.4022 0.565793 18.1575 0.625491 18.4975 0.686397L16.6207 0.530795ZM30.6739 15.0344L30.6739 15.0343C30.3889 11.5822 29.0286 8.45187 26.7364 5.99302C24.3349 3.41687 21.3537 1.87735 17.8571 1.40719L17.7906 1.90171L17.8571 1.40719C12.4164 0.675678 6.88156 3.20786 3.83348 7.81745L3.83348 7.81745C2.34805 10.0639 1.56041 12.3423 1.33823 15.0343L1.33823 15.0344C1.28006 15.7394 1.2526 20.002 1.2526 24.2166C1.2526 28.4312 1.28006 32.6938 1.33823 33.3989L1.83643 33.3578L1.33823 33.3989C1.62431 36.8649 2.98299 39.9808 5.29772 42.4639C8.98429 46.4186 14.4531 48.0291 19.6559 46.6877C25.7591 45.1141 30.1445 39.8122 30.6739 33.3989L30.1756 33.3578L30.6739 33.3989C30.732 32.6938 30.7595 28.4312 30.7595 24.2166C30.7595 20.002 30.732 15.7394 30.6739 15.0344ZM15.6618 10.2591V6.08773L15.7742 5.99225C15.7742 5.99224 15.7742 5.99224 15.7742 5.99223C15.8143 5.9582 15.8733 5.92133 15.9347 5.8942C15.9643 5.88115 15.9887 5.87291 16.0057 5.86843C16.0058 5.8684 16.0059 5.86838 16.0061 5.86835C16.0062 5.86838 16.0063 5.8684 16.0064 5.86843C16.0234 5.87291 16.0478 5.88115 16.0774 5.8942C16.1388 5.92133 16.1979 5.95821 16.2379 5.99225L16.3503 6.08773V10.2591C16.3503 11.7445 16.3421 12.8562 16.3254 13.6112C16.3171 13.9895 16.3067 14.2732 16.2946 14.4676C16.2905 14.5344 16.2863 14.5874 16.2824 14.6282C16.2807 14.6295 16.279 14.6309 16.2772 14.6322C16.2305 14.6684 16.1761 14.7004 16.1326 14.7188C16.0564 14.7509 16.02 14.7623 16.0061 14.7661C15.9921 14.7623 15.9557 14.7509 15.8795 14.7188C15.8361 14.7004 15.7816 14.6684 15.7349 14.6322C15.7331 14.6309 15.7314 14.6295 15.7297 14.6282C15.7258 14.5874 15.7216 14.5344 15.7175 14.4676C15.7054 14.2732 15.695 13.9895 15.6867 13.6112C15.67 12.8562 15.6618 11.7445 15.6618 10.2591ZM15.685 14.5876C15.6851 14.5877 15.6855 14.5882 15.6863 14.5892C15.6853 14.5881 15.6849 14.5876 15.685 14.5876Z" stroke="url(#paint0_radial_1131_176)" stroke-opacity="0.7"/>
<path d="M14.7893 0.519559L14.7892 0.519562C10.9264 0.90435 7.7011 2.42359 5.05318 5.0975C2.64828 7.52601 1.20287 10.4485 0.632921 14.064C0.615975 14.1715 0.595801 14.5439 0.577996 15.1689C0.56073 15.775 0.546289 16.5804 0.534717 17.52C0.51158 19.3988 0.5 21.8072 0.5 24.2166C0.5 26.626 0.51158 29.0345 0.534717 30.9132C0.546289 31.8529 0.56073 32.6582 0.577996 33.2643C0.595801 33.8893 0.615975 34.2618 0.632922 34.3693C1.20287 37.9847 2.64828 40.9072 5.05318 43.3357C7.44979 45.7559 10.2249 47.1827 13.7466 47.7953L13.6609 48.2879L13.7466 47.7953C14.0929 47.8555 15.0915 47.9103 16.0061 47.9103C17.6717 47.9103 18.3377 47.8301 19.8363 47.4535C25.3611 46.0648 29.7047 41.6078 31.0779 35.8933L31.0838 35.8689C31.4944 34.1604 31.5 34.137 31.5 24.2166C31.5 14.2962 31.4944 14.2728 31.0838 12.5643L31.0779 12.5399C30.3793 9.63258 29.0203 7.17916 26.9589 5.0975C24.6011 2.71662 21.8684 1.29052 18.4976 0.686404L14.7893 0.519559ZM14.7893 0.519559C15.0986 0.488719 15.8368 0.495685 16.6207 0.530795M14.7893 0.519559L16.6207 0.530795M16.6207 0.530795C17.4022 0.565793 18.1575 0.625491 18.4975 0.686397L16.6207 0.530795ZM30.6739 15.0344L30.6739 15.0343C30.3889 11.5822 29.0286 8.45187 26.7364 5.99302C24.3349 3.41687 21.3537 1.87735 17.8571 1.40719L17.7906 1.90171L17.8571 1.40719C12.4164 0.675678 6.88156 3.20786 3.83348 7.81745L3.83348 7.81745C2.34805 10.0639 1.56041 12.3423 1.33823 15.0343L1.33823 15.0344C1.28006 15.7394 1.2526 20.002 1.2526 24.2166C1.2526 28.4312 1.28006 32.6938 1.33823 33.3989L1.83643 33.3578L1.33823 33.3989C1.62431 36.8649 2.98299 39.9808 5.29772 42.4639C8.98429 46.4186 14.4531 48.0291 19.6559 46.6877C25.7591 45.1141 30.1445 39.8122 30.6739 33.3989L30.1756 33.3578L30.6739 33.3989C30.732 32.6938 30.7595 28.4312 30.7595 24.2166C30.7595 20.002 30.732 15.7394 30.6739 15.0344ZM15.6618 10.2591V6.08773L15.7742 5.99225C15.7742 5.99224 15.7742 5.99224 15.7742 5.99223C15.8143 5.9582 15.8733 5.92133 15.9347 5.8942C15.9643 5.88115 15.9887 5.87291 16.0057 5.86843C16.0058 5.8684 16.0059 5.86838 16.0061 5.86835C16.0062 5.86838 16.0063 5.8684 16.0064 5.86843C16.0234 5.87291 16.0478 5.88115 16.0774 5.8942C16.1388 5.92133 16.1979 5.95821 16.2379 5.99225L16.3503 6.08773V10.2591C16.3503 11.7445 16.3421 12.8562 16.3254 13.6112C16.3171 13.9895 16.3067 14.2732 16.2946 14.4676C16.2905 14.5344 16.2863 14.5874 16.2824 14.6282C16.2807 14.6295 16.279 14.6309 16.2772 14.6322C16.2305 14.6684 16.1761 14.7004 16.1326 14.7188C16.0564 14.7509 16.02 14.7623 16.0061 14.7661C15.9921 14.7623 15.9557 14.7509 15.8795 14.7188C15.8361 14.7004 15.7816 14.6684 15.7349 14.6322C15.7331 14.6309 15.7314 14.6295 15.7297 14.6282C15.7258 14.5874 15.7216 14.5344 15.7175 14.4676C15.7054 14.2732 15.695 13.9895 15.6867 13.6112C15.67 12.8562 15.6618 11.7445 15.6618 10.2591ZM15.685 14.5876C15.6851 14.5877 15.6855 14.5882 15.6863 14.5892C15.6853 14.5881 15.6849 14.5876 15.685 14.5876Z" stroke="url(#paint1_radial_1131_176)"/>
<defs>
<radialGradient id="paint0_radial_1131_176" cx="0" cy="0" r="1" gradientUnits="userSpaceOnUse" gradientTransform="translate(8.44444 10.0855) rotate(61.8782) scale(35.8311 30.4658)">
<stop stop-color="white" stop-opacity="0.59"/>
<stop offset="0.697917" stop-color="white" stop-opacity="0"/>
<stop offset="1" stop-color="white" stop-opacity="0"/>
</radialGradient>
<radialGradient id="paint1_radial_1131_176" cx="0" cy="0" r="1" gradientUnits="userSpaceOnUse" gradientTransform="translate(27.6164 42.359) rotate(-92.4281) scale(41.3876 30.562)">
<stop stop-opacity="0.23"/>
<stop offset="0.861815" stop-opacity="0"/>
</radialGradient>
</defs>
</svg>
