<svg width="227" height="273" viewBox="0 0 227 273" fill="none" xmlns="http://www.w3.org/2000/svg">
<g filter="url(#filter0_dd_1152_15)">
<rect x="84.4089" y="94.999" width="108.687" height="108.687" rx="19.5432" transform="rotate(20.6947 84.4089 94.999)" fill="#EDF0F9"/>
</g>
<path fill-rule="evenodd" clip-rule="evenodd" d="M106.749 132.124V135.249H106.393C105.915 135.249 105.083 135.87 104.864 136.391C104.73 136.708 104.686 137.442 104.686 139.374C104.686 142.206 104.736 142.427 105.508 143.031L105.897 143.336L105.507 144.108C105.019 145.075 104.795 145.967 104.642 147.562C104.479 149.243 104.191 149.93 102.935 151.623C101.78 153.179 101.626 153.542 101.625 154.693C101.623 156.019 102.345 157.096 103.614 157.659C104.331 157.978 105.643 157.91 106.303 157.521L106.749 157.258L106.75 159.347C106.75 161.689 106.834 162.139 107.411 162.895C108.123 163.828 109.504 164.289 110.637 163.97C110.93 163.888 110.986 163.93 111.192 164.386C111.875 165.902 113.824 166.56 115.36 165.795C116.028 165.462 116.685 164.732 116.828 164.164C116.889 163.921 116.952 163.891 117.231 163.969C117.837 164.139 118.926 164.041 119.46 163.769C120.011 163.488 120.843 162.603 120.947 162.187C121.006 161.953 121.105 161.931 122.107 161.934C123.112 161.936 123.255 161.905 123.819 161.557C124.645 161.049 125.202 160.126 125.312 159.082C125.357 158.658 125.371 155.583 125.344 152.249C125.289 145.669 125.285 145.636 124.538 143.97L124.214 143.249L124.546 142.988C125.256 142.43 125.311 142.169 125.311 139.374C125.311 137.442 125.267 136.708 125.133 136.391C124.914 135.87 124.082 135.249 123.605 135.249H123.248V132.124V128.999H114.999H106.749V132.124ZM121.22 133.155L121.186 135.187L120.462 135.224C119.768 135.26 119.715 135.241 119.15 134.738C118.356 134.032 116.963 133.384 115.88 133.216C114.18 132.953 112.439 133.468 110.961 134.672C110.264 135.239 110.211 135.26 109.524 135.224L108.811 135.187L108.777 133.155L108.743 131.124H114.999H121.255L121.22 133.155ZM116.773 135.601C117.588 136.002 118.338 136.77 118.729 137.605C119.002 138.185 119.061 138.491 119.061 139.314C119.061 140.196 119.011 140.418 118.648 141.155C117.165 144.169 112.845 144.194 111.369 141.197C110.256 138.935 111.265 136.317 113.589 135.434C114.33 135.153 116.043 135.243 116.773 135.601ZM109.063 137.593C108.772 138.726 108.772 139.906 109.062 141.03L109.151 141.374H107.95H106.749V139.312V137.249H107.95H109.151L109.063 137.593ZM123.248 139.312V141.374H122.047H120.846L120.935 141.03C121.213 139.954 121.213 138.652 120.936 137.593L120.846 137.249H122.047H123.248V139.312ZM115.28 138.035L113.999 138.681V140.028V141.374H114.999H115.999V140.688V140.003L116.749 139.624C117.161 139.416 117.498 139.217 117.498 139.182C117.498 139.097 116.629 137.372 116.591 137.381C116.574 137.385 115.984 137.679 115.28 138.035ZM111.092 144.081C113.411 145.97 116.587 145.97 118.905 144.081L119.62 143.499H120.734H121.847L122.246 144.12C122.465 144.462 122.766 145.038 122.915 145.401C123.179 146.045 123.187 146.223 123.222 152.66L123.259 159.258L122.888 159.629C122.684 159.832 122.426 159.999 122.314 159.999C122.15 159.999 121.45 159.703 121.348 159.59C121.334 159.574 121.292 158.268 121.254 156.687L121.186 153.812L120.155 153.775L119.123 153.739V157.562V161.386L118.817 161.692C118.412 162.097 117.768 162.106 117.397 161.712C117.134 161.432 117.126 161.323 117.094 157.618L117.061 153.812L116.03 153.775L114.999 153.739V158.566V163.393L114.633 163.759C114.239 164.153 114.068 164.192 113.563 164C112.913 163.753 112.874 163.432 112.874 158.378V153.749H111.874H110.874V157.567V161.386L110.567 161.692C110.146 162.113 109.518 162.107 109.114 161.677L108.811 161.354L108.774 156.841L108.737 152.327L107.024 154.026C106.082 154.96 105.186 155.761 105.033 155.807C104.628 155.927 103.925 155.549 103.745 155.115C103.504 154.534 103.69 154.037 104.603 152.821C106.187 150.71 106.562 149.792 106.742 147.585C106.868 146.03 107.052 145.448 107.782 144.28L108.271 143.499H109.324H110.377L111.092 144.081ZM98.2491 166.311C97.6978 166.492 93.5006 169.548 91.9791 170.877C91.0854 171.657 89.9609 173.145 89.2885 174.437C88.7958 175.383 88.7347 175.448 88.144 175.657C87.15 176.008 86.1244 177.333 86.1244 178.266C86.1244 178.366 85.4493 178.778 84.562 179.22L82.9995 179.998V186.499V192.999L86.2807 192.999L89.5618 192.999L91.5428 191.415L93.5237 189.832L94.2724 189.862C95.5003 189.912 96.6194 189.22 97.1335 188.091C97.2575 187.819 97.3755 187.775 98.1674 187.708C100.153 187.539 102.894 186.622 104.719 185.516C105.701 184.92 110.193 181.47 110.963 180.719C111.792 179.911 112.071 178.751 111.72 177.577C111.571 177.081 110.701 176.051 110.207 175.788C109.991 175.672 109.996 175.639 110.301 175.19C110.946 174.24 111.025 173.032 110.51 172.021C110.237 171.485 109.348 170.654 108.94 170.551C108.709 170.494 108.686 170.388 108.686 169.391C108.686 168.388 108.654 168.241 108.308 167.681C107.793 166.847 107.109 166.392 106.116 166.223C105.006 166.034 104.174 166.285 103.126 167.122C102.695 167.467 102.321 167.749 102.295 167.749C102.269 167.749 102.041 167.52 101.788 167.24C101.535 166.96 101.111 166.62 100.846 166.485C100.202 166.157 98.97 166.074 98.2491 166.311ZM123.462 166.302C122.653 166.52 122.007 167.062 121.582 167.88C121.264 168.494 121.234 168.657 121.28 169.522C121.328 170.416 121.313 170.487 121.068 170.549C120.65 170.654 119.763 171.48 119.487 172.021C118.97 173.035 119.051 174.24 119.701 175.197C120.007 175.647 120.014 175.688 119.807 175.808C118.317 176.671 117.723 178.446 118.422 179.947C118.657 180.453 119.028 180.847 120.241 181.883C122.015 183.399 123.135 184.174 124.655 184.937C126.623 185.926 129.709 186.749 131.448 186.749H132.104L135.748 189.874L139.392 192.999H143.196H147L146.967 185.924L146.935 178.849L144.297 177.794L141.659 176.738L141.52 176.275C141.244 175.354 140.269 173.54 139.505 172.528C138.556 171.27 138.01 170.787 134.81 168.376C132.03 166.281 131.513 166.029 130.281 166.174C129.417 166.276 128.788 166.599 128.209 167.24C127.956 167.52 127.728 167.749 127.702 167.749C127.676 167.749 127.303 167.468 126.873 167.124C125.711 166.195 124.735 165.96 123.462 166.302ZM100.17 168.508C100.421 168.706 100.499 168.879 100.499 169.235C100.499 169.805 100.405 169.898 98.1078 171.612L96.404 172.882L96.3486 174.41C96.3019 175.695 96.2337 176.107 95.917 177.013L95.5408 178.09L96.4451 178.537L97.3495 178.985L97.6042 178.393C98.0237 177.418 98.3569 176.05 98.4477 174.93L98.5333 173.876L100.191 172.616C101.404 171.694 101.924 171.216 102.127 170.834C102.314 170.483 102.834 169.973 103.712 169.28C104.882 168.357 105.073 168.249 105.547 168.249C106.396 168.249 106.963 168.992 106.646 169.688C106.572 169.851 105.285 171.006 103.786 172.256C102.288 173.506 101.043 174.578 101.02 174.638C100.997 174.699 101.249 175.072 101.579 175.467C101.909 175.863 102.191 176.207 102.206 176.231C102.222 176.256 103.236 175.464 104.461 174.471C105.685 173.479 106.809 172.601 106.959 172.52C107.772 172.086 108.749 172.579 108.749 173.424C108.749 173.994 108.683 174.061 105.593 176.622L103 178.772L103.587 179.518C103.909 179.929 104.206 180.285 104.246 180.31C104.286 180.335 105.074 179.789 105.998 179.097C108.221 177.431 108.742 177.225 109.405 177.747C109.782 178.044 109.917 178.493 109.757 178.916C109.615 179.289 104.988 182.929 103.579 183.776C102.011 184.719 99.8873 185.437 97.9292 185.686L97.297 185.766L96.9114 185.146C96.4552 184.412 95.619 183.871 94.7974 183.778L94.2354 183.715L94.3162 183.069C94.4715 181.825 93.8346 180.593 92.7329 180.008L92.1609 179.704L92.2219 178.851C92.2985 177.78 92.0529 177.082 91.3523 176.382L90.8457 175.875L91.3911 174.918C92.2342 173.439 93.3967 172.3 96.2379 170.165C98.5856 168.402 98.831 168.249 99.3147 168.249C99.6571 168.249 99.955 168.339 100.17 168.508ZM126.285 169.28C127.173 169.981 127.683 170.482 127.874 170.841C128.082 171.232 128.589 171.7 129.811 172.629L131.465 173.886L131.551 174.955C131.641 176.06 132.092 177.834 132.469 178.565L132.686 178.983L133.571 178.537L134.457 178.091L134.08 177.014C133.763 176.107 133.695 175.696 133.649 174.41L133.593 172.882L131.889 171.612C129.592 169.898 129.498 169.805 129.498 169.235C129.498 168.619 129.942 168.249 130.682 168.249C131.164 168.249 131.408 168.399 133.572 170.015C134.872 170.986 136.292 172.125 136.727 172.546C138.133 173.905 139.009 175.322 139.63 177.238L139.971 178.289L142.39 179.256L144.81 180.223L144.843 185.549L144.875 190.874L142.468 190.867L140.06 190.86L136.501 187.805L132.941 184.749H132.267C129.476 184.749 125.846 183.544 123.448 181.821C122.294 180.992 120.457 179.383 120.272 179.038C119.954 178.45 120.317 177.736 121.023 177.56C121.588 177.419 122.145 177.704 123.949 179.056C124.901 179.77 125.713 180.334 125.752 180.309C125.792 180.285 126.088 179.929 126.411 179.518L126.997 178.772L124.404 176.622C122.978 175.44 121.684 174.334 121.53 174.166C120.885 173.464 121.378 172.374 122.34 172.374C122.911 172.374 122.872 172.348 125.602 174.536C126.793 175.491 127.779 176.253 127.793 176.229C127.807 176.206 128.089 175.863 128.419 175.467C128.749 175.072 129 174.699 128.977 174.638C128.954 174.578 127.709 173.506 126.211 172.256C124.712 171.006 123.425 169.851 123.351 169.688C123.034 168.992 123.601 168.249 124.45 168.249C124.924 168.249 125.115 168.357 126.285 169.28ZM89.8986 177.879C90.2179 178.199 90.2658 178.323 90.1984 178.66C90.0852 179.226 89.7177 179.549 89.1868 179.549C88.2429 179.549 87.8262 178.413 88.5438 177.795C89.0121 177.393 89.4384 177.419 89.8986 177.879ZM87.1095 180.796C87.2628 180.959 87.6124 181.194 87.8864 181.317C88.217 181.466 88.3619 181.601 88.3167 181.719C87.9849 182.584 88.228 183.87 88.8698 184.644C89.3196 185.187 90.3828 185.749 90.9594 185.749H91.3704L91.2974 186.468C91.2296 187.134 91.3059 187.52 91.6769 188.389C91.742 188.541 91.4128 188.87 90.3329 189.732L88.9027 190.874H87.0135H85.1244V186.064V181.253L85.8432 180.882C86.7218 180.429 86.762 180.426 87.1095 180.796ZM92.0305 182.013C92.445 182.513 92.2962 183.279 91.7279 183.573C91.0841 183.906 90.2493 183.407 90.2493 182.689C90.2493 181.748 91.4365 181.298 92.0305 182.013ZM94.7887 185.895C95.4745 186.26 95.5685 186.949 95.0088 187.509C94.5968 187.921 94.3913 187.954 93.8832 187.691C93.4986 187.492 93.3742 187.273 93.3742 186.793C93.3742 186.001 94.1107 185.534 94.7887 185.895Z" fill="#0066FF"/>
<path fill-rule="evenodd" clip-rule="evenodd" d="M106.749 132.124V135.249H106.393C105.915 135.249 105.083 135.87 104.864 136.391C104.73 136.708 104.686 137.442 104.686 139.374C104.686 142.206 104.736 142.427 105.508 143.031L105.897 143.336L105.507 144.108C105.019 145.075 104.795 145.967 104.642 147.562C104.479 149.243 104.191 149.93 102.935 151.623C101.78 153.179 101.626 153.542 101.625 154.693C101.623 156.019 102.345 157.096 103.614 157.659C104.331 157.978 105.643 157.91 106.303 157.521L106.749 157.258L106.75 159.347C106.75 161.689 106.834 162.139 107.411 162.895C108.123 163.828 109.504 164.289 110.637 163.97C110.93 163.888 110.986 163.93 111.192 164.386C111.875 165.902 113.824 166.56 115.36 165.795C116.028 165.462 116.685 164.732 116.828 164.164C116.889 163.921 116.952 163.891 117.231 163.969C117.837 164.139 118.926 164.041 119.46 163.769C120.011 163.488 120.843 162.603 120.947 162.187C121.006 161.953 121.105 161.931 122.107 161.934C123.112 161.936 123.255 161.905 123.819 161.557C124.645 161.049 125.202 160.126 125.312 159.082C125.357 158.658 125.371 155.583 125.344 152.249C125.289 145.669 125.285 145.636 124.538 143.97L124.214 143.249L124.546 142.988C125.256 142.43 125.311 142.169 125.311 139.374C125.311 137.442 125.267 136.708 125.133 136.391C124.914 135.87 124.082 135.249 123.605 135.249H123.248V132.124V128.999H114.999H106.749V132.124ZM121.22 133.155L121.186 135.187L120.462 135.224C119.768 135.26 119.715 135.241 119.15 134.738C118.356 134.032 116.963 133.384 115.88 133.216C114.18 132.953 112.439 133.468 110.961 134.672C110.264 135.239 110.211 135.26 109.524 135.224L108.811 135.187L108.777 133.155L108.743 131.124H114.999H121.255L121.22 133.155ZM116.773 135.601C117.588 136.002 118.338 136.77 118.729 137.605C119.002 138.185 119.061 138.491 119.061 139.314C119.061 140.196 119.011 140.418 118.648 141.155C117.165 144.169 112.845 144.194 111.369 141.197C110.256 138.935 111.265 136.317 113.589 135.434C114.33 135.153 116.043 135.243 116.773 135.601ZM109.063 137.593C108.772 138.726 108.772 139.906 109.062 141.03L109.151 141.374H107.95H106.749V139.312V137.249H107.95H109.151L109.063 137.593ZM123.248 139.312V141.374H122.047H120.846L120.935 141.03C121.213 139.954 121.213 138.652 120.936 137.593L120.846 137.249H122.047H123.248V139.312ZM115.28 138.035L113.999 138.681V140.028V141.374H114.999H115.999V140.688V140.003L116.749 139.624C117.161 139.416 117.498 139.217 117.498 139.182C117.498 139.097 116.629 137.372 116.591 137.381C116.574 137.385 115.984 137.679 115.28 138.035ZM111.092 144.081C113.411 145.97 116.587 145.97 118.905 144.081L119.62 143.499H120.734H121.847L122.246 144.12C122.465 144.462 122.766 145.038 122.915 145.401C123.179 146.045 123.187 146.223 123.222 152.66L123.259 159.258L122.888 159.629C122.684 159.832 122.426 159.999 122.314 159.999C122.15 159.999 121.45 159.703 121.348 159.59C121.334 159.574 121.292 158.268 121.254 156.687L121.186 153.812L120.155 153.775L119.123 153.739V157.562V161.386L118.817 161.692C118.412 162.097 117.768 162.106 117.397 161.712C117.134 161.432 117.126 161.323 117.094 157.618L117.061 153.812L116.03 153.775L114.999 153.739V158.566V163.393L114.633 163.759C114.239 164.153 114.068 164.192 113.563 164C112.913 163.753 112.874 163.432 112.874 158.378V153.749H111.874H110.874V157.567V161.386L110.567 161.692C110.146 162.113 109.518 162.107 109.114 161.677L108.811 161.354L108.774 156.841L108.737 152.327L107.024 154.026C106.082 154.96 105.186 155.761 105.033 155.807C104.628 155.927 103.925 155.549 103.745 155.115C103.504 154.534 103.69 154.037 104.603 152.821C106.187 150.71 106.562 149.792 106.742 147.585C106.868 146.03 107.052 145.448 107.782 144.28L108.271 143.499H109.324H110.377L111.092 144.081ZM98.2491 166.311C97.6978 166.492 93.5006 169.548 91.9791 170.877C91.0854 171.657 89.9609 173.145 89.2885 174.437C88.7958 175.383 88.7347 175.448 88.144 175.657C87.15 176.008 86.1244 177.333 86.1244 178.266C86.1244 178.366 85.4493 178.778 84.562 179.22L82.9995 179.998V186.499V192.999L86.2807 192.999L89.5618 192.999L91.5428 191.415L93.5237 189.832L94.2724 189.862C95.5003 189.912 96.6194 189.22 97.1335 188.091C97.2575 187.819 97.3755 187.775 98.1674 187.708C100.153 187.539 102.894 186.622 104.719 185.516C105.701 184.92 110.193 181.47 110.963 180.719C111.792 179.911 112.071 178.751 111.72 177.577C111.571 177.081 110.701 176.051 110.207 175.788C109.991 175.672 109.996 175.639 110.301 175.19C110.946 174.24 111.025 173.032 110.51 172.021C110.237 171.485 109.348 170.654 108.94 170.551C108.709 170.494 108.686 170.388 108.686 169.391C108.686 168.388 108.654 168.241 108.308 167.681C107.793 166.847 107.109 166.392 106.116 166.223C105.006 166.034 104.174 166.285 103.126 167.122C102.695 167.467 102.321 167.749 102.295 167.749C102.269 167.749 102.041 167.52 101.788 167.24C101.535 166.96 101.111 166.62 100.846 166.485C100.202 166.157 98.97 166.074 98.2491 166.311ZM123.462 166.302C122.653 166.52 122.007 167.062 121.582 167.88C121.264 168.494 121.234 168.657 121.28 169.522C121.328 170.416 121.313 170.487 121.068 170.549C120.65 170.654 119.763 171.48 119.487 172.021C118.97 173.035 119.051 174.24 119.701 175.197C120.007 175.647 120.014 175.688 119.807 175.808C118.317 176.671 117.723 178.446 118.422 179.947C118.657 180.453 119.028 180.847 120.241 181.883C122.015 183.399 123.135 184.174 124.655 184.937C126.623 185.926 129.709 186.749 131.448 186.749H132.104L135.748 189.874L139.392 192.999H143.196H147L146.967 185.924L146.935 178.849L144.297 177.794L141.659 176.738L141.52 176.275C141.244 175.354 140.269 173.54 139.505 172.528C138.556 171.27 138.01 170.787 134.81 168.376C132.03 166.281 131.513 166.029 130.281 166.174C129.417 166.276 128.788 166.599 128.209 167.24C127.956 167.52 127.728 167.749 127.702 167.749C127.676 167.749 127.303 167.468 126.873 167.124C125.711 166.195 124.735 165.96 123.462 166.302ZM100.17 168.508C100.421 168.706 100.499 168.879 100.499 169.235C100.499 169.805 100.405 169.898 98.1078 171.612L96.404 172.882L96.3486 174.41C96.3019 175.695 96.2337 176.107 95.917 177.013L95.5408 178.09L96.4451 178.537L97.3495 178.985L97.6042 178.393C98.0237 177.418 98.3569 176.05 98.4477 174.93L98.5333 173.876L100.191 172.616C101.404 171.694 101.924 171.216 102.127 170.834C102.314 170.483 102.834 169.973 103.712 169.28C104.882 168.357 105.073 168.249 105.547 168.249C106.396 168.249 106.963 168.992 106.646 169.688C106.572 169.851 105.285 171.006 103.786 172.256C102.288 173.506 101.043 174.578 101.02 174.638C100.997 174.699 101.249 175.072 101.579 175.467C101.909 175.863 102.191 176.207 102.206 176.231C102.222 176.256 103.236 175.464 104.461 174.471C105.685 173.479 106.809 172.601 106.959 172.52C107.772 172.086 108.749 172.579 108.749 173.424C108.749 173.994 108.683 174.061 105.593 176.622L103 178.772L103.587 179.518C103.909 179.929 104.206 180.285 104.246 180.31C104.286 180.335 105.074 179.789 105.998 179.097C108.221 177.431 108.742 177.225 109.405 177.747C109.782 178.044 109.917 178.493 109.757 178.916C109.615 179.289 104.988 182.929 103.579 183.776C102.011 184.719 99.8873 185.437 97.9292 185.686L97.297 185.766L96.9114 185.146C96.4552 184.412 95.619 183.871 94.7974 183.778L94.2354 183.715L94.3162 183.069C94.4715 181.825 93.8346 180.593 92.7329 180.008L92.1609 179.704L92.2219 178.851C92.2985 177.78 92.0529 177.082 91.3523 176.382L90.8457 175.875L91.3911 174.918C92.2342 173.439 93.3967 172.3 96.2379 170.165C98.5856 168.402 98.831 168.249 99.3147 168.249C99.6571 168.249 99.955 168.339 100.17 168.508ZM126.285 169.28C127.173 169.981 127.683 170.482 127.874 170.841C128.082 171.232 128.589 171.7 129.811 172.629L131.465 173.886L131.551 174.955C131.641 176.06 132.092 177.834 132.469 178.565L132.686 178.983L133.571 178.537L134.457 178.091L134.08 177.014C133.763 176.107 133.695 175.696 133.649 174.41L133.593 172.882L131.889 171.612C129.592 169.898 129.498 169.805 129.498 169.235C129.498 168.619 129.942 168.249 130.682 168.249C131.164 168.249 131.408 168.399 133.572 170.015C134.872 170.986 136.292 172.125 136.727 172.546C138.133 173.905 139.009 175.322 139.63 177.238L139.971 178.289L142.39 179.256L144.81 180.223L144.843 185.549L144.875 190.874L142.468 190.867L140.06 190.86L136.501 187.805L132.941 184.749H132.267C129.476 184.749 125.846 183.544 123.448 181.821C122.294 180.992 120.457 179.383 120.272 179.038C119.954 178.45 120.317 177.736 121.023 177.56C121.588 177.419 122.145 177.704 123.949 179.056C124.901 179.77 125.713 180.334 125.752 180.309C125.792 180.285 126.088 179.929 126.411 179.518L126.997 178.772L124.404 176.622C122.978 175.44 121.684 174.334 121.53 174.166C120.885 173.464 121.378 172.374 122.34 172.374C122.911 172.374 122.872 172.348 125.602 174.536C126.793 175.491 127.779 176.253 127.793 176.229C127.807 176.206 128.089 175.863 128.419 175.467C128.749 175.072 129 174.699 128.977 174.638C128.954 174.578 127.709 173.506 126.211 172.256C124.712 171.006 123.425 169.851 123.351 169.688C123.034 168.992 123.601 168.249 124.45 168.249C124.924 168.249 125.115 168.357 126.285 169.28ZM89.8986 177.879C90.2179 178.199 90.2658 178.323 90.1984 178.66C90.0852 179.226 89.7177 179.549 89.1868 179.549C88.2429 179.549 87.8262 178.413 88.5438 177.795C89.0121 177.393 89.4384 177.419 89.8986 177.879ZM87.1095 180.796C87.2628 180.959 87.6124 181.194 87.8864 181.317C88.217 181.466 88.3619 181.601 88.3167 181.719C87.9849 182.584 88.228 183.87 88.8698 184.644C89.3196 185.187 90.3828 185.749 90.9594 185.749H91.3704L91.2974 186.468C91.2296 187.134 91.3059 187.52 91.6769 188.389C91.742 188.541 91.4128 188.87 90.3329 189.732L88.9027 190.874H87.0135H85.1244V186.064V181.253L85.8432 180.882C86.7218 180.429 86.762 180.426 87.1095 180.796ZM92.0305 182.013C92.445 182.513 92.2962 183.279 91.7279 183.573C91.0841 183.906 90.2493 183.407 90.2493 182.689C90.2493 181.748 91.4365 181.298 92.0305 182.013ZM94.7887 185.895C95.4745 186.26 95.5685 186.949 95.0088 187.509C94.5968 187.921 94.3913 187.954 93.8832 187.691C93.4986 187.492 93.3742 187.273 93.3742 186.793C93.3742 186.001 94.1107 185.534 94.7887 185.895Z" fill="url(#paint0_radial_1152_15)" fill-opacity="0.7"/>
<path fill-rule="evenodd" clip-rule="evenodd" d="M106.749 132.124V135.249H106.393C105.915 135.249 105.083 135.87 104.864 136.391C104.73 136.708 104.686 137.442 104.686 139.374C104.686 142.206 104.736 142.427 105.508 143.031L105.897 143.336L105.507 144.108C105.019 145.075 104.795 145.967 104.642 147.562C104.479 149.243 104.191 149.93 102.935 151.623C101.78 153.179 101.626 153.542 101.625 154.693C101.623 156.019 102.345 157.096 103.614 157.659C104.331 157.978 105.643 157.91 106.303 157.521L106.749 157.258L106.75 159.347C106.75 161.689 106.834 162.139 107.411 162.895C108.123 163.828 109.504 164.289 110.637 163.97C110.93 163.888 110.986 163.93 111.192 164.386C111.875 165.902 113.824 166.56 115.36 165.795C116.028 165.462 116.685 164.732 116.828 164.164C116.889 163.921 116.952 163.891 117.231 163.969C117.837 164.139 118.926 164.041 119.46 163.769C120.011 163.488 120.843 162.603 120.947 162.187C121.006 161.953 121.105 161.931 122.107 161.934C123.112 161.936 123.255 161.905 123.819 161.557C124.645 161.049 125.202 160.126 125.312 159.082C125.357 158.658 125.371 155.583 125.344 152.249C125.289 145.669 125.285 145.636 124.538 143.97L124.214 143.249L124.546 142.988C125.256 142.43 125.311 142.169 125.311 139.374C125.311 137.442 125.267 136.708 125.133 136.391C124.914 135.87 124.082 135.249 123.605 135.249H123.248V132.124V128.999H114.999H106.749V132.124ZM121.22 133.155L121.186 135.187L120.462 135.224C119.768 135.26 119.715 135.241 119.15 134.738C118.356 134.032 116.963 133.384 115.88 133.216C114.18 132.953 112.439 133.468 110.961 134.672C110.264 135.239 110.211 135.26 109.524 135.224L108.811 135.187L108.777 133.155L108.743 131.124H114.999H121.255L121.22 133.155ZM116.773 135.601C117.588 136.002 118.338 136.77 118.729 137.605C119.002 138.185 119.061 138.491 119.061 139.314C119.061 140.196 119.011 140.418 118.648 141.155C117.165 144.169 112.845 144.194 111.369 141.197C110.256 138.935 111.265 136.317 113.589 135.434C114.33 135.153 116.043 135.243 116.773 135.601ZM109.063 137.593C108.772 138.726 108.772 139.906 109.062 141.03L109.151 141.374H107.95H106.749V139.312V137.249H107.95H109.151L109.063 137.593ZM123.248 139.312V141.374H122.047H120.846L120.935 141.03C121.213 139.954 121.213 138.652 120.936 137.593L120.846 137.249H122.047H123.248V139.312ZM115.28 138.035L113.999 138.681V140.028V141.374H114.999H115.999V140.688V140.003L116.749 139.624C117.161 139.416 117.498 139.217 117.498 139.182C117.498 139.097 116.629 137.372 116.591 137.381C116.574 137.385 115.984 137.679 115.28 138.035ZM111.092 144.081C113.411 145.97 116.587 145.97 118.905 144.081L119.62 143.499H120.734H121.847L122.246 144.12C122.465 144.462 122.766 145.038 122.915 145.401C123.179 146.045 123.187 146.223 123.222 152.66L123.259 159.258L122.888 159.629C122.684 159.832 122.426 159.999 122.314 159.999C122.15 159.999 121.45 159.703 121.348 159.59C121.334 159.574 121.292 158.268 121.254 156.687L121.186 153.812L120.155 153.775L119.123 153.739V157.562V161.386L118.817 161.692C118.412 162.097 117.768 162.106 117.397 161.712C117.134 161.432 117.126 161.323 117.094 157.618L117.061 153.812L116.03 153.775L114.999 153.739V158.566V163.393L114.633 163.759C114.239 164.153 114.068 164.192 113.563 164C112.913 163.753 112.874 163.432 112.874 158.378V153.749H111.874H110.874V157.567V161.386L110.567 161.692C110.146 162.113 109.518 162.107 109.114 161.677L108.811 161.354L108.774 156.841L108.737 152.327L107.024 154.026C106.082 154.96 105.186 155.761 105.033 155.807C104.628 155.927 103.925 155.549 103.745 155.115C103.504 154.534 103.69 154.037 104.603 152.821C106.187 150.71 106.562 149.792 106.742 147.585C106.868 146.03 107.052 145.448 107.782 144.28L108.271 143.499H109.324H110.377L111.092 144.081ZM98.2491 166.311C97.6978 166.492 93.5006 169.548 91.9791 170.877C91.0854 171.657 89.9609 173.145 89.2885 174.437C88.7958 175.383 88.7347 175.448 88.144 175.657C87.15 176.008 86.1244 177.333 86.1244 178.266C86.1244 178.366 85.4493 178.778 84.562 179.22L82.9995 179.998V186.499V192.999L86.2807 192.999L89.5618 192.999L91.5428 191.415L93.5237 189.832L94.2724 189.862C95.5003 189.912 96.6194 189.22 97.1335 188.091C97.2575 187.819 97.3755 187.775 98.1674 187.708C100.153 187.539 102.894 186.622 104.719 185.516C105.701 184.92 110.193 181.47 110.963 180.719C111.792 179.911 112.071 178.751 111.72 177.577C111.571 177.081 110.701 176.051 110.207 175.788C109.991 175.672 109.996 175.639 110.301 175.19C110.946 174.24 111.025 173.032 110.51 172.021C110.237 171.485 109.348 170.654 108.94 170.551C108.709 170.494 108.686 170.388 108.686 169.391C108.686 168.388 108.654 168.241 108.308 167.681C107.793 166.847 107.109 166.392 106.116 166.223C105.006 166.034 104.174 166.285 103.126 167.122C102.695 167.467 102.321 167.749 102.295 167.749C102.269 167.749 102.041 167.52 101.788 167.24C101.535 166.96 101.111 166.62 100.846 166.485C100.202 166.157 98.97 166.074 98.2491 166.311ZM123.462 166.302C122.653 166.52 122.007 167.062 121.582 167.88C121.264 168.494 121.234 168.657 121.28 169.522C121.328 170.416 121.313 170.487 121.068 170.549C120.65 170.654 119.763 171.48 119.487 172.021C118.97 173.035 119.051 174.24 119.701 175.197C120.007 175.647 120.014 175.688 119.807 175.808C118.317 176.671 117.723 178.446 118.422 179.947C118.657 180.453 119.028 180.847 120.241 181.883C122.015 183.399 123.135 184.174 124.655 184.937C126.623 185.926 129.709 186.749 131.448 186.749H132.104L135.748 189.874L139.392 192.999H143.196H147L146.967 185.924L146.935 178.849L144.297 177.794L141.659 176.738L141.52 176.275C141.244 175.354 140.269 173.54 139.505 172.528C138.556 171.27 138.01 170.787 134.81 168.376C132.03 166.281 131.513 166.029 130.281 166.174C129.417 166.276 128.788 166.599 128.209 167.24C127.956 167.52 127.728 167.749 127.702 167.749C127.676 167.749 127.303 167.468 126.873 167.124C125.711 166.195 124.735 165.96 123.462 166.302ZM100.17 168.508C100.421 168.706 100.499 168.879 100.499 169.235C100.499 169.805 100.405 169.898 98.1078 171.612L96.404 172.882L96.3486 174.41C96.3019 175.695 96.2337 176.107 95.917 177.013L95.5408 178.09L96.4451 178.537L97.3495 178.985L97.6042 178.393C98.0237 177.418 98.3569 176.05 98.4477 174.93L98.5333 173.876L100.191 172.616C101.404 171.694 101.924 171.216 102.127 170.834C102.314 170.483 102.834 169.973 103.712 169.28C104.882 168.357 105.073 168.249 105.547 168.249C106.396 168.249 106.963 168.992 106.646 169.688C106.572 169.851 105.285 171.006 103.786 172.256C102.288 173.506 101.043 174.578 101.02 174.638C100.997 174.699 101.249 175.072 101.579 175.467C101.909 175.863 102.191 176.207 102.206 176.231C102.222 176.256 103.236 175.464 104.461 174.471C105.685 173.479 106.809 172.601 106.959 172.52C107.772 172.086 108.749 172.579 108.749 173.424C108.749 173.994 108.683 174.061 105.593 176.622L103 178.772L103.587 179.518C103.909 179.929 104.206 180.285 104.246 180.31C104.286 180.335 105.074 179.789 105.998 179.097C108.221 177.431 108.742 177.225 109.405 177.747C109.782 178.044 109.917 178.493 109.757 178.916C109.615 179.289 104.988 182.929 103.579 183.776C102.011 184.719 99.8873 185.437 97.9292 185.686L97.297 185.766L96.9114 185.146C96.4552 184.412 95.619 183.871 94.7974 183.778L94.2354 183.715L94.3162 183.069C94.4715 181.825 93.8346 180.593 92.7329 180.008L92.1609 179.704L92.2219 178.851C92.2985 177.78 92.0529 177.082 91.3523 176.382L90.8457 175.875L91.3911 174.918C92.2342 173.439 93.3967 172.3 96.2379 170.165C98.5856 168.402 98.831 168.249 99.3147 168.249C99.6571 168.249 99.955 168.339 100.17 168.508ZM126.285 169.28C127.173 169.981 127.683 170.482 127.874 170.841C128.082 171.232 128.589 171.7 129.811 172.629L131.465 173.886L131.551 174.955C131.641 176.06 132.092 177.834 132.469 178.565L132.686 178.983L133.571 178.537L134.457 178.091L134.08 177.014C133.763 176.107 133.695 175.696 133.649 174.41L133.593 172.882L131.889 171.612C129.592 169.898 129.498 169.805 129.498 169.235C129.498 168.619 129.942 168.249 130.682 168.249C131.164 168.249 131.408 168.399 133.572 170.015C134.872 170.986 136.292 172.125 136.727 172.546C138.133 173.905 139.009 175.322 139.63 177.238L139.971 178.289L142.39 179.256L144.81 180.223L144.843 185.549L144.875 190.874L142.468 190.867L140.06 190.86L136.501 187.805L132.941 184.749H132.267C129.476 184.749 125.846 183.544 123.448 181.821C122.294 180.992 120.457 179.383 120.272 179.038C119.954 178.45 120.317 177.736 121.023 177.56C121.588 177.419 122.145 177.704 123.949 179.056C124.901 179.77 125.713 180.334 125.752 180.309C125.792 180.285 126.088 179.929 126.411 179.518L126.997 178.772L124.404 176.622C122.978 175.44 121.684 174.334 121.53 174.166C120.885 173.464 121.378 172.374 122.34 172.374C122.911 172.374 122.872 172.348 125.602 174.536C126.793 175.491 127.779 176.253 127.793 176.229C127.807 176.206 128.089 175.863 128.419 175.467C128.749 175.072 129 174.699 128.977 174.638C128.954 174.578 127.709 173.506 126.211 172.256C124.712 171.006 123.425 169.851 123.351 169.688C123.034 168.992 123.601 168.249 124.45 168.249C124.924 168.249 125.115 168.357 126.285 169.28ZM89.8986 177.879C90.2179 178.199 90.2658 178.323 90.1984 178.66C90.0852 179.226 89.7177 179.549 89.1868 179.549C88.2429 179.549 87.8262 178.413 88.5438 177.795C89.0121 177.393 89.4384 177.419 89.8986 177.879ZM87.1095 180.796C87.2628 180.959 87.6124 181.194 87.8864 181.317C88.217 181.466 88.3619 181.601 88.3167 181.719C87.9849 182.584 88.228 183.87 88.8698 184.644C89.3196 185.187 90.3828 185.749 90.9594 185.749H91.3704L91.2974 186.468C91.2296 187.134 91.3059 187.52 91.6769 188.389C91.742 188.541 91.4128 188.87 90.3329 189.732L88.9027 190.874H87.0135H85.1244V186.064V181.253L85.8432 180.882C86.7218 180.429 86.762 180.426 87.1095 180.796ZM92.0305 182.013C92.445 182.513 92.2962 183.279 91.7279 183.573C91.0841 183.906 90.2493 183.407 90.2493 182.689C90.2493 181.748 91.4365 181.298 92.0305 182.013ZM94.7887 185.895C95.4745 186.26 95.5685 186.949 95.0088 187.509C94.5968 187.921 94.3913 187.954 93.8832 187.691C93.4986 187.492 93.3742 187.273 93.3742 186.793C93.3742 186.001 94.1107 185.534 94.7887 185.895Z" fill="url(#paint1_radial_1152_15)"/>
<g filter="url(#filter1_bdd_1152_15)">
<rect x="100.668" y="147.786" width="69.2534" height="69.2534" rx="10.5861" transform="rotate(-14.312 100.668 147.786)" fill="#D9E2FA" fill-opacity="0.4" shape-rendering="crispEdges"/>
</g>
<defs>
<filter id="filter0_dd_1152_15" x="18.3825" y="57.7813" width="195.319" height="214.519" filterUnits="userSpaceOnUse" color-interpolation-filters="sRGB">
<feFlood flood-opacity="0" result="BackgroundImageFix"/>
<feColorMatrix in="SourceAlpha" type="matrix" values="0 0 0 0 0 0 0 0 0 0 0 0 0 0 0 0 0 0 127 0" result="hardAlpha"/>
<feOffset dx="9.60015" dy="19.2003"/>
<feGaussianBlur stdDeviation="11.8288"/>
<feComposite in2="hardAlpha" operator="out"/>
<feColorMatrix type="matrix" values="0 0 0 0 0.15908 0 0 0 0 0.313986 0 0 0 0 0.495833 0 0 0 0.17 0"/>
<feBlend mode="normal" in2="BackgroundImageFix" result="effect1_dropShadow_1152_15"/>
<feColorMatrix in="SourceAlpha" type="matrix" values="0 0 0 0 0 0 0 0 0 0 0 0 0 0 0 0 0 0 127 0" result="hardAlpha"/>
<feOffset dx="-9.60015" dy="-19.2003"/>
<feGaussianBlur stdDeviation="11.8288"/>
<feComposite in2="hardAlpha" operator="out"/>
<feColorMatrix type="matrix" values="0 0 0 0 1 0 0 0 0 1 0 0 0 0 1 0 0 0 0.7 0"/>
<feBlend mode="normal" in2="effect1_dropShadow_1152_15" result="effect2_dropShadow_1152_15"/>
<feBlend mode="normal" in="SourceGraphic" in2="effect2_dropShadow_1152_15" result="shape"/>
</filter>
<filter id="filter1_bdd_1152_15" x="0.268421" y="0.625565" width="225.741" height="254.324" filterUnits="userSpaceOnUse" color-interpolation-filters="sRGB">
<feFlood flood-opacity="0" result="BackgroundImageFix"/>
<feGaussianBlur in="BackgroundImage" stdDeviation="1.5"/>
<feComposite in2="SourceAlpha" operator="in" result="effect1_backgroundBlur_1152_15"/>
<feColorMatrix in="SourceAlpha" type="matrix" values="0 0 0 0 0 0 0 0 0 0 0 0 0 0 0 0 0 0 127 0" result="hardAlpha"/>
<feOffset dx="10.5861" dy="21.1723"/>
<feGaussianBlur stdDeviation="10.5861"/>
<feComposite in2="hardAlpha" operator="out"/>
<feColorMatrix type="matrix" values="0 0 0 0 0.15908 0 0 0 0 0.313986 0 0 0 0 0.495833 0 0 0 0.17 0"/>
<feBlend mode="normal" in2="effect1_backgroundBlur_1152_15" result="effect2_dropShadow_1152_15"/>
<feColorMatrix in="SourceAlpha" type="matrix" values="0 0 0 0 0 0 0 0 0 0 0 0 0 0 0 0 0 0 127 0" result="hardAlpha"/>
<feOffset dx="-29.6412" dy="-59.2824"/>
<feGaussianBlur stdDeviation="36.5222"/>
<feComposite in2="hardAlpha" operator="out"/>
<feColorMatrix type="matrix" values="0 0 0 0 1 0 0 0 0 1 0 0 0 0 1 0 0 0 0.7 0"/>
<feBlend mode="normal" in2="effect2_dropShadow_1152_15" result="effect3_dropShadow_1152_15"/>
<feBlend mode="normal" in="SourceGraphic" in2="effect3_dropShadow_1152_15" result="shape"/>
</filter>
<radialGradient id="paint0_radial_1152_15" cx="0" cy="0" r="1" gradientUnits="userSpaceOnUse" gradientTransform="translate(99.8885 142.332) rotate(51.0441) scale(53.7247)">
<stop stop-color="white" stop-opacity="0.59"/>
<stop offset="0.697917" stop-color="white" stop-opacity="0"/>
<stop offset="1" stop-color="white" stop-opacity="0"/>
</radialGradient>
<radialGradient id="paint1_radial_1152_15" cx="0" cy="0" r="1" gradientUnits="userSpaceOnUse" gradientTransform="translate(138.233 184.999) rotate(-93.6705) scale(54.7792 61.0538)">
<stop stop-opacity="0.23"/>
<stop offset="0.861815" stop-opacity="0"/>
</radialGradient>
</defs>
</svg>
