<svg width="225" height="273" viewBox="0 0 225 273" fill="none" xmlns="http://www.w3.org/2000/svg">
<g filter="url(#filter0_dd_1152_53)">
<rect x="88.4717" y="88.9919" width="108.687" height="108.687" rx="19.5432" transform="rotate(29.4755 88.4717 88.9919)" fill="#D9E2FA"/>
</g>
<path fill-rule="evenodd" clip-rule="evenodd" d="M93.7705 131.079C92.8868 131.351 92.0996 132.017 91.6411 132.882C91.4432 133.255 91.3961 133.688 91.36 135.465L91.3165 137.601L90.6548 137.097C87.4088 134.628 82.7702 136.465 82.0805 140.491C81.9732 141.118 81.9732 141.552 82.0805 142.178C82.3575 143.796 82.6442 144.191 85.9856 147.56L89.0475 150.647L88.3035 151.01C86.2216 152.025 84.9609 154.404 85.3186 156.643C85.5523 158.107 86.0376 158.858 88.097 160.947L89.944 162.821L89.4562 162.912C88.6972 163.054 87.6978 163.578 87.0226 164.189C85.6937 165.389 85.034 167.213 85.3109 168.92C85.537 170.313 85.9826 171.065 87.5304 172.666L88.9101 174.094L88.427 174.184C87.6723 174.325 86.6718 174.851 85.9979 175.46C84.6691 176.66 84.0094 178.484 84.2863 180.191C84.5541 181.84 84.8204 182.21 88.2174 185.65L91.3163 188.788L91.3615 190.709C91.4008 192.375 91.4433 192.699 91.6813 193.143C92.0041 193.745 92.6314 194.364 93.259 194.697C93.6864 194.925 94.3082 194.938 106.579 194.97C116.096 194.996 119.544 194.966 119.808 194.857C120.005 194.775 120.235 194.587 120.321 194.438C120.435 194.239 120.494 192.284 120.544 187.059C120.61 180.133 120.619 179.931 120.893 179.201C121.58 177.377 122.16 176.754 125.522 174.23C127.114 173.035 128.474 171.96 128.544 171.841C128.623 171.709 128.7 169.19 128.742 165.35C128.809 159.349 128.824 159.037 129.09 158.241C129.773 156.196 131.169 154.879 133.236 154.329C133.615 154.228 134.025 154.145 134.148 154.144C134.361 154.143 134.372 155.176 134.372 174.053C134.372 189.217 134.409 194.043 134.525 194.299C134.693 194.666 135.23 195 135.653 195C136.077 195 136.614 194.666 136.781 194.299C136.898 194.043 136.934 189.028 136.934 173.214C136.934 150.432 136.987 151.921 136.165 151.581C135.888 151.466 135.447 151.441 134.711 151.498C132.674 151.654 130.876 152.296 129.412 153.39L128.743 153.89L128.708 143.61C128.675 133.868 128.66 133.306 128.434 132.882C128.102 132.256 127.484 131.628 126.88 131.301L126.367 131.024L110.229 131.002C101.354 130.99 93.947 131.025 93.7705 131.079ZM125.919 133.778C126.154 134.013 126.175 134.205 126.175 136.084V138.133H110.037H93.8994V136.084C93.8994 134.205 93.9208 134.013 94.1556 133.778C94.4089 133.525 94.5824 133.522 110.037 133.522C125.492 133.522 125.666 133.525 125.919 133.778ZM88.4842 138.768C88.7815 138.903 89.5452 139.515 90.1813 140.128L91.3378 141.243V145.291V149.338L88.3195 146.329C86.6595 144.674 85.1612 143.085 84.9899 142.797C84.3329 141.694 84.4656 140.417 85.3355 139.474C86.1729 138.565 87.4211 138.285 88.4842 138.768ZM126.175 155.613V170.532L123.641 172.438C122.246 173.486 120.78 174.704 120.381 175.144C119.02 176.649 118.149 178.783 118.016 180.943L117.94 182.192H108.931H99.9222L98.5228 180.751L97.1234 179.31L97.6807 179.166C98.6473 178.914 99.4475 178.451 100.184 177.716C101.846 176.058 102.226 173.778 101.204 171.594C100.888 170.919 100.464 170.407 98.948 168.87L97.081 166.977L97.5714 166.891C97.8413 166.844 98.3213 166.678 98.6383 166.523L99.2147 166.241L100.44 167.396C102.309 169.158 104.51 170.328 107.022 170.893C108.18 171.153 111.063 171.177 112.279 170.935C117.79 169.842 122.022 165.609 123.116 160.098C123.359 158.874 123.327 156.008 123.057 154.811C122.463 152.174 121.332 150.092 119.451 148.175C117.554 146.241 115.712 145.152 113.16 144.456C112.024 144.146 111.679 144.111 109.781 144.111C107.913 144.111 107.524 144.15 106.425 144.443C104.042 145.08 102.133 146.167 100.336 147.911C98.7115 149.487 97.3068 151.739 96.8252 153.54C96.7361 153.873 96.624 154.131 96.5761 154.112C96.5282 154.094 95.9064 153.518 95.1943 152.833L93.8994 151.587V146.141V140.694H110.037H126.175V155.613ZM112.04 146.831C115.425 147.529 118.278 149.813 119.76 153.01C120.532 154.675 120.726 155.598 120.726 157.601C120.726 159.598 120.532 160.527 119.77 162.17C118.435 165.049 116.235 167.02 113.204 168.051C109.287 169.384 104.615 168.201 101.805 165.166L101.082 164.386L101.332 163.803C102.257 161.645 101.753 159.475 99.867 157.502C99.1254 156.725 98.8945 156.398 98.8945 156.122C98.8945 155.477 99.2951 154.104 99.8024 153.01C101.984 148.305 106.974 145.785 112.04 146.831ZM109.155 148.302C108.734 148.535 108.51 148.986 108.505 149.612C108.5 150.133 108.494 150.141 107.956 150.224C106.623 150.43 105.269 151.465 104.67 152.734C104.394 153.32 104.338 153.622 104.338 154.527C104.338 155.458 104.389 155.72 104.694 156.341C105.148 157.265 105.892 158.009 106.814 158.46C107.484 158.788 107.69 158.82 109.484 158.88C111.187 158.938 111.473 158.979 111.789 159.211C112.923 160.043 112.802 161.741 111.565 162.372C111.206 162.555 110.782 162.596 109.237 162.596C107.518 162.596 107.325 162.573 107.092 162.34C106.937 162.185 106.835 161.913 106.835 161.654C106.835 160.859 105.977 160.257 105.208 160.512C104.773 160.656 104.274 161.356 104.274 161.823C104.274 162.492 104.673 163.508 105.137 164.022C105.797 164.753 106.469 165.059 107.572 165.131L108.5 165.191V165.681C108.5 166.334 108.73 166.802 109.159 167.024C110.144 167.534 111.062 166.88 111.062 165.67C111.062 165.193 111.084 165.165 111.542 165.08C113.166 164.779 114.474 163.58 114.958 161.952C115.228 161.041 115.213 160.36 114.901 159.351C114.57 158.278 113.673 157.254 112.623 156.75C111.96 156.432 111.721 156.394 109.967 156.328C107.842 156.249 107.556 156.155 107.086 155.385C106.594 154.578 106.893 153.519 107.763 152.989C108.131 152.765 108.41 152.735 110.124 152.734C112.307 152.734 112.381 152.761 112.517 153.61C112.691 154.698 113.913 155.154 114.658 154.409C114.979 154.088 115.032 153.936 115.032 153.345C115.032 151.586 113.538 150.172 111.68 150.172H111.062V149.666C111.062 148.997 110.836 148.529 110.403 148.306C109.968 148.081 109.556 148.079 109.155 148.302ZM91.9212 153.385C92.2561 153.542 93.5818 154.778 95.6555 156.867C98.7341 159.967 98.8795 160.136 99.0857 160.845C99.2653 161.463 99.2762 161.688 99.1517 162.207C98.8858 163.316 98.0776 164.124 96.9691 164.39C96.4506 164.514 96.2229 164.504 95.6034 164.325C94.8864 164.119 94.7411 163.992 91.5089 160.76C88.2971 157.548 88.149 157.378 87.9476 156.679C87.6991 155.816 87.7725 155.213 88.2213 154.428C88.9553 153.145 90.4916 152.711 91.9212 153.385ZM91.9212 165.68C92.2561 165.838 93.5818 167.074 95.6555 169.162C98.7341 172.263 98.8795 172.431 99.0857 173.14C99.2653 173.758 99.2762 173.984 99.1517 174.503C98.8858 175.612 98.0776 176.42 96.9691 176.686C96.4506 176.81 96.2229 176.799 95.6034 176.621C94.8864 176.414 94.7411 176.288 91.5089 173.055C88.2971 169.844 88.149 169.674 87.9476 168.975C87.6991 168.112 87.7725 167.508 88.2213 166.724C88.9553 165.44 90.4916 165.007 91.9212 165.68ZM90.8966 176.951C91.2315 177.109 92.5571 178.345 94.6309 180.433C97.7095 183.534 97.8549 183.702 98.0611 184.411C98.2406 185.029 98.2515 185.255 98.127 185.774C97.8611 186.883 97.053 187.691 95.9444 187.957C95.426 188.081 95.1982 188.07 94.5787 187.892C93.8617 187.685 93.7165 187.559 90.4843 184.326C87.2724 181.115 87.1244 180.945 86.9229 180.246C86.6744 179.383 86.7478 178.779 87.1966 177.995C87.9306 176.711 89.467 176.278 90.8966 176.951ZM117.978 188.596V192.438H106.195C94.5824 192.438 94.408 192.435 94.1556 192.182C93.9557 191.982 93.8994 191.755 93.8994 191.149C93.8994 190.471 93.928 190.38 94.1235 190.433C95.2021 190.729 96.5888 190.578 97.7296 190.04C98.647 189.607 99.7776 188.477 100.21 187.559C100.566 186.804 100.871 185.303 100.738 184.958C100.667 184.772 101.45 184.754 109.319 184.754H117.978V188.596ZM105.99 187.751C105.399 188.342 105.399 188.851 105.99 189.441L106.426 189.877H110.031C113.944 189.877 114.194 189.838 114.495 189.176C114.795 188.519 114.579 187.803 113.989 187.498C113.708 187.353 112.901 187.315 110.031 187.315H106.426L105.99 187.751Z" fill="#0066FF"/>
<path fill-rule="evenodd" clip-rule="evenodd" d="M93.7705 131.079C92.8868 131.351 92.0996 132.017 91.6411 132.882C91.4432 133.255 91.3961 133.688 91.36 135.465L91.3165 137.601L90.6548 137.097C87.4088 134.628 82.7702 136.465 82.0805 140.491C81.9732 141.118 81.9732 141.552 82.0805 142.178C82.3575 143.796 82.6442 144.191 85.9856 147.56L89.0475 150.647L88.3035 151.01C86.2216 152.025 84.9609 154.404 85.3186 156.643C85.5523 158.107 86.0376 158.858 88.097 160.947L89.944 162.821L89.4562 162.912C88.6972 163.054 87.6978 163.578 87.0226 164.189C85.6937 165.389 85.034 167.213 85.3109 168.92C85.537 170.313 85.9826 171.065 87.5304 172.666L88.9101 174.094L88.427 174.184C87.6723 174.325 86.6718 174.851 85.9979 175.46C84.6691 176.66 84.0094 178.484 84.2863 180.191C84.5541 181.84 84.8204 182.21 88.2174 185.65L91.3163 188.788L91.3615 190.709C91.4008 192.375 91.4433 192.699 91.6813 193.143C92.0041 193.745 92.6314 194.364 93.259 194.697C93.6864 194.925 94.3082 194.938 106.579 194.97C116.096 194.996 119.544 194.966 119.808 194.857C120.005 194.775 120.235 194.587 120.321 194.438C120.435 194.239 120.494 192.284 120.544 187.059C120.61 180.133 120.619 179.931 120.893 179.201C121.58 177.377 122.16 176.754 125.522 174.23C127.114 173.035 128.474 171.96 128.544 171.841C128.623 171.709 128.7 169.19 128.742 165.35C128.809 159.349 128.824 159.037 129.09 158.241C129.773 156.196 131.169 154.879 133.236 154.329C133.615 154.228 134.025 154.145 134.148 154.144C134.361 154.143 134.372 155.176 134.372 174.053C134.372 189.217 134.409 194.043 134.525 194.299C134.693 194.666 135.23 195 135.653 195C136.077 195 136.614 194.666 136.781 194.299C136.898 194.043 136.934 189.028 136.934 173.214C136.934 150.432 136.987 151.921 136.165 151.581C135.888 151.466 135.447 151.441 134.711 151.498C132.674 151.654 130.876 152.296 129.412 153.39L128.743 153.89L128.708 143.61C128.675 133.868 128.66 133.306 128.434 132.882C128.102 132.256 127.484 131.628 126.88 131.301L126.367 131.024L110.229 131.002C101.354 130.99 93.947 131.025 93.7705 131.079ZM125.919 133.778C126.154 134.013 126.175 134.205 126.175 136.084V138.133H110.037H93.8994V136.084C93.8994 134.205 93.9208 134.013 94.1556 133.778C94.4089 133.525 94.5824 133.522 110.037 133.522C125.492 133.522 125.666 133.525 125.919 133.778ZM88.4842 138.768C88.7815 138.903 89.5452 139.515 90.1813 140.128L91.3378 141.243V145.291V149.338L88.3195 146.329C86.6595 144.674 85.1612 143.085 84.9899 142.797C84.3329 141.694 84.4656 140.417 85.3355 139.474C86.1729 138.565 87.4211 138.285 88.4842 138.768ZM126.175 155.613V170.532L123.641 172.438C122.246 173.486 120.78 174.704 120.381 175.144C119.02 176.649 118.149 178.783 118.016 180.943L117.94 182.192H108.931H99.9222L98.5228 180.751L97.1234 179.31L97.6807 179.166C98.6473 178.914 99.4475 178.451 100.184 177.716C101.846 176.058 102.226 173.778 101.204 171.594C100.888 170.919 100.464 170.407 98.948 168.87L97.081 166.977L97.5714 166.891C97.8413 166.844 98.3213 166.678 98.6383 166.523L99.2147 166.241L100.44 167.396C102.309 169.158 104.51 170.328 107.022 170.893C108.18 171.153 111.063 171.177 112.279 170.935C117.79 169.842 122.022 165.609 123.116 160.098C123.359 158.874 123.327 156.008 123.057 154.811C122.463 152.174 121.332 150.092 119.451 148.175C117.554 146.241 115.712 145.152 113.16 144.456C112.024 144.146 111.679 144.111 109.781 144.111C107.913 144.111 107.524 144.15 106.425 144.443C104.042 145.08 102.133 146.167 100.336 147.911C98.7115 149.487 97.3068 151.739 96.8252 153.54C96.7361 153.873 96.624 154.131 96.5761 154.112C96.5282 154.094 95.9064 153.518 95.1943 152.833L93.8994 151.587V146.141V140.694H110.037H126.175V155.613ZM112.04 146.831C115.425 147.529 118.278 149.813 119.76 153.01C120.532 154.675 120.726 155.598 120.726 157.601C120.726 159.598 120.532 160.527 119.77 162.17C118.435 165.049 116.235 167.02 113.204 168.051C109.287 169.384 104.615 168.201 101.805 165.166L101.082 164.386L101.332 163.803C102.257 161.645 101.753 159.475 99.867 157.502C99.1254 156.725 98.8945 156.398 98.8945 156.122C98.8945 155.477 99.2951 154.104 99.8024 153.01C101.984 148.305 106.974 145.785 112.04 146.831ZM109.155 148.302C108.734 148.535 108.51 148.986 108.505 149.612C108.5 150.133 108.494 150.141 107.956 150.224C106.623 150.43 105.269 151.465 104.67 152.734C104.394 153.32 104.338 153.622 104.338 154.527C104.338 155.458 104.389 155.72 104.694 156.341C105.148 157.265 105.892 158.009 106.814 158.46C107.484 158.788 107.69 158.82 109.484 158.88C111.187 158.938 111.473 158.979 111.789 159.211C112.923 160.043 112.802 161.741 111.565 162.372C111.206 162.555 110.782 162.596 109.237 162.596C107.518 162.596 107.325 162.573 107.092 162.34C106.937 162.185 106.835 161.913 106.835 161.654C106.835 160.859 105.977 160.257 105.208 160.512C104.773 160.656 104.274 161.356 104.274 161.823C104.274 162.492 104.673 163.508 105.137 164.022C105.797 164.753 106.469 165.059 107.572 165.131L108.5 165.191V165.681C108.5 166.334 108.73 166.802 109.159 167.024C110.144 167.534 111.062 166.88 111.062 165.67C111.062 165.193 111.084 165.165 111.542 165.08C113.166 164.779 114.474 163.58 114.958 161.952C115.228 161.041 115.213 160.36 114.901 159.351C114.57 158.278 113.673 157.254 112.623 156.75C111.96 156.432 111.721 156.394 109.967 156.328C107.842 156.249 107.556 156.155 107.086 155.385C106.594 154.578 106.893 153.519 107.763 152.989C108.131 152.765 108.41 152.735 110.124 152.734C112.307 152.734 112.381 152.761 112.517 153.61C112.691 154.698 113.913 155.154 114.658 154.409C114.979 154.088 115.032 153.936 115.032 153.345C115.032 151.586 113.538 150.172 111.68 150.172H111.062V149.666C111.062 148.997 110.836 148.529 110.403 148.306C109.968 148.081 109.556 148.079 109.155 148.302ZM91.9212 153.385C92.2561 153.542 93.5818 154.778 95.6555 156.867C98.7341 159.967 98.8795 160.136 99.0857 160.845C99.2653 161.463 99.2762 161.688 99.1517 162.207C98.8858 163.316 98.0776 164.124 96.9691 164.39C96.4506 164.514 96.2229 164.504 95.6034 164.325C94.8864 164.119 94.7411 163.992 91.5089 160.76C88.2971 157.548 88.149 157.378 87.9476 156.679C87.6991 155.816 87.7725 155.213 88.2213 154.428C88.9553 153.145 90.4916 152.711 91.9212 153.385ZM91.9212 165.68C92.2561 165.838 93.5818 167.074 95.6555 169.162C98.7341 172.263 98.8795 172.431 99.0857 173.14C99.2653 173.758 99.2762 173.984 99.1517 174.503C98.8858 175.612 98.0776 176.42 96.9691 176.686C96.4506 176.81 96.2229 176.799 95.6034 176.621C94.8864 176.414 94.7411 176.288 91.5089 173.055C88.2971 169.844 88.149 169.674 87.9476 168.975C87.6991 168.112 87.7725 167.508 88.2213 166.724C88.9553 165.44 90.4916 165.007 91.9212 165.68ZM90.8966 176.951C91.2315 177.109 92.5571 178.345 94.6309 180.433C97.7095 183.534 97.8549 183.702 98.0611 184.411C98.2406 185.029 98.2515 185.255 98.127 185.774C97.8611 186.883 97.053 187.691 95.9444 187.957C95.426 188.081 95.1982 188.07 94.5787 187.892C93.8617 187.685 93.7165 187.559 90.4843 184.326C87.2724 181.115 87.1244 180.945 86.9229 180.246C86.6744 179.383 86.7478 178.779 87.1966 177.995C87.9306 176.711 89.467 176.278 90.8966 176.951ZM117.978 188.596V192.438H106.195C94.5824 192.438 94.408 192.435 94.1556 192.182C93.9557 191.982 93.8994 191.755 93.8994 191.149C93.8994 190.471 93.928 190.38 94.1235 190.433C95.2021 190.729 96.5888 190.578 97.7296 190.04C98.647 189.607 99.7776 188.477 100.21 187.559C100.566 186.804 100.871 185.303 100.738 184.958C100.667 184.772 101.45 184.754 109.319 184.754H117.978V188.596ZM105.99 187.751C105.399 188.342 105.399 188.851 105.99 189.441L106.426 189.877H110.031C113.944 189.877 114.194 189.838 114.495 189.176C114.795 188.519 114.579 187.803 113.989 187.498C113.708 187.353 112.901 187.315 110.031 187.315H106.426L105.99 187.751Z" fill="url(#paint0_radial_1152_53)" fill-opacity="0.7"/>
<path fill-rule="evenodd" clip-rule="evenodd" d="M93.7705 131.079C92.8868 131.351 92.0996 132.017 91.6411 132.882C91.4432 133.255 91.3961 133.688 91.36 135.465L91.3165 137.601L90.6548 137.097C87.4088 134.628 82.7702 136.465 82.0805 140.491C81.9732 141.118 81.9732 141.552 82.0805 142.178C82.3575 143.796 82.6442 144.191 85.9856 147.56L89.0475 150.647L88.3035 151.01C86.2216 152.025 84.9609 154.404 85.3186 156.643C85.5523 158.107 86.0376 158.858 88.097 160.947L89.944 162.821L89.4562 162.912C88.6972 163.054 87.6978 163.578 87.0226 164.189C85.6937 165.389 85.034 167.213 85.3109 168.92C85.537 170.313 85.9826 171.065 87.5304 172.666L88.9101 174.094L88.427 174.184C87.6723 174.325 86.6718 174.851 85.9979 175.46C84.6691 176.66 84.0094 178.484 84.2863 180.191C84.5541 181.84 84.8204 182.21 88.2174 185.65L91.3163 188.788L91.3615 190.709C91.4008 192.375 91.4433 192.699 91.6813 193.143C92.0041 193.745 92.6314 194.364 93.259 194.697C93.6864 194.925 94.3082 194.938 106.579 194.97C116.096 194.996 119.544 194.966 119.808 194.857C120.005 194.775 120.235 194.587 120.321 194.438C120.435 194.239 120.494 192.284 120.544 187.059C120.61 180.133 120.619 179.931 120.893 179.201C121.58 177.377 122.16 176.754 125.522 174.23C127.114 173.035 128.474 171.96 128.544 171.841C128.623 171.709 128.7 169.19 128.742 165.35C128.809 159.349 128.824 159.037 129.09 158.241C129.773 156.196 131.169 154.879 133.236 154.329C133.615 154.228 134.025 154.145 134.148 154.144C134.361 154.143 134.372 155.176 134.372 174.053C134.372 189.217 134.409 194.043 134.525 194.299C134.693 194.666 135.23 195 135.653 195C136.077 195 136.614 194.666 136.781 194.299C136.898 194.043 136.934 189.028 136.934 173.214C136.934 150.432 136.987 151.921 136.165 151.581C135.888 151.466 135.447 151.441 134.711 151.498C132.674 151.654 130.876 152.296 129.412 153.39L128.743 153.89L128.708 143.61C128.675 133.868 128.66 133.306 128.434 132.882C128.102 132.256 127.484 131.628 126.88 131.301L126.367 131.024L110.229 131.002C101.354 130.99 93.947 131.025 93.7705 131.079ZM125.919 133.778C126.154 134.013 126.175 134.205 126.175 136.084V138.133H110.037H93.8994V136.084C93.8994 134.205 93.9208 134.013 94.1556 133.778C94.4089 133.525 94.5824 133.522 110.037 133.522C125.492 133.522 125.666 133.525 125.919 133.778ZM88.4842 138.768C88.7815 138.903 89.5452 139.515 90.1813 140.128L91.3378 141.243V145.291V149.338L88.3195 146.329C86.6595 144.674 85.1612 143.085 84.9899 142.797C84.3329 141.694 84.4656 140.417 85.3355 139.474C86.1729 138.565 87.4211 138.285 88.4842 138.768ZM126.175 155.613V170.532L123.641 172.438C122.246 173.486 120.78 174.704 120.381 175.144C119.02 176.649 118.149 178.783 118.016 180.943L117.94 182.192H108.931H99.9222L98.5228 180.751L97.1234 179.31L97.6807 179.166C98.6473 178.914 99.4475 178.451 100.184 177.716C101.846 176.058 102.226 173.778 101.204 171.594C100.888 170.919 100.464 170.407 98.948 168.87L97.081 166.977L97.5714 166.891C97.8413 166.844 98.3213 166.678 98.6383 166.523L99.2147 166.241L100.44 167.396C102.309 169.158 104.51 170.328 107.022 170.893C108.18 171.153 111.063 171.177 112.279 170.935C117.79 169.842 122.022 165.609 123.116 160.098C123.359 158.874 123.327 156.008 123.057 154.811C122.463 152.174 121.332 150.092 119.451 148.175C117.554 146.241 115.712 145.152 113.16 144.456C112.024 144.146 111.679 144.111 109.781 144.111C107.913 144.111 107.524 144.15 106.425 144.443C104.042 145.08 102.133 146.167 100.336 147.911C98.7115 149.487 97.3068 151.739 96.8252 153.54C96.7361 153.873 96.624 154.131 96.5761 154.112C96.5282 154.094 95.9064 153.518 95.1943 152.833L93.8994 151.587V146.141V140.694H110.037H126.175V155.613ZM112.04 146.831C115.425 147.529 118.278 149.813 119.76 153.01C120.532 154.675 120.726 155.598 120.726 157.601C120.726 159.598 120.532 160.527 119.77 162.17C118.435 165.049 116.235 167.02 113.204 168.051C109.287 169.384 104.615 168.201 101.805 165.166L101.082 164.386L101.332 163.803C102.257 161.645 101.753 159.475 99.867 157.502C99.1254 156.725 98.8945 156.398 98.8945 156.122C98.8945 155.477 99.2951 154.104 99.8024 153.01C101.984 148.305 106.974 145.785 112.04 146.831ZM109.155 148.302C108.734 148.535 108.51 148.986 108.505 149.612C108.5 150.133 108.494 150.141 107.956 150.224C106.623 150.43 105.269 151.465 104.67 152.734C104.394 153.32 104.338 153.622 104.338 154.527C104.338 155.458 104.389 155.72 104.694 156.341C105.148 157.265 105.892 158.009 106.814 158.46C107.484 158.788 107.69 158.82 109.484 158.88C111.187 158.938 111.473 158.979 111.789 159.211C112.923 160.043 112.802 161.741 111.565 162.372C111.206 162.555 110.782 162.596 109.237 162.596C107.518 162.596 107.325 162.573 107.092 162.34C106.937 162.185 106.835 161.913 106.835 161.654C106.835 160.859 105.977 160.257 105.208 160.512C104.773 160.656 104.274 161.356 104.274 161.823C104.274 162.492 104.673 163.508 105.137 164.022C105.797 164.753 106.469 165.059 107.572 165.131L108.5 165.191V165.681C108.5 166.334 108.73 166.802 109.159 167.024C110.144 167.534 111.062 166.88 111.062 165.67C111.062 165.193 111.084 165.165 111.542 165.08C113.166 164.779 114.474 163.58 114.958 161.952C115.228 161.041 115.213 160.36 114.901 159.351C114.57 158.278 113.673 157.254 112.623 156.75C111.96 156.432 111.721 156.394 109.967 156.328C107.842 156.249 107.556 156.155 107.086 155.385C106.594 154.578 106.893 153.519 107.763 152.989C108.131 152.765 108.41 152.735 110.124 152.734C112.307 152.734 112.381 152.761 112.517 153.61C112.691 154.698 113.913 155.154 114.658 154.409C114.979 154.088 115.032 153.936 115.032 153.345C115.032 151.586 113.538 150.172 111.68 150.172H111.062V149.666C111.062 148.997 110.836 148.529 110.403 148.306C109.968 148.081 109.556 148.079 109.155 148.302ZM91.9212 153.385C92.2561 153.542 93.5818 154.778 95.6555 156.867C98.7341 159.967 98.8795 160.136 99.0857 160.845C99.2653 161.463 99.2762 161.688 99.1517 162.207C98.8858 163.316 98.0776 164.124 96.9691 164.39C96.4506 164.514 96.2229 164.504 95.6034 164.325C94.8864 164.119 94.7411 163.992 91.5089 160.76C88.2971 157.548 88.149 157.378 87.9476 156.679C87.6991 155.816 87.7725 155.213 88.2213 154.428C88.9553 153.145 90.4916 152.711 91.9212 153.385ZM91.9212 165.68C92.2561 165.838 93.5818 167.074 95.6555 169.162C98.7341 172.263 98.8795 172.431 99.0857 173.14C99.2653 173.758 99.2762 173.984 99.1517 174.503C98.8858 175.612 98.0776 176.42 96.9691 176.686C96.4506 176.81 96.2229 176.799 95.6034 176.621C94.8864 176.414 94.7411 176.288 91.5089 173.055C88.2971 169.844 88.149 169.674 87.9476 168.975C87.6991 168.112 87.7725 167.508 88.2213 166.724C88.9553 165.44 90.4916 165.007 91.9212 165.68ZM90.8966 176.951C91.2315 177.109 92.5571 178.345 94.6309 180.433C97.7095 183.534 97.8549 183.702 98.0611 184.411C98.2406 185.029 98.2515 185.255 98.127 185.774C97.8611 186.883 97.053 187.691 95.9444 187.957C95.426 188.081 95.1982 188.07 94.5787 187.892C93.8617 187.685 93.7165 187.559 90.4843 184.326C87.2724 181.115 87.1244 180.945 86.9229 180.246C86.6744 179.383 86.7478 178.779 87.1966 177.995C87.9306 176.711 89.467 176.278 90.8966 176.951ZM117.978 188.596V192.438H106.195C94.5824 192.438 94.408 192.435 94.1556 192.182C93.9557 191.982 93.8994 191.755 93.8994 191.149C93.8994 190.471 93.928 190.38 94.1235 190.433C95.2021 190.729 96.5888 190.578 97.7296 190.04C98.647 189.607 99.7776 188.477 100.21 187.559C100.566 186.804 100.871 185.303 100.738 184.958C100.667 184.772 101.45 184.754 109.319 184.754H117.978V188.596ZM105.99 187.751C105.399 188.342 105.399 188.851 105.99 189.441L106.426 189.877H110.031C113.944 189.877 114.194 189.838 114.495 189.176C114.795 188.519 114.579 187.803 113.989 187.498C113.708 187.353 112.901 187.315 110.031 187.315H106.426L105.99 187.751Z" fill="url(#paint1_radial_1152_53)"/>
<g filter="url(#filter1_bdd_1152_53)">
<rect width="69.2534" height="69.2534" rx="10.5861" transform="matrix(0.978068 0.208284 -0.208283 0.978069 115.425 131)" fill="#D9E2FA" fill-opacity="0.4" shape-rendering="crispEdges"/>
</g>
<defs>
<filter id="filter0_dd_1152_53" x="8.81739" y="53.2174" width="200.448" height="219.649" filterUnits="userSpaceOnUse" color-interpolation-filters="sRGB">
<feFlood flood-opacity="0" result="BackgroundImageFix"/>
<feColorMatrix in="SourceAlpha" type="matrix" values="0 0 0 0 0 0 0 0 0 0 0 0 0 0 0 0 0 0 127 0" result="hardAlpha"/>
<feOffset dx="9.60015" dy="19.2003"/>
<feGaussianBlur stdDeviation="11.8288"/>
<feComposite in2="hardAlpha" operator="out"/>
<feColorMatrix type="matrix" values="0 0 0 0 0.15908 0 0 0 0 0.313986 0 0 0 0 0.495833 0 0 0 0.17 0"/>
<feBlend mode="normal" in2="BackgroundImageFix" result="effect1_dropShadow_1152_53"/>
<feColorMatrix in="SourceAlpha" type="matrix" values="0 0 0 0 0 0 0 0 0 0 0 0 0 0 0 0 0 0 127 0" result="hardAlpha"/>
<feOffset dx="-9.60015" dy="-19.2003"/>
<feGaussianBlur stdDeviation="11.8288"/>
<feComposite in2="hardAlpha" operator="out"/>
<feColorMatrix type="matrix" values="0 0 0 0 1 0 0 0 0 1 0 0 0 0 1 0 0 0 0.7 0"/>
<feBlend mode="normal" in2="effect1_dropShadow_1152_53" result="effect2_dropShadow_1152_53"/>
<feBlend mode="normal" in="SourceGraphic" in2="effect2_dropShadow_1152_53" result="shape"/>
</filter>
<filter id="filter1_bdd_1152_53" x="0.285206" y="0.643631" width="224.307" height="252.889" filterUnits="userSpaceOnUse" color-interpolation-filters="sRGB">
<feFlood flood-opacity="0" result="BackgroundImageFix"/>
<feGaussianBlur in="BackgroundImage" stdDeviation="1.5"/>
<feComposite in2="SourceAlpha" operator="in" result="effect1_backgroundBlur_1152_53"/>
<feColorMatrix in="SourceAlpha" type="matrix" values="0 0 0 0 0 0 0 0 0 0 0 0 0 0 0 0 0 0 127 0" result="hardAlpha"/>
<feOffset dx="10.5861" dy="21.1723"/>
<feGaussianBlur stdDeviation="10.5861"/>
<feComposite in2="hardAlpha" operator="out"/>
<feColorMatrix type="matrix" values="0 0 0 0 0.15908 0 0 0 0 0.313986 0 0 0 0 0.495833 0 0 0 0.17 0"/>
<feBlend mode="normal" in2="effect1_backgroundBlur_1152_53" result="effect2_dropShadow_1152_53"/>
<feColorMatrix in="SourceAlpha" type="matrix" values="0 0 0 0 0 0 0 0 0 0 0 0 0 0 0 0 0 0 127 0" result="hardAlpha"/>
<feOffset dx="-29.6412" dy="-59.2824"/>
<feGaussianBlur stdDeviation="36.5222"/>
<feComposite in2="hardAlpha" operator="out"/>
<feColorMatrix type="matrix" values="0 0 0 0 1 0 0 0 0 1 0 0 0 0 1 0 0 0 0.7 0"/>
<feBlend mode="normal" in2="effect2_dropShadow_1152_53" result="effect3_dropShadow_1152_53"/>
<feBlend mode="normal" in="SourceGraphic" in2="effect3_dropShadow_1152_53" result="shape"/>
</filter>
<radialGradient id="paint0_radial_1152_53" cx="0" cy="0" r="1" gradientUnits="userSpaceOnUse" gradientTransform="translate(96.4967 144.333) rotate(55.2398) scale(50.8527 48.7189)">
<stop stop-color="white" stop-opacity="0.59"/>
<stop offset="0.697917" stop-color="white" stop-opacity="0"/>
<stop offset="1" stop-color="white" stop-opacity="0"/>
</radialGradient>
<radialGradient id="paint1_radial_1152_53" cx="0" cy="0" r="1" gradientUnits="userSpaceOnUse" gradientTransform="translate(129.409 187) rotate(-93.1517) scale(54.7495 52.4339)">
<stop stop-opacity="0.23"/>
<stop offset="0.861815" stop-opacity="0"/>
</radialGradient>
</defs>
</svg>
