<svg width="234" height="271" viewBox="0 0 234 271" fill="none" xmlns="http://www.w3.org/2000/svg">
<g filter="url(#filter0_dd_1152_42)">
<rect x="39.7297" y="130.841" width="108.687" height="108.687" rx="19.5432" transform="rotate(-19.4055 39.7297 130.841)" fill="#EDF0F9"/>
</g>
<path fill-rule="evenodd" clip-rule="evenodd" d="M119.05 134.144C118.338 134.371 117.429 135.026 116.999 135.622C116.234 136.684 116.237 136.643 116.276 144.224L116.311 151.123L116.606 151.688C117.01 152.464 117.692 153.156 118.437 153.545C118.94 153.807 119.288 153.881 120.209 153.925L121.355 153.979L121.397 156.049L121.439 158.119L121.863 158.499C122.229 158.828 122.356 158.871 122.791 158.812C123.246 158.751 123.521 158.516 125.682 156.347L128.07 153.95H132.41C136.467 153.95 136.794 153.934 137.429 153.695C138.337 153.353 139.167 152.596 139.597 151.715L139.948 150.997V143.959V136.921L139.604 136.266C139.167 135.433 138.553 134.815 137.724 134.376L137.072 134.031L128.317 134.006C121.421 133.986 119.454 134.015 119.05 134.144ZM137.038 136.955L137.447 137.366L137.485 143.679C137.511 147.992 137.479 150.141 137.386 150.463C137.121 151.374 137.165 151.366 131.795 151.437L127.008 151.5L125.534 152.976C124.724 153.789 124.02 154.453 123.969 154.453C123.919 154.453 123.878 153.97 123.878 153.381C123.878 151.643 123.604 151.437 121.289 151.437C120.259 151.437 119.761 151.384 119.496 151.246C118.742 150.854 118.75 150.936 118.75 143.953C118.75 138.19 118.77 137.554 118.962 137.227C119.414 136.46 119.129 136.481 128.284 136.514L136.629 136.544L137.038 136.955ZM80.4808 138.379C78.4541 138.777 76.5405 140.712 76.1094 142.801C76.0151 143.258 75.9842 148.718 76.0076 160.8L76.0411 178.143L76.331 178.865C76.9263 180.346 78.2255 181.652 79.6974 182.249L80.4183 182.542L91.6974 182.605L102.976 182.668L100.156 187.098L97.3351 191.528H94.7734H92.2117L91.7865 191.955C91.2096 192.535 91.2096 193.034 91.7865 193.614L92.2117 194.041H107.995H123.777L124.203 193.614C124.78 193.034 124.78 192.535 124.203 191.955L123.777 191.528H121.216H118.654L115.833 187.098L113.013 182.668L124.292 182.605L135.571 182.542L136.256 182.26C137.81 181.621 139.046 180.388 139.658 178.865L139.948 178.143L139.983 167.601C140.021 155.891 140.074 156.635 139.188 156.263C138.824 156.111 138.699 156.109 138.354 156.254C137.519 156.605 137.578 155.836 137.509 167.323C137.45 177.198 137.434 177.79 137.214 178.206C136.889 178.82 136.286 179.436 135.696 179.757L135.196 180.028H107.995C81.7058 180.028 80.7789 180.021 80.3558 179.794C79.7447 179.468 79.1315 178.861 78.8127 178.269L78.5424 177.766V160.423V143.079L78.8127 142.577C79.1315 141.984 79.7447 141.378 80.3558 141.051C80.7744 140.827 81.499 140.814 96.9266 140.754C105.8 140.72 113.16 140.642 113.283 140.582C113.549 140.452 113.873 139.863 113.873 139.51C113.873 139.085 113.591 138.608 113.229 138.42C112.936 138.268 110.518 138.243 96.9641 138.255C88.2078 138.262 80.7904 138.318 80.4808 138.379ZM106.199 147.614C104.328 148.069 102.522 149.507 101.693 151.199C101.221 152.164 100.87 153.522 100.87 154.39C100.87 155.955 101.662 157.928 102.796 159.187L103.492 159.959L102.836 160.336C100.936 161.426 99.3413 163.39 98.6073 165.543C98.1268 166.952 97.9638 168.369 98.0117 170.719L98.0521 172.697L98.4606 173.064L98.869 173.43H107.881H116.893L117.259 173.063L117.624 172.696L117.622 170.141C117.619 166.788 117.362 165.588 116.231 163.659C115.667 162.699 113.866 160.9 112.916 160.351L112.148 159.907L112.707 159.36C113.542 158.543 114.092 157.649 114.444 156.534C115.488 153.228 113.981 149.638 110.934 148.171C109.339 147.403 107.807 147.223 106.199 147.614ZM109.792 150.414C112.47 151.739 113.118 155.187 111.105 157.401C110.277 158.31 109.384 158.747 108.194 158.824C106.534 158.931 105.141 158.277 104.224 156.962C102.808 154.928 103.267 152.3 105.313 150.731C106.51 149.814 108.32 149.686 109.792 150.414ZM109.676 161.683C112.166 162.335 114.281 164.468 114.925 166.976C115.055 167.482 115.123 168.295 115.123 169.332V170.917H107.788H100.453L100.53 169.252C100.656 166.506 101.181 165.164 102.73 163.628C103.743 162.622 104.768 162.014 105.994 161.689C106.911 161.447 108.762 161.444 109.676 161.683ZM112.831 187.048C114.367 189.457 115.623 191.45 115.623 191.478C115.623 191.505 112.19 191.528 107.995 191.528C103.799 191.528 100.366 191.505 100.366 191.478C100.366 191.45 101.442 189.739 102.758 187.676C104.074 185.612 105.34 183.626 105.572 183.261L105.994 182.598L108.016 182.633L110.038 182.668L112.831 187.048Z" fill="#0066FF"/>
<path fill-rule="evenodd" clip-rule="evenodd" d="M119.05 134.144C118.338 134.371 117.429 135.026 116.999 135.622C116.234 136.684 116.237 136.643 116.276 144.224L116.311 151.123L116.606 151.688C117.01 152.464 117.692 153.156 118.437 153.545C118.94 153.807 119.288 153.881 120.209 153.925L121.355 153.979L121.397 156.049L121.439 158.119L121.863 158.499C122.229 158.828 122.356 158.871 122.791 158.812C123.246 158.751 123.521 158.516 125.682 156.347L128.07 153.95H132.41C136.467 153.95 136.794 153.934 137.429 153.695C138.337 153.353 139.167 152.596 139.597 151.715L139.948 150.997V143.959V136.921L139.604 136.266C139.167 135.433 138.553 134.815 137.724 134.376L137.072 134.031L128.317 134.006C121.421 133.986 119.454 134.015 119.05 134.144ZM137.038 136.955L137.447 137.366L137.485 143.679C137.511 147.992 137.479 150.141 137.386 150.463C137.121 151.374 137.165 151.366 131.795 151.437L127.008 151.5L125.534 152.976C124.724 153.789 124.02 154.453 123.969 154.453C123.919 154.453 123.878 153.97 123.878 153.381C123.878 151.643 123.604 151.437 121.289 151.437C120.259 151.437 119.761 151.384 119.496 151.246C118.742 150.854 118.75 150.936 118.75 143.953C118.75 138.19 118.77 137.554 118.962 137.227C119.414 136.46 119.129 136.481 128.284 136.514L136.629 136.544L137.038 136.955ZM80.4808 138.379C78.4541 138.777 76.5405 140.712 76.1094 142.801C76.0151 143.258 75.9842 148.718 76.0076 160.8L76.0411 178.143L76.331 178.865C76.9263 180.346 78.2255 181.652 79.6974 182.249L80.4183 182.542L91.6974 182.605L102.976 182.668L100.156 187.098L97.3351 191.528H94.7734H92.2117L91.7865 191.955C91.2096 192.535 91.2096 193.034 91.7865 193.614L92.2117 194.041H107.995H123.777L124.203 193.614C124.78 193.034 124.78 192.535 124.203 191.955L123.777 191.528H121.216H118.654L115.833 187.098L113.013 182.668L124.292 182.605L135.571 182.542L136.256 182.26C137.81 181.621 139.046 180.388 139.658 178.865L139.948 178.143L139.983 167.601C140.021 155.891 140.074 156.635 139.188 156.263C138.824 156.111 138.699 156.109 138.354 156.254C137.519 156.605 137.578 155.836 137.509 167.323C137.45 177.198 137.434 177.79 137.214 178.206C136.889 178.82 136.286 179.436 135.696 179.757L135.196 180.028H107.995C81.7058 180.028 80.7789 180.021 80.3558 179.794C79.7447 179.468 79.1315 178.861 78.8127 178.269L78.5424 177.766V160.423V143.079L78.8127 142.577C79.1315 141.984 79.7447 141.378 80.3558 141.051C80.7744 140.827 81.499 140.814 96.9266 140.754C105.8 140.72 113.16 140.642 113.283 140.582C113.549 140.452 113.873 139.863 113.873 139.51C113.873 139.085 113.591 138.608 113.229 138.42C112.936 138.268 110.518 138.243 96.9641 138.255C88.2078 138.262 80.7904 138.318 80.4808 138.379ZM106.199 147.614C104.328 148.069 102.522 149.507 101.693 151.199C101.221 152.164 100.87 153.522 100.87 154.39C100.87 155.955 101.662 157.928 102.796 159.187L103.492 159.959L102.836 160.336C100.936 161.426 99.3413 163.39 98.6073 165.543C98.1268 166.952 97.9638 168.369 98.0117 170.719L98.0521 172.697L98.4606 173.064L98.869 173.43H107.881H116.893L117.259 173.063L117.624 172.696L117.622 170.141C117.619 166.788 117.362 165.588 116.231 163.659C115.667 162.699 113.866 160.9 112.916 160.351L112.148 159.907L112.707 159.36C113.542 158.543 114.092 157.649 114.444 156.534C115.488 153.228 113.981 149.638 110.934 148.171C109.339 147.403 107.807 147.223 106.199 147.614ZM109.792 150.414C112.47 151.739 113.118 155.187 111.105 157.401C110.277 158.31 109.384 158.747 108.194 158.824C106.534 158.931 105.141 158.277 104.224 156.962C102.808 154.928 103.267 152.3 105.313 150.731C106.51 149.814 108.32 149.686 109.792 150.414ZM109.676 161.683C112.166 162.335 114.281 164.468 114.925 166.976C115.055 167.482 115.123 168.295 115.123 169.332V170.917H107.788H100.453L100.53 169.252C100.656 166.506 101.181 165.164 102.73 163.628C103.743 162.622 104.768 162.014 105.994 161.689C106.911 161.447 108.762 161.444 109.676 161.683ZM112.831 187.048C114.367 189.457 115.623 191.45 115.623 191.478C115.623 191.505 112.19 191.528 107.995 191.528C103.799 191.528 100.366 191.505 100.366 191.478C100.366 191.45 101.442 189.739 102.758 187.676C104.074 185.612 105.34 183.626 105.572 183.261L105.994 182.598L108.016 182.633L110.038 182.668L112.831 187.048Z" fill="url(#paint0_radial_1152_42)" fill-opacity="0.7"/>
<path fill-rule="evenodd" clip-rule="evenodd" d="M119.05 134.144C118.338 134.371 117.429 135.026 116.999 135.622C116.234 136.684 116.237 136.643 116.276 144.224L116.311 151.123L116.606 151.688C117.01 152.464 117.692 153.156 118.437 153.545C118.94 153.807 119.288 153.881 120.209 153.925L121.355 153.979L121.397 156.049L121.439 158.119L121.863 158.499C122.229 158.828 122.356 158.871 122.791 158.812C123.246 158.751 123.521 158.516 125.682 156.347L128.07 153.95H132.41C136.467 153.95 136.794 153.934 137.429 153.695C138.337 153.353 139.167 152.596 139.597 151.715L139.948 150.997V143.959V136.921L139.604 136.266C139.167 135.433 138.553 134.815 137.724 134.376L137.072 134.031L128.317 134.006C121.421 133.986 119.454 134.015 119.05 134.144ZM137.038 136.955L137.447 137.366L137.485 143.679C137.511 147.992 137.479 150.141 137.386 150.463C137.121 151.374 137.165 151.366 131.795 151.437L127.008 151.5L125.534 152.976C124.724 153.789 124.02 154.453 123.969 154.453C123.919 154.453 123.878 153.97 123.878 153.381C123.878 151.643 123.604 151.437 121.289 151.437C120.259 151.437 119.761 151.384 119.496 151.246C118.742 150.854 118.75 150.936 118.75 143.953C118.75 138.19 118.77 137.554 118.962 137.227C119.414 136.46 119.129 136.481 128.284 136.514L136.629 136.544L137.038 136.955ZM80.4808 138.379C78.4541 138.777 76.5405 140.712 76.1094 142.801C76.0151 143.258 75.9842 148.718 76.0076 160.8L76.0411 178.143L76.331 178.865C76.9263 180.346 78.2255 181.652 79.6974 182.249L80.4183 182.542L91.6974 182.605L102.976 182.668L100.156 187.098L97.3351 191.528H94.7734H92.2117L91.7865 191.955C91.2096 192.535 91.2096 193.034 91.7865 193.614L92.2117 194.041H107.995H123.777L124.203 193.614C124.78 193.034 124.78 192.535 124.203 191.955L123.777 191.528H121.216H118.654L115.833 187.098L113.013 182.668L124.292 182.605L135.571 182.542L136.256 182.26C137.81 181.621 139.046 180.388 139.658 178.865L139.948 178.143L139.983 167.601C140.021 155.891 140.074 156.635 139.188 156.263C138.824 156.111 138.699 156.109 138.354 156.254C137.519 156.605 137.578 155.836 137.509 167.323C137.45 177.198 137.434 177.79 137.214 178.206C136.889 178.82 136.286 179.436 135.696 179.757L135.196 180.028H107.995C81.7058 180.028 80.7789 180.021 80.3558 179.794C79.7447 179.468 79.1315 178.861 78.8127 178.269L78.5424 177.766V160.423V143.079L78.8127 142.577C79.1315 141.984 79.7447 141.378 80.3558 141.051C80.7744 140.827 81.499 140.814 96.9266 140.754C105.8 140.72 113.16 140.642 113.283 140.582C113.549 140.452 113.873 139.863 113.873 139.51C113.873 139.085 113.591 138.608 113.229 138.42C112.936 138.268 110.518 138.243 96.9641 138.255C88.2078 138.262 80.7904 138.318 80.4808 138.379ZM106.199 147.614C104.328 148.069 102.522 149.507 101.693 151.199C101.221 152.164 100.87 153.522 100.87 154.39C100.87 155.955 101.662 157.928 102.796 159.187L103.492 159.959L102.836 160.336C100.936 161.426 99.3413 163.39 98.6073 165.543C98.1268 166.952 97.9638 168.369 98.0117 170.719L98.0521 172.697L98.4606 173.064L98.869 173.43H107.881H116.893L117.259 173.063L117.624 172.696L117.622 170.141C117.619 166.788 117.362 165.588 116.231 163.659C115.667 162.699 113.866 160.9 112.916 160.351L112.148 159.907L112.707 159.36C113.542 158.543 114.092 157.649 114.444 156.534C115.488 153.228 113.981 149.638 110.934 148.171C109.339 147.403 107.807 147.223 106.199 147.614ZM109.792 150.414C112.47 151.739 113.118 155.187 111.105 157.401C110.277 158.31 109.384 158.747 108.194 158.824C106.534 158.931 105.141 158.277 104.224 156.962C102.808 154.928 103.267 152.3 105.313 150.731C106.51 149.814 108.32 149.686 109.792 150.414ZM109.676 161.683C112.166 162.335 114.281 164.468 114.925 166.976C115.055 167.482 115.123 168.295 115.123 169.332V170.917H107.788H100.453L100.53 169.252C100.656 166.506 101.181 165.164 102.73 163.628C103.743 162.622 104.768 162.014 105.994 161.689C106.911 161.447 108.762 161.444 109.676 161.683ZM112.831 187.048C114.367 189.457 115.623 191.45 115.623 191.478C115.623 191.505 112.19 191.528 107.995 191.528C103.799 191.528 100.366 191.505 100.366 191.478C100.366 191.45 101.442 189.739 102.758 187.676C104.074 185.612 105.34 183.626 105.572 183.261L105.994 182.598L108.016 182.633L110.038 182.668L112.831 187.048Z" fill="url(#paint1_radial_1152_42)"/>
<g filter="url(#filter1_bdd_1152_42)">
<rect x="133.546" y="129" width="69.2534" height="69.2534" rx="10.5861" transform="rotate(29.9229 133.546 129)" fill="#D9E2FA" fill-opacity="0.4" shape-rendering="crispEdges"/>
</g>
<defs>
<filter id="filter0_dd_1152_42" x="11.8497" y="57.2493" width="194.385" height="213.585" filterUnits="userSpaceOnUse" color-interpolation-filters="sRGB">
<feFlood flood-opacity="0" result="BackgroundImageFix"/>
<feColorMatrix in="SourceAlpha" type="matrix" values="0 0 0 0 0 0 0 0 0 0 0 0 0 0 0 0 0 0 127 0" result="hardAlpha"/>
<feOffset dx="9.60015" dy="19.2003"/>
<feGaussianBlur stdDeviation="11.8288"/>
<feComposite in2="hardAlpha" operator="out"/>
<feColorMatrix type="matrix" values="0 0 0 0 0.15908 0 0 0 0 0.313986 0 0 0 0 0.495833 0 0 0 0.17 0"/>
<feBlend mode="normal" in2="BackgroundImageFix" result="effect1_dropShadow_1152_42"/>
<feColorMatrix in="SourceAlpha" type="matrix" values="0 0 0 0 0 0 0 0 0 0 0 0 0 0 0 0 0 0 127 0" result="hardAlpha"/>
<feOffset dx="-9.60015" dy="-19.2003"/>
<feGaussianBlur stdDeviation="11.8288"/>
<feComposite in2="hardAlpha" operator="out"/>
<feColorMatrix type="matrix" values="0 0 0 0 1 0 0 0 0 1 0 0 0 0 1 0 0 0 0.7 0"/>
<feBlend mode="normal" in2="effect1_dropShadow_1152_42" result="effect2_dropShadow_1152_42"/>
<feBlend mode="normal" in="SourceGraphic" in2="effect2_dropShadow_1152_42" result="shape"/>
</filter>
<filter id="filter1_bdd_1152_42" x="0.182117" y="0.540848" width="232.921" height="261.504" filterUnits="userSpaceOnUse" color-interpolation-filters="sRGB">
<feFlood flood-opacity="0" result="BackgroundImageFix"/>
<feGaussianBlur in="BackgroundImage" stdDeviation="1.5"/>
<feComposite in2="SourceAlpha" operator="in" result="effect1_backgroundBlur_1152_42"/>
<feColorMatrix in="SourceAlpha" type="matrix" values="0 0 0 0 0 0 0 0 0 0 0 0 0 0 0 0 0 0 127 0" result="hardAlpha"/>
<feOffset dx="10.5861" dy="21.1723"/>
<feGaussianBlur stdDeviation="10.5861"/>
<feComposite in2="hardAlpha" operator="out"/>
<feColorMatrix type="matrix" values="0 0 0 0 0.15908 0 0 0 0 0.313986 0 0 0 0 0.495833 0 0 0 0.17 0"/>
<feBlend mode="normal" in2="effect1_backgroundBlur_1152_42" result="effect2_dropShadow_1152_42"/>
<feColorMatrix in="SourceAlpha" type="matrix" values="0 0 0 0 0 0 0 0 0 0 0 0 0 0 0 0 0 0 127 0" result="hardAlpha"/>
<feOffset dx="-29.6412" dy="-59.2824"/>
<feGaussianBlur stdDeviation="36.5222"/>
<feComposite in2="hardAlpha" operator="out"/>
<feColorMatrix type="matrix" values="0 0 0 0 1 0 0 0 0 1 0 0 0 0 1 0 0 0 0.7 0"/>
<feBlend mode="normal" in2="effect2_dropShadow_1152_42" result="effect3_dropShadow_1152_42"/>
<feBlend mode="normal" in="SourceGraphic" in2="effect3_dropShadow_1152_42" result="shape"/>
</filter>
<radialGradient id="paint0_radial_1152_42" cx="0" cy="0" r="1" gradientUnits="userSpaceOnUse" gradientTransform="translate(92.889 146.509) rotate(49.2446) scale(51.7405 52.334)">
<stop stop-color="white" stop-opacity="0.59"/>
<stop offset="0.697917" stop-color="white" stop-opacity="0"/>
<stop offset="1" stop-color="white" stop-opacity="0"/>
</radialGradient>
<radialGradient id="paint1_radial_1152_42" cx="0" cy="0" r="1" gradientUnits="userSpaceOnUse" gradientTransform="translate(131.233 186.536) rotate(-93.9118) scale(51.405 61.0365)">
<stop stop-opacity="0.23"/>
<stop offset="0.861815" stop-opacity="0"/>
</radialGradient>
</defs>
</svg>
