<svg width="77" height="80" viewBox="0 0 77 80" fill="none" xmlns="http://www.w3.org/2000/svg">
<path fill-rule="evenodd" clip-rule="evenodd" d="M23.5736 0.112972C22.5309 0.333563 21.2743 1.04125 20.4865 1.85182L19.7708 2.58816L17.6141 2.14176C15.7704 1.76016 15.0674 1.69553 12.7712 1.6957C10.541 1.69602 9.86392 1.75528 8.78262 2.04457C5.30818 2.97415 2.72946 5.01027 1.32858 7.93005C0.256715 10.1641 -0.0104368 11.5222 0.000307872 14.6862C0.0125177 18.3166 0.585241 21.1133 2.21762 25.5123C3.62908 29.3162 6.68789 35.1799 9.15559 38.812C9.53247 39.3667 9.84081 39.902 9.84081 40.0013C9.84081 40.1006 9.53247 40.6359 9.15559 41.1905C8.0414 42.8307 5.83532 46.5998 4.80692 48.621C2.75729 52.6488 1.21804 56.8333 0.456143 60.4484C0.0730785 62.2659 0.0128433 62.9327 0.00877338 65.3978C0.00470343 67.8645 0.054031 68.4314 0.376046 69.6231C2.70764 78.2502 11.5753 80.7088 23.8159 76.1215C27.8147 74.6229 32.2202 72.3594 36.3443 69.6843C37.3561 69.0279 38.2494 68.491 38.3295 68.491C38.4094 68.491 39.2348 68.9854 40.1636 69.5899C41.0924 70.1942 42.6899 71.163 43.7137 71.7427L45.575 72.7968L45.5792 73.9405C45.587 76.0095 46.5262 77.7591 48.267 78.9477C50.6226 80.5559 53.6019 80.3028 55.7525 78.3116L56.7208 77.4152L58.9622 77.8738C61.9842 78.4923 65.6259 78.5299 67.8657 77.9661C72.3747 76.831 75.3031 73.8198 76.3678 69.2236C76.7738 67.4709 76.774 63.3426 76.3683 61.2465C75.2158 55.2918 72.292 48.548 68.0185 41.9874C67.3593 40.9756 66.8202 40.0742 66.8202 39.9842C66.8202 39.8942 67.1285 39.3667 67.5054 38.812C70.5652 34.3084 73.4622 28.5387 75.0496 23.7874C76.2222 20.2773 76.6393 17.9353 76.6556 14.7676C76.6724 11.5154 76.4153 10.1869 75.3324 7.93005C74.7167 6.64671 74.3655 6.15864 73.2694 5.06236C72.1731 3.96624 71.6851 3.61509 70.4017 2.99938C68.1449 1.91645 66.8164 1.65939 63.5642 1.67616C61.3145 1.68772 60.5399 1.76081 58.7973 2.12581C53.156 3.3074 47.1304 5.9711 40.2689 10.3163C39.2309 10.9737 38.3372 11.5116 38.2828 11.5116C38.2284 11.5116 37.3561 10.9736 36.3443 10.3159C35.3326 9.65815 33.6741 8.65629 32.6589 8.08976C30.8564 7.08366 30.8149 7.04769 30.8901 6.55864C31.0059 5.80602 30.7415 4.43298 30.2917 3.45033C29.2019 1.07006 26.1701 -0.435984 23.5736 0.112972ZM26.4198 3.84138C26.707 4.04585 27.0868 4.49713 27.264 4.84405C28.7119 7.68227 24.9438 10.2999 22.81 7.93819C21.596 6.59446 21.9375 4.52562 23.5159 3.66327C24.2913 3.23951 25.6956 3.32563 26.4198 3.84138ZM17.0039 5.39366C18.8649 5.79853 18.741 5.70037 18.8326 6.8424C18.9933 8.84286 20.3629 10.7181 22.3408 11.6451C23.1461 12.0226 23.4807 12.0814 24.8217 12.0814C26.2359 12.0814 26.4643 12.0358 27.4281 11.5614C28.0089 11.2754 28.6909 10.8257 28.9434 10.5622L29.4025 10.0831L30.7535 10.838C31.4967 11.2533 32.2759 11.7101 32.4851 11.8533C32.8621 12.1112 32.8575 12.1153 31.9757 12.3144C28.8335 13.0237 24.5521 14.9445 21.8879 16.8403C19.8978 18.2565 16.5763 21.5804 15.1739 23.5587C13.191 26.3562 11.4427 30.2842 10.541 33.9685L10.4038 34.5292L9.68403 33.3178C7.84051 30.2145 5.72152 25.5587 4.64999 22.2563C3.44707 18.5492 3.00182 14.1415 3.57096 11.5749C4.32748 8.16334 6.46567 6.00415 9.84081 5.24323C11.2121 4.93408 15.2846 5.01955 17.0039 5.39366ZM67.0487 5.32121C70.3934 6.17671 72.3397 8.19134 73.09 11.5749C73.4955 13.4037 73.3531 16.9351 72.774 19.4073C71.7642 23.7184 69.6379 28.8042 66.9244 33.3995L66.2564 34.5305L66.0438 33.7251C65.0199 29.8485 63.412 26.2577 61.4915 23.5587C60.0795 21.5745 56.7573 18.2523 54.7731 16.8403C52.1247 14.9558 48.2143 13.1744 45.0278 12.4008C43.8658 12.1188 43.8401 12.1021 44.1801 11.8455C44.3731 11.7001 45.6448 10.9824 47.0065 10.2506C51.186 8.00429 55.3422 6.37158 58.8678 5.59097C61.2624 5.06073 61.3303 5.05276 63.7416 5.0241C65.3122 5.00538 66.0851 5.0749 67.0487 5.32121ZM43.2958 15.4175C48.3378 16.4911 52.3347 18.6664 55.9999 22.3318C59.6732 26.0049 61.8337 29.9881 62.9348 35.1173C63.4672 37.5964 63.4672 42.4061 62.9348 44.8852C61.9694 49.3822 59.8135 53.663 56.9644 56.7402L55.8792 57.9123L55.1018 56.8118C53.4818 54.5185 50.7307 52.3069 48.1742 51.2425C45.3415 50.0634 45.0687 50.0285 38.5747 50.0205C33.0299 50.0137 32.6418 50.0328 31.3759 50.3728C27.3836 51.4454 23.7285 53.95 21.6637 57.028L20.9528 58.0877L19.7788 56.818C17.6364 54.5014 15.5627 50.9973 14.5655 48.0093C13.0364 43.4269 12.8648 38.2646 14.0851 33.5509C15.6074 27.6713 19.8014 22.0054 25.0624 18.7211C27.6005 17.1368 30.9865 15.8298 33.7721 15.3593C34.6228 15.2158 35.5019 15.0657 35.7257 15.0258C35.9496 14.986 37.3781 14.9799 38.9003 15.0121C40.9211 15.0551 42.1071 15.1645 43.2958 15.4175ZM36.5397 27.7198C32.0491 28.6878 28.9444 32.8813 29.2652 37.5456C29.3961 39.4478 29.7224 40.6054 30.6682 42.5247C33.2728 47.8084 37.8849 49.861 41.912 47.5284C45.0762 45.696 47.61 41.0717 47.6422 37.0709C47.6652 34.2197 46.8552 32.236 44.8479 30.2269C42.5382 27.9153 39.661 27.047 36.5397 27.7198ZM40.9686 31.4238C41.465 31.6667 42.2152 32.2331 42.6355 32.6825C44.6961 34.8854 44.8865 37.6703 43.2105 41.0904C42.1033 43.3499 40.3793 44.9297 38.7821 45.1485C36.318 45.4863 33.1875 41.8028 32.6374 37.9183C32.2558 35.2243 33.511 32.6816 35.8071 31.497C36.8518 30.9582 37.1927 30.8916 38.6693 30.9382C39.8001 30.9738 40.2382 31.0663 40.9686 31.4238ZM11.3333 48.697C12.1161 51.2088 13.6355 54.2735 15.1739 56.4439C16.5763 58.4222 19.8978 61.7461 21.8879 63.1623C24.5869 65.0828 28.1777 66.6907 32.0543 67.7146L32.8597 67.9272L31.6473 68.6482C28.6031 70.4585 23.8411 72.6254 20.5855 73.6818C16.9471 74.8624 12.449 75.326 9.97463 74.7756C7.56326 74.239 5.58103 72.922 4.558 71.1763C4.34425 70.8115 3.99847 70.0032 3.78976 69.38C3.4487 68.3614 3.41093 67.9588 3.41646 65.3978C3.42184 62.8647 3.47279 62.3351 3.87588 60.62C4.89483 56.2844 6.96888 51.3273 9.74052 46.6039L10.4038 45.4734L10.541 46.0341C10.6164 46.3423 10.9729 47.5406 11.3333 48.697ZM67.3048 47.2458C69.8026 51.5852 71.8124 56.4906 72.7739 60.5953C73.3505 63.0564 73.495 66.5942 73.0939 68.4276C72.1363 72.804 69.0622 74.998 63.8898 74.9969C62.0806 74.9964 60.6563 74.8344 58.8499 74.4235L57.7473 74.1728L57.6603 73.2136C57.4781 71.2058 56.1907 69.3768 54.3072 68.4503C53.3108 67.9601 53.1114 67.9212 51.601 67.9212C50.1329 67.9212 49.8813 67.9669 49.0752 68.3801C48.5827 68.6326 47.9473 69.0629 47.663 69.3362L47.1463 69.8332L45.7909 69.0914C43.6024 67.8935 43.6273 67.9417 45.0244 67.6026C48.2145 66.8281 52.1234 65.0478 54.7731 63.1623C56.7573 61.7503 60.0795 58.4281 61.4915 56.4439C63.4025 53.7582 65.2418 49.657 66.0057 46.3779C66.1167 45.9006 66.2649 45.5709 66.3345 45.6453C66.4044 45.7197 66.8408 46.44 67.3048 47.2458ZM44.9238 53.6581C48.1586 54.5305 50.9394 56.498 52.6805 59.1459L53.2993 60.0867L52.4488 60.7065C51.2897 61.5512 47.6518 63.3454 46.074 63.8507C43.232 64.7606 41.747 64.9766 38.3305 64.9766C34.8953 64.9766 33.3401 64.7481 30.5806 63.8377C28.2214 63.0592 23.6786 60.6806 23.6786 60.2234C23.6786 59.9012 24.7798 58.3996 25.7732 57.3668C27.9376 55.1165 30.5541 53.7789 33.6193 53.356C34.1957 53.2763 36.6822 53.2327 39.1445 53.2591C43.126 53.3016 43.7655 53.3457 44.9238 53.6581ZM52.7381 71.402C54.8604 72.3765 54.9689 75.1691 52.9292 76.3155C52.4321 76.5951 52.1159 76.6533 51.4139 76.5951C49.9504 76.4738 49.0693 75.5899 48.9474 74.1213C48.8495 72.9399 49.3933 71.9459 50.4138 71.4407C51.264 71.0199 51.8836 71.0095 52.7381 71.402Z" fill="#0066FF"/>
<path fill-rule="evenodd" clip-rule="evenodd" d="M23.5736 0.112972C22.5309 0.333563 21.2743 1.04125 20.4865 1.85182L19.7708 2.58816L17.6141 2.14176C15.7704 1.76016 15.0674 1.69553 12.7712 1.6957C10.541 1.69602 9.86392 1.75528 8.78262 2.04457C5.30818 2.97415 2.72946 5.01027 1.32858 7.93005C0.256715 10.1641 -0.0104368 11.5222 0.000307872 14.6862C0.0125177 18.3166 0.585241 21.1133 2.21762 25.5123C3.62908 29.3162 6.68789 35.1799 9.15559 38.812C9.53247 39.3667 9.84081 39.902 9.84081 40.0013C9.84081 40.1006 9.53247 40.6359 9.15559 41.1905C8.0414 42.8307 5.83532 46.5998 4.80692 48.621C2.75729 52.6488 1.21804 56.8333 0.456143 60.4484C0.0730785 62.2659 0.0128433 62.9327 0.00877338 65.3978C0.00470343 67.8645 0.054031 68.4314 0.376046 69.6231C2.70764 78.2502 11.5753 80.7088 23.8159 76.1215C27.8147 74.6229 32.2202 72.3594 36.3443 69.6843C37.3561 69.0279 38.2494 68.491 38.3295 68.491C38.4094 68.491 39.2348 68.9854 40.1636 69.5899C41.0924 70.1942 42.6899 71.163 43.7137 71.7427L45.575 72.7968L45.5792 73.9405C45.587 76.0095 46.5262 77.7591 48.267 78.9477C50.6226 80.5559 53.6019 80.3028 55.7525 78.3116L56.7208 77.4152L58.9622 77.8738C61.9842 78.4923 65.6259 78.5299 67.8657 77.9661C72.3747 76.831 75.3031 73.8198 76.3678 69.2236C76.7738 67.4709 76.774 63.3426 76.3683 61.2465C75.2158 55.2918 72.292 48.548 68.0185 41.9874C67.3593 40.9756 66.8202 40.0742 66.8202 39.9842C66.8202 39.8942 67.1285 39.3667 67.5054 38.812C70.5652 34.3084 73.4622 28.5387 75.0496 23.7874C76.2222 20.2773 76.6393 17.9353 76.6556 14.7676C76.6724 11.5154 76.4153 10.1869 75.3324 7.93005C74.7167 6.64671 74.3655 6.15864 73.2694 5.06236C72.1731 3.96624 71.6851 3.61509 70.4017 2.99938C68.1449 1.91645 66.8164 1.65939 63.5642 1.67616C61.3145 1.68772 60.5399 1.76081 58.7973 2.12581C53.156 3.3074 47.1304 5.9711 40.2689 10.3163C39.2309 10.9737 38.3372 11.5116 38.2828 11.5116C38.2284 11.5116 37.3561 10.9736 36.3443 10.3159C35.3326 9.65815 33.6741 8.65629 32.6589 8.08976C30.8564 7.08366 30.8149 7.04769 30.8901 6.55864C31.0059 5.80602 30.7415 4.43298 30.2917 3.45033C29.2019 1.07006 26.1701 -0.435984 23.5736 0.112972ZM26.4198 3.84138C26.707 4.04585 27.0868 4.49713 27.264 4.84405C28.7119 7.68227 24.9438 10.2999 22.81 7.93819C21.596 6.59446 21.9375 4.52562 23.5159 3.66327C24.2913 3.23951 25.6956 3.32563 26.4198 3.84138ZM17.0039 5.39366C18.8649 5.79853 18.741 5.70037 18.8326 6.8424C18.9933 8.84286 20.3629 10.7181 22.3408 11.6451C23.1461 12.0226 23.4807 12.0814 24.8217 12.0814C26.2359 12.0814 26.4643 12.0358 27.4281 11.5614C28.0089 11.2754 28.6909 10.8257 28.9434 10.5622L29.4025 10.0831L30.7535 10.838C31.4967 11.2533 32.2759 11.7101 32.4851 11.8533C32.8621 12.1112 32.8575 12.1153 31.9757 12.3144C28.8335 13.0237 24.5521 14.9445 21.8879 16.8403C19.8978 18.2565 16.5763 21.5804 15.1739 23.5587C13.191 26.3562 11.4427 30.2842 10.541 33.9685L10.4038 34.5292L9.68403 33.3178C7.84051 30.2145 5.72152 25.5587 4.64999 22.2563C3.44707 18.5492 3.00182 14.1415 3.57096 11.5749C4.32748 8.16334 6.46567 6.00415 9.84081 5.24323C11.2121 4.93408 15.2846 5.01955 17.0039 5.39366ZM67.0487 5.32121C70.3934 6.17671 72.3397 8.19134 73.09 11.5749C73.4955 13.4037 73.3531 16.9351 72.774 19.4073C71.7642 23.7184 69.6379 28.8042 66.9244 33.3995L66.2564 34.5305L66.0438 33.7251C65.0199 29.8485 63.412 26.2577 61.4915 23.5587C60.0795 21.5745 56.7573 18.2523 54.7731 16.8403C52.1247 14.9558 48.2143 13.1744 45.0278 12.4008C43.8658 12.1188 43.8401 12.1021 44.1801 11.8455C44.3731 11.7001 45.6448 10.9824 47.0065 10.2506C51.186 8.00429 55.3422 6.37158 58.8678 5.59097C61.2624 5.06073 61.3303 5.05276 63.7416 5.0241C65.3122 5.00538 66.0851 5.0749 67.0487 5.32121ZM43.2958 15.4175C48.3378 16.4911 52.3347 18.6664 55.9999 22.3318C59.6732 26.0049 61.8337 29.9881 62.9348 35.1173C63.4672 37.5964 63.4672 42.4061 62.9348 44.8852C61.9694 49.3822 59.8135 53.663 56.9644 56.7402L55.8792 57.9123L55.1018 56.8118C53.4818 54.5185 50.7307 52.3069 48.1742 51.2425C45.3415 50.0634 45.0687 50.0285 38.5747 50.0205C33.0299 50.0137 32.6418 50.0328 31.3759 50.3728C27.3836 51.4454 23.7285 53.95 21.6637 57.028L20.9528 58.0877L19.7788 56.818C17.6364 54.5014 15.5627 50.9973 14.5655 48.0093C13.0364 43.4269 12.8648 38.2646 14.0851 33.5509C15.6074 27.6713 19.8014 22.0054 25.0624 18.7211C27.6005 17.1368 30.9865 15.8298 33.7721 15.3593C34.6228 15.2158 35.5019 15.0657 35.7257 15.0258C35.9496 14.986 37.3781 14.9799 38.9003 15.0121C40.9211 15.0551 42.1071 15.1645 43.2958 15.4175ZM36.5397 27.7198C32.0491 28.6878 28.9444 32.8813 29.2652 37.5456C29.3961 39.4478 29.7224 40.6054 30.6682 42.5247C33.2728 47.8084 37.8849 49.861 41.912 47.5284C45.0762 45.696 47.61 41.0717 47.6422 37.0709C47.6652 34.2197 46.8552 32.236 44.8479 30.2269C42.5382 27.9153 39.661 27.047 36.5397 27.7198ZM40.9686 31.4238C41.465 31.6667 42.2152 32.2331 42.6355 32.6825C44.6961 34.8854 44.8865 37.6703 43.2105 41.0904C42.1033 43.3499 40.3793 44.9297 38.7821 45.1485C36.318 45.4863 33.1875 41.8028 32.6374 37.9183C32.2558 35.2243 33.511 32.6816 35.8071 31.497C36.8518 30.9582 37.1927 30.8916 38.6693 30.9382C39.8001 30.9738 40.2382 31.0663 40.9686 31.4238ZM11.3333 48.697C12.1161 51.2088 13.6355 54.2735 15.1739 56.4439C16.5763 58.4222 19.8978 61.7461 21.8879 63.1623C24.5869 65.0828 28.1777 66.6907 32.0543 67.7146L32.8597 67.9272L31.6473 68.6482C28.6031 70.4585 23.8411 72.6254 20.5855 73.6818C16.9471 74.8624 12.449 75.326 9.97463 74.7756C7.56326 74.239 5.58103 72.922 4.558 71.1763C4.34425 70.8115 3.99847 70.0032 3.78976 69.38C3.4487 68.3614 3.41093 67.9588 3.41646 65.3978C3.42184 62.8647 3.47279 62.3351 3.87588 60.62C4.89483 56.2844 6.96888 51.3273 9.74052 46.6039L10.4038 45.4734L10.541 46.0341C10.6164 46.3423 10.9729 47.5406 11.3333 48.697ZM67.3048 47.2458C69.8026 51.5852 71.8124 56.4906 72.7739 60.5953C73.3505 63.0564 73.495 66.5942 73.0939 68.4276C72.1363 72.804 69.0622 74.998 63.8898 74.9969C62.0806 74.9964 60.6563 74.8344 58.8499 74.4235L57.7473 74.1728L57.6603 73.2136C57.4781 71.2058 56.1907 69.3768 54.3072 68.4503C53.3108 67.9601 53.1114 67.9212 51.601 67.9212C50.1329 67.9212 49.8813 67.9669 49.0752 68.3801C48.5827 68.6326 47.9473 69.0629 47.663 69.3362L47.1463 69.8332L45.7909 69.0914C43.6024 67.8935 43.6273 67.9417 45.0244 67.6026C48.2145 66.8281 52.1234 65.0478 54.7731 63.1623C56.7573 61.7503 60.0795 58.4281 61.4915 56.4439C63.4025 53.7582 65.2418 49.657 66.0057 46.3779C66.1167 45.9006 66.2649 45.5709 66.3345 45.6453C66.4044 45.7197 66.8408 46.44 67.3048 47.2458ZM44.9238 53.6581C48.1586 54.5305 50.9394 56.498 52.6805 59.1459L53.2993 60.0867L52.4488 60.7065C51.2897 61.5512 47.6518 63.3454 46.074 63.8507C43.232 64.7606 41.747 64.9766 38.3305 64.9766C34.8953 64.9766 33.3401 64.7481 30.5806 63.8377C28.2214 63.0592 23.6786 60.6806 23.6786 60.2234C23.6786 59.9012 24.7798 58.3996 25.7732 57.3668C27.9376 55.1165 30.5541 53.7789 33.6193 53.356C34.1957 53.2763 36.6822 53.2327 39.1445 53.2591C43.126 53.3016 43.7655 53.3457 44.9238 53.6581ZM52.7381 71.402C54.8604 72.3765 54.9689 75.1691 52.9292 76.3155C52.4321 76.5951 52.1159 76.6533 51.4139 76.5951C49.9504 76.4738 49.0693 75.5899 48.9474 74.1213C48.8495 72.9399 49.3933 71.9459 50.4138 71.4407C51.264 71.0199 51.8836 71.0095 52.7381 71.402Z" fill="url(#paint0_radial_1217_787)" fill-opacity="0.7"/>
<path fill-rule="evenodd" clip-rule="evenodd" d="M23.5736 0.112972C22.5309 0.333563 21.2743 1.04125 20.4865 1.85182L19.7708 2.58816L17.6141 2.14176C15.7704 1.76016 15.0674 1.69553 12.7712 1.6957C10.541 1.69602 9.86392 1.75528 8.78262 2.04457C5.30818 2.97415 2.72946 5.01027 1.32858 7.93005C0.256715 10.1641 -0.0104368 11.5222 0.000307872 14.6862C0.0125177 18.3166 0.585241 21.1133 2.21762 25.5123C3.62908 29.3162 6.68789 35.1799 9.15559 38.812C9.53247 39.3667 9.84081 39.902 9.84081 40.0013C9.84081 40.1006 9.53247 40.6359 9.15559 41.1905C8.0414 42.8307 5.83532 46.5998 4.80692 48.621C2.75729 52.6488 1.21804 56.8333 0.456143 60.4484C0.0730785 62.2659 0.0128433 62.9327 0.00877338 65.3978C0.00470343 67.8645 0.054031 68.4314 0.376046 69.6231C2.70764 78.2502 11.5753 80.7088 23.8159 76.1215C27.8147 74.6229 32.2202 72.3594 36.3443 69.6843C37.3561 69.0279 38.2494 68.491 38.3295 68.491C38.4094 68.491 39.2348 68.9854 40.1636 69.5899C41.0924 70.1942 42.6899 71.163 43.7137 71.7427L45.575 72.7968L45.5792 73.9405C45.587 76.0095 46.5262 77.7591 48.267 78.9477C50.6226 80.5559 53.6019 80.3028 55.7525 78.3116L56.7208 77.4152L58.9622 77.8738C61.9842 78.4923 65.6259 78.5299 67.8657 77.9661C72.3747 76.831 75.3031 73.8198 76.3678 69.2236C76.7738 67.4709 76.774 63.3426 76.3683 61.2465C75.2158 55.2918 72.292 48.548 68.0185 41.9874C67.3593 40.9756 66.8202 40.0742 66.8202 39.9842C66.8202 39.8942 67.1285 39.3667 67.5054 38.812C70.5652 34.3084 73.4622 28.5387 75.0496 23.7874C76.2222 20.2773 76.6393 17.9353 76.6556 14.7676C76.6724 11.5154 76.4153 10.1869 75.3324 7.93005C74.7167 6.64671 74.3655 6.15864 73.2694 5.06236C72.1731 3.96624 71.6851 3.61509 70.4017 2.99938C68.1449 1.91645 66.8164 1.65939 63.5642 1.67616C61.3145 1.68772 60.5399 1.76081 58.7973 2.12581C53.156 3.3074 47.1304 5.9711 40.2689 10.3163C39.2309 10.9737 38.3372 11.5116 38.2828 11.5116C38.2284 11.5116 37.3561 10.9736 36.3443 10.3159C35.3326 9.65815 33.6741 8.65629 32.6589 8.08976C30.8564 7.08366 30.8149 7.04769 30.8901 6.55864C31.0059 5.80602 30.7415 4.43298 30.2917 3.45033C29.2019 1.07006 26.1701 -0.435984 23.5736 0.112972ZM26.4198 3.84138C26.707 4.04585 27.0868 4.49713 27.264 4.84405C28.7119 7.68227 24.9438 10.2999 22.81 7.93819C21.596 6.59446 21.9375 4.52562 23.5159 3.66327C24.2913 3.23951 25.6956 3.32563 26.4198 3.84138ZM17.0039 5.39366C18.8649 5.79853 18.741 5.70037 18.8326 6.8424C18.9933 8.84286 20.3629 10.7181 22.3408 11.6451C23.1461 12.0226 23.4807 12.0814 24.8217 12.0814C26.2359 12.0814 26.4643 12.0358 27.4281 11.5614C28.0089 11.2754 28.6909 10.8257 28.9434 10.5622L29.4025 10.0831L30.7535 10.838C31.4967 11.2533 32.2759 11.7101 32.4851 11.8533C32.8621 12.1112 32.8575 12.1153 31.9757 12.3144C28.8335 13.0237 24.5521 14.9445 21.8879 16.8403C19.8978 18.2565 16.5763 21.5804 15.1739 23.5587C13.191 26.3562 11.4427 30.2842 10.541 33.9685L10.4038 34.5292L9.68403 33.3178C7.84051 30.2145 5.72152 25.5587 4.64999 22.2563C3.44707 18.5492 3.00182 14.1415 3.57096 11.5749C4.32748 8.16334 6.46567 6.00415 9.84081 5.24323C11.2121 4.93408 15.2846 5.01955 17.0039 5.39366ZM67.0487 5.32121C70.3934 6.17671 72.3397 8.19134 73.09 11.5749C73.4955 13.4037 73.3531 16.9351 72.774 19.4073C71.7642 23.7184 69.6379 28.8042 66.9244 33.3995L66.2564 34.5305L66.0438 33.7251C65.0199 29.8485 63.412 26.2577 61.4915 23.5587C60.0795 21.5745 56.7573 18.2523 54.7731 16.8403C52.1247 14.9558 48.2143 13.1744 45.0278 12.4008C43.8658 12.1188 43.8401 12.1021 44.1801 11.8455C44.3731 11.7001 45.6448 10.9824 47.0065 10.2506C51.186 8.00429 55.3422 6.37158 58.8678 5.59097C61.2624 5.06073 61.3303 5.05276 63.7416 5.0241C65.3122 5.00538 66.0851 5.0749 67.0487 5.32121ZM43.2958 15.4175C48.3378 16.4911 52.3347 18.6664 55.9999 22.3318C59.6732 26.0049 61.8337 29.9881 62.9348 35.1173C63.4672 37.5964 63.4672 42.4061 62.9348 44.8852C61.9694 49.3822 59.8135 53.663 56.9644 56.7402L55.8792 57.9123L55.1018 56.8118C53.4818 54.5185 50.7307 52.3069 48.1742 51.2425C45.3415 50.0634 45.0687 50.0285 38.5747 50.0205C33.0299 50.0137 32.6418 50.0328 31.3759 50.3728C27.3836 51.4454 23.7285 53.95 21.6637 57.028L20.9528 58.0877L19.7788 56.818C17.6364 54.5014 15.5627 50.9973 14.5655 48.0093C13.0364 43.4269 12.8648 38.2646 14.0851 33.5509C15.6074 27.6713 19.8014 22.0054 25.0624 18.7211C27.6005 17.1368 30.9865 15.8298 33.7721 15.3593C34.6228 15.2158 35.5019 15.0657 35.7257 15.0258C35.9496 14.986 37.3781 14.9799 38.9003 15.0121C40.9211 15.0551 42.1071 15.1645 43.2958 15.4175ZM36.5397 27.7198C32.0491 28.6878 28.9444 32.8813 29.2652 37.5456C29.3961 39.4478 29.7224 40.6054 30.6682 42.5247C33.2728 47.8084 37.8849 49.861 41.912 47.5284C45.0762 45.696 47.61 41.0717 47.6422 37.0709C47.6652 34.2197 46.8552 32.236 44.8479 30.2269C42.5382 27.9153 39.661 27.047 36.5397 27.7198ZM40.9686 31.4238C41.465 31.6667 42.2152 32.2331 42.6355 32.6825C44.6961 34.8854 44.8865 37.6703 43.2105 41.0904C42.1033 43.3499 40.3793 44.9297 38.7821 45.1485C36.318 45.4863 33.1875 41.8028 32.6374 37.9183C32.2558 35.2243 33.511 32.6816 35.8071 31.497C36.8518 30.9582 37.1927 30.8916 38.6693 30.9382C39.8001 30.9738 40.2382 31.0663 40.9686 31.4238ZM11.3333 48.697C12.1161 51.2088 13.6355 54.2735 15.1739 56.4439C16.5763 58.4222 19.8978 61.7461 21.8879 63.1623C24.5869 65.0828 28.1777 66.6907 32.0543 67.7146L32.8597 67.9272L31.6473 68.6482C28.6031 70.4585 23.8411 72.6254 20.5855 73.6818C16.9471 74.8624 12.449 75.326 9.97463 74.7756C7.56326 74.239 5.58103 72.922 4.558 71.1763C4.34425 70.8115 3.99847 70.0032 3.78976 69.38C3.4487 68.3614 3.41093 67.9588 3.41646 65.3978C3.42184 62.8647 3.47279 62.3351 3.87588 60.62C4.89483 56.2844 6.96888 51.3273 9.74052 46.6039L10.4038 45.4734L10.541 46.0341C10.6164 46.3423 10.9729 47.5406 11.3333 48.697ZM67.3048 47.2458C69.8026 51.5852 71.8124 56.4906 72.7739 60.5953C73.3505 63.0564 73.495 66.5942 73.0939 68.4276C72.1363 72.804 69.0622 74.998 63.8898 74.9969C62.0806 74.9964 60.6563 74.8344 58.8499 74.4235L57.7473 74.1728L57.6603 73.2136C57.4781 71.2058 56.1907 69.3768 54.3072 68.4503C53.3108 67.9601 53.1114 67.9212 51.601 67.9212C50.1329 67.9212 49.8813 67.9669 49.0752 68.3801C48.5827 68.6326 47.9473 69.0629 47.663 69.3362L47.1463 69.8332L45.7909 69.0914C43.6024 67.8935 43.6273 67.9417 45.0244 67.6026C48.2145 66.8281 52.1234 65.0478 54.7731 63.1623C56.7573 61.7503 60.0795 58.4281 61.4915 56.4439C63.4025 53.7582 65.2418 49.657 66.0057 46.3779C66.1167 45.9006 66.2649 45.5709 66.3345 45.6453C66.4044 45.7197 66.8408 46.44 67.3048 47.2458ZM44.9238 53.6581C48.1586 54.5305 50.9394 56.498 52.6805 59.1459L53.2993 60.0867L52.4488 60.7065C51.2897 61.5512 47.6518 63.3454 46.074 63.8507C43.232 64.7606 41.747 64.9766 38.3305 64.9766C34.8953 64.9766 33.3401 64.7481 30.5806 63.8377C28.2214 63.0592 23.6786 60.6806 23.6786 60.2234C23.6786 59.9012 24.7798 58.3996 25.7732 57.3668C27.9376 55.1165 30.5541 53.7789 33.6193 53.356C34.1957 53.2763 36.6822 53.2327 39.1445 53.2591C43.126 53.3016 43.7655 53.3457 44.9238 53.6581ZM52.7381 71.402C54.8604 72.3765 54.9689 75.1691 52.9292 76.3155C52.4321 76.5951 52.1159 76.6533 51.4139 76.5951C49.9504 76.4738 49.0693 75.5899 48.9474 74.1213C48.8495 72.9399 49.3933 71.9459 50.4138 71.4407C51.264 71.0199 51.8836 71.0095 52.7381 71.402Z" fill="url(#paint1_radial_1217_787)"/>
<defs>
<radialGradient id="paint0_radial_1217_787" cx="0" cy="0" r="1" gradientUnits="userSpaceOnUse" gradientTransform="translate(20.233 16.6667) rotate(52.2286) scale(66.0656 65.4243)">
<stop stop-color="white" stop-opacity="0.59"/>
<stop offset="0.697917" stop-color="white" stop-opacity="0"/>
<stop offset="1" stop-color="white" stop-opacity="0"/>
</radialGradient>
<radialGradient id="paint1_radial_1217_787" cx="0" cy="0" r="1" gradientUnits="userSpaceOnUse" gradientTransform="translate(66.1694 70) rotate(-93.5182) scale(68.4624 73.1547)">
<stop stop-opacity="0.23"/>
<stop offset="0.861815" stop-opacity="0"/>
</radialGradient>
</defs>
</svg>
