<svg width="82" height="82" viewBox="0 0 82 82" fill="none" xmlns="http://www.w3.org/2000/svg">
<path fill-rule="evenodd" clip-rule="evenodd" d="M39.163 1.03796C38.0796 1.21126 36.4211 1.78825 35.328 2.3723C28.053 6.26003 26.4299 15.9601 32.0623 21.8895C34.5924 24.5532 37.4465 25.7779 41.1234 25.7779C44.8004 25.7779 47.6544 24.5532 50.1846 21.8895C55.7774 16.0017 54.2176 6.36746 47.0329 2.42405C45.2456 1.44306 43.8457 1.08109 41.5939 1.01789C40.5157 0.98762 39.4218 0.996717 39.163 1.03796ZM44.1817 3.36144C47.7106 4.60513 50.133 7.07697 51.1813 10.5036C51.4586 11.4098 51.5414 12.058 51.5422 13.3266C51.5437 15.7006 50.9818 17.5318 49.6978 19.3379L49.166 20.0859L48.8045 19.1194C48.3396 17.8763 47.305 16.4764 46.245 15.6562L45.4081 15.0088L45.9173 14.2519C46.6935 13.0987 46.9686 12.0999 46.8991 10.689C46.7933 8.54289 45.5765 6.72629 43.6328 5.81211C42.8942 5.46489 42.5559 5.40654 41.2803 5.40654C39.9933 5.40654 39.6687 5.46363 38.897 5.82529C37.8147 6.33264 36.7337 7.3784 36.1972 8.43734C35.2504 10.3055 35.443 12.7725 36.66 14.3683L37.0488 14.8778L36.3618 15.3504C35.0033 16.2851 34.0442 17.6074 33.1889 19.7244C33.0528 20.0615 33.0017 20.0202 32.375 19.0672C30.2549 15.8424 30.0921 11.7164 31.9536 8.38637C33.4192 5.76444 35.7728 3.9491 38.6925 3.18877C39.8167 2.89596 43.1594 3.0012 44.1817 3.36144ZM43.06 7.81236C45.4114 9.06577 45.5822 12.3207 43.3842 13.9908C41.9832 15.0554 42.0618 15.6684 43.6969 16.4336C45.5055 17.2799 46.8632 19.0096 47.2285 20.933C47.3643 21.6477 47.347 21.7412 47.0343 21.9872C46.3237 22.5463 44.4524 23.344 43.2865 23.5847C40.9931 24.0584 38.6601 23.7811 36.6537 22.7962C34.9114 21.941 34.8421 21.8621 35.017 20.933C35.2452 19.7204 36.0226 18.2883 36.8555 17.5464C37.2621 17.1842 38.1055 16.6494 38.7297 16.358C40.3363 15.6082 40.4268 15.0169 39.0964 13.9632C37.4501 12.6593 37.109 10.4481 38.3004 8.80339C39.3992 7.2865 41.3221 6.88611 43.06 7.81236ZM57.5151 14.6793C57.3608 14.8338 57.2791 15.1266 57.308 15.4222C57.348 15.8312 57.584 16.0839 58.7671 16.983C60.8853 18.5927 62.8153 20.4192 64.1442 22.0713C65.4893 23.7436 65.9107 24.0061 66.5217 23.5523C67.249 23.0118 67.1362 22.6088 65.7834 20.9126C64.3093 19.0645 62.3114 17.153 60.2067 15.5775C58.5901 14.3673 58.0181 14.1765 57.5151 14.6793ZM20.9392 16.4346C19.1011 17.9006 17.1876 19.9018 15.6149 22.0028C14.3855 23.6451 14.2128 24.1878 14.7617 24.6844C15.3719 25.2368 15.8606 24.968 17.0203 23.4423C18.6391 21.3125 20.4372 19.416 22.1617 18.0194C23.8295 16.6687 24.082 16.2584 23.6502 15.5996C23.1924 14.9009 22.6546 15.0665 20.9392 16.4346ZM11.6389 28.6947C5.22172 29.7214 0.597663 35.4291 1.0277 41.7918C1.41021 47.4491 5.41792 52.0963 10.8884 53.2263C17.843 54.6629 24.5406 50.0796 25.7654 43.046C26.0237 41.5625 25.8666 38.9542 25.4347 37.5573C23.8354 32.3849 19.3406 28.8706 14.0114 28.626C13.181 28.5879 12.1133 28.6188 11.6389 28.6947ZM67.0009 28.6373C60.8053 29.8477 56.6896 34.4004 56.382 40.3834C56.0751 46.3526 59.678 51.2878 65.6678 53.1033C67.1284 53.5461 70.4432 53.5111 72.089 53.0358C74.5646 52.3208 76.7937 50.8791 78.3788 48.968C79.3656 47.7784 80.4876 45.5991 80.9025 44.0659C81.2849 42.6531 81.2844 39.359 80.9016 37.9494C80.5131 36.5194 79.56 34.6085 78.6103 33.3562C77.1409 31.4187 74.3824 29.5902 71.9411 28.9359C71.0095 28.6862 67.7571 28.4895 67.0009 28.6373ZM15.6335 30.8152C18.6876 31.4621 21.4368 33.614 22.8449 36.4595C23.8985 38.5888 24.1695 41.2835 23.5669 43.6396C23.2305 44.9549 23.0155 45.4363 22.1692 46.7698C21.5999 47.6667 21.3625 47.8687 21.3625 47.456C21.3625 47.3364 21.0821 46.6787 20.7394 45.994C20.1532 44.8226 18.8561 43.3308 18.0213 42.8678C17.7599 42.7227 17.7803 42.6489 18.2908 41.8903C19.8564 39.5635 19.5851 36.6263 17.6234 34.6667C16.1953 33.24 14.2266 32.6727 12.3286 33.1412C9.66261 33.7991 7.96834 35.9385 7.9616 38.6551C7.9583 39.9896 8.18289 40.7869 8.84221 41.7824L9.34314 42.5385L8.88346 42.8694C7.42476 43.9194 6.42463 45.1852 5.75825 46.8247L5.406 47.6917L4.83482 46.9138C3.72899 45.4071 3.01116 43.1132 3.01571 41.1001C3.02638 36.4635 5.97468 32.4502 10.3842 31.0699C10.9449 30.8944 11.58 30.7216 11.7957 30.686C12.7044 30.5354 14.6165 30.5999 15.6335 30.8152ZM71.2802 30.8833C78.2571 32.6677 81.4367 40.6455 77.5584 46.6352L76.8355 47.7514L76.6434 47.198C76.2225 45.9853 75.5531 44.9164 74.6327 43.9862C74.1012 43.4492 73.5284 42.9365 73.36 42.8471C73.0628 42.6895 73.0659 42.6669 73.4702 42.0814C74.2738 40.9177 74.5815 39.9957 74.5875 38.7335C74.5971 36.706 73.7395 35.0351 72.1185 33.923C68.5694 31.4882 63.6216 33.8764 63.2751 38.1915C63.1749 39.4418 63.4395 40.528 64.1198 41.6577C64.5605 42.3896 64.6192 42.5797 64.4362 42.6823C63.8816 42.9926 62.7927 44.0158 62.2342 44.7515C61.5977 45.5903 60.8889 47.0167 60.878 47.4815C60.8679 47.9087 60.0108 46.8165 59.3981 45.5956C57.8889 42.588 58.0578 38.5546 59.8146 35.6504C61.077 33.5635 63.1666 31.8751 65.3811 31.1525C66.908 30.6543 67.0808 30.6259 68.7401 30.5996C69.6251 30.5856 70.4965 30.6828 71.2802 30.8833ZM15.0892 35.2964C16.0377 35.7264 16.4713 36.1524 16.912 37.0868C17.6992 38.7561 17.1962 40.5624 15.6197 41.7268C14.7754 42.3507 14.6192 42.6915 14.8735 43.3546C14.9275 43.4951 15.4112 43.8094 15.9486 44.053C17.6281 44.8146 18.733 46.0349 19.3398 47.7985C19.8204 49.1952 19.7666 49.4104 18.7881 50.0034C15.5928 51.94 11.3007 51.9376 8.0822 49.9974L7.21821 49.4766L7.31058 48.7708C7.3614 48.3827 7.65185 47.5581 7.95611 46.9382C8.62045 45.5848 9.5373 44.7195 11.0551 44.0135C12.5799 43.3041 12.6964 42.5363 11.4207 41.6047C10.5424 40.9635 9.91369 39.7506 9.91369 38.6978C9.91369 36.03 12.6871 34.2073 15.0892 35.2964ZM70.6192 35.4008C72.1494 36.1759 72.8982 37.8159 72.4931 39.5047C72.2781 40.4011 71.7675 41.115 70.8535 41.7971C70.393 42.1409 70.2047 42.4022 70.175 42.7381C70.1198 43.3667 70.2194 43.4777 71.3462 44.0445C73.0794 44.9162 74.0869 46.0523 74.6752 47.7986C75.1243 49.1319 75.0974 49.4179 74.4887 49.7755C70.7766 51.9569 67.0104 52.0187 63.4185 49.9574L62.5805 49.4766L62.6676 48.7196C62.8959 46.7308 64.543 44.6811 66.5304 43.9128C67.3092 43.6117 67.6285 43.2949 67.6258 42.8261C67.6229 42.3183 67.5386 42.1983 66.7916 41.6371C65.0016 40.2926 64.753 37.6798 66.2639 36.0874C67.3914 34.8991 69.0974 34.6302 70.6192 35.4008ZM38.9842 56.3628C36.4288 56.8512 34.4182 57.8773 32.5179 59.6632C28.9164 63.0481 27.6899 68.5948 29.5255 73.1979C30.9625 76.8014 33.8428 79.4279 37.6786 80.6324C38.6814 80.9473 39.1756 81 41.1234 81C43.0713 81 43.5655 80.9473 44.5683 80.6324C48.4041 79.4279 51.2843 76.8014 52.7214 73.1979C54.8287 67.9132 52.8945 61.6056 48.1809 58.3902C45.5259 56.5792 41.9625 55.7937 38.9842 56.3628ZM66.494 57.1906C66.3445 57.2298 65.7812 57.8726 65.2421 58.6193C64.0679 60.2458 61.5671 62.8784 59.9434 64.1969C58.5073 65.3631 58.3669 65.5295 58.4152 66.0069C58.4659 66.505 59.1736 67.0298 59.6085 66.8918C60.3737 66.6488 63.3252 63.9919 65.1924 61.865C67.3323 59.4276 68.0505 58.1935 67.665 57.6162C67.554 57.45 66.9168 57.0638 66.8152 57.1012C66.7879 57.1112 66.6433 57.1514 66.494 57.1906ZM44.3591 58.7161C47.6213 59.7587 50.333 62.6324 51.2536 66.0225C51.6742 67.571 51.6408 70.0197 51.1786 71.5116C50.7519 72.8899 50.5378 73.3417 49.7881 74.4474C49.2606 75.2257 48.9651 75.3771 48.9651 74.8691C48.9651 74.0678 47.3439 71.7353 46.1614 70.8349L45.3755 70.2366L45.9142 69.531C46.662 68.5512 46.9805 67.3607 46.8941 65.8678C46.8091 64.4 46.3875 63.4476 45.3225 62.3171C44.2146 61.1412 43.0034 60.6334 41.2803 60.6224C40.0907 60.6147 39.8376 60.6676 38.9278 61.113C37.8362 61.6476 37.5585 61.8609 36.7875 62.7569C35.2878 64.4996 35.2215 67.6885 36.6449 69.6177L37.0288 70.1381L36.1258 70.8027C35.6293 71.1683 34.9714 71.8126 34.6638 72.2345C34.0244 73.1115 33.2818 74.5272 33.2818 74.8691C33.2818 75.3771 32.9863 75.2257 32.4587 74.4474C31.1928 72.5803 30.7016 70.9622 30.7102 68.6886C30.7176 66.7196 31.0135 65.4971 31.8923 63.805C33.3532 60.9919 35.9989 59.0279 39.2523 58.3411C40.4795 58.0822 42.9408 58.2628 44.3591 58.7161ZM15.5597 58.6513C15.0664 59.1446 15.1833 59.59 16.11 60.7508C18.3334 63.5363 22.6082 67.3776 23.8337 67.6915C24.3591 67.826 24.9697 67.3645 24.9697 66.833C24.9697 66.2561 24.8011 66.0659 23.3514 65.0076C21.8151 63.8858 19.2652 61.4494 18.0122 59.906C17.487 59.259 16.9497 58.6438 16.8183 58.5387C16.458 58.2509 15.9111 58.2999 15.5597 58.6513ZM42.3974 62.7316C43.1831 62.9499 44.3261 64.0004 44.6525 64.8045C45.0185 65.7064 44.9914 67.0859 44.592 67.8687C44.4196 68.2065 44.0098 68.7106 43.6812 68.9888C43.3527 69.267 42.9251 69.6382 42.731 69.8137C42.0387 70.4401 42.3497 71.0215 43.7565 71.731C45.5987 72.6601 46.8613 74.2902 47.2056 76.1843L47.3563 77.0136L46.7064 77.4606C43.595 79.6014 38.6731 79.599 35.5369 77.4553L34.8906 77.0136L35.0413 76.1838C35.4232 74.0807 36.9249 72.2785 38.9278 71.5196C40.0093 71.1098 40.3167 70.357 39.6544 69.7402C39.4503 69.5499 39.0214 69.1499 38.7015 68.8509C37.9372 68.1372 37.6352 67.4082 37.6267 66.2577C37.6085 63.7689 39.9365 62.0482 42.3974 62.7316Z" fill="#0066FF"/>
<path fill-rule="evenodd" clip-rule="evenodd" d="M39.163 1.03796C38.0796 1.21126 36.4211 1.78825 35.328 2.3723C28.053 6.26003 26.4299 15.9601 32.0623 21.8895C34.5924 24.5532 37.4465 25.7779 41.1234 25.7779C44.8004 25.7779 47.6544 24.5532 50.1846 21.8895C55.7774 16.0017 54.2176 6.36746 47.0329 2.42405C45.2456 1.44306 43.8457 1.08109 41.5939 1.01789C40.5157 0.98762 39.4218 0.996717 39.163 1.03796ZM44.1817 3.36144C47.7106 4.60513 50.133 7.07697 51.1813 10.5036C51.4586 11.4098 51.5414 12.058 51.5422 13.3266C51.5437 15.7006 50.9818 17.5318 49.6978 19.3379L49.166 20.0859L48.8045 19.1194C48.3396 17.8763 47.305 16.4764 46.245 15.6562L45.4081 15.0088L45.9173 14.2519C46.6935 13.0987 46.9686 12.0999 46.8991 10.689C46.7933 8.54289 45.5765 6.72629 43.6328 5.81211C42.8942 5.46489 42.5559 5.40654 41.2803 5.40654C39.9933 5.40654 39.6687 5.46363 38.897 5.82529C37.8147 6.33264 36.7337 7.3784 36.1972 8.43734C35.2504 10.3055 35.443 12.7725 36.66 14.3683L37.0488 14.8778L36.3618 15.3504C35.0033 16.2851 34.0442 17.6074 33.1889 19.7244C33.0528 20.0615 33.0017 20.0202 32.375 19.0672C30.2549 15.8424 30.0921 11.7164 31.9536 8.38637C33.4192 5.76444 35.7728 3.9491 38.6925 3.18877C39.8167 2.89596 43.1594 3.0012 44.1817 3.36144ZM43.06 7.81236C45.4114 9.06577 45.5822 12.3207 43.3842 13.9908C41.9832 15.0554 42.0618 15.6684 43.6969 16.4336C45.5055 17.2799 46.8632 19.0096 47.2285 20.933C47.3643 21.6477 47.347 21.7412 47.0343 21.9872C46.3237 22.5463 44.4524 23.344 43.2865 23.5847C40.9931 24.0584 38.6601 23.7811 36.6537 22.7962C34.9114 21.941 34.8421 21.8621 35.017 20.933C35.2452 19.7204 36.0226 18.2883 36.8555 17.5464C37.2621 17.1842 38.1055 16.6494 38.7297 16.358C40.3363 15.6082 40.4268 15.0169 39.0964 13.9632C37.4501 12.6593 37.109 10.4481 38.3004 8.80339C39.3992 7.2865 41.3221 6.88611 43.06 7.81236ZM57.5151 14.6793C57.3608 14.8338 57.2791 15.1266 57.308 15.4222C57.348 15.8312 57.584 16.0839 58.7671 16.983C60.8853 18.5927 62.8153 20.4192 64.1442 22.0713C65.4893 23.7436 65.9107 24.0061 66.5217 23.5523C67.249 23.0118 67.1362 22.6088 65.7834 20.9126C64.3093 19.0645 62.3114 17.153 60.2067 15.5775C58.5901 14.3673 58.0181 14.1765 57.5151 14.6793ZM20.9392 16.4346C19.1011 17.9006 17.1876 19.9018 15.6149 22.0028C14.3855 23.6451 14.2128 24.1878 14.7617 24.6844C15.3719 25.2368 15.8606 24.968 17.0203 23.4423C18.6391 21.3125 20.4372 19.416 22.1617 18.0194C23.8295 16.6687 24.082 16.2584 23.6502 15.5996C23.1924 14.9009 22.6546 15.0665 20.9392 16.4346ZM11.6389 28.6947C5.22172 29.7214 0.597663 35.4291 1.0277 41.7918C1.41021 47.4491 5.41792 52.0963 10.8884 53.2263C17.843 54.6629 24.5406 50.0796 25.7654 43.046C26.0237 41.5625 25.8666 38.9542 25.4347 37.5573C23.8354 32.3849 19.3406 28.8706 14.0114 28.626C13.181 28.5879 12.1133 28.6188 11.6389 28.6947ZM67.0009 28.6373C60.8053 29.8477 56.6896 34.4004 56.382 40.3834C56.0751 46.3526 59.678 51.2878 65.6678 53.1033C67.1284 53.5461 70.4432 53.5111 72.089 53.0358C74.5646 52.3208 76.7937 50.8791 78.3788 48.968C79.3656 47.7784 80.4876 45.5991 80.9025 44.0659C81.2849 42.6531 81.2844 39.359 80.9016 37.9494C80.5131 36.5194 79.56 34.6085 78.6103 33.3562C77.1409 31.4187 74.3824 29.5902 71.9411 28.9359C71.0095 28.6862 67.7571 28.4895 67.0009 28.6373ZM15.6335 30.8152C18.6876 31.4621 21.4368 33.614 22.8449 36.4595C23.8985 38.5888 24.1695 41.2835 23.5669 43.6396C23.2305 44.9549 23.0155 45.4363 22.1692 46.7698C21.5999 47.6667 21.3625 47.8687 21.3625 47.456C21.3625 47.3364 21.0821 46.6787 20.7394 45.994C20.1532 44.8226 18.8561 43.3308 18.0213 42.8678C17.7599 42.7227 17.7803 42.6489 18.2908 41.8903C19.8564 39.5635 19.5851 36.6263 17.6234 34.6667C16.1953 33.24 14.2266 32.6727 12.3286 33.1412C9.66261 33.7991 7.96834 35.9385 7.9616 38.6551C7.9583 39.9896 8.18289 40.7869 8.84221 41.7824L9.34314 42.5385L8.88346 42.8694C7.42476 43.9194 6.42463 45.1852 5.75825 46.8247L5.406 47.6917L4.83482 46.9138C3.72899 45.4071 3.01116 43.1132 3.01571 41.1001C3.02638 36.4635 5.97468 32.4502 10.3842 31.0699C10.9449 30.8944 11.58 30.7216 11.7957 30.686C12.7044 30.5354 14.6165 30.5999 15.6335 30.8152ZM71.2802 30.8833C78.2571 32.6677 81.4367 40.6455 77.5584 46.6352L76.8355 47.7514L76.6434 47.198C76.2225 45.9853 75.5531 44.9164 74.6327 43.9862C74.1012 43.4492 73.5284 42.9365 73.36 42.8471C73.0628 42.6895 73.0659 42.6669 73.4702 42.0814C74.2738 40.9177 74.5815 39.9957 74.5875 38.7335C74.5971 36.706 73.7395 35.0351 72.1185 33.923C68.5694 31.4882 63.6216 33.8764 63.2751 38.1915C63.1749 39.4418 63.4395 40.528 64.1198 41.6577C64.5605 42.3896 64.6192 42.5797 64.4362 42.6823C63.8816 42.9926 62.7927 44.0158 62.2342 44.7515C61.5977 45.5903 60.8889 47.0167 60.878 47.4815C60.8679 47.9087 60.0108 46.8165 59.3981 45.5956C57.8889 42.588 58.0578 38.5546 59.8146 35.6504C61.077 33.5635 63.1666 31.8751 65.3811 31.1525C66.908 30.6543 67.0808 30.6259 68.7401 30.5996C69.6251 30.5856 70.4965 30.6828 71.2802 30.8833ZM15.0892 35.2964C16.0377 35.7264 16.4713 36.1524 16.912 37.0868C17.6992 38.7561 17.1962 40.5624 15.6197 41.7268C14.7754 42.3507 14.6192 42.6915 14.8735 43.3546C14.9275 43.4951 15.4112 43.8094 15.9486 44.053C17.6281 44.8146 18.733 46.0349 19.3398 47.7985C19.8204 49.1952 19.7666 49.4104 18.7881 50.0034C15.5928 51.94 11.3007 51.9376 8.0822 49.9974L7.21821 49.4766L7.31058 48.7708C7.3614 48.3827 7.65185 47.5581 7.95611 46.9382C8.62045 45.5848 9.5373 44.7195 11.0551 44.0135C12.5799 43.3041 12.6964 42.5363 11.4207 41.6047C10.5424 40.9635 9.91369 39.7506 9.91369 38.6978C9.91369 36.03 12.6871 34.2073 15.0892 35.2964ZM70.6192 35.4008C72.1494 36.1759 72.8982 37.8159 72.4931 39.5047C72.2781 40.4011 71.7675 41.115 70.8535 41.7971C70.393 42.1409 70.2047 42.4022 70.175 42.7381C70.1198 43.3667 70.2194 43.4777 71.3462 44.0445C73.0794 44.9162 74.0869 46.0523 74.6752 47.7986C75.1243 49.1319 75.0974 49.4179 74.4887 49.7755C70.7766 51.9569 67.0104 52.0187 63.4185 49.9574L62.5805 49.4766L62.6676 48.7196C62.8959 46.7308 64.543 44.6811 66.5304 43.9128C67.3092 43.6117 67.6285 43.2949 67.6258 42.8261C67.6229 42.3183 67.5386 42.1983 66.7916 41.6371C65.0016 40.2926 64.753 37.6798 66.2639 36.0874C67.3914 34.8991 69.0974 34.6302 70.6192 35.4008ZM38.9842 56.3628C36.4288 56.8512 34.4182 57.8773 32.5179 59.6632C28.9164 63.0481 27.6899 68.5948 29.5255 73.1979C30.9625 76.8014 33.8428 79.4279 37.6786 80.6324C38.6814 80.9473 39.1756 81 41.1234 81C43.0713 81 43.5655 80.9473 44.5683 80.6324C48.4041 79.4279 51.2843 76.8014 52.7214 73.1979C54.8287 67.9132 52.8945 61.6056 48.1809 58.3902C45.5259 56.5792 41.9625 55.7937 38.9842 56.3628ZM66.494 57.1906C66.3445 57.2298 65.7812 57.8726 65.2421 58.6193C64.0679 60.2458 61.5671 62.8784 59.9434 64.1969C58.5073 65.3631 58.3669 65.5295 58.4152 66.0069C58.4659 66.505 59.1736 67.0298 59.6085 66.8918C60.3737 66.6488 63.3252 63.9919 65.1924 61.865C67.3323 59.4276 68.0505 58.1935 67.665 57.6162C67.554 57.45 66.9168 57.0638 66.8152 57.1012C66.7879 57.1112 66.6433 57.1514 66.494 57.1906ZM44.3591 58.7161C47.6213 59.7587 50.333 62.6324 51.2536 66.0225C51.6742 67.571 51.6408 70.0197 51.1786 71.5116C50.7519 72.8899 50.5378 73.3417 49.7881 74.4474C49.2606 75.2257 48.9651 75.3771 48.9651 74.8691C48.9651 74.0678 47.3439 71.7353 46.1614 70.8349L45.3755 70.2366L45.9142 69.531C46.662 68.5512 46.9805 67.3607 46.8941 65.8678C46.8091 64.4 46.3875 63.4476 45.3225 62.3171C44.2146 61.1412 43.0034 60.6334 41.2803 60.6224C40.0907 60.6147 39.8376 60.6676 38.9278 61.113C37.8362 61.6476 37.5585 61.8609 36.7875 62.7569C35.2878 64.4996 35.2215 67.6885 36.6449 69.6177L37.0288 70.1381L36.1258 70.8027C35.6293 71.1683 34.9714 71.8126 34.6638 72.2345C34.0244 73.1115 33.2818 74.5272 33.2818 74.8691C33.2818 75.3771 32.9863 75.2257 32.4587 74.4474C31.1928 72.5803 30.7016 70.9622 30.7102 68.6886C30.7176 66.7196 31.0135 65.4971 31.8923 63.805C33.3532 60.9919 35.9989 59.0279 39.2523 58.3411C40.4795 58.0822 42.9408 58.2628 44.3591 58.7161ZM15.5597 58.6513C15.0664 59.1446 15.1833 59.59 16.11 60.7508C18.3334 63.5363 22.6082 67.3776 23.8337 67.6915C24.3591 67.826 24.9697 67.3645 24.9697 66.833C24.9697 66.2561 24.8011 66.0659 23.3514 65.0076C21.8151 63.8858 19.2652 61.4494 18.0122 59.906C17.487 59.259 16.9497 58.6438 16.8183 58.5387C16.458 58.2509 15.9111 58.2999 15.5597 58.6513ZM42.3974 62.7316C43.1831 62.9499 44.3261 64.0004 44.6525 64.8045C45.0185 65.7064 44.9914 67.0859 44.592 67.8687C44.4196 68.2065 44.0098 68.7106 43.6812 68.9888C43.3527 69.267 42.9251 69.6382 42.731 69.8137C42.0387 70.4401 42.3497 71.0215 43.7565 71.731C45.5987 72.6601 46.8613 74.2902 47.2056 76.1843L47.3563 77.0136L46.7064 77.4606C43.595 79.6014 38.6731 79.599 35.5369 77.4553L34.8906 77.0136L35.0413 76.1838C35.4232 74.0807 36.9249 72.2785 38.9278 71.5196C40.0093 71.1098 40.3167 70.357 39.6544 69.7402C39.4503 69.5499 39.0214 69.1499 38.7015 68.8509C37.9372 68.1372 37.6352 67.4082 37.6267 66.2577C37.6085 63.7689 39.9365 62.0482 42.3974 62.7316Z" fill="url(#paint0_radial_1217_783)" fill-opacity="0.7"/>
<path fill-rule="evenodd" clip-rule="evenodd" d="M39.163 1.03796C38.0796 1.21126 36.4211 1.78825 35.328 2.3723C28.053 6.26003 26.4299 15.9601 32.0623 21.8895C34.5924 24.5532 37.4465 25.7779 41.1234 25.7779C44.8004 25.7779 47.6544 24.5532 50.1846 21.8895C55.7774 16.0017 54.2176 6.36746 47.0329 2.42405C45.2456 1.44306 43.8457 1.08109 41.5939 1.01789C40.5157 0.98762 39.4218 0.996717 39.163 1.03796ZM44.1817 3.36144C47.7106 4.60513 50.133 7.07697 51.1813 10.5036C51.4586 11.4098 51.5414 12.058 51.5422 13.3266C51.5437 15.7006 50.9818 17.5318 49.6978 19.3379L49.166 20.0859L48.8045 19.1194C48.3396 17.8763 47.305 16.4764 46.245 15.6562L45.4081 15.0088L45.9173 14.2519C46.6935 13.0987 46.9686 12.0999 46.8991 10.689C46.7933 8.54289 45.5765 6.72629 43.6328 5.81211C42.8942 5.46489 42.5559 5.40654 41.2803 5.40654C39.9933 5.40654 39.6687 5.46363 38.897 5.82529C37.8147 6.33264 36.7337 7.3784 36.1972 8.43734C35.2504 10.3055 35.443 12.7725 36.66 14.3683L37.0488 14.8778L36.3618 15.3504C35.0033 16.2851 34.0442 17.6074 33.1889 19.7244C33.0528 20.0615 33.0017 20.0202 32.375 19.0672C30.2549 15.8424 30.0921 11.7164 31.9536 8.38637C33.4192 5.76444 35.7728 3.9491 38.6925 3.18877C39.8167 2.89596 43.1594 3.0012 44.1817 3.36144ZM43.06 7.81236C45.4114 9.06577 45.5822 12.3207 43.3842 13.9908C41.9832 15.0554 42.0618 15.6684 43.6969 16.4336C45.5055 17.2799 46.8632 19.0096 47.2285 20.933C47.3643 21.6477 47.347 21.7412 47.0343 21.9872C46.3237 22.5463 44.4524 23.344 43.2865 23.5847C40.9931 24.0584 38.6601 23.7811 36.6537 22.7962C34.9114 21.941 34.8421 21.8621 35.017 20.933C35.2452 19.7204 36.0226 18.2883 36.8555 17.5464C37.2621 17.1842 38.1055 16.6494 38.7297 16.358C40.3363 15.6082 40.4268 15.0169 39.0964 13.9632C37.4501 12.6593 37.109 10.4481 38.3004 8.80339C39.3992 7.2865 41.3221 6.88611 43.06 7.81236ZM57.5151 14.6793C57.3608 14.8338 57.2791 15.1266 57.308 15.4222C57.348 15.8312 57.584 16.0839 58.7671 16.983C60.8853 18.5927 62.8153 20.4192 64.1442 22.0713C65.4893 23.7436 65.9107 24.0061 66.5217 23.5523C67.249 23.0118 67.1362 22.6088 65.7834 20.9126C64.3093 19.0645 62.3114 17.153 60.2067 15.5775C58.5901 14.3673 58.0181 14.1765 57.5151 14.6793ZM20.9392 16.4346C19.1011 17.9006 17.1876 19.9018 15.6149 22.0028C14.3855 23.6451 14.2128 24.1878 14.7617 24.6844C15.3719 25.2368 15.8606 24.968 17.0203 23.4423C18.6391 21.3125 20.4372 19.416 22.1617 18.0194C23.8295 16.6687 24.082 16.2584 23.6502 15.5996C23.1924 14.9009 22.6546 15.0665 20.9392 16.4346ZM11.6389 28.6947C5.22172 29.7214 0.597663 35.4291 1.0277 41.7918C1.41021 47.4491 5.41792 52.0963 10.8884 53.2263C17.843 54.6629 24.5406 50.0796 25.7654 43.046C26.0237 41.5625 25.8666 38.9542 25.4347 37.5573C23.8354 32.3849 19.3406 28.8706 14.0114 28.626C13.181 28.5879 12.1133 28.6188 11.6389 28.6947ZM67.0009 28.6373C60.8053 29.8477 56.6896 34.4004 56.382 40.3834C56.0751 46.3526 59.678 51.2878 65.6678 53.1033C67.1284 53.5461 70.4432 53.5111 72.089 53.0358C74.5646 52.3208 76.7937 50.8791 78.3788 48.968C79.3656 47.7784 80.4876 45.5991 80.9025 44.0659C81.2849 42.6531 81.2844 39.359 80.9016 37.9494C80.5131 36.5194 79.56 34.6085 78.6103 33.3562C77.1409 31.4187 74.3824 29.5902 71.9411 28.9359C71.0095 28.6862 67.7571 28.4895 67.0009 28.6373ZM15.6335 30.8152C18.6876 31.4621 21.4368 33.614 22.8449 36.4595C23.8985 38.5888 24.1695 41.2835 23.5669 43.6396C23.2305 44.9549 23.0155 45.4363 22.1692 46.7698C21.5999 47.6667 21.3625 47.8687 21.3625 47.456C21.3625 47.3364 21.0821 46.6787 20.7394 45.994C20.1532 44.8226 18.8561 43.3308 18.0213 42.8678C17.7599 42.7227 17.7803 42.6489 18.2908 41.8903C19.8564 39.5635 19.5851 36.6263 17.6234 34.6667C16.1953 33.24 14.2266 32.6727 12.3286 33.1412C9.66261 33.7991 7.96834 35.9385 7.9616 38.6551C7.9583 39.9896 8.18289 40.7869 8.84221 41.7824L9.34314 42.5385L8.88346 42.8694C7.42476 43.9194 6.42463 45.1852 5.75825 46.8247L5.406 47.6917L4.83482 46.9138C3.72899 45.4071 3.01116 43.1132 3.01571 41.1001C3.02638 36.4635 5.97468 32.4502 10.3842 31.0699C10.9449 30.8944 11.58 30.7216 11.7957 30.686C12.7044 30.5354 14.6165 30.5999 15.6335 30.8152ZM71.2802 30.8833C78.2571 32.6677 81.4367 40.6455 77.5584 46.6352L76.8355 47.7514L76.6434 47.198C76.2225 45.9853 75.5531 44.9164 74.6327 43.9862C74.1012 43.4492 73.5284 42.9365 73.36 42.8471C73.0628 42.6895 73.0659 42.6669 73.4702 42.0814C74.2738 40.9177 74.5815 39.9957 74.5875 38.7335C74.5971 36.706 73.7395 35.0351 72.1185 33.923C68.5694 31.4882 63.6216 33.8764 63.2751 38.1915C63.1749 39.4418 63.4395 40.528 64.1198 41.6577C64.5605 42.3896 64.6192 42.5797 64.4362 42.6823C63.8816 42.9926 62.7927 44.0158 62.2342 44.7515C61.5977 45.5903 60.8889 47.0167 60.878 47.4815C60.8679 47.9087 60.0108 46.8165 59.3981 45.5956C57.8889 42.588 58.0578 38.5546 59.8146 35.6504C61.077 33.5635 63.1666 31.8751 65.3811 31.1525C66.908 30.6543 67.0808 30.6259 68.7401 30.5996C69.6251 30.5856 70.4965 30.6828 71.2802 30.8833ZM15.0892 35.2964C16.0377 35.7264 16.4713 36.1524 16.912 37.0868C17.6992 38.7561 17.1962 40.5624 15.6197 41.7268C14.7754 42.3507 14.6192 42.6915 14.8735 43.3546C14.9275 43.4951 15.4112 43.8094 15.9486 44.053C17.6281 44.8146 18.733 46.0349 19.3398 47.7985C19.8204 49.1952 19.7666 49.4104 18.7881 50.0034C15.5928 51.94 11.3007 51.9376 8.0822 49.9974L7.21821 49.4766L7.31058 48.7708C7.3614 48.3827 7.65185 47.5581 7.95611 46.9382C8.62045 45.5848 9.5373 44.7195 11.0551 44.0135C12.5799 43.3041 12.6964 42.5363 11.4207 41.6047C10.5424 40.9635 9.91369 39.7506 9.91369 38.6978C9.91369 36.03 12.6871 34.2073 15.0892 35.2964ZM70.6192 35.4008C72.1494 36.1759 72.8982 37.8159 72.4931 39.5047C72.2781 40.4011 71.7675 41.115 70.8535 41.7971C70.393 42.1409 70.2047 42.4022 70.175 42.7381C70.1198 43.3667 70.2194 43.4777 71.3462 44.0445C73.0794 44.9162 74.0869 46.0523 74.6752 47.7986C75.1243 49.1319 75.0974 49.4179 74.4887 49.7755C70.7766 51.9569 67.0104 52.0187 63.4185 49.9574L62.5805 49.4766L62.6676 48.7196C62.8959 46.7308 64.543 44.6811 66.5304 43.9128C67.3092 43.6117 67.6285 43.2949 67.6258 42.8261C67.6229 42.3183 67.5386 42.1983 66.7916 41.6371C65.0016 40.2926 64.753 37.6798 66.2639 36.0874C67.3914 34.8991 69.0974 34.6302 70.6192 35.4008ZM38.9842 56.3628C36.4288 56.8512 34.4182 57.8773 32.5179 59.6632C28.9164 63.0481 27.6899 68.5948 29.5255 73.1979C30.9625 76.8014 33.8428 79.4279 37.6786 80.6324C38.6814 80.9473 39.1756 81 41.1234 81C43.0713 81 43.5655 80.9473 44.5683 80.6324C48.4041 79.4279 51.2843 76.8014 52.7214 73.1979C54.8287 67.9132 52.8945 61.6056 48.1809 58.3902C45.5259 56.5792 41.9625 55.7937 38.9842 56.3628ZM66.494 57.1906C66.3445 57.2298 65.7812 57.8726 65.2421 58.6193C64.0679 60.2458 61.5671 62.8784 59.9434 64.1969C58.5073 65.3631 58.3669 65.5295 58.4152 66.0069C58.4659 66.505 59.1736 67.0298 59.6085 66.8918C60.3737 66.6488 63.3252 63.9919 65.1924 61.865C67.3323 59.4276 68.0505 58.1935 67.665 57.6162C67.554 57.45 66.9168 57.0638 66.8152 57.1012C66.7879 57.1112 66.6433 57.1514 66.494 57.1906ZM44.3591 58.7161C47.6213 59.7587 50.333 62.6324 51.2536 66.0225C51.6742 67.571 51.6408 70.0197 51.1786 71.5116C50.7519 72.8899 50.5378 73.3417 49.7881 74.4474C49.2606 75.2257 48.9651 75.3771 48.9651 74.8691C48.9651 74.0678 47.3439 71.7353 46.1614 70.8349L45.3755 70.2366L45.9142 69.531C46.662 68.5512 46.9805 67.3607 46.8941 65.8678C46.8091 64.4 46.3875 63.4476 45.3225 62.3171C44.2146 61.1412 43.0034 60.6334 41.2803 60.6224C40.0907 60.6147 39.8376 60.6676 38.9278 61.113C37.8362 61.6476 37.5585 61.8609 36.7875 62.7569C35.2878 64.4996 35.2215 67.6885 36.6449 69.6177L37.0288 70.1381L36.1258 70.8027C35.6293 71.1683 34.9714 71.8126 34.6638 72.2345C34.0244 73.1115 33.2818 74.5272 33.2818 74.8691C33.2818 75.3771 32.9863 75.2257 32.4587 74.4474C31.1928 72.5803 30.7016 70.9622 30.7102 68.6886C30.7176 66.7196 31.0135 65.4971 31.8923 63.805C33.3532 60.9919 35.9989 59.0279 39.2523 58.3411C40.4795 58.0822 42.9408 58.2628 44.3591 58.7161ZM15.5597 58.6513C15.0664 59.1446 15.1833 59.59 16.11 60.7508C18.3334 63.5363 22.6082 67.3776 23.8337 67.6915C24.3591 67.826 24.9697 67.3645 24.9697 66.833C24.9697 66.2561 24.8011 66.0659 23.3514 65.0076C21.8151 63.8858 19.2652 61.4494 18.0122 59.906C17.487 59.259 16.9497 58.6438 16.8183 58.5387C16.458 58.2509 15.9111 58.2999 15.5597 58.6513ZM42.3974 62.7316C43.1831 62.9499 44.3261 64.0004 44.6525 64.8045C45.0185 65.7064 44.9914 67.0859 44.592 67.8687C44.4196 68.2065 44.0098 68.7106 43.6812 68.9888C43.3527 69.267 42.9251 69.6382 42.731 69.8137C42.0387 70.4401 42.3497 71.0215 43.7565 71.731C45.5987 72.6601 46.8613 74.2902 47.2056 76.1843L47.3563 77.0136L46.7064 77.4606C43.595 79.6014 38.6731 79.599 35.5369 77.4553L34.8906 77.0136L35.0413 76.1838C35.4232 74.0807 36.9249 72.2785 38.9278 71.5196C40.0093 71.1098 40.3167 70.357 39.6544 69.7402C39.4503 69.5499 39.0214 69.1499 38.7015 68.8509C37.9372 68.1372 37.6352 67.4082 37.6267 66.2577C37.6085 63.7689 39.9365 62.0482 42.3974 62.7316Z" fill="url(#paint1_radial_1217_783)"/>
<path fill-rule="evenodd" clip-rule="evenodd" d="M39.163 1.03796C38.0796 1.21126 36.4211 1.78825 35.328 2.3723C28.053 6.26003 26.4299 15.9601 32.0623 21.8895C34.5924 24.5532 37.4465 25.7779 41.1234 25.7779C44.8004 25.7779 47.6544 24.5532 50.1846 21.8895C55.7774 16.0017 54.2176 6.36746 47.0329 2.42405C45.2456 1.44306 43.8457 1.08109 41.5939 1.01789C40.5157 0.98762 39.4218 0.996717 39.163 1.03796ZM44.1817 3.36144C47.7106 4.60513 50.133 7.07697 51.1813 10.5036C51.4586 11.4098 51.5414 12.058 51.5422 13.3266C51.5437 15.7006 50.9818 17.5318 49.6978 19.3379L49.166 20.0859L48.8045 19.1194C48.3396 17.8763 47.305 16.4764 46.245 15.6562L45.4081 15.0088L45.9173 14.2519C46.6935 13.0987 46.9686 12.0999 46.8991 10.689C46.7933 8.54289 45.5765 6.72629 43.6328 5.81211C42.8942 5.46489 42.5559 5.40654 41.2803 5.40654C39.9933 5.40654 39.6687 5.46363 38.897 5.82529C37.8147 6.33264 36.7337 7.3784 36.1972 8.43734C35.2504 10.3055 35.443 12.7725 36.66 14.3683L37.0488 14.8778L36.3618 15.3504C35.0033 16.2851 34.0442 17.6074 33.1889 19.7244C33.0528 20.0615 33.0017 20.0202 32.375 19.0672C30.2549 15.8424 30.0921 11.7164 31.9536 8.38637C33.4192 5.76444 35.7728 3.9491 38.6925 3.18877C39.8167 2.89596 43.1594 3.0012 44.1817 3.36144ZM43.06 7.81236C45.4114 9.06577 45.5822 12.3207 43.3842 13.9908C41.9832 15.0554 42.0618 15.6684 43.6969 16.4336C45.5055 17.2799 46.8632 19.0096 47.2285 20.933C47.3643 21.6477 47.347 21.7412 47.0343 21.9872C46.3237 22.5463 44.4524 23.344 43.2865 23.5847C40.9931 24.0584 38.6601 23.7811 36.6537 22.7962C34.9114 21.941 34.8421 21.8621 35.017 20.933C35.2452 19.7204 36.0226 18.2883 36.8555 17.5464C37.2621 17.1842 38.1055 16.6494 38.7297 16.358C40.3363 15.6082 40.4268 15.0169 39.0964 13.9632C37.4501 12.6593 37.109 10.4481 38.3004 8.80339C39.3992 7.2865 41.3221 6.88611 43.06 7.81236ZM57.5151 14.6793C57.3608 14.8338 57.2791 15.1266 57.308 15.4222C57.348 15.8312 57.584 16.0839 58.7671 16.983C60.8853 18.5927 62.8153 20.4192 64.1442 22.0713C65.4893 23.7436 65.9107 24.0061 66.5217 23.5523C67.249 23.0118 67.1362 22.6088 65.7834 20.9126C64.3093 19.0645 62.3114 17.153 60.2067 15.5775C58.5901 14.3673 58.0181 14.1765 57.5151 14.6793ZM20.9392 16.4346C19.1011 17.9006 17.1876 19.9018 15.6149 22.0028C14.3855 23.6451 14.2128 24.1878 14.7617 24.6844C15.3719 25.2368 15.8606 24.968 17.0203 23.4423C18.6391 21.3125 20.4372 19.416 22.1617 18.0194C23.8295 16.6687 24.082 16.2584 23.6502 15.5996C23.1924 14.9009 22.6546 15.0665 20.9392 16.4346ZM11.6389 28.6947C5.22172 29.7214 0.597663 35.4291 1.0277 41.7918C1.41021 47.4491 5.41792 52.0963 10.8884 53.2263C17.843 54.6629 24.5406 50.0796 25.7654 43.046C26.0237 41.5625 25.8666 38.9542 25.4347 37.5573C23.8354 32.3849 19.3406 28.8706 14.0114 28.626C13.181 28.5879 12.1133 28.6188 11.6389 28.6947ZM67.0009 28.6373C60.8053 29.8477 56.6896 34.4004 56.382 40.3834C56.0751 46.3526 59.678 51.2878 65.6678 53.1033C67.1284 53.5461 70.4432 53.5111 72.089 53.0358C74.5646 52.3208 76.7937 50.8791 78.3788 48.968C79.3656 47.7784 80.4876 45.5991 80.9025 44.0659C81.2849 42.6531 81.2844 39.359 80.9016 37.9494C80.5131 36.5194 79.56 34.6085 78.6103 33.3562C77.1409 31.4187 74.3824 29.5902 71.9411 28.9359C71.0095 28.6862 67.7571 28.4895 67.0009 28.6373ZM15.6335 30.8152C18.6876 31.4621 21.4368 33.614 22.8449 36.4595C23.8985 38.5888 24.1695 41.2835 23.5669 43.6396C23.2305 44.9549 23.0155 45.4363 22.1692 46.7698C21.5999 47.6667 21.3625 47.8687 21.3625 47.456C21.3625 47.3364 21.0821 46.6787 20.7394 45.994C20.1532 44.8226 18.8561 43.3308 18.0213 42.8678C17.7599 42.7227 17.7803 42.6489 18.2908 41.8903C19.8564 39.5635 19.5851 36.6263 17.6234 34.6667C16.1953 33.24 14.2266 32.6727 12.3286 33.1412C9.66261 33.7991 7.96834 35.9385 7.9616 38.6551C7.9583 39.9896 8.18289 40.7869 8.84221 41.7824L9.34314 42.5385L8.88346 42.8694C7.42476 43.9194 6.42463 45.1852 5.75825 46.8247L5.406 47.6917L4.83482 46.9138C3.72899 45.4071 3.01116 43.1132 3.01571 41.1001C3.02638 36.4635 5.97468 32.4502 10.3842 31.0699C10.9449 30.8944 11.58 30.7216 11.7957 30.686C12.7044 30.5354 14.6165 30.5999 15.6335 30.8152ZM71.2802 30.8833C78.2571 32.6677 81.4367 40.6455 77.5584 46.6352L76.8355 47.7514L76.6434 47.198C76.2225 45.9853 75.5531 44.9164 74.6327 43.9862C74.1012 43.4492 73.5284 42.9365 73.36 42.8471C73.0628 42.6895 73.0659 42.6669 73.4702 42.0814C74.2738 40.9177 74.5815 39.9957 74.5875 38.7335C74.5971 36.706 73.7395 35.0351 72.1185 33.923C68.5694 31.4882 63.6216 33.8764 63.2751 38.1915C63.1749 39.4418 63.4395 40.528 64.1198 41.6577C64.5605 42.3896 64.6192 42.5797 64.4362 42.6823C63.8816 42.9926 62.7927 44.0158 62.2342 44.7515C61.5977 45.5903 60.8889 47.0167 60.878 47.4815C60.8679 47.9087 60.0108 46.8165 59.3981 45.5956C57.8889 42.588 58.0578 38.5546 59.8146 35.6504C61.077 33.5635 63.1666 31.8751 65.3811 31.1525C66.908 30.6543 67.0808 30.6259 68.7401 30.5996C69.6251 30.5856 70.4965 30.6828 71.2802 30.8833ZM15.0892 35.2964C16.0377 35.7264 16.4713 36.1524 16.912 37.0868C17.6992 38.7561 17.1962 40.5624 15.6197 41.7268C14.7754 42.3507 14.6192 42.6915 14.8735 43.3546C14.9275 43.4951 15.4112 43.8094 15.9486 44.053C17.6281 44.8146 18.733 46.0349 19.3398 47.7985C19.8204 49.1952 19.7666 49.4104 18.7881 50.0034C15.5928 51.94 11.3007 51.9376 8.0822 49.9974L7.21821 49.4766L7.31058 48.7708C7.3614 48.3827 7.65185 47.5581 7.95611 46.9382C8.62045 45.5848 9.5373 44.7195 11.0551 44.0135C12.5799 43.3041 12.6964 42.5363 11.4207 41.6047C10.5424 40.9635 9.91369 39.7506 9.91369 38.6978C9.91369 36.03 12.6871 34.2073 15.0892 35.2964ZM70.6192 35.4008C72.1494 36.1759 72.8982 37.8159 72.4931 39.5047C72.2781 40.4011 71.7675 41.115 70.8535 41.7971C70.393 42.1409 70.2047 42.4022 70.175 42.7381C70.1198 43.3667 70.2194 43.4777 71.3462 44.0445C73.0794 44.9162 74.0869 46.0523 74.6752 47.7986C75.1243 49.1319 75.0974 49.4179 74.4887 49.7755C70.7766 51.9569 67.0104 52.0187 63.4185 49.9574L62.5805 49.4766L62.6676 48.7196C62.8959 46.7308 64.543 44.6811 66.5304 43.9128C67.3092 43.6117 67.6285 43.2949 67.6258 42.8261C67.6229 42.3183 67.5386 42.1983 66.7916 41.6371C65.0016 40.2926 64.753 37.6798 66.2639 36.0874C67.3914 34.8991 69.0974 34.6302 70.6192 35.4008ZM38.9842 56.3628C36.4288 56.8512 34.4182 57.8773 32.5179 59.6632C28.9164 63.0481 27.6899 68.5948 29.5255 73.1979C30.9625 76.8014 33.8428 79.4279 37.6786 80.6324C38.6814 80.9473 39.1756 81 41.1234 81C43.0713 81 43.5655 80.9473 44.5683 80.6324C48.4041 79.4279 51.2843 76.8014 52.7214 73.1979C54.8287 67.9132 52.8945 61.6056 48.1809 58.3902C45.5259 56.5792 41.9625 55.7937 38.9842 56.3628ZM66.494 57.1906C66.3445 57.2298 65.7812 57.8726 65.2421 58.6193C64.0679 60.2458 61.5671 62.8784 59.9434 64.1969C58.5073 65.3631 58.3669 65.5295 58.4152 66.0069C58.4659 66.505 59.1736 67.0298 59.6085 66.8918C60.3737 66.6488 63.3252 63.9919 65.1924 61.865C67.3323 59.4276 68.0505 58.1935 67.665 57.6162C67.554 57.45 66.9168 57.0638 66.8152 57.1012C66.7879 57.1112 66.6433 57.1514 66.494 57.1906ZM44.3591 58.7161C47.6213 59.7587 50.333 62.6324 51.2536 66.0225C51.6742 67.571 51.6408 70.0197 51.1786 71.5116C50.7519 72.8899 50.5378 73.3417 49.7881 74.4474C49.2606 75.2257 48.9651 75.3771 48.9651 74.8691C48.9651 74.0678 47.3439 71.7353 46.1614 70.8349L45.3755 70.2366L45.9142 69.531C46.662 68.5512 46.9805 67.3607 46.8941 65.8678C46.8091 64.4 46.3875 63.4476 45.3225 62.3171C44.2146 61.1412 43.0034 60.6334 41.2803 60.6224C40.0907 60.6147 39.8376 60.6676 38.9278 61.113C37.8362 61.6476 37.5585 61.8609 36.7875 62.7569C35.2878 64.4996 35.2215 67.6885 36.6449 69.6177L37.0288 70.1381L36.1258 70.8027C35.6293 71.1683 34.9714 71.8126 34.6638 72.2345C34.0244 73.1115 33.2818 74.5272 33.2818 74.8691C33.2818 75.3771 32.9863 75.2257 32.4587 74.4474C31.1928 72.5803 30.7016 70.9622 30.7102 68.6886C30.7176 66.7196 31.0135 65.4971 31.8923 63.805C33.3532 60.9919 35.9989 59.0279 39.2523 58.3411C40.4795 58.0822 42.9408 58.2628 44.3591 58.7161ZM15.5597 58.6513C15.0664 59.1446 15.1833 59.59 16.11 60.7508C18.3334 63.5363 22.6082 67.3776 23.8337 67.6915C24.3591 67.826 24.9697 67.3645 24.9697 66.833C24.9697 66.2561 24.8011 66.0659 23.3514 65.0076C21.8151 63.8858 19.2652 61.4494 18.0122 59.906C17.487 59.259 16.9497 58.6438 16.8183 58.5387C16.458 58.2509 15.9111 58.2999 15.5597 58.6513ZM42.3974 62.7316C43.1831 62.9499 44.3261 64.0004 44.6525 64.8045C45.0185 65.7064 44.9914 67.0859 44.592 67.8687C44.4196 68.2065 44.0098 68.7106 43.6812 68.9888C43.3527 69.267 42.9251 69.6382 42.731 69.8137C42.0387 70.4401 42.3497 71.0215 43.7565 71.731C45.5987 72.6601 46.8613 74.2902 47.2056 76.1843L47.3563 77.0136L46.7064 77.4606C43.595 79.6014 38.6731 79.599 35.5369 77.4553L34.8906 77.0136L35.0413 76.1838C35.4232 74.0807 36.9249 72.2785 38.9278 71.5196C40.0093 71.1098 40.3167 70.357 39.6544 69.7402C39.4503 69.5499 39.0214 69.1499 38.7015 68.8509C37.9372 68.1372 37.6352 67.4082 37.6267 66.2577C37.6085 63.7689 39.9365 62.0482 42.3974 62.7316Z" stroke="#0066FF"/>
<path fill-rule="evenodd" clip-rule="evenodd" d="M39.163 1.03796C38.0796 1.21126 36.4211 1.78825 35.328 2.3723C28.053 6.26003 26.4299 15.9601 32.0623 21.8895C34.5924 24.5532 37.4465 25.7779 41.1234 25.7779C44.8004 25.7779 47.6544 24.5532 50.1846 21.8895C55.7774 16.0017 54.2176 6.36746 47.0329 2.42405C45.2456 1.44306 43.8457 1.08109 41.5939 1.01789C40.5157 0.98762 39.4218 0.996717 39.163 1.03796ZM44.1817 3.36144C47.7106 4.60513 50.133 7.07697 51.1813 10.5036C51.4586 11.4098 51.5414 12.058 51.5422 13.3266C51.5437 15.7006 50.9818 17.5318 49.6978 19.3379L49.166 20.0859L48.8045 19.1194C48.3396 17.8763 47.305 16.4764 46.245 15.6562L45.4081 15.0088L45.9173 14.2519C46.6935 13.0987 46.9686 12.0999 46.8991 10.689C46.7933 8.54289 45.5765 6.72629 43.6328 5.81211C42.8942 5.46489 42.5559 5.40654 41.2803 5.40654C39.9933 5.40654 39.6687 5.46363 38.897 5.82529C37.8147 6.33264 36.7337 7.3784 36.1972 8.43734C35.2504 10.3055 35.443 12.7725 36.66 14.3683L37.0488 14.8778L36.3618 15.3504C35.0033 16.2851 34.0442 17.6074 33.1889 19.7244C33.0528 20.0615 33.0017 20.0202 32.375 19.0672C30.2549 15.8424 30.0921 11.7164 31.9536 8.38637C33.4192 5.76444 35.7728 3.9491 38.6925 3.18877C39.8167 2.89596 43.1594 3.0012 44.1817 3.36144ZM43.06 7.81236C45.4114 9.06577 45.5822 12.3207 43.3842 13.9908C41.9832 15.0554 42.0618 15.6684 43.6969 16.4336C45.5055 17.2799 46.8632 19.0096 47.2285 20.933C47.3643 21.6477 47.347 21.7412 47.0343 21.9872C46.3237 22.5463 44.4524 23.344 43.2865 23.5847C40.9931 24.0584 38.6601 23.7811 36.6537 22.7962C34.9114 21.941 34.8421 21.8621 35.017 20.933C35.2452 19.7204 36.0226 18.2883 36.8555 17.5464C37.2621 17.1842 38.1055 16.6494 38.7297 16.358C40.3363 15.6082 40.4268 15.0169 39.0964 13.9632C37.4501 12.6593 37.109 10.4481 38.3004 8.80339C39.3992 7.2865 41.3221 6.88611 43.06 7.81236ZM57.5151 14.6793C57.3608 14.8338 57.2791 15.1266 57.308 15.4222C57.348 15.8312 57.584 16.0839 58.7671 16.983C60.8853 18.5927 62.8153 20.4192 64.1442 22.0713C65.4893 23.7436 65.9107 24.0061 66.5217 23.5523C67.249 23.0118 67.1362 22.6088 65.7834 20.9126C64.3093 19.0645 62.3114 17.153 60.2067 15.5775C58.5901 14.3673 58.0181 14.1765 57.5151 14.6793ZM20.9392 16.4346C19.1011 17.9006 17.1876 19.9018 15.6149 22.0028C14.3855 23.6451 14.2128 24.1878 14.7617 24.6844C15.3719 25.2368 15.8606 24.968 17.0203 23.4423C18.6391 21.3125 20.4372 19.416 22.1617 18.0194C23.8295 16.6687 24.082 16.2584 23.6502 15.5996C23.1924 14.9009 22.6546 15.0665 20.9392 16.4346ZM11.6389 28.6947C5.22172 29.7214 0.597663 35.4291 1.0277 41.7918C1.41021 47.4491 5.41792 52.0963 10.8884 53.2263C17.843 54.6629 24.5406 50.0796 25.7654 43.046C26.0237 41.5625 25.8666 38.9542 25.4347 37.5573C23.8354 32.3849 19.3406 28.8706 14.0114 28.626C13.181 28.5879 12.1133 28.6188 11.6389 28.6947ZM67.0009 28.6373C60.8053 29.8477 56.6896 34.4004 56.382 40.3834C56.0751 46.3526 59.678 51.2878 65.6678 53.1033C67.1284 53.5461 70.4432 53.5111 72.089 53.0358C74.5646 52.3208 76.7937 50.8791 78.3788 48.968C79.3656 47.7784 80.4876 45.5991 80.9025 44.0659C81.2849 42.6531 81.2844 39.359 80.9016 37.9494C80.5131 36.5194 79.56 34.6085 78.6103 33.3562C77.1409 31.4187 74.3824 29.5902 71.9411 28.9359C71.0095 28.6862 67.7571 28.4895 67.0009 28.6373ZM15.6335 30.8152C18.6876 31.4621 21.4368 33.614 22.8449 36.4595C23.8985 38.5888 24.1695 41.2835 23.5669 43.6396C23.2305 44.9549 23.0155 45.4363 22.1692 46.7698C21.5999 47.6667 21.3625 47.8687 21.3625 47.456C21.3625 47.3364 21.0821 46.6787 20.7394 45.994C20.1532 44.8226 18.8561 43.3308 18.0213 42.8678C17.7599 42.7227 17.7803 42.6489 18.2908 41.8903C19.8564 39.5635 19.5851 36.6263 17.6234 34.6667C16.1953 33.24 14.2266 32.6727 12.3286 33.1412C9.66261 33.7991 7.96834 35.9385 7.9616 38.6551C7.9583 39.9896 8.18289 40.7869 8.84221 41.7824L9.34314 42.5385L8.88346 42.8694C7.42476 43.9194 6.42463 45.1852 5.75825 46.8247L5.406 47.6917L4.83482 46.9138C3.72899 45.4071 3.01116 43.1132 3.01571 41.1001C3.02638 36.4635 5.97468 32.4502 10.3842 31.0699C10.9449 30.8944 11.58 30.7216 11.7957 30.686C12.7044 30.5354 14.6165 30.5999 15.6335 30.8152ZM71.2802 30.8833C78.2571 32.6677 81.4367 40.6455 77.5584 46.6352L76.8355 47.7514L76.6434 47.198C76.2225 45.9853 75.5531 44.9164 74.6327 43.9862C74.1012 43.4492 73.5284 42.9365 73.36 42.8471C73.0628 42.6895 73.0659 42.6669 73.4702 42.0814C74.2738 40.9177 74.5815 39.9957 74.5875 38.7335C74.5971 36.706 73.7395 35.0351 72.1185 33.923C68.5694 31.4882 63.6216 33.8764 63.2751 38.1915C63.1749 39.4418 63.4395 40.528 64.1198 41.6577C64.5605 42.3896 64.6192 42.5797 64.4362 42.6823C63.8816 42.9926 62.7927 44.0158 62.2342 44.7515C61.5977 45.5903 60.8889 47.0167 60.878 47.4815C60.8679 47.9087 60.0108 46.8165 59.3981 45.5956C57.8889 42.588 58.0578 38.5546 59.8146 35.6504C61.077 33.5635 63.1666 31.8751 65.3811 31.1525C66.908 30.6543 67.0808 30.6259 68.7401 30.5996C69.6251 30.5856 70.4965 30.6828 71.2802 30.8833ZM15.0892 35.2964C16.0377 35.7264 16.4713 36.1524 16.912 37.0868C17.6992 38.7561 17.1962 40.5624 15.6197 41.7268C14.7754 42.3507 14.6192 42.6915 14.8735 43.3546C14.9275 43.4951 15.4112 43.8094 15.9486 44.053C17.6281 44.8146 18.733 46.0349 19.3398 47.7985C19.8204 49.1952 19.7666 49.4104 18.7881 50.0034C15.5928 51.94 11.3007 51.9376 8.0822 49.9974L7.21821 49.4766L7.31058 48.7708C7.3614 48.3827 7.65185 47.5581 7.95611 46.9382C8.62045 45.5848 9.5373 44.7195 11.0551 44.0135C12.5799 43.3041 12.6964 42.5363 11.4207 41.6047C10.5424 40.9635 9.91369 39.7506 9.91369 38.6978C9.91369 36.03 12.6871 34.2073 15.0892 35.2964ZM70.6192 35.4008C72.1494 36.1759 72.8982 37.8159 72.4931 39.5047C72.2781 40.4011 71.7675 41.115 70.8535 41.7971C70.393 42.1409 70.2047 42.4022 70.175 42.7381C70.1198 43.3667 70.2194 43.4777 71.3462 44.0445C73.0794 44.9162 74.0869 46.0523 74.6752 47.7986C75.1243 49.1319 75.0974 49.4179 74.4887 49.7755C70.7766 51.9569 67.0104 52.0187 63.4185 49.9574L62.5805 49.4766L62.6676 48.7196C62.8959 46.7308 64.543 44.6811 66.5304 43.9128C67.3092 43.6117 67.6285 43.2949 67.6258 42.8261C67.6229 42.3183 67.5386 42.1983 66.7916 41.6371C65.0016 40.2926 64.753 37.6798 66.2639 36.0874C67.3914 34.8991 69.0974 34.6302 70.6192 35.4008ZM38.9842 56.3628C36.4288 56.8512 34.4182 57.8773 32.5179 59.6632C28.9164 63.0481 27.6899 68.5948 29.5255 73.1979C30.9625 76.8014 33.8428 79.4279 37.6786 80.6324C38.6814 80.9473 39.1756 81 41.1234 81C43.0713 81 43.5655 80.9473 44.5683 80.6324C48.4041 79.4279 51.2843 76.8014 52.7214 73.1979C54.8287 67.9132 52.8945 61.6056 48.1809 58.3902C45.5259 56.5792 41.9625 55.7937 38.9842 56.3628ZM66.494 57.1906C66.3445 57.2298 65.7812 57.8726 65.2421 58.6193C64.0679 60.2458 61.5671 62.8784 59.9434 64.1969C58.5073 65.3631 58.3669 65.5295 58.4152 66.0069C58.4659 66.505 59.1736 67.0298 59.6085 66.8918C60.3737 66.6488 63.3252 63.9919 65.1924 61.865C67.3323 59.4276 68.0505 58.1935 67.665 57.6162C67.554 57.45 66.9168 57.0638 66.8152 57.1012C66.7879 57.1112 66.6433 57.1514 66.494 57.1906ZM44.3591 58.7161C47.6213 59.7587 50.333 62.6324 51.2536 66.0225C51.6742 67.571 51.6408 70.0197 51.1786 71.5116C50.7519 72.8899 50.5378 73.3417 49.7881 74.4474C49.2606 75.2257 48.9651 75.3771 48.9651 74.8691C48.9651 74.0678 47.3439 71.7353 46.1614 70.8349L45.3755 70.2366L45.9142 69.531C46.662 68.5512 46.9805 67.3607 46.8941 65.8678C46.8091 64.4 46.3875 63.4476 45.3225 62.3171C44.2146 61.1412 43.0034 60.6334 41.2803 60.6224C40.0907 60.6147 39.8376 60.6676 38.9278 61.113C37.8362 61.6476 37.5585 61.8609 36.7875 62.7569C35.2878 64.4996 35.2215 67.6885 36.6449 69.6177L37.0288 70.1381L36.1258 70.8027C35.6293 71.1683 34.9714 71.8126 34.6638 72.2345C34.0244 73.1115 33.2818 74.5272 33.2818 74.8691C33.2818 75.3771 32.9863 75.2257 32.4587 74.4474C31.1928 72.5803 30.7016 70.9622 30.7102 68.6886C30.7176 66.7196 31.0135 65.4971 31.8923 63.805C33.3532 60.9919 35.9989 59.0279 39.2523 58.3411C40.4795 58.0822 42.9408 58.2628 44.3591 58.7161ZM15.5597 58.6513C15.0664 59.1446 15.1833 59.59 16.11 60.7508C18.3334 63.5363 22.6082 67.3776 23.8337 67.6915C24.3591 67.826 24.9697 67.3645 24.9697 66.833C24.9697 66.2561 24.8011 66.0659 23.3514 65.0076C21.8151 63.8858 19.2652 61.4494 18.0122 59.906C17.487 59.259 16.9497 58.6438 16.8183 58.5387C16.458 58.2509 15.9111 58.2999 15.5597 58.6513ZM42.3974 62.7316C43.1831 62.9499 44.3261 64.0004 44.6525 64.8045C45.0185 65.7064 44.9914 67.0859 44.592 67.8687C44.4196 68.2065 44.0098 68.7106 43.6812 68.9888C43.3527 69.267 42.9251 69.6382 42.731 69.8137C42.0387 70.4401 42.3497 71.0215 43.7565 71.731C45.5987 72.6601 46.8613 74.2902 47.2056 76.1843L47.3563 77.0136L46.7064 77.4606C43.595 79.6014 38.6731 79.599 35.5369 77.4553L34.8906 77.0136L35.0413 76.1838C35.4232 74.0807 36.9249 72.2785 38.9278 71.5196C40.0093 71.1098 40.3167 70.357 39.6544 69.7402C39.4503 69.5499 39.0214 69.1499 38.7015 68.8509C37.9372 68.1372 37.6352 67.4082 37.6267 66.2577C37.6085 63.7689 39.9365 62.0482 42.3974 62.7316Z" stroke="url(#paint2_radial_1217_783)" stroke-opacity="0.7"/>
<path fill-rule="evenodd" clip-rule="evenodd" d="M39.163 1.03796C38.0796 1.21126 36.4211 1.78825 35.328 2.3723C28.053 6.26003 26.4299 15.9601 32.0623 21.8895C34.5924 24.5532 37.4465 25.7779 41.1234 25.7779C44.8004 25.7779 47.6544 24.5532 50.1846 21.8895C55.7774 16.0017 54.2176 6.36746 47.0329 2.42405C45.2456 1.44306 43.8457 1.08109 41.5939 1.01789C40.5157 0.98762 39.4218 0.996717 39.163 1.03796ZM44.1817 3.36144C47.7106 4.60513 50.133 7.07697 51.1813 10.5036C51.4586 11.4098 51.5414 12.058 51.5422 13.3266C51.5437 15.7006 50.9818 17.5318 49.6978 19.3379L49.166 20.0859L48.8045 19.1194C48.3396 17.8763 47.305 16.4764 46.245 15.6562L45.4081 15.0088L45.9173 14.2519C46.6935 13.0987 46.9686 12.0999 46.8991 10.689C46.7933 8.54289 45.5765 6.72629 43.6328 5.81211C42.8942 5.46489 42.5559 5.40654 41.2803 5.40654C39.9933 5.40654 39.6687 5.46363 38.897 5.82529C37.8147 6.33264 36.7337 7.3784 36.1972 8.43734C35.2504 10.3055 35.443 12.7725 36.66 14.3683L37.0488 14.8778L36.3618 15.3504C35.0033 16.2851 34.0442 17.6074 33.1889 19.7244C33.0528 20.0615 33.0017 20.0202 32.375 19.0672C30.2549 15.8424 30.0921 11.7164 31.9536 8.38637C33.4192 5.76444 35.7728 3.9491 38.6925 3.18877C39.8167 2.89596 43.1594 3.0012 44.1817 3.36144ZM43.06 7.81236C45.4114 9.06577 45.5822 12.3207 43.3842 13.9908C41.9832 15.0554 42.0618 15.6684 43.6969 16.4336C45.5055 17.2799 46.8632 19.0096 47.2285 20.933C47.3643 21.6477 47.347 21.7412 47.0343 21.9872C46.3237 22.5463 44.4524 23.344 43.2865 23.5847C40.9931 24.0584 38.6601 23.7811 36.6537 22.7962C34.9114 21.941 34.8421 21.8621 35.017 20.933C35.2452 19.7204 36.0226 18.2883 36.8555 17.5464C37.2621 17.1842 38.1055 16.6494 38.7297 16.358C40.3363 15.6082 40.4268 15.0169 39.0964 13.9632C37.4501 12.6593 37.109 10.4481 38.3004 8.80339C39.3992 7.2865 41.3221 6.88611 43.06 7.81236ZM57.5151 14.6793C57.3608 14.8338 57.2791 15.1266 57.308 15.4222C57.348 15.8312 57.584 16.0839 58.7671 16.983C60.8853 18.5927 62.8153 20.4192 64.1442 22.0713C65.4893 23.7436 65.9107 24.0061 66.5217 23.5523C67.249 23.0118 67.1362 22.6088 65.7834 20.9126C64.3093 19.0645 62.3114 17.153 60.2067 15.5775C58.5901 14.3673 58.0181 14.1765 57.5151 14.6793ZM20.9392 16.4346C19.1011 17.9006 17.1876 19.9018 15.6149 22.0028C14.3855 23.6451 14.2128 24.1878 14.7617 24.6844C15.3719 25.2368 15.8606 24.968 17.0203 23.4423C18.6391 21.3125 20.4372 19.416 22.1617 18.0194C23.8295 16.6687 24.082 16.2584 23.6502 15.5996C23.1924 14.9009 22.6546 15.0665 20.9392 16.4346ZM11.6389 28.6947C5.22172 29.7214 0.597663 35.4291 1.0277 41.7918C1.41021 47.4491 5.41792 52.0963 10.8884 53.2263C17.843 54.6629 24.5406 50.0796 25.7654 43.046C26.0237 41.5625 25.8666 38.9542 25.4347 37.5573C23.8354 32.3849 19.3406 28.8706 14.0114 28.626C13.181 28.5879 12.1133 28.6188 11.6389 28.6947ZM67.0009 28.6373C60.8053 29.8477 56.6896 34.4004 56.382 40.3834C56.0751 46.3526 59.678 51.2878 65.6678 53.1033C67.1284 53.5461 70.4432 53.5111 72.089 53.0358C74.5646 52.3208 76.7937 50.8791 78.3788 48.968C79.3656 47.7784 80.4876 45.5991 80.9025 44.0659C81.2849 42.6531 81.2844 39.359 80.9016 37.9494C80.5131 36.5194 79.56 34.6085 78.6103 33.3562C77.1409 31.4187 74.3824 29.5902 71.9411 28.9359C71.0095 28.6862 67.7571 28.4895 67.0009 28.6373ZM15.6335 30.8152C18.6876 31.4621 21.4368 33.614 22.8449 36.4595C23.8985 38.5888 24.1695 41.2835 23.5669 43.6396C23.2305 44.9549 23.0155 45.4363 22.1692 46.7698C21.5999 47.6667 21.3625 47.8687 21.3625 47.456C21.3625 47.3364 21.0821 46.6787 20.7394 45.994C20.1532 44.8226 18.8561 43.3308 18.0213 42.8678C17.7599 42.7227 17.7803 42.6489 18.2908 41.8903C19.8564 39.5635 19.5851 36.6263 17.6234 34.6667C16.1953 33.24 14.2266 32.6727 12.3286 33.1412C9.66261 33.7991 7.96834 35.9385 7.9616 38.6551C7.9583 39.9896 8.18289 40.7869 8.84221 41.7824L9.34314 42.5385L8.88346 42.8694C7.42476 43.9194 6.42463 45.1852 5.75825 46.8247L5.406 47.6917L4.83482 46.9138C3.72899 45.4071 3.01116 43.1132 3.01571 41.1001C3.02638 36.4635 5.97468 32.4502 10.3842 31.0699C10.9449 30.8944 11.58 30.7216 11.7957 30.686C12.7044 30.5354 14.6165 30.5999 15.6335 30.8152ZM71.2802 30.8833C78.2571 32.6677 81.4367 40.6455 77.5584 46.6352L76.8355 47.7514L76.6434 47.198C76.2225 45.9853 75.5531 44.9164 74.6327 43.9862C74.1012 43.4492 73.5284 42.9365 73.36 42.8471C73.0628 42.6895 73.0659 42.6669 73.4702 42.0814C74.2738 40.9177 74.5815 39.9957 74.5875 38.7335C74.5971 36.706 73.7395 35.0351 72.1185 33.923C68.5694 31.4882 63.6216 33.8764 63.2751 38.1915C63.1749 39.4418 63.4395 40.528 64.1198 41.6577C64.5605 42.3896 64.6192 42.5797 64.4362 42.6823C63.8816 42.9926 62.7927 44.0158 62.2342 44.7515C61.5977 45.5903 60.8889 47.0167 60.878 47.4815C60.8679 47.9087 60.0108 46.8165 59.3981 45.5956C57.8889 42.588 58.0578 38.5546 59.8146 35.6504C61.077 33.5635 63.1666 31.8751 65.3811 31.1525C66.908 30.6543 67.0808 30.6259 68.7401 30.5996C69.6251 30.5856 70.4965 30.6828 71.2802 30.8833ZM15.0892 35.2964C16.0377 35.7264 16.4713 36.1524 16.912 37.0868C17.6992 38.7561 17.1962 40.5624 15.6197 41.7268C14.7754 42.3507 14.6192 42.6915 14.8735 43.3546C14.9275 43.4951 15.4112 43.8094 15.9486 44.053C17.6281 44.8146 18.733 46.0349 19.3398 47.7985C19.8204 49.1952 19.7666 49.4104 18.7881 50.0034C15.5928 51.94 11.3007 51.9376 8.0822 49.9974L7.21821 49.4766L7.31058 48.7708C7.3614 48.3827 7.65185 47.5581 7.95611 46.9382C8.62045 45.5848 9.5373 44.7195 11.0551 44.0135C12.5799 43.3041 12.6964 42.5363 11.4207 41.6047C10.5424 40.9635 9.91369 39.7506 9.91369 38.6978C9.91369 36.03 12.6871 34.2073 15.0892 35.2964ZM70.6192 35.4008C72.1494 36.1759 72.8982 37.8159 72.4931 39.5047C72.2781 40.4011 71.7675 41.115 70.8535 41.7971C70.393 42.1409 70.2047 42.4022 70.175 42.7381C70.1198 43.3667 70.2194 43.4777 71.3462 44.0445C73.0794 44.9162 74.0869 46.0523 74.6752 47.7986C75.1243 49.1319 75.0974 49.4179 74.4887 49.7755C70.7766 51.9569 67.0104 52.0187 63.4185 49.9574L62.5805 49.4766L62.6676 48.7196C62.8959 46.7308 64.543 44.6811 66.5304 43.9128C67.3092 43.6117 67.6285 43.2949 67.6258 42.8261C67.6229 42.3183 67.5386 42.1983 66.7916 41.6371C65.0016 40.2926 64.753 37.6798 66.2639 36.0874C67.3914 34.8991 69.0974 34.6302 70.6192 35.4008ZM38.9842 56.3628C36.4288 56.8512 34.4182 57.8773 32.5179 59.6632C28.9164 63.0481 27.6899 68.5948 29.5255 73.1979C30.9625 76.8014 33.8428 79.4279 37.6786 80.6324C38.6814 80.9473 39.1756 81 41.1234 81C43.0713 81 43.5655 80.9473 44.5683 80.6324C48.4041 79.4279 51.2843 76.8014 52.7214 73.1979C54.8287 67.9132 52.8945 61.6056 48.1809 58.3902C45.5259 56.5792 41.9625 55.7937 38.9842 56.3628ZM66.494 57.1906C66.3445 57.2298 65.7812 57.8726 65.2421 58.6193C64.0679 60.2458 61.5671 62.8784 59.9434 64.1969C58.5073 65.3631 58.3669 65.5295 58.4152 66.0069C58.4659 66.505 59.1736 67.0298 59.6085 66.8918C60.3737 66.6488 63.3252 63.9919 65.1924 61.865C67.3323 59.4276 68.0505 58.1935 67.665 57.6162C67.554 57.45 66.9168 57.0638 66.8152 57.1012C66.7879 57.1112 66.6433 57.1514 66.494 57.1906ZM44.3591 58.7161C47.6213 59.7587 50.333 62.6324 51.2536 66.0225C51.6742 67.571 51.6408 70.0197 51.1786 71.5116C50.7519 72.8899 50.5378 73.3417 49.7881 74.4474C49.2606 75.2257 48.9651 75.3771 48.9651 74.8691C48.9651 74.0678 47.3439 71.7353 46.1614 70.8349L45.3755 70.2366L45.9142 69.531C46.662 68.5512 46.9805 67.3607 46.8941 65.8678C46.8091 64.4 46.3875 63.4476 45.3225 62.3171C44.2146 61.1412 43.0034 60.6334 41.2803 60.6224C40.0907 60.6147 39.8376 60.6676 38.9278 61.113C37.8362 61.6476 37.5585 61.8609 36.7875 62.7569C35.2878 64.4996 35.2215 67.6885 36.6449 69.6177L37.0288 70.1381L36.1258 70.8027C35.6293 71.1683 34.9714 71.8126 34.6638 72.2345C34.0244 73.1115 33.2818 74.5272 33.2818 74.8691C33.2818 75.3771 32.9863 75.2257 32.4587 74.4474C31.1928 72.5803 30.7016 70.9622 30.7102 68.6886C30.7176 66.7196 31.0135 65.4971 31.8923 63.805C33.3532 60.9919 35.9989 59.0279 39.2523 58.3411C40.4795 58.0822 42.9408 58.2628 44.3591 58.7161ZM15.5597 58.6513C15.0664 59.1446 15.1833 59.59 16.11 60.7508C18.3334 63.5363 22.6082 67.3776 23.8337 67.6915C24.3591 67.826 24.9697 67.3645 24.9697 66.833C24.9697 66.2561 24.8011 66.0659 23.3514 65.0076C21.8151 63.8858 19.2652 61.4494 18.0122 59.906C17.487 59.259 16.9497 58.6438 16.8183 58.5387C16.458 58.2509 15.9111 58.2999 15.5597 58.6513ZM42.3974 62.7316C43.1831 62.9499 44.3261 64.0004 44.6525 64.8045C45.0185 65.7064 44.9914 67.0859 44.592 67.8687C44.4196 68.2065 44.0098 68.7106 43.6812 68.9888C43.3527 69.267 42.9251 69.6382 42.731 69.8137C42.0387 70.4401 42.3497 71.0215 43.7565 71.731C45.5987 72.6601 46.8613 74.2902 47.2056 76.1843L47.3563 77.0136L46.7064 77.4606C43.595 79.6014 38.6731 79.599 35.5369 77.4553L34.8906 77.0136L35.0413 76.1838C35.4232 74.0807 36.9249 72.2785 38.9278 71.5196C40.0093 71.1098 40.3167 70.357 39.6544 69.7402C39.4503 69.5499 39.0214 69.1499 38.7015 68.8509C37.9372 68.1372 37.6352 67.4082 37.6267 66.2577C37.6085 63.7689 39.9365 62.0482 42.3974 62.7316Z" stroke="url(#paint3_radial_1217_783)"/>
<defs>
<radialGradient id="paint0_radial_1217_783" cx="0" cy="0" r="1" gradientUnits="userSpaceOnUse" gradientTransform="translate(22.161 17.6667) rotate(50.978) scale(67.2184 67.2514)">
<stop stop-color="white" stop-opacity="0.59"/>
<stop offset="0.697917" stop-color="white" stop-opacity="0"/>
<stop offset="1" stop-color="white" stop-opacity="0"/>
</radialGradient>
<radialGradient id="paint1_radial_1217_783" cx="0" cy="0" r="1" gradientUnits="userSpaceOnUse" gradientTransform="translate(70.2042 71) rotate(-93.6791) scale(68.4745 76.4965)">
<stop stop-opacity="0.23"/>
<stop offset="0.861815" stop-opacity="0"/>
</radialGradient>
<radialGradient id="paint2_radial_1217_783" cx="0" cy="0" r="1" gradientUnits="userSpaceOnUse" gradientTransform="translate(22.161 17.6667) rotate(50.978) scale(67.2184 67.2514)">
<stop stop-color="white" stop-opacity="0.59"/>
<stop offset="0.697917" stop-color="white" stop-opacity="0"/>
<stop offset="1" stop-color="white" stop-opacity="0"/>
</radialGradient>
<radialGradient id="paint3_radial_1217_783" cx="0" cy="0" r="1" gradientUnits="userSpaceOnUse" gradientTransform="translate(70.2042 71) rotate(-93.6791) scale(68.4745 76.4965)">
<stop stop-opacity="0.23"/>
<stop offset="0.861815" stop-opacity="0"/>
</radialGradient>
</defs>
</svg>
