<svg width="86" height="80" viewBox="0 0 86 80" fill="none" xmlns="http://www.w3.org/2000/svg">
<path fill-rule="evenodd" clip-rule="evenodd" d="M39.0094 0.240836C31.2547 1.55369 24.6157 6.62154 21.1837 13.8481C18.663 19.1559 18.3489 25.0632 20.2758 30.9239C20.5169 31.6575 20.8142 32.4556 20.9362 32.6976L21.1581 33.1372L19.538 33.426C10.0254 35.1215 2.39969 42.498 0.494432 51.8473C-1.65842 62.411 3.35323 72.7353 12.9157 77.4365C16.9026 79.3966 19.2746 79.9403 23.8367 79.9403C27.3129 79.9403 28.4617 79.7798 31.1221 78.9219C35.0698 77.6489 39.3024 74.6826 41.7605 71.4661C42.219 70.8662 42.6317 70.3754 42.6775 70.3754C42.7234 70.3754 43.136 70.8662 43.5946 71.4661C46.1387 74.7951 50.2762 77.6464 54.5156 78.9923C57.1673 79.8341 59.1341 80.0822 62.3255 79.9774C65.3637 79.8775 66.6477 79.6546 69.3448 78.7587C73.0343 77.5336 76.2479 75.4817 79.0321 72.5741C82.2137 69.2511 84.0998 65.5515 84.9652 60.9358C85.3832 58.7062 85.3868 54.3907 84.9725 52.304C84.0637 47.7265 81.9973 43.7378 78.8051 40.3986C75.2748 36.7058 70.709 34.263 65.7489 33.4132L64.0602 33.1239L64.4464 32.2507C65.229 30.4809 65.8806 27.4855 66.0987 24.6547C66.3094 21.9178 65.4644 16.7461 64.6678 15.8982C63.9286 15.1114 62.5704 15.2618 62.0941 16.1832C61.7771 16.7961 61.7878 17.0942 62.1786 18.5421C63.7057 24.1995 62.4097 30.483 58.6772 35.518C57.591 36.9833 55.0361 39.4246 53.5985 40.371C51.1791 41.9638 48.6516 42.9802 45.9315 43.4542C43.7029 43.8425 39.9534 43.6888 37.8423 43.1225C30.0563 41.0345 24.4173 35.0762 22.7403 27.1657C22.3406 25.2805 22.3358 21.634 22.7303 19.6174C24.2307 11.947 30.004 6.05948 38.1757 3.86644C39.5871 3.48763 40.0867 3.44044 42.7609 3.43227C45.3283 3.4246 45.9752 3.47679 47.236 3.79375C49.2618 4.30278 50.9862 5.0149 52.7937 6.08899C54.8097 7.2868 55.6792 7.29914 56.2793 6.13885C56.6122 5.49509 56.4818 4.67627 55.972 4.20741C54.9076 3.22869 51.3707 1.53952 48.8466 0.804393C46.1311 0.0134122 41.8134 -0.233853 39.0094 0.240836ZM59.5771 9.16388C58.6672 9.53103 58.3798 10.9641 59.059 11.7459C59.8717 12.6813 61.2919 12.4157 61.7846 11.2364C61.99 10.7447 61.9905 10.5883 61.7883 10.1041C61.3871 9.14387 60.5298 8.7794 59.5771 9.16388ZM34.6744 13.6257C33.8213 14.0517 33.6364 14.7686 33.703 17.3907L33.7573 19.5302L34.3019 20.0167C35.046 20.6813 35.8558 20.681 36.5213 20.0157L37.0086 19.5283V17.0035C37.0086 15.5137 36.9347 14.3408 36.8285 14.1422C36.6706 13.8472 35.7546 13.333 35.3883 13.3339C35.3166 13.3339 34.9953 13.4653 34.6744 13.6257ZM49.0489 13.5848C48.1637 13.9693 47.9708 14.6701 48.0423 17.2421C48.1065 19.5573 48.2369 19.9902 48.9705 20.3245C49.6763 20.6459 50.3381 20.5379 50.8603 20.0157L51.3476 19.5283V17.0035C51.3476 15.5137 51.2738 14.3408 51.1676 14.1422C51.0075 13.8432 50.073 13.3227 49.7273 13.34C49.6556 13.3437 49.3504 13.4538 49.0489 13.5848ZM31.8271 28.3267C31.4604 28.6933 31.3397 28.9701 31.3397 29.4436C31.3397 29.9843 31.4584 30.1847 32.1814 30.8633C33.8295 32.4108 37.1707 33.7507 40.484 34.1928C44.8631 34.7772 50.4775 33.246 53.1282 30.744C54.048 29.8758 54.1239 29.0893 53.3613 28.3267C52.6385 27.6039 51.8734 27.6561 50.6544 28.5112C49.3897 29.3984 47.8981 30.0837 46.2623 30.5292C45.1885 30.8217 44.4731 30.8925 42.5942 30.8925C40.7153 30.8925 39.9998 30.8217 38.926 30.5292C37.3097 30.089 35.8697 29.4311 34.5288 28.5206C33.2646 27.6621 32.5435 27.6104 31.8271 28.3267ZM23.7605 37.6244C27.6957 42.8526 33.4857 46.1009 40.425 46.9731L41.4237 47.0986L42.0304 48.5155C43.8125 52.6775 44.16 57.5094 42.9967 61.9507C41.6575 67.0636 37.6719 72.0137 32.9177 74.4692C29.4084 76.2814 25.6611 77.0499 22.0607 76.6954C12.523 75.7565 5.84289 69.912 3.86911 60.7792C3.40992 58.6547 3.47162 53.9383 3.98599 51.8489C6.08365 43.3258 12.2933 37.8034 21.1353 36.5976C22.025 36.4762 22.7626 36.3694 22.7745 36.3599C22.7863 36.3504 23.23 36.9194 23.7605 37.6244ZM66.6871 37.0773C72.6429 38.5551 77.1316 42.0608 79.7296 47.2637C81.0698 49.9476 81.6844 52.4673 81.8034 55.7671C81.9111 58.7533 81.6423 60.7157 80.7668 63.3319C78.1858 71.0453 71.9303 75.8287 63.2944 76.6926C58.6942 77.1527 53.7384 75.7255 49.807 72.8083C48.2447 71.6491 46.37 69.7398 45.3871 68.3071C44.6398 67.2178 44.6186 67.1546 44.8311 66.6397C46.5814 62.3977 46.9167 60.7872 46.9219 56.6007C46.9262 53.0625 46.7413 51.8602 45.7432 48.931C45.4308 48.014 45.1572 47.195 45.1352 47.1111C45.1132 47.0273 45.6579 46.8682 46.3457 46.7578C52.4771 45.7736 57.9789 42.3706 61.7181 37.2495L62.3342 36.4057L63.7187 36.5449C64.48 36.6216 65.8159 36.8612 66.6871 37.0773ZM52.2358 48.4792C51.0684 48.6558 50.5865 50.3841 51.4727 51.2171C52.2297 51.9289 55.5793 53.5162 56.3241 53.5162C57.4737 53.5162 58.1573 52.4893 57.7817 51.3266C57.6196 50.8251 57.3682 50.646 55.4326 49.653C53.2084 48.512 52.8617 48.3846 52.2358 48.4792ZM68.6045 49.5096C66.7488 50.4678 66.3931 50.7166 66.1319 51.2379C65.5755 52.3487 66.2777 53.5162 67.5024 53.5162C68.2302 53.5162 71.5939 51.8437 72.2309 51.1649C72.8285 50.5283 72.8449 49.7248 72.274 49.0462C71.5457 48.1807 71.0581 48.2422 68.6045 49.5096ZM13.8801 49.298C13.6768 49.3373 13.3205 49.5955 13.0881 49.8717C12.5264 50.5392 12.5299 51.3285 13.0973 52.0027L13.5289 52.5158H16.1447C19.0741 52.5158 19.3374 52.4347 19.6689 51.4305C19.9415 50.6047 19.4846 49.6775 18.668 49.3989C18.1178 49.2113 14.7004 49.1393 13.8801 49.298ZM28.3877 49.3657C27.6806 49.5701 27.3381 50.0957 27.3381 50.9765C27.3381 51.5194 27.4391 51.7982 27.7474 52.1065C28.1476 52.5068 28.2151 52.5158 30.8091 52.5158C33.4529 52.5158 33.4632 52.5143 33.9014 52.0763C34.2347 51.7428 34.3409 51.4699 34.3409 50.9462C34.3409 50.0638 33.9916 49.5721 33.2106 49.3552C32.4541 49.1451 29.1255 49.1524 28.3877 49.3657ZM59.851 59.0337C58.1757 59.2124 55.9531 59.8172 54.4239 60.5106C52.8421 61.2277 51.0495 62.4681 50.7457 63.0553C50.1914 64.1274 50.9623 65.4313 52.149 65.4286C52.5935 65.4276 53.0433 65.238 53.7653 64.7468C55.8516 63.3279 57.6978 62.6513 60.2679 62.3634C63.5368 61.9972 66.9867 62.7965 69.5814 64.5214C71.0725 65.5125 71.3513 65.597 72.0997 65.2842C72.7892 64.9961 73.2614 64.1139 73.0905 63.4331C73.0328 63.2034 72.6389 62.7102 72.2151 62.3372C69.4915 59.9397 64.317 58.5572 59.851 59.0337ZM17.751 60.5595C17.4758 60.6589 16.7276 61.0657 16.088 61.4633C15.4484 61.861 14.8468 62.1863 14.7511 62.1863C14.6554 62.1863 14.3068 62.0026 13.9763 61.778C13.1673 61.2282 12.5924 61.1067 11.9875 61.3573C11.0561 61.743 10.6997 63.0955 11.3211 63.8856C11.7199 64.3925 13.3715 65.2765 14.1919 65.4219C15.2073 65.6021 16.1216 65.3482 17.5224 64.4975C18.2565 64.0517 18.9901 63.6869 19.1527 63.6869C19.3154 63.6869 20.0552 64.0515 20.7968 64.4974C23.0916 65.8764 24.3903 65.8042 26.7845 64.1642C27.1679 63.9016 27.6556 63.6886 27.8683 63.6904C28.0811 63.6924 28.7627 64.0229 29.3829 64.4247C30.8068 65.3472 31.8496 65.618 33.015 65.3681C34.0163 65.1533 35.2046 64.4969 35.6754 63.8983C36.1529 63.2912 36.1199 62.2828 35.6057 61.7686C34.9158 61.0787 34.4024 61.0613 33.2288 61.6884L32.1874 62.2448L31.305 61.6834C29.5445 60.563 29.0088 60.3521 27.9352 60.3559C26.8426 60.3599 25.9991 60.664 24.7961 61.4882C23.6621 62.2648 23.5359 62.2637 22.2477 61.4645C21.6087 61.068 20.8305 60.6555 20.5189 60.548C19.8264 60.3089 18.4281 60.3145 17.751 60.5595Z" fill="#0066FF"/>
<path fill-rule="evenodd" clip-rule="evenodd" d="M39.0094 0.240836C31.2547 1.55369 24.6157 6.62154 21.1837 13.8481C18.663 19.1559 18.3489 25.0632 20.2758 30.9239C20.5169 31.6575 20.8142 32.4556 20.9362 32.6976L21.1581 33.1372L19.538 33.426C10.0254 35.1215 2.39969 42.498 0.494432 51.8473C-1.65842 62.411 3.35323 72.7353 12.9157 77.4365C16.9026 79.3966 19.2746 79.9403 23.8367 79.9403C27.3129 79.9403 28.4617 79.7798 31.1221 78.9219C35.0698 77.6489 39.3024 74.6826 41.7605 71.4661C42.219 70.8662 42.6317 70.3754 42.6775 70.3754C42.7234 70.3754 43.136 70.8662 43.5946 71.4661C46.1387 74.7951 50.2762 77.6464 54.5156 78.9923C57.1673 79.8341 59.1341 80.0822 62.3255 79.9774C65.3637 79.8775 66.6477 79.6546 69.3448 78.7587C73.0343 77.5336 76.2479 75.4817 79.0321 72.5741C82.2137 69.2511 84.0998 65.5515 84.9652 60.9358C85.3832 58.7062 85.3868 54.3907 84.9725 52.304C84.0637 47.7265 81.9973 43.7378 78.8051 40.3986C75.2748 36.7058 70.709 34.263 65.7489 33.4132L64.0602 33.1239L64.4464 32.2507C65.229 30.4809 65.8806 27.4855 66.0987 24.6547C66.3094 21.9178 65.4644 16.7461 64.6678 15.8982C63.9286 15.1114 62.5704 15.2618 62.0941 16.1832C61.7771 16.7961 61.7878 17.0942 62.1786 18.5421C63.7057 24.1995 62.4097 30.483 58.6772 35.518C57.591 36.9833 55.0361 39.4246 53.5985 40.371C51.1791 41.9638 48.6516 42.9802 45.9315 43.4542C43.7029 43.8425 39.9534 43.6888 37.8423 43.1225C30.0563 41.0345 24.4173 35.0762 22.7403 27.1657C22.3406 25.2805 22.3358 21.634 22.7303 19.6174C24.2307 11.947 30.004 6.05948 38.1757 3.86644C39.5871 3.48763 40.0867 3.44044 42.7609 3.43227C45.3283 3.4246 45.9752 3.47679 47.236 3.79375C49.2618 4.30278 50.9862 5.0149 52.7937 6.08899C54.8097 7.2868 55.6792 7.29914 56.2793 6.13885C56.6122 5.49509 56.4818 4.67627 55.972 4.20741C54.9076 3.22869 51.3707 1.53952 48.8466 0.804393C46.1311 0.0134122 41.8134 -0.233853 39.0094 0.240836ZM59.5771 9.16388C58.6672 9.53103 58.3798 10.9641 59.059 11.7459C59.8717 12.6813 61.2919 12.4157 61.7846 11.2364C61.99 10.7447 61.9905 10.5883 61.7883 10.1041C61.3871 9.14387 60.5298 8.7794 59.5771 9.16388ZM34.6744 13.6257C33.8213 14.0517 33.6364 14.7686 33.703 17.3907L33.7573 19.5302L34.3019 20.0167C35.046 20.6813 35.8558 20.681 36.5213 20.0157L37.0086 19.5283V17.0035C37.0086 15.5137 36.9347 14.3408 36.8285 14.1422C36.6706 13.8472 35.7546 13.333 35.3883 13.3339C35.3166 13.3339 34.9953 13.4653 34.6744 13.6257ZM49.0489 13.5848C48.1637 13.9693 47.9708 14.6701 48.0423 17.2421C48.1065 19.5573 48.2369 19.9902 48.9705 20.3245C49.6763 20.6459 50.3381 20.5379 50.8603 20.0157L51.3476 19.5283V17.0035C51.3476 15.5137 51.2738 14.3408 51.1676 14.1422C51.0075 13.8432 50.073 13.3227 49.7273 13.34C49.6556 13.3437 49.3504 13.4538 49.0489 13.5848ZM31.8271 28.3267C31.4604 28.6933 31.3397 28.9701 31.3397 29.4436C31.3397 29.9843 31.4584 30.1847 32.1814 30.8633C33.8295 32.4108 37.1707 33.7507 40.484 34.1928C44.8631 34.7772 50.4775 33.246 53.1282 30.744C54.048 29.8758 54.1239 29.0893 53.3613 28.3267C52.6385 27.6039 51.8734 27.6561 50.6544 28.5112C49.3897 29.3984 47.8981 30.0837 46.2623 30.5292C45.1885 30.8217 44.4731 30.8925 42.5942 30.8925C40.7153 30.8925 39.9998 30.8217 38.926 30.5292C37.3097 30.089 35.8697 29.4311 34.5288 28.5206C33.2646 27.6621 32.5435 27.6104 31.8271 28.3267ZM23.7605 37.6244C27.6957 42.8526 33.4857 46.1009 40.425 46.9731L41.4237 47.0986L42.0304 48.5155C43.8125 52.6775 44.16 57.5094 42.9967 61.9507C41.6575 67.0636 37.6719 72.0137 32.9177 74.4692C29.4084 76.2814 25.6611 77.0499 22.0607 76.6954C12.523 75.7565 5.84289 69.912 3.86911 60.7792C3.40992 58.6547 3.47162 53.9383 3.98599 51.8489C6.08365 43.3258 12.2933 37.8034 21.1353 36.5976C22.025 36.4762 22.7626 36.3694 22.7745 36.3599C22.7863 36.3504 23.23 36.9194 23.7605 37.6244ZM66.6871 37.0773C72.6429 38.5551 77.1316 42.0608 79.7296 47.2637C81.0698 49.9476 81.6844 52.4673 81.8034 55.7671C81.9111 58.7533 81.6423 60.7157 80.7668 63.3319C78.1858 71.0453 71.9303 75.8287 63.2944 76.6926C58.6942 77.1527 53.7384 75.7255 49.807 72.8083C48.2447 71.6491 46.37 69.7398 45.3871 68.3071C44.6398 67.2178 44.6186 67.1546 44.8311 66.6397C46.5814 62.3977 46.9167 60.7872 46.9219 56.6007C46.9262 53.0625 46.7413 51.8602 45.7432 48.931C45.4308 48.014 45.1572 47.195 45.1352 47.1111C45.1132 47.0273 45.6579 46.8682 46.3457 46.7578C52.4771 45.7736 57.9789 42.3706 61.7181 37.2495L62.3342 36.4057L63.7187 36.5449C64.48 36.6216 65.8159 36.8612 66.6871 37.0773ZM52.2358 48.4792C51.0684 48.6558 50.5865 50.3841 51.4727 51.2171C52.2297 51.9289 55.5793 53.5162 56.3241 53.5162C57.4737 53.5162 58.1573 52.4893 57.7817 51.3266C57.6196 50.8251 57.3682 50.646 55.4326 49.653C53.2084 48.512 52.8617 48.3846 52.2358 48.4792ZM68.6045 49.5096C66.7488 50.4678 66.3931 50.7166 66.1319 51.2379C65.5755 52.3487 66.2777 53.5162 67.5024 53.5162C68.2302 53.5162 71.5939 51.8437 72.2309 51.1649C72.8285 50.5283 72.8449 49.7248 72.274 49.0462C71.5457 48.1807 71.0581 48.2422 68.6045 49.5096ZM13.8801 49.298C13.6768 49.3373 13.3205 49.5955 13.0881 49.8717C12.5264 50.5392 12.5299 51.3285 13.0973 52.0027L13.5289 52.5158H16.1447C19.0741 52.5158 19.3374 52.4347 19.6689 51.4305C19.9415 50.6047 19.4846 49.6775 18.668 49.3989C18.1178 49.2113 14.7004 49.1393 13.8801 49.298ZM28.3877 49.3657C27.6806 49.5701 27.3381 50.0957 27.3381 50.9765C27.3381 51.5194 27.4391 51.7982 27.7474 52.1065C28.1476 52.5068 28.2151 52.5158 30.8091 52.5158C33.4529 52.5158 33.4632 52.5143 33.9014 52.0763C34.2347 51.7428 34.3409 51.4699 34.3409 50.9462C34.3409 50.0638 33.9916 49.5721 33.2106 49.3552C32.4541 49.1451 29.1255 49.1524 28.3877 49.3657ZM59.851 59.0337C58.1757 59.2124 55.9531 59.8172 54.4239 60.5106C52.8421 61.2277 51.0495 62.4681 50.7457 63.0553C50.1914 64.1274 50.9623 65.4313 52.149 65.4286C52.5935 65.4276 53.0433 65.238 53.7653 64.7468C55.8516 63.3279 57.6978 62.6513 60.2679 62.3634C63.5368 61.9972 66.9867 62.7965 69.5814 64.5214C71.0725 65.5125 71.3513 65.597 72.0997 65.2842C72.7892 64.9961 73.2614 64.1139 73.0905 63.4331C73.0328 63.2034 72.6389 62.7102 72.2151 62.3372C69.4915 59.9397 64.317 58.5572 59.851 59.0337ZM17.751 60.5595C17.4758 60.6589 16.7276 61.0657 16.088 61.4633C15.4484 61.861 14.8468 62.1863 14.7511 62.1863C14.6554 62.1863 14.3068 62.0026 13.9763 61.778C13.1673 61.2282 12.5924 61.1067 11.9875 61.3573C11.0561 61.743 10.6997 63.0955 11.3211 63.8856C11.7199 64.3925 13.3715 65.2765 14.1919 65.4219C15.2073 65.6021 16.1216 65.3482 17.5224 64.4975C18.2565 64.0517 18.9901 63.6869 19.1527 63.6869C19.3154 63.6869 20.0552 64.0515 20.7968 64.4974C23.0916 65.8764 24.3903 65.8042 26.7845 64.1642C27.1679 63.9016 27.6556 63.6886 27.8683 63.6904C28.0811 63.6924 28.7627 64.0229 29.3829 64.4247C30.8068 65.3472 31.8496 65.618 33.015 65.3681C34.0163 65.1533 35.2046 64.4969 35.6754 63.8983C36.1529 63.2912 36.1199 62.2828 35.6057 61.7686C34.9158 61.0787 34.4024 61.0613 33.2288 61.6884L32.1874 62.2448L31.305 61.6834C29.5445 60.563 29.0088 60.3521 27.9352 60.3559C26.8426 60.3599 25.9991 60.664 24.7961 61.4882C23.6621 62.2648 23.5359 62.2637 22.2477 61.4645C21.6087 61.068 20.8305 60.6555 20.5189 60.548C19.8264 60.3089 18.4281 60.3145 17.751 60.5595Z" fill="url(#paint0_radial_1217_779)" fill-opacity="0.7"/>
<path fill-rule="evenodd" clip-rule="evenodd" d="M39.0094 0.240836C31.2547 1.55369 24.6157 6.62154 21.1837 13.8481C18.663 19.1559 18.3489 25.0632 20.2758 30.9239C20.5169 31.6575 20.8142 32.4556 20.9362 32.6976L21.1581 33.1372L19.538 33.426C10.0254 35.1215 2.39969 42.498 0.494432 51.8473C-1.65842 62.411 3.35323 72.7353 12.9157 77.4365C16.9026 79.3966 19.2746 79.9403 23.8367 79.9403C27.3129 79.9403 28.4617 79.7798 31.1221 78.9219C35.0698 77.6489 39.3024 74.6826 41.7605 71.4661C42.219 70.8662 42.6317 70.3754 42.6775 70.3754C42.7234 70.3754 43.136 70.8662 43.5946 71.4661C46.1387 74.7951 50.2762 77.6464 54.5156 78.9923C57.1673 79.8341 59.1341 80.0822 62.3255 79.9774C65.3637 79.8775 66.6477 79.6546 69.3448 78.7587C73.0343 77.5336 76.2479 75.4817 79.0321 72.5741C82.2137 69.2511 84.0998 65.5515 84.9652 60.9358C85.3832 58.7062 85.3868 54.3907 84.9725 52.304C84.0637 47.7265 81.9973 43.7378 78.8051 40.3986C75.2748 36.7058 70.709 34.263 65.7489 33.4132L64.0602 33.1239L64.4464 32.2507C65.229 30.4809 65.8806 27.4855 66.0987 24.6547C66.3094 21.9178 65.4644 16.7461 64.6678 15.8982C63.9286 15.1114 62.5704 15.2618 62.0941 16.1832C61.7771 16.7961 61.7878 17.0942 62.1786 18.5421C63.7057 24.1995 62.4097 30.483 58.6772 35.518C57.591 36.9833 55.0361 39.4246 53.5985 40.371C51.1791 41.9638 48.6516 42.9802 45.9315 43.4542C43.7029 43.8425 39.9534 43.6888 37.8423 43.1225C30.0563 41.0345 24.4173 35.0762 22.7403 27.1657C22.3406 25.2805 22.3358 21.634 22.7303 19.6174C24.2307 11.947 30.004 6.05948 38.1757 3.86644C39.5871 3.48763 40.0867 3.44044 42.7609 3.43227C45.3283 3.4246 45.9752 3.47679 47.236 3.79375C49.2618 4.30278 50.9862 5.0149 52.7937 6.08899C54.8097 7.2868 55.6792 7.29914 56.2793 6.13885C56.6122 5.49509 56.4818 4.67627 55.972 4.20741C54.9076 3.22869 51.3707 1.53952 48.8466 0.804393C46.1311 0.0134122 41.8134 -0.233853 39.0094 0.240836ZM59.5771 9.16388C58.6672 9.53103 58.3798 10.9641 59.059 11.7459C59.8717 12.6813 61.2919 12.4157 61.7846 11.2364C61.99 10.7447 61.9905 10.5883 61.7883 10.1041C61.3871 9.14387 60.5298 8.7794 59.5771 9.16388ZM34.6744 13.6257C33.8213 14.0517 33.6364 14.7686 33.703 17.3907L33.7573 19.5302L34.3019 20.0167C35.046 20.6813 35.8558 20.681 36.5213 20.0157L37.0086 19.5283V17.0035C37.0086 15.5137 36.9347 14.3408 36.8285 14.1422C36.6706 13.8472 35.7546 13.333 35.3883 13.3339C35.3166 13.3339 34.9953 13.4653 34.6744 13.6257ZM49.0489 13.5848C48.1637 13.9693 47.9708 14.6701 48.0423 17.2421C48.1065 19.5573 48.2369 19.9902 48.9705 20.3245C49.6763 20.6459 50.3381 20.5379 50.8603 20.0157L51.3476 19.5283V17.0035C51.3476 15.5137 51.2738 14.3408 51.1676 14.1422C51.0075 13.8432 50.073 13.3227 49.7273 13.34C49.6556 13.3437 49.3504 13.4538 49.0489 13.5848ZM31.8271 28.3267C31.4604 28.6933 31.3397 28.9701 31.3397 29.4436C31.3397 29.9843 31.4584 30.1847 32.1814 30.8633C33.8295 32.4108 37.1707 33.7507 40.484 34.1928C44.8631 34.7772 50.4775 33.246 53.1282 30.744C54.048 29.8758 54.1239 29.0893 53.3613 28.3267C52.6385 27.6039 51.8734 27.6561 50.6544 28.5112C49.3897 29.3984 47.8981 30.0837 46.2623 30.5292C45.1885 30.8217 44.4731 30.8925 42.5942 30.8925C40.7153 30.8925 39.9998 30.8217 38.926 30.5292C37.3097 30.089 35.8697 29.4311 34.5288 28.5206C33.2646 27.6621 32.5435 27.6104 31.8271 28.3267ZM23.7605 37.6244C27.6957 42.8526 33.4857 46.1009 40.425 46.9731L41.4237 47.0986L42.0304 48.5155C43.8125 52.6775 44.16 57.5094 42.9967 61.9507C41.6575 67.0636 37.6719 72.0137 32.9177 74.4692C29.4084 76.2814 25.6611 77.0499 22.0607 76.6954C12.523 75.7565 5.84289 69.912 3.86911 60.7792C3.40992 58.6547 3.47162 53.9383 3.98599 51.8489C6.08365 43.3258 12.2933 37.8034 21.1353 36.5976C22.025 36.4762 22.7626 36.3694 22.7745 36.3599C22.7863 36.3504 23.23 36.9194 23.7605 37.6244ZM66.6871 37.0773C72.6429 38.5551 77.1316 42.0608 79.7296 47.2637C81.0698 49.9476 81.6844 52.4673 81.8034 55.7671C81.9111 58.7533 81.6423 60.7157 80.7668 63.3319C78.1858 71.0453 71.9303 75.8287 63.2944 76.6926C58.6942 77.1527 53.7384 75.7255 49.807 72.8083C48.2447 71.6491 46.37 69.7398 45.3871 68.3071C44.6398 67.2178 44.6186 67.1546 44.8311 66.6397C46.5814 62.3977 46.9167 60.7872 46.9219 56.6007C46.9262 53.0625 46.7413 51.8602 45.7432 48.931C45.4308 48.014 45.1572 47.195 45.1352 47.1111C45.1132 47.0273 45.6579 46.8682 46.3457 46.7578C52.4771 45.7736 57.9789 42.3706 61.7181 37.2495L62.3342 36.4057L63.7187 36.5449C64.48 36.6216 65.8159 36.8612 66.6871 37.0773ZM52.2358 48.4792C51.0684 48.6558 50.5865 50.3841 51.4727 51.2171C52.2297 51.9289 55.5793 53.5162 56.3241 53.5162C57.4737 53.5162 58.1573 52.4893 57.7817 51.3266C57.6196 50.8251 57.3682 50.646 55.4326 49.653C53.2084 48.512 52.8617 48.3846 52.2358 48.4792ZM68.6045 49.5096C66.7488 50.4678 66.3931 50.7166 66.1319 51.2379C65.5755 52.3487 66.2777 53.5162 67.5024 53.5162C68.2302 53.5162 71.5939 51.8437 72.2309 51.1649C72.8285 50.5283 72.8449 49.7248 72.274 49.0462C71.5457 48.1807 71.0581 48.2422 68.6045 49.5096ZM13.8801 49.298C13.6768 49.3373 13.3205 49.5955 13.0881 49.8717C12.5264 50.5392 12.5299 51.3285 13.0973 52.0027L13.5289 52.5158H16.1447C19.0741 52.5158 19.3374 52.4347 19.6689 51.4305C19.9415 50.6047 19.4846 49.6775 18.668 49.3989C18.1178 49.2113 14.7004 49.1393 13.8801 49.298ZM28.3877 49.3657C27.6806 49.5701 27.3381 50.0957 27.3381 50.9765C27.3381 51.5194 27.4391 51.7982 27.7474 52.1065C28.1476 52.5068 28.2151 52.5158 30.8091 52.5158C33.4529 52.5158 33.4632 52.5143 33.9014 52.0763C34.2347 51.7428 34.3409 51.4699 34.3409 50.9462C34.3409 50.0638 33.9916 49.5721 33.2106 49.3552C32.4541 49.1451 29.1255 49.1524 28.3877 49.3657ZM59.851 59.0337C58.1757 59.2124 55.9531 59.8172 54.4239 60.5106C52.8421 61.2277 51.0495 62.4681 50.7457 63.0553C50.1914 64.1274 50.9623 65.4313 52.149 65.4286C52.5935 65.4276 53.0433 65.238 53.7653 64.7468C55.8516 63.3279 57.6978 62.6513 60.2679 62.3634C63.5368 61.9972 66.9867 62.7965 69.5814 64.5214C71.0725 65.5125 71.3513 65.597 72.0997 65.2842C72.7892 64.9961 73.2614 64.1139 73.0905 63.4331C73.0328 63.2034 72.6389 62.7102 72.2151 62.3372C69.4915 59.9397 64.317 58.5572 59.851 59.0337ZM17.751 60.5595C17.4758 60.6589 16.7276 61.0657 16.088 61.4633C15.4484 61.861 14.8468 62.1863 14.7511 62.1863C14.6554 62.1863 14.3068 62.0026 13.9763 61.778C13.1673 61.2282 12.5924 61.1067 11.9875 61.3573C11.0561 61.743 10.6997 63.0955 11.3211 63.8856C11.7199 64.3925 13.3715 65.2765 14.1919 65.4219C15.2073 65.6021 16.1216 65.3482 17.5224 64.4975C18.2565 64.0517 18.9901 63.6869 19.1527 63.6869C19.3154 63.6869 20.0552 64.0515 20.7968 64.4974C23.0916 65.8764 24.3903 65.8042 26.7845 64.1642C27.1679 63.9016 27.6556 63.6886 27.8683 63.6904C28.0811 63.6924 28.7627 64.0229 29.3829 64.4247C30.8068 65.3472 31.8496 65.618 33.015 65.3681C34.0163 65.1533 35.2046 64.4969 35.6754 63.8983C36.1529 63.2912 36.1199 62.2828 35.6057 61.7686C34.9158 61.0787 34.4024 61.0613 33.2288 61.6884L32.1874 62.2448L31.305 61.6834C29.5445 60.563 29.0088 60.3521 27.9352 60.3559C26.8426 60.3599 25.9991 60.664 24.7961 61.4882C23.6621 62.2648 23.5359 62.2637 22.2477 61.4645C21.6087 61.068 20.8305 60.6555 20.5189 60.548C19.8264 60.3089 18.4281 60.3145 17.751 60.5595Z" fill="url(#paint1_radial_1217_779)"/>
<defs>
<radialGradient id="paint0_radial_1217_779" cx="0" cy="0" r="1" gradientUnits="userSpaceOnUse" gradientTransform="translate(22.5047 16.6667) rotate(49.2425) scale(68.9421 69.7337)">
<stop stop-color="white" stop-opacity="0.59"/>
<stop offset="0.697917" stop-color="white" stop-opacity="0"/>
<stop offset="1" stop-color="white" stop-opacity="0"/>
</radialGradient>
<radialGradient id="paint1_radial_1217_779" cx="0" cy="0" r="1" gradientUnits="userSpaceOnUse" gradientTransform="translate(73.5987 70) rotate(-93.912) scale(68.4929 81.332)">
<stop stop-opacity="0.23"/>
<stop offset="0.861815" stop-opacity="0"/>
</radialGradient>
</defs>
</svg>
