<svg width="100" height="100" viewBox="0 0 100 100" fill="none" xmlns="http://www.w3.org/2000/svg">
<path fill-rule="evenodd" clip-rule="evenodd" d="M6.58918 0.181898C4.26076 0.636502 1.79101 2.58645 0.798814 4.75355C-1.31831 9.37718 0.918636 14.5205 5.78659 16.2217C6.6316 16.517 7.27821 16.5907 8.6117 16.5436L10.3412 16.4824L12.5699 21.1578C13.7959 23.7293 14.7989 25.9028 14.7989 25.9878C14.7989 26.0729 14.2766 26.497 13.6384 26.9303C8.28155 30.5677 5.04185 36.6755 5.02973 43.1606C5.01762 49.6515 7.57708 54.8742 12.9796 59.3827L13.7992 60.0666L12.2955 62.7518C11.1757 64.7516 10.7169 65.4067 10.4986 65.3182C10.3373 65.2529 9.58787 65.1556 8.83317 65.102C4.52777 64.7967 0.825202 67.7837 0.102359 72.1454C-0.452968 75.4961 1.39988 79.1388 4.44685 80.6864C9.06343 83.0315 14.5405 80.7853 16.174 75.8769C16.5237 74.8264 16.5888 74.267 16.5223 72.8803C16.4287 70.92 15.8798 69.5542 14.5837 68.0571C14.1646 67.5728 13.8215 67.0938 13.8215 66.9927C13.8215 66.6695 16.7303 61.6284 16.8916 61.6723C16.977 61.6954 17.6846 61.9344 18.4641 62.2036C21.9906 63.4204 26.3698 63.6176 29.85 62.7166C31.6559 62.2491 34.5877 60.9453 35.9668 59.9968C36.4437 59.6686 36.9123 59.3741 37.0082 59.3424C37.2162 59.2736 43.5328 66.1033 43.5328 66.397C43.5328 66.5088 43.2804 66.8893 42.9718 67.2423C39.8898 70.7695 37.9777 76.6878 38.3763 81.4666L38.5043 83.0018L37.7444 83.1996C36.5407 83.5129 31.098 84.7903 30.9669 84.7903C30.9016 84.7903 30.5255 84.3041 30.131 83.7099C28.6742 81.5154 26.4906 80.2756 23.8366 80.1356C20.7493 79.9728 18.4137 81.0597 16.6189 83.4947C12.9409 88.4844 15.8913 95.5263 22.0902 96.5534C26.51 97.2857 30.7393 94.133 31.4663 89.5643C31.6956 88.124 31.7083 88.1014 32.387 87.921C34.014 87.4884 38.9025 86.3539 39.139 86.3539C39.2813 86.3539 39.502 86.6838 39.6295 87.0868C39.7569 87.49 40.2116 88.4793 40.6398 89.2856C45.5232 98.4777 56.3012 102.407 65.8895 98.4912C71.7856 96.0833 76.2077 90.922 77.7951 84.5949C78.1208 83.2973 78.2124 82.3346 78.2142 80.1974C78.2171 76.7396 77.6667 74.0987 76.4268 71.6228C76.1645 71.0992 76.0228 70.6001 76.1119 70.5137C76.3074 70.3237 84.865 64.7307 85.3885 64.4506C85.684 64.2923 85.9352 64.389 86.6544 64.938C87.9779 65.9485 89.4935 66.4742 91.362 66.5706C93.8408 66.6984 95.8449 65.8994 97.6463 64.0652C102.308 59.3192 99.5658 51.2602 92.9144 50.1581C88.8997 49.493 85.0408 51.9513 83.7088 56.0228C83.3787 57.0313 83.3722 57.5567 83.649 60.8982C83.701 61.5273 83.6477 61.5695 78.9126 64.654L74.1236 67.7735L73.1484 66.6704C71.9338 65.2961 69.7271 63.53 68.0616 62.5985C67.3641 62.2086 66.7936 61.8 66.7936 61.6905C66.7936 61.4356 74.6399 39.5933 74.8007 39.4002C74.867 39.3205 75.2257 39.3443 75.5975 39.4528C75.9694 39.5615 77.1534 39.7427 78.2285 39.8554C84.0965 40.4715 90.2351 38.1758 94.3961 33.8089C101.806 26.033 101.876 14.1349 94.5564 6.3429C86.9567 -1.74792 74.4929 -2.14976 66.3274 5.43252C65.1766 6.50102 63.3734 8.83228 62.4999 10.3808C62.0337 11.2073 61.7767 11.4825 61.5427 11.4051C61.3668 11.3469 60.2111 10.9228 58.9748 10.4625L56.7269 9.62598L56.6788 8.7543C56.5911 7.16103 56.2087 5.56542 55.6522 4.47035C54.0975 1.41007 50.3931 -0.456425 47.045 0.133232C43.7134 0.719957 41.1174 3.05767 40.2931 6.21371C39.2489 10.2111 41.4059 14.4773 45.258 16.0342C46.1702 16.4028 46.732 16.4824 48.4238 16.4824C50.3478 16.4824 50.5636 16.4415 51.7659 15.8495C53.0081 15.238 54.4872 14.0225 55.1018 13.1082L55.3993 12.6655L58.0084 13.6525C59.4435 14.1955 60.6455 14.6675 60.6797 14.7017C60.7139 14.7357 60.5919 15.3703 60.4088 16.1116C59.9002 18.1716 59.9568 22.2331 60.5257 24.4612C60.7676 25.4097 60.9356 26.2142 60.8988 26.2488C60.7618 26.3776 42.6973 33.9858 42.6551 33.9325C42.6311 33.902 42.196 33.2406 41.6881 32.4629C37.9611 26.7552 31.7693 23.399 24.9656 23.399C22.7277 23.399 20.523 23.7289 18.8736 24.3107C18.4213 24.4704 17.984 24.5333 17.9019 24.4505C17.7377 24.2851 13.4306 15.2657 13.4306 15.0873C13.4306 15.0261 13.8399 14.5236 14.3401 13.9703C15.7455 12.4158 16.425 10.7873 16.5229 8.73847C16.5833 7.47805 16.5165 6.77933 16.261 5.99872C14.8667 1.73725 10.8856 -0.657147 6.58918 0.181898ZM10.4413 3.84688C12.1387 4.71289 13.0641 6.1414 13.1964 8.10015C13.3336 10.1302 12.3063 11.8453 10.3922 12.7818C8.00614 13.9488 5.07567 12.9184 3.82838 10.4738C2.13992 7.16436 4.84717 3.09402 8.55794 3.36296C9.15706 3.40635 10.0046 3.62427 10.4413 3.84688ZM50.4995 3.84043C53.5496 5.39636 54.205 9.41412 51.8005 11.8183C50.7147 12.904 50.0649 13.154 48.3218 13.1571C46.9719 13.1594 46.6353 13.0877 45.86 12.6321C42.0267 10.3786 42.7409 4.87374 47.05 3.46087C47.828 3.20562 49.6476 3.40595 50.4995 3.84043ZM84.1516 3.85313C89.043 5.15597 92.9823 8.4754 95.1168 13.0926C96.2726 15.5933 96.6061 17.2096 96.5822 20.1958C96.565 22.3565 96.4829 22.9983 96.0341 24.486C95.4395 26.4571 94.2943 28.7714 93.2895 30.0316L92.6158 30.8769L92.037 29.7304C90.9689 27.6145 88.8976 25.5635 86.7906 24.5351L85.9704 24.1346L86.5203 23.4357C91.1251 17.5829 86.1149 8.98629 78.7676 10.1332C74.4594 10.8057 71.3396 14.7541 71.7438 19.0222C71.89 20.5652 72.2962 21.6642 73.2204 23.0181L73.9776 24.1272L72.9547 24.6627C70.9928 25.6898 69.0536 27.6378 68.0141 29.6255C67.7191 30.1895 67.3897 30.6248 67.2822 30.5923C66.9192 30.4833 65.2529 27.8283 64.6493 26.3973C63.7837 24.3453 63.4252 22.4757 63.4223 20.0004C63.4192 17.462 63.7855 15.5822 64.6911 13.4878C66.9957 8.1578 71.6062 4.54989 77.4779 3.4812C78.9177 3.21911 82.5264 3.42022 84.1516 3.85313ZM82.0401 13.7747C85.0529 15.0275 85.9135 19.3066 83.6412 21.7352C81.7225 23.786 77.9646 23.6716 76.1811 21.5084C74.2468 19.1619 74.7585 16.0503 77.4087 14.045C78.4151 13.2835 80.5579 13.1585 82.0401 13.7747ZM28.3566 27.037C34.2586 28.256 38.9928 32.5673 40.911 38.4699C41.4018 39.9801 41.4522 40.4068 41.4657 43.1606C41.4784 45.7686 41.4178 46.4056 41.0314 47.7403C40.5016 49.5694 39.0939 52.3803 38.1756 53.4425L37.5245 54.1958L36.8884 52.9291C36.076 51.3114 33.5191 48.74 32.049 48.0621C31.4847 47.802 31.0228 47.5229 31.0228 47.442C31.0228 47.3611 31.244 47.032 31.5144 46.7107C31.7849 46.3893 32.2466 45.613 32.5406 44.9857C33.022 43.9584 33.0752 43.6297 33.0752 41.6856C33.0752 39.5875 33.0547 39.4851 32.3469 38.0523C30.2112 33.7282 24.9902 32.0947 20.8396 34.452C17.9033 36.1197 16.1859 39.6907 16.7534 42.9487C17.0257 44.5119 17.3497 45.2986 18.2211 46.5115C18.9887 47.5796 19.0157 47.6558 18.6269 47.6558C18.0939 47.6558 15.3911 49.6388 14.4957 50.6868C13.9986 51.2686 13.3041 52.2832 12.9525 52.9412L12.3129 54.1379L11.6942 53.3888C10.7826 52.2847 9.40784 49.5106 8.89513 47.7403C8.50869 46.4056 8.44809 45.7686 8.4608 43.1606C8.47428 40.4068 8.52472 39.9801 9.01554 38.4699C10.913 32.631 15.6245 28.3003 21.4409 27.0493C23.1548 26.6807 26.6015 26.6744 28.3566 27.037ZM84.8508 27.3077C85.668 27.6347 86.3799 28.1416 87.316 29.0632C88.6493 30.376 89.2599 31.3258 89.6261 32.6566C89.8262 33.3841 89.82 33.3964 88.9517 33.9936C86.5017 35.679 83.3609 36.5852 79.9877 36.58C76.7865 36.5747 74.2659 35.9008 71.6314 34.3452C70.0854 33.4327 70.0436 33.2723 70.8857 31.4923C71.8843 29.3815 73.5576 27.9065 75.8803 27.0886C76.7001 26.7999 77.4186 26.752 80.2809 26.7958C83.3441 26.8425 83.8216 26.8961 84.8508 27.3077ZM63.382 31.043C65.0326 33.584 68.4095 36.5919 70.9965 37.8255C71.4864 38.0589 71.6566 38.2467 71.572 38.4601C71.5059 38.6267 69.7522 43.4684 67.6745 49.2194C65.5971 54.9703 63.8072 59.9081 63.6969 60.192L63.4964 60.7082L62.2618 60.4553C57.2117 59.4206 51.9399 60.3975 47.6699 63.1595C46.8929 63.662 46.2195 64.0732 46.1736 64.0732C46.1274 64.0732 44.6339 62.477 42.8541 60.5261L39.6183 56.9789L40.1173 56.3729C41.1543 55.1138 42.7247 52.5877 43.3223 51.2176C44.3678 48.8199 44.7398 47.0658 44.844 44.0401C44.9325 41.4749 44.739 39.7503 44.0914 37.3289C44.0433 37.1495 46.8731 35.8541 53.1107 33.2003C58.1099 31.0735 62.2518 29.3882 62.315 29.4552C62.3781 29.5223 62.8584 30.2368 63.382 31.043ZM26.9179 37.1176C28.0991 37.6522 28.8288 38.3704 29.3842 39.5449C30.7008 42.33 29.1363 45.7295 26.1961 46.4716C25.0956 46.7495 24.6319 46.7333 23.4233 46.3745C20.808 45.5978 19.3453 42.6348 20.2564 39.959C21.1213 37.419 24.4484 35.9999 26.9179 37.1176ZM28.5442 50.2933C30.202 50.7251 31.1659 51.2856 32.4378 52.5574C33.5801 53.6996 34.462 55.2537 34.5782 56.3289C34.6341 56.8464 34.5125 56.9639 33.0429 57.8105C30.1645 59.4693 27.4406 60.098 23.9859 59.9014C21.5406 59.7621 20.1418 59.413 17.9727 58.4004C15.9791 57.4699 15.1898 56.9205 15.1898 56.4637C15.1898 56.2706 15.4971 55.4982 15.8728 54.7477C16.9879 52.5187 19.0306 50.8506 21.3471 50.2765C22.7668 49.9247 27.1687 49.9351 28.5442 50.2933ZM93.4494 53.7218C96.1532 54.7333 97.4315 57.9726 96.1322 60.5192C95.2775 62.1946 93.8394 63.121 91.8894 63.2527C89.8855 63.3881 88.1632 62.374 87.2353 60.5122C85.8922 57.8174 87.2464 54.6563 90.1947 53.6046C91.2479 53.2289 92.226 53.2641 93.4494 53.7218ZM62.4932 63.9049C67.3129 65.1303 71.2809 68.4674 73.4197 73.0941C74.5705 75.5839 74.9079 77.2112 74.892 80.1974C74.8766 83.1163 74.4761 84.9025 73.321 87.2035C72.7239 88.3933 71.1464 90.8491 70.9793 90.8491C70.9475 90.8491 70.6343 90.2995 70.2837 89.6276C69.4375 88.0068 66.8889 85.4668 65.3733 84.7338L64.2462 84.1887L64.9264 83.2979C66.0768 81.7916 66.489 80.4765 66.4804 78.3406C66.4716 76.1108 66.0115 74.7329 64.7615 73.1918C63.1297 71.1801 60.8861 70.1124 58.2907 70.1124C55.6952 70.1124 53.4516 71.1801 51.8199 73.1918C50.5528 74.754 50.0962 76.1177 50.0962 78.3406C50.0962 80.4774 50.513 81.8026 51.6549 83.2979L52.3351 84.1887L51.208 84.7338C49.7264 85.4503 47.131 88.0156 46.3557 89.5293C46.0395 90.1471 45.6927 90.6251 45.5852 90.5913C45.2034 90.4715 43.54 87.8469 42.9548 86.4416C41.2931 82.4507 41.2927 77.6595 42.9538 73.6322C44.592 69.66 48.1793 66.1113 52.1158 64.5686C53.3009 64.1043 55.4818 63.5705 56.8246 63.4159C58.068 63.273 61.0038 63.5261 62.4932 63.9049ZM9.89065 68.6585C11.0363 69.0627 11.9964 69.8527 12.6096 70.8954C13.0653 71.6705 13.137 72.0071 13.1347 73.3568C13.1315 75.0998 12.8815 75.7494 11.7957 76.8351C9.38517 79.2456 5.41813 78.5934 3.79535 75.52C3.21168 74.4146 3.20894 72.3039 3.78988 71.2044C4.99611 68.9212 7.57943 67.8431 9.89065 68.6585ZM60.6791 74.016C62.3636 74.882 63.17 76.2826 63.169 78.3406C63.1682 80.0537 62.754 81.0268 61.5906 82.0482C60.5814 82.934 59.6656 83.2743 58.2907 83.2743C56.8839 83.2743 55.9613 82.9189 54.9149 81.9738C52.3928 79.6955 52.9667 75.4883 56.0088 73.9527C57.4396 73.2304 59.198 73.2542 60.6791 74.016ZM25.507 83.9263C28.667 85.5006 29.2034 89.6786 26.5528 92.073C25.8016 92.7516 24.2257 93.3899 23.3018 93.3899C22.3704 93.3899 20.8015 92.7512 20.0341 92.0597C18.4991 90.6759 17.9598 88.6453 18.616 86.7198C19.5679 83.9263 22.8428 82.5986 25.507 83.9263ZM63.2751 87.4478C65.5422 88.528 67.316 90.5812 67.9255 92.8301L68.118 93.5408L66.7228 94.3347C63.5632 96.1324 61.7735 96.6055 58.1929 96.5899C55.9149 96.5797 55.3186 96.5069 53.8326 96.0565C51.0435 95.2116 48.6148 93.8445 48.6152 93.1196C48.6154 92.4154 49.7203 90.3271 50.5945 89.379C51.5255 88.3691 52.7216 87.6055 54.1833 87.0884C55.0044 86.7977 55.7171 86.7499 58.5839 86.7921C61.9571 86.8417 62.0222 86.8509 63.2751 87.4478Z" fill="#0066FF"/>
<path fill-rule="evenodd" clip-rule="evenodd" d="M6.58918 0.181898C4.26076 0.636502 1.79101 2.58645 0.798814 4.75355C-1.31831 9.37718 0.918636 14.5205 5.78659 16.2217C6.6316 16.517 7.27821 16.5907 8.6117 16.5436L10.3412 16.4824L12.5699 21.1578C13.7959 23.7293 14.7989 25.9028 14.7989 25.9878C14.7989 26.0729 14.2766 26.497 13.6384 26.9303C8.28155 30.5677 5.04185 36.6755 5.02973 43.1606C5.01762 49.6515 7.57708 54.8742 12.9796 59.3827L13.7992 60.0666L12.2955 62.7518C11.1757 64.7516 10.7169 65.4067 10.4986 65.3182C10.3373 65.2529 9.58787 65.1556 8.83317 65.102C4.52777 64.7967 0.825202 67.7837 0.102359 72.1454C-0.452968 75.4961 1.39988 79.1388 4.44685 80.6864C9.06343 83.0315 14.5405 80.7853 16.174 75.8769C16.5237 74.8264 16.5888 74.267 16.5223 72.8803C16.4287 70.92 15.8798 69.5542 14.5837 68.0571C14.1646 67.5728 13.8215 67.0938 13.8215 66.9927C13.8215 66.6695 16.7303 61.6284 16.8916 61.6723C16.977 61.6954 17.6846 61.9344 18.4641 62.2036C21.9906 63.4204 26.3698 63.6176 29.85 62.7166C31.6559 62.2491 34.5877 60.9453 35.9668 59.9968C36.4437 59.6686 36.9123 59.3741 37.0082 59.3424C37.2162 59.2736 43.5328 66.1033 43.5328 66.397C43.5328 66.5088 43.2804 66.8893 42.9718 67.2423C39.8898 70.7695 37.9777 76.6878 38.3763 81.4666L38.5043 83.0018L37.7444 83.1996C36.5407 83.5129 31.098 84.7903 30.9669 84.7903C30.9016 84.7903 30.5255 84.3041 30.131 83.7099C28.6742 81.5154 26.4906 80.2756 23.8366 80.1356C20.7493 79.9728 18.4137 81.0597 16.6189 83.4947C12.9409 88.4844 15.8913 95.5263 22.0902 96.5534C26.51 97.2857 30.7393 94.133 31.4663 89.5643C31.6956 88.124 31.7083 88.1014 32.387 87.921C34.014 87.4884 38.9025 86.3539 39.139 86.3539C39.2813 86.3539 39.502 86.6838 39.6295 87.0868C39.7569 87.49 40.2116 88.4793 40.6398 89.2856C45.5232 98.4777 56.3012 102.407 65.8895 98.4912C71.7856 96.0833 76.2077 90.922 77.7951 84.5949C78.1208 83.2973 78.2124 82.3346 78.2142 80.1974C78.2171 76.7396 77.6667 74.0987 76.4268 71.6228C76.1645 71.0992 76.0228 70.6001 76.1119 70.5137C76.3074 70.3237 84.865 64.7307 85.3885 64.4506C85.684 64.2923 85.9352 64.389 86.6544 64.938C87.9779 65.9485 89.4935 66.4742 91.362 66.5706C93.8408 66.6984 95.8449 65.8994 97.6463 64.0652C102.308 59.3192 99.5658 51.2602 92.9144 50.1581C88.8997 49.493 85.0408 51.9513 83.7088 56.0228C83.3787 57.0313 83.3722 57.5567 83.649 60.8982C83.701 61.5273 83.6477 61.5695 78.9126 64.654L74.1236 67.7735L73.1484 66.6704C71.9338 65.2961 69.7271 63.53 68.0616 62.5985C67.3641 62.2086 66.7936 61.8 66.7936 61.6905C66.7936 61.4356 74.6399 39.5933 74.8007 39.4002C74.867 39.3205 75.2257 39.3443 75.5975 39.4528C75.9694 39.5615 77.1534 39.7427 78.2285 39.8554C84.0965 40.4715 90.2351 38.1758 94.3961 33.8089C101.806 26.033 101.876 14.1349 94.5564 6.3429C86.9567 -1.74792 74.4929 -2.14976 66.3274 5.43252C65.1766 6.50102 63.3734 8.83228 62.4999 10.3808C62.0337 11.2073 61.7767 11.4825 61.5427 11.4051C61.3668 11.3469 60.2111 10.9228 58.9748 10.4625L56.7269 9.62598L56.6788 8.7543C56.5911 7.16103 56.2087 5.56542 55.6522 4.47035C54.0975 1.41007 50.3931 -0.456425 47.045 0.133232C43.7134 0.719957 41.1174 3.05767 40.2931 6.21371C39.2489 10.2111 41.4059 14.4773 45.258 16.0342C46.1702 16.4028 46.732 16.4824 48.4238 16.4824C50.3478 16.4824 50.5636 16.4415 51.7659 15.8495C53.0081 15.238 54.4872 14.0225 55.1018 13.1082L55.3993 12.6655L58.0084 13.6525C59.4435 14.1955 60.6455 14.6675 60.6797 14.7017C60.7139 14.7357 60.5919 15.3703 60.4088 16.1116C59.9002 18.1716 59.9568 22.2331 60.5257 24.4612C60.7676 25.4097 60.9356 26.2142 60.8988 26.2488C60.7618 26.3776 42.6973 33.9858 42.6551 33.9325C42.6311 33.902 42.196 33.2406 41.6881 32.4629C37.9611 26.7552 31.7693 23.399 24.9656 23.399C22.7277 23.399 20.523 23.7289 18.8736 24.3107C18.4213 24.4704 17.984 24.5333 17.9019 24.4505C17.7377 24.2851 13.4306 15.2657 13.4306 15.0873C13.4306 15.0261 13.8399 14.5236 14.3401 13.9703C15.7455 12.4158 16.425 10.7873 16.5229 8.73847C16.5833 7.47805 16.5165 6.77933 16.261 5.99872C14.8667 1.73725 10.8856 -0.657147 6.58918 0.181898ZM10.4413 3.84688C12.1387 4.71289 13.0641 6.1414 13.1964 8.10015C13.3336 10.1302 12.3063 11.8453 10.3922 12.7818C8.00614 13.9488 5.07567 12.9184 3.82838 10.4738C2.13992 7.16436 4.84717 3.09402 8.55794 3.36296C9.15706 3.40635 10.0046 3.62427 10.4413 3.84688ZM50.4995 3.84043C53.5496 5.39636 54.205 9.41412 51.8005 11.8183C50.7147 12.904 50.0649 13.154 48.3218 13.1571C46.9719 13.1594 46.6353 13.0877 45.86 12.6321C42.0267 10.3786 42.7409 4.87374 47.05 3.46087C47.828 3.20562 49.6476 3.40595 50.4995 3.84043ZM84.1516 3.85313C89.043 5.15597 92.9823 8.4754 95.1168 13.0926C96.2726 15.5933 96.6061 17.2096 96.5822 20.1958C96.565 22.3565 96.4829 22.9983 96.0341 24.486C95.4395 26.4571 94.2943 28.7714 93.2895 30.0316L92.6158 30.8769L92.037 29.7304C90.9689 27.6145 88.8976 25.5635 86.7906 24.5351L85.9704 24.1346L86.5203 23.4357C91.1251 17.5829 86.1149 8.98629 78.7676 10.1332C74.4594 10.8057 71.3396 14.7541 71.7438 19.0222C71.89 20.5652 72.2962 21.6642 73.2204 23.0181L73.9776 24.1272L72.9547 24.6627C70.9928 25.6898 69.0536 27.6378 68.0141 29.6255C67.7191 30.1895 67.3897 30.6248 67.2822 30.5923C66.9192 30.4833 65.2529 27.8283 64.6493 26.3973C63.7837 24.3453 63.4252 22.4757 63.4223 20.0004C63.4192 17.462 63.7855 15.5822 64.6911 13.4878C66.9957 8.1578 71.6062 4.54989 77.4779 3.4812C78.9177 3.21911 82.5264 3.42022 84.1516 3.85313ZM82.0401 13.7747C85.0529 15.0275 85.9135 19.3066 83.6412 21.7352C81.7225 23.786 77.9646 23.6716 76.1811 21.5084C74.2468 19.1619 74.7585 16.0503 77.4087 14.045C78.4151 13.2835 80.5579 13.1585 82.0401 13.7747ZM28.3566 27.037C34.2586 28.256 38.9928 32.5673 40.911 38.4699C41.4018 39.9801 41.4522 40.4068 41.4657 43.1606C41.4784 45.7686 41.4178 46.4056 41.0314 47.7403C40.5016 49.5694 39.0939 52.3803 38.1756 53.4425L37.5245 54.1958L36.8884 52.9291C36.076 51.3114 33.5191 48.74 32.049 48.0621C31.4847 47.802 31.0228 47.5229 31.0228 47.442C31.0228 47.3611 31.244 47.032 31.5144 46.7107C31.7849 46.3893 32.2466 45.613 32.5406 44.9857C33.022 43.9584 33.0752 43.6297 33.0752 41.6856C33.0752 39.5875 33.0547 39.4851 32.3469 38.0523C30.2112 33.7282 24.9902 32.0947 20.8396 34.452C17.9033 36.1197 16.1859 39.6907 16.7534 42.9487C17.0257 44.5119 17.3497 45.2986 18.2211 46.5115C18.9887 47.5796 19.0157 47.6558 18.6269 47.6558C18.0939 47.6558 15.3911 49.6388 14.4957 50.6868C13.9986 51.2686 13.3041 52.2832 12.9525 52.9412L12.3129 54.1379L11.6942 53.3888C10.7826 52.2847 9.40784 49.5106 8.89513 47.7403C8.50869 46.4056 8.44809 45.7686 8.4608 43.1606C8.47428 40.4068 8.52472 39.9801 9.01554 38.4699C10.913 32.631 15.6245 28.3003 21.4409 27.0493C23.1548 26.6807 26.6015 26.6744 28.3566 27.037ZM84.8508 27.3077C85.668 27.6347 86.3799 28.1416 87.316 29.0632C88.6493 30.376 89.2599 31.3258 89.6261 32.6566C89.8262 33.3841 89.82 33.3964 88.9517 33.9936C86.5017 35.679 83.3609 36.5852 79.9877 36.58C76.7865 36.5747 74.2659 35.9008 71.6314 34.3452C70.0854 33.4327 70.0436 33.2723 70.8857 31.4923C71.8843 29.3815 73.5576 27.9065 75.8803 27.0886C76.7001 26.7999 77.4186 26.752 80.2809 26.7958C83.3441 26.8425 83.8216 26.8961 84.8508 27.3077ZM63.382 31.043C65.0326 33.584 68.4095 36.5919 70.9965 37.8255C71.4864 38.0589 71.6566 38.2467 71.572 38.4601C71.5059 38.6267 69.7522 43.4684 67.6745 49.2194C65.5971 54.9703 63.8072 59.9081 63.6969 60.192L63.4964 60.7082L62.2618 60.4553C57.2117 59.4206 51.9399 60.3975 47.6699 63.1595C46.8929 63.662 46.2195 64.0732 46.1736 64.0732C46.1274 64.0732 44.6339 62.477 42.8541 60.5261L39.6183 56.9789L40.1173 56.3729C41.1543 55.1138 42.7247 52.5877 43.3223 51.2176C44.3678 48.8199 44.7398 47.0658 44.844 44.0401C44.9325 41.4749 44.739 39.7503 44.0914 37.3289C44.0433 37.1495 46.8731 35.8541 53.1107 33.2003C58.1099 31.0735 62.2518 29.3882 62.315 29.4552C62.3781 29.5223 62.8584 30.2368 63.382 31.043ZM26.9179 37.1176C28.0991 37.6522 28.8288 38.3704 29.3842 39.5449C30.7008 42.33 29.1363 45.7295 26.1961 46.4716C25.0956 46.7495 24.6319 46.7333 23.4233 46.3745C20.808 45.5978 19.3453 42.6348 20.2564 39.959C21.1213 37.419 24.4484 35.9999 26.9179 37.1176ZM28.5442 50.2933C30.202 50.7251 31.1659 51.2856 32.4378 52.5574C33.5801 53.6996 34.462 55.2537 34.5782 56.3289C34.6341 56.8464 34.5125 56.9639 33.0429 57.8105C30.1645 59.4693 27.4406 60.098 23.9859 59.9014C21.5406 59.7621 20.1418 59.413 17.9727 58.4004C15.9791 57.4699 15.1898 56.9205 15.1898 56.4637C15.1898 56.2706 15.4971 55.4982 15.8728 54.7477C16.9879 52.5187 19.0306 50.8506 21.3471 50.2765C22.7668 49.9247 27.1687 49.9351 28.5442 50.2933ZM93.4494 53.7218C96.1532 54.7333 97.4315 57.9726 96.1322 60.5192C95.2775 62.1946 93.8394 63.121 91.8894 63.2527C89.8855 63.3881 88.1632 62.374 87.2353 60.5122C85.8922 57.8174 87.2464 54.6563 90.1947 53.6046C91.2479 53.2289 92.226 53.2641 93.4494 53.7218ZM62.4932 63.9049C67.3129 65.1303 71.2809 68.4674 73.4197 73.0941C74.5705 75.5839 74.9079 77.2112 74.892 80.1974C74.8766 83.1163 74.4761 84.9025 73.321 87.2035C72.7239 88.3933 71.1464 90.8491 70.9793 90.8491C70.9475 90.8491 70.6343 90.2995 70.2837 89.6276C69.4375 88.0068 66.8889 85.4668 65.3733 84.7338L64.2462 84.1887L64.9264 83.2979C66.0768 81.7916 66.489 80.4765 66.4804 78.3406C66.4716 76.1108 66.0115 74.7329 64.7615 73.1918C63.1297 71.1801 60.8861 70.1124 58.2907 70.1124C55.6952 70.1124 53.4516 71.1801 51.8199 73.1918C50.5528 74.754 50.0962 76.1177 50.0962 78.3406C50.0962 80.4774 50.513 81.8026 51.6549 83.2979L52.3351 84.1887L51.208 84.7338C49.7264 85.4503 47.131 88.0156 46.3557 89.5293C46.0395 90.1471 45.6927 90.6251 45.5852 90.5913C45.2034 90.4715 43.54 87.8469 42.9548 86.4416C41.2931 82.4507 41.2927 77.6595 42.9538 73.6322C44.592 69.66 48.1793 66.1113 52.1158 64.5686C53.3009 64.1043 55.4818 63.5705 56.8246 63.4159C58.068 63.273 61.0038 63.5261 62.4932 63.9049ZM9.89065 68.6585C11.0363 69.0627 11.9964 69.8527 12.6096 70.8954C13.0653 71.6705 13.137 72.0071 13.1347 73.3568C13.1315 75.0998 12.8815 75.7494 11.7957 76.8351C9.38517 79.2456 5.41813 78.5934 3.79535 75.52C3.21168 74.4146 3.20894 72.3039 3.78988 71.2044C4.99611 68.9212 7.57943 67.8431 9.89065 68.6585ZM60.6791 74.016C62.3636 74.882 63.17 76.2826 63.169 78.3406C63.1682 80.0537 62.754 81.0268 61.5906 82.0482C60.5814 82.934 59.6656 83.2743 58.2907 83.2743C56.8839 83.2743 55.9613 82.9189 54.9149 81.9738C52.3928 79.6955 52.9667 75.4883 56.0088 73.9527C57.4396 73.2304 59.198 73.2542 60.6791 74.016ZM25.507 83.9263C28.667 85.5006 29.2034 89.6786 26.5528 92.073C25.8016 92.7516 24.2257 93.3899 23.3018 93.3899C22.3704 93.3899 20.8015 92.7512 20.0341 92.0597C18.4991 90.6759 17.9598 88.6453 18.616 86.7198C19.5679 83.9263 22.8428 82.5986 25.507 83.9263ZM63.2751 87.4478C65.5422 88.528 67.316 90.5812 67.9255 92.8301L68.118 93.5408L66.7228 94.3347C63.5632 96.1324 61.7735 96.6055 58.1929 96.5899C55.9149 96.5797 55.3186 96.5069 53.8326 96.0565C51.0435 95.2116 48.6148 93.8445 48.6152 93.1196C48.6154 92.4154 49.7203 90.3271 50.5945 89.379C51.5255 88.3691 52.7216 87.6055 54.1833 87.0884C55.0044 86.7977 55.7171 86.7499 58.5839 86.7921C61.9571 86.8417 62.0222 86.8509 63.2751 87.4478Z" fill="url(#paint0_radial_1464_84)" fill-opacity="0.7"/>
<path fill-rule="evenodd" clip-rule="evenodd" d="M6.58918 0.181898C4.26076 0.636502 1.79101 2.58645 0.798814 4.75355C-1.31831 9.37718 0.918636 14.5205 5.78659 16.2217C6.6316 16.517 7.27821 16.5907 8.6117 16.5436L10.3412 16.4824L12.5699 21.1578C13.7959 23.7293 14.7989 25.9028 14.7989 25.9878C14.7989 26.0729 14.2766 26.497 13.6384 26.9303C8.28155 30.5677 5.04185 36.6755 5.02973 43.1606C5.01762 49.6515 7.57708 54.8742 12.9796 59.3827L13.7992 60.0666L12.2955 62.7518C11.1757 64.7516 10.7169 65.4067 10.4986 65.3182C10.3373 65.2529 9.58787 65.1556 8.83317 65.102C4.52777 64.7967 0.825202 67.7837 0.102359 72.1454C-0.452968 75.4961 1.39988 79.1388 4.44685 80.6864C9.06343 83.0315 14.5405 80.7853 16.174 75.8769C16.5237 74.8264 16.5888 74.267 16.5223 72.8803C16.4287 70.92 15.8798 69.5542 14.5837 68.0571C14.1646 67.5728 13.8215 67.0938 13.8215 66.9927C13.8215 66.6695 16.7303 61.6284 16.8916 61.6723C16.977 61.6954 17.6846 61.9344 18.4641 62.2036C21.9906 63.4204 26.3698 63.6176 29.85 62.7166C31.6559 62.2491 34.5877 60.9453 35.9668 59.9968C36.4437 59.6686 36.9123 59.3741 37.0082 59.3424C37.2162 59.2736 43.5328 66.1033 43.5328 66.397C43.5328 66.5088 43.2804 66.8893 42.9718 67.2423C39.8898 70.7695 37.9777 76.6878 38.3763 81.4666L38.5043 83.0018L37.7444 83.1996C36.5407 83.5129 31.098 84.7903 30.9669 84.7903C30.9016 84.7903 30.5255 84.3041 30.131 83.7099C28.6742 81.5154 26.4906 80.2756 23.8366 80.1356C20.7493 79.9728 18.4137 81.0597 16.6189 83.4947C12.9409 88.4844 15.8913 95.5263 22.0902 96.5534C26.51 97.2857 30.7393 94.133 31.4663 89.5643C31.6956 88.124 31.7083 88.1014 32.387 87.921C34.014 87.4884 38.9025 86.3539 39.139 86.3539C39.2813 86.3539 39.502 86.6838 39.6295 87.0868C39.7569 87.49 40.2116 88.4793 40.6398 89.2856C45.5232 98.4777 56.3012 102.407 65.8895 98.4912C71.7856 96.0833 76.2077 90.922 77.7951 84.5949C78.1208 83.2973 78.2124 82.3346 78.2142 80.1974C78.2171 76.7396 77.6667 74.0987 76.4268 71.6228C76.1645 71.0992 76.0228 70.6001 76.1119 70.5137C76.3074 70.3237 84.865 64.7307 85.3885 64.4506C85.684 64.2923 85.9352 64.389 86.6544 64.938C87.9779 65.9485 89.4935 66.4742 91.362 66.5706C93.8408 66.6984 95.8449 65.8994 97.6463 64.0652C102.308 59.3192 99.5658 51.2602 92.9144 50.1581C88.8997 49.493 85.0408 51.9513 83.7088 56.0228C83.3787 57.0313 83.3722 57.5567 83.649 60.8982C83.701 61.5273 83.6477 61.5695 78.9126 64.654L74.1236 67.7735L73.1484 66.6704C71.9338 65.2961 69.7271 63.53 68.0616 62.5985C67.3641 62.2086 66.7936 61.8 66.7936 61.6905C66.7936 61.4356 74.6399 39.5933 74.8007 39.4002C74.867 39.3205 75.2257 39.3443 75.5975 39.4528C75.9694 39.5615 77.1534 39.7427 78.2285 39.8554C84.0965 40.4715 90.2351 38.1758 94.3961 33.8089C101.806 26.033 101.876 14.1349 94.5564 6.3429C86.9567 -1.74792 74.4929 -2.14976 66.3274 5.43252C65.1766 6.50102 63.3734 8.83228 62.4999 10.3808C62.0337 11.2073 61.7767 11.4825 61.5427 11.4051C61.3668 11.3469 60.2111 10.9228 58.9748 10.4625L56.7269 9.62598L56.6788 8.7543C56.5911 7.16103 56.2087 5.56542 55.6522 4.47035C54.0975 1.41007 50.3931 -0.456425 47.045 0.133232C43.7134 0.719957 41.1174 3.05767 40.2931 6.21371C39.2489 10.2111 41.4059 14.4773 45.258 16.0342C46.1702 16.4028 46.732 16.4824 48.4238 16.4824C50.3478 16.4824 50.5636 16.4415 51.7659 15.8495C53.0081 15.238 54.4872 14.0225 55.1018 13.1082L55.3993 12.6655L58.0084 13.6525C59.4435 14.1955 60.6455 14.6675 60.6797 14.7017C60.7139 14.7357 60.5919 15.3703 60.4088 16.1116C59.9002 18.1716 59.9568 22.2331 60.5257 24.4612C60.7676 25.4097 60.9356 26.2142 60.8988 26.2488C60.7618 26.3776 42.6973 33.9858 42.6551 33.9325C42.6311 33.902 42.196 33.2406 41.6881 32.4629C37.9611 26.7552 31.7693 23.399 24.9656 23.399C22.7277 23.399 20.523 23.7289 18.8736 24.3107C18.4213 24.4704 17.984 24.5333 17.9019 24.4505C17.7377 24.2851 13.4306 15.2657 13.4306 15.0873C13.4306 15.0261 13.8399 14.5236 14.3401 13.9703C15.7455 12.4158 16.425 10.7873 16.5229 8.73847C16.5833 7.47805 16.5165 6.77933 16.261 5.99872C14.8667 1.73725 10.8856 -0.657147 6.58918 0.181898ZM10.4413 3.84688C12.1387 4.71289 13.0641 6.1414 13.1964 8.10015C13.3336 10.1302 12.3063 11.8453 10.3922 12.7818C8.00614 13.9488 5.07567 12.9184 3.82838 10.4738C2.13992 7.16436 4.84717 3.09402 8.55794 3.36296C9.15706 3.40635 10.0046 3.62427 10.4413 3.84688ZM50.4995 3.84043C53.5496 5.39636 54.205 9.41412 51.8005 11.8183C50.7147 12.904 50.0649 13.154 48.3218 13.1571C46.9719 13.1594 46.6353 13.0877 45.86 12.6321C42.0267 10.3786 42.7409 4.87374 47.05 3.46087C47.828 3.20562 49.6476 3.40595 50.4995 3.84043ZM84.1516 3.85313C89.043 5.15597 92.9823 8.4754 95.1168 13.0926C96.2726 15.5933 96.6061 17.2096 96.5822 20.1958C96.565 22.3565 96.4829 22.9983 96.0341 24.486C95.4395 26.4571 94.2943 28.7714 93.2895 30.0316L92.6158 30.8769L92.037 29.7304C90.9689 27.6145 88.8976 25.5635 86.7906 24.5351L85.9704 24.1346L86.5203 23.4357C91.1251 17.5829 86.1149 8.98629 78.7676 10.1332C74.4594 10.8057 71.3396 14.7541 71.7438 19.0222C71.89 20.5652 72.2962 21.6642 73.2204 23.0181L73.9776 24.1272L72.9547 24.6627C70.9928 25.6898 69.0536 27.6378 68.0141 29.6255C67.7191 30.1895 67.3897 30.6248 67.2822 30.5923C66.9192 30.4833 65.2529 27.8283 64.6493 26.3973C63.7837 24.3453 63.4252 22.4757 63.4223 20.0004C63.4192 17.462 63.7855 15.5822 64.6911 13.4878C66.9957 8.1578 71.6062 4.54989 77.4779 3.4812C78.9177 3.21911 82.5264 3.42022 84.1516 3.85313ZM82.0401 13.7747C85.0529 15.0275 85.9135 19.3066 83.6412 21.7352C81.7225 23.786 77.9646 23.6716 76.1811 21.5084C74.2468 19.1619 74.7585 16.0503 77.4087 14.045C78.4151 13.2835 80.5579 13.1585 82.0401 13.7747ZM28.3566 27.037C34.2586 28.256 38.9928 32.5673 40.911 38.4699C41.4018 39.9801 41.4522 40.4068 41.4657 43.1606C41.4784 45.7686 41.4178 46.4056 41.0314 47.7403C40.5016 49.5694 39.0939 52.3803 38.1756 53.4425L37.5245 54.1958L36.8884 52.9291C36.076 51.3114 33.5191 48.74 32.049 48.0621C31.4847 47.802 31.0228 47.5229 31.0228 47.442C31.0228 47.3611 31.244 47.032 31.5144 46.7107C31.7849 46.3893 32.2466 45.613 32.5406 44.9857C33.022 43.9584 33.0752 43.6297 33.0752 41.6856C33.0752 39.5875 33.0547 39.4851 32.3469 38.0523C30.2112 33.7282 24.9902 32.0947 20.8396 34.452C17.9033 36.1197 16.1859 39.6907 16.7534 42.9487C17.0257 44.5119 17.3497 45.2986 18.2211 46.5115C18.9887 47.5796 19.0157 47.6558 18.6269 47.6558C18.0939 47.6558 15.3911 49.6388 14.4957 50.6868C13.9986 51.2686 13.3041 52.2832 12.9525 52.9412L12.3129 54.1379L11.6942 53.3888C10.7826 52.2847 9.40784 49.5106 8.89513 47.7403C8.50869 46.4056 8.44809 45.7686 8.4608 43.1606C8.47428 40.4068 8.52472 39.9801 9.01554 38.4699C10.913 32.631 15.6245 28.3003 21.4409 27.0493C23.1548 26.6807 26.6015 26.6744 28.3566 27.037ZM84.8508 27.3077C85.668 27.6347 86.3799 28.1416 87.316 29.0632C88.6493 30.376 89.2599 31.3258 89.6261 32.6566C89.8262 33.3841 89.82 33.3964 88.9517 33.9936C86.5017 35.679 83.3609 36.5852 79.9877 36.58C76.7865 36.5747 74.2659 35.9008 71.6314 34.3452C70.0854 33.4327 70.0436 33.2723 70.8857 31.4923C71.8843 29.3815 73.5576 27.9065 75.8803 27.0886C76.7001 26.7999 77.4186 26.752 80.2809 26.7958C83.3441 26.8425 83.8216 26.8961 84.8508 27.3077ZM63.382 31.043C65.0326 33.584 68.4095 36.5919 70.9965 37.8255C71.4864 38.0589 71.6566 38.2467 71.572 38.4601C71.5059 38.6267 69.7522 43.4684 67.6745 49.2194C65.5971 54.9703 63.8072 59.9081 63.6969 60.192L63.4964 60.7082L62.2618 60.4553C57.2117 59.4206 51.9399 60.3975 47.6699 63.1595C46.8929 63.662 46.2195 64.0732 46.1736 64.0732C46.1274 64.0732 44.6339 62.477 42.8541 60.5261L39.6183 56.9789L40.1173 56.3729C41.1543 55.1138 42.7247 52.5877 43.3223 51.2176C44.3678 48.8199 44.7398 47.0658 44.844 44.0401C44.9325 41.4749 44.739 39.7503 44.0914 37.3289C44.0433 37.1495 46.8731 35.8541 53.1107 33.2003C58.1099 31.0735 62.2518 29.3882 62.315 29.4552C62.3781 29.5223 62.8584 30.2368 63.382 31.043ZM26.9179 37.1176C28.0991 37.6522 28.8288 38.3704 29.3842 39.5449C30.7008 42.33 29.1363 45.7295 26.1961 46.4716C25.0956 46.7495 24.6319 46.7333 23.4233 46.3745C20.808 45.5978 19.3453 42.6348 20.2564 39.959C21.1213 37.419 24.4484 35.9999 26.9179 37.1176ZM28.5442 50.2933C30.202 50.7251 31.1659 51.2856 32.4378 52.5574C33.5801 53.6996 34.462 55.2537 34.5782 56.3289C34.6341 56.8464 34.5125 56.9639 33.0429 57.8105C30.1645 59.4693 27.4406 60.098 23.9859 59.9014C21.5406 59.7621 20.1418 59.413 17.9727 58.4004C15.9791 57.4699 15.1898 56.9205 15.1898 56.4637C15.1898 56.2706 15.4971 55.4982 15.8728 54.7477C16.9879 52.5187 19.0306 50.8506 21.3471 50.2765C22.7668 49.9247 27.1687 49.9351 28.5442 50.2933ZM93.4494 53.7218C96.1532 54.7333 97.4315 57.9726 96.1322 60.5192C95.2775 62.1946 93.8394 63.121 91.8894 63.2527C89.8855 63.3881 88.1632 62.374 87.2353 60.5122C85.8922 57.8174 87.2464 54.6563 90.1947 53.6046C91.2479 53.2289 92.226 53.2641 93.4494 53.7218ZM62.4932 63.9049C67.3129 65.1303 71.2809 68.4674 73.4197 73.0941C74.5705 75.5839 74.9079 77.2112 74.892 80.1974C74.8766 83.1163 74.4761 84.9025 73.321 87.2035C72.7239 88.3933 71.1464 90.8491 70.9793 90.8491C70.9475 90.8491 70.6343 90.2995 70.2837 89.6276C69.4375 88.0068 66.8889 85.4668 65.3733 84.7338L64.2462 84.1887L64.9264 83.2979C66.0768 81.7916 66.489 80.4765 66.4804 78.3406C66.4716 76.1108 66.0115 74.7329 64.7615 73.1918C63.1297 71.1801 60.8861 70.1124 58.2907 70.1124C55.6952 70.1124 53.4516 71.1801 51.8199 73.1918C50.5528 74.754 50.0962 76.1177 50.0962 78.3406C50.0962 80.4774 50.513 81.8026 51.6549 83.2979L52.3351 84.1887L51.208 84.7338C49.7264 85.4503 47.131 88.0156 46.3557 89.5293C46.0395 90.1471 45.6927 90.6251 45.5852 90.5913C45.2034 90.4715 43.54 87.8469 42.9548 86.4416C41.2931 82.4507 41.2927 77.6595 42.9538 73.6322C44.592 69.66 48.1793 66.1113 52.1158 64.5686C53.3009 64.1043 55.4818 63.5705 56.8246 63.4159C58.068 63.273 61.0038 63.5261 62.4932 63.9049ZM9.89065 68.6585C11.0363 69.0627 11.9964 69.8527 12.6096 70.8954C13.0653 71.6705 13.137 72.0071 13.1347 73.3568C13.1315 75.0998 12.8815 75.7494 11.7957 76.8351C9.38517 79.2456 5.41813 78.5934 3.79535 75.52C3.21168 74.4146 3.20894 72.3039 3.78988 71.2044C4.99611 68.9212 7.57943 67.8431 9.89065 68.6585ZM60.6791 74.016C62.3636 74.882 63.17 76.2826 63.169 78.3406C63.1682 80.0537 62.754 81.0268 61.5906 82.0482C60.5814 82.934 59.6656 83.2743 58.2907 83.2743C56.8839 83.2743 55.9613 82.9189 54.9149 81.9738C52.3928 79.6955 52.9667 75.4883 56.0088 73.9527C57.4396 73.2304 59.198 73.2542 60.6791 74.016ZM25.507 83.9263C28.667 85.5006 29.2034 89.6786 26.5528 92.073C25.8016 92.7516 24.2257 93.3899 23.3018 93.3899C22.3704 93.3899 20.8015 92.7512 20.0341 92.0597C18.4991 90.6759 17.9598 88.6453 18.616 86.7198C19.5679 83.9263 22.8428 82.5986 25.507 83.9263ZM63.2751 87.4478C65.5422 88.528 67.316 90.5812 67.9255 92.8301L68.118 93.5408L66.7228 94.3347C63.5632 96.1324 61.7735 96.6055 58.1929 96.5899C55.9149 96.5797 55.3186 96.5069 53.8326 96.0565C51.0435 95.2116 48.6148 93.8445 48.6152 93.1196C48.6154 92.4154 49.7203 90.3271 50.5945 89.379C51.5255 88.3691 52.7216 87.6055 54.1833 87.0884C55.0044 86.7977 55.7171 86.7499 58.5839 86.7921C61.9571 86.8417 62.0222 86.8509 63.2751 87.4478Z" fill="url(#paint1_radial_1464_84)"/>
<defs>
<radialGradient id="paint0_radial_1464_84" cx="0" cy="0" r="1" gradientUnits="userSpaceOnUse" gradientTransform="translate(26.3889 20.8333) rotate(51.0441) scale(83.9445 83.9445)">
<stop stop-color="white" stop-opacity="0.59"/>
<stop offset="0.697917" stop-color="white" stop-opacity="0"/>
<stop offset="1" stop-color="white" stop-opacity="0"/>
</radialGradient>
<radialGradient id="paint1_radial_1464_84" cx="0" cy="0" r="1" gradientUnits="userSpaceOnUse" gradientTransform="translate(86.3014 87.5) rotate(-93.6705) scale(85.5922 95.3961)">
<stop stop-opacity="0.23"/>
<stop offset="0.861815" stop-opacity="0"/>
</radialGradient>
</defs>
</svg>
