<svg width="81" height="100" viewBox="0 0 81 100" fill="none" xmlns="http://www.w3.org/2000/svg">
<path fill-rule="evenodd" clip-rule="evenodd" d="M28.5711 0.140019C23.0847 0.957994 17.7459 4.11907 14.4431 8.50525C12.2968 11.3552 10.7492 15.0045 10.2686 18.3481L10.0231 20.0556L8.93816 20.3687C7.18475 20.8747 5.67741 21.7905 4.47537 23.0799C2.53138 25.1652 1.69621 27.255 1.69621 30.0347C1.69621 34.2673 4.50331 38.1138 8.53924 39.4116L9.85152 39.8334L9.98462 41.7653C10.1418 44.0478 10.4731 45.2758 11.4316 47.1313C12.6878 49.5623 15.5611 51.9816 18.0637 52.715L18.8926 52.9579L17.966 53.9538L17.0393 54.9494L12.4462 55.0471L7.853 55.1449L6.53897 55.7674C4.71304 56.6323 3.41249 57.9088 2.52219 59.7099C1.82071 61.1287 1.79139 61.271 1.72533 63.5756C1.65027 66.1915 1.88326 67.3042 2.7843 68.6318L3.25984 69.3327V75.5108V81.6889L2.27201 82.7334C-0.899227 86.0866 -0.730746 91.2479 2.65237 94.3801C4.54729 96.1345 6.49949 96.8155 9.07576 96.6206C13.3484 96.2975 16.5669 92.7535 16.5669 88.372C16.5669 85.9179 15.7181 83.9389 13.9306 82.2258L13.228 81.5523V76.6065V71.6607H14.5698H15.9116L16.3566 72.98C18.318 78.794 22.8078 84.1444 27.9848 86.8377C28.7373 87.2292 29.3838 87.5748 29.4213 87.6059C29.4591 87.6367 29.7479 88.9213 30.0634 90.4603C30.7891 94.0005 31.4216 95.3585 33.1488 97.084C37.0394 100.971 42.9819 100.972 46.8615 97.0871C48.5889 95.3572 49.2218 93.998 49.9469 90.4603C50.2624 88.9213 50.5513 87.6367 50.589 87.6059C50.6265 87.5748 51.2731 87.2292 52.0256 86.8377C57.1686 84.1622 61.7326 78.7244 63.6569 72.98L64.0988 71.6607H65.4406H66.7824V76.6065V81.5523L66.0797 82.2258C64.2934 83.9376 63.4419 85.9195 63.4383 88.372C63.4317 92.8055 66.6858 96.3262 71.0677 96.6264C73.7143 96.8078 75.8452 95.9926 77.639 94.1119C80.7634 90.8363 80.8058 85.9767 77.7383 82.7334L76.7505 81.6889V75.5108V69.3327L77.2261 68.6318C78.1271 67.3042 78.3601 66.1915 78.285 63.5756C78.219 61.271 78.1896 61.1287 77.4882 59.7099C76.5979 57.9088 75.2973 56.6323 73.4714 55.7674L72.1573 55.1449L67.5642 55.0471L62.971 54.9494L62.0444 53.9538L61.1177 52.9579L61.9466 52.7132C64.4938 51.9613 67.3154 49.5846 68.5946 47.1133C69.4958 45.3722 69.8719 43.9387 70.0345 41.6251L70.1625 39.8058L71.3233 39.4802C74.3548 38.6296 77.0412 35.8555 78.0024 32.5832C78.397 31.2397 78.4025 28.8868 78.0145 27.3972C77.152 24.0855 74.4356 21.3393 71.0579 20.3646L69.9587 20.0474L69.8299 18.9099C69.6084 16.953 68.7631 14.1781 67.7604 12.1172C64.9471 6.33454 59.9974 2.31874 53.506 0.552818L51.6347 0.04366L40.6893 0.00437376C34.6693 -0.0173216 29.2161 0.0438555 28.5711 0.140019ZM52.7382 3.78406C59.8205 5.76831 64.597 10.734 66.3266 17.9109C66.5787 18.9572 66.6491 21.0815 66.7255 29.9485C66.7812 36.4192 66.7415 41.3499 66.626 42.3051C66.289 45.0925 64.8505 47.4197 62.6509 48.7355C60.528 50.0054 61.2649 49.9653 40.0052 49.9653C18.9902 49.9653 19.4849 49.99 17.5403 48.8505C15.2883 47.531 13.7479 45.2033 13.4145 42.6161C13.1733 40.7432 13.184 22.5807 13.4279 20.0085C14.2197 11.6581 20.2645 5.06898 28.5402 3.53564C29.6137 3.33667 32.4182 3.28683 40.5915 3.32084C50.811 3.36345 51.3046 3.3824 52.7382 3.78406ZM26.812 15.3594C24.9142 15.8668 23.7182 16.4149 22.3017 17.4256C20.5645 18.6653 19.0384 20.442 18.13 22.283C16.961 24.6521 16.7524 25.8221 16.7491 30.0329C16.7458 34.1637 17.0055 35.5158 18.2687 37.9418C19.3576 40.0328 21.8528 42.4509 23.9852 43.4815C26.9017 44.8912 26.7448 44.8775 40.0228 44.8806C53.3613 44.8839 53.4067 44.8796 56.2865 43.3797C58.3567 42.3016 60.7919 39.817 61.8458 37.7078C63.092 35.2136 63.3131 33.8691 63.2265 29.3043C63.1583 25.714 63.1158 25.3329 62.6362 24.0022C61.2057 20.0355 58.2647 17.1005 54.2964 15.6798L52.612 15.0768L40.3961 15.0352C28.9992 14.9963 28.0885 15.018 26.812 15.3594ZM52.3768 18.5928C55.1824 19.3236 57.6973 21.3208 58.9034 23.7763C59.7929 25.5868 59.9313 26.4122 59.9368 29.9391C59.9419 33.3883 59.7183 34.6691 58.8137 36.3666C58.1349 37.6408 56.0215 39.7542 54.7473 40.433C52.6567 41.5469 52.4755 41.5608 40.0087 41.5608C29.5163 41.5608 28.4552 41.5309 27.2725 41.2031C24.0825 40.3185 21.4382 37.7438 20.4569 34.5669C19.9506 32.9276 19.8963 27.4508 20.3685 25.6382C21.2328 22.3195 24.0702 19.5398 27.5499 18.6026C29.1024 18.1845 50.7761 18.1759 52.3768 18.5928ZM9.90527 29.9313C9.90527 34.6947 9.84742 36.2836 9.67385 36.2836C9.10332 36.2836 7.7156 35.4023 6.88101 34.5098C5.49915 33.0326 5.1186 32.044 5.1186 29.9313C5.1186 27.8931 5.48019 26.8877 6.69787 25.5398C7.42222 24.7381 9.16704 23.5845 9.66095 23.5808C9.85152 23.5794 9.90527 24.9789 9.90527 29.9313ZM71.5802 24.1486C72.7844 24.8393 73.9178 26.0609 74.475 27.2688C74.8026 27.9789 74.8917 28.5487 74.8917 29.9313C74.8917 31.3139 74.8026 31.8837 74.475 32.5938C73.7437 34.1793 71.9347 35.8667 70.6099 36.1993L70.1051 36.326V29.9524C70.1051 24.983 70.1588 23.5794 70.3494 23.5808C70.4839 23.582 71.0376 23.8374 71.5802 24.1486ZM27.9484 25.2973C25.2044 26.2804 23.4217 28.6386 23.3998 31.3143C23.391 32.3686 23.7915 32.9663 24.6884 33.2376C25.6331 33.5234 26.7104 32.4734 26.7174 31.2604C26.7258 29.8518 28.4495 28.2699 29.9762 28.2699C31.602 28.2699 33.0673 29.5955 33.2892 31.2668C33.4606 32.5594 34.0548 33.2345 35.0211 33.2345C35.5893 33.2345 35.8662 33.1061 36.2429 32.6682C36.6813 32.1587 36.718 31.9873 36.6107 30.9604C36.3744 28.6982 34.7205 26.418 32.6532 25.5035C31.3636 24.9332 29.2267 24.8395 27.9484 25.2973ZM48.2047 25.2017C45.6434 25.9261 43.6781 28.2952 43.3955 30.9985C43.2927 31.9828 43.3328 32.163 43.7675 32.6682C44.1441 33.1061 44.4211 33.2345 44.9893 33.2345C45.9683 33.2345 46.5496 32.5615 46.7272 31.2225C46.9475 29.5615 48.3941 28.2699 50.0341 28.2699C51.5608 28.2699 53.2845 29.8518 53.2929 31.2604C53.3003 32.5553 54.4463 33.5748 55.4589 33.1876C56.4231 32.8189 56.6823 32.3014 56.5734 30.961C56.3094 27.7084 53.704 25.1955 50.4149 25.0205C49.6884 24.9818 48.6937 25.0635 48.2047 25.2017ZM55.3131 53.5803C56.8859 53.9899 57.8959 54.548 59.0643 55.653C61.0911 57.5699 61.701 59.4179 61.6998 63.6393C61.698 69.7347 60.2388 74.3527 57.0855 78.2397L56.4258 79.053L55.2031 78.6795C50.9023 77.3662 45.9761 76.7425 39.9028 76.7425C33.5904 76.7425 29.4847 77.2998 24.2238 78.8706C23.6259 79.0491 23.5526 79.0135 22.9278 78.2432C19.7716 74.3527 18.3123 69.7369 18.3106 63.6393C18.3094 59.4179 18.9192 57.5699 20.9461 55.653C22.0873 54.5737 23.1221 53.9917 24.6134 53.59C26.1823 53.1677 53.6952 53.1589 55.3131 53.5803ZM15.2486 59.2005C15.1585 59.6573 15.0852 61.905 15.0856 64.1954L15.0864 68.3595L11.1615 68.2999C7.34991 68.242 7.21621 68.2262 6.529 67.755C5.34611 66.9436 5.01834 66.1284 5.02322 64.0114C5.02948 61.3112 5.88205 59.7464 7.84499 58.8325C8.75541 58.4086 9.08026 58.3736 12.1213 58.3718L15.4124 58.3699L15.2486 59.2005ZM34.176 58.878C31.7273 60.0983 30.9449 63.3311 32.5631 65.5428C33.5554 66.8991 36.7327 70.3834 37.3814 70.8267C38.8946 71.8607 41.1105 71.8671 42.6033 70.8418C43.2667 70.3862 46.4362 66.9174 47.4453 65.5428C49.0662 63.3348 48.284 60.0986 45.8344 58.878C44.8194 58.3722 44.7928 58.3699 40.0052 58.3699C35.2175 58.3699 35.1909 58.3722 34.176 58.878ZM72.1654 58.8325C74.1308 59.7478 74.9809 61.3107 74.9871 64.0208C74.9908 65.6321 74.9312 65.9634 74.5055 66.6896C73.6504 68.1486 72.9749 68.338 68.6247 68.338H64.9224L64.924 64.2823C64.9248 62.0516 64.8542 59.809 64.767 59.2983L64.6083 58.3699L67.8943 58.3718C70.9297 58.3736 71.2551 58.4086 72.1654 58.8325ZM44.5925 62.077C45.2717 62.8276 45.0467 63.3209 42.936 65.7099C40.7606 68.1721 40.2778 68.5249 39.542 68.1897C39.0308 67.9569 35.2625 63.7605 35.0551 63.1933C34.9206 62.8258 35.2089 62.0952 35.5879 61.8421C35.7062 61.7631 37.7023 61.6973 40.0237 61.6955C43.9746 61.6928 44.2669 61.7172 44.5925 62.077ZM8.85471 71.6607H9.90527V75.863V80.0652H8.24391H6.58255V75.7408V71.4164L7.19335 71.5386C7.52933 71.6058 8.27694 71.6607 8.85471 71.6607ZM73.4278 75.7653V80.0652H71.7664H70.1051V75.872V71.6785L71.4244 71.6103C72.1499 71.5726 72.8977 71.5247 73.0858 71.5036C73.4024 71.4682 73.4278 71.7858 73.4278 75.7653ZM46.4845 80.3541C48.7846 80.6233 53.4288 81.501 53.633 81.7053C53.6826 81.7549 53.3414 82.0735 52.8744 82.4134C45.1255 88.0548 34.8745 88.0466 27.107 82.3927L26.2294 81.7538L26.8138 81.5853C27.9337 81.2624 31.321 80.6223 33.262 80.3666C36.013 80.0043 43.434 79.9974 46.4845 80.3541ZM9.94299 83.6178C10.9502 83.9196 12.3109 85.1349 12.8207 86.1882C13.7346 88.0761 13.1254 90.8451 11.5002 92.1892C10.7647 92.7977 9.25304 93.3561 8.34164 93.3561C6.27002 93.3561 4.12628 91.7409 3.5452 89.7422C2.40981 85.837 5.97117 82.4279 9.94299 83.6178ZM73.9164 83.8283C75.328 84.5695 76.412 86.1116 76.6536 87.7225C77.0705 90.5031 74.5462 93.3561 71.6687 93.3561C70.7573 93.3561 69.2457 92.7977 68.5102 92.1892C66.885 90.8451 66.2757 88.0761 67.1897 86.1882C67.6658 85.2045 69.0352 83.9323 69.9516 83.6219C70.8243 83.3264 73.1958 83.4499 73.9164 83.8283ZM35.4007 89.5487C38.7377 90.1872 42.5426 90.1051 45.5484 89.3298C46.1784 89.1671 46.7235 89.0639 46.7599 89.1003C46.9387 89.2791 46.0087 92.7324 45.5889 93.4488C44.9638 94.5154 43.7237 95.6245 42.5793 96.1404C41.294 96.7195 38.7164 96.7195 37.431 96.1404C35.4636 95.2536 34.1681 93.5918 33.657 91.2995C33.4897 90.5494 33.3072 89.7308 33.2511 89.4803C33.1666 89.1032 33.2126 89.0452 33.5179 89.1419C33.7206 89.2064 34.5678 89.3894 35.4007 89.5487Z" fill="#0066FF"/>
<path fill-rule="evenodd" clip-rule="evenodd" d="M28.5711 0.140019C23.0847 0.957994 17.7459 4.11907 14.4431 8.50525C12.2968 11.3552 10.7492 15.0045 10.2686 18.3481L10.0231 20.0556L8.93816 20.3687C7.18475 20.8747 5.67741 21.7905 4.47537 23.0799C2.53138 25.1652 1.69621 27.255 1.69621 30.0347C1.69621 34.2673 4.50331 38.1138 8.53924 39.4116L9.85152 39.8334L9.98462 41.7653C10.1418 44.0478 10.4731 45.2758 11.4316 47.1313C12.6878 49.5623 15.5611 51.9816 18.0637 52.715L18.8926 52.9579L17.966 53.9538L17.0393 54.9494L12.4462 55.0471L7.853 55.1449L6.53897 55.7674C4.71304 56.6323 3.41249 57.9088 2.52219 59.7099C1.82071 61.1287 1.79139 61.271 1.72533 63.5756C1.65027 66.1915 1.88326 67.3042 2.7843 68.6318L3.25984 69.3327V75.5108V81.6889L2.27201 82.7334C-0.899227 86.0866 -0.730746 91.2479 2.65237 94.3801C4.54729 96.1345 6.49949 96.8155 9.07576 96.6206C13.3484 96.2975 16.5669 92.7535 16.5669 88.372C16.5669 85.9179 15.7181 83.9389 13.9306 82.2258L13.228 81.5523V76.6065V71.6607H14.5698H15.9116L16.3566 72.98C18.318 78.794 22.8078 84.1444 27.9848 86.8377C28.7373 87.2292 29.3838 87.5748 29.4213 87.6059C29.4591 87.6367 29.7479 88.9213 30.0634 90.4603C30.7891 94.0005 31.4216 95.3585 33.1488 97.084C37.0394 100.971 42.9819 100.972 46.8615 97.0871C48.5889 95.3572 49.2218 93.998 49.9469 90.4603C50.2624 88.9213 50.5513 87.6367 50.589 87.6059C50.6265 87.5748 51.2731 87.2292 52.0256 86.8377C57.1686 84.1622 61.7326 78.7244 63.6569 72.98L64.0988 71.6607H65.4406H66.7824V76.6065V81.5523L66.0797 82.2258C64.2934 83.9376 63.4419 85.9195 63.4383 88.372C63.4317 92.8055 66.6858 96.3262 71.0677 96.6264C73.7143 96.8078 75.8452 95.9926 77.639 94.1119C80.7634 90.8363 80.8058 85.9767 77.7383 82.7334L76.7505 81.6889V75.5108V69.3327L77.2261 68.6318C78.1271 67.3042 78.3601 66.1915 78.285 63.5756C78.219 61.271 78.1896 61.1287 77.4882 59.7099C76.5979 57.9088 75.2973 56.6323 73.4714 55.7674L72.1573 55.1449L67.5642 55.0471L62.971 54.9494L62.0444 53.9538L61.1177 52.9579L61.9466 52.7132C64.4938 51.9613 67.3154 49.5846 68.5946 47.1133C69.4958 45.3722 69.8719 43.9387 70.0345 41.6251L70.1625 39.8058L71.3233 39.4802C74.3548 38.6296 77.0412 35.8555 78.0024 32.5832C78.397 31.2397 78.4025 28.8868 78.0145 27.3972C77.152 24.0855 74.4356 21.3393 71.0579 20.3646L69.9587 20.0474L69.8299 18.9099C69.6084 16.953 68.7631 14.1781 67.7604 12.1172C64.9471 6.33454 59.9974 2.31874 53.506 0.552818L51.6347 0.04366L40.6893 0.00437376C34.6693 -0.0173216 29.2161 0.0438555 28.5711 0.140019ZM52.7382 3.78406C59.8205 5.76831 64.597 10.734 66.3266 17.9109C66.5787 18.9572 66.6491 21.0815 66.7255 29.9485C66.7812 36.4192 66.7415 41.3499 66.626 42.3051C66.289 45.0925 64.8505 47.4197 62.6509 48.7355C60.528 50.0054 61.2649 49.9653 40.0052 49.9653C18.9902 49.9653 19.4849 49.99 17.5403 48.8505C15.2883 47.531 13.7479 45.2033 13.4145 42.6161C13.1733 40.7432 13.184 22.5807 13.4279 20.0085C14.2197 11.6581 20.2645 5.06898 28.5402 3.53564C29.6137 3.33667 32.4182 3.28683 40.5915 3.32084C50.811 3.36345 51.3046 3.3824 52.7382 3.78406ZM26.812 15.3594C24.9142 15.8668 23.7182 16.4149 22.3017 17.4256C20.5645 18.6653 19.0384 20.442 18.13 22.283C16.961 24.6521 16.7524 25.8221 16.7491 30.0329C16.7458 34.1637 17.0055 35.5158 18.2687 37.9418C19.3576 40.0328 21.8528 42.4509 23.9852 43.4815C26.9017 44.8912 26.7448 44.8775 40.0228 44.8806C53.3613 44.8839 53.4067 44.8796 56.2865 43.3797C58.3567 42.3016 60.7919 39.817 61.8458 37.7078C63.092 35.2136 63.3131 33.8691 63.2265 29.3043C63.1583 25.714 63.1158 25.3329 62.6362 24.0022C61.2057 20.0355 58.2647 17.1005 54.2964 15.6798L52.612 15.0768L40.3961 15.0352C28.9992 14.9963 28.0885 15.018 26.812 15.3594ZM52.3768 18.5928C55.1824 19.3236 57.6973 21.3208 58.9034 23.7763C59.7929 25.5868 59.9313 26.4122 59.9368 29.9391C59.9419 33.3883 59.7183 34.6691 58.8137 36.3666C58.1349 37.6408 56.0215 39.7542 54.7473 40.433C52.6567 41.5469 52.4755 41.5608 40.0087 41.5608C29.5163 41.5608 28.4552 41.5309 27.2725 41.2031C24.0825 40.3185 21.4382 37.7438 20.4569 34.5669C19.9506 32.9276 19.8963 27.4508 20.3685 25.6382C21.2328 22.3195 24.0702 19.5398 27.5499 18.6026C29.1024 18.1845 50.7761 18.1759 52.3768 18.5928ZM9.90527 29.9313C9.90527 34.6947 9.84742 36.2836 9.67385 36.2836C9.10332 36.2836 7.7156 35.4023 6.88101 34.5098C5.49915 33.0326 5.1186 32.044 5.1186 29.9313C5.1186 27.8931 5.48019 26.8877 6.69787 25.5398C7.42222 24.7381 9.16704 23.5845 9.66095 23.5808C9.85152 23.5794 9.90527 24.9789 9.90527 29.9313ZM71.5802 24.1486C72.7844 24.8393 73.9178 26.0609 74.475 27.2688C74.8026 27.9789 74.8917 28.5487 74.8917 29.9313C74.8917 31.3139 74.8026 31.8837 74.475 32.5938C73.7437 34.1793 71.9347 35.8667 70.6099 36.1993L70.1051 36.326V29.9524C70.1051 24.983 70.1588 23.5794 70.3494 23.5808C70.4839 23.582 71.0376 23.8374 71.5802 24.1486ZM27.9484 25.2973C25.2044 26.2804 23.4217 28.6386 23.3998 31.3143C23.391 32.3686 23.7915 32.9663 24.6884 33.2376C25.6331 33.5234 26.7104 32.4734 26.7174 31.2604C26.7258 29.8518 28.4495 28.2699 29.9762 28.2699C31.602 28.2699 33.0673 29.5955 33.2892 31.2668C33.4606 32.5594 34.0548 33.2345 35.0211 33.2345C35.5893 33.2345 35.8662 33.1061 36.2429 32.6682C36.6813 32.1587 36.718 31.9873 36.6107 30.9604C36.3744 28.6982 34.7205 26.418 32.6532 25.5035C31.3636 24.9332 29.2267 24.8395 27.9484 25.2973ZM48.2047 25.2017C45.6434 25.9261 43.6781 28.2952 43.3955 30.9985C43.2927 31.9828 43.3328 32.163 43.7675 32.6682C44.1441 33.1061 44.4211 33.2345 44.9893 33.2345C45.9683 33.2345 46.5496 32.5615 46.7272 31.2225C46.9475 29.5615 48.3941 28.2699 50.0341 28.2699C51.5608 28.2699 53.2845 29.8518 53.2929 31.2604C53.3003 32.5553 54.4463 33.5748 55.4589 33.1876C56.4231 32.8189 56.6823 32.3014 56.5734 30.961C56.3094 27.7084 53.704 25.1955 50.4149 25.0205C49.6884 24.9818 48.6937 25.0635 48.2047 25.2017ZM55.3131 53.5803C56.8859 53.9899 57.8959 54.548 59.0643 55.653C61.0911 57.5699 61.701 59.4179 61.6998 63.6393C61.698 69.7347 60.2388 74.3527 57.0855 78.2397L56.4258 79.053L55.2031 78.6795C50.9023 77.3662 45.9761 76.7425 39.9028 76.7425C33.5904 76.7425 29.4847 77.2998 24.2238 78.8706C23.6259 79.0491 23.5526 79.0135 22.9278 78.2432C19.7716 74.3527 18.3123 69.7369 18.3106 63.6393C18.3094 59.4179 18.9192 57.5699 20.9461 55.653C22.0873 54.5737 23.1221 53.9917 24.6134 53.59C26.1823 53.1677 53.6952 53.1589 55.3131 53.5803ZM15.2486 59.2005C15.1585 59.6573 15.0852 61.905 15.0856 64.1954L15.0864 68.3595L11.1615 68.2999C7.34991 68.242 7.21621 68.2262 6.529 67.755C5.34611 66.9436 5.01834 66.1284 5.02322 64.0114C5.02948 61.3112 5.88205 59.7464 7.84499 58.8325C8.75541 58.4086 9.08026 58.3736 12.1213 58.3718L15.4124 58.3699L15.2486 59.2005ZM34.176 58.878C31.7273 60.0983 30.9449 63.3311 32.5631 65.5428C33.5554 66.8991 36.7327 70.3834 37.3814 70.8267C38.8946 71.8607 41.1105 71.8671 42.6033 70.8418C43.2667 70.3862 46.4362 66.9174 47.4453 65.5428C49.0662 63.3348 48.284 60.0986 45.8344 58.878C44.8194 58.3722 44.7928 58.3699 40.0052 58.3699C35.2175 58.3699 35.1909 58.3722 34.176 58.878ZM72.1654 58.8325C74.1308 59.7478 74.9809 61.3107 74.9871 64.0208C74.9908 65.6321 74.9312 65.9634 74.5055 66.6896C73.6504 68.1486 72.9749 68.338 68.6247 68.338H64.9224L64.924 64.2823C64.9248 62.0516 64.8542 59.809 64.767 59.2983L64.6083 58.3699L67.8943 58.3718C70.9297 58.3736 71.2551 58.4086 72.1654 58.8325ZM44.5925 62.077C45.2717 62.8276 45.0467 63.3209 42.936 65.7099C40.7606 68.1721 40.2778 68.5249 39.542 68.1897C39.0308 67.9569 35.2625 63.7605 35.0551 63.1933C34.9206 62.8258 35.2089 62.0952 35.5879 61.8421C35.7062 61.7631 37.7023 61.6973 40.0237 61.6955C43.9746 61.6928 44.2669 61.7172 44.5925 62.077ZM8.85471 71.6607H9.90527V75.863V80.0652H8.24391H6.58255V75.7408V71.4164L7.19335 71.5386C7.52933 71.6058 8.27694 71.6607 8.85471 71.6607ZM73.4278 75.7653V80.0652H71.7664H70.1051V75.872V71.6785L71.4244 71.6103C72.1499 71.5726 72.8977 71.5247 73.0858 71.5036C73.4024 71.4682 73.4278 71.7858 73.4278 75.7653ZM46.4845 80.3541C48.7846 80.6233 53.4288 81.501 53.633 81.7053C53.6826 81.7549 53.3414 82.0735 52.8744 82.4134C45.1255 88.0548 34.8745 88.0466 27.107 82.3927L26.2294 81.7538L26.8138 81.5853C27.9337 81.2624 31.321 80.6223 33.262 80.3666C36.013 80.0043 43.434 79.9974 46.4845 80.3541ZM9.94299 83.6178C10.9502 83.9196 12.3109 85.1349 12.8207 86.1882C13.7346 88.0761 13.1254 90.8451 11.5002 92.1892C10.7647 92.7977 9.25304 93.3561 8.34164 93.3561C6.27002 93.3561 4.12628 91.7409 3.5452 89.7422C2.40981 85.837 5.97117 82.4279 9.94299 83.6178ZM73.9164 83.8283C75.328 84.5695 76.412 86.1116 76.6536 87.7225C77.0705 90.5031 74.5462 93.3561 71.6687 93.3561C70.7573 93.3561 69.2457 92.7977 68.5102 92.1892C66.885 90.8451 66.2757 88.0761 67.1897 86.1882C67.6658 85.2045 69.0352 83.9323 69.9516 83.6219C70.8243 83.3264 73.1958 83.4499 73.9164 83.8283ZM35.4007 89.5487C38.7377 90.1872 42.5426 90.1051 45.5484 89.3298C46.1784 89.1671 46.7235 89.0639 46.7599 89.1003C46.9387 89.2791 46.0087 92.7324 45.5889 93.4488C44.9638 94.5154 43.7237 95.6245 42.5793 96.1404C41.294 96.7195 38.7164 96.7195 37.431 96.1404C35.4636 95.2536 34.1681 93.5918 33.657 91.2995C33.4897 90.5494 33.3072 89.7308 33.2511 89.4803C33.1666 89.1032 33.2126 89.0452 33.5179 89.1419C33.7206 89.2064 34.5678 89.3894 35.4007 89.5487Z" fill="url(#paint0_radial_1464_2294)" fill-opacity="0.7"/>
<path fill-rule="evenodd" clip-rule="evenodd" d="M28.5711 0.140019C23.0847 0.957994 17.7459 4.11907 14.4431 8.50525C12.2968 11.3552 10.7492 15.0045 10.2686 18.3481L10.0231 20.0556L8.93816 20.3687C7.18475 20.8747 5.67741 21.7905 4.47537 23.0799C2.53138 25.1652 1.69621 27.255 1.69621 30.0347C1.69621 34.2673 4.50331 38.1138 8.53924 39.4116L9.85152 39.8334L9.98462 41.7653C10.1418 44.0478 10.4731 45.2758 11.4316 47.1313C12.6878 49.5623 15.5611 51.9816 18.0637 52.715L18.8926 52.9579L17.966 53.9538L17.0393 54.9494L12.4462 55.0471L7.853 55.1449L6.53897 55.7674C4.71304 56.6323 3.41249 57.9088 2.52219 59.7099C1.82071 61.1287 1.79139 61.271 1.72533 63.5756C1.65027 66.1915 1.88326 67.3042 2.7843 68.6318L3.25984 69.3327V75.5108V81.6889L2.27201 82.7334C-0.899227 86.0866 -0.730746 91.2479 2.65237 94.3801C4.54729 96.1345 6.49949 96.8155 9.07576 96.6206C13.3484 96.2975 16.5669 92.7535 16.5669 88.372C16.5669 85.9179 15.7181 83.9389 13.9306 82.2258L13.228 81.5523V76.6065V71.6607H14.5698H15.9116L16.3566 72.98C18.318 78.794 22.8078 84.1444 27.9848 86.8377C28.7373 87.2292 29.3838 87.5748 29.4213 87.6059C29.4591 87.6367 29.7479 88.9213 30.0634 90.4603C30.7891 94.0005 31.4216 95.3585 33.1488 97.084C37.0394 100.971 42.9819 100.972 46.8615 97.0871C48.5889 95.3572 49.2218 93.998 49.9469 90.4603C50.2624 88.9213 50.5513 87.6367 50.589 87.6059C50.6265 87.5748 51.2731 87.2292 52.0256 86.8377C57.1686 84.1622 61.7326 78.7244 63.6569 72.98L64.0988 71.6607H65.4406H66.7824V76.6065V81.5523L66.0797 82.2258C64.2934 83.9376 63.4419 85.9195 63.4383 88.372C63.4317 92.8055 66.6858 96.3262 71.0677 96.6264C73.7143 96.8078 75.8452 95.9926 77.639 94.1119C80.7634 90.8363 80.8058 85.9767 77.7383 82.7334L76.7505 81.6889V75.5108V69.3327L77.2261 68.6318C78.1271 67.3042 78.3601 66.1915 78.285 63.5756C78.219 61.271 78.1896 61.1287 77.4882 59.7099C76.5979 57.9088 75.2973 56.6323 73.4714 55.7674L72.1573 55.1449L67.5642 55.0471L62.971 54.9494L62.0444 53.9538L61.1177 52.9579L61.9466 52.7132C64.4938 51.9613 67.3154 49.5846 68.5946 47.1133C69.4958 45.3722 69.8719 43.9387 70.0345 41.6251L70.1625 39.8058L71.3233 39.4802C74.3548 38.6296 77.0412 35.8555 78.0024 32.5832C78.397 31.2397 78.4025 28.8868 78.0145 27.3972C77.152 24.0855 74.4356 21.3393 71.0579 20.3646L69.9587 20.0474L69.8299 18.9099C69.6084 16.953 68.7631 14.1781 67.7604 12.1172C64.9471 6.33454 59.9974 2.31874 53.506 0.552818L51.6347 0.04366L40.6893 0.00437376C34.6693 -0.0173216 29.2161 0.0438555 28.5711 0.140019ZM52.7382 3.78406C59.8205 5.76831 64.597 10.734 66.3266 17.9109C66.5787 18.9572 66.6491 21.0815 66.7255 29.9485C66.7812 36.4192 66.7415 41.3499 66.626 42.3051C66.289 45.0925 64.8505 47.4197 62.6509 48.7355C60.528 50.0054 61.2649 49.9653 40.0052 49.9653C18.9902 49.9653 19.4849 49.99 17.5403 48.8505C15.2883 47.531 13.7479 45.2033 13.4145 42.6161C13.1733 40.7432 13.184 22.5807 13.4279 20.0085C14.2197 11.6581 20.2645 5.06898 28.5402 3.53564C29.6137 3.33667 32.4182 3.28683 40.5915 3.32084C50.811 3.36345 51.3046 3.3824 52.7382 3.78406ZM26.812 15.3594C24.9142 15.8668 23.7182 16.4149 22.3017 17.4256C20.5645 18.6653 19.0384 20.442 18.13 22.283C16.961 24.6521 16.7524 25.8221 16.7491 30.0329C16.7458 34.1637 17.0055 35.5158 18.2687 37.9418C19.3576 40.0328 21.8528 42.4509 23.9852 43.4815C26.9017 44.8912 26.7448 44.8775 40.0228 44.8806C53.3613 44.8839 53.4067 44.8796 56.2865 43.3797C58.3567 42.3016 60.7919 39.817 61.8458 37.7078C63.092 35.2136 63.3131 33.8691 63.2265 29.3043C63.1583 25.714 63.1158 25.3329 62.6362 24.0022C61.2057 20.0355 58.2647 17.1005 54.2964 15.6798L52.612 15.0768L40.3961 15.0352C28.9992 14.9963 28.0885 15.018 26.812 15.3594ZM52.3768 18.5928C55.1824 19.3236 57.6973 21.3208 58.9034 23.7763C59.7929 25.5868 59.9313 26.4122 59.9368 29.9391C59.9419 33.3883 59.7183 34.6691 58.8137 36.3666C58.1349 37.6408 56.0215 39.7542 54.7473 40.433C52.6567 41.5469 52.4755 41.5608 40.0087 41.5608C29.5163 41.5608 28.4552 41.5309 27.2725 41.2031C24.0825 40.3185 21.4382 37.7438 20.4569 34.5669C19.9506 32.9276 19.8963 27.4508 20.3685 25.6382C21.2328 22.3195 24.0702 19.5398 27.5499 18.6026C29.1024 18.1845 50.7761 18.1759 52.3768 18.5928ZM9.90527 29.9313C9.90527 34.6947 9.84742 36.2836 9.67385 36.2836C9.10332 36.2836 7.7156 35.4023 6.88101 34.5098C5.49915 33.0326 5.1186 32.044 5.1186 29.9313C5.1186 27.8931 5.48019 26.8877 6.69787 25.5398C7.42222 24.7381 9.16704 23.5845 9.66095 23.5808C9.85152 23.5794 9.90527 24.9789 9.90527 29.9313ZM71.5802 24.1486C72.7844 24.8393 73.9178 26.0609 74.475 27.2688C74.8026 27.9789 74.8917 28.5487 74.8917 29.9313C74.8917 31.3139 74.8026 31.8837 74.475 32.5938C73.7437 34.1793 71.9347 35.8667 70.6099 36.1993L70.1051 36.326V29.9524C70.1051 24.983 70.1588 23.5794 70.3494 23.5808C70.4839 23.582 71.0376 23.8374 71.5802 24.1486ZM27.9484 25.2973C25.2044 26.2804 23.4217 28.6386 23.3998 31.3143C23.391 32.3686 23.7915 32.9663 24.6884 33.2376C25.6331 33.5234 26.7104 32.4734 26.7174 31.2604C26.7258 29.8518 28.4495 28.2699 29.9762 28.2699C31.602 28.2699 33.0673 29.5955 33.2892 31.2668C33.4606 32.5594 34.0548 33.2345 35.0211 33.2345C35.5893 33.2345 35.8662 33.1061 36.2429 32.6682C36.6813 32.1587 36.718 31.9873 36.6107 30.9604C36.3744 28.6982 34.7205 26.418 32.6532 25.5035C31.3636 24.9332 29.2267 24.8395 27.9484 25.2973ZM48.2047 25.2017C45.6434 25.9261 43.6781 28.2952 43.3955 30.9985C43.2927 31.9828 43.3328 32.163 43.7675 32.6682C44.1441 33.1061 44.4211 33.2345 44.9893 33.2345C45.9683 33.2345 46.5496 32.5615 46.7272 31.2225C46.9475 29.5615 48.3941 28.2699 50.0341 28.2699C51.5608 28.2699 53.2845 29.8518 53.2929 31.2604C53.3003 32.5553 54.4463 33.5748 55.4589 33.1876C56.4231 32.8189 56.6823 32.3014 56.5734 30.961C56.3094 27.7084 53.704 25.1955 50.4149 25.0205C49.6884 24.9818 48.6937 25.0635 48.2047 25.2017ZM55.3131 53.5803C56.8859 53.9899 57.8959 54.548 59.0643 55.653C61.0911 57.5699 61.701 59.4179 61.6998 63.6393C61.698 69.7347 60.2388 74.3527 57.0855 78.2397L56.4258 79.053L55.2031 78.6795C50.9023 77.3662 45.9761 76.7425 39.9028 76.7425C33.5904 76.7425 29.4847 77.2998 24.2238 78.8706C23.6259 79.0491 23.5526 79.0135 22.9278 78.2432C19.7716 74.3527 18.3123 69.7369 18.3106 63.6393C18.3094 59.4179 18.9192 57.5699 20.9461 55.653C22.0873 54.5737 23.1221 53.9917 24.6134 53.59C26.1823 53.1677 53.6952 53.1589 55.3131 53.5803ZM15.2486 59.2005C15.1585 59.6573 15.0852 61.905 15.0856 64.1954L15.0864 68.3595L11.1615 68.2999C7.34991 68.242 7.21621 68.2262 6.529 67.755C5.34611 66.9436 5.01834 66.1284 5.02322 64.0114C5.02948 61.3112 5.88205 59.7464 7.84499 58.8325C8.75541 58.4086 9.08026 58.3736 12.1213 58.3718L15.4124 58.3699L15.2486 59.2005ZM34.176 58.878C31.7273 60.0983 30.9449 63.3311 32.5631 65.5428C33.5554 66.8991 36.7327 70.3834 37.3814 70.8267C38.8946 71.8607 41.1105 71.8671 42.6033 70.8418C43.2667 70.3862 46.4362 66.9174 47.4453 65.5428C49.0662 63.3348 48.284 60.0986 45.8344 58.878C44.8194 58.3722 44.7928 58.3699 40.0052 58.3699C35.2175 58.3699 35.1909 58.3722 34.176 58.878ZM72.1654 58.8325C74.1308 59.7478 74.9809 61.3107 74.9871 64.0208C74.9908 65.6321 74.9312 65.9634 74.5055 66.6896C73.6504 68.1486 72.9749 68.338 68.6247 68.338H64.9224L64.924 64.2823C64.9248 62.0516 64.8542 59.809 64.767 59.2983L64.6083 58.3699L67.8943 58.3718C70.9297 58.3736 71.2551 58.4086 72.1654 58.8325ZM44.5925 62.077C45.2717 62.8276 45.0467 63.3209 42.936 65.7099C40.7606 68.1721 40.2778 68.5249 39.542 68.1897C39.0308 67.9569 35.2625 63.7605 35.0551 63.1933C34.9206 62.8258 35.2089 62.0952 35.5879 61.8421C35.7062 61.7631 37.7023 61.6973 40.0237 61.6955C43.9746 61.6928 44.2669 61.7172 44.5925 62.077ZM8.85471 71.6607H9.90527V75.863V80.0652H8.24391H6.58255V75.7408V71.4164L7.19335 71.5386C7.52933 71.6058 8.27694 71.6607 8.85471 71.6607ZM73.4278 75.7653V80.0652H71.7664H70.1051V75.872V71.6785L71.4244 71.6103C72.1499 71.5726 72.8977 71.5247 73.0858 71.5036C73.4024 71.4682 73.4278 71.7858 73.4278 75.7653ZM46.4845 80.3541C48.7846 80.6233 53.4288 81.501 53.633 81.7053C53.6826 81.7549 53.3414 82.0735 52.8744 82.4134C45.1255 88.0548 34.8745 88.0466 27.107 82.3927L26.2294 81.7538L26.8138 81.5853C27.9337 81.2624 31.321 80.6223 33.262 80.3666C36.013 80.0043 43.434 79.9974 46.4845 80.3541ZM9.94299 83.6178C10.9502 83.9196 12.3109 85.1349 12.8207 86.1882C13.7346 88.0761 13.1254 90.8451 11.5002 92.1892C10.7647 92.7977 9.25304 93.3561 8.34164 93.3561C6.27002 93.3561 4.12628 91.7409 3.5452 89.7422C2.40981 85.837 5.97117 82.4279 9.94299 83.6178ZM73.9164 83.8283C75.328 84.5695 76.412 86.1116 76.6536 87.7225C77.0705 90.5031 74.5462 93.3561 71.6687 93.3561C70.7573 93.3561 69.2457 92.7977 68.5102 92.1892C66.885 90.8451 66.2757 88.0761 67.1897 86.1882C67.6658 85.2045 69.0352 83.9323 69.9516 83.6219C70.8243 83.3264 73.1958 83.4499 73.9164 83.8283ZM35.4007 89.5487C38.7377 90.1872 42.5426 90.1051 45.5484 89.3298C46.1784 89.1671 46.7235 89.0639 46.7599 89.1003C46.9387 89.2791 46.0087 92.7324 45.5889 93.4488C44.9638 94.5154 43.7237 95.6245 42.5793 96.1404C41.294 96.7195 38.7164 96.7195 37.431 96.1404C35.4636 95.2536 34.1681 93.5918 33.657 91.2995C33.4897 90.5494 33.3072 89.7308 33.2511 89.4803C33.1666 89.1032 33.2126 89.0452 33.5179 89.1419C33.7206 89.2064 34.5678 89.3894 35.4007 89.5487Z" fill="url(#paint1_radial_1464_2294)"/>
<defs>
<radialGradient id="paint0_radial_1464_2294" cx="0" cy="0" r="1" gradientUnits="userSpaceOnUse" gradientTransform="translate(21.114 20.8333) rotate(57.1013) scale(77.7457 72.52)">
<stop stop-color="white" stop-opacity="0.59"/>
<stop offset="0.697917" stop-color="white" stop-opacity="0"/>
<stop offset="1" stop-color="white" stop-opacity="0"/>
</radialGradient>
<radialGradient id="paint1_radial_1464_2294" cx="0" cy="0" r="1" gradientUnits="userSpaceOnUse" gradientTransform="translate(69.0505 87.5) rotate(-92.9382) scale(85.5291 76.3837)">
<stop stop-opacity="0.23"/>
<stop offset="0.861815" stop-opacity="0"/>
</radialGradient>
</defs>
</svg>
