<svg width="91" height="100" viewBox="0 0 91 100" fill="none" xmlns="http://www.w3.org/2000/svg">
<path fill-rule="evenodd" clip-rule="evenodd" d="M20.3267 0.245349C17.7009 0.819071 14.9351 2.58249 13.3464 4.69605C11.334 7.37315 10.7162 9.4292 10.7162 13.4511V16.1353L8.20559 16.2133C5.84928 16.2869 5.61573 16.3305 4.40901 16.9246C-1.45046 19.8092 -1.42249 27.9374 4.45674 30.7342C5.63372 31.2942 5.91364 31.3443 8.22222 31.4086L10.7162 31.4783V36.916V42.3538L8.22222 42.4234C5.91872 42.4876 5.63098 42.5388 4.45615 43.0947C1.34342 44.5675 -0.487674 47.9987 0.113824 51.2321C0.593849 53.8133 2.14484 55.8555 4.45615 56.9489C5.63098 57.5049 5.91872 57.5561 8.22222 57.6203L10.7162 57.6899V63.1277V68.5654L8.22222 68.635C5.91364 68.6994 5.63372 68.7495 4.45674 69.3095C-1.42249 72.1063 -1.45046 80.2345 4.40901 83.1191C5.61397 83.7122 5.85144 83.757 8.18584 83.8296L10.6769 83.9072L10.763 87.0634C10.8318 89.592 10.932 90.4723 11.2665 91.491C12.5047 95.2622 15.6419 98.3688 19.4208 99.5661L20.7901 100H50.5227H80.2553L81.6936 99.5262C85.4302 98.2957 88.2734 95.4912 89.6328 91.6952L90.2314 90.0239V50.0218V10.0197L89.6328 8.34846C88.2945 4.61115 85.5151 1.83507 81.7932 0.518615L80.4509 0.0436755L51.0117 0.00846582C26.4927 -0.0208756 21.3644 0.0186375 20.3267 0.245349ZM81.5548 4.88031C83.3575 5.77131 84.6348 7.0725 85.5006 8.90028L86.1236 10.2154V50.032V89.8487L85.3948 91.3232C84.5038 93.1261 83.2026 94.4034 81.3748 95.2692L80.0597 95.8922L50.9237 95.9437C18.7935 96.0004 20.7127 96.0688 18.7065 94.7925C17.4139 93.97 16.0564 92.4467 15.4539 91.1428C14.9786 90.1137 14.931 89.7765 14.8633 86.9431L14.7896 83.8622H16.8433C20.0607 83.8622 22.0895 83.0336 23.7082 81.0584C24.9742 79.5133 25.2891 78.552 25.2891 76.2335C25.2891 74.4145 25.2291 74.0517 24.7649 73.0611C24.0331 71.4997 22.6592 70.1002 21.1088 69.3365C19.896 68.7393 19.6767 68.6986 17.3227 68.6341L14.824 68.5654V63.1277V57.6899L17.3227 57.6213C19.6767 57.5567 19.896 57.516 21.1088 56.9188C22.6592 56.1552 24.0331 54.7556 24.7649 53.1942C25.2291 52.2037 25.2891 51.8408 25.2891 50.0218C25.2891 48.2029 25.2291 47.84 24.7649 46.8494C24.0331 45.2881 22.6592 43.8885 21.1088 43.1249C19.896 42.5277 19.6767 42.487 17.3227 42.4224L14.824 42.3538V36.916V31.4783L17.3181 31.4065C19.522 31.3433 19.9421 31.2743 20.9306 30.8138C22.4898 30.0873 23.8905 28.7133 24.6552 27.1602C25.2482 25.9553 25.2891 25.7397 25.2891 23.8143C25.2891 21.4913 24.9748 20.5312 23.7082 18.9853C22.0895 17.01 20.0607 16.1814 16.8433 16.1814H14.7896L14.8633 13.1006C14.931 10.2672 14.9786 9.92996 15.4539 8.90086C16.3981 6.85733 18.3696 5.10526 20.4967 4.41906C21.5096 4.0924 23.2865 4.0744 50.8263 4.11176L80.0801 4.15147L81.5548 4.88031ZM51.9898 16.7305C51.6665 16.7806 49.9277 18.3699 46.8582 21.4208L42.2154 26.0355L39.5915 23.4558C37.0175 20.9254 36.9508 20.8761 36.0959 20.8761C34.6872 20.8761 33.7569 22.0276 34.0814 23.3701C34.2566 24.095 40.9369 30.771 41.6714 30.9552C41.9672 31.0294 42.4515 31.0307 42.7473 30.958C43.4004 30.7974 54.0093 20.2984 54.3502 19.4749C54.6334 18.7915 54.4457 17.7095 53.969 17.2782C53.5234 16.8751 52.6386 16.6302 51.9898 16.7305ZM19.51 20.676C21.6305 21.7579 22.0338 24.6204 20.3089 26.3453C19.1867 27.4675 18.4311 27.5731 12.0855 27.4951C7.52311 27.4389 6.61705 27.3797 6.11942 27.1041C5.34402 26.6749 4.53146 25.8007 4.27365 25.1178C3.63186 23.4192 4.58447 21.1601 6.21742 20.5089C6.50242 20.3953 9.21631 20.3088 12.7291 20.3016C18.3567 20.29 18.8015 20.3147 19.51 20.676ZM62.7332 22.4259C62.2849 22.8744 62.1615 23.1729 62.1615 23.8102C62.1615 24.4475 62.2849 24.746 62.7332 25.1945L63.305 25.7663H69.8362C76.1966 25.7663 76.3787 25.7555 76.8073 25.3563C77.7944 24.4365 77.7926 23.1813 76.8028 22.3484L76.2154 21.8541H69.7601H63.305L62.7332 22.4259ZM51.9898 42.9422C51.6665 42.9922 49.9277 44.5816 46.8582 47.6325L42.2154 52.2471L39.5915 49.6674C36.9848 47.1047 36.9613 47.0877 36.0586 47.0877C35.0428 47.0877 34.3071 47.6264 34.0782 48.5379C33.8181 49.5747 34.1815 50.0831 37.6759 53.5706C41.4339 57.3214 41.8103 57.5598 43.0448 56.974C43.9886 56.5262 54.2716 46.149 54.4406 45.4739C54.8128 43.9857 53.5666 42.6982 51.9898 42.9422ZM19.4208 46.8117C19.8512 47.0365 20.466 47.5922 20.7868 48.0464C21.2746 48.7369 21.3705 49.0614 21.3705 50.0218C21.3705 50.9823 21.2746 51.3068 20.7868 51.9973C20.466 52.4515 19.8512 53.0072 19.4208 53.232C18.6771 53.6205 18.343 53.6406 12.6723 53.6406C5.9598 53.6406 6.02044 53.6523 4.77089 52.1064C4.22573 51.432 4.16333 51.2194 4.16333 50.0373C4.16333 48.894 4.23609 48.6244 4.71436 47.9977C5.39547 47.1045 6.03746 46.673 6.96758 46.4831C7.36173 46.4027 10.149 46.3518 13.1614 46.37C18.3006 46.4011 18.6867 46.4283 19.4208 46.8117ZM62.7332 48.6375C62.2849 49.086 62.1615 49.3845 62.1615 50.0218C62.1615 50.6591 62.2849 50.9576 62.7332 51.4062L63.305 51.9779H69.772H76.2391L76.8734 51.4111C77.3985 50.942 77.508 50.7026 77.508 50.0218C77.508 49.3411 77.3985 49.1017 76.8734 48.6326L76.2391 48.0658H69.772H63.305L62.7332 48.6375ZM51.7942 69.2121C51.5252 69.3171 49.2589 71.4452 46.7578 73.9409L42.2105 78.4787L39.7159 76.0079C38.3439 74.649 37.0139 73.4316 36.7606 73.3027C35.6337 72.7286 33.9937 73.8195 33.9937 75.1433C33.9937 76.0375 34.6387 76.8401 38.0473 80.1885C41.0308 83.1191 41.682 83.5749 42.5974 83.3738C42.9331 83.3003 45.1071 81.2624 48.8229 77.5388C54.1208 72.2298 54.5327 71.7677 54.5327 71.1345C54.5327 70.3212 54.1292 69.6876 53.3569 69.2882C52.7126 68.955 52.4802 68.9437 51.7942 69.2121ZM18.6807 72.7436C19.8332 73.0337 20.9816 74.1502 21.2844 75.2752C21.7075 76.8467 20.9282 78.6442 19.51 79.3677C18.8037 79.7278 18.343 79.7544 12.7907 79.7544C9.043 79.7544 6.62507 79.677 6.27884 79.5457C4.54046 78.8871 3.59019 76.5762 4.32979 74.8059C4.65607 74.025 5.84615 72.9541 6.56306 72.796C6.85706 72.7313 7.18549 72.6489 7.29307 72.6129C7.85467 72.4258 17.8744 72.5406 18.6807 72.7436ZM62.7332 74.8492C62.2849 75.2977 62.1615 75.5962 62.1615 76.2335C62.1615 76.8708 62.2849 77.1693 62.7332 77.6178L63.305 78.1896H69.7601H76.2154L76.8028 77.6953C77.7926 76.8624 77.7944 75.6071 76.8073 74.6874C76.3787 74.2881 76.1966 74.2774 69.8362 74.2774H63.305L62.7332 74.8492Z" fill="#0066FF"/>
<path fill-rule="evenodd" clip-rule="evenodd" d="M20.3267 0.245349C17.7009 0.819071 14.9351 2.58249 13.3464 4.69605C11.334 7.37315 10.7162 9.4292 10.7162 13.4511V16.1353L8.20559 16.2133C5.84928 16.2869 5.61573 16.3305 4.40901 16.9246C-1.45046 19.8092 -1.42249 27.9374 4.45674 30.7342C5.63372 31.2942 5.91364 31.3443 8.22222 31.4086L10.7162 31.4783V36.916V42.3538L8.22222 42.4234C5.91872 42.4876 5.63098 42.5388 4.45615 43.0947C1.34342 44.5675 -0.487674 47.9987 0.113824 51.2321C0.593849 53.8133 2.14484 55.8555 4.45615 56.9489C5.63098 57.5049 5.91872 57.5561 8.22222 57.6203L10.7162 57.6899V63.1277V68.5654L8.22222 68.635C5.91364 68.6994 5.63372 68.7495 4.45674 69.3095C-1.42249 72.1063 -1.45046 80.2345 4.40901 83.1191C5.61397 83.7122 5.85144 83.757 8.18584 83.8296L10.6769 83.9072L10.763 87.0634C10.8318 89.592 10.932 90.4723 11.2665 91.491C12.5047 95.2622 15.6419 98.3688 19.4208 99.5661L20.7901 100H50.5227H80.2553L81.6936 99.5262C85.4302 98.2957 88.2734 95.4912 89.6328 91.6952L90.2314 90.0239V50.0218V10.0197L89.6328 8.34846C88.2945 4.61115 85.5151 1.83507 81.7932 0.518615L80.4509 0.0436755L51.0117 0.00846582C26.4927 -0.0208756 21.3644 0.0186375 20.3267 0.245349ZM81.5548 4.88031C83.3575 5.77131 84.6348 7.0725 85.5006 8.90028L86.1236 10.2154V50.032V89.8487L85.3948 91.3232C84.5038 93.1261 83.2026 94.4034 81.3748 95.2692L80.0597 95.8922L50.9237 95.9437C18.7935 96.0004 20.7127 96.0688 18.7065 94.7925C17.4139 93.97 16.0564 92.4467 15.4539 91.1428C14.9786 90.1137 14.931 89.7765 14.8633 86.9431L14.7896 83.8622H16.8433C20.0607 83.8622 22.0895 83.0336 23.7082 81.0584C24.9742 79.5133 25.2891 78.552 25.2891 76.2335C25.2891 74.4145 25.2291 74.0517 24.7649 73.0611C24.0331 71.4997 22.6592 70.1002 21.1088 69.3365C19.896 68.7393 19.6767 68.6986 17.3227 68.6341L14.824 68.5654V63.1277V57.6899L17.3227 57.6213C19.6767 57.5567 19.896 57.516 21.1088 56.9188C22.6592 56.1552 24.0331 54.7556 24.7649 53.1942C25.2291 52.2037 25.2891 51.8408 25.2891 50.0218C25.2891 48.2029 25.2291 47.84 24.7649 46.8494C24.0331 45.2881 22.6592 43.8885 21.1088 43.1249C19.896 42.5277 19.6767 42.487 17.3227 42.4224L14.824 42.3538V36.916V31.4783L17.3181 31.4065C19.522 31.3433 19.9421 31.2743 20.9306 30.8138C22.4898 30.0873 23.8905 28.7133 24.6552 27.1602C25.2482 25.9553 25.2891 25.7397 25.2891 23.8143C25.2891 21.4913 24.9748 20.5312 23.7082 18.9853C22.0895 17.01 20.0607 16.1814 16.8433 16.1814H14.7896L14.8633 13.1006C14.931 10.2672 14.9786 9.92996 15.4539 8.90086C16.3981 6.85733 18.3696 5.10526 20.4967 4.41906C21.5096 4.0924 23.2865 4.0744 50.8263 4.11176L80.0801 4.15147L81.5548 4.88031ZM51.9898 16.7305C51.6665 16.7806 49.9277 18.3699 46.8582 21.4208L42.2154 26.0355L39.5915 23.4558C37.0175 20.9254 36.9508 20.8761 36.0959 20.8761C34.6872 20.8761 33.7569 22.0276 34.0814 23.3701C34.2566 24.095 40.9369 30.771 41.6714 30.9552C41.9672 31.0294 42.4515 31.0307 42.7473 30.958C43.4004 30.7974 54.0093 20.2984 54.3502 19.4749C54.6334 18.7915 54.4457 17.7095 53.969 17.2782C53.5234 16.8751 52.6386 16.6302 51.9898 16.7305ZM19.51 20.676C21.6305 21.7579 22.0338 24.6204 20.3089 26.3453C19.1867 27.4675 18.4311 27.5731 12.0855 27.4951C7.52311 27.4389 6.61705 27.3797 6.11942 27.1041C5.34402 26.6749 4.53146 25.8007 4.27365 25.1178C3.63186 23.4192 4.58447 21.1601 6.21742 20.5089C6.50242 20.3953 9.21631 20.3088 12.7291 20.3016C18.3567 20.29 18.8015 20.3147 19.51 20.676ZM62.7332 22.4259C62.2849 22.8744 62.1615 23.1729 62.1615 23.8102C62.1615 24.4475 62.2849 24.746 62.7332 25.1945L63.305 25.7663H69.8362C76.1966 25.7663 76.3787 25.7555 76.8073 25.3563C77.7944 24.4365 77.7926 23.1813 76.8028 22.3484L76.2154 21.8541H69.7601H63.305L62.7332 22.4259ZM51.9898 42.9422C51.6665 42.9922 49.9277 44.5816 46.8582 47.6325L42.2154 52.2471L39.5915 49.6674C36.9848 47.1047 36.9613 47.0877 36.0586 47.0877C35.0428 47.0877 34.3071 47.6264 34.0782 48.5379C33.8181 49.5747 34.1815 50.0831 37.6759 53.5706C41.4339 57.3214 41.8103 57.5598 43.0448 56.974C43.9886 56.5262 54.2716 46.149 54.4406 45.4739C54.8128 43.9857 53.5666 42.6982 51.9898 42.9422ZM19.4208 46.8117C19.8512 47.0365 20.466 47.5922 20.7868 48.0464C21.2746 48.7369 21.3705 49.0614 21.3705 50.0218C21.3705 50.9823 21.2746 51.3068 20.7868 51.9973C20.466 52.4515 19.8512 53.0072 19.4208 53.232C18.6771 53.6205 18.343 53.6406 12.6723 53.6406C5.9598 53.6406 6.02044 53.6523 4.77089 52.1064C4.22573 51.432 4.16333 51.2194 4.16333 50.0373C4.16333 48.894 4.23609 48.6244 4.71436 47.9977C5.39547 47.1045 6.03746 46.673 6.96758 46.4831C7.36173 46.4027 10.149 46.3518 13.1614 46.37C18.3006 46.4011 18.6867 46.4283 19.4208 46.8117ZM62.7332 48.6375C62.2849 49.086 62.1615 49.3845 62.1615 50.0218C62.1615 50.6591 62.2849 50.9576 62.7332 51.4062L63.305 51.9779H69.772H76.2391L76.8734 51.4111C77.3985 50.942 77.508 50.7026 77.508 50.0218C77.508 49.3411 77.3985 49.1017 76.8734 48.6326L76.2391 48.0658H69.772H63.305L62.7332 48.6375ZM51.7942 69.2121C51.5252 69.3171 49.2589 71.4452 46.7578 73.9409L42.2105 78.4787L39.7159 76.0079C38.3439 74.649 37.0139 73.4316 36.7606 73.3027C35.6337 72.7286 33.9937 73.8195 33.9937 75.1433C33.9937 76.0375 34.6387 76.8401 38.0473 80.1885C41.0308 83.1191 41.682 83.5749 42.5974 83.3738C42.9331 83.3003 45.1071 81.2624 48.8229 77.5388C54.1208 72.2298 54.5327 71.7677 54.5327 71.1345C54.5327 70.3212 54.1292 69.6876 53.3569 69.2882C52.7126 68.955 52.4802 68.9437 51.7942 69.2121ZM18.6807 72.7436C19.8332 73.0337 20.9816 74.1502 21.2844 75.2752C21.7075 76.8467 20.9282 78.6442 19.51 79.3677C18.8037 79.7278 18.343 79.7544 12.7907 79.7544C9.043 79.7544 6.62507 79.677 6.27884 79.5457C4.54046 78.8871 3.59019 76.5762 4.32979 74.8059C4.65607 74.025 5.84615 72.9541 6.56306 72.796C6.85706 72.7313 7.18549 72.6489 7.29307 72.6129C7.85467 72.4258 17.8744 72.5406 18.6807 72.7436ZM62.7332 74.8492C62.2849 75.2977 62.1615 75.5962 62.1615 76.2335C62.1615 76.8708 62.2849 77.1693 62.7332 77.6178L63.305 78.1896H69.7601H76.2154L76.8028 77.6953C77.7926 76.8624 77.7944 75.6071 76.8073 74.6874C76.3787 74.2881 76.1966 74.2774 69.8362 74.2774H63.305L62.7332 74.8492Z" fill="url(#paint0_radial_1464_2289)" fill-opacity="0.7"/>
<path fill-rule="evenodd" clip-rule="evenodd" d="M20.3267 0.245349C17.7009 0.819071 14.9351 2.58249 13.3464 4.69605C11.334 7.37315 10.7162 9.4292 10.7162 13.4511V16.1353L8.20559 16.2133C5.84928 16.2869 5.61573 16.3305 4.40901 16.9246C-1.45046 19.8092 -1.42249 27.9374 4.45674 30.7342C5.63372 31.2942 5.91364 31.3443 8.22222 31.4086L10.7162 31.4783V36.916V42.3538L8.22222 42.4234C5.91872 42.4876 5.63098 42.5388 4.45615 43.0947C1.34342 44.5675 -0.487674 47.9987 0.113824 51.2321C0.593849 53.8133 2.14484 55.8555 4.45615 56.9489C5.63098 57.5049 5.91872 57.5561 8.22222 57.6203L10.7162 57.6899V63.1277V68.5654L8.22222 68.635C5.91364 68.6994 5.63372 68.7495 4.45674 69.3095C-1.42249 72.1063 -1.45046 80.2345 4.40901 83.1191C5.61397 83.7122 5.85144 83.757 8.18584 83.8296L10.6769 83.9072L10.763 87.0634C10.8318 89.592 10.932 90.4723 11.2665 91.491C12.5047 95.2622 15.6419 98.3688 19.4208 99.5661L20.7901 100H50.5227H80.2553L81.6936 99.5262C85.4302 98.2957 88.2734 95.4912 89.6328 91.6952L90.2314 90.0239V50.0218V10.0197L89.6328 8.34846C88.2945 4.61115 85.5151 1.83507 81.7932 0.518615L80.4509 0.0436755L51.0117 0.00846582C26.4927 -0.0208756 21.3644 0.0186375 20.3267 0.245349ZM81.5548 4.88031C83.3575 5.77131 84.6348 7.0725 85.5006 8.90028L86.1236 10.2154V50.032V89.8487L85.3948 91.3232C84.5038 93.1261 83.2026 94.4034 81.3748 95.2692L80.0597 95.8922L50.9237 95.9437C18.7935 96.0004 20.7127 96.0688 18.7065 94.7925C17.4139 93.97 16.0564 92.4467 15.4539 91.1428C14.9786 90.1137 14.931 89.7765 14.8633 86.9431L14.7896 83.8622H16.8433C20.0607 83.8622 22.0895 83.0336 23.7082 81.0584C24.9742 79.5133 25.2891 78.552 25.2891 76.2335C25.2891 74.4145 25.2291 74.0517 24.7649 73.0611C24.0331 71.4997 22.6592 70.1002 21.1088 69.3365C19.896 68.7393 19.6767 68.6986 17.3227 68.6341L14.824 68.5654V63.1277V57.6899L17.3227 57.6213C19.6767 57.5567 19.896 57.516 21.1088 56.9188C22.6592 56.1552 24.0331 54.7556 24.7649 53.1942C25.2291 52.2037 25.2891 51.8408 25.2891 50.0218C25.2891 48.2029 25.2291 47.84 24.7649 46.8494C24.0331 45.2881 22.6592 43.8885 21.1088 43.1249C19.896 42.5277 19.6767 42.487 17.3227 42.4224L14.824 42.3538V36.916V31.4783L17.3181 31.4065C19.522 31.3433 19.9421 31.2743 20.9306 30.8138C22.4898 30.0873 23.8905 28.7133 24.6552 27.1602C25.2482 25.9553 25.2891 25.7397 25.2891 23.8143C25.2891 21.4913 24.9748 20.5312 23.7082 18.9853C22.0895 17.01 20.0607 16.1814 16.8433 16.1814H14.7896L14.8633 13.1006C14.931 10.2672 14.9786 9.92996 15.4539 8.90086C16.3981 6.85733 18.3696 5.10526 20.4967 4.41906C21.5096 4.0924 23.2865 4.0744 50.8263 4.11176L80.0801 4.15147L81.5548 4.88031ZM51.9898 16.7305C51.6665 16.7806 49.9277 18.3699 46.8582 21.4208L42.2154 26.0355L39.5915 23.4558C37.0175 20.9254 36.9508 20.8761 36.0959 20.8761C34.6872 20.8761 33.7569 22.0276 34.0814 23.3701C34.2566 24.095 40.9369 30.771 41.6714 30.9552C41.9672 31.0294 42.4515 31.0307 42.7473 30.958C43.4004 30.7974 54.0093 20.2984 54.3502 19.4749C54.6334 18.7915 54.4457 17.7095 53.969 17.2782C53.5234 16.8751 52.6386 16.6302 51.9898 16.7305ZM19.51 20.676C21.6305 21.7579 22.0338 24.6204 20.3089 26.3453C19.1867 27.4675 18.4311 27.5731 12.0855 27.4951C7.52311 27.4389 6.61705 27.3797 6.11942 27.1041C5.34402 26.6749 4.53146 25.8007 4.27365 25.1178C3.63186 23.4192 4.58447 21.1601 6.21742 20.5089C6.50242 20.3953 9.21631 20.3088 12.7291 20.3016C18.3567 20.29 18.8015 20.3147 19.51 20.676ZM62.7332 22.4259C62.2849 22.8744 62.1615 23.1729 62.1615 23.8102C62.1615 24.4475 62.2849 24.746 62.7332 25.1945L63.305 25.7663H69.8362C76.1966 25.7663 76.3787 25.7555 76.8073 25.3563C77.7944 24.4365 77.7926 23.1813 76.8028 22.3484L76.2154 21.8541H69.7601H63.305L62.7332 22.4259ZM51.9898 42.9422C51.6665 42.9922 49.9277 44.5816 46.8582 47.6325L42.2154 52.2471L39.5915 49.6674C36.9848 47.1047 36.9613 47.0877 36.0586 47.0877C35.0428 47.0877 34.3071 47.6264 34.0782 48.5379C33.8181 49.5747 34.1815 50.0831 37.6759 53.5706C41.4339 57.3214 41.8103 57.5598 43.0448 56.974C43.9886 56.5262 54.2716 46.149 54.4406 45.4739C54.8128 43.9857 53.5666 42.6982 51.9898 42.9422ZM19.4208 46.8117C19.8512 47.0365 20.466 47.5922 20.7868 48.0464C21.2746 48.7369 21.3705 49.0614 21.3705 50.0218C21.3705 50.9823 21.2746 51.3068 20.7868 51.9973C20.466 52.4515 19.8512 53.0072 19.4208 53.232C18.6771 53.6205 18.343 53.6406 12.6723 53.6406C5.9598 53.6406 6.02044 53.6523 4.77089 52.1064C4.22573 51.432 4.16333 51.2194 4.16333 50.0373C4.16333 48.894 4.23609 48.6244 4.71436 47.9977C5.39547 47.1045 6.03746 46.673 6.96758 46.4831C7.36173 46.4027 10.149 46.3518 13.1614 46.37C18.3006 46.4011 18.6867 46.4283 19.4208 46.8117ZM62.7332 48.6375C62.2849 49.086 62.1615 49.3845 62.1615 50.0218C62.1615 50.6591 62.2849 50.9576 62.7332 51.4062L63.305 51.9779H69.772H76.2391L76.8734 51.4111C77.3985 50.942 77.508 50.7026 77.508 50.0218C77.508 49.3411 77.3985 49.1017 76.8734 48.6326L76.2391 48.0658H69.772H63.305L62.7332 48.6375ZM51.7942 69.2121C51.5252 69.3171 49.2589 71.4452 46.7578 73.9409L42.2105 78.4787L39.7159 76.0079C38.3439 74.649 37.0139 73.4316 36.7606 73.3027C35.6337 72.7286 33.9937 73.8195 33.9937 75.1433C33.9937 76.0375 34.6387 76.8401 38.0473 80.1885C41.0308 83.1191 41.682 83.5749 42.5974 83.3738C42.9331 83.3003 45.1071 81.2624 48.8229 77.5388C54.1208 72.2298 54.5327 71.7677 54.5327 71.1345C54.5327 70.3212 54.1292 69.6876 53.3569 69.2882C52.7126 68.955 52.4802 68.9437 51.7942 69.2121ZM18.6807 72.7436C19.8332 73.0337 20.9816 74.1502 21.2844 75.2752C21.7075 76.8467 20.9282 78.6442 19.51 79.3677C18.8037 79.7278 18.343 79.7544 12.7907 79.7544C9.043 79.7544 6.62507 79.677 6.27884 79.5457C4.54046 78.8871 3.59019 76.5762 4.32979 74.8059C4.65607 74.025 5.84615 72.9541 6.56306 72.796C6.85706 72.7313 7.18549 72.6489 7.29307 72.6129C7.85467 72.4258 17.8744 72.5406 18.6807 72.7436ZM62.7332 74.8492C62.2849 75.2977 62.1615 75.5962 62.1615 76.2335C62.1615 76.8708 62.2849 77.1693 62.7332 77.6178L63.305 78.1896H69.7601H76.2154L76.8028 77.6953C77.7926 76.8624 77.7944 75.6071 76.8073 74.6874C76.3787 74.2881 76.1966 74.2774 69.8362 74.2774H63.305L62.7332 74.8492Z" fill="url(#paint1_radial_1464_2289)"/>
<defs>
<radialGradient id="paint0_radial_1464_2289" cx="0" cy="0" r="1" gradientUnits="userSpaceOnUse" gradientTransform="translate(23.8111 20.8333) rotate(53.8881) scale(80.8026 78.6896)">
<stop stop-color="white" stop-opacity="0.59"/>
<stop offset="0.697917" stop-color="white" stop-opacity="0"/>
<stop offset="1" stop-color="white" stop-opacity="0"/>
</radialGradient>
<radialGradient id="paint1_radial_1464_2289" cx="0" cy="0" r="1" gradientUnits="userSpaceOnUse" gradientTransform="translate(77.8709 87.5) rotate(-93.3128) scale(85.5596 86.1101)">
<stop stop-opacity="0.23"/>
<stop offset="0.861815" stop-opacity="0"/>
</radialGradient>
</defs>
</svg>
