<svg width="114" height="100" viewBox="0 0 114 100" fill="none" xmlns="http://www.w3.org/2000/svg">
<path fill-rule="evenodd" clip-rule="evenodd" d="M9.76388 0.330321C7.96202 0.766206 5.42453 2.1559 4.0916 3.4365C2.57331 4.89559 1.21488 6.99321 0.580345 8.85847L0.0848193 10.3156L0.0258439 49.4404C-0.0322446 87.9309 -0.0260367 88.5936 0.410071 90.3183C1.29647 93.8238 3.65992 96.8683 6.75791 98.4953C9.8468 100.117 5.88037 99.998 56.7322 99.998C107.584 99.998 103.618 100.117 106.707 98.4953C109.805 96.8683 112.168 93.8238 113.054 90.3183C113.49 88.5936 113.497 87.9309 113.439 49.4404L113.38 10.3156L112.884 8.85847C112.248 6.98722 110.89 4.89448 109.358 3.42209C107.989 2.1069 105.172 0.620985 103.336 0.24607C101.485 -0.13217 11.3398 -0.0510239 9.76388 0.330321ZM103.767 4.39186C106.238 5.39112 108.138 7.2923 109.077 9.70541C109.529 10.8678 109.581 11.4563 109.672 16.3572L109.772 21.7337H56.7573H3.74307L3.7475 17.3549C3.74994 14.9467 3.84195 12.3533 3.95214 11.5922C4.47782 7.95743 7.0397 5.09668 10.6394 4.12448C11.671 3.84601 18.071 3.80743 57.1756 3.84379L102.516 3.88592L103.767 4.39186ZM11.6298 7.32644C10.2339 7.87141 9.00008 9.07863 8.39037 10.4956C7.68089 12.1447 7.82744 14.3962 8.74067 15.8799C10.0257 17.9679 12.6175 19.1118 14.9615 18.6251C17.8231 18.0311 19.7094 15.661 19.7041 12.6659C19.697 8.61303 15.4789 5.82346 11.6298 7.32644ZM25.793 7.17302C22.3899 8.48422 20.7796 12.1037 22.2245 15.1932C23.2688 17.4259 25.2241 18.7085 27.5771 18.7045C30.9221 18.6989 33.5081 16.1632 33.5323 12.8652C33.5445 11.2106 33.1234 10.0981 32.0375 8.91501C30.3995 7.13067 27.7913 6.40301 25.793 7.17302ZM39.1061 7.38985C36.7988 8.49398 35.5822 10.4051 35.5966 12.9021C35.6137 15.8074 37.4499 18.0099 40.3586 18.6136C42.4112 19.0397 44.2164 18.4684 45.6777 16.9297C46.9665 15.5726 47.2955 14.75 47.3028 12.8652C47.3106 10.9468 46.9022 9.90828 45.6466 8.65272C43.9168 6.92292 41.1842 6.39547 39.1061 7.38985ZM14.7089 10.9913C16.7378 11.954 16.0226 14.8607 13.7569 14.8607C11.5311 14.8607 10.9738 11.7104 13.055 10.8938C13.8132 10.5962 13.8853 10.6005 14.7089 10.9913ZM28.4533 10.9619C29.8179 11.5321 30.1481 13.2269 29.0989 14.2762C28.0001 15.375 26.193 14.9358 25.703 13.4508C25.3427 12.3593 25.9147 11.2128 27.0228 10.8053C27.5407 10.6151 27.652 10.6271 28.4533 10.9619ZM42.8453 11.2751C43.4973 11.8598 43.6958 12.6125 43.4191 13.4508C43.1082 14.3928 42.4431 14.8607 41.415 14.8607C39.2549 14.8607 38.639 11.8423 40.6202 10.9663C41.4152 10.6149 42.2358 10.7286 42.8453 11.2751ZM109.717 56.3762C109.715 73.4126 109.624 87.6427 109.512 88.4118C109.124 91.0943 107.669 93.3385 105.353 94.8239C103.014 96.3243 106.317 96.2289 56.7322 96.2289C7.14768 96.2289 10.4501 96.3243 8.11123 94.8239C5.7959 93.3385 4.34014 91.0943 3.95214 88.4118C3.84084 87.6427 3.74994 73.4126 3.7475 56.3762L3.74307 25.7245H56.7322H109.721L109.717 56.3762ZM15.4131 39.8334L14.8287 40.4181V61.966V83.514L15.4009 84.0516L15.9729 84.5891H34.1546H52.3363L52.8716 83.9669L53.4065 83.3448V61.8815V40.4181L52.8221 39.8334L52.2375 39.249H34.1176H15.9978L15.4131 39.8334ZM64.7928 39.7744C63.9365 40.511 63.9365 41.7561 64.7928 42.4926L65.4038 43.0181H81.1429H96.8823L97.4263 42.4738C97.8021 42.0982 97.9706 41.6831 97.9706 41.1335C97.9706 40.5839 97.8021 40.1689 97.4263 39.7933L96.8823 39.249H81.1429H65.4038L64.7928 39.7744ZM49.5833 61.919L49.5266 80.82L34.0622 80.8769L18.5978 80.9339V61.976V43.0181H34.1189H49.6399L49.5833 61.919ZM65.2506 53.3066C63.631 54.0192 63.8164 56.2634 65.5362 56.7638C66.1228 56.9345 70.9732 56.9881 81.6016 56.9418L96.8266 56.8751L97.3986 56.3376C98.1868 55.5969 98.1868 54.3841 97.3986 53.6434L96.8266 53.106L81.3799 53.0561C68.7867 53.0155 65.8071 53.0618 65.2506 53.3066ZM64.7928 67.4884C63.9897 68.179 63.9523 69.3672 64.7081 70.1718L65.2346 70.7321H81.0183C96.6508 70.7321 96.808 70.7276 97.3864 70.2725C97.9724 69.8115 98.1629 68.8302 97.833 67.9706C97.4485 66.9687 97.3532 66.963 80.9221 66.963H65.4038L64.7928 67.4884ZM64.8792 81.2401C64.2347 81.7294 63.9656 82.8032 64.3081 83.5177C64.8843 84.7194 64.5103 84.693 81.0762 84.6966C97.3436 84.7001 97.4485 84.6937 97.833 83.6922C98.1345 82.9065 97.9673 81.8917 97.4576 81.4128L96.9443 80.9308L81.1063 80.9379C68.2686 80.9437 65.1945 81.0009 64.8792 81.2401Z" fill="#0066FF"/>
<path fill-rule="evenodd" clip-rule="evenodd" d="M9.76388 0.330321C7.96202 0.766206 5.42453 2.1559 4.0916 3.4365C2.57331 4.89559 1.21488 6.99321 0.580345 8.85847L0.0848193 10.3156L0.0258439 49.4404C-0.0322446 87.9309 -0.0260367 88.5936 0.410071 90.3183C1.29647 93.8238 3.65992 96.8683 6.75791 98.4953C9.8468 100.117 5.88037 99.998 56.7322 99.998C107.584 99.998 103.618 100.117 106.707 98.4953C109.805 96.8683 112.168 93.8238 113.054 90.3183C113.49 88.5936 113.497 87.9309 113.439 49.4404L113.38 10.3156L112.884 8.85847C112.248 6.98722 110.89 4.89448 109.358 3.42209C107.989 2.1069 105.172 0.620985 103.336 0.24607C101.485 -0.13217 11.3398 -0.0510239 9.76388 0.330321ZM103.767 4.39186C106.238 5.39112 108.138 7.2923 109.077 9.70541C109.529 10.8678 109.581 11.4563 109.672 16.3572L109.772 21.7337H56.7573H3.74307L3.7475 17.3549C3.74994 14.9467 3.84195 12.3533 3.95214 11.5922C4.47782 7.95743 7.0397 5.09668 10.6394 4.12448C11.671 3.84601 18.071 3.80743 57.1756 3.84379L102.516 3.88592L103.767 4.39186ZM11.6298 7.32644C10.2339 7.87141 9.00008 9.07863 8.39037 10.4956C7.68089 12.1447 7.82744 14.3962 8.74067 15.8799C10.0257 17.9679 12.6175 19.1118 14.9615 18.6251C17.8231 18.0311 19.7094 15.661 19.7041 12.6659C19.697 8.61303 15.4789 5.82346 11.6298 7.32644ZM25.793 7.17302C22.3899 8.48422 20.7796 12.1037 22.2245 15.1932C23.2688 17.4259 25.2241 18.7085 27.5771 18.7045C30.9221 18.6989 33.5081 16.1632 33.5323 12.8652C33.5445 11.2106 33.1234 10.0981 32.0375 8.91501C30.3995 7.13067 27.7913 6.40301 25.793 7.17302ZM39.1061 7.38985C36.7988 8.49398 35.5822 10.4051 35.5966 12.9021C35.6137 15.8074 37.4499 18.0099 40.3586 18.6136C42.4112 19.0397 44.2164 18.4684 45.6777 16.9297C46.9665 15.5726 47.2955 14.75 47.3028 12.8652C47.3106 10.9468 46.9022 9.90828 45.6466 8.65272C43.9168 6.92292 41.1842 6.39547 39.1061 7.38985ZM14.7089 10.9913C16.7378 11.954 16.0226 14.8607 13.7569 14.8607C11.5311 14.8607 10.9738 11.7104 13.055 10.8938C13.8132 10.5962 13.8853 10.6005 14.7089 10.9913ZM28.4533 10.9619C29.8179 11.5321 30.1481 13.2269 29.0989 14.2762C28.0001 15.375 26.193 14.9358 25.703 13.4508C25.3427 12.3593 25.9147 11.2128 27.0228 10.8053C27.5407 10.6151 27.652 10.6271 28.4533 10.9619ZM42.8453 11.2751C43.4973 11.8598 43.6958 12.6125 43.4191 13.4508C43.1082 14.3928 42.4431 14.8607 41.415 14.8607C39.2549 14.8607 38.639 11.8423 40.6202 10.9663C41.4152 10.6149 42.2358 10.7286 42.8453 11.2751ZM109.717 56.3762C109.715 73.4126 109.624 87.6427 109.512 88.4118C109.124 91.0943 107.669 93.3385 105.353 94.8239C103.014 96.3243 106.317 96.2289 56.7322 96.2289C7.14768 96.2289 10.4501 96.3243 8.11123 94.8239C5.7959 93.3385 4.34014 91.0943 3.95214 88.4118C3.84084 87.6427 3.74994 73.4126 3.7475 56.3762L3.74307 25.7245H56.7322H109.721L109.717 56.3762ZM15.4131 39.8334L14.8287 40.4181V61.966V83.514L15.4009 84.0516L15.9729 84.5891H34.1546H52.3363L52.8716 83.9669L53.4065 83.3448V61.8815V40.4181L52.8221 39.8334L52.2375 39.249H34.1176H15.9978L15.4131 39.8334ZM64.7928 39.7744C63.9365 40.511 63.9365 41.7561 64.7928 42.4926L65.4038 43.0181H81.1429H96.8823L97.4263 42.4738C97.8021 42.0982 97.9706 41.6831 97.9706 41.1335C97.9706 40.5839 97.8021 40.1689 97.4263 39.7933L96.8823 39.249H81.1429H65.4038L64.7928 39.7744ZM49.5833 61.919L49.5266 80.82L34.0622 80.8769L18.5978 80.9339V61.976V43.0181H34.1189H49.6399L49.5833 61.919ZM65.2506 53.3066C63.631 54.0192 63.8164 56.2634 65.5362 56.7638C66.1228 56.9345 70.9732 56.9881 81.6016 56.9418L96.8266 56.8751L97.3986 56.3376C98.1868 55.5969 98.1868 54.3841 97.3986 53.6434L96.8266 53.106L81.3799 53.0561C68.7867 53.0155 65.8071 53.0618 65.2506 53.3066ZM64.7928 67.4884C63.9897 68.179 63.9523 69.3672 64.7081 70.1718L65.2346 70.7321H81.0183C96.6508 70.7321 96.808 70.7276 97.3864 70.2725C97.9724 69.8115 98.1629 68.8302 97.833 67.9706C97.4485 66.9687 97.3532 66.963 80.9221 66.963H65.4038L64.7928 67.4884ZM64.8792 81.2401C64.2347 81.7294 63.9656 82.8032 64.3081 83.5177C64.8843 84.7194 64.5103 84.693 81.0762 84.6966C97.3436 84.7001 97.4485 84.6937 97.833 83.6922C98.1345 82.9065 97.9673 81.8917 97.4576 81.4128L96.9443 80.9308L81.1063 80.9379C68.2686 80.9437 65.1945 81.0009 64.8792 81.2401Z" fill="url(#paint0_radial_1464_636)" fill-opacity="0.7"/>
<path fill-rule="evenodd" clip-rule="evenodd" d="M9.76388 0.330321C7.96202 0.766206 5.42453 2.1559 4.0916 3.4365C2.57331 4.89559 1.21488 6.99321 0.580345 8.85847L0.0848193 10.3156L0.0258439 49.4404C-0.0322446 87.9309 -0.0260367 88.5936 0.410071 90.3183C1.29647 93.8238 3.65992 96.8683 6.75791 98.4953C9.8468 100.117 5.88037 99.998 56.7322 99.998C107.584 99.998 103.618 100.117 106.707 98.4953C109.805 96.8683 112.168 93.8238 113.054 90.3183C113.49 88.5936 113.497 87.9309 113.439 49.4404L113.38 10.3156L112.884 8.85847C112.248 6.98722 110.89 4.89448 109.358 3.42209C107.989 2.1069 105.172 0.620985 103.336 0.24607C101.485 -0.13217 11.3398 -0.0510239 9.76388 0.330321ZM103.767 4.39186C106.238 5.39112 108.138 7.2923 109.077 9.70541C109.529 10.8678 109.581 11.4563 109.672 16.3572L109.772 21.7337H56.7573H3.74307L3.7475 17.3549C3.74994 14.9467 3.84195 12.3533 3.95214 11.5922C4.47782 7.95743 7.0397 5.09668 10.6394 4.12448C11.671 3.84601 18.071 3.80743 57.1756 3.84379L102.516 3.88592L103.767 4.39186ZM11.6298 7.32644C10.2339 7.87141 9.00008 9.07863 8.39037 10.4956C7.68089 12.1447 7.82744 14.3962 8.74067 15.8799C10.0257 17.9679 12.6175 19.1118 14.9615 18.6251C17.8231 18.0311 19.7094 15.661 19.7041 12.6659C19.697 8.61303 15.4789 5.82346 11.6298 7.32644ZM25.793 7.17302C22.3899 8.48422 20.7796 12.1037 22.2245 15.1932C23.2688 17.4259 25.2241 18.7085 27.5771 18.7045C30.9221 18.6989 33.5081 16.1632 33.5323 12.8652C33.5445 11.2106 33.1234 10.0981 32.0375 8.91501C30.3995 7.13067 27.7913 6.40301 25.793 7.17302ZM39.1061 7.38985C36.7988 8.49398 35.5822 10.4051 35.5966 12.9021C35.6137 15.8074 37.4499 18.0099 40.3586 18.6136C42.4112 19.0397 44.2164 18.4684 45.6777 16.9297C46.9665 15.5726 47.2955 14.75 47.3028 12.8652C47.3106 10.9468 46.9022 9.90828 45.6466 8.65272C43.9168 6.92292 41.1842 6.39547 39.1061 7.38985ZM14.7089 10.9913C16.7378 11.954 16.0226 14.8607 13.7569 14.8607C11.5311 14.8607 10.9738 11.7104 13.055 10.8938C13.8132 10.5962 13.8853 10.6005 14.7089 10.9913ZM28.4533 10.9619C29.8179 11.5321 30.1481 13.2269 29.0989 14.2762C28.0001 15.375 26.193 14.9358 25.703 13.4508C25.3427 12.3593 25.9147 11.2128 27.0228 10.8053C27.5407 10.6151 27.652 10.6271 28.4533 10.9619ZM42.8453 11.2751C43.4973 11.8598 43.6958 12.6125 43.4191 13.4508C43.1082 14.3928 42.4431 14.8607 41.415 14.8607C39.2549 14.8607 38.639 11.8423 40.6202 10.9663C41.4152 10.6149 42.2358 10.7286 42.8453 11.2751ZM109.717 56.3762C109.715 73.4126 109.624 87.6427 109.512 88.4118C109.124 91.0943 107.669 93.3385 105.353 94.8239C103.014 96.3243 106.317 96.2289 56.7322 96.2289C7.14768 96.2289 10.4501 96.3243 8.11123 94.8239C5.7959 93.3385 4.34014 91.0943 3.95214 88.4118C3.84084 87.6427 3.74994 73.4126 3.7475 56.3762L3.74307 25.7245H56.7322H109.721L109.717 56.3762ZM15.4131 39.8334L14.8287 40.4181V61.966V83.514L15.4009 84.0516L15.9729 84.5891H34.1546H52.3363L52.8716 83.9669L53.4065 83.3448V61.8815V40.4181L52.8221 39.8334L52.2375 39.249H34.1176H15.9978L15.4131 39.8334ZM64.7928 39.7744C63.9365 40.511 63.9365 41.7561 64.7928 42.4926L65.4038 43.0181H81.1429H96.8823L97.4263 42.4738C97.8021 42.0982 97.9706 41.6831 97.9706 41.1335C97.9706 40.5839 97.8021 40.1689 97.4263 39.7933L96.8823 39.249H81.1429H65.4038L64.7928 39.7744ZM49.5833 61.919L49.5266 80.82L34.0622 80.8769L18.5978 80.9339V61.976V43.0181H34.1189H49.6399L49.5833 61.919ZM65.2506 53.3066C63.631 54.0192 63.8164 56.2634 65.5362 56.7638C66.1228 56.9345 70.9732 56.9881 81.6016 56.9418L96.8266 56.8751L97.3986 56.3376C98.1868 55.5969 98.1868 54.3841 97.3986 53.6434L96.8266 53.106L81.3799 53.0561C68.7867 53.0155 65.8071 53.0618 65.2506 53.3066ZM64.7928 67.4884C63.9897 68.179 63.9523 69.3672 64.7081 70.1718L65.2346 70.7321H81.0183C96.6508 70.7321 96.808 70.7276 97.3864 70.2725C97.9724 69.8115 98.1629 68.8302 97.833 67.9706C97.4485 66.9687 97.3532 66.963 80.9221 66.963H65.4038L64.7928 67.4884ZM64.8792 81.2401C64.2347 81.7294 63.9656 82.8032 64.3081 83.5177C64.8843 84.7194 64.5103 84.693 81.0762 84.6966C97.3436 84.7001 97.4485 84.6937 97.833 83.6922C98.1345 82.9065 97.9673 81.8917 97.4576 81.4128L96.9443 80.9308L81.1063 80.9379C68.2686 80.9437 65.1945 81.0009 64.8792 81.2401Z" fill="url(#paint1_radial_1464_636)"/>
<defs>
<radialGradient id="paint0_radial_1464_636" cx="0" cy="0" r="1" gradientUnits="userSpaceOnUse" gradientTransform="translate(29.942 20.8333) rotate(47.4676) scale(88.5849 90.2578)">
<stop stop-color="white" stop-opacity="0.59"/>
<stop offset="0.697917" stop-color="white" stop-opacity="0"/>
<stop offset="1" stop-color="white" stop-opacity="0"/>
</radialGradient>
<radialGradient id="paint1_radial_1464_636" cx="0" cy="0" r="1" gradientUnits="userSpaceOnUse" gradientTransform="translate(97.9214 87.5) rotate(-94.1631) scale(85.6426 108.177)">
<stop stop-opacity="0.23"/>
<stop offset="0.861815" stop-opacity="0"/>
</radialGradient>
</defs>
</svg>
