<svg width="97" height="100" viewBox="0 0 97 100" fill="none" xmlns="http://www.w3.org/2000/svg">
<path fill-rule="evenodd" clip-rule="evenodd" d="M38.6141 0.413266C37.6391 0.895947 36.9016 1.71157 36.3318 2.93746C35.949 3.76111 35.9182 4.21482 35.8587 9.93496L35.7949 16.0517H19.6909C8.1723 16.0517 3.39736 16.1151 2.92134 16.2744C1.83814 16.6371 1.04679 17.3519 0.507148 18.4549L0 19.4913L0.0514782 41.1769L0.102956 62.8623L0.834024 63.5323L1.56529 64.2023H5.44866C9.25491 64.2023 9.34064 64.1933 9.75775 63.7494C10.2829 63.1904 10.3031 62.4366 9.80962 61.8263C9.4481 61.3792 9.32929 61.3622 6.18853 61.3021L2.9411 61.2399V45.3987V29.5573H27.31H51.679V45.4089V61.2604L33.3604 61.3123L15.042 61.3642L14.6677 61.8263C14.1831 62.4249 14.1937 63.0436 14.6995 63.6866L15.105 64.2023H25.4582H35.8114L35.8668 80.1057L35.9223 96.0092L36.4731 97.1307C36.7759 97.7475 37.3457 98.5175 37.7392 98.8418C39.2528 100.089 38.038 100.033 62.358 99.9761L84.4645 99.9239L85.4929 99.3541C86.6127 98.7336 87.4244 97.8109 87.8172 96.7118C88.0043 96.1883 88.0705 94.1013 88.077 88.5223L88.0856 81.0355H89.5896C91.4729 81.0355 92.5761 80.5569 93.3344 79.4113C93.8292 78.6636 93.8597 78.4843 93.8597 76.3277C93.8597 74.0493 93.8623 74.0364 94.3847 73.7367C95.0797 73.3376 96.0625 71.9587 96.3121 71.0321C96.4399 70.5572 96.4927 66.5889 96.4583 60.0522C96.4088 50.6604 96.3753 49.7575 96.0527 49.1096C94.8045 46.6031 91.7889 45.5224 89.2895 46.6861C88.7137 46.954 88.2071 47.1734 88.164 47.1734C88.1208 47.1734 88.0856 40.6555 88.0856 32.6891C88.0856 18.4657 88.0785 18.1977 87.6941 17.8133C87.1112 17.2304 86.0636 17.2912 85.5553 17.9376C85.1535 18.4482 85.1495 18.5878 85.1495 32.324V46.1948H84.3913C83.5024 46.1948 82.089 46.6567 81.5866 47.1116C81.2581 47.4087 81.163 47.3917 80.2067 46.8636C79.3266 46.3776 78.9653 46.2961 77.6817 46.2946L76.1837 46.2926L76.1094 43.063C76.0422 40.1481 75.9907 39.7477 75.5795 38.9526C74.9575 37.7498 74.2663 37.0485 73.134 36.4707C70.9702 35.3669 68.562 35.7515 66.8417 37.4758C65.1069 39.2143 65.1844 38.3763 65.1858 55.3678C65.1864 65.5727 65.2541 70.4143 65.4031 70.9514C65.6873 71.9747 66.6094 73.2963 67.3407 73.7283L67.9249 74.0734V76.3044C67.9249 78.8591 68.195 79.6 69.4376 80.4516L70.1465 80.9376L77.648 80.9932L85.1495 81.0488V83.4896V85.9304L62.004 85.8807L38.8584 85.831V75.0656V64.3002L45.9396 64.2023C52.7398 64.1084 53.043 64.0882 53.5733 63.6946C53.8771 63.4693 54.2308 62.9849 54.3594 62.618C54.6806 61.7014 54.7181 20.5492 54.3989 19.2815C54.2801 18.8096 53.8749 18.0636 53.4985 17.6238C52.2278 16.1394 52.3431 16.1613 45.2197 16.0517L38.8584 15.9538V10.1599C38.8584 3.80887 38.8867 3.63329 40.0071 3.04198C40.5027 2.78048 41.0827 2.73017 43.0369 2.77911L45.4538 2.83959L46.1687 5.01126C47.0025 7.54465 47.5257 8.31154 48.9641 9.10818L50.0152 9.69029H62.0529C74.0252 9.69029 74.0949 9.68794 74.8735 9.26653C76.402 8.43896 77.0591 7.52371 77.8774 5.08134L78.6285 2.83959H81.3182H84.008L84.5788 3.47886L85.1495 4.11813V8.10113C85.1495 11.8344 85.175 12.1166 85.5553 12.5999C86.0689 13.2531 87.1112 13.3071 87.707 12.7113C88.0961 12.3221 88.1091 12.137 88.0495 7.76896C87.9812 2.76384 87.9497 2.619 86.6442 1.31345C85.2314 -0.0993622 87.1233 0.00144098 62.0233 0.00163671C39.4716 0.00183245 39.4446 0.00222395 38.6141 0.413266ZM75.4699 2.98639C74.7676 5.23538 74.4893 5.89031 74.0682 6.28608L73.5699 6.75428L62.3798 6.81006C56.2251 6.8406 51.0117 6.822 50.7943 6.76857C50.0843 6.59436 49.5725 5.9179 49.1252 4.56284C48.8835 3.8304 48.6451 3.12106 48.5956 2.98639C48.5239 2.79222 51.2918 2.74172 62.0259 2.74172C72.7525 2.74172 75.5306 2.79222 75.4699 2.98639ZM51.2082 19.3993C51.5445 19.7704 51.5811 20.1411 51.5811 23.1672V26.5235L27.2611 26.5732L2.9411 26.6229V23.2335C2.9411 20.0934 2.97046 19.8129 3.34021 19.4161L3.73931 18.9877H27.2873H50.8354L51.2082 19.3993ZM5.91118 21.5937C5.34668 22.1948 5.3688 22.9989 5.96618 23.5962C6.39601 24.0263 6.61093 24.0768 8.01043 24.0768C9.35649 24.0768 9.64246 24.0155 10.0645 23.6364C10.7724 23.0002 10.8194 22.1684 10.1833 21.5322C9.85092 21.1999 9.53089 21.1408 8.06426 21.1408C6.51169 21.1408 6.29384 21.1866 5.91118 21.5937ZM35.433 21.5322C34.8501 22.1151 34.911 23.1627 35.5573 23.671C36.1472 24.1351 36.3949 24.1652 37.0742 23.8556C37.7219 23.5606 38.0551 22.7405 37.8 22.0695C37.4385 21.1186 36.1412 20.8241 35.433 21.5322ZM40.5364 21.6565C39.7127 22.7035 40.2921 23.9593 41.5986 23.9593C42.9052 23.9593 43.4845 22.7035 42.6609 21.6565C42.3667 21.2825 42.0749 21.1408 41.5986 21.1408C41.1224 21.1408 40.8306 21.2825 40.5364 21.6565ZM45.796 21.5017C45.1508 22.0241 45.1919 23.0239 45.8831 23.6184C46.5398 24.1833 46.9723 24.1962 47.64 23.671C48.018 23.3739 48.1557 23.0862 48.1557 22.5945C48.1557 21.3202 46.7972 20.6912 45.796 21.5017ZM68.2185 22.2134C65.6896 22.6829 63.3079 23.845 61.2682 25.6045C60.4162 26.3395 60.2913 26.5422 60.2913 27.1889C60.2913 27.6838 60.4224 28.0496 60.6853 28.2874C61.3373 28.8774 62.0666 28.7315 63.239 27.7765C64.7705 26.5291 65.4769 26.1314 67.2399 25.5236C69.318 24.8071 72.0277 24.7569 74.0906 25.397C75.5871 25.8613 77.4744 26.9128 78.3967 27.7963C79.4458 28.8016 80.5101 28.8934 81.1618 28.0351C81.6113 27.4436 81.4598 26.84 80.6383 25.9488C78.9626 24.1308 76.1959 22.7264 73.2931 22.2202C71.2829 21.8697 70.0784 21.8681 68.2185 22.2134ZM68.0741 29.1545C65.9754 29.8253 64.0102 31.4043 64.0102 32.4194C64.0102 33.0365 64.8304 33.8635 65.4424 33.8635C65.7016 33.8635 66.2561 33.5904 66.6746 33.2569C67.9664 32.227 68.8979 31.851 70.4023 31.7527C72.1365 31.6396 73.2626 31.9887 74.6746 33.078C75.8099 33.9539 76.4517 34.0567 77.0874 33.4644C77.7893 32.8104 77.6688 31.8304 76.7868 31.0224C75.8486 30.1631 74.4159 29.3869 73.1412 29.0474C71.7339 28.6728 69.4287 28.7214 68.0741 29.1545ZM8.69335 33.411C8.4659 33.4556 8.0255 33.7576 7.71468 34.0821L7.14939 34.6721V45.1801C7.14939 55.102 7.16975 55.7178 7.51346 56.2248C8.11006 57.1042 8.80511 57.1856 15.1418 57.1193L20.9814 57.058L21.5521 56.4188L22.1231 55.7795V45.2566C22.1231 35.8447 22.0894 34.6854 21.8038 34.2779C21.1548 33.3511 20.5911 33.2743 14.6425 33.3029C11.5978 33.3176 8.9206 33.3661 8.69335 33.411ZM25.8497 34.8792C25.3486 35.4168 25.3382 36.226 25.8248 36.8267L26.1989 37.2888H36.4117H46.6245L46.9986 36.8267C47.4852 36.226 47.4748 35.4168 46.9737 34.8792L46.5746 34.4507H36.4117H26.2488L25.8497 34.8792ZM19.1871 45.2196V54.2271L14.6362 54.1745L10.0854 54.122L10.0343 45.4118C10.0063 40.6212 10.0255 36.5916 10.0772 36.457C10.1484 36.271 11.2532 36.2123 14.6791 36.2123H19.1871V45.2196ZM72.1571 39.2438C73.1532 39.8966 73.2097 40.3448 73.2097 47.5948C73.2097 54.2021 73.2154 54.2986 73.6353 54.7456C74.237 55.3859 75.2098 55.3569 75.74 54.6828C76.098 54.2277 76.1458 53.8975 76.1458 51.8761C76.1458 49.6109 76.1514 49.5825 76.6443 49.358C77.3219 49.0492 78.0101 49.0726 78.6968 49.4277C79.5844 49.8867 79.8647 50.6375 79.8647 52.5553C79.8647 54.0805 79.9095 54.2825 80.3452 54.718C80.878 55.251 81.183 55.3029 81.8892 54.9813C82.6089 54.6532 82.8007 54.0001 82.8007 51.8761C82.8007 50.02 82.8215 49.9258 83.3165 49.5365C84.0914 48.9268 85.1869 48.9949 85.9783 49.7015C86.6134 50.2686 86.6179 50.2856 86.6843 52.3438C86.7471 54.2915 86.7808 54.4385 87.249 54.8069C87.9025 55.3209 88.3359 55.3011 89.0043 54.7266C89.5356 54.2702 89.5557 54.1831 89.6197 52.0848C89.6826 50.0304 89.7125 49.8941 90.1844 49.5228C90.9973 48.8834 92.0987 48.9943 92.9006 49.7963L93.5661 50.4618V60.2779C93.5661 70.7651 93.552 70.9283 92.5982 71.4386C92.0625 71.7254 69.8693 71.7152 69.2387 71.4279C68.9823 71.311 68.6258 70.9671 68.4466 70.6635C68.1502 70.162 68.1207 68.7792 68.121 55.462C68.1212 41.9066 68.1469 40.7608 68.4636 40.127C69.1062 38.8406 70.8905 38.4139 72.1571 39.2438ZM26.3118 40.6022C25.3689 41.0127 25.1317 42.157 25.842 42.8673C26.2235 43.2488 26.4944 43.2587 36.4117 43.2587C46.329 43.2587 46.5999 43.2488 46.9813 42.8673C47.7263 42.1223 47.4051 40.9001 46.3691 40.539C45.3916 40.1982 27.1073 40.256 26.3118 40.6022ZM26.2952 46.5849C25.3889 46.9558 25.1757 48.2171 25.9035 48.901L26.3566 49.3265H36.4391H46.5216L46.9473 48.8736C47.4724 48.3144 47.4926 47.5606 46.9988 46.9505L46.6247 46.4884L36.6738 46.449C31.1709 46.4275 26.5316 46.4882 26.2952 46.5849ZM25.9663 52.864C25.5923 53.1582 25.4506 53.45 25.4506 53.9263C25.4506 54.4025 25.5923 54.6943 25.9663 54.9885C26.4596 55.3767 26.7158 55.3943 31.8472 55.3943H37.2124L37.6928 54.9137C37.957 54.6495 38.1733 54.2052 38.1733 53.9263C38.1733 53.6473 37.957 53.203 37.6928 52.9388L37.2124 52.4583H31.8472C26.7158 52.4583 26.4596 52.4759 25.9663 52.864ZM1.1562 69.7813C0.0270113 70.395 0.0050891 70.5911 0.0050891 80.0568C0.0050891 89.5394 0.0135057 89.613 1.16384 90.2925C1.68077 90.5979 2.79019 90.6265 14.086 90.6265C25.2351 90.6265 26.4911 90.5949 26.9354 90.3039C27.7749 89.7537 27.9951 89.0592 27.9951 86.9608C27.9951 84.629 27.7718 84.1672 26.6441 84.1672C25.5474 84.1672 25.1855 84.6726 25.0916 86.3346L25.0149 87.6905H13.978H2.9411V80.8397C2.9411 77.0719 2.98926 73.989 3.04837 73.989C3.10728 73.989 5.24079 75.5872 7.78945 77.5405C10.3383 79.4937 12.73 81.2199 13.1046 81.3764C13.9463 81.7282 14.8766 81.5949 15.7147 81.0028C16.0635 80.7564 18.2867 79.0715 20.6551 77.259L24.9612 73.9632L25.0591 76.5986C25.1726 79.6557 25.3564 80.0568 26.6441 80.0568C27.9199 80.0568 27.9951 79.7867 27.9951 75.2081C27.9951 72.0611 27.934 71.1112 27.7027 70.6637C27.063 69.4271 27.7545 69.4864 14.1032 69.495C3.73089 69.5014 1.58388 69.549 1.1562 69.7813ZM21.9273 72.5083C21.9273 72.6259 14.4771 78.3122 14.1673 78.431C13.9795 78.5033 7.34689 73.6545 6.18051 72.5925C6.0756 72.497 9.4663 72.4232 13.961 72.4232C18.3425 72.4232 21.9273 72.4615 21.9273 72.5083ZM90.7867 74.8111C91.1216 75.146 91.096 77.5984 90.7546 77.8816C90.562 78.0415 87.7708 78.0891 80.7232 78.0523L70.9588 78.0016L70.9007 76.552C70.8688 75.7546 70.8879 74.984 70.9435 74.8393C71.0835 74.4747 90.4228 74.4473 90.7867 74.8111ZM85.1495 92.2871V95.7093L84.5784 96.3486L84.0072 96.9878L62.3136 97.0462C42.792 97.0986 40.5605 97.0732 40.0257 96.7933C38.9463 96.2278 38.8642 95.9252 38.7932 92.2413L38.7282 88.8649H61.9388H85.1495V92.2871ZM57.1595 91.6051C56.661 92.1037 56.6557 93.0587 57.1486 93.5515C57.7052 94.1082 58.415 94.1812 62.6086 94.1133L66.3937 94.0518L66.8658 93.5026C67.444 92.8297 67.4601 92.4008 66.932 91.7294L66.5264 91.2137H62.0386C57.8119 91.2137 57.5283 91.2364 57.1595 91.6051Z" fill="#0066FF"/>
<path fill-rule="evenodd" clip-rule="evenodd" d="M38.6141 0.413266C37.6391 0.895947 36.9016 1.71157 36.3318 2.93746C35.949 3.76111 35.9182 4.21482 35.8587 9.93496L35.7949 16.0517H19.6909C8.1723 16.0517 3.39736 16.1151 2.92134 16.2744C1.83814 16.6371 1.04679 17.3519 0.507148 18.4549L0 19.4913L0.0514782 41.1769L0.102956 62.8623L0.834024 63.5323L1.56529 64.2023H5.44866C9.25491 64.2023 9.34064 64.1933 9.75775 63.7494C10.2829 63.1904 10.3031 62.4366 9.80962 61.8263C9.4481 61.3792 9.32929 61.3622 6.18853 61.3021L2.9411 61.2399V45.3987V29.5573H27.31H51.679V45.4089V61.2604L33.3604 61.3123L15.042 61.3642L14.6677 61.8263C14.1831 62.4249 14.1937 63.0436 14.6995 63.6866L15.105 64.2023H25.4582H35.8114L35.8668 80.1057L35.9223 96.0092L36.4731 97.1307C36.7759 97.7475 37.3457 98.5175 37.7392 98.8418C39.2528 100.089 38.038 100.033 62.358 99.9761L84.4645 99.9239L85.4929 99.3541C86.6127 98.7336 87.4244 97.8109 87.8172 96.7118C88.0043 96.1883 88.0705 94.1013 88.077 88.5223L88.0856 81.0355H89.5896C91.4729 81.0355 92.5761 80.5569 93.3344 79.4113C93.8292 78.6636 93.8597 78.4843 93.8597 76.3277C93.8597 74.0493 93.8623 74.0364 94.3847 73.7367C95.0797 73.3376 96.0625 71.9587 96.3121 71.0321C96.4399 70.5572 96.4927 66.5889 96.4583 60.0522C96.4088 50.6604 96.3753 49.7575 96.0527 49.1096C94.8045 46.6031 91.7889 45.5224 89.2895 46.6861C88.7137 46.954 88.2071 47.1734 88.164 47.1734C88.1208 47.1734 88.0856 40.6555 88.0856 32.6891C88.0856 18.4657 88.0785 18.1977 87.6941 17.8133C87.1112 17.2304 86.0636 17.2912 85.5553 17.9376C85.1535 18.4482 85.1495 18.5878 85.1495 32.324V46.1948H84.3913C83.5024 46.1948 82.089 46.6567 81.5866 47.1116C81.2581 47.4087 81.163 47.3917 80.2067 46.8636C79.3266 46.3776 78.9653 46.2961 77.6817 46.2946L76.1837 46.2926L76.1094 43.063C76.0422 40.1481 75.9907 39.7477 75.5795 38.9526C74.9575 37.7498 74.2663 37.0485 73.134 36.4707C70.9702 35.3669 68.562 35.7515 66.8417 37.4758C65.1069 39.2143 65.1844 38.3763 65.1858 55.3678C65.1864 65.5727 65.2541 70.4143 65.4031 70.9514C65.6873 71.9747 66.6094 73.2963 67.3407 73.7283L67.9249 74.0734V76.3044C67.9249 78.8591 68.195 79.6 69.4376 80.4516L70.1465 80.9376L77.648 80.9932L85.1495 81.0488V83.4896V85.9304L62.004 85.8807L38.8584 85.831V75.0656V64.3002L45.9396 64.2023C52.7398 64.1084 53.043 64.0882 53.5733 63.6946C53.8771 63.4693 54.2308 62.9849 54.3594 62.618C54.6806 61.7014 54.7181 20.5492 54.3989 19.2815C54.2801 18.8096 53.8749 18.0636 53.4985 17.6238C52.2278 16.1394 52.3431 16.1613 45.2197 16.0517L38.8584 15.9538V10.1599C38.8584 3.80887 38.8867 3.63329 40.0071 3.04198C40.5027 2.78048 41.0827 2.73017 43.0369 2.77911L45.4538 2.83959L46.1687 5.01126C47.0025 7.54465 47.5257 8.31154 48.9641 9.10818L50.0152 9.69029H62.0529C74.0252 9.69029 74.0949 9.68794 74.8735 9.26653C76.402 8.43896 77.0591 7.52371 77.8774 5.08134L78.6285 2.83959H81.3182H84.008L84.5788 3.47886L85.1495 4.11813V8.10113C85.1495 11.8344 85.175 12.1166 85.5553 12.5999C86.0689 13.2531 87.1112 13.3071 87.707 12.7113C88.0961 12.3221 88.1091 12.137 88.0495 7.76896C87.9812 2.76384 87.9497 2.619 86.6442 1.31345C85.2314 -0.0993622 87.1233 0.00144098 62.0233 0.00163671C39.4716 0.00183245 39.4446 0.00222395 38.6141 0.413266ZM75.4699 2.98639C74.7676 5.23538 74.4893 5.89031 74.0682 6.28608L73.5699 6.75428L62.3798 6.81006C56.2251 6.8406 51.0117 6.822 50.7943 6.76857C50.0843 6.59436 49.5725 5.9179 49.1252 4.56284C48.8835 3.8304 48.6451 3.12106 48.5956 2.98639C48.5239 2.79222 51.2918 2.74172 62.0259 2.74172C72.7525 2.74172 75.5306 2.79222 75.4699 2.98639ZM51.2082 19.3993C51.5445 19.7704 51.5811 20.1411 51.5811 23.1672V26.5235L27.2611 26.5732L2.9411 26.6229V23.2335C2.9411 20.0934 2.97046 19.8129 3.34021 19.4161L3.73931 18.9877H27.2873H50.8354L51.2082 19.3993ZM5.91118 21.5937C5.34668 22.1948 5.3688 22.9989 5.96618 23.5962C6.39601 24.0263 6.61093 24.0768 8.01043 24.0768C9.35649 24.0768 9.64246 24.0155 10.0645 23.6364C10.7724 23.0002 10.8194 22.1684 10.1833 21.5322C9.85092 21.1999 9.53089 21.1408 8.06426 21.1408C6.51169 21.1408 6.29384 21.1866 5.91118 21.5937ZM35.433 21.5322C34.8501 22.1151 34.911 23.1627 35.5573 23.671C36.1472 24.1351 36.3949 24.1652 37.0742 23.8556C37.7219 23.5606 38.0551 22.7405 37.8 22.0695C37.4385 21.1186 36.1412 20.8241 35.433 21.5322ZM40.5364 21.6565C39.7127 22.7035 40.2921 23.9593 41.5986 23.9593C42.9052 23.9593 43.4845 22.7035 42.6609 21.6565C42.3667 21.2825 42.0749 21.1408 41.5986 21.1408C41.1224 21.1408 40.8306 21.2825 40.5364 21.6565ZM45.796 21.5017C45.1508 22.0241 45.1919 23.0239 45.8831 23.6184C46.5398 24.1833 46.9723 24.1962 47.64 23.671C48.018 23.3739 48.1557 23.0862 48.1557 22.5945C48.1557 21.3202 46.7972 20.6912 45.796 21.5017ZM68.2185 22.2134C65.6896 22.6829 63.3079 23.845 61.2682 25.6045C60.4162 26.3395 60.2913 26.5422 60.2913 27.1889C60.2913 27.6838 60.4224 28.0496 60.6853 28.2874C61.3373 28.8774 62.0666 28.7315 63.239 27.7765C64.7705 26.5291 65.4769 26.1314 67.2399 25.5236C69.318 24.8071 72.0277 24.7569 74.0906 25.397C75.5871 25.8613 77.4744 26.9128 78.3967 27.7963C79.4458 28.8016 80.5101 28.8934 81.1618 28.0351C81.6113 27.4436 81.4598 26.84 80.6383 25.9488C78.9626 24.1308 76.1959 22.7264 73.2931 22.2202C71.2829 21.8697 70.0784 21.8681 68.2185 22.2134ZM68.0741 29.1545C65.9754 29.8253 64.0102 31.4043 64.0102 32.4194C64.0102 33.0365 64.8304 33.8635 65.4424 33.8635C65.7016 33.8635 66.2561 33.5904 66.6746 33.2569C67.9664 32.227 68.8979 31.851 70.4023 31.7527C72.1365 31.6396 73.2626 31.9887 74.6746 33.078C75.8099 33.9539 76.4517 34.0567 77.0874 33.4644C77.7893 32.8104 77.6688 31.8304 76.7868 31.0224C75.8486 30.1631 74.4159 29.3869 73.1412 29.0474C71.7339 28.6728 69.4287 28.7214 68.0741 29.1545ZM8.69335 33.411C8.4659 33.4556 8.0255 33.7576 7.71468 34.0821L7.14939 34.6721V45.1801C7.14939 55.102 7.16975 55.7178 7.51346 56.2248C8.11006 57.1042 8.80511 57.1856 15.1418 57.1193L20.9814 57.058L21.5521 56.4188L22.1231 55.7795V45.2566C22.1231 35.8447 22.0894 34.6854 21.8038 34.2779C21.1548 33.3511 20.5911 33.2743 14.6425 33.3029C11.5978 33.3176 8.9206 33.3661 8.69335 33.411ZM25.8497 34.8792C25.3486 35.4168 25.3382 36.226 25.8248 36.8267L26.1989 37.2888H36.4117H46.6245L46.9986 36.8267C47.4852 36.226 47.4748 35.4168 46.9737 34.8792L46.5746 34.4507H36.4117H26.2488L25.8497 34.8792ZM19.1871 45.2196V54.2271L14.6362 54.1745L10.0854 54.122L10.0343 45.4118C10.0063 40.6212 10.0255 36.5916 10.0772 36.457C10.1484 36.271 11.2532 36.2123 14.6791 36.2123H19.1871V45.2196ZM72.1571 39.2438C73.1532 39.8966 73.2097 40.3448 73.2097 47.5948C73.2097 54.2021 73.2154 54.2986 73.6353 54.7456C74.237 55.3859 75.2098 55.3569 75.74 54.6828C76.098 54.2277 76.1458 53.8975 76.1458 51.8761C76.1458 49.6109 76.1514 49.5825 76.6443 49.358C77.3219 49.0492 78.0101 49.0726 78.6968 49.4277C79.5844 49.8867 79.8647 50.6375 79.8647 52.5553C79.8647 54.0805 79.9095 54.2825 80.3452 54.718C80.878 55.251 81.183 55.3029 81.8892 54.9813C82.6089 54.6532 82.8007 54.0001 82.8007 51.8761C82.8007 50.02 82.8215 49.9258 83.3165 49.5365C84.0914 48.9268 85.1869 48.9949 85.9783 49.7015C86.6134 50.2686 86.6179 50.2856 86.6843 52.3438C86.7471 54.2915 86.7808 54.4385 87.249 54.8069C87.9025 55.3209 88.3359 55.3011 89.0043 54.7266C89.5356 54.2702 89.5557 54.1831 89.6197 52.0848C89.6826 50.0304 89.7125 49.8941 90.1844 49.5228C90.9973 48.8834 92.0987 48.9943 92.9006 49.7963L93.5661 50.4618V60.2779C93.5661 70.7651 93.552 70.9283 92.5982 71.4386C92.0625 71.7254 69.8693 71.7152 69.2387 71.4279C68.9823 71.311 68.6258 70.9671 68.4466 70.6635C68.1502 70.162 68.1207 68.7792 68.121 55.462C68.1212 41.9066 68.1469 40.7608 68.4636 40.127C69.1062 38.8406 70.8905 38.4139 72.1571 39.2438ZM26.3118 40.6022C25.3689 41.0127 25.1317 42.157 25.842 42.8673C26.2235 43.2488 26.4944 43.2587 36.4117 43.2587C46.329 43.2587 46.5999 43.2488 46.9813 42.8673C47.7263 42.1223 47.4051 40.9001 46.3691 40.539C45.3916 40.1982 27.1073 40.256 26.3118 40.6022ZM26.2952 46.5849C25.3889 46.9558 25.1757 48.2171 25.9035 48.901L26.3566 49.3265H36.4391H46.5216L46.9473 48.8736C47.4724 48.3144 47.4926 47.5606 46.9988 46.9505L46.6247 46.4884L36.6738 46.449C31.1709 46.4275 26.5316 46.4882 26.2952 46.5849ZM25.9663 52.864C25.5923 53.1582 25.4506 53.45 25.4506 53.9263C25.4506 54.4025 25.5923 54.6943 25.9663 54.9885C26.4596 55.3767 26.7158 55.3943 31.8472 55.3943H37.2124L37.6928 54.9137C37.957 54.6495 38.1733 54.2052 38.1733 53.9263C38.1733 53.6473 37.957 53.203 37.6928 52.9388L37.2124 52.4583H31.8472C26.7158 52.4583 26.4596 52.4759 25.9663 52.864ZM1.1562 69.7813C0.0270113 70.395 0.0050891 70.5911 0.0050891 80.0568C0.0050891 89.5394 0.0135057 89.613 1.16384 90.2925C1.68077 90.5979 2.79019 90.6265 14.086 90.6265C25.2351 90.6265 26.4911 90.5949 26.9354 90.3039C27.7749 89.7537 27.9951 89.0592 27.9951 86.9608C27.9951 84.629 27.7718 84.1672 26.6441 84.1672C25.5474 84.1672 25.1855 84.6726 25.0916 86.3346L25.0149 87.6905H13.978H2.9411V80.8397C2.9411 77.0719 2.98926 73.989 3.04837 73.989C3.10728 73.989 5.24079 75.5872 7.78945 77.5405C10.3383 79.4937 12.73 81.2199 13.1046 81.3764C13.9463 81.7282 14.8766 81.5949 15.7147 81.0028C16.0635 80.7564 18.2867 79.0715 20.6551 77.259L24.9612 73.9632L25.0591 76.5986C25.1726 79.6557 25.3564 80.0568 26.6441 80.0568C27.9199 80.0568 27.9951 79.7867 27.9951 75.2081C27.9951 72.0611 27.934 71.1112 27.7027 70.6637C27.063 69.4271 27.7545 69.4864 14.1032 69.495C3.73089 69.5014 1.58388 69.549 1.1562 69.7813ZM21.9273 72.5083C21.9273 72.6259 14.4771 78.3122 14.1673 78.431C13.9795 78.5033 7.34689 73.6545 6.18051 72.5925C6.0756 72.497 9.4663 72.4232 13.961 72.4232C18.3425 72.4232 21.9273 72.4615 21.9273 72.5083ZM90.7867 74.8111C91.1216 75.146 91.096 77.5984 90.7546 77.8816C90.562 78.0415 87.7708 78.0891 80.7232 78.0523L70.9588 78.0016L70.9007 76.552C70.8688 75.7546 70.8879 74.984 70.9435 74.8393C71.0835 74.4747 90.4228 74.4473 90.7867 74.8111ZM85.1495 92.2871V95.7093L84.5784 96.3486L84.0072 96.9878L62.3136 97.0462C42.792 97.0986 40.5605 97.0732 40.0257 96.7933C38.9463 96.2278 38.8642 95.9252 38.7932 92.2413L38.7282 88.8649H61.9388H85.1495V92.2871ZM57.1595 91.6051C56.661 92.1037 56.6557 93.0587 57.1486 93.5515C57.7052 94.1082 58.415 94.1812 62.6086 94.1133L66.3937 94.0518L66.8658 93.5026C67.444 92.8297 67.4601 92.4008 66.932 91.7294L66.5264 91.2137H62.0386C57.8119 91.2137 57.5283 91.2364 57.1595 91.6051Z" fill="url(#paint0_radial_1464_1737)" fill-opacity="0.7"/>
<path fill-rule="evenodd" clip-rule="evenodd" d="M38.6141 0.413266C37.6391 0.895947 36.9016 1.71157 36.3318 2.93746C35.949 3.76111 35.9182 4.21482 35.8587 9.93496L35.7949 16.0517H19.6909C8.1723 16.0517 3.39736 16.1151 2.92134 16.2744C1.83814 16.6371 1.04679 17.3519 0.507148 18.4549L0 19.4913L0.0514782 41.1769L0.102956 62.8623L0.834024 63.5323L1.56529 64.2023H5.44866C9.25491 64.2023 9.34064 64.1933 9.75775 63.7494C10.2829 63.1904 10.3031 62.4366 9.80962 61.8263C9.4481 61.3792 9.32929 61.3622 6.18853 61.3021L2.9411 61.2399V45.3987V29.5573H27.31H51.679V45.4089V61.2604L33.3604 61.3123L15.042 61.3642L14.6677 61.8263C14.1831 62.4249 14.1937 63.0436 14.6995 63.6866L15.105 64.2023H25.4582H35.8114L35.8668 80.1057L35.9223 96.0092L36.4731 97.1307C36.7759 97.7475 37.3457 98.5175 37.7392 98.8418C39.2528 100.089 38.038 100.033 62.358 99.9761L84.4645 99.9239L85.4929 99.3541C86.6127 98.7336 87.4244 97.8109 87.8172 96.7118C88.0043 96.1883 88.0705 94.1013 88.077 88.5223L88.0856 81.0355H89.5896C91.4729 81.0355 92.5761 80.5569 93.3344 79.4113C93.8292 78.6636 93.8597 78.4843 93.8597 76.3277C93.8597 74.0493 93.8623 74.0364 94.3847 73.7367C95.0797 73.3376 96.0625 71.9587 96.3121 71.0321C96.4399 70.5572 96.4927 66.5889 96.4583 60.0522C96.4088 50.6604 96.3753 49.7575 96.0527 49.1096C94.8045 46.6031 91.7889 45.5224 89.2895 46.6861C88.7137 46.954 88.2071 47.1734 88.164 47.1734C88.1208 47.1734 88.0856 40.6555 88.0856 32.6891C88.0856 18.4657 88.0785 18.1977 87.6941 17.8133C87.1112 17.2304 86.0636 17.2912 85.5553 17.9376C85.1535 18.4482 85.1495 18.5878 85.1495 32.324V46.1948H84.3913C83.5024 46.1948 82.089 46.6567 81.5866 47.1116C81.2581 47.4087 81.163 47.3917 80.2067 46.8636C79.3266 46.3776 78.9653 46.2961 77.6817 46.2946L76.1837 46.2926L76.1094 43.063C76.0422 40.1481 75.9907 39.7477 75.5795 38.9526C74.9575 37.7498 74.2663 37.0485 73.134 36.4707C70.9702 35.3669 68.562 35.7515 66.8417 37.4758C65.1069 39.2143 65.1844 38.3763 65.1858 55.3678C65.1864 65.5727 65.2541 70.4143 65.4031 70.9514C65.6873 71.9747 66.6094 73.2963 67.3407 73.7283L67.9249 74.0734V76.3044C67.9249 78.8591 68.195 79.6 69.4376 80.4516L70.1465 80.9376L77.648 80.9932L85.1495 81.0488V83.4896V85.9304L62.004 85.8807L38.8584 85.831V75.0656V64.3002L45.9396 64.2023C52.7398 64.1084 53.043 64.0882 53.5733 63.6946C53.8771 63.4693 54.2308 62.9849 54.3594 62.618C54.6806 61.7014 54.7181 20.5492 54.3989 19.2815C54.2801 18.8096 53.8749 18.0636 53.4985 17.6238C52.2278 16.1394 52.3431 16.1613 45.2197 16.0517L38.8584 15.9538V10.1599C38.8584 3.80887 38.8867 3.63329 40.0071 3.04198C40.5027 2.78048 41.0827 2.73017 43.0369 2.77911L45.4538 2.83959L46.1687 5.01126C47.0025 7.54465 47.5257 8.31154 48.9641 9.10818L50.0152 9.69029H62.0529C74.0252 9.69029 74.0949 9.68794 74.8735 9.26653C76.402 8.43896 77.0591 7.52371 77.8774 5.08134L78.6285 2.83959H81.3182H84.008L84.5788 3.47886L85.1495 4.11813V8.10113C85.1495 11.8344 85.175 12.1166 85.5553 12.5999C86.0689 13.2531 87.1112 13.3071 87.707 12.7113C88.0961 12.3221 88.1091 12.137 88.0495 7.76896C87.9812 2.76384 87.9497 2.619 86.6442 1.31345C85.2314 -0.0993622 87.1233 0.00144098 62.0233 0.00163671C39.4716 0.00183245 39.4446 0.00222395 38.6141 0.413266ZM75.4699 2.98639C74.7676 5.23538 74.4893 5.89031 74.0682 6.28608L73.5699 6.75428L62.3798 6.81006C56.2251 6.8406 51.0117 6.822 50.7943 6.76857C50.0843 6.59436 49.5725 5.9179 49.1252 4.56284C48.8835 3.8304 48.6451 3.12106 48.5956 2.98639C48.5239 2.79222 51.2918 2.74172 62.0259 2.74172C72.7525 2.74172 75.5306 2.79222 75.4699 2.98639ZM51.2082 19.3993C51.5445 19.7704 51.5811 20.1411 51.5811 23.1672V26.5235L27.2611 26.5732L2.9411 26.6229V23.2335C2.9411 20.0934 2.97046 19.8129 3.34021 19.4161L3.73931 18.9877H27.2873H50.8354L51.2082 19.3993ZM5.91118 21.5937C5.34668 22.1948 5.3688 22.9989 5.96618 23.5962C6.39601 24.0263 6.61093 24.0768 8.01043 24.0768C9.35649 24.0768 9.64246 24.0155 10.0645 23.6364C10.7724 23.0002 10.8194 22.1684 10.1833 21.5322C9.85092 21.1999 9.53089 21.1408 8.06426 21.1408C6.51169 21.1408 6.29384 21.1866 5.91118 21.5937ZM35.433 21.5322C34.8501 22.1151 34.911 23.1627 35.5573 23.671C36.1472 24.1351 36.3949 24.1652 37.0742 23.8556C37.7219 23.5606 38.0551 22.7405 37.8 22.0695C37.4385 21.1186 36.1412 20.8241 35.433 21.5322ZM40.5364 21.6565C39.7127 22.7035 40.2921 23.9593 41.5986 23.9593C42.9052 23.9593 43.4845 22.7035 42.6609 21.6565C42.3667 21.2825 42.0749 21.1408 41.5986 21.1408C41.1224 21.1408 40.8306 21.2825 40.5364 21.6565ZM45.796 21.5017C45.1508 22.0241 45.1919 23.0239 45.8831 23.6184C46.5398 24.1833 46.9723 24.1962 47.64 23.671C48.018 23.3739 48.1557 23.0862 48.1557 22.5945C48.1557 21.3202 46.7972 20.6912 45.796 21.5017ZM68.2185 22.2134C65.6896 22.6829 63.3079 23.845 61.2682 25.6045C60.4162 26.3395 60.2913 26.5422 60.2913 27.1889C60.2913 27.6838 60.4224 28.0496 60.6853 28.2874C61.3373 28.8774 62.0666 28.7315 63.239 27.7765C64.7705 26.5291 65.4769 26.1314 67.2399 25.5236C69.318 24.8071 72.0277 24.7569 74.0906 25.397C75.5871 25.8613 77.4744 26.9128 78.3967 27.7963C79.4458 28.8016 80.5101 28.8934 81.1618 28.0351C81.6113 27.4436 81.4598 26.84 80.6383 25.9488C78.9626 24.1308 76.1959 22.7264 73.2931 22.2202C71.2829 21.8697 70.0784 21.8681 68.2185 22.2134ZM68.0741 29.1545C65.9754 29.8253 64.0102 31.4043 64.0102 32.4194C64.0102 33.0365 64.8304 33.8635 65.4424 33.8635C65.7016 33.8635 66.2561 33.5904 66.6746 33.2569C67.9664 32.227 68.8979 31.851 70.4023 31.7527C72.1365 31.6396 73.2626 31.9887 74.6746 33.078C75.8099 33.9539 76.4517 34.0567 77.0874 33.4644C77.7893 32.8104 77.6688 31.8304 76.7868 31.0224C75.8486 30.1631 74.4159 29.3869 73.1412 29.0474C71.7339 28.6728 69.4287 28.7214 68.0741 29.1545ZM8.69335 33.411C8.4659 33.4556 8.0255 33.7576 7.71468 34.0821L7.14939 34.6721V45.1801C7.14939 55.102 7.16975 55.7178 7.51346 56.2248C8.11006 57.1042 8.80511 57.1856 15.1418 57.1193L20.9814 57.058L21.5521 56.4188L22.1231 55.7795V45.2566C22.1231 35.8447 22.0894 34.6854 21.8038 34.2779C21.1548 33.3511 20.5911 33.2743 14.6425 33.3029C11.5978 33.3176 8.9206 33.3661 8.69335 33.411ZM25.8497 34.8792C25.3486 35.4168 25.3382 36.226 25.8248 36.8267L26.1989 37.2888H36.4117H46.6245L46.9986 36.8267C47.4852 36.226 47.4748 35.4168 46.9737 34.8792L46.5746 34.4507H36.4117H26.2488L25.8497 34.8792ZM19.1871 45.2196V54.2271L14.6362 54.1745L10.0854 54.122L10.0343 45.4118C10.0063 40.6212 10.0255 36.5916 10.0772 36.457C10.1484 36.271 11.2532 36.2123 14.6791 36.2123H19.1871V45.2196ZM72.1571 39.2438C73.1532 39.8966 73.2097 40.3448 73.2097 47.5948C73.2097 54.2021 73.2154 54.2986 73.6353 54.7456C74.237 55.3859 75.2098 55.3569 75.74 54.6828C76.098 54.2277 76.1458 53.8975 76.1458 51.8761C76.1458 49.6109 76.1514 49.5825 76.6443 49.358C77.3219 49.0492 78.0101 49.0726 78.6968 49.4277C79.5844 49.8867 79.8647 50.6375 79.8647 52.5553C79.8647 54.0805 79.9095 54.2825 80.3452 54.718C80.878 55.251 81.183 55.3029 81.8892 54.9813C82.6089 54.6532 82.8007 54.0001 82.8007 51.8761C82.8007 50.02 82.8215 49.9258 83.3165 49.5365C84.0914 48.9268 85.1869 48.9949 85.9783 49.7015C86.6134 50.2686 86.6179 50.2856 86.6843 52.3438C86.7471 54.2915 86.7808 54.4385 87.249 54.8069C87.9025 55.3209 88.3359 55.3011 89.0043 54.7266C89.5356 54.2702 89.5557 54.1831 89.6197 52.0848C89.6826 50.0304 89.7125 49.8941 90.1844 49.5228C90.9973 48.8834 92.0987 48.9943 92.9006 49.7963L93.5661 50.4618V60.2779C93.5661 70.7651 93.552 70.9283 92.5982 71.4386C92.0625 71.7254 69.8693 71.7152 69.2387 71.4279C68.9823 71.311 68.6258 70.9671 68.4466 70.6635C68.1502 70.162 68.1207 68.7792 68.121 55.462C68.1212 41.9066 68.1469 40.7608 68.4636 40.127C69.1062 38.8406 70.8905 38.4139 72.1571 39.2438ZM26.3118 40.6022C25.3689 41.0127 25.1317 42.157 25.842 42.8673C26.2235 43.2488 26.4944 43.2587 36.4117 43.2587C46.329 43.2587 46.5999 43.2488 46.9813 42.8673C47.7263 42.1223 47.4051 40.9001 46.3691 40.539C45.3916 40.1982 27.1073 40.256 26.3118 40.6022ZM26.2952 46.5849C25.3889 46.9558 25.1757 48.2171 25.9035 48.901L26.3566 49.3265H36.4391H46.5216L46.9473 48.8736C47.4724 48.3144 47.4926 47.5606 46.9988 46.9505L46.6247 46.4884L36.6738 46.449C31.1709 46.4275 26.5316 46.4882 26.2952 46.5849ZM25.9663 52.864C25.5923 53.1582 25.4506 53.45 25.4506 53.9263C25.4506 54.4025 25.5923 54.6943 25.9663 54.9885C26.4596 55.3767 26.7158 55.3943 31.8472 55.3943H37.2124L37.6928 54.9137C37.957 54.6495 38.1733 54.2052 38.1733 53.9263C38.1733 53.6473 37.957 53.203 37.6928 52.9388L37.2124 52.4583H31.8472C26.7158 52.4583 26.4596 52.4759 25.9663 52.864ZM1.1562 69.7813C0.0270113 70.395 0.0050891 70.5911 0.0050891 80.0568C0.0050891 89.5394 0.0135057 89.613 1.16384 90.2925C1.68077 90.5979 2.79019 90.6265 14.086 90.6265C25.2351 90.6265 26.4911 90.5949 26.9354 90.3039C27.7749 89.7537 27.9951 89.0592 27.9951 86.9608C27.9951 84.629 27.7718 84.1672 26.6441 84.1672C25.5474 84.1672 25.1855 84.6726 25.0916 86.3346L25.0149 87.6905H13.978H2.9411V80.8397C2.9411 77.0719 2.98926 73.989 3.04837 73.989C3.10728 73.989 5.24079 75.5872 7.78945 77.5405C10.3383 79.4937 12.73 81.2199 13.1046 81.3764C13.9463 81.7282 14.8766 81.5949 15.7147 81.0028C16.0635 80.7564 18.2867 79.0715 20.6551 77.259L24.9612 73.9632L25.0591 76.5986C25.1726 79.6557 25.3564 80.0568 26.6441 80.0568C27.9199 80.0568 27.9951 79.7867 27.9951 75.2081C27.9951 72.0611 27.934 71.1112 27.7027 70.6637C27.063 69.4271 27.7545 69.4864 14.1032 69.495C3.73089 69.5014 1.58388 69.549 1.1562 69.7813ZM21.9273 72.5083C21.9273 72.6259 14.4771 78.3122 14.1673 78.431C13.9795 78.5033 7.34689 73.6545 6.18051 72.5925C6.0756 72.497 9.4663 72.4232 13.961 72.4232C18.3425 72.4232 21.9273 72.4615 21.9273 72.5083ZM90.7867 74.8111C91.1216 75.146 91.096 77.5984 90.7546 77.8816C90.562 78.0415 87.7708 78.0891 80.7232 78.0523L70.9588 78.0016L70.9007 76.552C70.8688 75.7546 70.8879 74.984 70.9435 74.8393C71.0835 74.4747 90.4228 74.4473 90.7867 74.8111ZM85.1495 92.2871V95.7093L84.5784 96.3486L84.0072 96.9878L62.3136 97.0462C42.792 97.0986 40.5605 97.0732 40.0257 96.7933C38.9463 96.2278 38.8642 95.9252 38.7932 92.2413L38.7282 88.8649H61.9388H85.1495V92.2871ZM57.1595 91.6051C56.661 92.1037 56.6557 93.0587 57.1486 93.5515C57.7052 94.1082 58.415 94.1812 62.6086 94.1133L66.3937 94.0518L66.8658 93.5026C67.444 92.8297 67.4601 92.4008 66.932 91.7294L66.5264 91.2137H62.0386C57.8119 91.2137 57.5283 91.2364 57.1595 91.6051Z" fill="url(#paint1_radial_1464_1737)"/>
<defs>
<radialGradient id="paint0_radial_1464_1737" cx="0" cy="0" r="1" gradientUnits="userSpaceOnUse" gradientTransform="translate(25.457 20.8333) rotate(52.0472) scale(82.7854 82.1139)">
<stop stop-color="white" stop-opacity="0.59"/>
<stop offset="0.697917" stop-color="white" stop-opacity="0"/>
<stop offset="1" stop-color="white" stop-opacity="0"/>
</radialGradient>
<radialGradient id="paint1_radial_1464_1737" cx="0" cy="0" r="1" gradientUnits="userSpaceOnUse" gradientTransform="translate(83.2537 87.5) rotate(-93.5412) scale(85.5801 92.0404)">
<stop stop-opacity="0.23"/>
<stop offset="0.861815" stop-opacity="0"/>
</radialGradient>
</defs>
</svg>
