<svg width="227" height="273" viewBox="0 0 227 273" fill="none" xmlns="http://www.w3.org/2000/svg">
<g filter="url(#filter0_dd_1210_380)">
<rect x="84.4089" y="95" width="108.687" height="108.687" rx="19.5432" transform="rotate(20.6947 84.4089 95)" fill="#EDF0F9"/>
</g>
<path fill-rule="evenodd" clip-rule="evenodd" d="M100.942 131.078C98.3712 131.543 95.8328 133.33 94.4891 135.62C93.9638 136.516 93.3585 138.243 93.3585 138.845V139.214L91.1161 139.26L88.8736 139.305L87.8946 139.789C86.7155 140.372 85.9807 141.122 85.4102 142.326L85 143.192V165.159V187.127L85.484 188.106C86.0669 189.285 86.8172 190.019 88.022 190.59L88.8877 191H115H141.112L141.978 190.59C143.183 190.019 143.933 189.285 144.516 188.106L145 187.127V165.159V143.192L144.59 142.326C144.019 141.122 143.284 140.372 142.105 139.789L141.126 139.305L138.884 139.26L136.641 139.214V138.845C136.641 138.246 136.038 136.519 135.511 135.612C134.884 134.532 133.187 132.835 132.106 132.208C131.643 131.939 130.797 131.564 130.227 131.376C129.316 131.074 128.978 131.032 127.441 131.028C125.81 131.024 125.614 131.051 124.556 131.424C123.931 131.645 123.086 132.021 122.677 132.261C121.677 132.847 119.972 134.576 119.37 135.612C118.839 136.527 118.24 138.248 118.24 138.858V139.24H115H111.76V138.858C111.76 138.248 111.161 136.527 110.63 135.612C110.003 134.532 108.306 132.835 107.225 132.208C105.921 131.451 104.551 131.067 102.948 131.01C102.2 130.983 101.297 131.013 100.942 131.078ZM104.908 133.441C106.103 133.877 106.863 134.35 107.675 135.162C108.483 135.97 108.962 136.736 109.385 137.903C109.869 139.235 109.866 139.24 108.65 139.24C107.86 139.24 107.613 139.198 107.613 139.063C107.613 138.966 107.409 138.477 107.159 137.977C106.606 136.872 105.828 136.124 104.656 135.569C103.872 135.198 103.674 135.159 102.553 135.159C101.384 135.159 101.26 135.186 100.336 135.643C99.1561 136.226 98.4215 136.976 97.8508 138.18C97.4794 138.964 97.4406 139.163 97.4406 140.283C97.4406 141.451 97.4678 141.576 97.9246 142.5C98.7589 144.188 100.28 145.247 102.113 145.419C102.796 145.482 103.071 145.57 103.299 145.798C103.963 146.462 103.445 147.532 102.459 147.532C100.722 147.532 98.7655 146.685 97.4383 145.358C93.9464 141.867 94.9225 135.998 99.3583 133.815C99.9429 133.527 100.713 133.233 101.069 133.162C102.122 132.952 103.924 133.083 104.908 133.441ZM129.789 133.441C130.984 133.877 131.745 134.35 132.557 135.162C133.365 135.97 133.843 136.736 134.266 137.903C134.75 139.235 134.747 139.24 133.531 139.24C132.741 139.24 132.495 139.198 132.495 139.063C132.495 138.966 132.29 138.477 132.04 137.977C131.487 136.872 130.709 136.124 129.537 135.569C128.753 135.198 128.555 135.159 127.434 135.159C126.266 135.159 126.141 135.186 125.217 135.643C124.037 136.226 123.303 136.976 122.732 138.18C122.361 138.964 122.322 139.163 122.322 140.283C122.322 141.451 122.349 141.576 122.806 142.5C123.64 144.188 125.161 145.247 126.995 145.419C127.677 145.482 127.953 145.57 128.181 145.798C128.845 146.462 128.326 147.532 127.341 147.532C125.603 147.532 123.647 146.685 122.319 145.358C118.828 141.867 119.804 135.998 124.239 133.815C124.824 133.527 125.594 133.233 125.95 133.162C127.004 132.952 128.806 133.083 129.789 133.441ZM103.516 137.325C104.096 137.496 105.41 138.684 105.41 139.037C105.41 139.215 105.06 139.24 102.559 139.24C99.2621 139.24 99.2882 139.253 100.389 138.157C101.328 137.221 102.295 136.964 103.516 137.325ZM128.397 137.325C128.977 137.496 130.292 138.684 130.292 139.037C130.292 139.215 129.941 139.24 127.441 139.24C124.143 139.24 124.169 139.253 125.27 138.157C126.209 137.221 127.177 136.964 128.397 137.325ZM93.3585 141.695C93.3585 142.304 93.9568 144.024 94.4875 144.941C95.1084 146.013 96.81 147.713 97.8964 148.345C99.5799 149.325 102.104 149.838 103.429 149.468C104.623 149.136 105.67 147.747 105.67 146.496C105.67 144.89 104.165 143.386 102.559 143.386C101.737 143.386 101.088 143.09 100.389 142.395C100.015 142.023 99.7084 141.627 99.7084 141.516C99.7084 141.334 100.653 141.313 108.974 141.313H118.24V141.695C118.24 142.304 118.838 144.024 119.369 144.941C119.99 146.013 121.691 147.713 122.778 148.345C124.461 149.325 126.985 149.838 128.31 149.468C129.505 149.136 130.551 147.747 130.551 146.496C130.551 144.89 129.046 143.386 127.441 143.386C126.618 143.386 125.97 143.09 125.27 142.395C124.896 142.023 124.59 141.627 124.59 141.516C124.59 141.334 125.404 141.313 132.447 141.313C138.238 141.313 140.445 141.355 140.838 141.471C141.55 141.681 142.623 142.754 142.834 143.466C142.942 143.832 142.991 145.203 142.991 147.839V151.678H124.649H106.306L105.988 151.996C105.787 152.197 105.67 152.462 105.67 152.715C105.67 152.967 105.787 153.233 105.988 153.433L106.306 153.751H124.649H142.991V170.028C142.991 182.43 142.954 186.433 142.834 186.839C142.623 187.551 141.55 188.624 140.838 188.834C140.063 189.063 89.9371 189.063 89.1619 188.834C88.4501 188.624 87.3765 187.551 87.1662 186.839C87.0462 186.433 87.0086 182.43 87.0086 170.028V153.751H94.9842H102.96L103.278 153.433C103.699 153.012 103.699 152.417 103.278 151.996L102.96 151.678H94.9842H87.0086V147.839C87.0086 145.203 87.058 143.832 87.1662 143.466C87.3613 142.806 88.446 141.683 89.0821 141.482C89.3315 141.404 90.3959 141.334 91.4471 141.326L93.3585 141.313V141.695ZM93.2289 160.139C92.5929 160.34 91.5081 161.463 91.3131 162.123C91.0998 162.844 91.0998 167.46 91.3131 168.182C91.5234 168.894 92.5969 169.967 93.3088 170.177C94.1493 170.426 98.7237 170.39 99.4894 170.129C100.223 169.879 101.143 168.916 101.369 168.163C101.576 167.471 101.576 162.834 101.369 162.142C101.284 161.859 100.962 161.348 100.654 161.005C99.8048 160.06 99.4073 159.967 96.2836 159.983C94.7876 159.991 93.4898 160.057 93.2289 160.139ZM105.67 160.139C105.034 160.34 103.949 161.463 103.754 162.123C103.54 162.844 103.54 167.46 103.754 168.182C103.964 168.894 105.038 169.967 105.749 170.177C106.59 170.426 111.164 170.39 111.93 170.129C112.663 169.879 113.583 168.916 113.809 168.163C114.017 167.471 114.017 162.834 113.809 162.142C113.724 161.859 113.403 161.348 113.095 161.005C112.245 160.06 111.848 159.967 108.724 159.983C107.228 159.991 105.93 160.057 105.67 160.139ZM118.11 160.139C117.474 160.34 116.389 161.463 116.194 162.123C116.095 162.461 116.037 163.571 116.037 165.152C116.037 166.734 116.095 167.844 116.194 168.182C116.405 168.894 117.478 169.967 118.19 170.177C119.03 170.426 123.605 170.39 124.371 170.129C125.104 169.879 126.024 168.916 126.25 168.163C126.457 167.471 126.457 162.834 126.25 162.142C126.165 161.859 125.844 161.348 125.536 161.005C124.686 160.06 124.288 159.967 121.165 159.983C119.669 159.991 118.371 160.057 118.11 160.139ZM130.551 160.139C129.915 160.34 128.83 161.463 128.635 162.123C128.535 162.461 128.477 163.571 128.477 165.152C128.477 166.734 128.535 167.844 128.635 168.182C128.845 168.894 129.919 169.967 130.631 170.177C131.471 170.426 136.045 170.39 136.811 170.129C137.544 169.879 138.465 168.916 138.69 168.163C138.898 167.471 138.898 162.834 138.69 162.142C138.606 161.859 138.284 161.348 137.976 161.005C137.127 160.06 136.729 159.967 133.605 159.983C132.109 159.991 130.812 160.057 130.551 160.139ZM99.1311 162.361C99.4467 162.676 99.4492 162.699 99.4492 165.152C99.4492 168.483 99.6701 168.262 96.3391 168.262C93.0081 168.262 93.2289 168.483 93.2289 165.152C93.2289 161.822 93.0081 162.043 96.3391 162.043C98.793 162.043 98.8157 162.046 99.1311 162.361ZM111.572 162.361C111.887 162.676 111.89 162.699 111.89 165.152C111.89 168.483 112.111 168.262 108.78 168.262C105.449 168.262 105.67 168.483 105.67 165.152C105.67 161.822 105.449 162.043 108.78 162.043C111.234 162.043 111.256 162.046 111.572 162.361ZM124.012 162.361C124.328 162.676 124.33 162.699 124.33 165.152C124.33 167.606 124.328 167.628 124.012 167.944C123.697 168.259 123.674 168.262 121.22 168.262C117.889 168.262 118.11 168.483 118.11 165.152C118.11 162.699 118.113 162.676 118.428 162.361C118.744 162.046 118.766 162.043 121.22 162.043C123.674 162.043 123.697 162.046 124.012 162.361ZM136.453 162.361C136.768 162.676 136.771 162.699 136.771 165.152C136.771 167.606 136.768 167.628 136.453 167.944C136.137 168.259 136.115 168.262 133.661 168.262C130.33 168.262 130.551 168.483 130.551 165.152C130.551 162.699 130.553 162.676 130.869 162.361C131.184 162.046 131.207 162.043 133.661 162.043C136.115 162.043 136.137 162.046 136.453 162.361ZM93.2289 172.577C92.5929 172.778 91.5081 173.901 91.3131 174.561C91.0998 175.282 91.0998 179.898 91.3131 180.62C91.5234 181.332 92.5969 182.405 93.3088 182.615C94.1493 182.864 98.7237 182.828 99.4894 182.567C100.223 182.317 101.143 181.354 101.369 180.601C101.576 179.909 101.576 175.272 101.369 174.58C101.284 174.297 100.962 173.786 100.654 173.443C99.8048 172.498 99.4073 172.405 96.2836 172.421C94.7876 172.429 93.4898 172.495 93.2289 172.577ZM105.67 172.577C105.034 172.778 103.949 173.901 103.754 174.561C103.54 175.282 103.54 179.898 103.754 180.62C103.964 181.332 105.038 182.405 105.749 182.615C106.59 182.864 111.164 182.828 111.93 182.567C112.663 182.317 113.583 181.354 113.809 180.601C114.017 179.909 114.017 175.272 113.809 174.58C113.724 174.297 113.403 173.786 113.095 173.443C112.245 172.498 111.848 172.405 108.724 172.421C107.228 172.429 105.93 172.495 105.67 172.577ZM118.11 172.577C117.474 172.778 116.389 173.901 116.194 174.561C116.095 174.898 116.037 176.009 116.037 177.59C116.037 179.172 116.095 180.282 116.194 180.62C116.405 181.332 117.478 182.405 118.19 182.615C119.03 182.864 123.605 182.828 124.371 182.567C125.104 182.317 126.024 181.354 126.25 180.601C126.457 179.909 126.457 175.272 126.25 174.58C126.165 174.297 125.844 173.786 125.536 173.443C124.686 172.498 124.288 172.405 121.165 172.421C119.669 172.429 118.371 172.495 118.11 172.577ZM130.551 172.577C129.915 172.778 128.83 173.901 128.635 174.561C128.535 174.898 128.477 176.009 128.477 177.59C128.477 179.172 128.535 180.282 128.635 180.62C128.845 181.332 129.919 182.405 130.631 182.615C131.471 182.864 136.045 182.828 136.811 182.567C137.544 182.317 138.465 181.354 138.69 180.601C138.898 179.909 138.898 175.272 138.69 174.58C138.606 174.297 138.284 173.786 137.976 173.443C137.127 172.498 136.729 172.405 133.605 172.421C132.109 172.429 130.812 172.495 130.551 172.577ZM99.1311 174.799C99.4467 175.114 99.4492 175.137 99.4492 177.59C99.4492 180.921 99.6701 180.7 96.3391 180.7C93.0081 180.7 93.2289 180.921 93.2289 177.59C93.2289 174.26 93.0081 174.481 96.3391 174.481C98.793 174.481 98.8157 174.483 99.1311 174.799ZM111.572 174.799C111.887 175.114 111.89 175.137 111.89 177.59C111.89 180.921 112.111 180.7 108.78 180.7C105.449 180.7 105.67 180.921 105.67 177.59C105.67 174.26 105.449 174.481 108.78 174.481C111.234 174.481 111.256 174.483 111.572 174.799ZM124.012 174.799C124.328 175.114 124.33 175.137 124.33 177.59C124.33 180.044 124.328 180.066 124.012 180.382C123.697 180.697 123.674 180.7 121.22 180.7C117.889 180.7 118.11 180.921 118.11 177.59C118.11 175.137 118.113 175.114 118.428 174.799C118.744 174.483 118.766 174.481 121.22 174.481C123.674 174.481 123.697 174.483 124.012 174.799ZM136.453 174.799C136.768 175.114 136.771 175.137 136.771 177.59C136.771 180.044 136.768 180.066 136.453 180.382C136.137 180.697 136.115 180.7 133.661 180.7C130.33 180.7 130.551 180.921 130.551 177.59C130.551 175.137 130.553 175.114 130.869 174.799C131.184 174.483 131.207 174.481 133.661 174.481C136.115 174.481 136.137 174.483 136.453 174.799Z" fill="#0066FF"/>
<path fill-rule="evenodd" clip-rule="evenodd" d="M100.942 131.078C98.3712 131.543 95.8328 133.33 94.4891 135.62C93.9638 136.516 93.3585 138.243 93.3585 138.845V139.214L91.1161 139.26L88.8736 139.305L87.8946 139.789C86.7155 140.372 85.9807 141.122 85.4102 142.326L85 143.192V165.159V187.127L85.484 188.106C86.0669 189.285 86.8172 190.019 88.022 190.59L88.8877 191H115H141.112L141.978 190.59C143.183 190.019 143.933 189.285 144.516 188.106L145 187.127V165.159V143.192L144.59 142.326C144.019 141.122 143.284 140.372 142.105 139.789L141.126 139.305L138.884 139.26L136.641 139.214V138.845C136.641 138.246 136.038 136.519 135.511 135.612C134.884 134.532 133.187 132.835 132.106 132.208C131.643 131.939 130.797 131.564 130.227 131.376C129.316 131.074 128.978 131.032 127.441 131.028C125.81 131.024 125.614 131.051 124.556 131.424C123.931 131.645 123.086 132.021 122.677 132.261C121.677 132.847 119.972 134.576 119.37 135.612C118.839 136.527 118.24 138.248 118.24 138.858V139.24H115H111.76V138.858C111.76 138.248 111.161 136.527 110.63 135.612C110.003 134.532 108.306 132.835 107.225 132.208C105.921 131.451 104.551 131.067 102.948 131.01C102.2 130.983 101.297 131.013 100.942 131.078ZM104.908 133.441C106.103 133.877 106.863 134.35 107.675 135.162C108.483 135.97 108.962 136.736 109.385 137.903C109.869 139.235 109.866 139.24 108.65 139.24C107.86 139.24 107.613 139.198 107.613 139.063C107.613 138.966 107.409 138.477 107.159 137.977C106.606 136.872 105.828 136.124 104.656 135.569C103.872 135.198 103.674 135.159 102.553 135.159C101.384 135.159 101.26 135.186 100.336 135.643C99.1561 136.226 98.4215 136.976 97.8508 138.18C97.4794 138.964 97.4406 139.163 97.4406 140.283C97.4406 141.451 97.4678 141.576 97.9246 142.5C98.7589 144.188 100.28 145.247 102.113 145.419C102.796 145.482 103.071 145.57 103.299 145.798C103.963 146.462 103.445 147.532 102.459 147.532C100.722 147.532 98.7655 146.685 97.4383 145.358C93.9464 141.867 94.9225 135.998 99.3583 133.815C99.9429 133.527 100.713 133.233 101.069 133.162C102.122 132.952 103.924 133.083 104.908 133.441ZM129.789 133.441C130.984 133.877 131.745 134.35 132.557 135.162C133.365 135.97 133.843 136.736 134.266 137.903C134.75 139.235 134.747 139.24 133.531 139.24C132.741 139.24 132.495 139.198 132.495 139.063C132.495 138.966 132.29 138.477 132.04 137.977C131.487 136.872 130.709 136.124 129.537 135.569C128.753 135.198 128.555 135.159 127.434 135.159C126.266 135.159 126.141 135.186 125.217 135.643C124.037 136.226 123.303 136.976 122.732 138.18C122.361 138.964 122.322 139.163 122.322 140.283C122.322 141.451 122.349 141.576 122.806 142.5C123.64 144.188 125.161 145.247 126.995 145.419C127.677 145.482 127.953 145.57 128.181 145.798C128.845 146.462 128.326 147.532 127.341 147.532C125.603 147.532 123.647 146.685 122.319 145.358C118.828 141.867 119.804 135.998 124.239 133.815C124.824 133.527 125.594 133.233 125.95 133.162C127.004 132.952 128.806 133.083 129.789 133.441ZM103.516 137.325C104.096 137.496 105.41 138.684 105.41 139.037C105.41 139.215 105.06 139.24 102.559 139.24C99.2621 139.24 99.2882 139.253 100.389 138.157C101.328 137.221 102.295 136.964 103.516 137.325ZM128.397 137.325C128.977 137.496 130.292 138.684 130.292 139.037C130.292 139.215 129.941 139.24 127.441 139.24C124.143 139.24 124.169 139.253 125.27 138.157C126.209 137.221 127.177 136.964 128.397 137.325ZM93.3585 141.695C93.3585 142.304 93.9568 144.024 94.4875 144.941C95.1084 146.013 96.81 147.713 97.8964 148.345C99.5799 149.325 102.104 149.838 103.429 149.468C104.623 149.136 105.67 147.747 105.67 146.496C105.67 144.89 104.165 143.386 102.559 143.386C101.737 143.386 101.088 143.09 100.389 142.395C100.015 142.023 99.7084 141.627 99.7084 141.516C99.7084 141.334 100.653 141.313 108.974 141.313H118.24V141.695C118.24 142.304 118.838 144.024 119.369 144.941C119.99 146.013 121.691 147.713 122.778 148.345C124.461 149.325 126.985 149.838 128.31 149.468C129.505 149.136 130.551 147.747 130.551 146.496C130.551 144.89 129.046 143.386 127.441 143.386C126.618 143.386 125.97 143.09 125.27 142.395C124.896 142.023 124.59 141.627 124.59 141.516C124.59 141.334 125.404 141.313 132.447 141.313C138.238 141.313 140.445 141.355 140.838 141.471C141.55 141.681 142.623 142.754 142.834 143.466C142.942 143.832 142.991 145.203 142.991 147.839V151.678H124.649H106.306L105.988 151.996C105.787 152.197 105.67 152.462 105.67 152.715C105.67 152.967 105.787 153.233 105.988 153.433L106.306 153.751H124.649H142.991V170.028C142.991 182.43 142.954 186.433 142.834 186.839C142.623 187.551 141.55 188.624 140.838 188.834C140.063 189.063 89.9371 189.063 89.1619 188.834C88.4501 188.624 87.3765 187.551 87.1662 186.839C87.0462 186.433 87.0086 182.43 87.0086 170.028V153.751H94.9842H102.96L103.278 153.433C103.699 153.012 103.699 152.417 103.278 151.996L102.96 151.678H94.9842H87.0086V147.839C87.0086 145.203 87.058 143.832 87.1662 143.466C87.3613 142.806 88.446 141.683 89.0821 141.482C89.3315 141.404 90.3959 141.334 91.4471 141.326L93.3585 141.313V141.695ZM93.2289 160.139C92.5929 160.34 91.5081 161.463 91.3131 162.123C91.0998 162.844 91.0998 167.46 91.3131 168.182C91.5234 168.894 92.5969 169.967 93.3088 170.177C94.1493 170.426 98.7237 170.39 99.4894 170.129C100.223 169.879 101.143 168.916 101.369 168.163C101.576 167.471 101.576 162.834 101.369 162.142C101.284 161.859 100.962 161.348 100.654 161.005C99.8048 160.06 99.4073 159.967 96.2836 159.983C94.7876 159.991 93.4898 160.057 93.2289 160.139ZM105.67 160.139C105.034 160.34 103.949 161.463 103.754 162.123C103.54 162.844 103.54 167.46 103.754 168.182C103.964 168.894 105.038 169.967 105.749 170.177C106.59 170.426 111.164 170.39 111.93 170.129C112.663 169.879 113.583 168.916 113.809 168.163C114.017 167.471 114.017 162.834 113.809 162.142C113.724 161.859 113.403 161.348 113.095 161.005C112.245 160.06 111.848 159.967 108.724 159.983C107.228 159.991 105.93 160.057 105.67 160.139ZM118.11 160.139C117.474 160.34 116.389 161.463 116.194 162.123C116.095 162.461 116.037 163.571 116.037 165.152C116.037 166.734 116.095 167.844 116.194 168.182C116.405 168.894 117.478 169.967 118.19 170.177C119.03 170.426 123.605 170.39 124.371 170.129C125.104 169.879 126.024 168.916 126.25 168.163C126.457 167.471 126.457 162.834 126.25 162.142C126.165 161.859 125.844 161.348 125.536 161.005C124.686 160.06 124.288 159.967 121.165 159.983C119.669 159.991 118.371 160.057 118.11 160.139ZM130.551 160.139C129.915 160.34 128.83 161.463 128.635 162.123C128.535 162.461 128.477 163.571 128.477 165.152C128.477 166.734 128.535 167.844 128.635 168.182C128.845 168.894 129.919 169.967 130.631 170.177C131.471 170.426 136.045 170.39 136.811 170.129C137.544 169.879 138.465 168.916 138.69 168.163C138.898 167.471 138.898 162.834 138.69 162.142C138.606 161.859 138.284 161.348 137.976 161.005C137.127 160.06 136.729 159.967 133.605 159.983C132.109 159.991 130.812 160.057 130.551 160.139ZM99.1311 162.361C99.4467 162.676 99.4492 162.699 99.4492 165.152C99.4492 168.483 99.6701 168.262 96.3391 168.262C93.0081 168.262 93.2289 168.483 93.2289 165.152C93.2289 161.822 93.0081 162.043 96.3391 162.043C98.793 162.043 98.8157 162.046 99.1311 162.361ZM111.572 162.361C111.887 162.676 111.89 162.699 111.89 165.152C111.89 168.483 112.111 168.262 108.78 168.262C105.449 168.262 105.67 168.483 105.67 165.152C105.67 161.822 105.449 162.043 108.78 162.043C111.234 162.043 111.256 162.046 111.572 162.361ZM124.012 162.361C124.328 162.676 124.33 162.699 124.33 165.152C124.33 167.606 124.328 167.628 124.012 167.944C123.697 168.259 123.674 168.262 121.22 168.262C117.889 168.262 118.11 168.483 118.11 165.152C118.11 162.699 118.113 162.676 118.428 162.361C118.744 162.046 118.766 162.043 121.22 162.043C123.674 162.043 123.697 162.046 124.012 162.361ZM136.453 162.361C136.768 162.676 136.771 162.699 136.771 165.152C136.771 167.606 136.768 167.628 136.453 167.944C136.137 168.259 136.115 168.262 133.661 168.262C130.33 168.262 130.551 168.483 130.551 165.152C130.551 162.699 130.553 162.676 130.869 162.361C131.184 162.046 131.207 162.043 133.661 162.043C136.115 162.043 136.137 162.046 136.453 162.361ZM93.2289 172.577C92.5929 172.778 91.5081 173.901 91.3131 174.561C91.0998 175.282 91.0998 179.898 91.3131 180.62C91.5234 181.332 92.5969 182.405 93.3088 182.615C94.1493 182.864 98.7237 182.828 99.4894 182.567C100.223 182.317 101.143 181.354 101.369 180.601C101.576 179.909 101.576 175.272 101.369 174.58C101.284 174.297 100.962 173.786 100.654 173.443C99.8048 172.498 99.4073 172.405 96.2836 172.421C94.7876 172.429 93.4898 172.495 93.2289 172.577ZM105.67 172.577C105.034 172.778 103.949 173.901 103.754 174.561C103.54 175.282 103.54 179.898 103.754 180.62C103.964 181.332 105.038 182.405 105.749 182.615C106.59 182.864 111.164 182.828 111.93 182.567C112.663 182.317 113.583 181.354 113.809 180.601C114.017 179.909 114.017 175.272 113.809 174.58C113.724 174.297 113.403 173.786 113.095 173.443C112.245 172.498 111.848 172.405 108.724 172.421C107.228 172.429 105.93 172.495 105.67 172.577ZM118.11 172.577C117.474 172.778 116.389 173.901 116.194 174.561C116.095 174.898 116.037 176.009 116.037 177.59C116.037 179.172 116.095 180.282 116.194 180.62C116.405 181.332 117.478 182.405 118.19 182.615C119.03 182.864 123.605 182.828 124.371 182.567C125.104 182.317 126.024 181.354 126.25 180.601C126.457 179.909 126.457 175.272 126.25 174.58C126.165 174.297 125.844 173.786 125.536 173.443C124.686 172.498 124.288 172.405 121.165 172.421C119.669 172.429 118.371 172.495 118.11 172.577ZM130.551 172.577C129.915 172.778 128.83 173.901 128.635 174.561C128.535 174.898 128.477 176.009 128.477 177.59C128.477 179.172 128.535 180.282 128.635 180.62C128.845 181.332 129.919 182.405 130.631 182.615C131.471 182.864 136.045 182.828 136.811 182.567C137.544 182.317 138.465 181.354 138.69 180.601C138.898 179.909 138.898 175.272 138.69 174.58C138.606 174.297 138.284 173.786 137.976 173.443C137.127 172.498 136.729 172.405 133.605 172.421C132.109 172.429 130.812 172.495 130.551 172.577ZM99.1311 174.799C99.4467 175.114 99.4492 175.137 99.4492 177.59C99.4492 180.921 99.6701 180.7 96.3391 180.7C93.0081 180.7 93.2289 180.921 93.2289 177.59C93.2289 174.26 93.0081 174.481 96.3391 174.481C98.793 174.481 98.8157 174.483 99.1311 174.799ZM111.572 174.799C111.887 175.114 111.89 175.137 111.89 177.59C111.89 180.921 112.111 180.7 108.78 180.7C105.449 180.7 105.67 180.921 105.67 177.59C105.67 174.26 105.449 174.481 108.78 174.481C111.234 174.481 111.256 174.483 111.572 174.799ZM124.012 174.799C124.328 175.114 124.33 175.137 124.33 177.59C124.33 180.044 124.328 180.066 124.012 180.382C123.697 180.697 123.674 180.7 121.22 180.7C117.889 180.7 118.11 180.921 118.11 177.59C118.11 175.137 118.113 175.114 118.428 174.799C118.744 174.483 118.766 174.481 121.22 174.481C123.674 174.481 123.697 174.483 124.012 174.799ZM136.453 174.799C136.768 175.114 136.771 175.137 136.771 177.59C136.771 180.044 136.768 180.066 136.453 180.382C136.137 180.697 136.115 180.7 133.661 180.7C130.33 180.7 130.551 180.921 130.551 177.59C130.551 175.137 130.553 175.114 130.869 174.799C131.184 174.483 131.207 174.481 133.661 174.481C136.115 174.481 136.137 174.483 136.453 174.799Z" fill="url(#paint0_radial_1210_380)" fill-opacity="0.7"/>
<path fill-rule="evenodd" clip-rule="evenodd" d="M100.942 131.078C98.3712 131.543 95.8328 133.33 94.4891 135.62C93.9638 136.516 93.3585 138.243 93.3585 138.845V139.214L91.1161 139.26L88.8736 139.305L87.8946 139.789C86.7155 140.372 85.9807 141.122 85.4102 142.326L85 143.192V165.159V187.127L85.484 188.106C86.0669 189.285 86.8172 190.019 88.022 190.59L88.8877 191H115H141.112L141.978 190.59C143.183 190.019 143.933 189.285 144.516 188.106L145 187.127V165.159V143.192L144.59 142.326C144.019 141.122 143.284 140.372 142.105 139.789L141.126 139.305L138.884 139.26L136.641 139.214V138.845C136.641 138.246 136.038 136.519 135.511 135.612C134.884 134.532 133.187 132.835 132.106 132.208C131.643 131.939 130.797 131.564 130.227 131.376C129.316 131.074 128.978 131.032 127.441 131.028C125.81 131.024 125.614 131.051 124.556 131.424C123.931 131.645 123.086 132.021 122.677 132.261C121.677 132.847 119.972 134.576 119.37 135.612C118.839 136.527 118.24 138.248 118.24 138.858V139.24H115H111.76V138.858C111.76 138.248 111.161 136.527 110.63 135.612C110.003 134.532 108.306 132.835 107.225 132.208C105.921 131.451 104.551 131.067 102.948 131.01C102.2 130.983 101.297 131.013 100.942 131.078ZM104.908 133.441C106.103 133.877 106.863 134.35 107.675 135.162C108.483 135.97 108.962 136.736 109.385 137.903C109.869 139.235 109.866 139.24 108.65 139.24C107.86 139.24 107.613 139.198 107.613 139.063C107.613 138.966 107.409 138.477 107.159 137.977C106.606 136.872 105.828 136.124 104.656 135.569C103.872 135.198 103.674 135.159 102.553 135.159C101.384 135.159 101.26 135.186 100.336 135.643C99.1561 136.226 98.4215 136.976 97.8508 138.18C97.4794 138.964 97.4406 139.163 97.4406 140.283C97.4406 141.451 97.4678 141.576 97.9246 142.5C98.7589 144.188 100.28 145.247 102.113 145.419C102.796 145.482 103.071 145.57 103.299 145.798C103.963 146.462 103.445 147.532 102.459 147.532C100.722 147.532 98.7655 146.685 97.4383 145.358C93.9464 141.867 94.9225 135.998 99.3583 133.815C99.9429 133.527 100.713 133.233 101.069 133.162C102.122 132.952 103.924 133.083 104.908 133.441ZM129.789 133.441C130.984 133.877 131.745 134.35 132.557 135.162C133.365 135.97 133.843 136.736 134.266 137.903C134.75 139.235 134.747 139.24 133.531 139.24C132.741 139.24 132.495 139.198 132.495 139.063C132.495 138.966 132.29 138.477 132.04 137.977C131.487 136.872 130.709 136.124 129.537 135.569C128.753 135.198 128.555 135.159 127.434 135.159C126.266 135.159 126.141 135.186 125.217 135.643C124.037 136.226 123.303 136.976 122.732 138.18C122.361 138.964 122.322 139.163 122.322 140.283C122.322 141.451 122.349 141.576 122.806 142.5C123.64 144.188 125.161 145.247 126.995 145.419C127.677 145.482 127.953 145.57 128.181 145.798C128.845 146.462 128.326 147.532 127.341 147.532C125.603 147.532 123.647 146.685 122.319 145.358C118.828 141.867 119.804 135.998 124.239 133.815C124.824 133.527 125.594 133.233 125.95 133.162C127.004 132.952 128.806 133.083 129.789 133.441ZM103.516 137.325C104.096 137.496 105.41 138.684 105.41 139.037C105.41 139.215 105.06 139.24 102.559 139.24C99.2621 139.24 99.2882 139.253 100.389 138.157C101.328 137.221 102.295 136.964 103.516 137.325ZM128.397 137.325C128.977 137.496 130.292 138.684 130.292 139.037C130.292 139.215 129.941 139.24 127.441 139.24C124.143 139.24 124.169 139.253 125.27 138.157C126.209 137.221 127.177 136.964 128.397 137.325ZM93.3585 141.695C93.3585 142.304 93.9568 144.024 94.4875 144.941C95.1084 146.013 96.81 147.713 97.8964 148.345C99.5799 149.325 102.104 149.838 103.429 149.468C104.623 149.136 105.67 147.747 105.67 146.496C105.67 144.89 104.165 143.386 102.559 143.386C101.737 143.386 101.088 143.09 100.389 142.395C100.015 142.023 99.7084 141.627 99.7084 141.516C99.7084 141.334 100.653 141.313 108.974 141.313H118.24V141.695C118.24 142.304 118.838 144.024 119.369 144.941C119.99 146.013 121.691 147.713 122.778 148.345C124.461 149.325 126.985 149.838 128.31 149.468C129.505 149.136 130.551 147.747 130.551 146.496C130.551 144.89 129.046 143.386 127.441 143.386C126.618 143.386 125.97 143.09 125.27 142.395C124.896 142.023 124.59 141.627 124.59 141.516C124.59 141.334 125.404 141.313 132.447 141.313C138.238 141.313 140.445 141.355 140.838 141.471C141.55 141.681 142.623 142.754 142.834 143.466C142.942 143.832 142.991 145.203 142.991 147.839V151.678H124.649H106.306L105.988 151.996C105.787 152.197 105.67 152.462 105.67 152.715C105.67 152.967 105.787 153.233 105.988 153.433L106.306 153.751H124.649H142.991V170.028C142.991 182.43 142.954 186.433 142.834 186.839C142.623 187.551 141.55 188.624 140.838 188.834C140.063 189.063 89.9371 189.063 89.1619 188.834C88.4501 188.624 87.3765 187.551 87.1662 186.839C87.0462 186.433 87.0086 182.43 87.0086 170.028V153.751H94.9842H102.96L103.278 153.433C103.699 153.012 103.699 152.417 103.278 151.996L102.96 151.678H94.9842H87.0086V147.839C87.0086 145.203 87.058 143.832 87.1662 143.466C87.3613 142.806 88.446 141.683 89.0821 141.482C89.3315 141.404 90.3959 141.334 91.4471 141.326L93.3585 141.313V141.695ZM93.2289 160.139C92.5929 160.34 91.5081 161.463 91.3131 162.123C91.0998 162.844 91.0998 167.46 91.3131 168.182C91.5234 168.894 92.5969 169.967 93.3088 170.177C94.1493 170.426 98.7237 170.39 99.4894 170.129C100.223 169.879 101.143 168.916 101.369 168.163C101.576 167.471 101.576 162.834 101.369 162.142C101.284 161.859 100.962 161.348 100.654 161.005C99.8048 160.06 99.4073 159.967 96.2836 159.983C94.7876 159.991 93.4898 160.057 93.2289 160.139ZM105.67 160.139C105.034 160.34 103.949 161.463 103.754 162.123C103.54 162.844 103.54 167.46 103.754 168.182C103.964 168.894 105.038 169.967 105.749 170.177C106.59 170.426 111.164 170.39 111.93 170.129C112.663 169.879 113.583 168.916 113.809 168.163C114.017 167.471 114.017 162.834 113.809 162.142C113.724 161.859 113.403 161.348 113.095 161.005C112.245 160.06 111.848 159.967 108.724 159.983C107.228 159.991 105.93 160.057 105.67 160.139ZM118.11 160.139C117.474 160.34 116.389 161.463 116.194 162.123C116.095 162.461 116.037 163.571 116.037 165.152C116.037 166.734 116.095 167.844 116.194 168.182C116.405 168.894 117.478 169.967 118.19 170.177C119.03 170.426 123.605 170.39 124.371 170.129C125.104 169.879 126.024 168.916 126.25 168.163C126.457 167.471 126.457 162.834 126.25 162.142C126.165 161.859 125.844 161.348 125.536 161.005C124.686 160.06 124.288 159.967 121.165 159.983C119.669 159.991 118.371 160.057 118.11 160.139ZM130.551 160.139C129.915 160.34 128.83 161.463 128.635 162.123C128.535 162.461 128.477 163.571 128.477 165.152C128.477 166.734 128.535 167.844 128.635 168.182C128.845 168.894 129.919 169.967 130.631 170.177C131.471 170.426 136.045 170.39 136.811 170.129C137.544 169.879 138.465 168.916 138.69 168.163C138.898 167.471 138.898 162.834 138.69 162.142C138.606 161.859 138.284 161.348 137.976 161.005C137.127 160.06 136.729 159.967 133.605 159.983C132.109 159.991 130.812 160.057 130.551 160.139ZM99.1311 162.361C99.4467 162.676 99.4492 162.699 99.4492 165.152C99.4492 168.483 99.6701 168.262 96.3391 168.262C93.0081 168.262 93.2289 168.483 93.2289 165.152C93.2289 161.822 93.0081 162.043 96.3391 162.043C98.793 162.043 98.8157 162.046 99.1311 162.361ZM111.572 162.361C111.887 162.676 111.89 162.699 111.89 165.152C111.89 168.483 112.111 168.262 108.78 168.262C105.449 168.262 105.67 168.483 105.67 165.152C105.67 161.822 105.449 162.043 108.78 162.043C111.234 162.043 111.256 162.046 111.572 162.361ZM124.012 162.361C124.328 162.676 124.33 162.699 124.33 165.152C124.33 167.606 124.328 167.628 124.012 167.944C123.697 168.259 123.674 168.262 121.22 168.262C117.889 168.262 118.11 168.483 118.11 165.152C118.11 162.699 118.113 162.676 118.428 162.361C118.744 162.046 118.766 162.043 121.22 162.043C123.674 162.043 123.697 162.046 124.012 162.361ZM136.453 162.361C136.768 162.676 136.771 162.699 136.771 165.152C136.771 167.606 136.768 167.628 136.453 167.944C136.137 168.259 136.115 168.262 133.661 168.262C130.33 168.262 130.551 168.483 130.551 165.152C130.551 162.699 130.553 162.676 130.869 162.361C131.184 162.046 131.207 162.043 133.661 162.043C136.115 162.043 136.137 162.046 136.453 162.361ZM93.2289 172.577C92.5929 172.778 91.5081 173.901 91.3131 174.561C91.0998 175.282 91.0998 179.898 91.3131 180.62C91.5234 181.332 92.5969 182.405 93.3088 182.615C94.1493 182.864 98.7237 182.828 99.4894 182.567C100.223 182.317 101.143 181.354 101.369 180.601C101.576 179.909 101.576 175.272 101.369 174.58C101.284 174.297 100.962 173.786 100.654 173.443C99.8048 172.498 99.4073 172.405 96.2836 172.421C94.7876 172.429 93.4898 172.495 93.2289 172.577ZM105.67 172.577C105.034 172.778 103.949 173.901 103.754 174.561C103.54 175.282 103.54 179.898 103.754 180.62C103.964 181.332 105.038 182.405 105.749 182.615C106.59 182.864 111.164 182.828 111.93 182.567C112.663 182.317 113.583 181.354 113.809 180.601C114.017 179.909 114.017 175.272 113.809 174.58C113.724 174.297 113.403 173.786 113.095 173.443C112.245 172.498 111.848 172.405 108.724 172.421C107.228 172.429 105.93 172.495 105.67 172.577ZM118.11 172.577C117.474 172.778 116.389 173.901 116.194 174.561C116.095 174.898 116.037 176.009 116.037 177.59C116.037 179.172 116.095 180.282 116.194 180.62C116.405 181.332 117.478 182.405 118.19 182.615C119.03 182.864 123.605 182.828 124.371 182.567C125.104 182.317 126.024 181.354 126.25 180.601C126.457 179.909 126.457 175.272 126.25 174.58C126.165 174.297 125.844 173.786 125.536 173.443C124.686 172.498 124.288 172.405 121.165 172.421C119.669 172.429 118.371 172.495 118.11 172.577ZM130.551 172.577C129.915 172.778 128.83 173.901 128.635 174.561C128.535 174.898 128.477 176.009 128.477 177.59C128.477 179.172 128.535 180.282 128.635 180.62C128.845 181.332 129.919 182.405 130.631 182.615C131.471 182.864 136.045 182.828 136.811 182.567C137.544 182.317 138.465 181.354 138.69 180.601C138.898 179.909 138.898 175.272 138.69 174.58C138.606 174.297 138.284 173.786 137.976 173.443C137.127 172.498 136.729 172.405 133.605 172.421C132.109 172.429 130.812 172.495 130.551 172.577ZM99.1311 174.799C99.4467 175.114 99.4492 175.137 99.4492 177.59C99.4492 180.921 99.6701 180.7 96.3391 180.7C93.0081 180.7 93.2289 180.921 93.2289 177.59C93.2289 174.26 93.0081 174.481 96.3391 174.481C98.793 174.481 98.8157 174.483 99.1311 174.799ZM111.572 174.799C111.887 175.114 111.89 175.137 111.89 177.59C111.89 180.921 112.111 180.7 108.78 180.7C105.449 180.7 105.67 180.921 105.67 177.59C105.67 174.26 105.449 174.481 108.78 174.481C111.234 174.481 111.256 174.483 111.572 174.799ZM124.012 174.799C124.328 175.114 124.33 175.137 124.33 177.59C124.33 180.044 124.328 180.066 124.012 180.382C123.697 180.697 123.674 180.7 121.22 180.7C117.889 180.7 118.11 180.921 118.11 177.59C118.11 175.137 118.113 175.114 118.428 174.799C118.744 174.483 118.766 174.481 121.22 174.481C123.674 174.481 123.697 174.483 124.012 174.799ZM136.453 174.799C136.768 175.114 136.771 175.137 136.771 177.59C136.771 180.044 136.768 180.066 136.453 180.382C136.137 180.697 136.115 180.7 133.661 180.7C130.33 180.7 130.551 180.921 130.551 177.59C130.551 175.137 130.553 175.114 130.869 174.799C131.184 174.483 131.207 174.481 133.661 174.481C136.115 174.481 136.137 174.483 136.453 174.799Z" fill="url(#paint1_radial_1210_380)"/>
<g filter="url(#filter1_bdd_1210_380)">
<rect x="100.668" y="147.787" width="69.2534" height="69.2534" rx="10.5861" transform="rotate(-14.312 100.668 147.787)" fill="#D9E2FA" fill-opacity="0.4" shape-rendering="crispEdges"/>
</g>
<defs>
<filter id="filter0_dd_1210_380" x="18.3825" y="57.7818" width="195.319" height="214.519" filterUnits="userSpaceOnUse" color-interpolation-filters="sRGB">
<feFlood flood-opacity="0" result="BackgroundImageFix"/>
<feColorMatrix in="SourceAlpha" type="matrix" values="0 0 0 0 0 0 0 0 0 0 0 0 0 0 0 0 0 0 127 0" result="hardAlpha"/>
<feOffset dx="9.60015" dy="19.2003"/>
<feGaussianBlur stdDeviation="11.8288"/>
<feComposite in2="hardAlpha" operator="out"/>
<feColorMatrix type="matrix" values="0 0 0 0 0.15908 0 0 0 0 0.313986 0 0 0 0 0.495833 0 0 0 0.17 0"/>
<feBlend mode="normal" in2="BackgroundImageFix" result="effect1_dropShadow_1210_380"/>
<feColorMatrix in="SourceAlpha" type="matrix" values="0 0 0 0 0 0 0 0 0 0 0 0 0 0 0 0 0 0 127 0" result="hardAlpha"/>
<feOffset dx="-9.60015" dy="-19.2003"/>
<feGaussianBlur stdDeviation="11.8288"/>
<feComposite in2="hardAlpha" operator="out"/>
<feColorMatrix type="matrix" values="0 0 0 0 1 0 0 0 0 1 0 0 0 0 1 0 0 0 0.7 0"/>
<feBlend mode="normal" in2="effect1_dropShadow_1210_380" result="effect2_dropShadow_1210_380"/>
<feBlend mode="normal" in="SourceGraphic" in2="effect2_dropShadow_1210_380" result="shape"/>
</filter>
<filter id="filter1_bdd_1210_380" x="0.268421" y="0.626297" width="225.741" height="254.324" filterUnits="userSpaceOnUse" color-interpolation-filters="sRGB">
<feFlood flood-opacity="0" result="BackgroundImageFix"/>
<feGaussianBlur in="BackgroundImage" stdDeviation="1.5"/>
<feComposite in2="SourceAlpha" operator="in" result="effect1_backgroundBlur_1210_380"/>
<feColorMatrix in="SourceAlpha" type="matrix" values="0 0 0 0 0 0 0 0 0 0 0 0 0 0 0 0 0 0 127 0" result="hardAlpha"/>
<feOffset dx="10.5861" dy="21.1723"/>
<feGaussianBlur stdDeviation="10.5861"/>
<feComposite in2="hardAlpha" operator="out"/>
<feColorMatrix type="matrix" values="0 0 0 0 0.15908 0 0 0 0 0.313986 0 0 0 0 0.495833 0 0 0 0.17 0"/>
<feBlend mode="normal" in2="effect1_backgroundBlur_1210_380" result="effect2_dropShadow_1210_380"/>
<feColorMatrix in="SourceAlpha" type="matrix" values="0 0 0 0 0 0 0 0 0 0 0 0 0 0 0 0 0 0 127 0" result="hardAlpha"/>
<feOffset dx="-29.6412" dy="-59.2824"/>
<feGaussianBlur stdDeviation="36.5222"/>
<feComposite in2="hardAlpha" operator="out"/>
<feColorMatrix type="matrix" values="0 0 0 0 1 0 0 0 0 1 0 0 0 0 1 0 0 0 0.7 0"/>
<feBlend mode="normal" in2="effect2_dropShadow_1210_380" result="effect3_dropShadow_1210_380"/>
<feBlend mode="normal" in="SourceGraphic" in2="effect3_dropShadow_1210_380" result="shape"/>
</filter>
<radialGradient id="paint0_radial_1210_380" cx="0" cy="0" r="1" gradientUnits="userSpaceOnUse" gradientTransform="translate(100.833 143.5) rotate(51.0441) scale(50.3667)">
<stop stop-color="white" stop-opacity="0.59"/>
<stop offset="0.697917" stop-color="white" stop-opacity="0"/>
<stop offset="1" stop-color="white" stop-opacity="0"/>
</radialGradient>
<radialGradient id="paint1_radial_1210_380" cx="0" cy="0" r="1" gradientUnits="userSpaceOnUse" gradientTransform="translate(136.781 183.5) rotate(-93.6705) scale(51.3553 57.2377)">
<stop stop-opacity="0.23"/>
<stop offset="0.861815" stop-opacity="0"/>
</radialGradient>
</defs>
</svg>
