<svg width="164" height="139" viewBox="0 0 164 139" fill="none" xmlns="http://www.w3.org/2000/svg">
<rect y="20.4541" width="149" height="119" rx="20" transform="rotate(-7.89023 0 20.4541)" fill="url(#paint0_linear_1469_2159)"/>
<path d="M47.8563 50.6683C48.0011 51.713 47.7942 52.6526 47.2355 53.4872C46.6868 54.3086 45.7885 54.9122 44.5406 55.2981L44.5599 55.4374C45.9289 55.4133 47.0794 55.733 48.0113 56.3965C48.9417 57.0484 49.4881 57.9606 49.6506 59.1329C49.805 60.2473 49.6531 61.2858 49.195 62.2484C48.7353 63.1994 47.9082 64.018 46.7137 64.7041C45.5176 65.3786 43.8981 65.8574 41.8551 66.1405L32.5921 67.4243L29.8943 47.958L39.1573 46.6742C40.678 46.4635 42.0644 46.437 43.3167 46.5947C44.5673 46.7408 45.5923 47.137 46.3918 47.7834C47.1912 48.4298 47.6794 49.3914 47.8563 50.6683ZM44.1098 59.6169C44.0037 58.8508 43.6255 58.3412 42.9752 58.0883C42.3349 57.8221 41.4286 57.7702 40.2562 57.9327L36.7565 58.4177L37.3935 63.0144L40.9977 62.5149C41.996 62.3766 42.7944 62.0766 43.393 61.6151C43.9915 61.1535 44.2305 60.4875 44.1098 59.6169ZM42.534 51.8318C42.4504 51.2282 42.1505 50.8142 41.6344 50.59C41.1182 50.3658 40.3958 50.318 39.4672 50.4467L35.7237 50.9655L36.257 54.8135L39.3911 54.3791C40.517 54.2231 41.3477 53.9423 41.883 53.5369C42.4184 53.1314 42.6354 52.5631 42.534 51.8318ZM62.9716 63.5689C61.0447 63.836 59.3539 63.7154 57.8993 63.2071C56.443 62.6873 55.2587 61.7393 54.3463 60.3633C53.4339 58.9872 52.8185 57.15 52.5 54.8516C52.1702 52.472 52.302 50.478 52.8954 48.8696C53.4988 47.248 54.4654 45.9842 55.795 45.0783C57.1362 44.1707 58.7529 43.5858 60.645 43.3236C61.9915 43.137 63.1707 43.1096 64.1828 43.2415C65.2049 43.3601 66.1065 43.5487 66.8876 43.8072L65.89 48.1335C65.0076 47.9127 64.1921 47.7477 63.4435 47.6385C62.6932 47.5177 61.9583 47.5072 61.2386 47.6069C60.3099 47.7356 59.5686 48.0631 59.0145 48.5895C58.4588 49.1042 58.0904 49.8178 57.9092 50.7302C57.7281 51.6426 57.7284 52.7547 57.9102 54.0664C58.0888 55.3548 58.3993 56.4002 58.8417 57.2026C59.2842 58.0049 59.842 58.5724 60.5151 58.905C61.1866 59.226 61.9635 59.3254 62.8457 59.2031C63.9484 59.0503 64.9091 58.7692 65.7279 58.36C66.5451 57.9392 67.3229 57.4054 68.0615 56.7589L68.6913 61.3033C67.9495 61.9267 67.147 62.4106 66.2838 62.755C65.4337 63.1094 64.3297 63.3807 62.9716 63.5689ZM78.6487 40.8285C80.4479 40.5792 82.0458 40.7126 83.4424 41.2289C84.8374 41.7336 85.9798 42.5927 86.8696 43.8063C87.7595 45.0198 88.3355 46.5726 88.5978 48.4647L88.9549 51.0417L76.401 52.7815C76.6666 54.2708 77.2768 55.3871 78.2316 56.1302C79.1964 56.8602 80.4275 57.1214 81.9249 56.9139C83.1669 56.7417 84.2868 56.4564 85.2845 56.0578C86.2822 55.6593 87.2912 55.129 88.3116 54.4671L88.8811 58.5762C87.9836 59.1857 87.022 59.6739 85.9962 60.0408C84.9821 60.4062 83.7263 60.6926 82.2289 60.9001C80.2788 61.1704 78.4994 61.0502 76.8906 60.5397C75.2935 60.0275 73.9632 59.0939 72.9 57.7387C71.8483 56.3819 71.1672 54.5834 70.8567 52.3431C70.5414 50.068 70.6623 48.1228 71.2193 46.5076C71.7862 44.8792 72.7081 43.592 73.9849 42.6461C75.26 41.6886 76.8146 41.0827 78.6487 40.8285ZM79.2071 44.602C78.174 44.7452 77.3609 45.1951 76.7677 45.9516C76.1862 46.7066 75.9413 47.7994 76.0331 49.23L83.4853 48.1972C83.3643 47.4095 83.1219 46.7273 82.758 46.1507C82.4058 45.5725 81.9319 45.1413 81.3365 44.8571C80.7527 44.5712 80.0429 44.4862 79.2071 44.602ZM105.183 37.5239L105.735 41.5112L97.6039 42.6381L99.7491 58.1171L94.4385 58.8531L91.7407 39.3868L105.183 37.5239ZM127.839 44.2686C128.064 45.8937 128.043 47.3637 127.775 48.6784C127.52 49.9916 127.034 51.1414 126.319 52.1278C125.614 53.101 124.706 53.8894 123.594 54.493C122.495 55.0949 121.214 55.4973 119.751 55.7C118.381 55.8898 117.091 55.8438 115.881 55.5619C114.682 55.2785 113.6 54.766 112.633 54.0245C111.677 53.2697 110.88 52.2977 110.242 51.1084C109.615 49.9175 109.189 48.5095 108.964 46.8844C108.665 44.7253 108.795 42.844 109.353 41.2404C109.912 39.6369 110.845 38.3481 112.154 37.3741C113.462 36.4001 115.097 35.7772 117.059 35.5053C118.881 35.2527 120.549 35.418 122.061 36.0011C123.585 36.5825 124.851 37.5665 125.86 38.9529C126.88 40.3377 127.539 42.1096 127.839 44.2686ZM114.379 46.1339C114.556 47.4108 114.844 48.4652 115.244 49.2972C115.643 50.1292 116.169 50.7247 116.822 51.0837C117.475 51.4428 118.278 51.5564 119.23 51.4244C120.17 51.2941 120.9 50.9682 121.419 50.4467C121.95 49.9235 122.288 49.2082 122.435 48.3006C122.593 47.3914 122.583 46.2984 122.406 45.0215C122.228 43.733 121.94 42.6844 121.544 41.8757C121.158 41.0537 120.639 40.469 119.988 40.1215C119.336 39.7741 118.535 39.6663 117.583 39.7982C116.178 39.9929 115.224 40.6162 114.719 41.6681C114.225 42.7184 114.112 44.207 114.379 46.1339ZM60.3321 82.8107C60.4946 83.9831 60.3916 85.0326 60.0231 85.9591C59.6546 86.8856 59.0903 87.6796 58.3302 88.341C57.5816 89.0008 56.7085 89.53 55.7108 89.9285L55.7253 90.033C57.8036 90.0052 59.4401 90.4173 60.6348 91.2692C61.8411 92.1194 62.56 93.3803 62.7917 95.0518C62.9976 96.5376 62.8161 97.9174 62.2473 99.1912C61.6901 100.463 60.7037 101.541 59.2879 102.423C57.8722 103.305 55.9746 103.911 53.595 104.241C52.1904 104.436 50.8627 104.502 49.6117 104.438C48.3739 104.385 47.1889 104.2 46.0566 103.884L45.422 99.3047C46.5903 99.7106 47.7924 99.9759 49.0282 100.1C50.2624 100.213 51.3961 100.198 52.4292 100.055C54.3561 99.7879 55.6567 99.2705 56.3312 98.5026C57.0156 97.7216 57.2741 96.7275 57.1068 95.5203C57.0087 94.8122 56.7459 94.2393 56.3185 93.8017C55.8911 93.364 55.2128 93.0794 54.2836 92.9479C53.3661 92.8148 52.1121 92.8585 50.5219 93.0789L48.5892 93.3467L48.0173 89.2201L49.9848 88.9474C51.5518 88.7303 52.7215 88.4203 53.4939 88.0175C54.2762 87.6015 54.7771 87.118 54.9965 86.567C55.2259 86.0028 55.2947 85.3899 55.203 84.7283C55.0776 83.8229 54.7009 83.1534 54.0729 82.7199C53.4449 82.2863 52.4809 82.1597 51.1808 82.3398C50.3683 82.4525 49.6399 82.6599 48.9956 82.9621C48.3613 83.2512 47.7973 83.5778 47.3035 83.942C46.8082 84.2946 46.3759 84.6325 46.0066 84.9558L43.0027 81.5921C43.9013 80.7341 44.985 79.9746 46.254 79.3137C47.5345 78.6512 49.1034 78.1912 50.9606 77.9338C53.584 77.5703 55.735 77.8105 57.4136 78.6544C59.0922 79.4984 60.0651 80.8838 60.3321 82.8107ZM73.6844 84.5272C75.2398 84.3116 76.6622 84.4162 77.9514 84.8409C79.2523 85.264 80.3306 86.0019 81.1863 87.0545C82.0421 88.1072 82.5866 89.475 82.8198 91.1582C83.074 92.9922 82.9105 94.6298 82.3294 96.0708C81.7583 97.4987 80.7673 98.6712 79.3564 99.5884C77.9571 100.504 76.1373 101.117 73.897 101.428C72.5621 101.613 71.2866 101.671 70.0704 101.603C68.8675 101.545 67.7927 101.345 66.8462 101.003L66.2019 96.3538C67.1484 96.6959 68.2595 96.9442 69.5349 97.0987C70.8204 97.2399 72.0087 97.235 73.0998 97.0838C74.1677 96.9358 75.048 96.6718 75.7407 96.2918C76.4318 95.9003 76.922 95.3828 77.2115 94.7393C77.5109 94.0826 77.5962 93.29 77.4675 92.3613C77.2954 91.1193 76.7456 90.2254 75.8181 89.6796C74.8907 89.1337 73.5622 88.9807 71.8326 89.2204C71.171 89.3121 70.4891 89.4716 69.7872 89.6991C69.0968 89.9249 68.5225 90.1346 68.0642 90.3283L65.7633 89.4759L64.9233 76.3714L78.7308 74.4579L79.363 79.0198L70.2741 80.2794L70.4965 85.3417C70.8799 85.2057 71.2981 85.065 71.7512 84.9194C72.2042 84.7738 72.8486 84.643 73.6844 84.5272ZM102.973 84.0706C103.258 86.1252 103.35 87.9817 103.248 89.6403C103.158 91.2972 102.837 92.7377 102.285 93.9618C101.745 95.1842 100.947 96.1703 99.8915 96.92C98.836 97.6696 97.4957 98.1571 95.8706 98.3823C93.8276 98.6654 92.0787 98.3813 90.6239 97.53C89.1674 96.6671 87.9906 95.304 87.0935 93.4408C86.1949 91.5659 85.5565 89.2646 85.1784 86.5367C84.7972 83.7857 84.7558 81.3957 85.0543 79.3668C85.3629 77.3246 86.0948 75.6911 87.2501 74.4662C88.4053 73.2413 90.0683 72.4785 92.239 72.1776C94.2704 71.8961 96.0143 72.1868 97.4707 73.0497C98.9372 73.8994 100.126 75.2609 101.036 77.1342C101.945 78.9958 102.59 81.3079 102.973 84.0706ZM90.5238 85.7959C90.7925 87.7344 91.1214 89.3392 91.5105 90.6104C91.9096 91.8683 92.4096 92.7868 93.0104 93.3661C93.6112 93.9453 94.3644 94.1722 95.2698 94.0468C96.1636 93.9229 96.8216 93.5063 97.2439 92.7971C97.6761 92.0747 97.9132 91.054 97.9552 89.7349C97.9956 88.4043 97.8807 86.7639 97.6104 84.8138C97.3418 82.8753 97.0071 81.2713 96.6063 80.0018C96.2056 78.7323 95.699 77.8087 95.0866 77.2311C94.4842 76.6402 93.736 76.4067 92.8422 76.5306C91.9368 76.6561 91.2746 77.085 90.8556 77.8174C90.4349 78.5383 90.2044 79.564 90.164 80.8946C90.1352 82.2237 90.2552 83.8574 90.5238 85.7959ZM115.367 97.4372L114.882 93.9374C113.333 94.1166 111.932 94.1629 110.678 94.0764C109.433 93.9768 108.281 93.7756 107.222 93.4728L106.585 88.8761C107.638 89.2153 108.876 89.4873 110.301 89.6922C111.723 89.8854 113.061 89.9366 114.315 89.8457L113.567 84.448C111.633 83.9825 110.068 83.4896 108.872 82.9691C107.686 82.4355 106.792 81.7904 106.19 81.0338C105.599 80.264 105.222 79.2987 105.061 78.1379C104.897 76.9539 105.069 75.889 105.577 74.9432C106.095 73.9841 106.88 73.1654 107.934 72.487C108.988 71.8086 110.243 71.3034 111.699 70.9714L111.33 68.3074L113.715 67.9768L114.075 70.5711C115.428 70.431 116.703 70.4139 117.901 70.52C119.109 70.6129 120.31 70.8309 121.505 71.174L120.433 75.4752C119.427 75.2124 118.426 75.0375 117.432 74.9505C116.45 74.8619 115.53 74.8415 114.673 74.8893L115.385 80.0257C116.739 80.3231 118.036 80.6699 119.274 81.0662C120.512 81.4625 121.556 82.0395 122.406 82.7971C123.257 83.5547 123.778 84.63 123.971 86.0229C124.211 87.7525 123.779 89.2912 122.677 90.6389C121.585 91.985 119.779 92.9511 117.258 93.5372L117.752 97.1066L115.367 97.4372ZM116.683 89.3932C117.477 89.1413 118.041 88.8205 118.378 88.4308C118.713 88.0295 118.842 87.556 118.767 87.0105C118.721 86.6854 118.594 86.4073 118.385 86.1761C118.175 85.9448 117.875 85.7439 117.485 85.5732C117.104 85.3893 116.637 85.2175 116.082 85.0577L116.683 89.3932ZM112.865 79.3812L112.297 75.2895C111.831 75.4251 111.441 75.5975 111.127 75.8066C110.811 76.0042 110.583 76.2369 110.443 76.5048C110.302 76.7727 110.256 77.075 110.302 77.4116C110.349 77.7482 110.465 78.0338 110.652 78.2682C110.85 78.5011 111.126 78.7052 111.482 78.8808C111.849 79.0546 112.31 79.2215 112.865 79.3812Z" fill="white"/>
<defs>
<linearGradient id="paint0_linear_1469_2159" x1="149.35" y1="58.1192" x2="-5.71122" y2="81.1165" gradientUnits="userSpaceOnUse">
<stop offset="0.04" stop-color="#3898E9"/>
<stop offset="0.52" stop-color="#3CA7F3"/>
<stop offset="1" stop-color="#40BBFF"/>
</linearGradient>
</defs>
</svg>
