<svg width="164" height="139" viewBox="0 0 164 139" fill="none" xmlns="http://www.w3.org/2000/svg">
<rect y="20.4541" width="149" height="119" rx="20" transform="rotate(-7.89023 0 20.4541)" fill="url(#paint0_linear_1210_363)"/>
<path d="M48.8742 50.5272C49.019 51.5719 48.812 52.5116 48.2533 53.3462C47.7047 54.1676 46.8064 54.7712 45.5585 55.1571L45.5778 55.2964C46.9816 55.2675 48.1387 55.5922 49.049 56.2705C49.9694 56.9356 50.5092 57.8427 50.6684 58.9919C50.9306 60.884 50.388 62.4321 49.0406 63.6363C47.6915 64.8289 45.6356 65.6166 42.873 65.9995L32.8961 67.3822L30.1983 47.9159L40.1752 46.5332C42.845 46.1632 44.9019 46.3218 46.3458 47.009C47.7998 47.6829 48.6426 48.8557 48.8742 50.5272ZM45.1277 59.4759C45.0215 58.7097 44.6491 58.1994 44.0105 57.9448C43.3702 57.6786 42.4581 57.6276 41.2741 57.7917L37.0605 58.3756L37.6975 62.9723L42.0156 62.3739C43.1416 62.2178 43.9658 61.8906 44.4883 61.3923C45.0207 60.8808 45.2339 60.242 45.1277 59.4759ZM43.5519 51.6907C43.3878 50.5067 42.3655 50.0451 40.4851 50.3057L36.0277 50.9234L36.561 54.7714L40.4089 54.2381C41.5349 54.0821 42.3656 53.8013 42.9009 53.3959C43.4362 52.9904 43.6532 52.422 43.5519 51.6907ZM63.6586 63.4738C57.5993 64.3135 54.1088 61.4077 53.187 54.7565C52.7285 51.4482 53.2028 48.8093 54.6098 46.8397C56.0152 44.8585 58.2559 43.6547 61.332 43.2284C63.5839 42.9163 65.6648 43.0775 67.5747 43.712L66.5771 48.0383C65.6947 47.8175 64.8791 47.6525 64.1305 47.5433C63.3803 47.4225 62.6453 47.412 61.9256 47.5117C59.1629 47.8946 58.0535 50.0477 58.5972 53.9712C59.1249 57.7785 60.77 59.4908 63.5327 59.1079C64.5542 58.9664 65.4817 58.7018 66.3153 58.3141C67.1473 57.9149 67.9583 57.3647 68.7485 56.6637L69.3783 61.2081C68.5949 61.8728 67.7766 62.3707 66.9234 62.7019C66.0818 63.0315 64.9935 63.2888 63.6586 63.4738ZM79.8942 44.5068C78.7682 44.6629 77.9359 45.145 77.3972 45.9532C76.8569 46.7497 76.6312 47.8103 76.7201 49.1348L84.1723 48.102C83.9673 46.7936 83.4849 45.8311 82.7252 45.2148C81.9638 44.5868 81.0201 44.3508 79.8942 44.5068ZM82.9159 60.8049C79.7818 61.2393 77.2127 60.7139 75.2087 59.2289C73.2046 57.7438 71.983 55.4169 71.5438 52.2479C71.0917 48.9861 71.5552 46.3546 72.9342 44.3534C74.3231 42.339 76.457 41.1323 79.3357 40.7333C82.0868 40.3521 84.337 40.8388 86.0864 42.1935C87.8358 43.5482 88.9019 45.6069 89.2848 48.3695L89.6419 50.9465L77.0881 52.6863C77.3553 54.1873 77.9654 55.3035 78.9186 56.0351C79.8718 56.7666 81.1029 57.0278 82.6119 56.8187C83.7843 56.6562 84.876 56.3807 85.8869 55.9921C86.8978 55.6036 87.9351 55.0635 88.9986 54.3719L89.5681 58.4811C88.7038 59.0741 87.7588 59.554 86.7331 59.921C85.7089 60.2995 84.4366 60.5942 82.9159 60.8049ZM105.87 37.4287L106.422 41.416L98.2909 42.5429L100.436 58.0219L95.1255 58.7579L92.4278 39.2916L105.87 37.4287ZM115.066 46.0388C115.333 47.9656 115.849 49.379 116.612 50.2788C117.387 51.177 118.489 51.5271 119.917 51.3293C121.333 51.133 122.281 50.5047 122.761 49.4444C123.251 48.3709 123.362 46.8648 123.093 44.9263C122.826 42.9994 122.312 41.5977 121.552 40.7211C120.792 39.8445 119.698 39.5052 118.27 39.7031C116.854 39.8993 115.899 40.5226 115.406 41.5729C114.911 42.6116 114.798 44.1002 115.066 46.0388ZM128.526 44.1735C128.965 47.3424 128.472 49.9365 127.049 51.9557C125.625 53.975 123.421 55.1913 120.438 55.6048C118.569 55.8638 116.865 55.6859 115.324 55.0713C113.782 54.445 112.522 53.4188 111.544 51.9928C110.565 50.5667 109.934 48.8322 109.651 46.7892C109.211 43.6087 109.698 41.0212 111.113 39.0268C112.529 37.0323 114.74 35.8268 117.746 35.4101C119.615 35.1511 121.319 35.329 122.86 35.9436C124.4 36.5583 125.659 37.5729 126.636 38.9873C127.612 40.4018 128.242 42.1305 128.526 44.1735ZM64.6285 102.357L46.8338 104.823L46.315 101.08L51.8098 93.7345C53.4333 91.5337 54.4837 90.0217 54.9611 89.1984C55.4369 88.3634 55.7583 87.609 55.9252 86.9352C56.0921 86.2614 56.1281 85.5821 56.0332 84.8972C55.8916 83.8757 55.5018 83.1548 54.8639 82.7345C54.2375 82.3126 53.4542 82.1668 52.514 82.2971C51.5274 82.4338 50.6011 82.7929 49.7352 83.3743C48.8693 83.9557 47.9893 84.7343 47.0953 85.71L43.6899 82.6504C44.7956 81.4088 45.7299 80.5103 46.4929 79.955C47.2559 79.3997 48.1089 78.9384 49.0518 78.5711C49.9931 78.1922 51.0673 77.9191 52.2745 77.7518C53.8648 77.5314 55.3095 77.6269 56.6088 78.0384C57.908 78.4499 58.9667 79.1313 59.7847 80.0827C60.6028 81.0341 61.1051 82.1831 61.2917 83.5296C61.4542 84.702 61.3981 85.8337 61.1233 86.9247C60.8586 88.0025 60.3658 89.1414 59.6448 90.3416C58.9355 91.5402 57.628 93.289 55.7224 95.5879L52.8761 99.1235L52.9099 99.3672L64.0012 97.8301L64.6285 102.357ZM74.2147 84.4537C76.6756 84.1127 78.7272 84.5323 80.3696 85.7125C82.0236 86.8912 83.0172 88.6819 83.3502 91.0847C83.7443 93.9286 83.1711 96.2382 81.6307 98.0133C80.0903 99.7884 77.6892 100.902 74.4274 101.354C71.5951 101.747 69.2448 101.605 67.3765 100.929L66.7322 96.2804C67.7168 96.6408 68.8402 96.8933 70.1025 97.0378C71.3631 97.1707 72.539 97.1615 73.6302 97.0103C76.9152 96.555 78.3711 94.9809 77.9979 92.2879C77.6423 89.7226 75.764 88.6756 72.3629 89.1469C71.7477 89.2322 71.0775 89.3901 70.3523 89.6208C69.6255 89.8398 69.0396 90.0511 68.5946 90.2548L66.2937 89.4024L65.4536 76.298L79.2611 74.3844L79.8933 78.9463L70.8044 80.2059L71.0268 85.2682L71.6193 85.0619C72.3049 84.8012 73.17 84.5985 74.2147 84.4537ZM103.469 84.002C104.085 88.4477 103.81 91.8399 102.643 94.1784C101.488 96.5154 99.3958 97.8938 96.3661 98.3136C93.4293 98.7206 91.0594 97.9252 89.2564 95.9272C87.4649 93.9276 86.2708 90.7746 85.674 86.4681C85.0514 81.9759 85.3184 78.5671 86.475 76.2418C87.63 73.9049 89.7165 72.5273 92.7345 72.109C95.6713 71.702 98.0428 72.5091 99.8491 74.5303C101.667 76.5498 102.874 79.7071 103.469 84.002ZM91.0193 85.7273C91.4521 88.8498 92.0295 91.0531 92.7517 92.3372C93.4839 93.6081 94.4884 94.1551 95.7653 93.9781C97.0189 93.8044 97.8294 92.994 98.1968 91.5471C98.5641 90.1002 98.5338 87.8328 98.1059 84.7452C97.6732 81.6227 97.0783 79.4218 96.3213 78.1425C95.5743 76.85 94.5798 76.2898 93.3378 76.4619C92.0725 76.6373 91.262 77.4476 90.9063 78.893C90.5489 80.3267 90.5866 82.6048 91.0193 85.7273ZM124.432 85.9591C124.688 87.8048 124.226 89.3831 123.047 90.694C121.867 91.9934 120.091 92.9198 117.718 93.4734L118.213 97.0428L115.828 97.3734L115.343 93.8736C112.502 94.2081 109.949 94.0532 107.683 93.409L107.046 88.8123C108.125 89.1715 109.399 89.4445 110.868 89.6313C112.349 89.8165 113.651 89.8667 114.775 89.7819L114.027 84.3842L112.798 84.0932C110.374 83.5063 108.607 82.7515 107.498 81.8287C106.398 80.8927 105.739 79.6412 105.522 78.0741C105.289 76.391 105.753 74.9188 106.915 73.6574C108.087 72.3829 109.836 71.4663 112.16 70.9076L111.791 68.2436L114.176 67.913L114.535 70.5073C117.21 70.255 119.687 70.456 121.966 71.1102L120.894 75.4114C118.98 74.9194 117.06 74.7241 115.134 74.8254L115.846 79.9619C118.23 80.5188 119.942 81.0505 120.982 81.557C122.034 82.0619 122.834 82.6669 123.381 83.3718C123.94 84.0752 124.29 84.9376 124.432 85.9591ZM119.227 86.9466C119.16 86.4591 118.905 86.0744 118.464 85.7925C118.023 85.5105 117.382 85.2443 116.543 84.9939L117.144 89.3294C118.686 88.8436 119.38 88.0494 119.227 86.9466ZM110.763 77.3478C110.834 77.8585 111.067 78.2581 111.462 78.5464C111.866 78.8216 112.488 79.0786 113.325 79.3174L112.758 75.2257C111.291 75.6537 110.626 76.3611 110.763 77.3478Z" fill="white"/>
<defs>
<linearGradient id="paint0_linear_1210_363" x1="149.35" y1="58.1192" x2="-5.71122" y2="81.1165" gradientUnits="userSpaceOnUse">
<stop offset="0.04" stop-color="#3898E9"/>
<stop offset="0.52" stop-color="#3CA7F3"/>
<stop offset="1" stop-color="#40BBFF"/>
</linearGradient>
</defs>
</svg>
