<svg width="71" height="74" viewBox="0 0 71 74" fill="none" xmlns="http://www.w3.org/2000/svg">
<path fill-rule="evenodd" clip-rule="evenodd" d="M34.1225 0.097459C31.7241 0.706253 29.9824 2.83725 29.7621 5.43255L29.6632 6.59701L19.7831 12.88L9.90294 19.1629L9.21495 18.6135C6.29936 16.2852 2.06926 17.3215 0.457559 20.759C0.0428469 21.6434 0 21.8639 0 23.1103C0 24.3541 0.0434201 24.5782 0.453547 25.4528C1.06745 26.7621 1.8953 27.6309 3.11708 28.2485C3.67007 28.5279 4.2106 28.7567 4.31822 28.7567C4.48159 28.7567 4.51397 30.3051 4.51397 38.1333V47.51L3.76164 47.7796C2.29066 48.3066 1.04552 49.4512 0.377597 50.8904C0.0445666 51.608 0 51.884 0 53.2273C0 54.655 0.0293766 54.8109 0.468307 55.7116C1.06401 56.9341 2.31101 58.1341 3.47003 58.6003C4.12706 58.8647 4.58218 58.9348 5.66353 58.9384C6.91283 58.9426 7.10628 58.9041 7.95634 58.4812C8.46692 58.2272 9.1529 57.7874 9.48063 57.5039C9.80836 57.2204 10.1308 56.9894 10.1971 56.9902C10.2635 56.9913 14.6704 59.3902 19.9904 62.3213L29.6632 67.6506L29.7687 68.726C29.9795 70.8755 31.1943 72.6065 33.1483 73.5418C34.014 73.9561 34.2358 74 35.4669 74C36.698 74 36.9198 73.9561 37.7855 73.5418C39.7366 72.6079 40.9536 70.876 41.1651 68.7322L41.2706 67.6632L50.9434 62.3285C56.2634 59.3944 60.6612 56.9927 60.7161 56.9913C60.771 56.9897 61.2324 57.307 61.7414 57.6962C63.6596 59.1631 65.9 59.372 68.0158 58.2814C68.9242 57.8132 69.9626 56.6713 70.4763 55.5756C70.891 54.6912 70.9339 54.4707 70.9339 53.2243C70.9339 51.9805 70.8904 51.7564 70.4803 50.8817C69.8664 49.5725 69.0386 48.7037 67.8168 48.0861C67.2638 47.8066 66.7232 47.5779 66.6156 47.5779C66.4523 47.5779 66.4199 46.0295 66.4199 38.2013V28.8246L67.1206 28.5732C71.2434 27.0939 72.3381 21.8516 69.1476 18.8673C67.9648 17.7609 67.0418 17.4118 65.2735 17.4021C64.0776 17.3955 63.8088 17.4432 63.0623 17.7951C62.5949 18.0154 61.95 18.4128 61.6293 18.6782L61.0461 19.1607L51.1584 12.8788L41.2706 6.59686L41.1702 5.41286C40.9134 2.38467 38.687 0.149 35.7892 0.00972319C35.1785 -0.0196669 34.4284 0.0198577 34.1225 0.097459ZM36.5251 2.43824C37.7566 2.80583 38.9061 4.3984 38.9061 5.73688C38.9061 7.53083 37.2426 9.21156 35.4669 9.21156C33.6913 9.21156 32.0277 7.53083 32.0277 5.73688C32.0277 4.82694 32.3556 4.09277 33.0976 3.34151C34.1028 2.32372 35.1856 2.03836 36.5251 2.43824ZM33.1228 10.9854C34.0169 11.4132 34.2285 11.4556 35.4669 11.4556C36.7088 11.4556 36.9163 11.4136 37.8314 10.9779C38.5346 10.6431 39.0714 10.2459 39.6265 9.64981L40.4187 8.79952L50.0875 14.9428C59.3335 20.8172 59.7544 21.1032 59.7104 21.4829C59.685 21.701 59.6536 22.466 59.6406 23.1827C59.6188 24.37 59.6568 24.5716 60.0684 25.4528C60.6793 26.7606 61.5072 27.6303 62.7302 28.2485C63.2832 28.5279 63.8237 28.7567 63.9313 28.7567C64.0948 28.7567 64.1271 30.3103 64.1271 38.1673C64.1271 46.0243 64.0948 47.5779 63.9313 47.5779C63.8237 47.5779 63.2832 47.8066 62.7302 48.0861C61.5064 48.7047 60.6767 49.5766 60.0744 50.877C59.6955 51.695 59.6276 52.0133 59.621 53.0022C59.6167 53.642 59.6453 54.3147 59.6847 54.4974C59.7509 54.8042 59.1072 55.1878 51.23 59.536C46.5405 62.1247 42.2029 64.5129 41.5909 64.8432L40.478 65.4437L40.2322 65.089C39.6087 64.1888 38.9314 63.6052 37.929 63.1047C36.9024 62.592 36.7681 62.5625 35.4669 62.5625C34.1658 62.5625 34.0315 62.592 33.0049 63.1047C32.0003 63.6062 31.3281 64.186 30.6959 65.0961L30.4444 65.4581L29.9104 65.1539C29.6168 64.9867 25.2717 62.5897 20.2544 59.8275L11.1322 54.8051L11.2795 54.268C11.6734 52.8326 11.0105 50.5687 9.81137 49.2546C9.24992 48.639 7.47213 47.5779 7.00253 47.5779C6.83903 47.5779 6.80678 46.0243 6.80678 38.1673C6.80678 30.3103 6.83903 28.7567 7.00253 28.7567C7.11015 28.7567 7.65068 28.5279 8.20368 28.2485C9.42747 27.6299 10.2572 26.758 10.8595 25.4576C11.2384 24.6396 11.3063 24.3212 11.3129 23.3324C11.3172 22.6926 11.2674 21.9369 11.2022 21.653L11.0837 21.1367L16.3611 17.7923C19.2636 15.9529 23.634 13.1779 26.0731 11.6257L30.5079 8.80343L31.324 9.65936C31.8762 10.2385 32.4579 10.6673 33.1228 10.9854ZM27.888 16.3898C26.0124 16.8995 24.2756 18.34 23.5029 20.0268C23.2914 20.4885 23.071 20.9601 23.0129 21.0747C22.9551 21.1895 22.5716 21.3598 22.1609 21.4533C21.1433 21.6848 19.4898 22.5405 18.6631 23.2632C17.7633 24.0499 16.8301 25.404 16.324 26.6574C15.9532 27.5754 15.9117 27.8524 15.883 29.5986L15.8514 31.5261L15.3465 32.0908C14.2288 33.3407 13.6887 34.9432 13.6887 37.0091C13.6887 39.0749 14.2288 40.6775 15.3465 41.9273L15.8514 42.492L15.883 44.4196C15.9117 46.1657 15.9532 46.4427 16.324 47.3607C17.3831 49.9837 19.4952 51.8691 22.1337 52.5466C22.5637 52.657 22.9611 52.8383 23.017 52.9496C23.0727 53.0608 23.2968 53.5428 23.5149 54.0205C24.001 55.0854 25.3631 56.51 26.4047 57.0434C28.5379 58.1354 31.4536 58.1283 33.3174 57.0266C33.6721 56.8169 34.301 56.3219 34.7152 55.9267L35.4681 55.2082L36.2915 55.9997C37.6276 57.284 39.0765 57.8472 41.0614 57.8537C43.8502 57.8628 46.3528 56.3453 47.431 53.9913C47.6425 53.5296 47.8611 53.0608 47.9169 52.9496C47.9728 52.8383 48.3702 52.657 48.8002 52.5466C51.4387 51.8691 53.5508 49.9837 54.6099 47.3607C54.9806 46.4427 55.0222 46.1657 55.0508 44.4196L55.0825 42.492L55.5874 41.9273C56.6885 40.696 57.2494 39.037 57.2469 37.0189C57.2443 34.9408 56.706 33.3415 55.5874 32.0908L55.0825 31.5261L55.0477 29.5986C55.0169 27.8951 54.9677 27.555 54.6257 26.6752C54.1551 25.4651 53.1901 24.0669 52.2708 23.2632C51.4441 22.5405 49.7906 21.6848 48.773 21.4533C48.3623 21.3598 47.9788 21.1895 47.9209 21.0747C47.8629 20.9601 47.637 20.4753 47.4189 19.9976C46.9328 18.9327 45.5708 17.5081 44.5291 16.9747C43.4673 16.4311 42.3085 16.1604 41.0614 16.1644C39.0741 16.1709 37.6278 16.7341 36.2862 18.0235L35.4575 18.8201L34.7099 18.0877C33.7853 17.1819 32.9286 16.6777 31.8185 16.3856C30.7642 16.1082 28.9169 16.1103 27.888 16.3898ZM31.9678 18.9016C32.8851 19.3109 33.5056 19.931 33.917 20.8492C34.2393 21.5687 34.2502 21.7294 34.2936 26.413L34.3381 31.2357L33.507 30.5518C33.0499 30.1757 32.2203 29.6492 31.6637 29.3821C30.7651 28.951 30.5997 28.9148 30.1902 29.059C29.6641 29.2443 29.4483 29.5673 29.4483 30.1697C29.4483 30.6786 29.8225 31.0491 30.8736 31.5807C33.2426 32.7791 34.6306 35.3788 34.2138 37.8376C33.8802 39.8053 32.4901 41.7013 30.7856 42.5138C29.8262 42.9712 29.4483 43.3482 29.4483 43.8484C29.4483 44.4508 29.6641 44.7738 30.1902 44.9591C30.5997 45.1033 30.7651 45.0671 31.6637 44.636C32.2203 44.3689 33.0499 43.8425 33.507 43.4663L34.3381 42.7824L34.2936 47.6051C34.2502 52.2887 34.2393 52.4494 33.917 53.169C33.2786 54.594 32.0741 55.36 30.2534 55.4992C27.9379 55.6761 25.9604 54.4332 25.2049 52.3265C24.8974 51.4684 24.7777 48.9734 24.9995 48.0392C25.0963 47.6319 25.4274 46.8764 25.7355 46.3603C26.0436 45.8443 26.2957 45.2526 26.2957 45.0456C26.2957 44.5355 25.6997 43.9584 25.1728 43.9584C24.0254 43.9584 22.5699 46.9303 22.5699 49.2733C22.5699 49.9379 22.518 50.1839 22.3778 50.1839C21.8611 50.1839 20.3819 49.2397 19.6538 48.445C18.693 47.3966 18.2479 46.3243 18.1586 44.8433L18.0943 43.7738L18.4692 43.869C19.5669 44.1472 20.0582 44.1345 20.4562 43.8173C20.7608 43.5743 20.8503 43.3797 20.8503 42.9597C20.8503 42.2716 20.4278 41.8583 19.5942 41.7312C18.537 41.5697 17.8673 41.205 17.1279 40.3876C16.2699 39.4392 15.978 38.5815 15.978 37.0091C15.978 35.4366 16.2699 34.5789 17.1279 33.6305C17.8673 32.8131 18.537 32.4484 19.5942 32.287C20.3868 32.1661 20.8503 31.7414 20.8503 31.1363C20.8503 30.1396 20.1131 29.7946 18.6487 30.106L18.0953 30.2237L18.1592 29.1644C18.1959 28.5551 18.3601 27.7495 18.5457 27.2676C18.9793 26.1423 20.1743 24.8497 21.3125 24.2751C22.5375 23.6566 22.5699 23.6687 22.5699 24.7449C22.5699 26.4076 23.3857 28.6781 24.3017 29.5647C24.8549 30.1004 25.5062 30.1021 25.9601 29.569C26.4189 29.0302 26.3855 28.7465 25.7355 27.6578C25.4274 27.1417 25.0963 26.3862 24.9995 25.979C24.7784 25.0473 24.8971 22.5505 25.203 21.6971C25.7136 20.2737 26.7306 19.2698 28.2016 18.7374C29.1967 18.3774 30.9659 18.4545 31.9678 18.9016ZM43.2302 18.944C45.1652 19.839 46.0712 21.5809 46.0712 24.4068C46.0712 25.7353 45.8134 26.6917 45.1915 27.6708C44.6261 28.5609 44.5783 29.2538 45.0553 29.644C45.592 30.0831 46.2566 29.9971 46.7546 29.4242C47.6731 28.3672 48.364 26.3586 48.364 24.7449C48.364 23.6687 48.3964 23.6566 49.6213 24.2751C50.7595 24.8497 51.9545 26.1423 52.3882 27.2676C52.5737 27.7495 52.738 28.5551 52.7746 29.1644L52.8386 30.2237L52.2851 30.106C50.8207 29.7946 50.0836 30.1396 50.0836 31.1363C50.0836 31.7414 50.547 32.1661 51.3396 32.287C52.3969 32.4484 53.0665 32.8131 53.806 33.6305C54.6639 34.5789 54.9558 35.4366 54.9558 37.0091C54.9558 38.5815 54.6639 39.4392 53.806 40.3876C53.0665 41.205 52.3969 41.5697 51.3396 41.7312C50.5061 41.8583 50.0836 42.2716 50.0836 42.9597C50.0836 43.3797 50.173 43.5743 50.4777 43.8173C50.8756 44.1345 51.367 44.1472 52.4647 43.869L52.8396 43.7738L52.7752 44.8433C52.6859 46.3243 52.2408 47.3966 51.28 48.445C50.5644 49.2261 49.0748 50.1839 48.5759 50.1839C48.4607 50.1839 48.3786 49.7642 48.3279 48.9171C48.2084 46.9244 47.1358 44.4888 46.2062 44.0997C45.4537 43.7848 44.6382 44.3052 44.6382 45.1C44.6382 45.2943 44.8342 45.7621 45.0739 46.1394C46.0614 47.6942 46.3343 49.6765 45.8498 51.7765C45.2892 54.2072 43.2251 55.6935 40.6805 55.4992C38.8597 55.36 37.6553 54.594 37.0169 53.169C36.6946 52.4494 36.6837 52.2887 36.6403 47.6051L36.5957 42.7824L37.4268 43.4663C37.884 43.8425 38.7135 44.3689 39.2701 44.636C40.1688 45.0671 40.3341 45.1033 40.7437 44.9591C41.2697 44.7738 41.4856 44.4508 41.4856 43.8484C41.4856 43.3399 41.1114 42.969 40.0644 42.4396C39.141 41.9725 37.9017 40.8269 37.4204 39.9953C36.0291 37.5921 36.5253 34.5755 38.6367 32.6005C39.0871 32.1791 39.7674 31.6858 40.1483 31.5043C41.1077 31.0469 41.4856 30.6699 41.4856 30.1697C41.4856 29.5673 41.2697 29.2443 40.7437 29.059C40.3341 28.9148 40.1688 28.951 39.2701 29.3821C38.7135 29.6492 37.884 30.1757 37.4268 30.5518L36.5957 31.2357L36.6403 26.413C36.6837 21.7329 36.6947 21.5687 37.0151 20.8662C37.7854 19.177 39.1376 18.4474 41.3451 18.5301C42.1367 18.5598 42.637 18.6695 43.2302 18.944ZM6.71851 19.8117C7.50566 20.0466 8.69276 21.246 8.92534 22.0413C9.32228 23.3987 9.04242 24.4809 8.02971 25.5041C6.57994 26.9688 4.74082 26.9688 3.29104 25.5041C1.84127 24.0394 1.84127 22.1829 3.29104 20.7149C4.2963 19.6972 5.37908 19.4118 6.71851 19.8117ZM66.3316 19.8117C67.5631 20.1793 68.7127 21.7718 68.7127 23.1103C68.7127 24.9043 67.0491 26.585 65.2735 26.585C63.4978 26.585 61.8343 24.9043 61.8343 23.1103C61.8343 22.2004 62.1621 21.4662 62.9041 20.7149C63.9094 19.6972 64.9922 19.4118 66.3316 19.8117ZM22.7868 31.5318C22.4082 31.8326 22.3946 31.8879 22.4577 32.8788C22.5349 34.0954 22.9586 35.1277 23.8412 36.249L24.4395 37.0091L23.8525 37.7592C22.8598 39.0281 22.429 40.125 22.4026 41.451C22.3913 42.0187 22.4528 42.1863 22.7741 42.4656C23.5621 43.1504 24.4934 42.687 24.6555 41.5293C24.8617 40.0564 25.5971 38.9597 26.78 38.3609C27.8283 37.8302 28.0153 37.6257 28.0153 37.0091C28.0153 36.3924 27.8283 36.1879 26.78 35.6573C25.5971 35.0585 24.8617 33.9618 24.6555 32.4888C24.4948 31.3417 23.6016 30.8842 22.7868 31.5318ZM46.7435 31.5115C46.4786 31.722 46.347 31.9983 46.2784 32.4888C46.0722 33.9618 45.3368 35.0585 44.1538 35.6573C43.1056 36.1879 42.9186 36.3924 42.9186 37.0091C42.9186 37.6257 43.1056 37.8302 44.1538 38.3609C45.3368 38.9597 46.0722 40.0564 46.2784 41.5293C46.439 42.6764 47.3322 43.1339 48.147 42.4863C48.5256 42.1855 48.5392 42.1302 48.4762 41.1393C48.399 39.9227 47.9752 38.8905 47.0926 37.7691L46.4943 37.0091L47.0923 36.249C47.9542 35.1534 48.3898 34.087 48.4723 32.871C48.5391 31.8866 48.5261 31.8329 48.147 31.5318C47.6536 31.1396 47.2193 31.1334 46.7435 31.5115ZM6.71851 49.9256C7.95004 50.2932 9.0996 51.8858 9.0996 53.2243C9.0996 55.0182 7.43602 56.699 5.66038 56.699C4.75902 56.699 4.0332 56.3678 3.29104 55.618C1.84127 54.1533 1.84127 52.2968 3.29104 50.8289C4.2963 49.8111 5.37908 49.5257 6.71851 49.9256ZM66.3316 49.9256C67.5631 50.2932 68.7127 51.8858 68.7127 53.2243C68.7127 55.0182 67.0491 56.699 65.2735 56.699C64.3721 56.699 63.6463 56.3678 62.9041 55.618C61.4544 54.1533 61.4544 52.2968 62.9041 50.8289C63.9094 49.8111 64.9922 49.5257 66.3316 49.9256ZM36.5251 64.9826C37.7566 65.3502 38.9061 66.9428 38.9061 68.2812C38.9061 70.0752 37.2426 71.7559 35.4669 71.7559C33.6913 71.7559 32.0277 70.0752 32.0277 68.2812C32.0277 67.3713 32.3556 66.6371 33.0976 65.8859C34.1028 64.8681 35.1856 64.5827 36.5251 64.9826Z" fill="#0066FF"/>
<path fill-rule="evenodd" clip-rule="evenodd" d="M34.1225 0.097459C31.7241 0.706253 29.9824 2.83725 29.7621 5.43255L29.6632 6.59701L19.7831 12.88L9.90294 19.1629L9.21495 18.6135C6.29936 16.2852 2.06926 17.3215 0.457559 20.759C0.0428469 21.6434 0 21.8639 0 23.1103C0 24.3541 0.0434201 24.5782 0.453547 25.4528C1.06745 26.7621 1.8953 27.6309 3.11708 28.2485C3.67007 28.5279 4.2106 28.7567 4.31822 28.7567C4.48159 28.7567 4.51397 30.3051 4.51397 38.1333V47.51L3.76164 47.7796C2.29066 48.3066 1.04552 49.4512 0.377597 50.8904C0.0445666 51.608 0 51.884 0 53.2273C0 54.655 0.0293766 54.8109 0.468307 55.7116C1.06401 56.9341 2.31101 58.1341 3.47003 58.6003C4.12706 58.8647 4.58218 58.9348 5.66353 58.9384C6.91283 58.9426 7.10628 58.9041 7.95634 58.4812C8.46692 58.2272 9.1529 57.7874 9.48063 57.5039C9.80836 57.2204 10.1308 56.9894 10.1971 56.9902C10.2635 56.9913 14.6704 59.3902 19.9904 62.3213L29.6632 67.6506L29.7687 68.726C29.9795 70.8755 31.1943 72.6065 33.1483 73.5418C34.014 73.9561 34.2358 74 35.4669 74C36.698 74 36.9198 73.9561 37.7855 73.5418C39.7366 72.6079 40.9536 70.876 41.1651 68.7322L41.2706 67.6632L50.9434 62.3285C56.2634 59.3944 60.6612 56.9927 60.7161 56.9913C60.771 56.9897 61.2324 57.307 61.7414 57.6962C63.6596 59.1631 65.9 59.372 68.0158 58.2814C68.9242 57.8132 69.9626 56.6713 70.4763 55.5756C70.891 54.6912 70.9339 54.4707 70.9339 53.2243C70.9339 51.9805 70.8904 51.7564 70.4803 50.8817C69.8664 49.5725 69.0386 48.7037 67.8168 48.0861C67.2638 47.8066 66.7232 47.5779 66.6156 47.5779C66.4523 47.5779 66.4199 46.0295 66.4199 38.2013V28.8246L67.1206 28.5732C71.2434 27.0939 72.3381 21.8516 69.1476 18.8673C67.9648 17.7609 67.0418 17.4118 65.2735 17.4021C64.0776 17.3955 63.8088 17.4432 63.0623 17.7951C62.5949 18.0154 61.95 18.4128 61.6293 18.6782L61.0461 19.1607L51.1584 12.8788L41.2706 6.59686L41.1702 5.41286C40.9134 2.38467 38.687 0.149 35.7892 0.00972319C35.1785 -0.0196669 34.4284 0.0198577 34.1225 0.097459ZM36.5251 2.43824C37.7566 2.80583 38.9061 4.3984 38.9061 5.73688C38.9061 7.53083 37.2426 9.21156 35.4669 9.21156C33.6913 9.21156 32.0277 7.53083 32.0277 5.73688C32.0277 4.82694 32.3556 4.09277 33.0976 3.34151C34.1028 2.32372 35.1856 2.03836 36.5251 2.43824ZM33.1228 10.9854C34.0169 11.4132 34.2285 11.4556 35.4669 11.4556C36.7088 11.4556 36.9163 11.4136 37.8314 10.9779C38.5346 10.6431 39.0714 10.2459 39.6265 9.64981L40.4187 8.79952L50.0875 14.9428C59.3335 20.8172 59.7544 21.1032 59.7104 21.4829C59.685 21.701 59.6536 22.466 59.6406 23.1827C59.6188 24.37 59.6568 24.5716 60.0684 25.4528C60.6793 26.7606 61.5072 27.6303 62.7302 28.2485C63.2832 28.5279 63.8237 28.7567 63.9313 28.7567C64.0948 28.7567 64.1271 30.3103 64.1271 38.1673C64.1271 46.0243 64.0948 47.5779 63.9313 47.5779C63.8237 47.5779 63.2832 47.8066 62.7302 48.0861C61.5064 48.7047 60.6767 49.5766 60.0744 50.877C59.6955 51.695 59.6276 52.0133 59.621 53.0022C59.6167 53.642 59.6453 54.3147 59.6847 54.4974C59.7509 54.8042 59.1072 55.1878 51.23 59.536C46.5405 62.1247 42.2029 64.5129 41.5909 64.8432L40.478 65.4437L40.2322 65.089C39.6087 64.1888 38.9314 63.6052 37.929 63.1047C36.9024 62.592 36.7681 62.5625 35.4669 62.5625C34.1658 62.5625 34.0315 62.592 33.0049 63.1047C32.0003 63.6062 31.3281 64.186 30.6959 65.0961L30.4444 65.4581L29.9104 65.1539C29.6168 64.9867 25.2717 62.5897 20.2544 59.8275L11.1322 54.8051L11.2795 54.268C11.6734 52.8326 11.0105 50.5687 9.81137 49.2546C9.24992 48.639 7.47213 47.5779 7.00253 47.5779C6.83903 47.5779 6.80678 46.0243 6.80678 38.1673C6.80678 30.3103 6.83903 28.7567 7.00253 28.7567C7.11015 28.7567 7.65068 28.5279 8.20368 28.2485C9.42747 27.6299 10.2572 26.758 10.8595 25.4576C11.2384 24.6396 11.3063 24.3212 11.3129 23.3324C11.3172 22.6926 11.2674 21.9369 11.2022 21.653L11.0837 21.1367L16.3611 17.7923C19.2636 15.9529 23.634 13.1779 26.0731 11.6257L30.5079 8.80343L31.324 9.65936C31.8762 10.2385 32.4579 10.6673 33.1228 10.9854ZM27.888 16.3898C26.0124 16.8995 24.2756 18.34 23.5029 20.0268C23.2914 20.4885 23.071 20.9601 23.0129 21.0747C22.9551 21.1895 22.5716 21.3598 22.1609 21.4533C21.1433 21.6848 19.4898 22.5405 18.6631 23.2632C17.7633 24.0499 16.8301 25.404 16.324 26.6574C15.9532 27.5754 15.9117 27.8524 15.883 29.5986L15.8514 31.5261L15.3465 32.0908C14.2288 33.3407 13.6887 34.9432 13.6887 37.0091C13.6887 39.0749 14.2288 40.6775 15.3465 41.9273L15.8514 42.492L15.883 44.4196C15.9117 46.1657 15.9532 46.4427 16.324 47.3607C17.3831 49.9837 19.4952 51.8691 22.1337 52.5466C22.5637 52.657 22.9611 52.8383 23.017 52.9496C23.0727 53.0608 23.2968 53.5428 23.5149 54.0205C24.001 55.0854 25.3631 56.51 26.4047 57.0434C28.5379 58.1354 31.4536 58.1283 33.3174 57.0266C33.6721 56.8169 34.301 56.3219 34.7152 55.9267L35.4681 55.2082L36.2915 55.9997C37.6276 57.284 39.0765 57.8472 41.0614 57.8537C43.8502 57.8628 46.3528 56.3453 47.431 53.9913C47.6425 53.5296 47.8611 53.0608 47.9169 52.9496C47.9728 52.8383 48.3702 52.657 48.8002 52.5466C51.4387 51.8691 53.5508 49.9837 54.6099 47.3607C54.9806 46.4427 55.0222 46.1657 55.0508 44.4196L55.0825 42.492L55.5874 41.9273C56.6885 40.696 57.2494 39.037 57.2469 37.0189C57.2443 34.9408 56.706 33.3415 55.5874 32.0908L55.0825 31.5261L55.0477 29.5986C55.0169 27.8951 54.9677 27.555 54.6257 26.6752C54.1551 25.4651 53.1901 24.0669 52.2708 23.2632C51.4441 22.5405 49.7906 21.6848 48.773 21.4533C48.3623 21.3598 47.9788 21.1895 47.9209 21.0747C47.8629 20.9601 47.637 20.4753 47.4189 19.9976C46.9328 18.9327 45.5708 17.5081 44.5291 16.9747C43.4673 16.4311 42.3085 16.1604 41.0614 16.1644C39.0741 16.1709 37.6278 16.7341 36.2862 18.0235L35.4575 18.8201L34.7099 18.0877C33.7853 17.1819 32.9286 16.6777 31.8185 16.3856C30.7642 16.1082 28.9169 16.1103 27.888 16.3898ZM31.9678 18.9016C32.8851 19.3109 33.5056 19.931 33.917 20.8492C34.2393 21.5687 34.2502 21.7294 34.2936 26.413L34.3381 31.2357L33.507 30.5518C33.0499 30.1757 32.2203 29.6492 31.6637 29.3821C30.7651 28.951 30.5997 28.9148 30.1902 29.059C29.6641 29.2443 29.4483 29.5673 29.4483 30.1697C29.4483 30.6786 29.8225 31.0491 30.8736 31.5807C33.2426 32.7791 34.6306 35.3788 34.2138 37.8376C33.8802 39.8053 32.4901 41.7013 30.7856 42.5138C29.8262 42.9712 29.4483 43.3482 29.4483 43.8484C29.4483 44.4508 29.6641 44.7738 30.1902 44.9591C30.5997 45.1033 30.7651 45.0671 31.6637 44.636C32.2203 44.3689 33.0499 43.8425 33.507 43.4663L34.3381 42.7824L34.2936 47.6051C34.2502 52.2887 34.2393 52.4494 33.917 53.169C33.2786 54.594 32.0741 55.36 30.2534 55.4992C27.9379 55.6761 25.9604 54.4332 25.2049 52.3265C24.8974 51.4684 24.7777 48.9734 24.9995 48.0392C25.0963 47.6319 25.4274 46.8764 25.7355 46.3603C26.0436 45.8443 26.2957 45.2526 26.2957 45.0456C26.2957 44.5355 25.6997 43.9584 25.1728 43.9584C24.0254 43.9584 22.5699 46.9303 22.5699 49.2733C22.5699 49.9379 22.518 50.1839 22.3778 50.1839C21.8611 50.1839 20.3819 49.2397 19.6538 48.445C18.693 47.3966 18.2479 46.3243 18.1586 44.8433L18.0943 43.7738L18.4692 43.869C19.5669 44.1472 20.0582 44.1345 20.4562 43.8173C20.7608 43.5743 20.8503 43.3797 20.8503 42.9597C20.8503 42.2716 20.4278 41.8583 19.5942 41.7312C18.537 41.5697 17.8673 41.205 17.1279 40.3876C16.2699 39.4392 15.978 38.5815 15.978 37.0091C15.978 35.4366 16.2699 34.5789 17.1279 33.6305C17.8673 32.8131 18.537 32.4484 19.5942 32.287C20.3868 32.1661 20.8503 31.7414 20.8503 31.1363C20.8503 30.1396 20.1131 29.7946 18.6487 30.106L18.0953 30.2237L18.1592 29.1644C18.1959 28.5551 18.3601 27.7495 18.5457 27.2676C18.9793 26.1423 20.1743 24.8497 21.3125 24.2751C22.5375 23.6566 22.5699 23.6687 22.5699 24.7449C22.5699 26.4076 23.3857 28.6781 24.3017 29.5647C24.8549 30.1004 25.5062 30.1021 25.9601 29.569C26.4189 29.0302 26.3855 28.7465 25.7355 27.6578C25.4274 27.1417 25.0963 26.3862 24.9995 25.979C24.7784 25.0473 24.8971 22.5505 25.203 21.6971C25.7136 20.2737 26.7306 19.2698 28.2016 18.7374C29.1967 18.3774 30.9659 18.4545 31.9678 18.9016ZM43.2302 18.944C45.1652 19.839 46.0712 21.5809 46.0712 24.4068C46.0712 25.7353 45.8134 26.6917 45.1915 27.6708C44.6261 28.5609 44.5783 29.2538 45.0553 29.644C45.592 30.0831 46.2566 29.9971 46.7546 29.4242C47.6731 28.3672 48.364 26.3586 48.364 24.7449C48.364 23.6687 48.3964 23.6566 49.6213 24.2751C50.7595 24.8497 51.9545 26.1423 52.3882 27.2676C52.5737 27.7495 52.738 28.5551 52.7746 29.1644L52.8386 30.2237L52.2851 30.106C50.8207 29.7946 50.0836 30.1396 50.0836 31.1363C50.0836 31.7414 50.547 32.1661 51.3396 32.287C52.3969 32.4484 53.0665 32.8131 53.806 33.6305C54.6639 34.5789 54.9558 35.4366 54.9558 37.0091C54.9558 38.5815 54.6639 39.4392 53.806 40.3876C53.0665 41.205 52.3969 41.5697 51.3396 41.7312C50.5061 41.8583 50.0836 42.2716 50.0836 42.9597C50.0836 43.3797 50.173 43.5743 50.4777 43.8173C50.8756 44.1345 51.367 44.1472 52.4647 43.869L52.8396 43.7738L52.7752 44.8433C52.6859 46.3243 52.2408 47.3966 51.28 48.445C50.5644 49.2261 49.0748 50.1839 48.5759 50.1839C48.4607 50.1839 48.3786 49.7642 48.3279 48.9171C48.2084 46.9244 47.1358 44.4888 46.2062 44.0997C45.4537 43.7848 44.6382 44.3052 44.6382 45.1C44.6382 45.2943 44.8342 45.7621 45.0739 46.1394C46.0614 47.6942 46.3343 49.6765 45.8498 51.7765C45.2892 54.2072 43.2251 55.6935 40.6805 55.4992C38.8597 55.36 37.6553 54.594 37.0169 53.169C36.6946 52.4494 36.6837 52.2887 36.6403 47.6051L36.5957 42.7824L37.4268 43.4663C37.884 43.8425 38.7135 44.3689 39.2701 44.636C40.1688 45.0671 40.3341 45.1033 40.7437 44.9591C41.2697 44.7738 41.4856 44.4508 41.4856 43.8484C41.4856 43.3399 41.1114 42.969 40.0644 42.4396C39.141 41.9725 37.9017 40.8269 37.4204 39.9953C36.0291 37.5921 36.5253 34.5755 38.6367 32.6005C39.0871 32.1791 39.7674 31.6858 40.1483 31.5043C41.1077 31.0469 41.4856 30.6699 41.4856 30.1697C41.4856 29.5673 41.2697 29.2443 40.7437 29.059C40.3341 28.9148 40.1688 28.951 39.2701 29.3821C38.7135 29.6492 37.884 30.1757 37.4268 30.5518L36.5957 31.2357L36.6403 26.413C36.6837 21.7329 36.6947 21.5687 37.0151 20.8662C37.7854 19.177 39.1376 18.4474 41.3451 18.5301C42.1367 18.5598 42.637 18.6695 43.2302 18.944ZM6.71851 19.8117C7.50566 20.0466 8.69276 21.246 8.92534 22.0413C9.32228 23.3987 9.04242 24.4809 8.02971 25.5041C6.57994 26.9688 4.74082 26.9688 3.29104 25.5041C1.84127 24.0394 1.84127 22.1829 3.29104 20.7149C4.2963 19.6972 5.37908 19.4118 6.71851 19.8117ZM66.3316 19.8117C67.5631 20.1793 68.7127 21.7718 68.7127 23.1103C68.7127 24.9043 67.0491 26.585 65.2735 26.585C63.4978 26.585 61.8343 24.9043 61.8343 23.1103C61.8343 22.2004 62.1621 21.4662 62.9041 20.7149C63.9094 19.6972 64.9922 19.4118 66.3316 19.8117ZM22.7868 31.5318C22.4082 31.8326 22.3946 31.8879 22.4577 32.8788C22.5349 34.0954 22.9586 35.1277 23.8412 36.249L24.4395 37.0091L23.8525 37.7592C22.8598 39.0281 22.429 40.125 22.4026 41.451C22.3913 42.0187 22.4528 42.1863 22.7741 42.4656C23.5621 43.1504 24.4934 42.687 24.6555 41.5293C24.8617 40.0564 25.5971 38.9597 26.78 38.3609C27.8283 37.8302 28.0153 37.6257 28.0153 37.0091C28.0153 36.3924 27.8283 36.1879 26.78 35.6573C25.5971 35.0585 24.8617 33.9618 24.6555 32.4888C24.4948 31.3417 23.6016 30.8842 22.7868 31.5318ZM46.7435 31.5115C46.4786 31.722 46.347 31.9983 46.2784 32.4888C46.0722 33.9618 45.3368 35.0585 44.1538 35.6573C43.1056 36.1879 42.9186 36.3924 42.9186 37.0091C42.9186 37.6257 43.1056 37.8302 44.1538 38.3609C45.3368 38.9597 46.0722 40.0564 46.2784 41.5293C46.439 42.6764 47.3322 43.1339 48.147 42.4863C48.5256 42.1855 48.5392 42.1302 48.4762 41.1393C48.399 39.9227 47.9752 38.8905 47.0926 37.7691L46.4943 37.0091L47.0923 36.249C47.9542 35.1534 48.3898 34.087 48.4723 32.871C48.5391 31.8866 48.5261 31.8329 48.147 31.5318C47.6536 31.1396 47.2193 31.1334 46.7435 31.5115ZM6.71851 49.9256C7.95004 50.2932 9.0996 51.8858 9.0996 53.2243C9.0996 55.0182 7.43602 56.699 5.66038 56.699C4.75902 56.699 4.0332 56.3678 3.29104 55.618C1.84127 54.1533 1.84127 52.2968 3.29104 50.8289C4.2963 49.8111 5.37908 49.5257 6.71851 49.9256ZM66.3316 49.9256C67.5631 50.2932 68.7127 51.8858 68.7127 53.2243C68.7127 55.0182 67.0491 56.699 65.2735 56.699C64.3721 56.699 63.6463 56.3678 62.9041 55.618C61.4544 54.1533 61.4544 52.2968 62.9041 50.8289C63.9094 49.8111 64.9922 49.5257 66.3316 49.9256ZM36.5251 64.9826C37.7566 65.3502 38.9061 66.9428 38.9061 68.2812C38.9061 70.0752 37.2426 71.7559 35.4669 71.7559C33.6913 71.7559 32.0277 70.0752 32.0277 68.2812C32.0277 67.3713 32.3556 66.6371 33.0976 65.8859C34.1028 64.8681 35.1856 64.5827 36.5251 64.9826Z" fill="url(#paint0_radial_1461_4890)" fill-opacity="0.7"/>
<path fill-rule="evenodd" clip-rule="evenodd" d="M34.1225 0.097459C31.7241 0.706253 29.9824 2.83725 29.7621 5.43255L29.6632 6.59701L19.7831 12.88L9.90294 19.1629L9.21495 18.6135C6.29936 16.2852 2.06926 17.3215 0.457559 20.759C0.0428469 21.6434 0 21.8639 0 23.1103C0 24.3541 0.0434201 24.5782 0.453547 25.4528C1.06745 26.7621 1.8953 27.6309 3.11708 28.2485C3.67007 28.5279 4.2106 28.7567 4.31822 28.7567C4.48159 28.7567 4.51397 30.3051 4.51397 38.1333V47.51L3.76164 47.7796C2.29066 48.3066 1.04552 49.4512 0.377597 50.8904C0.0445666 51.608 0 51.884 0 53.2273C0 54.655 0.0293766 54.8109 0.468307 55.7116C1.06401 56.9341 2.31101 58.1341 3.47003 58.6003C4.12706 58.8647 4.58218 58.9348 5.66353 58.9384C6.91283 58.9426 7.10628 58.9041 7.95634 58.4812C8.46692 58.2272 9.1529 57.7874 9.48063 57.5039C9.80836 57.2204 10.1308 56.9894 10.1971 56.9902C10.2635 56.9913 14.6704 59.3902 19.9904 62.3213L29.6632 67.6506L29.7687 68.726C29.9795 70.8755 31.1943 72.6065 33.1483 73.5418C34.014 73.9561 34.2358 74 35.4669 74C36.698 74 36.9198 73.9561 37.7855 73.5418C39.7366 72.6079 40.9536 70.876 41.1651 68.7322L41.2706 67.6632L50.9434 62.3285C56.2634 59.3944 60.6612 56.9927 60.7161 56.9913C60.771 56.9897 61.2324 57.307 61.7414 57.6962C63.6596 59.1631 65.9 59.372 68.0158 58.2814C68.9242 57.8132 69.9626 56.6713 70.4763 55.5756C70.891 54.6912 70.9339 54.4707 70.9339 53.2243C70.9339 51.9805 70.8904 51.7564 70.4803 50.8817C69.8664 49.5725 69.0386 48.7037 67.8168 48.0861C67.2638 47.8066 66.7232 47.5779 66.6156 47.5779C66.4523 47.5779 66.4199 46.0295 66.4199 38.2013V28.8246L67.1206 28.5732C71.2434 27.0939 72.3381 21.8516 69.1476 18.8673C67.9648 17.7609 67.0418 17.4118 65.2735 17.4021C64.0776 17.3955 63.8088 17.4432 63.0623 17.7951C62.5949 18.0154 61.95 18.4128 61.6293 18.6782L61.0461 19.1607L51.1584 12.8788L41.2706 6.59686L41.1702 5.41286C40.9134 2.38467 38.687 0.149 35.7892 0.00972319C35.1785 -0.0196669 34.4284 0.0198577 34.1225 0.097459ZM36.5251 2.43824C37.7566 2.80583 38.9061 4.3984 38.9061 5.73688C38.9061 7.53083 37.2426 9.21156 35.4669 9.21156C33.6913 9.21156 32.0277 7.53083 32.0277 5.73688C32.0277 4.82694 32.3556 4.09277 33.0976 3.34151C34.1028 2.32372 35.1856 2.03836 36.5251 2.43824ZM33.1228 10.9854C34.0169 11.4132 34.2285 11.4556 35.4669 11.4556C36.7088 11.4556 36.9163 11.4136 37.8314 10.9779C38.5346 10.6431 39.0714 10.2459 39.6265 9.64981L40.4187 8.79952L50.0875 14.9428C59.3335 20.8172 59.7544 21.1032 59.7104 21.4829C59.685 21.701 59.6536 22.466 59.6406 23.1827C59.6188 24.37 59.6568 24.5716 60.0684 25.4528C60.6793 26.7606 61.5072 27.6303 62.7302 28.2485C63.2832 28.5279 63.8237 28.7567 63.9313 28.7567C64.0948 28.7567 64.1271 30.3103 64.1271 38.1673C64.1271 46.0243 64.0948 47.5779 63.9313 47.5779C63.8237 47.5779 63.2832 47.8066 62.7302 48.0861C61.5064 48.7047 60.6767 49.5766 60.0744 50.877C59.6955 51.695 59.6276 52.0133 59.621 53.0022C59.6167 53.642 59.6453 54.3147 59.6847 54.4974C59.7509 54.8042 59.1072 55.1878 51.23 59.536C46.5405 62.1247 42.2029 64.5129 41.5909 64.8432L40.478 65.4437L40.2322 65.089C39.6087 64.1888 38.9314 63.6052 37.929 63.1047C36.9024 62.592 36.7681 62.5625 35.4669 62.5625C34.1658 62.5625 34.0315 62.592 33.0049 63.1047C32.0003 63.6062 31.3281 64.186 30.6959 65.0961L30.4444 65.4581L29.9104 65.1539C29.6168 64.9867 25.2717 62.5897 20.2544 59.8275L11.1322 54.8051L11.2795 54.268C11.6734 52.8326 11.0105 50.5687 9.81137 49.2546C9.24992 48.639 7.47213 47.5779 7.00253 47.5779C6.83903 47.5779 6.80678 46.0243 6.80678 38.1673C6.80678 30.3103 6.83903 28.7567 7.00253 28.7567C7.11015 28.7567 7.65068 28.5279 8.20368 28.2485C9.42747 27.6299 10.2572 26.758 10.8595 25.4576C11.2384 24.6396 11.3063 24.3212 11.3129 23.3324C11.3172 22.6926 11.2674 21.9369 11.2022 21.653L11.0837 21.1367L16.3611 17.7923C19.2636 15.9529 23.634 13.1779 26.0731 11.6257L30.5079 8.80343L31.324 9.65936C31.8762 10.2385 32.4579 10.6673 33.1228 10.9854ZM27.888 16.3898C26.0124 16.8995 24.2756 18.34 23.5029 20.0268C23.2914 20.4885 23.071 20.9601 23.0129 21.0747C22.9551 21.1895 22.5716 21.3598 22.1609 21.4533C21.1433 21.6848 19.4898 22.5405 18.6631 23.2632C17.7633 24.0499 16.8301 25.404 16.324 26.6574C15.9532 27.5754 15.9117 27.8524 15.883 29.5986L15.8514 31.5261L15.3465 32.0908C14.2288 33.3407 13.6887 34.9432 13.6887 37.0091C13.6887 39.0749 14.2288 40.6775 15.3465 41.9273L15.8514 42.492L15.883 44.4196C15.9117 46.1657 15.9532 46.4427 16.324 47.3607C17.3831 49.9837 19.4952 51.8691 22.1337 52.5466C22.5637 52.657 22.9611 52.8383 23.017 52.9496C23.0727 53.0608 23.2968 53.5428 23.5149 54.0205C24.001 55.0854 25.3631 56.51 26.4047 57.0434C28.5379 58.1354 31.4536 58.1283 33.3174 57.0266C33.6721 56.8169 34.301 56.3219 34.7152 55.9267L35.4681 55.2082L36.2915 55.9997C37.6276 57.284 39.0765 57.8472 41.0614 57.8537C43.8502 57.8628 46.3528 56.3453 47.431 53.9913C47.6425 53.5296 47.8611 53.0608 47.9169 52.9496C47.9728 52.8383 48.3702 52.657 48.8002 52.5466C51.4387 51.8691 53.5508 49.9837 54.6099 47.3607C54.9806 46.4427 55.0222 46.1657 55.0508 44.4196L55.0825 42.492L55.5874 41.9273C56.6885 40.696 57.2494 39.037 57.2469 37.0189C57.2443 34.9408 56.706 33.3415 55.5874 32.0908L55.0825 31.5261L55.0477 29.5986C55.0169 27.8951 54.9677 27.555 54.6257 26.6752C54.1551 25.4651 53.1901 24.0669 52.2708 23.2632C51.4441 22.5405 49.7906 21.6848 48.773 21.4533C48.3623 21.3598 47.9788 21.1895 47.9209 21.0747C47.8629 20.9601 47.637 20.4753 47.4189 19.9976C46.9328 18.9327 45.5708 17.5081 44.5291 16.9747C43.4673 16.4311 42.3085 16.1604 41.0614 16.1644C39.0741 16.1709 37.6278 16.7341 36.2862 18.0235L35.4575 18.8201L34.7099 18.0877C33.7853 17.1819 32.9286 16.6777 31.8185 16.3856C30.7642 16.1082 28.9169 16.1103 27.888 16.3898ZM31.9678 18.9016C32.8851 19.3109 33.5056 19.931 33.917 20.8492C34.2393 21.5687 34.2502 21.7294 34.2936 26.413L34.3381 31.2357L33.507 30.5518C33.0499 30.1757 32.2203 29.6492 31.6637 29.3821C30.7651 28.951 30.5997 28.9148 30.1902 29.059C29.6641 29.2443 29.4483 29.5673 29.4483 30.1697C29.4483 30.6786 29.8225 31.0491 30.8736 31.5807C33.2426 32.7791 34.6306 35.3788 34.2138 37.8376C33.8802 39.8053 32.4901 41.7013 30.7856 42.5138C29.8262 42.9712 29.4483 43.3482 29.4483 43.8484C29.4483 44.4508 29.6641 44.7738 30.1902 44.9591C30.5997 45.1033 30.7651 45.0671 31.6637 44.636C32.2203 44.3689 33.0499 43.8425 33.507 43.4663L34.3381 42.7824L34.2936 47.6051C34.2502 52.2887 34.2393 52.4494 33.917 53.169C33.2786 54.594 32.0741 55.36 30.2534 55.4992C27.9379 55.6761 25.9604 54.4332 25.2049 52.3265C24.8974 51.4684 24.7777 48.9734 24.9995 48.0392C25.0963 47.6319 25.4274 46.8764 25.7355 46.3603C26.0436 45.8443 26.2957 45.2526 26.2957 45.0456C26.2957 44.5355 25.6997 43.9584 25.1728 43.9584C24.0254 43.9584 22.5699 46.9303 22.5699 49.2733C22.5699 49.9379 22.518 50.1839 22.3778 50.1839C21.8611 50.1839 20.3819 49.2397 19.6538 48.445C18.693 47.3966 18.2479 46.3243 18.1586 44.8433L18.0943 43.7738L18.4692 43.869C19.5669 44.1472 20.0582 44.1345 20.4562 43.8173C20.7608 43.5743 20.8503 43.3797 20.8503 42.9597C20.8503 42.2716 20.4278 41.8583 19.5942 41.7312C18.537 41.5697 17.8673 41.205 17.1279 40.3876C16.2699 39.4392 15.978 38.5815 15.978 37.0091C15.978 35.4366 16.2699 34.5789 17.1279 33.6305C17.8673 32.8131 18.537 32.4484 19.5942 32.287C20.3868 32.1661 20.8503 31.7414 20.8503 31.1363C20.8503 30.1396 20.1131 29.7946 18.6487 30.106L18.0953 30.2237L18.1592 29.1644C18.1959 28.5551 18.3601 27.7495 18.5457 27.2676C18.9793 26.1423 20.1743 24.8497 21.3125 24.2751C22.5375 23.6566 22.5699 23.6687 22.5699 24.7449C22.5699 26.4076 23.3857 28.6781 24.3017 29.5647C24.8549 30.1004 25.5062 30.1021 25.9601 29.569C26.4189 29.0302 26.3855 28.7465 25.7355 27.6578C25.4274 27.1417 25.0963 26.3862 24.9995 25.979C24.7784 25.0473 24.8971 22.5505 25.203 21.6971C25.7136 20.2737 26.7306 19.2698 28.2016 18.7374C29.1967 18.3774 30.9659 18.4545 31.9678 18.9016ZM43.2302 18.944C45.1652 19.839 46.0712 21.5809 46.0712 24.4068C46.0712 25.7353 45.8134 26.6917 45.1915 27.6708C44.6261 28.5609 44.5783 29.2538 45.0553 29.644C45.592 30.0831 46.2566 29.9971 46.7546 29.4242C47.6731 28.3672 48.364 26.3586 48.364 24.7449C48.364 23.6687 48.3964 23.6566 49.6213 24.2751C50.7595 24.8497 51.9545 26.1423 52.3882 27.2676C52.5737 27.7495 52.738 28.5551 52.7746 29.1644L52.8386 30.2237L52.2851 30.106C50.8207 29.7946 50.0836 30.1396 50.0836 31.1363C50.0836 31.7414 50.547 32.1661 51.3396 32.287C52.3969 32.4484 53.0665 32.8131 53.806 33.6305C54.6639 34.5789 54.9558 35.4366 54.9558 37.0091C54.9558 38.5815 54.6639 39.4392 53.806 40.3876C53.0665 41.205 52.3969 41.5697 51.3396 41.7312C50.5061 41.8583 50.0836 42.2716 50.0836 42.9597C50.0836 43.3797 50.173 43.5743 50.4777 43.8173C50.8756 44.1345 51.367 44.1472 52.4647 43.869L52.8396 43.7738L52.7752 44.8433C52.6859 46.3243 52.2408 47.3966 51.28 48.445C50.5644 49.2261 49.0748 50.1839 48.5759 50.1839C48.4607 50.1839 48.3786 49.7642 48.3279 48.9171C48.2084 46.9244 47.1358 44.4888 46.2062 44.0997C45.4537 43.7848 44.6382 44.3052 44.6382 45.1C44.6382 45.2943 44.8342 45.7621 45.0739 46.1394C46.0614 47.6942 46.3343 49.6765 45.8498 51.7765C45.2892 54.2072 43.2251 55.6935 40.6805 55.4992C38.8597 55.36 37.6553 54.594 37.0169 53.169C36.6946 52.4494 36.6837 52.2887 36.6403 47.6051L36.5957 42.7824L37.4268 43.4663C37.884 43.8425 38.7135 44.3689 39.2701 44.636C40.1688 45.0671 40.3341 45.1033 40.7437 44.9591C41.2697 44.7738 41.4856 44.4508 41.4856 43.8484C41.4856 43.3399 41.1114 42.969 40.0644 42.4396C39.141 41.9725 37.9017 40.8269 37.4204 39.9953C36.0291 37.5921 36.5253 34.5755 38.6367 32.6005C39.0871 32.1791 39.7674 31.6858 40.1483 31.5043C41.1077 31.0469 41.4856 30.6699 41.4856 30.1697C41.4856 29.5673 41.2697 29.2443 40.7437 29.059C40.3341 28.9148 40.1688 28.951 39.2701 29.3821C38.7135 29.6492 37.884 30.1757 37.4268 30.5518L36.5957 31.2357L36.6403 26.413C36.6837 21.7329 36.6947 21.5687 37.0151 20.8662C37.7854 19.177 39.1376 18.4474 41.3451 18.5301C42.1367 18.5598 42.637 18.6695 43.2302 18.944ZM6.71851 19.8117C7.50566 20.0466 8.69276 21.246 8.92534 22.0413C9.32228 23.3987 9.04242 24.4809 8.02971 25.5041C6.57994 26.9688 4.74082 26.9688 3.29104 25.5041C1.84127 24.0394 1.84127 22.1829 3.29104 20.7149C4.2963 19.6972 5.37908 19.4118 6.71851 19.8117ZM66.3316 19.8117C67.5631 20.1793 68.7127 21.7718 68.7127 23.1103C68.7127 24.9043 67.0491 26.585 65.2735 26.585C63.4978 26.585 61.8343 24.9043 61.8343 23.1103C61.8343 22.2004 62.1621 21.4662 62.9041 20.7149C63.9094 19.6972 64.9922 19.4118 66.3316 19.8117ZM22.7868 31.5318C22.4082 31.8326 22.3946 31.8879 22.4577 32.8788C22.5349 34.0954 22.9586 35.1277 23.8412 36.249L24.4395 37.0091L23.8525 37.7592C22.8598 39.0281 22.429 40.125 22.4026 41.451C22.3913 42.0187 22.4528 42.1863 22.7741 42.4656C23.5621 43.1504 24.4934 42.687 24.6555 41.5293C24.8617 40.0564 25.5971 38.9597 26.78 38.3609C27.8283 37.8302 28.0153 37.6257 28.0153 37.0091C28.0153 36.3924 27.8283 36.1879 26.78 35.6573C25.5971 35.0585 24.8617 33.9618 24.6555 32.4888C24.4948 31.3417 23.6016 30.8842 22.7868 31.5318ZM46.7435 31.5115C46.4786 31.722 46.347 31.9983 46.2784 32.4888C46.0722 33.9618 45.3368 35.0585 44.1538 35.6573C43.1056 36.1879 42.9186 36.3924 42.9186 37.0091C42.9186 37.6257 43.1056 37.8302 44.1538 38.3609C45.3368 38.9597 46.0722 40.0564 46.2784 41.5293C46.439 42.6764 47.3322 43.1339 48.147 42.4863C48.5256 42.1855 48.5392 42.1302 48.4762 41.1393C48.399 39.9227 47.9752 38.8905 47.0926 37.7691L46.4943 37.0091L47.0923 36.249C47.9542 35.1534 48.3898 34.087 48.4723 32.871C48.5391 31.8866 48.5261 31.8329 48.147 31.5318C47.6536 31.1396 47.2193 31.1334 46.7435 31.5115ZM6.71851 49.9256C7.95004 50.2932 9.0996 51.8858 9.0996 53.2243C9.0996 55.0182 7.43602 56.699 5.66038 56.699C4.75902 56.699 4.0332 56.3678 3.29104 55.618C1.84127 54.1533 1.84127 52.2968 3.29104 50.8289C4.2963 49.8111 5.37908 49.5257 6.71851 49.9256ZM66.3316 49.9256C67.5631 50.2932 68.7127 51.8858 68.7127 53.2243C68.7127 55.0182 67.0491 56.699 65.2735 56.699C64.3721 56.699 63.6463 56.3678 62.9041 55.618C61.4544 54.1533 61.4544 52.2968 62.9041 50.8289C63.9094 49.8111 64.9922 49.5257 66.3316 49.9256ZM36.5251 64.9826C37.7566 65.3502 38.9061 66.9428 38.9061 68.2812C38.9061 70.0752 37.2426 71.7559 35.4669 71.7559C33.6913 71.7559 32.0277 70.0752 32.0277 68.2812C32.0277 67.3713 32.3556 66.6371 33.0976 65.8859C34.1028 64.8681 35.1856 64.5827 36.5251 64.9826Z" fill="url(#paint1_radial_1461_4890)"/>
<defs>
<radialGradient id="paint0_radial_1461_4890" cx="0" cy="0" r="1" gradientUnits="userSpaceOnUse" gradientTransform="translate(18.7361 15.4167) rotate(52.1981) scale(61.1359 60.559)">
<stop stop-color="white" stop-opacity="0.59"/>
<stop offset="0.697917" stop-color="white" stop-opacity="0"/>
<stop offset="1" stop-color="white" stop-opacity="0"/>
</radialGradient>
<radialGradient id="paint1_radial_1461_4890" cx="0" cy="0" r="1" gradientUnits="userSpaceOnUse" gradientTransform="translate(61.274 64.75) rotate(-93.5221) scale(63.3279 67.7423)">
<stop stop-opacity="0.23"/>
<stop offset="0.861815" stop-opacity="0"/>
</radialGradient>
</defs>
</svg>
