<svg width="68" height="73" viewBox="0 0 68 73" fill="none" xmlns="http://www.w3.org/2000/svg">
<path fill-rule="evenodd" clip-rule="evenodd" d="M12.3883 0.122407C11.4099 0.354628 9.98297 1.19582 9.28829 1.94995C8.93512 2.33347 8.42197 3.12066 8.14825 3.69893L7.65036 4.75061V16.9521V29.1535L8.14825 30.2052C8.84105 31.6689 9.73285 32.5805 11.1647 33.2886L12.3533 33.8766H34H55.6467L56.8353 33.2886C58.2672 32.5805 59.1589 31.6689 59.8517 30.2052L60.3496 29.1535V16.9521V4.75061L59.8517 3.69893C59.1589 2.23538 58.2672 1.32366 56.8355 0.615503L55.6468 0.0274721L34.3228 0.00259671C21.7893 -0.0122025 12.7472 0.0373908 12.3883 0.122407ZM55.2974 2.65921C56.1615 2.91473 57.4647 4.21895 57.72 5.08375C57.9944 6.01311 57.9944 27.891 57.72 28.8204C57.4647 29.6852 56.1615 30.9894 55.2974 31.2449C54.8198 31.3861 52.1103 31.4364 44.9701 31.4364H35.2903L35.2351 28.7908L35.1798 26.1452L34.5923 24.9557C33.8847 23.5232 32.9735 22.6305 31.5113 21.9373L30.4605 21.439H25.1906H19.9206L18.8698 21.9373C17.4076 22.6305 16.4964 23.5232 15.7889 24.9557L15.2013 26.1452L15.1461 28.7908L15.0909 31.4364H14.2205C13.7418 31.4364 13.0587 31.3502 12.7026 31.2449C11.8385 30.9894 10.5353 29.6852 10.28 28.8204C10.0056 27.891 10.0056 6.01311 10.28 5.08375C10.5167 4.28176 11.8336 2.91709 12.6057 2.67353C13.4353 2.41187 54.4143 2.39802 55.2974 2.65921ZM23.7147 6.41127C22.7192 6.6616 21.3025 7.50074 20.6147 8.24747C20.2615 8.63099 19.7484 9.41818 19.4747 9.99645C19.0238 10.9488 18.9768 11.1901 18.9768 12.552C18.9768 13.9713 19.0098 14.1226 19.5643 15.2454C20.2719 16.6784 21.1828 17.5709 22.6453 18.2643C23.5956 18.7149 23.8391 18.7626 25.1906 18.7626C26.542 18.7626 26.7855 18.7149 27.7359 18.2643C29.1984 17.5709 30.1092 16.6784 30.8168 15.2454C31.372 14.1213 31.4044 13.9725 31.4044 12.5438C31.4044 11.115 31.372 10.9663 30.8168 9.84216C29.7539 7.68951 27.8653 6.42638 25.5444 6.31586C24.8739 6.2839 24.0505 6.32688 23.7147 6.41127ZM26.3522 8.95673C27.7041 9.35646 28.966 11.0883 28.966 12.5438C28.966 14.4946 27.1398 16.3223 25.1906 16.3223C23.2413 16.3223 21.4151 14.4946 21.4151 12.5438C21.4151 11.5543 21.775 10.7559 22.5896 9.93898C23.6931 8.83219 24.8818 8.52188 26.3522 8.95673ZM37.7755 11.2843V12.5438H45.3264H52.8774V11.2843V10.0248H45.3264H37.7755V11.2843ZM37.7755 16.3223V17.5818H42.8094H47.8434V16.3223V15.0628H42.8094H37.7755V16.3223ZM37.7755 21.3603V22.6198H45.3264H52.8774V21.3603V20.1008H45.3264H37.7755V21.3603ZM30.1276 24.0708C30.9917 24.3263 32.2949 25.6305 32.5502 26.4953C32.6594 26.8651 32.7415 28.0647 32.7415 29.2898V31.4364H25.1906H17.6396V29.2898C17.6396 28.0647 17.7217 26.8651 17.8309 26.4953C18.0677 25.6933 19.3845 24.3287 20.1566 24.0851C20.9551 23.8332 29.2838 23.8212 30.1276 24.0708ZM8.61279 42.9369C7.61733 43.1872 6.20058 44.0264 5.51282 44.7731C5.15965 45.1566 4.6465 45.9438 4.37278 46.5221C3.92193 47.4744 3.87489 47.7158 3.87489 49.0776C3.87489 50.4969 3.90793 50.6482 4.46245 51.7711C5.17004 53.2041 6.08087 54.0966 7.54339 54.7899C8.49371 55.2405 8.73723 55.2882 10.0887 55.2882C11.4401 55.2882 11.6837 55.2405 12.634 54.7899C14.0965 54.0966 15.0073 53.2041 15.7149 51.7711C16.2701 50.6469 16.3025 50.4982 16.3025 49.0694C16.3025 47.6407 16.2701 47.4919 15.7149 46.3678C14.652 44.2151 12.7634 42.952 10.4425 42.8415C9.77202 42.8095 8.94865 42.8525 8.61279 42.9369ZM32.5241 42.9369C31.5286 43.1872 30.1119 44.0264 29.4241 44.7731C29.071 45.1566 28.5578 45.9438 28.2841 46.5221C27.8332 47.4744 27.7862 47.7158 27.7862 49.0776C27.7862 50.4969 27.8192 50.6482 28.3738 51.7711C29.0814 53.2041 29.9922 54.0966 31.4547 54.7899C32.405 55.2405 32.6485 55.2882 34 55.2882C35.3515 55.2882 35.595 55.2405 36.5453 54.7899C38.0078 54.0966 38.9187 53.2041 39.6262 51.7711C40.1814 50.6469 40.2138 50.4982 40.2138 49.0694C40.2138 47.6407 40.1814 47.4919 39.6262 46.3678C38.5633 44.2151 36.6748 42.952 34.3538 42.8415C33.6833 42.8095 32.86 42.8525 32.5241 42.9369ZM56.4354 42.9369C55.44 43.1872 54.0232 44.0264 53.3354 44.7731C52.9823 45.1566 52.4691 45.9438 52.1954 46.5221C51.7446 47.4744 51.6975 47.7158 51.6975 49.0776C51.6975 50.4969 51.7305 50.6482 52.2851 51.7711C52.9927 53.2041 53.9035 54.0966 55.366 54.7899C56.3163 55.2405 56.5599 55.2882 57.9113 55.2882C59.2628 55.2882 59.5063 55.2405 60.4566 54.7899C61.9191 54.0966 62.83 53.2041 63.5376 51.7711C64.0927 50.6469 64.1251 50.4982 64.1251 49.0694C64.1251 47.6407 64.0927 47.4919 63.5376 46.3678C62.4746 44.2151 60.5861 42.952 58.2651 42.8415C57.5946 42.8095 56.7713 42.8525 56.4354 42.9369ZM11.2503 45.4823C12.6022 45.8821 13.8642 47.6139 13.8642 49.0694C13.8642 51.0202 12.0379 52.8479 10.0887 52.8479C9.0992 52.8479 8.30242 52.4879 7.4877 51.6725C5.89618 50.0797 5.89618 48.0609 7.4877 46.4646C8.59124 45.3578 9.77989 45.0475 11.2503 45.4823ZM35.1616 45.4823C36.5135 45.8821 37.7755 47.6139 37.7755 49.0694C37.7755 51.0202 35.9492 52.8479 34 52.8479C32.0508 52.8479 30.2245 51.0202 30.2245 49.0694C30.2245 48.0799 30.5845 47.2815 31.399 46.4646C32.5026 45.3578 33.6912 45.0475 35.1616 45.4823ZM59.0729 45.4823C60.4248 45.8821 61.6868 47.6139 61.6868 49.0694C61.6868 51.0202 59.8606 52.8479 57.9113 52.8479C56.9218 52.8479 56.125 52.4879 55.3103 51.6725C53.7188 50.0797 53.7188 48.0609 55.3103 46.4646C56.4139 45.3578 57.6025 45.0475 59.0729 45.4823ZM4.83732 58.0561C3.85208 58.2956 2.4292 59.136 1.73735 59.8871C1.38418 60.2707 0.871033 61.0579 0.597311 61.6361L0.0994207 62.6878L0.0497101 67.4472L0 72.2064L0.396582 72.6033L0.793006 73H10.0887H19.3844L19.7808 72.6033L20.1774 72.2064L20.1277 67.4472L20.078 62.6878L19.5801 61.6361C18.8874 60.173 17.9955 59.2609 16.5642 58.5527L15.3761 57.9647L10.4121 57.9362C7.68182 57.9204 5.17318 57.9744 4.83732 58.0561ZM28.7486 58.0561C27.7634 58.2956 26.3405 59.136 25.6487 59.8871C25.2955 60.2707 24.7823 61.0579 24.5086 61.6361L24.0107 62.6878L23.961 67.4472L23.9113 72.2064L24.3079 72.6033L24.7043 73H34H43.2957L43.6921 72.6033L44.0887 72.2064L44.039 67.4472L43.9893 62.6878L43.4914 61.6361C42.7987 60.173 41.9068 59.2609 40.4756 58.5527L39.2874 57.9647L34.3234 57.9362C31.5931 57.9204 29.0845 57.9744 28.7486 58.0561ZM52.66 58.0561C51.6747 58.2956 50.2518 59.136 49.56 59.8871C49.2068 60.2707 48.6937 61.0579 48.4199 61.6361L47.922 62.6878L47.8723 67.4472L47.8226 72.2064L48.2192 72.6033L48.6156 73H57.9113H67.207L67.6034 72.6033L68 72.2064L67.9503 67.4472L67.9006 62.6878L67.4027 61.6361C66.71 60.173 65.8181 59.2609 64.3869 58.5527L63.1987 57.9647L58.2347 57.9362C55.5045 57.9204 52.9958 57.9744 52.66 58.0561ZM15.0257 60.5964C15.8899 60.8519 17.193 62.1561 17.4483 63.0209C17.5726 63.4422 17.6396 64.8609 17.6396 67.075V70.481H10.0887H2.53775V67.075C2.53775 64.8609 2.60476 63.4422 2.72904 63.0209C2.96579 62.219 4.28264 60.8543 5.05473 60.6107C5.85324 60.3588 14.1819 60.3469 15.0257 60.5964ZM38.9371 60.5964C39.8012 60.8519 41.1043 62.1561 41.3596 63.0209C41.4839 63.4422 41.5509 64.8609 41.5509 67.075V70.481H34H26.4491V67.075C26.4491 64.8609 26.5161 63.4422 26.6404 63.0209C26.8771 62.219 28.194 60.8543 28.966 60.6107C29.7646 60.3588 38.0932 60.3469 38.9371 60.5964ZM62.8484 60.5964C63.7125 60.8519 65.0156 62.1561 65.271 63.0209C65.3952 63.4422 65.4623 64.8609 65.4623 67.075V70.481H57.9113H50.3604V67.075C50.3604 64.8609 50.4274 63.4422 50.5517 63.0209C50.7884 62.219 52.1053 60.8543 52.8774 60.6107C53.6759 60.3588 62.0046 60.3469 62.8484 60.5964Z" fill="#0066FF"/>
<path fill-rule="evenodd" clip-rule="evenodd" d="M12.3883 0.122407C11.4099 0.354628 9.98297 1.19582 9.28829 1.94995C8.93512 2.33347 8.42197 3.12066 8.14825 3.69893L7.65036 4.75061V16.9521V29.1535L8.14825 30.2052C8.84105 31.6689 9.73285 32.5805 11.1647 33.2886L12.3533 33.8766H34H55.6467L56.8353 33.2886C58.2672 32.5805 59.1589 31.6689 59.8517 30.2052L60.3496 29.1535V16.9521V4.75061L59.8517 3.69893C59.1589 2.23538 58.2672 1.32366 56.8355 0.615503L55.6468 0.0274721L34.3228 0.00259671C21.7893 -0.0122025 12.7472 0.0373908 12.3883 0.122407ZM55.2974 2.65921C56.1615 2.91473 57.4647 4.21895 57.72 5.08375C57.9944 6.01311 57.9944 27.891 57.72 28.8204C57.4647 29.6852 56.1615 30.9894 55.2974 31.2449C54.8198 31.3861 52.1103 31.4364 44.9701 31.4364H35.2903L35.2351 28.7908L35.1798 26.1452L34.5923 24.9557C33.8847 23.5232 32.9735 22.6305 31.5113 21.9373L30.4605 21.439H25.1906H19.9206L18.8698 21.9373C17.4076 22.6305 16.4964 23.5232 15.7889 24.9557L15.2013 26.1452L15.1461 28.7908L15.0909 31.4364H14.2205C13.7418 31.4364 13.0587 31.3502 12.7026 31.2449C11.8385 30.9894 10.5353 29.6852 10.28 28.8204C10.0056 27.891 10.0056 6.01311 10.28 5.08375C10.5167 4.28176 11.8336 2.91709 12.6057 2.67353C13.4353 2.41187 54.4143 2.39802 55.2974 2.65921ZM23.7147 6.41127C22.7192 6.6616 21.3025 7.50074 20.6147 8.24747C20.2615 8.63099 19.7484 9.41818 19.4747 9.99645C19.0238 10.9488 18.9768 11.1901 18.9768 12.552C18.9768 13.9713 19.0098 14.1226 19.5643 15.2454C20.2719 16.6784 21.1828 17.5709 22.6453 18.2643C23.5956 18.7149 23.8391 18.7626 25.1906 18.7626C26.542 18.7626 26.7855 18.7149 27.7359 18.2643C29.1984 17.5709 30.1092 16.6784 30.8168 15.2454C31.372 14.1213 31.4044 13.9725 31.4044 12.5438C31.4044 11.115 31.372 10.9663 30.8168 9.84216C29.7539 7.68951 27.8653 6.42638 25.5444 6.31586C24.8739 6.2839 24.0505 6.32688 23.7147 6.41127ZM26.3522 8.95673C27.7041 9.35646 28.966 11.0883 28.966 12.5438C28.966 14.4946 27.1398 16.3223 25.1906 16.3223C23.2413 16.3223 21.4151 14.4946 21.4151 12.5438C21.4151 11.5543 21.775 10.7559 22.5896 9.93898C23.6931 8.83219 24.8818 8.52188 26.3522 8.95673ZM37.7755 11.2843V12.5438H45.3264H52.8774V11.2843V10.0248H45.3264H37.7755V11.2843ZM37.7755 16.3223V17.5818H42.8094H47.8434V16.3223V15.0628H42.8094H37.7755V16.3223ZM37.7755 21.3603V22.6198H45.3264H52.8774V21.3603V20.1008H45.3264H37.7755V21.3603ZM30.1276 24.0708C30.9917 24.3263 32.2949 25.6305 32.5502 26.4953C32.6594 26.8651 32.7415 28.0647 32.7415 29.2898V31.4364H25.1906H17.6396V29.2898C17.6396 28.0647 17.7217 26.8651 17.8309 26.4953C18.0677 25.6933 19.3845 24.3287 20.1566 24.0851C20.9551 23.8332 29.2838 23.8212 30.1276 24.0708ZM8.61279 42.9369C7.61733 43.1872 6.20058 44.0264 5.51282 44.7731C5.15965 45.1566 4.6465 45.9438 4.37278 46.5221C3.92193 47.4744 3.87489 47.7158 3.87489 49.0776C3.87489 50.4969 3.90793 50.6482 4.46245 51.7711C5.17004 53.2041 6.08087 54.0966 7.54339 54.7899C8.49371 55.2405 8.73723 55.2882 10.0887 55.2882C11.4401 55.2882 11.6837 55.2405 12.634 54.7899C14.0965 54.0966 15.0073 53.2041 15.7149 51.7711C16.2701 50.6469 16.3025 50.4982 16.3025 49.0694C16.3025 47.6407 16.2701 47.4919 15.7149 46.3678C14.652 44.2151 12.7634 42.952 10.4425 42.8415C9.77202 42.8095 8.94865 42.8525 8.61279 42.9369ZM32.5241 42.9369C31.5286 43.1872 30.1119 44.0264 29.4241 44.7731C29.071 45.1566 28.5578 45.9438 28.2841 46.5221C27.8332 47.4744 27.7862 47.7158 27.7862 49.0776C27.7862 50.4969 27.8192 50.6482 28.3738 51.7711C29.0814 53.2041 29.9922 54.0966 31.4547 54.7899C32.405 55.2405 32.6485 55.2882 34 55.2882C35.3515 55.2882 35.595 55.2405 36.5453 54.7899C38.0078 54.0966 38.9187 53.2041 39.6262 51.7711C40.1814 50.6469 40.2138 50.4982 40.2138 49.0694C40.2138 47.6407 40.1814 47.4919 39.6262 46.3678C38.5633 44.2151 36.6748 42.952 34.3538 42.8415C33.6833 42.8095 32.86 42.8525 32.5241 42.9369ZM56.4354 42.9369C55.44 43.1872 54.0232 44.0264 53.3354 44.7731C52.9823 45.1566 52.4691 45.9438 52.1954 46.5221C51.7446 47.4744 51.6975 47.7158 51.6975 49.0776C51.6975 50.4969 51.7305 50.6482 52.2851 51.7711C52.9927 53.2041 53.9035 54.0966 55.366 54.7899C56.3163 55.2405 56.5599 55.2882 57.9113 55.2882C59.2628 55.2882 59.5063 55.2405 60.4566 54.7899C61.9191 54.0966 62.83 53.2041 63.5376 51.7711C64.0927 50.6469 64.1251 50.4982 64.1251 49.0694C64.1251 47.6407 64.0927 47.4919 63.5376 46.3678C62.4746 44.2151 60.5861 42.952 58.2651 42.8415C57.5946 42.8095 56.7713 42.8525 56.4354 42.9369ZM11.2503 45.4823C12.6022 45.8821 13.8642 47.6139 13.8642 49.0694C13.8642 51.0202 12.0379 52.8479 10.0887 52.8479C9.0992 52.8479 8.30242 52.4879 7.4877 51.6725C5.89618 50.0797 5.89618 48.0609 7.4877 46.4646C8.59124 45.3578 9.77989 45.0475 11.2503 45.4823ZM35.1616 45.4823C36.5135 45.8821 37.7755 47.6139 37.7755 49.0694C37.7755 51.0202 35.9492 52.8479 34 52.8479C32.0508 52.8479 30.2245 51.0202 30.2245 49.0694C30.2245 48.0799 30.5845 47.2815 31.399 46.4646C32.5026 45.3578 33.6912 45.0475 35.1616 45.4823ZM59.0729 45.4823C60.4248 45.8821 61.6868 47.6139 61.6868 49.0694C61.6868 51.0202 59.8606 52.8479 57.9113 52.8479C56.9218 52.8479 56.125 52.4879 55.3103 51.6725C53.7188 50.0797 53.7188 48.0609 55.3103 46.4646C56.4139 45.3578 57.6025 45.0475 59.0729 45.4823ZM4.83732 58.0561C3.85208 58.2956 2.4292 59.136 1.73735 59.8871C1.38418 60.2707 0.871033 61.0579 0.597311 61.6361L0.0994207 62.6878L0.0497101 67.4472L0 72.2064L0.396582 72.6033L0.793006 73H10.0887H19.3844L19.7808 72.6033L20.1774 72.2064L20.1277 67.4472L20.078 62.6878L19.5801 61.6361C18.8874 60.173 17.9955 59.2609 16.5642 58.5527L15.3761 57.9647L10.4121 57.9362C7.68182 57.9204 5.17318 57.9744 4.83732 58.0561ZM28.7486 58.0561C27.7634 58.2956 26.3405 59.136 25.6487 59.8871C25.2955 60.2707 24.7823 61.0579 24.5086 61.6361L24.0107 62.6878L23.961 67.4472L23.9113 72.2064L24.3079 72.6033L24.7043 73H34H43.2957L43.6921 72.6033L44.0887 72.2064L44.039 67.4472L43.9893 62.6878L43.4914 61.6361C42.7987 60.173 41.9068 59.2609 40.4756 58.5527L39.2874 57.9647L34.3234 57.9362C31.5931 57.9204 29.0845 57.9744 28.7486 58.0561ZM52.66 58.0561C51.6747 58.2956 50.2518 59.136 49.56 59.8871C49.2068 60.2707 48.6937 61.0579 48.4199 61.6361L47.922 62.6878L47.8723 67.4472L47.8226 72.2064L48.2192 72.6033L48.6156 73H57.9113H67.207L67.6034 72.6033L68 72.2064L67.9503 67.4472L67.9006 62.6878L67.4027 61.6361C66.71 60.173 65.8181 59.2609 64.3869 58.5527L63.1987 57.9647L58.2347 57.9362C55.5045 57.9204 52.9958 57.9744 52.66 58.0561ZM15.0257 60.5964C15.8899 60.8519 17.193 62.1561 17.4483 63.0209C17.5726 63.4422 17.6396 64.8609 17.6396 67.075V70.481H10.0887H2.53775V67.075C2.53775 64.8609 2.60476 63.4422 2.72904 63.0209C2.96579 62.219 4.28264 60.8543 5.05473 60.6107C5.85324 60.3588 14.1819 60.3469 15.0257 60.5964ZM38.9371 60.5964C39.8012 60.8519 41.1043 62.1561 41.3596 63.0209C41.4839 63.4422 41.5509 64.8609 41.5509 67.075V70.481H34H26.4491V67.075C26.4491 64.8609 26.5161 63.4422 26.6404 63.0209C26.8771 62.219 28.194 60.8543 28.966 60.6107C29.7646 60.3588 38.0932 60.3469 38.9371 60.5964ZM62.8484 60.5964C63.7125 60.8519 65.0156 62.1561 65.271 63.0209C65.3952 63.4422 65.4623 64.8609 65.4623 67.075V70.481H57.9113H50.3604V67.075C50.3604 64.8609 50.4274 63.4422 50.5517 63.0209C50.7884 62.219 52.1053 60.8543 52.8774 60.6107C53.6759 60.3588 62.0046 60.3469 62.8484 60.5964Z" fill="url(#paint0_radial_1461_4875)" fill-opacity="0.7"/>
<path fill-rule="evenodd" clip-rule="evenodd" d="M12.3883 0.122407C11.4099 0.354628 9.98297 1.19582 9.28829 1.94995C8.93512 2.33347 8.42197 3.12066 8.14825 3.69893L7.65036 4.75061V16.9521V29.1535L8.14825 30.2052C8.84105 31.6689 9.73285 32.5805 11.1647 33.2886L12.3533 33.8766H34H55.6467L56.8353 33.2886C58.2672 32.5805 59.1589 31.6689 59.8517 30.2052L60.3496 29.1535V16.9521V4.75061L59.8517 3.69893C59.1589 2.23538 58.2672 1.32366 56.8355 0.615503L55.6468 0.0274721L34.3228 0.00259671C21.7893 -0.0122025 12.7472 0.0373908 12.3883 0.122407ZM55.2974 2.65921C56.1615 2.91473 57.4647 4.21895 57.72 5.08375C57.9944 6.01311 57.9944 27.891 57.72 28.8204C57.4647 29.6852 56.1615 30.9894 55.2974 31.2449C54.8198 31.3861 52.1103 31.4364 44.9701 31.4364H35.2903L35.2351 28.7908L35.1798 26.1452L34.5923 24.9557C33.8847 23.5232 32.9735 22.6305 31.5113 21.9373L30.4605 21.439H25.1906H19.9206L18.8698 21.9373C17.4076 22.6305 16.4964 23.5232 15.7889 24.9557L15.2013 26.1452L15.1461 28.7908L15.0909 31.4364H14.2205C13.7418 31.4364 13.0587 31.3502 12.7026 31.2449C11.8385 30.9894 10.5353 29.6852 10.28 28.8204C10.0056 27.891 10.0056 6.01311 10.28 5.08375C10.5167 4.28176 11.8336 2.91709 12.6057 2.67353C13.4353 2.41187 54.4143 2.39802 55.2974 2.65921ZM23.7147 6.41127C22.7192 6.6616 21.3025 7.50074 20.6147 8.24747C20.2615 8.63099 19.7484 9.41818 19.4747 9.99645C19.0238 10.9488 18.9768 11.1901 18.9768 12.552C18.9768 13.9713 19.0098 14.1226 19.5643 15.2454C20.2719 16.6784 21.1828 17.5709 22.6453 18.2643C23.5956 18.7149 23.8391 18.7626 25.1906 18.7626C26.542 18.7626 26.7855 18.7149 27.7359 18.2643C29.1984 17.5709 30.1092 16.6784 30.8168 15.2454C31.372 14.1213 31.4044 13.9725 31.4044 12.5438C31.4044 11.115 31.372 10.9663 30.8168 9.84216C29.7539 7.68951 27.8653 6.42638 25.5444 6.31586C24.8739 6.2839 24.0505 6.32688 23.7147 6.41127ZM26.3522 8.95673C27.7041 9.35646 28.966 11.0883 28.966 12.5438C28.966 14.4946 27.1398 16.3223 25.1906 16.3223C23.2413 16.3223 21.4151 14.4946 21.4151 12.5438C21.4151 11.5543 21.775 10.7559 22.5896 9.93898C23.6931 8.83219 24.8818 8.52188 26.3522 8.95673ZM37.7755 11.2843V12.5438H45.3264H52.8774V11.2843V10.0248H45.3264H37.7755V11.2843ZM37.7755 16.3223V17.5818H42.8094H47.8434V16.3223V15.0628H42.8094H37.7755V16.3223ZM37.7755 21.3603V22.6198H45.3264H52.8774V21.3603V20.1008H45.3264H37.7755V21.3603ZM30.1276 24.0708C30.9917 24.3263 32.2949 25.6305 32.5502 26.4953C32.6594 26.8651 32.7415 28.0647 32.7415 29.2898V31.4364H25.1906H17.6396V29.2898C17.6396 28.0647 17.7217 26.8651 17.8309 26.4953C18.0677 25.6933 19.3845 24.3287 20.1566 24.0851C20.9551 23.8332 29.2838 23.8212 30.1276 24.0708ZM8.61279 42.9369C7.61733 43.1872 6.20058 44.0264 5.51282 44.7731C5.15965 45.1566 4.6465 45.9438 4.37278 46.5221C3.92193 47.4744 3.87489 47.7158 3.87489 49.0776C3.87489 50.4969 3.90793 50.6482 4.46245 51.7711C5.17004 53.2041 6.08087 54.0966 7.54339 54.7899C8.49371 55.2405 8.73723 55.2882 10.0887 55.2882C11.4401 55.2882 11.6837 55.2405 12.634 54.7899C14.0965 54.0966 15.0073 53.2041 15.7149 51.7711C16.2701 50.6469 16.3025 50.4982 16.3025 49.0694C16.3025 47.6407 16.2701 47.4919 15.7149 46.3678C14.652 44.2151 12.7634 42.952 10.4425 42.8415C9.77202 42.8095 8.94865 42.8525 8.61279 42.9369ZM32.5241 42.9369C31.5286 43.1872 30.1119 44.0264 29.4241 44.7731C29.071 45.1566 28.5578 45.9438 28.2841 46.5221C27.8332 47.4744 27.7862 47.7158 27.7862 49.0776C27.7862 50.4969 27.8192 50.6482 28.3738 51.7711C29.0814 53.2041 29.9922 54.0966 31.4547 54.7899C32.405 55.2405 32.6485 55.2882 34 55.2882C35.3515 55.2882 35.595 55.2405 36.5453 54.7899C38.0078 54.0966 38.9187 53.2041 39.6262 51.7711C40.1814 50.6469 40.2138 50.4982 40.2138 49.0694C40.2138 47.6407 40.1814 47.4919 39.6262 46.3678C38.5633 44.2151 36.6748 42.952 34.3538 42.8415C33.6833 42.8095 32.86 42.8525 32.5241 42.9369ZM56.4354 42.9369C55.44 43.1872 54.0232 44.0264 53.3354 44.7731C52.9823 45.1566 52.4691 45.9438 52.1954 46.5221C51.7446 47.4744 51.6975 47.7158 51.6975 49.0776C51.6975 50.4969 51.7305 50.6482 52.2851 51.7711C52.9927 53.2041 53.9035 54.0966 55.366 54.7899C56.3163 55.2405 56.5599 55.2882 57.9113 55.2882C59.2628 55.2882 59.5063 55.2405 60.4566 54.7899C61.9191 54.0966 62.83 53.2041 63.5376 51.7711C64.0927 50.6469 64.1251 50.4982 64.1251 49.0694C64.1251 47.6407 64.0927 47.4919 63.5376 46.3678C62.4746 44.2151 60.5861 42.952 58.2651 42.8415C57.5946 42.8095 56.7713 42.8525 56.4354 42.9369ZM11.2503 45.4823C12.6022 45.8821 13.8642 47.6139 13.8642 49.0694C13.8642 51.0202 12.0379 52.8479 10.0887 52.8479C9.0992 52.8479 8.30242 52.4879 7.4877 51.6725C5.89618 50.0797 5.89618 48.0609 7.4877 46.4646C8.59124 45.3578 9.77989 45.0475 11.2503 45.4823ZM35.1616 45.4823C36.5135 45.8821 37.7755 47.6139 37.7755 49.0694C37.7755 51.0202 35.9492 52.8479 34 52.8479C32.0508 52.8479 30.2245 51.0202 30.2245 49.0694C30.2245 48.0799 30.5845 47.2815 31.399 46.4646C32.5026 45.3578 33.6912 45.0475 35.1616 45.4823ZM59.0729 45.4823C60.4248 45.8821 61.6868 47.6139 61.6868 49.0694C61.6868 51.0202 59.8606 52.8479 57.9113 52.8479C56.9218 52.8479 56.125 52.4879 55.3103 51.6725C53.7188 50.0797 53.7188 48.0609 55.3103 46.4646C56.4139 45.3578 57.6025 45.0475 59.0729 45.4823ZM4.83732 58.0561C3.85208 58.2956 2.4292 59.136 1.73735 59.8871C1.38418 60.2707 0.871033 61.0579 0.597311 61.6361L0.0994207 62.6878L0.0497101 67.4472L0 72.2064L0.396582 72.6033L0.793006 73H10.0887H19.3844L19.7808 72.6033L20.1774 72.2064L20.1277 67.4472L20.078 62.6878L19.5801 61.6361C18.8874 60.173 17.9955 59.2609 16.5642 58.5527L15.3761 57.9647L10.4121 57.9362C7.68182 57.9204 5.17318 57.9744 4.83732 58.0561ZM28.7486 58.0561C27.7634 58.2956 26.3405 59.136 25.6487 59.8871C25.2955 60.2707 24.7823 61.0579 24.5086 61.6361L24.0107 62.6878L23.961 67.4472L23.9113 72.2064L24.3079 72.6033L24.7043 73H34H43.2957L43.6921 72.6033L44.0887 72.2064L44.039 67.4472L43.9893 62.6878L43.4914 61.6361C42.7987 60.173 41.9068 59.2609 40.4756 58.5527L39.2874 57.9647L34.3234 57.9362C31.5931 57.9204 29.0845 57.9744 28.7486 58.0561ZM52.66 58.0561C51.6747 58.2956 50.2518 59.136 49.56 59.8871C49.2068 60.2707 48.6937 61.0579 48.4199 61.6361L47.922 62.6878L47.8723 67.4472L47.8226 72.2064L48.2192 72.6033L48.6156 73H57.9113H67.207L67.6034 72.6033L68 72.2064L67.9503 67.4472L67.9006 62.6878L67.4027 61.6361C66.71 60.173 65.8181 59.2609 64.3869 58.5527L63.1987 57.9647L58.2347 57.9362C55.5045 57.9204 52.9958 57.9744 52.66 58.0561ZM15.0257 60.5964C15.8899 60.8519 17.193 62.1561 17.4483 63.0209C17.5726 63.4422 17.6396 64.8609 17.6396 67.075V70.481H10.0887H2.53775V67.075C2.53775 64.8609 2.60476 63.4422 2.72904 63.0209C2.96579 62.219 4.28264 60.8543 5.05473 60.6107C5.85324 60.3588 14.1819 60.3469 15.0257 60.5964ZM38.9371 60.5964C39.8012 60.8519 41.1043 62.1561 41.3596 63.0209C41.4839 63.4422 41.5509 64.8609 41.5509 67.075V70.481H34H26.4491V67.075C26.4491 64.8609 26.5161 63.4422 26.6404 63.0209C26.8771 62.219 28.194 60.8543 28.966 60.6107C29.7646 60.3588 38.0932 60.3469 38.9371 60.5964ZM62.8484 60.5964C63.7125 60.8519 65.0156 62.1561 65.271 63.0209C65.3952 63.4422 65.4623 64.8609 65.4623 67.075V70.481H57.9113H50.3604V67.075C50.3604 64.8609 50.4274 63.4422 50.5517 63.0209C50.7884 62.219 52.1053 60.8543 52.8774 60.6107C53.6759 60.3588 62.0046 60.3469 62.8484 60.5964Z" fill="url(#paint1_radial_1461_4875)"/>
<defs>
<radialGradient id="paint0_radial_1461_4875" cx="0" cy="0" r="1" gradientUnits="userSpaceOnUse" gradientTransform="translate(17.9444 15.2083) rotate(53.0154) scale(59.6557 58.6361)">
<stop stop-color="white" stop-opacity="0.59"/>
<stop offset="0.697917" stop-color="white" stop-opacity="0"/>
<stop offset="1" stop-color="white" stop-opacity="0"/>
</radialGradient>
<radialGradient id="paint1_radial_1461_4875" cx="0" cy="0" r="1" gradientUnits="userSpaceOnUse" gradientTransform="translate(58.6849 63.875) rotate(-93.4197) scale(62.4654 64.887)">
<stop stop-opacity="0.23"/>
<stop offset="0.861815" stop-opacity="0"/>
</radialGradient>
</defs>
</svg>
