<svg width="72" height="72" viewBox="0 0 72 72" fill="none" xmlns="http://www.w3.org/2000/svg">
<path fill-rule="evenodd" clip-rule="evenodd" d="M34.6637 0.16892C33.7463 0.403314 33.2387 0.612524 32.7598 0.953703C32.454 1.1715 32.1397 1.23157 31.3064 1.23157C29.7405 1.23157 28.8387 1.61032 27.737 2.73051C26.8964 3.58536 26.8299 3.62335 26.1723 3.62335C25.3756 3.62335 24.4752 3.91064 23.7299 4.40264C23.4302 4.6006 22.9997 4.74889 22.725 4.74889C22.4607 4.74889 21.8298 4.87692 21.3231 5.03351C18.8393 5.80085 17.4051 8.60584 18.2678 11.0097C18.4343 11.474 18.6028 11.9498 18.6422 12.0673C18.6879 12.2035 17.1614 14.0921 14.4194 17.2919L10.1249 22.3033L9.17179 21.9562C8.35691 21.6594 8.03507 21.6171 6.95265 21.6647C5.23612 21.7399 4.31729 22.1128 3.14429 23.2103C2.51917 23.7952 2.09717 24.3468 1.78223 24.9905C1.34813 25.8781 1.32605 26.0015 1.32605 27.5441C1.32605 29.0939 1.34644 29.2063 1.79081 30.1092C2.04639 30.6285 2.55279 31.3551 2.91613 31.7242L3.57669 32.395L2.90051 33.0646C2.50989 33.4515 2.03472 34.1347 1.77519 34.6825L1.32605 35.6309L1.28666 44.2092C1.24868 52.4832 1.2574 52.8208 1.5324 53.7263C1.68911 54.2426 2.06707 55.0357 2.37203 55.4889L2.92668 56.3128L1.79728 56.3831C0.776751 56.4467 0.635101 56.4916 0.328733 56.8482C-0.0447331 57.2831 -0.0953726 57.6488 0.153323 58.1159C0.482198 58.7334 0.642838 58.7657 3.40086 58.7704L6.03833 58.7749V64.1916V69.6082H4.62085C3.24177 69.6082 3.19225 69.6193 2.7922 70.0195C2.25866 70.5531 2.25866 71.0551 2.7922 71.5888L3.20337 72H7.22962H11.2557L11.6009 71.6546C12.0708 71.1848 12.0708 70.4234 11.6009 69.9536C11.2802 69.6327 11.1554 69.6082 9.84262 69.6082H8.42964V64.1916V58.7749H11.3739H14.3183L14.363 63.7343L14.4079 68.6937L14.7752 69.477C15.2096 70.4033 15.9518 71.1656 16.8517 71.6089C17.7697 72.0612 19.4951 72.0618 20.3471 71.6099C21.2394 71.1366 21.9084 70.489 22.3293 69.6912L22.7071 68.9751L22.7471 61.7746C22.7856 54.8484 22.7762 54.5416 22.5009 53.7243C22.3435 53.2571 22.2148 52.841 22.2148 52.7999C22.2148 52.7587 23.9555 52.7251 26.0831 52.7251H29.9514V61.1667V69.6082H27.9713H25.9911L25.58 70.0195C25.0464 70.5531 25.0464 71.0551 25.58 71.5888L25.9911 72H36H46.0089L46.4201 71.5888C46.6679 71.3409 46.8312 71.0292 46.8312 70.8041C46.8312 70.579 46.6679 70.2674 46.4201 70.0195L46.0089 69.6082H44.0287H42.0486V61.1667V52.7251H45.9319C49.3677 52.7251 49.8057 52.75 49.7323 52.9413C49.2266 54.2596 49.212 54.5303 49.2528 61.8176L49.2929 68.9751L49.6245 69.6082C50.0776 70.4731 50.7065 71.1104 51.5435 71.5526C52.1337 71.8645 52.4277 71.9243 53.3721 71.9249C55.2073 71.9258 56.4451 71.1399 57.2236 69.4796L57.5921 68.6937L57.637 63.7343L57.6817 58.7749H60.6261H63.5704V64.1916V69.6082H62.1574C60.8446 69.6082 60.7198 69.6327 60.3991 69.9536C59.9292 70.4234 59.9292 71.1848 60.3991 71.6546L60.7443 72H64.7704H68.7966L69.2078 71.5888C69.7413 71.0551 69.7413 70.5531 69.2078 70.0195C68.8077 69.6193 68.7582 69.6082 67.3792 69.6082H65.9617V64.1916V58.7749L68.5991 58.7704C71.3572 58.7657 71.5178 58.7334 71.8467 58.1159C72.0954 57.6488 72.0447 57.2831 71.6713 56.8482C71.3649 56.4916 71.2233 56.4467 70.2027 56.3831L69.0733 56.3128L69.6024 55.5269C69.8934 55.0946 70.2718 54.3032 70.4431 53.7682C70.7529 52.8015 70.7545 52.742 70.7143 44.2132L70.674 35.6309L70.2248 34.6825C69.9689 34.1424 69.4842 33.4427 69.0988 33.0572L68.4219 32.3802L69.0792 31.7247C70.3537 30.4541 71.0118 28.4344 70.7291 26.6618C70.1367 22.9475 66.4204 20.7399 62.8234 21.9657L61.8655 22.2923L57.1603 16.8015C53.2268 12.2114 52.4724 11.263 52.5619 11.0196C52.6207 10.8593 52.6661 10.1585 52.6629 9.46209C52.6581 8.41478 52.5979 8.0743 52.3146 7.4924C51.5858 5.99529 50.0833 4.9709 48.3664 4.80066C47.8702 4.75142 47.3693 4.63211 47.2532 4.53546C46.6728 4.0519 45.7245 3.7162 44.7606 3.65317C43.8626 3.59451 43.7177 3.54512 43.5088 3.22631C42.894 2.28789 41.1775 1.23185 40.2664 1.23171C40.0211 1.23157 39.3881 1.0142 38.8597 0.748573C37.3888 0.00909264 36.0262 -0.179154 34.6637 0.16892ZM37.1231 2.56745C37.4508 2.68296 37.9776 2.96786 38.2938 3.20057C38.7465 3.53344 39.0139 3.62335 39.5514 3.62335C40.6171 3.62335 41.3925 4.15418 41.8193 5.17575C42.2011 6.08969 42.4259 6.19113 43.8307 6.08392C45.0176 5.99318 45.0948 6.00513 45.5652 6.35152C46.8387 7.28924 46.8613 7.29852 47.6339 7.20792C50.4107 6.88193 51.4784 10.4818 48.9856 11.7659C48.8166 11.853 48.3979 11.9242 48.0551 11.9242C47.3994 11.9242 46.6905 12.3288 46.6905 12.7034C46.6905 12.9786 45.8823 13.8682 45.4106 14.1121C44.9016 14.3755 44.0029 14.3723 43.3633 14.105C42.5314 13.7573 42.2173 13.8307 41.5762 14.5227C40.907 15.2448 40.201 15.5822 39.3587 15.5822C38.9438 15.5822 38.6303 15.6884 38.299 15.9411C37.575 16.4935 36.9325 16.7078 36 16.7078C35.019 16.7078 34.341 16.4638 33.6603 15.8661C33.0691 15.3468 32.6212 15.2253 32.0428 15.4269C31.0244 15.782 30.2246 15.5314 29.2226 14.5434C28.5132 13.8438 28.2502 13.7781 27.4681 14.105C26.8393 14.3678 26.0053 14.3755 25.4038 14.1241C24.9138 13.9192 24.1841 13.1513 24.1841 12.8404C24.1841 12.4638 23.3462 11.9242 22.761 11.9242C21.137 11.9242 20.005 10.2901 20.5821 8.77847C21.0178 7.63773 22.0118 7.05991 23.2688 7.21692C23.9782 7.30556 24.0359 7.28755 24.5653 6.80905C24.8702 6.53358 25.293 6.24234 25.505 6.16173C25.936 5.99782 26.8843 5.9898 27.4194 6.14555C28.0673 6.33407 28.5335 6.0465 28.9269 5.21557C29.1299 4.78674 29.5073 4.28432 29.7858 4.07216C30.2492 3.7193 30.3785 3.69369 31.6996 3.69369C33.0846 3.69369 33.129 3.68356 33.679 3.24123C34.7246 2.40045 35.9633 2.15803 37.1231 2.56745ZM55.8076 18.912L60.04 23.8597L59.5499 24.8211C58.3641 27.1477 58.6529 29.6059 60.3366 31.5193L60.898 32.1571L60.2875 32.5149C59.2985 33.0947 58.2912 34.2254 55.9041 37.4362C54.6663 39.101 53.508 40.5314 53.3304 40.6147C53.1452 40.7015 52.1197 40.7662 50.9294 40.7662C48.2639 40.7662 47.5846 40.9466 46.6611 41.8989C45.8179 42.769 45.4521 43.8596 45.6612 44.8815L45.7979 45.5498H44.4949H43.1921L43.1451 41.1531C43.1002 36.9529 43.0838 36.7205 42.775 35.9495C42.2963 34.7541 41.3913 33.4844 40.5587 32.8399L39.8222 32.2699L40.3924 31.6291C41.4997 30.3842 42.1706 28.3868 41.9722 26.9243C41.6584 24.6105 39.8718 22.4115 37.8708 21.8761L37.266 21.7143V20.3589V19.0035L37.8638 18.8283C38.1925 18.7319 38.7148 18.5086 39.0243 18.3319C39.3338 18.1554 39.9035 17.9654 40.2903 17.9098C41.0044 17.8073 42.2 17.2881 42.6447 16.8873C42.8304 16.7201 43.2371 16.6634 44.3327 16.6518C45.5664 16.6385 45.8682 16.5875 46.4092 16.3C47.3209 15.8156 47.9122 15.3355 48.2298 14.8215C48.4399 14.4814 48.6729 14.3298 49.1881 14.1977C49.5624 14.1017 50.1188 13.8708 50.4248 13.6847L50.9808 13.3461L51.2781 13.6552C51.4415 13.8251 53.4798 16.1907 55.8076 18.912ZM21.3708 14.1446C21.9663 14.3343 22.3392 14.5879 22.9895 15.2451C24.1281 16.396 25.0201 16.7393 26.7423 16.6896C27.8388 16.658 28.013 16.6878 28.2979 16.9554C28.9421 17.5608 29.9438 17.8965 31.1516 17.9118C32.0977 17.9238 32.3835 17.9857 32.9099 18.2921C33.2555 18.4934 33.8073 18.7412 34.1362 18.8428L34.734 19.0274V20.4C34.734 21.6392 34.7088 21.7727 34.4752 21.7727C33.9717 21.7727 32.4569 22.6567 31.7518 23.3621C30.4531 24.6608 29.7737 26.7033 30.0738 28.4066C30.2704 29.523 30.8875 30.8195 31.6076 31.6291L32.1778 32.2699L31.4413 32.8399C30.6087 33.4844 29.7037 34.7541 29.225 35.9495C28.9162 36.7205 28.8998 36.9529 28.8549 41.1531L28.8079 45.5498H27.5051H26.2021L26.3388 44.8815C26.5479 43.8596 26.1821 42.769 25.3388 41.8989C24.4154 40.9466 23.7361 40.7662 21.0706 40.7662C19.8803 40.7662 18.8547 40.7015 18.6696 40.6147C18.492 40.5314 17.3337 39.101 16.0959 37.4362C13.7088 34.2254 12.7015 33.0947 11.7125 32.5149L11.102 32.1571L11.6634 31.5193C13.347 29.6062 13.6359 27.1477 12.4504 24.8218L11.9608 23.8611L16.2087 18.8867C18.545 16.1508 20.4882 13.9091 20.5268 13.9052C20.5655 13.9012 20.9453 14.009 21.3708 14.1446ZM8.80155 24.3488C10.9812 25.4805 11.4321 28.3501 9.70237 30.0803C8.50869 31.2742 6.94478 31.4929 5.44374 30.6757C4.26314 30.0331 3.64491 28.9662 3.65012 27.5808C3.6556 26.1374 4.3834 24.9829 5.68667 24.3502C6.27718 24.0636 6.54796 24.0176 7.37465 24.0639C7.91621 24.0943 8.55834 24.2224 8.80155 24.3488ZM37.1585 24.1911C37.9042 24.4145 39.0049 25.4268 39.3084 26.1682C40.1382 28.1948 38.8985 30.5951 36.7769 31.07C34.5604 31.5662 32.4447 29.8842 32.4503 27.6304C32.4516 27.1446 32.5583 26.5055 32.6946 26.1682C32.9768 25.4703 34.0798 24.4196 34.7583 24.2023C35.4033 23.9959 36.4902 23.9907 37.1585 24.1911ZM66.3212 24.3578C68.9428 25.5787 69.0813 29.3012 66.5563 30.6757C65.0552 31.4929 63.4913 31.2742 62.2976 30.0803C61.1108 28.8932 60.8927 27.3205 61.7064 25.8171C62.5787 24.2051 64.6127 23.562 66.3212 24.3578ZM8.64063 33.7821C9.598 34.0379 10.4395 34.4864 11.1314 35.1094C11.4499 35.3963 12.8378 37.1309 14.2158 38.9641C17.4502 43.2676 17.1347 43.0625 20.6675 43.158C22.0988 43.1967 23.3494 43.2798 23.4466 43.3427C23.7603 43.5457 24.0623 44.2834 23.9643 44.6071C23.9126 44.7774 23.74 45.059 23.5808 45.2332C23.2948 45.5457 23.245 45.5498 19.6834 45.5498C15.6873 45.5498 15.2003 45.4713 14.3687 44.6931C14.1149 44.4557 13.1405 43.3009 12.2034 42.127C11.2663 40.9529 10.4015 39.9133 10.2816 39.8165C10.1619 39.7199 9.82728 39.6407 9.53822 39.6407C9.13803 39.6407 8.9432 39.729 8.72124 40.0114C8.17883 40.7009 8.31612 41.1168 9.62023 42.7359L10.8101 44.2132L10.8156 47.2733L10.8209 50.3333H7.23398H3.64702V43.3147V36.2961L4.03385 35.5567C4.90105 33.8986 6.61112 33.2399 8.64063 33.7821ZM37.9979 34.046C38.9972 34.5037 39.8641 35.3691 40.3398 36.3839L40.7123 37.1786L40.7552 41.3642L40.7981 45.5498H36.0077H31.2174V41.636C31.2174 37.2822 31.2879 36.8049 32.1062 35.617C32.6446 34.8359 33.6436 34.1015 34.5741 33.8029C35.5359 33.4944 37.0236 33.6 37.9979 34.046ZM65.8527 33.7381C66.6544 33.9608 67.5211 34.7034 67.9601 35.544L68.353 36.2961V43.3147V50.3333H64.766H61.1791L61.1844 47.2733L61.1899 44.2132L62.3798 42.7359C63.6839 41.1168 63.8212 40.7009 63.2788 40.0114C63.0568 39.729 62.862 39.6407 62.4618 39.6407C62.1727 39.6407 61.8381 39.7199 61.7184 39.8165C61.5985 39.9133 60.7337 40.9529 59.7966 42.127C58.8595 43.3009 57.8851 44.4557 57.6313 44.6931C56.7997 45.4713 56.3127 45.5498 52.3166 45.5498H48.709L48.3749 45.1942C47.9353 44.726 47.9256 43.9706 48.3539 43.5418C48.6485 43.2468 48.8181 43.224 51.2305 43.1543C54.0106 43.0741 54.416 42.9799 55.2096 42.229C55.4467 42.0049 56.6866 40.4286 57.9651 38.7262C59.2436 37.0238 60.5503 35.3963 60.8688 35.1094C62.235 33.8787 64.307 33.3087 65.8527 33.7381ZM13.9686 47.306C14.3459 47.4975 14.8682 47.6942 15.1291 47.7432L15.6036 47.8322V49.0827V50.3333H14.4079H13.2123V48.645C13.2123 47.7164 13.228 46.957 13.2474 46.9573C13.2668 46.9575 13.5913 47.1146 13.9686 47.306ZM58.7878 48.645V50.3333H57.0294H55.2711V49.1574V47.9816L56.1234 47.8926C56.6284 47.8397 57.302 47.6395 57.7762 47.4013C58.2165 47.1801 58.6242 46.9896 58.6823 46.9779C58.7403 46.9663 58.7878 47.7164 58.7878 48.645ZM52.7392 49.1374V50.3333H35.367H17.9949V49.1374V47.9415H35.367H52.7392V49.1374ZM19.0777 53.0415C19.3251 53.1769 19.7049 53.52 19.9217 53.8042L20.3158 54.321L20.3527 61.2962C20.3886 68.097 20.3822 68.2833 20.1034 68.7373C19.5537 69.6323 18.2071 69.8466 17.4695 69.1566C16.8046 68.5347 16.8026 68.5179 16.7289 63.066C16.6331 55.9779 17.0573 56.4882 11.1726 56.3831C7.29461 56.3139 7.22203 56.3071 6.45385 55.9468C6.02483 55.7455 5.44936 55.3838 5.17493 55.1428C4.70553 54.7305 3.78769 53.2303 3.78769 52.8755C3.78769 52.7548 5.68006 52.7238 11.2078 52.7544C17.9601 52.7918 18.6684 52.8175 19.0777 53.0415ZM39.6233 61.2018L39.6595 69.6082H36.0011H32.3427V61.2605C32.3427 56.6691 32.386 52.8694 32.4388 52.8165C32.4917 52.7636 34.1217 52.7372 36.0609 52.7579L39.587 52.7954L39.6233 61.2018ZM68.2123 52.8813C68.2123 53.2314 67.2907 54.7339 66.8251 55.1428C66.5506 55.3838 65.9752 55.7455 65.5461 55.9468C64.778 56.3071 64.7054 56.3139 60.8274 56.3831C56.4219 56.4618 56.2954 56.4883 55.6269 57.4725L55.2711 57.996L55.2677 62.7821C55.2659 65.4145 55.206 67.8214 55.1345 68.131C54.9901 68.757 54.3683 69.4063 53.7691 69.5567C53.182 69.7042 52.3056 69.3304 51.9312 68.7729L51.6064 68.2892L51.6452 61.3051L51.6842 54.321L52.0768 53.8063C52.5021 53.2486 52.8562 53.0142 53.5128 52.8558C54.2455 52.679 68.2123 52.7031 68.2123 52.8813Z" fill="#0066FF"/>
<path fill-rule="evenodd" clip-rule="evenodd" d="M34.6637 0.16892C33.7463 0.403314 33.2387 0.612524 32.7598 0.953703C32.454 1.1715 32.1397 1.23157 31.3064 1.23157C29.7405 1.23157 28.8387 1.61032 27.737 2.73051C26.8964 3.58536 26.8299 3.62335 26.1723 3.62335C25.3756 3.62335 24.4752 3.91064 23.7299 4.40264C23.4302 4.6006 22.9997 4.74889 22.725 4.74889C22.4607 4.74889 21.8298 4.87692 21.3231 5.03351C18.8393 5.80085 17.4051 8.60584 18.2678 11.0097C18.4343 11.474 18.6028 11.9498 18.6422 12.0673C18.6879 12.2035 17.1614 14.0921 14.4194 17.2919L10.1249 22.3033L9.17179 21.9562C8.35691 21.6594 8.03507 21.6171 6.95265 21.6647C5.23612 21.7399 4.31729 22.1128 3.14429 23.2103C2.51917 23.7952 2.09717 24.3468 1.78223 24.9905C1.34813 25.8781 1.32605 26.0015 1.32605 27.5441C1.32605 29.0939 1.34644 29.2063 1.79081 30.1092C2.04639 30.6285 2.55279 31.3551 2.91613 31.7242L3.57669 32.395L2.90051 33.0646C2.50989 33.4515 2.03472 34.1347 1.77519 34.6825L1.32605 35.6309L1.28666 44.2092C1.24868 52.4832 1.2574 52.8208 1.5324 53.7263C1.68911 54.2426 2.06707 55.0357 2.37203 55.4889L2.92668 56.3128L1.79728 56.3831C0.776751 56.4467 0.635101 56.4916 0.328733 56.8482C-0.0447331 57.2831 -0.0953726 57.6488 0.153323 58.1159C0.482198 58.7334 0.642838 58.7657 3.40086 58.7704L6.03833 58.7749V64.1916V69.6082H4.62085C3.24177 69.6082 3.19225 69.6193 2.7922 70.0195C2.25866 70.5531 2.25866 71.0551 2.7922 71.5888L3.20337 72H7.22962H11.2557L11.6009 71.6546C12.0708 71.1848 12.0708 70.4234 11.6009 69.9536C11.2802 69.6327 11.1554 69.6082 9.84262 69.6082H8.42964V64.1916V58.7749H11.3739H14.3183L14.363 63.7343L14.4079 68.6937L14.7752 69.477C15.2096 70.4033 15.9518 71.1656 16.8517 71.6089C17.7697 72.0612 19.4951 72.0618 20.3471 71.6099C21.2394 71.1366 21.9084 70.489 22.3293 69.6912L22.7071 68.9751L22.7471 61.7746C22.7856 54.8484 22.7762 54.5416 22.5009 53.7243C22.3435 53.2571 22.2148 52.841 22.2148 52.7999C22.2148 52.7587 23.9555 52.7251 26.0831 52.7251H29.9514V61.1667V69.6082H27.9713H25.9911L25.58 70.0195C25.0464 70.5531 25.0464 71.0551 25.58 71.5888L25.9911 72H36H46.0089L46.4201 71.5888C46.6679 71.3409 46.8312 71.0292 46.8312 70.8041C46.8312 70.579 46.6679 70.2674 46.4201 70.0195L46.0089 69.6082H44.0287H42.0486V61.1667V52.7251H45.9319C49.3677 52.7251 49.8057 52.75 49.7323 52.9413C49.2266 54.2596 49.212 54.5303 49.2528 61.8176L49.2929 68.9751L49.6245 69.6082C50.0776 70.4731 50.7065 71.1104 51.5435 71.5526C52.1337 71.8645 52.4277 71.9243 53.3721 71.9249C55.2073 71.9258 56.4451 71.1399 57.2236 69.4796L57.5921 68.6937L57.637 63.7343L57.6817 58.7749H60.6261H63.5704V64.1916V69.6082H62.1574C60.8446 69.6082 60.7198 69.6327 60.3991 69.9536C59.9292 70.4234 59.9292 71.1848 60.3991 71.6546L60.7443 72H64.7704H68.7966L69.2078 71.5888C69.7413 71.0551 69.7413 70.5531 69.2078 70.0195C68.8077 69.6193 68.7582 69.6082 67.3792 69.6082H65.9617V64.1916V58.7749L68.5991 58.7704C71.3572 58.7657 71.5178 58.7334 71.8467 58.1159C72.0954 57.6488 72.0447 57.2831 71.6713 56.8482C71.3649 56.4916 71.2233 56.4467 70.2027 56.3831L69.0733 56.3128L69.6024 55.5269C69.8934 55.0946 70.2718 54.3032 70.4431 53.7682C70.7529 52.8015 70.7545 52.742 70.7143 44.2132L70.674 35.6309L70.2248 34.6825C69.9689 34.1424 69.4842 33.4427 69.0988 33.0572L68.4219 32.3802L69.0792 31.7247C70.3537 30.4541 71.0118 28.4344 70.7291 26.6618C70.1367 22.9475 66.4204 20.7399 62.8234 21.9657L61.8655 22.2923L57.1603 16.8015C53.2268 12.2114 52.4724 11.263 52.5619 11.0196C52.6207 10.8593 52.6661 10.1585 52.6629 9.46209C52.6581 8.41478 52.5979 8.0743 52.3146 7.4924C51.5858 5.99529 50.0833 4.9709 48.3664 4.80066C47.8702 4.75142 47.3693 4.63211 47.2532 4.53546C46.6728 4.0519 45.7245 3.7162 44.7606 3.65317C43.8626 3.59451 43.7177 3.54512 43.5088 3.22631C42.894 2.28789 41.1775 1.23185 40.2664 1.23171C40.0211 1.23157 39.3881 1.0142 38.8597 0.748573C37.3888 0.00909264 36.0262 -0.179154 34.6637 0.16892ZM37.1231 2.56745C37.4508 2.68296 37.9776 2.96786 38.2938 3.20057C38.7465 3.53344 39.0139 3.62335 39.5514 3.62335C40.6171 3.62335 41.3925 4.15418 41.8193 5.17575C42.2011 6.08969 42.4259 6.19113 43.8307 6.08392C45.0176 5.99318 45.0948 6.00513 45.5652 6.35152C46.8387 7.28924 46.8613 7.29852 47.6339 7.20792C50.4107 6.88193 51.4784 10.4818 48.9856 11.7659C48.8166 11.853 48.3979 11.9242 48.0551 11.9242C47.3994 11.9242 46.6905 12.3288 46.6905 12.7034C46.6905 12.9786 45.8823 13.8682 45.4106 14.1121C44.9016 14.3755 44.0029 14.3723 43.3633 14.105C42.5314 13.7573 42.2173 13.8307 41.5762 14.5227C40.907 15.2448 40.201 15.5822 39.3587 15.5822C38.9438 15.5822 38.6303 15.6884 38.299 15.9411C37.575 16.4935 36.9325 16.7078 36 16.7078C35.019 16.7078 34.341 16.4638 33.6603 15.8661C33.0691 15.3468 32.6212 15.2253 32.0428 15.4269C31.0244 15.782 30.2246 15.5314 29.2226 14.5434C28.5132 13.8438 28.2502 13.7781 27.4681 14.105C26.8393 14.3678 26.0053 14.3755 25.4038 14.1241C24.9138 13.9192 24.1841 13.1513 24.1841 12.8404C24.1841 12.4638 23.3462 11.9242 22.761 11.9242C21.137 11.9242 20.005 10.2901 20.5821 8.77847C21.0178 7.63773 22.0118 7.05991 23.2688 7.21692C23.9782 7.30556 24.0359 7.28755 24.5653 6.80905C24.8702 6.53358 25.293 6.24234 25.505 6.16173C25.936 5.99782 26.8843 5.9898 27.4194 6.14555C28.0673 6.33407 28.5335 6.0465 28.9269 5.21557C29.1299 4.78674 29.5073 4.28432 29.7858 4.07216C30.2492 3.7193 30.3785 3.69369 31.6996 3.69369C33.0846 3.69369 33.129 3.68356 33.679 3.24123C34.7246 2.40045 35.9633 2.15803 37.1231 2.56745ZM55.8076 18.912L60.04 23.8597L59.5499 24.8211C58.3641 27.1477 58.6529 29.6059 60.3366 31.5193L60.898 32.1571L60.2875 32.5149C59.2985 33.0947 58.2912 34.2254 55.9041 37.4362C54.6663 39.101 53.508 40.5314 53.3304 40.6147C53.1452 40.7015 52.1197 40.7662 50.9294 40.7662C48.2639 40.7662 47.5846 40.9466 46.6611 41.8989C45.8179 42.769 45.4521 43.8596 45.6612 44.8815L45.7979 45.5498H44.4949H43.1921L43.1451 41.1531C43.1002 36.9529 43.0838 36.7205 42.775 35.9495C42.2963 34.7541 41.3913 33.4844 40.5587 32.8399L39.8222 32.2699L40.3924 31.6291C41.4997 30.3842 42.1706 28.3868 41.9722 26.9243C41.6584 24.6105 39.8718 22.4115 37.8708 21.8761L37.266 21.7143V20.3589V19.0035L37.8638 18.8283C38.1925 18.7319 38.7148 18.5086 39.0243 18.3319C39.3338 18.1554 39.9035 17.9654 40.2903 17.9098C41.0044 17.8073 42.2 17.2881 42.6447 16.8873C42.8304 16.7201 43.2371 16.6634 44.3327 16.6518C45.5664 16.6385 45.8682 16.5875 46.4092 16.3C47.3209 15.8156 47.9122 15.3355 48.2298 14.8215C48.4399 14.4814 48.6729 14.3298 49.1881 14.1977C49.5624 14.1017 50.1188 13.8708 50.4248 13.6847L50.9808 13.3461L51.2781 13.6552C51.4415 13.8251 53.4798 16.1907 55.8076 18.912ZM21.3708 14.1446C21.9663 14.3343 22.3392 14.5879 22.9895 15.2451C24.1281 16.396 25.0201 16.7393 26.7423 16.6896C27.8388 16.658 28.013 16.6878 28.2979 16.9554C28.9421 17.5608 29.9438 17.8965 31.1516 17.9118C32.0977 17.9238 32.3835 17.9857 32.9099 18.2921C33.2555 18.4934 33.8073 18.7412 34.1362 18.8428L34.734 19.0274V20.4C34.734 21.6392 34.7088 21.7727 34.4752 21.7727C33.9717 21.7727 32.4569 22.6567 31.7518 23.3621C30.4531 24.6608 29.7737 26.7033 30.0738 28.4066C30.2704 29.523 30.8875 30.8195 31.6076 31.6291L32.1778 32.2699L31.4413 32.8399C30.6087 33.4844 29.7037 34.7541 29.225 35.9495C28.9162 36.7205 28.8998 36.9529 28.8549 41.1531L28.8079 45.5498H27.5051H26.2021L26.3388 44.8815C26.5479 43.8596 26.1821 42.769 25.3388 41.8989C24.4154 40.9466 23.7361 40.7662 21.0706 40.7662C19.8803 40.7662 18.8547 40.7015 18.6696 40.6147C18.492 40.5314 17.3337 39.101 16.0959 37.4362C13.7088 34.2254 12.7015 33.0947 11.7125 32.5149L11.102 32.1571L11.6634 31.5193C13.347 29.6062 13.6359 27.1477 12.4504 24.8218L11.9608 23.8611L16.2087 18.8867C18.545 16.1508 20.4882 13.9091 20.5268 13.9052C20.5655 13.9012 20.9453 14.009 21.3708 14.1446ZM8.80155 24.3488C10.9812 25.4805 11.4321 28.3501 9.70237 30.0803C8.50869 31.2742 6.94478 31.4929 5.44374 30.6757C4.26314 30.0331 3.64491 28.9662 3.65012 27.5808C3.6556 26.1374 4.3834 24.9829 5.68667 24.3502C6.27718 24.0636 6.54796 24.0176 7.37465 24.0639C7.91621 24.0943 8.55834 24.2224 8.80155 24.3488ZM37.1585 24.1911C37.9042 24.4145 39.0049 25.4268 39.3084 26.1682C40.1382 28.1948 38.8985 30.5951 36.7769 31.07C34.5604 31.5662 32.4447 29.8842 32.4503 27.6304C32.4516 27.1446 32.5583 26.5055 32.6946 26.1682C32.9768 25.4703 34.0798 24.4196 34.7583 24.2023C35.4033 23.9959 36.4902 23.9907 37.1585 24.1911ZM66.3212 24.3578C68.9428 25.5787 69.0813 29.3012 66.5563 30.6757C65.0552 31.4929 63.4913 31.2742 62.2976 30.0803C61.1108 28.8932 60.8927 27.3205 61.7064 25.8171C62.5787 24.2051 64.6127 23.562 66.3212 24.3578ZM8.64063 33.7821C9.598 34.0379 10.4395 34.4864 11.1314 35.1094C11.4499 35.3963 12.8378 37.1309 14.2158 38.9641C17.4502 43.2676 17.1347 43.0625 20.6675 43.158C22.0988 43.1967 23.3494 43.2798 23.4466 43.3427C23.7603 43.5457 24.0623 44.2834 23.9643 44.6071C23.9126 44.7774 23.74 45.059 23.5808 45.2332C23.2948 45.5457 23.245 45.5498 19.6834 45.5498C15.6873 45.5498 15.2003 45.4713 14.3687 44.6931C14.1149 44.4557 13.1405 43.3009 12.2034 42.127C11.2663 40.9529 10.4015 39.9133 10.2816 39.8165C10.1619 39.7199 9.82728 39.6407 9.53822 39.6407C9.13803 39.6407 8.9432 39.729 8.72124 40.0114C8.17883 40.7009 8.31612 41.1168 9.62023 42.7359L10.8101 44.2132L10.8156 47.2733L10.8209 50.3333H7.23398H3.64702V43.3147V36.2961L4.03385 35.5567C4.90105 33.8986 6.61112 33.2399 8.64063 33.7821ZM37.9979 34.046C38.9972 34.5037 39.8641 35.3691 40.3398 36.3839L40.7123 37.1786L40.7552 41.3642L40.7981 45.5498H36.0077H31.2174V41.636C31.2174 37.2822 31.2879 36.8049 32.1062 35.617C32.6446 34.8359 33.6436 34.1015 34.5741 33.8029C35.5359 33.4944 37.0236 33.6 37.9979 34.046ZM65.8527 33.7381C66.6544 33.9608 67.5211 34.7034 67.9601 35.544L68.353 36.2961V43.3147V50.3333H64.766H61.1791L61.1844 47.2733L61.1899 44.2132L62.3798 42.7359C63.6839 41.1168 63.8212 40.7009 63.2788 40.0114C63.0568 39.729 62.862 39.6407 62.4618 39.6407C62.1727 39.6407 61.8381 39.7199 61.7184 39.8165C61.5985 39.9133 60.7337 40.9529 59.7966 42.127C58.8595 43.3009 57.8851 44.4557 57.6313 44.6931C56.7997 45.4713 56.3127 45.5498 52.3166 45.5498H48.709L48.3749 45.1942C47.9353 44.726 47.9256 43.9706 48.3539 43.5418C48.6485 43.2468 48.8181 43.224 51.2305 43.1543C54.0106 43.0741 54.416 42.9799 55.2096 42.229C55.4467 42.0049 56.6866 40.4286 57.9651 38.7262C59.2436 37.0238 60.5503 35.3963 60.8688 35.1094C62.235 33.8787 64.307 33.3087 65.8527 33.7381ZM13.9686 47.306C14.3459 47.4975 14.8682 47.6942 15.1291 47.7432L15.6036 47.8322V49.0827V50.3333H14.4079H13.2123V48.645C13.2123 47.7164 13.228 46.957 13.2474 46.9573C13.2668 46.9575 13.5913 47.1146 13.9686 47.306ZM58.7878 48.645V50.3333H57.0294H55.2711V49.1574V47.9816L56.1234 47.8926C56.6284 47.8397 57.302 47.6395 57.7762 47.4013C58.2165 47.1801 58.6242 46.9896 58.6823 46.9779C58.7403 46.9663 58.7878 47.7164 58.7878 48.645ZM52.7392 49.1374V50.3333H35.367H17.9949V49.1374V47.9415H35.367H52.7392V49.1374ZM19.0777 53.0415C19.3251 53.1769 19.7049 53.52 19.9217 53.8042L20.3158 54.321L20.3527 61.2962C20.3886 68.097 20.3822 68.2833 20.1034 68.7373C19.5537 69.6323 18.2071 69.8466 17.4695 69.1566C16.8046 68.5347 16.8026 68.5179 16.7289 63.066C16.6331 55.9779 17.0573 56.4882 11.1726 56.3831C7.29461 56.3139 7.22203 56.3071 6.45385 55.9468C6.02483 55.7455 5.44936 55.3838 5.17493 55.1428C4.70553 54.7305 3.78769 53.2303 3.78769 52.8755C3.78769 52.7548 5.68006 52.7238 11.2078 52.7544C17.9601 52.7918 18.6684 52.8175 19.0777 53.0415ZM39.6233 61.2018L39.6595 69.6082H36.0011H32.3427V61.2605C32.3427 56.6691 32.386 52.8694 32.4388 52.8165C32.4917 52.7636 34.1217 52.7372 36.0609 52.7579L39.587 52.7954L39.6233 61.2018ZM68.2123 52.8813C68.2123 53.2314 67.2907 54.7339 66.8251 55.1428C66.5506 55.3838 65.9752 55.7455 65.5461 55.9468C64.778 56.3071 64.7054 56.3139 60.8274 56.3831C56.4219 56.4618 56.2954 56.4883 55.6269 57.4725L55.2711 57.996L55.2677 62.7821C55.2659 65.4145 55.206 67.8214 55.1345 68.131C54.9901 68.757 54.3683 69.4063 53.7691 69.5567C53.182 69.7042 52.3056 69.3304 51.9312 68.7729L51.6064 68.2892L51.6452 61.3051L51.6842 54.321L52.0768 53.8063C52.5021 53.2486 52.8562 53.0142 53.5128 52.8558C54.2455 52.679 68.2123 52.7031 68.2123 52.8813Z" fill="url(#paint0_radial_1461_4895)" fill-opacity="0.7"/>
<path fill-rule="evenodd" clip-rule="evenodd" d="M34.6637 0.16892C33.7463 0.403314 33.2387 0.612524 32.7598 0.953703C32.454 1.1715 32.1397 1.23157 31.3064 1.23157C29.7405 1.23157 28.8387 1.61032 27.737 2.73051C26.8964 3.58536 26.8299 3.62335 26.1723 3.62335C25.3756 3.62335 24.4752 3.91064 23.7299 4.40264C23.4302 4.6006 22.9997 4.74889 22.725 4.74889C22.4607 4.74889 21.8298 4.87692 21.3231 5.03351C18.8393 5.80085 17.4051 8.60584 18.2678 11.0097C18.4343 11.474 18.6028 11.9498 18.6422 12.0673C18.6879 12.2035 17.1614 14.0921 14.4194 17.2919L10.1249 22.3033L9.17179 21.9562C8.35691 21.6594 8.03507 21.6171 6.95265 21.6647C5.23612 21.7399 4.31729 22.1128 3.14429 23.2103C2.51917 23.7952 2.09717 24.3468 1.78223 24.9905C1.34813 25.8781 1.32605 26.0015 1.32605 27.5441C1.32605 29.0939 1.34644 29.2063 1.79081 30.1092C2.04639 30.6285 2.55279 31.3551 2.91613 31.7242L3.57669 32.395L2.90051 33.0646C2.50989 33.4515 2.03472 34.1347 1.77519 34.6825L1.32605 35.6309L1.28666 44.2092C1.24868 52.4832 1.2574 52.8208 1.5324 53.7263C1.68911 54.2426 2.06707 55.0357 2.37203 55.4889L2.92668 56.3128L1.79728 56.3831C0.776751 56.4467 0.635101 56.4916 0.328733 56.8482C-0.0447331 57.2831 -0.0953726 57.6488 0.153323 58.1159C0.482198 58.7334 0.642838 58.7657 3.40086 58.7704L6.03833 58.7749V64.1916V69.6082H4.62085C3.24177 69.6082 3.19225 69.6193 2.7922 70.0195C2.25866 70.5531 2.25866 71.0551 2.7922 71.5888L3.20337 72H7.22962H11.2557L11.6009 71.6546C12.0708 71.1848 12.0708 70.4234 11.6009 69.9536C11.2802 69.6327 11.1554 69.6082 9.84262 69.6082H8.42964V64.1916V58.7749H11.3739H14.3183L14.363 63.7343L14.4079 68.6937L14.7752 69.477C15.2096 70.4033 15.9518 71.1656 16.8517 71.6089C17.7697 72.0612 19.4951 72.0618 20.3471 71.6099C21.2394 71.1366 21.9084 70.489 22.3293 69.6912L22.7071 68.9751L22.7471 61.7746C22.7856 54.8484 22.7762 54.5416 22.5009 53.7243C22.3435 53.2571 22.2148 52.841 22.2148 52.7999C22.2148 52.7587 23.9555 52.7251 26.0831 52.7251H29.9514V61.1667V69.6082H27.9713H25.9911L25.58 70.0195C25.0464 70.5531 25.0464 71.0551 25.58 71.5888L25.9911 72H36H46.0089L46.4201 71.5888C46.6679 71.3409 46.8312 71.0292 46.8312 70.8041C46.8312 70.579 46.6679 70.2674 46.4201 70.0195L46.0089 69.6082H44.0287H42.0486V61.1667V52.7251H45.9319C49.3677 52.7251 49.8057 52.75 49.7323 52.9413C49.2266 54.2596 49.212 54.5303 49.2528 61.8176L49.2929 68.9751L49.6245 69.6082C50.0776 70.4731 50.7065 71.1104 51.5435 71.5526C52.1337 71.8645 52.4277 71.9243 53.3721 71.9249C55.2073 71.9258 56.4451 71.1399 57.2236 69.4796L57.5921 68.6937L57.637 63.7343L57.6817 58.7749H60.6261H63.5704V64.1916V69.6082H62.1574C60.8446 69.6082 60.7198 69.6327 60.3991 69.9536C59.9292 70.4234 59.9292 71.1848 60.3991 71.6546L60.7443 72H64.7704H68.7966L69.2078 71.5888C69.7413 71.0551 69.7413 70.5531 69.2078 70.0195C68.8077 69.6193 68.7582 69.6082 67.3792 69.6082H65.9617V64.1916V58.7749L68.5991 58.7704C71.3572 58.7657 71.5178 58.7334 71.8467 58.1159C72.0954 57.6488 72.0447 57.2831 71.6713 56.8482C71.3649 56.4916 71.2233 56.4467 70.2027 56.3831L69.0733 56.3128L69.6024 55.5269C69.8934 55.0946 70.2718 54.3032 70.4431 53.7682C70.7529 52.8015 70.7545 52.742 70.7143 44.2132L70.674 35.6309L70.2248 34.6825C69.9689 34.1424 69.4842 33.4427 69.0988 33.0572L68.4219 32.3802L69.0792 31.7247C70.3537 30.4541 71.0118 28.4344 70.7291 26.6618C70.1367 22.9475 66.4204 20.7399 62.8234 21.9657L61.8655 22.2923L57.1603 16.8015C53.2268 12.2114 52.4724 11.263 52.5619 11.0196C52.6207 10.8593 52.6661 10.1585 52.6629 9.46209C52.6581 8.41478 52.5979 8.0743 52.3146 7.4924C51.5858 5.99529 50.0833 4.9709 48.3664 4.80066C47.8702 4.75142 47.3693 4.63211 47.2532 4.53546C46.6728 4.0519 45.7245 3.7162 44.7606 3.65317C43.8626 3.59451 43.7177 3.54512 43.5088 3.22631C42.894 2.28789 41.1775 1.23185 40.2664 1.23171C40.0211 1.23157 39.3881 1.0142 38.8597 0.748573C37.3888 0.00909264 36.0262 -0.179154 34.6637 0.16892ZM37.1231 2.56745C37.4508 2.68296 37.9776 2.96786 38.2938 3.20057C38.7465 3.53344 39.0139 3.62335 39.5514 3.62335C40.6171 3.62335 41.3925 4.15418 41.8193 5.17575C42.2011 6.08969 42.4259 6.19113 43.8307 6.08392C45.0176 5.99318 45.0948 6.00513 45.5652 6.35152C46.8387 7.28924 46.8613 7.29852 47.6339 7.20792C50.4107 6.88193 51.4784 10.4818 48.9856 11.7659C48.8166 11.853 48.3979 11.9242 48.0551 11.9242C47.3994 11.9242 46.6905 12.3288 46.6905 12.7034C46.6905 12.9786 45.8823 13.8682 45.4106 14.1121C44.9016 14.3755 44.0029 14.3723 43.3633 14.105C42.5314 13.7573 42.2173 13.8307 41.5762 14.5227C40.907 15.2448 40.201 15.5822 39.3587 15.5822C38.9438 15.5822 38.6303 15.6884 38.299 15.9411C37.575 16.4935 36.9325 16.7078 36 16.7078C35.019 16.7078 34.341 16.4638 33.6603 15.8661C33.0691 15.3468 32.6212 15.2253 32.0428 15.4269C31.0244 15.782 30.2246 15.5314 29.2226 14.5434C28.5132 13.8438 28.2502 13.7781 27.4681 14.105C26.8393 14.3678 26.0053 14.3755 25.4038 14.1241C24.9138 13.9192 24.1841 13.1513 24.1841 12.8404C24.1841 12.4638 23.3462 11.9242 22.761 11.9242C21.137 11.9242 20.005 10.2901 20.5821 8.77847C21.0178 7.63773 22.0118 7.05991 23.2688 7.21692C23.9782 7.30556 24.0359 7.28755 24.5653 6.80905C24.8702 6.53358 25.293 6.24234 25.505 6.16173C25.936 5.99782 26.8843 5.9898 27.4194 6.14555C28.0673 6.33407 28.5335 6.0465 28.9269 5.21557C29.1299 4.78674 29.5073 4.28432 29.7858 4.07216C30.2492 3.7193 30.3785 3.69369 31.6996 3.69369C33.0846 3.69369 33.129 3.68356 33.679 3.24123C34.7246 2.40045 35.9633 2.15803 37.1231 2.56745ZM55.8076 18.912L60.04 23.8597L59.5499 24.8211C58.3641 27.1477 58.6529 29.6059 60.3366 31.5193L60.898 32.1571L60.2875 32.5149C59.2985 33.0947 58.2912 34.2254 55.9041 37.4362C54.6663 39.101 53.508 40.5314 53.3304 40.6147C53.1452 40.7015 52.1197 40.7662 50.9294 40.7662C48.2639 40.7662 47.5846 40.9466 46.6611 41.8989C45.8179 42.769 45.4521 43.8596 45.6612 44.8815L45.7979 45.5498H44.4949H43.1921L43.1451 41.1531C43.1002 36.9529 43.0838 36.7205 42.775 35.9495C42.2963 34.7541 41.3913 33.4844 40.5587 32.8399L39.8222 32.2699L40.3924 31.6291C41.4997 30.3842 42.1706 28.3868 41.9722 26.9243C41.6584 24.6105 39.8718 22.4115 37.8708 21.8761L37.266 21.7143V20.3589V19.0035L37.8638 18.8283C38.1925 18.7319 38.7148 18.5086 39.0243 18.3319C39.3338 18.1554 39.9035 17.9654 40.2903 17.9098C41.0044 17.8073 42.2 17.2881 42.6447 16.8873C42.8304 16.7201 43.2371 16.6634 44.3327 16.6518C45.5664 16.6385 45.8682 16.5875 46.4092 16.3C47.3209 15.8156 47.9122 15.3355 48.2298 14.8215C48.4399 14.4814 48.6729 14.3298 49.1881 14.1977C49.5624 14.1017 50.1188 13.8708 50.4248 13.6847L50.9808 13.3461L51.2781 13.6552C51.4415 13.8251 53.4798 16.1907 55.8076 18.912ZM21.3708 14.1446C21.9663 14.3343 22.3392 14.5879 22.9895 15.2451C24.1281 16.396 25.0201 16.7393 26.7423 16.6896C27.8388 16.658 28.013 16.6878 28.2979 16.9554C28.9421 17.5608 29.9438 17.8965 31.1516 17.9118C32.0977 17.9238 32.3835 17.9857 32.9099 18.2921C33.2555 18.4934 33.8073 18.7412 34.1362 18.8428L34.734 19.0274V20.4C34.734 21.6392 34.7088 21.7727 34.4752 21.7727C33.9717 21.7727 32.4569 22.6567 31.7518 23.3621C30.4531 24.6608 29.7737 26.7033 30.0738 28.4066C30.2704 29.523 30.8875 30.8195 31.6076 31.6291L32.1778 32.2699L31.4413 32.8399C30.6087 33.4844 29.7037 34.7541 29.225 35.9495C28.9162 36.7205 28.8998 36.9529 28.8549 41.1531L28.8079 45.5498H27.5051H26.2021L26.3388 44.8815C26.5479 43.8596 26.1821 42.769 25.3388 41.8989C24.4154 40.9466 23.7361 40.7662 21.0706 40.7662C19.8803 40.7662 18.8547 40.7015 18.6696 40.6147C18.492 40.5314 17.3337 39.101 16.0959 37.4362C13.7088 34.2254 12.7015 33.0947 11.7125 32.5149L11.102 32.1571L11.6634 31.5193C13.347 29.6062 13.6359 27.1477 12.4504 24.8218L11.9608 23.8611L16.2087 18.8867C18.545 16.1508 20.4882 13.9091 20.5268 13.9052C20.5655 13.9012 20.9453 14.009 21.3708 14.1446ZM8.80155 24.3488C10.9812 25.4805 11.4321 28.3501 9.70237 30.0803C8.50869 31.2742 6.94478 31.4929 5.44374 30.6757C4.26314 30.0331 3.64491 28.9662 3.65012 27.5808C3.6556 26.1374 4.3834 24.9829 5.68667 24.3502C6.27718 24.0636 6.54796 24.0176 7.37465 24.0639C7.91621 24.0943 8.55834 24.2224 8.80155 24.3488ZM37.1585 24.1911C37.9042 24.4145 39.0049 25.4268 39.3084 26.1682C40.1382 28.1948 38.8985 30.5951 36.7769 31.07C34.5604 31.5662 32.4447 29.8842 32.4503 27.6304C32.4516 27.1446 32.5583 26.5055 32.6946 26.1682C32.9768 25.4703 34.0798 24.4196 34.7583 24.2023C35.4033 23.9959 36.4902 23.9907 37.1585 24.1911ZM66.3212 24.3578C68.9428 25.5787 69.0813 29.3012 66.5563 30.6757C65.0552 31.4929 63.4913 31.2742 62.2976 30.0803C61.1108 28.8932 60.8927 27.3205 61.7064 25.8171C62.5787 24.2051 64.6127 23.562 66.3212 24.3578ZM8.64063 33.7821C9.598 34.0379 10.4395 34.4864 11.1314 35.1094C11.4499 35.3963 12.8378 37.1309 14.2158 38.9641C17.4502 43.2676 17.1347 43.0625 20.6675 43.158C22.0988 43.1967 23.3494 43.2798 23.4466 43.3427C23.7603 43.5457 24.0623 44.2834 23.9643 44.6071C23.9126 44.7774 23.74 45.059 23.5808 45.2332C23.2948 45.5457 23.245 45.5498 19.6834 45.5498C15.6873 45.5498 15.2003 45.4713 14.3687 44.6931C14.1149 44.4557 13.1405 43.3009 12.2034 42.127C11.2663 40.9529 10.4015 39.9133 10.2816 39.8165C10.1619 39.7199 9.82728 39.6407 9.53822 39.6407C9.13803 39.6407 8.9432 39.729 8.72124 40.0114C8.17883 40.7009 8.31612 41.1168 9.62023 42.7359L10.8101 44.2132L10.8156 47.2733L10.8209 50.3333H7.23398H3.64702V43.3147V36.2961L4.03385 35.5567C4.90105 33.8986 6.61112 33.2399 8.64063 33.7821ZM37.9979 34.046C38.9972 34.5037 39.8641 35.3691 40.3398 36.3839L40.7123 37.1786L40.7552 41.3642L40.7981 45.5498H36.0077H31.2174V41.636C31.2174 37.2822 31.2879 36.8049 32.1062 35.617C32.6446 34.8359 33.6436 34.1015 34.5741 33.8029C35.5359 33.4944 37.0236 33.6 37.9979 34.046ZM65.8527 33.7381C66.6544 33.9608 67.5211 34.7034 67.9601 35.544L68.353 36.2961V43.3147V50.3333H64.766H61.1791L61.1844 47.2733L61.1899 44.2132L62.3798 42.7359C63.6839 41.1168 63.8212 40.7009 63.2788 40.0114C63.0568 39.729 62.862 39.6407 62.4618 39.6407C62.1727 39.6407 61.8381 39.7199 61.7184 39.8165C61.5985 39.9133 60.7337 40.9529 59.7966 42.127C58.8595 43.3009 57.8851 44.4557 57.6313 44.6931C56.7997 45.4713 56.3127 45.5498 52.3166 45.5498H48.709L48.3749 45.1942C47.9353 44.726 47.9256 43.9706 48.3539 43.5418C48.6485 43.2468 48.8181 43.224 51.2305 43.1543C54.0106 43.0741 54.416 42.9799 55.2096 42.229C55.4467 42.0049 56.6866 40.4286 57.9651 38.7262C59.2436 37.0238 60.5503 35.3963 60.8688 35.1094C62.235 33.8787 64.307 33.3087 65.8527 33.7381ZM13.9686 47.306C14.3459 47.4975 14.8682 47.6942 15.1291 47.7432L15.6036 47.8322V49.0827V50.3333H14.4079H13.2123V48.645C13.2123 47.7164 13.228 46.957 13.2474 46.9573C13.2668 46.9575 13.5913 47.1146 13.9686 47.306ZM58.7878 48.645V50.3333H57.0294H55.2711V49.1574V47.9816L56.1234 47.8926C56.6284 47.8397 57.302 47.6395 57.7762 47.4013C58.2165 47.1801 58.6242 46.9896 58.6823 46.9779C58.7403 46.9663 58.7878 47.7164 58.7878 48.645ZM52.7392 49.1374V50.3333H35.367H17.9949V49.1374V47.9415H35.367H52.7392V49.1374ZM19.0777 53.0415C19.3251 53.1769 19.7049 53.52 19.9217 53.8042L20.3158 54.321L20.3527 61.2962C20.3886 68.097 20.3822 68.2833 20.1034 68.7373C19.5537 69.6323 18.2071 69.8466 17.4695 69.1566C16.8046 68.5347 16.8026 68.5179 16.7289 63.066C16.6331 55.9779 17.0573 56.4882 11.1726 56.3831C7.29461 56.3139 7.22203 56.3071 6.45385 55.9468C6.02483 55.7455 5.44936 55.3838 5.17493 55.1428C4.70553 54.7305 3.78769 53.2303 3.78769 52.8755C3.78769 52.7548 5.68006 52.7238 11.2078 52.7544C17.9601 52.7918 18.6684 52.8175 19.0777 53.0415ZM39.6233 61.2018L39.6595 69.6082H36.0011H32.3427V61.2605C32.3427 56.6691 32.386 52.8694 32.4388 52.8165C32.4917 52.7636 34.1217 52.7372 36.0609 52.7579L39.587 52.7954L39.6233 61.2018ZM68.2123 52.8813C68.2123 53.2314 67.2907 54.7339 66.8251 55.1428C66.5506 55.3838 65.9752 55.7455 65.5461 55.9468C64.778 56.3071 64.7054 56.3139 60.8274 56.3831C56.4219 56.4618 56.2954 56.4883 55.6269 57.4725L55.2711 57.996L55.2677 62.7821C55.2659 65.4145 55.206 67.8214 55.1345 68.131C54.9901 68.757 54.3683 69.4063 53.7691 69.5567C53.182 69.7042 52.3056 69.3304 51.9312 68.7729L51.6064 68.2892L51.6452 61.3051L51.6842 54.321L52.0768 53.8063C52.5021 53.2486 52.8562 53.0142 53.5128 52.8558C54.2455 52.679 68.2123 52.7031 68.2123 52.8813Z" fill="url(#paint1_radial_1461_4895)"/>
<defs>
<radialGradient id="paint0_radial_1461_4895" cx="0" cy="0" r="1" gradientUnits="userSpaceOnUse" gradientTransform="translate(19 15) rotate(51.0441) scale(60.4401 60.4401)">
<stop stop-color="white" stop-opacity="0.59"/>
<stop offset="0.697917" stop-color="white" stop-opacity="0"/>
<stop offset="1" stop-color="white" stop-opacity="0"/>
</radialGradient>
<radialGradient id="paint1_radial_1461_4895" cx="0" cy="0" r="1" gradientUnits="userSpaceOnUse" gradientTransform="translate(62.137 63) rotate(-93.6705) scale(61.6264 68.6852)">
<stop stop-opacity="0.23"/>
<stop offset="0.861815" stop-opacity="0"/>
</radialGradient>
</defs>
</svg>
