<svg width="72" height="72" viewBox="0 0 72 72" fill="none" xmlns="http://www.w3.org/2000/svg">
<path fill-rule="evenodd" clip-rule="evenodd" d="M33.797 0.175579C29.3072 0.991679 25.2471 4.02758 21.9999 8.99659L21.1165 10.3484L19.5934 10.4355C14.1062 10.7492 9.84319 12.3937 6.91664 15.3256C5.2733 16.9719 4.31086 18.6175 3.55191 21.0789C3.20245 22.2125 3.1763 22.4794 3.17095 24.9726C3.16589 27.3498 3.20259 27.7911 3.49875 28.9172C4.05816 31.0447 4.47848 32.2062 5.35894 34.0573L6.20241 35.8311L5.40745 37.4285C4.07391 40.1084 3.31509 42.6542 3.10444 45.156C2.97309 46.7148 3.09023 47.3084 3.6097 47.7179C4.53052 48.4434 5.81077 47.8245 5.95392 46.585C6.25191 44.0032 6.41602 43.1118 6.82327 41.8629C7.07864 41.0799 7.46916 40.0793 7.6912 39.6393L8.09494 38.8394L8.79356 39.7931C10.2611 41.7964 12.9862 44.77 15.1349 46.7129L16.0598 47.5491L16.3789 49.0101C17.0376 52.0265 18.1287 55.4815 19.0983 57.6208L19.5293 58.5717H19.1694C18.9714 58.5717 18.1576 58.4748 17.361 58.3562C14.6891 57.9588 12.4249 57.1168 10.4306 55.7789C10.2824 55.6795 10.2742 55.4894 10.3912 54.8557C11.0998 51.0153 6.84844 48.2026 3.56302 50.3382C2.2687 51.1795 1.54688 52.5133 1.54688 54.0637C1.54688 56.0932 2.89083 57.8579 4.83047 58.3752C5.83228 58.6425 6.47564 58.6198 7.47591 58.2822L8.33372 57.9929L9.06877 58.4817C11.7124 60.2402 15.501 61.3731 19.5643 61.6203L21.1168 61.7149L21.9985 63.0664C24.454 66.8304 27.7379 69.7667 30.9414 71.0629C32.7765 71.8054 33.8268 72 36 72C38.1732 72 39.2235 71.8054 41.0586 71.0629C44.2997 69.7515 47.702 66.683 50.1041 62.9051L50.9766 61.533L52.2464 61.5316C55.7526 61.5278 60.3948 60.4451 61.1771 59.4489C61.515 59.0185 61.5376 58.1918 61.2238 57.743C61.0976 57.5625 60.7795 57.325 60.5168 57.215C60.0744 57.0298 59.9482 57.0455 58.8125 57.4252C58.1379 57.6508 57.1113 57.9371 56.5312 58.0614C55.4155 58.3004 52.7175 58.6018 52.6147 58.4988C52.5812 58.4654 52.7278 58.0401 52.9404 57.5539C53.9305 55.2886 54.9817 51.9386 55.6211 49.0101L55.9402 47.5491L56.8651 46.7129C59.0138 44.77 61.7389 41.7964 63.2064 39.7931L63.9051 38.8394L64.2998 39.6215C64.8564 40.7242 65.5127 42.7537 65.7505 44.1076C65.9593 45.2962 66.0042 47.7441 65.8372 48.8431C65.7439 49.4581 65.729 49.4728 64.9688 49.7C63.9101 50.0166 63.4402 50.2849 62.8362 50.9176C60.2391 53.6385 61.8105 58.0861 65.5245 58.5268C66.9099 58.6912 68.6921 57.9357 69.5371 56.8259C70.8564 55.0931 70.7248 52.5459 69.2356 50.9888L68.6107 50.3354L68.7814 49.3468C68.8755 48.8031 68.9475 47.534 68.9417 46.5268C68.9241 43.5021 68.1816 40.6216 66.6001 37.444L65.7976 35.8311L66.6411 34.0573C67.5215 32.2062 67.9418 31.0447 68.5012 28.9172C68.7974 27.7911 68.8341 27.3498 68.829 24.9726C68.8237 22.4794 68.7975 22.2125 68.4481 21.0789C67.6797 18.5869 66.7488 16.994 65.0893 15.3315C61.8375 12.0738 56.8969 10.3916 50.5831 10.392C46.2923 10.3923 42.2992 11.0428 37.4414 12.5327L36 12.9748L34.5586 12.5327C31.4786 11.588 28.781 10.9921 25.9754 10.6367L24.5991 10.4623L25.4287 9.33526C26.4181 7.99101 28.1528 6.21469 29.3203 5.35055C30.4642 4.50374 32.1069 3.69469 33.4287 3.32714C34.6949 2.97495 36.943 2.91719 38.3019 3.2019L39.1272 3.37489L39.0495 3.95517C39.0067 4.27425 39.032 4.85312 39.1056 5.24137C39.7117 8.44337 43.2233 9.96441 45.937 8.20049C47.2313 7.35918 47.9531 6.02535 47.9531 4.475C47.9531 2.92465 47.2313 1.59083 45.937 0.749512C44.5784 -0.133505 43.0397 -0.239162 41.5419 0.447754C40.8127 0.782195 40.7499 0.788535 40.1816 0.586517C38.6069 0.0262497 35.6611 -0.16323 33.797 0.175579ZM44.3952 3.3122C44.8464 3.60354 45.0608 4.35667 44.8632 4.95652C44.5265 5.97858 43.239 6.25442 42.4579 5.47199C42.1426 5.15614 42.0469 4.93074 42.0469 4.50487C42.0469 3.2667 43.3219 2.61923 44.3952 3.3122ZM16.4531 5.95421V7.43342H18H19.5469V5.95421V4.475H18H16.4531V5.95421ZM52.4531 5.95421V7.43342H54H55.5469V5.95421V4.475H54H52.4531V5.95421ZM25.5234 13.64C26.9501 13.7873 30.9788 14.5401 31.2547 14.7108C31.3203 14.7514 30.1525 15.402 28.6597 16.1562C25.7878 17.6074 23.4111 18.998 21.2695 20.4802C20.4068 21.0772 19.9688 21.3082 19.9688 21.1664C19.9688 20.5357 21.7396 15.7021 22.5824 14.0322C22.8995 13.4039 22.9364 13.3781 23.4451 13.428C23.7374 13.4568 24.6727 13.5521 25.5234 13.64ZM53.7188 13.5672C55.9801 13.762 58.4954 14.5222 60.5391 15.6284C62.2222 16.5394 64.0392 18.3917 64.8023 19.9744C65.5532 21.5321 65.8136 22.5436 65.9114 24.282C66.0413 26.594 65.3695 29.7448 64.2225 32.2035L63.8723 32.954L63.4476 32.3357C62.2086 30.5316 58.9396 27.0581 56.2767 24.7163C55.6964 24.2058 55.6476 24.0986 55.1229 22.1815C54.4115 19.5825 53.6479 17.3775 52.6833 15.137L51.906 13.3312L52.2851 13.4038C52.4935 13.4437 53.1387 13.5172 53.7188 13.5672ZM19.1015 14.4361C18.1357 16.57 16.9093 20.4597 16.3645 23.1167C16.1249 24.286 16.0716 24.3943 15.4728 24.9322C12.981 27.1699 9.90183 30.451 8.65434 32.1978L8.12236 32.9426L7.77487 32.1978C7.17019 30.9017 6.498 28.6867 6.24909 27.17C5.9715 25.4778 6.03113 23.3722 6.3952 22.0142C7.16738 19.1344 9.25467 16.6764 12.1641 15.2207C13.9448 14.3296 16.9068 13.5751 18.87 13.5123L19.5293 13.4911L19.1015 14.4361ZM49.3381 15.0354C50.3672 17.2335 51.8614 21.0985 51.6819 21.0985C51.6544 21.0985 51.1363 20.7571 50.5308 20.3399C48.5553 18.979 46.1055 17.5536 43.3403 16.1562C41.8475 15.402 40.6776 14.7527 40.7408 14.7137C41.2102 14.423 46.4136 13.5375 47.827 13.5078L48.615 13.4911L49.3381 15.0354ZM37.6516 16.8258C39.978 17.752 44.5641 20.1073 46.9392 21.5956C48.0445 22.2882 49.8537 23.5317 50.9595 24.3591L52.9702 25.8632L53.145 26.8971C53.9789 31.8318 54.1652 35.2315 53.8554 39.8591C53.7245 41.8151 53.407 44.6796 53.2159 45.6295C53.1426 45.9933 52.728 46.3603 50.4844 48.0473L49.5703 48.7346L49.4862 47.6307C49.3954 46.4394 49.3204 46.1763 48.8981 45.5661C48.747 45.3476 46.9193 44.0297 44.8366 42.6374L41.05 40.106L41.672 39.3718C42.4163 38.4931 42.9581 37.4533 43.2433 36.3564C43.539 35.2191 43.5354 30.7718 43.2378 29.6275C42.7492 27.7477 41.2567 25.8432 39.5646 24.9396C36.6187 23.3667 33.0885 23.89 30.7344 26.2484C28.9825 28.0034 28.5469 29.3484 28.5469 33.0026C28.5469 36.4483 28.8896 37.6736 30.328 39.3718L30.95 40.106L27.1634 42.6374C25.0808 44.0297 23.253 45.3476 23.1019 45.5661C22.6796 46.1763 22.6046 46.4394 22.5138 47.6307L22.4297 48.7346L21.5156 48.0473C19.272 46.3603 18.8574 45.9933 18.7841 45.6295C18.4075 43.7577 18 38.775 18 36.0421C18 33.8029 18.244 30.3125 18.5619 28.0015L18.8236 26.0996L19.3611 25.644C21.8132 23.5648 26.0561 20.8491 29.8828 18.9095C32.0085 17.8321 35.4898 16.2664 35.9641 16.1744C35.9831 16.1707 36.7425 16.4639 37.6516 16.8258ZM37.8599 27.4726C38.8351 27.9199 39.5935 28.6805 40.0608 29.6799C40.3965 30.3976 40.4332 30.6526 40.4785 32.58C40.537 35.0688 40.3847 35.9516 39.7215 36.9701C38.8759 38.2683 37.5466 38.9899 36 38.9899C33.9742 38.9899 32.2125 37.6435 31.6962 35.7004C31.4269 34.6873 31.4345 31.2323 31.7078 30.3099C32.4986 27.6424 35.3564 26.3245 37.8599 27.4726ZM59.1936 31.8756C60.5355 33.4347 62.1536 35.6143 62.1551 35.8652C62.1578 36.2984 59.5381 39.7071 57.8049 41.5256L56.6637 42.7231L56.7332 42.0187C56.7713 41.6313 56.8453 39.6517 56.8976 37.6197C56.9839 34.2571 56.8568 30.9954 56.5802 29.4807C56.5052 29.0704 56.5265 29.0807 57.3026 29.8329C57.7423 30.259 58.5932 31.1782 59.1936 31.8756ZM15.1823 31.4586C15.0195 33.4013 15.0723 40.0849 15.2658 42.0187L15.3363 42.7231L14.1951 41.5256C12.4619 39.7071 9.8422 36.2984 9.84488 35.8652C9.84628 35.6447 11.3887 33.5228 12.489 32.2278C13.4938 31.0451 15.2263 29.2612 15.299 29.3342C15.3301 29.3653 15.2775 30.3213 15.1823 31.4586ZM0 36.0314V37.5811H1.47656H2.95312V36.0314V34.4818H1.47656H0V36.0314ZM69.0469 36.0314V37.5811H70.5234H72V36.0314V34.4818H70.5234H69.0469V36.0314ZM35.0156 41.9493C35.6245 42.0398 36.2998 42.0359 37.0384 41.937L38.1471 41.7888L42.3435 44.5804L46.5397 47.372L46.5434 49.023L46.5469 50.674L45.7383 51.1929C43.6919 52.5062 37.4934 55.462 36.2734 55.7065C35.9776 55.7658 35.3596 55.5843 34 55.039C31.9601 54.2209 27.5466 52.03 26.2617 51.1977L25.4531 50.674L25.4568 49.023L25.4606 47.372L29.6404 44.59C31.9393 43.0599 33.8836 41.8091 33.9609 41.8105C34.0383 41.8119 34.5129 41.8743 35.0156 41.9493ZM21.2813 51.5638C23.1324 52.8824 25.9689 54.5507 28.672 55.9106L31.3987 57.2824L30.8517 57.4299C28.909 57.954 24.9684 58.5717 23.5683 58.5717H22.8229L22.3898 57.6208C21.3598 55.3595 19.9688 51.491 19.9688 50.8882C19.9688 50.6298 19.9738 50.6325 21.2813 51.5638ZM51.5305 52.6717C51.0142 54.2809 49.9819 56.9157 49.4812 57.9026C49.2225 58.412 49.1867 58.4309 48.4734 58.4309C47.359 58.4309 44.4788 58.0457 42.5589 57.64C41.6198 57.4415 40.8331 57.261 40.8106 57.2388C40.7881 57.2167 41.8241 56.6747 43.113 56.0346C45.596 54.8012 48.97 52.8119 50.8359 51.4811C51.595 50.9397 51.9746 50.7421 52.0028 50.8737C52.0259 50.9807 51.8134 51.7899 51.5305 52.6717ZM7.13672 53.1533C7.35244 53.4004 7.45312 53.6963 7.45312 54.0824C7.45312 55.6808 5.13633 56.0615 4.63683 54.5452C4.12425 52.9891 6.05503 51.914 7.13672 53.1533ZM66.8952 52.9009C67.3464 53.1922 67.5608 53.9454 67.3632 54.5452C67.0265 55.5673 65.739 55.8431 64.9579 55.0607C64.6426 54.7448 64.5469 54.5194 64.5469 54.0936C64.5469 52.8554 65.8219 52.2079 66.8952 52.9009ZM39.8025 60.1173C41.3603 60.5166 44.6016 61.1049 46.5692 61.3453L47.5058 61.4597L46.7393 62.5163C45.7786 63.8404 43.8027 65.8844 42.6862 66.7091C38.4688 69.8236 33.5251 69.8249 29.3203 66.7123C27.8729 65.641 25.5639 63.1426 24.7096 61.7233C24.6434 61.6136 25.0369 61.5135 25.9827 61.3999C28.5327 61.0933 32.0688 60.3074 34.8041 59.4391L36.069 59.0375L37.1244 59.3694C37.7048 59.552 38.91 59.8885 39.8025 60.1173ZM16.4531 66.1087V67.5879H18H19.5469V66.1087V64.6295H18H16.4531V66.1087ZM52.4531 66.1087V67.5879H54H55.5469V66.1087V64.6295H54H52.4531V66.1087Z" fill="#0066FF"/>
<path fill-rule="evenodd" clip-rule="evenodd" d="M33.797 0.175579C29.3072 0.991679 25.2471 4.02758 21.9999 8.99659L21.1165 10.3484L19.5934 10.4355C14.1062 10.7492 9.84319 12.3937 6.91664 15.3256C5.2733 16.9719 4.31086 18.6175 3.55191 21.0789C3.20245 22.2125 3.1763 22.4794 3.17095 24.9726C3.16589 27.3498 3.20259 27.7911 3.49875 28.9172C4.05816 31.0447 4.47848 32.2062 5.35894 34.0573L6.20241 35.8311L5.40745 37.4285C4.07391 40.1084 3.31509 42.6542 3.10444 45.156C2.97309 46.7148 3.09023 47.3084 3.6097 47.7179C4.53052 48.4434 5.81077 47.8245 5.95392 46.585C6.25191 44.0032 6.41602 43.1118 6.82327 41.8629C7.07864 41.0799 7.46916 40.0793 7.6912 39.6393L8.09494 38.8394L8.79356 39.7931C10.2611 41.7964 12.9862 44.77 15.1349 46.7129L16.0598 47.5491L16.3789 49.0101C17.0376 52.0265 18.1287 55.4815 19.0983 57.6208L19.5293 58.5717H19.1694C18.9714 58.5717 18.1576 58.4748 17.361 58.3562C14.6891 57.9588 12.4249 57.1168 10.4306 55.7789C10.2824 55.6795 10.2742 55.4894 10.3912 54.8557C11.0998 51.0153 6.84844 48.2026 3.56302 50.3382C2.2687 51.1795 1.54688 52.5133 1.54688 54.0637C1.54688 56.0932 2.89083 57.8579 4.83047 58.3752C5.83228 58.6425 6.47564 58.6198 7.47591 58.2822L8.33372 57.9929L9.06877 58.4817C11.7124 60.2402 15.501 61.3731 19.5643 61.6203L21.1168 61.7149L21.9985 63.0664C24.454 66.8304 27.7379 69.7667 30.9414 71.0629C32.7765 71.8054 33.8268 72 36 72C38.1732 72 39.2235 71.8054 41.0586 71.0629C44.2997 69.7515 47.702 66.683 50.1041 62.9051L50.9766 61.533L52.2464 61.5316C55.7526 61.5278 60.3948 60.4451 61.1771 59.4489C61.515 59.0185 61.5376 58.1918 61.2238 57.743C61.0976 57.5625 60.7795 57.325 60.5168 57.215C60.0744 57.0298 59.9482 57.0455 58.8125 57.4252C58.1379 57.6508 57.1113 57.9371 56.5312 58.0614C55.4155 58.3004 52.7175 58.6018 52.6147 58.4988C52.5812 58.4654 52.7278 58.0401 52.9404 57.5539C53.9305 55.2886 54.9817 51.9386 55.6211 49.0101L55.9402 47.5491L56.8651 46.7129C59.0138 44.77 61.7389 41.7964 63.2064 39.7931L63.9051 38.8394L64.2998 39.6215C64.8564 40.7242 65.5127 42.7537 65.7505 44.1076C65.9593 45.2962 66.0042 47.7441 65.8372 48.8431C65.7439 49.4581 65.729 49.4728 64.9688 49.7C63.9101 50.0166 63.4402 50.2849 62.8362 50.9176C60.2391 53.6385 61.8105 58.0861 65.5245 58.5268C66.9099 58.6912 68.6921 57.9357 69.5371 56.8259C70.8564 55.0931 70.7248 52.5459 69.2356 50.9888L68.6107 50.3354L68.7814 49.3468C68.8755 48.8031 68.9475 47.534 68.9417 46.5268C68.9241 43.5021 68.1816 40.6216 66.6001 37.444L65.7976 35.8311L66.6411 34.0573C67.5215 32.2062 67.9418 31.0447 68.5012 28.9172C68.7974 27.7911 68.8341 27.3498 68.829 24.9726C68.8237 22.4794 68.7975 22.2125 68.4481 21.0789C67.6797 18.5869 66.7488 16.994 65.0893 15.3315C61.8375 12.0738 56.8969 10.3916 50.5831 10.392C46.2923 10.3923 42.2992 11.0428 37.4414 12.5327L36 12.9748L34.5586 12.5327C31.4786 11.588 28.781 10.9921 25.9754 10.6367L24.5991 10.4623L25.4287 9.33526C26.4181 7.99101 28.1528 6.21469 29.3203 5.35055C30.4642 4.50374 32.1069 3.69469 33.4287 3.32714C34.6949 2.97495 36.943 2.91719 38.3019 3.2019L39.1272 3.37489L39.0495 3.95517C39.0067 4.27425 39.032 4.85312 39.1056 5.24137C39.7117 8.44337 43.2233 9.96441 45.937 8.20049C47.2313 7.35918 47.9531 6.02535 47.9531 4.475C47.9531 2.92465 47.2313 1.59083 45.937 0.749512C44.5784 -0.133505 43.0397 -0.239162 41.5419 0.447754C40.8127 0.782195 40.7499 0.788535 40.1816 0.586517C38.6069 0.0262497 35.6611 -0.16323 33.797 0.175579ZM44.3952 3.3122C44.8464 3.60354 45.0608 4.35667 44.8632 4.95652C44.5265 5.97858 43.239 6.25442 42.4579 5.47199C42.1426 5.15614 42.0469 4.93074 42.0469 4.50487C42.0469 3.2667 43.3219 2.61923 44.3952 3.3122ZM16.4531 5.95421V7.43342H18H19.5469V5.95421V4.475H18H16.4531V5.95421ZM52.4531 5.95421V7.43342H54H55.5469V5.95421V4.475H54H52.4531V5.95421ZM25.5234 13.64C26.9501 13.7873 30.9788 14.5401 31.2547 14.7108C31.3203 14.7514 30.1525 15.402 28.6597 16.1562C25.7878 17.6074 23.4111 18.998 21.2695 20.4802C20.4068 21.0772 19.9688 21.3082 19.9688 21.1664C19.9688 20.5357 21.7396 15.7021 22.5824 14.0322C22.8995 13.4039 22.9364 13.3781 23.4451 13.428C23.7374 13.4568 24.6727 13.5521 25.5234 13.64ZM53.7188 13.5672C55.9801 13.762 58.4954 14.5222 60.5391 15.6284C62.2222 16.5394 64.0392 18.3917 64.8023 19.9744C65.5532 21.5321 65.8136 22.5436 65.9114 24.282C66.0413 26.594 65.3695 29.7448 64.2225 32.2035L63.8723 32.954L63.4476 32.3357C62.2086 30.5316 58.9396 27.0581 56.2767 24.7163C55.6964 24.2058 55.6476 24.0986 55.1229 22.1815C54.4115 19.5825 53.6479 17.3775 52.6833 15.137L51.906 13.3312L52.2851 13.4038C52.4935 13.4437 53.1387 13.5172 53.7188 13.5672ZM19.1015 14.4361C18.1357 16.57 16.9093 20.4597 16.3645 23.1167C16.1249 24.286 16.0716 24.3943 15.4728 24.9322C12.981 27.1699 9.90183 30.451 8.65434 32.1978L8.12236 32.9426L7.77487 32.1978C7.17019 30.9017 6.498 28.6867 6.24909 27.17C5.9715 25.4778 6.03113 23.3722 6.3952 22.0142C7.16738 19.1344 9.25467 16.6764 12.1641 15.2207C13.9448 14.3296 16.9068 13.5751 18.87 13.5123L19.5293 13.4911L19.1015 14.4361ZM49.3381 15.0354C50.3672 17.2335 51.8614 21.0985 51.6819 21.0985C51.6544 21.0985 51.1363 20.7571 50.5308 20.3399C48.5553 18.979 46.1055 17.5536 43.3403 16.1562C41.8475 15.402 40.6776 14.7527 40.7408 14.7137C41.2102 14.423 46.4136 13.5375 47.827 13.5078L48.615 13.4911L49.3381 15.0354ZM37.6516 16.8258C39.978 17.752 44.5641 20.1073 46.9392 21.5956C48.0445 22.2882 49.8537 23.5317 50.9595 24.3591L52.9702 25.8632L53.145 26.8971C53.9789 31.8318 54.1652 35.2315 53.8554 39.8591C53.7245 41.8151 53.407 44.6796 53.2159 45.6295C53.1426 45.9933 52.728 46.3603 50.4844 48.0473L49.5703 48.7346L49.4862 47.6307C49.3954 46.4394 49.3204 46.1763 48.8981 45.5661C48.747 45.3476 46.9193 44.0297 44.8366 42.6374L41.05 40.106L41.672 39.3718C42.4163 38.4931 42.9581 37.4533 43.2433 36.3564C43.539 35.2191 43.5354 30.7718 43.2378 29.6275C42.7492 27.7477 41.2567 25.8432 39.5646 24.9396C36.6187 23.3667 33.0885 23.89 30.7344 26.2484C28.9825 28.0034 28.5469 29.3484 28.5469 33.0026C28.5469 36.4483 28.8896 37.6736 30.328 39.3718L30.95 40.106L27.1634 42.6374C25.0808 44.0297 23.253 45.3476 23.1019 45.5661C22.6796 46.1763 22.6046 46.4394 22.5138 47.6307L22.4297 48.7346L21.5156 48.0473C19.272 46.3603 18.8574 45.9933 18.7841 45.6295C18.4075 43.7577 18 38.775 18 36.0421C18 33.8029 18.244 30.3125 18.5619 28.0015L18.8236 26.0996L19.3611 25.644C21.8132 23.5648 26.0561 20.8491 29.8828 18.9095C32.0085 17.8321 35.4898 16.2664 35.9641 16.1744C35.9831 16.1707 36.7425 16.4639 37.6516 16.8258ZM37.8599 27.4726C38.8351 27.9199 39.5935 28.6805 40.0608 29.6799C40.3965 30.3976 40.4332 30.6526 40.4785 32.58C40.537 35.0688 40.3847 35.9516 39.7215 36.9701C38.8759 38.2683 37.5466 38.9899 36 38.9899C33.9742 38.9899 32.2125 37.6435 31.6962 35.7004C31.4269 34.6873 31.4345 31.2323 31.7078 30.3099C32.4986 27.6424 35.3564 26.3245 37.8599 27.4726ZM59.1936 31.8756C60.5355 33.4347 62.1536 35.6143 62.1551 35.8652C62.1578 36.2984 59.5381 39.7071 57.8049 41.5256L56.6637 42.7231L56.7332 42.0187C56.7713 41.6313 56.8453 39.6517 56.8976 37.6197C56.9839 34.2571 56.8568 30.9954 56.5802 29.4807C56.5052 29.0704 56.5265 29.0807 57.3026 29.8329C57.7423 30.259 58.5932 31.1782 59.1936 31.8756ZM15.1823 31.4586C15.0195 33.4013 15.0723 40.0849 15.2658 42.0187L15.3363 42.7231L14.1951 41.5256C12.4619 39.7071 9.8422 36.2984 9.84488 35.8652C9.84628 35.6447 11.3887 33.5228 12.489 32.2278C13.4938 31.0451 15.2263 29.2612 15.299 29.3342C15.3301 29.3653 15.2775 30.3213 15.1823 31.4586ZM0 36.0314V37.5811H1.47656H2.95312V36.0314V34.4818H1.47656H0V36.0314ZM69.0469 36.0314V37.5811H70.5234H72V36.0314V34.4818H70.5234H69.0469V36.0314ZM35.0156 41.9493C35.6245 42.0398 36.2998 42.0359 37.0384 41.937L38.1471 41.7888L42.3435 44.5804L46.5397 47.372L46.5434 49.023L46.5469 50.674L45.7383 51.1929C43.6919 52.5062 37.4934 55.462 36.2734 55.7065C35.9776 55.7658 35.3596 55.5843 34 55.039C31.9601 54.2209 27.5466 52.03 26.2617 51.1977L25.4531 50.674L25.4568 49.023L25.4606 47.372L29.6404 44.59C31.9393 43.0599 33.8836 41.8091 33.9609 41.8105C34.0383 41.8119 34.5129 41.8743 35.0156 41.9493ZM21.2813 51.5638C23.1324 52.8824 25.9689 54.5507 28.672 55.9106L31.3987 57.2824L30.8517 57.4299C28.909 57.954 24.9684 58.5717 23.5683 58.5717H22.8229L22.3898 57.6208C21.3598 55.3595 19.9688 51.491 19.9688 50.8882C19.9688 50.6298 19.9738 50.6325 21.2813 51.5638ZM51.5305 52.6717C51.0142 54.2809 49.9819 56.9157 49.4812 57.9026C49.2225 58.412 49.1867 58.4309 48.4734 58.4309C47.359 58.4309 44.4788 58.0457 42.5589 57.64C41.6198 57.4415 40.8331 57.261 40.8106 57.2388C40.7881 57.2167 41.8241 56.6747 43.113 56.0346C45.596 54.8012 48.97 52.8119 50.8359 51.4811C51.595 50.9397 51.9746 50.7421 52.0028 50.8737C52.0259 50.9807 51.8134 51.7899 51.5305 52.6717ZM7.13672 53.1533C7.35244 53.4004 7.45312 53.6963 7.45312 54.0824C7.45312 55.6808 5.13633 56.0615 4.63683 54.5452C4.12425 52.9891 6.05503 51.914 7.13672 53.1533ZM66.8952 52.9009C67.3464 53.1922 67.5608 53.9454 67.3632 54.5452C67.0265 55.5673 65.739 55.8431 64.9579 55.0607C64.6426 54.7448 64.5469 54.5194 64.5469 54.0936C64.5469 52.8554 65.8219 52.2079 66.8952 52.9009ZM39.8025 60.1173C41.3603 60.5166 44.6016 61.1049 46.5692 61.3453L47.5058 61.4597L46.7393 62.5163C45.7786 63.8404 43.8027 65.8844 42.6862 66.7091C38.4688 69.8236 33.5251 69.8249 29.3203 66.7123C27.8729 65.641 25.5639 63.1426 24.7096 61.7233C24.6434 61.6136 25.0369 61.5135 25.9827 61.3999C28.5327 61.0933 32.0688 60.3074 34.8041 59.4391L36.069 59.0375L37.1244 59.3694C37.7048 59.552 38.91 59.8885 39.8025 60.1173ZM16.4531 66.1087V67.5879H18H19.5469V66.1087V64.6295H18H16.4531V66.1087ZM52.4531 66.1087V67.5879H54H55.5469V66.1087V64.6295H54H52.4531V66.1087Z" fill="url(#paint0_radial_1605_79)" fill-opacity="0.7"/>
<path fill-rule="evenodd" clip-rule="evenodd" d="M33.797 0.175579C29.3072 0.991679 25.2471 4.02758 21.9999 8.99659L21.1165 10.3484L19.5934 10.4355C14.1062 10.7492 9.84319 12.3937 6.91664 15.3256C5.2733 16.9719 4.31086 18.6175 3.55191 21.0789C3.20245 22.2125 3.1763 22.4794 3.17095 24.9726C3.16589 27.3498 3.20259 27.7911 3.49875 28.9172C4.05816 31.0447 4.47848 32.2062 5.35894 34.0573L6.20241 35.8311L5.40745 37.4285C4.07391 40.1084 3.31509 42.6542 3.10444 45.156C2.97309 46.7148 3.09023 47.3084 3.6097 47.7179C4.53052 48.4434 5.81077 47.8245 5.95392 46.585C6.25191 44.0032 6.41602 43.1118 6.82327 41.8629C7.07864 41.0799 7.46916 40.0793 7.6912 39.6393L8.09494 38.8394L8.79356 39.7931C10.2611 41.7964 12.9862 44.77 15.1349 46.7129L16.0598 47.5491L16.3789 49.0101C17.0376 52.0265 18.1287 55.4815 19.0983 57.6208L19.5293 58.5717H19.1694C18.9714 58.5717 18.1576 58.4748 17.361 58.3562C14.6891 57.9588 12.4249 57.1168 10.4306 55.7789C10.2824 55.6795 10.2742 55.4894 10.3912 54.8557C11.0998 51.0153 6.84844 48.2026 3.56302 50.3382C2.2687 51.1795 1.54688 52.5133 1.54688 54.0637C1.54688 56.0932 2.89083 57.8579 4.83047 58.3752C5.83228 58.6425 6.47564 58.6198 7.47591 58.2822L8.33372 57.9929L9.06877 58.4817C11.7124 60.2402 15.501 61.3731 19.5643 61.6203L21.1168 61.7149L21.9985 63.0664C24.454 66.8304 27.7379 69.7667 30.9414 71.0629C32.7765 71.8054 33.8268 72 36 72C38.1732 72 39.2235 71.8054 41.0586 71.0629C44.2997 69.7515 47.702 66.683 50.1041 62.9051L50.9766 61.533L52.2464 61.5316C55.7526 61.5278 60.3948 60.4451 61.1771 59.4489C61.515 59.0185 61.5376 58.1918 61.2238 57.743C61.0976 57.5625 60.7795 57.325 60.5168 57.215C60.0744 57.0298 59.9482 57.0455 58.8125 57.4252C58.1379 57.6508 57.1113 57.9371 56.5312 58.0614C55.4155 58.3004 52.7175 58.6018 52.6147 58.4988C52.5812 58.4654 52.7278 58.0401 52.9404 57.5539C53.9305 55.2886 54.9817 51.9386 55.6211 49.0101L55.9402 47.5491L56.8651 46.7129C59.0138 44.77 61.7389 41.7964 63.2064 39.7931L63.9051 38.8394L64.2998 39.6215C64.8564 40.7242 65.5127 42.7537 65.7505 44.1076C65.9593 45.2962 66.0042 47.7441 65.8372 48.8431C65.7439 49.4581 65.729 49.4728 64.9688 49.7C63.9101 50.0166 63.4402 50.2849 62.8362 50.9176C60.2391 53.6385 61.8105 58.0861 65.5245 58.5268C66.9099 58.6912 68.6921 57.9357 69.5371 56.8259C70.8564 55.0931 70.7248 52.5459 69.2356 50.9888L68.6107 50.3354L68.7814 49.3468C68.8755 48.8031 68.9475 47.534 68.9417 46.5268C68.9241 43.5021 68.1816 40.6216 66.6001 37.444L65.7976 35.8311L66.6411 34.0573C67.5215 32.2062 67.9418 31.0447 68.5012 28.9172C68.7974 27.7911 68.8341 27.3498 68.829 24.9726C68.8237 22.4794 68.7975 22.2125 68.4481 21.0789C67.6797 18.5869 66.7488 16.994 65.0893 15.3315C61.8375 12.0738 56.8969 10.3916 50.5831 10.392C46.2923 10.3923 42.2992 11.0428 37.4414 12.5327L36 12.9748L34.5586 12.5327C31.4786 11.588 28.781 10.9921 25.9754 10.6367L24.5991 10.4623L25.4287 9.33526C26.4181 7.99101 28.1528 6.21469 29.3203 5.35055C30.4642 4.50374 32.1069 3.69469 33.4287 3.32714C34.6949 2.97495 36.943 2.91719 38.3019 3.2019L39.1272 3.37489L39.0495 3.95517C39.0067 4.27425 39.032 4.85312 39.1056 5.24137C39.7117 8.44337 43.2233 9.96441 45.937 8.20049C47.2313 7.35918 47.9531 6.02535 47.9531 4.475C47.9531 2.92465 47.2313 1.59083 45.937 0.749512C44.5784 -0.133505 43.0397 -0.239162 41.5419 0.447754C40.8127 0.782195 40.7499 0.788535 40.1816 0.586517C38.6069 0.0262497 35.6611 -0.16323 33.797 0.175579ZM44.3952 3.3122C44.8464 3.60354 45.0608 4.35667 44.8632 4.95652C44.5265 5.97858 43.239 6.25442 42.4579 5.47199C42.1426 5.15614 42.0469 4.93074 42.0469 4.50487C42.0469 3.2667 43.3219 2.61923 44.3952 3.3122ZM16.4531 5.95421V7.43342H18H19.5469V5.95421V4.475H18H16.4531V5.95421ZM52.4531 5.95421V7.43342H54H55.5469V5.95421V4.475H54H52.4531V5.95421ZM25.5234 13.64C26.9501 13.7873 30.9788 14.5401 31.2547 14.7108C31.3203 14.7514 30.1525 15.402 28.6597 16.1562C25.7878 17.6074 23.4111 18.998 21.2695 20.4802C20.4068 21.0772 19.9688 21.3082 19.9688 21.1664C19.9688 20.5357 21.7396 15.7021 22.5824 14.0322C22.8995 13.4039 22.9364 13.3781 23.4451 13.428C23.7374 13.4568 24.6727 13.5521 25.5234 13.64ZM53.7188 13.5672C55.9801 13.762 58.4954 14.5222 60.5391 15.6284C62.2222 16.5394 64.0392 18.3917 64.8023 19.9744C65.5532 21.5321 65.8136 22.5436 65.9114 24.282C66.0413 26.594 65.3695 29.7448 64.2225 32.2035L63.8723 32.954L63.4476 32.3357C62.2086 30.5316 58.9396 27.0581 56.2767 24.7163C55.6964 24.2058 55.6476 24.0986 55.1229 22.1815C54.4115 19.5825 53.6479 17.3775 52.6833 15.137L51.906 13.3312L52.2851 13.4038C52.4935 13.4437 53.1387 13.5172 53.7188 13.5672ZM19.1015 14.4361C18.1357 16.57 16.9093 20.4597 16.3645 23.1167C16.1249 24.286 16.0716 24.3943 15.4728 24.9322C12.981 27.1699 9.90183 30.451 8.65434 32.1978L8.12236 32.9426L7.77487 32.1978C7.17019 30.9017 6.498 28.6867 6.24909 27.17C5.9715 25.4778 6.03113 23.3722 6.3952 22.0142C7.16738 19.1344 9.25467 16.6764 12.1641 15.2207C13.9448 14.3296 16.9068 13.5751 18.87 13.5123L19.5293 13.4911L19.1015 14.4361ZM49.3381 15.0354C50.3672 17.2335 51.8614 21.0985 51.6819 21.0985C51.6544 21.0985 51.1363 20.7571 50.5308 20.3399C48.5553 18.979 46.1055 17.5536 43.3403 16.1562C41.8475 15.402 40.6776 14.7527 40.7408 14.7137C41.2102 14.423 46.4136 13.5375 47.827 13.5078L48.615 13.4911L49.3381 15.0354ZM37.6516 16.8258C39.978 17.752 44.5641 20.1073 46.9392 21.5956C48.0445 22.2882 49.8537 23.5317 50.9595 24.3591L52.9702 25.8632L53.145 26.8971C53.9789 31.8318 54.1652 35.2315 53.8554 39.8591C53.7245 41.8151 53.407 44.6796 53.2159 45.6295C53.1426 45.9933 52.728 46.3603 50.4844 48.0473L49.5703 48.7346L49.4862 47.6307C49.3954 46.4394 49.3204 46.1763 48.8981 45.5661C48.747 45.3476 46.9193 44.0297 44.8366 42.6374L41.05 40.106L41.672 39.3718C42.4163 38.4931 42.9581 37.4533 43.2433 36.3564C43.539 35.2191 43.5354 30.7718 43.2378 29.6275C42.7492 27.7477 41.2567 25.8432 39.5646 24.9396C36.6187 23.3667 33.0885 23.89 30.7344 26.2484C28.9825 28.0034 28.5469 29.3484 28.5469 33.0026C28.5469 36.4483 28.8896 37.6736 30.328 39.3718L30.95 40.106L27.1634 42.6374C25.0808 44.0297 23.253 45.3476 23.1019 45.5661C22.6796 46.1763 22.6046 46.4394 22.5138 47.6307L22.4297 48.7346L21.5156 48.0473C19.272 46.3603 18.8574 45.9933 18.7841 45.6295C18.4075 43.7577 18 38.775 18 36.0421C18 33.8029 18.244 30.3125 18.5619 28.0015L18.8236 26.0996L19.3611 25.644C21.8132 23.5648 26.0561 20.8491 29.8828 18.9095C32.0085 17.8321 35.4898 16.2664 35.9641 16.1744C35.9831 16.1707 36.7425 16.4639 37.6516 16.8258ZM37.8599 27.4726C38.8351 27.9199 39.5935 28.6805 40.0608 29.6799C40.3965 30.3976 40.4332 30.6526 40.4785 32.58C40.537 35.0688 40.3847 35.9516 39.7215 36.9701C38.8759 38.2683 37.5466 38.9899 36 38.9899C33.9742 38.9899 32.2125 37.6435 31.6962 35.7004C31.4269 34.6873 31.4345 31.2323 31.7078 30.3099C32.4986 27.6424 35.3564 26.3245 37.8599 27.4726ZM59.1936 31.8756C60.5355 33.4347 62.1536 35.6143 62.1551 35.8652C62.1578 36.2984 59.5381 39.7071 57.8049 41.5256L56.6637 42.7231L56.7332 42.0187C56.7713 41.6313 56.8453 39.6517 56.8976 37.6197C56.9839 34.2571 56.8568 30.9954 56.5802 29.4807C56.5052 29.0704 56.5265 29.0807 57.3026 29.8329C57.7423 30.259 58.5932 31.1782 59.1936 31.8756ZM15.1823 31.4586C15.0195 33.4013 15.0723 40.0849 15.2658 42.0187L15.3363 42.7231L14.1951 41.5256C12.4619 39.7071 9.8422 36.2984 9.84488 35.8652C9.84628 35.6447 11.3887 33.5228 12.489 32.2278C13.4938 31.0451 15.2263 29.2612 15.299 29.3342C15.3301 29.3653 15.2775 30.3213 15.1823 31.4586ZM0 36.0314V37.5811H1.47656H2.95312V36.0314V34.4818H1.47656H0V36.0314ZM69.0469 36.0314V37.5811H70.5234H72V36.0314V34.4818H70.5234H69.0469V36.0314ZM35.0156 41.9493C35.6245 42.0398 36.2998 42.0359 37.0384 41.937L38.1471 41.7888L42.3435 44.5804L46.5397 47.372L46.5434 49.023L46.5469 50.674L45.7383 51.1929C43.6919 52.5062 37.4934 55.462 36.2734 55.7065C35.9776 55.7658 35.3596 55.5843 34 55.039C31.9601 54.2209 27.5466 52.03 26.2617 51.1977L25.4531 50.674L25.4568 49.023L25.4606 47.372L29.6404 44.59C31.9393 43.0599 33.8836 41.8091 33.9609 41.8105C34.0383 41.8119 34.5129 41.8743 35.0156 41.9493ZM21.2813 51.5638C23.1324 52.8824 25.9689 54.5507 28.672 55.9106L31.3987 57.2824L30.8517 57.4299C28.909 57.954 24.9684 58.5717 23.5683 58.5717H22.8229L22.3898 57.6208C21.3598 55.3595 19.9688 51.491 19.9688 50.8882C19.9688 50.6298 19.9738 50.6325 21.2813 51.5638ZM51.5305 52.6717C51.0142 54.2809 49.9819 56.9157 49.4812 57.9026C49.2225 58.412 49.1867 58.4309 48.4734 58.4309C47.359 58.4309 44.4788 58.0457 42.5589 57.64C41.6198 57.4415 40.8331 57.261 40.8106 57.2388C40.7881 57.2167 41.8241 56.6747 43.113 56.0346C45.596 54.8012 48.97 52.8119 50.8359 51.4811C51.595 50.9397 51.9746 50.7421 52.0028 50.8737C52.0259 50.9807 51.8134 51.7899 51.5305 52.6717ZM7.13672 53.1533C7.35244 53.4004 7.45312 53.6963 7.45312 54.0824C7.45312 55.6808 5.13633 56.0615 4.63683 54.5452C4.12425 52.9891 6.05503 51.914 7.13672 53.1533ZM66.8952 52.9009C67.3464 53.1922 67.5608 53.9454 67.3632 54.5452C67.0265 55.5673 65.739 55.8431 64.9579 55.0607C64.6426 54.7448 64.5469 54.5194 64.5469 54.0936C64.5469 52.8554 65.8219 52.2079 66.8952 52.9009ZM39.8025 60.1173C41.3603 60.5166 44.6016 61.1049 46.5692 61.3453L47.5058 61.4597L46.7393 62.5163C45.7786 63.8404 43.8027 65.8844 42.6862 66.7091C38.4688 69.8236 33.5251 69.8249 29.3203 66.7123C27.8729 65.641 25.5639 63.1426 24.7096 61.7233C24.6434 61.6136 25.0369 61.5135 25.9827 61.3999C28.5327 61.0933 32.0688 60.3074 34.8041 59.4391L36.069 59.0375L37.1244 59.3694C37.7048 59.552 38.91 59.8885 39.8025 60.1173ZM16.4531 66.1087V67.5879H18H19.5469V66.1087V64.6295H18H16.4531V66.1087ZM52.4531 66.1087V67.5879H54H55.5469V66.1087V64.6295H54H52.4531V66.1087Z" fill="url(#paint1_radial_1605_79)"/>
<defs>
<radialGradient id="paint0_radial_1605_79" cx="0" cy="0" r="1" gradientUnits="userSpaceOnUse" gradientTransform="translate(19 15) rotate(51.0441) scale(60.4401 60.4401)">
<stop stop-color="white" stop-opacity="0.59"/>
<stop offset="0.697917" stop-color="white" stop-opacity="0"/>
<stop offset="1" stop-color="white" stop-opacity="0"/>
</radialGradient>
<radialGradient id="paint1_radial_1605_79" cx="0" cy="0" r="1" gradientUnits="userSpaceOnUse" gradientTransform="translate(62.137 63) rotate(-93.6705) scale(61.6264 68.6852)">
<stop stop-opacity="0.23"/>
<stop offset="0.861815" stop-opacity="0"/>
</radialGradient>
</defs>
</svg>
