<svg width="74" height="85" viewBox="0 0 74 85" fill="none" xmlns="http://www.w3.org/2000/svg">
<path fill-rule="evenodd" clip-rule="evenodd" d="M29.8196 0.190255C28.5512 0.650931 27.4604 1.92958 27.2737 3.17464C27.2156 3.5622 27.1941 5.10105 27.2261 6.5944C27.277 8.98098 27.3266 9.38972 27.6366 9.97131C27.8306 10.3352 28.1461 10.7747 28.3378 10.9481C28.821 11.3851 28.779 11.4888 28.0659 11.6205C26.8977 11.8362 23.0183 13.2101 21.3443 14.0009C17.3511 15.8876 14.0661 18.2143 10.8108 21.4621C6.82051 25.4427 4.12427 29.6312 2.15437 34.9089C0.615693 39.0311 0.00316691 42.6403 2.4054e-05 47.6028C-0.00262256 51.6242 0.212084 53.3625 1.16371 57.0264C4.49463 69.8499 14.6922 80.0487 27.5332 83.3984C31.077 84.3229 33.063 84.5656 37.0395 84.56C40.8702 84.5547 42.8353 84.3246 46.1085 83.4978C58.2237 80.4382 68.213 71.1258 72.1217 59.2471C76.0898 47.1886 73.6893 34.1061 65.6904 24.1968C63.3338 21.2775 59.3872 17.8519 56.0755 15.8516C53.2507 14.1453 48.8466 12.299 46.1786 11.7027C45.6554 11.5857 45.2275 11.4579 45.2275 11.4187C45.2275 11.3793 45.4792 11.0531 45.7869 10.6937C46.6267 9.7126 46.745 9.0488 46.6858 5.65353L46.6335 2.66566L46.133 1.85663C45.8231 1.35625 45.3236 0.856871 44.8229 0.547052L44.0135 0.046511L37.2182 0.00879673C31.9152 -0.0204814 30.2905 0.0192177 29.8196 0.190255ZM43.6256 2.29894C44.4977 2.7449 44.5582 2.98458 44.5622 6.00586C44.5652 8.34629 44.5202 8.88769 44.296 9.20759C43.7333 10.0112 43.3591 10.054 36.9208 10.0537C28.9027 10.0534 29.3541 10.2985 29.3503 5.9435L29.3478 3.23899L29.9102 2.67658L30.4726 2.11418H36.8685C41.2531 2.11418 43.3778 2.17224 43.6256 2.29894ZM42.7463 13.1122C53.9977 15.155 63.2121 22.0036 68.2314 32.054C69.8233 35.2418 70.7541 38.0864 71.4786 41.9788C71.8959 44.2208 71.8939 50.9753 71.4753 53.2269C70.7721 57.0082 69.772 60.0593 68.2251 63.1418C60.4227 78.6885 42.586 86.157 26.1223 80.7708C13.0511 76.4946 3.68808 64.9109 2.22599 51.207C0.548369 35.4832 9.96469 20.3533 24.8817 14.8047C26.843 14.075 30.0727 13.2637 32.2425 12.9555C34.5272 12.6308 40.5939 12.7215 42.7463 13.1122ZM33.4831 18.505C28.9493 19.0886 24.5199 20.7422 20.7463 23.2598C9.52849 30.7439 4.87442 44.8664 9.44 57.5686C9.91225 58.8824 11.42 61.9756 12.1124 63.0509C16.3 69.555 22.6259 74.1669 29.8138 75.9563C32.6347 76.6585 33.7789 76.7925 36.9568 76.7923C40.4424 76.7923 42.3427 76.5278 45.3319 75.6272C60.4851 71.0608 69.3185 55.3164 65.2582 40.1104C64.3853 36.8412 63.1857 34.1938 61.2989 31.3718C55.7683 23.1012 46.6242 18.2507 36.7416 18.3457C35.5407 18.3573 34.0745 18.4289 33.4831 18.505ZM35.9643 21.8811C35.9643 23.0666 36.0163 23.339 36.2952 23.6179C36.6927 24.0154 37.0868 24.0377 37.5816 23.6912C37.9157 23.4573 37.9493 23.2963 37.9493 21.9307V20.4274L39.314 20.5402C42.1989 20.7788 46.1267 21.828 48.3986 22.9668C48.9744 23.2555 49.4693 23.5129 49.4985 23.5388C49.5276 23.5646 49.2541 24.1467 48.8911 24.8324C48.1725 26.1884 48.156 26.6125 48.8047 27.0378C49.4937 27.4891 49.9462 27.2115 50.7444 25.848L51.4694 24.6094L52.9305 25.6437C54.8041 26.9702 57.5915 29.7584 58.9204 31.6355L59.9592 33.1027L58.7156 33.8234C57.3473 34.6164 57.0699 35.0652 57.5218 35.7549C57.9471 36.4037 58.3712 36.3871 59.7273 35.6686C60.4129 35.3055 60.995 35.0321 61.0208 35.0612C61.0468 35.0903 61.3042 35.5852 61.5928 36.161C62.7317 38.433 63.7809 42.3607 64.0194 45.2457L64.1322 46.6104H62.629C61.2633 46.6104 61.1024 46.6439 60.8685 46.9781C60.5219 47.4728 60.5443 47.867 60.9418 48.2645C61.2215 48.5442 61.4931 48.5953 62.7024 48.5953H64.1322L64.0194 49.96C63.8689 51.7794 63.347 54.3055 62.7552 56.0784C62.2854 57.4855 61.129 60.1742 60.9937 60.1742C60.9565 60.1742 60.3734 59.8709 59.6977 59.5C58.3597 58.7656 57.9775 58.7553 57.5281 59.4413C57.0711 60.1388 57.3402 60.5752 58.7072 61.353L59.9456 62.0575L59.6763 62.4806C58.9505 63.621 57.4575 65.4298 56.197 66.696C54.7894 68.1101 51.9037 70.4299 51.5524 70.4299C51.4488 70.4299 51.0927 69.9449 50.7612 69.352C49.9601 67.9196 49.2626 67.5677 48.6234 68.274C48.1867 68.7565 48.261 69.2779 48.9286 70.417C49.2584 70.9797 49.5282 71.5024 49.5282 71.5787C49.5282 71.7618 46.8133 72.9387 45.1448 73.4788C43.5889 73.9823 41.0323 74.4906 39.2377 74.6529L37.9622 74.7683L37.9144 73.2252C37.8683 71.7351 37.8511 71.6734 37.4117 71.4281C37.0026 71.1999 36.911 71.1999 36.5019 71.4281C36.0626 71.6734 36.0454 71.7351 35.9992 73.2252L35.9514 74.7683L34.6759 74.655C31.8093 74.4005 28.3256 73.4851 25.7167 72.301C25.0388 71.9934 24.4554 71.7128 24.4203 71.6777C24.3853 71.6427 24.6765 71.0235 25.0676 70.3018C25.7724 69.0014 25.776 68.9858 25.4859 68.543C24.8211 67.5285 24.1118 67.7578 23.2267 69.2735C22.8552 69.9095 22.4918 70.4299 22.4191 70.4299C22.015 70.4299 19.5734 68.4545 17.8336 66.72C16.1023 64.9941 14.1298 62.5552 14.1298 62.1405C14.1298 62.0679 14.6502 61.7045 15.2862 61.333C16.8019 60.4478 17.0311 59.7385 16.0167 59.0737C15.5739 58.7836 15.5583 58.7873 14.2578 59.4921C13.5361 59.8831 12.917 60.1744 12.8819 60.1393C12.8468 60.1043 12.5663 59.5209 12.2586 58.843C11.0746 56.2341 10.1592 52.7503 9.90464 49.8837L9.79133 48.6082L11.3345 48.5604C12.8245 48.5143 12.8862 48.4971 13.1315 48.0577C13.3598 47.6487 13.3598 47.557 13.1315 47.1479C12.8865 46.7094 12.8229 46.6914 11.3533 46.6454C9.59201 46.5905 9.71342 46.7877 10.0032 44.4557C10.2419 42.5346 10.5739 40.9818 11.0811 39.4149C11.621 37.7467 12.7979 35.0314 12.981 35.0314C13.0573 35.0314 13.58 35.3012 14.1427 35.631C15.2817 36.2987 15.8031 36.3729 16.2856 35.9362C16.9919 35.2971 16.6401 34.5995 15.2076 33.7984C14.6148 33.4669 14.1298 33.1128 14.1298 33.0116C14.1298 32.6491 16.4204 29.7943 17.8556 28.3682C19.1747 27.0572 20.9442 25.5962 22.0807 24.8797L22.5053 24.612L23.1528 25.7617C23.8961 27.0812 24.3333 27.4092 24.9654 27.1212C25.1949 27.0167 25.4657 26.749 25.567 26.5267C25.7266 26.1765 25.6579 25.9521 25.0558 24.855C24.6734 24.158 24.3846 23.5665 24.4142 23.5405C24.5808 23.3943 26.0089 22.7339 27.0724 22.3115C29.4481 21.3678 33.1694 20.5321 35.1786 20.4911L35.9643 20.4751V21.8811ZM36.2242 31.4868C35.9994 31.7117 35.9643 32.4253 35.9643 36.7853C35.9643 40.6742 35.9172 41.8374 35.7576 41.883C33.9114 42.4123 32.4627 43.5611 31.7131 45.0902C31.3066 45.9191 31.2514 46.219 31.2507 47.6028C31.2501 49.0768 31.285 49.2384 31.8123 50.2111C32.4594 51.4044 33.2676 52.194 34.511 52.8481C35.2888 53.2572 35.5591 53.3081 36.9568 53.3086C38.3665 53.3091 38.6267 53.2595 39.484 52.8254C40.0095 52.5594 40.7779 51.9802 41.1911 51.5382C42.2264 50.4316 42.6239 49.4656 42.7087 47.851C42.8068 45.9861 42.3787 44.8901 41.024 43.5371C40.1099 42.6244 39.4855 42.2643 38.1561 41.883C37.9964 41.8374 37.9493 40.6742 37.9493 36.7853C37.9493 31.2529 37.9447 31.2269 36.9568 31.2269C36.697 31.2269 36.3673 31.3439 36.2242 31.4868ZM38.5283 44.254C40.9329 45.4348 41.3758 48.6186 39.3793 50.3717C37.7324 51.8176 35.0997 51.4355 33.8662 49.5714C33.3407 48.7773 33.1664 47.3223 33.482 46.3655C34.1443 44.3589 36.6265 43.3203 38.5283 44.254Z" fill="#0066FF"/>
<path fill-rule="evenodd" clip-rule="evenodd" d="M29.8196 0.190255C28.5512 0.650931 27.4604 1.92958 27.2737 3.17464C27.2156 3.5622 27.1941 5.10105 27.2261 6.5944C27.277 8.98098 27.3266 9.38972 27.6366 9.97131C27.8306 10.3352 28.1461 10.7747 28.3378 10.9481C28.821 11.3851 28.779 11.4888 28.0659 11.6205C26.8977 11.8362 23.0183 13.2101 21.3443 14.0009C17.3511 15.8876 14.0661 18.2143 10.8108 21.4621C6.82051 25.4427 4.12427 29.6312 2.15437 34.9089C0.615693 39.0311 0.00316691 42.6403 2.4054e-05 47.6028C-0.00262256 51.6242 0.212084 53.3625 1.16371 57.0264C4.49463 69.8499 14.6922 80.0487 27.5332 83.3984C31.077 84.3229 33.063 84.5656 37.0395 84.56C40.8702 84.5547 42.8353 84.3246 46.1085 83.4978C58.2237 80.4382 68.213 71.1258 72.1217 59.2471C76.0898 47.1886 73.6893 34.1061 65.6904 24.1968C63.3338 21.2775 59.3872 17.8519 56.0755 15.8516C53.2507 14.1453 48.8466 12.299 46.1786 11.7027C45.6554 11.5857 45.2275 11.4579 45.2275 11.4187C45.2275 11.3793 45.4792 11.0531 45.7869 10.6937C46.6267 9.7126 46.745 9.0488 46.6858 5.65353L46.6335 2.66566L46.133 1.85663C45.8231 1.35625 45.3236 0.856871 44.8229 0.547052L44.0135 0.046511L37.2182 0.00879673C31.9152 -0.0204814 30.2905 0.0192177 29.8196 0.190255ZM43.6256 2.29894C44.4977 2.7449 44.5582 2.98458 44.5622 6.00586C44.5652 8.34629 44.5202 8.88769 44.296 9.20759C43.7333 10.0112 43.3591 10.054 36.9208 10.0537C28.9027 10.0534 29.3541 10.2985 29.3503 5.9435L29.3478 3.23899L29.9102 2.67658L30.4726 2.11418H36.8685C41.2531 2.11418 43.3778 2.17224 43.6256 2.29894ZM42.7463 13.1122C53.9977 15.155 63.2121 22.0036 68.2314 32.054C69.8233 35.2418 70.7541 38.0864 71.4786 41.9788C71.8959 44.2208 71.8939 50.9753 71.4753 53.2269C70.7721 57.0082 69.772 60.0593 68.2251 63.1418C60.4227 78.6885 42.586 86.157 26.1223 80.7708C13.0511 76.4946 3.68808 64.9109 2.22599 51.207C0.548369 35.4832 9.96469 20.3533 24.8817 14.8047C26.843 14.075 30.0727 13.2637 32.2425 12.9555C34.5272 12.6308 40.5939 12.7215 42.7463 13.1122ZM33.4831 18.505C28.9493 19.0886 24.5199 20.7422 20.7463 23.2598C9.52849 30.7439 4.87442 44.8664 9.44 57.5686C9.91225 58.8824 11.42 61.9756 12.1124 63.0509C16.3 69.555 22.6259 74.1669 29.8138 75.9563C32.6347 76.6585 33.7789 76.7925 36.9568 76.7923C40.4424 76.7923 42.3427 76.5278 45.3319 75.6272C60.4851 71.0608 69.3185 55.3164 65.2582 40.1104C64.3853 36.8412 63.1857 34.1938 61.2989 31.3718C55.7683 23.1012 46.6242 18.2507 36.7416 18.3457C35.5407 18.3573 34.0745 18.4289 33.4831 18.505ZM35.9643 21.8811C35.9643 23.0666 36.0163 23.339 36.2952 23.6179C36.6927 24.0154 37.0868 24.0377 37.5816 23.6912C37.9157 23.4573 37.9493 23.2963 37.9493 21.9307V20.4274L39.314 20.5402C42.1989 20.7788 46.1267 21.828 48.3986 22.9668C48.9744 23.2555 49.4693 23.5129 49.4985 23.5388C49.5276 23.5646 49.2541 24.1467 48.8911 24.8324C48.1725 26.1884 48.156 26.6125 48.8047 27.0378C49.4937 27.4891 49.9462 27.2115 50.7444 25.848L51.4694 24.6094L52.9305 25.6437C54.8041 26.9702 57.5915 29.7584 58.9204 31.6355L59.9592 33.1027L58.7156 33.8234C57.3473 34.6164 57.0699 35.0652 57.5218 35.7549C57.9471 36.4037 58.3712 36.3871 59.7273 35.6686C60.4129 35.3055 60.995 35.0321 61.0208 35.0612C61.0468 35.0903 61.3042 35.5852 61.5928 36.161C62.7317 38.433 63.7809 42.3607 64.0194 45.2457L64.1322 46.6104H62.629C61.2633 46.6104 61.1024 46.6439 60.8685 46.9781C60.5219 47.4728 60.5443 47.867 60.9418 48.2645C61.2215 48.5442 61.4931 48.5953 62.7024 48.5953H64.1322L64.0194 49.96C63.8689 51.7794 63.347 54.3055 62.7552 56.0784C62.2854 57.4855 61.129 60.1742 60.9937 60.1742C60.9565 60.1742 60.3734 59.8709 59.6977 59.5C58.3597 58.7656 57.9775 58.7553 57.5281 59.4413C57.0711 60.1388 57.3402 60.5752 58.7072 61.353L59.9456 62.0575L59.6763 62.4806C58.9505 63.621 57.4575 65.4298 56.197 66.696C54.7894 68.1101 51.9037 70.4299 51.5524 70.4299C51.4488 70.4299 51.0927 69.9449 50.7612 69.352C49.9601 67.9196 49.2626 67.5677 48.6234 68.274C48.1867 68.7565 48.261 69.2779 48.9286 70.417C49.2584 70.9797 49.5282 71.5024 49.5282 71.5787C49.5282 71.7618 46.8133 72.9387 45.1448 73.4788C43.5889 73.9823 41.0323 74.4906 39.2377 74.6529L37.9622 74.7683L37.9144 73.2252C37.8683 71.7351 37.8511 71.6734 37.4117 71.4281C37.0026 71.1999 36.911 71.1999 36.5019 71.4281C36.0626 71.6734 36.0454 71.7351 35.9992 73.2252L35.9514 74.7683L34.6759 74.655C31.8093 74.4005 28.3256 73.4851 25.7167 72.301C25.0388 71.9934 24.4554 71.7128 24.4203 71.6777C24.3853 71.6427 24.6765 71.0235 25.0676 70.3018C25.7724 69.0014 25.776 68.9858 25.4859 68.543C24.8211 67.5285 24.1118 67.7578 23.2267 69.2735C22.8552 69.9095 22.4918 70.4299 22.4191 70.4299C22.015 70.4299 19.5734 68.4545 17.8336 66.72C16.1023 64.9941 14.1298 62.5552 14.1298 62.1405C14.1298 62.0679 14.6502 61.7045 15.2862 61.333C16.8019 60.4478 17.0311 59.7385 16.0167 59.0737C15.5739 58.7836 15.5583 58.7873 14.2578 59.4921C13.5361 59.8831 12.917 60.1744 12.8819 60.1393C12.8468 60.1043 12.5663 59.5209 12.2586 58.843C11.0746 56.2341 10.1592 52.7503 9.90464 49.8837L9.79133 48.6082L11.3345 48.5604C12.8245 48.5143 12.8862 48.4971 13.1315 48.0577C13.3598 47.6487 13.3598 47.557 13.1315 47.1479C12.8865 46.7094 12.8229 46.6914 11.3533 46.6454C9.59201 46.5905 9.71342 46.7877 10.0032 44.4557C10.2419 42.5346 10.5739 40.9818 11.0811 39.4149C11.621 37.7467 12.7979 35.0314 12.981 35.0314C13.0573 35.0314 13.58 35.3012 14.1427 35.631C15.2817 36.2987 15.8031 36.3729 16.2856 35.9362C16.9919 35.2971 16.6401 34.5995 15.2076 33.7984C14.6148 33.4669 14.1298 33.1128 14.1298 33.0116C14.1298 32.6491 16.4204 29.7943 17.8556 28.3682C19.1747 27.0572 20.9442 25.5962 22.0807 24.8797L22.5053 24.612L23.1528 25.7617C23.8961 27.0812 24.3333 27.4092 24.9654 27.1212C25.1949 27.0167 25.4657 26.749 25.567 26.5267C25.7266 26.1765 25.6579 25.9521 25.0558 24.855C24.6734 24.158 24.3846 23.5665 24.4142 23.5405C24.5808 23.3943 26.0089 22.7339 27.0724 22.3115C29.4481 21.3678 33.1694 20.5321 35.1786 20.4911L35.9643 20.4751V21.8811ZM36.2242 31.4868C35.9994 31.7117 35.9643 32.4253 35.9643 36.7853C35.9643 40.6742 35.9172 41.8374 35.7576 41.883C33.9114 42.4123 32.4627 43.5611 31.7131 45.0902C31.3066 45.9191 31.2514 46.219 31.2507 47.6028C31.2501 49.0768 31.285 49.2384 31.8123 50.2111C32.4594 51.4044 33.2676 52.194 34.511 52.8481C35.2888 53.2572 35.5591 53.3081 36.9568 53.3086C38.3665 53.3091 38.6267 53.2595 39.484 52.8254C40.0095 52.5594 40.7779 51.9802 41.1911 51.5382C42.2264 50.4316 42.6239 49.4656 42.7087 47.851C42.8068 45.9861 42.3787 44.8901 41.024 43.5371C40.1099 42.6244 39.4855 42.2643 38.1561 41.883C37.9964 41.8374 37.9493 40.6742 37.9493 36.7853C37.9493 31.2529 37.9447 31.2269 36.9568 31.2269C36.697 31.2269 36.3673 31.3439 36.2242 31.4868ZM38.5283 44.254C40.9329 45.4348 41.3758 48.6186 39.3793 50.3717C37.7324 51.8176 35.0997 51.4355 33.8662 49.5714C33.3407 48.7773 33.1664 47.3223 33.482 46.3655C34.1443 44.3589 36.6265 43.3203 38.5283 44.254Z" fill="url(#paint0_radial_1376_88)" fill-opacity="0.7"/>
<path fill-rule="evenodd" clip-rule="evenodd" d="M29.8196 0.190255C28.5512 0.650931 27.4604 1.92958 27.2737 3.17464C27.2156 3.5622 27.1941 5.10105 27.2261 6.5944C27.277 8.98098 27.3266 9.38972 27.6366 9.97131C27.8306 10.3352 28.1461 10.7747 28.3378 10.9481C28.821 11.3851 28.779 11.4888 28.0659 11.6205C26.8977 11.8362 23.0183 13.2101 21.3443 14.0009C17.3511 15.8876 14.0661 18.2143 10.8108 21.4621C6.82051 25.4427 4.12427 29.6312 2.15437 34.9089C0.615693 39.0311 0.00316691 42.6403 2.4054e-05 47.6028C-0.00262256 51.6242 0.212084 53.3625 1.16371 57.0264C4.49463 69.8499 14.6922 80.0487 27.5332 83.3984C31.077 84.3229 33.063 84.5656 37.0395 84.56C40.8702 84.5547 42.8353 84.3246 46.1085 83.4978C58.2237 80.4382 68.213 71.1258 72.1217 59.2471C76.0898 47.1886 73.6893 34.1061 65.6904 24.1968C63.3338 21.2775 59.3872 17.8519 56.0755 15.8516C53.2507 14.1453 48.8466 12.299 46.1786 11.7027C45.6554 11.5857 45.2275 11.4579 45.2275 11.4187C45.2275 11.3793 45.4792 11.0531 45.7869 10.6937C46.6267 9.7126 46.745 9.0488 46.6858 5.65353L46.6335 2.66566L46.133 1.85663C45.8231 1.35625 45.3236 0.856871 44.8229 0.547052L44.0135 0.046511L37.2182 0.00879673C31.9152 -0.0204814 30.2905 0.0192177 29.8196 0.190255ZM43.6256 2.29894C44.4977 2.7449 44.5582 2.98458 44.5622 6.00586C44.5652 8.34629 44.5202 8.88769 44.296 9.20759C43.7333 10.0112 43.3591 10.054 36.9208 10.0537C28.9027 10.0534 29.3541 10.2985 29.3503 5.9435L29.3478 3.23899L29.9102 2.67658L30.4726 2.11418H36.8685C41.2531 2.11418 43.3778 2.17224 43.6256 2.29894ZM42.7463 13.1122C53.9977 15.155 63.2121 22.0036 68.2314 32.054C69.8233 35.2418 70.7541 38.0864 71.4786 41.9788C71.8959 44.2208 71.8939 50.9753 71.4753 53.2269C70.7721 57.0082 69.772 60.0593 68.2251 63.1418C60.4227 78.6885 42.586 86.157 26.1223 80.7708C13.0511 76.4946 3.68808 64.9109 2.22599 51.207C0.548369 35.4832 9.96469 20.3533 24.8817 14.8047C26.843 14.075 30.0727 13.2637 32.2425 12.9555C34.5272 12.6308 40.5939 12.7215 42.7463 13.1122ZM33.4831 18.505C28.9493 19.0886 24.5199 20.7422 20.7463 23.2598C9.52849 30.7439 4.87442 44.8664 9.44 57.5686C9.91225 58.8824 11.42 61.9756 12.1124 63.0509C16.3 69.555 22.6259 74.1669 29.8138 75.9563C32.6347 76.6585 33.7789 76.7925 36.9568 76.7923C40.4424 76.7923 42.3427 76.5278 45.3319 75.6272C60.4851 71.0608 69.3185 55.3164 65.2582 40.1104C64.3853 36.8412 63.1857 34.1938 61.2989 31.3718C55.7683 23.1012 46.6242 18.2507 36.7416 18.3457C35.5407 18.3573 34.0745 18.4289 33.4831 18.505ZM35.9643 21.8811C35.9643 23.0666 36.0163 23.339 36.2952 23.6179C36.6927 24.0154 37.0868 24.0377 37.5816 23.6912C37.9157 23.4573 37.9493 23.2963 37.9493 21.9307V20.4274L39.314 20.5402C42.1989 20.7788 46.1267 21.828 48.3986 22.9668C48.9744 23.2555 49.4693 23.5129 49.4985 23.5388C49.5276 23.5646 49.2541 24.1467 48.8911 24.8324C48.1725 26.1884 48.156 26.6125 48.8047 27.0378C49.4937 27.4891 49.9462 27.2115 50.7444 25.848L51.4694 24.6094L52.9305 25.6437C54.8041 26.9702 57.5915 29.7584 58.9204 31.6355L59.9592 33.1027L58.7156 33.8234C57.3473 34.6164 57.0699 35.0652 57.5218 35.7549C57.9471 36.4037 58.3712 36.3871 59.7273 35.6686C60.4129 35.3055 60.995 35.0321 61.0208 35.0612C61.0468 35.0903 61.3042 35.5852 61.5928 36.161C62.7317 38.433 63.7809 42.3607 64.0194 45.2457L64.1322 46.6104H62.629C61.2633 46.6104 61.1024 46.6439 60.8685 46.9781C60.5219 47.4728 60.5443 47.867 60.9418 48.2645C61.2215 48.5442 61.4931 48.5953 62.7024 48.5953H64.1322L64.0194 49.96C63.8689 51.7794 63.347 54.3055 62.7552 56.0784C62.2854 57.4855 61.129 60.1742 60.9937 60.1742C60.9565 60.1742 60.3734 59.8709 59.6977 59.5C58.3597 58.7656 57.9775 58.7553 57.5281 59.4413C57.0711 60.1388 57.3402 60.5752 58.7072 61.353L59.9456 62.0575L59.6763 62.4806C58.9505 63.621 57.4575 65.4298 56.197 66.696C54.7894 68.1101 51.9037 70.4299 51.5524 70.4299C51.4488 70.4299 51.0927 69.9449 50.7612 69.352C49.9601 67.9196 49.2626 67.5677 48.6234 68.274C48.1867 68.7565 48.261 69.2779 48.9286 70.417C49.2584 70.9797 49.5282 71.5024 49.5282 71.5787C49.5282 71.7618 46.8133 72.9387 45.1448 73.4788C43.5889 73.9823 41.0323 74.4906 39.2377 74.6529L37.9622 74.7683L37.9144 73.2252C37.8683 71.7351 37.8511 71.6734 37.4117 71.4281C37.0026 71.1999 36.911 71.1999 36.5019 71.4281C36.0626 71.6734 36.0454 71.7351 35.9992 73.2252L35.9514 74.7683L34.6759 74.655C31.8093 74.4005 28.3256 73.4851 25.7167 72.301C25.0388 71.9934 24.4554 71.7128 24.4203 71.6777C24.3853 71.6427 24.6765 71.0235 25.0676 70.3018C25.7724 69.0014 25.776 68.9858 25.4859 68.543C24.8211 67.5285 24.1118 67.7578 23.2267 69.2735C22.8552 69.9095 22.4918 70.4299 22.4191 70.4299C22.015 70.4299 19.5734 68.4545 17.8336 66.72C16.1023 64.9941 14.1298 62.5552 14.1298 62.1405C14.1298 62.0679 14.6502 61.7045 15.2862 61.333C16.8019 60.4478 17.0311 59.7385 16.0167 59.0737C15.5739 58.7836 15.5583 58.7873 14.2578 59.4921C13.5361 59.8831 12.917 60.1744 12.8819 60.1393C12.8468 60.1043 12.5663 59.5209 12.2586 58.843C11.0746 56.2341 10.1592 52.7503 9.90464 49.8837L9.79133 48.6082L11.3345 48.5604C12.8245 48.5143 12.8862 48.4971 13.1315 48.0577C13.3598 47.6487 13.3598 47.557 13.1315 47.1479C12.8865 46.7094 12.8229 46.6914 11.3533 46.6454C9.59201 46.5905 9.71342 46.7877 10.0032 44.4557C10.2419 42.5346 10.5739 40.9818 11.0811 39.4149C11.621 37.7467 12.7979 35.0314 12.981 35.0314C13.0573 35.0314 13.58 35.3012 14.1427 35.631C15.2817 36.2987 15.8031 36.3729 16.2856 35.9362C16.9919 35.2971 16.6401 34.5995 15.2076 33.7984C14.6148 33.4669 14.1298 33.1128 14.1298 33.0116C14.1298 32.6491 16.4204 29.7943 17.8556 28.3682C19.1747 27.0572 20.9442 25.5962 22.0807 24.8797L22.5053 24.612L23.1528 25.7617C23.8961 27.0812 24.3333 27.4092 24.9654 27.1212C25.1949 27.0167 25.4657 26.749 25.567 26.5267C25.7266 26.1765 25.6579 25.9521 25.0558 24.855C24.6734 24.158 24.3846 23.5665 24.4142 23.5405C24.5808 23.3943 26.0089 22.7339 27.0724 22.3115C29.4481 21.3678 33.1694 20.5321 35.1786 20.4911L35.9643 20.4751V21.8811ZM36.2242 31.4868C35.9994 31.7117 35.9643 32.4253 35.9643 36.7853C35.9643 40.6742 35.9172 41.8374 35.7576 41.883C33.9114 42.4123 32.4627 43.5611 31.7131 45.0902C31.3066 45.9191 31.2514 46.219 31.2507 47.6028C31.2501 49.0768 31.285 49.2384 31.8123 50.2111C32.4594 51.4044 33.2676 52.194 34.511 52.8481C35.2888 53.2572 35.5591 53.3081 36.9568 53.3086C38.3665 53.3091 38.6267 53.2595 39.484 52.8254C40.0095 52.5594 40.7779 51.9802 41.1911 51.5382C42.2264 50.4316 42.6239 49.4656 42.7087 47.851C42.8068 45.9861 42.3787 44.8901 41.024 43.5371C40.1099 42.6244 39.4855 42.2643 38.1561 41.883C37.9964 41.8374 37.9493 40.6742 37.9493 36.7853C37.9493 31.2529 37.9447 31.2269 36.9568 31.2269C36.697 31.2269 36.3673 31.3439 36.2242 31.4868ZM38.5283 44.254C40.9329 45.4348 41.3758 48.6186 39.3793 50.3717C37.7324 51.8176 35.0997 51.4355 33.8662 49.5714C33.3407 48.7773 33.1664 47.3223 33.482 46.3655C34.1443 44.3589 36.6265 43.3203 38.5283 44.254Z" fill="url(#paint1_radial_1376_88)"/>
<defs>
<radialGradient id="paint0_radial_1376_88" cx="0" cy="0" r="1" gradientUnits="userSpaceOnUse" gradientTransform="translate(19.5278 17.6167) rotate(54.719) scale(67.6185 65.2103)">
<stop stop-color="white" stop-opacity="0.59"/>
<stop offset="0.697917" stop-color="white" stop-opacity="0"/>
<stop offset="1" stop-color="white" stop-opacity="0"/>
</radialGradient>
<radialGradient id="paint1_radial_1376_88" cx="0" cy="0" r="1" gradientUnits="userSpaceOnUse" gradientTransform="translate(63.863 73.9901) rotate(-93.2131) scale(72.3421 70.627)">
<stop stop-opacity="0.23"/>
<stop offset="0.861815" stop-opacity="0"/>
</radialGradient>
</defs>
</svg>
