<svg width="73" height="74" viewBox="0 0 73 74" fill="none" xmlns="http://www.w3.org/2000/svg">
<path fill-rule="evenodd" clip-rule="evenodd" d="M57.2685 5.27687L51.9849 10.591L52.0963 11.7839L52.2076 12.9769L51.693 12.6615C49.1195 11.084 47.2596 10.215 44.3387 9.22533C40.2893 7.85323 36.2442 7.2639 32.0427 7.43376C24.4318 7.74153 17.8192 10.0052 12.3692 14.1682C5.81541 19.1747 1.44297 27.0462 0.201381 36.0739C-0.097104 38.2445 -0.0565273 43.6021 0.275003 45.7931C1.78556 55.7767 6.98983 64.0635 14.8041 68.9282C20.3187 72.3612 27.8307 74.2889 34.4306 73.9647C39.6505 73.7083 44.2126 72.5959 48.4684 70.5419C58.0248 65.9294 64.2232 57.1602 65.9614 45.7931C66.3403 43.3161 66.338 38.063 65.9571 35.6111C65.1424 30.3657 63.2552 25.2836 60.7624 21.6216C60.5209 21.267 60.3234 20.9464 60.3234 20.9093C60.3234 20.8723 60.811 20.8771 61.4067 20.9198L62.49 20.9977L67.5513 15.9327C70.3351 13.1468 72.7184 10.6439 72.8476 10.3705C73.019 10.0081 73.0425 9.7676 72.9348 9.48281C72.6443 8.71592 72.331 8.64357 68.4695 8.45227C66.4829 8.35369 64.8154 8.22827 64.764 8.17334C64.7123 8.11827 64.5901 6.44194 64.4921 4.44796C64.2884 0.30126 64.2234 0.086049 63.1515 0.00690701C62.553 -0.037215 62.5438 -0.0290386 57.2685 5.27687ZM62.2579 8.05856C62.3437 9.68429 62.3944 9.93468 62.7002 10.2417C63.0677 10.6105 63.1532 10.623 67.1274 10.8852L68.9363 11.0046L65.2062 14.7384L61.4762 18.4723L58.3425 18.1755C56.6191 18.0123 55.1895 17.8591 55.1656 17.8351C55.0963 17.7656 54.6362 12.7253 54.639 12.0653C54.6413 11.4942 54.8048 11.2994 58.2894 7.71376L61.9373 3.96L62.0492 5.09113C62.1106 5.71315 62.2047 7.04854 62.2579 8.05856ZM38.3444 10.2303C41.6993 10.7917 45.409 12.0265 48.1812 13.5046C49.5575 14.2383 52.331 16.0167 52.331 16.1655C52.331 16.2134 50.9498 17.638 49.2614 19.331L46.1917 22.4092L45.611 22.0627C43.0499 20.534 40.5208 19.5291 37.7296 18.9308C35.5735 18.4686 31.362 18.4325 29.0456 18.8564C22.4182 20.0693 17.3499 23.4623 14.1953 28.7979C9.7598 36.2998 9.98497 46.3142 14.7506 53.5047C19.663 60.9166 28.9178 64.3352 38.4981 62.2766C41.2146 61.6929 43.6207 60.661 46.0171 59.0522C50.5434 56.0134 53.843 50.7332 54.8798 44.8695C55.9236 38.9678 54.5852 32.4437 51.3607 27.7163L50.6717 26.7061L53.7783 23.5906L56.885 20.4752L57.7974 21.7194C64.2066 30.4616 65.6411 42.6 61.4926 52.9879C57.4737 63.0513 49.0513 69.5226 37.7988 71.1931C35.3167 71.5615 30.7659 71.5608 28.3983 71.1917C21.2359 70.0749 15.6971 67.3753 11.1325 62.7764C8.30534 59.9281 6.29711 56.8554 4.75181 53.0138C3.10523 48.9207 2.46476 45.473 2.46476 40.7021C2.46476 35.9312 3.10523 32.4835 4.75181 28.3903C6.29711 24.5488 8.30534 21.4761 11.1325 18.6278C14.3293 15.4069 18.015 13.1181 22.3596 11.6557C24.8528 10.8167 27.0865 10.3623 30.8131 9.93653C31.9714 9.80416 36.9609 9.9987 38.3444 10.2303ZM44.3819 29.4743C35.655 38.2347 34.4675 39.3305 34.0998 38.9616C33.7299 38.5903 34.6806 37.55 43.4681 28.7106L52.7053 19.4191L53.1377 19.8348L53.57 20.2506L44.3819 29.4743ZM36.3463 21.1796C38.5503 21.5155 40.3714 22.0968 42.4558 23.1298C43.4915 23.6431 44.3387 24.1107 44.3387 24.1688C44.3387 24.2271 42.938 25.6764 41.2263 27.3893L38.1138 30.5036L36.8074 30.0983C35.6528 29.7401 35.2329 29.6918 33.1954 29.6827C30.5829 29.671 29.6046 29.864 27.816 30.7441C25.1962 32.0333 23.2243 34.5714 22.417 37.6938C22.0326 39.1805 22.0326 42.2237 22.417 43.7104C23.2243 46.8327 25.1962 49.3708 27.816 50.6601C29.5597 51.5182 30.587 51.7243 33.1186 51.7243C35.6536 51.7243 36.6163 51.5274 38.4932 50.6254C40.174 49.8176 42.0464 47.9032 42.918 46.1017C43.88 44.1128 44.0937 43.132 44.0937 40.7021C44.0937 38.4283 43.8934 37.3996 43.1154 35.6774L42.6844 34.7232L45.7954 31.6034L48.9066 28.4834L49.4748 29.386C50.6794 31.299 51.7187 33.8828 52.258 36.3053C52.3904 36.8993 52.5381 38.5307 52.5865 39.9307C52.6606 42.0798 52.6249 42.7646 52.3575 44.3275C50.9193 52.73 45.4272 58.4305 37.1723 60.0888C35.2924 60.4665 30.9774 60.4646 29.0649 60.0853C21.0805 58.5018 15.7421 53.1633 13.9543 44.9747C13.5574 43.1567 13.562 38.2277 13.9623 36.3906C15.7326 28.2651 21.2206 22.7731 28.9881 21.3543C31.385 20.9164 34.184 20.8499 36.3463 21.1796ZM35.0657 32.233C35.601 32.3265 36.0389 32.4446 36.0389 32.4955C36.0389 32.5465 35.1839 33.4593 34.1387 34.5239L32.2385 36.4596L31.5258 38.6196C30.7312 41.0279 30.6748 41.4889 31.1205 41.9363C31.5781 42.3956 32.2056 42.3237 34.5084 41.5484L36.5768 40.8522L38.6848 38.7405C39.8442 37.579 40.8231 36.6601 40.86 36.6984C41.1079 36.9556 41.5964 38.9941 41.6744 40.0977C41.9821 44.4454 39.2827 48.2701 35.3099 49.1151C33.213 49.5611 30.765 49.3094 29.0188 48.4682C27.7586 47.8611 26.0776 46.1555 25.4704 44.8675C24.9395 43.7419 24.5114 41.8821 24.5114 40.7021C24.5114 39.531 24.9384 37.6643 25.4567 36.5696C26.4227 34.5293 28.631 32.7811 30.8555 32.2959C32.0472 32.0361 33.7901 32.0099 35.0657 32.233Z" fill="#0066FF"/>
<path fill-rule="evenodd" clip-rule="evenodd" d="M57.2685 5.27687L51.9849 10.591L52.0963 11.7839L52.2076 12.9769L51.693 12.6615C49.1195 11.084 47.2596 10.215 44.3387 9.22533C40.2893 7.85323 36.2442 7.2639 32.0427 7.43376C24.4318 7.74153 17.8192 10.0052 12.3692 14.1682C5.81541 19.1747 1.44297 27.0462 0.201381 36.0739C-0.097104 38.2445 -0.0565273 43.6021 0.275003 45.7931C1.78556 55.7767 6.98983 64.0635 14.8041 68.9282C20.3187 72.3612 27.8307 74.2889 34.4306 73.9647C39.6505 73.7083 44.2126 72.5959 48.4684 70.5419C58.0248 65.9294 64.2232 57.1602 65.9614 45.7931C66.3403 43.3161 66.338 38.063 65.9571 35.6111C65.1424 30.3657 63.2552 25.2836 60.7624 21.6216C60.5209 21.267 60.3234 20.9464 60.3234 20.9093C60.3234 20.8723 60.811 20.8771 61.4067 20.9198L62.49 20.9977L67.5513 15.9327C70.3351 13.1468 72.7184 10.6439 72.8476 10.3705C73.019 10.0081 73.0425 9.7676 72.9348 9.48281C72.6443 8.71592 72.331 8.64357 68.4695 8.45227C66.4829 8.35369 64.8154 8.22827 64.764 8.17334C64.7123 8.11827 64.5901 6.44194 64.4921 4.44796C64.2884 0.30126 64.2234 0.086049 63.1515 0.00690701C62.553 -0.037215 62.5438 -0.0290386 57.2685 5.27687ZM62.2579 8.05856C62.3437 9.68429 62.3944 9.93468 62.7002 10.2417C63.0677 10.6105 63.1532 10.623 67.1274 10.8852L68.9363 11.0046L65.2062 14.7384L61.4762 18.4723L58.3425 18.1755C56.6191 18.0123 55.1895 17.8591 55.1656 17.8351C55.0963 17.7656 54.6362 12.7253 54.639 12.0653C54.6413 11.4942 54.8048 11.2994 58.2894 7.71376L61.9373 3.96L62.0492 5.09113C62.1106 5.71315 62.2047 7.04854 62.2579 8.05856ZM38.3444 10.2303C41.6993 10.7917 45.409 12.0265 48.1812 13.5046C49.5575 14.2383 52.331 16.0167 52.331 16.1655C52.331 16.2134 50.9498 17.638 49.2614 19.331L46.1917 22.4092L45.611 22.0627C43.0499 20.534 40.5208 19.5291 37.7296 18.9308C35.5735 18.4686 31.362 18.4325 29.0456 18.8564C22.4182 20.0693 17.3499 23.4623 14.1953 28.7979C9.7598 36.2998 9.98497 46.3142 14.7506 53.5047C19.663 60.9166 28.9178 64.3352 38.4981 62.2766C41.2146 61.6929 43.6207 60.661 46.0171 59.0522C50.5434 56.0134 53.843 50.7332 54.8798 44.8695C55.9236 38.9678 54.5852 32.4437 51.3607 27.7163L50.6717 26.7061L53.7783 23.5906L56.885 20.4752L57.7974 21.7194C64.2066 30.4616 65.6411 42.6 61.4926 52.9879C57.4737 63.0513 49.0513 69.5226 37.7988 71.1931C35.3167 71.5615 30.7659 71.5608 28.3983 71.1917C21.2359 70.0749 15.6971 67.3753 11.1325 62.7764C8.30534 59.9281 6.29711 56.8554 4.75181 53.0138C3.10523 48.9207 2.46476 45.473 2.46476 40.7021C2.46476 35.9312 3.10523 32.4835 4.75181 28.3903C6.29711 24.5488 8.30534 21.4761 11.1325 18.6278C14.3293 15.4069 18.015 13.1181 22.3596 11.6557C24.8528 10.8167 27.0865 10.3623 30.8131 9.93653C31.9714 9.80416 36.9609 9.9987 38.3444 10.2303ZM44.3819 29.4743C35.655 38.2347 34.4675 39.3305 34.0998 38.9616C33.7299 38.5903 34.6806 37.55 43.4681 28.7106L52.7053 19.4191L53.1377 19.8348L53.57 20.2506L44.3819 29.4743ZM36.3463 21.1796C38.5503 21.5155 40.3714 22.0968 42.4558 23.1298C43.4915 23.6431 44.3387 24.1107 44.3387 24.1688C44.3387 24.2271 42.938 25.6764 41.2263 27.3893L38.1138 30.5036L36.8074 30.0983C35.6528 29.7401 35.2329 29.6918 33.1954 29.6827C30.5829 29.671 29.6046 29.864 27.816 30.7441C25.1962 32.0333 23.2243 34.5714 22.417 37.6938C22.0326 39.1805 22.0326 42.2237 22.417 43.7104C23.2243 46.8327 25.1962 49.3708 27.816 50.6601C29.5597 51.5182 30.587 51.7243 33.1186 51.7243C35.6536 51.7243 36.6163 51.5274 38.4932 50.6254C40.174 49.8176 42.0464 47.9032 42.918 46.1017C43.88 44.1128 44.0937 43.132 44.0937 40.7021C44.0937 38.4283 43.8934 37.3996 43.1154 35.6774L42.6844 34.7232L45.7954 31.6034L48.9066 28.4834L49.4748 29.386C50.6794 31.299 51.7187 33.8828 52.258 36.3053C52.3904 36.8993 52.5381 38.5307 52.5865 39.9307C52.6606 42.0798 52.6249 42.7646 52.3575 44.3275C50.9193 52.73 45.4272 58.4305 37.1723 60.0888C35.2924 60.4665 30.9774 60.4646 29.0649 60.0853C21.0805 58.5018 15.7421 53.1633 13.9543 44.9747C13.5574 43.1567 13.562 38.2277 13.9623 36.3906C15.7326 28.2651 21.2206 22.7731 28.9881 21.3543C31.385 20.9164 34.184 20.8499 36.3463 21.1796ZM35.0657 32.233C35.601 32.3265 36.0389 32.4446 36.0389 32.4955C36.0389 32.5465 35.1839 33.4593 34.1387 34.5239L32.2385 36.4596L31.5258 38.6196C30.7312 41.0279 30.6748 41.4889 31.1205 41.9363C31.5781 42.3956 32.2056 42.3237 34.5084 41.5484L36.5768 40.8522L38.6848 38.7405C39.8442 37.579 40.8231 36.6601 40.86 36.6984C41.1079 36.9556 41.5964 38.9941 41.6744 40.0977C41.9821 44.4454 39.2827 48.2701 35.3099 49.1151C33.213 49.5611 30.765 49.3094 29.0188 48.4682C27.7586 47.8611 26.0776 46.1555 25.4704 44.8675C24.9395 43.7419 24.5114 41.8821 24.5114 40.7021C24.5114 39.531 24.9384 37.6643 25.4567 36.5696C26.4227 34.5293 28.631 32.7811 30.8555 32.2959C32.0472 32.0361 33.7901 32.0099 35.0657 32.233Z" fill="url(#paint0_radial_1129_161)" fill-opacity="0.7"/>
<path fill-rule="evenodd" clip-rule="evenodd" d="M57.2685 5.27687L51.9849 10.591L52.0963 11.7839L52.2076 12.9769L51.693 12.6615C49.1195 11.084 47.2596 10.215 44.3387 9.22533C40.2893 7.85323 36.2442 7.2639 32.0427 7.43376C24.4318 7.74153 17.8192 10.0052 12.3692 14.1682C5.81541 19.1747 1.44297 27.0462 0.201381 36.0739C-0.097104 38.2445 -0.0565273 43.6021 0.275003 45.7931C1.78556 55.7767 6.98983 64.0635 14.8041 68.9282C20.3187 72.3612 27.8307 74.2889 34.4306 73.9647C39.6505 73.7083 44.2126 72.5959 48.4684 70.5419C58.0248 65.9294 64.2232 57.1602 65.9614 45.7931C66.3403 43.3161 66.338 38.063 65.9571 35.6111C65.1424 30.3657 63.2552 25.2836 60.7624 21.6216C60.5209 21.267 60.3234 20.9464 60.3234 20.9093C60.3234 20.8723 60.811 20.8771 61.4067 20.9198L62.49 20.9977L67.5513 15.9327C70.3351 13.1468 72.7184 10.6439 72.8476 10.3705C73.019 10.0081 73.0425 9.7676 72.9348 9.48281C72.6443 8.71592 72.331 8.64357 68.4695 8.45227C66.4829 8.35369 64.8154 8.22827 64.764 8.17334C64.7123 8.11827 64.5901 6.44194 64.4921 4.44796C64.2884 0.30126 64.2234 0.086049 63.1515 0.00690701C62.553 -0.037215 62.5438 -0.0290386 57.2685 5.27687ZM62.2579 8.05856C62.3437 9.68429 62.3944 9.93468 62.7002 10.2417C63.0677 10.6105 63.1532 10.623 67.1274 10.8852L68.9363 11.0046L65.2062 14.7384L61.4762 18.4723L58.3425 18.1755C56.6191 18.0123 55.1895 17.8591 55.1656 17.8351C55.0963 17.7656 54.6362 12.7253 54.639 12.0653C54.6413 11.4942 54.8048 11.2994 58.2894 7.71376L61.9373 3.96L62.0492 5.09113C62.1106 5.71315 62.2047 7.04854 62.2579 8.05856ZM38.3444 10.2303C41.6993 10.7917 45.409 12.0265 48.1812 13.5046C49.5575 14.2383 52.331 16.0167 52.331 16.1655C52.331 16.2134 50.9498 17.638 49.2614 19.331L46.1917 22.4092L45.611 22.0627C43.0499 20.534 40.5208 19.5291 37.7296 18.9308C35.5735 18.4686 31.362 18.4325 29.0456 18.8564C22.4182 20.0693 17.3499 23.4623 14.1953 28.7979C9.7598 36.2998 9.98497 46.3142 14.7506 53.5047C19.663 60.9166 28.9178 64.3352 38.4981 62.2766C41.2146 61.6929 43.6207 60.661 46.0171 59.0522C50.5434 56.0134 53.843 50.7332 54.8798 44.8695C55.9236 38.9678 54.5852 32.4437 51.3607 27.7163L50.6717 26.7061L53.7783 23.5906L56.885 20.4752L57.7974 21.7194C64.2066 30.4616 65.6411 42.6 61.4926 52.9879C57.4737 63.0513 49.0513 69.5226 37.7988 71.1931C35.3167 71.5615 30.7659 71.5608 28.3983 71.1917C21.2359 70.0749 15.6971 67.3753 11.1325 62.7764C8.30534 59.9281 6.29711 56.8554 4.75181 53.0138C3.10523 48.9207 2.46476 45.473 2.46476 40.7021C2.46476 35.9312 3.10523 32.4835 4.75181 28.3903C6.29711 24.5488 8.30534 21.4761 11.1325 18.6278C14.3293 15.4069 18.015 13.1181 22.3596 11.6557C24.8528 10.8167 27.0865 10.3623 30.8131 9.93653C31.9714 9.80416 36.9609 9.9987 38.3444 10.2303ZM44.3819 29.4743C35.655 38.2347 34.4675 39.3305 34.0998 38.9616C33.7299 38.5903 34.6806 37.55 43.4681 28.7106L52.7053 19.4191L53.1377 19.8348L53.57 20.2506L44.3819 29.4743ZM36.3463 21.1796C38.5503 21.5155 40.3714 22.0968 42.4558 23.1298C43.4915 23.6431 44.3387 24.1107 44.3387 24.1688C44.3387 24.2271 42.938 25.6764 41.2263 27.3893L38.1138 30.5036L36.8074 30.0983C35.6528 29.7401 35.2329 29.6918 33.1954 29.6827C30.5829 29.671 29.6046 29.864 27.816 30.7441C25.1962 32.0333 23.2243 34.5714 22.417 37.6938C22.0326 39.1805 22.0326 42.2237 22.417 43.7104C23.2243 46.8327 25.1962 49.3708 27.816 50.6601C29.5597 51.5182 30.587 51.7243 33.1186 51.7243C35.6536 51.7243 36.6163 51.5274 38.4932 50.6254C40.174 49.8176 42.0464 47.9032 42.918 46.1017C43.88 44.1128 44.0937 43.132 44.0937 40.7021C44.0937 38.4283 43.8934 37.3996 43.1154 35.6774L42.6844 34.7232L45.7954 31.6034L48.9066 28.4834L49.4748 29.386C50.6794 31.299 51.7187 33.8828 52.258 36.3053C52.3904 36.8993 52.5381 38.5307 52.5865 39.9307C52.6606 42.0798 52.6249 42.7646 52.3575 44.3275C50.9193 52.73 45.4272 58.4305 37.1723 60.0888C35.2924 60.4665 30.9774 60.4646 29.0649 60.0853C21.0805 58.5018 15.7421 53.1633 13.9543 44.9747C13.5574 43.1567 13.562 38.2277 13.9623 36.3906C15.7326 28.2651 21.2206 22.7731 28.9881 21.3543C31.385 20.9164 34.184 20.8499 36.3463 21.1796ZM35.0657 32.233C35.601 32.3265 36.0389 32.4446 36.0389 32.4955C36.0389 32.5465 35.1839 33.4593 34.1387 34.5239L32.2385 36.4596L31.5258 38.6196C30.7312 41.0279 30.6748 41.4889 31.1205 41.9363C31.5781 42.3956 32.2056 42.3237 34.5084 41.5484L36.5768 40.8522L38.6848 38.7405C39.8442 37.579 40.8231 36.6601 40.86 36.6984C41.1079 36.9556 41.5964 38.9941 41.6744 40.0977C41.9821 44.4454 39.2827 48.2701 35.3099 49.1151C33.213 49.5611 30.765 49.3094 29.0188 48.4682C27.7586 47.8611 26.0776 46.1555 25.4704 44.8675C24.9395 43.7419 24.5114 41.8821 24.5114 40.7021C24.5114 39.531 24.9384 37.6643 25.4567 36.5696C26.4227 34.5293 28.631 32.7811 30.8555 32.2959C32.0472 32.0361 33.7901 32.0099 35.0657 32.233Z" fill="url(#paint1_radial_1129_161)"/>
<defs>
<radialGradient id="paint0_radial_1129_161" cx="0" cy="0" r="1" gradientUnits="userSpaceOnUse" gradientTransform="translate(19.2639 15.4167) rotate(51.4247) scale(61.7885 61.6072)">
<stop stop-color="white" stop-opacity="0.59"/>
<stop offset="0.697917" stop-color="white" stop-opacity="0"/>
<stop offset="1" stop-color="white" stop-opacity="0"/>
</radialGradient>
<radialGradient id="paint1_radial_1129_161" cx="0" cy="0" r="1" gradientUnits="userSpaceOnUse" gradientTransform="translate(63 64.75) rotate(-93.621) scale(63.3348 69.643)">
<stop stop-opacity="0.23"/>
<stop offset="0.861815" stop-opacity="0"/>
</radialGradient>
</defs>
</svg>
