<svg width="74" height="74" viewBox="0 0 74 74" fill="none" xmlns="http://www.w3.org/2000/svg">
<g id="free-icon-money-4256635 1 (Traced)">
<path fill-rule="evenodd" clip-rule="evenodd" d="M38.3887 0.302747C37.5487 0.625446 36.6279 1.46574 36.2239 2.27812C36.0239 2.68019 35.9547 3.14082 35.9547 4.06974V5.32034L37.6544 8.73861C38.5892 10.6187 39.3542 12.1786 39.3542 12.2049C39.3542 12.2312 38.6215 12.2808 37.7259 12.315C36.2609 12.3711 36.0188 12.4202 35.314 12.8031C34.2245 13.3952 33.6869 14.1782 33.3623 15.6458L33.2754 16.0388L25.3569 16.0796L17.4385 16.1205L16.7666 16.5152C15.4891 17.2658 14.8742 18.3081 14.867 19.735C14.8594 21.2123 15.6511 22.4523 17.0035 23.0818C17.6714 23.3926 17.9176 23.419 20.162 23.4203L22.5962 23.4217L23.019 23.8443C23.5586 24.3836 23.5845 25.0272 23.0867 25.5246L22.7317 25.8795L13.6478 25.8804C7.91153 25.8808 4.368 25.9356 4.0321 26.0289C3.08648 26.2913 2.15155 27.0391 1.71237 27.884C1.19363 28.882 1.15197 30.2345 1.61068 31.1817C1.98346 31.9514 3.05161 32.9118 3.7506 33.106C4.06928 33.1943 7.05906 33.2517 11.3775 33.2522C18.6986 33.253 19.2475 33.2924 19.5391 33.837C19.7933 34.3118 19.7046 35.0598 19.3552 35.387C19.0363 35.6857 18.9055 35.6928 12.8095 35.7375C6.62958 35.7829 6.58473 35.7853 5.90368 36.1206C5.0651 36.5334 4.16721 37.5224 3.93851 38.2854C3.36856 40.1864 4.18009 42.0421 5.93667 42.8548C6.55189 43.1394 6.87419 43.1591 11.5783 43.2C16.4353 43.2422 16.5759 43.2515 16.8945 43.5505C17.1038 43.7471 17.2215 44.0266 17.2215 44.3267C17.2215 45.6197 16.9982 45.6861 12.6359 45.69C9.47658 45.6927 8.97939 45.7247 8.46976 45.9567C7.03346 46.6111 6.23148 47.8368 6.22902 49.3813C6.22627 51.0301 7.3614 52.511 8.93166 52.9072C9.27507 52.9939 11.0502 53.0603 13.0247 53.0603H16.5114L16.8664 53.4152C17.3036 53.852 17.3393 54.6177 16.9454 55.1045C16.6847 55.4267 16.5534 55.4503 14.5947 55.5248C12.8449 55.5914 12.4264 55.6529 11.9209 55.9174C11.1108 56.3415 10.317 57.3038 10.0577 58.1766C9.78904 59.081 9.79034 59.3334 10.0691 60.2716C10.3519 61.2232 11.1342 62.1074 12.0862 62.5514C12.8075 62.8878 12.8266 62.8887 18.8461 62.8902L24.8825 62.8916L25.1955 63.5061C26.7355 66.5293 29.8099 69.4709 33.2062 71.1709C37.1941 73.1668 43.0073 74.165 49.5525 73.9777C64.595 73.5473 72.0579 67.512 73.8089 54.3615C74.0964 52.2015 74.0503 45.8468 73.7325 43.8366C72.7246 37.4634 70.1852 31.6285 66.2632 26.6747C64.9804 25.0543 62.1087 22.2477 60.4316 20.9754C58.9921 19.8834 58.8879 19.6699 59.7917 19.6648C60.7962 19.6593 62.059 18.7139 62.5933 17.5673C63.2464 16.1655 62.9031 14.4308 61.7576 13.3447C60.9808 12.6081 60.3038 12.3956 58.497 12.3207L56.8813 12.2537L58.6286 8.74121C60.5834 4.81186 60.7098 4.35412 60.2638 2.82072C59.8082 1.25436 58.1236 0 56.4755 0C56.2146 0 55.136 0.191566 54.0787 0.425639C49.4717 1.44578 46.5921 1.43031 41.8706 0.36C39.9852 -0.0675181 39.378 -0.077494 38.3887 0.302747ZM41.5473 2.80945C46.2011 3.90362 49.6966 3.92024 54.4399 2.87046C56.5502 2.40333 56.9097 2.41027 57.5067 2.92872C58.3023 3.61966 58.2318 3.88482 56.0868 8.28116L54.1314 12.2892H48.1898H42.2483L40.295 8.38656C38.2089 4.21909 38.088 3.83118 38.6508 3.11595C39.2367 2.37152 39.5458 2.33884 41.5473 2.80945ZM60.1251 15.225C60.5812 15.755 60.5789 16.3904 60.119 16.8499L59.764 17.2048H48.158H36.552L36.2171 16.8905C35.8819 16.5758 35.7758 15.9158 35.9764 15.3934C36.2196 14.76 36.3446 14.7538 48.3717 14.7875L59.7761 14.8193L60.1251 15.225ZM2.38879 16.2735C0.338995 17.0177 -0.604607 19.4711 0.411324 21.4147C0.8628 22.2785 1.75404 23.0416 2.57858 23.2705C2.87499 23.3527 4.54911 23.4198 6.2999 23.4195C9.32917 23.419 9.51723 23.4026 10.2067 23.0818C11.0071 22.7092 11.7869 21.9122 12.1269 21.119C12.4113 20.4554 12.4113 19.0145 12.1269 18.3509C11.8177 17.6297 11.0642 16.8117 10.3641 16.4373C9.80799 16.1399 9.56309 16.1186 6.37223 16.091C3.68898 16.0676 2.84967 16.106 2.38879 16.2735ZM9.48888 18.861C9.97203 19.3437 9.97203 20.1262 9.48888 20.6089C9.1362 20.9616 9.11508 20.9639 6.31335 20.9639C4.55417 20.9639 3.36002 20.9034 3.14014 20.8034C2.79166 20.6446 2.46647 20.1289 2.46647 19.735C2.46647 19.3617 2.7853 18.8263 3.09776 18.6752C3.27641 18.5887 4.61522 18.5215 6.27025 18.5159C9.12376 18.506 9.13519 18.5073 9.48888 18.861ZM34.8121 18.9333C35.0798 19.1682 35.5442 19.4241 35.8438 19.5019C36.1435 19.5797 36.6005 19.6965 36.8591 19.7614L37.3297 19.8795L36.0635 20.8141C34.3366 22.0888 30.6861 25.766 29.3128 27.6145C26.5115 31.3846 24.4907 35.5872 23.3691 39.9759C22.4707 43.4912 22.3569 44.5565 22.3573 49.4458C22.3578 54.2796 22.5259 55.776 23.4305 58.9965L23.8341 60.4338H18.5107H13.1873L12.7887 60.0911C12.2734 59.6481 12.2375 58.845 12.7117 58.3703C13.0062 58.0756 13.2085 58.042 15.0913 57.9754C17.003 57.9076 17.197 57.8743 17.8212 57.5082C18.5978 57.0527 19.1646 56.4276 19.4775 55.6813C19.7557 55.0182 19.7628 53.5364 19.4909 52.8861C19.1692 52.1165 18.3813 51.3133 17.5842 50.9423C16.8871 50.6179 16.7251 50.6052 13.2701 50.6039C9.62833 50.6024 9.27146 50.5563 8.8722 50.0367C8.56857 49.6414 8.6516 48.8895 9.04189 48.4995L9.39687 48.1446L12.9115 48.1437C14.857 48.1433 16.6635 48.0771 16.9578 47.9953C18.5768 47.5459 19.7081 46.0715 19.7001 44.4208C19.6933 43.0083 19.0818 41.9585 17.8002 41.1592C17.3107 40.8538 17.1233 40.8409 12.1338 40.7711L6.97357 40.6988L6.60064 40.3484C6.10968 39.887 6.08711 39.0739 6.5532 38.6363C6.8726 38.3363 6.99643 38.3298 13.099 38.2858C19.051 38.2429 19.3471 38.228 19.9716 37.9391C22.7981 36.6315 22.9632 32.8287 20.2594 31.3134L19.4637 30.8675L11.9204 30.7952C4.76132 30.7265 4.36149 30.7089 4.07275 30.4475C3.72876 30.1362 3.66308 29.2818 3.95384 28.9031C4.38261 28.3449 4.51338 28.3375 13.921 28.3342C22.4726 28.3313 23.1185 28.3135 23.6588 28.0674C25.4822 27.2367 26.3402 25.2805 25.6897 23.4376C25.3782 22.5555 24.8407 21.931 23.9849 21.457C23.2416 21.0454 23.1665 21.0346 20.5883 20.9639C18.1961 20.8982 17.9257 20.8648 17.6704 20.6024C17.1954 20.1142 17.2172 19.3647 17.7213 18.861L18.0763 18.506H26.2009H34.3253L34.8121 18.9333ZM54.8011 20.1539C56.9638 21.253 59.9777 23.5459 62.1698 25.7597C67.0468 30.6847 69.9928 36.469 71.2144 43.5181C71.6371 45.957 71.6694 52.0787 71.273 54.6368C70.5015 59.6175 69.0242 62.9766 66.4129 65.6873C62.7799 69.4592 57.5778 71.2578 49.5525 71.5169C42.7387 71.7368 36.9524 70.59 33.0801 68.2521C28.6606 65.5839 26.1223 61.4026 25.0867 55.0844C24.7252 52.8795 24.6517 46.9142 24.9565 44.5181C26.2166 34.6102 31.8929 25.9391 40.5393 20.7133L42.0303 19.8123L48.0746 19.8097L54.1188 19.8072L54.8011 20.1539ZM47.3627 32.4383C47.0194 32.7334 46.9565 32.912 46.9037 33.7395C46.863 34.3777 46.7822 34.6988 46.662 34.6988C46.5626 34.6988 46.0266 34.9261 45.4712 35.204C43.0458 36.4166 41.6037 39.1414 42.0676 41.6345C42.2598 42.6673 42.8073 43.9297 43.3445 44.579C44.4714 45.9405 45.8902 46.643 47.9429 46.8561C50.4074 47.1119 51.7962 48.4219 51.7938 50.4894C51.7927 51.601 51.5754 52.2172 50.9234 52.9575C50.1429 53.8437 49.336 54.2169 48.2003 54.2169C46.1991 54.2169 44.6978 52.8768 44.461 50.879C44.3448 49.8985 43.9177 49.388 43.2135 49.388C42.2042 49.388 41.8116 50.1791 42.0856 51.6609C42.4362 53.5566 43.7552 55.2936 45.4538 56.0967C45.9578 56.335 46.484 56.53 46.6232 56.53C46.8338 56.5302 46.8764 56.6648 46.8764 57.3326C46.8764 58.3212 47.1632 58.9085 47.7453 59.1113C48.6957 59.4424 49.3017 58.8597 49.3639 57.5548L49.4079 56.6332L50.0174 56.454C51.4792 56.0238 53.0916 54.5896 53.7916 53.0968C54.1442 52.3446 54.1816 52.1061 54.1816 50.6024C54.1816 49.0326 54.1558 48.8854 53.7197 47.9652C52.7241 45.8647 50.3934 44.3856 48.0795 44.3856C46.8376 44.3856 45.439 43.5132 44.8588 42.3767C43.6906 40.0877 45.2299 37.3205 47.8201 37.0533C49.8237 36.8467 51.4996 38.2427 51.798 40.3673C51.8973 41.0733 52.0103 41.35 52.3023 41.6024C52.8109 42.042 53.4484 42.023 53.9171 41.5546C54.2659 41.206 54.286 41.112 54.2228 40.1289C54.0712 37.7665 52.3706 35.6021 50.1051 34.8885L49.3355 34.646V33.7261C49.3355 32.9422 49.283 32.7537 48.9804 32.4513C48.5234 31.9945 47.8849 31.9894 47.3627 32.4383Z" fill="#0066FF"/>
<path fill-rule="evenodd" clip-rule="evenodd" d="M38.3887 0.302747C37.5487 0.625446 36.6279 1.46574 36.2239 2.27812C36.0239 2.68019 35.9547 3.14082 35.9547 4.06974V5.32034L37.6544 8.73861C38.5892 10.6187 39.3542 12.1786 39.3542 12.2049C39.3542 12.2312 38.6215 12.2808 37.7259 12.315C36.2609 12.3711 36.0188 12.4202 35.314 12.8031C34.2245 13.3952 33.6869 14.1782 33.3623 15.6458L33.2754 16.0388L25.3569 16.0796L17.4385 16.1205L16.7666 16.5152C15.4891 17.2658 14.8742 18.3081 14.867 19.735C14.8594 21.2123 15.6511 22.4523 17.0035 23.0818C17.6714 23.3926 17.9176 23.419 20.162 23.4203L22.5962 23.4217L23.019 23.8443C23.5586 24.3836 23.5845 25.0272 23.0867 25.5246L22.7317 25.8795L13.6478 25.8804C7.91153 25.8808 4.368 25.9356 4.0321 26.0289C3.08648 26.2913 2.15155 27.0391 1.71237 27.884C1.19363 28.882 1.15197 30.2345 1.61068 31.1817C1.98346 31.9514 3.05161 32.9118 3.7506 33.106C4.06928 33.1943 7.05906 33.2517 11.3775 33.2522C18.6986 33.253 19.2475 33.2924 19.5391 33.837C19.7933 34.3118 19.7046 35.0598 19.3552 35.387C19.0363 35.6857 18.9055 35.6928 12.8095 35.7375C6.62958 35.7829 6.58473 35.7853 5.90368 36.1206C5.0651 36.5334 4.16721 37.5224 3.93851 38.2854C3.36856 40.1864 4.18009 42.0421 5.93667 42.8548C6.55189 43.1394 6.87419 43.1591 11.5783 43.2C16.4353 43.2422 16.5759 43.2515 16.8945 43.5505C17.1038 43.7471 17.2215 44.0266 17.2215 44.3267C17.2215 45.6197 16.9982 45.6861 12.6359 45.69C9.47658 45.6927 8.97939 45.7247 8.46976 45.9567C7.03346 46.6111 6.23148 47.8368 6.22902 49.3813C6.22627 51.0301 7.3614 52.511 8.93166 52.9072C9.27507 52.9939 11.0502 53.0603 13.0247 53.0603H16.5114L16.8664 53.4152C17.3036 53.852 17.3393 54.6177 16.9454 55.1045C16.6847 55.4267 16.5534 55.4503 14.5947 55.5248C12.8449 55.5914 12.4264 55.6529 11.9209 55.9174C11.1108 56.3415 10.317 57.3038 10.0577 58.1766C9.78904 59.081 9.79034 59.3334 10.0691 60.2716C10.3519 61.2232 11.1342 62.1074 12.0862 62.5514C12.8075 62.8878 12.8266 62.8887 18.8461 62.8902L24.8825 62.8916L25.1955 63.5061C26.7355 66.5293 29.8099 69.4709 33.2062 71.1709C37.1941 73.1668 43.0073 74.165 49.5525 73.9777C64.595 73.5473 72.0579 67.512 73.8089 54.3615C74.0964 52.2015 74.0503 45.8468 73.7325 43.8366C72.7246 37.4634 70.1852 31.6285 66.2632 26.6747C64.9804 25.0543 62.1087 22.2477 60.4316 20.9754C58.9921 19.8834 58.8879 19.6699 59.7917 19.6648C60.7962 19.6593 62.059 18.7139 62.5933 17.5673C63.2464 16.1655 62.9031 14.4308 61.7576 13.3447C60.9808 12.6081 60.3038 12.3956 58.497 12.3207L56.8813 12.2537L58.6286 8.74121C60.5834 4.81186 60.7098 4.35412 60.2638 2.82072C59.8082 1.25436 58.1236 0 56.4755 0C56.2146 0 55.136 0.191566 54.0787 0.425639C49.4717 1.44578 46.5921 1.43031 41.8706 0.36C39.9852 -0.0675181 39.378 -0.077494 38.3887 0.302747ZM41.5473 2.80945C46.2011 3.90362 49.6966 3.92024 54.4399 2.87046C56.5502 2.40333 56.9097 2.41027 57.5067 2.92872C58.3023 3.61966 58.2318 3.88482 56.0868 8.28116L54.1314 12.2892H48.1898H42.2483L40.295 8.38656C38.2089 4.21909 38.088 3.83118 38.6508 3.11595C39.2367 2.37152 39.5458 2.33884 41.5473 2.80945ZM60.1251 15.225C60.5812 15.755 60.5789 16.3904 60.119 16.8499L59.764 17.2048H48.158H36.552L36.2171 16.8905C35.8819 16.5758 35.7758 15.9158 35.9764 15.3934C36.2196 14.76 36.3446 14.7538 48.3717 14.7875L59.7761 14.8193L60.1251 15.225ZM2.38879 16.2735C0.338995 17.0177 -0.604607 19.4711 0.411324 21.4147C0.8628 22.2785 1.75404 23.0416 2.57858 23.2705C2.87499 23.3527 4.54911 23.4198 6.2999 23.4195C9.32917 23.419 9.51723 23.4026 10.2067 23.0818C11.0071 22.7092 11.7869 21.9122 12.1269 21.119C12.4113 20.4554 12.4113 19.0145 12.1269 18.3509C11.8177 17.6297 11.0642 16.8117 10.3641 16.4373C9.80799 16.1399 9.56309 16.1186 6.37223 16.091C3.68898 16.0676 2.84967 16.106 2.38879 16.2735ZM9.48888 18.861C9.97203 19.3437 9.97203 20.1262 9.48888 20.6089C9.1362 20.9616 9.11508 20.9639 6.31335 20.9639C4.55417 20.9639 3.36002 20.9034 3.14014 20.8034C2.79166 20.6446 2.46647 20.1289 2.46647 19.735C2.46647 19.3617 2.7853 18.8263 3.09776 18.6752C3.27641 18.5887 4.61522 18.5215 6.27025 18.5159C9.12376 18.506 9.13519 18.5073 9.48888 18.861ZM34.8121 18.9333C35.0798 19.1682 35.5442 19.4241 35.8438 19.5019C36.1435 19.5797 36.6005 19.6965 36.8591 19.7614L37.3297 19.8795L36.0635 20.8141C34.3366 22.0888 30.6861 25.766 29.3128 27.6145C26.5115 31.3846 24.4907 35.5872 23.3691 39.9759C22.4707 43.4912 22.3569 44.5565 22.3573 49.4458C22.3578 54.2796 22.5259 55.776 23.4305 58.9965L23.8341 60.4338H18.5107H13.1873L12.7887 60.0911C12.2734 59.6481 12.2375 58.845 12.7117 58.3703C13.0062 58.0756 13.2085 58.042 15.0913 57.9754C17.003 57.9076 17.197 57.8743 17.8212 57.5082C18.5978 57.0527 19.1646 56.4276 19.4775 55.6813C19.7557 55.0182 19.7628 53.5364 19.4909 52.8861C19.1692 52.1165 18.3813 51.3133 17.5842 50.9423C16.8871 50.6179 16.7251 50.6052 13.2701 50.6039C9.62833 50.6024 9.27146 50.5563 8.8722 50.0367C8.56857 49.6414 8.6516 48.8895 9.04189 48.4995L9.39687 48.1446L12.9115 48.1437C14.857 48.1433 16.6635 48.0771 16.9578 47.9953C18.5768 47.5459 19.7081 46.0715 19.7001 44.4208C19.6933 43.0083 19.0818 41.9585 17.8002 41.1592C17.3107 40.8538 17.1233 40.8409 12.1338 40.7711L6.97357 40.6988L6.60064 40.3484C6.10968 39.887 6.08711 39.0739 6.5532 38.6363C6.8726 38.3363 6.99643 38.3298 13.099 38.2858C19.051 38.2429 19.3471 38.228 19.9716 37.9391C22.7981 36.6315 22.9632 32.8287 20.2594 31.3134L19.4637 30.8675L11.9204 30.7952C4.76132 30.7265 4.36149 30.7089 4.07275 30.4475C3.72876 30.1362 3.66308 29.2818 3.95384 28.9031C4.38261 28.3449 4.51338 28.3375 13.921 28.3342C22.4726 28.3313 23.1185 28.3135 23.6588 28.0674C25.4822 27.2367 26.3402 25.2805 25.6897 23.4376C25.3782 22.5555 24.8407 21.931 23.9849 21.457C23.2416 21.0454 23.1665 21.0346 20.5883 20.9639C18.1961 20.8982 17.9257 20.8648 17.6704 20.6024C17.1954 20.1142 17.2172 19.3647 17.7213 18.861L18.0763 18.506H26.2009H34.3253L34.8121 18.9333ZM54.8011 20.1539C56.9638 21.253 59.9777 23.5459 62.1698 25.7597C67.0468 30.6847 69.9928 36.469 71.2144 43.5181C71.6371 45.957 71.6694 52.0787 71.273 54.6368C70.5015 59.6175 69.0242 62.9766 66.4129 65.6873C62.7799 69.4592 57.5778 71.2578 49.5525 71.5169C42.7387 71.7368 36.9524 70.59 33.0801 68.2521C28.6606 65.5839 26.1223 61.4026 25.0867 55.0844C24.7252 52.8795 24.6517 46.9142 24.9565 44.5181C26.2166 34.6102 31.8929 25.9391 40.5393 20.7133L42.0303 19.8123L48.0746 19.8097L54.1188 19.8072L54.8011 20.1539ZM47.3627 32.4383C47.0194 32.7334 46.9565 32.912 46.9037 33.7395C46.863 34.3777 46.7822 34.6988 46.662 34.6988C46.5626 34.6988 46.0266 34.9261 45.4712 35.204C43.0458 36.4166 41.6037 39.1414 42.0676 41.6345C42.2598 42.6673 42.8073 43.9297 43.3445 44.579C44.4714 45.9405 45.8902 46.643 47.9429 46.8561C50.4074 47.1119 51.7962 48.4219 51.7938 50.4894C51.7927 51.601 51.5754 52.2172 50.9234 52.9575C50.1429 53.8437 49.336 54.2169 48.2003 54.2169C46.1991 54.2169 44.6978 52.8768 44.461 50.879C44.3448 49.8985 43.9177 49.388 43.2135 49.388C42.2042 49.388 41.8116 50.1791 42.0856 51.6609C42.4362 53.5566 43.7552 55.2936 45.4538 56.0967C45.9578 56.335 46.484 56.53 46.6232 56.53C46.8338 56.5302 46.8764 56.6648 46.8764 57.3326C46.8764 58.3212 47.1632 58.9085 47.7453 59.1113C48.6957 59.4424 49.3017 58.8597 49.3639 57.5548L49.4079 56.6332L50.0174 56.454C51.4792 56.0238 53.0916 54.5896 53.7916 53.0968C54.1442 52.3446 54.1816 52.1061 54.1816 50.6024C54.1816 49.0326 54.1558 48.8854 53.7197 47.9652C52.7241 45.8647 50.3934 44.3856 48.0795 44.3856C46.8376 44.3856 45.439 43.5132 44.8588 42.3767C43.6906 40.0877 45.2299 37.3205 47.8201 37.0533C49.8237 36.8467 51.4996 38.2427 51.798 40.3673C51.8973 41.0733 52.0103 41.35 52.3023 41.6024C52.8109 42.042 53.4484 42.023 53.9171 41.5546C54.2659 41.206 54.286 41.112 54.2228 40.1289C54.0712 37.7665 52.3706 35.6021 50.1051 34.8885L49.3355 34.646V33.7261C49.3355 32.9422 49.283 32.7537 48.9804 32.4513C48.5234 31.9945 47.8849 31.9894 47.3627 32.4383Z" fill="url(#paint0_radial_1129_164)" fill-opacity="0.7"/>
<path fill-rule="evenodd" clip-rule="evenodd" d="M38.3887 0.302747C37.5487 0.625446 36.6279 1.46574 36.2239 2.27812C36.0239 2.68019 35.9547 3.14082 35.9547 4.06974V5.32034L37.6544 8.73861C38.5892 10.6187 39.3542 12.1786 39.3542 12.2049C39.3542 12.2312 38.6215 12.2808 37.7259 12.315C36.2609 12.3711 36.0188 12.4202 35.314 12.8031C34.2245 13.3952 33.6869 14.1782 33.3623 15.6458L33.2754 16.0388L25.3569 16.0796L17.4385 16.1205L16.7666 16.5152C15.4891 17.2658 14.8742 18.3081 14.867 19.735C14.8594 21.2123 15.6511 22.4523 17.0035 23.0818C17.6714 23.3926 17.9176 23.419 20.162 23.4203L22.5962 23.4217L23.019 23.8443C23.5586 24.3836 23.5845 25.0272 23.0867 25.5246L22.7317 25.8795L13.6478 25.8804C7.91153 25.8808 4.368 25.9356 4.0321 26.0289C3.08648 26.2913 2.15155 27.0391 1.71237 27.884C1.19363 28.882 1.15197 30.2345 1.61068 31.1817C1.98346 31.9514 3.05161 32.9118 3.7506 33.106C4.06928 33.1943 7.05906 33.2517 11.3775 33.2522C18.6986 33.253 19.2475 33.2924 19.5391 33.837C19.7933 34.3118 19.7046 35.0598 19.3552 35.387C19.0363 35.6857 18.9055 35.6928 12.8095 35.7375C6.62958 35.7829 6.58473 35.7853 5.90368 36.1206C5.0651 36.5334 4.16721 37.5224 3.93851 38.2854C3.36856 40.1864 4.18009 42.0421 5.93667 42.8548C6.55189 43.1394 6.87419 43.1591 11.5783 43.2C16.4353 43.2422 16.5759 43.2515 16.8945 43.5505C17.1038 43.7471 17.2215 44.0266 17.2215 44.3267C17.2215 45.6197 16.9982 45.6861 12.6359 45.69C9.47658 45.6927 8.97939 45.7247 8.46976 45.9567C7.03346 46.6111 6.23148 47.8368 6.22902 49.3813C6.22627 51.0301 7.3614 52.511 8.93166 52.9072C9.27507 52.9939 11.0502 53.0603 13.0247 53.0603H16.5114L16.8664 53.4152C17.3036 53.852 17.3393 54.6177 16.9454 55.1045C16.6847 55.4267 16.5534 55.4503 14.5947 55.5248C12.8449 55.5914 12.4264 55.6529 11.9209 55.9174C11.1108 56.3415 10.317 57.3038 10.0577 58.1766C9.78904 59.081 9.79034 59.3334 10.0691 60.2716C10.3519 61.2232 11.1342 62.1074 12.0862 62.5514C12.8075 62.8878 12.8266 62.8887 18.8461 62.8902L24.8825 62.8916L25.1955 63.5061C26.7355 66.5293 29.8099 69.4709 33.2062 71.1709C37.1941 73.1668 43.0073 74.165 49.5525 73.9777C64.595 73.5473 72.0579 67.512 73.8089 54.3615C74.0964 52.2015 74.0503 45.8468 73.7325 43.8366C72.7246 37.4634 70.1852 31.6285 66.2632 26.6747C64.9804 25.0543 62.1087 22.2477 60.4316 20.9754C58.9921 19.8834 58.8879 19.6699 59.7917 19.6648C60.7962 19.6593 62.059 18.7139 62.5933 17.5673C63.2464 16.1655 62.9031 14.4308 61.7576 13.3447C60.9808 12.6081 60.3038 12.3956 58.497 12.3207L56.8813 12.2537L58.6286 8.74121C60.5834 4.81186 60.7098 4.35412 60.2638 2.82072C59.8082 1.25436 58.1236 0 56.4755 0C56.2146 0 55.136 0.191566 54.0787 0.425639C49.4717 1.44578 46.5921 1.43031 41.8706 0.36C39.9852 -0.0675181 39.378 -0.077494 38.3887 0.302747ZM41.5473 2.80945C46.2011 3.90362 49.6966 3.92024 54.4399 2.87046C56.5502 2.40333 56.9097 2.41027 57.5067 2.92872C58.3023 3.61966 58.2318 3.88482 56.0868 8.28116L54.1314 12.2892H48.1898H42.2483L40.295 8.38656C38.2089 4.21909 38.088 3.83118 38.6508 3.11595C39.2367 2.37152 39.5458 2.33884 41.5473 2.80945ZM60.1251 15.225C60.5812 15.755 60.5789 16.3904 60.119 16.8499L59.764 17.2048H48.158H36.552L36.2171 16.8905C35.8819 16.5758 35.7758 15.9158 35.9764 15.3934C36.2196 14.76 36.3446 14.7538 48.3717 14.7875L59.7761 14.8193L60.1251 15.225ZM2.38879 16.2735C0.338995 17.0177 -0.604607 19.4711 0.411324 21.4147C0.8628 22.2785 1.75404 23.0416 2.57858 23.2705C2.87499 23.3527 4.54911 23.4198 6.2999 23.4195C9.32917 23.419 9.51723 23.4026 10.2067 23.0818C11.0071 22.7092 11.7869 21.9122 12.1269 21.119C12.4113 20.4554 12.4113 19.0145 12.1269 18.3509C11.8177 17.6297 11.0642 16.8117 10.3641 16.4373C9.80799 16.1399 9.56309 16.1186 6.37223 16.091C3.68898 16.0676 2.84967 16.106 2.38879 16.2735ZM9.48888 18.861C9.97203 19.3437 9.97203 20.1262 9.48888 20.6089C9.1362 20.9616 9.11508 20.9639 6.31335 20.9639C4.55417 20.9639 3.36002 20.9034 3.14014 20.8034C2.79166 20.6446 2.46647 20.1289 2.46647 19.735C2.46647 19.3617 2.7853 18.8263 3.09776 18.6752C3.27641 18.5887 4.61522 18.5215 6.27025 18.5159C9.12376 18.506 9.13519 18.5073 9.48888 18.861ZM34.8121 18.9333C35.0798 19.1682 35.5442 19.4241 35.8438 19.5019C36.1435 19.5797 36.6005 19.6965 36.8591 19.7614L37.3297 19.8795L36.0635 20.8141C34.3366 22.0888 30.6861 25.766 29.3128 27.6145C26.5115 31.3846 24.4907 35.5872 23.3691 39.9759C22.4707 43.4912 22.3569 44.5565 22.3573 49.4458C22.3578 54.2796 22.5259 55.776 23.4305 58.9965L23.8341 60.4338H18.5107H13.1873L12.7887 60.0911C12.2734 59.6481 12.2375 58.845 12.7117 58.3703C13.0062 58.0756 13.2085 58.042 15.0913 57.9754C17.003 57.9076 17.197 57.8743 17.8212 57.5082C18.5978 57.0527 19.1646 56.4276 19.4775 55.6813C19.7557 55.0182 19.7628 53.5364 19.4909 52.8861C19.1692 52.1165 18.3813 51.3133 17.5842 50.9423C16.8871 50.6179 16.7251 50.6052 13.2701 50.6039C9.62833 50.6024 9.27146 50.5563 8.8722 50.0367C8.56857 49.6414 8.6516 48.8895 9.04189 48.4995L9.39687 48.1446L12.9115 48.1437C14.857 48.1433 16.6635 48.0771 16.9578 47.9953C18.5768 47.5459 19.7081 46.0715 19.7001 44.4208C19.6933 43.0083 19.0818 41.9585 17.8002 41.1592C17.3107 40.8538 17.1233 40.8409 12.1338 40.7711L6.97357 40.6988L6.60064 40.3484C6.10968 39.887 6.08711 39.0739 6.5532 38.6363C6.8726 38.3363 6.99643 38.3298 13.099 38.2858C19.051 38.2429 19.3471 38.228 19.9716 37.9391C22.7981 36.6315 22.9632 32.8287 20.2594 31.3134L19.4637 30.8675L11.9204 30.7952C4.76132 30.7265 4.36149 30.7089 4.07275 30.4475C3.72876 30.1362 3.66308 29.2818 3.95384 28.9031C4.38261 28.3449 4.51338 28.3375 13.921 28.3342C22.4726 28.3313 23.1185 28.3135 23.6588 28.0674C25.4822 27.2367 26.3402 25.2805 25.6897 23.4376C25.3782 22.5555 24.8407 21.931 23.9849 21.457C23.2416 21.0454 23.1665 21.0346 20.5883 20.9639C18.1961 20.8982 17.9257 20.8648 17.6704 20.6024C17.1954 20.1142 17.2172 19.3647 17.7213 18.861L18.0763 18.506H26.2009H34.3253L34.8121 18.9333ZM54.8011 20.1539C56.9638 21.253 59.9777 23.5459 62.1698 25.7597C67.0468 30.6847 69.9928 36.469 71.2144 43.5181C71.6371 45.957 71.6694 52.0787 71.273 54.6368C70.5015 59.6175 69.0242 62.9766 66.4129 65.6873C62.7799 69.4592 57.5778 71.2578 49.5525 71.5169C42.7387 71.7368 36.9524 70.59 33.0801 68.2521C28.6606 65.5839 26.1223 61.4026 25.0867 55.0844C24.7252 52.8795 24.6517 46.9142 24.9565 44.5181C26.2166 34.6102 31.8929 25.9391 40.5393 20.7133L42.0303 19.8123L48.0746 19.8097L54.1188 19.8072L54.8011 20.1539ZM47.3627 32.4383C47.0194 32.7334 46.9565 32.912 46.9037 33.7395C46.863 34.3777 46.7822 34.6988 46.662 34.6988C46.5626 34.6988 46.0266 34.9261 45.4712 35.204C43.0458 36.4166 41.6037 39.1414 42.0676 41.6345C42.2598 42.6673 42.8073 43.9297 43.3445 44.579C44.4714 45.9405 45.8902 46.643 47.9429 46.8561C50.4074 47.1119 51.7962 48.4219 51.7938 50.4894C51.7927 51.601 51.5754 52.2172 50.9234 52.9575C50.1429 53.8437 49.336 54.2169 48.2003 54.2169C46.1991 54.2169 44.6978 52.8768 44.461 50.879C44.3448 49.8985 43.9177 49.388 43.2135 49.388C42.2042 49.388 41.8116 50.1791 42.0856 51.6609C42.4362 53.5566 43.7552 55.2936 45.4538 56.0967C45.9578 56.335 46.484 56.53 46.6232 56.53C46.8338 56.5302 46.8764 56.6648 46.8764 57.3326C46.8764 58.3212 47.1632 58.9085 47.7453 59.1113C48.6957 59.4424 49.3017 58.8597 49.3639 57.5548L49.4079 56.6332L50.0174 56.454C51.4792 56.0238 53.0916 54.5896 53.7916 53.0968C54.1442 52.3446 54.1816 52.1061 54.1816 50.6024C54.1816 49.0326 54.1558 48.8854 53.7197 47.9652C52.7241 45.8647 50.3934 44.3856 48.0795 44.3856C46.8376 44.3856 45.439 43.5132 44.8588 42.3767C43.6906 40.0877 45.2299 37.3205 47.8201 37.0533C49.8237 36.8467 51.4996 38.2427 51.798 40.3673C51.8973 41.0733 52.0103 41.35 52.3023 41.6024C52.8109 42.042 53.4484 42.023 53.9171 41.5546C54.2659 41.206 54.286 41.112 54.2228 40.1289C54.0712 37.7665 52.3706 35.6021 50.1051 34.8885L49.3355 34.646V33.7261C49.3355 32.9422 49.283 32.7537 48.9804 32.4513C48.5234 31.9945 47.8849 31.9894 47.3627 32.4383Z" fill="url(#paint1_radial_1129_164)"/>
</g>
<defs>
<radialGradient id="paint0_radial_1129_164" cx="0" cy="0" r="1" gradientUnits="userSpaceOnUse" gradientTransform="translate(19.5278 15.4167) rotate(51.0441) scale(62.1189)">
<stop stop-color="white" stop-opacity="0.59"/>
<stop offset="0.697917" stop-color="white" stop-opacity="0"/>
<stop offset="1" stop-color="white" stop-opacity="0"/>
</radialGradient>
<radialGradient id="paint1_radial_1129_164" cx="0" cy="0" r="1" gradientUnits="userSpaceOnUse" gradientTransform="translate(63.863 64.75) rotate(-93.6705) scale(63.3383 70.5931)">
<stop stop-opacity="0.23"/>
<stop offset="0.861815" stop-opacity="0"/>
</radialGradient>
</defs>
</svg>
