<svg width="74" height="74" viewBox="0 0 74 74" fill="none" xmlns="http://www.w3.org/2000/svg">
<path fill-rule="evenodd" clip-rule="evenodd" d="M11.6493 0.145209C8.90177 0.695269 6.67698 2.77879 5.86186 5.56534C5.48817 6.84212 5.48196 11.4174 5.85204 12.6328C6.17517 13.6939 6.57225 14.4915 7.13055 15.2009C7.59654 15.7933 7.62759 15.7552 6.45684 16.028C4.22641 16.5479 2.04062 18.3094 0.986004 20.4373C0.118736 22.1869 0.10877 22.2578 0.0518569 27.0637C0.0226784 29.5166 0.0381344 31.6796 0.0859468 31.8704C0.317497 32.793 1.44954 33.1059 2.12223 32.433L2.47686 32.0785V27.9623C2.47686 25.5057 2.54142 23.5375 2.63705 23.0806C3.10578 20.8402 5.03792 18.8638 7.26026 18.3515C7.62485 18.2674 10.1712 18.204 13.2592 18.2018C19.3546 18.1979 19.7585 18.2553 21.2758 19.3418C22.1704 19.9824 22.6345 20.5352 23.166 21.5929C23.8208 22.8961 23.8295 22.8626 22.7613 23.1685C21.0416 23.661 19.1179 25.2392 18.3214 26.8111C17.628 28.1793 17.504 28.9135 17.4826 31.7765C17.4567 35.2368 17.6803 36.1992 18.8992 37.8745L19.3946 38.5558L18.9887 38.6457C17.3887 39.0004 16.4314 39.446 15.1357 40.4391C14.1961 41.1591 14.1782 41.1656 13.1293 41.1656C10.2246 41.1656 7.66948 42.7706 6.37537 45.4079C5.66743 46.8506 5.5302 47.7918 5.58264 50.8437C5.62814 53.4893 5.87775 54.481 6.87083 55.9621C7.55393 56.9807 7.5701 56.927 6.52141 57.1325C5.6293 57.3075 4.01899 58.139 3.11806 58.8902C2.02603 59.8006 1.00146 61.2824 0.489391 62.6918C0.0976471 63.7699 0.0969248 63.78 0.0485346 68.4307L0 73.0897L0.432912 73.5225C0.894569 73.9842 1.23879 74.0526 1.80416 73.7951C2.42875 73.5104 2.47686 73.1659 2.47686 68.9722C2.47686 66.6127 2.542 64.7047 2.63806 64.2483C3.0324 62.3757 4.29069 60.7762 6.04386 59.9191L7.02698 59.4384L12.864 59.396C18.0513 59.3583 18.7885 59.3813 19.4884 59.6014C21.2379 60.1516 22.7116 61.5175 23.4427 63.2662C23.759 64.0229 23.7785 64.2795 23.8512 68.6598L23.9274 73.2587L24.3328 73.6071C24.847 74.049 25.319 74.049 25.8333 73.6071L26.2386 73.2587L26.3149 68.6598C26.3875 64.2795 26.407 64.0229 26.7234 63.2662C27.4544 61.5175 28.9281 60.1516 30.6776 59.6014C31.3775 59.3813 32.1148 59.3583 37.302 59.396L43.1391 59.4384L44.1222 59.9191C45.8168 60.7476 47.1257 62.3696 47.5361 64.1495C47.6164 64.4979 47.6837 66.6567 47.6857 68.947L47.6892 73.111L48.1114 73.5332C48.6278 74.0496 49.125 74.0731 49.6673 73.6071L50.0726 73.2587L50.1486 68.6598C50.2191 64.3851 50.2464 64.0065 50.5354 63.2931C51.2319 61.5736 52.7641 60.1511 54.5116 59.6014C55.2115 59.3813 55.9487 59.3583 61.136 59.396L66.973 59.4384L67.944 59.9133C69.6928 60.7686 70.9643 62.3818 71.3606 64.2483C71.4584 64.7091 71.5232 66.5894 71.5232 68.9722C71.5232 73.1659 71.5713 73.5104 72.1959 73.7951C72.7612 74.0526 73.1054 73.9842 73.5671 73.5225L74 73.0897L73.9515 68.4307C73.9031 63.78 73.9024 63.7699 73.5106 62.6918C72.7747 60.666 71.2577 58.8652 69.5098 57.9419C67.8318 57.0557 67.5599 57.0083 63.5785 56.9083C60.2335 56.8243 59.8188 56.786 59.0649 56.4919C57.9099 56.0411 56.7969 54.9879 56.2701 53.8469C55.8535 52.9447 55.8505 52.9184 55.8505 50.1937C55.8505 47.5293 55.8616 47.4259 56.2297 46.6547C56.7922 45.4764 57.5319 44.7116 58.6342 44.169C59.5107 43.7375 59.7207 43.6935 60.9032 43.6942C62.4745 43.6951 63.1977 43.9757 64.3104 45.0165C65.6483 46.268 66.0311 47.4994 66.033 50.5587C66.0343 52.4593 66.1676 52.7966 66.9778 52.9486C67.324 53.0136 67.5878 52.9721 67.8274 52.8151C68.4129 52.4315 68.5402 51.7348 68.4499 49.4061C68.3619 47.1389 68.113 46.1439 67.2765 44.7165C66.023 42.5775 63.4723 41.1737 60.8282 41.1678C57.3308 41.1599 54.1024 43.8512 53.4781 47.2952C53.2533 48.535 53.2871 52.1691 53.5343 53.3356C53.7647 54.4225 54.2853 55.5619 54.9107 56.348L55.3252 56.8689L54.5045 57.0464C52.5855 57.4616 50.5082 58.8262 49.2543 60.4954L48.8943 60.9747L48.2865 60.1696C47.3005 58.8637 45.9263 57.8985 44.1502 57.2644C43.5585 57.0531 42.7493 56.9904 39.6723 56.9172L35.9166 56.8279L34.9777 56.386C33.8302 55.8462 32.8897 54.9337 32.3912 53.8771C32.0269 53.1046 32.0165 53.0028 32.0165 50.1937V47.3047L32.4401 46.4683C32.9345 45.4917 33.7732 44.67 34.8564 44.1004C35.5447 43.7386 35.7757 43.6949 37 43.6949C38.2243 43.6949 38.4553 43.7386 39.1436 44.1004C40.2291 44.6713 41.0669 45.4933 41.5562 46.4683C41.9591 47.2708 41.9791 47.4064 42.0519 49.8094L42.1279 52.314L42.5332 52.6623C42.7561 52.8537 43.0681 53.0104 43.2265 53.0104C43.6287 53.0104 44.3141 52.6338 44.4216 52.3539C44.6048 51.8766 44.5122 47.6096 44.3014 46.8181C43.8518 45.1282 42.5374 43.2544 41.2391 42.4521L40.7333 42.1394L41.1418 41.8672C41.3664 41.7174 41.9633 41.4658 42.4681 41.3081C43.2581 41.0612 43.8022 41.0209 46.3682 41.0187C49.7415 41.0159 50.8361 40.8532 52.2915 40.1385C53.4752 39.5572 54.8811 38.1834 55.4531 37.0489C56.2509 35.4669 56.3561 34.8704 56.3561 31.9251C56.3561 28.0269 56.0062 26.9512 54.1196 25.0485C53.0482 23.9681 52.0561 23.3841 50.7766 23.0809C50.0537 22.9094 50.0324 22.8895 49.8812 22.2337C49.2056 19.3069 46.6044 16.7001 43.682 16.0212C43.304 15.9334 42.9134 15.8368 42.8142 15.8067C42.6949 15.7705 42.8275 15.4523 43.2067 14.8656C44.2998 13.1744 44.416 12.6923 44.4803 9.5813C44.5454 6.43203 44.4442 5.72481 43.7091 4.19077C42.2407 1.12702 38.6453 -0.573132 35.3013 0.215411C33.2442 0.700324 31.1772 2.30096 30.3178 4.07406C29.5712 5.61503 29.4573 6.39014 29.5196 9.51268C29.5835 12.7111 29.726 13.3073 30.8107 14.9155C31.186 15.4716 31.3119 15.7667 31.1893 15.8015C31.0882 15.8304 30.5829 15.9637 30.0665 16.0979C28.7298 16.4452 27.7539 17.0109 27.5181 17.5752C27.0193 18.7688 28.3516 19.6626 29.5439 18.9343C30.6563 18.2548 31.2299 18.1984 37.011 18.1984C42.0753 18.1984 42.5253 18.219 43.4069 18.4913C45.2441 19.0587 46.881 20.7212 47.4063 22.5532C47.5069 22.9036 47.4754 22.9459 47.0555 23.0248C45.3354 23.3475 43.0798 25.1225 42.2165 26.833C41.4734 28.3048 41.3332 29.1023 41.3356 31.843C41.3385 35.1303 41.7037 36.5989 42.8601 37.9733C43.073 38.2263 43.2165 38.464 43.1789 38.5017C43.1414 38.5393 42.7269 38.6696 42.2581 38.7912C41.0252 39.1113 40.0945 39.5735 38.9785 40.4201C38.0002 41.1623 37.9911 41.1656 36.9256 41.1656C33.5883 41.1656 30.576 43.5216 29.6986 46.8181C29.4066 47.9147 29.4104 52.5048 29.7042 53.6325C29.9576 54.6055 30.4802 55.6823 30.9975 56.2969C31.2004 56.5381 31.3665 56.7684 31.3665 56.8087C31.3665 56.8488 31.0253 56.9614 30.6082 57.0586C28.7179 57.4996 26.815 58.7109 25.707 60.1782L25.0927 60.9919L24.7348 60.504C24.07 59.5981 22.7544 58.4245 21.8939 57.9696C20.1747 57.061 19.9144 57.0152 15.8383 56.9044C11.6966 56.7918 11.3273 56.7226 10.1085 55.8299C9.34436 55.2703 8.63628 54.3164 8.3117 53.4092C8.01197 52.5711 7.88442 49.4662 8.09488 48.1246C8.38725 46.2599 9.37932 44.8793 10.9983 44.0842C11.684 43.7474 11.9733 43.6935 13.0938 43.6935C14.2009 43.6935 14.516 43.7507 15.2166 44.0792C16.2683 44.5722 17.2736 45.5785 17.7606 46.6264C18.1156 47.3898 18.1465 47.6157 18.1892 49.7603C18.2145 51.0315 18.3043 52.2106 18.3887 52.3806C18.5583 52.7217 19.086 53.0104 19.5397 53.0104C19.7009 53.0104 20.0228 52.8205 20.2551 52.5882L20.6773 52.166V50.0674C20.6773 48.9133 20.6044 47.6245 20.5154 47.2034C20.1464 45.4589 18.9864 43.6331 17.6266 42.6562L16.9036 42.1366L17.3098 41.8658C18.3081 41.2003 19.3834 41.0212 22.3898 41.02C25.8896 41.0187 26.7741 40.8896 28.2609 40.1626C30.0711 39.2776 31.4184 37.7843 32.1178 35.8876C32.392 35.1442 32.443 34.6617 32.4911 32.3543C32.5545 29.3024 32.3941 28.2813 31.6197 26.8079C30.7083 25.0738 28.4065 23.2864 26.742 23.0203C26.2395 22.9399 26.1995 22.8935 26.0413 22.2082C25.6033 20.3112 24.2657 18.4225 22.518 17.2339C21.5059 16.5454 20.502 16.1367 19.0559 15.8241L18.6623 15.739L19.2376 14.9825C20.4058 13.4466 20.7406 11.8767 20.6414 8.4026C20.5856 6.45009 20.5159 5.83618 20.274 5.16883C18.9532 1.52512 15.3219 -0.590033 11.6493 0.145209ZM59.1399 0.195622C56.3084 0.918297 53.9757 3.36178 53.4772 6.12739C53.2889 7.17175 53.2753 10.7509 53.4554 11.8426C53.6487 13.0135 54.1125 14.1281 54.7624 14.9825L55.3377 15.739L54.9441 15.8225C53.8355 16.0576 52.4915 16.561 52.2032 16.8492C51.7506 17.3016 51.7644 18.0977 52.2328 18.566C52.6715 19.0048 53.0297 19.0106 54.0449 18.5959C54.8134 18.2819 55.0211 18.2697 60.3756 18.2268C63.9801 18.1979 66.1726 18.2374 66.6591 18.3396C68.9055 18.8118 70.8879 20.81 71.363 23.0806C71.4586 23.5375 71.5232 25.5057 71.5232 27.9623V32.0785L71.8778 32.433C72.5505 33.1059 73.6825 32.793 73.9141 31.8704C73.9619 31.6796 73.976 29.5166 73.9454 27.0637C73.8853 22.2472 73.8719 22.1548 72.9689 20.3582C71.9272 18.2852 69.7407 16.5402 67.5432 16.028C66.3724 15.7552 66.4035 15.7933 66.8695 15.2009C67.4298 14.4891 67.8264 13.6906 68.1455 12.6328C68.5146 11.4087 68.5104 6.831 68.139 5.56534C67.7698 4.30734 67.3009 3.46521 66.4533 2.53771C65.5037 1.49869 64.7079 0.950653 63.4716 0.484374C62.278 0.034273 60.2914 -0.0981861 59.1399 0.195622ZM14.9716 2.82054C16.5035 3.4694 17.6122 4.75181 18.0156 6.3419C18.3373 7.60943 18.2432 11.4353 17.8651 12.4667C17.4918 13.4849 16.2702 14.7385 15.1568 15.2461C14.4047 15.589 14.0512 15.6607 13.0908 15.6652C12.0674 15.6699 11.8199 15.6152 10.9696 15.1966C9.7936 14.6176 8.83157 13.5977 8.37901 12.4496C8.08607 11.7066 8.05429 11.3784 8.05429 9.09812C8.05429 6.81785 8.08607 6.48967 8.37901 5.74663C8.95146 4.29449 10.1706 3.18772 11.7938 2.64662C12.529 2.40164 14.198 2.49293 14.9716 2.82054ZM39.2514 3.02666C40.3059 3.54567 41.0759 4.34577 41.6029 5.46957C41.9732 6.25971 41.9835 6.35678 41.9835 9.09812C41.9835 11.8488 41.9744 11.9342 41.5978 12.7376C40.8745 14.2805 39.5182 15.2986 37.7469 15.6279C36.0946 15.9353 33.9527 15.0742 32.9598 13.7036C32.0531 12.4518 31.9174 11.7821 31.9696 8.8111L32.0165 6.13693L32.512 5.22315C33.8637 2.72997 36.7427 1.79163 39.2514 3.02666ZM62.977 2.96007C64.1062 3.4668 65.1596 4.57544 65.6187 5.74013C65.9145 6.49082 65.9457 6.81237 65.9457 9.09812C65.9457 11.3784 65.9139 11.7066 65.621 12.4496C65.1684 13.5977 64.2064 14.6176 63.0305 15.1966C62.1801 15.6152 61.9327 15.6699 60.9092 15.6652C59.3457 15.6579 58.2475 15.1691 57.163 13.9978C56.0549 12.8009 55.8921 12.2503 55.814 9.43786C55.7617 7.55367 55.7953 6.94295 55.9892 6.26C56.5166 4.40181 57.9583 3.0297 59.8951 2.54262C60.6099 2.36292 62.0941 2.56385 62.977 2.96007ZM27.2298 25.8336C28.3149 26.3676 29.0824 27.1594 29.6136 28.2924C29.9843 29.0828 29.9943 29.1782 29.993 31.921C29.9914 35.1926 29.8937 35.5462 28.6206 36.8924C26.0007 39.6625 21.414 38.6644 20.1897 35.0576C20.0085 34.5241 19.9551 33.7924 19.9551 31.8492C19.9551 29.6634 19.9942 29.2273 20.2518 28.5388C20.7764 27.1364 22.28 25.8015 23.783 25.4037C24.0213 25.3406 24.6856 25.3087 25.2592 25.333C26.08 25.3675 26.4998 25.4741 27.2298 25.8336ZM50.9739 25.7767C52.0184 26.2454 53.0385 27.2504 53.5133 28.2784C53.7928 28.8834 53.8334 29.253 53.8755 31.5751C53.9279 34.4674 53.8544 34.924 53.1462 36.1049C51.8681 38.2361 49.0571 39.0914 46.8075 38.0337C45.6805 37.5039 44.7973 36.6438 44.263 35.5559C43.8653 34.7461 43.8613 34.7091 43.8613 31.921C43.8613 29.1889 43.8726 29.0801 44.237 28.3031C45.4706 25.673 48.3428 24.5958 50.9739 25.7767Z" fill="#0066FF"/>
<path fill-rule="evenodd" clip-rule="evenodd" d="M11.6493 0.145209C8.90177 0.695269 6.67698 2.77879 5.86186 5.56534C5.48817 6.84212 5.48196 11.4174 5.85204 12.6328C6.17517 13.6939 6.57225 14.4915 7.13055 15.2009C7.59654 15.7933 7.62759 15.7552 6.45684 16.028C4.22641 16.5479 2.04062 18.3094 0.986004 20.4373C0.118736 22.1869 0.10877 22.2578 0.0518569 27.0637C0.0226784 29.5166 0.0381344 31.6796 0.0859468 31.8704C0.317497 32.793 1.44954 33.1059 2.12223 32.433L2.47686 32.0785V27.9623C2.47686 25.5057 2.54142 23.5375 2.63705 23.0806C3.10578 20.8402 5.03792 18.8638 7.26026 18.3515C7.62485 18.2674 10.1712 18.204 13.2592 18.2018C19.3546 18.1979 19.7585 18.2553 21.2758 19.3418C22.1704 19.9824 22.6345 20.5352 23.166 21.5929C23.8208 22.8961 23.8295 22.8626 22.7613 23.1685C21.0416 23.661 19.1179 25.2392 18.3214 26.8111C17.628 28.1793 17.504 28.9135 17.4826 31.7765C17.4567 35.2368 17.6803 36.1992 18.8992 37.8745L19.3946 38.5558L18.9887 38.6457C17.3887 39.0004 16.4314 39.446 15.1357 40.4391C14.1961 41.1591 14.1782 41.1656 13.1293 41.1656C10.2246 41.1656 7.66948 42.7706 6.37537 45.4079C5.66743 46.8506 5.5302 47.7918 5.58264 50.8437C5.62814 53.4893 5.87775 54.481 6.87083 55.9621C7.55393 56.9807 7.5701 56.927 6.52141 57.1325C5.6293 57.3075 4.01899 58.139 3.11806 58.8902C2.02603 59.8006 1.00146 61.2824 0.489391 62.6918C0.0976471 63.7699 0.0969248 63.78 0.0485346 68.4307L0 73.0897L0.432912 73.5225C0.894569 73.9842 1.23879 74.0526 1.80416 73.7951C2.42875 73.5104 2.47686 73.1659 2.47686 68.9722C2.47686 66.6127 2.542 64.7047 2.63806 64.2483C3.0324 62.3757 4.29069 60.7762 6.04386 59.9191L7.02698 59.4384L12.864 59.396C18.0513 59.3583 18.7885 59.3813 19.4884 59.6014C21.2379 60.1516 22.7116 61.5175 23.4427 63.2662C23.759 64.0229 23.7785 64.2795 23.8512 68.6598L23.9274 73.2587L24.3328 73.6071C24.847 74.049 25.319 74.049 25.8333 73.6071L26.2386 73.2587L26.3149 68.6598C26.3875 64.2795 26.407 64.0229 26.7234 63.2662C27.4544 61.5175 28.9281 60.1516 30.6776 59.6014C31.3775 59.3813 32.1148 59.3583 37.302 59.396L43.1391 59.4384L44.1222 59.9191C45.8168 60.7476 47.1257 62.3696 47.5361 64.1495C47.6164 64.4979 47.6837 66.6567 47.6857 68.947L47.6892 73.111L48.1114 73.5332C48.6278 74.0496 49.125 74.0731 49.6673 73.6071L50.0726 73.2587L50.1486 68.6598C50.2191 64.3851 50.2464 64.0065 50.5354 63.2931C51.2319 61.5736 52.7641 60.1511 54.5116 59.6014C55.2115 59.3813 55.9487 59.3583 61.136 59.396L66.973 59.4384L67.944 59.9133C69.6928 60.7686 70.9643 62.3818 71.3606 64.2483C71.4584 64.7091 71.5232 66.5894 71.5232 68.9722C71.5232 73.1659 71.5713 73.5104 72.1959 73.7951C72.7612 74.0526 73.1054 73.9842 73.5671 73.5225L74 73.0897L73.9515 68.4307C73.9031 63.78 73.9024 63.7699 73.5106 62.6918C72.7747 60.666 71.2577 58.8652 69.5098 57.9419C67.8318 57.0557 67.5599 57.0083 63.5785 56.9083C60.2335 56.8243 59.8188 56.786 59.0649 56.4919C57.9099 56.0411 56.7969 54.9879 56.2701 53.8469C55.8535 52.9447 55.8505 52.9184 55.8505 50.1937C55.8505 47.5293 55.8616 47.4259 56.2297 46.6547C56.7922 45.4764 57.5319 44.7116 58.6342 44.169C59.5107 43.7375 59.7207 43.6935 60.9032 43.6942C62.4745 43.6951 63.1977 43.9757 64.3104 45.0165C65.6483 46.268 66.0311 47.4994 66.033 50.5587C66.0343 52.4593 66.1676 52.7966 66.9778 52.9486C67.324 53.0136 67.5878 52.9721 67.8274 52.8151C68.4129 52.4315 68.5402 51.7348 68.4499 49.4061C68.3619 47.1389 68.113 46.1439 67.2765 44.7165C66.023 42.5775 63.4723 41.1737 60.8282 41.1678C57.3308 41.1599 54.1024 43.8512 53.4781 47.2952C53.2533 48.535 53.2871 52.1691 53.5343 53.3356C53.7647 54.4225 54.2853 55.5619 54.9107 56.348L55.3252 56.8689L54.5045 57.0464C52.5855 57.4616 50.5082 58.8262 49.2543 60.4954L48.8943 60.9747L48.2865 60.1696C47.3005 58.8637 45.9263 57.8985 44.1502 57.2644C43.5585 57.0531 42.7493 56.9904 39.6723 56.9172L35.9166 56.8279L34.9777 56.386C33.8302 55.8462 32.8897 54.9337 32.3912 53.8771C32.0269 53.1046 32.0165 53.0028 32.0165 50.1937V47.3047L32.4401 46.4683C32.9345 45.4917 33.7732 44.67 34.8564 44.1004C35.5447 43.7386 35.7757 43.6949 37 43.6949C38.2243 43.6949 38.4553 43.7386 39.1436 44.1004C40.2291 44.6713 41.0669 45.4933 41.5562 46.4683C41.9591 47.2708 41.9791 47.4064 42.0519 49.8094L42.1279 52.314L42.5332 52.6623C42.7561 52.8537 43.0681 53.0104 43.2265 53.0104C43.6287 53.0104 44.3141 52.6338 44.4216 52.3539C44.6048 51.8766 44.5122 47.6096 44.3014 46.8181C43.8518 45.1282 42.5374 43.2544 41.2391 42.4521L40.7333 42.1394L41.1418 41.8672C41.3664 41.7174 41.9633 41.4658 42.4681 41.3081C43.2581 41.0612 43.8022 41.0209 46.3682 41.0187C49.7415 41.0159 50.8361 40.8532 52.2915 40.1385C53.4752 39.5572 54.8811 38.1834 55.4531 37.0489C56.2509 35.4669 56.3561 34.8704 56.3561 31.9251C56.3561 28.0269 56.0062 26.9512 54.1196 25.0485C53.0482 23.9681 52.0561 23.3841 50.7766 23.0809C50.0537 22.9094 50.0324 22.8895 49.8812 22.2337C49.2056 19.3069 46.6044 16.7001 43.682 16.0212C43.304 15.9334 42.9134 15.8368 42.8142 15.8067C42.6949 15.7705 42.8275 15.4523 43.2067 14.8656C44.2998 13.1744 44.416 12.6923 44.4803 9.5813C44.5454 6.43203 44.4442 5.72481 43.7091 4.19077C42.2407 1.12702 38.6453 -0.573132 35.3013 0.215411C33.2442 0.700324 31.1772 2.30096 30.3178 4.07406C29.5712 5.61503 29.4573 6.39014 29.5196 9.51268C29.5835 12.7111 29.726 13.3073 30.8107 14.9155C31.186 15.4716 31.3119 15.7667 31.1893 15.8015C31.0882 15.8304 30.5829 15.9637 30.0665 16.0979C28.7298 16.4452 27.7539 17.0109 27.5181 17.5752C27.0193 18.7688 28.3516 19.6626 29.5439 18.9343C30.6563 18.2548 31.2299 18.1984 37.011 18.1984C42.0753 18.1984 42.5253 18.219 43.4069 18.4913C45.2441 19.0587 46.881 20.7212 47.4063 22.5532C47.5069 22.9036 47.4754 22.9459 47.0555 23.0248C45.3354 23.3475 43.0798 25.1225 42.2165 26.833C41.4734 28.3048 41.3332 29.1023 41.3356 31.843C41.3385 35.1303 41.7037 36.5989 42.8601 37.9733C43.073 38.2263 43.2165 38.464 43.1789 38.5017C43.1414 38.5393 42.7269 38.6696 42.2581 38.7912C41.0252 39.1113 40.0945 39.5735 38.9785 40.4201C38.0002 41.1623 37.9911 41.1656 36.9256 41.1656C33.5883 41.1656 30.576 43.5216 29.6986 46.8181C29.4066 47.9147 29.4104 52.5048 29.7042 53.6325C29.9576 54.6055 30.4802 55.6823 30.9975 56.2969C31.2004 56.5381 31.3665 56.7684 31.3665 56.8087C31.3665 56.8488 31.0253 56.9614 30.6082 57.0586C28.7179 57.4996 26.815 58.7109 25.707 60.1782L25.0927 60.9919L24.7348 60.504C24.07 59.5981 22.7544 58.4245 21.8939 57.9696C20.1747 57.061 19.9144 57.0152 15.8383 56.9044C11.6966 56.7918 11.3273 56.7226 10.1085 55.8299C9.34436 55.2703 8.63628 54.3164 8.3117 53.4092C8.01197 52.5711 7.88442 49.4662 8.09488 48.1246C8.38725 46.2599 9.37932 44.8793 10.9983 44.0842C11.684 43.7474 11.9733 43.6935 13.0938 43.6935C14.2009 43.6935 14.516 43.7507 15.2166 44.0792C16.2683 44.5722 17.2736 45.5785 17.7606 46.6264C18.1156 47.3898 18.1465 47.6157 18.1892 49.7603C18.2145 51.0315 18.3043 52.2106 18.3887 52.3806C18.5583 52.7217 19.086 53.0104 19.5397 53.0104C19.7009 53.0104 20.0228 52.8205 20.2551 52.5882L20.6773 52.166V50.0674C20.6773 48.9133 20.6044 47.6245 20.5154 47.2034C20.1464 45.4589 18.9864 43.6331 17.6266 42.6562L16.9036 42.1366L17.3098 41.8658C18.3081 41.2003 19.3834 41.0212 22.3898 41.02C25.8896 41.0187 26.7741 40.8896 28.2609 40.1626C30.0711 39.2776 31.4184 37.7843 32.1178 35.8876C32.392 35.1442 32.443 34.6617 32.4911 32.3543C32.5545 29.3024 32.3941 28.2813 31.6197 26.8079C30.7083 25.0738 28.4065 23.2864 26.742 23.0203C26.2395 22.9399 26.1995 22.8935 26.0413 22.2082C25.6033 20.3112 24.2657 18.4225 22.518 17.2339C21.5059 16.5454 20.502 16.1367 19.0559 15.8241L18.6623 15.739L19.2376 14.9825C20.4058 13.4466 20.7406 11.8767 20.6414 8.4026C20.5856 6.45009 20.5159 5.83618 20.274 5.16883C18.9532 1.52512 15.3219 -0.590033 11.6493 0.145209ZM59.1399 0.195622C56.3084 0.918297 53.9757 3.36178 53.4772 6.12739C53.2889 7.17175 53.2753 10.7509 53.4554 11.8426C53.6487 13.0135 54.1125 14.1281 54.7624 14.9825L55.3377 15.739L54.9441 15.8225C53.8355 16.0576 52.4915 16.561 52.2032 16.8492C51.7506 17.3016 51.7644 18.0977 52.2328 18.566C52.6715 19.0048 53.0297 19.0106 54.0449 18.5959C54.8134 18.2819 55.0211 18.2697 60.3756 18.2268C63.9801 18.1979 66.1726 18.2374 66.6591 18.3396C68.9055 18.8118 70.8879 20.81 71.363 23.0806C71.4586 23.5375 71.5232 25.5057 71.5232 27.9623V32.0785L71.8778 32.433C72.5505 33.1059 73.6825 32.793 73.9141 31.8704C73.9619 31.6796 73.976 29.5166 73.9454 27.0637C73.8853 22.2472 73.8719 22.1548 72.9689 20.3582C71.9272 18.2852 69.7407 16.5402 67.5432 16.028C66.3724 15.7552 66.4035 15.7933 66.8695 15.2009C67.4298 14.4891 67.8264 13.6906 68.1455 12.6328C68.5146 11.4087 68.5104 6.831 68.139 5.56534C67.7698 4.30734 67.3009 3.46521 66.4533 2.53771C65.5037 1.49869 64.7079 0.950653 63.4716 0.484374C62.278 0.034273 60.2914 -0.0981861 59.1399 0.195622ZM14.9716 2.82054C16.5035 3.4694 17.6122 4.75181 18.0156 6.3419C18.3373 7.60943 18.2432 11.4353 17.8651 12.4667C17.4918 13.4849 16.2702 14.7385 15.1568 15.2461C14.4047 15.589 14.0512 15.6607 13.0908 15.6652C12.0674 15.6699 11.8199 15.6152 10.9696 15.1966C9.7936 14.6176 8.83157 13.5977 8.37901 12.4496C8.08607 11.7066 8.05429 11.3784 8.05429 9.09812C8.05429 6.81785 8.08607 6.48967 8.37901 5.74663C8.95146 4.29449 10.1706 3.18772 11.7938 2.64662C12.529 2.40164 14.198 2.49293 14.9716 2.82054ZM39.2514 3.02666C40.3059 3.54567 41.0759 4.34577 41.6029 5.46957C41.9732 6.25971 41.9835 6.35678 41.9835 9.09812C41.9835 11.8488 41.9744 11.9342 41.5978 12.7376C40.8745 14.2805 39.5182 15.2986 37.7469 15.6279C36.0946 15.9353 33.9527 15.0742 32.9598 13.7036C32.0531 12.4518 31.9174 11.7821 31.9696 8.8111L32.0165 6.13693L32.512 5.22315C33.8637 2.72997 36.7427 1.79163 39.2514 3.02666ZM62.977 2.96007C64.1062 3.4668 65.1596 4.57544 65.6187 5.74013C65.9145 6.49082 65.9457 6.81237 65.9457 9.09812C65.9457 11.3784 65.9139 11.7066 65.621 12.4496C65.1684 13.5977 64.2064 14.6176 63.0305 15.1966C62.1801 15.6152 61.9327 15.6699 60.9092 15.6652C59.3457 15.6579 58.2475 15.1691 57.163 13.9978C56.0549 12.8009 55.8921 12.2503 55.814 9.43786C55.7617 7.55367 55.7953 6.94295 55.9892 6.26C56.5166 4.40181 57.9583 3.0297 59.8951 2.54262C60.6099 2.36292 62.0941 2.56385 62.977 2.96007ZM27.2298 25.8336C28.3149 26.3676 29.0824 27.1594 29.6136 28.2924C29.9843 29.0828 29.9943 29.1782 29.993 31.921C29.9914 35.1926 29.8937 35.5462 28.6206 36.8924C26.0007 39.6625 21.414 38.6644 20.1897 35.0576C20.0085 34.5241 19.9551 33.7924 19.9551 31.8492C19.9551 29.6634 19.9942 29.2273 20.2518 28.5388C20.7764 27.1364 22.28 25.8015 23.783 25.4037C24.0213 25.3406 24.6856 25.3087 25.2592 25.333C26.08 25.3675 26.4998 25.4741 27.2298 25.8336ZM50.9739 25.7767C52.0184 26.2454 53.0385 27.2504 53.5133 28.2784C53.7928 28.8834 53.8334 29.253 53.8755 31.5751C53.9279 34.4674 53.8544 34.924 53.1462 36.1049C51.8681 38.2361 49.0571 39.0914 46.8075 38.0337C45.6805 37.5039 44.7973 36.6438 44.263 35.5559C43.8653 34.7461 43.8613 34.7091 43.8613 31.921C43.8613 29.1889 43.8726 29.0801 44.237 28.3031C45.4706 25.673 48.3428 24.5958 50.9739 25.7767Z" fill="url(#paint0_radial_1376_78)" fill-opacity="0.7"/>
<path fill-rule="evenodd" clip-rule="evenodd" d="M11.6493 0.145209C8.90177 0.695269 6.67698 2.77879 5.86186 5.56534C5.48817 6.84212 5.48196 11.4174 5.85204 12.6328C6.17517 13.6939 6.57225 14.4915 7.13055 15.2009C7.59654 15.7933 7.62759 15.7552 6.45684 16.028C4.22641 16.5479 2.04062 18.3094 0.986004 20.4373C0.118736 22.1869 0.10877 22.2578 0.0518569 27.0637C0.0226784 29.5166 0.0381344 31.6796 0.0859468 31.8704C0.317497 32.793 1.44954 33.1059 2.12223 32.433L2.47686 32.0785V27.9623C2.47686 25.5057 2.54142 23.5375 2.63705 23.0806C3.10578 20.8402 5.03792 18.8638 7.26026 18.3515C7.62485 18.2674 10.1712 18.204 13.2592 18.2018C19.3546 18.1979 19.7585 18.2553 21.2758 19.3418C22.1704 19.9824 22.6345 20.5352 23.166 21.5929C23.8208 22.8961 23.8295 22.8626 22.7613 23.1685C21.0416 23.661 19.1179 25.2392 18.3214 26.8111C17.628 28.1793 17.504 28.9135 17.4826 31.7765C17.4567 35.2368 17.6803 36.1992 18.8992 37.8745L19.3946 38.5558L18.9887 38.6457C17.3887 39.0004 16.4314 39.446 15.1357 40.4391C14.1961 41.1591 14.1782 41.1656 13.1293 41.1656C10.2246 41.1656 7.66948 42.7706 6.37537 45.4079C5.66743 46.8506 5.5302 47.7918 5.58264 50.8437C5.62814 53.4893 5.87775 54.481 6.87083 55.9621C7.55393 56.9807 7.5701 56.927 6.52141 57.1325C5.6293 57.3075 4.01899 58.139 3.11806 58.8902C2.02603 59.8006 1.00146 61.2824 0.489391 62.6918C0.0976471 63.7699 0.0969248 63.78 0.0485346 68.4307L0 73.0897L0.432912 73.5225C0.894569 73.9842 1.23879 74.0526 1.80416 73.7951C2.42875 73.5104 2.47686 73.1659 2.47686 68.9722C2.47686 66.6127 2.542 64.7047 2.63806 64.2483C3.0324 62.3757 4.29069 60.7762 6.04386 59.9191L7.02698 59.4384L12.864 59.396C18.0513 59.3583 18.7885 59.3813 19.4884 59.6014C21.2379 60.1516 22.7116 61.5175 23.4427 63.2662C23.759 64.0229 23.7785 64.2795 23.8512 68.6598L23.9274 73.2587L24.3328 73.6071C24.847 74.049 25.319 74.049 25.8333 73.6071L26.2386 73.2587L26.3149 68.6598C26.3875 64.2795 26.407 64.0229 26.7234 63.2662C27.4544 61.5175 28.9281 60.1516 30.6776 59.6014C31.3775 59.3813 32.1148 59.3583 37.302 59.396L43.1391 59.4384L44.1222 59.9191C45.8168 60.7476 47.1257 62.3696 47.5361 64.1495C47.6164 64.4979 47.6837 66.6567 47.6857 68.947L47.6892 73.111L48.1114 73.5332C48.6278 74.0496 49.125 74.0731 49.6673 73.6071L50.0726 73.2587L50.1486 68.6598C50.2191 64.3851 50.2464 64.0065 50.5354 63.2931C51.2319 61.5736 52.7641 60.1511 54.5116 59.6014C55.2115 59.3813 55.9487 59.3583 61.136 59.396L66.973 59.4384L67.944 59.9133C69.6928 60.7686 70.9643 62.3818 71.3606 64.2483C71.4584 64.7091 71.5232 66.5894 71.5232 68.9722C71.5232 73.1659 71.5713 73.5104 72.1959 73.7951C72.7612 74.0526 73.1054 73.9842 73.5671 73.5225L74 73.0897L73.9515 68.4307C73.9031 63.78 73.9024 63.7699 73.5106 62.6918C72.7747 60.666 71.2577 58.8652 69.5098 57.9419C67.8318 57.0557 67.5599 57.0083 63.5785 56.9083C60.2335 56.8243 59.8188 56.786 59.0649 56.4919C57.9099 56.0411 56.7969 54.9879 56.2701 53.8469C55.8535 52.9447 55.8505 52.9184 55.8505 50.1937C55.8505 47.5293 55.8616 47.4259 56.2297 46.6547C56.7922 45.4764 57.5319 44.7116 58.6342 44.169C59.5107 43.7375 59.7207 43.6935 60.9032 43.6942C62.4745 43.6951 63.1977 43.9757 64.3104 45.0165C65.6483 46.268 66.0311 47.4994 66.033 50.5587C66.0343 52.4593 66.1676 52.7966 66.9778 52.9486C67.324 53.0136 67.5878 52.9721 67.8274 52.8151C68.4129 52.4315 68.5402 51.7348 68.4499 49.4061C68.3619 47.1389 68.113 46.1439 67.2765 44.7165C66.023 42.5775 63.4723 41.1737 60.8282 41.1678C57.3308 41.1599 54.1024 43.8512 53.4781 47.2952C53.2533 48.535 53.2871 52.1691 53.5343 53.3356C53.7647 54.4225 54.2853 55.5619 54.9107 56.348L55.3252 56.8689L54.5045 57.0464C52.5855 57.4616 50.5082 58.8262 49.2543 60.4954L48.8943 60.9747L48.2865 60.1696C47.3005 58.8637 45.9263 57.8985 44.1502 57.2644C43.5585 57.0531 42.7493 56.9904 39.6723 56.9172L35.9166 56.8279L34.9777 56.386C33.8302 55.8462 32.8897 54.9337 32.3912 53.8771C32.0269 53.1046 32.0165 53.0028 32.0165 50.1937V47.3047L32.4401 46.4683C32.9345 45.4917 33.7732 44.67 34.8564 44.1004C35.5447 43.7386 35.7757 43.6949 37 43.6949C38.2243 43.6949 38.4553 43.7386 39.1436 44.1004C40.2291 44.6713 41.0669 45.4933 41.5562 46.4683C41.9591 47.2708 41.9791 47.4064 42.0519 49.8094L42.1279 52.314L42.5332 52.6623C42.7561 52.8537 43.0681 53.0104 43.2265 53.0104C43.6287 53.0104 44.3141 52.6338 44.4216 52.3539C44.6048 51.8766 44.5122 47.6096 44.3014 46.8181C43.8518 45.1282 42.5374 43.2544 41.2391 42.4521L40.7333 42.1394L41.1418 41.8672C41.3664 41.7174 41.9633 41.4658 42.4681 41.3081C43.2581 41.0612 43.8022 41.0209 46.3682 41.0187C49.7415 41.0159 50.8361 40.8532 52.2915 40.1385C53.4752 39.5572 54.8811 38.1834 55.4531 37.0489C56.2509 35.4669 56.3561 34.8704 56.3561 31.9251C56.3561 28.0269 56.0062 26.9512 54.1196 25.0485C53.0482 23.9681 52.0561 23.3841 50.7766 23.0809C50.0537 22.9094 50.0324 22.8895 49.8812 22.2337C49.2056 19.3069 46.6044 16.7001 43.682 16.0212C43.304 15.9334 42.9134 15.8368 42.8142 15.8067C42.6949 15.7705 42.8275 15.4523 43.2067 14.8656C44.2998 13.1744 44.416 12.6923 44.4803 9.5813C44.5454 6.43203 44.4442 5.72481 43.7091 4.19077C42.2407 1.12702 38.6453 -0.573132 35.3013 0.215411C33.2442 0.700324 31.1772 2.30096 30.3178 4.07406C29.5712 5.61503 29.4573 6.39014 29.5196 9.51268C29.5835 12.7111 29.726 13.3073 30.8107 14.9155C31.186 15.4716 31.3119 15.7667 31.1893 15.8015C31.0882 15.8304 30.5829 15.9637 30.0665 16.0979C28.7298 16.4452 27.7539 17.0109 27.5181 17.5752C27.0193 18.7688 28.3516 19.6626 29.5439 18.9343C30.6563 18.2548 31.2299 18.1984 37.011 18.1984C42.0753 18.1984 42.5253 18.219 43.4069 18.4913C45.2441 19.0587 46.881 20.7212 47.4063 22.5532C47.5069 22.9036 47.4754 22.9459 47.0555 23.0248C45.3354 23.3475 43.0798 25.1225 42.2165 26.833C41.4734 28.3048 41.3332 29.1023 41.3356 31.843C41.3385 35.1303 41.7037 36.5989 42.8601 37.9733C43.073 38.2263 43.2165 38.464 43.1789 38.5017C43.1414 38.5393 42.7269 38.6696 42.2581 38.7912C41.0252 39.1113 40.0945 39.5735 38.9785 40.4201C38.0002 41.1623 37.9911 41.1656 36.9256 41.1656C33.5883 41.1656 30.576 43.5216 29.6986 46.8181C29.4066 47.9147 29.4104 52.5048 29.7042 53.6325C29.9576 54.6055 30.4802 55.6823 30.9975 56.2969C31.2004 56.5381 31.3665 56.7684 31.3665 56.8087C31.3665 56.8488 31.0253 56.9614 30.6082 57.0586C28.7179 57.4996 26.815 58.7109 25.707 60.1782L25.0927 60.9919L24.7348 60.504C24.07 59.5981 22.7544 58.4245 21.8939 57.9696C20.1747 57.061 19.9144 57.0152 15.8383 56.9044C11.6966 56.7918 11.3273 56.7226 10.1085 55.8299C9.34436 55.2703 8.63628 54.3164 8.3117 53.4092C8.01197 52.5711 7.88442 49.4662 8.09488 48.1246C8.38725 46.2599 9.37932 44.8793 10.9983 44.0842C11.684 43.7474 11.9733 43.6935 13.0938 43.6935C14.2009 43.6935 14.516 43.7507 15.2166 44.0792C16.2683 44.5722 17.2736 45.5785 17.7606 46.6264C18.1156 47.3898 18.1465 47.6157 18.1892 49.7603C18.2145 51.0315 18.3043 52.2106 18.3887 52.3806C18.5583 52.7217 19.086 53.0104 19.5397 53.0104C19.7009 53.0104 20.0228 52.8205 20.2551 52.5882L20.6773 52.166V50.0674C20.6773 48.9133 20.6044 47.6245 20.5154 47.2034C20.1464 45.4589 18.9864 43.6331 17.6266 42.6562L16.9036 42.1366L17.3098 41.8658C18.3081 41.2003 19.3834 41.0212 22.3898 41.02C25.8896 41.0187 26.7741 40.8896 28.2609 40.1626C30.0711 39.2776 31.4184 37.7843 32.1178 35.8876C32.392 35.1442 32.443 34.6617 32.4911 32.3543C32.5545 29.3024 32.3941 28.2813 31.6197 26.8079C30.7083 25.0738 28.4065 23.2864 26.742 23.0203C26.2395 22.9399 26.1995 22.8935 26.0413 22.2082C25.6033 20.3112 24.2657 18.4225 22.518 17.2339C21.5059 16.5454 20.502 16.1367 19.0559 15.8241L18.6623 15.739L19.2376 14.9825C20.4058 13.4466 20.7406 11.8767 20.6414 8.4026C20.5856 6.45009 20.5159 5.83618 20.274 5.16883C18.9532 1.52512 15.3219 -0.590033 11.6493 0.145209ZM59.1399 0.195622C56.3084 0.918297 53.9757 3.36178 53.4772 6.12739C53.2889 7.17175 53.2753 10.7509 53.4554 11.8426C53.6487 13.0135 54.1125 14.1281 54.7624 14.9825L55.3377 15.739L54.9441 15.8225C53.8355 16.0576 52.4915 16.561 52.2032 16.8492C51.7506 17.3016 51.7644 18.0977 52.2328 18.566C52.6715 19.0048 53.0297 19.0106 54.0449 18.5959C54.8134 18.2819 55.0211 18.2697 60.3756 18.2268C63.9801 18.1979 66.1726 18.2374 66.6591 18.3396C68.9055 18.8118 70.8879 20.81 71.363 23.0806C71.4586 23.5375 71.5232 25.5057 71.5232 27.9623V32.0785L71.8778 32.433C72.5505 33.1059 73.6825 32.793 73.9141 31.8704C73.9619 31.6796 73.976 29.5166 73.9454 27.0637C73.8853 22.2472 73.8719 22.1548 72.9689 20.3582C71.9272 18.2852 69.7407 16.5402 67.5432 16.028C66.3724 15.7552 66.4035 15.7933 66.8695 15.2009C67.4298 14.4891 67.8264 13.6906 68.1455 12.6328C68.5146 11.4087 68.5104 6.831 68.139 5.56534C67.7698 4.30734 67.3009 3.46521 66.4533 2.53771C65.5037 1.49869 64.7079 0.950653 63.4716 0.484374C62.278 0.034273 60.2914 -0.0981861 59.1399 0.195622ZM14.9716 2.82054C16.5035 3.4694 17.6122 4.75181 18.0156 6.3419C18.3373 7.60943 18.2432 11.4353 17.8651 12.4667C17.4918 13.4849 16.2702 14.7385 15.1568 15.2461C14.4047 15.589 14.0512 15.6607 13.0908 15.6652C12.0674 15.6699 11.8199 15.6152 10.9696 15.1966C9.7936 14.6176 8.83157 13.5977 8.37901 12.4496C8.08607 11.7066 8.05429 11.3784 8.05429 9.09812C8.05429 6.81785 8.08607 6.48967 8.37901 5.74663C8.95146 4.29449 10.1706 3.18772 11.7938 2.64662C12.529 2.40164 14.198 2.49293 14.9716 2.82054ZM39.2514 3.02666C40.3059 3.54567 41.0759 4.34577 41.6029 5.46957C41.9732 6.25971 41.9835 6.35678 41.9835 9.09812C41.9835 11.8488 41.9744 11.9342 41.5978 12.7376C40.8745 14.2805 39.5182 15.2986 37.7469 15.6279C36.0946 15.9353 33.9527 15.0742 32.9598 13.7036C32.0531 12.4518 31.9174 11.7821 31.9696 8.8111L32.0165 6.13693L32.512 5.22315C33.8637 2.72997 36.7427 1.79163 39.2514 3.02666ZM62.977 2.96007C64.1062 3.4668 65.1596 4.57544 65.6187 5.74013C65.9145 6.49082 65.9457 6.81237 65.9457 9.09812C65.9457 11.3784 65.9139 11.7066 65.621 12.4496C65.1684 13.5977 64.2064 14.6176 63.0305 15.1966C62.1801 15.6152 61.9327 15.6699 60.9092 15.6652C59.3457 15.6579 58.2475 15.1691 57.163 13.9978C56.0549 12.8009 55.8921 12.2503 55.814 9.43786C55.7617 7.55367 55.7953 6.94295 55.9892 6.26C56.5166 4.40181 57.9583 3.0297 59.8951 2.54262C60.6099 2.36292 62.0941 2.56385 62.977 2.96007ZM27.2298 25.8336C28.3149 26.3676 29.0824 27.1594 29.6136 28.2924C29.9843 29.0828 29.9943 29.1782 29.993 31.921C29.9914 35.1926 29.8937 35.5462 28.6206 36.8924C26.0007 39.6625 21.414 38.6644 20.1897 35.0576C20.0085 34.5241 19.9551 33.7924 19.9551 31.8492C19.9551 29.6634 19.9942 29.2273 20.2518 28.5388C20.7764 27.1364 22.28 25.8015 23.783 25.4037C24.0213 25.3406 24.6856 25.3087 25.2592 25.333C26.08 25.3675 26.4998 25.4741 27.2298 25.8336ZM50.9739 25.7767C52.0184 26.2454 53.0385 27.2504 53.5133 28.2784C53.7928 28.8834 53.8334 29.253 53.8755 31.5751C53.9279 34.4674 53.8544 34.924 53.1462 36.1049C51.8681 38.2361 49.0571 39.0914 46.8075 38.0337C45.6805 37.5039 44.7973 36.6438 44.263 35.5559C43.8653 34.7461 43.8613 34.7091 43.8613 31.921C43.8613 29.1889 43.8726 29.0801 44.237 28.3031C45.4706 25.673 48.3428 24.5958 50.9739 25.7767Z" fill="url(#paint1_radial_1376_78)"/>
<defs>
<radialGradient id="paint0_radial_1376_78" cx="0" cy="0" r="1" gradientUnits="userSpaceOnUse" gradientTransform="translate(19.5278 15.405) rotate(51.0228) scale(62.0904 62.1003)">
<stop stop-color="white" stop-opacity="0.59"/>
<stop offset="0.697917" stop-color="white" stop-opacity="0"/>
<stop offset="1" stop-color="white" stop-opacity="0"/>
</radialGradient>
<radialGradient id="paint1_radial_1376_78" cx="0" cy="0" r="1" gradientUnits="userSpaceOnUse" gradientTransform="translate(63.863 64.7008) rotate(-93.6733) scale(63.2903 70.5929)">
<stop stop-opacity="0.23"/>
<stop offset="0.861815" stop-opacity="0"/>
</radialGradient>
</defs>
</svg>
