<svg width="74" height="71" viewBox="0 0 74 71" fill="none" xmlns="http://www.w3.org/2000/svg">
<path fill-rule="evenodd" clip-rule="evenodd" d="M36.1701 0.403945C35.8961 0.75225 35.8702 0.97828 35.8702 3.01515C35.8702 5.18993 35.879 5.25403 36.2254 5.60031C36.6953 6.07031 37.3603 6.07031 37.8302 5.60031C38.1766 5.25403 38.1854 5.18993 38.1854 3.01515C38.1854 0.97828 38.1595 0.75225 37.8855 0.403945C37.4619 -0.134648 36.5937 -0.134648 36.1701 0.403945ZM27.3984 2.69318C27.1961 2.89534 27.0431 3.21702 27.0431 3.44015C27.0431 3.90176 28.665 6.86359 29.2328 7.43879C29.7011 7.91328 30.1937 7.94584 30.7136 7.53676C31.3378 7.04577 31.2321 6.49821 30.151 4.62485C29.6319 3.72522 29.0421 2.84252 28.8405 2.66352C28.3636 2.23982 27.8409 2.25053 27.3984 2.69318ZM45.2151 2.66352C45.0135 2.84252 44.4237 3.72522 43.9046 4.62485C42.8235 6.49821 42.7178 7.04577 43.342 7.53676C43.8619 7.94584 44.3545 7.91328 44.8228 7.43879C45.3906 6.86359 47.0125 3.90176 47.0125 3.44015C47.0125 2.947 46.4209 2.33793 45.9418 2.33793C45.7437 2.33793 45.4167 2.48437 45.2151 2.66352ZM34.3507 10.0655C29.9556 10.7151 25.9955 12.6786 22.9855 15.7006C21.3963 17.2964 20.6279 18.3183 20.6279 18.8364C20.6279 19.4294 21.2522 20.2778 22.919 21.9506C25.6618 24.703 29.0124 26.5434 32.8313 27.395C34.8482 27.8447 39.0064 27.8833 40.9348 27.4702C44.8753 26.6263 48.3565 24.7432 51.1366 21.9514C52.8039 20.2773 53.4277 19.4291 53.4277 18.8364C53.4277 18.3183 52.6593 17.2964 51.0701 15.7006C48.3299 12.9493 44.4274 10.8949 40.6454 10.2125C38.9229 9.90168 35.9321 9.83178 34.3507 10.0655ZM39.5872 12.4023C42.259 12.799 44.8312 13.822 47.1572 15.4129C48.2901 16.1878 50.7748 18.5403 50.7748 18.8379C50.7748 18.9326 50.3028 19.498 49.7257 20.0943C46.3402 23.5938 41.8767 25.4908 37.0278 25.4908C33.3883 25.4908 30.1429 24.4883 27.0431 22.4067C25.8851 21.6289 23.2808 19.1708 23.2808 18.8555C23.2808 18.5436 25.7331 16.21 26.8984 15.4129C30.7453 12.7817 35.1323 11.7407 39.5872 12.4023ZM35.1942 13.4624C33.6751 14.0261 32.4984 15.0938 31.833 16.5124C31.499 17.2245 31.4566 17.4945 31.4566 18.9067C31.4566 20.4147 31.4808 20.5442 31.9148 21.3667C32.7816 23.0092 34.2907 24.1269 36.1234 24.4841C38.4696 24.941 41.1392 23.5125 42.1907 21.2372C42.5565 20.4455 42.5989 20.196 42.5989 18.8343C42.5989 17.4887 42.5545 17.2203 42.2111 16.4875C41.6688 15.3303 40.6894 14.3369 39.5216 13.7592C38.6748 13.3403 38.3766 13.2711 37.2449 13.2309C36.2321 13.195 35.7761 13.2464 35.1942 13.4624ZM38.2986 15.7306C40.6592 16.7151 41.1015 19.9927 39.0822 21.5364C38.2141 22.2 37.1564 22.4077 36.1481 22.1126C34.5797 21.6536 33.6996 20.483 33.6996 18.8552C33.6996 17.4774 34.4808 16.2748 35.7254 15.7365C36.3863 15.4507 37.6208 15.4478 38.2986 15.7306ZM14.5261 27.2992C12.3773 28.6875 10.5052 29.9627 10.3658 30.1331C10.1388 30.4108 10.1126 30.8394 10.1126 34.268V38.0933L10.4679 38.4484C10.8989 38.8796 11.5383 38.9122 12.0139 38.5273C12.3515 38.2542 12.3564 38.2108 12.4279 34.8147L12.5003 31.3784L16.0455 29.0879C17.9954 27.8281 19.6723 26.6862 19.7717 26.5505C20.0497 26.1712 19.9927 25.3862 19.6632 25.0567C19.0568 24.4503 18.6829 24.6136 14.5261 27.2992ZM54.4989 24.9481C54.368 25.0477 54.1972 25.3005 54.1195 25.51C53.8297 26.292 54.2156 26.647 58.0101 29.0887L61.5553 31.3702L61.6277 34.8105C61.6992 38.2111 61.704 38.2541 62.0417 38.5273C62.5173 38.9122 63.1567 38.8796 63.5877 38.4484L63.943 38.0933V34.2842C63.943 31.1813 63.9039 30.4193 63.732 30.1739C63.6159 30.0083 61.7381 28.7239 59.5591 27.32C55.5191 24.7169 55.0766 24.5095 54.4989 24.9481ZM36.6453 30.8437C35.9207 31.1362 35.8702 31.3978 35.8702 34.8631V38.0933L36.2254 38.4484C36.4493 38.6724 36.7459 38.8037 37.0278 38.8037C37.3097 38.8037 37.6063 38.6724 37.8302 38.4484L38.1854 38.0933V34.8426C38.1854 33.0548 38.1449 31.4866 38.0956 31.3579C38.0092 31.1327 37.3104 30.6903 37.0712 30.7093C37.0075 30.7143 36.8159 30.7748 36.6453 30.8437ZM9.75085 42.4774C8.04029 42.8939 6.80364 43.8924 6.08807 45.4348C5.76639 46.1282 5.69867 46.5036 5.65309 47.8477C5.57032 50.2794 6.15174 52.0621 7.51284 53.5512C7.83163 53.8999 8.07473 54.1974 8.05331 54.2125C8.0319 54.2275 7.44599 54.3488 6.75126 54.4819C2.96128 55.2085 0.920936 56.5253 0.208986 58.704C0.0048067 59.3287 -0.0226873 60.0832 0.013489 64.0809L0.0555983 68.7313L0.499988 69.2871C1.39514 70.4066 0.810381 70.349 11.2703 70.349C21.7304 70.349 21.1457 70.4066 22.0405 69.2868L22.4849 68.7307V63.788V58.8453L22.13 58.1218C21.634 57.1109 20.5602 56.1172 19.3296 55.5303C18.4233 55.0984 15.3907 54.2871 14.6817 54.2871C14.5031 54.2871 14.6173 54.0669 15.1083 53.4641C16.5054 51.7491 16.9729 50.2682 16.8815 47.8477C16.8128 46.0253 16.4783 45.0717 15.5456 44.0394C14.2361 42.5899 11.888 41.9569 9.75085 42.4774ZM35.5084 42.4774C33.7978 42.8939 32.5612 43.8924 31.8456 45.4348C31.5239 46.1282 31.4562 46.5036 31.4106 47.8477C31.3279 50.2794 31.9093 52.0621 33.2704 53.5512C33.5892 53.8999 33.8323 54.1974 33.8109 54.2125C33.7894 54.2275 33.2035 54.3488 32.5088 54.4819C28.7188 55.2085 26.6785 56.5253 25.9665 58.704C25.7623 59.3287 25.7349 60.0832 25.771 64.0809L25.8131 68.7313L26.2575 69.2871C27.1527 70.4066 26.5679 70.349 37.0278 70.349C47.488 70.349 46.9032 70.4066 47.7981 69.2868L48.2425 68.7307V63.788V58.8453L47.8875 58.1218C47.3916 57.1109 46.3177 56.1172 45.0872 55.5303C44.1809 55.0984 41.1483 54.2871 40.4392 54.2871C40.2607 54.2871 40.3748 54.0669 40.8658 53.4641C42.2629 51.7491 42.7305 50.2682 42.639 47.8477C42.5703 46.0253 42.2359 45.0717 41.3031 44.0394C39.9937 42.5899 37.6455 41.9569 35.5084 42.4774ZM61.2659 42.4774C59.5554 42.8939 58.3187 43.8924 57.6031 45.4348C57.2815 46.1282 57.2138 46.5036 57.1682 47.8477C57.0854 50.2794 57.6668 52.0621 59.0279 53.5512C59.3467 53.8999 59.5898 54.1974 59.5684 54.2125C59.547 54.2275 58.9611 54.3488 58.2663 54.4819C54.4764 55.2085 52.436 56.5253 51.7241 58.704C51.5199 59.3287 51.4924 60.0832 51.5286 64.0809L51.5707 68.7313L52.0151 69.2871C52.9102 70.4066 52.3255 70.349 62.7853 70.349C73.2455 70.349 72.6607 70.4066 73.5556 69.2868L74 68.7307V63.788V58.8453L73.645 58.1218C73.1491 57.1109 72.0753 56.1172 70.8447 55.5303C69.9384 55.0984 66.9058 54.2871 66.1968 54.2871C66.0182 54.2871 66.1324 54.0669 66.6234 53.4641C68.0205 51.7491 68.488 50.2682 68.3966 47.8477C68.3278 46.0253 67.9934 45.0717 67.0607 44.0394C65.7512 42.5899 63.4031 41.9569 61.2659 42.4774ZM12.5152 44.8053C13.3863 45.0641 14.0639 45.694 14.3902 46.5484C14.7582 47.5119 14.6329 49.6129 14.1444 50.6695C13.4466 52.1789 12.4461 52.9848 11.2703 52.9848C10.0944 52.9848 9.09389 52.1789 8.39612 50.6695C7.9076 49.6129 7.78228 47.5119 8.15027 46.5484C8.75962 44.9529 10.5732 44.2285 12.5152 44.8053ZM38.2727 44.8053C39.1438 45.0641 39.8215 45.694 40.1478 46.5484C40.5158 47.5119 40.3905 49.6129 39.9019 50.6695C39.2042 52.1789 38.2037 52.9848 37.0278 52.9848C35.8519 52.9848 34.8514 52.1789 34.1537 50.6695C33.6651 49.6129 33.5398 47.5119 33.9078 46.5484C34.5172 44.9529 36.3308 44.2285 38.2727 44.8053ZM64.0302 44.8053C64.9014 45.0641 65.579 45.694 65.9053 46.5484C66.2733 47.5119 66.148 49.6129 65.6595 50.6695C64.9617 52.1789 63.9612 52.9848 62.7853 52.9848C61.6095 52.9848 60.609 52.1789 59.9112 50.6695C59.4227 49.6129 59.2974 47.5119 59.6653 46.5484C60.2747 44.9529 62.0883 44.2285 64.0302 44.8053ZM14.4538 56.6182C17.6149 57.0569 19.5297 57.9273 20.0446 59.1595C20.196 59.5217 20.242 60.6122 20.242 63.833V68.0341H19.0843H17.9267L17.9221 64.8868C17.9172 61.5055 17.8912 61.3774 17.1553 61.0975C16.6776 60.9159 16.1603 61.0926 15.8431 61.5454C15.6483 61.8235 15.6114 62.3663 15.6114 64.9552V68.0341H11.2703H6.9291V64.9552C6.9291 62.3663 6.8922 61.8235 6.69743 61.5454C6.38023 61.0926 5.86291 60.9159 5.38524 61.0975C4.64927 61.3774 4.62337 61.5055 4.61845 64.8868L4.61381 68.0341H3.45617H2.29853V63.833C2.29853 59.206 2.33225 58.9909 3.16647 58.2891C3.91098 57.6625 4.64218 57.3484 6.2678 56.9567C8.85599 56.333 11.585 56.2201 14.4538 56.6182ZM40.2113 56.6218C43.3506 57.0472 45.2867 57.926 45.8021 59.1595C45.9535 59.5217 45.9995 60.6122 45.9995 63.833V68.0341H44.8419H43.6842L43.6796 64.8868C43.6747 61.5055 43.6488 61.3774 42.9128 61.0975C42.4351 60.9159 41.9178 61.0926 41.6006 61.5454C41.4059 61.8235 41.369 62.3663 41.369 64.9552V68.0341H37.0278H32.6866V64.9552C32.6866 62.3663 32.6497 61.8235 32.455 61.5454C32.1378 61.0926 31.6204 60.9159 31.1428 61.0975C30.4068 61.3774 30.3809 61.5055 30.376 64.8868L30.3714 68.0341H29.2137H28.0561V63.833C28.0561 59.206 28.0898 58.9909 28.924 58.2891C29.6685 57.6625 30.3997 57.3484 32.0253 56.9567C34.5836 56.3401 37.3098 56.2286 40.2113 56.6218ZM65.9689 56.6182C69.1299 57.0569 71.0448 57.9273 71.5597 59.1595C71.711 59.5217 71.7571 60.6122 71.7571 63.833V68.0341H70.5994H69.4418L69.4371 64.8868C69.4322 61.5055 69.4063 61.3774 68.6704 61.0975C68.1927 60.9159 67.6754 61.0926 67.3582 61.5454C67.1634 61.8235 67.1265 62.3663 67.1265 64.9552V68.0341H62.7853H58.4442V64.9552C58.4442 62.3663 58.4073 61.8235 58.2125 61.5454C57.8953 61.0926 57.378 60.9159 56.9003 61.0975C56.1643 61.3774 56.1384 61.5055 56.1335 64.8868L56.1289 68.0341H54.9713H53.8136V63.833C53.8136 59.206 53.8473 58.9909 54.6815 58.2891C55.4261 57.6625 56.1573 57.3484 57.7829 56.9567C60.3711 56.333 63.1001 56.2201 65.9689 56.6182Z" fill="#0066FF"/>
<path fill-rule="evenodd" clip-rule="evenodd" d="M36.1701 0.403945C35.8961 0.75225 35.8702 0.97828 35.8702 3.01515C35.8702 5.18993 35.879 5.25403 36.2254 5.60031C36.6953 6.07031 37.3603 6.07031 37.8302 5.60031C38.1766 5.25403 38.1854 5.18993 38.1854 3.01515C38.1854 0.97828 38.1595 0.75225 37.8855 0.403945C37.4619 -0.134648 36.5937 -0.134648 36.1701 0.403945ZM27.3984 2.69318C27.1961 2.89534 27.0431 3.21702 27.0431 3.44015C27.0431 3.90176 28.665 6.86359 29.2328 7.43879C29.7011 7.91328 30.1937 7.94584 30.7136 7.53676C31.3378 7.04577 31.2321 6.49821 30.151 4.62485C29.6319 3.72522 29.0421 2.84252 28.8405 2.66352C28.3636 2.23982 27.8409 2.25053 27.3984 2.69318ZM45.2151 2.66352C45.0135 2.84252 44.4237 3.72522 43.9046 4.62485C42.8235 6.49821 42.7178 7.04577 43.342 7.53676C43.8619 7.94584 44.3545 7.91328 44.8228 7.43879C45.3906 6.86359 47.0125 3.90176 47.0125 3.44015C47.0125 2.947 46.4209 2.33793 45.9418 2.33793C45.7437 2.33793 45.4167 2.48437 45.2151 2.66352ZM34.3507 10.0655C29.9556 10.7151 25.9955 12.6786 22.9855 15.7006C21.3963 17.2964 20.6279 18.3183 20.6279 18.8364C20.6279 19.4294 21.2522 20.2778 22.919 21.9506C25.6618 24.703 29.0124 26.5434 32.8313 27.395C34.8482 27.8447 39.0064 27.8833 40.9348 27.4702C44.8753 26.6263 48.3565 24.7432 51.1366 21.9514C52.8039 20.2773 53.4277 19.4291 53.4277 18.8364C53.4277 18.3183 52.6593 17.2964 51.0701 15.7006C48.3299 12.9493 44.4274 10.8949 40.6454 10.2125C38.9229 9.90168 35.9321 9.83178 34.3507 10.0655ZM39.5872 12.4023C42.259 12.799 44.8312 13.822 47.1572 15.4129C48.2901 16.1878 50.7748 18.5403 50.7748 18.8379C50.7748 18.9326 50.3028 19.498 49.7257 20.0943C46.3402 23.5938 41.8767 25.4908 37.0278 25.4908C33.3883 25.4908 30.1429 24.4883 27.0431 22.4067C25.8851 21.6289 23.2808 19.1708 23.2808 18.8555C23.2808 18.5436 25.7331 16.21 26.8984 15.4129C30.7453 12.7817 35.1323 11.7407 39.5872 12.4023ZM35.1942 13.4624C33.6751 14.0261 32.4984 15.0938 31.833 16.5124C31.499 17.2245 31.4566 17.4945 31.4566 18.9067C31.4566 20.4147 31.4808 20.5442 31.9148 21.3667C32.7816 23.0092 34.2907 24.1269 36.1234 24.4841C38.4696 24.941 41.1392 23.5125 42.1907 21.2372C42.5565 20.4455 42.5989 20.196 42.5989 18.8343C42.5989 17.4887 42.5545 17.2203 42.2111 16.4875C41.6688 15.3303 40.6894 14.3369 39.5216 13.7592C38.6748 13.3403 38.3766 13.2711 37.2449 13.2309C36.2321 13.195 35.7761 13.2464 35.1942 13.4624ZM38.2986 15.7306C40.6592 16.7151 41.1015 19.9927 39.0822 21.5364C38.2141 22.2 37.1564 22.4077 36.1481 22.1126C34.5797 21.6536 33.6996 20.483 33.6996 18.8552C33.6996 17.4774 34.4808 16.2748 35.7254 15.7365C36.3863 15.4507 37.6208 15.4478 38.2986 15.7306ZM14.5261 27.2992C12.3773 28.6875 10.5052 29.9627 10.3658 30.1331C10.1388 30.4108 10.1126 30.8394 10.1126 34.268V38.0933L10.4679 38.4484C10.8989 38.8796 11.5383 38.9122 12.0139 38.5273C12.3515 38.2542 12.3564 38.2108 12.4279 34.8147L12.5003 31.3784L16.0455 29.0879C17.9954 27.8281 19.6723 26.6862 19.7717 26.5505C20.0497 26.1712 19.9927 25.3862 19.6632 25.0567C19.0568 24.4503 18.6829 24.6136 14.5261 27.2992ZM54.4989 24.9481C54.368 25.0477 54.1972 25.3005 54.1195 25.51C53.8297 26.292 54.2156 26.647 58.0101 29.0887L61.5553 31.3702L61.6277 34.8105C61.6992 38.2111 61.704 38.2541 62.0417 38.5273C62.5173 38.9122 63.1567 38.8796 63.5877 38.4484L63.943 38.0933V34.2842C63.943 31.1813 63.9039 30.4193 63.732 30.1739C63.6159 30.0083 61.7381 28.7239 59.5591 27.32C55.5191 24.7169 55.0766 24.5095 54.4989 24.9481ZM36.6453 30.8437C35.9207 31.1362 35.8702 31.3978 35.8702 34.8631V38.0933L36.2254 38.4484C36.4493 38.6724 36.7459 38.8037 37.0278 38.8037C37.3097 38.8037 37.6063 38.6724 37.8302 38.4484L38.1854 38.0933V34.8426C38.1854 33.0548 38.1449 31.4866 38.0956 31.3579C38.0092 31.1327 37.3104 30.6903 37.0712 30.7093C37.0075 30.7143 36.8159 30.7748 36.6453 30.8437ZM9.75085 42.4774C8.04029 42.8939 6.80364 43.8924 6.08807 45.4348C5.76639 46.1282 5.69867 46.5036 5.65309 47.8477C5.57032 50.2794 6.15174 52.0621 7.51284 53.5512C7.83163 53.8999 8.07473 54.1974 8.05331 54.2125C8.0319 54.2275 7.44599 54.3488 6.75126 54.4819C2.96128 55.2085 0.920936 56.5253 0.208986 58.704C0.0048067 59.3287 -0.0226873 60.0832 0.013489 64.0809L0.0555983 68.7313L0.499988 69.2871C1.39514 70.4066 0.810381 70.349 11.2703 70.349C21.7304 70.349 21.1457 70.4066 22.0405 69.2868L22.4849 68.7307V63.788V58.8453L22.13 58.1218C21.634 57.1109 20.5602 56.1172 19.3296 55.5303C18.4233 55.0984 15.3907 54.2871 14.6817 54.2871C14.5031 54.2871 14.6173 54.0669 15.1083 53.4641C16.5054 51.7491 16.9729 50.2682 16.8815 47.8477C16.8128 46.0253 16.4783 45.0717 15.5456 44.0394C14.2361 42.5899 11.888 41.9569 9.75085 42.4774ZM35.5084 42.4774C33.7978 42.8939 32.5612 43.8924 31.8456 45.4348C31.5239 46.1282 31.4562 46.5036 31.4106 47.8477C31.3279 50.2794 31.9093 52.0621 33.2704 53.5512C33.5892 53.8999 33.8323 54.1974 33.8109 54.2125C33.7894 54.2275 33.2035 54.3488 32.5088 54.4819C28.7188 55.2085 26.6785 56.5253 25.9665 58.704C25.7623 59.3287 25.7349 60.0832 25.771 64.0809L25.8131 68.7313L26.2575 69.2871C27.1527 70.4066 26.5679 70.349 37.0278 70.349C47.488 70.349 46.9032 70.4066 47.7981 69.2868L48.2425 68.7307V63.788V58.8453L47.8875 58.1218C47.3916 57.1109 46.3177 56.1172 45.0872 55.5303C44.1809 55.0984 41.1483 54.2871 40.4392 54.2871C40.2607 54.2871 40.3748 54.0669 40.8658 53.4641C42.2629 51.7491 42.7305 50.2682 42.639 47.8477C42.5703 46.0253 42.2359 45.0717 41.3031 44.0394C39.9937 42.5899 37.6455 41.9569 35.5084 42.4774ZM61.2659 42.4774C59.5554 42.8939 58.3187 43.8924 57.6031 45.4348C57.2815 46.1282 57.2138 46.5036 57.1682 47.8477C57.0854 50.2794 57.6668 52.0621 59.0279 53.5512C59.3467 53.8999 59.5898 54.1974 59.5684 54.2125C59.547 54.2275 58.9611 54.3488 58.2663 54.4819C54.4764 55.2085 52.436 56.5253 51.7241 58.704C51.5199 59.3287 51.4924 60.0832 51.5286 64.0809L51.5707 68.7313L52.0151 69.2871C52.9102 70.4066 52.3255 70.349 62.7853 70.349C73.2455 70.349 72.6607 70.4066 73.5556 69.2868L74 68.7307V63.788V58.8453L73.645 58.1218C73.1491 57.1109 72.0753 56.1172 70.8447 55.5303C69.9384 55.0984 66.9058 54.2871 66.1968 54.2871C66.0182 54.2871 66.1324 54.0669 66.6234 53.4641C68.0205 51.7491 68.488 50.2682 68.3966 47.8477C68.3278 46.0253 67.9934 45.0717 67.0607 44.0394C65.7512 42.5899 63.4031 41.9569 61.2659 42.4774ZM12.5152 44.8053C13.3863 45.0641 14.0639 45.694 14.3902 46.5484C14.7582 47.5119 14.6329 49.6129 14.1444 50.6695C13.4466 52.1789 12.4461 52.9848 11.2703 52.9848C10.0944 52.9848 9.09389 52.1789 8.39612 50.6695C7.9076 49.6129 7.78228 47.5119 8.15027 46.5484C8.75962 44.9529 10.5732 44.2285 12.5152 44.8053ZM38.2727 44.8053C39.1438 45.0641 39.8215 45.694 40.1478 46.5484C40.5158 47.5119 40.3905 49.6129 39.9019 50.6695C39.2042 52.1789 38.2037 52.9848 37.0278 52.9848C35.8519 52.9848 34.8514 52.1789 34.1537 50.6695C33.6651 49.6129 33.5398 47.5119 33.9078 46.5484C34.5172 44.9529 36.3308 44.2285 38.2727 44.8053ZM64.0302 44.8053C64.9014 45.0641 65.579 45.694 65.9053 46.5484C66.2733 47.5119 66.148 49.6129 65.6595 50.6695C64.9617 52.1789 63.9612 52.9848 62.7853 52.9848C61.6095 52.9848 60.609 52.1789 59.9112 50.6695C59.4227 49.6129 59.2974 47.5119 59.6653 46.5484C60.2747 44.9529 62.0883 44.2285 64.0302 44.8053ZM14.4538 56.6182C17.6149 57.0569 19.5297 57.9273 20.0446 59.1595C20.196 59.5217 20.242 60.6122 20.242 63.833V68.0341H19.0843H17.9267L17.9221 64.8868C17.9172 61.5055 17.8912 61.3774 17.1553 61.0975C16.6776 60.9159 16.1603 61.0926 15.8431 61.5454C15.6483 61.8235 15.6114 62.3663 15.6114 64.9552V68.0341H11.2703H6.9291V64.9552C6.9291 62.3663 6.8922 61.8235 6.69743 61.5454C6.38023 61.0926 5.86291 60.9159 5.38524 61.0975C4.64927 61.3774 4.62337 61.5055 4.61845 64.8868L4.61381 68.0341H3.45617H2.29853V63.833C2.29853 59.206 2.33225 58.9909 3.16647 58.2891C3.91098 57.6625 4.64218 57.3484 6.2678 56.9567C8.85599 56.333 11.585 56.2201 14.4538 56.6182ZM40.2113 56.6218C43.3506 57.0472 45.2867 57.926 45.8021 59.1595C45.9535 59.5217 45.9995 60.6122 45.9995 63.833V68.0341H44.8419H43.6842L43.6796 64.8868C43.6747 61.5055 43.6488 61.3774 42.9128 61.0975C42.4351 60.9159 41.9178 61.0926 41.6006 61.5454C41.4059 61.8235 41.369 62.3663 41.369 64.9552V68.0341H37.0278H32.6866V64.9552C32.6866 62.3663 32.6497 61.8235 32.455 61.5454C32.1378 61.0926 31.6204 60.9159 31.1428 61.0975C30.4068 61.3774 30.3809 61.5055 30.376 64.8868L30.3714 68.0341H29.2137H28.0561V63.833C28.0561 59.206 28.0898 58.9909 28.924 58.2891C29.6685 57.6625 30.3997 57.3484 32.0253 56.9567C34.5836 56.3401 37.3098 56.2286 40.2113 56.6218ZM65.9689 56.6182C69.1299 57.0569 71.0448 57.9273 71.5597 59.1595C71.711 59.5217 71.7571 60.6122 71.7571 63.833V68.0341H70.5994H69.4418L69.4371 64.8868C69.4322 61.5055 69.4063 61.3774 68.6704 61.0975C68.1927 60.9159 67.6754 61.0926 67.3582 61.5454C67.1634 61.8235 67.1265 62.3663 67.1265 64.9552V68.0341H62.7853H58.4442V64.9552C58.4442 62.3663 58.4073 61.8235 58.2125 61.5454C57.8953 61.0926 57.378 60.9159 56.9003 61.0975C56.1643 61.3774 56.1384 61.5055 56.1335 64.8868L56.1289 68.0341H54.9713H53.8136V63.833C53.8136 59.206 53.8473 58.9909 54.6815 58.2891C55.4261 57.6625 56.1573 57.3484 57.7829 56.9567C60.3711 56.333 63.1001 56.2201 65.9689 56.6182Z" fill="url(#paint0_radial_1376_150)" fill-opacity="0.7"/>
<path fill-rule="evenodd" clip-rule="evenodd" d="M36.1701 0.403945C35.8961 0.75225 35.8702 0.97828 35.8702 3.01515C35.8702 5.18993 35.879 5.25403 36.2254 5.60031C36.6953 6.07031 37.3603 6.07031 37.8302 5.60031C38.1766 5.25403 38.1854 5.18993 38.1854 3.01515C38.1854 0.97828 38.1595 0.75225 37.8855 0.403945C37.4619 -0.134648 36.5937 -0.134648 36.1701 0.403945ZM27.3984 2.69318C27.1961 2.89534 27.0431 3.21702 27.0431 3.44015C27.0431 3.90176 28.665 6.86359 29.2328 7.43879C29.7011 7.91328 30.1937 7.94584 30.7136 7.53676C31.3378 7.04577 31.2321 6.49821 30.151 4.62485C29.6319 3.72522 29.0421 2.84252 28.8405 2.66352C28.3636 2.23982 27.8409 2.25053 27.3984 2.69318ZM45.2151 2.66352C45.0135 2.84252 44.4237 3.72522 43.9046 4.62485C42.8235 6.49821 42.7178 7.04577 43.342 7.53676C43.8619 7.94584 44.3545 7.91328 44.8228 7.43879C45.3906 6.86359 47.0125 3.90176 47.0125 3.44015C47.0125 2.947 46.4209 2.33793 45.9418 2.33793C45.7437 2.33793 45.4167 2.48437 45.2151 2.66352ZM34.3507 10.0655C29.9556 10.7151 25.9955 12.6786 22.9855 15.7006C21.3963 17.2964 20.6279 18.3183 20.6279 18.8364C20.6279 19.4294 21.2522 20.2778 22.919 21.9506C25.6618 24.703 29.0124 26.5434 32.8313 27.395C34.8482 27.8447 39.0064 27.8833 40.9348 27.4702C44.8753 26.6263 48.3565 24.7432 51.1366 21.9514C52.8039 20.2773 53.4277 19.4291 53.4277 18.8364C53.4277 18.3183 52.6593 17.2964 51.0701 15.7006C48.3299 12.9493 44.4274 10.8949 40.6454 10.2125C38.9229 9.90168 35.9321 9.83178 34.3507 10.0655ZM39.5872 12.4023C42.259 12.799 44.8312 13.822 47.1572 15.4129C48.2901 16.1878 50.7748 18.5403 50.7748 18.8379C50.7748 18.9326 50.3028 19.498 49.7257 20.0943C46.3402 23.5938 41.8767 25.4908 37.0278 25.4908C33.3883 25.4908 30.1429 24.4883 27.0431 22.4067C25.8851 21.6289 23.2808 19.1708 23.2808 18.8555C23.2808 18.5436 25.7331 16.21 26.8984 15.4129C30.7453 12.7817 35.1323 11.7407 39.5872 12.4023ZM35.1942 13.4624C33.6751 14.0261 32.4984 15.0938 31.833 16.5124C31.499 17.2245 31.4566 17.4945 31.4566 18.9067C31.4566 20.4147 31.4808 20.5442 31.9148 21.3667C32.7816 23.0092 34.2907 24.1269 36.1234 24.4841C38.4696 24.941 41.1392 23.5125 42.1907 21.2372C42.5565 20.4455 42.5989 20.196 42.5989 18.8343C42.5989 17.4887 42.5545 17.2203 42.2111 16.4875C41.6688 15.3303 40.6894 14.3369 39.5216 13.7592C38.6748 13.3403 38.3766 13.2711 37.2449 13.2309C36.2321 13.195 35.7761 13.2464 35.1942 13.4624ZM38.2986 15.7306C40.6592 16.7151 41.1015 19.9927 39.0822 21.5364C38.2141 22.2 37.1564 22.4077 36.1481 22.1126C34.5797 21.6536 33.6996 20.483 33.6996 18.8552C33.6996 17.4774 34.4808 16.2748 35.7254 15.7365C36.3863 15.4507 37.6208 15.4478 38.2986 15.7306ZM14.5261 27.2992C12.3773 28.6875 10.5052 29.9627 10.3658 30.1331C10.1388 30.4108 10.1126 30.8394 10.1126 34.268V38.0933L10.4679 38.4484C10.8989 38.8796 11.5383 38.9122 12.0139 38.5273C12.3515 38.2542 12.3564 38.2108 12.4279 34.8147L12.5003 31.3784L16.0455 29.0879C17.9954 27.8281 19.6723 26.6862 19.7717 26.5505C20.0497 26.1712 19.9927 25.3862 19.6632 25.0567C19.0568 24.4503 18.6829 24.6136 14.5261 27.2992ZM54.4989 24.9481C54.368 25.0477 54.1972 25.3005 54.1195 25.51C53.8297 26.292 54.2156 26.647 58.0101 29.0887L61.5553 31.3702L61.6277 34.8105C61.6992 38.2111 61.704 38.2541 62.0417 38.5273C62.5173 38.9122 63.1567 38.8796 63.5877 38.4484L63.943 38.0933V34.2842C63.943 31.1813 63.9039 30.4193 63.732 30.1739C63.6159 30.0083 61.7381 28.7239 59.5591 27.32C55.5191 24.7169 55.0766 24.5095 54.4989 24.9481ZM36.6453 30.8437C35.9207 31.1362 35.8702 31.3978 35.8702 34.8631V38.0933L36.2254 38.4484C36.4493 38.6724 36.7459 38.8037 37.0278 38.8037C37.3097 38.8037 37.6063 38.6724 37.8302 38.4484L38.1854 38.0933V34.8426C38.1854 33.0548 38.1449 31.4866 38.0956 31.3579C38.0092 31.1327 37.3104 30.6903 37.0712 30.7093C37.0075 30.7143 36.8159 30.7748 36.6453 30.8437ZM9.75085 42.4774C8.04029 42.8939 6.80364 43.8924 6.08807 45.4348C5.76639 46.1282 5.69867 46.5036 5.65309 47.8477C5.57032 50.2794 6.15174 52.0621 7.51284 53.5512C7.83163 53.8999 8.07473 54.1974 8.05331 54.2125C8.0319 54.2275 7.44599 54.3488 6.75126 54.4819C2.96128 55.2085 0.920936 56.5253 0.208986 58.704C0.0048067 59.3287 -0.0226873 60.0832 0.013489 64.0809L0.0555983 68.7313L0.499988 69.2871C1.39514 70.4066 0.810381 70.349 11.2703 70.349C21.7304 70.349 21.1457 70.4066 22.0405 69.2868L22.4849 68.7307V63.788V58.8453L22.13 58.1218C21.634 57.1109 20.5602 56.1172 19.3296 55.5303C18.4233 55.0984 15.3907 54.2871 14.6817 54.2871C14.5031 54.2871 14.6173 54.0669 15.1083 53.4641C16.5054 51.7491 16.9729 50.2682 16.8815 47.8477C16.8128 46.0253 16.4783 45.0717 15.5456 44.0394C14.2361 42.5899 11.888 41.9569 9.75085 42.4774ZM35.5084 42.4774C33.7978 42.8939 32.5612 43.8924 31.8456 45.4348C31.5239 46.1282 31.4562 46.5036 31.4106 47.8477C31.3279 50.2794 31.9093 52.0621 33.2704 53.5512C33.5892 53.8999 33.8323 54.1974 33.8109 54.2125C33.7894 54.2275 33.2035 54.3488 32.5088 54.4819C28.7188 55.2085 26.6785 56.5253 25.9665 58.704C25.7623 59.3287 25.7349 60.0832 25.771 64.0809L25.8131 68.7313L26.2575 69.2871C27.1527 70.4066 26.5679 70.349 37.0278 70.349C47.488 70.349 46.9032 70.4066 47.7981 69.2868L48.2425 68.7307V63.788V58.8453L47.8875 58.1218C47.3916 57.1109 46.3177 56.1172 45.0872 55.5303C44.1809 55.0984 41.1483 54.2871 40.4392 54.2871C40.2607 54.2871 40.3748 54.0669 40.8658 53.4641C42.2629 51.7491 42.7305 50.2682 42.639 47.8477C42.5703 46.0253 42.2359 45.0717 41.3031 44.0394C39.9937 42.5899 37.6455 41.9569 35.5084 42.4774ZM61.2659 42.4774C59.5554 42.8939 58.3187 43.8924 57.6031 45.4348C57.2815 46.1282 57.2138 46.5036 57.1682 47.8477C57.0854 50.2794 57.6668 52.0621 59.0279 53.5512C59.3467 53.8999 59.5898 54.1974 59.5684 54.2125C59.547 54.2275 58.9611 54.3488 58.2663 54.4819C54.4764 55.2085 52.436 56.5253 51.7241 58.704C51.5199 59.3287 51.4924 60.0832 51.5286 64.0809L51.5707 68.7313L52.0151 69.2871C52.9102 70.4066 52.3255 70.349 62.7853 70.349C73.2455 70.349 72.6607 70.4066 73.5556 69.2868L74 68.7307V63.788V58.8453L73.645 58.1218C73.1491 57.1109 72.0753 56.1172 70.8447 55.5303C69.9384 55.0984 66.9058 54.2871 66.1968 54.2871C66.0182 54.2871 66.1324 54.0669 66.6234 53.4641C68.0205 51.7491 68.488 50.2682 68.3966 47.8477C68.3278 46.0253 67.9934 45.0717 67.0607 44.0394C65.7512 42.5899 63.4031 41.9569 61.2659 42.4774ZM12.5152 44.8053C13.3863 45.0641 14.0639 45.694 14.3902 46.5484C14.7582 47.5119 14.6329 49.6129 14.1444 50.6695C13.4466 52.1789 12.4461 52.9848 11.2703 52.9848C10.0944 52.9848 9.09389 52.1789 8.39612 50.6695C7.9076 49.6129 7.78228 47.5119 8.15027 46.5484C8.75962 44.9529 10.5732 44.2285 12.5152 44.8053ZM38.2727 44.8053C39.1438 45.0641 39.8215 45.694 40.1478 46.5484C40.5158 47.5119 40.3905 49.6129 39.9019 50.6695C39.2042 52.1789 38.2037 52.9848 37.0278 52.9848C35.8519 52.9848 34.8514 52.1789 34.1537 50.6695C33.6651 49.6129 33.5398 47.5119 33.9078 46.5484C34.5172 44.9529 36.3308 44.2285 38.2727 44.8053ZM64.0302 44.8053C64.9014 45.0641 65.579 45.694 65.9053 46.5484C66.2733 47.5119 66.148 49.6129 65.6595 50.6695C64.9617 52.1789 63.9612 52.9848 62.7853 52.9848C61.6095 52.9848 60.609 52.1789 59.9112 50.6695C59.4227 49.6129 59.2974 47.5119 59.6653 46.5484C60.2747 44.9529 62.0883 44.2285 64.0302 44.8053ZM14.4538 56.6182C17.6149 57.0569 19.5297 57.9273 20.0446 59.1595C20.196 59.5217 20.242 60.6122 20.242 63.833V68.0341H19.0843H17.9267L17.9221 64.8868C17.9172 61.5055 17.8912 61.3774 17.1553 61.0975C16.6776 60.9159 16.1603 61.0926 15.8431 61.5454C15.6483 61.8235 15.6114 62.3663 15.6114 64.9552V68.0341H11.2703H6.9291V64.9552C6.9291 62.3663 6.8922 61.8235 6.69743 61.5454C6.38023 61.0926 5.86291 60.9159 5.38524 61.0975C4.64927 61.3774 4.62337 61.5055 4.61845 64.8868L4.61381 68.0341H3.45617H2.29853V63.833C2.29853 59.206 2.33225 58.9909 3.16647 58.2891C3.91098 57.6625 4.64218 57.3484 6.2678 56.9567C8.85599 56.333 11.585 56.2201 14.4538 56.6182ZM40.2113 56.6218C43.3506 57.0472 45.2867 57.926 45.8021 59.1595C45.9535 59.5217 45.9995 60.6122 45.9995 63.833V68.0341H44.8419H43.6842L43.6796 64.8868C43.6747 61.5055 43.6488 61.3774 42.9128 61.0975C42.4351 60.9159 41.9178 61.0926 41.6006 61.5454C41.4059 61.8235 41.369 62.3663 41.369 64.9552V68.0341H37.0278H32.6866V64.9552C32.6866 62.3663 32.6497 61.8235 32.455 61.5454C32.1378 61.0926 31.6204 60.9159 31.1428 61.0975C30.4068 61.3774 30.3809 61.5055 30.376 64.8868L30.3714 68.0341H29.2137H28.0561V63.833C28.0561 59.206 28.0898 58.9909 28.924 58.2891C29.6685 57.6625 30.3997 57.3484 32.0253 56.9567C34.5836 56.3401 37.3098 56.2286 40.2113 56.6218ZM65.9689 56.6182C69.1299 57.0569 71.0448 57.9273 71.5597 59.1595C71.711 59.5217 71.7571 60.6122 71.7571 63.833V68.0341H70.5994H69.4418L69.4371 64.8868C69.4322 61.5055 69.4063 61.3774 68.6704 61.0975C68.1927 60.9159 67.6754 61.0926 67.3582 61.5454C67.1634 61.8235 67.1265 62.3663 67.1265 64.9552V68.0341H62.7853H58.4442V64.9552C58.4442 62.3663 58.4073 61.8235 58.2125 61.5454C57.8953 61.0926 57.378 60.9159 56.9003 61.0975C56.1643 61.3774 56.1384 61.5055 56.1335 64.8868L56.1289 68.0341H54.9713H53.8136V63.833C53.8136 59.206 53.8473 58.9909 54.6815 58.2891C55.4261 57.6625 56.1573 57.3484 57.7829 56.9567C60.3711 56.333 63.1001 56.2201 65.9689 56.6182Z" fill="url(#paint1_radial_1376_150)"/>
<defs>
<radialGradient id="paint0_radial_1376_150" cx="0" cy="0" r="1" gradientUnits="userSpaceOnUse" gradientTransform="translate(19.5278 14.6561) rotate(49.62) scale(60.2845 60.8516)">
<stop stop-color="white" stop-opacity="0.59"/>
<stop offset="0.697917" stop-color="white" stop-opacity="0"/>
<stop offset="1" stop-color="white" stop-opacity="0"/>
</radialGradient>
<radialGradient id="paint1_radial_1376_150" cx="0" cy="0" r="1" gradientUnits="userSpaceOnUse" gradientTransform="translate(63.863 61.5558) rotate(-93.8604) scale(60.2268 70.5777)">
<stop stop-opacity="0.23"/>
<stop offset="0.861815" stop-opacity="0"/>
</radialGradient>
</defs>
</svg>
