<svg width="72" height="72" viewBox="0 0 72 72" fill="none" xmlns="http://www.w3.org/2000/svg">
<g id="premium-icon-brain-5694380 1 (Traced)">
<path fill-rule="evenodd" clip-rule="evenodd" d="M25.3851 0.219348C22.4419 0.85071 19.9072 3.1372 18.9966 5.98204L18.8224 6.52644H17.3307C14.8075 6.52644 12.7072 7.26146 10.7652 8.82426C8.43004 10.7032 6.93697 13.7181 6.92956 16.5692L6.92709 17.5383L6.10927 17.9123C1.93717 19.8202 -0.648264 24.6092 0.141653 28.966C0.543806 31.1836 1.46947 32.9667 3.04974 34.5679L4.04124 35.5725L3.26775 36.4123C0.41271 39.5122 -0.263261 43.985 1.54243 47.8285C2.54062 49.9531 3.84256 51.4002 5.86074 52.6284L6.83001 53.2182L6.7973 54.2262C6.76082 55.3488 7.08508 57.1352 7.53039 58.2648C8.0337 59.5416 8.83452 60.7082 10.0013 61.8641C10.8925 62.747 11.4082 63.1171 12.4787 63.6423C14.2498 64.511 15.372 64.7864 17.2034 64.8015L18.6869 64.8139L18.8536 65.5397C19.1667 66.9031 19.9926 68.3465 21.0912 69.4502C22.9035 71.2706 24.814 72 27.771 72C28.8797 72 29.854 71.9152 30.4627 71.7655C32.8115 71.1885 35.0478 69.4091 36.0561 67.3152C36.9015 65.5595 37.0069 64.7744 37.0098 60.2046L37.0122 56.176L41.6994 56.1802L46.3866 56.1844L49.8285 59.5555L53.2704 62.9266L52.9545 63.5799C52.692 64.1226 52.6382 64.4912 52.6373 65.7575C52.6363 67.1341 52.677 67.3701 53.0572 68.1925C53.6072 69.3822 54.9734 70.6863 56.1176 71.114C59.99 72.5612 64.0453 69.8212 64.0453 65.7575C64.0453 61.4618 59.3865 58.6566 55.6245 60.687L54.834 61.1137L54.3891 60.7163C54.1445 60.4978 52.4695 58.8642 50.6668 57.0861L47.3894 53.8532H42.2009H37.0122V49.4254V44.9976H41.95H46.8877L49.98 47.9287C51.6807 49.5408 53.5716 51.3374 54.1819 51.921L55.2915 52.9822H58.0581H60.8244L61.0613 53.6944C61.3673 54.6147 62.2713 55.8704 62.9794 56.3588C64.1877 57.1922 64.8894 57.4097 66.3707 57.4098C67.6183 57.41 67.8446 57.3659 68.7181 56.9526C70.3388 56.1856 71.3743 54.9133 71.8327 53.126C72.4616 50.6741 71.1939 47.995 68.8624 46.8486C67.9642 46.407 67.8052 46.3768 66.3738 46.3768C65.0266 46.3768 64.7496 46.4219 64.0453 46.7557C62.8869 47.3047 61.9739 48.18 61.453 49.241C61.2071 49.7416 60.9725 50.2657 60.9315 50.4053C60.8645 50.6336 60.6214 50.6594 58.5403 50.6594H56.2236L53.0492 47.6595C51.3033 46.0095 49.4075 44.2129 48.8366 43.6672L47.7983 42.6748H42.4053H37.0122V39.5526V36.4301L46.4109 36.4676L55.8095 36.5049L56.024 37.1582C56.3166 38.0491 57.124 39.24 57.796 39.7715C58.1018 40.0135 58.7337 40.3895 59.2003 40.607C59.9354 40.9496 60.2326 41.0026 61.4292 41.0039C62.6822 41.0052 62.9006 40.9623 63.7896 40.5418C68.2013 38.4543 68.2903 32.3798 63.9406 30.2325C62.9273 29.7322 62.7358 29.6877 61.5883 29.6848C60.0485 29.681 59.3623 29.8806 58.2109 30.6677C57.2271 31.3402 56.4811 32.3011 56.0909 33.3985L55.8381 34.1095H46.4251H37.0122V30.9883V27.867H42.9515C48.8896 27.867 48.8909 27.867 49.3101 27.5404C49.5408 27.3607 51.1239 25.9235 52.8283 24.3466L55.9272 21.4794H58.4404H60.9536L61.2157 22.169C61.6046 23.1927 63.1478 24.6816 64.2428 25.0896C65.469 25.5464 66.5535 25.6258 67.6692 25.3404C71.8658 24.2664 73.4117 19.2605 70.5124 16.1328C67.7725 13.1766 63.1689 13.8354 61.3625 17.4421C61.0795 18.0073 60.8478 18.6242 60.8478 18.8131V19.1566H57.9367H55.0256L53.4675 20.5889C52.6106 21.3767 51.0593 22.8112 50.0201 23.7766L48.1307 25.5319L42.5715 25.5382L37.0122 25.5443V21.7697V17.9952H41.8051H46.5979L50.5184 14.3674L54.4388 10.7397L55.1362 11.1727C55.5364 11.4213 56.3181 11.7108 56.9703 11.8522C57.9411 12.0627 58.2561 12.0731 59.1267 11.924C61.8199 11.4627 63.7879 9.50875 64.2274 6.85962C64.5179 5.10794 63.9223 3.27134 62.6229 1.9115C59.4078 -1.45291 53.7931 -0.135748 52.4199 4.30499C52.0262 5.57816 52.048 6.6015 52.4974 7.93884C52.7009 8.54407 52.8152 9.08775 52.7517 9.14684C52.6882 9.20592 51.0716 10.6983 49.1594 12.4633L45.6826 15.6724H41.3586H37.0346L36.9766 11.2809C36.9216 7.11004 36.9012 6.83827 36.5709 5.87316C35.8482 3.76189 34.1142 1.80973 32.1085 0.849839C30.4107 0.0370088 27.5049 -0.235338 25.3851 0.219348ZM30.6673 2.75017C32.2207 3.34117 33.6295 4.74312 34.2749 6.34033L34.6142 7.17972V14.2933V21.4068L34.0561 22.5476C33.0837 24.5353 31.2062 26.0768 29.0852 26.6286C28.6153 26.7508 27.6396 26.8501 26.917 26.8491C24.6685 26.8462 23.0729 26.235 21.5162 24.7805C19.44 22.8405 18.6555 20.142 19.3688 17.3948C19.6242 16.4114 19.6236 16.392 19.3296 15.9988C19.0856 15.6721 18.9187 15.5998 18.4089 15.5998C17.9125 15.5998 17.7323 15.6734 17.5203 15.9628C16.8418 16.8882 16.5865 19.6724 17.0119 21.5046C17.923 25.4287 21.1585 28.4287 25.1668 29.0658C26.4191 29.2648 26.4181 29.2617 25.6258 30.6034C24.9333 31.7762 23.7243 32.897 22.551 33.4548C21.1212 34.1344 20.0995 34.3102 18.2859 34.1888C16.8527 34.093 16.7622 34.104 16.4312 34.4144C16.0627 34.7604 15.975 35.3779 16.2276 35.8496C16.4763 36.3136 17.3467 36.5049 19.2082 36.5049C20.7405 36.5049 21.1085 36.4538 22.2393 36.0836C23.8405 35.5594 25.3426 34.5957 26.4311 33.3941C27.291 32.445 28.2944 30.6959 28.5683 29.6687C28.7215 29.0942 28.7537 29.0691 29.5629 28.8952C30.8724 28.6138 32.657 27.6667 33.7327 26.6821L34.6868 25.8089V35.9249V46.041L33.6735 45.1039C31.7534 43.3281 29.5341 42.488 26.7659 42.489C24.8362 42.4896 23.7383 42.7412 22.0423 43.5714C19.5383 44.7973 17.4518 47.4833 16.8667 50.234C16.4368 52.2554 16.9132 55.5345 17.7187 56.0982C18.1919 56.4292 18.8046 56.3746 19.2148 55.9648C19.6454 55.5348 19.6557 55.2221 19.279 54.0218C18.2659 50.7934 19.9736 47.197 23.3018 45.5497C24.517 44.9482 24.5705 44.9363 26.3204 44.8781C28.3274 44.8113 29.207 44.9899 30.6567 45.7582C31.6921 46.3069 33.2045 47.8766 33.7183 48.9357C34.5562 50.663 34.5857 50.94 34.6508 57.6556C34.6928 61.9746 34.6604 64.0967 34.5441 64.6558C34.1434 66.5838 32.7941 68.2653 30.9457 69.1399C29.9762 69.5985 29.9345 69.6046 27.7832 69.6046C25.6319 69.6046 25.5902 69.5985 24.6208 69.1399C22.8488 68.3014 21.339 66.4732 21.0747 64.8457C20.9911 64.3316 21.0117 64.2953 21.4781 64.1329C23.6081 63.3912 26.5478 60.8644 26.5478 59.7752C26.5478 59.1823 26.0265 58.644 25.4521 58.644C25.0283 58.644 24.7891 58.813 23.7549 59.8422C22.0085 61.5804 20.4275 62.3073 17.9729 62.5004C15.7306 62.6769 13.4127 61.8702 11.7755 60.3435C10.7029 59.3434 10.0609 58.3872 9.58767 57.0849C8.55968 54.2562 9.34277 51.2032 11.6701 48.9661C12.3286 48.3333 12.45 48.1354 12.45 47.6958C12.45 47.0016 12.0353 46.5945 11.3281 46.5945C10.8451 46.5945 10.6702 46.7147 9.68853 47.7196C8.97986 48.4452 8.39574 49.2168 8.04358 49.8926L7.49755 50.9403L6.79018 50.5057C5.77979 49.8846 4.31695 48.271 3.76859 47.1726C2.2652 44.1611 2.64846 40.7314 4.77012 38.2116C5.11719 37.7994 5.58445 37.3209 5.80856 37.1483L6.21595 36.8345L7.39145 37.2225C9.39756 37.8849 12.6662 37.9687 13.3235 37.3746C13.7356 37.0021 13.7124 36.141 13.2793 35.7346C12.9776 35.4514 12.7874 35.4219 11.2809 35.4238C10.243 35.4251 9.2874 35.3412 8.74383 35.2011C6.25127 34.5584 4.24617 32.9651 3.1679 30.7705C2.03862 28.4721 2.03455 26.2122 3.15569 23.8543C3.73734 22.631 5.45989 20.8389 6.61447 20.2557C7.0422 20.0397 7.40235 19.8836 7.41485 19.909C7.42749 19.9343 7.67704 20.4514 7.96961 21.0581C8.26217 21.6646 8.83626 22.5628 9.24554 23.0541C10.025 23.9896 11.8733 25.3991 12.3206 25.3991C12.7991 25.3991 13.3005 25.0758 13.4752 24.6543C13.7319 24.0353 13.4564 23.5438 12.4523 22.8288C8.53033 20.0359 8.17628 14.53 11.7002 11.1318C13.3464 9.54432 15.1156 8.84923 17.5101 8.84923C19.9114 8.84923 21.8996 9.62605 23.5514 11.2095C24.5526 12.1694 24.7985 12.3334 25.2369 12.3334C25.7133 12.3334 26.2572 11.6986 26.2572 11.1424C26.2572 10.7332 26.0799 10.492 25.0291 9.47275C24.0348 8.50836 23.5495 8.16255 22.4814 7.65793C21.1936 7.0495 21.1639 7.0241 21.2421 6.60062C21.4649 5.39437 23.0062 3.65373 24.4598 2.96677C25.6021 2.42701 26.2532 2.32307 28.1466 2.37838C29.4366 2.41598 30.0117 2.50076 30.6673 2.75017ZM59.6851 2.61821C62.1595 3.73561 62.7404 6.68221 60.8571 8.56338C60.1502 9.26951 59.1273 9.72027 58.2317 9.72027C57.5027 9.72027 56.3999 9.28925 55.786 8.7643C53.9512 7.19569 54.0528 4.46264 55.998 3.05387C56.3073 2.82987 56.7565 2.57756 56.9964 2.49307C57.7261 2.23582 58.9663 2.29345 59.6851 2.61821ZM67.3454 16.7619C68.8261 17.2012 69.8811 18.8407 69.6545 20.3502C69.3134 22.6226 66.6983 23.896 64.7374 22.7446C62.8519 21.6375 62.5221 19.1152 64.062 17.5772C64.6326 17.0071 65.5738 16.5783 66.3079 16.5536C66.4733 16.548 66.9401 16.6417 67.3454 16.7619ZM62.9911 32.3487C64.1299 32.929 64.8159 34.0918 64.8077 35.4279C64.7932 37.8473 62.2512 39.4389 60.0425 38.4115C58.6736 37.7747 58.0242 36.6611 58.1124 35.1015C58.1576 34.3019 58.2471 34.0101 58.5994 33.5124C59.1123 32.7883 59.5713 32.4278 60.3476 32.1398C61.0783 31.8688 62.2275 31.9595 62.9911 32.3487ZM67.7596 48.9008C68.9996 49.4633 69.8837 51.0872 69.6442 52.3624C69.164 54.9187 66.2424 56.0255 64.2672 54.3994C63.4945 53.7631 63.1733 53.0273 63.1733 51.8934C63.1733 50.4614 63.8425 49.3864 65.0627 48.8584C65.7651 48.5545 67.0404 48.5745 67.7596 48.9008ZM59.8478 62.7177C61.0711 63.3411 61.8393 64.8007 61.6748 66.1887C61.5104 67.5752 60.5989 68.6594 59.2738 69.0441C56.316 69.903 53.8851 66.9558 55.2668 64.1861C56.0939 62.5283 58.17 61.8628 59.8478 62.7177Z" fill="#0066FF"/>
<path fill-rule="evenodd" clip-rule="evenodd" d="M25.3851 0.219348C22.4419 0.85071 19.9072 3.1372 18.9966 5.98204L18.8224 6.52644H17.3307C14.8075 6.52644 12.7072 7.26146 10.7652 8.82426C8.43004 10.7032 6.93697 13.7181 6.92956 16.5692L6.92709 17.5383L6.10927 17.9123C1.93717 19.8202 -0.648264 24.6092 0.141653 28.966C0.543806 31.1836 1.46947 32.9667 3.04974 34.5679L4.04124 35.5725L3.26775 36.4123C0.41271 39.5122 -0.263261 43.985 1.54243 47.8285C2.54062 49.9531 3.84256 51.4002 5.86074 52.6284L6.83001 53.2182L6.7973 54.2262C6.76082 55.3488 7.08508 57.1352 7.53039 58.2648C8.0337 59.5416 8.83452 60.7082 10.0013 61.8641C10.8925 62.747 11.4082 63.1171 12.4787 63.6423C14.2498 64.511 15.372 64.7864 17.2034 64.8015L18.6869 64.8139L18.8536 65.5397C19.1667 66.9031 19.9926 68.3465 21.0912 69.4502C22.9035 71.2706 24.814 72 27.771 72C28.8797 72 29.854 71.9152 30.4627 71.7655C32.8115 71.1885 35.0478 69.4091 36.0561 67.3152C36.9015 65.5595 37.0069 64.7744 37.0098 60.2046L37.0122 56.176L41.6994 56.1802L46.3866 56.1844L49.8285 59.5555L53.2704 62.9266L52.9545 63.5799C52.692 64.1226 52.6382 64.4912 52.6373 65.7575C52.6363 67.1341 52.677 67.3701 53.0572 68.1925C53.6072 69.3822 54.9734 70.6863 56.1176 71.114C59.99 72.5612 64.0453 69.8212 64.0453 65.7575C64.0453 61.4618 59.3865 58.6566 55.6245 60.687L54.834 61.1137L54.3891 60.7163C54.1445 60.4978 52.4695 58.8642 50.6668 57.0861L47.3894 53.8532H42.2009H37.0122V49.4254V44.9976H41.95H46.8877L49.98 47.9287C51.6807 49.5408 53.5716 51.3374 54.1819 51.921L55.2915 52.9822H58.0581H60.8244L61.0613 53.6944C61.3673 54.6147 62.2713 55.8704 62.9794 56.3588C64.1877 57.1922 64.8894 57.4097 66.3707 57.4098C67.6183 57.41 67.8446 57.3659 68.7181 56.9526C70.3388 56.1856 71.3743 54.9133 71.8327 53.126C72.4616 50.6741 71.1939 47.995 68.8624 46.8486C67.9642 46.407 67.8052 46.3768 66.3738 46.3768C65.0266 46.3768 64.7496 46.4219 64.0453 46.7557C62.8869 47.3047 61.9739 48.18 61.453 49.241C61.2071 49.7416 60.9725 50.2657 60.9315 50.4053C60.8645 50.6336 60.6214 50.6594 58.5403 50.6594H56.2236L53.0492 47.6595C51.3033 46.0095 49.4075 44.2129 48.8366 43.6672L47.7983 42.6748H42.4053H37.0122V39.5526V36.4301L46.4109 36.4676L55.8095 36.5049L56.024 37.1582C56.3166 38.0491 57.124 39.24 57.796 39.7715C58.1018 40.0135 58.7337 40.3895 59.2003 40.607C59.9354 40.9496 60.2326 41.0026 61.4292 41.0039C62.6822 41.0052 62.9006 40.9623 63.7896 40.5418C68.2013 38.4543 68.2903 32.3798 63.9406 30.2325C62.9273 29.7322 62.7358 29.6877 61.5883 29.6848C60.0485 29.681 59.3623 29.8806 58.2109 30.6677C57.2271 31.3402 56.4811 32.3011 56.0909 33.3985L55.8381 34.1095H46.4251H37.0122V30.9883V27.867H42.9515C48.8896 27.867 48.8909 27.867 49.3101 27.5404C49.5408 27.3607 51.1239 25.9235 52.8283 24.3466L55.9272 21.4794H58.4404H60.9536L61.2157 22.169C61.6046 23.1927 63.1478 24.6816 64.2428 25.0896C65.469 25.5464 66.5535 25.6258 67.6692 25.3404C71.8658 24.2664 73.4117 19.2605 70.5124 16.1328C67.7725 13.1766 63.1689 13.8354 61.3625 17.4421C61.0795 18.0073 60.8478 18.6242 60.8478 18.8131V19.1566H57.9367H55.0256L53.4675 20.5889C52.6106 21.3767 51.0593 22.8112 50.0201 23.7766L48.1307 25.5319L42.5715 25.5382L37.0122 25.5443V21.7697V17.9952H41.8051H46.5979L50.5184 14.3674L54.4388 10.7397L55.1362 11.1727C55.5364 11.4213 56.3181 11.7108 56.9703 11.8522C57.9411 12.0627 58.2561 12.0731 59.1267 11.924C61.8199 11.4627 63.7879 9.50875 64.2274 6.85962C64.5179 5.10794 63.9223 3.27134 62.6229 1.9115C59.4078 -1.45291 53.7931 -0.135748 52.4199 4.30499C52.0262 5.57816 52.048 6.6015 52.4974 7.93884C52.7009 8.54407 52.8152 9.08775 52.7517 9.14684C52.6882 9.20592 51.0716 10.6983 49.1594 12.4633L45.6826 15.6724H41.3586H37.0346L36.9766 11.2809C36.9216 7.11004 36.9012 6.83827 36.5709 5.87316C35.8482 3.76189 34.1142 1.80973 32.1085 0.849839C30.4107 0.0370088 27.5049 -0.235338 25.3851 0.219348ZM30.6673 2.75017C32.2207 3.34117 33.6295 4.74312 34.2749 6.34033L34.6142 7.17972V14.2933V21.4068L34.0561 22.5476C33.0837 24.5353 31.2062 26.0768 29.0852 26.6286C28.6153 26.7508 27.6396 26.8501 26.917 26.8491C24.6685 26.8462 23.0729 26.235 21.5162 24.7805C19.44 22.8405 18.6555 20.142 19.3688 17.3948C19.6242 16.4114 19.6236 16.392 19.3296 15.9988C19.0856 15.6721 18.9187 15.5998 18.4089 15.5998C17.9125 15.5998 17.7323 15.6734 17.5203 15.9628C16.8418 16.8882 16.5865 19.6724 17.0119 21.5046C17.923 25.4287 21.1585 28.4287 25.1668 29.0658C26.4191 29.2648 26.4181 29.2617 25.6258 30.6034C24.9333 31.7762 23.7243 32.897 22.551 33.4548C21.1212 34.1344 20.0995 34.3102 18.2859 34.1888C16.8527 34.093 16.7622 34.104 16.4312 34.4144C16.0627 34.7604 15.975 35.3779 16.2276 35.8496C16.4763 36.3136 17.3467 36.5049 19.2082 36.5049C20.7405 36.5049 21.1085 36.4538 22.2393 36.0836C23.8405 35.5594 25.3426 34.5957 26.4311 33.3941C27.291 32.445 28.2944 30.6959 28.5683 29.6687C28.7215 29.0942 28.7537 29.0691 29.5629 28.8952C30.8724 28.6138 32.657 27.6667 33.7327 26.6821L34.6868 25.8089V35.9249V46.041L33.6735 45.1039C31.7534 43.3281 29.5341 42.488 26.7659 42.489C24.8362 42.4896 23.7383 42.7412 22.0423 43.5714C19.5383 44.7973 17.4518 47.4833 16.8667 50.234C16.4368 52.2554 16.9132 55.5345 17.7187 56.0982C18.1919 56.4292 18.8046 56.3746 19.2148 55.9648C19.6454 55.5348 19.6557 55.2221 19.279 54.0218C18.2659 50.7934 19.9736 47.197 23.3018 45.5497C24.517 44.9482 24.5705 44.9363 26.3204 44.8781C28.3274 44.8113 29.207 44.9899 30.6567 45.7582C31.6921 46.3069 33.2045 47.8766 33.7183 48.9357C34.5562 50.663 34.5857 50.94 34.6508 57.6556C34.6928 61.9746 34.6604 64.0967 34.5441 64.6558C34.1434 66.5838 32.7941 68.2653 30.9457 69.1399C29.9762 69.5985 29.9345 69.6046 27.7832 69.6046C25.6319 69.6046 25.5902 69.5985 24.6208 69.1399C22.8488 68.3014 21.339 66.4732 21.0747 64.8457C20.9911 64.3316 21.0117 64.2953 21.4781 64.1329C23.6081 63.3912 26.5478 60.8644 26.5478 59.7752C26.5478 59.1823 26.0265 58.644 25.4521 58.644C25.0283 58.644 24.7891 58.813 23.7549 59.8422C22.0085 61.5804 20.4275 62.3073 17.9729 62.5004C15.7306 62.6769 13.4127 61.8702 11.7755 60.3435C10.7029 59.3434 10.0609 58.3872 9.58767 57.0849C8.55968 54.2562 9.34277 51.2032 11.6701 48.9661C12.3286 48.3333 12.45 48.1354 12.45 47.6958C12.45 47.0016 12.0353 46.5945 11.3281 46.5945C10.8451 46.5945 10.6702 46.7147 9.68853 47.7196C8.97986 48.4452 8.39574 49.2168 8.04358 49.8926L7.49755 50.9403L6.79018 50.5057C5.77979 49.8846 4.31695 48.271 3.76859 47.1726C2.2652 44.1611 2.64846 40.7314 4.77012 38.2116C5.11719 37.7994 5.58445 37.3209 5.80856 37.1483L6.21595 36.8345L7.39145 37.2225C9.39756 37.8849 12.6662 37.9687 13.3235 37.3746C13.7356 37.0021 13.7124 36.141 13.2793 35.7346C12.9776 35.4514 12.7874 35.4219 11.2809 35.4238C10.243 35.4251 9.2874 35.3412 8.74383 35.2011C6.25127 34.5584 4.24617 32.9651 3.1679 30.7705C2.03862 28.4721 2.03455 26.2122 3.15569 23.8543C3.73734 22.631 5.45989 20.8389 6.61447 20.2557C7.0422 20.0397 7.40235 19.8836 7.41485 19.909C7.42749 19.9343 7.67704 20.4514 7.96961 21.0581C8.26217 21.6646 8.83626 22.5628 9.24554 23.0541C10.025 23.9896 11.8733 25.3991 12.3206 25.3991C12.7991 25.3991 13.3005 25.0758 13.4752 24.6543C13.7319 24.0353 13.4564 23.5438 12.4523 22.8288C8.53033 20.0359 8.17628 14.53 11.7002 11.1318C13.3464 9.54432 15.1156 8.84923 17.5101 8.84923C19.9114 8.84923 21.8996 9.62605 23.5514 11.2095C24.5526 12.1694 24.7985 12.3334 25.2369 12.3334C25.7133 12.3334 26.2572 11.6986 26.2572 11.1424C26.2572 10.7332 26.0799 10.492 25.0291 9.47275C24.0348 8.50836 23.5495 8.16255 22.4814 7.65793C21.1936 7.0495 21.1639 7.0241 21.2421 6.60062C21.4649 5.39437 23.0062 3.65373 24.4598 2.96677C25.6021 2.42701 26.2532 2.32307 28.1466 2.37838C29.4366 2.41598 30.0117 2.50076 30.6673 2.75017ZM59.6851 2.61821C62.1595 3.73561 62.7404 6.68221 60.8571 8.56338C60.1502 9.26951 59.1273 9.72027 58.2317 9.72027C57.5027 9.72027 56.3999 9.28925 55.786 8.7643C53.9512 7.19569 54.0528 4.46264 55.998 3.05387C56.3073 2.82987 56.7565 2.57756 56.9964 2.49307C57.7261 2.23582 58.9663 2.29345 59.6851 2.61821ZM67.3454 16.7619C68.8261 17.2012 69.8811 18.8407 69.6545 20.3502C69.3134 22.6226 66.6983 23.896 64.7374 22.7446C62.8519 21.6375 62.5221 19.1152 64.062 17.5772C64.6326 17.0071 65.5738 16.5783 66.3079 16.5536C66.4733 16.548 66.9401 16.6417 67.3454 16.7619ZM62.9911 32.3487C64.1299 32.929 64.8159 34.0918 64.8077 35.4279C64.7932 37.8473 62.2512 39.4389 60.0425 38.4115C58.6736 37.7747 58.0242 36.6611 58.1124 35.1015C58.1576 34.3019 58.2471 34.0101 58.5994 33.5124C59.1123 32.7883 59.5713 32.4278 60.3476 32.1398C61.0783 31.8688 62.2275 31.9595 62.9911 32.3487ZM67.7596 48.9008C68.9996 49.4633 69.8837 51.0872 69.6442 52.3624C69.164 54.9187 66.2424 56.0255 64.2672 54.3994C63.4945 53.7631 63.1733 53.0273 63.1733 51.8934C63.1733 50.4614 63.8425 49.3864 65.0627 48.8584C65.7651 48.5545 67.0404 48.5745 67.7596 48.9008ZM59.8478 62.7177C61.0711 63.3411 61.8393 64.8007 61.6748 66.1887C61.5104 67.5752 60.5989 68.6594 59.2738 69.0441C56.316 69.903 53.8851 66.9558 55.2668 64.1861C56.0939 62.5283 58.17 61.8628 59.8478 62.7177Z" fill="url(#paint0_radial_1129_140)" fill-opacity="0.7"/>
<path fill-rule="evenodd" clip-rule="evenodd" d="M25.3851 0.219348C22.4419 0.85071 19.9072 3.1372 18.9966 5.98204L18.8224 6.52644H17.3307C14.8075 6.52644 12.7072 7.26146 10.7652 8.82426C8.43004 10.7032 6.93697 13.7181 6.92956 16.5692L6.92709 17.5383L6.10927 17.9123C1.93717 19.8202 -0.648264 24.6092 0.141653 28.966C0.543806 31.1836 1.46947 32.9667 3.04974 34.5679L4.04124 35.5725L3.26775 36.4123C0.41271 39.5122 -0.263261 43.985 1.54243 47.8285C2.54062 49.9531 3.84256 51.4002 5.86074 52.6284L6.83001 53.2182L6.7973 54.2262C6.76082 55.3488 7.08508 57.1352 7.53039 58.2648C8.0337 59.5416 8.83452 60.7082 10.0013 61.8641C10.8925 62.747 11.4082 63.1171 12.4787 63.6423C14.2498 64.511 15.372 64.7864 17.2034 64.8015L18.6869 64.8139L18.8536 65.5397C19.1667 66.9031 19.9926 68.3465 21.0912 69.4502C22.9035 71.2706 24.814 72 27.771 72C28.8797 72 29.854 71.9152 30.4627 71.7655C32.8115 71.1885 35.0478 69.4091 36.0561 67.3152C36.9015 65.5595 37.0069 64.7744 37.0098 60.2046L37.0122 56.176L41.6994 56.1802L46.3866 56.1844L49.8285 59.5555L53.2704 62.9266L52.9545 63.5799C52.692 64.1226 52.6382 64.4912 52.6373 65.7575C52.6363 67.1341 52.677 67.3701 53.0572 68.1925C53.6072 69.3822 54.9734 70.6863 56.1176 71.114C59.99 72.5612 64.0453 69.8212 64.0453 65.7575C64.0453 61.4618 59.3865 58.6566 55.6245 60.687L54.834 61.1137L54.3891 60.7163C54.1445 60.4978 52.4695 58.8642 50.6668 57.0861L47.3894 53.8532H42.2009H37.0122V49.4254V44.9976H41.95H46.8877L49.98 47.9287C51.6807 49.5408 53.5716 51.3374 54.1819 51.921L55.2915 52.9822H58.0581H60.8244L61.0613 53.6944C61.3673 54.6147 62.2713 55.8704 62.9794 56.3588C64.1877 57.1922 64.8894 57.4097 66.3707 57.4098C67.6183 57.41 67.8446 57.3659 68.7181 56.9526C70.3388 56.1856 71.3743 54.9133 71.8327 53.126C72.4616 50.6741 71.1939 47.995 68.8624 46.8486C67.9642 46.407 67.8052 46.3768 66.3738 46.3768C65.0266 46.3768 64.7496 46.4219 64.0453 46.7557C62.8869 47.3047 61.9739 48.18 61.453 49.241C61.2071 49.7416 60.9725 50.2657 60.9315 50.4053C60.8645 50.6336 60.6214 50.6594 58.5403 50.6594H56.2236L53.0492 47.6595C51.3033 46.0095 49.4075 44.2129 48.8366 43.6672L47.7983 42.6748H42.4053H37.0122V39.5526V36.4301L46.4109 36.4676L55.8095 36.5049L56.024 37.1582C56.3166 38.0491 57.124 39.24 57.796 39.7715C58.1018 40.0135 58.7337 40.3895 59.2003 40.607C59.9354 40.9496 60.2326 41.0026 61.4292 41.0039C62.6822 41.0052 62.9006 40.9623 63.7896 40.5418C68.2013 38.4543 68.2903 32.3798 63.9406 30.2325C62.9273 29.7322 62.7358 29.6877 61.5883 29.6848C60.0485 29.681 59.3623 29.8806 58.2109 30.6677C57.2271 31.3402 56.4811 32.3011 56.0909 33.3985L55.8381 34.1095H46.4251H37.0122V30.9883V27.867H42.9515C48.8896 27.867 48.8909 27.867 49.3101 27.5404C49.5408 27.3607 51.1239 25.9235 52.8283 24.3466L55.9272 21.4794H58.4404H60.9536L61.2157 22.169C61.6046 23.1927 63.1478 24.6816 64.2428 25.0896C65.469 25.5464 66.5535 25.6258 67.6692 25.3404C71.8658 24.2664 73.4117 19.2605 70.5124 16.1328C67.7725 13.1766 63.1689 13.8354 61.3625 17.4421C61.0795 18.0073 60.8478 18.6242 60.8478 18.8131V19.1566H57.9367H55.0256L53.4675 20.5889C52.6106 21.3767 51.0593 22.8112 50.0201 23.7766L48.1307 25.5319L42.5715 25.5382L37.0122 25.5443V21.7697V17.9952H41.8051H46.5979L50.5184 14.3674L54.4388 10.7397L55.1362 11.1727C55.5364 11.4213 56.3181 11.7108 56.9703 11.8522C57.9411 12.0627 58.2561 12.0731 59.1267 11.924C61.8199 11.4627 63.7879 9.50875 64.2274 6.85962C64.5179 5.10794 63.9223 3.27134 62.6229 1.9115C59.4078 -1.45291 53.7931 -0.135748 52.4199 4.30499C52.0262 5.57816 52.048 6.6015 52.4974 7.93884C52.7009 8.54407 52.8152 9.08775 52.7517 9.14684C52.6882 9.20592 51.0716 10.6983 49.1594 12.4633L45.6826 15.6724H41.3586H37.0346L36.9766 11.2809C36.9216 7.11004 36.9012 6.83827 36.5709 5.87316C35.8482 3.76189 34.1142 1.80973 32.1085 0.849839C30.4107 0.0370088 27.5049 -0.235338 25.3851 0.219348ZM30.6673 2.75017C32.2207 3.34117 33.6295 4.74312 34.2749 6.34033L34.6142 7.17972V14.2933V21.4068L34.0561 22.5476C33.0837 24.5353 31.2062 26.0768 29.0852 26.6286C28.6153 26.7508 27.6396 26.8501 26.917 26.8491C24.6685 26.8462 23.0729 26.235 21.5162 24.7805C19.44 22.8405 18.6555 20.142 19.3688 17.3948C19.6242 16.4114 19.6236 16.392 19.3296 15.9988C19.0856 15.6721 18.9187 15.5998 18.4089 15.5998C17.9125 15.5998 17.7323 15.6734 17.5203 15.9628C16.8418 16.8882 16.5865 19.6724 17.0119 21.5046C17.923 25.4287 21.1585 28.4287 25.1668 29.0658C26.4191 29.2648 26.4181 29.2617 25.6258 30.6034C24.9333 31.7762 23.7243 32.897 22.551 33.4548C21.1212 34.1344 20.0995 34.3102 18.2859 34.1888C16.8527 34.093 16.7622 34.104 16.4312 34.4144C16.0627 34.7604 15.975 35.3779 16.2276 35.8496C16.4763 36.3136 17.3467 36.5049 19.2082 36.5049C20.7405 36.5049 21.1085 36.4538 22.2393 36.0836C23.8405 35.5594 25.3426 34.5957 26.4311 33.3941C27.291 32.445 28.2944 30.6959 28.5683 29.6687C28.7215 29.0942 28.7537 29.0691 29.5629 28.8952C30.8724 28.6138 32.657 27.6667 33.7327 26.6821L34.6868 25.8089V35.9249V46.041L33.6735 45.1039C31.7534 43.3281 29.5341 42.488 26.7659 42.489C24.8362 42.4896 23.7383 42.7412 22.0423 43.5714C19.5383 44.7973 17.4518 47.4833 16.8667 50.234C16.4368 52.2554 16.9132 55.5345 17.7187 56.0982C18.1919 56.4292 18.8046 56.3746 19.2148 55.9648C19.6454 55.5348 19.6557 55.2221 19.279 54.0218C18.2659 50.7934 19.9736 47.197 23.3018 45.5497C24.517 44.9482 24.5705 44.9363 26.3204 44.8781C28.3274 44.8113 29.207 44.9899 30.6567 45.7582C31.6921 46.3069 33.2045 47.8766 33.7183 48.9357C34.5562 50.663 34.5857 50.94 34.6508 57.6556C34.6928 61.9746 34.6604 64.0967 34.5441 64.6558C34.1434 66.5838 32.7941 68.2653 30.9457 69.1399C29.9762 69.5985 29.9345 69.6046 27.7832 69.6046C25.6319 69.6046 25.5902 69.5985 24.6208 69.1399C22.8488 68.3014 21.339 66.4732 21.0747 64.8457C20.9911 64.3316 21.0117 64.2953 21.4781 64.1329C23.6081 63.3912 26.5478 60.8644 26.5478 59.7752C26.5478 59.1823 26.0265 58.644 25.4521 58.644C25.0283 58.644 24.7891 58.813 23.7549 59.8422C22.0085 61.5804 20.4275 62.3073 17.9729 62.5004C15.7306 62.6769 13.4127 61.8702 11.7755 60.3435C10.7029 59.3434 10.0609 58.3872 9.58767 57.0849C8.55968 54.2562 9.34277 51.2032 11.6701 48.9661C12.3286 48.3333 12.45 48.1354 12.45 47.6958C12.45 47.0016 12.0353 46.5945 11.3281 46.5945C10.8451 46.5945 10.6702 46.7147 9.68853 47.7196C8.97986 48.4452 8.39574 49.2168 8.04358 49.8926L7.49755 50.9403L6.79018 50.5057C5.77979 49.8846 4.31695 48.271 3.76859 47.1726C2.2652 44.1611 2.64846 40.7314 4.77012 38.2116C5.11719 37.7994 5.58445 37.3209 5.80856 37.1483L6.21595 36.8345L7.39145 37.2225C9.39756 37.8849 12.6662 37.9687 13.3235 37.3746C13.7356 37.0021 13.7124 36.141 13.2793 35.7346C12.9776 35.4514 12.7874 35.4219 11.2809 35.4238C10.243 35.4251 9.2874 35.3412 8.74383 35.2011C6.25127 34.5584 4.24617 32.9651 3.1679 30.7705C2.03862 28.4721 2.03455 26.2122 3.15569 23.8543C3.73734 22.631 5.45989 20.8389 6.61447 20.2557C7.0422 20.0397 7.40235 19.8836 7.41485 19.909C7.42749 19.9343 7.67704 20.4514 7.96961 21.0581C8.26217 21.6646 8.83626 22.5628 9.24554 23.0541C10.025 23.9896 11.8733 25.3991 12.3206 25.3991C12.7991 25.3991 13.3005 25.0758 13.4752 24.6543C13.7319 24.0353 13.4564 23.5438 12.4523 22.8288C8.53033 20.0359 8.17628 14.53 11.7002 11.1318C13.3464 9.54432 15.1156 8.84923 17.5101 8.84923C19.9114 8.84923 21.8996 9.62605 23.5514 11.2095C24.5526 12.1694 24.7985 12.3334 25.2369 12.3334C25.7133 12.3334 26.2572 11.6986 26.2572 11.1424C26.2572 10.7332 26.0799 10.492 25.0291 9.47275C24.0348 8.50836 23.5495 8.16255 22.4814 7.65793C21.1936 7.0495 21.1639 7.0241 21.2421 6.60062C21.4649 5.39437 23.0062 3.65373 24.4598 2.96677C25.6021 2.42701 26.2532 2.32307 28.1466 2.37838C29.4366 2.41598 30.0117 2.50076 30.6673 2.75017ZM59.6851 2.61821C62.1595 3.73561 62.7404 6.68221 60.8571 8.56338C60.1502 9.26951 59.1273 9.72027 58.2317 9.72027C57.5027 9.72027 56.3999 9.28925 55.786 8.7643C53.9512 7.19569 54.0528 4.46264 55.998 3.05387C56.3073 2.82987 56.7565 2.57756 56.9964 2.49307C57.7261 2.23582 58.9663 2.29345 59.6851 2.61821ZM67.3454 16.7619C68.8261 17.2012 69.8811 18.8407 69.6545 20.3502C69.3134 22.6226 66.6983 23.896 64.7374 22.7446C62.8519 21.6375 62.5221 19.1152 64.062 17.5772C64.6326 17.0071 65.5738 16.5783 66.3079 16.5536C66.4733 16.548 66.9401 16.6417 67.3454 16.7619ZM62.9911 32.3487C64.1299 32.929 64.8159 34.0918 64.8077 35.4279C64.7932 37.8473 62.2512 39.4389 60.0425 38.4115C58.6736 37.7747 58.0242 36.6611 58.1124 35.1015C58.1576 34.3019 58.2471 34.0101 58.5994 33.5124C59.1123 32.7883 59.5713 32.4278 60.3476 32.1398C61.0783 31.8688 62.2275 31.9595 62.9911 32.3487ZM67.7596 48.9008C68.9996 49.4633 69.8837 51.0872 69.6442 52.3624C69.164 54.9187 66.2424 56.0255 64.2672 54.3994C63.4945 53.7631 63.1733 53.0273 63.1733 51.8934C63.1733 50.4614 63.8425 49.3864 65.0627 48.8584C65.7651 48.5545 67.0404 48.5745 67.7596 48.9008ZM59.8478 62.7177C61.0711 63.3411 61.8393 64.8007 61.6748 66.1887C61.5104 67.5752 60.5989 68.6594 59.2738 69.0441C56.316 69.903 53.8851 66.9558 55.2668 64.1861C56.0939 62.5283 58.17 61.8628 59.8478 62.7177Z" fill="url(#paint1_radial_1129_140)"/>
</g>
<defs>
<radialGradient id="paint0_radial_1129_140" cx="0" cy="0" r="1" gradientUnits="userSpaceOnUse" gradientTransform="translate(19 15) rotate(51.0441) scale(60.4401)">
<stop stop-color="white" stop-opacity="0.59"/>
<stop offset="0.697917" stop-color="white" stop-opacity="0"/>
<stop offset="1" stop-color="white" stop-opacity="0"/>
</radialGradient>
<radialGradient id="paint1_radial_1129_140" cx="0" cy="0" r="1" gradientUnits="userSpaceOnUse" gradientTransform="translate(62.137 63) rotate(-93.6705) scale(61.6264 68.6852)">
<stop stop-opacity="0.23"/>
<stop offset="0.861815" stop-opacity="0"/>
</radialGradient>
</defs>
</svg>
