<svg width="10" height="11" viewBox="0 0 10 11" fill="none" xmlns="http://www.w3.org/2000/svg">
<path d="M9.82439 4.43078L8.57316 3.41102V1.78012C8.57316 1.59647 8.42372 1.44703 8.24007 1.44703H7.45276C7.26911 1.44703 7.11968 1.59647 7.11968 1.78012V2.22637L5.44778 0.863765C5.32683 0.765231 5.16744 0.710938 4.99895 0.710938C4.83114 0.710938 4.67249 0.764898 4.55222 0.862917L0.175631 4.43075C-0.0232235 4.59279 -0.0112928 4.73392 0.0135072 4.80363C0.0382467 4.87319 0.117916 4.98989 0.373365 4.98989H0.972654V9.68181C0.972654 10.0167 1.24433 10.289 1.57827 10.289H3.47083C3.80195 10.289 4.06131 10.0223 4.06131 9.68181V7.75774C4.06131 7.59283 4.21286 7.44267 4.37925 7.44267H5.65105C5.80966 7.44267 5.93872 7.58402 5.93872 7.75774V9.68181C5.93872 10.011 6.223 10.289 6.55948 10.289H8.42175C8.75569 10.289 9.02737 10.0166 9.02737 9.68181V4.98989H9.62666C9.88211 4.98989 9.96175 4.87319 9.98652 4.80363C10.0113 4.73392 10.0232 4.59279 9.82439 4.43078Z" fill="#C4C2C2"/>
</svg>
