<svg width="52" height="52" viewBox="0 0 52 52" fill="none" xmlns="http://www.w3.org/2000/svg">
<path d="M26 0C11.6415 0 0 11.6415 0 26C0 40.3585 11.6415 52 26 52C40.3585 52 52 40.3585 52 26C52 11.6415 40.3585 0 26 0ZM36.1725 46.3125L34.97 43.3875L31.98 44.6225L33.1825 47.5475C31.0408 48.295 28.5707 48.7272 26 48.7272C23.4293 48.7272 20.9593 48.295 18.6583 47.4987L20.02 44.6225L17.03 43.3875L15.8275 46.3125C11.4237 44.07 7.93 40.5763 5.746 36.3025L8.6125 34.97L7.3775 31.9475L4.4525 33.15C3.705 31.0082 3.27275 28.5382 3.27275 25.9675C3.27275 23.3967 3.705 20.9268 4.50125 18.6257L7.3775 19.9875L8.6125 16.9975L5.6875 15.795C7.93325 11.4043 11.427 7.92025 15.6975 5.746L17.03 8.6125L20.02 7.3775L18.8175 4.4525C20.9592 3.705 23.4293 3.27275 26 3.27275C28.5707 3.27275 31.0407 3.705 33.3418 4.50125L31.98 7.3775L34.97 8.6125L36.1725 5.6875C40.5763 7.93 44.07 11.4237 46.254 15.6975L43.3875 17.03L44.6225 20.02L47.5475 18.8175C48.295 20.9592 48.7272 23.4293 48.7272 26C48.7272 28.5707 48.295 31.0407 47.4987 33.3418L44.6225 31.98L43.3875 34.97L46.3125 36.1725C44.07 40.5763 40.5763 44.07 36.3025 46.254L36.1725 46.3125Z" fill="url(#paint0_linear_104_2984)"/>
<path d="M33.67 11.765L29.9 20.8325C28.8307 20.0102 27.4755 19.5098 26.0032 19.5H26.91L30.6475 10.4975C29.263 10.0425 27.6672 9.77275 26.0097 9.75C25.935 9.75 25.857 9.75 25.779 9.75C16.6952 9.75 9.33398 17.1113 9.33398 26.195C9.33398 35.2788 16.6952 42.64 25.779 42.64C34.8627 42.64 42.224 35.2788 42.224 26.195C42.224 20.007 38.805 14.6153 33.7545 11.8105L33.67 11.765Z" fill="url(#paint1_linear_104_2984)"/>
<defs>
<linearGradient id="paint0_linear_104_2984" x1="48.852" y1="0" x2="4.43049" y2="0" gradientUnits="userSpaceOnUse">
<stop stop-color="#C9BA9B"/>
<stop offset="1" stop-color="#A07E3F"/>
</linearGradient>
<linearGradient id="paint1_linear_104_2984" x1="40.2329" y1="9.75" x2="12.1363" y2="9.75" gradientUnits="userSpaceOnUse">
<stop stop-color="#C9BA9B"/>
<stop offset="1" stop-color="#A07E3F"/>
</linearGradient>
</defs>
</svg>
