<svg width="554" height="433" viewBox="0 0 554 433" fill="none" xmlns="http://www.w3.org/2000/svg">
<rect x="49" y="29.5" width="501" height="341" fill="url(#paint0_linear_104_2782)"/>
<path d="M45 20L0 375.5C474.4 346.3 558 113 540.5 0L45 20Z" fill="white"/>
<line x1="268.5" y1="29.5" x2="268.5" y2="375.5" stroke="#E5E5E5" stroke-dasharray="4 4"/>
<path d="M54 370C212.667 361.667 533.3 282.3 546.5 31.5" stroke="url(#paint1_linear_104_2782)" stroke-width="7" stroke-linecap="round"/>
<g filter="url(#filter0_d_104_2782)">
<rect x="205" y="208" width="126" height="58" rx="10" fill="#131313"/>
</g>
<path d="M224.59 229V223.527L223.154 224.43V223.287L225.65 221.693V229H224.59ZM228.943 229.012L231.416 223.012H228.035V221.969H232.799V222.268L230.086 229.012H228.943ZM243.006 229H241.986L241.67 225.854L239.707 228.666H239.689L237.674 225.854L237.422 229H236.414L236.918 223.65H237.34L239.73 227.113L242.033 223.65H242.449L243.006 229ZM248.59 228.109L248.977 228.736C248.77 228.967 248.477 229.082 248.098 229.082C247.559 229.082 247.25 228.852 247.172 228.391C246.844 228.875 246.32 229.117 245.602 229.117C245.098 229.117 244.697 228.99 244.4 228.736C244.107 228.479 243.961 228.123 243.961 227.67C243.961 227.197 244.133 226.816 244.477 226.527C244.82 226.238 245.299 226.094 245.912 226.094H247.09V225.602C247.09 224.852 246.754 224.477 246.082 224.477C245.805 224.477 245.582 224.539 245.414 224.664C245.25 224.789 245.121 224.986 245.027 225.256L244.148 225.004C244.406 224.059 245.078 223.586 246.164 223.586C246.762 223.586 247.232 223.754 247.576 224.09C247.924 224.422 248.098 224.926 248.098 225.602V227.945C248.098 228.129 248.182 228.221 248.35 228.221C248.436 228.221 248.516 228.184 248.59 228.109ZM245.807 228.303C246.197 228.303 246.508 228.176 246.738 227.922C246.973 227.664 247.09 227.307 247.09 226.85H245.877C245.604 226.85 245.385 226.916 245.221 227.049C245.061 227.182 244.98 227.363 244.98 227.594C244.98 227.812 245.053 227.986 245.197 228.115C245.346 228.24 245.549 228.303 245.807 228.303ZM252.791 223.586C253.494 223.586 254.084 223.834 254.561 224.33C255.041 224.822 255.279 225.498 255.275 226.357C255.275 226.787 255.205 227.182 255.064 227.541C254.924 227.896 254.736 228.189 254.502 228.42C254.268 228.646 254.002 228.822 253.705 228.947C253.408 229.072 253.1 229.135 252.779 229.135C251.924 229.135 251.295 228.85 250.893 228.279V231.303H249.861V223.768H250.846V224.559C251.271 223.91 251.92 223.586 252.791 223.586ZM252.562 228.232C253.066 228.229 253.477 228.051 253.793 227.699C254.109 227.344 254.264 226.896 254.256 226.357C254.256 225.807 254.1 225.357 253.787 225.01C253.479 224.662 253.07 224.488 252.562 224.488C252.055 224.488 251.643 224.664 251.326 225.016C251.014 225.363 250.857 225.811 250.857 226.357C250.857 226.9 251.014 227.348 251.326 227.699C251.643 228.051 252.055 228.229 252.562 228.232ZM260.467 223.768V224.682H258.715V229H257.695V224.682H255.943V223.768H260.467ZM265.711 228.109L266.098 228.736C265.891 228.967 265.598 229.082 265.219 229.082C264.68 229.082 264.371 228.852 264.293 228.391C263.965 228.875 263.441 229.117 262.723 229.117C262.219 229.117 261.818 228.99 261.521 228.736C261.229 228.479 261.082 228.123 261.082 227.67C261.082 227.197 261.254 226.816 261.598 226.527C261.941 226.238 262.42 226.094 263.033 226.094H264.211V225.602C264.211 224.852 263.875 224.477 263.203 224.477C262.926 224.477 262.703 224.539 262.535 224.664C262.371 224.789 262.242 224.986 262.148 225.256L261.27 225.004C261.527 224.059 262.199 223.586 263.285 223.586C263.883 223.586 264.354 223.754 264.697 224.09C265.045 224.422 265.219 224.926 265.219 225.602V227.945C265.219 228.129 265.303 228.221 265.471 228.221C265.557 228.221 265.637 228.184 265.711 228.109ZM262.928 228.303C263.318 228.303 263.629 228.176 263.859 227.922C264.094 227.664 264.211 227.307 264.211 226.85H262.998C262.725 226.85 262.506 226.916 262.342 227.049C262.182 227.182 262.102 227.363 262.102 227.594C262.102 227.812 262.174 227.986 262.318 228.115C262.467 228.24 262.67 228.303 262.928 228.303Z" fill="#A6A6A6"/>
<path d="M304.051 247.279V248.65H302.551V250.162H301.121V248.65H299.621V247.268H301.121V245.744H302.551V247.279H304.051ZM305.896 251L308.223 245.387H305.029V243.969H309.986V244.725L307.502 251H305.896ZM311.58 251L315.898 243.775H317.135L312.816 251H311.58ZM312.43 247.291C311.895 247.291 311.467 247.137 311.146 246.828C310.826 246.52 310.666 246.086 310.666 245.527C310.666 245.008 310.826 244.588 311.146 244.268C311.471 243.947 311.898 243.787 312.43 243.787C312.977 243.787 313.41 243.945 313.73 244.262C314.051 244.574 314.211 244.996 314.211 245.527C314.211 246.086 314.049 246.52 313.725 246.828C313.4 247.137 312.969 247.291 312.43 247.291ZM312.43 246.318C312.66 246.318 312.838 246.25 312.963 246.113C313.088 245.973 313.15 245.777 313.15 245.527C313.15 245.285 313.088 245.098 312.963 244.965C312.838 244.828 312.66 244.76 312.43 244.76C312.211 244.76 312.041 244.828 311.92 244.965C311.799 245.102 311.738 245.289 311.738 245.527C311.738 245.781 311.797 245.977 311.914 246.113C312.035 246.25 312.207 246.318 312.43 246.318ZM317.521 250.631C317.197 250.939 316.77 251.094 316.238 251.094C315.707 251.094 315.277 250.939 314.949 250.631C314.625 250.318 314.463 249.885 314.463 249.33C314.463 248.807 314.625 248.385 314.949 248.064C315.277 247.74 315.707 247.578 316.238 247.578C316.777 247.578 317.207 247.736 317.527 248.053C317.852 248.365 318.014 248.791 318.014 249.33C318.014 249.885 317.85 250.318 317.521 250.631ZM315.717 249.904C315.842 250.041 316.016 250.109 316.238 250.109C316.461 250.109 316.637 250.041 316.766 249.904C316.895 249.768 316.959 249.576 316.959 249.33C316.959 249.088 316.895 248.898 316.766 248.762C316.641 248.621 316.465 248.551 316.238 248.551C316.016 248.551 315.842 248.621 315.717 248.762C315.592 248.898 315.529 249.088 315.529 249.33C315.529 249.576 315.592 249.768 315.717 249.904Z" fill="#D7B185"/>
<path d="M230.418 247.719C230.424 248.617 230.161 249.363 229.627 249.955C229.093 250.548 228.364 250.909 227.439 251.039V253.002H225.936V251.059C224.965 250.935 224.207 250.577 223.66 249.984C223.113 249.392 222.84 248.604 222.84 247.621H224.637C224.637 248.096 224.747 248.487 224.969 248.793C225.197 249.099 225.519 249.307 225.936 249.418V245.805C223.956 245.329 222.977 244.223 222.996 242.484C223.009 241.638 223.276 240.925 223.797 240.346C224.318 239.766 225.031 239.405 225.936 239.262V237.279H227.439V239.242C228.338 239.372 229.031 239.727 229.52 240.307C230.014 240.886 230.268 241.625 230.281 242.523H228.484C228.484 241.671 228.136 241.124 227.439 240.883V244.301C229.406 244.776 230.398 245.915 230.418 247.719ZM224.822 242.416C224.822 242.787 224.904 243.09 225.066 243.324C225.229 243.552 225.519 243.744 225.936 243.9V240.863C225.571 240.961 225.294 241.146 225.105 241.42C224.917 241.687 224.822 242.019 224.822 242.416ZM227.439 249.418C228.214 249.197 228.602 248.663 228.602 247.816C228.602 247.439 228.514 247.12 228.338 246.859C228.162 246.592 227.863 246.371 227.439 246.195V249.418ZM231.775 251V250.736L236.414 245.463C236.844 244.981 237.163 244.529 237.371 244.105C237.586 243.682 237.693 243.233 237.693 242.758C237.693 242.094 237.518 241.576 237.166 241.205C236.814 240.827 236.326 240.639 235.701 240.639C234.503 240.639 233.755 241.28 233.455 242.562L231.854 242.24C232.081 241.166 232.531 240.359 233.201 239.818C233.878 239.271 234.751 238.998 235.818 238.998C236.951 238.998 237.846 239.298 238.504 239.896C239.168 240.495 239.5 241.371 239.5 242.523C239.5 243.292 239.347 243.962 239.041 244.535C238.742 245.102 238.266 245.756 237.615 246.498L235.076 249.359H239.939V251H231.775ZM242.869 251.02L246.99 241.02H241.355V239.281H249.295V239.779L244.773 251.02H242.869ZM255.633 251V248.344H249.754V247.963L256.912 238.617H257.312V246.918H258.826V248.324H257.312V251H255.633ZM252.254 246.918H255.633V242.484L252.254 246.918Z" fill="white"/>
<circle cx="268" cy="325" r="35" fill="#F8F6F2" fill-opacity="0.44"/>
<circle cx="268" cy="325" r="25" fill="#EEE6D9"/>
<g filter="url(#filter1_d_104_2782)">
<circle cx="268" cy="325" r="15" fill="url(#paint2_linear_104_2782)"/>
</g>
<g clip-path="url(#clip0_104_2782)">
<path d="M287 366.5L270 324L312 341.5L294.5 348.5L287 366.5Z" fill="white"/>
<path d="M312.562 340.205L270.237 322.601C269.766 322.404 269.229 322.509 268.869 322.869C268.509 323.229 268.404 323.766 268.601 324.237L286.205 366.562C286.395 367.026 286.84 367.328 287.344 367.334C287.848 367.341 288.3 367.046 288.503 366.594L295.94 349.966L312.594 342.503C312.739 342.437 312.863 342.352 312.968 342.247C313.203 342.012 313.341 341.691 313.334 341.344C313.328 340.84 313.027 340.395 312.562 340.205ZM294.48 347.877C294.342 347.936 294.211 348.028 294.107 348.133C294.002 348.238 293.91 348.368 293.851 348.506L287.403 362.928L272.07 326.07L308.928 341.403L294.48 347.877Z" fill="#131313"/>
</g>
<path d="M52.6572 418.956L55.2412 418.97V428H54.0107V424.192H53.0469L50.9346 428H49.5332L51.7754 424.069C51.1556 423.905 50.6657 423.602 50.3057 423.16C49.9502 422.714 49.7725 422.171 49.7725 421.533C49.7725 420.736 50.0299 420.107 50.5449 419.646C51.0599 419.182 51.764 418.951 52.6572 418.956ZM52.8076 423.14H54.0107V420.05H52.7939C52.2243 420.05 51.7822 420.182 51.4678 420.446C51.1579 420.711 51.0029 421.091 51.0029 421.588C51.0029 422.089 51.1579 422.474 51.4678 422.743C51.7822 423.007 52.2288 423.14 52.8076 423.14ZM61.8105 421.896H63V428H61.8105V425.437H58.7002V428H57.4971V421.896H58.7002V424.363H61.8105V421.896ZM69.0635 424.712C69.8564 424.931 70.2529 425.448 70.2529 426.264C70.2529 426.811 70.0684 427.237 69.6992 427.542C69.3301 427.847 68.7832 428 68.0586 428H64.9756V421.896H67.915C68.5576 421.896 69.0361 422.03 69.3506 422.299C69.665 422.563 69.8268 422.941 69.8359 423.434C69.8359 424.021 69.5785 424.448 69.0635 424.712ZM68.7012 423.618C68.7012 423.372 68.6214 423.178 68.4619 423.037C68.307 422.891 68.0745 422.818 67.7646 422.818H66.124V424.432H67.7646C68.0654 424.432 68.2956 424.359 68.4551 424.213C68.6191 424.067 68.7012 423.869 68.7012 423.618ZM67.9902 427.077C68.373 427.077 68.651 427.009 68.8242 426.872C69.002 426.731 69.0908 426.514 69.0908 426.223C69.0908 425.949 69.002 425.737 68.8242 425.587C68.651 425.432 68.3913 425.354 68.0449 425.354H66.124V427.077H67.9902ZM76.5625 426.961L77.0137 427.692C76.7721 427.961 76.4303 428.096 75.9883 428.096C75.3594 428.096 74.9993 427.827 74.9082 427.289C74.5254 427.854 73.9147 428.137 73.0762 428.137C72.4883 428.137 72.0212 427.989 71.6748 427.692C71.333 427.392 71.1621 426.977 71.1621 426.448C71.1621 425.897 71.3626 425.452 71.7637 425.115C72.1647 424.778 72.723 424.609 73.4385 424.609H74.8125V424.035C74.8125 423.16 74.4206 422.723 73.6367 422.723C73.3132 422.723 73.0534 422.796 72.8574 422.941C72.666 423.087 72.5156 423.317 72.4062 423.632L71.3809 423.338C71.6816 422.235 72.4655 421.684 73.7324 421.684C74.4297 421.684 74.9788 421.88 75.3799 422.271C75.7855 422.659 75.9883 423.247 75.9883 424.035V426.77C75.9883 426.984 76.0863 427.091 76.2822 427.091C76.3825 427.091 76.4759 427.048 76.5625 426.961ZM73.3154 427.187C73.7712 427.187 74.1335 427.038 74.4023 426.742C74.6758 426.441 74.8125 426.024 74.8125 425.491H73.3975C73.0785 425.491 72.8232 425.569 72.6318 425.724C72.445 425.879 72.3516 426.09 72.3516 426.359C72.3516 426.615 72.4359 426.817 72.6045 426.968C72.7777 427.114 73.0146 427.187 73.3154 427.187ZM81.4639 421.684C82.2842 421.684 82.9723 421.973 83.5283 422.552C84.0889 423.126 84.3669 423.914 84.3623 424.917C84.3623 425.418 84.2803 425.879 84.1162 426.298C83.9521 426.713 83.7334 427.054 83.46 427.323C83.1865 427.588 82.8766 427.793 82.5303 427.938C82.1839 428.084 81.8239 428.157 81.4502 428.157C80.4521 428.157 79.7184 427.825 79.249 427.159V430.687H78.0459V421.896H79.1943V422.818C79.6911 422.062 80.4476 421.684 81.4639 421.684ZM81.1973 427.104C81.7852 427.1 82.2637 426.893 82.6328 426.482C83.002 426.068 83.182 425.546 83.1729 424.917C83.1729 424.274 82.9906 423.75 82.626 423.345C82.266 422.939 81.7897 422.736 81.1973 422.736C80.6048 422.736 80.124 422.941 79.7549 423.352C79.3903 423.757 79.208 424.279 79.208 424.917C79.208 425.55 79.3903 426.072 79.7549 426.482C80.124 426.893 80.6048 427.1 81.1973 427.104ZM88.6553 424.377C90.2321 424.377 91.0205 424.979 91.0205 426.182C91.0205 427.394 90.2321 428 88.6553 428H85.8662V421.868H87.0557V424.377H88.6553ZM88.6416 427.063C89.4255 427.063 89.8174 426.77 89.8174 426.182C89.8174 425.603 89.4255 425.313 88.6416 425.313H87.0557V427.063H88.6416ZM153.521 419.92C154.761 419.92 155.771 420.243 156.55 420.891C157.334 421.538 157.726 422.381 157.726 423.42C157.726 424.099 157.546 424.712 157.186 425.259C156.826 425.801 156.326 426.225 155.688 426.53C155.05 426.836 154.335 426.991 153.542 426.995H153.467V428.308H152.236V426.995H152.154C150.951 426.986 149.953 426.646 149.16 425.977C148.367 425.302 147.973 424.45 147.978 423.42C147.978 422.381 148.367 421.538 149.146 420.891C149.93 420.243 150.942 419.92 152.182 419.92H152.236V418.648H153.467V419.92H153.521ZM152.182 425.874H152.236V421.041H152.182C151.252 421.041 150.523 421.257 149.994 421.69C149.465 422.119 149.201 422.7 149.201 423.434C149.201 424.172 149.47 424.764 150.008 425.211C150.546 425.653 151.27 425.874 152.182 425.874ZM153.521 425.874C154.433 425.874 155.158 425.653 155.695 425.211C156.238 424.764 156.509 424.172 156.509 423.434C156.509 422.7 156.242 422.119 155.709 421.69C155.18 421.257 154.451 421.041 153.521 421.041H153.467V425.874H153.521ZM164.596 424.849C164.596 424.99 164.591 425.106 164.582 425.197H159.879C159.929 425.781 160.12 426.25 160.453 426.605C160.79 426.956 161.228 427.132 161.766 427.132C162.185 427.132 162.527 427.052 162.791 426.893C163.06 426.733 163.279 426.482 163.447 426.141L164.411 426.571C164.174 427.091 163.828 427.485 163.372 427.754C162.916 428.023 162.376 428.157 161.752 428.157C160.85 428.157 160.114 427.872 159.544 427.303C158.974 426.729 158.689 425.938 158.689 424.931C158.689 424.019 158.977 423.251 159.551 422.627C160.125 421.998 160.859 421.684 161.752 421.684C162.632 421.684 163.324 421.973 163.83 422.552C164.34 423.131 164.596 423.896 164.596 424.849ZM161.738 422.695C161.292 422.695 160.904 422.834 160.576 423.112C160.253 423.386 160.038 423.769 159.934 424.261H163.365C163.297 423.782 163.121 423.402 162.839 423.119C162.556 422.837 162.189 422.695 161.738 422.695ZM170.167 424.712C170.96 424.931 171.356 425.448 171.356 426.264C171.356 426.811 171.172 427.237 170.803 427.542C170.434 427.847 169.887 428 169.162 428H166.079V421.896H169.019C169.661 421.896 170.14 422.03 170.454 422.299C170.769 422.563 170.93 422.941 170.939 423.434C170.939 424.021 170.682 424.448 170.167 424.712ZM169.805 423.618C169.805 423.372 169.725 423.178 169.565 423.037C169.41 422.891 169.178 422.818 168.868 422.818H167.228V424.432H168.868C169.169 424.432 169.399 424.359 169.559 424.213C169.723 424.067 169.805 423.869 169.805 423.618ZM169.094 427.077C169.477 427.077 169.755 427.009 169.928 426.872C170.105 426.731 170.194 426.514 170.194 426.223C170.194 425.949 170.105 425.737 169.928 425.587C169.755 425.432 169.495 425.354 169.148 425.354H167.228V427.077H169.094ZM176.196 421.684C177.017 421.684 177.705 421.973 178.261 422.552C178.821 423.126 179.099 423.914 179.095 424.917C179.095 425.418 179.013 425.879 178.849 426.298C178.685 426.713 178.466 427.054 178.192 427.323C177.919 427.588 177.609 427.793 177.263 427.938C176.916 428.084 176.556 428.157 176.183 428.157C175.185 428.157 174.451 427.825 173.981 427.159V430.687H172.778V421.896H173.927V422.818C174.424 422.062 175.18 421.684 176.196 421.684ZM175.93 427.104C176.518 427.1 176.996 426.893 177.365 426.482C177.734 426.068 177.914 425.546 177.905 424.917C177.905 424.274 177.723 423.75 177.358 423.345C176.998 422.939 176.522 422.736 175.93 422.736C175.337 422.736 174.856 422.941 174.487 423.352C174.123 423.757 173.94 424.279 173.94 424.917C173.94 425.55 174.123 426.072 174.487 426.482C174.856 426.893 175.337 427.1 175.93 427.104ZM185.486 426.961L185.938 427.692C185.696 427.961 185.354 428.096 184.912 428.096C184.283 428.096 183.923 427.827 183.832 427.289C183.449 427.854 182.839 428.137 182 428.137C181.412 428.137 180.945 427.989 180.599 427.692C180.257 427.392 180.086 426.977 180.086 426.448C180.086 425.897 180.286 425.452 180.688 425.115C181.089 424.778 181.647 424.609 182.362 424.609H183.736V424.035C183.736 423.16 183.344 422.723 182.561 422.723C182.237 422.723 181.977 422.796 181.781 422.941C181.59 423.087 181.439 423.317 181.33 423.632L180.305 423.338C180.605 422.235 181.389 421.684 182.656 421.684C183.354 421.684 183.903 421.88 184.304 422.271C184.709 422.659 184.912 423.247 184.912 424.035V426.77C184.912 426.984 185.01 427.091 185.206 427.091C185.306 427.091 185.4 427.048 185.486 426.961ZM182.239 427.187C182.695 427.187 183.057 427.038 183.326 426.742C183.6 426.441 183.736 426.024 183.736 425.491H182.321C182.002 425.491 181.747 425.569 181.556 425.724C181.369 425.879 181.275 426.09 181.275 426.359C181.275 426.615 181.36 426.817 181.528 426.968C181.701 427.114 181.938 427.187 182.239 427.187ZM187.742 421.896H192.247V428H191.044V422.921H188.877L188.733 424.78C188.647 425.929 188.408 426.77 188.016 427.303C187.624 427.831 187.061 428.096 186.327 428.096V427.077C186.664 427.077 186.938 426.877 187.147 426.476C187.362 426.07 187.494 425.509 187.544 424.794L187.742 421.896ZM197.073 424.377C198.65 424.377 199.438 424.979 199.438 426.182C199.438 427.394 198.65 428 197.073 428H194.284V421.868H195.474V424.377H197.073ZM197.06 427.063C197.843 427.063 198.235 426.77 198.235 426.182C198.235 425.603 197.843 425.313 197.06 425.313H195.474V427.063H197.06ZM260.565 428H259.349L258.802 421.991L255.582 427.986H255.568L252.28 422.005L251.843 428H250.626L251.426 418.689H251.706L255.623 425.744L259.403 418.689H259.684L260.565 428ZM267.285 426.961L267.736 427.692C267.495 427.961 267.153 428.096 266.711 428.096C266.082 428.096 265.722 427.827 265.631 427.289C265.248 427.854 264.637 428.137 263.799 428.137C263.211 428.137 262.744 427.989 262.397 427.692C262.056 427.392 261.885 426.977 261.885 426.448C261.885 425.897 262.085 425.452 262.486 425.115C262.887 424.778 263.446 424.609 264.161 424.609H265.535V424.035C265.535 423.16 265.143 422.723 264.359 422.723C264.036 422.723 263.776 422.796 263.58 422.941C263.389 423.087 263.238 423.317 263.129 423.632L262.104 423.338C262.404 422.235 263.188 421.684 264.455 421.684C265.152 421.684 265.701 421.88 266.103 422.271C266.508 422.659 266.711 423.247 266.711 424.035V426.77C266.711 426.984 266.809 427.091 267.005 427.091C267.105 427.091 267.199 427.048 267.285 426.961ZM264.038 427.187C264.494 427.187 264.856 427.038 265.125 426.742C265.398 426.441 265.535 426.024 265.535 425.491H264.12C263.801 425.491 263.546 425.569 263.354 425.724C263.168 425.879 263.074 426.09 263.074 426.359C263.074 426.615 263.159 426.817 263.327 426.968C263.5 427.114 263.737 427.187 264.038 427.187ZM272.187 421.684C273.007 421.684 273.695 421.973 274.251 422.552C274.812 423.126 275.09 423.914 275.085 424.917C275.085 425.418 275.003 425.879 274.839 426.298C274.675 426.713 274.456 427.054 274.183 427.323C273.909 427.588 273.599 427.793 273.253 427.938C272.907 428.084 272.547 428.157 272.173 428.157C271.175 428.157 270.441 427.825 269.972 427.159V430.687H268.769V421.896H269.917V422.818C270.414 422.062 271.17 421.684 272.187 421.684ZM271.92 427.104C272.508 427.1 272.986 426.893 273.355 426.482C273.725 426.068 273.905 425.546 273.896 424.917C273.896 424.274 273.713 423.75 273.349 423.345C272.989 422.939 272.512 422.736 271.92 422.736C271.327 422.736 270.847 422.941 270.478 423.352C270.113 423.757 269.931 424.279 269.931 424.917C269.931 425.55 270.113 426.072 270.478 426.482C270.847 426.893 271.327 427.1 271.92 427.104ZM281.142 421.896V422.962H279.098V428H277.908V422.962H275.864V421.896H281.142ZM344.729 428L343.718 425.607H339.869L338.892 428H337.586L341.605 418.648H341.927L346.015 428H344.729ZM340.307 424.555H343.273L341.776 420.973L340.307 424.555ZM352.488 421.896V428H351.285V422.962H348.284V428H347.081V421.896H352.488ZM357.868 421.684C358.688 421.684 359.377 421.973 359.933 422.552C360.493 423.126 360.771 423.914 360.767 424.917C360.767 425.418 360.685 425.879 360.521 426.298C360.356 426.713 360.138 427.054 359.864 427.323C359.591 427.588 359.281 427.793 358.935 427.938C358.588 428.084 358.228 428.157 357.854 428.157C356.856 428.157 356.123 427.825 355.653 427.159V430.687H354.45V421.896H355.599V422.818C356.095 422.062 356.852 421.684 357.868 421.684ZM357.602 427.104C358.189 427.1 358.668 426.893 359.037 426.482C359.406 426.068 359.586 425.546 359.577 424.917C359.577 424.274 359.395 423.75 359.03 423.345C358.67 422.939 358.194 422.736 357.602 422.736C357.009 422.736 356.528 422.941 356.159 423.352C355.795 423.757 355.612 424.279 355.612 424.917C355.612 425.55 355.795 426.072 356.159 426.482C356.528 426.893 357.009 427.1 357.602 427.104ZM367.732 424.849C367.732 424.99 367.728 425.106 367.719 425.197H363.016C363.066 425.781 363.257 426.25 363.59 426.605C363.927 426.956 364.365 427.132 364.902 427.132C365.322 427.132 365.663 427.052 365.928 426.893C366.197 426.733 366.415 426.482 366.584 426.141L367.548 426.571C367.311 427.091 366.965 427.485 366.509 427.754C366.053 428.023 365.513 428.157 364.889 428.157C363.986 428.157 363.25 427.872 362.681 427.303C362.111 426.729 361.826 425.938 361.826 424.931C361.826 424.019 362.113 423.251 362.688 422.627C363.262 421.998 363.995 421.684 364.889 421.684C365.768 421.684 366.461 421.973 366.967 422.552C367.477 423.131 367.732 423.896 367.732 424.849ZM364.875 422.695C364.428 422.695 364.041 422.834 363.713 423.112C363.389 423.386 363.175 423.769 363.07 424.261H366.502C366.434 423.782 366.258 423.402 365.976 423.119C365.693 422.837 365.326 422.695 364.875 422.695ZM369.988 421.896H374.493V428H373.29V422.921H371.123L370.979 424.78C370.893 425.929 370.654 426.77 370.262 427.303C369.87 427.831 369.307 428.096 368.573 428.096V427.077C368.91 427.077 369.184 426.877 369.394 426.476C369.608 426.07 369.74 425.509 369.79 424.794L369.988 421.896ZM379.319 424.377C380.896 424.377 381.685 424.979 381.685 426.182C381.685 427.394 380.896 428 379.319 428H376.53V421.868H377.72V424.377H379.319ZM379.306 427.063C380.09 427.063 380.481 426.77 380.481 426.182C380.481 425.603 380.09 425.313 379.306 425.313H377.72V427.063H379.306ZM449.046 428H447.829L447.282 421.991L444.062 427.986H444.049L440.761 422.005L440.323 428H439.106L439.906 418.689H440.187L444.104 425.744L447.884 418.689H448.164L449.046 428ZM455.766 426.961L456.217 427.692C455.975 427.961 455.633 428.096 455.191 428.096C454.562 428.096 454.202 427.827 454.111 427.289C453.729 427.854 453.118 428.137 452.279 428.137C451.691 428.137 451.224 427.989 450.878 427.692C450.536 427.392 450.365 426.977 450.365 426.448C450.365 425.897 450.566 425.452 450.967 425.115C451.368 424.778 451.926 424.609 452.642 424.609H454.016V424.035C454.016 423.16 453.624 422.723 452.84 422.723C452.516 422.723 452.257 422.796 452.061 422.941C451.869 423.087 451.719 423.317 451.609 423.632L450.584 423.338C450.885 422.235 451.669 421.684 452.936 421.684C453.633 421.684 454.182 421.88 454.583 422.271C454.989 422.659 455.191 423.247 455.191 424.035V426.77C455.191 426.984 455.289 427.091 455.485 427.091C455.586 427.091 455.679 427.048 455.766 426.961ZM452.519 427.187C452.974 427.187 453.337 427.038 453.605 426.742C453.879 426.441 454.016 426.024 454.016 425.491H452.601C452.282 425.491 452.026 425.569 451.835 425.724C451.648 425.879 451.555 426.09 451.555 426.359C451.555 426.615 451.639 426.817 451.808 426.968C451.981 427.114 452.218 427.187 452.519 427.187ZM460.223 421.014C459.931 421.014 459.662 420.975 459.416 420.897C459.174 420.82 458.953 420.701 458.753 420.542C458.552 420.378 458.395 420.152 458.281 419.865C458.172 419.574 458.117 419.234 458.117 418.847L459.129 418.73C459.129 419.145 459.231 419.455 459.437 419.66C459.646 419.861 459.913 419.961 460.236 419.961C460.546 419.961 460.801 419.858 461.002 419.653C461.207 419.448 461.31 419.141 461.31 418.73L462.267 418.847C462.267 419.234 462.21 419.574 462.096 419.865C461.986 420.152 461.834 420.378 461.638 420.542C461.446 420.701 461.232 420.82 460.995 420.897C460.758 420.975 460.501 421.014 460.223 421.014ZM462.294 421.827H462.752V428H461.576V424.124L457.728 428.041H457.249V421.896H458.438V425.73L462.294 421.827ZM528.062 418.819H528.37V428H527.181V421.561L521.425 428.123H521.117V418.956H522.307V425.354L528.062 418.819ZM536.061 421.684C536.99 421.684 537.735 421.98 538.296 422.572C538.861 423.16 539.144 423.942 539.144 424.917C539.144 425.865 538.852 426.642 538.269 427.248C537.69 427.854 536.954 428.157 536.061 428.157C535.217 428.157 534.522 427.913 533.976 427.426C533.433 426.934 533.112 426.271 533.012 425.437H531.829V428H530.626V421.896H531.829V424.363H533.025C533.139 423.566 533.474 422.921 534.03 422.429C534.591 421.932 535.268 421.684 536.061 421.684ZM536.061 427.104C536.612 427.104 537.065 426.904 537.421 426.503C537.776 426.102 537.952 425.573 537.947 424.917C537.947 424.256 537.77 423.728 537.414 423.331C537.063 422.935 536.612 422.736 536.061 422.736C535.509 422.736 535.056 422.935 534.7 423.331C534.349 423.728 534.174 424.256 534.174 424.917C534.174 425.573 534.352 426.102 534.707 426.503C535.062 426.904 535.514 427.104 536.061 427.104ZM544.947 421.896H546.137V428H544.947V425.437H541.837V428H540.634V421.896H541.837V424.363H544.947V421.896ZM550.901 424.377C552.478 424.377 553.267 424.979 553.267 426.182C553.267 427.394 552.478 428 550.901 428H548.112V421.868H549.302V424.377H550.901ZM550.888 427.063C551.672 427.063 552.063 426.77 552.063 426.182C552.063 425.603 551.672 425.313 550.888 425.313H549.302V427.063H550.888Z" fill="#848484"/>
<defs>
<filter id="filter0_d_104_2782" x="189" y="203" width="158" height="90" filterUnits="userSpaceOnUse" color-interpolation-filters="sRGB">
<feFlood flood-opacity="0" result="BackgroundImageFix"/>
<feColorMatrix in="SourceAlpha" type="matrix" values="0 0 0 0 0 0 0 0 0 0 0 0 0 0 0 0 0 0 127 0" result="hardAlpha"/>
<feOffset dy="11"/>
<feGaussianBlur stdDeviation="8"/>
<feComposite in2="hardAlpha" operator="out"/>
<feColorMatrix type="matrix" values="0 0 0 0 0 0 0 0 0 0 0 0 0 0 0 0 0 0 0.25 0"/>
<feBlend mode="normal" in2="BackgroundImageFix" result="effect1_dropShadow_104_2782"/>
<feBlend mode="normal" in="SourceGraphic" in2="effect1_dropShadow_104_2782" result="shape"/>
</filter>
<filter id="filter1_d_104_2782" x="218" y="279" width="100" height="100" filterUnits="userSpaceOnUse" color-interpolation-filters="sRGB">
<feFlood flood-opacity="0" result="BackgroundImageFix"/>
<feColorMatrix in="SourceAlpha" type="matrix" values="0 0 0 0 0 0 0 0 0 0 0 0 0 0 0 0 0 0 127 0" result="hardAlpha"/>
<feOffset dy="4"/>
<feGaussianBlur stdDeviation="17.5"/>
<feComposite in2="hardAlpha" operator="out"/>
<feColorMatrix type="matrix" values="0 0 0 0 0 0 0 0 0 0 0 0 0 0 0 0 0 0 0.25 0"/>
<feBlend mode="normal" in2="BackgroundImageFix" result="effect1_dropShadow_104_2782"/>
<feBlend mode="normal" in="SourceGraphic" in2="effect1_dropShadow_104_2782" result="shape"/>
</filter>
<linearGradient id="paint0_linear_104_2782" x1="299.5" y1="29.5" x2="299.5" y2="370.5" gradientUnits="userSpaceOnUse">
<stop stop-color="#EEE6D9"/>
<stop offset="1" stop-color="#EEE6D9" stop-opacity="0"/>
</linearGradient>
<linearGradient id="paint1_linear_104_2782" x1="300.25" y1="31.5" x2="300.25" y2="370" gradientUnits="userSpaceOnUse">
<stop stop-color="#A07E3F"/>
<stop offset="1" stop-color="#C9BA9B"/>
</linearGradient>
<linearGradient id="paint2_linear_104_2782" x1="281.184" y1="310" x2="255.556" y2="310" gradientUnits="userSpaceOnUse">
<stop stop-color="#C9BA9B"/>
<stop offset="1" stop-color="#A07E3F"/>
</linearGradient>
<clipPath id="clip0_104_2782">
<rect width="44.8848" height="44.8848" fill="white" transform="translate(253 338.738) rotate(-45)"/>
</clipPath>
</defs>
</svg>
