<svg width="36" height="36" viewBox="0 0 36 36" fill="none" xmlns="http://www.w3.org/2000/svg">
<path d="M34.875 18H32.625V15.75C32.625 15.075 32.175 14.625 31.5 14.625H29.25V12.375C29.25 11.7 28.8 11.25 28.125 11.25H25.875V9H28.125C28.8 9 29.25 8.55 29.25 7.875V4.5C29.25 3.825 28.8 3.375 28.125 3.375H24.75C24.075 3.375 23.625 3.825 23.625 4.5V6.75H21.375C20.7 6.75 20.25 7.2 20.25 7.875V11.25H15.75V7.875C15.75 7.2 15.3 6.75 14.625 6.75H12.375V4.5C12.375 3.825 11.925 3.375 11.25 3.375H7.875C7.2 3.375 6.75 3.825 6.75 4.5V7.875C6.75 8.55 7.2 9 7.875 9H10.125V11.25H7.875C7.2 11.25 6.75 11.7 6.75 12.375V14.625H4.5C3.825 14.625 3.375 15.075 3.375 15.75V18H1.125C0.45 18 0 18.45 0 19.125V29.25C0 29.925 0.45 30.375 1.125 30.375H4.5C5.175 30.375 5.625 29.925 5.625 29.25V23.625H6.75V29.25C6.75 29.925 7.2 30.375 7.875 30.375H10.125V32.625C10.125 33.3 10.575 33.75 11.25 33.75H15.75C16.425 33.75 16.875 33.3 16.875 32.625V29.25C16.875 28.575 16.425 28.125 15.75 28.125H12.375V27H23.625V28.125H20.25C19.575 28.125 19.125 28.575 19.125 29.25V32.625C19.125 33.3 19.575 33.75 20.25 33.75H24.75C25.425 33.75 25.875 33.3 25.875 32.625V30.375H28.125C28.8 30.375 29.25 29.925 29.25 29.25V23.625H30.375V29.25C30.375 29.925 30.825 30.375 31.5 30.375H34.875C35.55 30.375 36 29.925 36 29.25V19.125C36 18.45 35.55 18 34.875 18ZM15.75 21.375C15.75 22.05 15.3 22.5 14.625 22.5H11.25C10.575 22.5 10.125 22.05 10.125 21.375V18C10.125 17.325 10.575 16.875 11.25 16.875H14.625C15.3 16.875 15.75 17.325 15.75 18V21.375ZM25.875 21.375C25.875 22.05 25.425 22.5 24.75 22.5H21.375C20.7 22.5 20.25 22.05 20.25 21.375V18C20.25 17.325 20.7 16.875 21.375 16.875H24.75C25.425 16.875 25.875 17.325 25.875 18V21.375Z" fill="url(#paint0_linear_152_230)"/>
<defs>
<linearGradient id="paint0_linear_152_230" x1="18" y1="3.375" x2="18" y2="33.75" gradientUnits="userSpaceOnUse">
<stop stop-color="#A07E3F"/>
<stop offset="1" stop-color="#D7B185"/>
</linearGradient>
</defs>
</svg>
