<svg width="40" height="40" viewBox="0 0 40 40" fill="none" xmlns="http://www.w3.org/2000/svg">
<path d="M5.53516 12.3562C4.69422 12.0984 3.92367 11.6377 3.28398 10.998C3.02219 10.7362 2.79281 10.4538 2.59547 10.1565C0.944375 13.0645 0 16.424 0 20.0001C0 23.5762 0.944375 26.9357 2.59555 29.8436C2.79289 29.5463 3.02219 29.264 3.28406 29.0021C3.92367 28.3625 4.69422 27.9016 5.53523 27.6438C4.32391 25.3609 3.63633 22.7595 3.63633 20.0001C3.63633 17.2407 4.32391 14.6392 5.53516 12.3562Z" fill="url(#paint0_linear_152_200)"/>
<path d="M37.4052 10.1577C37.2059 10.4566 36.9758 10.7382 36.716 10.9979C36.0764 11.6375 35.3059 12.0983 34.4648 12.3562C35.6761 14.639 36.3637 17.2406 36.3637 20.0001C36.3637 22.7595 35.6762 25.3609 34.4648 27.6438C35.3058 27.9016 36.0763 28.3625 36.716 29.002C36.9758 29.2618 37.2059 29.5433 37.4052 29.8422C39.0559 26.9347 40 23.5756 40 20C40 16.4244 39.0559 13.0653 37.4052 10.1577Z" fill="url(#paint1_linear_152_200)"/>
<path d="M29.0019 36.7159C28.3506 36.0645 27.8997 35.2877 27.6474 34.4629C25.3635 35.6754 22.7608 36.3636 19.9999 36.3636C17.239 36.3636 14.6362 35.6753 12.3525 34.4629C12.1001 35.2879 11.6492 36.0646 10.9979 36.716C10.7382 36.9758 10.4566 37.2059 10.1577 37.4052C13.0652 39.0559 16.4243 40 19.9999 40C23.5755 40 26.9346 39.0559 29.8422 37.4052C29.5432 37.2059 29.2617 36.9758 29.0019 36.7159Z" fill="url(#paint2_linear_152_200)"/>
<path d="M20 0C16.4244 0 13.0653 0.944141 10.1577 2.59477C10.4566 2.79406 10.7382 3.02422 10.9979 3.28398C11.6494 3.93539 12.1002 4.71211 12.3526 5.53711C14.6364 4.32461 17.2392 3.63641 20.0001 3.63641C22.7609 3.63641 25.3637 4.32469 27.6476 5.53711C27.8999 4.71211 28.3507 3.93539 29.0021 3.28398C29.2619 3.02422 29.5434 2.79406 29.8423 2.59477C26.9347 0.944141 23.5756 0 20 0Z" fill="url(#paint3_linear_152_200)"/>
<path d="M34.1444 31.5734C33.7894 31.2184 33.324 31.0408 32.8587 31.0408C32.3934 31.0408 31.928 31.2182 31.573 31.5734C30.863 32.2834 30.863 33.4346 31.573 34.1446C31.928 34.4996 32.3934 34.6772 32.8587 34.6772C33.324 34.6772 33.7894 34.4996 34.1444 34.1446C34.8545 33.4345 34.8545 32.2834 34.1444 31.5734Z" fill="url(#paint4_linear_152_200)"/>
<path d="M8.42656 5.8555C8.07156 5.5005 7.60617 5.323 7.14086 5.323C6.67555 5.323 6.21016 5.50058 5.85531 5.8555C5.14523 6.56558 5.14523 7.71675 5.85531 8.42675C6.21031 8.78175 6.6757 8.95933 7.14086 8.95933C7.60617 8.95933 8.07156 8.7819 8.42656 8.42675C9.13664 7.71675 9.13664 6.56558 8.42656 5.8555Z" fill="url(#paint5_linear_152_200)"/>
<path d="M34.1449 5.8555C33.7899 5.5005 33.3245 5.323 32.8592 5.323C32.3939 5.323 31.9285 5.50058 31.5735 5.8555C30.8635 6.56558 30.8635 7.71675 31.5735 8.42675C31.9285 8.78175 32.3939 8.95933 32.8592 8.95933C33.3245 8.95933 33.7899 8.7819 34.1449 8.42675C34.8549 7.71675 34.8549 6.56558 34.1449 5.8555Z" fill="url(#paint6_linear_152_200)"/>
<path d="M8.42656 31.5734C8.07156 31.2184 7.60617 31.0408 7.14086 31.0408C6.67555 31.0408 6.21016 31.2182 5.85531 31.5734C5.14523 32.2834 5.14523 33.4346 5.85531 34.1446C6.21031 34.4996 6.6757 34.6772 7.14086 34.6772C7.60617 34.6772 8.07156 34.4996 8.42656 34.1446C9.13664 33.4345 9.13664 32.2834 8.42656 31.5734Z" fill="url(#paint7_linear_152_200)"/>
<path d="M20.0002 7.27271C12.9712 7.27271 7.27295 12.9709 7.27295 20C7.27295 27.029 12.9712 32.7272 20.0002 32.7272C27.0293 32.7272 32.7275 27.029 32.7275 20C32.7275 12.9709 27.0293 7.27271 20.0002 7.27271ZM28.9082 21.8182H23.6365V25.4545H27.2679C25.6077 27.6611 22.9679 29.0908 20.0002 29.0908C15.6101 29.0908 11.9369 25.9625 11.0922 21.8181H16.3639V18.1818H11.0922C11.937 14.0373 15.6101 10.909 20.0002 10.909C22.9679 10.909 25.6077 12.3389 27.2679 14.5454H21.2123V18.1817H28.9082C29.0279 18.7693 29.0911 19.3773 29.0911 19.9999C29.0911 20.6225 29.0279 21.2305 28.9082 21.8182Z" fill="url(#paint8_linear_152_200)"/>
<defs>
<linearGradient id="paint0_linear_152_200" x1="2.76762" y1="10.1565" x2="2.76762" y2="29.8436" gradientUnits="userSpaceOnUse">
<stop stop-color="#A07E3F"/>
<stop offset="1" stop-color="#D7B185"/>
</linearGradient>
<linearGradient id="paint1_linear_152_200" x1="37.2324" y1="10.1577" x2="37.2324" y2="29.8422" gradientUnits="userSpaceOnUse">
<stop stop-color="#A07E3F"/>
<stop offset="1" stop-color="#D7B185"/>
</linearGradient>
<linearGradient id="paint2_linear_152_200" x1="20" y1="34.4629" x2="20" y2="40" gradientUnits="userSpaceOnUse">
<stop stop-color="#A07E3F"/>
<stop offset="1" stop-color="#D7B185"/>
</linearGradient>
<linearGradient id="paint3_linear_152_200" x1="20" y1="0" x2="20" y2="5.53711" gradientUnits="userSpaceOnUse">
<stop stop-color="#A07E3F"/>
<stop offset="1" stop-color="#D7B185"/>
</linearGradient>
<linearGradient id="paint4_linear_152_200" x1="32.8587" y1="31.0408" x2="32.8587" y2="34.6772" gradientUnits="userSpaceOnUse">
<stop stop-color="#A07E3F"/>
<stop offset="1" stop-color="#D7B185"/>
</linearGradient>
<linearGradient id="paint5_linear_152_200" x1="7.14094" y1="5.323" x2="7.14094" y2="8.95933" gradientUnits="userSpaceOnUse">
<stop stop-color="#A07E3F"/>
<stop offset="1" stop-color="#D7B185"/>
</linearGradient>
<linearGradient id="paint6_linear_152_200" x1="32.8592" y1="5.323" x2="32.8592" y2="8.95933" gradientUnits="userSpaceOnUse">
<stop stop-color="#A07E3F"/>
<stop offset="1" stop-color="#D7B185"/>
</linearGradient>
<linearGradient id="paint7_linear_152_200" x1="7.14094" y1="31.0408" x2="7.14094" y2="34.6772" gradientUnits="userSpaceOnUse">
<stop stop-color="#A07E3F"/>
<stop offset="1" stop-color="#D7B185"/>
</linearGradient>
<linearGradient id="paint8_linear_152_200" x1="20.0002" y1="7.27271" x2="20.0002" y2="32.7272" gradientUnits="userSpaceOnUse">
<stop stop-color="#A07E3F"/>
<stop offset="1" stop-color="#D7B185"/>
</linearGradient>
</defs>
</svg>
