<svg width="34" height="34" viewBox="0 0 34 34" fill="none" xmlns="http://www.w3.org/2000/svg">
<path d="M17 34C7.6109 34 0 26.3891 0 17C0 9.3874 5.0031 2.9444 11.9 0.7786V4.3894C8.97757 5.57608 6.55826 7.7413 5.0559 10.5147C3.55354 13.2881 3.0615 16.4973 3.66393 19.5934C4.26637 22.6895 5.92584 25.4801 8.3585 27.4879C10.7912 29.4956 13.8458 30.5957 17 30.6C19.7094 30.5999 22.3571 29.7909 24.6038 28.2765C26.8505 26.7621 28.5939 24.6115 29.6106 22.1H33.2214C31.0556 28.9969 24.6126 34 17 34ZM33.915 18.7H15.3V0.0849999C15.8593 0.0288999 16.4271 0 17 0C26.3891 0 34 7.6109 34 17C34 17.5729 33.9711 18.1407 33.915 18.7ZM18.7 3.5054V15.3H30.4946C30.1162 12.3039 28.7519 9.51887 26.6165 7.3835C24.4811 5.24813 21.6961 3.8838 18.7 3.5054Z" fill="#A07E3F"/>
</svg>
