<svg width="18" height="18" viewBox="0 0 18 18" fill="none" xmlns="http://www.w3.org/2000/svg">
<path d="M18 9C18 4.03742 13.9626 -1.76481e-07 9 -3.93403e-07C4.03741 -6.10324e-07 -2.08383e-06 4.03741 -2.30075e-06 9C-2.51767e-06 13.9626 4.03741 18 9 18C13.9626 18 18 13.9626 18 9ZM1.15103 9C1.15103 4.67208 4.67201 1.15103 9 1.15103C13.328 1.15103 16.849 4.67208 16.849 9C16.849 13.3279 13.3279 16.849 9 16.849C4.67208 16.849 1.15103 13.3279 1.15103 9Z" fill="#D7B185"/>
<path d="M13.1268 9.33383C13.4011 9.19577 13.4011 8.80416 13.1268 8.66611L9.36452 6.77209C9.1159 6.64695 8.82264 6.82766 8.82264 7.10595L8.82264 8.37841L4.95462 8.37841C4.79584 8.37841 4.66712 8.50714 4.66712 8.66598L4.66712 9.33408C4.66712 9.49286 4.79584 9.62165 4.95462 9.62165L8.82264 9.62165L8.82264 10.8941C8.82264 11.1725 9.1159 11.3531 9.36452 11.228L13.1268 9.33383Z" fill="#D7B185"/>
</svg>
