<svg width="14" height="13" viewBox="0 0 14 13" fill="none" xmlns="http://www.w3.org/2000/svg">
<path fill-rule="evenodd" clip-rule="evenodd" d="M13.9984 12.2944C13.9898 12.1737 13.9462 12.0575 13.8723 11.9586C12.8893 10.6424 11.5058 9.63912 9.90495 9.08178C10.8441 8.49301 11.5575 7.63452 11.9395 6.63335C12.3215 5.63219 12.3519 4.54155 12.0261 3.52285C11.7002 2.50415 11.0355 1.61152 10.1304 0.977049C9.22523 0.342583 8.12768 0 7.00018 0C5.87268 0 4.77513 0.342583 3.86997 0.977049C2.96481 1.61152 2.30013 2.50415 1.97431 3.52285C1.64848 4.54155 1.67882 5.63219 2.06083 6.63335C2.44284 7.63452 3.15622 8.49301 4.09541 9.08178C2.49438 9.63918 1.11064 10.6426 0.127609 11.9591C0.0538062 12.058 0.0102133 12.1742 0.00158661 12.2949C-0.00704006 12.4156 0.0196308 12.5363 0.0786895 12.6437C0.137748 12.7511 0.226926 12.8411 0.336493 12.9039C0.44606 12.9668 0.571809 13 0.700018 13L13.3001 12.9996C13.4283 12.9996 13.554 12.9663 13.6636 12.9035C13.7731 12.8406 13.8623 12.7506 13.9213 12.6432C13.9804 12.5358 14.0071 12.4151 13.9984 12.2944Z" fill="url(#paint0_linear_104_41)"/>
<defs>
<linearGradient id="paint0_linear_104_41" x1="13.1525" y1="0" x2="1.19283" y2="0" gradientUnits="userSpaceOnUse">
<stop stop-color="#C9BA9B"/>
<stop offset="1" stop-color="#A07E3F"/>
</linearGradient>
</defs>
</svg>
