<svg width="34" height="44" viewBox="0 0 34 44" fill="none" xmlns="http://www.w3.org/2000/svg">
<path d="M31.7365 21.7273L23.5406 13.5315V9.51354C23.5406 3.56752 17 0 17 0C17 0 10.4595 3.56752 10.4595 9.51354V13.5315L2.26363 21.7273L0.592407 30.9189H10.4595V34.4865C10.4595 40.4325 17 44 17 44C17 44 23.5406 40.4325 23.5406 34.4865V30.9189H33.4076L31.7365 21.7273ZM10.4595 27.3513H4.86711L5.57429 23.4619L10.4595 18.5767V27.3513ZM17.8604 38.8359C17.5714 39.133 17.2791 39.4012 17 39.6382C16.7211 39.4013 16.4286 39.133 16.1396 38.8359C14.7378 37.3946 14.027 35.9312 14.027 34.4865H19.9729C19.973 35.9312 19.2622 37.3947 17.8604 38.8359ZM19.973 30.9189H14.0271V9.51354C14.0271 8.06876 14.7379 6.60541 16.1397 5.16407C16.4273 4.86836 16.7185 4.60127 16.9962 4.36502C18.3345 5.50026 19.973 7.33511 19.973 9.51354V30.9189ZM23.5406 27.3513V18.5767L28.4258 23.4619L29.1329 27.3513H23.5406Z" fill="url(#paint0_linear_104_5564)"/>
<defs>
<linearGradient id="paint0_linear_104_5564" x1="17" y1="0" x2="17" y2="44" gradientUnits="userSpaceOnUse">
<stop stop-color="#A07E3F"/>
<stop offset="1" stop-color="#D7B185"/>
</linearGradient>
</defs>
</svg>
