<svg width="879" height="717" viewBox="0 0 879 717" fill="none" xmlns="http://www.w3.org/2000/svg">
<g filter="url(#filter0_d_104_2831)">
<path d="M246 414.547C258.376 407.402 273.624 407.402 286 414.547L366.378 460.953C378.754 468.098 386.378 481.303 386.378 495.594V588.406C386.378 602.697 378.754 615.902 366.378 623.047L286 669.453C273.624 676.598 258.376 676.598 246 669.453L165.622 623.047C153.246 615.902 145.622 602.697 145.622 588.406V495.594C145.622 481.303 153.246 468.098 165.622 460.953L246 414.547Z" fill="#EEE6D9"/>
<path d="M246.25 414.98C258.471 407.924 273.529 407.924 285.75 414.98L366.128 461.386C378.349 468.442 385.878 481.482 385.878 495.594V588.406C385.878 602.518 378.349 615.558 366.128 622.614L285.75 669.02C273.529 676.076 258.471 676.076 246.25 669.02L165.872 622.614C153.651 615.558 146.122 602.518 146.122 588.406V495.594C146.122 481.482 153.651 468.442 165.872 461.386L246.25 414.98Z" stroke="#D7B185"/>
</g>
<path d="M251.107 569V556.08H252.875V569H251.107ZM262.084 569.225C260.788 569.225 259.643 568.932 258.646 568.346C257.657 567.753 256.902 566.956 256.381 565.953C255.86 564.951 255.6 563.821 255.6 562.564C255.6 561.327 255.873 560.195 256.42 559.166C256.967 558.137 257.738 557.324 258.734 556.725C259.73 556.119 260.847 555.816 262.084 555.816C264.35 555.816 266.101 556.77 267.338 558.678L266 559.596C265.043 558.157 263.738 557.438 262.084 557.438C261.166 557.438 260.342 557.665 259.613 558.121C258.891 558.577 258.331 559.195 257.934 559.977C257.536 560.751 257.338 561.614 257.338 562.564C257.338 563.489 257.536 564.335 257.934 565.104C258.337 565.865 258.904 566.474 259.633 566.93C260.362 567.379 261.179 567.604 262.084 567.604C263.751 567.604 265.056 566.868 266 565.396L267.338 566.305C266.107 568.251 264.356 569.225 262.084 569.225ZM275.287 569.225C273.992 569.225 272.846 568.928 271.85 568.336C270.86 567.737 270.105 566.933 269.584 565.924C269.063 564.908 268.803 563.772 268.803 562.516C268.803 561.279 269.076 560.152 269.623 559.137C270.176 558.115 270.948 557.307 271.938 556.715C272.934 556.116 274.05 555.816 275.287 555.816C276.589 555.816 277.738 556.116 278.734 556.715C279.73 557.314 280.486 558.118 281 559.127C281.521 560.136 281.781 561.266 281.781 562.516C281.781 563.447 281.618 564.326 281.293 565.152C280.967 565.973 280.521 566.682 279.955 567.281C279.389 567.88 278.699 568.355 277.885 568.707C277.077 569.052 276.212 569.225 275.287 569.225ZM272.826 566.93C273.549 567.379 274.369 567.604 275.287 567.604C276.205 567.604 277.025 567.379 277.748 566.93C278.471 566.48 279.027 565.872 279.418 565.104C279.809 564.329 280.004 563.466 280.004 562.516C280.004 561.565 279.809 560.706 279.418 559.938C279.027 559.169 278.471 558.561 277.748 558.111C277.025 557.662 276.205 557.438 275.287 557.438C273.9 557.438 272.764 557.923 271.879 558.893C271 559.863 270.561 561.07 270.561 562.516C270.561 563.466 270.756 564.329 271.146 565.104C271.544 565.872 272.104 566.48 272.826 566.93Z" fill="#131313"/>
<path d="M266 492C257.75 492 251 498.75 251 507C251 515.25 257.75 522 266 522C274.25 522 281 515.25 281 507C281 498.75 274.25 492 266 492ZM272.3 504.45L265.1 511.65C264.5 512.25 263.6 512.25 263 511.65L259.7 508.35C259.1 507.75 259.1 506.85 259.7 506.25C260.3 505.65 261.2 505.65 261.8 506.25C263.043 507.493 265.057 507.493 266.3 506.25L270.2 502.35C270.8 501.75 271.7 501.75 272.3 502.35C272.9 502.95 272.9 503.85 272.3 504.45Z" fill="url(#paint0_linear_104_2831)"/>
<g filter="url(#filter1_d_104_2831)">
<path d="M475 414.547C487.376 407.402 502.624 407.402 515 414.547L595.378 460.953C607.754 468.098 615.378 481.303 615.378 495.594V588.406C615.378 602.697 607.754 615.902 595.378 623.047L515 669.453C502.624 676.598 487.376 676.598 475 669.453L394.622 623.047C382.246 615.902 374.622 602.697 374.622 588.406V495.594C374.622 481.303 382.246 468.098 394.622 460.953L475 414.547Z" fill="white"/>
<path d="M475.25 414.98C487.471 407.924 502.529 407.924 514.75 414.98L595.128 461.386C607.349 468.442 614.878 481.482 614.878 495.594V588.406C614.878 602.518 607.349 615.558 595.128 622.614L514.75 669.02C502.529 676.076 487.471 676.076 475.25 669.02L394.872 622.614C382.651 615.558 375.122 602.518 375.122 588.406V495.594C375.122 481.482 382.651 468.442 394.872 461.386L475.25 414.98Z" stroke="#D7B185"/>
</g>
<path d="M495 487C486.75 487 480 493.75 480 502C480 510.25 486.75 517 495 517C503.25 517 510 510.25 510 502C510 493.75 503.25 487 495 487ZM501.3 499.45L494.1 506.65C493.5 507.25 492.6 507.25 492 506.65L488.7 503.35C488.1 502.75 488.1 501.85 488.7 501.25C489.3 500.65 490.2 500.65 490.8 501.25C492.043 502.493 494.057 502.493 495.3 501.25L499.2 497.35C499.8 496.75 500.7 496.75 501.3 497.35C501.9 497.95 501.9 498.85 501.3 499.45Z" fill="url(#paint1_linear_104_2831)"/>
<path d="M450.578 557.057C451.372 557.258 451.988 557.643 452.424 558.209C452.867 558.775 453.085 559.479 453.078 560.318C453.078 561.458 452.691 562.356 451.916 563.014C451.141 563.671 450.008 564 448.518 564H445.158V551.08H448.303C449.533 551.08 450.487 551.373 451.164 551.959C451.841 552.538 452.18 553.346 452.18 554.381C452.18 555.012 452.04 555.556 451.76 556.012C451.48 556.467 451.086 556.816 450.578 557.057ZM450.48 554.576C450.493 553.938 450.292 553.45 449.875 553.111C449.465 552.773 448.866 552.604 448.078 552.604H446.896V556.617H448.078C448.872 556.617 449.475 556.435 449.885 556.07C450.295 555.699 450.493 555.201 450.48 554.576ZM448.498 562.477C449.507 562.477 450.236 562.294 450.686 561.93C451.135 561.559 451.359 561.015 451.359 560.299C451.359 559.641 451.141 559.114 450.705 558.717C450.269 558.32 449.602 558.121 448.703 558.121L446.896 558.141V562.477H448.498ZM467.541 562.477H468.957V566.119H467.346V564H459.777V555.279H461.496V562.477H465.842V555.279H467.541V562.477ZM477.863 555.182H478.518V564H476.838V558.463L471.34 564.059H470.656V555.279H472.355V560.758L477.863 555.182ZM491.721 559.596C491.721 560.383 491.548 561.1 491.203 561.744C490.865 562.389 490.337 562.932 489.621 563.375C488.905 563.811 488.046 564.078 487.043 564.176V567.799H485.363V564.176C484.576 564.104 483.879 563.938 483.273 563.678C482.674 563.417 482.186 563.082 481.809 562.672C481.438 562.262 481.158 561.799 480.969 561.285C480.78 560.764 480.686 560.201 480.686 559.596C480.686 558.808 480.855 558.092 481.193 557.447C481.538 556.803 482.069 556.262 482.785 555.826C483.501 555.383 484.361 555.113 485.363 555.016V551.402H487.043V555.016C488.56 555.152 489.719 555.641 490.52 556.48C491.32 557.314 491.721 558.352 491.721 559.596ZM487.043 562.721C488.065 562.597 488.833 562.249 489.348 561.676C489.862 561.103 490.113 560.41 490.1 559.596C490.087 558.769 489.829 558.076 489.328 557.516C488.827 556.949 488.065 556.598 487.043 556.461V562.721ZM482.307 559.596C482.307 560.123 482.411 560.602 482.619 561.031C482.827 561.461 483.166 561.829 483.635 562.135C484.104 562.441 484.68 562.636 485.363 562.721V556.461C484.348 556.598 483.583 556.949 483.068 557.516C482.561 558.082 482.307 558.775 482.307 559.596ZM498.742 554.977C499.914 554.977 500.897 555.39 501.691 556.217C502.492 557.037 502.889 558.163 502.883 559.596C502.883 560.312 502.766 560.969 502.531 561.568C502.297 562.161 501.984 562.649 501.594 563.033C501.203 563.411 500.76 563.704 500.266 563.912C499.771 564.12 499.257 564.225 498.723 564.225C497.297 564.225 496.249 563.749 495.578 562.799V567.838H493.859V555.279H495.5V556.598C496.21 555.517 497.29 554.977 498.742 554.977ZM498.361 562.721C499.201 562.714 499.885 562.418 500.412 561.832C500.939 561.24 501.197 560.494 501.184 559.596C501.184 558.678 500.923 557.929 500.402 557.35C499.888 556.77 499.208 556.48 498.361 556.48C497.515 556.48 496.828 556.773 496.301 557.359C495.78 557.939 495.52 558.684 495.52 559.596C495.52 560.501 495.78 561.246 496.301 561.832C496.828 562.418 497.515 562.714 498.361 562.721ZM508.977 564.225C508.039 564.225 507.219 564.02 506.516 563.609C505.812 563.193 505.279 562.636 504.914 561.939C504.556 561.243 504.377 560.462 504.377 559.596C504.377 558.756 504.566 557.988 504.943 557.291C505.327 556.588 505.871 556.028 506.574 555.611C507.284 555.188 508.085 554.977 508.977 554.977C510.363 554.977 511.477 555.416 512.316 556.295C513.156 557.174 513.576 558.274 513.576 559.596C513.576 560.436 513.384 561.207 513 561.91C512.616 562.613 512.069 563.176 511.359 563.6C510.656 564.016 509.862 564.225 508.977 564.225ZM508.977 562.721C509.823 562.721 510.52 562.418 511.066 561.812C511.62 561.201 511.89 560.462 511.877 559.596C511.864 558.71 511.587 557.971 511.047 557.379C510.513 556.78 509.823 556.48 508.977 556.48C508.117 556.48 507.414 556.78 506.867 557.379C506.327 557.978 506.057 558.717 506.057 559.596C506.057 560.475 506.327 561.217 506.867 561.822C507.414 562.421 508.117 562.721 508.977 562.721ZM521.535 559.303C522.668 559.615 523.234 560.354 523.234 561.52C523.234 562.301 522.971 562.91 522.443 563.346C521.916 563.782 521.135 564 520.1 564H515.695V555.279H519.895C520.812 555.279 521.496 555.471 521.945 555.855C522.395 556.233 522.626 556.773 522.639 557.477C522.639 558.316 522.271 558.925 521.535 559.303ZM521.018 557.74C521.018 557.389 520.904 557.112 520.676 556.91C520.454 556.702 520.122 556.598 519.68 556.598H517.336V558.902H519.68C520.109 558.902 520.438 558.798 520.666 558.59C520.9 558.382 521.018 558.098 521.018 557.74ZM520.002 562.682C520.549 562.682 520.946 562.584 521.193 562.389C521.447 562.187 521.574 561.878 521.574 561.461C521.574 561.07 521.447 560.768 521.193 560.553C520.946 560.331 520.575 560.221 520.08 560.221H517.336V562.682H520.002ZM529.25 558.824C531.503 558.824 532.629 559.684 532.629 561.402C532.629 563.134 531.503 564 529.25 564H525.266V555.24H526.984V558.824H529.25ZM534.592 555.24H536.311V564H534.592V555.24ZM529.23 562.662C530.35 562.662 530.91 562.242 530.91 561.402C530.91 560.576 530.35 560.162 529.23 560.162H526.984V562.662H529.23ZM546.916 559.498C546.916 559.7 546.91 559.866 546.896 559.996H540.178C540.249 560.829 540.523 561.5 540.998 562.008C541.48 562.509 542.105 562.76 542.873 562.76C543.472 562.76 543.96 562.646 544.338 562.418C544.722 562.19 545.035 561.832 545.275 561.344L546.652 561.959C546.314 562.701 545.819 563.264 545.168 563.648C544.517 564.033 543.745 564.225 542.854 564.225C541.564 564.225 540.513 563.818 539.699 563.004C538.885 562.184 538.479 561.054 538.479 559.615C538.479 558.313 538.889 557.216 539.709 556.324C540.529 555.426 541.577 554.977 542.854 554.977C544.11 554.977 545.1 555.39 545.822 556.217C546.551 557.044 546.916 558.137 546.916 559.498ZM542.834 556.422C542.196 556.422 541.643 556.62 541.174 557.018C540.712 557.408 540.406 557.955 540.256 558.658H545.158C545.061 557.975 544.81 557.431 544.406 557.027C544.003 556.624 543.479 556.422 542.834 556.422ZM463.381 590.176C462.105 590.176 461.063 589.766 460.256 588.945C459.449 588.118 459.045 586.989 459.045 585.557C459.045 584.229 459.468 583.135 460.314 582.275C461.167 581.41 462.215 580.977 463.459 580.977C464.318 580.977 465.054 581.156 465.666 581.514C466.278 581.865 466.776 582.448 467.16 583.262L465.783 583.965C465.275 582.975 464.494 582.48 463.439 582.48C462.665 582.48 462.017 582.76 461.496 583.32C460.982 583.88 460.725 584.626 460.725 585.557C460.725 586.52 460.988 587.282 461.516 587.842C462.043 588.402 462.684 588.682 463.439 588.682C464.051 588.682 464.546 588.568 464.924 588.34C465.308 588.105 465.62 587.731 465.861 587.217L467.199 587.881C466.529 589.411 465.256 590.176 463.381 590.176ZM476.301 581.182H476.955V590H475.275V584.463L469.777 590.059H469.094V581.279H470.793V586.758L476.301 581.182ZM483.479 590.176C482.202 590.176 481.161 589.766 480.354 588.945C479.546 588.118 479.143 586.989 479.143 585.557C479.143 584.229 479.566 583.135 480.412 582.275C481.265 581.41 482.313 580.977 483.557 580.977C484.416 580.977 485.152 581.156 485.764 581.514C486.376 581.865 486.874 582.448 487.258 583.262L485.881 583.965C485.373 582.975 484.592 582.48 483.537 582.48C482.762 582.48 482.115 582.76 481.594 583.32C481.079 583.88 480.822 584.626 480.822 585.557C480.822 586.52 481.086 587.282 481.613 587.842C482.141 588.402 482.782 588.682 483.537 588.682C484.149 588.682 484.644 588.568 485.021 588.34C485.406 588.105 485.718 587.731 485.959 587.217L487.297 587.881C486.626 589.411 485.354 590.176 483.479 590.176ZM495.695 581.279V582.803H492.775V590H491.076V582.803H488.156V581.279H495.695ZM505.256 585.498C505.256 585.7 505.249 585.866 505.236 585.996H498.518C498.589 586.829 498.863 587.5 499.338 588.008C499.82 588.509 500.445 588.76 501.213 588.76C501.812 588.76 502.3 588.646 502.678 588.418C503.062 588.19 503.374 587.832 503.615 587.344L504.992 587.959C504.654 588.701 504.159 589.264 503.508 589.648C502.857 590.033 502.085 590.225 501.193 590.225C499.904 590.225 498.853 589.818 498.039 589.004C497.225 588.184 496.818 587.054 496.818 585.615C496.818 584.313 497.229 583.216 498.049 582.324C498.869 581.426 499.917 580.977 501.193 580.977C502.45 580.977 503.439 581.39 504.162 582.217C504.891 583.044 505.256 584.137 505.256 585.498ZM501.174 582.422C500.536 582.422 499.982 582.62 499.514 583.018C499.051 583.408 498.745 583.955 498.596 584.658H503.498C503.4 583.975 503.15 583.431 502.746 583.027C502.342 582.624 501.818 582.422 501.174 582.422ZM517.941 590H516.242L515.715 584.756L512.443 589.443H512.414L509.055 584.756L508.635 590H506.955L507.795 581.084H508.498L512.482 586.855L516.32 581.084H517.014L517.941 590ZM524.25 584.824C526.503 584.824 527.629 585.684 527.629 587.402C527.629 589.134 526.503 590 524.25 590H520.266V581.24H521.984V584.824H524.25ZM529.592 581.24H531.311V590H529.592V581.24ZM524.23 588.662C525.35 588.662 525.91 588.242 525.91 587.402C525.91 586.576 525.35 586.162 524.23 586.162H521.984V588.662H524.23Z" fill="#131313"/>
<g filter="url(#filter2_d_104_2831)">
<path d="M136 225.547C148.376 218.402 163.624 218.402 176 225.547L256.378 271.953C268.754 279.098 276.378 292.303 276.378 306.594V399.406C276.378 413.697 268.754 426.902 256.378 434.047L176 480.453C163.624 487.598 148.376 487.598 136 480.453L55.6225 434.047C43.2464 426.902 35.6225 413.697 35.6225 399.406V306.594C35.6225 292.303 43.2464 279.098 55.6225 271.953L136 225.547Z" fill="white"/>
<path d="M136.25 225.98C148.471 218.924 163.529 218.924 175.75 225.98L256.128 272.386C268.349 279.442 275.878 292.482 275.878 306.594V399.406C275.878 413.518 268.349 426.558 256.128 433.614L175.75 480.02C163.529 487.076 148.471 487.076 136.25 480.02L55.8725 433.614C43.6511 426.558 36.1225 413.518 36.1225 399.406V306.594C36.1225 292.482 43.6511 279.442 55.8725 272.386L136.25 225.98Z" stroke="#D7B185"/>
</g>
<path d="M86.332 373.057C87.1263 373.258 87.7415 373.643 88.1777 374.209C88.6204 374.775 88.8385 375.479 88.832 376.318C88.832 377.458 88.4447 378.356 87.6699 379.014C86.8952 379.671 85.7624 380 84.2715 380H80.9121V367.08H84.0566C85.2871 367.08 86.2409 367.373 86.918 367.959C87.5951 368.538 87.9336 369.346 87.9336 370.381C87.9336 371.012 87.7936 371.556 87.5137 372.012C87.2337 372.467 86.8398 372.816 86.332 373.057ZM86.2344 370.576C86.2474 369.938 86.0456 369.45 85.6289 369.111C85.2188 368.773 84.6198 368.604 83.832 368.604H82.6504V372.617H83.832C84.6263 372.617 85.2285 372.435 85.6387 372.07C86.0488 371.699 86.2474 371.201 86.2344 370.576ZM84.252 378.477C85.2611 378.477 85.9902 378.294 86.4395 377.93C86.8887 377.559 87.1133 377.015 87.1133 376.299C87.1133 375.641 86.8952 375.114 86.459 374.717C86.0228 374.32 85.3555 374.121 84.457 374.121L82.6504 374.141V378.477H84.252ZM102.738 371.182H103.393V380H101.713V374.463L96.2148 380.059H95.5312V371.279H97.2305V376.758L102.738 371.182ZM112.377 371.279H114.076V380H112.377V376.338H107.934V380H106.215V371.279H107.934V374.805H112.377V371.279ZM123.061 371.279H124.76V380H123.061V376.338H118.617V380H116.898V371.279H118.617V374.805H123.061V371.279ZM131.527 380.225C130.59 380.225 129.77 380.02 129.066 379.609C128.363 379.193 127.829 378.636 127.465 377.939C127.107 377.243 126.928 376.462 126.928 375.596C126.928 374.756 127.117 373.988 127.494 373.291C127.878 372.588 128.422 372.028 129.125 371.611C129.835 371.188 130.635 370.977 131.527 370.977C132.914 370.977 134.027 371.416 134.867 372.295C135.707 373.174 136.127 374.274 136.127 375.596C136.127 376.436 135.935 377.207 135.551 377.91C135.167 378.613 134.62 379.176 133.91 379.6C133.207 380.016 132.413 380.225 131.527 380.225ZM131.527 378.721C132.374 378.721 133.07 378.418 133.617 377.812C134.171 377.201 134.441 376.462 134.428 375.596C134.415 374.71 134.138 373.971 133.598 373.379C133.064 372.78 132.374 372.48 131.527 372.48C130.668 372.48 129.965 372.78 129.418 373.379C128.878 373.978 128.607 374.717 128.607 375.596C128.607 376.475 128.878 377.217 129.418 377.822C129.965 378.421 130.668 378.721 131.527 378.721ZM144.086 375.303C145.219 375.615 145.785 376.354 145.785 377.52C145.785 378.301 145.521 378.91 144.994 379.346C144.467 379.782 143.686 380 142.65 380H138.246V371.279H142.445C143.363 371.279 144.047 371.471 144.496 371.855C144.945 372.233 145.176 372.773 145.189 373.477C145.189 374.316 144.822 374.925 144.086 375.303ZM143.568 373.74C143.568 373.389 143.454 373.112 143.227 372.91C143.005 372.702 142.673 372.598 142.23 372.598H139.887V374.902H142.23C142.66 374.902 142.989 374.798 143.217 374.59C143.451 374.382 143.568 374.098 143.568 373.74ZM142.553 378.682C143.1 378.682 143.497 378.584 143.744 378.389C143.998 378.187 144.125 377.878 144.125 377.461C144.125 377.07 143.998 376.768 143.744 376.553C143.497 376.331 143.126 376.221 142.631 376.221H139.887V378.682H142.553ZM154.799 378.516L155.443 379.561C155.098 379.945 154.61 380.137 153.979 380.137C153.08 380.137 152.566 379.753 152.436 378.984C151.889 379.792 151.016 380.195 149.818 380.195C148.979 380.195 148.311 379.984 147.816 379.561C147.328 379.131 147.084 378.538 147.084 377.783C147.084 376.995 147.37 376.361 147.943 375.879C148.516 375.397 149.314 375.156 150.336 375.156H152.299V374.336C152.299 373.086 151.739 372.461 150.619 372.461C150.157 372.461 149.786 372.565 149.506 372.773C149.232 372.982 149.018 373.311 148.861 373.76L147.396 373.34C147.826 371.764 148.946 370.977 150.756 370.977C151.752 370.977 152.536 371.257 153.109 371.816C153.689 372.37 153.979 373.21 153.979 374.336V378.242C153.979 378.548 154.118 378.701 154.398 378.701C154.542 378.701 154.675 378.639 154.799 378.516ZM150.16 378.838C150.811 378.838 151.329 378.626 151.713 378.203C152.104 377.773 152.299 377.178 152.299 376.416H150.277C149.822 376.416 149.457 376.527 149.184 376.748C148.917 376.969 148.783 377.272 148.783 377.656C148.783 378.021 148.904 378.311 149.145 378.525C149.392 378.734 149.73 378.838 150.16 378.838ZM164.682 378.477H166.098V382.119H164.486V380H156.918V371.279H158.637V378.477H162.982V371.279H164.682V378.477ZM175.004 371.182H175.658V380H173.979V374.463L168.48 380.059H167.797V371.279H169.496V376.758L175.004 371.182ZM182.426 380.225C181.488 380.225 180.668 380.02 179.965 379.609C179.262 379.193 178.728 378.636 178.363 377.939C178.005 377.243 177.826 376.462 177.826 375.596C177.826 374.756 178.015 373.988 178.393 373.291C178.777 372.588 179.32 372.028 180.023 371.611C180.733 371.188 181.534 370.977 182.426 370.977C183.812 370.977 184.926 371.416 185.766 372.295C186.605 373.174 187.025 374.274 187.025 375.596C187.025 376.436 186.833 377.207 186.449 377.91C186.065 378.613 185.518 379.176 184.809 379.6C184.105 380.016 183.311 380.225 182.426 380.225ZM182.426 378.721C183.272 378.721 183.969 378.418 184.516 377.812C185.069 377.201 185.339 376.462 185.326 375.596C185.313 374.71 185.036 373.971 184.496 373.379C183.962 372.78 183.272 372.48 182.426 372.48C181.566 372.48 180.863 372.78 180.316 373.379C179.776 373.978 179.506 374.717 179.506 375.596C179.506 376.475 179.776 377.217 180.316 377.822C180.863 378.421 181.566 378.721 182.426 378.721ZM195.307 371.279H197.006V380H195.307V376.338H190.863V380H189.145V371.279H190.863V374.805H195.307V371.279ZM205.99 371.279H207.689V380H205.99V376.338H201.547V380H199.828V371.279H201.547V374.805H205.99V371.279ZM214.496 374.824C216.749 374.824 217.875 375.684 217.875 377.402C217.875 379.134 216.749 380 214.496 380H210.512V371.24H212.23V374.824H214.496ZM219.838 371.24H221.557V380H219.838V371.24ZM214.477 378.662C215.596 378.662 216.156 378.242 216.156 377.402C216.156 376.576 215.596 376.162 214.477 376.162H212.23V378.662H214.477ZM232.162 375.498C232.162 375.7 232.156 375.866 232.143 375.996H225.424C225.495 376.829 225.769 377.5 226.244 378.008C226.726 378.509 227.351 378.76 228.119 378.76C228.718 378.76 229.206 378.646 229.584 378.418C229.968 378.19 230.281 377.832 230.521 377.344L231.898 377.959C231.56 378.701 231.065 379.264 230.414 379.648C229.763 380.033 228.992 380.225 228.1 380.225C226.811 380.225 225.759 379.818 224.945 379.004C224.132 378.184 223.725 377.054 223.725 375.615C223.725 374.313 224.135 373.216 224.955 372.324C225.775 371.426 226.824 370.977 228.1 370.977C229.356 370.977 230.346 371.39 231.068 372.217C231.798 373.044 232.162 374.137 232.162 375.498ZM228.08 372.422C227.442 372.422 226.889 372.62 226.42 373.018C225.958 373.408 225.652 373.955 225.502 374.658H230.404C230.307 373.975 230.056 373.431 229.652 373.027C229.249 372.624 228.725 372.422 228.08 372.422ZM109.643 397.182H110.297V406H108.617V400.463L103.119 406.059H102.436V397.279H104.135V402.758L109.643 397.182ZM117.367 401.439C117.966 401.602 118.425 401.869 118.744 402.24C119.063 402.611 119.223 403.07 119.223 403.617C119.223 404.398 118.913 405.023 118.295 405.492C117.683 405.961 116.846 406.195 115.785 406.195C113.786 406.195 112.592 405.469 112.201 404.018L113.646 403.559C113.77 403.956 114.014 404.262 114.379 404.477C114.75 404.691 115.219 404.799 115.785 404.799C116.371 404.799 116.827 404.688 117.152 404.467C117.478 404.245 117.641 403.93 117.641 403.52C117.641 403.09 117.462 402.758 117.104 402.523C116.745 402.283 116.205 402.162 115.482 402.162H114.721V400.844H115.346C116.01 400.844 116.514 400.73 116.859 400.502C117.211 400.274 117.387 399.952 117.387 399.535C117.387 399.177 117.257 398.9 116.996 398.705C116.736 398.503 116.358 398.402 115.863 398.402C114.874 398.402 114.213 398.803 113.881 399.604L112.445 399.096C112.673 398.445 113.09 397.937 113.695 397.572C114.301 397.201 115.023 397.016 115.863 397.016C116.82 397.016 117.579 397.221 118.139 397.631C118.699 398.035 118.979 398.604 118.979 399.34C118.979 399.828 118.835 400.251 118.549 400.609C118.269 400.967 117.875 401.244 117.367 401.439ZM125.268 406.225C124.33 406.225 123.51 406.02 122.807 405.609C122.104 405.193 121.57 404.636 121.205 403.939C120.847 403.243 120.668 402.462 120.668 401.596C120.668 400.756 120.857 399.988 121.234 399.291C121.618 398.588 122.162 398.028 122.865 397.611C123.575 397.188 124.376 396.977 125.268 396.977C126.654 396.977 127.768 397.416 128.607 398.295C129.447 399.174 129.867 400.274 129.867 401.596C129.867 402.436 129.675 403.207 129.291 403.91C128.907 404.613 128.36 405.176 127.65 405.6C126.947 406.016 126.153 406.225 125.268 406.225ZM125.268 404.721C126.114 404.721 126.811 404.418 127.357 403.812C127.911 403.201 128.181 402.462 128.168 401.596C128.155 400.71 127.878 399.971 127.338 399.379C126.804 398.78 126.114 398.48 125.268 398.48C124.408 398.48 123.705 398.78 123.158 399.379C122.618 399.978 122.348 400.717 122.348 401.596C122.348 402.475 122.618 403.217 123.158 403.822C123.705 404.421 124.408 404.721 125.268 404.721ZM136.234 397.221C137.536 397.221 138.578 397.631 139.359 398.451C140.141 399.271 140.531 400.355 140.531 401.703C140.531 402.302 140.417 402.878 140.189 403.432C139.962 403.979 139.649 404.46 139.252 404.877C138.861 405.287 138.376 405.616 137.797 405.863C137.217 406.104 136.596 406.225 135.932 406.225C134.506 406.225 133.383 405.756 132.562 404.818C131.742 403.881 131.332 402.628 131.332 401.059C131.332 399.991 131.433 399.047 131.635 398.227C131.837 397.4 132.169 396.654 132.631 395.99C133.093 395.32 133.721 394.766 134.516 394.33C135.31 393.894 136.273 393.578 137.406 393.383C138.552 393.194 139.555 392.921 140.414 392.562L140.668 393.979C139.906 394.324 138.907 394.597 137.67 394.799C136.296 395.046 135.274 395.447 134.604 396C133.933 396.553 133.487 397.335 133.266 398.344C134.034 397.595 135.023 397.221 136.234 397.221ZM135.932 404.721C136.771 404.721 137.468 404.424 138.021 403.832C138.575 403.233 138.845 402.523 138.832 401.703C138.819 400.792 138.555 400.059 138.041 399.506C137.527 398.952 136.843 398.676 135.99 398.676C135.639 398.676 135.303 398.721 134.984 398.812C134.672 398.904 134.359 399.057 134.047 399.271C133.741 399.486 133.497 399.805 133.314 400.229C133.132 400.652 133.044 401.156 133.051 401.742C133.07 402.647 133.35 403.37 133.891 403.91C134.438 404.451 135.118 404.721 135.932 404.721ZM147.514 396.977C148.686 396.977 149.669 397.39 150.463 398.217C151.264 399.037 151.661 400.163 151.654 401.596C151.654 402.312 151.537 402.969 151.303 403.568C151.068 404.161 150.756 404.649 150.365 405.033C149.975 405.411 149.532 405.704 149.037 405.912C148.542 406.12 148.028 406.225 147.494 406.225C146.068 406.225 145.02 405.749 144.35 404.799V409.838H142.631V397.279H144.271V398.598C144.981 397.517 146.062 396.977 147.514 396.977ZM147.133 404.721C147.973 404.714 148.656 404.418 149.184 403.832C149.711 403.24 149.968 402.494 149.955 401.596C149.955 400.678 149.695 399.929 149.174 399.35C148.66 398.77 147.979 398.48 147.133 398.48C146.286 398.48 145.6 398.773 145.072 399.359C144.551 399.939 144.291 400.684 144.291 401.596C144.291 402.501 144.551 403.246 145.072 403.832C145.6 404.418 146.286 404.714 147.133 404.721ZM161.605 401.498C161.605 401.7 161.599 401.866 161.586 401.996H154.867C154.939 402.829 155.212 403.5 155.688 404.008C156.169 404.509 156.794 404.76 157.562 404.76C158.161 404.76 158.65 404.646 159.027 404.418C159.411 404.19 159.724 403.832 159.965 403.344L161.342 403.959C161.003 404.701 160.508 405.264 159.857 405.648C159.206 406.033 158.435 406.225 157.543 406.225C156.254 406.225 155.202 405.818 154.389 405.004C153.575 404.184 153.168 403.054 153.168 401.615C153.168 400.313 153.578 399.216 154.398 398.324C155.219 397.426 156.267 396.977 157.543 396.977C158.799 396.977 159.789 397.39 160.512 398.217C161.241 399.044 161.605 400.137 161.605 401.498ZM157.523 398.422C156.885 398.422 156.332 398.62 155.863 399.018C155.401 399.408 155.095 399.955 154.945 400.658H159.848C159.75 399.975 159.499 399.431 159.096 399.027C158.692 398.624 158.168 398.422 157.523 398.422ZM170.229 397.279V398.803H167.309V406H165.609V398.803H162.689V397.279H170.229ZM179.789 401.498C179.789 401.7 179.783 401.866 179.77 401.996H173.051C173.122 402.829 173.396 403.5 173.871 404.008C174.353 404.509 174.978 404.76 175.746 404.76C176.345 404.76 176.833 404.646 177.211 404.418C177.595 404.19 177.908 403.832 178.148 403.344L179.525 403.959C179.187 404.701 178.692 405.264 178.041 405.648C177.39 406.033 176.618 406.225 175.727 406.225C174.438 406.225 173.386 405.818 172.572 405.004C171.758 404.184 171.352 403.054 171.352 401.615C171.352 400.313 171.762 399.216 172.582 398.324C173.402 397.426 174.451 396.977 175.727 396.977C176.983 396.977 177.973 397.39 178.695 398.217C179.424 399.044 179.789 400.137 179.789 401.498ZM175.707 398.422C175.069 398.422 174.516 398.62 174.047 399.018C173.585 399.408 173.279 399.955 173.129 400.658H178.031C177.934 399.975 177.683 399.431 177.279 399.027C176.876 398.624 176.352 398.422 175.707 398.422ZM188.07 397.279H189.77V406H188.07V402.338H183.627V406H181.908V397.279H183.627V400.805H188.07V397.279ZM199.799 397.182H200.453V406H198.773V400.463L193.275 406.059H192.592V397.279H194.291V402.758L199.799 397.182ZM206.117 397.279H209.574V406H207.895V402.621H206.801L204.457 406H202.494L204.975 402.436C204.337 402.253 203.832 401.941 203.461 401.498C203.096 401.049 202.914 400.521 202.914 399.916C202.914 399.07 203.197 398.419 203.764 397.963C204.33 397.507 205.115 397.279 206.117 397.279ZM206.195 401.195H207.895V398.695H206.156C205.655 398.695 205.271 398.806 205.004 399.027C204.737 399.249 204.604 399.561 204.604 399.965C204.604 400.785 205.134 401.195 206.195 401.195Z" fill="#131313"/>
<path d="M156 303C147.75 303 141 309.75 141 318C141 326.25 147.75 333 156 333C164.25 333 171 326.25 171 318C171 309.75 164.25 303 156 303ZM162.3 315.45L155.1 322.65C154.5 323.25 153.6 323.25 153 322.65L149.7 319.35C149.1 318.75 149.1 317.85 149.7 317.25C150.3 316.65 151.2 316.65 151.8 317.25C153.043 318.493 155.057 318.493 156.3 317.25L160.2 313.35C160.8 312.75 161.7 312.75 162.3 313.35C162.9 313.95 162.9 314.85 162.3 315.45Z" fill="url(#paint2_linear_104_2831)"/>
<g filter="url(#filter3_d_104_2831)">
<path d="M703 417.547C715.376 410.402 730.624 410.402 743 417.547L823.378 463.953C835.754 471.098 843.378 484.303 843.378 498.594V591.406C843.378 605.697 835.754 618.902 823.378 626.047L743 672.453C730.624 679.598 715.376 679.598 703 672.453L622.622 626.047C610.246 618.902 602.622 605.697 602.622 591.406V498.594C602.622 484.303 610.246 471.098 622.622 463.953L703 417.547Z" fill="white"/>
<path d="M703.25 417.98C715.471 410.924 730.529 410.924 742.75 417.98L823.128 464.386C835.349 471.442 842.878 484.482 842.878 498.594V591.406C842.878 605.518 835.349 618.558 823.128 625.614L742.75 672.02C730.529 679.076 715.471 679.076 703.25 672.02L622.872 625.614C610.651 618.558 603.122 605.518 603.122 591.406V498.594C603.122 484.482 610.651 471.442 622.872 464.386L703.25 417.98Z" stroke="#D7B185"/>
</g>
<path d="M667.094 565.057C667.888 565.258 668.503 565.643 668.939 566.209C669.382 566.775 669.6 567.479 669.594 568.318C669.594 569.458 669.206 570.356 668.432 571.014C667.657 571.671 666.524 572 665.033 572H661.674V559.08H664.818C666.049 559.08 667.003 559.373 667.68 559.959C668.357 560.538 668.695 561.346 668.695 562.381C668.695 563.012 668.555 563.556 668.275 564.012C667.995 564.467 667.602 564.816 667.094 565.057ZM666.996 562.576C667.009 561.938 666.807 561.45 666.391 561.111C665.98 560.773 665.382 560.604 664.594 560.604H663.412V564.617H664.594C665.388 564.617 665.99 564.435 666.4 564.07C666.811 563.699 667.009 563.201 666.996 562.576ZM665.014 570.477C666.023 570.477 666.752 570.294 667.201 569.93C667.65 569.559 667.875 569.015 667.875 568.299C667.875 567.641 667.657 567.114 667.221 566.717C666.785 566.32 666.117 566.121 665.219 566.121L663.412 566.141V570.477H665.014ZM679.135 562.977C680.385 562.977 681.433 563.41 682.279 564.275C683.132 565.135 683.559 566.229 683.559 567.557C683.559 568.989 683.152 570.118 682.338 570.945C681.531 571.766 680.489 572.176 679.213 572.176C677.338 572.176 676.065 571.411 675.395 569.881L676.732 569.217C676.973 569.731 677.283 570.105 677.66 570.34C678.044 570.568 678.542 570.682 679.154 570.682C679.799 570.682 680.368 570.47 680.863 570.047C681.358 569.617 681.671 569.028 681.801 568.279H678.959V566.844H681.801C681.671 566.115 681.358 565.538 680.863 565.115C680.375 564.692 679.805 564.48 679.154 564.48C678.08 564.48 677.302 564.975 676.82 565.965L675.434 565.262C675.818 564.448 676.316 563.865 676.928 563.514C677.54 563.156 678.275 562.977 679.135 562.977ZM693.354 572H691.215L687.426 567.723V572H685.707V563.279H687.426V567.176L690.951 563.279H692.973L689.291 567.342L693.354 572ZM698.715 572.225C697.777 572.225 696.957 572.02 696.254 571.609C695.551 571.193 695.017 570.636 694.652 569.939C694.294 569.243 694.115 568.462 694.115 567.596C694.115 566.756 694.304 565.988 694.682 565.291C695.066 564.588 695.609 564.028 696.312 563.611C697.022 563.188 697.823 562.977 698.715 562.977C700.102 562.977 701.215 563.416 702.055 564.295C702.895 565.174 703.314 566.274 703.314 567.596C703.314 568.436 703.122 569.207 702.738 569.91C702.354 570.613 701.807 571.176 701.098 571.6C700.395 572.016 699.6 572.225 698.715 572.225ZM698.715 570.721C699.561 570.721 700.258 570.418 700.805 569.812C701.358 569.201 701.628 568.462 701.615 567.596C701.602 566.71 701.326 565.971 700.785 565.379C700.251 564.78 699.561 564.48 698.715 564.48C697.855 564.48 697.152 564.78 696.605 565.379C696.065 565.978 695.795 566.717 695.795 567.596C695.795 568.475 696.065 569.217 696.605 569.822C697.152 570.421 697.855 570.721 698.715 570.721ZM713.158 563.279V572H711.439V564.803H707.152V572H705.434V563.279H713.158ZM720.844 562.977C722.016 562.977 722.999 563.39 723.793 564.217C724.594 565.037 724.991 566.163 724.984 567.596C724.984 568.312 724.867 568.969 724.633 569.568C724.398 570.161 724.086 570.649 723.695 571.033C723.305 571.411 722.862 571.704 722.367 571.912C721.872 572.12 721.358 572.225 720.824 572.225C719.398 572.225 718.35 571.749 717.68 570.799V575.838H715.961V563.279H717.602V564.598C718.311 563.517 719.392 562.977 720.844 562.977ZM720.463 570.721C721.303 570.714 721.986 570.418 722.514 569.832C723.041 569.24 723.298 568.494 723.285 567.596C723.285 566.678 723.025 565.929 722.504 565.35C721.99 564.77 721.309 564.48 720.463 564.48C719.617 564.48 718.93 564.773 718.402 565.359C717.882 565.939 717.621 566.684 717.621 567.596C717.621 568.501 717.882 569.246 718.402 569.832C718.93 570.418 719.617 570.714 720.463 570.721ZM731.078 572.225C730.141 572.225 729.32 572.02 728.617 571.609C727.914 571.193 727.38 570.636 727.016 569.939C726.658 569.243 726.479 568.462 726.479 567.596C726.479 566.756 726.667 565.988 727.045 565.291C727.429 564.588 727.973 564.028 728.676 563.611C729.385 563.188 730.186 562.977 731.078 562.977C732.465 562.977 733.578 563.416 734.418 564.295C735.258 565.174 735.678 566.274 735.678 567.596C735.678 568.436 735.486 569.207 735.102 569.91C734.717 570.613 734.171 571.176 733.461 571.6C732.758 572.016 731.964 572.225 731.078 572.225ZM731.078 570.721C731.924 570.721 732.621 570.418 733.168 569.812C733.721 569.201 733.992 568.462 733.979 567.596C733.965 566.71 733.689 565.971 733.148 565.379C732.615 564.78 731.924 564.48 731.078 564.48C730.219 564.48 729.516 564.78 728.969 565.379C728.428 565.978 728.158 566.717 728.158 567.596C728.158 568.475 728.428 569.217 728.969 569.822C729.516 570.421 730.219 570.721 731.078 570.721ZM745.062 570.564H746.479V574.119H744.838V572H738.285V574.119H736.664V570.564H737.982C738.529 569.171 738.842 567.202 738.92 564.656L738.959 563.279H745.062V570.564ZM739.604 570.564H743.383V564.725H740.561C740.463 567.153 740.144 569.1 739.604 570.564ZM754.008 563.279H755.775L750.355 575.838H748.676L750.59 571.482L746.928 563.279H748.793L751.469 569.48L754.008 563.279ZM764.994 572H762.855L759.066 567.723V572H757.348V563.279H759.066V567.176L762.592 563.279H764.613L760.932 567.342L764.994 572ZM772.914 563.279V564.803H769.994V572H768.295V564.803H765.375V563.279H772.914ZM778.656 566.824C780.909 566.824 782.035 567.684 782.035 569.402C782.035 571.134 780.909 572 778.656 572H774.672V563.24H776.391V566.824H778.656ZM783.998 563.24H785.717V572H783.998V563.24ZM778.637 570.662C779.757 570.662 780.316 570.242 780.316 569.402C780.316 568.576 779.757 568.162 778.637 568.162H776.391V570.662H778.637ZM662.729 589.182H663.383V598H661.703V592.463L656.205 598.059H655.521V589.279H657.221V594.758L662.729 589.182ZM676.518 589.279H678.285L672.865 601.838H671.186L673.1 597.482L669.438 589.279H671.303L673.979 595.48L676.518 589.279ZM690.424 598H688.725L688.197 592.756L684.926 597.443H684.896L681.537 592.756L681.117 598H679.438L680.277 589.084H680.98L684.965 594.855L688.803 589.084H689.496L690.424 598ZM698.91 589.279H700.609V598H698.91V594.338H694.467V598H692.748V589.279H694.467V592.805H698.91V589.279ZM707.416 592.824C709.669 592.824 710.795 593.684 710.795 595.402C710.795 597.134 709.669 598 707.416 598H703.432V589.24H705.15V592.824H707.416ZM712.758 589.24H714.477V598H712.758V589.24ZM707.396 596.662C708.516 596.662 709.076 596.242 709.076 595.402C709.076 594.576 708.516 594.162 707.396 594.162H705.15V596.662H707.396ZM725.082 593.498C725.082 593.7 725.076 593.866 725.062 593.996H718.344C718.415 594.829 718.689 595.5 719.164 596.008C719.646 596.509 720.271 596.76 721.039 596.76C721.638 596.76 722.126 596.646 722.504 596.418C722.888 596.19 723.201 595.832 723.441 595.344L724.818 595.959C724.48 596.701 723.985 597.264 723.334 597.648C722.683 598.033 721.911 598.225 721.02 598.225C719.73 598.225 718.679 597.818 717.865 597.004C717.051 596.184 716.645 595.054 716.645 593.615C716.645 592.313 717.055 591.216 717.875 590.324C718.695 589.426 719.743 588.977 721.02 588.977C722.276 588.977 723.266 589.39 723.988 590.217C724.717 591.044 725.082 592.137 725.082 593.498ZM721 590.422C720.362 590.422 719.809 590.62 719.34 591.018C718.878 591.408 718.572 591.955 718.422 592.658H723.324C723.227 591.975 722.976 591.431 722.572 591.027C722.169 590.624 721.645 590.422 721 590.422ZM738.158 589.279V590.803H735.238V598H733.539V590.803H730.619V589.279H738.158ZM743.861 598.225C742.924 598.225 742.104 598.02 741.4 597.609C740.697 597.193 740.163 596.636 739.799 595.939C739.441 595.243 739.262 594.462 739.262 593.596C739.262 592.756 739.451 591.988 739.828 591.291C740.212 590.588 740.756 590.028 741.459 589.611C742.169 589.188 742.969 588.977 743.861 588.977C745.248 588.977 746.361 589.416 747.201 590.295C748.041 591.174 748.461 592.274 748.461 593.596C748.461 594.436 748.269 595.207 747.885 595.91C747.501 596.613 746.954 597.176 746.244 597.6C745.541 598.016 744.747 598.225 743.861 598.225ZM743.861 596.721C744.708 596.721 745.404 596.418 745.951 595.812C746.505 595.201 746.775 594.462 746.762 593.596C746.749 592.71 746.472 591.971 745.932 591.379C745.398 590.78 744.708 590.48 743.861 590.48C743.002 590.48 742.299 590.78 741.752 591.379C741.212 591.978 740.941 592.717 740.941 593.596C740.941 594.475 741.212 595.217 741.752 595.822C742.299 596.421 743.002 596.721 743.861 596.721ZM756.42 593.303C757.553 593.615 758.119 594.354 758.119 595.52C758.119 596.301 757.855 596.91 757.328 597.346C756.801 597.782 756.02 598 754.984 598H750.58V589.279H754.779C755.697 589.279 756.381 589.471 756.83 589.855C757.279 590.233 757.51 590.773 757.523 591.477C757.523 592.316 757.156 592.925 756.42 593.303ZM755.902 591.74C755.902 591.389 755.788 591.112 755.561 590.91C755.339 590.702 755.007 590.598 754.564 590.598H752.221V592.902H754.564C754.994 592.902 755.323 592.798 755.551 592.59C755.785 592.382 755.902 592.098 755.902 591.74ZM754.887 596.682C755.434 596.682 755.831 596.584 756.078 596.389C756.332 596.187 756.459 595.878 756.459 595.461C756.459 595.07 756.332 594.768 756.078 594.553C755.831 594.331 755.46 594.221 754.965 594.221H752.221V596.682H754.887ZM767.133 596.516L767.777 597.561C767.432 597.945 766.944 598.137 766.312 598.137C765.414 598.137 764.9 597.753 764.77 596.984C764.223 597.792 763.35 598.195 762.152 598.195C761.312 598.195 760.645 597.984 760.15 597.561C759.662 597.131 759.418 596.538 759.418 595.783C759.418 594.995 759.704 594.361 760.277 593.879C760.85 593.397 761.648 593.156 762.67 593.156H764.633V592.336C764.633 591.086 764.073 590.461 762.953 590.461C762.491 590.461 762.12 590.565 761.84 590.773C761.566 590.982 761.352 591.311 761.195 591.76L759.73 591.34C760.16 589.764 761.28 588.977 763.09 588.977C764.086 588.977 764.87 589.257 765.443 589.816C766.023 590.37 766.312 591.21 766.312 592.336V596.242C766.312 596.548 766.452 596.701 766.732 596.701C766.876 596.701 767.009 596.639 767.133 596.516ZM762.494 596.838C763.145 596.838 763.663 596.626 764.047 596.203C764.438 595.773 764.633 595.178 764.633 594.416H762.611C762.156 594.416 761.791 594.527 761.518 594.748C761.251 594.969 761.117 595.272 761.117 595.656C761.117 596.021 761.238 596.311 761.479 596.525C761.726 596.734 762.064 596.838 762.494 596.838ZM774.135 588.977C775.307 588.977 776.29 589.39 777.084 590.217C777.885 591.037 778.282 592.163 778.275 593.596C778.275 594.312 778.158 594.969 777.924 595.568C777.689 596.161 777.377 596.649 776.986 597.033C776.596 597.411 776.153 597.704 775.658 597.912C775.163 598.12 774.649 598.225 774.115 598.225C772.689 598.225 771.641 597.749 770.971 596.799V601.838H769.252V589.279H770.893V590.598C771.602 589.517 772.683 588.977 774.135 588.977ZM773.754 596.721C774.594 596.714 775.277 596.418 775.805 595.832C776.332 595.24 776.589 594.494 776.576 593.596C776.576 592.678 776.316 591.929 775.795 591.35C775.281 590.77 774.6 590.48 773.754 590.48C772.908 590.48 772.221 590.773 771.693 591.359C771.173 591.939 770.912 592.684 770.912 593.596C770.912 594.501 771.173 595.246 771.693 595.832C772.221 596.418 772.908 596.714 773.754 596.721ZM784.408 592.824C786.661 592.824 787.787 593.684 787.787 595.402C787.787 597.134 786.661 598 784.408 598H780.424V589.24H782.143V592.824H784.408ZM789.75 589.24H791.469V598H789.75V589.24ZM784.389 596.662C785.508 596.662 786.068 596.242 786.068 595.402C786.068 594.576 785.508 594.162 784.389 594.162H782.143V596.662H784.389Z" fill="#131313"/>
<path d="M723 495C714.75 495 708 501.75 708 510C708 518.25 714.75 525 723 525C731.25 525 738 518.25 738 510C738 501.75 731.25 495 723 495ZM729.3 507.45L722.1 514.65C721.5 515.25 720.6 515.25 720 514.65L716.7 511.35C716.1 510.75 716.1 509.85 716.7 509.25C717.3 508.65 718.2 508.65 718.8 509.25C720.043 510.493 722.057 510.493 723.3 509.25L727.2 505.35C727.8 504.75 728.7 504.75 729.3 505.35C729.9 505.95 729.9 506.85 729.3 507.45Z" fill="url(#paint3_linear_104_2831)"/>
<g filter="url(#filter4_d_104_2831)">
<path d="M582 225.547C594.376 218.402 609.624 218.402 622 225.547L702.378 271.953C714.754 279.098 722.378 292.303 722.378 306.594V399.406C722.378 413.697 714.754 426.902 702.378 434.047L622 480.453C609.624 487.598 594.376 487.598 582 480.453L501.622 434.047C489.246 426.902 481.622 413.697 481.622 399.406V306.594C481.622 292.303 489.246 279.098 501.622 271.953L582 225.547Z" fill="#EEE6D9"/>
<path d="M582.25 225.98C594.471 218.924 609.529 218.924 621.75 225.98L702.128 272.386C714.349 279.442 721.878 292.482 721.878 306.594V399.406C721.878 413.518 714.349 426.558 702.128 433.614L621.75 480.02C609.529 487.076 594.471 487.076 582.25 480.02L501.872 433.614C489.651 426.558 482.122 413.518 482.122 399.406V306.594C482.122 292.482 489.651 279.442 501.872 272.386L582.25 225.98Z" stroke="#D7B185"/>
</g>
<path d="M528.574 373.057C529.368 373.258 529.984 373.643 530.42 374.209C530.863 374.775 531.081 375.479 531.074 376.318C531.074 377.458 530.687 378.356 529.912 379.014C529.137 379.671 528.005 380 526.514 380H523.154V367.08H526.299C527.529 367.08 528.483 367.373 529.16 367.959C529.837 368.538 530.176 369.346 530.176 370.381C530.176 371.012 530.036 371.556 529.756 372.012C529.476 372.467 529.082 372.816 528.574 373.057ZM528.477 370.576C528.49 369.938 528.288 369.45 527.871 369.111C527.461 368.773 526.862 368.604 526.074 368.604H524.893V372.617H526.074C526.868 372.617 527.471 372.435 527.881 372.07C528.291 371.699 528.49 371.201 528.477 370.576ZM526.494 378.477C527.503 378.477 528.232 378.294 528.682 377.93C529.131 377.559 529.355 377.015 529.355 376.299C529.355 375.641 529.137 375.114 528.701 374.717C528.265 374.32 527.598 374.121 526.699 374.121L524.893 374.141V378.477H526.494ZM545.42 380H543.281L539.492 375.723V380H537.773V371.279H539.492V375.176L543.018 371.279H545.039L541.357 375.342L545.42 380ZM551.719 370.977C552.891 370.977 553.874 371.39 554.668 372.217C555.469 373.037 555.866 374.163 555.859 375.596C555.859 376.312 555.742 376.969 555.508 377.568C555.273 378.161 554.961 378.649 554.57 379.033C554.18 379.411 553.737 379.704 553.242 379.912C552.747 380.12 552.233 380.225 551.699 380.225C550.273 380.225 549.225 379.749 548.555 378.799V383.838H546.836V371.279H548.477V372.598C549.186 371.517 550.267 370.977 551.719 370.977ZM551.338 378.721C552.178 378.714 552.861 378.418 553.389 377.832C553.916 377.24 554.173 376.494 554.16 375.596C554.16 374.678 553.9 373.929 553.379 373.35C552.865 372.77 552.184 372.48 551.338 372.48C550.492 372.48 549.805 372.773 549.277 373.359C548.757 373.939 548.496 374.684 548.496 375.596C548.496 376.501 548.757 377.246 549.277 377.832C549.805 378.418 550.492 378.714 551.338 378.721ZM565.215 371.182H565.869V380H564.189V374.463L558.691 380.059H558.008V371.279H559.707V376.758L565.215 371.182ZM576.416 371.279V380H574.697V372.803H570.41V380H568.691V371.279H576.416ZM585.723 371.279V372.803H582.803V380H581.104V372.803H578.184V371.279H585.723ZM591.426 380.225C590.488 380.225 589.668 380.02 588.965 379.609C588.262 379.193 587.728 378.636 587.363 377.939C587.005 377.243 586.826 376.462 586.826 375.596C586.826 374.756 587.015 373.988 587.393 373.291C587.777 372.588 588.32 372.028 589.023 371.611C589.733 371.188 590.534 370.977 591.426 370.977C592.812 370.977 593.926 371.416 594.766 372.295C595.605 373.174 596.025 374.274 596.025 375.596C596.025 376.436 595.833 377.207 595.449 377.91C595.065 378.613 594.518 379.176 593.809 379.6C593.105 380.016 592.311 380.225 591.426 380.225ZM591.426 378.721C592.272 378.721 592.969 378.418 593.516 377.812C594.069 377.201 594.339 376.462 594.326 375.596C594.313 374.71 594.036 373.971 593.496 373.379C592.962 372.78 592.272 372.48 591.426 372.48C590.566 372.48 589.863 372.78 589.316 373.379C588.776 373.978 588.506 374.717 588.506 375.596C588.506 376.475 588.776 377.217 589.316 377.822C589.863 378.421 590.566 378.721 591.426 378.721ZM603.984 375.303C605.117 375.615 605.684 376.354 605.684 377.52C605.684 378.301 605.42 378.91 604.893 379.346C604.365 379.782 603.584 380 602.549 380H598.145V371.279H602.344C603.262 371.279 603.945 371.471 604.395 371.855C604.844 372.233 605.075 372.773 605.088 373.477C605.088 374.316 604.72 374.925 603.984 375.303ZM603.467 373.74C603.467 373.389 603.353 373.112 603.125 372.91C602.904 372.702 602.572 372.598 602.129 372.598H599.785V374.902H602.129C602.559 374.902 602.887 374.798 603.115 374.59C603.35 374.382 603.467 374.098 603.467 373.74ZM602.451 378.682C602.998 378.682 603.395 378.584 603.643 378.389C603.896 378.187 604.023 377.878 604.023 377.461C604.023 377.07 603.896 376.768 603.643 376.553C603.395 376.331 603.024 376.221 602.529 376.221H599.785V378.682H602.451ZM614.697 378.516L615.342 379.561C614.997 379.945 614.508 380.137 613.877 380.137C612.979 380.137 612.464 379.753 612.334 378.984C611.787 379.792 610.915 380.195 609.717 380.195C608.877 380.195 608.21 379.984 607.715 379.561C607.227 379.131 606.982 378.538 606.982 377.783C606.982 376.995 607.269 376.361 607.842 375.879C608.415 375.397 609.212 375.156 610.234 375.156H612.197V374.336C612.197 373.086 611.637 372.461 610.518 372.461C610.055 372.461 609.684 372.565 609.404 372.773C609.131 372.982 608.916 373.311 608.76 373.76L607.295 373.34C607.725 371.764 608.844 370.977 610.654 370.977C611.65 370.977 612.435 371.257 613.008 371.816C613.587 372.37 613.877 373.21 613.877 374.336V378.242C613.877 378.548 614.017 378.701 614.297 378.701C614.44 378.701 614.574 378.639 614.697 378.516ZM610.059 378.838C610.71 378.838 611.227 378.626 611.611 378.203C612.002 377.773 612.197 377.178 612.197 376.416H610.176C609.72 376.416 609.355 376.527 609.082 376.748C608.815 376.969 608.682 377.272 608.682 377.656C608.682 378.021 608.802 378.311 609.043 378.525C609.29 378.734 609.629 378.838 610.059 378.838ZM617.92 371.279H624.355V380H622.637V372.744H619.541L619.336 375.4C619.212 377.041 618.87 378.242 618.311 379.004C617.751 379.759 616.947 380.137 615.898 380.137V378.682C616.38 378.682 616.771 378.395 617.07 377.822C617.376 377.243 617.565 376.442 617.637 375.42L617.92 371.279ZM635.029 370.977C636.357 370.977 637.422 371.4 638.223 372.246C639.03 373.086 639.434 374.202 639.434 375.596C639.434 376.95 639.017 378.06 638.184 378.926C637.357 379.792 636.305 380.225 635.029 380.225C633.825 380.225 632.832 379.876 632.051 379.18C631.276 378.477 630.817 377.529 630.674 376.338H628.984V380H627.266V371.279H628.984V374.805H630.693C630.856 373.665 631.335 372.744 632.129 372.041C632.93 371.331 633.896 370.977 635.029 370.977ZM635.029 378.721C635.817 378.721 636.465 378.434 636.973 377.861C637.48 377.288 637.731 376.533 637.725 375.596C637.725 374.652 637.471 373.896 636.963 373.33C636.462 372.764 635.817 372.48 635.029 372.48C634.242 372.48 633.594 372.764 633.086 373.33C632.585 373.896 632.334 374.652 632.334 375.596C632.334 376.533 632.588 377.288 633.096 377.861C633.604 378.434 634.248 378.721 635.029 378.721ZM648.066 371.279V372.803H645.146V380H643.447V372.803H640.527V371.279H648.066ZM655.986 371.279H657.686V380H655.986V376.338H651.543V380H649.824V371.279H651.543V374.805H655.986V371.279ZM664.492 374.824C666.745 374.824 667.871 375.684 667.871 377.402C667.871 379.134 666.745 380 664.492 380H660.508V371.24H662.227V374.824H664.492ZM669.834 371.24H671.553V380H669.834V371.24ZM664.473 378.662C665.592 378.662 666.152 378.242 666.152 377.402C666.152 376.576 665.592 376.162 664.473 376.162H662.227V378.662H664.473ZM678.604 370.02C678.187 370.02 677.803 369.964 677.451 369.854C677.106 369.743 676.79 369.574 676.504 369.346C676.217 369.111 675.993 368.789 675.83 368.379C675.674 367.962 675.596 367.477 675.596 366.924L677.041 366.758C677.041 367.35 677.188 367.793 677.48 368.086C677.78 368.372 678.161 368.516 678.623 368.516C679.066 368.516 679.43 368.369 679.717 368.076C680.01 367.783 680.156 367.344 680.156 366.758L681.523 366.924C681.523 367.477 681.442 367.962 681.279 368.379C681.123 368.789 680.905 369.111 680.625 369.346C680.352 369.574 680.046 369.743 679.707 369.854C679.368 369.964 679.001 370.02 678.604 370.02ZM681.562 371.182H682.217V380H680.537V374.463L675.039 380.059H674.355V371.279H676.055V376.758L681.562 371.182ZM570.869 397.279V398.803H567.949V406H566.25V398.803H563.33V397.279H570.869ZM577.51 396.977C578.682 396.977 579.665 397.39 580.459 398.217C581.26 399.037 581.657 400.163 581.65 401.596C581.65 402.312 581.533 402.969 581.299 403.568C581.064 404.161 580.752 404.649 580.361 405.033C579.971 405.411 579.528 405.704 579.033 405.912C578.538 406.12 578.024 406.225 577.49 406.225C576.064 406.225 575.016 405.749 574.346 404.799V409.838H572.627V397.279H574.268V398.598C574.977 397.517 576.058 396.977 577.51 396.977ZM577.129 404.721C577.969 404.714 578.652 404.418 579.18 403.832C579.707 403.24 579.964 402.494 579.951 401.596C579.951 400.678 579.691 399.929 579.17 399.35C578.656 398.77 577.975 398.48 577.129 398.48C576.283 398.48 575.596 398.773 575.068 399.359C574.548 399.939 574.287 400.684 574.287 401.596C574.287 402.501 574.548 403.246 575.068 403.832C575.596 404.418 576.283 404.714 577.129 404.721ZM591.602 401.498C591.602 401.7 591.595 401.866 591.582 401.996H584.863C584.935 402.829 585.208 403.5 585.684 404.008C586.165 404.509 586.79 404.76 587.559 404.76C588.158 404.76 588.646 404.646 589.023 404.418C589.408 404.19 589.72 403.832 589.961 403.344L591.338 403.959C590.999 404.701 590.505 405.264 589.854 405.648C589.202 406.033 588.431 406.225 587.539 406.225C586.25 406.225 585.199 405.818 584.385 405.004C583.571 404.184 583.164 403.054 583.164 401.615C583.164 400.313 583.574 399.216 584.395 398.324C585.215 397.426 586.263 396.977 587.539 396.977C588.796 396.977 589.785 397.39 590.508 398.217C591.237 399.044 591.602 400.137 591.602 401.498ZM587.52 398.422C586.882 398.422 586.328 398.62 585.859 399.018C585.397 399.408 585.091 399.955 584.941 400.658H589.844C589.746 399.975 589.495 399.431 589.092 399.027C588.688 398.624 588.164 398.422 587.52 398.422ZM597.969 396.02C597.552 396.02 597.168 395.964 596.816 395.854C596.471 395.743 596.156 395.574 595.869 395.346C595.583 395.111 595.358 394.789 595.195 394.379C595.039 393.962 594.961 393.477 594.961 392.924L596.406 392.758C596.406 393.35 596.553 393.793 596.846 394.086C597.145 394.372 597.526 394.516 597.988 394.516C598.431 394.516 598.796 394.369 599.082 394.076C599.375 393.783 599.521 393.344 599.521 392.758L600.889 392.924C600.889 393.477 600.807 393.962 600.645 394.379C600.488 394.789 600.27 395.111 599.99 395.346C599.717 395.574 599.411 395.743 599.072 395.854C598.734 395.964 598.366 396.02 597.969 396.02ZM600.928 397.182H601.582V406H599.902V400.463L594.404 406.059H593.721V397.279H595.42V402.758L600.928 397.182ZM611.67 404.564H613.086V408.119H611.445V406H604.893V408.119H603.271V404.564H604.59C605.137 403.171 605.449 401.202 605.527 398.656L605.566 397.279H611.67V404.564ZM606.211 404.564H609.99V398.725H607.168C607.07 401.153 606.751 403.1 606.211 404.564ZM621.963 397.182H622.617V406H620.938V400.463L615.439 406.059H614.756V397.279H616.455V402.758L621.963 397.182ZM631.602 397.279H633.301V406H631.602V402.338H627.158V406H625.439V397.279H627.158V400.805H631.602V397.279ZM641.729 397.279V398.744H637.842V406H636.123V397.279H641.729Z" fill="#131313"/>
<path d="M602 303C593.75 303 587 309.75 587 318C587 326.25 593.75 333 602 333C610.25 333 617 326.25 617 318C617 309.75 610.25 303 602 303ZM608.3 315.45L601.1 322.65C600.5 323.25 599.6 323.25 599 322.65L595.7 319.35C595.1 318.75 595.1 317.85 595.7 317.25C596.3 316.65 597.2 316.65 597.8 317.25C599.043 318.493 601.057 318.493 602.3 317.25L606.2 313.35C606.8 312.75 607.7 312.75 608.3 313.35C608.9 313.95 608.9 314.85 608.3 315.45Z" fill="url(#paint4_linear_104_2831)"/>
<g filter="url(#filter5_d_104_2831)">
<path d="M246 36.547C258.376 29.4017 273.624 29.4017 286 36.547L366.378 82.953C378.754 90.0983 386.378 103.303 386.378 117.594V210.406C386.378 224.697 378.754 237.902 366.378 245.047L286 291.453C273.624 298.598 258.376 298.598 246 291.453L165.622 245.047C153.246 237.902 145.622 224.697 145.622 210.406V117.594C145.622 103.303 153.246 90.0983 165.622 82.953L246 36.547Z" fill="#EEE6D9"/>
<path d="M246.25 36.98C258.471 29.924 273.529 29.924 285.75 36.98L366.128 83.386C378.349 90.442 385.878 103.482 385.878 117.594V210.406C385.878 224.518 378.349 237.558 366.128 244.614L285.75 291.02C273.529 298.076 258.471 298.076 246.25 291.02L165.872 244.614C153.651 237.558 146.122 224.518 146.122 210.406V117.594C146.122 103.482 153.651 90.442 165.872 83.386L246.25 36.98Z" stroke="#D7B185"/>
</g>
<path d="M266 109C257.75 109 251 115.75 251 124C251 132.25 257.75 139 266 139C274.25 139 281 132.25 281 124C281 115.75 274.25 109 266 109ZM272.3 121.45L265.1 128.65C264.5 129.25 263.6 129.25 263 128.65L259.7 125.35C259.1 124.75 259.1 123.85 259.7 123.25C260.3 122.65 261.2 122.65 261.8 123.25C263.043 124.493 265.057 124.493 266.3 123.25L270.2 119.35C270.8 118.75 271.7 118.75 272.3 119.35C272.9 119.95 272.9 120.85 272.3 121.45Z" fill="url(#paint5_linear_104_2831)"/>
<path d="M234.271 179.057C235.066 179.258 235.681 179.643 236.117 180.209C236.56 180.775 236.778 181.479 236.771 182.318C236.771 183.458 236.384 184.356 235.609 185.014C234.835 185.671 233.702 186 232.211 186H228.852V173.08H231.996C233.227 173.08 234.18 173.373 234.857 173.959C235.535 174.538 235.873 175.346 235.873 176.381C235.873 177.012 235.733 177.556 235.453 178.012C235.173 178.467 234.779 178.816 234.271 179.057ZM234.174 176.576C234.187 175.938 233.985 175.45 233.568 175.111C233.158 174.773 232.559 174.604 231.771 174.604H230.59V178.617H231.771C232.566 178.617 233.168 178.435 233.578 178.07C233.988 177.699 234.187 177.201 234.174 176.576ZM232.191 184.477C233.201 184.477 233.93 184.294 234.379 183.93C234.828 183.559 235.053 183.015 235.053 182.299C235.053 181.641 234.835 181.114 234.398 180.717C233.962 180.32 233.295 180.121 232.396 180.121L230.59 180.141V184.477H232.191ZM244.574 177.279H251.01V186H249.291V178.744H246.195L245.99 181.4C245.867 183.041 245.525 184.242 244.965 185.004C244.405 185.759 243.601 186.137 242.553 186.137V184.682C243.035 184.682 243.425 184.395 243.725 183.822C244.031 183.243 244.219 182.442 244.291 181.42L244.574 177.279ZM261.127 177.182H261.781V186H260.102V180.463L254.604 186.059H253.92V177.279H255.619V182.758L261.127 177.182ZM270.463 177.279H272.27V186H270.463V182.699C269.786 183.246 268.907 183.52 267.826 183.52C266.726 183.52 265.854 183.233 265.209 182.66C264.564 182.081 264.242 181.267 264.242 180.219V177.279H266.068V180.082C266.068 180.733 266.254 181.218 266.625 181.537C267.003 181.856 267.517 182.016 268.168 182.016C269.19 182.016 269.955 181.752 270.463 181.225V177.279ZM281.234 177.279H282.934V186H281.234V182.338H276.791V186H275.072V177.279H276.791V180.805H281.234V177.279ZM289.701 186.225C288.764 186.225 287.943 186.02 287.24 185.609C286.537 185.193 286.003 184.636 285.639 183.939C285.281 183.243 285.102 182.462 285.102 181.596C285.102 180.756 285.29 179.988 285.668 179.291C286.052 178.588 286.596 178.028 287.299 177.611C288.008 177.188 288.809 176.977 289.701 176.977C291.088 176.977 292.201 177.416 293.041 178.295C293.881 179.174 294.301 180.274 294.301 181.596C294.301 182.436 294.109 183.207 293.725 183.91C293.34 184.613 292.794 185.176 292.084 185.6C291.381 186.016 290.587 186.225 289.701 186.225ZM289.701 184.721C290.548 184.721 291.244 184.418 291.791 183.812C292.344 183.201 292.615 182.462 292.602 181.596C292.589 180.71 292.312 179.971 291.771 179.379C291.238 178.78 290.548 178.48 289.701 178.48C288.842 178.48 288.139 178.78 287.592 179.379C287.051 179.978 286.781 180.717 286.781 181.596C286.781 182.475 287.051 183.217 287.592 183.822C288.139 184.421 288.842 184.721 289.701 184.721ZM304.223 181.498C304.223 181.7 304.216 181.866 304.203 181.996H297.484C297.556 182.829 297.829 183.5 298.305 184.008C298.786 184.509 299.411 184.76 300.18 184.76C300.779 184.76 301.267 184.646 301.645 184.418C302.029 184.19 302.341 183.832 302.582 183.344L303.959 183.959C303.62 184.701 303.126 185.264 302.475 185.648C301.824 186.033 301.052 186.225 300.16 186.225C298.871 186.225 297.82 185.818 297.006 185.004C296.192 184.184 295.785 183.054 295.785 181.615C295.785 180.313 296.195 179.216 297.016 178.324C297.836 177.426 298.884 176.977 300.16 176.977C301.417 176.977 302.406 177.39 303.129 178.217C303.858 179.044 304.223 180.137 304.223 181.498ZM300.141 178.422C299.503 178.422 298.949 178.62 298.48 179.018C298.018 179.408 297.712 179.955 297.562 180.658H302.465C302.367 179.975 302.117 179.431 301.713 179.027C301.309 178.624 300.785 178.422 300.141 178.422ZM215.355 212.225C214.418 212.225 213.598 212.02 212.895 211.609C212.191 211.193 211.658 210.636 211.293 209.939C210.935 209.243 210.756 208.462 210.756 207.596C210.756 206.756 210.945 205.988 211.322 205.291C211.706 204.588 212.25 204.028 212.953 203.611C213.663 203.188 214.464 202.977 215.355 202.977C216.742 202.977 217.855 203.416 218.695 204.295C219.535 205.174 219.955 206.274 219.955 207.596C219.955 208.436 219.763 209.207 219.379 209.91C218.995 210.613 218.448 211.176 217.738 211.6C217.035 212.016 216.241 212.225 215.355 212.225ZM215.355 210.721C216.202 210.721 216.898 210.418 217.445 209.812C217.999 209.201 218.269 208.462 218.256 207.596C218.243 206.71 217.966 205.971 217.426 205.379C216.892 204.78 216.202 204.48 215.355 204.48C214.496 204.48 213.793 204.78 213.246 205.379C212.706 205.978 212.436 206.717 212.436 207.596C212.436 208.475 212.706 209.217 213.246 209.822C213.793 210.421 214.496 210.721 215.355 210.721ZM226.322 203.221C227.624 203.221 228.666 203.631 229.447 204.451C230.229 205.271 230.619 206.355 230.619 207.703C230.619 208.302 230.505 208.878 230.277 209.432C230.049 209.979 229.737 210.46 229.34 210.877C228.949 211.287 228.464 211.616 227.885 211.863C227.305 212.104 226.684 212.225 226.02 212.225C224.594 212.225 223.471 211.756 222.65 210.818C221.83 209.881 221.42 208.628 221.42 207.059C221.42 205.991 221.521 205.047 221.723 204.227C221.924 203.4 222.257 202.654 222.719 201.99C223.181 201.32 223.809 200.766 224.604 200.33C225.398 199.894 226.361 199.578 227.494 199.383C228.64 199.194 229.643 198.921 230.502 198.562L230.756 199.979C229.994 200.324 228.995 200.597 227.758 200.799C226.384 201.046 225.362 201.447 224.691 202C224.021 202.553 223.575 203.335 223.354 204.344C224.122 203.595 225.111 203.221 226.322 203.221ZM226.02 210.721C226.859 210.721 227.556 210.424 228.109 209.832C228.663 209.233 228.933 208.523 228.92 207.703C228.907 206.792 228.643 206.059 228.129 205.506C227.615 204.952 226.931 204.676 226.078 204.676C225.727 204.676 225.391 204.721 225.072 204.812C224.76 204.904 224.447 205.057 224.135 205.271C223.829 205.486 223.585 205.805 223.402 206.229C223.22 206.652 223.132 207.156 223.139 207.742C223.158 208.647 223.438 209.37 223.979 209.91C224.525 210.451 225.206 210.721 226.02 210.721ZM237.602 202.977C238.773 202.977 239.757 203.39 240.551 204.217C241.352 205.037 241.749 206.163 241.742 207.596C241.742 208.312 241.625 208.969 241.391 209.568C241.156 210.161 240.844 210.649 240.453 211.033C240.062 211.411 239.62 211.704 239.125 211.912C238.63 212.12 238.116 212.225 237.582 212.225C236.156 212.225 235.108 211.749 234.438 210.799V215.838H232.719V203.279H234.359V204.598C235.069 203.517 236.15 202.977 237.602 202.977ZM237.221 210.721C238.061 210.714 238.744 210.418 239.271 209.832C239.799 209.24 240.056 208.494 240.043 207.596C240.043 206.678 239.783 205.929 239.262 205.35C238.747 204.77 238.067 204.48 237.221 204.48C236.374 204.48 235.688 204.773 235.16 205.359C234.639 205.939 234.379 206.684 234.379 207.596C234.379 208.501 234.639 209.246 235.16 209.832C235.688 210.418 236.374 210.714 237.221 210.721ZM247.836 212.225C246.898 212.225 246.078 212.02 245.375 211.609C244.672 211.193 244.138 210.636 243.773 209.939C243.415 209.243 243.236 208.462 243.236 207.596C243.236 206.756 243.425 205.988 243.803 205.291C244.187 204.588 244.73 204.028 245.434 203.611C246.143 203.188 246.944 202.977 247.836 202.977C249.223 202.977 250.336 203.416 251.176 204.295C252.016 205.174 252.436 206.274 252.436 207.596C252.436 208.436 252.243 209.207 251.859 209.91C251.475 210.613 250.928 211.176 250.219 211.6C249.516 212.016 248.721 212.225 247.836 212.225ZM247.836 210.721C248.682 210.721 249.379 210.418 249.926 209.812C250.479 209.201 250.749 208.462 250.736 207.596C250.723 206.71 250.447 205.971 249.906 205.379C249.372 204.78 248.682 204.48 247.836 204.48C246.977 204.48 246.273 204.78 245.727 205.379C245.186 205.978 244.916 206.717 244.916 207.596C244.916 208.475 245.186 209.217 245.727 209.822C246.273 210.421 246.977 210.721 247.836 210.721ZM258.803 207.439C259.402 207.602 259.861 207.869 260.18 208.24C260.499 208.611 260.658 209.07 260.658 209.617C260.658 210.398 260.349 211.023 259.73 211.492C259.118 211.961 258.282 212.195 257.221 212.195C255.222 212.195 254.027 211.469 253.637 210.018L255.082 209.559C255.206 209.956 255.45 210.262 255.814 210.477C256.186 210.691 256.654 210.799 257.221 210.799C257.807 210.799 258.262 210.688 258.588 210.467C258.913 210.245 259.076 209.93 259.076 209.52C259.076 209.09 258.897 208.758 258.539 208.523C258.181 208.283 257.641 208.162 256.918 208.162H256.156V206.844H256.781C257.445 206.844 257.95 206.73 258.295 206.502C258.646 206.274 258.822 205.952 258.822 205.535C258.822 205.177 258.692 204.9 258.432 204.705C258.171 204.503 257.794 204.402 257.299 204.402C256.309 204.402 255.648 204.803 255.316 205.604L253.881 205.096C254.109 204.445 254.525 203.937 255.131 203.572C255.736 203.201 256.459 203.016 257.299 203.016C258.256 203.016 259.014 203.221 259.574 203.631C260.134 204.035 260.414 204.604 260.414 205.34C260.414 205.828 260.271 206.251 259.984 206.609C259.704 206.967 259.311 207.244 258.803 207.439ZM266.703 212.225C265.766 212.225 264.945 212.02 264.242 211.609C263.539 211.193 263.005 210.636 262.641 209.939C262.283 209.243 262.104 208.462 262.104 207.596C262.104 206.756 262.292 205.988 262.67 205.291C263.054 204.588 263.598 204.028 264.301 203.611C265.01 203.188 265.811 202.977 266.703 202.977C268.09 202.977 269.203 203.416 270.043 204.295C270.883 205.174 271.303 206.274 271.303 207.596C271.303 208.436 271.111 209.207 270.727 209.91C270.342 210.613 269.796 211.176 269.086 211.6C268.383 212.016 267.589 212.225 266.703 212.225ZM266.703 210.721C267.549 210.721 268.246 210.418 268.793 209.812C269.346 209.201 269.617 208.462 269.604 207.596C269.59 206.71 269.314 205.971 268.773 205.379C268.24 204.78 267.549 204.48 266.703 204.48C265.844 204.48 265.141 204.78 264.594 205.379C264.053 205.978 263.783 206.717 263.783 207.596C263.783 208.475 264.053 209.217 264.594 209.822C265.141 210.421 265.844 210.721 266.703 210.721ZM279.262 207.303C280.395 207.615 280.961 208.354 280.961 209.52C280.961 210.301 280.697 210.91 280.17 211.346C279.643 211.782 278.861 212 277.826 212H273.422V203.279H277.621C278.539 203.279 279.223 203.471 279.672 203.855C280.121 204.233 280.352 204.773 280.365 205.477C280.365 206.316 279.997 206.925 279.262 207.303ZM278.744 205.74C278.744 205.389 278.63 205.112 278.402 204.91C278.181 204.702 277.849 204.598 277.406 204.598H275.062V206.902H277.406C277.836 206.902 278.165 206.798 278.393 206.59C278.627 206.382 278.744 206.098 278.744 205.74ZM277.729 210.682C278.275 210.682 278.673 210.584 278.92 210.389C279.174 210.187 279.301 209.878 279.301 209.461C279.301 209.07 279.174 208.768 278.92 208.553C278.673 208.331 278.301 208.221 277.807 208.221H275.062V210.682H277.729ZM289.975 210.516L290.619 211.561C290.274 211.945 289.786 212.137 289.154 212.137C288.256 212.137 287.742 211.753 287.611 210.984C287.064 211.792 286.192 212.195 284.994 212.195C284.154 212.195 283.487 211.984 282.992 211.561C282.504 211.131 282.26 210.538 282.26 209.783C282.26 208.995 282.546 208.361 283.119 207.879C283.692 207.397 284.49 207.156 285.512 207.156H287.475V206.336C287.475 205.086 286.915 204.461 285.795 204.461C285.333 204.461 284.962 204.565 284.682 204.773C284.408 204.982 284.193 205.311 284.037 205.76L282.572 205.34C283.002 203.764 284.122 202.977 285.932 202.977C286.928 202.977 287.712 203.257 288.285 203.816C288.865 204.37 289.154 205.21 289.154 206.336V210.242C289.154 210.548 289.294 210.701 289.574 210.701C289.717 210.701 289.851 210.639 289.975 210.516ZM285.336 210.838C285.987 210.838 286.505 210.626 286.889 210.203C287.279 209.773 287.475 209.178 287.475 208.416H285.453C284.997 208.416 284.633 208.527 284.359 208.748C284.092 208.969 283.959 209.272 283.959 209.656C283.959 210.021 284.079 210.311 284.32 210.525C284.568 210.734 284.906 210.838 285.336 210.838ZM298.256 203.279H299.955V212H298.256V208.338H293.812V212H292.094V203.279H293.812V206.805H298.256V203.279ZM309.984 203.182H310.639V212H308.959V206.463L303.461 212.059H302.777V203.279H304.477V208.758L309.984 203.182ZM321.264 207.498C321.264 207.7 321.257 207.866 321.244 207.996H314.525C314.597 208.829 314.87 209.5 315.346 210.008C315.827 210.509 316.452 210.76 317.221 210.76C317.82 210.76 318.308 210.646 318.686 210.418C319.07 210.19 319.382 209.832 319.623 209.344L321 209.959C320.661 210.701 320.167 211.264 319.516 211.648C318.865 212.033 318.093 212.225 317.201 212.225C315.912 212.225 314.861 211.818 314.047 211.004C313.233 210.184 312.826 209.054 312.826 207.615C312.826 206.313 313.236 205.216 314.057 204.324C314.877 203.426 315.925 202.977 317.201 202.977C318.458 202.977 319.447 203.39 320.17 204.217C320.899 205.044 321.264 206.137 321.264 207.498ZM317.182 204.422C316.544 204.422 315.99 204.62 315.521 205.018C315.059 205.408 314.753 205.955 314.604 206.658H319.506C319.408 205.975 319.158 205.431 318.754 205.027C318.35 204.624 317.826 204.422 317.182 204.422Z" fill="#131313"/>
<g filter="url(#filter6_d_104_2831)">
<path d="M475 36.547C487.376 29.4017 502.624 29.4017 515 36.547L595.378 82.953C607.754 90.0983 615.378 103.303 615.378 117.594V210.406C615.378 224.697 607.754 237.902 595.378 245.047L515 291.453C502.624 298.598 487.376 298.598 475 291.453L394.622 245.047C382.246 237.902 374.622 224.697 374.622 210.406V117.594C374.622 103.303 382.246 90.0983 394.622 82.953L475 36.547Z" fill="white"/>
<path d="M475.25 36.98C487.471 29.924 502.529 29.924 514.75 36.98L595.128 83.386C607.349 90.442 614.878 103.482 614.878 117.594V210.406C614.878 224.518 607.349 237.558 595.128 244.614L514.75 291.02C502.529 298.076 487.471 298.076 475.25 291.02L394.872 244.614C382.651 237.558 375.122 224.518 375.122 210.406V117.594C375.122 103.482 382.651 90.442 394.872 83.386L475.25 36.98Z" stroke="#D7B185"/>
</g>
<path d="M495 109C486.75 109 480 115.75 480 124C480 132.25 486.75 139 495 139C503.25 139 510 132.25 510 124C510 115.75 503.25 109 495 109ZM501.3 121.45L494.1 128.65C493.5 129.25 492.6 129.25 492 128.65L488.7 125.35C488.1 124.75 488.1 123.85 488.7 123.25C489.3 122.65 490.2 122.65 490.8 123.25C492.043 124.493 494.057 124.493 495.3 123.25L499.2 119.35C499.8 118.75 500.7 118.75 501.3 119.35C501.9 119.95 501.9 120.85 501.3 121.45Z" fill="url(#paint6_linear_104_2831)"/>
<path d="M488.986 186H487.248L486.467 177.416L481.867 185.98H481.848L477.15 177.436L476.525 186H474.787L475.93 172.699H476.33L481.926 182.777L487.326 172.699H487.727L488.986 186ZM499.406 181.498C499.406 181.7 499.4 181.866 499.387 181.996H492.668C492.74 182.829 493.013 183.5 493.488 184.008C493.97 184.509 494.595 184.76 495.363 184.76C495.962 184.76 496.451 184.646 496.828 184.418C497.212 184.19 497.525 183.832 497.766 183.344L499.143 183.959C498.804 184.701 498.309 185.264 497.658 185.648C497.007 186.033 496.236 186.225 495.344 186.225C494.055 186.225 493.003 185.818 492.189 185.004C491.376 184.184 490.969 183.054 490.969 181.615C490.969 180.313 491.379 179.216 492.199 178.324C493.02 177.426 494.068 176.977 495.344 176.977C496.6 176.977 497.59 177.39 498.312 178.217C499.042 179.044 499.406 180.137 499.406 181.498ZM495.324 178.422C494.686 178.422 494.133 178.62 493.664 179.018C493.202 179.408 492.896 179.955 492.746 180.658H497.648C497.551 179.975 497.3 179.431 496.896 179.027C496.493 178.624 495.969 178.422 495.324 178.422ZM508.029 177.279V178.803H505.109V186H503.41V178.803H500.49V177.279H508.029ZM516.77 184.516L517.414 185.561C517.069 185.945 516.581 186.137 515.949 186.137C515.051 186.137 514.536 185.753 514.406 184.984C513.859 185.792 512.987 186.195 511.789 186.195C510.949 186.195 510.282 185.984 509.787 185.561C509.299 185.131 509.055 184.538 509.055 183.783C509.055 182.995 509.341 182.361 509.914 181.879C510.487 181.397 511.285 181.156 512.307 181.156H514.27V180.336C514.27 179.086 513.71 178.461 512.59 178.461C512.128 178.461 511.757 178.565 511.477 178.773C511.203 178.982 510.988 179.311 510.832 179.76L509.367 179.34C509.797 177.764 510.917 176.977 512.727 176.977C513.723 176.977 514.507 177.257 515.08 177.816C515.66 178.37 515.949 179.21 515.949 180.336V184.242C515.949 184.548 516.089 184.701 516.369 184.701C516.512 184.701 516.646 184.639 516.77 184.516ZM512.131 184.838C512.782 184.838 513.299 184.626 513.684 184.203C514.074 183.773 514.27 183.178 514.27 182.416H512.248C511.792 182.416 511.428 182.527 511.154 182.748C510.887 182.969 510.754 183.272 510.754 183.656C510.754 184.021 510.874 184.311 511.115 184.525C511.363 184.734 511.701 184.838 512.131 184.838ZM455.529 207.303C456.662 207.615 457.229 208.354 457.229 209.52C457.229 210.301 456.965 210.91 456.438 211.346C455.91 211.782 455.129 212 454.094 212H449.689V203.279H453.889C454.807 203.279 455.49 203.471 455.939 203.855C456.389 204.233 456.62 204.773 456.633 205.477C456.633 206.316 456.265 206.925 455.529 207.303ZM455.012 205.74C455.012 205.389 454.898 205.112 454.67 204.91C454.449 204.702 454.117 204.598 453.674 204.598H451.33V206.902H453.674C454.104 206.902 454.432 206.798 454.66 206.59C454.895 206.382 455.012 206.098 455.012 205.74ZM453.996 210.682C454.543 210.682 454.94 210.584 455.188 210.389C455.441 210.187 455.568 209.878 455.568 209.461C455.568 209.07 455.441 208.768 455.188 208.553C454.94 208.331 454.569 208.221 454.074 208.221H451.33V210.682H453.996ZM462.961 212.176C461.685 212.176 460.643 211.766 459.836 210.945C459.029 210.118 458.625 208.989 458.625 207.557C458.625 206.229 459.048 205.135 459.895 204.275C460.747 203.41 461.796 202.977 463.039 202.977C463.898 202.977 464.634 203.156 465.246 203.514C465.858 203.865 466.356 204.448 466.74 205.262L465.363 205.965C464.855 204.975 464.074 204.48 463.02 204.48C462.245 204.48 461.597 204.76 461.076 205.32C460.562 205.88 460.305 206.626 460.305 207.557C460.305 208.52 460.568 209.282 461.096 209.842C461.623 210.402 462.264 210.682 463.02 210.682C463.632 210.682 464.126 210.568 464.504 210.34C464.888 210.105 465.201 209.731 465.441 209.217L466.779 209.881C466.109 211.411 464.836 212.176 462.961 212.176ZM476.477 207.498C476.477 207.7 476.47 207.866 476.457 207.996H469.738C469.81 208.829 470.083 209.5 470.559 210.008C471.04 210.509 471.665 210.76 472.434 210.76C473.033 210.76 473.521 210.646 473.898 210.418C474.283 210.19 474.595 209.832 474.836 209.344L476.213 209.959C475.874 210.701 475.38 211.264 474.729 211.648C474.077 212.033 473.306 212.225 472.414 212.225C471.125 212.225 470.074 211.818 469.26 211.004C468.446 210.184 468.039 209.054 468.039 207.615C468.039 206.313 468.449 205.216 469.27 204.324C470.09 203.426 471.138 202.977 472.414 202.977C473.671 202.977 474.66 203.39 475.383 204.217C476.112 205.044 476.477 206.137 476.477 207.498ZM472.395 204.422C471.757 204.422 471.203 204.62 470.734 205.018C470.272 205.408 469.966 205.955 469.816 206.658H474.719C474.621 205.975 474.37 205.431 473.967 205.027C473.563 204.624 473.039 204.422 472.395 204.422ZM479.699 203.279H486.135V212H484.416V204.744H481.32L481.115 207.4C480.992 209.041 480.65 210.242 480.09 211.004C479.53 211.759 478.726 212.137 477.678 212.137V210.682C478.16 210.682 478.55 210.395 478.85 209.822C479.156 209.243 479.344 208.442 479.416 207.42L479.699 203.279ZM496.848 207.498C496.848 207.7 496.841 207.866 496.828 207.996H490.109C490.181 208.829 490.454 209.5 490.93 210.008C491.411 210.509 492.036 210.76 492.805 210.76C493.404 210.76 493.892 210.646 494.27 210.418C494.654 210.19 494.966 209.832 495.207 209.344L496.584 209.959C496.245 210.701 495.751 211.264 495.1 211.648C494.449 212.033 493.677 212.225 492.785 212.225C491.496 212.225 490.445 211.818 489.631 211.004C488.817 210.184 488.41 209.054 488.41 207.615C488.41 206.313 488.82 205.216 489.641 204.324C490.461 203.426 491.509 202.977 492.785 202.977C494.042 202.977 495.031 203.39 495.754 204.217C496.483 205.044 496.848 206.137 496.848 207.498ZM492.766 204.422C492.128 204.422 491.574 204.62 491.105 205.018C490.643 205.408 490.337 205.955 490.188 206.658H495.09C494.992 205.975 494.742 205.431 494.338 205.027C493.934 204.624 493.41 204.422 492.766 204.422ZM505.129 203.279H506.828V212H505.129V208.338H500.686V212H498.967V203.279H500.686V206.805H505.129V203.279ZM515.812 203.279H517.512V212H515.812V208.338H511.369V212H509.65V203.279H511.369V206.805H515.812V203.279ZM524.318 206.824C526.571 206.824 527.697 207.684 527.697 209.402C527.697 211.134 526.571 212 524.318 212H520.334V203.24H522.053V206.824H524.318ZM529.66 203.24H531.379V212H529.66V203.24ZM524.299 210.662C525.419 210.662 525.979 210.242 525.979 209.402C525.979 208.576 525.419 208.162 524.299 208.162H522.053V210.662H524.299ZM541.984 207.498C541.984 207.7 541.978 207.866 541.965 207.996H535.246C535.318 208.829 535.591 209.5 536.066 210.008C536.548 210.509 537.173 210.76 537.941 210.76C538.54 210.76 539.029 210.646 539.406 210.418C539.79 210.19 540.103 209.832 540.344 209.344L541.721 209.959C541.382 210.701 540.887 211.264 540.236 211.648C539.585 212.033 538.814 212.225 537.922 212.225C536.633 212.225 535.581 211.818 534.768 211.004C533.954 210.184 533.547 209.054 533.547 207.615C533.547 206.313 533.957 205.216 534.777 204.324C535.598 203.426 536.646 202.977 537.922 202.977C539.178 202.977 540.168 203.39 540.891 204.217C541.62 205.044 541.984 206.137 541.984 207.498ZM537.902 204.422C537.264 204.422 536.711 204.62 536.242 205.018C535.78 205.408 535.474 205.955 535.324 206.658H540.227C540.129 205.975 539.878 205.431 539.475 205.027C539.071 204.624 538.547 204.422 537.902 204.422Z" fill="#131313"/>
<g filter="url(#filter7_d_104_2831)">
<path d="M703 36.547C715.376 29.4017 730.624 29.4017 743 36.547L823.378 82.953C835.754 90.0983 843.378 103.303 843.378 117.594V210.406C843.378 224.697 835.754 237.902 823.378 245.047L743 291.453C730.624 298.598 715.376 298.598 703 291.453L622.622 245.047C610.246 237.902 602.622 224.697 602.622 210.406V117.594C602.622 103.303 610.246 90.0983 622.622 82.953L703 36.547Z" fill="white"/>
<path d="M703.25 36.98C715.471 29.924 730.529 29.924 742.75 36.98L823.128 83.386C835.349 90.442 842.878 103.482 842.878 117.594V210.406C842.878 224.518 835.349 237.558 823.128 244.614L742.75 291.02C730.529 298.076 715.471 298.076 703.25 291.02L622.872 244.614C610.651 237.558 603.122 224.518 603.122 210.406V117.594C603.122 103.482 610.651 90.442 622.872 83.386L703.25 36.98Z" stroke="#D7B185"/>
</g>
<path d="M723 109C714.75 109 708 115.75 708 124C708 132.25 714.75 139 723 139C731.25 139 738 132.25 738 124C738 115.75 731.25 109 723 109ZM729.3 121.45L722.1 128.65C721.5 129.25 720.6 129.25 720 128.65L716.7 125.35C716.1 124.75 716.1 123.85 716.7 123.25C717.3 122.65 718.2 122.65 718.8 123.25C720.043 124.493 722.057 124.493 723.3 123.25L727.2 119.35C727.8 118.75 728.7 118.75 729.3 119.35C729.9 119.95 729.9 120.85 729.3 121.45Z" fill="url(#paint7_linear_104_2831)"/>
<path d="M707.844 186V173.08H709.611V186H707.844ZM717.355 173.08C719.458 173.08 721.132 173.663 722.375 174.828C723.618 175.993 724.24 177.556 724.24 179.516C724.24 180.46 724.074 181.335 723.742 182.143C723.417 182.943 722.958 183.627 722.365 184.193C721.773 184.76 721.044 185.202 720.178 185.521C719.318 185.84 718.378 186 717.355 186H713.215V173.08H717.355ZM717.375 184.398C718.957 184.398 720.204 183.949 721.115 183.051C722.027 182.152 722.482 180.98 722.482 179.535C722.482 178.077 722.027 176.905 721.115 176.02C720.21 175.128 718.964 174.682 717.375 174.682H714.982V184.398H717.375ZM732.551 186.225C731.255 186.225 730.109 185.928 729.113 185.336C728.124 184.737 727.368 183.933 726.848 182.924C726.327 181.908 726.066 180.772 726.066 179.516C726.066 178.279 726.34 177.152 726.887 176.137C727.44 175.115 728.212 174.307 729.201 173.715C730.197 173.116 731.314 172.816 732.551 172.816C733.853 172.816 735.002 173.116 735.998 173.715C736.994 174.314 737.749 175.118 738.264 176.127C738.785 177.136 739.045 178.266 739.045 179.516C739.045 180.447 738.882 181.326 738.557 182.152C738.231 182.973 737.785 183.682 737.219 184.281C736.652 184.88 735.962 185.355 735.148 185.707C734.341 186.052 733.475 186.225 732.551 186.225ZM730.09 183.93C730.812 184.379 731.633 184.604 732.551 184.604C733.469 184.604 734.289 184.379 735.012 183.93C735.734 183.48 736.291 182.872 736.682 182.104C737.072 181.329 737.268 180.466 737.268 179.516C737.268 178.565 737.072 177.706 736.682 176.938C736.291 176.169 735.734 175.561 735.012 175.111C734.289 174.662 733.469 174.438 732.551 174.438C731.164 174.438 730.028 174.923 729.143 175.893C728.264 176.863 727.824 178.07 727.824 179.516C727.824 180.466 728.02 181.329 728.41 182.104C728.807 182.872 729.367 183.48 730.09 183.93Z" fill="#131313"/>
<defs>
<filter id="filter0_d_104_2831" x="110.623" y="378.188" width="310.755" height="335.624" filterUnits="userSpaceOnUse" color-interpolation-filters="sRGB">
<feFlood flood-opacity="0" result="BackgroundImageFix"/>
<feColorMatrix in="SourceAlpha" type="matrix" values="0 0 0 0 0 0 0 0 0 0 0 0 0 0 0 0 0 0 127 0" result="hardAlpha"/>
<feOffset dy="4"/>
<feGaussianBlur stdDeviation="17.5"/>
<feComposite in2="hardAlpha" operator="out"/>
<feColorMatrix type="matrix" values="0 0 0 0 0.898039 0 0 0 0 0.898039 0 0 0 0 0.898039 0 0 0 0.76 0"/>
<feBlend mode="multiply" in2="BackgroundImageFix" result="effect1_dropShadow_104_2831"/>
<feBlend mode="normal" in="SourceGraphic" in2="effect1_dropShadow_104_2831" result="shape"/>
</filter>
<filter id="filter1_d_104_2831" x="339.623" y="378.188" width="310.755" height="335.624" filterUnits="userSpaceOnUse" color-interpolation-filters="sRGB">
<feFlood flood-opacity="0" result="BackgroundImageFix"/>
<feColorMatrix in="SourceAlpha" type="matrix" values="0 0 0 0 0 0 0 0 0 0 0 0 0 0 0 0 0 0 127 0" result="hardAlpha"/>
<feOffset dy="4"/>
<feGaussianBlur stdDeviation="17.5"/>
<feComposite in2="hardAlpha" operator="out"/>
<feColorMatrix type="matrix" values="0 0 0 0 0.898039 0 0 0 0 0.898039 0 0 0 0 0.898039 0 0 0 0.76 0"/>
<feBlend mode="multiply" in2="BackgroundImageFix" result="effect1_dropShadow_104_2831"/>
<feBlend mode="normal" in="SourceGraphic" in2="effect1_dropShadow_104_2831" result="shape"/>
</filter>
<filter id="filter2_d_104_2831" x="0.622559" y="189.188" width="310.755" height="335.624" filterUnits="userSpaceOnUse" color-interpolation-filters="sRGB">
<feFlood flood-opacity="0" result="BackgroundImageFix"/>
<feColorMatrix in="SourceAlpha" type="matrix" values="0 0 0 0 0 0 0 0 0 0 0 0 0 0 0 0 0 0 127 0" result="hardAlpha"/>
<feOffset dy="4"/>
<feGaussianBlur stdDeviation="17.5"/>
<feComposite in2="hardAlpha" operator="out"/>
<feColorMatrix type="matrix" values="0 0 0 0 0.898039 0 0 0 0 0.898039 0 0 0 0 0.898039 0 0 0 0.76 0"/>
<feBlend mode="multiply" in2="BackgroundImageFix" result="effect1_dropShadow_104_2831"/>
<feBlend mode="normal" in="SourceGraphic" in2="effect1_dropShadow_104_2831" result="shape"/>
</filter>
<filter id="filter3_d_104_2831" x="567.623" y="381.188" width="310.755" height="335.624" filterUnits="userSpaceOnUse" color-interpolation-filters="sRGB">
<feFlood flood-opacity="0" result="BackgroundImageFix"/>
<feColorMatrix in="SourceAlpha" type="matrix" values="0 0 0 0 0 0 0 0 0 0 0 0 0 0 0 0 0 0 127 0" result="hardAlpha"/>
<feOffset dy="4"/>
<feGaussianBlur stdDeviation="17.5"/>
<feComposite in2="hardAlpha" operator="out"/>
<feColorMatrix type="matrix" values="0 0 0 0 0.898039 0 0 0 0 0.898039 0 0 0 0 0.898039 0 0 0 0.76 0"/>
<feBlend mode="multiply" in2="BackgroundImageFix" result="effect1_dropShadow_104_2831"/>
<feBlend mode="normal" in="SourceGraphic" in2="effect1_dropShadow_104_2831" result="shape"/>
</filter>
<filter id="filter4_d_104_2831" x="446.623" y="189.188" width="310.755" height="335.624" filterUnits="userSpaceOnUse" color-interpolation-filters="sRGB">
<feFlood flood-opacity="0" result="BackgroundImageFix"/>
<feColorMatrix in="SourceAlpha" type="matrix" values="0 0 0 0 0 0 0 0 0 0 0 0 0 0 0 0 0 0 127 0" result="hardAlpha"/>
<feOffset dy="4"/>
<feGaussianBlur stdDeviation="17.5"/>
<feComposite in2="hardAlpha" operator="out"/>
<feColorMatrix type="matrix" values="0 0 0 0 0.898039 0 0 0 0 0.898039 0 0 0 0 0.898039 0 0 0 0.76 0"/>
<feBlend mode="multiply" in2="BackgroundImageFix" result="effect1_dropShadow_104_2831"/>
<feBlend mode="normal" in="SourceGraphic" in2="effect1_dropShadow_104_2831" result="shape"/>
</filter>
<filter id="filter5_d_104_2831" x="110.623" y="0.188049" width="310.755" height="335.624" filterUnits="userSpaceOnUse" color-interpolation-filters="sRGB">
<feFlood flood-opacity="0" result="BackgroundImageFix"/>
<feColorMatrix in="SourceAlpha" type="matrix" values="0 0 0 0 0 0 0 0 0 0 0 0 0 0 0 0 0 0 127 0" result="hardAlpha"/>
<feOffset dy="4"/>
<feGaussianBlur stdDeviation="17.5"/>
<feComposite in2="hardAlpha" operator="out"/>
<feColorMatrix type="matrix" values="0 0 0 0 0.898039 0 0 0 0 0.898039 0 0 0 0 0.898039 0 0 0 0.76 0"/>
<feBlend mode="multiply" in2="BackgroundImageFix" result="effect1_dropShadow_104_2831"/>
<feBlend mode="normal" in="SourceGraphic" in2="effect1_dropShadow_104_2831" result="shape"/>
</filter>
<filter id="filter6_d_104_2831" x="339.623" y="0.188049" width="310.755" height="335.624" filterUnits="userSpaceOnUse" color-interpolation-filters="sRGB">
<feFlood flood-opacity="0" result="BackgroundImageFix"/>
<feColorMatrix in="SourceAlpha" type="matrix" values="0 0 0 0 0 0 0 0 0 0 0 0 0 0 0 0 0 0 127 0" result="hardAlpha"/>
<feOffset dy="4"/>
<feGaussianBlur stdDeviation="17.5"/>
<feComposite in2="hardAlpha" operator="out"/>
<feColorMatrix type="matrix" values="0 0 0 0 0.898039 0 0 0 0 0.898039 0 0 0 0 0.898039 0 0 0 0.76 0"/>
<feBlend mode="multiply" in2="BackgroundImageFix" result="effect1_dropShadow_104_2831"/>
<feBlend mode="normal" in="SourceGraphic" in2="effect1_dropShadow_104_2831" result="shape"/>
</filter>
<filter id="filter7_d_104_2831" x="567.623" y="0.188049" width="310.755" height="335.624" filterUnits="userSpaceOnUse" color-interpolation-filters="sRGB">
<feFlood flood-opacity="0" result="BackgroundImageFix"/>
<feColorMatrix in="SourceAlpha" type="matrix" values="0 0 0 0 0 0 0 0 0 0 0 0 0 0 0 0 0 0 127 0" result="hardAlpha"/>
<feOffset dy="4"/>
<feGaussianBlur stdDeviation="17.5"/>
<feComposite in2="hardAlpha" operator="out"/>
<feColorMatrix type="matrix" values="0 0 0 0 0.898039 0 0 0 0 0.898039 0 0 0 0 0.898039 0 0 0 0.76 0"/>
<feBlend mode="multiply" in2="BackgroundImageFix" result="effect1_dropShadow_104_2831"/>
<feBlend mode="normal" in="SourceGraphic" in2="effect1_dropShadow_104_2831" result="shape"/>
</filter>
<linearGradient id="paint0_linear_104_2831" x1="279.184" y1="492" x2="253.556" y2="492" gradientUnits="userSpaceOnUse">
<stop stop-color="#C9BA9B"/>
<stop offset="1" stop-color="#A07E3F"/>
</linearGradient>
<linearGradient id="paint1_linear_104_2831" x1="508.184" y1="487" x2="482.556" y2="487" gradientUnits="userSpaceOnUse">
<stop stop-color="#C9BA9B"/>
<stop offset="1" stop-color="#A07E3F"/>
</linearGradient>
<linearGradient id="paint2_linear_104_2831" x1="169.184" y1="303" x2="143.556" y2="303" gradientUnits="userSpaceOnUse">
<stop stop-color="#C9BA9B"/>
<stop offset="1" stop-color="#A07E3F"/>
</linearGradient>
<linearGradient id="paint3_linear_104_2831" x1="736.184" y1="495" x2="710.556" y2="495" gradientUnits="userSpaceOnUse">
<stop stop-color="#C9BA9B"/>
<stop offset="1" stop-color="#A07E3F"/>
</linearGradient>
<linearGradient id="paint4_linear_104_2831" x1="615.184" y1="303" x2="589.556" y2="303" gradientUnits="userSpaceOnUse">
<stop stop-color="#C9BA9B"/>
<stop offset="1" stop-color="#A07E3F"/>
</linearGradient>
<linearGradient id="paint5_linear_104_2831" x1="279.184" y1="109" x2="253.556" y2="109" gradientUnits="userSpaceOnUse">
<stop stop-color="#C9BA9B"/>
<stop offset="1" stop-color="#A07E3F"/>
</linearGradient>
<linearGradient id="paint6_linear_104_2831" x1="508.184" y1="109" x2="482.556" y2="109" gradientUnits="userSpaceOnUse">
<stop stop-color="#C9BA9B"/>
<stop offset="1" stop-color="#A07E3F"/>
</linearGradient>
<linearGradient id="paint7_linear_104_2831" x1="736.184" y1="109" x2="710.556" y2="109" gradientUnits="userSpaceOnUse">
<stop stop-color="#C9BA9B"/>
<stop offset="1" stop-color="#A07E3F"/>
</linearGradient>
</defs>
</svg>
