<svg width="24" height="29" viewBox="0 0 24 29" fill="none" xmlns="http://www.w3.org/2000/svg">
<path d="M15.2813 26.7188C15.2813 27.0918 15.1331 27.4494 14.8694 27.7132C14.6057 27.9769 14.248 28.125 13.8751 28.1251H10.1251C9.75209 28.1251 9.39441 27.9769 9.13068 27.7132C8.86696 27.4494 8.7188 27.0918 8.7188 26.7188C8.7188 26.3458 8.86696 25.9882 9.13068 25.7244C9.39441 25.4607 9.75209 25.3125 10.1251 25.3125H13.8751C14.248 25.3126 14.6057 25.4607 14.8694 25.7244C15.1331 25.9882 15.2813 26.3458 15.2813 26.7188V26.7188ZM23.5854 18.5675L22.1365 25.0868C22.0515 25.4759 21.8681 25.8366 21.6039 26.1346C21.3397 26.4326 21.0035 26.6579 20.6274 26.789C20.3759 26.8779 20.111 26.9235 19.8442 26.9237C19.3132 26.9232 18.7982 26.7415 18.3846 26.4085L15.2568 23.9063H8.74332L5.61551 26.4086C5.20183 26.7415 4.68692 26.9232 4.15593 26.9237C3.8891 26.9235 3.62425 26.8779 3.37269 26.789C2.99662 26.6579 2.66044 26.4326 2.39624 26.1346C2.13203 25.8366 1.94864 25.4758 1.86357 25.0868L0.414738 18.5673C0.338089 18.2174 0.342145 17.8547 0.426597 17.5066C0.511049 17.1585 0.673678 16.8343 0.902142 16.5584L4.27466 12.5114C4.39486 11.081 4.72133 9.67563 5.24392 8.33878C6.65864 4.69561 9.16398 2.31392 10.5314 1.21849C10.9501 0.8861 11.4694 0.705998 12.0039 0.707777C12.5385 0.709555 13.0566 0.893107 13.473 1.22828C14.8229 2.32491 17.2963 4.70831 18.6968 8.35034C19.2024 9.65684 19.5237 11.0274 19.6514 12.4225L23.098 16.5584C23.3264 16.8343 23.4891 17.1586 23.5735 17.5067C23.658 17.8548 23.662 18.2176 23.5854 18.5675ZM7.86564 9.35691C6.45607 12.9867 6.86429 16.9318 9.07792 21.0938H14.9137C17.0778 16.9344 17.4678 12.9903 16.0717 9.35983C14.977 6.51311 13.0299 4.55388 11.994 3.65821C10.9451 4.5521 8.97103 6.51036 7.86564 9.35691ZM6.45087 22.1385C5.53556 20.4091 4.87794 18.5552 4.49885 16.6356L3.21019 18.182L4.44592 23.7425L6.45087 22.1385ZM20.7899 18.182L19.4577 16.5834C19.0926 18.5165 18.447 20.3858 17.5414 22.1322L19.5542 23.7425L20.7899 18.182ZM12.0001 13.125C12.3709 13.125 12.7334 13.0151 13.0417 12.8091C13.3501 12.603 13.5904 12.3102 13.7323 11.9676C13.8742 11.625 13.9114 11.248 13.839 10.8843C13.7667 10.5205 13.5881 10.1864 13.3259 9.92422C13.0637 9.662 12.7296 9.48342 12.3658 9.41107C12.0021 9.33873 11.6251 9.37586 11.2825 9.51777C10.9399 9.65969 10.6471 9.90001 10.441 10.2084C10.235 10.5167 10.1251 10.8792 10.1251 11.25C10.1256 11.7472 10.3233 12.2237 10.6749 12.5752C11.0264 12.9268 11.5029 13.1245 12.0001 13.125Z" fill="url(#paint0_linear_104_2756)"/>
<defs>
<linearGradient id="paint0_linear_104_2756" x1="12.0001" y1="0.707764" x2="12.0001" y2="28.125" gradientUnits="userSpaceOnUse">
<stop stop-color="#A07E3F"/>
<stop offset="1" stop-color="#D7B185"/>
</linearGradient>
</defs>
</svg>
