<svg width="28" height="24" viewBox="0 0 28 24" fill="none" xmlns="http://www.w3.org/2000/svg">
<path d="M0.593392 1.1013C0.27012 1.30965 0.000104527 1.6133 0.000104527 2.04775V19.5716C0.000104527 19.5716 -0.0697352 23.1879 3.40111 23.1879H25.4973C26.1986 23.1879 27.2214 22.991 27.605 22.5514C27.8241 22.2999 28.0001 21.979 28.0001 21.5961C28.0001 21.2067 27.8184 20.8497 27.5948 20.5575C27.2138 20.0595 26.1986 19.7845 25.4973 19.7825L5.90518 19.7208C5.20328 19.7182 4.14494 19.8097 3.74225 19.4763C3.5492 19.3168 3.40111 19.0544 3.40111 18.6276V15.7766C3.40111 15.0753 3.9436 14.3353 4.61315 14.1257L9.03932 12.7352C9.70887 12.525 10.6991 12.706 11.2512 13.1392L16.3006 17.101C16.8526 17.5342 17.7139 17.4955 18.2246 17.014L26.8738 8.8667C27.3845 8.38518 27.8082 7.42669 27.8197 6.72538L27.8666 3.9583C27.8786 3.25698 27.4772 3.08168 26.971 3.56764L18.3288 11.8529C17.8225 12.3388 16.9561 12.3922 16.394 11.9723L11.4246 8.2601C10.8624 7.84024 9.87028 7.68842 9.20773 7.92024L4.6372 9.52492C3.97524 9.75745 3.43533 9.37695 3.43288 8.67505L3.40742 3.17336C3.40426 2.47205 3.17489 1.44115 2.69466 1.06755C2.21442 0.693472 1.13588 0.751866 0.593392 1.1013Z" fill="url(#paint0_linear_104_2803)"/>
<defs>
<linearGradient id="paint0_linear_104_2803" x1="14.0001" y1="0.812012" x2="14.0001" y2="23.1879" gradientUnits="userSpaceOnUse">
<stop stop-color="#A07E3F"/>
<stop offset="1" stop-color="#D7B185"/>
</linearGradient>
</defs>
</svg>
