<svg width="30" height="22" viewBox="0 0 30 22" fill="none" xmlns="http://www.w3.org/2000/svg">
<path d="M29.565 6.93503L23.565 0.935034C23.4251 0.795176 23.2591 0.684235 23.0763 0.608545C22.8936 0.532854 22.6978 0.493896 22.5 0.493896C22.1005 0.493896 21.7174 0.652578 21.435 0.935034C21.1525 1.21749 20.9938 1.60058 20.9938 2.00003C20.9938 2.39949 21.1525 2.78258 21.435 3.06503L24.885 6.50003H7.49997C7.10214 6.50003 6.72061 6.65807 6.43931 6.93937C6.158 7.22068 5.99997 7.60221 5.99997 8.00003C5.99997 8.39786 6.158 8.77939 6.43931 9.06069C6.72061 9.342 7.10214 9.50004 7.49997 9.50004H28.5C28.7961 9.49856 29.0852 9.40945 29.3308 9.24395C29.5763 9.07845 29.7674 8.84396 29.88 8.57003C29.9948 8.29687 30.0262 7.9958 29.9702 7.70481C29.9141 7.41383 29.7731 7.14597 29.565 6.93503ZM22.5 12.5H1.49997C1.20383 12.5015 0.914753 12.5906 0.669172 12.7561C0.423592 12.9216 0.232495 13.1561 0.119965 13.43C0.00509589 13.7032 -0.0262881 14.0043 0.0297731 14.2953C0.0858343 14.5862 0.226829 14.8541 0.434965 15.065L6.43497 21.065C6.57441 21.2056 6.74031 21.3172 6.9231 21.3934C7.10589 21.4695 7.30195 21.5087 7.49997 21.5087C7.69798 21.5087 7.89404 21.4695 8.07683 21.3934C8.25962 21.3172 8.42552 21.2056 8.56497 21.065C8.70556 20.9256 8.81715 20.7597 8.8933 20.5769C8.96946 20.3941 9.00866 20.1981 9.00866 20C9.00866 19.802 8.96946 19.606 8.8933 19.4232C8.81715 19.2404 8.70556 19.0745 8.56497 18.935L5.11497 15.5H22.5C22.8978 15.5 23.2793 15.342 23.5606 15.0607C23.8419 14.7794 24 14.3979 24 14C24 13.6022 23.8419 13.2207 23.5606 12.9394C23.2793 12.6581 22.8978 12.5 22.5 12.5Z" fill="url(#paint0_linear_152_98)"/>
<defs>
<linearGradient id="paint0_linear_152_98" x1="15" y1="0.493896" x2="15" y2="21.5087" gradientUnits="userSpaceOnUse">
<stop stop-color="#A07E3F"/>
<stop offset="1" stop-color="#D7B185"/>
</linearGradient>
</defs>
</svg>
