<svg width="28" height="28" viewBox="0 0 28 28" fill="none" xmlns="http://www.w3.org/2000/svg">
<path d="M22.121 3.42349L23.4773 3.25396C24.0843 3.1774 24.5163 2.62506 24.4452 2.01256C24.3741 1.44928 23.9148 0.989901 23.2038 1.04459L19.1241 1.55318C18.5171 1.62974 18.0851 2.18209 18.1562 2.78912L18.6593 6.92349C18.7358 7.53053 19.2882 7.96803 19.8952 7.89146C20.5023 7.8149 20.9398 7.26256 20.8632 6.65006L20.6773 5.11334C24.5109 7.95709 26.1023 12.8899 24.6312 17.4563C23.1601 22.0227 18.8398 25.1563 14.0655 25.1672C13.3601 25.1672 12.9116 25.6376 12.8952 26.2501C12.8843 26.8626 13.3218 27.3876 14.0655 27.3876C19.7968 27.3876 24.9866 23.6196 26.7476 18.1344C28.4976 12.7149 26.6382 6.84693 22.121 3.42349Z" fill="url(#paint0_linear_152_105)"/>
<path d="M9.33524 21.0711C9.25868 20.4641 8.70633 20.0266 8.0993 20.1032C7.49227 20.1797 7.05477 20.7321 7.13133 21.3446L7.31727 22.8813C3.48367 20.0375 1.89227 15.1047 3.36336 10.5383C4.83446 5.97191 9.15477 2.83831 13.929 2.82737C14.6345 2.82737 15.0829 2.35706 15.0993 1.74456C15.1102 1.13206 14.6727 0.607062 13.929 0.607062C8.20321 0.601593 3.01336 4.36956 1.25242 9.85472C-0.497579 15.2852 1.3618 21.1532 5.87899 24.5766L4.52274 24.7461C3.91571 24.8227 3.48367 25.375 3.55477 25.9875C3.62586 26.5508 4.08524 27.0102 4.79617 26.9555L8.87586 26.4469C9.4829 26.3703 9.91493 25.818 9.84383 25.211L9.33524 21.0711Z" fill="url(#paint1_linear_152_105)"/>
<defs>
<linearGradient id="paint0_linear_152_105" x1="20.1466" y1="1.04016" x2="20.1466" y2="27.3876" gradientUnits="userSpaceOnUse">
<stop stop-color="#A07E3F"/>
<stop offset="1" stop-color="#D7B185"/>
</linearGradient>
<linearGradient id="paint1_linear_152_105" x1="7.85066" y1="0.607056" x2="7.85066" y2="26.9599" gradientUnits="userSpaceOnUse">
<stop stop-color="#A07E3F"/>
<stop offset="1" stop-color="#D7B185"/>
</linearGradient>
</defs>
</svg>
