<svg width="5" height="18" viewBox="0 0 5 18" fill="none" xmlns="http://www.w3.org/2000/svg">
<path d="M0.49581 10.1552C0.577863 10.9188 0.715781 11.4866 0.917422 11.8905C1.19762 12.4502 1.73883 12.7586 2.43977 12.7586C3.12675 12.7586 3.66882 12.4494 3.96823 11.8865C4.19256 11.4641 4.3331 10.902 4.39595 10.1712L4.91184 4.72987C4.97032 4.20629 5 3.69074 5 3.18322C5 2.25251 4.86382 1.54263 4.58188 1.00942C4.33659 0.548475 3.79103 0 2.58467 0C1.82001 0 1.18802 0.240108 0.709672 0.713095C0.240049 1.17323 0 1.8004 0 2.57533C0 3.03225 0.0366627 3.78711 0.109987 4.83908L0.49581 10.1552Z" fill="#83CA4D"/>
<path d="M0.725384 14.1013C0.251397 14.5357 0 15.0922 0 15.7122C0 16.414 0.271473 17.0002 0.784741 17.4114C1.27619 17.8017 1.85754 18 2.51222 18C3.16254 18 3.74127 17.7984 4.22922 17.3985C4.73376 16.9866 5 16.4036 5 15.7122C5 15.089 4.74337 14.5301 4.26065 14.0973C3.28387 13.2171 1.68034 13.2211 0.725384 14.1013Z" fill="#83CA4D"/>
</svg>
