<svg width="12" height="6" viewBox="0 0 12 6" fill="none" xmlns="http://www.w3.org/2000/svg">
<path d="M5.99059 5.99059C5.79067 5.99098 5.59692 5.92135 5.44298 5.79379L0.309104 1.51556C0.134367 1.37033 0.0244811 1.16163 0.00362066 0.935371C-0.0172397 0.709116 0.0526339 0.483841 0.19787 0.309103C0.343106 0.134366 0.551808 0.0244811 0.778063 0.00362068C1.00432 -0.0172397 1.22959 0.0526335 1.40433 0.19787L5.99059 4.03116L10.5768 0.334773C10.6644 0.263698 10.7651 0.210621 10.8732 0.178593C10.9813 0.146565 11.0946 0.136217 11.2068 0.148144C11.3189 0.160071 11.4275 0.194037 11.5265 0.248091C11.6254 0.302146 11.7127 0.375222 11.7833 0.46312C11.8617 0.551099 11.921 0.654312 11.9576 0.766293C11.9942 0.878275 12.0073 0.996611 11.9961 1.11389C11.9848 1.23117 11.9495 1.34486 11.8923 1.44784C11.835 1.55082 11.7572 1.64088 11.6635 1.71236L6.52964 5.84513C6.37128 5.95253 6.18148 6.00374 5.99059 5.99059Z" fill="#83CA4D"/>
</svg>
