<svg width="14" height="14" viewBox="0 0 14 14" fill="none" xmlns="http://www.w3.org/2000/svg">
<path fill-rule="evenodd" clip-rule="evenodd" d="M2.00153 7C2.00153 6.73483 2.10688 6.48052 2.29439 6.29302C2.4819 6.10552 2.73622 6.00018 3.0014 6.00018L13.0001 6.00018C13.2653 6.00018 13.5196 6.10552 13.7071 6.29302C13.8947 6.48052 14 6.73483 14 7C14 7.26517 13.8947 7.51948 13.7071 7.70698C13.5196 7.89448 13.2653 7.99982 13.0001 7.99982L3.0014 7.99982C2.73622 7.99982 2.4819 7.89448 2.29439 7.70698C2.10688 7.51948 2.00153 7.26517 2.00153 7Z" fill="white"/>
<path fill-rule="evenodd" clip-rule="evenodd" d="M0.29375 7.70787C0.200635 7.615 0.126758 7.50467 0.076352 7.3832C0.0259455 7.26173 8.19059e-08 7.13151 8.34742e-08 7C8.50424e-08 6.86849 0.0259455 6.73827 0.076352 6.6168C0.126758 6.49533 0.200635 6.385 0.29375 6.29213L6.29298 0.293209C6.48073 0.10547 6.73538 -8.73356e-07 7.00089 -8.7019e-07C7.26641 -8.67023e-07 7.52105 0.10547 7.7088 0.293209C7.89655 0.480949 8.00203 0.735578 8.00203 1.00108C8.00203 1.26659 7.89655 1.52121 7.7088 1.70895L2.41548 7L7.7088 12.291C7.80177 12.384 7.87551 12.4944 7.92582 12.6158C7.97613 12.7373 8.00203 12.8675 8.00203 12.9989C8.00203 13.1304 7.97613 13.2606 7.92582 13.382C7.87551 13.5035 7.80177 13.6138 7.7088 13.7068C7.61584 13.7997 7.50547 13.8735 7.38401 13.9238C7.26255 13.9741 7.13236 14 7.00089 14C6.86942 14 6.73924 13.9741 6.61777 13.9238C6.49631 13.8735 6.38595 13.7997 6.29298 13.7068L0.29375 7.70787Z" fill="white"/>
</svg>
