<svg width="44" height="44" viewBox="0 0 44 44" fill="none" xmlns="http://www.w3.org/2000/svg">
<circle cx="22" cy="22" r="22" fill="white"/>
<path d="M34.3186 21.8137C34.2701 18.5481 32.9681 15.4939 30.6521 13.214C28.3374 10.935 25.2651 9.68018 21.9999 9.68018C21.9988 9.68018 21.9973 9.68018 21.9962 9.68018C18.7067 9.68112 15.6143 10.9626 13.2884 13.2886C10.9624 15.6146 9.68087 18.707 9.67993 21.9964C9.67899 25.2627 10.934 28.3369 13.2137 30.6523C15.4937 32.9684 18.5479 34.2704 21.8132 34.3189C21.8589 34.3194 21.9046 34.32 21.9501 34.3202H21.9644C23.004 34.3202 23.9854 33.8686 24.6592 33.08C25.3442 32.2781 25.6397 31.2167 25.4698 30.1677C25.4292 29.9177 25.4119 29.6609 25.4181 29.4047C25.4437 28.3572 25.8702 27.368 26.619 26.6192C27.3677 25.8705 28.3571 25.4439 29.4044 25.4182C29.6606 25.412 29.9174 25.4293 30.1676 25.4699C31.2162 25.6398 32.278 25.3445 33.0799 24.6595C33.8721 23.9825 34.324 22.9952 34.3199 21.95C34.3197 21.9047 34.3192 21.859 34.3186 21.8137ZM32.1419 23.5618C31.6633 23.9709 31.0275 24.1468 30.3985 24.0449C30.0605 23.99 29.7138 23.9665 29.369 23.975C27.9494 24.0098 26.6101 24.5863 25.598 25.5985C24.5861 26.6104 24.0095 27.9496 23.9747 29.3693V29.3695C23.9663 29.7147 23.9898 30.0609 24.0445 30.3987C24.1466 31.0281 23.9704 31.6635 23.5615 32.1423C23.1568 32.6159 22.59 32.8764 21.9646 32.8764C21.9618 32.8764 21.9587 32.8764 21.9557 32.8764C21.9157 32.8762 21.8755 32.8759 21.8349 32.8753C18.9509 32.8324 16.2546 31.6833 14.2424 29.6395C12.2304 27.5958 11.1227 24.8817 11.1237 21.9968C11.1246 19.0929 12.2559 16.363 14.3093 14.3096C16.3627 12.2562 19.0927 11.1249 21.9965 11.1239H21.9999C24.8835 11.1239 27.5965 12.2316 29.6392 14.2427C31.683 16.2549 32.8322 18.9514 32.875 21.8355C32.8756 21.8759 32.876 21.9161 32.876 21.9562C32.8786 22.585 32.6179 23.1552 32.1419 23.5618Z" fill="#83CA4D"/>
<path d="M19.2374 13.1653C18.0433 13.1653 17.0718 14.1368 17.0718 15.3309C17.0718 16.525 18.0433 17.4965 19.2374 17.4965C20.4315 17.4965 21.4031 16.525 21.4031 15.3309C21.4031 14.1368 20.4315 13.1653 19.2374 13.1653ZM19.2374 16.0528C18.8395 16.0528 18.5156 15.7291 18.5156 15.3309C18.5156 14.9329 18.8395 14.609 19.2374 14.609C19.6356 14.609 19.9593 14.9329 19.9593 15.3309C19.9593 15.7291 19.6356 16.0528 19.2374 16.0528Z" fill="#83CA4D"/>
<path d="M15.3307 21.4033C16.5248 21.4033 17.4963 20.4318 17.4963 19.2377C17.4963 18.0436 16.5248 17.0721 15.3307 17.0721C14.1366 17.0721 13.165 18.0436 13.165 19.2377C13.165 20.4318 14.1366 21.4033 15.3307 21.4033ZM15.3307 18.5158C15.7286 18.5158 16.0525 18.8397 16.0525 19.2377C16.0525 19.6358 15.7286 19.9596 15.3307 19.9596C14.9327 19.9596 14.6088 19.6358 14.6088 19.2377C14.6088 18.8397 14.9325 18.5158 15.3307 18.5158Z" fill="#83CA4D"/>
<path d="M28.6692 17.0721C27.4751 17.0721 26.5035 18.0436 26.5035 19.2377C26.5035 20.4318 27.4751 21.4033 28.6692 21.4033C29.8633 21.4033 30.8348 20.4318 30.8348 19.2377C30.8348 18.0436 29.8635 17.0721 28.6692 17.0721ZM28.6692 19.9596C28.2712 19.9596 27.9473 19.6358 27.9473 19.2377C27.9473 18.8397 28.2712 18.5158 28.6692 18.5158C29.0673 18.5158 29.391 18.8397 29.391 19.2377C29.391 19.6358 29.0673 19.9596 28.6692 19.9596Z" fill="#83CA4D"/>
<path d="M15.3307 22.597C14.1366 22.597 13.165 23.5686 13.165 24.7627C13.165 25.9568 14.1366 26.9283 15.3307 26.9283C16.5248 26.9283 17.4963 25.9568 17.4963 24.7627C17.4963 23.5686 16.5248 22.597 15.3307 22.597ZM15.3307 25.4845C14.9327 25.4845 14.6088 25.1608 14.6088 24.7627C14.6088 24.3647 14.9327 24.0408 15.3307 24.0408C15.7286 24.0408 16.0525 24.3647 16.0525 24.7627C16.0525 25.1608 15.7286 25.4845 15.3307 25.4845Z" fill="#83CA4D"/>
<path d="M24.7624 13.1653C23.5683 13.1653 22.5968 14.1368 22.5968 15.3309C22.5968 16.525 23.5683 17.4965 24.7624 17.4965C25.9565 17.4965 26.928 16.525 26.928 15.3309C26.928 14.1368 25.9565 13.1653 24.7624 13.1653ZM24.7624 16.0528C24.3644 16.0528 24.0405 15.7291 24.0405 15.3309C24.0405 14.9329 24.3644 14.609 24.7624 14.609C25.1604 14.609 25.4843 14.9329 25.4843 15.3309C25.4843 15.7291 25.1606 16.0528 24.7624 16.0528Z" fill="#83CA4D"/>
<path d="M19.2374 26.5038C18.0433 26.5038 17.0718 27.4753 17.0718 28.6694C17.0718 29.8635 18.0433 30.8351 19.2374 30.8351C20.4315 30.8351 21.4031 29.8635 21.4031 28.6694C21.4031 27.4753 20.4315 26.5038 19.2374 26.5038ZM19.2374 29.3913C18.8395 29.3913 18.5156 29.0676 18.5156 28.6694C18.5156 28.2715 18.8395 27.9476 19.2374 27.9476C19.6356 27.9476 19.9593 28.2715 19.9593 28.6694C19.9593 29.0676 19.6356 29.3913 19.2374 29.3913Z" fill="#83CA4D"/>
</svg>
