<svg width="44" height="44" viewBox="0 0 44 44" fill="none" xmlns="http://www.w3.org/2000/svg">
<circle cx="22" cy="22" r="22" fill="white"/>
<path d="M24.3702 11.9785L25.1075 12.1725V12.1725L24.3702 11.9785ZM32.1519 11.9785L32.8982 11.823V11.823L32.1519 11.9785ZM28.1806 16.9964L28.194 17.7586L28.2045 17.7584L28.215 17.7579L28.1806 16.9964ZM18.083 22.3173L17.608 22.9136L18.083 22.3173ZM18.014 25.1605L17.5455 24.5591L17.5455 24.5591L18.014 25.1605ZM24.0427 25.1471L23.5808 25.7536L24.0427 25.1471ZM27.1878 16.8677L27.3789 16.1298L27.3789 16.1298L27.1878 16.8677ZM23.9966 22.3079L24.4863 22.8921H24.4863L23.9966 22.3079ZM27.1837 12.8017C26.8826 12.5075 26.3999 12.5132 26.1057 12.8144C25.8116 13.1155 25.8172 13.5982 26.1184 13.8924L27.1837 12.8017ZM27.8049 14.474L27.2723 15.0194C27.5722 15.3123 28.0524 15.3081 28.3471 15.0099L27.8049 14.474ZM30.6279 12.7022C30.9239 12.4028 30.9211 11.9201 30.6216 11.6242C30.3222 11.3282 29.8395 11.331 29.5436 11.6305L30.6279 12.7022ZM13.0331 12.7408H24.3702V11.2162H13.0331V12.7408ZM25.1075 12.1725C25.3327 11.3166 26.2716 9.76231 28.1806 9.76231V8.23769C25.2793 8.23769 23.9445 10.6011 23.633 11.7845L25.1075 12.1725ZM28.1806 9.76231C29.3184 9.76231 30.0549 10.1223 30.534 10.5657C31.0268 11.0219 31.2973 11.6139 31.4057 12.134L32.8982 11.823C32.7383 11.0551 32.3379 10.1579 31.5696 9.44679C30.7875 8.72296 29.6725 8.23769 28.1806 8.23769V9.76231ZM31.4057 12.134C31.5414 12.7857 31.5018 13.8075 31.0442 14.6547C30.617 15.4454 29.7885 16.1606 28.1462 16.2348L28.215 17.7579C30.3723 17.6604 31.6945 16.6586 32.3856 15.3793C33.0462 14.1565 33.0924 12.7551 32.8982 11.823L31.4057 12.134ZM13.0331 14.807H14.737V13.2824H13.0331V14.807ZM14.737 14.807H24.3702V13.2824H14.737V14.807ZM13.9847 13.9218C13.6758 15.8125 14.0191 20.0546 17.608 22.9136L18.558 21.7211C15.5318 19.3104 15.2386 15.7025 15.4894 14.1676L13.9847 13.9218ZM17.8924 23.448V23.9481H19.417V23.448H17.8924ZM17.5455 24.5591C15.8557 25.8754 13.5545 28.8244 13.9782 33.2232L15.4958 33.077C15.1349 29.3305 17.0866 26.8492 18.4824 25.7618L17.5455 24.5591ZM14.737 32.3878H13.0868V33.9124H14.737V32.3878ZM13.0868 35.8176H28.9453V34.293H13.0868V35.8176ZM28.9453 32.3878H27.2951V33.9124H28.9453V32.3878ZM27.2951 32.3878H14.737V33.9124H27.2951V32.3878ZM28.051 33.2487C28.2973 31.3603 27.9143 27.1371 24.5045 24.5406L23.5808 25.7536C26.3866 27.8901 26.7476 31.4536 26.5392 33.0515L28.051 33.2487ZM24.1934 23.9813V23.4508H22.6687V23.9813H24.1934ZM28.1672 16.2342C27.9728 16.2376 27.6941 16.2114 27.3789 16.1298L26.9966 17.6057C27.4377 17.72 27.854 17.7645 28.194 17.7586L28.1672 16.2342ZM27.3789 16.1298C26.4956 15.901 25.4661 15.2849 25.1098 13.8598L23.6307 14.2296C24.1616 16.3531 25.7495 17.2826 26.9966 17.6057L27.3789 16.1298ZM24.4863 22.8921C25.7455 21.8367 27.6394 19.69 27.9453 16.9524L26.4302 16.7831C26.1875 18.9537 24.6382 20.7754 23.5069 21.7236L24.4863 22.8921ZM23.633 11.7845C23.552 12.0923 23.5193 12.5182 23.5173 12.9191C23.5151 13.3317 23.5452 13.7935 23.6218 14.1896L25.1187 13.8998C25.0665 13.6304 25.0401 13.2738 25.0419 12.927C25.0437 12.5685 25.0755 12.2941 25.1075 12.1725L23.633 11.7845ZM24.1934 23.4508C24.1934 23.2672 24.288 23.0583 24.4863 22.8921L23.5069 21.7236C23.0226 22.1295 22.6687 22.7439 22.6687 23.4508H24.1934ZM24.5045 24.5406C24.2945 24.3806 24.1934 24.1686 24.1934 23.9813H22.6687C22.6687 24.7186 23.0552 25.3533 23.5808 25.7536L24.5045 24.5406ZM30.6602 34.1027C30.6602 33.1556 29.8925 32.3878 28.9453 32.3878V33.9124C29.0504 33.9124 29.1356 33.9976 29.1356 34.1027H30.6602ZM28.9453 35.8176C29.8925 35.8176 30.6602 35.0498 30.6602 34.1027H29.1356C29.1356 34.2078 29.0504 34.293 28.9453 34.293V35.8176ZM17.8924 23.9481C17.8924 24.1435 17.7821 24.3748 17.5455 24.5591L18.4824 25.7619C19.0035 25.3559 19.417 24.7132 19.417 23.9481H17.8924ZM17.608 22.9136C17.7988 23.0656 17.8924 23.267 17.8924 23.448H19.417C19.417 22.7415 19.0612 22.122 18.558 21.7211L17.608 22.9136ZM12.7623 13.0116C12.7623 12.8621 12.8835 12.7408 13.0331 12.7408V11.2162C12.0415 11.2162 11.2377 12.02 11.2377 13.0116H12.7623ZM13.0868 32.3878C12.1396 32.3878 11.3719 33.1556 11.3719 34.1027H12.8965C12.8965 33.9976 12.9817 33.9124 13.0868 33.9124V32.3878ZM11.3719 34.1027C11.3719 35.0498 12.1396 35.8176 13.0868 35.8176V34.293C12.9817 34.293 12.8965 34.2078 12.8965 34.1027H11.3719ZM11.2377 13.0116C11.2377 14.0032 12.0415 14.807 13.0331 14.807V13.2824C12.8835 13.2824 12.7623 13.1611 12.7623 13.0116H11.2377ZM26.1184 13.8924L27.2723 15.0194L28.3376 13.9287L27.1837 12.8017L26.1184 13.8924ZM28.3471 15.0099L30.6279 12.7022L29.5436 11.6305L27.2627 13.9382L28.3471 15.0099Z" fill="#83CA4D"/>
</svg>
