<svg width="44" height="44" viewBox="0 0 44 44" fill="none" xmlns="http://www.w3.org/2000/svg">
<circle cx="22" cy="22" r="22" fill="white"/>
<path d="M12.7049 18.1173C13.0943 18.1173 13.4098 17.8017 13.4098 17.4124V14.4069L17.9498 18.946C18.0875 19.0836 18.2678 19.1524 18.4482 19.1524C18.6287 19.1524 18.8091 19.0836 18.9467 18.9459C19.222 18.6706 19.222 18.2243 18.9466 17.9491L14.4064 13.4098H17.4126C17.8019 13.4098 18.1175 13.0942 18.1175 12.7049C18.1175 12.3156 17.8019 12 17.4126 12H12.7049C12.3155 12 12 12.3156 12 12.7049V17.4125C12 17.8017 12.3155 18.1173 12.7049 18.1173Z" fill="#83CA4D"/>
<path d="M31.535 26.1227C31.1456 26.1227 30.8301 26.4383 30.8301 26.8276V29.8332L26.1504 25.1534C25.875 24.8781 25.4287 24.8781 25.1534 25.1534C24.8782 25.4287 24.8782 25.875 25.1534 26.1502L29.8331 30.83H26.8277C26.4383 30.83 26.1228 31.1456 26.1228 31.5349C26.1228 31.9242 26.4383 32.2398 26.8277 32.2398H31.5351C31.9245 32.2398 32.24 31.9242 32.24 31.5349V26.8276C32.2399 26.4383 31.9243 26.1227 31.535 26.1227Z" fill="#83CA4D"/>
<path d="M18.0895 25.1534L13.4103 29.8331V26.8276C13.4103 26.4383 13.0948 26.1227 12.7054 26.1227C12.316 26.1227 12.0005 26.4383 12.0005 26.8276V31.5351C12.0005 31.9244 12.316 32.24 12.7054 32.24H17.4126C17.8019 32.24 18.1175 31.9244 18.1175 31.5351C18.1175 31.1458 17.8019 30.8302 17.4126 30.8302H14.4071L19.0865 26.1502C19.3617 25.8749 19.3617 25.4286 19.0864 25.1533C18.8113 24.8781 18.3649 24.8781 18.0895 25.1534Z" fill="#83CA4D"/>
<path d="M31.535 12H26.8276C26.4382 12 26.1227 12.3156 26.1227 12.7049C26.1227 13.0942 26.4382 13.4098 26.8276 13.4098H29.8332L25.2939 17.9496C25.0186 18.2248 25.0186 18.6712 25.294 18.9465C25.4316 19.0841 25.612 19.1529 25.7924 19.1529C25.9727 19.1529 26.1532 19.084 26.2909 18.9464L30.8302 14.4067V17.4124C30.8302 17.8017 31.1457 18.1173 31.5351 18.1173C31.9245 18.1173 32.24 17.8017 32.24 17.4124V12.7049C32.2399 12.3155 31.9243 12 31.535 12Z" fill="#83CA4D"/>
</svg>
