<svg width="24" height="12" viewBox="0 0 24 12" fill="none" xmlns="http://www.w3.org/2000/svg">
<path fill-rule="evenodd" clip-rule="evenodd" d="M21.8164 6C21.8164 6.22729 21.7015 6.44527 21.4969 6.60598C21.2923 6.7667 21.0149 6.85699 20.7256 6.85699L1.09082 6.85699C0.801517 6.85699 0.524063 6.7667 0.319494 6.60598C0.114925 6.44527 1.63515e-06 6.22729 1.64508e-06 6C1.65502e-06 5.77271 0.114925 5.55473 0.319494 5.39402C0.524063 5.2333 0.801517 5.14301 1.09082 5.14301L20.7256 5.14301C21.0149 5.14301 21.2923 5.2333 21.4969 5.39402C21.7015 5.55474 21.8164 5.77271 21.8164 6Z" fill="white"/>
<path fill-rule="evenodd" clip-rule="evenodd" d="M23.6795 5.39325C23.7811 5.47286 23.8617 5.56743 23.9167 5.67155C23.9717 5.77566 24 5.88728 24 6C24 6.11272 23.9717 6.22434 23.9167 6.32846C23.8617 6.43257 23.7811 6.52714 23.6795 6.60675L17.1346 11.7487C16.9298 11.9096 16.652 12 16.3623 12C16.0726 12 15.7948 11.9096 15.59 11.7487C15.3852 11.5878 15.2701 11.3695 15.2701 11.1419C15.2701 10.9144 15.3852 10.6961 15.59 10.5352L21.3648 6L15.59 1.46482C15.3852 1.3039 15.2701 1.08565 15.2701 0.858071C15.2701 0.630496 15.3852 0.412242 15.59 0.251323C15.7948 0.0904035 16.0726 -3.46516e-07 16.3623 -3.33854e-07C16.652 -3.21192e-07 16.9298 0.0904035 17.1346 0.251323L23.6795 5.39325Z" fill="white"/>
</svg>
