<svg width="13" height="10" viewBox="0 0 13 10" fill="none" xmlns="http://www.w3.org/2000/svg">
<path d="M2.65806 5.28999C2.46976 5.10169 2.21436 4.9959 1.94806 4.9959C1.68176 4.9959 1.42637 5.10169 1.23806 5.28999C1.04976 5.4783 0.94397 5.73369 0.94397 5.99999C0.94397 6.26629 1.04976 6.52169 1.23806 6.70999L4.23806 9.70999C4.3315 9.80268 4.44232 9.876 4.56415 9.92577C4.68599 9.97553 4.81645 10.0008 4.94806 9.99999C5.08496 9.99565 5.21951 9.96323 5.34336 9.90475C5.46721 9.84626 5.57773 9.76295 5.66806 9.65999L12.6681 1.65999C12.8297 1.45932 12.9076 1.204 12.8856 0.947275C12.8636 0.690547 12.7433 0.452226 12.5499 0.282002C12.3565 0.111778 12.1048 0.0227911 11.8473 0.0335951C11.5899 0.0443991 11.3466 0.15416 11.1681 0.339993L4.94806 7.53999L2.65806 5.28999Z" fill="#83CA4D"/>
</svg>
