<svg width="27" height="26" viewBox="0 0 27 26" fill="none" xmlns="http://www.w3.org/2000/svg">
<path d="M7.96312 16.6796H9.5452C9.5452 14.9661 10.9643 13.5728 12.7094 13.5728V12.0194C10.9643 12.0194 9.5452 10.626 9.5452 8.91255H7.96312C7.96312 10.626 6.54405 12.0194 4.79897 12.0194V13.5728C6.54405 13.5728 7.96312 14.9661 7.96312 16.6796Z" fill="#B4B4B4"/>
<path d="M3.21689 26H4.79897C4.79897 24.2865 6.21804 22.8932 7.96312 22.8932V21.3398C6.21804 21.3398 4.79897 19.9464 4.79897 18.233H3.21689C3.21689 19.9464 1.74508 21.3398 0 21.3398V22.8932C1.74508 22.8932 3.21689 24.2865 3.21689 26Z" fill="#B4B4B4"/>
<path d="M25.6789 17.5519C26.1298 16.3368 25.4883 15.0043 24.2605 14.5649L23.3907 14.2539C23.3985 13.5639 23.0801 12.8921 22.524 12.441L27 0.533957L25.5137 0L21.0368 11.9094C20.3236 11.9043 19.6379 12.2108 19.1844 12.7513L18.3138 12.4403C17.7197 12.2272 17.0747 12.2545 16.4992 12.5177C15.9252 12.7809 15.4895 13.2481 15.2725 13.8329L15.0018 14.5629L25.4082 18.2817L25.6789 17.5519Z" fill="#B4B4B4"/>
<path d="M9.67651 18.9763L8.37177 18.8595L8.87387 20.0481C9.14657 20.6921 9.48956 21.3064 9.89357 21.8738C10.894 23.2808 12.5 24.1925 14.2914 24.4011V25.3235L14.8322 25.5002C15.5753 25.7445 16.3154 25.9181 17.0717 25.8628C19.4162 25.8628 21.6348 24.7281 23.0083 22.8273C23.7064 21.8618 24.2874 20.8121 24.7964 19.7158L14.458 16.0211C13.7249 17.9496 11.7634 19.1573 9.67651 18.9763Z" fill="#B4B4B4"/>
</svg>
