<svg width="26" height="26" viewBox="0 0 26 26" fill="none" xmlns="http://www.w3.org/2000/svg">
<path d="M25.9997 22.4618C25.9796 23.5684 25.058 24.459 23.94 24.4284C22.477 24.3884 21.519 22.803 22.2284 21.4809L19.8629 19.4534C17.7383 21.7111 14.6923 22.7594 11.6764 22.3316C11.4075 22.2934 11.2419 22.017 11.331 21.7604L11.9634 19.9412C12.0399 19.7213 11.9235 19.481 11.7036 19.4045C11.4385 19.3123 11.2157 19.4526 11.1448 19.6567C11.007 20.0531 10.1009 22.6595 9.95751 23.0721C10.3872 23.3588 10.6708 23.8478 10.6708 24.4021C10.6708 25.2834 9.9542 26 9.07291 26C8.19162 26 7.475 25.2834 7.475 24.4021C7.475 23.5029 8.22196 22.772 9.13261 22.8057L9.49975 21.7495C7.81468 21.0731 6.3681 19.9246 5.32675 18.467L3.88321 19.3987C4.34601 20.6442 3.48736 21.9688 2.19836 22.0908C0.958593 22.2081 -0.0806474 21.1877 0.00493588 19.9538C0.12199 18.2657 2.18888 17.4623 3.4125 18.6713L4.85604 17.7401C2.98258 14.5342 3.16697 10.4952 5.38081 7.45956L3.69374 6.10989C2.38843 7.16327 0.43334 6.2302 0.43334 4.55C0.43334 3.445 1.33251 2.54583 2.4375 2.54583C3.9169 2.54583 4.89103 4.10562 4.23573 5.43362C4.38615 5.55393 8.68427 8.99248 8.76823 9.05965C8.96258 9.21511 9.24971 9.17616 9.39461 8.96886C9.52683 8.77971 9.4783 8.51782 9.29803 8.37363L6.9264 6.47633C6.71401 6.30641 6.70789 5.98401 6.9154 5.80813C9.88666 3.2903 13.9789 2.92327 17.2627 4.59615L17.8882 3.49207C16.5268 2.264 17.4028 0 19.2292 0C20.3342 0 21.2333 0.899167 21.2333 2.00417C21.2333 3.35048 19.9261 4.31497 18.6417 3.92031C18.3104 4.50504 17.4657 5.99614 17.1115 6.62155C16.9888 6.83811 17.0728 7.11539 17.3004 7.22556C17.5082 7.3261 17.7591 7.23661 17.8728 7.03582L18.4776 5.96825C18.6129 5.72943 18.9319 5.67656 19.14 5.85558C20.4035 6.94287 21.3766 8.35851 21.925 9.96883L22.8052 9.71425C22.7485 8.92049 23.4361 8.07083 24.4021 8.07083C25.3177 8.07083 26.0556 8.84433 25.9967 9.77243C25.9446 10.5929 25.2578 11.2493 24.4358 11.2663C23.8624 11.2782 23.3554 10.9867 23.0647 10.5414L22.1661 10.8014C22.8244 13.5484 22.2274 16.4947 20.4273 18.7958L22.7928 20.8233C24.1329 19.8144 26.0294 20.8178 25.9997 22.4618ZM8.82916 16.1958C9.99402 16.1958 10.9417 15.2482 10.9417 14.0833C10.9417 12.9185 9.99402 11.9708 8.82916 11.9708C7.66431 11.9708 6.71667 12.9185 6.71667 14.0833C6.71667 15.2482 7.66431 16.1958 8.82916 16.1958ZM12.4042 8.45C12.882 8.45 13.2708 8.06125 13.2708 7.58333C13.2708 7.10542 12.882 6.71667 12.4042 6.71667C11.9263 6.71667 11.5375 7.10542 11.5375 7.58333C11.5375 8.06125 11.9263 8.45 12.4042 8.45ZM19.7708 14.2458C19.7708 12.3044 18.1914 10.725 16.25 10.725C14.3086 10.725 12.7292 12.3044 12.7292 14.2458C12.7292 16.1872 14.3086 17.7667 16.25 17.7667C18.1914 17.7667 19.7708 16.1872 19.7708 14.2458ZM16.25 11.5917C14.7865 11.5917 13.5958 12.7823 13.5958 14.2458C13.5958 15.7094 14.7865 16.9 16.25 16.9C17.7135 16.9 18.9042 15.7094 18.9042 14.2458C18.9042 12.7823 17.7135 11.5917 16.25 11.5917ZM8.82916 12.8375C8.14222 12.8375 7.58333 13.3964 7.58333 14.0833C7.58333 14.7703 8.14222 15.3292 8.82916 15.3292C9.5161 15.3292 10.075 14.7703 10.075 14.0833C10.075 13.3964 9.5161 12.8375 8.82916 12.8375Z" fill="#B4B4B4"/>
</svg>
