<svg width="16" height="27" viewBox="0 0 16 27" fill="none" xmlns="http://www.w3.org/2000/svg">
<path d="M12.5058 16.8795C11.9753 16.0742 11.2701 15.3905 10.4394 14.8762V3.54099C10.4394 1.58533 8.80408 0 6.78679 0C4.7695 0 3.13422 1.58533 3.13422 3.54099V14.8762C-0.0243358 16.8319 -0.94955 20.8995 1.06774 23.9615C3.08502 27.0236 7.28081 27.9205 10.4394 25.9649C13.5979 24.0092 14.5231 19.9416 12.5058 16.8795ZM10.3455 20.7405C10.0916 22.4568 8.57265 23.7297 6.7842 23.7249V23.7199C4.8028 23.7251 3.19211 22.1723 3.18659 20.2514C3.18166 18.5176 4.49465 17.0451 6.265 16.7989V9.16832C6.265 8.89036 6.49747 8.66498 6.7842 8.66498C7.07092 8.66498 7.3034 8.89036 7.3034 9.16832V16.804C9.26474 17.0767 10.6267 18.8391 10.3455 20.7405Z" fill="#B4B4B4"/>
<path d="M6.7842 22.7132C8.19212 22.7132 9.33347 21.6067 9.33347 20.2418C9.33347 18.8769 8.19212 17.7704 6.7842 17.7704C5.37627 17.7704 4.23492 18.8769 4.23492 20.2418C4.23492 21.6067 5.37627 22.7132 6.7842 22.7132Z" fill="#B4B4B4"/>
<path d="M15.4808 3.46046H12.2358C11.9491 3.46046 11.7166 3.68583 11.7166 3.9638C11.7166 4.24177 11.9491 4.46714 12.2358 4.46714H15.4808C15.7675 4.46714 16 4.24177 16 3.9638C16 3.68583 15.7675 3.46046 15.4808 3.46046Z" fill="#B4B4B4"/>
<path d="M14.811 5.97715H12.9056C12.6188 5.97715 12.3864 6.20252 12.3864 6.48049C12.3864 6.75846 12.6188 6.98383 12.9056 6.98383H14.811C15.0978 6.98383 15.3302 6.75846 15.3302 6.48049C15.3302 6.20252 15.0978 5.97715 14.811 5.97715Z" fill="#B4B4B4"/>
<path d="M15.4808 8.49385H12.2358C11.9491 8.49385 11.7166 8.71922 11.7166 8.99719C11.7166 9.27516 11.9491 9.50053 12.2358 9.50053H15.4808C15.7675 9.50053 16 9.27516 16 8.99719C16 8.71922 15.7675 8.49385 15.4808 8.49385Z" fill="#B4B4B4"/>
<path d="M14.811 11.0105H12.9056C12.6188 11.0105 12.3864 11.2359 12.3864 11.5139C12.3864 11.7919 12.6188 12.0172 12.9056 12.0172H14.811C15.0978 12.0172 15.3302 11.7919 15.3302 11.5139C15.3302 11.2359 15.0978 11.0105 14.811 11.0105Z" fill="#B4B4B4"/>
<path d="M15.4808 13.5272H12.2358C11.9491 13.5272 11.7166 13.7526 11.7166 14.0306C11.7166 14.3085 11.9491 14.5339 12.2358 14.5339H15.4808C15.7675 14.5339 16 14.3085 16 14.0306C16 13.7526 15.7675 13.5272 15.4808 13.5272Z" fill="#B4B4B4"/>
</svg>
