<svg width="28" height="28" viewBox="0 0 28 28" fill="none" xmlns="http://www.w3.org/2000/svg">
<path d="M13.8133 0L0 13.8133V18.2155L18.2155 0H13.8133Z" fill="#B4B4B4"/>
<path d="M3.11114 0C1.4 0 0 1.4 0 3.11114V6.23L6.23 0H3.11114Z" fill="#B4B4B4"/>
<path d="M9.78447 28H14.1867L28 14.1867V9.78447L9.78447 28Z" fill="#B4B4B4"/>
<path d="M25.6822 0.116667L0.116667 25.6822C0.256667 26.2189 0.528865 26.7011 0.91 27.0822L0.917802 27.09C1.29894 27.4711 1.78114 27.7433 2.3178 27.8833L27.8833 2.3178C27.5955 1.24447 26.7555 0.404469 25.6822 0.116667Z" fill="#B4B4B4"/>
<path d="M24.8889 28C25.7444 28 26.5222 27.65 27.0822 27.09C27.65 26.5222 28 25.7445 28 24.8889V21.77L21.77 28H24.8889Z" fill="#B4B4B4"/>
</svg>
