<svg width="28" height="28" viewBox="0 0 28 28" fill="none" xmlns="http://www.w3.org/2000/svg">
<path d="M27.7436 23.8816L25.1187 21.2566C24.5668 20.7048 23.6253 21.0979 23.6253 21.8749V23.3333H4.66726V4.37475H6.12558C6.90607 4.37475 7.29456 3.42974 6.7439 2.8814L4.11894 0.256378C3.77711 -0.0854592 3.22295 -0.0854592 2.88112 0.256378L0.257319 2.8814C-0.292174 3.42974 0.0963214 4.37475 0.875645 4.37475H2.33396V23.3333H1.16731C0.522149 23.3333 0.000655977 23.856 0.000655977 24.5C0.000655977 25.144 0.522149 25.6666 1.16731 25.6666H2.33396V26.8333C2.33396 27.4773 2.85545 28 3.50061 28C4.14577 28 4.66726 27.4773 4.66726 26.8333V25.6666H23.6253V27.125C23.6253 27.9055 24.5715 28.2905 25.1187 27.7433L27.7436 25.1183C28.0855 24.7765 28.0855 24.2235 27.7436 23.8816Z" fill="#B4B4B4"/>
<path d="M15.1671 4.66642L23.3337 8.16646L15.1671 11.6665L7.00056 8.16646L15.1671 4.66642Z" fill="#B4B4B4"/>
<path d="M14.0005 13.7047L7.00056 10.7052V17.4999C7.00056 17.7414 7.14873 17.9584 7.37389 18.0447L14.0005 20.5928V13.7047Z" fill="#B4B4B4"/>
<path d="M16.3338 13.7047V20.5928L22.9604 18.0436C23.1855 17.9584 23.3337 17.7414 23.3337 17.4999V10.7052L16.3338 13.7047Z" fill="#B4B4B4"/>
</svg>
