<svg width="24" height="28" viewBox="0 0 24 28" fill="none" xmlns="http://www.w3.org/2000/svg">
<path d="M2.98242 25.2402V20.9699C2.98242 17.9159 3.96571 15.0398 5.82598 12.6526C7.63047 10.337 10.1678 8.67392 12.9706 7.9698C13.957 7.72199 14.9256 7.46078 15.8613 7.19082C15.1203 5.13111 13.9921 3.07387 12.4984 1.06403L11.7076 0C9.51577 2.43968 7.04906 4.80904 4.16963 7.24069C2.22044 8.88679 0.840162 11.1879 0.283122 13.7202C-0.290778 16.329 0.0113933 18.9832 1.15699 21.3958L2.98242 25.2402Z" fill="#B4B4B4"/>
<path d="M23.5317 7.888C22.2544 10.4939 20.6636 13.0746 18.7834 15.5872C16.8416 18.182 14.5886 20.711 12.0867 23.104C9.8225 25.2696 7.78355 26.9173 6.34802 28H7.15069C10.378 28 13.2118 27.5045 15.5736 26.5275C17.7388 25.6317 19.5233 24.3243 20.8776 22.6417C23.7256 19.1036 24.6653 13.8699 23.5317 7.888Z" fill="#B4B4B4"/>
<path d="M17.5163 14.5741C19.423 12.0237 21.0201 9.40473 22.2794 6.76557C20.643 7.39833 18.9142 7.98921 17.1248 8.52661V8.52667C17.1194 8.52825 17.114 8.52984 17.1086 8.53148L16.3676 8.75403L16.3663 8.74998C15.3926 9.03181 14.3838 9.30433 13.3564 9.56248C10.898 10.1801 8.6717 11.6397 7.08766 13.6724C5.45573 15.7666 4.59319 18.29 4.59319 20.9699V27.272C6.13513 26.1531 8.52125 24.2667 11.0117 21.8818C13.4439 19.5527 15.6324 17.094 17.5163 14.5741Z" fill="#B4B4B4"/>
</svg>
