<svg width="156" height="156" viewBox="0 0 156 156" fill="none" xmlns="http://www.w3.org/2000/svg">
<g filter="url(#filter0_d)">
<circle cx="78" cy="68" r="58" fill="white"/>
</g>
<path d="M79.9336 49.439C79.2981 49.3736 78.6536 49.3398 78 49.3398C67.7102 49.3398 59.3398 57.7102 59.3398 68C59.3398 78.2893 67.7102 86.6597 78 86.6597C78.6536 86.6597 79.2981 86.6264 79.9336 86.5605C89.3181 85.5902 96.6612 77.6373 96.6612 68C96.6612 58.3627 89.3181 50.4098 79.9336 49.439ZM79.9336 82.6666V53.3329C87.181 54.2831 92.7945 60.4973 92.7945 68C92.7945 75.5027 87.181 81.7169 79.9336 82.6666Z" fill="#83CA4D"/>
<path d="M78 46.5426C79.0675 46.5426 79.9336 45.6766 79.9336 44.6091V36.9336C79.9336 35.8656 79.0675 35 78 35C76.932 35 76.0664 35.8656 76.0664 36.9336V44.6091C76.0664 45.6766 76.932 46.5426 78 46.5426Z" fill="#83CA4D"/>
<path d="M78 89.4574C76.932 89.4574 76.0664 90.3234 76.0664 91.3909V99.0664C76.0664 100.134 76.932 101 78 101C79.0675 101 79.9336 100.134 79.9336 99.0664V91.3909C79.9336 90.3229 79.068 89.4574 78 89.4574Z" fill="#83CA4D"/>
<path d="M56.5426 68C56.5426 66.932 55.6766 66.0664 54.6091 66.0664H46.9336C45.8656 66.0664 45 66.932 45 68C45 69.0675 45.8656 69.9336 46.9336 69.9336H54.6091C55.6766 69.9336 56.5426 69.068 56.5426 68Z" fill="#83CA4D"/>
<path d="M109.066 66.0664H101.391C100.323 66.0664 99.4574 66.932 99.4574 68C99.4574 69.0675 100.323 69.9336 101.391 69.9336H109.066C110.134 69.9336 111 69.0675 111 68C111 66.932 110.134 66.0664 109.066 66.0664Z" fill="#83CA4D"/>
<path d="M59.6288 52.3631C60.0065 52.7407 60.5015 52.9296 60.996 52.9296C61.4909 52.9296 61.9854 52.7407 62.3631 52.3631C63.1179 51.6078 63.1179 50.3837 62.3631 49.6288L56.7833 44.0491C56.0285 43.2938 54.8039 43.2938 54.0491 44.0491C53.2938 44.8039 53.2938 46.028 54.0491 46.7833L59.6288 52.3631Z" fill="#83CA4D"/>
<path d="M96.3706 83.6369C95.6158 82.8816 94.3917 82.8816 93.6364 83.6369C92.8816 84.3917 92.8816 85.6158 93.6364 86.3712L99.2161 91.9509C99.5938 92.3285 100.089 92.5174 100.583 92.5174C101.078 92.5174 101.573 92.3285 101.95 91.9509C102.705 91.1956 102.705 89.9715 101.95 89.2167L96.3706 83.6369Z" fill="#83CA4D"/>
<path d="M59.6283 83.6369L54.0486 89.2167C53.2938 89.9715 53.2938 91.1956 54.0486 91.9509C54.4262 92.3285 54.9207 92.5174 55.4157 92.5174C55.9101 92.5174 56.4051 92.3285 56.7828 91.9509L62.3625 86.3712C63.1173 85.6158 63.1173 84.3917 62.3625 83.6369C61.6077 82.8816 60.3831 82.8816 59.6283 83.6369Z" fill="#83CA4D"/>
<path d="M95.004 52.9296C95.499 52.9296 95.9935 52.7407 96.3712 52.3631L101.951 46.7833C102.706 46.028 102.706 44.8039 101.951 44.0491C101.196 43.2938 99.9715 43.2938 99.2167 44.0491L93.6369 49.6288C92.8816 50.3837 92.8816 51.6078 93.6369 52.3631C94.0146 52.7407 94.5091 52.9296 95.004 52.9296Z" fill="#83CA4D"/>
<defs>
<filter id="filter0_d" x="0" y="0" width="156" height="156" filterUnits="userSpaceOnUse" color-interpolation-filters="sRGB">
<feFlood flood-opacity="0" result="BackgroundImageFix"/>
<feColorMatrix in="SourceAlpha" type="matrix" values="0 0 0 0 0 0 0 0 0 0 0 0 0 0 0 0 0 0 127 0"/>
<feOffset dy="10"/>
<feGaussianBlur stdDeviation="10"/>
<feColorMatrix type="matrix" values="0 0 0 0 0.608333 0 0 0 0 0.608333 0 0 0 0 0.608333 0 0 0 0.35 0"/>
<feBlend mode="normal" in2="BackgroundImageFix" result="effect1_dropShadow"/>
<feBlend mode="normal" in="SourceGraphic" in2="effect1_dropShadow" result="shape"/>
</filter>
</defs>
</svg>
