<svg width="156" height="156" viewBox="0 0 156 156" fill="none" xmlns="http://www.w3.org/2000/svg">
<g filter="url(#filter0_d)">
<circle cx="78" cy="68" r="58" fill="white"/>
</g>
<path d="M106.168 48.289L111.006 43.4429C111.76 42.6879 111.76 41.4635 111.006 40.7084C110.252 39.9532 109.03 39.9532 108.276 40.7084L103.438 45.5545L98.5998 40.7084C97.846 39.9532 96.6237 39.9532 95.8698 40.7084C95.1159 41.4635 95.1159 42.6877 95.8698 43.4429L100.708 48.289L95.8698 53.1351C95.1159 53.8901 95.1159 55.1144 95.8698 55.8696C96.6235 56.6247 97.8459 56.6247 98.5998 55.8696L103.438 51.0235L108.276 55.8696C109.03 56.6247 110.252 56.6247 111.006 55.8696C111.76 55.1144 111.76 53.8902 111.006 53.1351L106.168 48.289Z" fill="#83CA4D"/>
<path d="M101.647 71.5328C99.8426 70.7845 97.7846 71.1946 96.4046 72.5772L91.6359 77.3539C91.2621 77.7285 90.7605 77.9235 90.2518 77.9186H83.2957C77.9499 77.9186 73.6008 82.2749 73.6008 87.6295C73.6008 88.6974 72.7365 89.5631 71.6704 89.5631C70.6043 89.5631 69.74 88.6974 69.74 87.6295C69.74 80.1425 75.821 74.0514 83.2957 74.0514H88.3405V43.4489C88.3405 41.9736 87.1975 40.7155 85.7256 40.6598C84.1783 40.6011 82.9009 41.8449 82.9009 43.382V64.2875C82.9009 65.3287 82.1021 66.2246 81.0638 66.2736C79.9552 66.3259 79.0401 65.4411 79.0401 64.3422V38.795C79.0401 37.3104 77.8843 36.0449 76.4027 36.0012C74.8587 35.9556 73.6005 37.1959 73.6005 38.7242V64.2877C73.6005 65.3288 72.8017 66.2247 71.7634 66.2737C70.6549 66.3261 69.7397 65.4412 69.7397 64.3423V42.2844C69.7397 40.8092 68.5967 39.551 67.1249 39.4954C65.5776 39.4368 64.3003 40.6807 64.3003 42.2176V66.6165C64.3003 67.6577 63.5015 68.5536 62.4632 68.6025C61.3547 68.6549 60.4395 67.7701 60.4395 66.6711V50.3687C60.4395 48.8458 59.2035 47.6444 57.7198 47.6444C56.1966 47.6444 55 48.8855 55 50.3687V87.6335C55 90.4109 57.2497 92.6719 60.0196 92.6843L60.0448 100.066C60.0448 101.134 60.9091 102 61.9752 102H79.0401C80.1062 102 80.9705 101.134 80.9705 100.066V92.6843H86.3465C86.8585 92.6843 87.3495 92.4806 87.7116 92.118L103.747 76.0559C104.318 75.4838 104.488 74.6093 104.136 73.8811C103.634 72.8405 102.762 71.9955 101.647 71.5328Z" fill="#83CA4D"/>
<defs>
<filter id="filter0_d" x="0" y="0" width="156" height="156" filterUnits="userSpaceOnUse" color-interpolation-filters="sRGB">
<feFlood flood-opacity="0" result="BackgroundImageFix"/>
<feColorMatrix in="SourceAlpha" type="matrix" values="0 0 0 0 0 0 0 0 0 0 0 0 0 0 0 0 0 0 127 0"/>
<feOffset dy="10"/>
<feGaussianBlur stdDeviation="10"/>
<feColorMatrix type="matrix" values="0 0 0 0 0.608333 0 0 0 0 0.608333 0 0 0 0 0.608333 0 0 0 0.35 0"/>
<feBlend mode="normal" in2="BackgroundImageFix" result="effect1_dropShadow"/>
<feBlend mode="normal" in="SourceGraphic" in2="effect1_dropShadow" result="shape"/>
</filter>
</defs>
</svg>
