<svg width="156" height="156" viewBox="0 0 156 156" fill="none" xmlns="http://www.w3.org/2000/svg">
<g filter="url(#filter0_d)">
<circle cx="78" cy="68" r="58" fill="white"/>
</g>
<path d="M64.4654 77.3405H68.3327C68.3327 72.9909 71.8016 69.4539 76.0673 69.4539V65.5107C71.8016 65.5107 68.3327 61.9737 68.3327 57.6242H64.4654C64.4654 61.9737 60.9966 65.5107 56.7308 65.5107V69.4539C60.9966 69.4539 64.4654 72.9909 64.4654 77.3405Z" fill="#83CA4D"/>
<path d="M52.8635 101H56.7308C56.7308 96.6505 60.1997 93.1135 64.4654 93.1135V89.1702C60.1997 89.1702 56.7308 85.6333 56.7308 81.2837H52.8635C52.8635 85.6333 49.2658 89.1702 45 89.1702V93.1135C49.2658 93.1135 52.8635 96.6505 52.8635 101Z" fill="#83CA4D"/>
<path d="M107.771 79.5547C108.873 76.4704 107.305 73.0878 104.304 71.9724L102.177 71.1829C102.196 69.4313 101.418 67.7261 100.059 66.5809L111 36.3554L107.367 35L96.4232 65.2315C94.6799 65.2185 93.0038 65.9966 91.8953 67.3688L89.7671 66.5793C88.3149 66.0383 86.7382 66.1076 85.3314 66.7757C83.9284 67.4438 82.8633 68.6298 82.3327 70.1143L81.6712 71.9672L107.109 81.4074L107.771 79.5547Z" fill="#83CA4D"/>
<path d="M68.6537 83.1707L65.4643 82.8742L66.6917 85.8913C67.3583 87.526 68.1967 89.0856 69.1843 90.5258C71.6297 94.0975 75.5555 96.4118 79.9346 96.9413V99.2827L81.2565 99.7313C83.0731 100.351 84.8821 100.792 86.7308 100.652C92.4618 100.652 97.8851 97.7713 101.243 92.9462C102.949 90.4953 104.369 87.8308 105.613 85.0478L80.3418 75.669C78.5497 80.5643 73.7551 83.6301 68.6537 83.1707Z" fill="#83CA4D"/>
<defs>
<filter id="filter0_d" x="0" y="0" width="156" height="156" filterUnits="userSpaceOnUse" color-interpolation-filters="sRGB">
<feFlood flood-opacity="0" result="BackgroundImageFix"/>
<feColorMatrix in="SourceAlpha" type="matrix" values="0 0 0 0 0 0 0 0 0 0 0 0 0 0 0 0 0 0 127 0"/>
<feOffset dy="10"/>
<feGaussianBlur stdDeviation="10"/>
<feColorMatrix type="matrix" values="0 0 0 0 0.608333 0 0 0 0 0.608333 0 0 0 0 0.608333 0 0 0 0.35 0"/>
<feBlend mode="normal" in2="BackgroundImageFix" result="effect1_dropShadow"/>
<feBlend mode="normal" in="SourceGraphic" in2="effect1_dropShadow" result="shape"/>
</filter>
</defs>
</svg>
