<svg width="65" height="66" viewBox="0 0 65 66" fill="none" xmlns="http://www.w3.org/2000/svg">
<path d="M32.4992 0.275391C14.55 0.275391 -0.000793457 14.7801 -0.000793457 32.6725C-0.000793457 50.565 14.55 65.0697 32.4992 65.0697C50.4485 65.0697 64.9992 50.565 64.9992 32.6725C64.9802 14.7881 50.4406 0.294509 32.4992 0.275391ZM46.1862 33.7048C45.9612 34.1547 45.5955 34.5194 45.144 34.7437V34.7552L26.5726 44.0116C25.4257 44.5829 24.0315 44.1193 23.4583 42.976C23.2953 42.651 23.2114 42.2922 23.2134 41.9289V23.4163C23.2129 22.1382 24.2517 21.1018 25.5338 21.1011C25.8944 21.1009 26.2501 21.1845 26.5726 21.3451L45.144 30.6015C46.2915 31.1716 46.7582 32.561 46.1862 33.7048Z" fill="#83CA4D"/>
</svg>
