<svg width="68" height="80" viewBox="0 0 68 80" fill="none" xmlns="http://www.w3.org/2000/svg">
<g filter="url(#filter0_d)">
<path d="M39.706 18.1304V6.11836H12.6355C11.18 6.11836 10 7.23085 10 8.6031V63.5153C10 64.8875 11.18 66 12.6355 66H54.8027C56.2582 66 57.4382 64.8875 57.4382 63.5153V22.7742H44.6316C41.9157 22.7742 39.706 20.691 39.706 18.1304ZM29.0633 53.0812L23.4564 58.3674C23.093 58.71 22.6168 58.8813 22.1407 58.8813C21.6646 58.8813 21.1882 58.7101 20.825 58.3675L18.4973 56.1731C17.7706 55.488 17.7706 54.3772 18.4973 53.6921C19.2239 53.007 20.4021 53.007 21.1288 53.6921L22.1407 54.6461L26.4319 50.6004C27.1584 49.9152 28.3367 49.9152 29.0634 50.6004C29.7901 51.2854 29.7901 52.3961 29.0633 53.0812ZM29.0633 41.3856L23.4564 46.6718C23.093 47.0144 22.6168 47.1857 22.1407 47.1857C21.6646 47.1857 21.1882 47.0145 20.825 46.6719L18.4973 44.4775C17.7706 43.7923 17.7706 42.6816 18.4973 41.9965C19.2239 41.3113 20.4021 41.3113 21.1288 41.9965L22.1407 42.9505L26.4319 38.9047C27.1584 38.2196 28.3367 38.2196 29.0634 38.9047C29.7901 39.5897 29.7901 40.7005 29.0633 41.3856ZM29.0633 28.7968L23.4564 34.083C23.093 34.4255 22.6168 34.5969 22.1407 34.5969C21.6646 34.5969 21.1882 34.4257 20.825 34.083L18.4973 31.8884C17.7706 31.2033 17.7706 30.0925 18.4973 29.4074C19.2239 28.7223 20.4021 28.7223 21.1288 29.4074L22.1407 30.3614L26.4319 26.3158C27.1584 25.6307 28.3367 25.6307 29.0634 26.3158C29.7901 27.0009 29.7901 28.1116 29.0633 28.7968ZM47.6252 56.2382H35.7163C34.6886 56.2382 33.8555 55.4528 33.8555 54.4839C33.8555 53.515 34.6886 52.7295 35.7163 52.7295H47.6252C48.6529 52.7295 49.486 53.515 49.486 54.4839C49.486 55.4528 48.6529 56.2382 47.6252 56.2382ZM33.8555 42.7883C33.8555 41.8194 34.6886 41.0339 35.7163 41.0339H47.572C48.5996 41.0339 49.4328 41.8194 49.4328 42.7883C49.4328 43.7571 48.5996 44.5426 47.572 44.5426H35.7163C34.6886 44.5426 33.8555 43.7571 33.8555 42.7883ZM49.4329 31.0926C49.4329 32.0615 48.5998 32.847 47.5721 32.847H35.7164C34.6887 32.847 33.8556 32.0615 33.8556 31.0926C33.8556 30.1238 34.6887 29.3383 35.7164 29.3383H47.5721C48.5998 29.3383 49.4329 30.1238 49.4329 31.0926Z" fill="#83CA4D"/>
<path d="M43.4276 18.1304C43.4276 18.7563 43.9677 19.2655 44.6316 19.2655H57.6191L43.4276 6V18.1304Z" fill="#83CA4D"/>
</g>
<defs>
<filter id="filter0_d" x="0" y="0" width="67.6191" height="80" filterUnits="userSpaceOnUse" color-interpolation-filters="sRGB">
<feFlood flood-opacity="0" result="BackgroundImageFix"/>
<feColorMatrix in="SourceAlpha" type="matrix" values="0 0 0 0 0 0 0 0 0 0 0 0 0 0 0 0 0 0 127 0"/>
<feOffset dy="4"/>
<feGaussianBlur stdDeviation="5"/>
<feColorMatrix type="matrix" values="0 0 0 0 0.342565 0 0 0 0 0.529167 0 0 0 0 0.200642 0 0 0 0.3 0"/>
<feBlend mode="normal" in2="BackgroundImageFix" result="effect1_dropShadow"/>
<feBlend mode="normal" in="SourceGraphic" in2="effect1_dropShadow" result="shape"/>
</filter>
</defs>
</svg>
