<svg width="83" height="83" viewBox="0 0 83 83" fill="none" xmlns="http://www.w3.org/2000/svg">
<g filter="url(#filter0_d)">
<path d="M28.8946 17.0633L30.1995 15.7584C31.0498 14.9082 30.8703 13.4864 29.8444 12.8709L19.9582 6.93895C17.3627 5.38524 14.0606 5.7908 11.9283 7.92848C9.7906 10.0644 9.38503 13.3665 10.9387 15.9584L16.8706 25.8429C17.4868 26.87 18.9156 27.0481 19.7581 26.198L21.0649 24.8931L31.0507 34.8636L38.8717 27.0419L28.8946 17.0633Z" fill="#83CA4D"/>
<path d="M71.742 13.3498C71.1997 12.2122 69.6785 11.929 68.7715 12.8396L63.9968 17.6143C63.2974 18.3137 62.0862 18.3137 61.3868 17.6143C60.6676 16.8951 60.6676 15.7236 61.3868 15.0044L66.1615 10.2297C67.0596 9.33158 66.8016 7.80753 65.6514 7.25924C60.718 4.90167 54.8097 5.91643 50.9452 9.78439C47.3961 13.3316 46.2498 18.6037 47.908 23.2595L27.2584 43.9082C22.6062 42.25 17.3323 43.3964 13.7832 46.9454C9.91696 50.8116 8.9022 56.7218 11.2581 61.6515C11.8077 62.8046 13.3328 63.0573 14.2285 62.1617L19.0032 57.387C19.7242 56.6696 20.8958 56.6678 21.6132 57.3888C22.3322 58.1041 22.3375 59.2689 21.6132 59.9969L16.8385 64.7716C15.9404 65.6697 16.1984 67.1938 17.3486 67.7421C19.1203 68.589 21.0183 69 22.9036 69C26.2634 69 29.578 67.6932 32.0528 65.2167C35.6035 61.6695 36.7481 56.3973 35.0899 51.7416L55.7399 31.0931C60.3902 32.7495 65.666 31.605 69.2168 28.0559C73.083 24.1897 74.0978 18.2795 71.742 13.3498Z" fill="#83CA4D"/>
<path d="M70.2754 53.3929C64.0099 47.1505 60.5751 44.6704 53.2303 38.9585L42.7921 49.3977C47.9549 56.025 51.0811 60.2995 56.9444 66.1649C58.8622 68.0827 61.4109 68.9774 63.9181 68.9774C65.7584 68.9774 67.5753 68.5404 69.102 67.4428C71.328 65.8387 72.7303 63.3675 72.9484 60.6657C73.1665 57.9603 72.1932 55.3106 70.2754 53.3929ZM64.9591 60.9664C64.2243 61.6358 63.0793 61.5716 62.3765 60.8687L55.0669 53.5591C54.364 52.8563 54.2998 51.7114 54.9692 50.9765C55.6837 50.1922 56.8984 50.1709 57.6401 50.9125L65.023 58.2953C65.7647 59.0372 65.7434 60.2519 64.9591 60.9664Z" fill="#83CA4D"/>
</g>
<defs>
<filter id="filter0_d" x="0" y="0" width="83" height="83" filterUnits="userSpaceOnUse" color-interpolation-filters="sRGB">
<feFlood flood-opacity="0" result="BackgroundImageFix"/>
<feColorMatrix in="SourceAlpha" type="matrix" values="0 0 0 0 0 0 0 0 0 0 0 0 0 0 0 0 0 0 127 0"/>
<feOffset dy="4"/>
<feGaussianBlur stdDeviation="5"/>
<feColorMatrix type="matrix" values="0 0 0 0 0.342565 0 0 0 0 0.529167 0 0 0 0 0.200642 0 0 0 0.3 0"/>
<feBlend mode="normal" in2="BackgroundImageFix" result="effect1_dropShadow"/>
<feBlend mode="normal" in="SourceGraphic" in2="effect1_dropShadow" result="shape"/>
</filter>
</defs>
</svg>
