<svg width="83" height="83" viewBox="0 0 83 83" fill="none" xmlns="http://www.w3.org/2000/svg">
<g filter="url(#filter0_d)">
<path d="M10.8588 37.5817C10.1815 37.8311 9.83247 38.5818 10.0792 39.2616L10.9034 41.5296L17.1795 35.2533L10.8588 37.5817Z" fill="#83CA4D"/>
<path d="M16.7989 57.7415L20.5788 68.1363C20.6969 68.4645 20.9436 68.7323 21.2586 68.8766C21.4344 68.9579 21.6234 69 21.8124 69C21.9673 69 22.1195 68.9738 22.2665 68.9187L26.4376 67.3805L16.7989 57.7415Z" fill="#83CA4D"/>
<path d="M72.9195 48.8664L68.5937 36.9728L58.2122 47.3545L63.357 45.4592C64.0317 45.2019 64.7928 45.5537 65.0422 46.2362C65.2942 46.9161 64.9451 47.672 64.2652 47.9215L57.7292 50.3312C57.5795 50.3863 57.4273 50.4125 57.275 50.4125C56.7421 50.4125 56.2381 50.0844 56.044 49.5541C56.0414 49.5463 56.044 49.5384 56.0414 49.5305L45.0404 60.5318L72.1399 50.5464C72.8197 50.2971 73.1688 49.5463 72.9195 48.8664Z" fill="#83CA4D"/>
<path d="M72.615 27.3837L51.6157 6.3839C51.1038 5.87203 50.2717 5.87203 49.7598 6.3839L10.3862 45.7584C9.87431 46.2703 9.87431 47.1025 10.3862 47.6143L31.3855 68.6141C31.6401 68.8714 31.9761 69 32.3121 69C32.6481 69 32.9841 68.8714 33.2413 68.6167L72.615 29.2422C73.1268 28.7277 73.1268 27.8982 72.615 27.3837ZM25.3666 42.3671L20.1167 47.6169C19.8595 47.8715 19.5236 48.0002 19.1875 48.0002C18.8515 48.0002 18.5156 47.8716 18.2583 47.6169C17.7465 47.1051 17.7465 46.2729 18.2583 45.761L23.5082 40.511C24.02 39.9992 24.8522 39.9992 25.364 40.511C25.8759 41.023 25.8785 41.8525 25.3666 42.3671ZM48.0327 44.0338C47.1034 44.9631 45.8409 45.4094 44.4365 45.4094C42.116 45.4094 39.4045 44.194 37.1366 41.9234C35.4776 40.2643 34.3122 38.2799 33.8582 36.3375C33.3542 34.1719 33.7689 32.2872 35.0262 31.0272C36.2836 29.7672 38.1682 29.3524 40.3363 29.8591C42.2788 30.3133 44.2632 31.4761 45.9221 33.1377C49.5682 36.781 50.4974 41.569 48.0327 44.0338ZM64.7402 29.2422L59.4904 34.4922C59.2331 34.7467 58.8972 34.8754 58.5612 34.8754C58.2251 34.8754 57.8892 34.7469 57.632 34.4922C57.1201 33.9803 57.1201 33.1481 57.632 32.6363L62.8818 27.3863C63.3937 26.8744 64.2258 26.8744 64.7377 27.3863C65.2495 27.8982 65.2521 28.7277 64.7402 29.2422Z" fill="#83CA4D"/>
</g>
<defs>
<filter id="filter0_d" x="0" y="0" width="83" height="83" filterUnits="userSpaceOnUse" color-interpolation-filters="sRGB">
<feFlood flood-opacity="0" result="BackgroundImageFix"/>
<feColorMatrix in="SourceAlpha" type="matrix" values="0 0 0 0 0 0 0 0 0 0 0 0 0 0 0 0 0 0 127 0"/>
<feOffset dy="4"/>
<feGaussianBlur stdDeviation="5"/>
<feColorMatrix type="matrix" values="0 0 0 0 0.342565 0 0 0 0 0.529167 0 0 0 0 0.200642 0 0 0 0.3 0"/>
<feBlend mode="normal" in2="BackgroundImageFix" result="effect1_dropShadow"/>
<feBlend mode="normal" in="SourceGraphic" in2="effect1_dropShadow" result="shape"/>
</filter>
</defs>
</svg>
