<svg width="156" height="156" viewBox="0 0 156 156" fill="none" xmlns="http://www.w3.org/2000/svg">
<g filter="url(#filter0_d)">
<circle cx="78" cy="68" r="58" fill="white"/>
</g>
<path d="M85.474 79.3512H71.0019C70.4714 79.3512 70.0413 79.7918 70.0413 80.3354C70.0413 80.8789 70.4714 81.3196 71.0019 81.3196H85.474C86.0045 81.3196 86.4345 80.8789 86.4345 80.3354C86.4345 79.7918 86.0045 79.3512 85.474 79.3512Z" fill="#83CA4D"/>
<path d="M82.5603 70.9955V72.9538C82.5603 73.2258 82.3455 73.4459 82.0801 73.4459C81.8146 73.4459 81.5998 73.2258 81.5998 72.9538V70.3644C81.2927 70.198 80.9706 70.0583 80.6393 69.9381V73.938C80.6393 74.21 80.4245 74.4301 80.159 74.4301C79.8935 74.4301 79.6787 74.21 79.6787 73.938V69.017C79.6787 68.7455 79.4634 68.5249 79.1985 68.5249H77.2774C77.0124 68.5249 76.7971 68.7455 76.7971 69.017V73.938C76.7971 74.21 76.5823 74.4301 76.3168 74.4301C76.0514 74.4301 75.8366 74.21 75.8366 73.938V69.9381C75.5052 70.0583 75.1831 70.198 74.876 70.3645V72.9538C74.876 73.2258 74.6612 73.4459 74.3958 73.4459C74.1303 73.4459 73.9155 73.2258 73.9155 72.9538V70.9955C72.1686 72.3424 71.0339 74.478 71.0339 76.8907V78.367H85.442V76.8907C85.442 74.478 84.3072 72.3424 82.5603 70.9955Z" fill="#83CA4D"/>
<path d="M71.3292 85.6035V87.1629C71.3292 88.0236 70.6351 88.7222 69.7798 88.7222C68.9246 88.7222 68.2304 88.0236 68.2304 87.1629V85.6035H64.6153C64.0451 85.6035 63.5824 86.0692 63.5824 86.6431V94.9596C63.5824 95.5335 64.0451 95.9992 64.6153 95.9992H74.9443C75.5145 95.9992 75.9772 95.5335 75.9772 94.9596V86.6431C75.9772 86.0692 75.5145 85.6035 74.9443 85.6035H71.3292Z" fill="#83CA4D"/>
<path d="M87.2038 85.6035V87.1629C87.2038 88.0236 86.5097 88.7222 85.6544 88.7222C84.7992 88.7222 84.1051 88.0236 84.1051 87.1629V85.6035H80.4899C79.9197 85.6035 79.457 86.0692 79.457 86.6431V94.9596C79.457 95.5335 79.9197 95.9992 80.4899 95.9992H90.8189C91.3891 95.9992 91.8518 95.5335 91.8518 94.9596V86.6431C91.8518 86.0692 91.3891 85.6035 90.8189 85.6035H87.2038Z" fill="#83CA4D"/>
<path d="M51.8738 95.9488H58.4682V64.6251H98.035V95.9488H104.629V61.3279H51.8738V95.9488Z" fill="#83CA4D"/>
<path d="M78.2516 40.2256L50.2252 48.9053V58.0306H106.278V48.9053L78.2516 40.2256ZM84.8461 52.3154H71.6571V49.0182H84.8461V52.3154Z" fill="#83CA4D"/>
<defs>
<filter id="filter0_d" x="0" y="0" width="156" height="156" filterUnits="userSpaceOnUse" color-interpolation-filters="sRGB">
<feFlood flood-opacity="0" result="BackgroundImageFix"/>
<feColorMatrix in="SourceAlpha" type="matrix" values="0 0 0 0 0 0 0 0 0 0 0 0 0 0 0 0 0 0 127 0"/>
<feOffset dy="10"/>
<feGaussianBlur stdDeviation="10"/>
<feColorMatrix type="matrix" values="0 0 0 0 0.608333 0 0 0 0 0.608333 0 0 0 0 0.608333 0 0 0 0.35 0"/>
<feBlend mode="normal" in2="BackgroundImageFix" result="effect1_dropShadow"/>
<feBlend mode="normal" in="SourceGraphic" in2="effect1_dropShadow" result="shape"/>
</filter>
</defs>
</svg>
