<svg width="156" height="156" viewBox="0 0 156 156" fill="none" xmlns="http://www.w3.org/2000/svg">
<g filter="url(#filter0_d)">
<circle cx="78" cy="68" r="58" fill="white"/>
</g>
<path d="M51.8055 79.6564C49.4846 74.5282 48.7688 68.8729 49.7357 63.3017C50.7238 57.6071 53.4146 52.4287 57.5171 48.3262C62.3055 43.5376 68.6589 40.6499 75.4069 40.1947C80.9016 39.8241 86.3505 41.0771 91.0785 43.7515C91.5983 42.5892 92.3857 41.5724 93.3634 40.7805C87.9025 37.5698 81.5558 36.0562 75.1569 36.489C67.5121 37.0046 60.3147 40.2758 54.8907 45.6999C50.244 50.3466 47.196 56.2137 46.0761 62.6666C44.9816 68.9742 45.7927 75.3787 48.4216 81.1878L51.8055 79.6564Z" fill="#83CA4D"/>
<path d="M106.382 55.4831L102.974 56.9619C105.184 62.0546 105.827 67.6458 104.832 73.1312C103.814 78.7424 101.136 83.8484 97.0879 87.8971C92.3046 92.6804 85.9582 95.5677 79.2178 96.0271C78.5789 96.0708 77.9416 96.0922 77.3048 96.0922C72.4602 96.0921 67.7104 94.8386 63.5262 92.4719C63.0066 93.6336 62.2194 94.65 61.2422 95.4416C66.0927 98.2932 71.6418 99.8065 77.3052 99.8065C78.0255 99.8065 78.7478 99.7821 79.4704 99.7327C87.1066 99.2122 94.296 95.9416 99.7143 90.5233C104.3 85.9374 107.333 80.1526 108.487 73.7939C109.613 67.5836 108.885 61.2518 106.382 55.4831Z" fill="#83CA4D"/>
<path d="M79.1595 82.2041V86.6483C87.9518 85.7741 94.9645 78.7611 95.8389 69.9689H91.3947V66.2546H95.8389C94.9646 57.4622 87.952 50.4495 79.1595 49.5753V54.0195H75.4452V49.5753C66.6528 50.4495 59.64 57.4624 58.7658 66.2546H63.2099V69.9689H58.7658C59.64 78.7612 66.6528 85.7741 75.4452 86.6483V82.2041H79.1595ZM71.7621 71.7156L75.4453 68.6688V60.4918H79.1596V70.4167L74.1296 74.5774L71.7621 71.7156Z" fill="#83CA4D"/>
<path d="M59.3273 92.3356C61.0561 90.6068 61.0561 87.8039 59.3273 86.075C57.5985 84.3462 54.7955 84.3462 53.0667 86.075C51.3379 87.8039 51.3379 90.6068 53.0667 92.3356C54.7955 94.0644 57.5985 94.0644 59.3273 92.3356Z" fill="#83CA4D"/>
<path d="M98.401 51.4408C100.846 51.4408 102.829 49.4585 102.829 47.0132C102.829 44.5679 100.846 42.5857 98.401 42.5857C95.9557 42.5857 93.9734 44.5679 93.9734 47.0132C93.9734 49.4585 95.9557 51.4408 98.401 51.4408Z" fill="#83CA4D"/>
<defs>
<filter id="filter0_d" x="0" y="0" width="156" height="156" filterUnits="userSpaceOnUse" color-interpolation-filters="sRGB">
<feFlood flood-opacity="0" result="BackgroundImageFix"/>
<feColorMatrix in="SourceAlpha" type="matrix" values="0 0 0 0 0 0 0 0 0 0 0 0 0 0 0 0 0 0 127 0"/>
<feOffset dy="10"/>
<feGaussianBlur stdDeviation="10"/>
<feColorMatrix type="matrix" values="0 0 0 0 0.608333 0 0 0 0 0.608333 0 0 0 0 0.608333 0 0 0 0.35 0"/>
<feBlend mode="normal" in2="BackgroundImageFix" result="effect1_dropShadow"/>
<feBlend mode="normal" in="SourceGraphic" in2="effect1_dropShadow" result="shape"/>
</filter>
</defs>
</svg>
