<svg width="156" height="156" viewBox="0 0 156 156" fill="none" xmlns="http://www.w3.org/2000/svg">
<g filter="url(#filter0_d)">
<circle cx="78" cy="68" r="58" fill="white"/>
</g>
<path d="M70.5722 71.9989C69.2516 72.5785 67.7952 72.9048 66.2635 72.9048C64.7318 72.9048 63.2755 72.5785 61.9549 71.9989V73.5921L66.2635 78.7625L70.5722 73.5921V71.9989Z" fill="#83CA4D"/>
<path d="M64.693 82.4345L65.852 84.7536H66.675L67.834 82.4345L66.2635 81.6492L64.693 82.4345Z" fill="#83CA4D"/>
<path d="M58.0631 75.0592L60.4296 82.1577L64.5648 80.0895L60.3725 75.0592H58.0631Z" fill="#83CA4D"/>
<path d="M74.4639 75.0592H72.1545L67.9622 80.0895L72.0974 82.1577L74.4639 75.0592Z" fill="#83CA4D"/>
<path d="M77.0351 62.1332C78.2232 62.1332 79.1895 61.167 79.1895 59.9789C79.1895 58.7908 78.2232 57.8246 77.0351 57.8246V62.1332Z" fill="#83CA4D"/>
<path d="M56.569 54.5931H63.032C64.7178 54.5931 66.3292 53.7874 67.3407 52.4388L68.6333 50.7142C69.0394 50.1735 69.9506 50.1735 70.3567 50.7142L71.6493 52.4377C72.6608 53.7874 74.2722 54.5931 75.958 54.5931C76.5536 54.5931 77.0351 55.0746 77.0351 55.6702C77.4089 55.6702 77.7654 55.7327 78.1123 55.8232V53.5159C78.1123 46.9829 72.7965 41.6671 66.2635 41.6671C59.7305 41.6671 54.4147 46.9829 54.4147 53.5159V55.8232C54.7616 55.7327 55.1181 55.6702 55.4919 55.6702C55.4919 55.0746 55.9734 54.5931 56.569 54.5931Z" fill="#83CA4D"/>
<path d="M78.1123 75.0592H76.7335L73.7476 84.0168C73.6496 84.312 73.4266 84.5511 73.139 84.6707C73.0065 84.7267 72.8665 84.7536 72.7265 84.7536C72.5617 84.7536 72.3958 84.7159 72.245 84.6405L69.7621 83.3986L68.4706 85.9827L70.3783 95.5253H80.2666V89.0623H82.4209V95.5253H86.7296V83.6765C86.7296 78.9251 82.8637 75.0592 78.1123 75.0592Z" fill="#83CA4D"/>
<path d="M74.8808 56.6688C72.9247 56.3833 71.1258 55.3299 69.9259 53.7303L69.495 53.1561L69.0641 53.7314C67.6477 55.6196 65.3921 56.7474 63.032 56.7474H57.6462V62.1332C57.6462 66.8846 61.5121 70.7505 66.2635 70.7505C71.0149 70.7505 74.8808 66.8846 74.8808 62.1332V56.6688Z" fill="#83CA4D"/>
<path d="M60.282 84.6405C60.1312 84.7159 59.9653 84.7536 59.8005 84.7536C59.6605 84.7536 59.5205 84.7267 59.388 84.6718C59.0993 84.5522 58.8763 84.3131 58.7794 84.0179L55.7935 75.0592H54.4147C49.6634 75.0592 45.7974 78.9251 45.7974 83.6765V95.5253H50.1061V89.0623H52.2604V95.5253H62.1488L64.0575 85.9827L62.766 83.3986L60.282 84.6405Z" fill="#83CA4D"/>
<path d="M66.0696 86.908L64.3462 95.5253H68.1809L66.4574 86.908H66.0696Z" fill="#83CA4D"/>
<path d="M55.4919 62.1332V57.8246C54.3038 57.8246 53.3376 58.7908 53.3376 59.9789C53.3376 61.167 54.3038 62.1332 55.4919 62.1332Z" fill="#83CA4D"/>
<path d="M107.196 55.6702V40.59H102.887V55.6702H98.5784V47.0529H94.2697V55.6702H89.9611V50.2844H85.6524V55.6702H82.4209V57.8246H110.427V55.6702H107.196Z" fill="#83CA4D"/>
<path d="M92.5614 37.3585H98.5784C98.8649 37.3585 99.1385 37.2454 99.3399 37.0429L101.81 34.5729V37.3585H103.964V31.9727C103.964 31.377 103.483 30.8955 102.887 30.8955H97.5012V33.0498H100.287L98.1324 35.2042H92.1154C91.8289 35.2042 91.5553 35.3173 91.3539 35.5198L84.8909 41.9827L86.414 43.5058L92.5614 37.3585Z" fill="#83CA4D"/>
<path d="M90.2767 60.2945L77.6663 72.9048H78.1123C78.9159 72.9048 79.6957 73.0007 80.4497 73.1677L91.4842 62.1332H110.427V59.9789H91.0382C90.7517 59.9789 90.4781 60.092 90.2767 60.2945Z" fill="#83CA4D"/>
<defs>
<filter id="filter0_d" x="0" y="0" width="156" height="156" filterUnits="userSpaceOnUse" color-interpolation-filters="sRGB">
<feFlood flood-opacity="0" result="BackgroundImageFix"/>
<feColorMatrix in="SourceAlpha" type="matrix" values="0 0 0 0 0 0 0 0 0 0 0 0 0 0 0 0 0 0 127 0"/>
<feOffset dy="10"/>
<feGaussianBlur stdDeviation="10"/>
<feColorMatrix type="matrix" values="0 0 0 0 0.608333 0 0 0 0 0.608333 0 0 0 0 0.608333 0 0 0 0.35 0"/>
<feBlend mode="normal" in2="BackgroundImageFix" result="effect1_dropShadow"/>
<feBlend mode="normal" in="SourceGraphic" in2="effect1_dropShadow" result="shape"/>
</filter>
</defs>
</svg>
