<svg width="18" height="18" viewBox="0 0 18 18" fill="none" xmlns="http://www.w3.org/2000/svg">
<path d="M11.796 5.62363L11.8528 5.74419L11.9846 5.76425L17.3798 6.58534C17.3799 6.58536 17.38 6.58538 17.3801 6.5854C17.609 6.62121 17.7831 6.84889 17.7447 7.10974L17.7443 7.11239C17.7303 7.21534 17.6841 7.30835 17.6154 7.37887C17.6154 7.37891 17.6154 7.37894 17.6153 7.37898L13.7117 11.3644L13.6231 11.4549L13.6436 11.5798L14.5659 17.2082L14.566 17.2083C14.6091 17.4702 14.4398 17.7021 14.2135 17.7429L14.2132 17.743C14.1229 17.7594 14.0288 17.7443 13.9482 17.6994L13.9471 17.6987L9.12062 15.0415L9.00004 14.9751L8.87947 15.0415L4.05299 17.6987L4.0526 17.6989C3.98249 17.7377 3.90438 17.7547 3.82685 17.7489C3.74928 17.7431 3.67372 17.7146 3.60884 17.6653C3.54384 17.6158 3.49193 17.5472 3.46047 17.4661C3.429 17.3849 3.41972 17.2955 3.4341 17.2085L3.43415 17.2082L4.35652 11.5798L4.37699 11.4549L4.28841 11.3644L0.384292 7.37852L0.384277 7.3785C0.301165 7.29366 0.251639 7.17537 0.25004 7.04897C0.248443 6.92271 0.294866 6.80303 0.37582 6.71574C0.443124 6.64398 0.528438 6.59909 0.618853 6.58556L0.619479 6.58547L6.01553 5.76425L6.14729 5.74419L6.20408 5.62363L8.61569 0.503872C8.61578 0.503693 8.61586 0.503515 8.61595 0.503336C8.72654 0.272434 8.98365 0.190394 9.18703 0.295531L9.18732 0.295683C9.27071 0.338653 9.34058 0.410635 9.38373 0.502474L9.38383 0.502685L11.796 5.62363Z" stroke="#1C1C1C" stroke-width="0.5"/>
</svg>
