<svg width="18" height="18" viewBox="0 0 18 18" fill="none" xmlns="http://www.w3.org/2000/svg">
<path d="M0.25 8.07309C0.25 7.69247 0.524732 7.42608 0.81571 7.42608H4.07855C4.36953 7.42608 4.64426 7.69247 4.64426 8.07309V17.103C4.64426 17.4836 4.36953 17.75 4.07855 17.75H0.81571C0.524732 17.75 0.25 17.4836 0.25 17.103V8.07309ZM6.77568 4.48505C6.77568 4.10443 7.05041 3.83804 7.34139 3.83804H10.6042C10.8952 3.83804 11.1699 4.10443 11.1699 4.48505V17.103C11.1699 17.4836 10.8952 17.75 10.6042 17.75H7.34139C7.05041 17.75 6.77568 17.4836 6.77568 17.103V4.48505ZM13.8671 0.25H17.1843C17.4753 0.25 17.75 0.516392 17.75 0.89701V17.103C17.75 17.4836 17.4753 17.75 17.1843 17.75H13.8671C13.5761 17.75 13.3014 17.4836 13.3014 17.103V0.89701C13.3014 0.516392 13.5761 0.25 13.8671 0.25Z" stroke="#1C1C1C" stroke-width="0.5"/>
</svg>
