<svg width="62" height="62" viewBox="0 0 62 62" fill="none" xmlns="http://www.w3.org/2000/svg">
<circle cx="31" cy="31" r="31" fill="#83CA4D"/>
<g clip-path="url(#clip0)">
<path d="M29.8098 16.2568L19.4771 25.2563C19.258 25.4483 19.134 25.7162 19.134 26.0002L19.134 31.9999C19.134 32.3939 19.3737 32.7519 19.7457 32.9139C20.1197 33.0738 20.5558 33.0079 20.8575 32.7439L30.5001 24.3463L40.1405 32.7439C40.4443 33.0079 40.8804 33.0758 41.2523 32.9139C41.6264 32.7519 41.8661 32.3939 41.8661 31.9999L41.8661 26.0002C41.8661 25.7162 41.74 25.4483 41.5251 25.2563L31.1924 16.2568C30.7997 15.9148 30.2004 15.9148 29.8098 16.2568Z" fill="white"/>
<path d="M29.8098 29.2558L19.4771 38.2553C19.258 38.4473 19.134 38.7153 19.134 38.9993L19.134 44.9989C19.134 45.3929 19.3737 45.7509 19.7457 45.9129C20.1197 46.0729 20.5558 46.0069 20.8575 45.7429L30.5001 37.3453L40.1405 45.7429C40.4443 46.0069 40.8804 46.0749 41.2523 45.9129C41.6264 45.7509 41.8661 45.3929 41.8661 44.9989L41.8661 38.9993C41.8661 38.7153 41.74 38.4473 41.5251 38.2553L31.1924 29.2558C30.7997 28.9138 30.2004 28.9138 29.8098 29.2558Z" fill="white"/>
</g>
<defs>
<clipPath id="clip0">
<rect width="30" height="31" fill="white" transform="translate(15 46) rotate(-90)"/>
</clipPath>
</defs>
</svg>
