<svg width="13" height="15" viewBox="0 0 13 15" fill="none" xmlns="http://www.w3.org/2000/svg">
<path d="M11.0963 1.84193C9.86858 0.654143 8.23622 0 6.50006 0C4.76387 0 3.13157 0.654114 1.9038 1.84193C0.676127 3.02969 0 4.60886 0 6.2886C0 7.96834 0.676127 9.54757 1.9038 10.7354L6.17889 14.8713C6.26759 14.9571 6.38384 15 6.50006 15C6.61631 15 6.73256 14.9571 6.82123 14.8713L11.0962 10.7354C12.3239 9.5476 13 7.96837 13 6.28863C13 4.60883 12.3239 3.02966 11.0963 1.84193ZM8.5414 8.26351C7.99615 8.79103 7.27121 9.08157 6.50009 9.08157C5.72897 9.08157 5.00403 8.79106 4.45881 8.26354C3.91353 7.73602 3.61326 7.03465 3.61326 6.2886C3.61326 5.54258 3.91353 4.84121 4.45881 4.31366C5.00403 3.78614 5.72897 3.49563 6.50009 3.49563C7.27121 3.49563 7.99615 3.78614 8.5414 4.31366C9.08665 4.84115 9.38695 5.54252 9.38695 6.28857C9.38692 7.03462 9.08662 7.73602 8.5414 8.26351Z" fill="#E94250"/>
</svg>
