<svg width="39" height="46" viewBox="0 0 39 46" fill="none" xmlns="http://www.w3.org/2000/svg">
<g clip-path="url(#clip0)">
<path d="M33.7764 7.29735H34.6257C36.6507 7.29735 38.2981 5.64998 38.2981 3.62534V3.58252C38.2981 1.55753 36.6507 -0.0898438 34.6257 -0.0898438H4.22168C2.19669 -0.0898438 0.549316 1.55753 0.549316 3.58252V3.62534C0.549316 5.64998 2.19669 7.29735 4.22168 7.29735H5.07098V38.523H4.22168C2.19669 38.523 0.549316 40.1703 0.549316 42.1953V42.2378C0.549316 44.2628 2.19669 45.9102 4.22168 45.9102H34.6257C36.6507 45.9102 38.2981 44.2628 38.2981 42.2378V42.1953C38.2981 40.1703 36.6507 38.523 34.6257 38.523H33.7764V7.29735ZM31.9771 16.3705L6.87032 19.5087V12.4718H31.9771V16.3705ZM6.87032 26.8117H21.9855C22.4824 26.8117 22.8853 26.4088 22.8853 25.9122C22.8853 25.4153 22.4824 25.0124 21.9855 25.0124H6.87032V21.3221L31.9771 18.1835V25.0124H29.1825C28.6855 25.0124 28.283 25.4153 28.283 25.9122C28.283 26.4088 28.6855 26.8117 29.1825 26.8117H31.9771V32.2553L6.87032 33.9294V26.8117ZM9.66495 7.29735C10.1619 7.29735 10.5648 6.89481 10.5648 6.39786C10.5648 5.90091 10.1619 5.49837 9.66495 5.49837H4.22168C3.18883 5.49837 2.34865 4.65819 2.34865 3.62534V3.58252C2.34865 2.54967 3.18883 1.70949 4.22168 1.70949H34.6257C35.6586 1.70949 36.4988 2.54967 36.4988 3.58252V3.62534C36.4988 4.65784 35.6586 5.49837 34.6257 5.49837H16.8619C16.365 5.49837 15.9624 5.90091 15.9624 6.39786C15.9624 6.89481 16.365 7.29735 16.8619 7.29735H31.9771V10.6728H6.87032V7.29735H9.66495ZM36.4988 42.1953V42.2378C36.4988 43.2706 35.6586 44.1108 34.6257 44.1108H4.22168C3.18883 44.1108 2.34865 43.2706 2.34865 42.2378V42.1953C2.34865 41.1625 3.18883 40.3223 4.22168 40.3223H34.6257C35.6586 40.3223 36.4988 41.1625 36.4988 42.1953ZM6.87032 38.523V35.7325L31.9771 34.0589V38.523H6.87032Z" fill="#9E9D9D"/>
<path d="M26.4145 25.5771C26.3921 25.5223 26.364 25.47 26.3317 25.4216C26.2991 25.3721 26.2615 25.3262 26.2201 25.2847C26.0527 25.1177 25.8207 25.0212 25.5842 25.0212C25.3473 25.0212 25.1153 25.1177 24.9479 25.2847C24.9065 25.3262 24.8689 25.3721 24.8356 25.4216C24.8033 25.47 24.7763 25.5223 24.7538 25.5771C24.7314 25.6311 24.7131 25.688 24.7026 25.7455C24.6906 25.8031 24.6843 25.8624 24.6843 25.921C24.6843 25.9803 24.6906 26.0386 24.7026 26.0972C24.7131 26.1541 24.7314 26.2106 24.7538 26.2653C24.7763 26.3194 24.8033 26.3716 24.8356 26.4201C24.8689 26.4696 24.9065 26.5155 24.9479 26.5569C24.9893 26.5984 25.0353 26.6359 25.0848 26.6693C25.1332 26.7019 25.1855 26.7296 25.2395 26.7521C25.2943 26.7745 25.3511 26.7917 25.4087 26.8033C25.4662 26.8152 25.5256 26.8205 25.5842 26.8205C25.6424 26.8205 25.7017 26.8152 25.7593 26.8033C25.8172 26.7917 25.8737 26.7745 25.9278 26.7521C25.9825 26.7296 26.0348 26.7019 26.0832 26.6693C26.1327 26.6359 26.1787 26.5984 26.2201 26.5569C26.2615 26.5155 26.2991 26.4696 26.3317 26.4201C26.364 26.3716 26.3921 26.3194 26.4145 26.2653C26.437 26.2106 26.4549 26.1541 26.4658 26.0972C26.4773 26.0386 26.4837 25.9793 26.4837 25.921C26.4837 25.8624 26.4773 25.8031 26.4658 25.7455C26.4549 25.688 26.437 25.6311 26.4145 25.5771Z" fill="#9E9D9D"/>
<path d="M12.4327 6.73756C12.4552 6.7916 12.4832 6.84389 12.5155 6.89233C12.5478 6.94181 12.5857 6.98779 12.6271 7.0292C12.6692 7.07061 12.7152 7.10816 12.7636 7.1415C12.8131 7.17379 12.8654 7.20187 12.9195 7.22433C12.9735 7.24679 13.03 7.26398 13.0876 7.27557C13.1462 7.28715 13.2048 7.29276 13.2641 7.29276C13.3224 7.29276 13.381 7.28715 13.4396 7.27557C13.4971 7.26398 13.5536 7.24679 13.6077 7.22433C13.6617 7.20187 13.7137 7.17379 13.7632 7.1415C13.8119 7.10816 13.8579 7.07061 13.9 7.0292C13.9414 6.98779 13.9783 6.94181 14.0116 6.89233C14.0439 6.84389 14.072 6.7916 14.0944 6.73756C14.1169 6.68281 14.1338 6.62701 14.1457 6.56945C14.1573 6.51084 14.1636 6.45153 14.1636 6.39292C14.1636 6.33466 14.1573 6.27535 14.1457 6.2178C14.1338 6.16024 14.1169 6.10339 14.0944 6.04934C14.072 5.99459 14.0439 5.9423 14.0116 5.89387C13.9783 5.84438 13.9414 5.79841 13.9 5.757C13.8579 5.71558 13.8119 5.67803 13.7632 5.64539C13.7137 5.61311 13.6617 5.58538 13.6077 5.56257C13.5536 5.54011 13.4971 5.52326 13.4396 5.51133C13.3234 5.48817 13.2037 5.48817 13.0876 5.51133C13.03 5.52326 12.9735 5.54011 12.9195 5.56257C12.8654 5.58538 12.8131 5.61311 12.7636 5.64539C12.7152 5.67803 12.6692 5.71558 12.6271 5.757C12.5857 5.79841 12.5478 5.84438 12.5155 5.89387C12.4832 5.9423 12.4552 5.99459 12.4327 6.04934C12.4102 6.10339 12.393 6.16024 12.3815 6.2178C12.3699 6.27535 12.3643 6.33466 12.3643 6.39292C12.3643 6.45153 12.3699 6.51084 12.3815 6.56945C12.393 6.62701 12.4102 6.68281 12.4327 6.73756Z" fill="#9E9D9D"/>
<line x1="7.0769" y1="6.25385" x2="26.5384" y2="6.25385" stroke="#9E9D9D" stroke-width="2"/>
<line x1="10.6155" y1="25.8038" x2="30.077" y2="25.8038" stroke="#9E9D9D" stroke-width="2"/>
</g>
<defs>
<clipPath id="clip0">
<rect width="39" height="46" fill="white"/>
</clipPath>
</defs>
</svg>
