<svg width="46" height="46" viewBox="0 0 46 46" fill="none" xmlns="http://www.w3.org/2000/svg">
<g clip-path="url(#clip0)">
<path d="M23.0001 13.4167C20.886 13.4167 19.1667 11.6974 19.1667 9.58333C19.1667 7.79892 20.3915 6.29817 22.0417 5.87075V0.958333C22.0417 0.429333 22.4711 0 23.0001 0C23.5291 0 23.9584 0.429333 23.9584 0.958333V6.70833C23.9584 7.23733 23.5291 7.66667 23.0001 7.66667C21.9421 7.66667 21.0834 8.52533 21.0834 9.58333C21.0834 10.6413 21.9421 11.5 23.0001 11.5C24.0581 11.5 24.9167 10.6413 24.9167 9.58333C24.9167 9.05433 25.3461 8.625 25.8751 8.625C26.4041 8.625 26.8334 9.05433 26.8334 9.58333C26.8334 11.6974 25.1142 13.4167 23.0001 13.4167Z" fill="#9E9D9D"/>
<path d="M45.0417 46H0.958333C0.429333 46 0 45.5706 0 45.0416V22.0416C0 21.6966 0.185917 21.3785 0.484917 21.2079L16.7766 11.9504C17.2327 11.6859 17.8231 11.8488 18.0837 12.3107C18.3463 12.7707 18.1853 13.3553 17.7234 13.6179L1.91667 22.5994V44.0833H44.0833V22.5994L28.2766 13.616C27.8166 13.3534 27.6556 12.7707 27.9162 12.3088C28.1769 11.8488 28.7615 11.6859 29.2234 11.9485L45.5151 21.206C45.8141 21.3785 46 21.6966 46 22.0416V45.0416C46 45.5706 45.5707 46 45.0417 46Z" fill="#9E9D9D"/>
<path d="M18.2083 46H6.70833C6.17933 46 5.75 45.5706 5.75 45.0416V33.5416C5.75 33.0126 6.17933 32.5833 6.70833 32.5833H18.2083C18.7373 32.5833 19.1667 33.0126 19.1667 33.5416V45.0416C19.1667 45.5706 18.7373 46 18.2083 46ZM7.66667 44.0833H17.25V34.5H7.66667V44.0833Z" fill="#9E9D9D"/>
<path d="M12.4583 39.2916C11.9293 39.2916 11.5 38.8623 11.5 38.3333V33.5416C11.5 33.0126 11.9293 32.5833 12.4583 32.5833C12.9873 32.5833 13.4167 33.0126 13.4167 33.5416V38.3333C13.4167 38.8623 12.9873 39.2916 12.4583 39.2916Z" fill="#9E9D9D"/>
<path d="M29.7083 46H18.2083C17.6793 46 17.25 45.5706 17.25 45.0416V33.5416C17.25 33.0126 17.6793 32.5833 18.2083 32.5833H29.7083C30.2373 32.5833 30.6667 33.0126 30.6667 33.5416V45.0416C30.6667 45.5706 30.2373 46 29.7083 46ZM19.1667 44.0833H28.75V34.5H19.1667V44.0833Z" fill="#9E9D9D"/>
<path d="M23.9583 39.2916C23.4293 39.2916 23 38.8623 23 38.3333V33.5416C23 33.0126 23.4293 32.5833 23.9583 32.5833C24.4873 32.5833 24.9167 33.0126 24.9167 33.5416V38.3333C24.9167 38.8623 24.4873 39.2916 23.9583 39.2916Z" fill="#9E9D9D"/>
<path d="M39.2917 46H29.7083C29.1793 46 28.75 45.5707 28.75 45.0417V35.4583C28.75 34.9293 29.1793 34.5 29.7083 34.5H39.2917C39.8207 34.5 40.25 34.9293 40.25 35.4583V45.0417C40.25 45.5707 39.8207 46 39.2917 46ZM30.6667 44.0833H38.3333V36.4167H30.6667V44.0833Z" fill="#9E9D9D"/>
<path d="M34.5001 39.2917C33.9711 39.2917 33.5417 38.8623 33.5417 38.3333V35.4583C33.5417 34.9293 33.9711 34.5 34.5001 34.5C35.0291 34.5 35.4584 34.9293 35.4584 35.4583V38.3333C35.4584 38.8623 35.0291 39.2917 34.5001 39.2917Z" fill="#9E9D9D"/>
<path d="M25.8751 34.5H14.3751C13.8461 34.5 13.4167 34.0707 13.4167 33.5417V22.0417C13.4167 21.5127 13.8461 21.0834 14.3751 21.0834H25.8751C26.4041 21.0834 26.8334 21.5127 26.8334 22.0417V33.5417C26.8334 34.0707 26.4041 34.5 25.8751 34.5ZM15.3334 32.5834H24.9167V23H15.3334V32.5834Z" fill="#9E9D9D"/>
<path d="M20.1251 27.7917C19.5961 27.7917 19.1667 27.3624 19.1667 26.8334V22.0417C19.1667 21.5127 19.5961 21.0834 20.1251 21.0834C20.6541 21.0834 21.0834 21.5127 21.0834 22.0417V26.8334C21.0834 27.3624 20.6541 27.7917 20.1251 27.7917Z" fill="#9E9D9D"/>
</g>
<defs>
<clipPath id="clip0">
<rect width="46" height="46" fill="white"/>
</clipPath>
</defs>
</svg>
