<svg width="46" height="46" viewBox="0 0 46 46" fill="none" xmlns="http://www.w3.org/2000/svg">
<g clip-path="url(#clip0)">
<path d="M9.47052 46C9.27694 46 9.08527 45.9425 8.92044 45.8256C8.62144 45.6167 8.46619 45.2525 8.52369 44.8902L10.9962 29.4285L0.276273 18.5265C0.0232729 18.2697 -0.0629771 17.894 0.0501063 17.5528C0.16319 17.2117 0.45644 16.9625 0.811023 16.9069L15.5291 14.6088L22.0745 0.553917C22.2317 0.216583 22.5671 0.00191667 22.9389 0H22.9428C23.3127 0 23.65 0.21275 23.8091 0.548167L30.4523 14.559L45.1857 16.7574C45.5403 16.8092 45.8354 17.0564 45.9504 17.3976C46.0654 17.7387 45.9811 18.1144 45.73 18.3732L35.0868 29.3461L37.6628 44.7944C37.7222 45.1548 37.5708 45.5208 37.2718 45.7317C36.9728 45.9444 36.5799 45.9674 36.2579 45.7911L23.0731 38.5672L9.93819 45.8773C9.79061 45.9598 9.63152 46 9.47052 46ZM2.95002 18.5131L12.702 28.428C12.9148 28.6446 13.0125 28.9493 12.9665 29.2522L10.7298 43.2458L22.6016 36.6371C22.8872 36.478 23.2379 36.4742 23.5274 36.6333L35.4471 43.1633L33.1145 29.1832C33.0647 28.8842 33.1586 28.5775 33.3733 28.3571L43.0544 18.377L29.6626 16.3779C29.3483 16.3319 29.0742 16.1307 28.9381 15.8413L22.9504 3.21233L17.0509 15.8815C16.9149 16.1728 16.6465 16.376 16.3303 16.4239L2.95002 18.5131Z" fill="#9E9D9D"/>
<path d="M23.0001 32.5833H20.1251C19.5961 32.5833 19.1667 32.154 19.1667 31.625C19.1667 31.096 19.5961 30.6666 20.1251 30.6666H23.0001C24.0581 30.6666 24.9167 29.808 24.9167 28.75C24.9167 27.692 24.0581 26.8333 23.0001 26.8333H20.1251C19.5961 26.8333 19.1667 26.404 19.1667 25.875V20.125C19.1667 19.596 19.5961 19.1666 20.1251 19.1666H25.8751C26.4041 19.1666 26.8334 19.596 26.8334 20.125C26.8334 20.654 26.4041 21.0833 25.8751 21.0833H21.0834V24.9166H23.0001C25.1142 24.9166 26.8334 26.6359 26.8334 28.75C26.8334 30.864 25.1142 32.5833 23.0001 32.5833Z" fill="#9E9D9D"/>
</g>
<defs>
<clipPath id="clip0">
<rect width="46" height="46" fill="white"/>
</clipPath>
</defs>
</svg>
