<svg width="42" height="43" viewBox="0 0 42 43" fill="none" xmlns="http://www.w3.org/2000/svg">
<g clip-path="url(#clip0)">
<path d="M21 12.3303C19.0697 12.3303 17.5 10.7606 17.5 8.83032C17.5 7.20107 18.6182 5.83082 20.125 5.44057V0.955322C20.125 0.472322 20.517 0.0803223 21 0.0803223C21.483 0.0803223 21.875 0.472322 21.875 0.955322V6.20532C21.875 6.68832 21.483 7.08032 21 7.08032C20.034 7.08032 19.25 7.86432 19.25 8.83032C19.25 9.79632 20.034 10.5803 21 10.5803C21.966 10.5803 22.75 9.79632 22.75 8.83032C22.75 8.34732 23.142 7.95532 23.625 7.95532C24.108 7.95532 24.5 8.34732 24.5 8.83032C24.5 10.7606 22.9302 12.3303 21 12.3303Z" fill="#E94250"/>
<path d="M41.125 42.0804H0.875C0.392 42.0804 0 41.6884 0 41.2054V20.2054C0 19.8904 0.16975 19.5999 0.44275 19.4442L15.3178 10.9917C15.7343 10.7502 16.2733 10.8989 16.5113 11.3207C16.751 11.7407 16.604 12.2744 16.1822 12.5142L1.75 20.7147V40.3304H40.25V20.7147L25.8178 12.5124C25.3978 12.2727 25.2507 11.7407 25.4887 11.3189C25.7267 10.8989 26.2605 10.7502 26.6822 10.9899L41.5573 19.4424C41.8302 19.5999 42 19.8904 42 20.2054V41.2054C42 41.6884 41.608 42.0804 41.125 42.0804Z" fill="#E94250"/>
<path d="M16.625 42.0803H6.125C5.642 42.0803 5.25 41.6883 5.25 41.2053V30.7053C5.25 30.2223 5.642 29.8303 6.125 29.8303H16.625C17.108 29.8303 17.5 30.2223 17.5 30.7053V41.2053C17.5 41.6883 17.108 42.0803 16.625 42.0803ZM7 40.3303H15.75V31.5803H7V40.3303Z" fill="#E94250"/>
<path d="M11.375 35.9553C10.892 35.9553 10.5 35.5633 10.5 35.0803V30.7053C10.5 30.2223 10.892 29.8303 11.375 29.8303C11.858 29.8303 12.25 30.2223 12.25 30.7053V35.0803C12.25 35.5633 11.858 35.9553 11.375 35.9553Z" fill="#E94250"/>
<path d="M27.125 42.0803H16.625C16.142 42.0803 15.75 41.6883 15.75 41.2053V30.7053C15.75 30.2223 16.142 29.8303 16.625 29.8303H27.125C27.608 29.8303 28 30.2223 28 30.7053V41.2053C28 41.6883 27.608 42.0803 27.125 42.0803ZM17.5 40.3303H26.25V31.5803H17.5V40.3303Z" fill="#E94250"/>
<path d="M21.875 35.9553C21.392 35.9553 21 35.5633 21 35.0803V30.7053C21 30.2223 21.392 29.8303 21.875 29.8303C22.358 29.8303 22.75 30.2223 22.75 30.7053V35.0803C22.75 35.5633 22.358 35.9553 21.875 35.9553Z" fill="#E94250"/>
<path d="M35.875 42.0803H27.125C26.642 42.0803 26.25 41.6883 26.25 41.2053V32.4553C26.25 31.9723 26.642 31.5803 27.125 31.5803H35.875C36.358 31.5803 36.75 31.9723 36.75 32.4553V41.2053C36.75 41.6883 36.358 42.0803 35.875 42.0803ZM28 40.3303H35V33.3303H28V40.3303Z" fill="#E94250"/>
<path d="M31.5 35.9553C31.017 35.9553 30.625 35.5633 30.625 35.0803V32.4553C30.625 31.9723 31.017 31.5803 31.5 31.5803C31.983 31.5803 32.375 31.9723 32.375 32.4553V35.0803C32.375 35.5633 31.983 35.9553 31.5 35.9553Z" fill="#E94250"/>
<path d="M23.625 31.5803H13.125C12.642 31.5803 12.25 31.1883 12.25 30.7053V20.2053C12.25 19.7223 12.642 19.3303 13.125 19.3303H23.625C24.108 19.3303 24.5 19.7223 24.5 20.2053V30.7053C24.5 31.1883 24.108 31.5803 23.625 31.5803ZM14 29.8303H22.75V21.0803H14V29.8303Z" fill="#E94250"/>
<path d="M18.375 25.4553C17.892 25.4553 17.5 25.0633 17.5 24.5803V20.2053C17.5 19.7223 17.892 19.3303 18.375 19.3303C18.858 19.3303 19.25 19.7223 19.25 20.2053V24.5803C19.25 25.0633 18.858 25.4553 18.375 25.4553Z" fill="#E94250"/>
</g>
<defs>
<clipPath id="clip0">
<rect width="42" height="42" fill="white" transform="translate(0 0.0803223)"/>
</clipPath>
</defs>
</svg>
