<svg width="42" height="43" viewBox="0 0 42 43" fill="none" xmlns="http://www.w3.org/2000/svg">
<g clip-path="url(#clip0)">
<path d="M8.64711 42.0803C8.47036 42.0803 8.29536 42.0278 8.14486 41.9211C7.87186 41.7303 7.73011 41.3978 7.78261 41.0671L10.0401 26.9498L0.252355 16.9958C0.0213553 16.7613 -0.0573947 16.4183 0.0458553 16.1068C0.149105 15.7953 0.416855 15.5678 0.740605 15.5171L14.1789 13.4188L20.1551 0.586072C20.2986 0.278072 20.6049 0.0820723 20.9444 0.0803223H20.9479C21.2856 0.0803223 21.5936 0.274572 21.7389 0.580822L27.8044 13.3733L41.2566 15.3806C41.5804 15.4278 41.8499 15.6536 41.9549 15.9651C42.0599 16.2766 41.9829 16.6196 41.7536 16.8558L32.0359 26.8746L34.3879 40.9796C34.4421 41.3086 34.3039 41.6428 34.0309 41.8353C33.7579 42.0296 33.3991 42.0506 33.1051 41.8896L21.0669 35.2938L9.07411 41.9683C8.93936 42.0436 8.79411 42.0803 8.64711 42.0803ZM2.69361 16.9836L11.5976 26.0363C11.7919 26.2341 11.8811 26.5123 11.8391 26.7888L9.79686 39.5656L20.6364 33.5316C20.8971 33.3863 21.2174 33.3828 21.4816 33.5281L32.3649 39.4903L30.2351 26.7258C30.1896 26.4528 30.2754 26.1728 30.4714 25.9716L39.3106 16.8593L27.0834 15.0341C26.7964 14.9921 26.5461 14.8083 26.4219 14.5441L20.9549 3.01332L15.5684 14.5808C15.4441 14.8468 15.1991 15.0323 14.9104 15.0761L2.69361 16.9836Z" fill="#E94250"/>
<path d="M21 29.8303H18.375C17.892 29.8303 17.5 29.4383 17.5 28.9553C17.5 28.4723 17.892 28.0803 18.375 28.0803H21C21.966 28.0803 22.75 27.2963 22.75 26.3303C22.75 25.3643 21.966 24.5803 21 24.5803H18.375C17.892 24.5803 17.5 24.1883 17.5 23.7053V18.4553C17.5 17.9723 17.892 17.5803 18.375 17.5803H23.625C24.108 17.5803 24.5 17.9723 24.5 18.4553C24.5 18.9383 24.108 19.3303 23.625 19.3303H19.25V22.8303H21C22.9302 22.8303 24.5 24.4001 24.5 26.3303C24.5 28.2606 22.9302 29.8303 21 29.8303Z" fill="#E94250"/>
</g>
<defs>
<clipPath id="clip0">
<rect width="42" height="42" fill="white" transform="translate(0 0.0803223)"/>
</clipPath>
</defs>
</svg>
