<svg width="42" height="43" viewBox="0 0 42 43" fill="none" xmlns="http://www.w3.org/2000/svg">
<g clip-path="url(#clip0)">
<path d="M35.875 3.58032H34.125C33.642 3.58032 33.25 3.97235 33.25 4.45535C33.25 4.93835 33.642 5.33029 34.125 5.33029H35.875C38.2882 5.33029 40.2499 7.29207 40.2499 9.70527V35.9553C40.2499 38.3685 38.2882 40.3302 35.875 40.3302H6.12503C3.71175 40.3302 1.75005 38.3685 1.75005 35.9553V9.70527C1.74997 7.29207 3.71175 5.33029 6.12503 5.33029H7.875C8.358 5.33029 8.75003 4.93827 8.75003 4.45527C8.75003 3.97227 8.358 3.58032 7.875 3.58032H6.12503C2.74747 3.58032 0 6.3278 0 9.70527V35.9553C0 39.3328 2.74747 42.0803 6.12503 42.0803H35.8751C39.2525 42.0803 42 39.3328 42 35.9553V9.70527C42 6.3278 39.2525 3.58032 35.875 3.58032Z" fill="#E94250"/>
<path d="M27.1251 3.58032H14.875C14.392 3.58032 14 3.97235 14 4.45535C14 4.93835 14.392 5.3303 14.875 5.3303H27.125C27.608 5.3303 28 4.93827 28 4.45527C28 3.97227 27.6081 3.58032 27.1251 3.58032Z" fill="#E94250"/>
<path d="M41.125 12.3303H0.875027C0.392027 12.3303 0 12.7224 0 13.2054C0 13.6884 0.392027 14.0804 0.875027 14.0804H41.1251C41.6081 14.0804 42.0001 13.6884 42.0001 13.2054C42.0001 12.7224 41.608 12.3303 41.125 12.3303Z" fill="#E94250"/>
<path d="M11.375 0.0803223C10.892 0.0803223 10.5 0.47235 10.5 0.95535V7.95532C10.5 8.43832 10.892 8.83035 11.375 8.83035C11.858 8.83035 12.2501 8.43832 12.2501 7.95532V0.95535C12.25 0.47235 11.858 0.0803223 11.375 0.0803223Z" fill="#E94250"/>
<path d="M30.625 0.0803223C30.142 0.0803223 29.75 0.47235 29.75 0.95535V7.95532C29.75 8.43832 30.142 8.83035 30.625 8.83035C31.108 8.83035 31.5001 8.43832 31.5001 7.95532V0.95535C31.5001 0.47235 31.108 0.0803223 30.625 0.0803223Z" fill="#E94250"/>
<path d="M15.3372 31.8403H16.6222V20.3203H15.3372L13 21.6163V22.9363L15.3372 21.6323V31.8403Z" fill="#E94250"/>
<path d="M23.9466 32.0803C26.2493 32.0803 28 30.4563 28 28.3203V23.8403C28 21.7043 26.2493 20.0803 23.9466 20.0803C21.644 20.0803 19.8933 21.7043 19.8933 23.8403V28.3203C19.8933 30.4563 21.644 32.0803 23.9466 32.0803ZM23.9466 30.9443C22.4202 30.9443 21.1783 29.7923 21.1783 28.3763V23.7843C21.1783 22.3603 22.4202 21.2083 23.9466 21.2083C25.4731 21.2083 26.715 22.3603 26.715 23.7843V28.3763C26.715 29.7923 25.4731 30.9443 23.9466 30.9443Z" fill="#E94250"/>
</g>
<defs>
<clipPath id="clip0">
<rect width="42" height="42" fill="white" transform="translate(0 0.0803223)"/>
</clipPath>
</defs>
</svg>
