<svg width="45" height="44" viewBox="0 0 45 44" fill="none" xmlns="http://www.w3.org/2000/svg">
<path opacity="0.4" d="M22.9155 44.0026C35.0498 44.0026 44.8866 34.1658 44.8866 22.0314C44.8866 9.89711 35.0498 0.0603027 22.9155 0.0603027C10.7811 0.0603027 0.944336 9.89711 0.944336 22.0314C0.944336 34.1658 10.7811 44.0026 22.9155 44.0026Z" fill="#F8F7F3"/>
<path d="M34.9988 16.2934C35.1702 15.6892 34.9988 15.2454 34.176 15.2454H31.4516C31.1928 15.2299 30.9362 15.3007 30.7219 15.4466C30.5076 15.5925 30.3478 15.8053 30.2673 16.0517C29.4283 18.1392 28.3013 20.099 26.9189 21.8741C26.2851 22.5332 25.9939 22.7529 25.6468 22.7529C25.4754 22.7529 25.2074 22.5409 25.2074 21.9367V16.2934C25.2074 15.5695 25.0129 15.2454 24.4384 15.2454H20.154C20.0655 15.2422 19.9773 15.2565 19.8944 15.2875C19.8115 15.3186 19.7356 15.3658 19.6711 15.4264C19.6065 15.4869 19.5546 15.5597 19.5183 15.6404C19.482 15.7212 19.4621 15.8083 19.4597 15.8968C19.4597 16.5823 20.4407 16.7416 20.5418 18.674V22.8661C20.5418 23.7834 20.3847 23.9525 20.0376 23.9525C19.1126 23.9525 16.8649 20.4075 15.5335 16.3516C15.2709 15.5684 15.0073 15.2498 14.3097 15.2498H11.5853C10.8086 15.2498 10.6504 15.631 10.6504 16.0561C10.6504 16.8097 11.5754 20.5525 14.9567 25.4971C17.2088 28.873 20.3825 30.7032 23.2684 30.7032C25.003 30.7032 25.2162 30.2978 25.2162 29.5969C25.2162 26.3705 25.0591 26.0662 25.928 26.0662C26.3301 26.0662 27.0266 26.2782 28.6426 27.9062C30.4925 29.8375 30.7979 30.7021 31.8339 30.7021H34.5583C35.335 30.7021 35.7282 30.2967 35.5019 29.4937C34.9834 27.8085 31.4823 24.3403 31.3274 24.1107C30.9254 23.5702 31.0407 23.3286 31.3274 22.8452C31.3307 22.8419 34.6561 17.9544 34.9988 16.2934Z" fill="#F8F7F3"/>
</svg>
