<svg width="45" height="44" viewBox="0 0 45 44" fill="none" xmlns="http://www.w3.org/2000/svg">
<path opacity="0.4" d="M22.8188 44.0026C34.9531 44.0026 44.7899 34.1658 44.7899 22.0314C44.7899 9.89711 34.9531 0.0603027 22.8188 0.0603027C10.6845 0.0603027 0.847656 9.89711 0.847656 22.0314C0.847656 34.1658 10.6845 44.0026 22.8188 44.0026Z" fill="#F8F7F3"/>
<path d="M34.1826 16.5906C34.0509 16.0944 33.791 15.6415 33.4292 15.2773C33.0673 14.9131 32.616 14.6504 32.1206 14.5155C30.3036 14.0255 23.0114 14.0255 23.0114 14.0255C23.0114 14.0255 15.7192 14.0255 13.9 14.5155C13.4046 14.6504 12.9533 14.9131 12.5914 15.2773C12.2295 15.6415 11.9697 16.0944 11.838 16.5906C11.5016 18.4549 11.3384 20.3462 11.3502 22.2405C11.3384 24.1348 11.5016 26.0262 11.838 27.8904C11.9708 28.3825 12.2315 28.8307 12.5937 29.1894C12.9559 29.5481 13.4066 29.8046 13.9 29.9326C15.7181 30.4226 23.0114 30.4226 23.0114 30.4226C23.0114 30.4226 30.3036 30.4226 32.1228 29.9326C32.6158 29.8042 33.066 29.5476 33.4278 29.189C33.7896 28.8303 34.05 28.3823 34.1826 27.8904C34.5189 26.0262 34.6822 24.1348 34.6704 22.2405C34.6822 20.3462 34.5189 18.4549 34.1826 16.5906ZM20.6264 25.7076V18.7735L26.7212 22.2405L20.6264 25.7076Z" fill="#F8F7F3"/>
</svg>
