<svg width="16" height="14" viewBox="0 0 16 14" fill="none" xmlns="http://www.w3.org/2000/svg">
<path d="M9.35598 0.760745C9.29315 0.71867 9.21145 0.724424 9.15106 0.788426C9.06817 0.876291 9.06859 1.02881 9.15166 1.11611L9.1517 1.11615L13.4525 5.63683L14.2507 6.47582L13.0927 6.47576L1.20556 6.47519L1.15567 6.47873C1.08801 6.49446 1.00737 6.56832 1.00737 6.69333C1.00737 6.83939 1.11313 6.91147 1.18797 6.91147H1.18799L13.0909 6.91204L14.2486 6.9121L13.4508 7.75094L9.16414 12.2576L9.12468 12.3057C9.06825 12.3964 9.08026 12.5234 9.15108 12.5984C9.18861 12.6382 9.23117 12.653 9.26941 12.653C9.30765 12.6531 9.3502 12.6386 9.38781 12.599L14.8508 6.85709L14.8556 6.85204C14.8598 6.84733 14.8638 6.84234 14.8677 6.83709L14.8707 6.83285C14.8731 6.82945 14.8751 6.82631 14.8766 6.82402L14.8769 6.82344C14.8796 6.81925 14.8823 6.81456 14.8853 6.80894L14.8888 6.80204L14.8898 6.79995C14.8926 6.79402 14.8954 6.78756 14.8982 6.78005L14.9011 6.77141L14.9016 6.76981C14.9036 6.76356 14.9054 6.75674 14.9072 6.74893L14.9088 6.74126L14.9092 6.73883C14.91 6.73427 14.9107 6.72962 14.9113 6.72488L14.913 6.68482L14.9129 6.67943C14.9128 6.67686 14.9127 6.67526 14.9126 6.6744L14.9119 6.66831L14.912 6.6683C14.9114 6.66234 14.9105 6.65543 14.9093 6.64766L14.9084 6.64305L14.9068 6.63637L14.9069 6.63636C14.9056 6.63065 14.9038 6.62371 14.9015 6.61576C14.9013 6.61495 14.9011 6.61413 14.9008 6.61331C14.9008 6.61309 14.9007 6.61287 14.9006 6.61265L14.9079 6.61052L9.35598 0.760745ZM9.35598 0.760745L9.40038 0.801018L14.8508 6.52879C14.8601 6.53859 14.8683 6.5491 14.8756 6.56028C14.8802 6.56832 14.8828 6.57309 14.8849 6.57704L14.8884 6.58356L14.8897 6.5859L9.35598 0.760745Z" fill="#202020" stroke="#202020" stroke-width="0.993247"/>
</svg>
