<svg width="647" height="260" viewBox="0 0 647 260" fill="none" xmlns="http://www.w3.org/2000/svg">
<g opacity="0.2">
<path fill-rule="evenodd" clip-rule="evenodd" d="M275.656 322.876L306.433 226.969C307.363 224.049 315.68 196.781 317.014 194.894C315.093 193.619 302.948 196.541 300.725 197.006C293.86 198.404 186.048 218.575 184.219 219.485L275.67 322.892L275.656 322.876Z" fill="#F8F7F3"/>
<path fill-rule="evenodd" clip-rule="evenodd" d="M455.066 436.895L363.615 333.489C373.892 332.105 400.665 326.442 413.086 324.153L479.701 311.495C482.558 310.979 494.619 308.442 496.424 308.913" fill="#F8F7F3"/>
<path fill-rule="evenodd" clip-rule="evenodd" d="M643.029 264.802C630.141 267.589 604.238 272.058 601.061 272.629L535.222 285.14C531.908 285.748 520.663 287.478 518.44 288.679C517.504 286.788 519.057 283.772 520.042 280.691L538.03 224.419C539.78 218.934 541.387 214.058 543.152 208.559C544.937 202.987 546.365 197.843 548.358 192.314L556.124 168.138" fill="#F8F7F3"/>
<path fill-rule="evenodd" clip-rule="evenodd" d="M549.264 156.984L529.366 221.602C525.985 232.352 513.003 274.17 508.623 285.777L417.172 182.37C429.241 179.458 459.592 174.03 474.46 171.304C477.547 170.727 480.166 170.422 483.029 169.816L549.28 156.97" fill="#F8F7F3"/>
<path fill-rule="evenodd" clip-rule="evenodd" d="M498.815 295.185L399.865 314.006C396.854 314.573 368.773 319.494 366.737 320.587C365.706 318.524 370.092 306.828 370.825 304.679C373.051 298.036 406.251 193.499 407.378 191.794L498.829 295.201L498.815 295.185Z" fill="#F8F7F3"/>
<path fill-rule="evenodd" clip-rule="evenodd" d="M336.732 83.5017C334.399 84.7716 325.432 86.1304 322.68 86.638L280.608 94.699C280.468 93.067 281.664 89.7432 282.334 87.8754C283.261 85.2716 283.699 83.5247 284.48 81.0774L293.273 53.8986C294.132 51.1555 296.659 41.5851 298.217 39.952L336.746 83.5176L336.732 83.5017Z" fill="#F8F7F3"/>
<path fill-rule="evenodd" clip-rule="evenodd" d="M396.423 194.205C396.753 196.66 393.594 204.779 392.64 207.832L379.165 249.349L340.285 205.386C343.293 203.887 393.64 195.702 396.409 194.189" fill="#F8F7F3"/>
<path fill-rule="evenodd" clip-rule="evenodd" d="M76.954 225.319L123.942 216.026C131.984 214.551 139.752 212.637 147.424 211.575L170.94 206.554L105.845 132.949C99.7375 149.199 85.9653 193.84 79.8742 213.247" fill="#F8F7F3"/>
<path fill-rule="evenodd" clip-rule="evenodd" d="M148.671 8.77007C142.09 28.0727 128.535 71.8699 126.134 79.4037C125.052 82.8247 123.922 88.0164 121.98 90.7532" fill="#F8F7F3"/>
<path fill-rule="evenodd" clip-rule="evenodd" d="M121.98 90.7535L205.426 75.9566C206.642 75.7306 215.092 74.2348 215.217 74.1523C218.155 72.5738 215.406 71.3229 209.345 64.5025L157.505 5.88526" fill="#F8F7F3"/>
<path fill-rule="evenodd" clip-rule="evenodd" d="M208.187 188.231L291.608 173.598C295.136 172.943 300.427 172.456 303.381 170.863L241.863 101.175C239.44 98.5314 239.262 97.2728 237.551 98.701L221.526 148.449C220.295 152.342 210.093 185.583 208.201 188.247" fill="#F8F7F3"/>
<path fill-rule="evenodd" clip-rule="evenodd" d="M190.493 192.948C192.699 189.837 193.502 185.813 194.622 182.244C195.893 178.203 196.9 175.018 198.207 170.859L216.345 114.596C217.427 111.176 218.573 105.97 220.499 103.247C217.696 101.391 213.377 102.945 208.855 103.885L125.973 120.025L190.478 192.962L190.493 192.948Z" fill="#F8F7F3"/>
</g>
</svg>
