<svg width="447" height="255" viewBox="0 0 447 255" fill="none" xmlns="http://www.w3.org/2000/svg">
<path opacity="0.2" d="M338.829 37.9881L338.421 37.367L39.3103 163.443L39.3722 164.21L217.55 185.619L217.757 185.643L217.897 185.473L338.829 37.9881ZM407.366 240.779L407.726 240.627L407.601 240.257L350.355 71.3639L350.143 70.7386L349.712 71.2644L228.92 218.578L50.9482 197.194L50.313 197.118L50.5249 197.743L107.771 366.636L107.896 367.006L108.256 366.854L407.366 240.779ZM327.222 4.32818C347.632 -4.27471 369.362 3.79859 375.575 22.1292L444.27 224.801C450.483 243.132 438.975 265.215 418.565 273.818L119.454 399.893C99.0444 408.496 77.3149 400.423 71.1018 382.092L2.40675 179.42C-3.80636 161.09 7.70176 139.007 28.1118 130.404L327.222 4.32818Z" fill="#D4681A" stroke="#D4681A" stroke-width="0.781154"/>
</svg>
