<svg width="179" height="38" viewBox="0 0 179 38" fill="none" xmlns="http://www.w3.org/2000/svg">
<path d="M66.3127 15.3534C66.3127 19.7329 65.0585 23.2118 62.5501 25.7901C60.0416 28.3684 56.571 29.6556 52.1422 29.6556C47.7134 29.6556 44.2632 28.3684 41.7548 25.7901C39.2464 23.2118 37.9922 19.7329 37.9922 15.3534C37.9922 10.974 39.2464 7.44572 41.7548 4.87973C44.2632 2.31374 47.7257 1.03485 52.1422 1.03485C56.5586 1.03485 60.0087 2.31785 62.5295 4.88384C65.0503 7.44984 66.3127 10.9411 66.3127 15.3575V15.3534ZM56.9205 22.3071C57.6072 21.4723 58.1213 20.4813 58.4502 19.3463C58.7792 18.2114 58.9478 16.8708 58.9478 15.3329C58.9478 13.6839 58.7586 12.2816 58.3762 11.1261C57.9938 9.9706 57.4962 9.03713 56.8835 8.32162C56.2543 7.58554 55.5347 7.04684 54.7164 6.71787C53.8981 6.38478 53.0468 6.2203 52.1627 6.2203C51.2786 6.2203 50.4192 6.38067 49.6255 6.70142C48.8319 7.02217 48.104 7.54853 47.4378 8.28872C46.821 8.97956 46.3234 9.92947 45.9328 11.1385C45.5462 12.3515 45.353 13.7579 45.353 15.3534C45.353 16.9489 45.5421 18.3841 45.9163 19.5314C46.2905 20.6828 46.7881 21.6204 47.4008 22.3441C48.0177 23.072 48.7373 23.6066 49.5597 23.9479C50.3822 24.2933 51.2498 24.466 52.1627 24.466C53.0756 24.466 53.9392 24.2892 54.7657 23.9396C55.5882 23.5901 56.3078 23.0432 56.9246 22.3071H56.9205Z" fill="#F8F7F3"/>
<path d="M94.0662 29.0815H86.981V6.92104H79.1185C79.0568 8.1259 79.0075 9.07582 78.9705 9.76255C78.9334 10.4534 78.88 11.3622 78.806 12.493C78.6456 14.9768 78.403 17.0658 78.0781 18.7559C77.7533 20.446 77.3873 21.84 76.9802 22.9338C76.5607 24.04 76.1207 24.9447 75.6519 25.6479C75.1831 26.351 74.7185 26.9226 74.2497 27.3626C73.6452 27.9424 72.8968 28.403 72.0003 28.7484C71.1039 29.0939 70.1499 29.2666 69.1383 29.2666C68.5214 29.2666 67.8882 29.2419 67.2302 29.1925C66.5723 29.1432 66.1487 29.1062 65.9678 29.0815V22.9379H66.2268C66.3379 22.9503 66.4653 22.9626 66.6052 22.9749C66.745 22.9873 66.9095 22.9914 67.0945 22.9914C67.7812 22.9914 68.2953 22.9503 68.6242 22.8639C68.9573 22.7776 69.2534 22.6254 69.5084 22.4034C70.4418 21.5809 71.0874 20.2733 71.437 18.4803C71.7865 16.6874 72.0497 14.1831 72.2224 10.9592C72.2964 9.6803 72.354 8.28628 72.3992 6.78123C72.4403 5.27617 72.4815 3.54906 72.5185 1.604H94.0703V29.0815H94.0662Z" fill="#F8F7F3"/>
<path d="M127.297 29.0808H120.248V10.683L115.158 22.6206H110.268L105.173 10.683V29.0808H98.4951V1.60742H106.724L112.904 15.3914L119.068 1.60742H127.297V29.0849V29.0808Z" fill="#F8F7F3"/>
<path d="M157.118 29.0808H149.802L147.89 23.5253H137.721L135.809 29.0808H128.67L138.815 1.60742H146.969L157.118 29.0849V29.0808ZM146.184 18.492L142.803 8.64746L139.423 18.492H146.184Z" fill="#F8F7F3"/>
<path d="M178.3 6.92035H165.569V29.0808H158.483V1.60742H178.3" fill="#F8F7F3"/>
<path d="M69.9643 37.0788H69.2817V33.8507L68.266 35.952H67.7519L66.7403 33.8507V37.0788H66.0947V32.9913H66.9254L68.0398 35.2776L69.1172 32.9913H69.9643V37.0788Z" fill="#F8F7F3"/>
<path d="M74.4961 37.0785H73.8093V36.6426C73.7476 36.6837 73.6654 36.7413 73.5626 36.8153C73.4598 36.8893 73.357 36.951 73.2624 36.9921C73.1473 37.0497 73.0157 37.0949 72.8676 37.1319C72.7196 37.169 72.5428 37.1895 72.3454 37.1895C71.9753 37.1895 71.6628 37.0661 71.4078 36.8235C71.1529 36.5809 71.0254 36.2684 71.0254 35.8901C71.0254 35.5817 71.0912 35.3308 71.2269 35.1375C71.3626 34.9443 71.5518 34.7962 71.7944 34.6852C72.0452 34.5742 72.3413 34.5002 72.6908 34.4631C73.0404 34.4261 73.4146 34.3932 73.8134 34.3768V34.2699C73.8134 34.1136 73.7847 33.9861 73.7312 33.8833C73.6777 33.7805 73.5955 33.6983 73.4968 33.6407C73.3981 33.5831 73.283 33.5461 73.1432 33.5256C73.0075 33.505 72.8635 33.4968 72.7155 33.4968C72.5346 33.4968 72.3331 33.5215 72.111 33.5667C71.8889 33.616 71.6587 33.6818 71.4243 33.7723H71.3873V33.0732C71.523 33.0362 71.7162 32.9951 71.9712 32.954C72.2261 32.9087 72.477 32.8882 72.7237 32.8882C73.0116 32.8882 73.2624 32.9129 73.4762 32.9581C73.6901 33.0074 73.8751 33.0856 74.0314 33.2007C74.1835 33.3117 74.3028 33.4598 74.3809 33.6366C74.4632 33.8134 74.5002 34.0355 74.5002 34.2987V37.0744L74.4961 37.0785ZM73.8134 36.071V34.9319C73.6037 34.9443 73.357 34.9607 73.0733 34.9854C72.7895 35.0101 72.5633 35.0471 72.3989 35.0923C72.2015 35.1499 72.0411 35.2362 71.9177 35.3555C71.7944 35.4747 71.7368 35.6351 71.7368 35.8448C71.7368 36.0792 71.8067 36.2561 71.9506 36.3753C72.0904 36.4946 72.3084 36.5521 72.6004 36.5521C72.843 36.5521 73.0609 36.5069 73.2624 36.4123C73.4639 36.3177 73.649 36.2067 73.8176 36.0751L73.8134 36.071Z" fill="#F8F7F3"/>
<path d="M78.6411 33.5917H76.511V37.0788H75.8242V32.9913H78.6452V33.5958L78.6411 33.5917Z" fill="#F8F7F3"/>
<path d="M82.7778 37.0788H82.091V35.2365H80.0432V37.0788H79.3564V32.9913H80.0432V34.6444H82.091V32.9913H82.7778V37.0788Z" fill="#F8F7F3"/>
<path d="M87.5769 37.0788H86.8942V34.007L84.7518 37.0788H84.1309V32.9913H84.8135V36.0178L86.9312 32.9913H87.5769V37.0788Z" fill="#F8F7F3"/>
<path d="M91.9356 33.5912H90.4552V37.0783H89.7685V33.5912H88.2881V32.9867H91.9356V33.5912Z" fill="#F8F7F3"/>
<path d="M96.0727 37.0788H95.386V35.2365H93.3381V37.0788H92.6514V32.9913H93.3381V34.6444H95.386V32.9913H96.0727V37.0788Z" fill="#F8F7F3"/>
<path d="M100.658 35.8118C100.658 36.0091 100.617 36.1901 100.538 36.3504C100.46 36.5108 100.349 36.6424 100.214 36.7411C100.053 36.8645 99.8805 36.9508 99.6996 37.0002C99.5146 37.0495 99.2802 37.0783 98.9923 37.0783H97.4297V32.9908H98.1164V34.5822H99.0088C99.3172 34.5822 99.5557 34.5987 99.7243 34.6316C99.8929 34.6645 100.061 34.7426 100.23 34.866C100.37 34.9688 100.477 35.1045 100.547 35.2689C100.617 35.4334 100.654 35.6144 100.654 35.8159L100.658 35.8118ZM99.9463 35.82C99.9463 35.6966 99.9258 35.5856 99.8805 35.491C99.8353 35.3964 99.7695 35.3224 99.6708 35.2607C99.568 35.199 99.4529 35.162 99.3213 35.1497C99.1897 35.1374 99.0046 35.1332 98.7579 35.1332H98.1123V36.5232H98.7415C98.9841 36.5232 99.1732 36.5108 99.3089 36.4903C99.4446 36.4697 99.5598 36.4286 99.6585 36.371C99.7572 36.3093 99.8312 36.2312 99.8764 36.1448C99.9217 36.0585 99.9463 35.9475 99.9463 35.8118V35.82ZM101.344 32.9867H102.031V37.0742H101.344V32.9867Z" fill="#F8F7F3"/>
<path d="M106.809 35.1044H103.795C103.795 35.3552 103.832 35.5732 103.91 35.7624C103.984 35.9474 104.091 36.1037 104.222 36.2229C104.35 36.3381 104.502 36.4285 104.675 36.4861C104.847 36.5437 105.041 36.5725 105.25 36.5725C105.53 36.5725 105.81 36.519 106.089 36.4039C106.373 36.2928 106.57 36.1818 106.69 36.0749H106.727V36.8274C106.496 36.9261 106.258 37.0083 106.015 37.0741C105.773 37.1399 105.518 37.1728 105.255 37.1728C104.576 37.1728 104.046 36.9878 103.667 36.6218C103.289 36.2558 103.096 35.7336 103.096 35.0551C103.096 34.3766 103.277 33.8543 103.643 33.4637C104.009 33.0689 104.486 32.8756 105.082 32.8756C105.633 32.8756 106.061 33.036 106.357 33.3608C106.657 33.6816 106.805 34.1422 106.805 34.7343V35.1085L106.809 35.1044ZM106.139 34.578C106.139 34.2162 106.044 33.9365 105.867 33.7392C105.686 33.5418 105.415 33.4431 105.049 33.4431C104.683 33.4431 104.387 33.55 104.169 33.768C103.951 33.9859 103.828 34.2532 103.799 34.578H106.143H106.139Z" fill="#F8F7F3"/>
<path d="M113.549 36.819C113.27 36.9505 113.027 37.041 112.826 37.0904C112.624 37.1397 112.423 37.1644 112.225 37.1644C111.929 37.1644 111.654 37.1191 111.407 37.0328C111.156 36.9464 110.946 36.8148 110.766 36.638C110.589 36.4612 110.449 36.2391 110.35 35.9718C110.252 35.7046 110.202 35.3879 110.202 35.0302C110.202 34.3804 110.383 33.8582 110.745 33.4675C111.107 33.0769 111.6 32.8836 112.229 32.8836C112.468 32.8836 112.698 32.9165 112.929 32.9823C113.159 33.0481 113.364 33.1303 113.558 33.2249V33.9898H113.517C113.29 33.8171 113.064 33.6896 112.846 33.6073C112.624 33.5251 112.41 33.484 112.205 33.484C111.798 33.484 111.481 33.6197 111.259 33.8952C111.037 34.1707 110.926 34.549 110.926 35.0343C110.926 35.5195 111.037 35.8978 111.259 36.1651C111.481 36.4324 111.798 36.5681 112.209 36.5681C112.353 36.5681 112.497 36.5517 112.641 36.5146C112.785 36.4776 112.912 36.4283 113.031 36.3707C113.126 36.3255 113.22 36.2679 113.319 36.2021C113.418 36.1363 113.488 36.0911 113.525 36.0582H113.566V36.8148L113.549 36.819Z" fill="#F8F7F3"/>
<path d="M117.937 37.0788H117.255V34.007L115.112 37.0788H114.491V32.9913H115.174V36.0178L117.296 32.9913H117.941V37.0788H117.937Z" fill="#F8F7F3"/>
<path d="M122.353 36.819C122.074 36.9505 121.831 37.041 121.629 37.0904C121.428 37.1397 121.226 37.1644 121.029 37.1644C120.733 37.1644 120.457 37.1191 120.211 37.0328C119.96 36.9464 119.75 36.8148 119.569 36.638C119.392 36.4612 119.253 36.2391 119.154 35.9718C119.055 35.7046 119.006 35.3879 119.006 35.0302C119.006 34.3804 119.187 33.8582 119.549 33.4675C119.911 33.0769 120.404 32.8836 121.033 32.8836C121.272 32.8836 121.502 32.9165 121.732 32.9823C121.963 33.0481 122.168 33.1303 122.361 33.2249V33.9898H122.32C122.094 33.8171 121.868 33.6896 121.65 33.6073C121.428 33.5251 121.214 33.484 121.008 33.484C120.601 33.484 120.285 33.6197 120.063 33.8952C119.841 34.1707 119.73 34.549 119.73 35.0343C119.73 35.5195 119.841 35.8978 120.063 36.1651C120.285 36.4324 120.601 36.5681 121.013 36.5681C121.157 36.5681 121.3 36.5517 121.444 36.5146C121.588 36.4776 121.716 36.4283 121.835 36.3707C121.926 36.3255 122.024 36.2679 122.123 36.2021C122.222 36.1363 122.291 36.0911 122.328 36.0582H122.37V36.8148L122.353 36.819Z" fill="#F8F7F3"/>
<path d="M126.301 33.5912H124.82V37.0783H124.134V33.5912H122.653V32.9867H126.301V33.5912Z" fill="#F8F7F3"/>
<path d="M130.442 35.1044H127.428C127.428 35.3552 127.465 35.5732 127.543 35.7624C127.617 35.9474 127.724 36.1037 127.855 36.2229C127.983 36.3381 128.131 36.4285 128.308 36.4861C128.48 36.5437 128.674 36.5725 128.883 36.5725C129.163 36.5725 129.443 36.519 129.722 36.4039C130.006 36.2928 130.203 36.1818 130.323 36.0749H130.36V36.8274C130.129 36.9261 129.891 37.0083 129.648 37.0741C129.406 37.1399 129.151 37.1728 128.887 37.1728C128.209 37.1728 127.678 36.9878 127.3 36.6218C126.922 36.2558 126.729 35.7336 126.729 35.0551C126.729 34.3766 126.909 33.8543 127.275 33.4637C127.641 33.0689 128.118 32.8756 128.715 32.8756C129.266 32.8756 129.693 33.036 129.989 33.3608C130.29 33.6816 130.438 34.1422 130.438 34.7343V35.1085L130.442 35.1044ZM129.772 34.578C129.772 34.2162 129.677 33.9365 129.5 33.7392C129.319 33.5418 129.048 33.4431 128.682 33.4431C128.316 33.4431 128.02 33.55 127.802 33.768C127.584 33.9859 127.46 34.2532 127.432 34.578H129.776H129.772Z" fill="#F8F7F3"/>
<path d="M135.348 37.0788H134.665V33.8507L133.65 35.952H133.136L132.124 33.8507V37.0788H131.479V32.9913H132.309L133.424 35.2776L134.501 32.9913H135.348V37.0788Z" fill="#F8F7F3"/>
<path d="M139.933 35.8118C139.933 36.0091 139.892 36.1901 139.814 36.3504C139.736 36.5108 139.625 36.6424 139.489 36.7411C139.329 36.8645 139.156 36.9508 138.975 37.0002C138.79 37.0495 138.556 37.0783 138.268 37.0783H136.705V32.9908H137.392V34.5822H138.284C138.593 34.5822 138.831 34.5987 139 34.6316C139.168 34.6645 139.337 34.7426 139.505 34.866C139.645 34.9688 139.752 35.1045 139.826 35.2689C139.896 35.4334 139.933 35.6144 139.933 35.8159V35.8118ZM139.222 35.82C139.222 35.6966 139.201 35.5856 139.156 35.491C139.111 35.3964 139.045 35.3224 138.946 35.2607C138.843 35.199 138.728 35.162 138.597 35.1497C138.465 35.1374 138.28 35.1332 138.033 35.1332H137.388V36.5232H138.017C138.259 36.5232 138.449 36.5108 138.584 36.4903C138.72 36.4697 138.835 36.4286 138.934 36.371C139.033 36.3093 139.107 36.2312 139.152 36.1448C139.197 36.0585 139.222 35.9475 139.222 35.8118V35.82ZM140.62 32.9867H141.307V37.0742H140.62V32.9867Z" fill="#F8F7F3"/>
<path fill-rule="evenodd" clip-rule="evenodd" d="M26.4496 30.7663C30.0847 28.2538 32.918 22.324 29.6858 16.4847C27.2309 22.6736 16.897 28.3113 11.0947 28.2826C16.1815 33.982 22.8103 33.283 26.4496 30.7663Z" fill="#F8F7F3"/>
<path fill-rule="evenodd" clip-rule="evenodd" d="M0.292201 18.2898C0.658184 22.694 4.38792 28.1015 11.062 28.2125C6.91691 23.0024 7.18009 11.2292 10.0956 6.21649C2.6238 7.78734 -0.0737821 13.8816 0.292201 18.2898Z" fill="#F8F7F3"/>
<path fill-rule="evenodd" clip-rule="evenodd" d="M24.2082 1.83772C20.2194 -0.07033 13.6687 0.414906 10.2021 6.1226C16.794 5.1768 26.8194 11.3492 29.6774 16.3989C32.0953 9.15327 28.197 3.74576 24.2082 1.83772Z" fill="#F8F7F3"/>
</svg>
