<svg width="25" height="24" viewBox="0 0 25 24" fill="none" xmlns="http://www.w3.org/2000/svg">
<path fill-rule="evenodd" clip-rule="evenodd" d="M4.88867 0C2.67953 0 0.888672 1.79086 0.888672 4V20C0.888672 22.2091 2.67953 24 4.88867 24H20.8887C23.0978 24 24.8887 22.2091 24.8887 20V4C24.8887 1.79086 23.0978 0 20.8887 0H4.88867ZM18.5078 7.87282C18.6094 6.72313 17.3953 7.19657 17.3953 7.19657C16.4964 7.56874 15.5686 7.94696 14.6314 8.32927C11.7362 9.51028 8.74552 10.7302 6.19751 11.9309C4.8147 12.4381 5.62408 12.9453 5.62408 12.9453L7.81658 13.6219C8.82814 13.9263 9.36783 13.5878 9.36783 13.5878L14.0897 10.3753C15.776 9.22563 15.3713 10.1725 14.9666 10.5781L11.4256 13.96C10.8856 14.4334 11.1556 14.8391 11.3919 15.0422C12.0606 15.6321 13.705 16.7114 14.4242 17.1834C14.6118 17.3066 14.7365 17.3884 14.7644 17.4094C14.9331 17.5447 15.8438 18.1531 16.4506 18.0181C17.0578 17.8828 17.1253 17.105 17.1253 17.105L17.9347 11.7956C18.0558 10.8768 18.1946 9.99344 18.3056 9.2869C18.4111 8.61535 18.4915 8.10353 18.5078 7.87282Z" fill="#F8F7F3"/>
</svg>
