<svg width="25" height="24" viewBox="0 0 25 24" fill="none" xmlns="http://www.w3.org/2000/svg">
<path fill-rule="evenodd" clip-rule="evenodd" d="M4.88867 0C2.67953 0 0.888672 1.79086 0.888672 4V20C0.888672 22.2091 2.67953 24 4.88867 24H20.8887C23.0978 24 24.8887 22.2091 24.8887 20V4C24.8887 1.79086 23.0978 0 20.8887 0H4.88867ZM19.7436 7.91625C20.2357 7.91625 20.347 8.1725 20.2357 8.525V8.52375C20.0624 9.33197 18.6214 11.4737 18.1749 12.1373C18.09 12.2635 18.041 12.3363 18.0436 12.3363C17.8689 12.6244 17.8054 12.7525 18.0436 13.0728C18.1298 13.1915 18.3129 13.3726 18.5221 13.5795C18.7365 13.7917 18.9784 14.031 19.1714 14.2578C19.8704 15.0584 20.4107 15.7309 20.5536 16.1953C20.6807 16.6597 20.4582 16.9 19.9817 16.9H18.3454C17.9117 16.9 17.6882 16.6489 17.2118 16.1139C17.0076 15.8845 16.7569 15.6029 16.4232 15.2666C15.4542 14.3216 15.0251 14.1938 14.787 14.1938C14.4532 14.1938 14.3579 14.2737 14.3579 14.7541V16.2434C14.3579 16.6437 14.2311 16.8841 13.1823 16.8841C11.4507 16.8841 9.52856 15.8259 8.17824 13.8572C6.1448 10.9747 5.58887 8.79688 5.58887 8.36438C5.58887 8.12406 5.66824 7.9 6.1448 7.9H7.79699C8.21012 7.9 8.37012 8.07625 8.52762 8.5425C9.33762 10.8966 10.6879 12.9625 11.2439 12.9625C11.452 12.9625 11.5457 12.8659 11.5457 12.3375V9.90187C11.5066 9.21 11.2677 8.9085 11.0905 8.68493C10.9806 8.54628 10.8945 8.4376 10.8945 8.28438C10.8945 8.09219 11.0532 7.9 11.3076 7.9H13.8814C14.2311 7.9 14.3579 8.09219 14.3579 8.50844V11.7919C14.3579 12.1441 14.5011 12.2722 14.6123 12.2722C14.8189 12.2722 14.9936 12.1441 15.3748 11.7597C16.5504 10.4306 17.3923 8.38062 17.3923 8.38062C17.5036 8.14062 17.6942 7.91625 18.107 7.91625H19.7436Z" fill="#F8F7F3"/>
</svg>
