<svg width="25" height="24" viewBox="0 0 25 24" fill="none" xmlns="http://www.w3.org/2000/svg">
<path fill-rule="evenodd" clip-rule="evenodd" d="M9.61367 17.6667C10.672 18.2917 11.8803 18.625 13.1137 18.625C16.897 18.625 19.9803 15.55 19.9637 11.7667C19.967 10.8643 19.7912 9.97021 19.4465 9.13624C19.1018 8.30227 18.5949 7.54502 17.9553 6.90838C16.6637 5.60838 14.9387 4.89172 13.1053 4.89172C9.32201 4.89172 6.23867 7.97505 6.23867 11.7584C6.23962 13.0494 6.60346 14.3142 7.28867 15.4084L7.45534 15.6667L6.76367 18.2L9.36367 17.5167L9.61367 17.6667ZM16.606 13.3584C16.7298 13.4187 16.8293 13.4672 16.8803 13.4917C16.9215 13.5115 16.9595 13.529 16.9943 13.545C17.1355 13.6102 17.2252 13.6515 17.272 13.725C17.3303 13.8167 17.3303 14.225 17.1553 14.7084C16.9887 15.1917 16.1637 15.6334 15.7637 15.6917C15.4053 15.7417 14.9553 15.7667 14.4637 15.6084C14.1637 15.5167 13.7803 15.3917 13.2887 15.175C11.3129 14.3226 9.98446 12.3809 9.78411 12.0881C9.77489 12.0746 9.76807 12.0646 9.76367 12.0584L9.76205 12.0562C9.65593 11.9148 8.92201 10.9364 8.92201 9.92505C8.92201 8.98704 9.376 8.48885 9.59024 8.25375C9.60821 8.23403 9.62449 8.21617 9.63867 8.20005C9.83034 7.99172 10.047 7.94172 10.1887 7.94172H10.5887C10.6031 7.94268 10.6183 7.94286 10.634 7.94305C10.7541 7.9445 10.908 7.94636 11.0553 8.30005C11.222 8.71672 11.6387 9.73338 11.6887 9.83338C11.7387 9.93338 11.772 10.05 11.7053 10.1917C11.6997 10.2031 11.6941 10.2142 11.6888 10.225C11.6311 10.3409 11.5885 10.4267 11.497 10.5334C11.4651 10.5706 11.4315 10.6113 11.3975 10.6523C11.3251 10.7399 11.2511 10.8293 11.1887 10.8917C11.0803 11 10.9803 11.1084 11.097 11.3167C11.222 11.525 11.6303 12.2 12.247 12.75C12.9168 13.3486 13.5013 13.5998 13.7869 13.7226C13.8353 13.7434 13.8751 13.7606 13.9053 13.775C14.1137 13.8834 14.2387 13.8667 14.3553 13.725C14.472 13.5917 14.8637 13.125 15.0053 12.9167C15.147 12.7167 15.2803 12.75 15.472 12.8167C15.6104 12.8733 16.224 13.1723 16.606 13.3584Z" fill="#F8F7F3"/>
<path fill-rule="evenodd" clip-rule="evenodd" d="M4.88867 0C2.67953 0 0.888672 1.79086 0.888672 4V20C0.888672 22.2091 2.67953 24 4.88867 24H20.8887C23.0978 24 24.8887 22.2091 24.8887 20V4C24.8887 1.79086 23.0978 0 20.8887 0H4.88867ZM16.2784 4.12509C17.2813 4.54144 18.1913 5.15332 18.9553 5.92505C20.5137 7.48338 21.372 9.55838 21.372 11.7667C21.372 16.3167 17.6637 20.025 13.1137 20.025C11.7303 20.025 10.372 19.675 9.16367 19.0167L4.78867 20.1667L5.95534 15.8834C5.23867 14.6334 4.85534 13.2167 4.85534 11.7584C4.85534 7.20838 8.56367 3.50005 13.1137 3.50005C14.1996 3.49627 15.2754 3.70875 16.2784 4.12509Z" fill="#F8F7F3"/>
</svg>
