<svg width="64" height="64" viewBox="0 0 64 64" fill="none" xmlns="http://www.w3.org/2000/svg">
<circle cx="32.2175" cy="32.2573" r="30.9593" fill="#D4681A" stroke="#D4681A" stroke-width="0.998688"/>
<path d="M32.7172 7.78906C18.9494 7.78906 7.75 18.9896 7.75 32.7563C7.75 46.5229 18.9494 57.7235 32.7172 57.7235C46.485 57.7235 57.6844 46.5229 57.6844 32.7563C57.6844 18.9896 46.485 7.78906 32.7172 7.78906ZM42.6427 33.631L28.0786 42.9937C27.9079 43.1044 27.7108 43.1593 27.5157 43.1593C27.3451 43.1593 27.1723 43.1166 27.0179 43.0323C26.6826 42.8494 26.4754 42.4999 26.4754 42.119V23.3936C26.4754 23.0126 26.6826 22.6631 27.0179 22.4802C27.3471 22.2994 27.7596 22.3105 28.0786 22.5188L42.6427 31.8815C42.9394 32.0725 43.1202 32.4027 43.1202 32.7563C43.1202 33.1098 42.9394 33.4399 42.6427 33.631Z" fill="#F8F7F3"/>
</svg>
