<svg width="255" height="53" viewBox="0 0 255 53" fill="none" xmlns="http://www.w3.org/2000/svg">
<path d="M81.7119 30.9322H81.677C82.5007 29.811 83.1275 28.5193 83.5471 27.0718C84.0273 25.415 84.2707 23.4681 84.2707 21.247C84.2707 18.8668 83.9979 16.8271 83.4379 15.1352C82.882 13.4554 82.1537 12.0832 81.2462 11.0233C80.3195 9.93923 79.2524 9.13783 78.0321 8.64715C76.8257 8.15618 75.5702 7.91371 74.2678 7.91371C72.9671 7.91371 71.6997 8.14967 70.527 8.62358C69.3441 9.10166 68.2669 9.88347 67.2883 10.9708L67.2875 10.9717C66.3689 12.0005 65.6402 13.4006 65.0734 15.1548L65.0731 15.156C64.5088 16.9269 64.2295 18.9705 64.2295 21.2765C64.2295 23.5799 64.5023 25.6661 65.05 27.3456C65.5944 29.0206 66.3226 30.3984 67.2295 31.4695L67.2295 31.4696C68.14 32.544 69.207 33.3381 70.4298 33.8457C71.6434 34.3553 72.9235 34.6098 74.2678 34.6098C75.6134 34.6098 76.8881 34.3489 78.107 33.8334L78.1075 33.8332C79.3308 33.3133 80.3974 32.501 81.307 31.4154L81.7119 30.9322ZM94.2207 21.2794C94.2201 27.4856 92.4442 32.3828 88.9201 36.0051C85.3986 39.6248 80.5158 41.4471 74.2383 41.4471C67.9613 41.4471 63.1078 39.625 59.586 36.0051C56.0613 32.3822 54.2854 27.4841 54.2854 21.2765C54.2854 15.0676 56.062 10.0997 59.5855 6.49536C63.1071 2.89302 67.9783 1.08229 74.2383 1.08229C80.4977 1.08229 85.3519 2.89851 88.8917 6.50176C92.4323 10.1059 94.2201 15.0199 94.2207 21.2794Z" fill="#575756" stroke="#575756" stroke-width="0.588408"/>
<path d="M103.682 1.89235H133.938V40.6214H124.382V9.20626V8.91206H124.088H112.838H112.558L112.544 9.19122C112.456 10.9152 112.385 12.2741 112.332 13.2563L112.332 13.2564C112.279 14.2437 112.203 15.5429 112.097 17.16L112.097 17.1602C111.868 20.7069 111.522 23.6829 111.06 26.0851C110.597 28.4939 110.077 30.4711 109.503 32.0154C108.907 33.5855 108.287 34.8578 107.633 35.8392C106.97 36.8329 106.319 37.6318 105.67 38.2415L105.667 38.2437C104.835 39.0426 103.798 39.6821 102.547 40.1644C101.299 40.645 99.9704 40.8862 98.5571 40.8862C97.6824 40.8862 96.7836 40.8512 95.8489 40.7811C95.1429 40.7281 94.6316 40.6855 94.3147 40.6532V32.419H94.375C94.5329 32.4363 94.712 32.4536 94.9067 32.4708C95.1196 32.4896 95.365 32.4955 95.6327 32.4955C96.6186 32.4955 97.3859 32.4372 97.8955 32.3036C98.4137 32.1693 98.8789 31.931 99.2799 31.5817L99.2812 31.5806C100.683 30.3452 101.628 28.4038 102.135 25.8027C102.639 23.2177 103.017 19.6188 103.264 15.0007C103.37 13.1676 103.453 11.1703 103.517 9.01504L103.517 9.01424C103.574 6.93461 103.631 4.55888 103.682 1.89235Z" fill="#575756" stroke="#575756" stroke-width="0.588408"/>
<path d="M171.421 14.4753L164.212 31.378H157.605L150.391 14.4752L149.826 14.5907V40.6219H140.859V1.8987H152.148L160.914 21.4483L161.183 22.0478L161.451 21.448L170.193 1.8987H181.482V40.6219H171.985V14.5907L171.421 14.4753Z" fill="#575756" stroke="#575756" stroke-width="0.588408"/>
<path d="M209.721 1.8987L224.024 40.6219H214.19L211.523 32.8709L211.454 32.6725H211.244H196.693H196.483L196.415 32.8709L193.747 40.6219H184.164L198.463 1.8987H209.721ZM208.802 26.0587H209.215L209.081 25.669L204.244 11.5825L203.966 10.7721L203.688 11.5825L198.851 25.669L198.717 26.0587H199.129H208.802Z" fill="#575756" stroke="#575756" stroke-width="0.588408"/>
<mask id="path-5-inside-1_2001_3001" fill="white">
<path d="M254.757 9.20673H236.54V40.9161H226.401V1.60449H254.757"/>
</mask>
<path d="M254.757 9.20673H236.54V40.9161H226.401V1.60449H254.757" fill="#575756"/>
<path d="M236.54 9.20673V8.61832H235.951V9.20673H236.54ZM236.54 40.9161V41.5045H237.128V40.9161H236.54ZM226.401 40.9161H225.813V41.5045H226.401V40.9161ZM226.401 1.60449V1.01608H225.813V1.60449H226.401ZM254.757 8.61832H236.54V9.79514H254.757V8.61832ZM235.951 9.20673V40.9161H237.128V9.20673H235.951ZM236.54 40.3277H226.401V41.5045H236.54V40.3277ZM226.99 40.9161V1.60449H225.813V40.9161H226.99ZM226.401 2.1929H254.757V1.01608H226.401V2.1929Z" fill="#575756" mask="url(#path-5-inside-1_2001_3001)"/>
<path d="M98.7142 46.8084H99.4454V52.0682H99.0571V47.7438L98.498 47.6158L97.1251 50.4561H96.9952L97.2522 49.9108L98.7142 46.8084ZM96.9857 50.4561H96.7591L95.3919 47.6162L94.8326 47.7438V52.0682H94.4973V46.8084H95.2077L96.7216 49.9143L96.9857 50.4561Z" fill="#575756" stroke="#575756" stroke-width="0.588408"/>
<path d="M105.936 52.0688H105.536V51.7394V51.1897L105.079 51.4946C104.986 51.5563 104.865 51.641 104.717 51.7477C104.581 51.8457 104.452 51.9217 104.342 51.9697L104.335 51.9728L104.328 51.9763C104.188 52.0465 104.021 52.1047 103.823 52.1541C103.639 52.2002 103.41 52.2277 103.147 52.2277C102.69 52.2277 102.317 52.0781 102.009 51.7851C101.707 51.4983 101.553 51.1307 101.553 50.6627C101.553 50.2618 101.639 49.9678 101.788 49.7551C101.947 49.5291 102.172 49.3482 102.48 49.2071C102.804 49.0637 103.196 48.9641 103.673 48.9137C104.169 48.8611 104.698 48.8147 105.26 48.7915L105.542 48.7799V48.4975V48.3446C105.542 48.0852 105.494 47.8539 105.391 47.6558C105.287 47.4553 105.128 47.2982 104.943 47.1902C104.762 47.0846 104.56 47.0221 104.332 46.9887C104.12 46.9565 103.899 46.9442 103.677 46.9442C103.392 46.9442 103.084 46.9829 102.753 47.0502L102.753 47.0501L102.748 47.0513C102.528 47.1002 102.302 47.1602 102.071 47.2351V46.863C102.228 46.8278 102.424 46.7902 102.659 46.7523L102.659 46.7523L102.663 46.7515C103.01 46.6899 103.352 46.6619 103.689 46.6619C104.083 46.6619 104.42 46.6956 104.702 46.755C104.977 46.8186 105.201 46.9162 105.385 47.0517L105.386 47.0525C105.562 47.1804 105.7 47.351 105.791 47.5574L105.791 47.5574L105.793 47.5626C105.886 47.7626 105.936 48.0332 105.936 48.3857V52.0688ZM101.982 50.598C101.982 50.9936 102.103 51.3407 102.393 51.5822C102.671 51.8184 103.067 51.9042 103.512 51.9042C103.898 51.9042 104.253 51.8319 104.584 51.6762C104.89 51.5327 105.174 51.3627 105.435 51.1594L105.697 50.9545L105.542 50.7996V49.2918V48.9798L105.231 48.9981C104.929 49.0159 104.573 49.0396 104.163 49.0752C103.748 49.1113 103.405 49.1664 103.146 49.2376L103.146 49.2376L103.142 49.2388C102.824 49.3313 102.549 49.4753 102.331 49.6863C102.083 49.9261 101.982 50.2404 101.982 50.598Z" fill="#575756" stroke="#575756" stroke-width="0.588408"/>
<path d="M111.867 47.079H109.108H108.813V47.3732V52.0682H108.419V46.8084H111.867V47.079Z" fill="#575756" stroke="#575756" stroke-width="0.588408"/>
<path d="M117.386 48.8794V46.8084H117.781V52.0682H117.386V49.7266V49.4324H117.092H114.162H113.868V49.7266V52.0682H113.474V46.8084H113.868V48.8794V49.1736H114.162H117.092H117.386V48.8794Z" fill="#575756" stroke="#575756" stroke-width="0.588408"/>
<path d="M124.171 46.8084H124.647V52.0682H124.259V47.9674V47.0313L123.723 47.7991L120.746 52.0682H120.305V46.8084H120.693V50.8445V51.7781L121.228 51.0132L124.171 46.8084Z" fill="#575756" stroke="#575756" stroke-width="0.588408"/>
<path d="M128.078 47.0797H126.254V46.8032H130.884V47.0797H129.061H128.766V47.3739V52.069H128.372V47.3739V47.0797H128.078Z" fill="#575756" stroke="#575756" stroke-width="0.588408"/>
<path d="M136.41 48.8794V46.8084H136.804V52.0682H136.41V49.7266V49.4324H136.116H133.186H132.891V49.7266V52.0682H132.497V46.8084H132.891V48.8794V49.1736H133.186H136.116H136.41V48.8794Z" fill="#575756" stroke="#575756" stroke-width="0.588408"/>
<path d="M143.36 50.5569V50.6919C143.344 50.8762 143.297 51.0435 143.225 51.193C143.133 51.3799 143.006 51.5304 142.851 51.6428L142.851 51.6427L142.845 51.6476C142.644 51.8018 142.432 51.9073 142.212 51.9674C141.978 52.0296 141.67 52.069 141.277 52.069H139.335V46.8091H139.729V48.7919V49.0861H140.024H141.3C141.735 49.0861 142.054 49.1096 142.268 49.1512C142.458 49.1884 142.66 49.2788 142.874 49.435C143.03 49.5501 143.15 49.7017 143.23 49.8895C143.314 50.0864 143.36 50.3059 143.36 50.5569ZM142.403 49.5132L142.404 49.5131L142.399 49.5104C142.211 49.3977 142.004 49.3323 141.775 49.3109C141.572 49.2918 141.294 49.2861 140.941 49.2861H140.018H139.723V49.5803V51.5689V51.8631H140.018H140.918C141.273 51.8631 141.56 51.8452 141.774 51.8127C142.002 51.7782 142.203 51.7078 142.378 51.6053L142.378 51.6055L142.386 51.6007C142.565 51.4886 142.71 51.34 142.802 51.1641C142.893 50.991 142.935 50.7864 142.936 50.5628H142.936V50.5511H142.936C142.935 50.3472 142.9 50.1466 142.813 49.9652C142.723 49.777 142.59 49.6296 142.403 49.5132ZM144.936 46.8032H145.331V52.0631H144.936V46.8032Z" fill="#575756" stroke="#575756" stroke-width="0.588408"/>
<path d="M152.161 49.2443H148.149H147.854V49.5385C147.854 49.9252 147.911 50.2765 148.041 50.5907C148.162 50.8924 148.339 51.1538 148.563 51.3568L148.563 51.3572C148.776 51.5488 149.029 51.6991 149.315 51.7945C149.596 51.8884 149.905 51.9332 150.231 51.9332C150.669 51.9332 151.107 51.8493 151.541 51.6708C151.731 51.5963 151.901 51.5197 152.049 51.4406V51.8069C151.789 51.9104 151.521 51.999 151.249 52.0728C150.928 52.1598 150.589 52.2038 150.237 52.2038C149.32 52.2038 148.643 51.9549 148.171 51.4981C147.701 51.0438 147.443 50.3815 147.443 49.4679C147.443 48.5519 147.685 47.8835 148.146 47.3921L148.146 47.3921L148.147 47.391C148.608 46.8937 149.208 46.6438 149.99 46.6438C150.72 46.6438 151.243 46.8543 151.597 47.242L151.597 47.2421L151.599 47.2449C151.961 47.6318 152.161 48.2083 152.161 49.009V49.2443ZM151.508 49.0796V48.7854H151.796C151.796 48.2171 151.647 47.7396 151.333 47.3889L151.333 47.3888L151.331 47.3864C150.998 47.0237 150.518 46.8673 149.943 46.8673C149.36 46.8673 148.855 47.0397 148.476 47.4183C148.113 47.7811 147.908 48.229 147.861 48.7594L147.833 49.0796H148.155H151.208H151.502H151.508Z" fill="#575756" stroke="#575756" stroke-width="0.588408"/>
<path d="M161.835 51.4222V51.7925C161.509 51.9388 161.23 52.0383 161 52.0945L161.07 52.3802L161 52.0945C160.734 52.1597 160.469 52.1919 160.211 52.1919C159.817 52.1919 159.456 52.1318 159.138 52.0202L159.136 52.0197C158.819 51.9106 158.557 51.7461 158.329 51.5238C158.11 51.3041 157.932 51.0242 157.804 50.678L157.528 50.7799L157.804 50.678C157.678 50.3357 157.611 49.9186 157.611 49.4326C157.611 48.5596 157.852 47.8897 158.309 47.3967C158.761 46.9091 159.382 46.6555 160.217 46.6555C160.53 46.6555 160.833 46.6986 161.136 46.7854C161.383 46.856 161.609 46.9405 161.823 47.0365V47.4268C161.616 47.3011 161.409 47.199 161.203 47.1216L161.203 47.1216L161.202 47.1209C160.856 46.993 160.516 46.9261 160.182 46.9261C159.527 46.9261 158.983 47.1484 158.599 47.6241C158.226 48.0868 158.058 48.7014 158.058 49.4384C158.058 50.1741 158.226 50.7914 158.602 51.2444C158.986 51.7059 159.528 51.9272 160.188 51.9272C160.416 51.9272 160.647 51.9011 160.879 51.8415C161.106 51.7831 161.306 51.7054 161.492 51.6158C161.609 51.5599 161.722 51.4938 161.835 51.4222Z" fill="#575756" stroke="#575756" stroke-width="0.588408"/>
<path d="M164.188 52.0682H163.747V46.8084H164.136V50.8445V51.7766L164.671 51.0134L167.619 46.8084H168.095V52.0682H167.701V47.9674V47.0313L167.166 47.7991L164.188 52.0682Z" fill="#575756" stroke="#575756" stroke-width="0.588408"/>
<path d="M174.433 51.4218V51.7925C174.106 51.9388 173.827 52.0383 173.598 52.0945L173.668 52.3802L173.598 52.0945C173.331 52.1597 173.067 52.1919 172.809 52.1919C172.415 52.1919 172.054 52.1318 171.735 52.0202L171.734 52.0197C171.417 51.9106 171.155 51.7461 170.927 51.5238C170.708 51.3041 170.53 51.0242 170.402 50.678L170.126 50.7799L170.402 50.678C170.275 50.3357 170.208 49.9186 170.208 49.4326C170.208 48.5596 170.45 47.8897 170.907 47.3967C171.358 46.9091 171.98 46.6555 172.815 46.6555C173.128 46.6555 173.43 46.6986 173.734 46.7854C173.981 46.856 174.207 46.9405 174.421 47.0365V47.4268C174.214 47.3011 174.006 47.199 173.801 47.1216L173.801 47.1216L173.799 47.1209C173.454 46.993 173.113 46.9261 172.779 46.9261C172.125 46.9261 171.58 47.1484 171.197 47.6241C170.824 48.0868 170.655 48.7014 170.655 49.4384C170.655 50.1741 170.824 50.7914 171.2 51.2444C171.583 51.7059 172.126 51.9272 172.785 51.9272C173.014 51.9272 173.245 51.9011 173.476 51.8415C173.703 51.7831 173.904 51.7053 174.09 51.6156L174.09 51.6156L174.094 51.6137C174.202 51.5594 174.317 51.4944 174.433 51.4218Z" fill="#575756" stroke="#575756" stroke-width="0.588408"/>
<path d="M177.251 47.0797H175.427V46.8032H180.057V47.0797H178.233H177.939V47.3739V52.069H177.545V47.3739V47.0797H177.251Z" fill="#575756" stroke="#575756" stroke-width="0.588408"/>
<path d="M185.977 49.2443H181.964H181.67V49.5385C181.67 49.9252 181.727 50.2765 181.856 50.5907C181.977 50.8924 182.154 51.1538 182.378 51.3568L182.379 51.3572C182.589 51.5473 182.836 51.6987 183.131 51.7948C183.412 51.8885 183.721 51.9332 184.047 51.9332C184.485 51.9332 184.922 51.8493 185.357 51.6708C185.547 51.5963 185.717 51.5197 185.865 51.4406V51.8069C185.604 51.9104 185.336 51.999 185.064 52.0728C184.744 52.1598 184.405 52.2038 184.053 52.2038C183.136 52.2038 182.458 51.9549 181.986 51.4981C181.517 51.0438 181.258 50.3815 181.258 49.4679C181.258 48.5519 181.501 47.8835 181.961 47.3921L181.961 47.3921L181.962 47.391C182.423 46.8937 183.024 46.6438 183.806 46.6438C184.536 46.6438 185.059 46.8543 185.412 47.242L185.412 47.2421L185.415 47.2449C185.777 47.6318 185.977 48.2083 185.977 49.009V49.2443ZM185.324 49.0796V48.7854H185.612C185.612 48.2171 185.463 47.7396 185.149 47.3889L185.149 47.3888L185.146 47.3864C184.814 47.0237 184.334 46.8673 183.759 46.8673C183.175 46.8673 182.67 47.0397 182.291 47.4183C181.929 47.7811 181.724 48.229 181.677 48.7594L181.649 49.0796H181.97H185.024H185.318H185.324Z" fill="#575756" stroke="#575756" stroke-width="0.588408"/>
<path d="M192.272 46.8084H193.003V52.0682H192.615V47.7438L192.056 47.6158L190.683 50.4561H190.553L190.81 49.9108L192.272 46.8084ZM190.543 50.4561H190.317L188.95 47.6162L188.39 47.7438V52.0682H188.055V46.8084H188.765L190.279 49.9143L190.543 50.4561Z" fill="#575756" stroke="#575756" stroke-width="0.588408"/>
<path d="M199.048 51.6428L199.048 51.6427L199.042 51.6476C198.842 51.8018 198.629 51.9073 198.409 51.9674C198.176 52.0296 197.867 52.069 197.474 52.069H195.532V46.8091H195.927V48.7919V49.0861H196.221H197.498C197.932 49.0861 198.251 49.1096 198.465 49.1512C198.656 49.1884 198.857 49.2788 199.071 49.435C199.226 49.5495 199.348 49.7013 199.434 49.8923C199.517 50.0877 199.562 50.3053 199.563 50.5539C199.562 50.7935 199.512 51.007 199.422 51.193C199.331 51.3799 199.203 51.5304 199.048 51.6428ZM198.601 49.5132L198.601 49.5131L198.596 49.5104C198.408 49.3977 198.201 49.3323 197.972 49.3109C197.769 49.2918 197.492 49.2861 197.139 49.2861H196.215H195.921V49.5803V51.5689V51.8631H196.215H197.115C197.47 51.8631 197.757 51.8452 197.971 51.8127C198.199 51.7782 198.4 51.7078 198.575 51.6053L198.576 51.6055L198.583 51.6007C198.762 51.4886 198.908 51.34 199 51.1641C199.09 50.991 199.132 50.7864 199.133 50.5628H199.133V50.5511H199.133C199.132 50.3472 199.097 50.1466 199.01 49.9652C198.92 49.777 198.787 49.6296 198.601 49.5132ZM201.134 46.8032H201.528V52.0631H201.134V46.8032Z" fill="#575756" stroke="#575756" stroke-width="0.588408"/>
<path d="M37.3078 43.087L37.3077 43.087C32.3094 46.5435 23.2664 47.568 16.1619 40.0565C20.3226 39.8795 25.8213 37.8952 30.7529 34.9225C35.7269 31.9242 40.1922 27.8795 42.1355 23.5769C46.2096 31.5956 42.3003 39.6362 37.3078 43.087Z" fill="#D4681A" stroke="#D4681A" stroke-width="0.588408"/>
<path d="M14.849 39.358C5.86568 38.8897 0.842216 31.4988 0.339605 25.4505C-0.163053 19.396 3.45559 11.0473 13.5019 8.62967C11.5826 12.3231 10.5628 18.0793 10.6827 23.8364C10.8036 29.6431 12.0855 35.5305 14.849 39.358Z" fill="#D4681A" stroke="#D4681A" stroke-width="0.588408"/>
<path d="M14.8063 7.70146C19.7474 0.179829 28.6635 -0.419535 34.1418 2.201C39.6201 4.82154 44.9996 12.1632 42.0119 22.0602C39.7911 18.5372 35.3376 14.7493 30.3079 11.9449C25.235 9.11641 19.5065 7.24949 14.8063 7.70146Z" fill="#575756" stroke="#575756" stroke-width="0.588408"/>
</svg>
