<svg width="303" height="317" viewBox="0 0 303 317" fill="none" xmlns="http://www.w3.org/2000/svg">
<g opacity="0.2">
<path fill-rule="evenodd" clip-rule="evenodd" d="M-20.9374 292.226L52.9147 231.825C55.1578 229.983 75.8107 212.587 77.8425 211.773C76.972 209.77 65.812 205.84 63.8052 205.065C57.6277 202.641 -38.4715 163.164 -40.3945 162.946L-20.9344 292.246L-20.9374 292.226Z" fill="#F8F7F3"/>
<path fill-rule="evenodd" clip-rule="evenodd" d="M301.036 435.221C289.355 430.801 266.46 421.015 263.64 419.834L204.855 395.878C201.907 394.656 192.076 390.241 189.69 390.052C189.92 388.066 192.707 386.467 195.078 384.525L238.354 349.05C242.569 345.591 246.357 342.541 250.592 339.079C254.88 335.568 258.664 332.214 263.096 328.844L281.718 313.623" fill="#F8F7F3"/>
<path fill-rule="evenodd" clip-rule="evenodd" d="M282.007 301.222L232.916 342.348C224.692 349.155 192.838 375.716 183.38 382.688L163.92 253.388C175.014 257.287 201.939 268.6 215.163 274.089C217.914 275.22 220.154 276.326 222.742 277.318L282.027 301.219" fill="#F8F7F3"/>
<path fill-rule="evenodd" clip-rule="evenodd" d="M170.739 385.118L82.38 349.13C79.6943 348.031 54.8359 337.484 52.6545 337.304C52.8969 335.134 62.4058 328.093 64.0955 326.762C69.2859 322.627 149.508 256.613 151.282 255.838L170.742 385.138L170.739 385.118Z" fill="#F8F7F3"/>
<path fill-rule="evenodd" clip-rule="evenodd" d="M150.875 133.366C148.367 133.175 140.538 129.638 138.089 128.624L100.49 113.369C101.219 112 103.881 109.973 105.376 108.833C107.454 107.24 108.701 106.077 110.583 104.534L131.568 87.4535C133.664 85.7154 140.6 79.4075 142.68 78.9115L150.878 133.386L150.875 133.366Z" fill="#F8F7F3"/>
<path fill-rule="evenodd" clip-rule="evenodd" d="M141.331 252.114C140.33 254.236 133.638 259.064 131.308 261L99.2168 287.068L90.9434 232.097C94.1067 232.454 138.348 251.872 141.328 252.094" fill="#F8F7F3"/>
<path fill-rule="evenodd" clip-rule="evenodd" d="M39.8446 -22.8817C24.6737 -10.9241 -8.65462 16.9159 -14.443 21.669C-17.0645 23.8317 -20.6363 27.3773 -23.5892 28.5534" fill="#F8F7F3"/>
<path fill-rule="evenodd" clip-rule="evenodd" d="M-23.5902 28.5538L50.3707 59.7575C51.4541 60.2041 58.9418 63.3656 59.0839 63.3645C62.2323 63.6223 60.6907 61.2122 59.3847 52.6694L48.3535 -20.6257" fill="#F8F7F3"/>
<path fill-rule="evenodd" clip-rule="evenodd" d="M-5.24498 150.44L68.6116 181.761C71.7535 183.057 76.2108 185.394 79.379 185.648L66.3545 98.5688C65.7894 95.2191 66.2956 94.1267 64.1999 94.3811L25.8439 125.681C22.8608 128.142 -2.36559 149.316 -5.24199 150.46" fill="#F8F7F3"/>
<path fill-rule="evenodd" clip-rule="evenodd" d="M-21.7422 145.079C-18.3869 143.741 -15.6763 140.955 -12.9475 138.695C-9.85714 136.136 -7.41643 134.122 -4.23568 131.489L39.1548 96.0987C41.7763 93.936 45.368 90.3874 48.301 89.2143C47.0286 86.2962 42.7946 85.3075 38.7154 83.7265L-35.4883 53.8804L-21.7621 145.082L-21.7422 145.079Z" fill="#F8F7F3"/>
</g>
</svg>
