<svg width="197" height="311" viewBox="0 0 197 311" fill="none" xmlns="http://www.w3.org/2000/svg">
<g opacity="0.2">
<path fill-rule="evenodd" clip-rule="evenodd" d="M93.0126 156.989L147.641 111.283C149.3 109.89 164.577 96.7258 166.08 96.11C165.436 94.5943 157.181 91.6205 155.697 91.034C151.127 89.1999 80.0426 59.3276 78.6201 59.1621L93.0148 157.004L93.0126 156.989Z" fill="#F8F7F3"/>
<path fill-rule="evenodd" clip-rule="evenodd" d="M155.093 295.487L140.698 197.646C147.269 200.817 165.17 207.842 173.347 211.305L217.343 229.645C219.22 230.448 227.279 233.621 228.16 234.608" fill="#F8F7F3"/>
<path fill-rule="evenodd" clip-rule="evenodd" d="M228.159 234.594C226.96 235.132 220.769 240.669 218.987 242.05C211.996 247.463 198.41 259.244 191.667 264.912C183.735 271.593 162.94 289.558 155.079 295.49" fill="#F8F7F3"/>
<path fill-rule="evenodd" clip-rule="evenodd" d="M234.795 227.281L169.436 200.049C167.449 199.217 149.062 191.236 147.448 191.1C147.627 189.458 154.661 184.13 155.911 183.122C159.75 179.994 219.091 130.041 220.403 129.454L234.797 227.296L234.795 227.281Z" fill="#F8F7F3"/>
<path fill-rule="evenodd" clip-rule="evenodd" d="M220.102 36.7787C218.247 36.6338 212.456 33.9574 210.644 33.1905L182.832 21.6472C183.371 20.6107 185.341 19.0771 186.447 18.2148C187.983 17.0093 188.906 16.129 190.298 14.9612L205.82 2.03643C207.371 0.721165 212.502 -4.05206 214.04 -4.42733L220.104 36.7938L220.102 36.7787Z" fill="#F8F7F3"/>
<path fill-rule="evenodd" clip-rule="evenodd" d="M213.042 126.636C212.301 128.242 207.351 131.895 205.627 133.36L181.889 153.086L175.77 111.489C178.109 111.76 210.835 126.453 213.039 126.621" fill="#F8F7F3"/>
<path fill-rule="evenodd" clip-rule="evenodd" d="M13.3199 20.8782L44.4918 33.5959C49.7833 35.8417 55.0806 37.7175 59.9965 40.0673L75.7386 46.2098L65.4924 -23.4344C55.7111 -16.0382 30.6092 5.45137 19.6351 14.7538" fill="#F8F7F3"/>
<path fill-rule="evenodd" clip-rule="evenodd" d="M104.62 49.699L159.252 73.3998C161.576 74.38 164.873 76.1485 167.217 76.3413L157.582 10.4477C157.164 7.91293 157.539 7.08631 155.989 7.27885L127.617 30.9636C125.41 32.8259 106.75 48.8482 104.622 49.7141" fill="#F8F7F3"/>
<path fill-rule="evenodd" clip-rule="evenodd" d="M92.417 45.6422C94.8989 44.6295 96.904 42.5214 98.9225 40.8111C101.208 38.8751 103.014 37.3514 105.367 35.359L137.463 8.57867C139.402 6.94211 142.058 4.25691 144.228 3.36921C143.287 1.16109 140.155 0.412932 137.138 -0.783467L82.249 -23.3682L92.4023 45.6445L92.417 45.6422Z" fill="#F8F7F3"/>
</g>
</svg>
