<svg width="28" height="28" viewBox="0 0 28 28" fill="none" xmlns="http://www.w3.org/2000/svg">
<path d="M19.2815 17.7324L18.8972 18.1939L19.3218 18.6185L26.8076 26.1043L26.8162 26.1129L26.8252 26.1212C26.8683 26.1613 26.8999 26.2123 26.9165 26.2688C26.9332 26.3254 26.9342 26.3853 26.9196 26.4424C26.905 26.4995 26.8753 26.5516 26.8336 26.5932C26.7919 26.6348 26.7397 26.6644 26.6826 26.6789L26.6806 26.6794C26.6235 26.694 26.5636 26.693 26.5071 26.6764C26.4506 26.6599 26.3997 26.6284 26.3595 26.5853L26.3516 26.5768L26.3434 26.5686L18.8576 19.0828L18.433 18.6582L17.9715 19.0424C16.7132 20.0901 15.2211 20.8194 13.6213 21.1685C12.0215 21.5176 10.3612 21.4763 8.78081 21.048C7.2004 20.6198 5.74637 19.8172 4.54173 18.7082C3.33708 17.5991 2.41726 16.2163 1.86006 14.6766C1.30286 13.1369 1.12467 11.4857 1.34058 9.86258C1.55649 8.23947 2.16013 6.69223 3.10046 5.35174C4.04078 4.01126 5.29011 2.91696 6.74279 2.16141C8.19546 1.40586 9.80873 1.01129 11.4461 1.01107C13.3839 1.01086 15.2816 1.56286 16.917 2.60242C18.5523 3.64197 19.8576 5.12603 20.6798 6.88073C21.502 8.63543 21.8072 10.5881 21.5596 12.51C21.3119 14.4319 20.5217 16.2434 19.2815 17.7324ZM1.90792 11.207C1.90792 12.4596 2.15463 13.6999 2.63397 14.8571C3.11331 16.0143 3.81588 17.0658 4.70158 17.9515C5.58727 18.8372 6.63875 19.5398 7.79597 20.0191C8.95319 20.4984 10.1935 20.7451 11.4461 20.7451C12.6986 20.7451 13.9389 20.4984 15.0961 20.0191C16.2534 19.5398 17.3048 18.8372 18.1905 17.9515C19.0762 17.0658 19.7788 16.0143 20.2581 14.8571C20.7375 13.6999 20.9842 12.4596 20.9842 11.207C20.9842 8.67733 19.9793 6.25128 18.1905 4.46253C16.4018 2.67378 13.9757 1.66888 11.4461 1.66888C8.91638 1.66888 6.49032 2.67378 4.70158 4.46253C2.91283 6.25128 1.90792 8.67733 1.90792 11.207Z" fill="#575756" stroke="#575756" stroke-width="1.3156"/>
</svg>
