<svg width="13" height="13" viewBox="0 0 13 13" fill="none" xmlns="http://www.w3.org/2000/svg">
<path d="M11.9167 3.52075H8.66675" stroke="white" stroke-width="0.8125" stroke-miterlimit="10" stroke-linecap="round" stroke-linejoin="round"/>
<path d="M3.24992 3.52075H1.08325" stroke="white" stroke-width="0.8125" stroke-miterlimit="10" stroke-linecap="round" stroke-linejoin="round"/>
<path d="M5.41659 5.41667C6.46363 5.41667 7.31242 4.56787 7.31242 3.52083C7.31242 2.47379 6.46363 1.625 5.41659 1.625C4.36955 1.625 3.52075 2.47379 3.52075 3.52083C3.52075 4.56787 4.36955 5.41667 5.41659 5.41667Z" stroke="white" stroke-width="0.8125" stroke-miterlimit="10" stroke-linecap="round" stroke-linejoin="round"/>
<path d="M11.9167 9.47925H9.75" stroke="white" stroke-width="0.8125" stroke-miterlimit="10" stroke-linecap="round" stroke-linejoin="round"/>
<path d="M4.33325 9.47925H1.08325" stroke="white" stroke-width="0.8125" stroke-miterlimit="10" stroke-linecap="round" stroke-linejoin="round"/>
<path d="M7.58333 11.3749C8.63037 11.3749 9.47917 10.5261 9.47917 9.47909C9.47917 8.43205 8.63037 7.58325 7.58333 7.58325C6.53629 7.58325 5.6875 8.43205 5.6875 9.47909C5.6875 10.5261 6.53629 11.3749 7.58333 11.3749Z" stroke="white" stroke-width="0.8125" stroke-miterlimit="10" stroke-linecap="round" stroke-linejoin="round"/>
</svg>
