<svg width="18" height="15" viewBox="0 0 18 15" fill="none" xmlns="http://www.w3.org/2000/svg">
<path d="M1.34061 6.79692L1.34068 6.79708L1.35075 6.79269C6.0967 4.72496 9.25851 3.36306 10.8388 2.70578C13.1004 1.76511 14.4582 1.21644 15.326 0.901505C16.1998 0.584454 16.5416 0.518321 16.7868 0.514001C16.8274 0.513286 16.9078 0.518375 16.9948 0.539165C17.084 0.560468 17.1543 0.592118 17.198 0.627523C17.2636 0.680814 17.291 0.756683 17.309 0.862226C17.3274 0.969588 17.3507 1.22676 17.3329 1.41371C17.0896 3.97045 16.0324 10.2027 15.4929 13.0869C15.2708 14.2744 14.8746 14.4628 14.6827 14.4804C14.3101 14.5147 13.9675 14.3956 13.585 14.171C13.3929 14.058 13.1982 13.9231 12.9877 13.7736C12.9533 13.7491 12.9185 13.7243 12.8832 13.6992C12.7059 13.5727 12.5176 13.4385 12.321 13.3096C11.6072 12.8417 11.0488 12.4622 10.4938 12.0843L10.4201 12.0341C9.88958 11.6728 9.35578 11.3093 8.68885 10.8698C8.30475 10.6167 8.12527 10.4205 8.05081 10.2779C7.98915 10.1598 7.99191 10.0666 8.04195 9.95251C8.10216 9.81523 8.2289 9.65774 8.42753 9.45562C8.51324 9.36841 8.60583 9.27915 8.70562 9.18294C8.71842 9.17061 8.73133 9.15816 8.74437 9.14558C8.85754 9.03639 8.97795 8.91946 9.09716 8.79564C9.14952 8.74127 9.41097 8.49827 9.78559 8.15009C10.2181 7.74811 10.8015 7.20593 11.3881 6.65194C11.9293 6.1408 12.4681 5.62433 12.8775 5.2131C13.0817 5.00795 13.2571 4.82562 13.3854 4.68166C13.4492 4.61013 13.5053 4.54358 13.5486 4.48581C13.5702 4.45706 13.5919 4.42606 13.6106 4.39464C13.6259 4.36887 13.6539 4.31892 13.6685 4.25676C13.6838 4.19113 13.6895 4.09707 13.6754 4.00131C13.6612 3.90575 13.619 3.75463 13.4878 3.63803C13.3579 3.52257 13.2077 3.49655 13.099 3.4957C12.9967 3.4949 12.9021 3.51639 12.8528 3.52759L12.8504 3.52812C12.7926 3.54125 12.7375 3.57052 12.7176 3.58109L12.715 3.58247C12.6822 3.59978 12.6427 3.62232 12.5983 3.64865C12.5087 3.70169 12.3867 3.77737 12.2337 3.87459C11.927 4.06944 11.4868 4.35647 10.9141 4.73499C9.76834 5.49232 8.08657 6.61951 5.86941 8.11615L5.8694 8.11614L5.86718 8.11767C5.24865 8.5424 4.73008 8.71953 4.30114 8.71026C4.0517 8.70487 3.65888 8.63143 3.20482 8.51757C2.75863 8.40568 2.27917 8.26156 1.86824 8.12799C1.734 8.08435 1.60729 8.04448 1.48816 8.00699C1.13156 7.89476 0.842812 7.8039 0.622936 7.69739C0.480427 7.62836 0.405366 7.56962 0.369086 7.52503C0.343605 7.49371 0.335035 7.46918 0.340783 7.42333C0.341777 7.4154 0.360064 7.33997 0.536795 7.20872C0.704675 7.08404 0.967447 6.94531 1.34061 6.79692Z" fill="#D4681A" stroke="#D4681A" stroke-width="0.678269"/>
</svg>
