<svg width="28" height="28" viewBox="0 0 28 28" fill="none" xmlns="http://www.w3.org/2000/svg">
<path d="M19.3831 8.35574L19.1789 7.83206L19.1682 7.83651C18.2024 8.23636 17.2067 8.64252 16.1988 9.05363L16.0641 9.10859L16.0552 9.11221C12.8155 10.4338 9.45159 11.806 6.57886 13.1586C6.16872 13.3113 5.85464 13.486 5.64208 13.6991C5.40587 13.9359 5.28715 14.2331 5.33588 14.5474C5.3784 14.8216 5.5354 15.0136 5.63226 15.1126C5.68567 15.1672 5.73643 15.2094 5.7744 15.2384C5.7937 15.2532 5.81054 15.2652 5.82389 15.2743L5.84142 15.2861L5.84815 15.2905L5.85097 15.2923L5.85224 15.2931L5.85285 15.2934C5.85314 15.2936 5.85343 15.2938 6.15186 14.8176L5.85343 15.2938L5.9158 15.3329L5.98614 15.3546L8.45058 16.1151L8.45058 16.1151L8.45436 16.1162C9.10779 16.3128 9.63296 16.3082 10.0131 16.2405C10.2016 16.2069 10.3507 16.1585 10.4589 16.1146C10.5129 16.0926 10.5567 16.0718 10.59 16.0546C10.6066 16.046 10.6207 16.0382 10.6321 16.0317L10.6473 16.0228L10.6534 16.0191L10.6561 16.0174L10.6574 16.0167L10.658 16.0163C10.6583 16.0161 10.6585 16.0159 10.36 15.5398L10.6585 16.0159L10.6674 16.0103L10.6761 16.0044L14.6207 13.3207L12.2929 15.544C11.8943 15.8975 11.7008 16.3214 11.7718 16.7684C11.835 17.1666 12.0903 17.4467 12.2658 17.5982C13.0491 18.2883 14.9093 19.5092 15.7115 20.0357L15.7351 20.0512C15.8409 20.1207 15.9276 20.1775 15.9917 20.22C16.0491 20.258 16.0767 20.2768 16.0852 20.2825C16.0855 20.2828 16.0859 20.283 16.0862 20.2832C16.2236 20.391 16.5566 20.6157 16.9504 20.8003C17.3287 20.9776 17.9057 21.1878 18.4433 21.0682L18.4435 21.0681C19.0322 20.9369 19.3312 20.4938 19.471 20.1752C19.5428 20.0117 19.5837 19.8587 19.6071 19.7481C19.6189 19.692 19.6266 19.6446 19.6316 19.6094C19.6341 19.5918 19.6359 19.5771 19.6371 19.5657L19.6372 19.5649L20.545 13.61L20.5451 13.61L20.5466 13.5987C20.6817 12.5738 20.8367 11.5874 20.9615 10.7926L20.9696 10.7412C21.0812 10.0311 21.1732 9.44582 21.1939 9.16042C21.2292 8.75135 21.157 8.37355 20.9149 8.08831C20.673 7.80322 20.3481 7.71297 20.1 7.69135C19.8529 7.66981 19.6205 7.70935 19.4658 7.74577C19.385 7.76477 19.3171 7.78496 19.2682 7.80083C19.2436 7.80881 19.2234 7.81582 19.2083 7.82123L19.1896 7.8281L19.1832 7.83051L19.1808 7.83144L19.1798 7.83183L19.1794 7.83201C19.1792 7.83209 19.1789 7.83217 19.3831 8.35574ZM1.39112 4.76274C1.39112 2.58998 3.15248 0.828618 5.32524 0.828618H23.3098C25.4825 0.828618 27.2439 2.58998 27.2439 4.76274V22.7473C27.2439 24.92 25.4825 26.6814 23.3098 26.6814H5.32524C3.15248 26.6814 1.39112 24.92 1.39112 22.7473V4.76274Z" fill="#D4681A" stroke="#D4681A" stroke-width="1.12403"/>
</svg>
