<svg width="16" height="16" viewBox="0 0 16 16" fill="none" xmlns="http://www.w3.org/2000/svg">
<path d="M13.0831 10.138C11.5978 9.25987 9.85818 8.75421 8.05842 8.67749C6.25866 8.75421 4.51906 9.25987 3.03374 10.138C2.65507 10.3836 2.34446 10.6985 2.12431 11.0599C1.90417 11.4213 1.77998 11.8203 1.76072 12.2281L1.55176 14.1159H14.5643L14.3561 12.2281C14.3368 11.8203 14.2126 11.4214 13.9925 11.0599C13.7723 10.6985 13.4617 10.3836 13.0831 10.138V10.138Z" stroke="#575756" stroke-width="1.85894" stroke-linecap="round" stroke-linejoin="round"/>
<path d="M8.05794 6.68009C8.60944 6.68009 9.14855 6.51655 9.6071 6.21016C10.0656 5.90377 10.423 5.46828 10.6341 4.95876C10.8451 4.44925 10.9004 3.88859 10.7928 3.34769C10.6852 2.80679 10.4196 2.30995 10.0296 1.91998C9.63968 1.53001 9.14283 1.26444 8.60193 1.15685C8.06103 1.04926 7.50038 1.10448 6.99086 1.31553C6.48135 1.52658 6.04586 1.88397 5.73946 2.34253C5.43307 2.80108 5.26953 3.34019 5.26953 3.89168C5.26953 4.63121 5.56331 5.34046 6.08624 5.86339C6.60917 6.38631 7.31841 6.68009 8.05794 6.68009V6.68009Z" stroke="#575756" stroke-width="1.85894" stroke-linecap="round" stroke-linejoin="round"/>
</svg>
