<svg width="28" height="28" viewBox="0 0 28 28" fill="none" xmlns="http://www.w3.org/2000/svg">
<path d="M3.88786 22.787L3.63222 23.7255L4.57299 23.4782L9.27847 22.2414C10.6677 22.9576 12.2138 23.3374 13.7877 23.3374C19.2124 23.3374 23.6324 18.9175 23.6324 13.4928C23.6324 10.8623 22.609 8.38732 20.7523 6.53015C19.8413 5.61015 18.7562 4.88069 17.5604 4.38427C16.3644 3.8878 15.0816 3.63437 13.7867 3.63876C8.36241 3.6393 3.94304 8.05901 3.94304 13.4834C3.94304 15.142 4.35912 16.7554 5.13899 18.1935L3.88786 22.787ZM20.9253 13.4907L20.9253 13.4953C20.9427 17.4342 17.7313 20.6398 13.7877 20.6398C12.5033 20.6398 11.2442 20.2928 10.1409 19.6415C10.1404 19.6412 10.1399 19.641 10.1394 19.6407L9.86173 19.4741L9.6587 19.3522L9.42972 19.4124L7.44863 19.9331L7.96971 18.0245L8.03577 17.7826L7.8998 17.5718L7.71456 17.2847C7.00155 16.1448 6.62297 14.8276 6.62198 13.483C6.6222 9.54099 9.83627 6.32707 13.7783 6.32707C15.6896 6.32707 17.485 7.07311 18.8312 8.42799L18.8334 8.43017C19.4996 9.09331 20.0275 9.88207 20.3866 10.7507C20.7457 11.6194 20.9288 12.5507 20.9253 13.4907ZM18.4618 15.694L18.936 15.3923C18.8452 15.2496 18.7266 15.1628 18.6356 15.1079C18.5566 15.0603 18.4662 15.0187 18.3977 14.9872L18.385 14.9813C18.3456 14.9631 18.3066 14.9452 18.2648 14.9251C18.2093 14.8985 18.0995 14.845 17.9593 14.7767L17.9238 14.7594C17.5057 14.5556 16.8243 14.2236 16.6513 14.1528L16.6374 14.1471L16.6232 14.1422C16.6192 14.1408 16.6151 14.1394 16.6107 14.1378C16.5158 14.1046 16.3136 14.0337 16.0931 14.0582C15.8021 14.0906 15.5962 14.2618 15.4554 14.4606L15.4553 14.4605L15.4493 14.4694C15.3362 14.6357 15.0331 15.0037 14.8552 15.2135C14.8279 15.2014 14.7998 15.1893 14.7735 15.178L14.7664 15.175L14.5444 15.6913L14.7664 15.175L14.7649 15.1743C14.4634 15.0447 13.8725 14.7907 13.188 14.179L13.1876 14.1787C12.6602 13.7083 12.2769 13.14 12.0878 12.8369C12.1569 12.7615 12.2262 12.6776 12.2824 12.6097L12.2917 12.5984C12.3306 12.5514 12.3651 12.5097 12.3972 12.4722C12.5457 12.299 12.6197 12.1501 12.6844 12.0198L12.6893 12.0101L12.6893 12.0101L12.7074 11.9738L12.7075 11.9738L12.7132 11.9617C12.8912 11.5835 12.784 11.259 12.6887 11.0684C12.689 11.069 12.6887 11.0683 12.6877 11.0661C12.685 11.0602 12.6773 11.043 12.6628 11.0096C12.6453 10.9691 12.6225 10.9154 12.5955 10.8511C12.5415 10.7226 12.4724 10.556 12.3989 10.3774C12.2517 10.0201 12.0886 9.6192 11.9959 9.38741L11.9959 9.38739L11.9928 9.37998C11.8871 9.12615 11.7425 8.90699 11.5232 8.77019C11.3067 8.63512 11.0943 8.63355 11.0173 8.63297C11.0136 8.63295 11.0103 8.63292 11.0073 8.63289L10.9886 8.6326C10.9872 8.63256 10.9863 8.63253 10.9858 8.63251C10.9856 8.6325 10.9854 8.6325 10.9854 8.6325L10.9682 8.63134H10.9495H10.4999C10.2099 8.63134 9.80658 8.73528 9.46808 9.10322L9.46797 9.10312L9.45977 9.11245C9.4477 9.12617 9.43295 9.14238 9.41184 9.16554L9.82724 9.54409L9.41184 9.16554C9.14309 9.46045 8.51411 10.1538 8.51411 11.4227C8.51411 12.1171 8.76272 12.7681 9.00207 13.2409C9.24053 13.712 9.49417 14.0533 9.56659 14.1499L9.56853 14.1527L9.58131 14.1713L9.58131 14.1713L9.58536 14.1772C9.82346 14.5254 11.3899 16.8157 13.7597 17.839C14.337 18.0933 14.7889 18.2408 15.1372 18.3473C15.8031 18.5607 16.4035 18.5227 16.8441 18.4613L16.8475 18.4608C17.1788 18.4124 17.5995 18.2297 17.9508 18.0039C18.2871 17.7877 18.7015 17.4422 18.8604 16.987C18.9745 16.671 19.0341 16.3733 19.0546 16.1285C19.0649 16.0064 19.0662 15.8882 19.0562 15.7817C19.0488 15.7024 19.0289 15.5383 18.936 15.3923L18.4618 15.694ZM0.608404 4.76274C0.608404 2.58998 2.36977 0.828618 4.54252 0.828618H22.5271C24.6998 0.828618 26.4612 2.58998 26.4612 4.76274V22.7473C26.4612 24.92 24.6998 26.6814 22.5271 26.6814H4.54252C2.36977 26.6814 0.608404 24.92 0.608404 22.7473V4.76274Z" fill="#D4681A" stroke="#D4681A" stroke-width="1.12403"/>
</svg>
