<svg width="18" height="19" viewBox="0 0 18 19" fill="none" xmlns="http://www.w3.org/2000/svg">
<path d="M1.16092 17.7048L2.22634 13.8126L2.2637 13.6761L2.19298 13.5535C1.46971 12.3001 1.0895 10.8792 1.09019 9.42132C1.09228 4.86526 4.80034 1.15731 9.35543 1.15725L1.16092 17.7048ZM1.16092 17.7048L5.15426 16.6572L5.28455 16.6231L5.40279 16.6876C6.60938 17.3461 7.9723 17.6931 9.3557 17.6938C13.9107 17.6937 17.6188 13.9857 17.6209 9.42896M1.16092 17.7048L15.2023 3.58135C16.763 5.14414 17.6216 7.21962 17.6209 9.42896M17.6209 9.42896L17.96 9.42912M17.6209 9.42896L17.96 9.42912M17.96 9.42912C17.9607 7.12986 17.0665 4.96807 15.4423 3.34166L9.35553 18.0329C14.098 18.0329 17.9578 14.1731 17.96 9.42912ZM1.86469 9.42173C1.86396 11.0565 2.33145 12.2958 3.10088 13.5512L2.41719 16.0478L2.26202 16.6144L2.83028 16.4654L5.40142 15.7913C6.60859 16.4907 7.79802 16.9178 9.35248 16.9185H9.35264C13.4814 16.9185 16.8441 13.5588 16.8464 9.42786V9.4278C16.8479 5.28904 13.5007 1.93327 9.35855 1.93175H9.35843C5.22672 1.93175 1.86621 5.29143 1.86469 9.42173ZM1.86469 9.42173L2.20383 9.42188M1.86469 9.42173L2.20383 9.42188M2.20383 9.42188C2.20311 11.0317 2.67482 12.237 3.46704 13.498L2.20383 9.42188ZM13.1259 11.5267L13.1255 11.5265C13.0199 11.4735 12.7035 11.3173 12.3889 11.1654C12.0635 11.0083 11.7705 10.8709 11.6925 10.8426L11.6922 10.8424C11.6555 10.8291 11.6296 10.8204 11.6097 10.8147L13.1259 11.5267ZM13.1259 11.5267C13.1705 11.549 13.2128 11.5694 13.2496 11.5872M13.1259 11.5267L13.2496 11.5872M7.88612 7.79764L7.5831 7.64537C7.56976 7.67192 7.55823 7.69523 7.54794 7.71602C7.49596 7.82109 7.47577 7.86193 7.41422 7.93203L7.4142 7.93202L7.41148 7.93519C7.36239 7.99251 7.3192 8.04534 7.27987 8.09342C7.21487 8.17291 7.16045 8.23945 7.10749 8.29201L7.10659 8.29291C7.10424 8.29526 7.1017 8.29778 7.09899 8.30048C7.05049 8.34865 6.94719 8.45126 6.89438 8.59338C6.82664 8.77569 6.85607 8.9644 6.95905 9.14142C7.0902 9.36732 7.54353 10.108 8.22246 10.7138C8.95601 11.3685 9.6118 11.651 9.90455 11.7771C9.95703 11.7997 9.99784 11.8173 10.0253 11.8311C10.1554 11.8963 10.3129 11.9528 10.4848 11.932C10.6704 11.9096 10.8035 11.8065 10.8987 11.6976C11.0199 11.5589 11.4481 11.0569 11.6062 10.8199L5.86107 9.73516L6.13271 9.53211L6.13205 9.53124L6.1303 9.52889C6.07619 9.45653 5.87415 9.18635 5.68452 8.81283C5.48951 8.42873 5.32261 7.96407 5.32261 7.51114C5.32261 6.65698 5.72871 6.22236 5.94256 5.99348C5.95829 5.97665 5.97298 5.96093 5.98639 5.94623C6.10639 5.81476 6.23997 5.78822 6.30655 5.78761L6.71084 5.7947C6.73403 5.79565 6.75648 5.79549 6.77043 5.7954C6.77194 5.79539 6.77336 5.79538 6.77467 5.79537C6.78831 5.79529 6.79663 5.79533 6.80295 5.79553C6.81748 5.81115 6.84992 5.85389 6.89224 5.95505C6.94712 6.08725 7.02552 6.2783 7.10967 6.48336C7.16222 6.61142 7.21702 6.74496 7.26973 6.87304C7.40112 7.19229 7.52946 7.50238 7.56511 7.57318C7.58272 7.60817 7.58637 7.62534 7.58706 7.63179C7.58729 7.63395 7.58716 7.63462 7.58712 7.63483L7.58711 7.63486L7.58711 7.63487C7.58708 7.63509 7.5865 7.63857 7.58279 7.64598L7.88612 7.79764ZM7.88612 7.79764C7.95775 7.65439 7.9223 7.52851 7.86804 7.4207L7.25235 8.97115C7.12718 8.75627 7.23932 8.63979 7.3464 8.53271C7.41093 8.46867 7.48475 8.37866 7.5587 8.2885C7.59585 8.2432 7.63303 8.19787 7.66908 8.15577C7.76165 8.05033 7.80123 7.96982 7.85518 7.8601C7.86489 7.84034 7.87508 7.81962 7.88612 7.79764ZM13.69 11.4744C13.6469 11.4023 13.5459 11.3535 13.3958 11.2812C13.3593 11.2635 13.3198 11.2445 13.2776 11.2234L13.69 11.4744ZM13.69 11.4744C13.7442 11.5641 13.7442 11.9946 13.5648 12.4974M13.69 11.4744L13.5648 12.4974M13.2496 11.5872C13.2594 11.5919 13.2688 11.5964 13.2777 11.6007M13.2496 11.5872L13.2777 11.6007M13.2777 11.6007C13.3223 11.6223 13.3551 11.6386 13.3815 11.6531M13.2777 11.6007L13.3815 11.6531M13.3815 11.6531C13.3816 11.6531 13.3818 11.6532 13.3819 11.6533M13.3815 11.6531L13.3819 11.6533M13.3819 11.6533C13.3833 11.6903 13.3824 11.7403 13.3771 11.8019C13.3639 11.955 13.3252 12.1598 13.2454 12.3835C13.1949 12.5246 13.0169 12.7132 12.7437 12.8883C12.4787 13.0582 12.2065 13.163 12.0637 13.1843C11.7212 13.2351 11.3093 13.2532 10.8617 13.1111C10.5548 13.0136 10.166 12.8851 9.6679 12.6701L13.3819 11.6533ZM13.5648 12.4974C13.3854 12.9996 12.5266 13.4582 12.1135 13.5197L13.5648 12.4974ZM6.79457 5.78775C6.79458 5.78771 6.7951 5.78805 6.7961 5.78888C6.79506 5.7882 6.79456 5.78779 6.79457 5.78775ZM9.35553 1.15725C11.5669 1.15797 13.6409 2.01858 15.2023 3.5813L9.35553 1.15725ZM13.3764 11.5966C13.3764 11.5965 13.3767 11.5975 13.377 11.5995C13.3765 11.5977 13.3764 11.5966 13.3764 11.5966Z" fill="#D4681A" stroke="#D4681A" stroke-width="0.678269"/>
</svg>
