<svg width="68" height="68" viewBox="0 0 68 68" fill="none" xmlns="http://www.w3.org/2000/svg">
<g clip-path="url(#clip0_10_39083)">
<path d="M34.0437 67.2172C52.5693 67.2172 67.5874 52.1992 67.5874 33.6736C67.5874 15.1479 52.5693 0.129883 34.0437 0.129883C15.518 0.129883 0.5 15.1479 0.5 33.6736C0.5 52.1992 15.518 67.2172 34.0437 67.2172Z" fill="#F8F7F3"/>
<path d="M34.0435 66.2853C52.0546 66.2853 66.6555 51.6845 66.6555 33.6734C66.6555 15.6624 52.0546 1.06152 34.0435 1.06152C16.0325 1.06152 1.43164 15.6624 1.43164 33.6734C1.43164 51.6845 16.0325 66.2853 34.0435 66.2853Z" stroke="#575756" stroke-width="1.86354"/>
<path d="M45.8182 35.2533L45.9139 35.0959C46.3633 34.3565 46.598 33.5066 46.5916 32.6414C46.5735 31.536 46.1257 30.481 45.343 29.7002C44.5605 28.9196 43.505 28.4744 42.4 28.4587H40.426H39.7423L39.9924 27.8223C40.287 27.0729 40.4388 26.2749 40.44 25.4695C40.44 23.5733 39.9494 22.2882 39.1597 21.4769C38.3716 20.6673 37.2171 20.2591 35.7402 20.2591C35.043 20.2591 34.5486 20.5204 34.1665 20.9278C33.7699 21.3505 33.4837 21.9436 33.2611 22.6075C33.0768 23.1572 32.9467 23.7203 32.8267 24.2395C32.8019 24.3469 32.7775 24.4524 32.7531 24.5556C32.6838 24.8492 32.6131 25.1306 32.5328 25.3658C32.4581 25.5849 32.3525 25.8365 32.1785 26.0105C31.6045 26.5845 30.9713 27.4264 30.3316 28.277L30.2841 28.3401C29.648 29.1859 28.9929 30.0538 28.4309 30.5517L28.2987 30.6688H28.122H22.7662C22.5995 30.6688 22.4344 30.7017 22.2804 30.7655C22.1264 30.8293 21.9864 30.9228 21.8686 31.0408C21.7507 31.1587 21.6573 31.2987 21.5935 31.4527C21.5298 31.6068 21.497 31.7719 21.4971 31.9386L21.4971 31.9388L21.4971 44.951C21.4971 45.1176 21.53 45.2826 21.5937 45.4366C21.6575 45.5906 21.751 45.7305 21.8688 45.8483C21.9867 45.9662 22.1266 46.0597 22.2806 46.1234L22.1023 46.5539L22.2806 46.1234C22.4345 46.1872 22.5995 46.22 22.7662 46.22L26.2354 46.22L26.2361 46.22M45.8182 35.2533L27.2962 46.3225C26.9927 46.5575 26.6199 46.6853 26.2361 46.6859V46.22M45.8182 35.2533L45.8561 35.4337C46.077 36.4859 45.9195 37.5823 45.4113 38.5298L45.3424 38.6583L45.359 38.8031C45.4932 39.9744 45.1881 41.1538 44.5027 42.1131L44.4184 42.231L44.4159 42.3759C44.3915 43.7952 43.94 44.9531 43.0543 45.7606C42.1643 46.572 40.773 47.0866 38.7582 47.0866H37.5534C34.8366 47.0866 33.0863 46.5737 31.7145 46.0543C31.4294 45.9464 31.1432 45.8308 30.8637 45.718C30.4945 45.569 30.1371 45.4246 29.8096 45.3089C29.2041 45.095 28.5958 44.9363 27.9237 44.9213L27.5552 44.913L27.4624 45.2698C27.3917 45.5415 27.233 45.7822 27.0109 45.9541C26.7891 46.1259 26.5167 46.2194 26.2361 46.22M45.8182 35.2533L26.2361 46.22M27.5061 42.9011V43.367H27.972C29.238 43.367 30.4293 43.7821 31.8046 44.2613C31.9041 44.296 32.0045 44.331 32.1061 44.3662C33.5897 44.8807 35.2527 45.4169 37.2785 45.4169H39.3284C40.3502 45.4169 41.327 45.1709 41.9845 44.4748C42.6077 43.815 42.8562 42.846 42.7069 41.5816C43.1661 41.1902 43.4925 40.6622 43.6356 40.0709C43.7745 39.4972 43.7327 38.8976 43.5206 38.3527C43.9546 37.8563 44.2196 37.2308 44.2711 36.5674C44.3164 35.9848 44.1946 35.4056 43.9258 34.8955C43.9313 34.8912 43.9368 34.8868 43.9422 34.8824C44.1296 34.7303 44.2977 34.5272 44.4375 34.3022C44.7159 33.8543 44.9209 33.257 44.9181 32.6448L44.9182 32.6448L44.9178 32.6322C44.8971 31.9756 44.6269 31.3515 44.1624 30.8869C43.6978 30.4223 43.0737 30.1522 42.417 30.1314L42.4097 30.1312H42.4023H37.2608C37.3514 29.4557 37.631 28.9003 37.9486 28.2727L37.9503 28.2693C38.3338 27.5114 38.7675 26.6545 38.7675 25.4723C38.7675 25.4575 38.7675 25.4426 38.7675 25.4275C38.7677 24.8134 38.768 23.9461 38.3933 23.2351C38.1924 22.854 37.8863 22.5186 37.4354 22.2838C36.9908 22.0522 36.4311 21.9316 35.7383 21.9316H35.5453L35.4089 22.0681C35.0718 22.4052 34.8837 22.8449 34.7548 23.283C34.6522 23.6321 34.5764 24.0218 34.5028 24.4008C34.4847 24.4935 34.4668 24.5856 34.4487 24.6763C34.2563 25.638 34.0187 26.5331 33.359 27.1928L33.3588 27.193C32.974 27.5782 32.5527 28.1122 32.126 28.6737C31.9946 28.8466 31.8625 29.0224 31.7296 29.1992C31.4232 29.607 31.1129 30.0199 30.7987 30.4141C30.3485 30.9791 29.9121 31.4775 29.5049 31.8317C29.0806 32.2009 28.7693 32.3404 28.5637 32.3404H27.972H27.5061V32.8063V42.9011ZM22.762 43.5614L23.219 43.4705L22.762 43.5614C22.8303 43.9048 22.9989 44.2203 23.2465 44.4678C23.4941 44.7154 23.8096 44.8841 24.153 44.9524C24.4964 45.0207 24.8524 44.9856 25.1758 44.8516C25.4993 44.7176 25.7758 44.4907 25.9704 44.1996C26.1649 43.9084 26.2687 43.5662 26.2687 43.216C26.2687 42.7465 26.0822 42.2962 25.7502 41.9642C25.4182 41.6322 24.9679 41.4457 24.4984 41.4457C24.1482 41.4457 23.8059 41.5495 23.5148 41.744C23.2237 41.9385 22.9968 42.215 22.8628 42.5385C22.7288 42.862 22.6937 43.218 22.762 43.5614Z" fill="#D4681A" stroke="#D4681A" stroke-width="0.931769"/>
<path d="M34.0437 67.2172C52.5693 67.2172 67.5874 52.1992 67.5874 33.6736C67.5874 15.1479 52.5693 0.129883 34.0437 0.129883C15.518 0.129883 0.5 15.1479 0.5 33.6736C0.5 52.1992 15.518 67.2172 34.0437 67.2172Z" fill="#F8F7F3"/>
<path d="M34.0435 66.2853C52.0546 66.2853 66.6555 51.6845 66.6555 33.6734C66.6555 15.6624 52.0546 1.06152 34.0435 1.06152C16.0325 1.06152 1.43164 15.6624 1.43164 33.6734C1.43164 51.6845 16.0325 66.2853 34.0435 66.2853Z" stroke="#575756" stroke-width="1.86354"/>
<path d="M30.1907 43.0995L30.1906 43.0994L21.7115 34.6203L21.7115 34.6203C21.6337 34.5425 21.5719 34.45 21.5297 34.3483C21.4876 34.2465 21.4659 34.1375 21.4659 34.0273C21.4659 33.9172 21.4876 33.8081 21.5297 33.7064C21.5719 33.6046 21.6337 33.5122 21.7115 33.4343L21.7115 33.4343L23.5565 31.5894L23.5565 31.5894C23.6343 31.5115 23.7268 31.4497 23.8285 31.4076C23.9303 31.3654 24.0393 31.3437 24.1495 31.3437C24.2596 31.3437 24.3687 31.3654 24.4704 31.4076C24.5722 31.4497 24.6646 31.5115 24.7425 31.5894L24.7425 31.5894L30.4542 37.3011L30.7837 37.6306L31.1131 37.3011L43.3472 25.067L43.3472 25.067C43.4251 24.9891 43.5176 24.9273 43.6193 24.8852C43.7211 24.843 43.8301 24.8214 43.9402 24.8214C44.0504 24.8214 44.1594 24.843 44.2612 24.8852C44.3629 24.9273 44.4554 24.9891 44.5332 25.067L44.5333 25.067L46.3782 26.9119L46.3782 26.9119C46.4561 26.9898 46.5178 27.0823 46.56 27.184C46.6021 27.2858 46.6238 27.3948 46.6238 27.5049C46.6238 27.6151 46.6021 27.7241 46.56 27.8259C46.5178 27.9276 46.4561 28.0201 46.3782 28.0979L46.3782 28.098L31.3767 43.0994L31.3767 43.0995C31.2988 43.1773 31.2064 43.2391 31.1046 43.2813C31.0029 43.3234 30.8938 43.3451 30.7837 43.3451C30.6735 43.3451 30.5645 43.3234 30.4627 43.2813C30.361 43.2391 30.2685 43.1773 30.1907 43.0995Z" fill="#D4681A" stroke="#D4681A" stroke-width="0.931769"/>
</g>
<defs>
<clipPath id="clip0_10_39083">
<rect width="67.0874" height="67.0874" fill="white" transform="translate(0.5 0.129883)"/>
</clipPath>
</defs>
</svg>
