<svg width="936" height="375" viewBox="0 0 936 375" fill="none" xmlns="http://www.w3.org/2000/svg">
<mask id="mask0_274_7689" style="mask-type:alpha" maskUnits="userSpaceOnUse" x="0" y="0" width="936" height="375">
<path d="M277.848 231.522V298.913H246.312V368.478H173.451V298.913H0V285.326L119.078 7.06522H195.744L99.5033 231.522H175.626L188.132 145.109H246.312V231.522H277.848Z" fill="#4C4C4C"/>
<path d="M471.222 375C441.498 375 415.58 367.391 393.468 352.174C371.356 336.957 354.319 315.217 342.357 286.957C330.395 258.696 324.414 225.543 324.414 187.5C324.414 129.529 337.464 83.8768 363.563 50.5435C390.024 16.8478 425.911 0 471.222 0C516.533 0 552.238 16.8478 578.338 50.5435C604.437 83.8768 617.487 129.529 617.487 187.5C617.487 245.109 604.256 290.761 577.794 324.457C551.695 358.152 516.171 375 471.222 375ZM420.111 273.37C432.073 292.935 449.11 302.717 471.222 302.717C493.334 302.717 510.19 292.935 521.789 273.37C533.389 253.442 539.189 225 539.189 188.043C539.189 150.725 533.208 122.101 521.246 102.174C509.646 82.2464 492.971 72.2826 471.222 72.2826C449.11 72.2826 432.073 82.2464 420.111 102.174C408.511 121.739 402.712 150.181 402.712 187.5C402.712 224.819 408.511 253.442 420.111 273.37Z" fill="#4C4C4C"/>
<path d="M936 231.522V298.913H904.463V368.478H831.603V298.913H658.152V285.326L777.23 7.06522H853.896L757.655 231.522H833.778L846.284 145.109H904.463V231.522H936Z" fill="#4C4C4C"/>
</mask>
<g mask="url(#mask0_274_7689)">
<path d="M277.848 231.522V298.913H246.312V368.478H173.451V298.913H0V285.326L119.078 7.06522H195.744L99.5033 231.522H175.626L188.132 145.109H246.312V231.522H277.848Z" fill="#2D2D2D"/>
<path d="M471.222 375C441.498 375 415.58 367.391 393.468 352.174C371.356 336.957 354.319 315.217 342.357 286.957C330.395 258.696 324.414 225.543 324.414 187.5C324.414 129.529 337.464 83.8768 363.563 50.5435C390.024 16.8478 425.911 0 471.222 0C516.533 0 552.238 16.8478 578.338 50.5435C604.437 83.8768 617.487 129.529 617.487 187.5C617.487 245.109 604.256 290.761 577.794 324.457C551.695 358.152 516.171 375 471.222 375ZM420.111 273.37C432.073 292.935 449.11 302.717 471.222 302.717C493.334 302.717 510.19 292.935 521.789 273.37C533.389 253.442 539.189 225 539.189 188.043C539.189 150.725 533.208 122.101 521.246 102.174C509.646 82.2464 492.971 72.2826 471.222 72.2826C449.11 72.2826 432.073 82.2464 420.111 102.174C408.511 121.739 402.712 150.181 402.712 187.5C402.712 224.819 408.511 253.442 420.111 273.37Z" fill="#2D2D2D"/>
<path d="M936 231.522V298.913H904.463V368.478H831.603V298.913H658.152V285.326L777.23 7.06522H853.896L757.655 231.522H833.778L846.284 145.109H904.463V231.522H936Z" fill="#2D2D2D"/>
<path d="M776.824 175.411C787.85 169.068 798.16 161.565 807.577 153.03C857.703 107.248 848.389 14.7172 783.694 -14.4058C750.961 -29.1492 714.167 -19.0918 684.833 -1.32705C653.561 17.6407 635.663 50.7642 607.34 73.0611C584.272 91.2455 553.126 93.9591 527.262 106.408C503.829 117.599 479.145 145.981 491.859 173.817C509.238 211.878 569.802 211.584 605.022 212.242C660.754 213.221 726.305 204.772 776.824 175.411Z" stroke="#FFC83C" stroke-width="2" stroke-miterlimit="10"/>
<path d="M521.685 165.829C536.169 197.722 585.944 198.127 615.544 198.519L621.164 198.519C666.19 198.519 718.016 190.63 758.533 167.004C767.697 161.703 776.281 155.463 784.144 148.386C815.739 119.739 820.094 69.6616 798.192 35.8666C790.766 24.3482 780.335 15.0555 768.016 8.98169C754.635 2.43832 739.512 0.297741 724.83 2.86893C710.163 5.2329 695.917 11.3596 683.273 19.081C657.55 34.7196 642.532 61.7304 619.197 80.0407C600.175 94.9519 574.677 97.5117 553.322 107.751C532.769 117.626 510.558 141.126 521.685 165.829Z" stroke="#FFC83C" stroke-width="2" stroke-miterlimit="10"/>
<path d="M551.595 157.856C563.101 183.622 602.17 184.616 626.138 184.797L630.619 184.797C666.373 184.532 707.663 177.733 740.2 158.668C747.517 154.411 754.385 149.429 760.697 143.799C786.153 120.956 790.691 81.8178 774.886 54.6251C769.452 45.3856 761.671 37.734 752.324 32.4401C741.523 26.2812 728.938 23.9674 716.64 25.8797C704.263 27.7122 692.335 33.0276 681.686 39.56C661.541 51.9254 649.374 72.7815 631.041 87.1192C616.065 98.7712 596.214 101.107 579.44 109.192C561.766 117.627 541.971 136.315 551.595 157.856Z" stroke="#FFC83C" stroke-width="2" stroke-miterlimit="10"/>
<path d="M581.504 149.897C590.088 169.48 618.396 171.117 636.744 171.075L640.087 171.075C666.583 170.585 697.336 164.836 721.837 150.345C727.31 147.136 732.462 143.412 737.221 139.224C756.524 122.201 761.328 93.9311 751.55 73.3967C748.136 66.4015 742.993 60.3848 736.602 55.9118C728.443 50.1107 718.375 47.6109 708.435 48.9178C698.348 50.2326 688.766 54.7228 680.084 60.1081C665.502 69.1584 656.272 83.8878 642.855 94.2249C631.925 102.618 617.736 104.814 605.513 110.661C590.762 117.613 573.426 131.475 581.504 149.897Z" stroke="#FFC83C" stroke-width="2" stroke-miterlimit="10"/>
<path d="M611.4 141.924C617.104 155.325 634.609 157.591 647.337 157.311L649.557 157.241C666.794 156.514 687.011 151.814 703.504 141.854C707.124 139.692 710.559 137.236 713.773 134.511C726.937 123.32 732.037 105.863 728.244 92.0152C726.898 87.2198 724.378 82.8317 720.91 79.2441C718.262 76.5208 715.027 74.4321 711.449 73.1357C707.872 71.8393 704.045 71.3691 700.259 71.7605C692.447 72.5439 685.114 76.1947 678.497 80.3911C669.464 86.0982 663.142 94.7288 654.684 101.079C647.815 106.241 639.231 108.227 631.63 111.892C619.759 117.613 604.91 126.635 611.4 141.924Z" stroke="#FFC83C" stroke-width="2" stroke-miterlimit="10"/>
<path d="M704.937 110.815C705.8 108.206 705.898 105.406 705.218 102.744C703.589 97.4846 697.576 94.5471 692.069 94.7989C686.562 95.0507 681.504 97.8483 676.91 100.912C670.574 105.108 664.632 110.088 657.734 113.347C648.756 117.543 636.464 121.74 641.311 133.951C644.331 141.533 651.524 144.414 659.04 143.519C675.786 141.519 700.175 127.587 704.937 110.815Z" stroke="#FFC83C" stroke-width="2" stroke-miterlimit="10"/>
<path d="M511.485 328.705C487.419 384.964 413.72 407.457 360.699 377.313C337.112 363.898 327.095 335.783 338.994 311.066C352.031 283.957 380.845 275.271 406.892 265.185C419.634 260.261 432.657 254.736 443.208 245.882C458.282 233.293 473.933 205.792 497.773 219.948C503.786 223.515 508.001 229.502 510.965 235.81C524.803 265.269 523.918 299.736 511.485 328.705Z" stroke="#FFC83C" stroke-width="2" stroke-miterlimit="10"/>
<path d="M494.065 332.761C474.397 376.012 417.71 393.777 376.055 371.27C357.117 361.045 348.829 339.335 357.272 319.375C367.106 296.252 392.394 288.489 413.959 279.998C424.172 275.998 434.653 271.606 443.194 264.612C455.009 254.82 466.824 234.412 485.607 244.399C490.707 247.357 494.638 251.962 496.748 257.45C506.891 281.579 504.587 309.653 494.065 332.761Z" stroke="#FFC83C" stroke-width="2" stroke-miterlimit="10"/>
<path d="M476.617 336.818C461.416 367.088 421.644 380.18 391.299 365.241C384.45 362.052 379.036 356.443 376.107 349.502C373.179 342.562 372.945 334.786 375.452 327.683C381.914 308.45 403.816 301.68 420.913 294.812C428.598 291.72 436.55 288.503 443.054 283.314C451.624 276.473 459.786 262.835 473.343 268.822C475.481 269.817 477.39 271.24 478.951 273.002C480.512 274.763 481.693 276.826 482.419 279.061C489.008 297.875 485.285 319.584 476.617 336.818Z" stroke="#FFC83C" stroke-width="2" stroke-miterlimit="10"/>
<path d="M459.168 340.804C448.659 358.149 425.451 366.528 406.583 359.128C401.981 357.458 398.14 354.188 395.768 349.921C393.395 345.655 392.651 340.678 393.672 335.908C396.637 320.451 415.293 314.828 427.909 309.555C433.065 307.401 438.474 305.358 442.969 301.959C448.266 298.015 453.042 290.769 461.12 293.175C462.854 293.669 464.422 294.619 465.659 295.927C466.895 297.234 467.754 298.849 468.145 300.602C471.32 314.101 466.066 329.502 459.168 340.804Z" stroke="#FFC83C" stroke-width="2" stroke-miterlimit="10"/>
<path d="M441.72 344.93C447.339 339.754 453.942 330.285 453.858 322.297C453.899 321.653 453.795 321.007 453.556 320.406C453.316 319.806 452.946 319.266 452.472 318.824C451.998 318.383 451.432 318.052 450.814 317.854C450.196 317.657 449.542 317.598 448.899 317.681C446.524 317.989 444.853 319.612 442.872 320.759C440.371 322.158 437.533 323.235 434.906 324.438C426.8 328.158 410.405 332.523 411.88 344.287C412.188 346.718 413.369 348.956 415.205 350.589C417.041 352.221 419.408 353.138 421.869 353.169C429.16 353.561 436.522 349.77 441.72 344.93Z" stroke="#FFC83C" stroke-width="2" stroke-miterlimit="10"/>
<path d="M546.228 277.481C548.082 261.479 549.923 246.917 565.629 238.524C580.999 230.313 595.455 231.642 612.243 231.53C631.329 231.406 650.384 230.004 669.281 227.334C714.349 220.983 761.076 209.541 798.656 182.796C841.125 152.568 865.767 99.9173 857.001 47.8401C850.58 9.65285 823.41 -22.2258 787.108 -36.3537C751.551 -50.1878 710.402 -44.4947 678.005 -25.1633C650.147 -8.58751 631.644 18.745 608.576 40.7761C583.541 64.7375 547.338 72.6827 517.428 88.6709C502.438 96.6861 488.094 106.855 478.92 121.403C467.428 139.587 470.491 161.283 465.981 181.425C461.767 200.673 449.53 216.619 434.133 228.607C404.883 251.393 366.895 259.185 337.309 281.118C327.896 288.112 319.762 297.302 316.067 308.394C301.442 352.205 334.653 387.496 374.159 401.009C418.749 416.256 469.002 403.107 503.407 371.774C531.322 346.4 541.985 313.961 546.228 277.481Z" stroke="#FFC83C" stroke-width="2" stroke-miterlimit="10"/>
<path d="M708.027 -199.131C680.885 -178.485 663.408 -147.767 649.598 -116.602C635.788 -85.4369 624.788 -52.9708 607.016 -23.9317C589.245 5.10734 563.24 31.055 530.226 39.7835C484.441 51.8832 436.197 28.9289 389.064 33.8107C340.919 38.8044 300.908 71.6901 255.98 89.6647C238.876 96.5155 220.972 101.192 202.693 103.583C182.912 106.157 162.401 105.933 143.491 99.6102C124.582 93.2876 107.372 80.2928 98.9426 62.2902C83.6435 29.6283 99.8278 -8.05539 111.474 -42.1861C124.118 -79.3242 131.142 -120.729 116.995 -157.307C113.244 -166.973 105.194 -177.562 94.981 -175.59" stroke="#FFC83C" stroke-width="2" stroke-miterlimit="10"/>
<path d="M175.537 564.501C231.929 565.592 289.684 501.863 251.64 449.8C229.246 419.166 213.287 386.532 220.971 347.576C228.656 308.619 258.271 285.847 291.215 266.347C326.646 245.365 452.523 168.557 383.459 119.026C333.193 82.9648 262.837 146.47 218.78 167.158C165.265 192.589 103.975 196.546 47.6094 178.209C10.7033 166.263 -44.7612 134.846 -80.3046 165.914" stroke="#FFC83C" stroke-width="2" stroke-miterlimit="10"/>
<path d="M78.3054 -178.891C100.783 -144.481 90.1345 -106.153 77.3501 -69.2951C69.3845 -46.3548 58.6231 -28.7299 54.7035 -4.57264C49.2667 28.9985 61.7279 54.1769 54.0994 95.1197C45.6702 140.441 -16.4956 145.56 -44.6774 124.83C-60.3137 113.332 -68.6867 87.1885 -80.7405 71.9976L-95.0001 54.051" stroke="#FFC83C" stroke-width="2" stroke-miterlimit="10"/>
<path d="M1020.53 226.579C985.279 245.756 936.544 234.972 912.788 202.715C886.362 166.864 892.586 117.892 890.703 73.4662C889.411 42.6227 883.398 11.4575 868.605 -15.6653C853.811 -42.788 829.465 -65.6024 799.766 -74.303C785.956 -78.3455 771.401 -79.2967 757.493 -82.9615C743.585 -86.6264 729.606 -93.7462 722.61 -106.265C717.37 -115.651 716.709 -126.94 717.777 -137.627C721.992 -179.772 753.489 -217.946 794.188 -230.255" stroke="#FFC83C" stroke-width="2" stroke-miterlimit="10"/>
<path d="M1050.61 288.77C1006.06 300.128 961.201 282.083 921.077 264.235C897.911 253.926 870.741 242.232 844.722 245.673C818.999 249.058 796.324 265.13 770.826 269.886C736.167 276.348 701.327 267.088 666.781 264.487C628.849 261.577 596.93 272.516 585.579 311.836C580.339 330.02 576.953 348.526 570.518 366.389C553.21 414.48 510.249 441.924 460.039 446.023C420.393 449.268 373.695 445.799 340.779 472.124C311.993 495.176 298.871 535.322 314.409 569.705" stroke="#FFC83C" stroke-width="2" stroke-miterlimit="10"/>
<path d="M322.207 430.426C324.918 418.018 318.217 405.569 310.672 395.33C303.128 385.091 294.235 375.131 291.538 362.724C290.372 357.324 290.442 351.715 289.459 346.274C288.475 340.833 286.171 335.265 281.535 332.286C275.817 328.551 267.922 329.726 262.232 333.475C249.968 341.56 247.186 358.318 248.085 372.921C249.574 397.232 258.285 425.53 275.115 443.868C289.009 458.961 317.851 450.4 322.207 430.426Z" stroke="#FFC83C" stroke-width="2" stroke-miterlimit="10"/>
<path d="M304.561 420.9L304.561 420.788C307.16 412.395 301.835 402.408 297.031 395.344C292.423 388.559 287.337 381.943 285.37 374.068C284.527 370.641 284.302 367.074 283.53 363.647C283.189 362.029 282.671 360.452 281.984 358.947C281.242 357.197 280.05 355.673 278.528 354.527C274.82 351.911 269.453 352.96 265.885 355.73C258.593 361.465 256.753 371.732 257.273 381.006C257.951 392.004 260.816 402.759 265.702 412.647C268.1 417.45 271.123 421.918 274.693 425.935C283.6 435.811 300.641 433.657 304.561 420.9Z" stroke="#FFC83C" stroke-width="2" stroke-miterlimit="10"/>
<path d="M286.916 411.388L286.916 411.318C289.431 406.869 285.511 399.33 283.418 395.357C280.608 389.944 279.077 384.559 276.857 378.963C276.594 378.162 276.152 377.431 275.565 376.823C273.879 375.313 270.985 376.208 269.664 378.054C264.494 385.23 266.545 395.162 270.409 402.435C272.657 406.548 282.182 419.599 286.916 411.388Z" stroke="#FFC83C" stroke-width="2" stroke-miterlimit="10"/>
<path d="M159.367 554.695C223.71 547.869 224.595 479.006 208.355 432.132C193.07 388.042 179.555 337.657 215.969 299.75C251.33 262.947 295.443 241.811 336.676 213.024C357.862 198.239 397.086 165.465 367.12 140.203C342.774 119.612 287.548 153.016 264.564 164.22C205.981 192.867 147.959 220.172 81.2978 205.806C36.4401 196.127 -11.2133 165.437 -57.6866 185.929" stroke="#FFC83C" stroke-width="2" stroke-miterlimit="10"/>
<path d="M323.864 162.458C326.336 161.801 329.16 161.227 331.31 162.612C332.877 163.868 333.886 165.686 334.119 167.676C337.505 183.846 321.279 196.911 306.738 204.87C266.18 227.097 221.912 243.784 186.832 274.642C142.297 313.808 100.404 364.165 40.9636 380.867C-13.1101 396.1 -65.1889 364.795 -73.6463 308.493C-76.3436 290.532 -74.0818 270.46 -66.1442 253.94C-60.2718 241.742 -50.6906 231.097 -38.3698 225.32C1.9923 206.339 50.7977 234.217 92.0871 236.273C145.599 238.931 199.532 228.188 245.682 200.422C271.251 185.189 294.6 170.348 323.864 162.458Z" stroke="#FFC83C" stroke-width="2" stroke-miterlimit="10"/>
<path d="M71.5056 345.687C88.8558 332.51 101.359 316.06 112.121 297.442C118.316 286.714 122.489 272.026 112.205 262.165C100.193 250.639 79.0779 252.541 63.6945 250.471C41.2165 247.435 18.317 243.407 -4.428 246.68C-20.4717 248.988 -33.1718 256.472 -41.1515 267.508C-49.1312 278.545 -52.3905 292.98 -49.5808 309.178C-44.0456 340.833 -16.7067 367.326 16.4484 366.333C36.763 365.718 55.6164 357.745 71.5056 345.687Z" stroke="#FFC83C" stroke-width="2" stroke-miterlimit="10"/>
<path d="M58.5248 336.007C71.9273 326.215 81.6912 313.626 89.432 299.442C93.6466 291.735 96.4564 281.468 89.6006 274.264C81.2837 265.675 66.4201 266.263 55.2092 264.472C50.8822 263.815 46.5272 263.073 42.1721 262.514C30.1323 260.849 17.9661 259.716 5.8701 261.367C-4.60486 262.616 -14.2241 267.745 -21.0754 275.733C-24.8104 280.125 -27.582 285.245 -29.2126 290.766C-30.8433 296.288 -31.2969 302.087 -30.5442 307.793C-27.6361 330.761 -8.51575 350.135 15.9431 350.428C31.3546 350.68 46.0917 345.001 58.5248 336.007Z" stroke="#FFC83C" stroke-width="2" stroke-miterlimit="10"/>
<path d="M45.5431 326.342C54.6983 320.033 62.0359 311.45 66.8269 301.443C69.1309 296.785 70.6622 290.882 67.0798 286.448C62.4718 280.853 53.8599 280.055 46.7934 278.629C44.1382 278.097 41.4409 277.607 38.7576 277.23C31.3444 275.888 23.7821 275.558 16.2796 276.251C9.87329 277.033 3.87176 279.786 -0.88805 284.126C-6.95711 289.511 -11.6774 297.54 -11.3824 306.591C-11.1596 313.752 -8.29163 320.581 -3.32772 325.768C1.63619 330.956 8.34726 334.138 15.5209 334.706C25.945 335.672 36.566 332.412 45.5431 326.342Z" stroke="#FFC83C" stroke-width="2" stroke-miterlimit="10"/>
<path d="M44.195 303.444C44.7147 301.884 44.8259 300.218 44.5181 298.604C43.5628 294.701 39.2498 292.673 35.3162 291.792C29.9934 290.457 24.3988 290.661 19.1882 292.379C16.4005 293.489 13.9094 295.228 11.9105 297.458C9.91159 299.689 8.45945 302.351 7.66823 305.234C6.26336 310.718 7.99133 316.313 15.0157 318.831C20.5369 320.803 27.0414 319.656 32.5626 316.662C38.0838 313.669 42.6215 308.843 44.195 303.444Z" stroke="#FFC83C" stroke-width="2" stroke-miterlimit="10"/>
<path d="M-59.2181 454.695C-50.1567 442.106 -33.4527 437.91 -18.2239 434.623C6.57219 429.223 32.745 422.789 50.5448 404.786L50.6431 404.688C51.5522 403.742 52.1514 402.544 52.3612 401.251C52.571 399.959 52.3816 398.633 51.8181 397.45C51.2545 396.268 50.3433 395.283 49.2053 394.627C48.0672 393.971 46.756 393.675 45.4451 393.778C37.2547 394.491 29.0783 396.267 20.8457 396.841C-8.08066 398.883 -35.7848 386.266 -62.0419 373.943" stroke="#FFC83C" stroke-width="2" stroke-miterlimit="10"/>
<path d="M147.763 369.033C154.928 371.831 160.589 380.014 168.148 378.545C172.826 377.636 175.987 373.062 176.998 368.431C178.01 363.801 177.378 358.99 177.293 354.262C177.068 340.693 181.508 327.489 186.242 314.788C187.247 312.589 187.787 310.209 187.83 307.794C187.824 306.585 187.439 305.408 186.728 304.427C186.018 303.447 185.018 302.712 183.868 302.324C180.96 301.653 178.249 304.059 176.45 306.395C170.831 313.585 166.771 322.089 160.421 328.776C153.776 335.686 144.967 340.12 136.173 343.966C129.303 346.96 115.366 352.457 120.171 362.319C124.976 372.18 139.6 365.844 147.763 369.033Z" stroke="#FFC83C" stroke-width="2" stroke-miterlimit="10"/>
<path d="M1040.66 330.342C1004.13 340.819 967.718 322.299 935.462 307.038C909.022 294.533 880.082 284.111 850.411 284.517C822.735 284.909 798.178 297.792 771.738 304.268C737.36 312.661 702.73 297.498 668.156 300.072C629.592 302.869 611.132 329.237 600.652 363.801C589.23 401.471 572.091 436.217 534.412 453.128C491.212 472.502 442.126 468.389 397.886 483.902C366.895 494.799 322.795 526.705 344.655 564.836" stroke="#FFC83C" stroke-width="2" stroke-miterlimit="10"/>
<path d="M960.975 349.016C957.056 347.771 953.15 346.484 949.329 345.127C914.797 332.818 882.653 316.745 844.722 320.228C815.416 322.928 788.681 336.077 759.488 338.637C727.33 341.434 697.434 332.566 666.766 346.33C641.394 357.688 620.307 378.6 611.976 405.387C601.622 438.819 617.356 465.256 638.219 490.392C660.795 517.627 674.057 555.045 700.834 578.601C727.611 602.156 767.355 610.367 801.634 615.641C846.224 622.424 891.539 623.069 936.306 617.557C986.488 611.249 1053.36 602.268 1069.14 545.029C1077.45 514.857 1078.51 480.685 1073.91 449.799C1064.23 385.007 1017.03 366.725 960.975 349.016Z" stroke="#FFC83C" stroke-width="2" stroke-miterlimit="10"/>
<path d="M1036.8 533.84C1043.82 508.284 1044.64 479.287 1040.66 453.241C1032.37 398.59 992.5 382.867 945.24 367.607C941.869 366.515 938.525 365.382 935.237 364.193C905.566 353.437 877.75 339.868 845.115 342.652C820.319 344.862 797.658 355.787 772.946 357.885C745.748 360.207 720.474 352.933 694.386 364.249C672.329 373.817 653.799 391.4 646.142 414.173C636.519 442.638 648.952 465.55 666.232 487.414C684.945 511.109 696.675 543.17 720.46 563.564C743.626 583.357 777.54 590.449 807.225 594.967C845.543 600.774 884.482 601.301 922.945 596.534C966.355 591.009 1023.37 582.798 1036.8 533.84Z" stroke="#FFC83C" stroke-width="2" stroke-miterlimit="10"/>
<path d="M1004.46 522.537C1010.22 501.583 1010.76 477.887 1007.41 456.569C1000.49 412.046 967.972 398.911 929.506 386.084C926.696 385.147 923.887 384.154 921.077 383.132C896.281 373.956 872.763 362.766 845.452 364.948C825.138 366.585 806.565 375.355 786.335 377.006C764.082 378.838 743.43 373.145 722.006 382.027C703.251 389.805 687.277 404.058 680.253 422.816C671.388 446.302 680.52 465.718 694.203 484.294C709.095 504.464 719.28 531.167 740.101 548.387C759.53 564.431 787.74 570.53 812.817 574.292C844.864 579.121 877.425 579.535 909.585 575.523C946.21 570.781 993.358 563.438 1004.46 522.537Z" stroke="#FFC83C" stroke-width="2" stroke-miterlimit="10"/>
<path d="M438.544 174.53C441.48 160.724 441.887 146.414 445.568 132.762C450.631 113.979 461.545 97.279 476.742 85.0627C481.645 81.1461 487.602 76.2363 486.394 70.0956C484.989 63.2135 476.124 61.423 469.086 61.1293L407.355 58.5415C397.029 58.1078 386.1 57.8141 377.094 62.8358C371.475 65.9551 366.783 71.914 367.766 78.2226C369.325 88.3079 382.264 90.8118 391.649 94.8543C408.507 101.988 418.932 120.159 420.758 138.357C422.584 156.555 417.077 174.726 409.589 191.427C404.433 202.953 404.995 215.976 419.578 208.898C430.69 203.499 436.24 185.371 438.544 174.53Z" stroke="#FFC83C" stroke-width="2" stroke-miterlimit="10"/>
<path d="M133.573 164.906C113.54 164.724 92.832 162.836 75.243 153.366C67.9657 149.449 60.548 142.175 62.7677 134.202C64.6362 127.502 72.3771 124.285 75.9735 118.326C80.1882 111.43 79.5138 100.309 87.2125 98.0012C91.5957 96.6864 96.0492 99.4 99.9266 101.792C119.809 114.143 141.932 122.488 165.043 126.355C177.451 128.458 190.045 129.274 202.623 128.789C210.462 128.481 231.872 121.235 238.11 123.795C253.957 130.3 211.797 150.177 203.101 153.785C181.339 162.85 157.021 165.116 133.573 164.906Z" stroke="#FFC83C" stroke-width="2" stroke-miterlimit="10"/>
<path d="M631.519 -139.333C605.641 -93.9977 597.928 -36.5909 558.311 -2.5022C538.869 14.0906 513.963 22.9608 488.362 22.4104C472.627 22.0047 457.244 18.0182 441.706 15.5003C392.203 7.56463 341.448 14.3779 295.824 35.0835C269.482 47.1132 245.051 63.7169 217.151 71.69C189.25 79.6632 155.547 76.8516 136.595 55.0304C119.961 35.8528 119.203 7.4712 125.075 -17.2316C130.947 -41.9344 142.425 -65.0146 147.553 -89.8292C151.316 -108.081 151.559 -126.879 148.27 -145.222C146.148 -156.986 142.65 -168.568 142.257 -180.513C141.653 -202.391 152.245 -223.596 167.769 -239.081C183.293 -254.566 203.383 -264.875 224.105 -272.135C292.382 -296.166 367.037 -289.606 439.43 -287.857C500.683 -286.374 565.939 -287.535 617.849 -255.083C635.101 -244.299 662.806 -224.701 665.405 -202.698C668.13 -179.548 642.14 -157.853 631.519 -139.333Z" stroke="#FFC83C" stroke-width="2" stroke-miterlimit="10"/>
<path d="M537.013 -19.9588C519.106 -4.48485 496.097 3.87203 472.389 3.51304C457.89 3.3312 443.561 0.155914 429.133 -1.99824C387.211 -8.27885 343.435 -3.06132 304.871 13.7522C290.822 19.837 277.448 27.3905 263.652 33.9089C255.289 37.9812 246.583 41.3138 237.634 43.8684C213.948 50.3029 185.962 47.4213 169.567 28.4816C155.715 12.4793 154.465 -11.2863 158.708 -32.1424C162.951 -52.9985 171.815 -72.3858 175.707 -93.2978C178.546 -108.722 178.684 -124.519 176.114 -139.99C174.471 -149.921 171.731 -159.699 171.647 -169.714C171.506 -188.038 180.526 -205.761 193.97 -218.476C207.85 -231.597 225.734 -239.598 243.914 -244.928C246.499 -245.683 249.098 -246.392 251.711 -247.054C272.7 -252.369 294.124 -254.509 315.956 -255.279C354.014 -256.678 393.308 -253.88 431.83 -253.502C484.26 -252.845 540.258 -255.083 584.54 -227.107C598.687 -218.225 621.179 -202.236 623.525 -184.262C625.97 -165.392 605.262 -147.613 596.903 -132.352C576.35 -95.0324 569.311 -48.2285 537.013 -19.9588Z" stroke="#FFC83C" stroke-width="2" stroke-miterlimit="10"/>
<path d="M515.7 -37.416C499.361 -22.8265 478.232 -15.4828 456.499 -15.3709C443.223 -15.3709 429.961 -17.7069 416.628 -19.4974C381.956 -24.1554 345.949 -20.5465 313.974 -7.57959C302.313 -2.86564 291.145 3.00934 279.709 8.21288C272.768 11.4592 265.552 14.0852 258.144 16.0601C238.616 20.9699 216.405 18.0045 202.567 1.8623C191.497 -10.9787 189.755 -30.0443 192.382 -47.0957C194.953 -63.8813 201.233 -79.8137 203.888 -96.8231C205.814 -109.407 205.852 -122.206 204 -134.801C202.82 -142.928 200.909 -150.887 201.078 -158.958C201.415 -173.743 208.861 -187.969 220.226 -197.942C232.477 -208.685 248.155 -214.406 263.778 -217.791C265.997 -218.267 268.231 -218.701 270.465 -219.092C288.433 -222.24 306.528 -222.561 325.072 -222.198C357.385 -221.54 391.242 -219.022 424.271 -219.204C467.822 -219.442 514.478 -222.561 551.244 -199.229C562.286 -192.235 579.58 -179.856 581.659 -165.924C583.809 -151.32 568.538 -137.472 562.3 -125.484C547.057 -96.0537 540.777 -59.8108 515.7 -37.416Z" stroke="#FFC83C" stroke-width="2" stroke-miterlimit="10"/>
<path d="M939.832 189.483C939.298 188.965 938.764 188.42 938.244 187.874C904.443 152.457 905.623 102.31 905.932 56.6949C906.157 25.9213 903.024 -7.64995 888.427 -35.8777C866.82 -77.7578 825.208 -86.8919 787.276 -108.447C746.127 -131.835 769.28 -169.113 796.829 -192.669C845.143 -233.934 918.042 -252.454 980.868 -245.138C1013.39 -241.361 1042.65 -225.709 1061.92 -199.132C1095.35 -152.971 1102.4 -84.43 1103.54 -29.1634C1104.84 31.3075 1094.57 91.4722 1073.28 148.12C1062.15 177.495 1051.28 191.483 1022.33 201.82C994.172 211.836 962.127 211.318 939.832 189.483Z" stroke="#FFC83C" stroke-width="2" stroke-miterlimit="10"/>
<path d="M1061.83 111.78C1051.06 135.853 1042.01 147.687 1017.94 155.828C994.158 163.871 967.55 162.542 948.992 143.854L947.671 142.455C919.742 112.549 920.136 70.2771 919.939 31.8102C919.756 5.63863 916.946 -22.6591 904.893 -46.2149C888.596 -78.0935 858.686 -87.997 830.013 -103.636C827.273 -105.132 824.534 -106.699 821.822 -108.322C788.414 -128.282 806.622 -159.168 828.847 -179.339C847.422 -195.929 869.509 -208.144 893.471 -215.078C923.044 -223.709 953.881 -224.352 981.978 -219.96C1008.05 -215.903 1031.72 -203.174 1047.36 -181.297C1074.6 -143.18 1079.95 -87.2277 1082.43 -42.1024C1085.25 9.55527 1084.28 61.6465 1061.83 111.78Z" stroke="#FFC83C" stroke-width="2" stroke-miterlimit="10"/>
<path d="M1050.38 75.4386C1040.22 94.1685 1032.74 103.848 1013.57 109.835C994.13 115.892 972.972 113.752 958.151 98.211C957.8 97.8333 957.448 97.4696 957.097 97.078C935.041 72.7109 934.718 38.3284 933.931 6.99527C933.383 -14.6022 930.84 -37.6684 921.287 -56.5102C908.404 -82.0243 884.929 -90.8787 862.619 -104.153C860.484 -105.44 858.358 -106.769 856.241 -108.14C830.588 -124.66 843.836 -149.181 860.709 -165.952C875.179 -180.284 893.184 -190.57 912.914 -195.775C937.218 -201.971 961.185 -199.523 983.158 -194.74C1002.83 -190.431 1020.93 -180.584 1032.95 -163.392C1053.77 -133.388 1057.69 -89.9275 1061.31 -55.0554C1065.81 -11.9165 1074.24 31.4743 1050.38 75.4386Z" stroke="#FFC83C" stroke-width="2" stroke-miterlimit="10"/>
<path d="M1038.93 39.0981C1029.73 52.5825 1023.48 59.9961 1009.19 63.8288C994.101 67.8994 978.423 64.9479 967.31 52.5685C967.057 52.2748 966.79 51.981 966.538 51.6733C950.382 32.8035 949.258 6.31024 947.923 -17.847C946.982 -34.8844 944.734 -52.6911 937.766 -66.805C928.311 -85.9825 911.27 -93.7878 895.324 -104.698C893.779 -105.748 892.276 -106.867 890.759 -107.972C872.846 -121.009 881.121 -139.249 892.669 -152.593C902.503 -163.924 916.805 -173.38 932.413 -176.471C951.449 -180.262 968.476 -174.792 984.253 -169.477C997.487 -165.043 1010.09 -157.951 1018.46 -145.459C1033.09 -123.596 1035.71 -92.6268 1040.2 -67.952C1046.52 -33.2338 1064.71 1.31652 1038.93 39.0981Z" stroke="#FFC83C" stroke-width="2" stroke-miterlimit="10"/>
<path d="M1027.48 2.75716C1019.67 11.2339 1014.12 16.0877 1004.82 17.8362C994.046 19.8645 983.847 16.1717 976.471 6.9256L975.965 6.28216C965.682 -7.06239 963.757 -25.6944 961.916 -42.6758C960.512 -55.1392 958.629 -67.6864 954.19 -77.1143C948.163 -89.9273 937.542 -96.6975 927.975 -105.23C927.047 -106.069 926.148 -106.937 925.165 -107.804C914.966 -117.288 918.239 -129.415 924.547 -139.221C930.335 -148.243 940.548 -156.007 951.815 -157.182C965.583 -158.58 975.488 -150.369 985.294 -144.299C992.051 -140.102 999.174 -135.402 1003.92 -127.611C1012.27 -113.805 1014.3 -95.2707 1019.04 -80.8491C1027.78 -54.4118 1056.18 -28.3661 1027.48 2.75716Z" stroke="#FFC83C" stroke-width="2" stroke-miterlimit="10"/>
<path d="M13.217 107.975C22.5875 101.611 28.3756 90.7839 31.0167 79.7055C40.317 40.1754 23.585 -1.35495 37.9007 -40.4794C49.5331 -72.3021 66.8833 -106.223 66.1246 -140.843C65.0991 -187.451 16.1532 -196.795 -22.6074 -189.116C-49.7215 -183.689 -68.9684 -163.784 -77.2291 -137.864C-94.3545 -83.6464 -85.3352 -19.4974 -72.3822 34.832C-65.8636 62.1226 -48.9348 103.093 -19.3622 112.339C-14.1626 114.013 -8.66296 114.557 -3.23427 113.935C2.19441 113.312 7.42582 111.537 12.1071 108.731L13.217 107.975Z" stroke="#FFC83C" stroke-width="2" stroke-miterlimit="10"/>
<path d="M-22.6918 82.9783C-18.4466 84.1123 -14.0134 84.3696 -9.66458 83.7346C-5.3158 83.0995 -1.14345 81.5855 2.59592 79.2855L3.50904 78.67C11.0111 73.4106 15.7736 64.7939 18.1198 55.8836C26.549 24.0889 14.7902 -9.98587 26.4648 -40.8714C31.6347 -54.5936 37.9285 -68.7774 42.1291 -83.325C46.2263 -97.2927 47.5716 -111.918 46.0908 -126.394C42.2696 -161.546 6.13619 -168.358 -24.0546 -161.937C-45.1277 -157.433 -60.0756 -141.865 -66.9595 -121.89C-82.0619 -78.1215 -76.7936 -26.1001 -67.1843 18.6615C-62.1689 41.9935 -48.387 76.5159 -22.6918 82.9783Z" stroke="#FFC83C" stroke-width="2" stroke-miterlimit="10"/>
<path d="M-25.9793 53.618C-19.3752 54.8306 -12.5553 53.4845 -6.91513 49.8553L-6.24082 49.3797C-0.621305 45.2952 3.12977 38.8187 5.22304 32.0765C12.6689 8.01721 6.05192 -18.5879 15.0572 -41.2345C19.623 -52.7606 24.8913 -64.7203 27.7011 -77.0437C30.5108 -89.3671 28.839 -101.607 26.1697 -111.79C20.0304 -135.178 -3.79625 -139.766 -25.4033 -134.604C-40.4214 -131.037 -51.0704 -119.819 -56.6056 -105.761C-69.7412 -72.4137 -68.2661 -32.534 -61.888 2.6458C-58.4741 21.8793 -47.9235 50.0371 -25.9793 53.618Z" stroke="#FFC83C" stroke-width="2" stroke-miterlimit="10"/>
<path d="M-29.2815 24.2571C-24.6626 24.4483 -20.1125 23.0941 -16.3566 20.4104C-16.2008 20.3017 -16.0508 20.1849 -15.9071 20.0607C-12.1562 16.8993 -9.29498 12.8213 -7.60427 8.22684C-1.07159 -8.08317 -2.50457 -27.1908 3.63475 -41.6404C7.61055 -50.9704 11.9235 -60.692 13.1317 -70.7913C14.3399 -80.8907 11.9095 -91.3397 6.10735 -97.2846C2.17369 -109.972 -13.842 -111.273 -26.8792 -107.384C-35.8283 -104.698 -42.3329 -97.8721 -46.3789 -89.7171C-57.7725 -66.8048 -59.936 -39.0246 -56.7188 -13.4685C-54.8222 1.77839 -47.6573 23.8375 -29.2815 24.2571Z" stroke="#FFC83C" stroke-width="2" stroke-miterlimit="10"/>
<path d="M439.837 107.107C440.188 104.31 439.991 101.372 440.413 98.5465C441.154 93.7441 443.601 89.3662 447.311 86.2091C449.46 84.4046 452.031 83.0198 453.787 80.8237C455.543 78.6276 456.203 75.1586 454.251 73.1303C453.133 72.1226 451.709 71.5168 450.205 71.4098C445.217 70.7104 440.202 72.0533 435.229 72.8086C430.516 73.526 425.739 73.7277 420.983 73.4101C416.108 73.0883 410.166 72.6967 407.454 76.7392C404.743 80.7817 407.735 86.6147 411.599 89.86C414.914 92.6575 419.157 94.7977 421.601 98.4905C424.046 102.183 423.976 106.883 425.956 110.828C430.255 119.277 438.797 115.808 439.837 107.107Z" stroke="#FFC83C" stroke-width="2" stroke-miterlimit="10"/>
<path d="M881.964 205.597C875.291 191.791 873.338 176.222 871.639 161.045C871.495 158.309 870.867 155.619 869.784 153.1C869.222 151.85 868.342 150.767 867.231 149.96C866.119 149.153 864.815 148.649 863.448 148.498C860.849 148.414 858.545 150.05 856.578 151.715C844.51 161.94 836.91 176.334 826.177 187.986C811.454 204.03 791.35 214.353 770.6 221.04C749.85 227.726 728.159 231.111 706.748 235.307C704.49 235.587 702.324 236.371 700.412 237.601C699.472 238.239 698.768 239.165 698.408 240.239C698.048 241.313 698.051 242.474 698.417 243.546C699.218 245.309 701.227 246.176 703.053 246.819C725.66 254.802 750.236 255.385 773.199 248.484C788.245 243.896 802.167 236.202 817.073 231.139C834.957 225.068 854.864 222.97 872.692 229.209C877.033 230.733 905.412 245.896 903.979 233.251C903.529 229.334 894.749 224.019 892.094 220.956C888.051 216.304 884.645 211.139 881.964 205.597V205.597Z" stroke="#FFC83C" stroke-width="2" stroke-miterlimit="10"/>
<path d="M860.822 184.797C860.695 184 860.583 183.189 860.47 182.377C859.712 176.852 855.539 172.586 849.99 175.817C840.676 181.188 840.591 194.589 833.581 201.96C831.109 204.562 824.154 207.556 828.285 212.144C830.027 214.074 832.907 214.536 835.506 214.368C840.746 214.032 847.194 211.668 852.364 212.605C857.885 213.613 868.759 220.551 866.413 210.577C864.488 201.919 862.198 193.512 860.822 184.797Z" stroke="#FFC83C" stroke-width="2" stroke-miterlimit="10"/>
</g>
</svg>
