<svg width="15" height="15" viewBox="0 0 15 15" fill="none" xmlns="http://www.w3.org/2000/svg">
<path d="M7.50025 3.75C6.84841 3.75083 6.22349 4.01014 5.76257 4.47106C5.30164 4.93199 5.04233 5.5569 5.0415 6.20875H6.2915C6.2915 5.54188 6.834 5 7.50025 5C8.1665 5 8.709 5.54188 8.709 6.20875C8.709 6.5825 8.40838 6.85375 7.949 7.225C7.79893 7.34256 7.6548 7.46751 7.51713 7.59938C6.89338 8.2225 6.87525 8.88438 6.87525 8.95813V9.375H8.12525L8.12463 8.97937C8.12525 8.96937 8.14525 8.73813 8.40025 8.48375C8.494 8.39 8.61213 8.29625 8.73463 8.1975C9.2215 7.80312 9.95838 7.2075 9.95838 6.20875C9.95788 5.55691 9.69876 4.9319 9.2379 4.47092C8.77704 4.00994 8.15209 3.75066 7.50025 3.75ZM6.87525 10H8.12525V11.25H6.87525V10Z" fill="#FFC83B"/>
<path d="M7.5 1.25C4.05375 1.25 1.25 4.05375 1.25 7.5C1.25 10.9463 4.05375 13.75 7.5 13.75C10.9463 13.75 13.75 10.9463 13.75 7.5C13.75 4.05375 10.9463 1.25 7.5 1.25ZM7.5 12.5C4.74313 12.5 2.5 10.2569 2.5 7.5C2.5 4.74313 4.74313 2.5 7.5 2.5C10.2569 2.5 12.5 4.74313 12.5 7.5C12.5 10.2569 10.2569 12.5 7.5 12.5Z" fill="#FFC83B"/>
</svg>
