<svg width="31" height="30" viewBox="0 0 31 30" fill="none" xmlns="http://www.w3.org/2000/svg">
<path d="M23.475 7.3H23.4898M8.25 1H22.75C26.7541 1 30 4.13401 30 8V22C30 25.866 26.7541 29 22.75 29H8.25C4.24594 29 1 25.866 1 22V8C1 4.13401 4.24594 1 8.25 1ZM21.2998 14.118C21.4787 15.2831 21.2726 16.4731 20.7107 17.5186C20.1488 18.5641 19.2598 19.412 18.1701 19.9415C17.0804 20.4711 15.8455 20.6554 14.6411 20.4683C13.4366 20.2812 12.3239 19.7321 11.4613 18.8992C10.5986 18.0663 10.03 16.992 9.83616 15.8291C9.64235 14.6662 9.83326 13.4738 10.3817 12.4217C10.9302 11.3696 11.8083 10.5112 12.8912 9.96873C13.9741 9.42624 15.2065 9.22722 16.4133 9.4C17.6442 9.57623 18.7838 10.13 19.6637 10.9796C20.5436 11.8292 21.1172 12.9295 21.2998 14.118Z" stroke="white" stroke-width="2" stroke-linecap="round" stroke-linejoin="round"/>
</svg>
