<svg width="16" height="14" viewBox="0 0 16 14" fill="none" xmlns="http://www.w3.org/2000/svg">
<path d="M5.22613 12.1223C5.32961 12.2667 5.46603 12.3844 5.62407 12.4656C5.78212 12.5468 5.95724 12.5891 6.13492 12.5891C6.3126 12.5891 6.48772 12.5468 6.64576 12.4656C6.80381 12.3844 6.94022 12.2667 7.04371 12.1223L14.4476 1.85664C14.5812 1.67031 14.4476 1.41016 14.2191 1.41016H12.5703C12.2117 1.41016 11.8707 1.58242 11.6597 1.87773L6.13668 9.54179L3.63355 6.06836C3.42261 5.77656 3.08511 5.60078 2.723 5.60078H1.07418C0.84566 5.60078 0.712066 5.86094 0.84566 6.04726L5.22613 12.1223Z" fill="#FFC83B" stroke="#FFC83B"/>
</svg>
