<svg width="346" height="33" viewBox="0 0 346 33" fill="none" xmlns="http://www.w3.org/2000/svg">
<path d="M232.975 23.8097V32.2028H201.176C199.403 32.2028 197.899 31.5938 196.666 30.3757C195.432 29.1577 194.816 27.6732 194.816 25.9222V0.799942H205.396V23.8097H232.975Z" fill="#FFC83C"/>
<path d="M241.231 32.2028V0.799942H251.87V32.2028H241.231Z" fill="#FFC83C"/>
<path d="M298.312 0.799942V25.9222C298.312 27.6732 297.696 29.1577 296.462 30.3757C295.229 31.5938 293.726 32.2028 291.953 32.2028H286.518L270.734 12.733V32.2028H260.153V7.08052C260.153 5.32957 260.77 3.84507 262.003 2.62702C263.237 1.40897 264.74 0.799942 266.513 0.799942H271.948L287.732 20.2697V0.799942H298.312Z" fill="#FFC83C"/>
<path d="M318.421 9.19307V12.3334H341.259V20.6694H318.421V23.8097H346V32.2028H314.201C312.428 32.2028 310.924 31.5938 309.691 30.3757C308.458 29.1577 307.841 27.6732 307.841 25.9222V7.08052C307.841 5.32957 308.458 3.84507 309.691 2.62702C310.924 1.40897 312.428 0.799942 314.201 0.799942H346V9.19307H318.421Z" fill="#FFC83C"/>
<path d="M31.7993 0.799942C33.5723 0.799942 35.0756 1.40897 36.309 2.62702C37.5424 3.84507 38.1591 5.32957 38.1591 7.08052V15.4736C38.1591 17.1865 37.5424 18.671 36.309 19.9271C35.0756 21.1452 33.5723 21.7542 31.7993 21.7542H10.5805V32.2028H0V0.799942H31.7993ZM27.5786 13.3611V9.19307H10.5805V13.3611H27.5786Z" fill="#FFC83C"/>
<path d="M79.4869 0.799942C81.2599 0.799942 82.7632 1.40897 83.9966 2.62702C85.23 3.84507 85.8467 5.32957 85.8467 7.08052V15.4736C85.8467 17.1865 85.23 18.671 83.9966 19.9271C82.7632 21.1452 81.2599 21.7542 79.4869 21.7542H77.0008L85.8467 32.2028H74.8037L65.8999 21.7542H58.2681V32.2028H47.6876V0.799942H79.4869ZM75.2663 13.3611V9.19307H58.2681V13.3611H75.2663Z" fill="#FFC83C"/>
<path d="M122.954 23.8097V9.19307H105.956V23.8097H122.954ZM127.174 0.799942C128.948 0.799942 130.451 1.40897 131.684 2.62702C132.918 3.84507 133.534 5.32957 133.534 7.08052V25.9222C133.534 27.6732 132.918 29.1577 131.684 30.3757C130.451 31.5938 128.948 32.2028 127.174 32.2028H101.735C99.962 32.2028 98.4588 31.5938 97.2254 30.3757C95.9919 29.1577 95.3752 27.6732 95.3752 25.9222V7.08052C95.3752 5.32957 95.9919 3.84507 97.2254 2.62702C98.4588 1.40897 99.962 0.799942 101.735 0.799942H127.174Z" fill="#FFC83C"/>
<path d="M185.443 7.08052V32.2028H174.804V15.7591L164.224 32.2028L153.643 15.7591V32.2028H143.005V7.08052C143.005 5.32957 143.622 3.84507 144.855 2.62702C146.127 1.40897 147.63 0.799942 149.365 0.799942H154.048L164.224 16.6156L174.4 0.799942H179.083C180.817 0.799942 182.301 1.40897 183.535 2.62702C184.807 3.84507 185.443 5.32957 185.443 7.08052Z" fill="#FFC83C"/>
</svg>
