<svg width="20" height="20" viewBox="0 0 20 20" fill="none" xmlns="http://www.w3.org/2000/svg">
<path d="M14.062 11.6531C14.062 12.4853 14.2985 12.8173 14.917 12.8173C16.2955 12.8173 17.1732 11.0586 17.1732 8.13366C17.1732 3.66307 13.9195 1.52289 9.85724 1.52289C5.67823 1.52289 1.87724 4.3289 1.87724 9.63178C1.87724 14.6969 5.20224 17.4553 10.3085 17.4553C12.0422 17.4553 13.206 17.2651 14.9863 16.6706L15.3682 18.2628C13.6107 18.8345 11.7325 19 10.2847 19C3.58724 19 0 15.3141 0 9.63079C0 3.89987 4.15724 0 9.88099 0C15.8422 0 19 3.56696 19 7.94243C19 11.6521 17.8372 14.4819 14.1797 14.4819C12.5163 14.4819 11.4247 13.816 11.2822 12.3407C10.8547 13.9815 9.71474 14.4819 8.17 14.4819C6.10375 14.4819 4.37 12.8876 4.37 9.67835C4.37 6.4443 5.89099 4.44681 8.62224 4.44681C10.071 4.44681 10.9735 5.01752 11.3753 5.92115L12.065 4.66083H14.06V11.6531H14.062ZM11.1417 8.51413C11.1417 7.20724 10.167 6.65931 9.35948 6.65931C8.48073 6.65931 7.50797 7.37171 7.50797 9.46532C7.50797 11.1299 8.24422 12.0573 9.35948 12.0573C10.1432 12.0573 11.1417 11.5579 11.1417 10.1787V8.51413Z" fill="white"/>
</svg>
