<svg width="913" height="646" viewBox="0 0 913 646" fill="none" xmlns="http://www.w3.org/2000/svg">
<mask id="mask0_141_126" style="mask-type:alpha" maskUnits="userSpaceOnUse" x="0" y="-397" width="1201" height="1043">
<path d="M1201 -397L0 70.8569L1201 646L1201 124.519V-397Z" fill="#767676"/>
</mask>
<g mask="url(#mask0_141_126)">
<path d="M340.818 -38.5988C326.973 -30.6234 314.026 -21.1895 302.201 -10.4591C239.257 47.104 250.953 163.444 332.191 200.061C373.295 218.598 419.498 205.952 456.332 183.616C495.602 159.768 518.077 118.121 553.642 90.0873C582.608 67.2239 621.719 63.8119 654.197 48.1593C683.622 34.0895 714.618 -1.59513 698.652 -36.5938C676.83 -84.4488 600.779 -84.0794 556.552 -84.906C486.57 -86.1371 404.256 -75.5145 340.818 -38.5988Z" stroke="#EBEBEB" stroke-width="2" stroke-miterlimit="10"/>
<path d="M661.266 -26.9524C643.081 -66.9988 580.59 -67.5082 543.426 -68H536.371C479.841 -68 414.774 -58.0938 363.906 -28.4278C352.4 -21.7709 341.624 -13.9357 331.752 -5.04987C292.084 30.9216 286.616 93.8015 314.114 136.237C323.438 150.7 336.534 162.368 352.001 169.995C368.8 178.211 387.787 180.899 406.22 177.671C424.634 174.702 442.519 167.009 458.393 157.314C490.689 137.677 509.544 103.76 538.841 80.7689C562.722 62.0455 594.736 58.8312 621.545 45.9742C647.35 33.5738 675.236 4.06596 661.266 -26.9524Z" stroke="#EBEBEB" stroke-width="2" stroke-miterlimit="10"/>
<path d="M623.835 -16.0645C609.391 -48.5199 560.343 -49.7709 530.255 -50H524.629C479.744 -49.6652 427.91 -41.1021 387.064 -17.0865C377.878 -11.7246 369.257 -5.44953 361.332 1.64318C329.375 30.4161 323.678 79.7158 343.519 113.968C350.341 125.607 360.11 135.245 371.844 141.913C385.403 149.671 401.202 152.586 416.641 150.177C432.178 147.869 447.152 141.173 460.52 132.945C485.811 117.369 501.084 91.0981 524.1 73.038C542.901 58.3608 567.821 55.4183 588.879 45.2342C611.066 34.6095 635.916 11.0697 623.835 -16.0645Z" stroke="#EBEBEB" stroke-width="2" stroke-miterlimit="10"/>
<path d="M585.421 -6.37483C574.657 -30.9943 539.156 -33.0518 516.147 -32.999H511.953C478.726 -32.3836 440.159 -25.156 409.433 -6.93757C402.569 -2.90384 396.109 1.77768 390.141 7.04274C365.934 28.4441 359.908 63.9841 372.171 89.7994C376.452 98.5936 382.903 106.158 390.916 111.781C401.149 119.074 413.775 122.217 426.241 120.574C438.891 118.921 450.906 113.276 461.794 106.505C480.082 95.1277 491.657 76.6103 508.483 63.6148C522.19 53.0636 539.984 50.3027 555.312 42.952C573.811 34.2121 595.552 16.7851 585.421 -6.37483Z" stroke="#EBEBEB" stroke-width="2" stroke-miterlimit="10"/>
<path d="M548.02 3.41667C540.869 -13.4696 518.923 -16.3251 502.965 -15.9725L500.182 -15.8844C478.571 -14.9678 453.226 -9.04526 432.548 3.50483C428.009 6.22964 423.703 9.3248 419.673 12.7588C403.17 26.86 396.776 48.8579 401.532 66.3082C403.219 72.3509 406.378 77.8804 410.726 82.4012C414.046 85.8329 418.101 88.4649 422.587 90.0985C427.072 91.7321 431.869 92.3247 436.617 91.8314C446.41 90.8443 455.604 86.2438 463.899 80.9559C475.225 73.7642 483.151 62.8887 493.754 54.8862C502.366 48.382 513.128 45.879 522.657 41.2609C537.54 34.0516 556.157 22.6825 548.02 3.41667Z" stroke="#EBEBEB" stroke-width="2" stroke-miterlimit="10"/>
<path d="M430.912 41.999C429.83 45.254 429.708 48.7473 430.56 52.0687C432.601 58.6306 440.135 62.2955 447.035 61.9813C453.934 61.6672 460.271 58.1768 466.026 54.3549C473.965 49.1194 481.41 42.9065 490.052 38.8402C501.3 33.6047 516.701 28.3692 510.629 13.1337C506.844 3.67484 497.832 0.0797699 488.416 1.19669C467.435 3.6923 436.878 21.0743 430.912 41.999Z" stroke="#EBEBEB" stroke-width="2" stroke-miterlimit="10"/>
<path d="M630.518 -166.84C628.189 -146.737 625.877 -128.445 606.151 -117.901C586.849 -107.586 568.693 -109.256 547.608 -109.115C523.638 -108.959 499.706 -107.198 475.973 -103.844C419.371 -95.8659 360.687 -81.4919 313.489 -47.8941C260.151 -9.92087 229.203 56.2204 240.213 121.641C248.276 169.613 282.4 209.66 327.992 227.408C372.65 244.786 424.329 237.635 465.016 213.35C500.005 192.527 523.242 158.191 552.213 130.515C583.655 100.414 629.124 90.4333 666.688 70.3484C685.514 60.2796 703.529 47.5047 715.05 29.2297C729.483 6.38605 725.637 -20.8683 731.301 -46.172C736.594 -70.3512 751.962 -90.3834 771.3 -105.443C808.035 -134.068 855.744 -143.855 892.903 -171.408C904.724 -180.194 914.94 -191.739 919.581 -205.674C937.948 -260.71 896.238 -305.044 846.622 -322.019C790.62 -341.172 727.507 -324.654 684.297 -285.293C649.238 -253.417 635.846 -212.667 630.518 -166.84Z" stroke="#EBEBEB" stroke-width="2" stroke-miterlimit="10"/>
<path d="M427 432C461.097 406.078 483.052 367.511 500.4 328.383C517.749 289.254 531.568 248.492 553.893 212.033C576.219 175.573 608.886 142.995 650.36 132.037C707.877 116.845 768.482 145.665 827.693 139.536C888.175 133.266 938.438 91.977 994.878 69.4095C1016.37 60.8082 1038.86 54.937 1061.82 51.935C1086.67 48.7036 1112.44 48.9846 1136.19 56.9227C1159.95 64.8609 1181.56 81.1762 1192.15 103.779C1211.37 144.787 1191.04 192.099 1176.41 234.951C1160.53 281.579 1151.7 333.563 1169.48 379.489C1174.19 391.624 1184.3 404.919 1197.13 402.443" stroke="#EBEBEB" stroke-width="2" stroke-miterlimit="10"/>
<path d="M1095.7 -527.983C1024.87 -529.353 952.343 -449.334 1000.12 -383.964C1028.24 -345.5 1048.29 -304.525 1038.64 -255.611C1028.99 -206.698 991.793 -178.105 950.42 -153.621C905.923 -127.277 747.838 -30.8366 834.573 31.355C897.701 76.6331 986.059 -3.10413 1041.39 -29.0802C1108.6 -61.0106 1185.57 -65.9787 1256.36 -42.9552C1302.71 -27.9562 1372.36 11.4909 1417 -27.5171" stroke="#EBEBEB" stroke-width="2" stroke-miterlimit="10"/>
<path d="M34 -103.056C78.2954 -127.154 139.539 -113.602 169.393 -73.069C202.601 -28.0185 194.78 33.5195 197.146 89.3449C198.77 128.103 206.327 167.265 224.917 201.347C243.507 235.43 274.103 264.098 311.424 275.031C328.779 280.111 347.069 281.306 364.547 285.911C382.025 290.517 399.591 299.463 408.383 315.195C414.969 326.989 415.798 341.174 414.457 354.603C409.16 407.564 369.579 455.532 318.433 471" stroke="#EBEBEB" stroke-width="2" stroke-miterlimit="10"/>
<path d="M1116.49 -515C1035.71 -506.424 1034.59 -419.908 1054.98 -361.017C1074.17 -305.624 1091.14 -242.323 1045.42 -194.698C1001.03 -148.461 945.644 -121.907 893.876 -85.7397C867.277 -67.164 818.031 -25.9884 855.654 5.75011C886.221 31.6189 955.557 -10.3476 984.413 -24.4243C1057.96 -60.4157 1130.81 -94.7199 1214.5 -76.6715C1270.82 -64.5104 1330.65 -25.9532 1389 -51.699" stroke="#EBEBEB" stroke-width="2" stroke-miterlimit="10"/>
<path d="M765.153 -37.2267C761.474 -19.854 760.964 -1.84774 756.352 15.3313C750.008 38.9658 736.333 59.98 717.291 75.3521C711.148 80.2805 703.684 86.4586 705.198 94.1857C706.958 102.846 718.066 105.099 726.885 105.468L804.231 108.724C817.169 109.27 830.864 109.64 842.148 103.321C849.189 99.3957 855.068 91.8975 853.836 83.9592C851.882 71.2686 835.67 68.1179 823.911 63.0311C802.788 54.0544 789.727 31.1902 787.438 8.29068C785.15 -14.6088 792.05 -37.4731 801.432 -58.4892C807.893 -72.9928 807.189 -89.3797 788.917 -80.4734C774.993 -73.6793 768.04 -50.8678 765.153 -37.2267Z" stroke="#EBEBEB" stroke-width="2" stroke-miterlimit="10"/>
<path d="M522.805 356.515C555.303 299.5 564.989 227.303 614.742 184.432C639.158 163.564 670.435 152.408 702.586 153.1C722.346 153.611 741.665 158.624 761.178 161.791C823.346 171.771 887.085 163.202 944.382 137.162C977.462 122.033 1008.14 101.152 1043.18 91.1243C1078.22 81.097 1120.55 84.6329 1144.35 112.076C1165.24 136.195 1166.19 171.889 1158.81 202.956C1151.44 234.023 1137.02 263.05 1130.59 294.258C1125.86 317.212 1125.55 340.853 1129.69 363.921C1132.35 378.716 1136.74 393.282 1137.24 408.306C1138 435.819 1124.69 462.489 1105.2 481.963C1085.7 501.437 1060.47 514.402 1034.45 523.532C948.704 553.755 854.95 545.505 764.036 543.306C687.113 541.441 605.162 542.901 539.971 502.088C518.306 488.525 483.514 463.878 480.25 436.206C476.827 407.092 509.467 379.807 522.805 356.515Z" stroke="#EBEBEB" stroke-width="2" stroke-miterlimit="10"/>
<path d="M641.953 206.255C664.454 186.774 693.365 176.253 723.154 176.705C741.371 176.934 759.377 180.931 777.506 183.643C830.18 191.55 885.185 184.982 933.64 163.814C951.293 156.154 968.098 146.644 985.432 138.438C995.94 133.311 1006.88 129.116 1018.12 125.899C1047.89 117.799 1083.05 121.426 1103.65 145.271C1121.06 165.417 1122.63 195.336 1117.3 221.593C1111.96 247.85 1100.83 272.258 1095.94 298.585C1092.37 318.003 1092.2 337.89 1095.42 357.368C1097.49 369.871 1100.93 382.18 1101.04 394.789C1101.21 417.858 1089.88 440.171 1072.99 456.178C1055.55 472.697 1033.08 482.77 1010.23 489.479C1006.99 490.43 1003.72 491.322 1000.44 492.156C974.064 498.848 947.144 501.542 919.713 502.511C871.893 504.272 822.519 500.75 774.116 500.274C708.238 499.446 637.876 502.264 582.235 467.044C564.46 455.861 536.198 435.733 533.25 413.104C530.179 389.348 556.198 366.965 566.701 347.752C592.527 300.769 601.371 241.845 641.953 206.255Z" stroke="#EBEBEB" stroke-width="2" stroke-miterlimit="10"/>
<path d="M668.011 224.08C688.51 205.702 715.019 196.451 742.286 196.31C758.942 196.31 775.581 199.253 792.308 201.508C835.808 207.376 880.983 202.83 921.099 186.495C935.729 180.557 949.741 173.156 964.088 166.601C972.796 162.512 981.85 159.204 991.144 156.716C1015.64 150.531 1043.51 154.267 1060.87 174.601C1074.76 190.777 1076.95 214.794 1073.65 236.274C1070.42 257.419 1062.55 277.489 1059.21 298.916C1056.8 314.767 1056.75 330.89 1059.07 346.756C1060.55 356.994 1062.95 367.02 1062.74 377.187C1062.32 395.812 1052.98 413.732 1038.72 426.296C1023.35 439.829 1003.68 447.036 984.076 451.3C981.291 451.899 978.489 452.445 975.686 452.939C953.143 456.903 930.441 457.308 907.175 456.85C866.636 456.022 824.157 452.85 782.719 453.079C728.079 453.379 669.544 457.308 623.418 427.917C609.564 419.107 587.867 403.512 585.258 385.962C582.561 367.566 601.72 350.121 609.546 335.02C628.67 297.946 636.549 252.291 668.011 224.08Z" stroke="#EBEBEB" stroke-width="2" stroke-miterlimit="10"/>
<path d="M695.393 250.012C714.146 232.78 737.984 224.64 763.041 224.041C778.191 223.689 793.518 225.803 808.951 227.477C843.419 231.406 878.965 228.781 910.802 217.275C922.509 213.1 933.757 207.761 945.146 202.898C952.055 199.807 959.238 197.365 966.6 195.604C985.9 191.322 1006.54 195.234 1020.77 211.954C1031.14 224.147 1033.97 242.242 1032.73 258.962C1031.53 275.049 1026.94 290.677 1025.14 307.204C1023.85 319.484 1023.92 331.867 1025.33 344.134C1026.23 352.062 1027.59 359.797 1027.1 367.55C1026.49 374.729 1024.39 381.703 1020.94 388.03C1017.48 394.357 1012.75 399.899 1007.04 404.303C993.652 414.875 976.771 419.192 960.297 420.989C957.966 421.253 955.617 421.447 953.233 421.606C934.463 422.839 915.905 420.954 896.728 419.068C863.178 415.721 827.633 412.743 793.006 413.783C749.444 415.104 702.439 420.319 665.728 396.657C655.734 390.226 640.548 379.196 638.288 366.704C635.957 353.666 648.388 341.174 653.509 330.179C666.046 303.169 672.915 270.679 695.393 250.012Z" stroke="#EBEBEB" stroke-width="2" stroke-miterlimit="10"/>
<path d="M721.615 272.63C738.506 256.566 759.685 249.657 782.471 248.57C796.356 248.26 810.246 248.846 824.054 250.324C849.364 252.463 875.238 251.551 898.713 244.957C907.538 242.52 915.886 239.328 924.305 236.189C929.433 234.144 934.754 232.617 940.19 231.63C954.309 229.297 967.617 233.278 978.631 246.36C985.514 254.532 988.867 266.632 989.732 278.54C990.544 289.553 989.274 300.706 989.026 312.227C988.85 320.873 989.185 329.659 989.662 338.006C990.179 343.44 990.102 348.914 989.432 354.332C988.602 359.245 986.753 363.933 984.004 368.099C981.254 372.265 977.663 375.818 973.459 378.533C962.005 385.933 948.008 387.529 934.736 386.863C932.853 386.757 930.982 386.617 929.123 386.442C914.156 384.951 899.789 380.795 884.716 377.498C857.6 371.342 829.739 369.062 801.974 370.729C769.587 372.974 734.217 379.585 707.072 361.698C700.965 357.682 692.316 351.176 690.41 343.898C688.433 336.27 694.117 328.782 696.499 321.925C702.377 304.95 708.025 285.572 721.615 272.63Z" stroke="#EBEBEB" stroke-width="2" stroke-miterlimit="10"/>
<path d="M839.958 271.84C805.77 270.615 771.776 269.809 748.531 294.132C743.642 299.263 739.3 305.829 740.094 312.834C740.712 318.315 744.472 323.06 749.008 326.265C766.481 338.662 790.326 330.275 811.612 327.28C832.578 324.345 853.954 327.204 873.388 335.545C884.348 340.256 894.568 346.665 905.705 350.868C916.842 355.07 929.621 356.926 940.634 352.269C967.886 340.711 950.306 295.025 937.404 279.195C926.955 266.359 919.384 263.54 904.328 267.935C884.754 273.644 862.321 272.646 839.958 271.84Z" stroke="#EBEBEB" stroke-width="2" stroke-miterlimit="10"/>
<path d="M136.025 -56.6339C136.696 -55.9841 137.367 -55.2992 138.021 -54.6143C180.531 -10.147 179.047 52.8131 178.658 110.083C178.375 148.72 182.315 190.869 200.672 226.309C227.846 278.89 280.179 290.358 327.883 317.421C379.633 346.785 350.516 393.588 315.869 423.163C255.108 474.971 163.428 498.223 84.416 489.038C43.5142 484.296 6.7115 464.644 -17.5115 431.276C-59.5617 373.321 -68.4311 287.267 -69.8622 217.879C-71.4963 141.957 -58.5809 66.4198 -31.8051 -4.70276C-17.8119 -41.5832 -4.13674 -59.1453 32.2773 -72.1237C67.6843 -84.6982 107.985 -84.0483 136.025 -56.6339Z" stroke="#EBEBEB" stroke-width="2" stroke-miterlimit="10"/>
<path d="M-17.6937 41.1689C-4.15231 10.9459 7.21751 -3.91105 37.4605 -14.1317C67.3505 -24.2295 100.789 -22.5612 124.111 0.900746L125.771 2.65688C160.869 40.203 160.375 93.2732 160.622 141.567C160.851 174.424 164.382 209.951 179.53 239.524C200.01 279.546 237.598 291.979 273.632 311.613C277.074 313.492 280.517 315.459 283.924 317.496C325.908 342.556 303.027 381.331 275.097 406.655C251.753 427.483 223.997 442.818 193.884 451.524C156.72 462.359 117.967 463.167 82.6573 457.653C49.8897 452.56 20.141 436.579 0.49096 409.113C-33.7421 361.259 -40.4686 291.014 -43.5759 234.361C-47.1246 169.507 -45.9064 104.109 -17.6937 41.1689Z" stroke="#EBEBEB" stroke-width="2" stroke-miterlimit="10"/>
<path d="M-2.76592 86.0841C9.98564 62.585 19.3862 50.4405 43.4431 42.9292C67.8527 35.3302 94.414 38.0153 113.021 57.5131C113.462 57.9869 113.903 58.4432 114.344 58.9346C142.034 89.5063 142.44 132.644 143.427 171.955C144.115 199.052 147.307 227.992 159.301 251.631C175.474 283.642 204.945 294.751 232.953 311.406C235.634 313.02 238.303 314.688 240.96 316.408C273.165 337.134 256.533 367.899 235.351 388.941C217.185 406.922 194.581 419.827 169.812 426.357C139.3 434.131 109.211 431.06 81.6272 425.058C56.9354 419.653 34.2013 407.298 19.1216 385.729C-7.01644 348.085 -11.9372 293.558 -16.4875 249.806C-22.1314 195.683 -32.7136 141.243 -2.76592 86.0841Z" stroke="#EBEBEB" stroke-width="2" stroke-miterlimit="10"/>
<path d="M11.8412 132.156C23.3977 115.25 31.2491 105.955 49.1926 101.15C68.1418 96.047 87.8319 99.7473 101.788 115.268C102.106 115.636 102.441 116.004 102.758 116.39C123.048 140.047 124.46 173.263 126.136 203.549C127.318 224.909 130.141 247.234 138.892 264.929C150.766 288.972 172.168 298.758 192.193 312.437C194.134 313.752 196.022 315.155 197.928 316.541C220.423 332.885 210.031 355.753 195.528 372.484C183.178 386.689 165.217 398.544 145.615 402.419C121.708 407.172 100.324 400.315 80.5099 393.651C63.8897 388.092 48.0634 379.2 37.5478 363.54C19.1809 336.129 15.8816 297.302 10.2533 266.367C2.3137 222.84 -20.5347 179.523 11.8412 132.156Z" stroke="#EBEBEB" stroke-width="2" stroke-miterlimit="10"/>
<path d="M25.7885 177.645C35.6343 166.983 42.6291 160.879 54.352 158.679C67.9343 156.128 80.7905 160.773 90.0873 172.402L90.7248 173.211C103.687 189.995 106.113 213.429 108.433 234.786C110.204 250.462 112.577 266.242 118.173 278.1C125.77 294.215 139.157 302.73 151.216 313.462C152.385 314.517 153.518 315.608 154.758 316.699C167.614 328.627 163.488 343.88 155.537 356.212C148.241 367.56 135.367 377.324 121.165 378.802C103.811 380.561 91.3269 370.234 78.9665 362.599C70.4488 357.321 61.4708 351.41 55.4853 341.61C44.9666 324.246 42.3989 300.936 36.4312 282.797C25.4167 249.547 -10.3895 216.789 25.7885 177.645Z" stroke="#EBEBEB" stroke-width="2" stroke-miterlimit="10"/>
<path d="M96.7506 291.49C100.005 299.624 105.231 306.791 109.277 314.556C113.324 322.322 116.315 331.211 114.414 339.784C112.514 348.358 104.562 356 95.871 354.893C85.3149 353.558 80.0369 341.506 76.9404 331.264C73.4217 320.073 69.903 308.566 62.4962 299.483C45.3074 278.401 -2.08933 251.259 39.8886 223.835C84.9806 194.39 87.3909 268.194 96.7506 291.49Z" stroke="#EBEBEB" stroke-width="2" stroke-miterlimit="10"/>
<path d="M763.732 46.7904C763.288 50.3141 763.536 54.0141 763.004 57.5731C762.067 63.6219 758.971 69.1363 754.281 73.1129C751.563 75.3857 748.312 77.1299 746.091 79.896C743.871 82.6622 743.036 87.0317 745.505 89.5864C746.918 90.8557 748.72 91.6187 750.621 91.7535C756.928 92.6345 763.27 90.9431 769.559 89.9916C775.517 89.088 781.558 88.834 787.572 89.234C793.737 89.6393 801.251 90.1326 804.68 85.0408C808.108 79.9489 804.325 72.6019 799.439 68.5143C795.247 64.9906 789.882 62.2949 786.791 57.6435C783.7 52.9922 783.788 47.0722 781.284 42.1037C775.848 31.462 765.047 35.8315 763.732 46.7904Z" stroke="#EBEBEB" stroke-width="2" stroke-miterlimit="10"/>
<path d="M429.697 248.327C422.055 251.838 413.639 258.316 415.185 266.566C416.731 274.817 427.097 277.854 433.685 283.314C439.623 288.229 442.785 295.866 443.804 303.484C444.823 311.103 443.892 318.862 442.961 326.516C442.223 330.727 442.223 335.033 442.961 339.244C443.927 343.404 446.686 347.407 450.779 348.618C455.365 349.97 460.266 347.547 463.727 344.265C472.142 336.277 474.549 324.076 477.571 312.876C483.529 290.797 493.356 269.947 506.594 251.294C510.459 245.851 514.746 240.287 515.677 233.739C519.331 207.617 490.958 226.049 481.471 229.999C464.5 236.969 446.387 240.725 429.697 248.327Z" stroke="#EBEBEB" stroke-width="2" stroke-miterlimit="10"/>
<path d="M451.092 258.585C448.479 260.976 447.083 265.003 448.673 268.151C450.262 271.298 453.777 272.511 456.002 275.043C458.704 278.103 459.11 282.517 459.022 286.596C458.874 288.397 458.993 290.21 459.375 291.977C459.574 292.861 459.994 293.68 460.596 294.36C461.198 295.039 461.963 295.556 462.819 295.863C465.327 296.549 467.888 294.562 468.912 292.188C469.726 289.735 470.161 287.174 470.201 284.591C471.102 276.749 483.5 261.926 479.032 255.103C474.564 248.281 455.843 254.206 451.092 258.585Z" stroke="#EBEBEB" stroke-width="2" stroke-miterlimit="10"/>
</g>
</svg>
