<svg width="1232" height="671" viewBox="0 0 1232 671" fill="none" xmlns="http://www.w3.org/2000/svg">
<mask id="mask0_142_54" style="mask-type:alpha" maskUnits="userSpaceOnUse" x="0" y="-441" width="1281" height="1112">
<path d="M1281 -441L0 57.8081L1281 671V115.02V-441Z" fill="#CBCBCB"/>
</mask>
<g mask="url(#mask0_142_54)">
<path d="M364.18 85.3999C349.393 93.8907 335.565 103.934 322.936 115.358C255.71 176.641 268.202 300.5 354.966 339.483C398.866 359.218 448.212 345.755 487.552 321.976C529.493 296.586 553.497 252.248 591.481 222.402C622.419 198.061 664.19 194.429 698.877 177.765C730.304 162.786 763.408 124.795 746.357 87.5345C723.05 36.5869 641.825 36.9801 594.59 36.1C519.846 34.7894 431.933 46.0986 364.18 85.3999Z" stroke="#FFC83C" stroke-width="2" stroke-miterlimit="10"/>
<path d="M706.013 97.7065C686.592 55.066 619.855 54.5237 580.167 54H572.633C512.263 54 442.775 64.5479 388.452 96.1356C376.164 103.224 364.655 111.566 354.113 121.028C311.75 159.33 305.911 226.283 335.277 271.467C345.234 286.867 359.219 299.291 375.737 307.412C393.678 316.16 413.954 319.022 433.64 315.585C453.305 312.424 472.405 304.232 489.358 293.909C523.847 273 543.983 236.887 575.27 212.406C600.774 192.469 634.962 189.047 663.593 175.357C691.151 162.154 720.931 130.734 706.013 97.7065Z" stroke="#FFC83C" stroke-width="2" stroke-miterlimit="10"/>
<path d="M665.62 109.13C650.197 74.5758 597.824 73.2439 565.696 73H559.689C511.761 73.3564 456.413 82.4734 412.797 108.042C402.988 113.751 393.782 120.432 385.321 127.983C351.197 158.617 345.114 211.105 366.3 247.573C373.584 259.964 384.015 270.226 396.545 277.326C411.024 285.585 427.894 288.688 444.379 286.124C460.97 283.666 476.959 276.538 491.234 267.777C518.239 251.194 534.548 223.224 559.124 203.996C579.199 188.369 605.809 185.236 628.295 174.394C651.986 163.082 678.52 138.019 665.62 109.13Z" stroke="#FFC83C" stroke-width="2" stroke-miterlimit="10"/>
<path d="M625.247 119.354C613.755 93.1359 575.856 90.9448 551.292 91.001L546.815 91.001C511.342 91.6565 470.17 99.3534 437.368 118.755C430.04 123.05 423.144 128.036 416.772 133.643C390.929 156.434 384.497 194.282 397.587 221.773C402.158 231.139 409.045 239.194 417.6 245.182C428.524 252.949 442.003 256.296 455.311 254.546C468.816 252.786 481.643 246.774 493.267 239.564C512.79 227.448 525.148 207.728 543.11 193.888C557.743 182.652 576.74 179.712 593.103 171.884C612.852 162.577 636.062 144.018 625.247 119.354Z" stroke="#FFC83C" stroke-width="2" stroke-miterlimit="10"/>
<path d="M585.888 130.675C578.26 112.694 554.851 109.654 537.83 110.029L534.861 110.123C511.809 111.099 484.774 117.406 462.718 130.769C457.877 133.67 453.283 136.966 448.985 140.623C431.381 155.638 424.561 179.062 429.634 197.643C431.434 204.077 434.803 209.965 439.441 214.779C442.982 218.433 447.308 221.236 452.092 222.975C456.877 224.715 461.994 225.346 467.058 224.82C477.504 223.769 487.311 218.871 496.159 213.24C508.24 205.582 516.694 194.002 528.004 185.481C537.191 178.555 548.67 175.89 558.834 170.972C574.709 163.296 594.567 151.19 585.888 130.675Z" stroke="#FFC83C" stroke-width="2" stroke-miterlimit="10"/>
<path d="M460.978 171.687C459.818 175.156 459.687 178.878 460.601 182.417C462.792 189.41 470.876 193.315 478.281 192.98C485.686 192.645 492.486 188.926 498.663 184.854C507.182 179.275 515.172 172.654 524.447 168.322C536.517 162.743 553.045 157.164 546.528 140.929C542.467 130.85 532.796 127.019 522.69 128.21C500.174 130.869 467.382 149.391 460.978 171.687Z" stroke="#FFC83C" stroke-width="2" stroke-miterlimit="10"/>
<path d="M719.868 -119.926C752.15 -195.264 851.016 -225.384 922.14 -185.018C953.782 -167.054 967.219 -129.404 951.257 -96.3052C933.768 -60.0035 895.115 -48.3712 860.175 -34.8657C843.082 -28.2722 825.611 -20.8733 811.458 -9.01618C791.237 7.84222 770.242 44.6685 738.261 25.7121C730.195 20.9356 724.541 12.9185 720.565 4.47056C702.002 -34.9781 703.189 -81.1327 719.868 -119.926Z" stroke="#FFC83C" stroke-width="2" stroke-miterlimit="10"/>
<path d="M672.838 -50.9046C670.353 -29.4549 667.887 -9.93641 646.838 1.31343C626.241 12.3195 606.868 10.5383 584.369 10.6883C558.792 10.8551 533.255 12.7344 507.931 16.3132C447.533 24.8256 384.914 40.1629 334.551 76.0124C277.636 116.531 244.613 187.105 256.362 256.91C264.966 308.097 301.377 350.827 350.027 369.765C397.679 388.308 452.823 380.677 496.239 354.765C533.573 332.546 558.369 295.909 589.283 266.379C622.833 234.26 671.351 223.61 711.434 202.18C731.523 191.436 750.745 177.805 763.039 158.305C778.44 133.93 774.336 104.85 780.379 77.8499C786.027 52.0503 802.426 30.6755 823.06 14.607C862.259 -15.9363 913.167 -26.3799 952.818 -55.7795C965.432 -65.1544 976.333 -77.473 981.284 -92.3415C1000.88 -151.066 956.376 -198.371 903.434 -216.484C843.676 -236.921 776.331 -219.296 730.224 -177.297C692.814 -143.285 678.524 -99.8039 672.838 -50.9046Z" stroke="#FFC83C" stroke-width="2" stroke-miterlimit="10"/>
<path d="M456 588C492.347 560.314 515.75 519.122 534.243 477.33C552.736 435.538 567.467 392.002 591.265 353.061C615.064 314.12 649.886 279.325 694.097 267.62C755.408 251.395 820.012 282.176 883.13 275.63C947.602 268.933 1001.18 224.834 1061.34 200.731C1084.25 191.544 1108.22 185.273 1132.7 182.067C1159.19 178.615 1186.66 178.915 1211.98 187.394C1237.3 195.872 1260.35 213.298 1271.64 237.439C1292.12 281.238 1270.45 331.771 1254.86 377.54C1237.92 427.341 1228.52 482.864 1247.46 531.915C1252.48 544.876 1263.26 559.076 1276.94 556.431" stroke="#FFC83C" stroke-width="2" stroke-miterlimit="10"/>
<path d="M1170.03 -435.981C1094.43 -437.442 1017.01 -352.117 1068.01 -282.412C1098.03 -241.397 1119.42 -197.705 1109.12 -145.547C1098.82 -93.3896 1059.12 -62.9004 1014.96 -36.7935C967.459 -8.7015 798.713 94.1341 891.297 160.45C958.683 208.731 1053 123.706 1112.06 96.007C1183.8 61.9591 1265.96 56.6614 1341.52 81.2118C1391 97.2055 1465.35 139.269 1513 97.6737" stroke="#FFC83C" stroke-width="2" stroke-miterlimit="10"/>
<path d="M37 16.7391C84.2019 -8.96316 149.464 5.49083 181.277 48.7216C216.665 96.7704 208.33 162.404 210.851 221.945C212.582 263.282 220.634 305.05 240.444 341.401C260.254 377.752 292.857 408.328 332.628 419.989C351.121 425.407 370.612 426.682 389.236 431.593C407.861 436.505 426.58 446.047 435.949 462.826C442.967 475.405 443.851 490.534 442.421 504.857C436.777 561.342 394.598 612.503 340.097 629" stroke="#FFC83C" stroke-width="2" stroke-miterlimit="10"/>
<path d="M1191.06 -423C1104.81 -413.857 1103.62 -321.616 1125.39 -258.829C1145.88 -199.772 1163.99 -132.282 1115.18 -81.5059C1067.79 -32.2098 1008.65 -3.89871 953.385 34.6613C924.987 54.4659 872.41 98.3659 912.577 132.204C945.212 159.785 1019.24 115.041 1050.05 100.033C1128.57 61.6608 1206.35 25.0869 1295.7 44.3294C1355.83 57.2952 1419.71 98.4034 1482 70.9542" stroke="#FFC83C" stroke-width="2" stroke-miterlimit="10"/>
<path d="M970.337 103.066C967.027 103.947 963.246 104.716 960.369 102.859C958.27 101.175 956.919 98.7362 956.607 96.0681C952.074 74.3818 973.798 56.8601 993.266 46.1858C1047.57 16.3764 1106.84 -6.00405 1153.8 -47.3882C1213.43 -99.9157 1269.52 -167.451 1349.1 -189.85C1421.5 -210.28 1491.22 -168.295 1502.55 -92.787C1506.16 -68.6994 1503.13 -41.779 1492.5 -19.6237C1484.64 -3.26511 1471.81 11.0111 1455.32 18.7589C1401.28 44.216 1335.93 6.82768 1280.65 4.06999C1209.01 0.505621 1136.8 14.9131 1075.01 52.1514C1040.78 72.5808 1009.52 92.485 970.337 103.066Z" stroke="#FFC83C" stroke-width="2" stroke-miterlimit="10"/>
<path d="M817.19 86.6342C813.264 105.093 812.72 124.224 807.798 142.477C801.029 167.589 786.436 189.916 766.116 206.249C759.561 211.486 751.596 218.05 753.211 226.26C755.09 235.461 766.943 237.855 776.354 238.247L858.891 241.707C872.697 242.287 887.311 242.68 899.352 235.966C906.866 231.795 913.14 223.829 911.825 215.394C909.74 201.91 892.44 198.563 879.892 193.158C857.351 183.62 843.413 159.327 840.971 134.996C838.529 110.666 845.892 86.3724 855.904 64.0428C862.798 48.6327 862.047 31.2215 842.549 40.6845C827.691 47.9033 820.271 72.1405 817.19 86.6342Z" stroke="#FFC83C" stroke-width="2" stroke-miterlimit="10"/>
<path d="M1225.67 99.0174C1252.49 99.2607 1280.22 101.788 1303.76 114.459C1313.51 119.7 1323.44 129.432 1320.46 140.101C1317.96 149.066 1307.6 153.371 1302.79 161.344C1297.14 170.572 1298.05 185.452 1287.74 188.54C1281.87 190.299 1275.91 186.668 1270.72 183.468C1244.1 166.942 1214.48 155.775 1183.54 150.601C1166.93 147.786 1150.07 146.695 1133.23 147.344C1122.74 147.756 1094.07 157.451 1085.72 154.026C1064.51 145.323 1120.95 118.726 1132.59 113.897C1161.73 101.769 1194.28 98.7367 1225.67 99.0174Z" stroke="#FFC83C" stroke-width="2" stroke-miterlimit="10"/>
<path d="M558.687 507.157C593.374 446.424 603.713 369.518 656.817 323.851C682.877 301.622 716.261 289.739 750.577 290.477C771.668 291.02 792.288 296.361 813.115 299.734C879.47 310.365 947.502 301.237 1008.66 273.499C1043.97 257.383 1076.71 235.14 1114.11 224.459C1151.51 213.777 1196.69 217.544 1222.09 246.777C1244.39 272.468 1245.4 310.49 1237.53 343.583C1229.66 376.677 1214.28 407.596 1207.4 440.84C1202.36 465.291 1202.03 490.474 1206.44 515.047C1209.29 530.806 1213.97 546.322 1214.5 562.326C1215.31 591.634 1201.11 620.042 1180.3 640.786C1159.5 661.531 1132.57 675.341 1104.79 685.067C1013.27 717.261 913.203 708.472 816.166 706.13C734.062 704.144 646.591 705.699 577.01 662.224C553.886 647.776 516.751 621.523 513.267 592.046C509.613 561.033 544.451 531.968 558.687 507.157Z" stroke="#FFC83C" stroke-width="2" stroke-miterlimit="10"/>
<path d="M685.192 347.562C709.188 326.854 740.019 315.67 771.788 316.151C791.215 316.394 810.417 320.643 829.75 323.526C885.925 331.931 944.584 324.949 996.259 302.448C1015.08 294.305 1033.01 284.197 1051.49 275.473C1062.7 270.024 1074.36 265.564 1086.36 262.145C1118.1 253.534 1155.59 257.39 1177.56 282.737C1196.13 304.152 1197.8 335.956 1192.12 363.867C1186.43 391.777 1174.55 417.723 1169.34 445.708C1165.53 466.35 1165.35 487.49 1168.79 508.194C1170.99 521.485 1174.66 534.57 1174.78 547.973C1174.97 572.495 1162.88 596.213 1144.86 613.229C1126.27 630.788 1102.3 641.495 1077.94 648.627C1074.48 649.638 1070.99 650.587 1067.49 651.473C1039.37 658.586 1010.66 661.45 981.406 662.48C930.408 664.352 877.755 660.608 826.136 660.102C755.881 659.223 680.843 662.218 621.507 624.779C602.55 612.892 572.411 591.496 569.267 567.441C565.991 542.188 593.74 518.396 604.941 497.973C632.482 448.03 641.913 385.394 685.192 347.562Z" stroke="#FFC83C" stroke-width="2" stroke-miterlimit="10"/>
<path d="M713.771 370.475C735.692 350.944 764.041 341.113 793.2 340.963C811.012 340.963 828.805 344.09 846.692 346.487C893.211 352.723 941.521 347.892 984.42 330.533C1000.06 324.222 1015.05 316.357 1030.39 309.392C1039.7 305.046 1049.39 301.53 1059.33 298.886C1085.53 292.314 1115.33 296.284 1133.89 317.893C1148.74 335.083 1151.08 360.606 1147.56 383.433C1144.11 405.904 1135.68 427.232 1132.12 450.003C1129.53 466.848 1129.48 483.982 1131.97 500.843C1133.55 511.722 1136.12 522.377 1135.89 533.182C1135.44 552.975 1125.45 572.019 1110.2 585.371C1093.76 599.752 1072.73 607.411 1051.77 611.942C1048.79 612.579 1045.79 613.16 1042.79 613.684C1018.69 617.897 994.41 618.328 969.53 617.841C926.178 616.961 880.752 613.59 836.439 613.834C778.007 614.152 715.411 618.328 666.083 587.093C651.268 577.731 628.065 561.158 625.276 542.508C622.392 522.958 642.881 504.419 651.249 488.372C671.7 448.973 680.126 400.455 713.771 370.475Z" stroke="#FFC83C" stroke-width="2" stroke-miterlimit="10"/>
<path d="M742.171 393.451C762.158 375.161 787.565 366.522 814.271 365.886C830.419 365.512 846.755 367.756 863.204 369.532C899.94 373.703 937.825 370.916 971.758 358.704C984.236 354.272 996.224 348.606 1008.36 343.444C1015.73 340.164 1023.38 337.572 1031.23 335.702C1051.8 331.158 1073.8 335.309 1088.97 353.057C1100.02 365.998 1103.03 385.204 1101.71 402.951C1100.43 420.025 1095.54 436.613 1093.62 454.155C1092.25 467.189 1092.32 480.333 1093.83 493.352C1094.79 501.768 1096.23 509.978 1095.71 518.206C1095.06 525.826 1092.82 533.229 1089.14 539.944C1085.46 546.66 1080.42 552.542 1074.33 557.217C1060.06 568.438 1042.07 573.019 1024.51 574.927C1022.03 575.207 1019.52 575.413 1016.98 575.581C996.977 576.89 977.197 574.889 956.758 572.888C921 569.335 883.115 566.175 846.209 567.278C799.78 568.681 749.681 574.216 710.553 549.101C699.901 542.275 683.716 530.568 681.307 517.309C678.823 503.47 692.072 490.211 697.53 478.541C710.892 449.872 718.213 415.388 742.171 393.451Z" stroke="#FFC83C" stroke-width="2" stroke-miterlimit="10"/>
<path d="M770.723 417.565C788.739 400.369 811.331 392.973 835.636 391.809C850.446 391.477 865.262 392.104 879.991 393.686C906.988 395.976 934.588 395 959.627 387.942C969.04 385.332 977.945 381.915 986.925 378.555C992.395 376.366 998.071 374.731 1003.87 373.674C1018.93 371.177 1033.13 375.439 1044.87 389.443C1052.22 398.192 1055.79 411.145 1056.71 423.892C1057.58 435.681 1056.23 447.621 1055.96 459.955C1055.77 469.21 1056.13 478.615 1056.64 487.551C1057.19 493.369 1057.11 499.229 1056.39 505.029C1055.51 510.288 1053.54 515.307 1050.6 519.766C1047.67 524.226 1043.84 528.029 1039.36 530.936C1027.14 538.858 1012.21 540.566 998.051 539.853C996.043 539.74 994.048 539.59 992.065 539.402C976.1 537.807 960.775 533.357 944.697 529.828C915.774 523.238 886.055 520.798 856.439 522.582C821.893 524.985 784.165 532.062 755.21 512.914C748.696 508.615 739.471 501.65 737.438 493.859C735.329 485.693 741.391 477.677 743.933 470.336C750.202 452.164 756.226 431.42 770.723 417.565Z" stroke="#FFC83C" stroke-width="2" stroke-miterlimit="10"/>
<path d="M896.467 417.234C860.053 415.926 823.845 415.066 799.087 441.028C793.879 446.505 789.255 453.514 790.101 460.991C790.758 466.842 794.763 471.907 799.594 475.327C818.206 488.561 843.603 479.608 866.275 476.412C888.607 473.278 911.375 476.331 932.073 485.234C943.748 490.262 954.632 497.103 966.495 501.589C978.357 506.075 991.968 508.056 1003.7 503.084C1032.72 490.748 1014 441.982 1000.26 425.085C989.129 411.384 981.064 408.374 965.028 413.066C944.18 419.159 920.286 418.094 896.467 417.234Z" stroke="#FFC83C" stroke-width="2" stroke-miterlimit="10"/>
<path d="M145.566 66.9211C146.282 67.6141 146.997 68.3446 147.694 69.0751C192.997 116.502 191.416 183.652 191.002 244.733C190.7 285.941 194.899 330.895 214.463 368.694C243.423 424.774 299.195 437.005 350.035 465.87C405.186 497.188 374.155 547.105 337.231 578.648C272.477 633.904 174.771 658.704 90.5654 648.908C46.9753 643.85 7.75356 622.89 -18.0616 587.302C-62.8756 525.49 -72.328 433.709 -73.8532 359.703C-75.5947 278.729 -61.8303 198.164 -33.2946 122.308C-18.3817 82.9735 -3.8077 64.2426 34.9998 50.4005C72.7339 36.9892 115.684 37.6822 145.566 66.9211Z" stroke="#FFC83C" stroke-width="2" stroke-miterlimit="10"/>
<path d="M-17.9095 171.238C-3.48328 139.005 8.62946 123.159 40.8486 112.259C72.6915 101.489 108.315 103.268 133.161 128.291L134.929 130.164C172.321 170.208 171.794 226.809 172.057 278.316C172.302 313.359 176.064 351.249 192.201 382.789C214.019 425.474 254.063 438.735 292.451 459.675C296.119 461.679 299.787 463.776 303.417 465.949C348.143 492.676 323.768 534.031 294.012 561.039C269.144 583.253 239.573 599.609 207.493 608.894C167.901 620.45 126.616 621.311 88.9986 615.43C54.0898 609.999 22.3973 592.955 1.46338 563.661C-35.0065 512.623 -42.1726 437.705 -45.4829 377.283C-49.2634 308.114 -47.9656 238.365 -17.9095 171.238Z" stroke="#FFC83C" stroke-width="2" stroke-miterlimit="10"/>
<path d="M-2.40263 219.207C11.2081 194.149 21.242 181.199 46.9197 173.19C72.974 165.087 101.325 167.95 121.186 188.741C121.656 189.246 122.127 189.733 122.598 190.257C152.153 222.856 152.586 268.855 153.64 310.774C154.375 339.668 157.782 370.527 170.583 395.734C187.846 429.868 219.303 441.714 249.198 459.474C252.059 461.195 254.908 462.973 257.745 464.807C292.12 486.908 274.367 519.713 251.758 542.151C232.368 561.325 208.241 575.086 181.803 582.049C149.235 590.339 117.119 587.064 87.6765 580.664C61.3211 574.9 37.0552 561.726 20.9596 538.727C-6.93953 498.585 -12.1918 440.442 -17.0487 393.788C-23.0728 336.075 -34.368 278.025 -2.40263 219.207Z" stroke="#FFC83C" stroke-width="2" stroke-miterlimit="10"/>
<path d="M13.0107 268.439C25.3698 250.369 33.7664 240.434 52.956 235.298C73.221 229.844 94.2786 233.799 109.204 250.388C109.543 250.781 109.902 251.175 110.242 251.587C131.941 276.874 133.45 312.376 135.243 344.748C136.507 367.578 139.526 391.44 148.885 410.354C161.584 436.052 184.471 446.512 205.887 461.132C207.963 462.538 209.982 464.038 212.02 465.519C236.078 482.989 224.964 507.431 209.454 525.314C196.246 540.497 177.037 553.168 156.074 557.311C130.507 562.39 107.638 555.061 86.4481 547.938C68.6737 541.996 51.7484 532.493 40.5026 515.754C20.8602 486.456 17.3317 444.956 11.3125 411.891C2.82159 365.367 -21.6135 319.068 13.0107 268.439Z" stroke="#FFC83C" stroke-width="2" stroke-miterlimit="10"/>
<path d="M27.8205 316.889C38.3098 305.552 45.7617 299.061 58.2508 296.723C72.7208 294.01 86.4173 298.949 96.3218 311.314L97.001 312.175C110.811 330.022 113.395 354.94 115.867 377.651C117.753 394.319 120.281 411.099 126.243 423.708C134.336 440.844 148.599 449.899 161.446 461.31C162.691 462.432 163.899 463.592 165.219 464.752C178.916 477.436 174.52 493.655 166.049 506.769C158.277 518.835 144.561 529.218 129.431 530.789C110.943 532.66 97.6424 521.679 84.4742 513.56C75.3998 507.948 65.8349 501.662 59.4582 491.242C48.252 472.778 45.5165 447.99 39.1588 428.703C27.4243 393.346 -10.7222 358.513 27.8205 316.889Z" stroke="#FFC83C" stroke-width="2" stroke-miterlimit="10"/>
<path d="M103.56 437.348C107.028 446.012 112.594 453.647 116.904 461.919C121.214 470.19 124.4 479.66 122.376 488.792C120.352 497.924 111.881 506.065 102.623 504.886C91.3789 503.464 85.7567 490.626 82.4583 479.716C78.7101 467.795 74.9619 455.537 67.072 445.862C48.7622 423.406 -1.72559 394.493 42.9901 365.28C91.0228 333.916 93.5903 412.533 103.56 437.348Z" stroke="#FFC83C" stroke-width="2" stroke-miterlimit="10"/>
<path d="M815.005 176.561C814.532 180.337 814.797 184.301 814.23 188.114C813.232 194.595 809.937 200.503 804.944 204.764C802.051 207.199 798.59 209.068 796.226 212.031C793.862 214.995 792.974 219.677 795.602 222.414C797.107 223.774 799.024 224.592 801.049 224.736C807.762 225.68 814.513 223.868 821.208 222.848C827.551 221.88 833.981 221.608 840.383 222.036C846.946 222.471 854.945 222.999 858.595 217.544C862.245 212.088 858.217 204.216 853.016 199.837C848.553 196.061 842.842 193.173 839.551 188.19C836.261 183.206 836.355 176.863 833.689 171.54C827.902 160.138 816.404 164.819 815.005 176.561Z" stroke="#FFC83C" stroke-width="2" stroke-miterlimit="10"/>
<path d="M458.716 391.303C450.544 395.059 441.545 401.989 443.198 410.815C444.851 419.642 455.935 422.89 462.98 428.731C469.33 433.989 472.711 442.158 473.801 450.309C474.89 458.459 473.895 466.76 472.899 474.948C472.109 479.452 472.109 484.059 472.899 488.563C473.932 493.014 476.882 497.296 481.259 498.592C486.162 500.038 491.403 497.446 495.104 493.934C504.103 485.389 506.676 472.338 509.908 460.356C516.279 436.736 526.786 414.432 540.942 394.477C545.075 388.655 549.659 382.702 550.655 375.697C554.562 347.753 524.223 367.472 514.078 371.697C495.931 379.153 476.562 383.171 458.716 391.303Z" stroke="#FFC83C" stroke-width="2" stroke-miterlimit="10"/>
<path d="M481.286 403.034C478.509 405.588 477.026 409.89 478.715 413.252C480.404 416.614 484.138 417.91 486.502 420.615C489.373 423.883 489.805 428.597 489.711 432.955C489.553 434.879 489.68 436.815 490.086 438.702C490.298 439.647 490.744 440.522 491.384 441.248C492.023 441.974 492.836 442.526 493.745 442.853C496.41 443.586 499.131 441.463 500.219 438.928C501.084 436.308 501.546 433.572 501.589 430.814C502.546 422.436 515.719 406.603 510.971 399.315C506.224 392.027 486.333 398.357 481.286 403.034Z" stroke="#FFC83C" stroke-width="2" stroke-miterlimit="10"/>
<path d="M222.581 44.6967C231.526 63.1453 234.144 83.9491 236.423 104.229C236.616 107.886 237.457 111.48 238.909 114.846C239.662 116.517 240.842 117.963 242.332 119.042C243.822 120.12 245.569 120.794 247.402 120.996C250.886 121.108 253.975 118.921 256.611 116.697C272.789 103.033 282.977 83.7996 297.365 68.2294C317.102 46.7902 344.051 32.9958 371.867 24.0612C399.682 15.1266 428.76 10.6033 457.461 4.99578C460.488 4.62161 463.392 3.57371 465.954 1.93033C467.214 1.07875 468.158 -0.159306 468.641 -1.59414C469.124 -3.02898 469.12 -4.58144 468.629 -6.01361C467.555 -8.36875 464.862 -9.52762 462.414 -10.3874C432.11 -21.0538 399.165 -21.8331 368.383 -12.6117C348.213 -6.48089 329.55 3.79948 309.569 10.5658C285.595 18.678 258.909 21.4817 235.01 13.1453C229.191 11.1079 191.149 -9.15376 193.07 7.74345C193.673 12.9771 205.443 20.0799 209.003 24.1733C214.422 30.3897 218.987 37.2908 222.581 44.6967V44.6967Z" stroke="#FFC83C" stroke-width="2" stroke-miterlimit="10"/>
<path d="M250.893 72.5174C251.062 73.582 251.212 74.6653 251.362 75.7486C252.374 83.1262 257.939 88.8228 265.34 84.5083C277.763 77.3362 277.876 59.4432 287.226 49.6001C290.523 46.1261 299.799 42.1292 294.29 36.003C291.966 33.4255 288.125 32.8091 284.659 33.0333C277.669 33.4815 269.069 36.638 262.173 35.3866C254.809 34.0418 240.306 24.7778 243.436 38.0948C246.003 49.6562 249.057 60.8813 250.893 72.5174Z" stroke="#FFC83C" stroke-width="2" stroke-miterlimit="10"/>
</g>
</svg>
