<svg width="674" height="326" viewBox="0 0 674 326" fill="none" xmlns="http://www.w3.org/2000/svg">
<mask id="mask0_116_647" style="mask-type:alpha" maskUnits="userSpaceOnUse" x="0" y="-259" width="674" height="585">
<path d="M674 -259L0 3.41254L674 326L674 33.5107V-259Z" fill="#767676"/>
</mask>
<g mask="url(#mask0_116_647)">
<path d="M191.324 18.0415C183.538 22.5175 176.257 27.812 169.607 33.8342C134.21 66.14 140.788 131.433 186.473 151.983C209.588 162.386 235.57 155.29 256.284 142.754C278.368 129.37 291.007 105.997 311.007 90.2633C327.297 77.4318 349.291 75.5169 367.555 66.7322C384.103 58.8359 401.533 38.8089 392.555 19.1667C380.283 -7.69063 337.515 -7.48336 312.644 -7.94727C273.289 -8.63819 226.999 -2.67648 191.324 18.0415Z" stroke="#FFC83C" stroke-width="2" stroke-miterlimit="10"/>
<path d="M371.9 25.0996C361.671 2.5634 326.519 2.27676 305.615 2L301.646 2C269.848 2 233.248 7.57475 204.635 24.2694C198.163 28.0156 192.101 32.4248 186.548 37.4254C164.235 57.6685 161.159 93.0543 176.627 116.935C181.871 125.074 189.238 131.641 197.938 135.932C207.388 140.556 218.068 142.069 228.436 140.252C238.794 138.581 248.855 134.252 257.784 128.796C275.95 117.745 286.556 98.6587 303.035 85.7202C316.469 75.1835 334.476 73.3746 349.557 66.1393C364.072 59.161 379.758 42.5553 371.9 25.0996Z" stroke="#FFC83C" stroke-width="2" stroke-miterlimit="10"/>
<path d="M350.219 30.0781C342.091 11.8321 314.491 11.1288 297.561 11L294.395 11C269.137 11.1882 239.97 16.0023 216.985 29.5036C211.816 32.518 206.965 36.0458 202.506 40.0332C184.523 56.209 181.317 83.9248 192.482 103.181C196.32 109.724 201.818 115.143 208.421 118.892C216.051 123.253 224.941 124.891 233.628 123.537C242.372 122.24 250.797 118.475 258.32 113.85C272.551 105.093 281.146 90.3238 294.097 80.1706C304.676 71.9193 318.699 70.265 330.549 64.5396C343.034 58.5665 357.017 45.3327 350.219 30.0781Z" stroke="#FFC83C" stroke-width="2" stroke-miterlimit="10"/>
<path d="M329.548 35.8686C323.487 22.1201 303.498 20.9711 290.542 21.0005L288.181 21.0005C269.472 21.3442 247.756 25.3804 230.456 35.5543C226.591 37.8069 222.953 40.4213 219.593 43.3615C205.963 55.3129 202.57 75.1599 209.474 89.5763C211.885 94.4873 215.517 98.7114 220.029 101.852C225.791 105.924 232.9 107.679 239.919 106.762C247.042 105.839 253.808 102.686 259.938 98.9056C270.235 92.5518 276.753 82.211 286.227 74.9537C293.945 69.0615 303.964 67.5197 312.595 63.4148C323.011 58.534 335.252 48.802 329.548 35.8686Z" stroke="#FFC83C" stroke-width="2" stroke-miterlimit="10"/>
<path d="M307.891 41.787C303.886 32.4058 291.597 30.8194 282.661 31.0153L281.102 31.0642C269 31.5735 254.807 34.8637 243.227 41.836C240.685 43.3498 238.274 45.0693 236.017 46.9771C226.775 54.8111 223.195 67.0322 225.858 76.7268C226.803 80.0838 228.572 83.1558 231.006 85.6673C232.866 87.5738 235.137 89.0361 237.649 89.9436C240.16 90.8512 242.847 91.1804 245.505 90.9063C250.989 90.358 256.138 87.8021 260.784 84.8644C267.126 80.869 271.564 74.827 277.502 70.3812C282.325 66.7678 288.352 65.3772 293.688 62.8116C302.022 58.8064 312.448 52.4903 307.891 41.787Z" stroke="#FFC83C" stroke-width="2" stroke-miterlimit="10"/>
<path d="M242.511 63.524C241.905 65.3917 241.836 67.396 242.314 69.3017C243.459 73.0667 247.685 75.1695 251.556 74.9893C255.427 74.809 258.981 72.8064 262.21 70.6135C266.663 67.6095 270.84 64.0447 275.688 61.7116C281.997 58.7076 290.637 55.7036 287.231 46.962C285.108 41.5347 280.052 39.472 274.77 40.1129C263 41.5448 245.859 51.518 242.511 63.524Z" stroke="#FFC83C" stroke-width="2" stroke-miterlimit="10"/>
<path d="M354.291 -53.492C352.983 -42.2176 351.686 -31.9583 340.616 -26.0452C329.782 -20.2601 319.593 -21.1964 307.76 -21.1176C294.307 -21.0299 280.876 -20.0421 267.556 -18.161C235.79 -13.6867 202.855 -5.62512 176.366 13.2181C146.432 34.5153 129.063 71.6104 135.242 108.301C139.767 135.206 158.918 157.666 184.506 167.62C209.569 177.367 238.572 173.356 261.407 159.736C281.043 148.057 294.085 128.8 310.344 113.278C327.99 96.3963 353.508 90.7986 374.59 79.534C385.156 73.887 395.266 66.7222 401.732 56.4728C409.832 43.6609 407.674 28.3755 410.852 14.1839C413.823 0.623118 422.448 -10.6119 433.301 -19.0578C453.917 -35.112 480.693 -40.6014 501.547 -56.0544C508.182 -60.982 513.915 -67.4569 516.52 -75.2721C526.828 -106.139 503.419 -131.003 475.574 -140.524C444.144 -151.266 408.723 -142.002 384.473 -119.926C364.797 -102.049 357.281 -79.1945 354.291 -53.492Z" stroke="#FFC83C" stroke-width="2" stroke-miterlimit="10"/>
<path d="M240 282C259.144 267.478 271.47 245.873 281.211 223.953C290.951 202.032 298.709 179.197 311.244 158.772C323.779 138.347 342.12 120.097 365.405 113.958C397.698 105.447 431.725 121.592 464.969 118.159C498.926 114.646 527.146 91.5159 558.835 78.8734C570.898 74.0548 583.526 70.7658 596.419 69.084C610.37 67.2737 624.837 67.4311 638.174 71.8782C651.511 76.3252 663.65 85.4652 669.595 98.1274C680.386 121.1 668.971 147.605 660.756 171.611C651.838 197.733 646.884 226.855 656.862 252.583C659.508 259.381 665.185 266.829 672.389 265.442" stroke="#FFC83C" stroke-width="2" stroke-miterlimit="10"/>
<path d="M614.795 -255.99C575.075 -256.76 534.395 -211.793 561.191 -175.058C576.965 -153.443 588.206 -130.417 582.793 -102.93C577.38 -75.4427 556.521 -59.3747 533.316 -45.6162C508.36 -30.8116 419.697 23.3833 468.343 58.3321C503.749 83.7764 553.305 38.9676 584.337 24.3703C622.031 6.42687 665.201 3.63498 704.902 16.5731C730.898 25.0019 769.965 47.1694 795 25.2487" stroke="#FFC83C" stroke-width="2" stroke-miterlimit="10"/>
<path d="M684.199 268C668.401 243.779 675.885 216.801 684.87 190.857C690.468 174.709 698.032 162.304 700.786 145.3C704.607 121.669 695.849 103.947 701.211 75.1274C707.135 43.2264 750.826 39.6228 770.633 54.2145C781.622 62.3079 787.507 80.71 795.978 91.4028L806 104.035" stroke="#FFC83C" stroke-width="2" stroke-miterlimit="10"/>
<path d="M20 -18.2941C44.8798 -31.8238 79.2792 -24.2152 96.0476 -1.45855C114.7 23.8343 110.307 58.3838 111.636 89.726C112.548 111.486 116.792 133.473 127.234 152.608C137.676 171.743 154.861 187.838 175.824 193.977C185.571 196.829 195.845 197.5 205.662 200.085C215.479 202.671 225.345 207.694 230.284 216.526C233.982 223.148 234.448 231.112 233.695 238.651C230.72 268.385 208.488 295.316 179.76 304" stroke="#FFC83C" stroke-width="2" stroke-miterlimit="10"/>
<path d="M627.055 -249C581.716 -244.185 581.092 -195.612 592.536 -162.549C603.306 -131.449 612.829 -95.9092 587.17 -69.1707C562.254 -43.2115 531.17 -28.303 502.115 -7.9975C487.187 2.43153 459.548 25.5491 480.663 43.3682C497.819 57.8919 536.733 34.3304 552.928 26.4272C594.209 6.22031 635.093 -13.0393 682.066 -2.90631C713.674 3.9214 747.253 25.5688 780 11.1142" stroke="#FFC83C" stroke-width="2" stroke-miterlimit="10"/>
<path d="M510.561 27.5093C508.815 27.9723 506.822 28.3762 505.304 27.401C504.197 26.5167 503.485 25.2361 503.32 23.8351C500.929 12.4479 512.386 3.24761 522.653 -2.35731C551.291 -18.0097 582.547 -29.7613 607.316 -51.4915C638.761 -79.0728 668.34 -114.535 710.31 -126.296C748.49 -137.023 785.261 -114.978 791.233 -75.3296C793.138 -62.6816 791.54 -48.5462 785.936 -36.9128C781.79 -28.3232 775.025 -20.827 766.325 -16.7587C737.826 -3.39161 703.366 -23.0236 674.213 -24.4716C636.43 -26.3432 598.349 -18.7781 565.763 0.775133C547.71 11.5023 531.223 21.9537 510.561 27.5093Z" stroke="#FFC83C" stroke-width="2" stroke-miterlimit="10"/>
<path d="M429.912 18.5091C427.838 28.1907 427.55 38.2255 424.95 47.7992C421.374 60.9705 413.664 72.6816 402.929 81.2483C399.466 83.9949 395.258 87.4379 396.112 91.7441C397.104 96.5702 403.366 97.8258 408.338 98.0318L451.942 99.8465C459.236 100.151 466.957 100.357 473.318 96.835C477.288 94.6476 480.602 90.4689 479.907 86.045C478.806 78.9726 469.666 77.2168 463.037 74.3819C451.129 69.3793 443.765 56.6372 442.475 43.8755C441.185 31.1139 445.075 18.3718 450.365 6.65968C454.007 -1.42305 453.61 -10.5554 443.309 -5.59195C435.459 -1.80563 431.539 10.907 429.912 18.5091Z" stroke="#FFC83C" stroke-width="2" stroke-miterlimit="10"/>
<path d="M644.953 26.0091C659.034 26.1362 673.588 27.4557 685.951 34.0729C691.066 36.8097 696.279 41.8924 694.719 47.4638C693.406 52.1457 687.965 54.3938 685.437 58.5576C682.475 63.3764 682.949 71.147 677.538 72.7597C674.457 73.6785 671.327 71.7823 668.602 70.1109C654.628 61.4807 639.078 55.6493 622.835 52.9472C614.114 51.4774 605.262 50.9074 596.422 51.2464C590.912 51.4615 575.864 56.5246 571.48 54.7359C560.342 50.1908 589.974 36.3015 596.086 33.7797C611.381 27.4459 628.473 25.8625 644.953 26.0091Z" stroke="#FFC83C" stroke-width="2" stroke-miterlimit="10"/>
<path d="M294.003 239.724C312.227 207.746 317.658 167.253 345.558 143.207C359.25 131.503 376.789 125.246 394.818 125.635C405.898 125.921 416.732 128.733 427.674 130.509C462.535 136.106 498.277 131.3 530.407 116.695C548.958 108.21 566.162 96.4981 585.811 90.8741C605.459 85.25 629.194 87.2332 642.54 102.625C654.254 116.153 654.788 136.172 650.653 153.597C646.517 171.022 638.434 187.302 634.823 204.805C632.173 217.68 632.002 230.939 634.318 243.878C635.812 252.176 638.276 260.345 638.553 268.771C638.978 284.203 631.519 299.161 620.586 310.083C609.654 321.006 595.506 328.278 580.914 333.399C532.831 350.35 480.257 345.722 429.276 344.489C386.141 343.443 340.186 344.262 303.63 321.371C291.48 313.764 271.97 299.94 270.14 284.42C268.221 268.091 286.524 252.787 294.003 239.724Z" stroke="#FFC83C" stroke-width="2" stroke-miterlimit="10"/>
<path d="M360.066 155.103C372.677 144.212 388.881 138.33 405.577 138.583C415.787 138.711 425.879 140.946 436.04 142.462C465.563 146.882 496.391 143.21 523.55 131.376C533.443 127.094 542.862 121.777 552.578 117.19C558.467 114.324 564.599 111.978 570.901 110.18C587.582 105.651 607.29 107.679 618.836 121.01C628.591 132.272 629.472 148.999 626.484 163.678C623.496 178.357 617.253 192.002 614.513 206.721C612.513 217.576 612.416 228.695 614.226 239.583C615.383 246.573 617.313 253.455 617.372 260.504C617.471 273.401 611.119 285.875 601.651 294.824C591.876 304.059 579.281 309.69 566.479 313.441C564.658 313.973 562.828 314.472 560.988 314.938C546.206 318.679 531.118 320.185 515.744 320.726C488.941 321.711 461.269 319.742 434.14 319.476C397.217 319.013 357.78 320.589 326.595 300.898C316.632 294.647 300.792 283.394 299.14 270.743C297.419 257.462 312.002 244.949 317.889 234.208C332.363 207.941 337.32 175 360.066 155.103Z" stroke="#FFC83C" stroke-width="2" stroke-miterlimit="10"/>
<path d="M375.588 168.319C387.092 158.008 401.97 152.817 417.273 152.738C426.621 152.738 435.959 154.389 445.346 155.655C469.76 158.947 495.113 156.396 517.627 147.232C525.837 143.9 533.702 139.748 541.754 136.07C546.641 133.776 551.722 131.92 556.938 130.524C570.688 127.054 586.327 129.15 596.071 140.558C603.866 149.634 605.092 163.109 603.242 175.16C601.432 187.024 597.01 198.284 595.141 210.306C593.784 219.199 593.758 228.245 595.062 237.147C595.893 242.891 597.238 248.516 597.119 254.22C596.882 264.67 591.639 274.724 583.636 281.773C575.011 289.366 563.971 293.409 552.971 295.802C551.408 296.138 549.835 296.444 548.263 296.721C535.611 298.946 522.87 299.173 509.812 298.916C487.061 298.451 463.221 296.672 439.965 296.8C409.3 296.968 376.448 299.173 350.561 282.683C342.786 277.74 330.609 268.99 329.145 259.144C327.631 248.822 338.384 239.035 342.776 230.563C353.509 209.762 357.931 184.147 375.588 168.319Z" stroke="#FFC83C" stroke-width="2" stroke-miterlimit="10"/>
<path d="M390.111 180.445C400.603 170.771 413.941 166.202 427.959 165.865C436.436 165.667 445.011 166.854 453.646 167.794C472.931 170 492.818 168.526 510.631 162.067C517.181 159.723 523.474 156.725 529.846 153.995C533.712 152.26 537.73 150.889 541.85 149.9C552.648 147.497 564.197 149.693 572.16 159.08C577.959 165.925 579.54 176.083 578.848 185.47C578.177 194.501 575.608 203.275 574.6 212.553C573.883 219.447 573.919 226.399 574.709 233.286C575.213 237.737 575.973 242.079 575.697 246.431C575.357 250.462 574.183 254.377 572.251 257.929C570.319 261.481 567.671 264.592 564.474 267.065C556.985 273 547.54 275.423 538.323 276.432C537.019 276.581 535.705 276.69 534.371 276.779C523.869 277.471 513.486 276.413 502.757 275.354C483.986 273.475 464.099 271.803 444.725 272.387C420.352 273.129 394.053 276.056 373.514 262.772C367.922 259.162 359.426 252.97 358.161 245.957C356.857 238.637 363.812 231.624 366.677 225.452C373.692 210.288 377.535 192.048 390.111 180.445Z" stroke="#FFC83C" stroke-width="2" stroke-miterlimit="10"/>
<path d="M405.704 192.484C415.163 183.422 427.024 179.525 439.784 178.911C447.559 178.737 455.338 179.067 463.07 179.9C477.244 181.107 491.734 180.593 504.879 176.873C509.821 175.498 514.496 173.698 519.211 171.927C522.082 170.774 525.062 169.912 528.106 169.355C536.013 168.04 543.466 170.285 549.633 177.665C553.488 182.275 555.366 189.1 555.85 195.817C556.305 202.03 555.593 208.321 555.455 214.821C555.356 219.697 555.544 224.654 555.811 229.362C556.1 232.428 556.057 235.516 555.682 238.572C555.217 241.344 554.182 243.988 552.642 246.338C551.102 248.688 549.091 250.692 546.737 252.224C540.323 256.398 532.485 257.298 525.052 256.922C523.998 256.863 522.95 256.784 521.909 256.685C513.527 255.844 505.482 253.5 497.041 251.64C481.856 248.167 466.254 246.881 450.706 247.821C432.569 249.088 412.761 252.817 397.56 242.727C394.14 240.462 389.297 236.791 388.23 232.686C387.123 228.383 390.305 224.159 391.64 220.291C394.931 210.715 398.094 199.784 405.704 192.484Z" stroke="#FFC83C" stroke-width="2" stroke-miterlimit="10"/>
<path d="M472.256 192.281C453.015 191.592 433.883 191.14 420.801 204.804C418.05 207.687 415.606 211.376 416.053 215.311C416.401 218.39 418.517 221.056 421.069 222.857C430.903 229.822 444.323 225.109 456.303 223.427C468.102 221.778 480.132 223.385 491.069 228.07C497.238 230.717 502.989 234.317 509.257 236.678C515.525 239.039 522.717 240.082 528.915 237.465C544.252 230.973 534.358 205.306 527.097 196.413C521.217 189.202 516.955 187.618 508.482 190.087C497.466 193.294 484.841 192.734 472.256 192.281Z" stroke="#FFC83C" stroke-width="2" stroke-miterlimit="10"/>
<path d="M76.5866 8.09483C76.9633 8.45899 77.3399 8.84283 77.7067 9.22667C101.556 34.147 100.723 69.4312 100.505 101.526C100.347 123.179 102.557 146.8 112.856 166.662C128.101 196.129 157.462 202.556 184.225 217.723C213.259 234.179 196.923 260.408 177.485 276.983C143.396 306.017 91.9607 319.048 47.6324 313.901C24.6852 311.243 4.03767 300.23 -9.55224 281.53C-33.1438 249.051 -38.1198 200.824 -38.9227 161.938C-39.8395 119.389 -32.5935 77.0566 -17.5714 37.1981C-9.72075 16.5296 -2.04855 6.6874 18.3809 -0.585958C38.2454 -7.63294 60.8556 -7.26878 76.5866 8.09483Z" stroke="#FFC83C" stroke-width="2" stroke-miterlimit="10"/>
<path d="M-9.6402 62.336C-2.02317 45.3709 4.37235 37.0312 21.384 31.294C38.1971 25.6259 57.0063 26.5623 70.1251 39.7322L71.0586 40.718C90.8013 61.7938 90.5232 91.5837 90.6623 118.692C90.7914 137.136 92.7776 157.078 101.298 173.679C112.818 196.144 133.961 203.124 154.23 214.145C156.167 215.199 158.103 216.303 160.02 217.447C183.636 231.514 170.765 253.28 155.054 267.494C141.924 279.186 126.311 287.794 109.372 292.681C88.4676 298.763 66.6691 299.216 46.8072 296.121C28.3754 293.262 11.6418 284.292 0.588665 268.874C-18.6674 242.012 -22.4511 202.581 -24.199 170.78C-26.1951 134.376 -25.5098 97.6659 -9.6402 62.336Z" stroke="#FFC83C" stroke-width="2" stroke-miterlimit="10"/>
<path d="M-1.66318 88.4248C5.48132 75.2365 10.7483 68.4207 24.227 64.2052C37.9033 59.9404 52.7852 61.4474 63.2104 72.39C63.4574 72.6559 63.7045 72.912 63.9515 73.1878C79.4658 90.3454 79.6931 114.555 80.2465 136.618C80.6319 151.825 82.4205 168.067 89.14 181.334C98.2016 199.299 114.714 205.534 130.406 214.881C131.908 215.787 133.404 216.723 134.892 217.688C152.937 229.32 143.618 246.586 131.75 258.395C121.572 268.487 108.907 275.729 95.0296 279.394C77.9342 283.757 61.0759 282.034 45.6209 278.665C31.7865 275.632 19.0489 268.698 10.6001 256.593C-4.04467 235.466 -6.80168 204.864 -9.35116 180.31C-12.5133 149.934 -18.4424 119.381 -1.66318 88.4248Z" stroke="#FFC83C" stroke-width="2" stroke-miterlimit="10"/>
<path d="M6.4342 113.589C12.908 104.111 17.3062 98.8996 27.3579 96.2056C37.9729 93.3444 49.0031 95.419 56.821 104.121C56.999 104.327 57.1867 104.533 57.3646 104.75C68.7308 118.013 69.5215 136.636 70.4605 153.616C71.1227 165.592 72.7041 178.108 77.6064 188.029C84.2581 201.509 96.2469 206.995 107.465 214.665C108.552 215.402 109.61 216.189 110.677 216.965C123.279 226.129 117.457 238.95 109.333 248.33C102.414 256.294 92.3528 262.941 81.372 265.114C67.9797 267.778 56.0007 263.934 44.9014 260.198C35.591 257.081 26.7253 252.096 20.8347 243.316C10.5458 227.948 8.69755 206.179 5.54467 188.835C1.09703 164.432 -11.7023 140.146 6.4342 113.589Z" stroke="#FFC83C" stroke-width="2" stroke-miterlimit="10"/>
<path d="M14.8746 139.022C20.4088 133.04 24.3405 129.615 30.9299 128.381C38.5644 126.95 45.7907 129.556 51.0164 136.081L51.3747 136.535C58.6608 145.952 60.0245 159.1 61.3284 171.084C62.3238 179.879 63.6576 188.733 66.803 195.386C71.0731 204.428 78.5981 209.206 85.3765 215.227C86.0335 215.82 86.6705 216.432 87.3673 217.044C94.5936 223.736 92.2744 232.295 87.8052 239.214C83.7043 245.581 76.468 251.06 68.4851 251.889C58.7305 252.876 51.7132 247.082 44.7655 242.797C39.9778 239.836 34.9313 236.519 31.5669 231.021C25.6544 221.278 24.2112 208.199 20.8568 198.022C14.6656 179.366 -5.46078 160.986 14.8746 139.022Z" stroke="#FFC83C" stroke-width="2" stroke-miterlimit="10"/>
<path d="M54.6851 202.563C56.5248 207.102 59.4782 211.101 61.7654 215.434C64.0525 219.766 65.743 224.726 64.669 229.51C63.5951 234.294 59.1003 238.558 54.1879 237.94C48.2215 237.195 45.2382 230.471 43.4881 224.756C41.4992 218.512 39.5104 212.091 35.3239 207.023C25.6085 195.26 -1.18093 180.115 22.5457 164.814C48.0325 148.385 49.3949 189.565 54.6851 202.563Z" stroke="#FFC83C" stroke-width="2" stroke-miterlimit="10"/>
<path d="M429.139 65.9732C428.888 67.9239 429.029 69.9721 428.728 71.9422C428.199 75.2907 426.452 78.3433 423.804 80.5446C422.269 81.8028 420.434 82.7683 419.181 84.2996C417.927 85.8309 417.456 88.2497 418.85 89.6639C419.647 90.3666 420.664 90.7889 421.738 90.8636C425.298 91.3512 428.878 90.4149 432.428 89.8882C435.792 89.388 439.202 89.2474 442.597 89.4688C446.077 89.6932 450.319 89.9663 452.255 87.1476C454.19 84.3289 452.054 80.2618 449.296 77.999C446.93 76.0483 443.901 74.5561 442.156 71.9812C440.411 69.4064 440.461 66.1293 439.047 63.3789C435.978 57.4879 429.881 59.9067 429.139 65.9732Z" stroke="#FFC83C" stroke-width="2" stroke-miterlimit="10"/>
<path d="M241.294 178.81C236.981 180.77 232.232 184.385 233.105 188.991C233.977 193.596 239.827 195.291 243.545 198.338C246.896 201.081 248.681 205.344 249.256 209.596C249.831 213.848 249.306 218.179 248.78 222.451C248.363 224.801 248.363 227.205 248.78 229.555C249.325 231.877 250.882 234.111 253.192 234.787C255.78 235.541 258.546 234.189 260.499 232.357C265.249 227.899 266.607 221.089 268.312 214.838C271.675 202.515 277.22 190.877 284.692 180.466C286.873 177.429 289.292 174.323 289.818 170.668C291.88 156.088 275.868 166.376 270.513 168.581C260.936 172.471 250.713 174.568 241.294 178.81Z" stroke="#FFC83C" stroke-width="2" stroke-miterlimit="10"/>
<path d="M253.739 184.741C252.269 186.1 251.484 188.388 252.379 190.176C253.273 191.965 255.249 192.654 256.501 194.093C258.021 195.831 258.25 198.339 258.2 200.657C258.116 201.68 258.183 202.71 258.399 203.714C258.511 204.216 258.747 204.682 259.085 205.068C259.424 205.454 259.854 205.748 260.336 205.922C261.746 206.312 263.187 205.183 263.763 203.834C264.221 202.441 264.466 200.985 264.488 199.518C264.995 195.062 271.969 186.64 269.455 182.763C266.942 178.887 256.412 182.254 253.739 184.741Z" stroke="#FFC83C" stroke-width="2" stroke-miterlimit="10"/>
<path d="M117.541 -3.33173C122.24 6.41968 123.616 17.416 124.813 28.1356C124.914 30.0683 125.356 31.968 126.119 33.7473C126.514 34.6304 127.134 35.3948 127.917 35.9649C128.7 36.5351 129.618 36.8911 130.581 36.9978C132.411 37.0571 134.034 35.9011 135.419 34.7254C143.918 27.5033 149.271 17.3369 156.829 9.10699C167.198 -2.22519 181.357 -9.51652 195.97 -14.2391C210.583 -18.9617 225.859 -21.3526 240.938 -24.3165C242.528 -24.5143 244.054 -25.0682 245.4 -25.9368C246.062 -26.3869 246.558 -27.0413 246.811 -27.7998C247.065 -28.5582 247.063 -29.3788 246.805 -30.1358C246.241 -31.3806 244.826 -31.9932 243.54 -32.4476C227.619 -38.0856 210.311 -38.4975 194.139 -33.6233C183.543 -30.3828 173.738 -24.9488 163.241 -21.3723C150.646 -17.0845 136.626 -15.6025 124.071 -20.0089C121.013 -21.0858 101.028 -31.7956 102.037 -22.8642C102.354 -20.0978 108.537 -16.3435 110.407 -14.1798C113.254 -10.894 115.653 -7.2463 117.541 -3.33173V-3.33173Z" stroke="#FFC83C" stroke-width="2" stroke-miterlimit="10"/>
<path d="M132.17 11.891C132.259 12.4523 132.338 13.0235 132.417 13.5947C132.952 17.4847 135.892 20.4884 139.802 18.2135C146.365 14.4318 146.425 4.99731 151.364 -0.192649C153.107 -2.0244 158.007 -4.13189 155.096 -7.36207C153.869 -8.72111 151.84 -9.0461 150.008 -8.92792C146.316 -8.69157 141.772 -7.02726 138.129 -7.68708C134.239 -8.39614 126.577 -13.2808 128.23 -6.25909C129.586 -0.163108 131.2 5.7556 132.17 11.891Z" stroke="#FFC83C" stroke-width="2" stroke-miterlimit="10"/>
</g>
</svg>
