<svg width="20" height="20" viewBox="0 0 20 20" fill="none" xmlns="http://www.w3.org/2000/svg">
<path d="M18.9995 14.7278V17.287C19.0004 17.5245 18.9517 17.7597 18.8563 17.9774C18.7609 18.1951 18.6211 18.3905 18.4457 18.5511C18.2702 18.7117 18.0632 18.834 17.8376 18.9101C17.6121 18.9862 17.3732 19.0145 17.1361 18.9931C14.5059 18.7078 11.9794 17.8109 9.75957 16.3742C7.69433 15.0644 5.94337 13.3169 4.63104 11.2558C3.18648 9.03034 2.28751 6.49657 2.00694 3.85976C1.98558 3.62386 2.01367 3.3861 2.08942 3.16163C2.16518 2.93716 2.28693 2.73089 2.44694 2.55596C2.60694 2.38102 2.80169 2.24125 3.01879 2.14555C3.23589 2.04985 3.47057 2.00031 3.7079 2.00008H6.27217C6.68698 1.99601 7.08913 2.14261 7.40366 2.41257C7.71818 2.68252 7.92362 3.05741 7.98168 3.46735C8.08991 4.28635 8.29063 5.09049 8.58001 5.86445C8.69501 6.16978 8.7199 6.50162 8.65173 6.82063C8.58355 7.13965 8.42518 7.43248 8.19537 7.66441L7.10983 8.7478C8.32662 10.8835 10.0984 12.6518 12.2384 13.8662L13.3239 12.7828C13.5563 12.5534 13.8497 12.3954 14.1694 12.3273C14.489 12.2593 14.8215 12.2841 15.1274 12.3989C15.9029 12.6877 16.7087 12.888 17.5293 12.9961C17.9445 13.0545 18.3237 13.2632 18.5948 13.5825C18.8658 13.9018 19.0099 14.3094 18.9995 14.7278Z" stroke="white" stroke-width="2" stroke-linecap="round" stroke-linejoin="round"/>
</svg>
