<svg width="152" height="150" viewBox="0 0 152 150" fill="none" xmlns="http://www.w3.org/2000/svg">
<path d="M76 21.2679C86.6272 21.2679 97.0158 24.4192 105.852 30.3234C114.688 36.2275 121.575 44.6193 125.642 54.4376C129.709 64.2559 130.773 75.0596 128.7 85.4826C126.626 95.9056 121.509 105.48 113.994 112.994C106.48 120.509 96.9057 125.626 86.4826 127.7C76.0596 129.773 65.2559 128.709 55.4376 124.642C45.6194 120.575 37.2275 113.688 31.3234 104.852C25.4192 96.0158 22.2679 85.6272 22.2679 75C22.2847 60.7545 27.9511 47.0973 38.0242 37.0242C48.0973 26.9511 61.7545 21.2846 76 21.2679ZM76 20C65.1221 20 54.4884 23.2257 45.4437 29.2692C36.399 35.3126 29.3495 43.9025 25.1866 53.9524C21.0238 64.0023 19.9346 75.061 22.0568 85.73C24.179 96.3989 29.4173 106.199 37.1092 113.891C44.801 121.583 54.6011 126.821 65.2701 128.943C75.939 131.065 86.9977 129.976 97.0476 125.813C107.098 121.651 115.687 114.601 121.731 105.556C127.774 96.5117 131 85.878 131 75C131 60.4131 125.205 46.4236 114.891 36.1091C104.576 25.7946 90.5869 20 76 20Z" fill="#4A4A4A"/>
<path d="M76 14.2402C88.0172 14.2402 99.7645 17.8037 109.756 24.48C119.748 31.1564 127.536 40.6458 132.135 51.7482C136.734 62.8506 137.937 75.0674 135.592 86.8536C133.248 98.6399 127.461 109.466 118.964 117.964C110.466 126.461 99.6399 132.248 87.8537 134.592C76.0674 136.937 63.8507 135.733 52.7483 131.135C41.6458 126.536 32.1565 118.748 25.4801 108.756C18.8037 98.7644 15.2402 87.0171 15.2402 75C15.2541 58.8897 21.66 43.4433 33.0517 32.0516C44.4433 20.66 59.8898 14.2541 76 14.2402ZM76 9C62.9465 9 50.186 12.8708 39.3324 20.123C28.4788 27.3752 20.0194 37.683 15.024 49.7429C10.0286 61.8028 8.72158 75.0732 11.2682 87.8759C13.8148 100.679 20.1007 112.439 29.331 121.669C38.5613 130.899 50.3213 137.185 63.1241 139.732C75.9268 142.278 89.1972 140.971 101.257 135.976C113.317 130.981 123.625 122.521 130.877 111.668C138.129 100.814 142 88.0536 142 75C142.002 66.3323 140.296 57.7491 136.98 49.7408C133.663 41.7326 128.802 34.4561 122.673 28.3271C116.544 22.1981 109.267 17.3366 101.259 14.0204C93.2509 10.7042 84.6678 8.99828 76 9Z" fill="#F7B203"/>
<path d="M130.835 31H121.561M121 29.8057V20.2516M121.091 30.3312L135.001 16" stroke="#F6B203" stroke-width="4" stroke-linecap="round" stroke-linejoin="round"/>
<path d="M25.1652 124L34.4385 124M35 125.194L35 134.748M34.9095 124.669L20.9995 139" stroke="#F6B203" stroke-width="4" stroke-linecap="round" stroke-linejoin="round"/>
<path d="M34.4021 70.4422C35.8825 70.3862 37.326 70.915 38.4234 71.9154C38.9363 72.3866 39.3423 72.9631 39.614 73.606C39.8857 74.2488 40.0166 74.9428 39.998 75.641C40.018 76.3537 39.8881 77.0627 39.6168 77.7214C39.3454 78.3802 38.9388 78.974 38.4234 79.4639C37.9062 79.9692 37.2935 80.3653 36.6216 80.6287C35.9497 80.8922 35.2321 81.0177 34.5111 80.998C33.5325 81.0095 32.5666 80.7752 31.701 80.3162C30.8832 79.8921 30.1995 79.247 29.7267 78.4534C29.2551 77.6356 29.0046 76.708 29 75.7627H32.4157C32.4171 76.1503 32.5262 76.5298 32.7306 76.8585C32.9029 77.1779 33.1638 77.4402 33.4816 77.6133C33.807 77.7958 34.1748 77.8882 34.5474 77.8812C34.8271 77.8891 35.1053 77.8379 35.364 77.731C35.6227 77.624 35.8562 77.4636 36.0494 77.2603C36.4361 76.8069 36.6437 76.2265 36.6325 75.6294C36.6213 75.0323 36.3923 74.4601 35.9888 74.0217C35.7672 73.8073 35.5051 73.6398 35.2181 73.529C34.931 73.4181 34.6247 73.3663 34.3173 73.3764H29.8721L29.5693 72.9503L30.4414 65H38.92V68.0316H33.1061L32.8154 70.4666L34.4021 70.4422Z" fill="#4A4A4A"/>
<path d="M48.0116 80.9967C46.882 81.0185 45.7733 80.6771 44.836 80.0186C43.8985 79.3205 43.1729 78.3559 42.7455 77.2395C42.2318 75.8896 41.9832 74.4456 42.0144 72.9934C41.9002 70.9071 42.4681 68.8422 43.6251 67.1371C44.1612 66.468 44.8313 65.9299 45.5882 65.5606C46.3451 65.1914 47.1704 65 48.0059 65C48.8414 65 49.6667 65.1914 50.4236 65.5606C51.1805 65.9299 51.8507 66.468 52.3867 67.1371C53.5348 68.8462 54.0981 70.9092 53.986 72.9934C54.0931 75.0752 53.5257 77.1339 52.3753 78.8378C51.8662 79.5357 51.2043 80.096 50.445 80.4716C49.6858 80.8472 48.8513 81.0273 48.0116 80.9967ZM45.9326 76.6432C46.1389 77.0281 46.4398 77.3486 46.8042 77.5716C47.1687 77.7947 47.5835 77.9123 48.0059 77.9123C48.4283 77.9123 48.8431 77.7947 49.2076 77.5716C49.572 77.3486 49.8729 77.0281 50.0792 76.6432C50.6101 75.514 50.854 74.2613 50.7875 73.0053C50.855 71.7403 50.607 70.4787 50.0678 69.3437C49.8715 68.9533 49.5754 68.6274 49.2125 68.4021C48.8495 68.1768 48.4338 68.061 48.0116 68.0674C47.5867 68.0554 47.1671 68.1673 46.7998 68.3907C46.4325 68.614 46.1322 68.9399 45.9326 69.3317C45.3909 70.4658 45.1428 71.7282 45.2129 72.9934C45.1437 74.2547 45.3918 75.513 45.9326 76.6432Z" fill="#4A4A4A"/>
<path d="M62 75V72H70V75H62Z" fill="#4A4A4A"/>
<path d="M90 73.5788V76.7358H88.5252V80H85.1116V76.7358H77V76.1044L82.5782 63H86.1464L81.6505 73.5193H85.2187L85.8015 69.4688H88.5252V73.5193L90 73.5788Z" fill="#4A4A4A"/>
<path d="M99.0174 79.9955C97.6987 80.023 96.4035 79.661 95.3106 78.9593C94.2174 78.218 93.3754 77.1898 92.8878 76.0006C92.2814 74.5672 91.9847 73.0325 92.0156 71.4878C91.8877 69.2738 92.5493 67.0836 93.8932 65.2711C94.5186 64.5601 95.3005 63.9882 96.1838 63.5958C97.0671 63.2034 98.0302 63 99.0053 63C99.9803 63 100.943 63.2034 101.827 63.5958C102.71 63.9882 103.492 64.5601 104.117 65.2711C105.452 67.0874 106.109 69.2758 105.983 71.4878C106.117 73.699 105.464 75.8887 104.129 77.7045C103.534 78.4489 102.758 79.0458 101.868 79.4447C100.979 79.8435 100.001 80.0324 99.0174 79.9955ZM96.5946 75.3905C96.8272 75.8057 97.1773 76.1508 97.6055 76.3868C98.0336 76.6228 98.5227 76.7403 99.0174 76.7259C99.5129 76.7444 100.004 76.6286 100.433 76.3922C100.862 76.1558 101.211 75.8084 101.44 75.3905C102.066 74.1796 102.346 72.8338 102.252 71.4878C102.328 70.1502 102.036 68.8168 101.404 67.6196C101.177 67.1983 100.829 66.847 100.4 66.6065C99.9708 66.366 99.4788 66.2462 98.981 66.2612C98.4853 66.2492 97.996 66.369 97.5679 66.6069C97.1399 66.8449 96.7903 67.1916 96.5583 67.6081C95.9172 68.8024 95.6244 70.1381 95.7103 71.4763C95.6332 72.8289 95.9385 74.1764 96.5946 75.379V75.3905Z" fill="#4A4A4A"/>
<path d="M115 79.9947C113.68 80.0223 112.384 79.66 111.29 78.9579C110.196 78.2161 109.354 77.1872 108.866 75.9973C108.269 74.5649 107.98 73.0332 108.017 71.4929C107.883 69.2769 108.546 67.0834 109.896 65.2721C110.521 64.5609 111.302 63.9888 112.185 63.5961C113.068 63.2035 114.031 63 115.006 63C115.981 63 116.944 63.2035 117.827 63.5961C118.71 63.9888 119.492 64.5609 120.116 65.2721C121.457 67.0873 122.115 69.2789 121.984 71.4929C122.108 73.7044 121.446 75.8913 120.104 77.7022C119.513 78.4492 118.74 79.0482 117.85 79.4475C116.961 79.8469 115.983 80.0347 115 79.9947ZM112.575 75.3867C112.819 75.7939 113.171 76.1326 113.597 76.3682C114.023 76.6038 114.507 76.7279 115 76.7279C115.493 76.7279 115.977 76.6038 116.403 76.3682C116.829 76.1326 117.182 75.7939 117.425 75.3867C118.045 74.1731 118.325 72.8279 118.237 71.4814C118.317 70.144 118.029 68.8099 117.401 67.6107C117.165 67.1942 116.816 66.8461 116.389 66.6034C115.962 66.3608 115.473 66.2326 114.976 66.2326C114.478 66.2326 113.99 66.3608 113.563 66.6034C113.136 66.8461 112.787 67.1942 112.551 67.6107C111.915 68.8076 111.622 70.1427 111.703 71.4814C111.63 72.8296 111.931 74.1723 112.575 75.3752V75.3867Z" fill="#4A4A4A"/>
<path d="M73 96.9882H70.16L69.1515 90.3365L65.7898 97H65.2218L61.8485 90.3365L60.84 96.9882H58L59.8199 86H62.3354L65.5 92.2639L68.711 86H71.2148L73 96.9882Z" fill="#4A4A4A"/>
<path d="M89 96.9882H86.16L85.1515 90.3365L81.7898 97H81.2218L77.8485 90.3365L76.84 96.9882H74L75.8199 86H78.3354L81.5 92.2639L84.711 86H87.2148L89 96.9882Z" fill="#4A4A4A"/>
</svg>
