<svg width="68" height="139" viewBox="0 0 68 139" fill="none" xmlns="http://www.w3.org/2000/svg">
<path fill-rule="evenodd" clip-rule="evenodd" d="M60.4336 58.0001L66.7236 61.6701V61.6401C66.9639 61.7786 67.1746 61.9632 67.3436 62.1831C67.5126 62.4031 67.6366 62.6542 67.7086 62.9221C67.7805 63.19 67.799 63.4694 67.763 63.7445C67.727 64.0195 67.6371 64.2848 67.4986 64.5251C67.36 64.7654 67.1755 64.9761 66.9555 65.1451C66.7356 65.3141 66.4845 65.4381 66.2166 65.5101C65.9487 65.5821 65.6692 65.6006 65.3942 65.5645C65.1191 65.5285 64.8539 65.4386 64.6136 65.3001L58.3236 61.6701L58.2636 68.0001C58.2663 68.2823 58.2124 68.5621 58.105 68.8231C57.9977 69.084 57.8391 69.3208 57.6387 69.5194C57.4382 69.718 57.1999 69.8744 56.938 69.9793C56.676 70.0842 56.3957 70.1354 56.1136 70.1301C55.8365 70.1275 55.5626 70.0703 55.3076 69.9618C55.0526 69.8534 54.8215 69.6958 54.6274 69.498C54.4333 69.3002 54.2801 69.0661 54.1765 68.8091C54.0729 68.5521 54.0209 68.2772 54.0236 68.0001L53.9536 59.2701L42.6236 52.7301V65.7601L50.2236 70.0501C50.6551 70.2637 51.0006 70.6185 51.2026 71.0556C51.4047 71.4926 51.4512 71.9857 51.3344 72.4528C51.2176 72.9199 50.9446 73.3331 50.5606 73.6236C50.1766 73.9142 49.7049 74.0647 49.2236 74.0501C48.8723 74.0495 48.5274 73.9563 48.2236 73.7801L42.7036 70.6601V77.9801C42.7036 78.5397 42.4813 79.0764 42.0856 79.4721C41.6899 79.8678 41.1532 80.0901 40.5936 80.0901L40.6736 18.0901C41.2332 18.0901 41.7699 18.3124 42.1656 18.7081C42.5613 19.1038 42.7836 19.6405 42.7836 20.2001V27.4701L48.3036 24.3501C48.5452 24.2135 48.8114 24.1259 49.0869 24.0922C49.3624 24.0584 49.6418 24.0793 49.9092 24.1536C50.1767 24.2279 50.4269 24.3541 50.6455 24.5251C50.8642 24.6961 51.047 24.9085 51.1836 25.1501C51.3201 25.3917 51.4078 25.6579 51.4415 25.9334C51.4752 26.2089 51.4543 26.4883 51.38 26.7558C51.3057 27.0232 51.1795 27.2734 51.0085 27.492C50.8376 27.7107 50.6252 27.8935 50.3836 28.0301L42.7836 32.3301V45.4001L54.1136 38.8201L54.0336 30.1001C54.0704 29.5643 54.3093 29.0624 54.7019 28.6959C55.0944 28.3294 55.6115 28.1256 56.1486 28.1256C56.6856 28.1256 57.2027 28.3294 57.5953 28.6959C57.9878 29.0624 58.2267 29.5643 58.2636 30.1001L58.3236 36.4401L64.6136 32.8001C64.8539 32.6615 65.1191 32.5717 65.3942 32.5357C65.6692 32.4996 65.9487 32.5181 66.2166 32.5901C66.4845 32.662 66.7356 32.7861 66.9555 32.9551C67.1755 33.1241 67.36 33.3348 67.4986 33.5751C67.6371 33.8154 67.727 34.0807 67.763 34.3557C67.799 34.6308 67.7805 34.9102 67.7086 35.1781C67.6366 35.446 67.5126 35.6971 67.3436 35.9171C67.1746 36.137 66.9639 36.3215 66.7236 36.4601L60.4336 40.1001L65.8836 43.3501C66.2807 43.5873 66.5893 43.9478 66.7624 44.3767C66.9355 44.8056 66.9636 45.2794 66.8424 45.7258C66.7212 46.1721 66.4573 46.5666 66.091 46.849C65.7247 47.1315 65.2761 47.2864 64.8136 47.2901C64.437 47.2935 64.0668 47.1932 63.7436 47.0001L56.2236 42.5301L44.9036 49.0701L56.2236 55.6101L63.7436 51.1501C63.9826 51.0089 64.247 50.9162 64.5219 50.8772C64.7967 50.8383 65.0765 50.8538 65.3454 50.923C65.6142 50.9922 65.8667 51.1136 66.0886 51.2804C66.3105 51.4472 66.4974 51.6561 66.6386 51.8951C66.7797 52.1341 66.8724 52.3986 66.9114 52.6734C66.9504 52.9482 66.9348 53.2281 66.8656 53.4969C66.7964 53.7657 66.675 54.0183 66.5082 54.2402C66.3414 54.4621 66.1326 54.6489 65.8936 54.7901L60.4336 58.0001Z" fill="#F6B203"/>
<mask id="path-2-outside-1_1602_4981" maskUnits="userSpaceOnUse" x="0" y="0" width="54" height="139" fill="black">
<rect fill="white" width="54" height="139"/>
<path d="M40.8736 93.14V19C40.8736 19 40.8736 18.36 40.8736 18C40.8736 14.287 39.3987 10.726 36.7731 8.1005C34.1476 5.475 30.5867 4 26.8736 4C23.1606 4 19.5997 5.475 16.9741 8.1005C14.3486 10.726 12.8736 14.287 12.8736 18C12.8736 18.42 12.9336 93.31 12.9336 93.31C9.12753 96.2521 6.33974 100.314 4.96258 104.923C3.58542 109.532 3.68823 114.457 5.25653 119.005C6.82483 123.553 9.77967 127.495 13.7052 130.275C17.6308 133.056 22.3295 134.536 27.1401 134.507C31.9507 134.477 36.631 132.94 40.5224 130.112C44.4138 127.284 47.3204 123.306 48.8332 118.74C50.346 114.173 50.3888 109.247 48.9556 104.655C47.5224 100.063 44.6853 96.0355 40.8436 93.14H40.8736Z"/>
</mask>
<path d="M40.8736 93.14V19C40.8736 19 40.8736 18.36 40.8736 18C40.8736 14.287 39.3987 10.726 36.7731 8.1005C34.1476 5.475 30.5867 4 26.8736 4C23.1606 4 19.5997 5.475 16.9741 8.1005C14.3486 10.726 12.8736 14.287 12.8736 18C12.8736 18.42 12.9336 93.31 12.9336 93.31C9.12753 96.2521 6.33974 100.314 4.96258 104.923C3.58542 109.532 3.68823 114.457 5.25653 119.005C6.82483 123.553 9.77967 127.495 13.7052 130.275C17.6308 133.056 22.3295 134.536 27.1401 134.507C31.9507 134.477 36.631 132.94 40.5224 130.112C44.4138 127.284 47.3204 123.306 48.8332 118.74C50.346 114.173 50.3888 109.247 48.9556 104.655C47.5224 100.063 44.6853 96.0355 40.8436 93.14H40.8736Z" fill="#E1E1E1"/>
<path d="M40.8736 93.14V97.14H44.8736V93.14H40.8736ZM26.8736 4V0V4ZM12.8736 18H8.87364H12.8736ZM12.9336 93.31L15.38 96.4747L16.9352 95.2725L16.9336 93.3068L12.9336 93.31ZM40.8436 93.14V89.14H28.891L38.4361 96.3343L40.8436 93.14ZM44.8736 93.14V19H36.8736V93.14H44.8736ZM40.8736 19C44.8736 19 44.8736 19 44.8736 19C44.8736 19 44.8736 19 44.8736 19C44.8736 19 44.8736 18.9999 44.8736 18.9999C44.8736 18.9999 44.8736 18.9999 44.8736 18.9999C44.8736 18.9999 44.8736 18.9998 44.8736 18.9998C44.8736 18.9998 44.8736 18.9998 44.8736 18.9997C44.8736 18.9997 44.8736 18.9997 44.8736 18.9996C44.8736 18.9996 44.8736 18.9996 44.8736 18.9995C44.8736 18.9995 44.8736 18.9995 44.8736 18.9994C44.8736 18.9994 44.8736 18.9993 44.8736 18.9993C44.8736 18.9992 44.8736 18.9992 44.8736 18.9991C44.8736 18.9991 44.8736 18.999 44.8736 18.999C44.8736 18.9989 44.8736 18.9988 44.8736 18.9988C44.8736 18.9987 44.8736 18.9987 44.8736 18.9986C44.8736 18.9985 44.8736 18.9984 44.8736 18.9984C44.8736 18.9983 44.8736 18.9982 44.8736 18.9982C44.8736 18.9981 44.8736 18.998 44.8736 18.9979C44.8736 18.9978 44.8736 18.9978 44.8736 18.9977C44.8736 18.9976 44.8736 18.9975 44.8736 18.9974C44.8736 18.9973 44.8736 18.9972 44.8736 18.9971C44.8736 18.997 44.8736 18.9969 44.8736 18.9968C44.8736 18.9967 44.8736 18.9966 44.8736 18.9965C44.8736 18.9964 44.8736 18.9963 44.8736 18.9962C44.8736 18.9961 44.8736 18.996 44.8736 18.9959C44.8736 18.9958 44.8736 18.9956 44.8736 18.9955C44.8736 18.9954 44.8736 18.9953 44.8736 18.9952C44.8736 18.995 44.8736 18.9949 44.8736 18.9948C44.8736 18.9947 44.8736 18.9945 44.8736 18.9944C44.8736 18.9943 44.8736 18.9941 44.8736 18.994C44.8736 18.9939 44.8736 18.9937 44.8736 18.9936C44.8736 18.9935 44.8736 18.9933 44.8736 18.9932C44.8736 18.993 44.8736 18.9929 44.8736 18.9927C44.8736 18.9926 44.8736 18.9924 44.8736 18.9923C44.8736 18.9921 44.8736 18.992 44.8736 18.9918C44.8736 18.9916 44.8736 18.9915 44.8736 18.9913C44.8736 18.9912 44.8736 18.991 44.8736 18.9908C44.8736 18.9907 44.8736 18.9905 44.8736 18.9903C44.8736 18.9901 44.8736 18.99 44.8736 18.9898C44.8736 18.9896 44.8736 18.9894 44.8736 18.9893C44.8736 18.9891 44.8736 18.9889 44.8736 18.9887C44.8736 18.9885 44.8736 18.9883 44.8736 18.9882C44.8736 18.988 44.8736 18.9878 44.8736 18.9876C44.8736 18.9874 44.8736 18.9872 44.8736 18.987C44.8736 18.9868 44.8736 18.9866 44.8736 18.9864C44.8736 18.9862 44.8736 18.986 44.8736 18.9858C44.8736 18.9856 44.8736 18.9854 44.8736 18.9852C44.8736 18.985 44.8736 18.9847 44.8736 18.9845C44.8736 18.9843 44.8736 18.9841 44.8736 18.9839C44.8736 18.9837 44.8736 18.9834 44.8736 18.9832C44.8736 18.983 44.8736 18.9828 44.8736 18.9825C44.8736 18.9823 44.8736 18.9821 44.8736 18.9819C44.8736 18.9816 44.8736 18.9814 44.8736 18.9812C44.8736 18.9809 44.8736 18.9807 44.8736 18.9804C44.8736 18.9802 44.8736 18.98 44.8736 18.9797C44.8736 18.9795 44.8736 18.9792 44.8736 18.979C44.8736 18.9787 44.8736 18.9785 44.8736 18.9782C44.8736 18.978 44.8736 18.9777 44.8736 18.9775C44.8736 18.9772 44.8736 18.977 44.8736 18.9767C44.8736 18.9764 44.8736 18.9762 44.8736 18.9759C44.8736 18.9756 44.8736 18.9754 44.8736 18.9751C44.8736 18.9748 44.8736 18.9746 44.8736 18.9743C44.8736 18.974 44.8736 18.9738 44.8736 18.9735C44.8736 18.9732 44.8736 18.9729 44.8736 18.9726C44.8736 18.9724 44.8736 18.9721 44.8736 18.9718C44.8736 18.9715 44.8736 18.9712 44.8736 18.9709C44.8736 18.9706 44.8736 18.9704 44.8736 18.9701C44.8736 18.9698 44.8736 18.9695 44.8736 18.9692C44.8736 18.9689 44.8736 18.9686 44.8736 18.9683C44.8736 18.968 44.8736 18.9677 44.8736 18.9674C44.8736 18.9671 44.8736 18.9668 44.8736 18.9665C44.8736 18.9662 44.8736 18.9658 44.8736 18.9655C44.8736 18.9652 44.8736 18.9649 44.8736 18.9646C44.8736 18.9643 44.8736 18.964 44.8736 18.9636C44.8736 18.9633 44.8736 18.963 44.8736 18.9627C44.8736 18.9623 44.8736 18.962 44.8736 18.9617C44.8736 18.9614 44.8736 18.961 44.8736 18.9607C44.8736 18.9604 44.8736 18.96 44.8736 18.9597C44.8736 18.9594 44.8736 18.959 44.8736 18.9587C44.8736 18.9584 44.8736 18.958 44.8736 18.9577C44.8736 18.9573 44.8736 18.957 44.8736 18.9566C44.8736 18.9563 44.8736 18.9559 44.8736 18.9556C44.8736 18.9552 44.8736 18.9549 44.8736 18.9545C44.8736 18.9542 44.8736 18.9538 44.8736 18.9535C44.8736 18.9531 44.8736 18.9527 44.8736 18.9524C44.8736 18.952 44.8736 18.9517 44.8736 18.9513C44.8736 18.9509 44.8736 18.9506 44.8736 18.9502C44.8736 18.9498 44.8736 18.9494 44.8736 18.9491C44.8736 18.9487 44.8736 18.9483 44.8736 18.948C44.8736 18.9476 44.8736 18.9472 44.8736 18.9468C44.8736 18.9464 44.8736 18.9461 44.8736 18.9457C44.8736 18.9453 44.8736 18.9449 44.8736 18.9445C44.8736 18.9441 44.8736 18.9437 44.8736 18.9433C44.8736 18.943 44.8736 18.9426 44.8736 18.9422C44.8736 18.9418 44.8736 18.9414 44.8736 18.941C44.8736 18.9406 44.8736 18.9402 44.8736 18.9398C44.8736 18.9394 44.8736 18.939 44.8736 18.9386C44.8736 18.9382 44.8736 18.9378 44.8736 18.9373C44.8736 18.9369 44.8736 18.9365 44.8736 18.9361C44.8736 18.9357 44.8736 18.9353 44.8736 18.9349C44.8736 18.9345 44.8736 18.934 44.8736 18.9336C44.8736 18.9332 44.8736 18.9328 44.8736 18.9323C44.8736 18.9319 44.8736 18.9315 44.8736 18.9311C44.8736 18.9306 44.8736 18.9302 44.8736 18.9298C44.8736 18.9294 44.8736 18.9289 44.8736 18.9285C44.8736 18.9281 44.8736 18.9276 44.8736 18.9272C44.8736 18.9267 44.8736 18.9263 44.8736 18.9259C44.8736 18.9254 44.8736 18.925 44.8736 18.9245C44.8736 18.9241 44.8736 18.9237 44.8736 18.9232C44.8736 18.9228 44.8736 18.9223 44.8736 18.9219C44.8736 18.9214 44.8736 18.921 44.8736 18.9205C44.8736 18.92 44.8736 18.9196 44.8736 18.9191C44.8736 18.9187 44.8736 18.9182 44.8736 18.9178C44.8736 18.9173 44.8736 18.9168 44.8736 18.9164C44.8736 18.9159 44.8736 18.9154 44.8736 18.915C44.8736 18.9145 44.8736 18.914 44.8736 18.9136C44.8736 18.9131 44.8736 18.9126 44.8736 18.9121C44.8736 18.9117 44.8736 18.9112 44.8736 18.9107C44.8736 18.9102 44.8736 18.9098 44.8736 18.9093C44.8736 18.9088 44.8736 18.9083 44.8736 18.9078C44.8736 18.9073 44.8736 18.9069 44.8736 18.9064C44.8736 18.9059 44.8736 18.9054 44.8736 18.9049C44.8736 18.9044 44.8736 18.9039 44.8736 18.9034C44.8736 18.9029 44.8736 18.9024 44.8736 18.9019C44.8736 18.9015 44.8736 18.901 44.8736 18.9005C44.8736 18.9 44.8736 18.8995 44.8736 18.8989C44.8736 18.8984 44.8736 18.8979 44.8736 18.8974C44.8736 18.8969 44.8736 18.8964 44.8736 18.8959C44.8736 18.8954 44.8736 18.8949 44.8736 18.8944C44.8736 18.8939 44.8736 18.8933 44.8736 18.8928C44.8736 18.8923 44.8736 18.8918 44.8736 18.8913C44.8736 18.8908 44.8736 18.8902 44.8736 18.8897C44.8736 18.8892 44.8736 18.8887 44.8736 18.8881C44.8736 18.8876 44.8736 18.8871 44.8736 18.8866C44.8736 18.886 44.8736 18.8855 44.8736 18.885C44.8736 18.8844 44.8736 18.8839 44.8736 18.8834C44.8736 18.8828 44.8736 18.8823 44.8736 18.8818C44.8736 18.8812 44.8736 18.8807 44.8736 18.8802C44.8736 18.8796 44.8736 18.8791 44.8736 18.8785C44.8736 18.878 44.8736 18.8774 44.8736 18.8769C44.8736 18.8764 44.8736 18.8758 44.8736 18.8753C44.8736 18.8747 44.8736 18.8742 44.8736 18.8736C44.8736 18.873 44.8736 18.8725 44.8736 18.8719C44.8736 18.8714 44.8736 18.8708 44.8736 18.8703C44.8736 18.8697 44.8736 18.8692 44.8736 18.8686C44.8736 18.868 44.8736 18.8675 44.8736 18.8669C44.8736 18.8663 44.8736 18.8658 44.8736 18.8652C44.8736 18.8646 44.8736 18.8641 44.8736 18.8635C44.8736 18.8629 44.8736 18.8624 44.8736 18.8618C44.8736 18.8612 44.8736 18.8606 44.8736 18.8601C44.8736 18.8595 44.8736 18.8589 44.8736 18.8583C44.8736 18.8578 44.8736 18.8572 44.8736 18.8566C44.8736 18.856 44.8736 18.8554 44.8736 18.8549C44.8736 18.8543 44.8736 18.8537 44.8736 18.8531C44.8736 18.8525 44.8736 18.8519 44.8736 18.8513C44.8736 18.8507 44.8736 18.8502 44.8736 18.8496C44.8736 18.849 44.8736 18.8484 44.8736 18.8478C44.8736 18.8472 44.8736 18.8466 44.8736 18.846C44.8736 18.8454 44.8736 18.8448 44.8736 18.8442C44.8736 18.8436 44.8736 18.843 44.8736 18.8424C44.8736 18.8418 44.8736 18.8412 44.8736 18.8406C44.8736 18.84 44.8736 18.8394 44.8736 18.8388C44.8736 18.8381 44.8736 18.8375 44.8736 18.8369C44.8736 18.8363 44.8736 18.8357 44.8736 18.8351C44.8736 18.8345 44.8736 18.8339 44.8736 18.8332C44.8736 18.8326 44.8736 18.832 44.8736 18.8314C44.8736 18.8308 44.8736 18.8302 44.8736 18.8295C44.8736 18.8289 44.8736 18.8283 44.8736 18.8277C44.8736 18.827 44.8736 18.8264 44.8736 18.8258C44.8736 18.8252 44.8736 18.8245 44.8736 18.8239C44.8736 18.8233 44.8736 18.8226 44.8736 18.822C44.8736 18.8214 44.8736 18.8207 44.8736 18.8201C44.8736 18.8195 44.8736 18.8188 44.8736 18.8182C44.8736 18.8176 44.8736 18.8169 44.8736 18.8163C44.8736 18.8156 44.8736 18.815 44.8736 18.8144C44.8736 18.8137 44.8736 18.8131 44.8736 18.8124C44.8736 18.8118 44.8736 18.8111 44.8736 18.8105C44.8736 18.8098 44.8736 18.8092 44.8736 18.8085C44.8736 18.8079 44.8736 18.8072 44.8736 18.8066C44.8736 18.8059 44.8736 18.8053 44.8736 18.8046C44.8736 18.804 44.8736 18.8033 44.8736 18.8027C44.8736 18.802 44.8736 18.8014 44.8736 18.8007C44.8736 18.8 44.8736 18.7994 44.8736 18.7987C44.8736 18.7981 44.8736 18.7974 44.8736 18.7967C44.8736 18.7961 44.8736 18.7954 44.8736 18.7947C44.8736 18.7941 44.8736 18.7934 44.8736 18.7927C44.8736 18.7921 44.8736 18.7914 44.8736 18.7907C44.8736 18.79 44.8736 18.7894 44.8736 18.7887C44.8736 18.788 44.8736 18.7874 44.8736 18.7867C44.8736 18.786 44.8736 18.7853 44.8736 18.7846C44.8736 18.784 44.8736 18.7833 44.8736 18.7826C44.8736 18.7819 44.8736 18.7812 44.8736 18.7806C44.8736 18.7799 44.8736 18.7792 44.8736 18.7785C44.8736 18.7778 44.8736 18.7771 44.8736 18.7765C44.8736 18.7758 44.8736 18.7751 44.8736 18.7744C44.8736 18.7737 44.8736 18.773 44.8736 18.7723C44.8736 18.7716 44.8736 18.7709 44.8736 18.7702C44.8736 18.7696 44.8736 18.7689 44.8736 18.7682C44.8736 18.7675 44.8736 18.7668 44.8736 18.7661C44.8736 18.7654 44.8736 18.7647 44.8736 18.764C44.8736 18.7633 44.8736 18.7626 44.8736 18.7619C44.8736 18.7612 44.8736 18.7605 44.8736 18.7598C44.8736 18.7591 44.8736 18.7583 44.8736 18.7576C44.8736 18.7569 44.8736 18.7562 44.8736 18.7555C44.8736 18.7548 44.8736 18.7541 44.8736 18.7534C44.8736 18.7527 44.8736 18.752 44.8736 18.7513C44.8736 18.7505 44.8736 18.7498 44.8736 18.7491C44.8736 18.7484 44.8736 18.7477 44.8736 18.747C44.8736 18.7462 44.8736 18.7455 44.8736 18.7448C44.8736 18.7441 44.8736 18.7434 44.8736 18.7426C44.8736 18.7419 44.8736 18.7412 44.8736 18.7405C44.8736 18.7398 44.8736 18.739 44.8736 18.7383C44.8736 18.7376 44.8736 18.7369 44.8736 18.7361C44.8736 18.7354 44.8736 18.7347 44.8736 18.7339C44.8736 18.7332 44.8736 18.7325 44.8736 18.7318C44.8736 18.731 44.8736 18.7303 44.8736 18.7296C44.8736 18.7288 44.8736 18.7281 44.8736 18.7274C44.8736 18.7266 44.8736 18.7259 44.8736 18.7252C44.8736 18.7244 44.8736 18.7237 44.8736 18.7229C44.8736 18.7222 44.8736 18.7215 44.8736 18.7207C44.8736 18.72 44.8736 18.7192 44.8736 18.7185C44.8736 18.7178 44.8736 18.717 44.8736 18.7163C44.8736 18.7155 44.8736 18.7148 44.8736 18.714C44.8736 18.7133 44.8736 18.7125 44.8736 18.7118C44.8736 18.711 44.8736 18.7103 44.8736 18.7095C44.8736 18.7088 44.8736 18.708 44.8736 18.7073C44.8736 18.7065 44.8736 18.7058 44.8736 18.705C44.8736 18.7043 44.8736 18.7035 44.8736 18.7028C44.8736 18.702 44.8736 18.7013 44.8736 18.7005C44.8736 18.6997 44.8736 18.699 44.8736 18.6982C44.8736 18.6975 44.8736 18.6967 44.8736 18.6959C44.8736 18.6952 44.8736 18.6944 44.8736 18.6937C44.8736 18.6929 44.8736 18.6921 44.8736 18.6914C44.8736 18.6906 44.8736 18.6898 44.8736 18.6891C44.8736 18.6883 44.8736 18.6875 44.8736 18.6868C44.8736 18.686 44.8736 18.6852 44.8736 18.6845C44.8736 18.6837 44.8736 18.6829 44.8736 18.6822C44.8736 18.6814 44.8736 18.6806 44.8736 18.6799C44.8736 18.6791 44.8736 18.6783 44.8736 18.6775C44.8736 18.6768 44.8736 18.676 44.8736 18.6752C44.8736 18.6744 44.8736 18.6737 44.8736 18.6729C44.8736 18.6721 44.8736 18.6713 44.8736 18.6705C44.8736 18.6698 44.8736 18.669 44.8736 18.6682C44.8736 18.6674 44.8736 18.6666 44.8736 18.6659C44.8736 18.6651 44.8736 18.6643 44.8736 18.6635C44.8736 18.6627 44.8736 18.662 44.8736 18.6612C44.8736 18.6604 44.8736 18.6596 44.8736 18.6588C44.8736 18.658 44.8736 18.6572 44.8736 18.6564C44.8736 18.6557 44.8736 18.6549 44.8736 18.6541C44.8736 18.6533 44.8736 18.6525 44.8736 18.6517C44.8736 18.6509 44.8736 18.6501 44.8736 18.6493C44.8736 18.6485 44.8736 18.6478 44.8736 18.647C44.8736 18.6462 44.8736 18.6454 44.8736 18.6446C44.8736 18.6438 44.8736 18.643 44.8736 18.6422C44.8736 18.6414 44.8736 18.6406 44.8736 18.6398C44.8736 18.639 44.8736 18.6382 44.8736 18.6374C44.8736 18.6366 44.8736 18.6358 44.8736 18.635C44.8736 18.6342 44.8736 18.6334 44.8736 18.6326C44.8736 18.6318 44.8736 18.631 44.8736 18.6302C44.8736 18.6294 44.8736 18.6286 44.8736 18.6278C44.8736 18.627 44.8736 18.6262 44.8736 18.6254C44.8736 18.6246 44.8736 18.6237 44.8736 18.6229C44.8736 18.6221 44.8736 18.6213 44.8736 18.6205C44.8736 18.6197 44.8736 18.6189 44.8736 18.6181C44.8736 18.6173 44.8736 18.6165 44.8736 18.6157C44.8736 18.6148 44.8736 18.614 44.8736 18.6132C44.8736 18.6124 44.8736 18.6116 44.8736 18.6108C44.8736 18.61 44.8736 18.6091 44.8736 18.6083C44.8736 18.6075 44.8736 18.6067 44.8736 18.6059C44.8736 18.6051 44.8736 18.6043 44.8736 18.6034C44.8736 18.6026 44.8736 18.6018 44.8736 18.601C44.8736 18.6002 44.8736 18.5993 44.8736 18.5985C44.8736 18.5977 44.8736 18.5969 44.8736 18.5961C44.8736 18.5952 44.8736 18.5944 44.8736 18.5936C44.8736 18.5928 44.8736 18.592 44.8736 18.5911C44.8736 18.5903 44.8736 18.5895 44.8736 18.5887C44.8736 18.5878 44.8736 18.587 44.8736 18.5862C44.8736 18.5854 44.8736 18.5845 44.8736 18.5837C44.8736 18.5829 44.8736 18.5821 44.8736 18.5812C44.8736 18.5804 44.8736 18.5796 44.8736 18.5787C44.8736 18.5779 44.8736 18.5771 44.8736 18.5763C44.8736 18.5754 44.8736 18.5746 44.8736 18.5738C44.8736 18.5729 44.8736 18.5721 44.8736 18.5713C44.8736 18.5704 44.8736 18.5696 44.8736 18.5688C44.8736 18.5679 44.8736 18.5671 44.8736 18.5663C44.8736 18.5654 44.8736 18.5646 44.8736 18.5638C44.8736 18.5629 44.8736 18.5621 44.8736 18.5613C44.8736 18.5604 44.8736 18.5596 44.8736 18.5588C44.8736 18.5579 44.8736 18.5571 44.8736 18.5562C44.8736 18.5554 44.8736 18.5546 44.8736 18.5537C44.8736 18.5529 44.8736 18.552 44.8736 18.5512C44.8736 18.5504 44.8736 18.5495 44.8736 18.5487C44.8736 18.5478 44.8736 18.547 44.8736 18.5462C44.8736 18.5453 44.8736 18.5445 44.8736 18.5436C44.8736 18.5428 44.8736 18.542 44.8736 18.5411C44.8736 18.5403 44.8736 18.5394 44.8736 18.5386C44.8736 18.5377 44.8736 18.5369 44.8736 18.536C44.8736 18.5352 44.8736 18.5344 44.8736 18.5335C44.8736 18.5327 44.8736 18.5318 44.8736 18.531C44.8736 18.5301 44.8736 18.5293 44.8736 18.5284C44.8736 18.5276 44.8736 18.5267 44.8736 18.5259C44.8736 18.525 44.8736 18.5242 44.8736 18.5233C44.8736 18.5225 44.8736 18.5217 44.8736 18.5208C44.8736 18.52 44.8736 18.5191 44.8736 18.5183C44.8736 18.5174 44.8736 18.5166 44.8736 18.5157C44.8736 18.5148 44.8736 18.514 44.8736 18.5131C44.8736 18.5123 44.8736 18.5114 44.8736 18.5106C44.8736 18.5097 44.8736 18.5089 44.8736 18.508C44.8736 18.5072 44.8736 18.5063 44.8736 18.5055C44.8736 18.5046 44.8736 18.5038 44.8736 18.5029C44.8736 18.5021 44.8736 18.5012 44.8736 18.5003C44.8736 18.4995 44.8736 18.4986 44.8736 18.4978C44.8736 18.4969 44.8736 18.4961 44.8736 18.4952C44.8736 18.4944 44.8736 18.4935 44.8736 18.4926C44.8736 18.4918 44.8736 18.4909 44.8736 18.4901C44.8736 18.4892 44.8736 18.4884 44.8736 18.4875C44.8736 18.4866 44.8736 18.4858 44.8736 18.4849C44.8736 18.4841 44.8736 18.4832 44.8736 18.4823C44.8736 18.4815 44.8736 18.4806 44.8736 18.4798C44.8736 18.4789 44.8736 18.4781 44.8736 18.4772C44.8736 18.4763 44.8736 18.4755 44.8736 18.4746C44.8736 18.4737 44.8736 18.4729 44.8736 18.472C44.8736 18.4712 44.8736 18.4703 44.8736 18.4694C44.8736 18.4686 44.8736 18.4677 44.8736 18.4669C44.8736 18.466 44.8736 18.4651 44.8736 18.4643C44.8736 18.4634 44.8736 18.4625 44.8736 18.4617C44.8736 18.4608 44.8736 18.46 44.8736 18.4591C44.8736 18.4582 44.8736 18.4574 44.8736 18.4565C44.8736 18.4556 44.8736 18.4548 44.8736 18.4539C44.8736 18.453 44.8736 18.4522 44.8736 18.4513C44.8736 18.4505 44.8736 18.4496 44.8736 18.4487C44.8736 18.4479 44.8736 18.447 44.8736 18.4461C44.8736 18.4453 44.8736 18.4444 44.8736 18.4435C44.8736 18.4427 44.8736 18.4418 44.8736 18.4409C44.8736 18.4401 44.8736 18.4392 44.8736 18.4383C44.8736 18.4375 44.8736 18.4366 44.8736 18.4357C44.8736 18.4349 44.8736 18.434 44.8736 18.4331C44.8736 18.4323 44.8736 18.4314 44.8736 18.4305C44.8736 18.4297 44.8736 18.4288 44.8736 18.4279C44.8736 18.4271 44.8736 18.4262 44.8736 18.4253C44.8736 18.4245 44.8736 18.4236 44.8736 18.4227C44.8736 18.4219 44.8736 18.421 44.8736 18.4201C44.8736 18.4193 44.8736 18.4184 44.8736 18.4175C44.8736 18.4167 44.8736 18.4158 44.8736 18.4149C44.8736 18.4141 44.8736 18.4132 44.8736 18.4123C44.8736 18.4114 44.8736 18.4106 44.8736 18.4097C44.8736 18.4088 44.8736 18.408 44.8736 18.4071C44.8736 18.4062 44.8736 18.4054 44.8736 18.4045C44.8736 18.4036 44.8736 18.4028 44.8736 18.4019C44.8736 18.401 44.8736 18.4001 44.8736 18.3993C44.8736 18.3984 44.8736 18.3975 44.8736 18.3967C44.8736 18.3958 44.8736 18.3949 44.8736 18.3941C44.8736 18.3932 44.8736 18.3923 44.8736 18.3915C44.8736 18.3906 44.8736 18.3897 44.8736 18.3888C44.8736 18.388 44.8736 18.3871 44.8736 18.3862C44.8736 18.3854 44.8736 18.3845 44.8736 18.3836C44.8736 18.3828 44.8736 18.3819 44.8736 18.381C44.8736 18.3802 44.8736 18.3793 44.8736 18.3784C44.8736 18.3775 44.8736 18.3767 44.8736 18.3758C44.8736 18.3749 44.8736 18.3741 44.8736 18.3732C44.8736 18.3723 44.8736 18.3715 44.8736 18.3706C44.8736 18.3697 44.8736 18.3688 44.8736 18.368C44.8736 18.3671 44.8736 18.3662 44.8736 18.3654C44.8736 18.3645 44.8736 18.3636 44.8736 18.3628C44.8736 18.3619 44.8736 18.361 44.8736 18.3602C44.8736 18.3593 44.8736 18.3584 44.8736 18.3575C44.8736 18.3567 44.8736 18.3558 44.8736 18.3549C44.8736 18.3541 44.8736 18.3532 44.8736 18.3523C44.8736 18.3515 44.8736 18.3506 44.8736 18.3497C44.8736 18.3489 44.8736 18.348 44.8736 18.3471C44.8736 18.3463 44.8736 18.3454 44.8736 18.3445C44.8736 18.3436 44.8736 18.3428 44.8736 18.3419C44.8736 18.341 44.8736 18.3402 44.8736 18.3393C44.8736 18.3384 44.8736 18.3376 44.8736 18.3367C44.8736 18.3358 44.8736 18.335 44.8736 18.3341C44.8736 18.3332 44.8736 18.3324 44.8736 18.3315C44.8736 18.3306 44.8736 18.3298 44.8736 18.3289C44.8736 18.328 44.8736 18.3272 44.8736 18.3263C44.8736 18.3254 44.8736 18.3246 44.8736 18.3237C44.8736 18.3228 44.8736 18.322 44.8736 18.3211C44.8736 18.3202 44.8736 18.3194 44.8736 18.3185C44.8736 18.3176 44.8736 18.3168 44.8736 18.3159C44.8736 18.315 44.8736 18.3142 44.8736 18.3133C44.8736 18.3124 44.8736 18.3116 44.8736 18.3107C44.8736 18.3099 44.8736 18.309 44.8736 18.3081C44.8736 18.3073 44.8736 18.3064 44.8736 18.3055C44.8736 18.3047 44.8736 18.3038 44.8736 18.3029C44.8736 18.3021 44.8736 18.3012 44.8736 18.3004C44.8736 18.2995 44.8736 18.2986 44.8736 18.2978C44.8736 18.2969 44.8736 18.296 44.8736 18.2952C44.8736 18.2943 44.8736 18.2935 44.8736 18.2926C44.8736 18.2917 44.8736 18.2909 44.8736 18.29C44.8736 18.2891 44.8736 18.2883 44.8736 18.2874C44.8736 18.2866 44.8736 18.2857 44.8736 18.2848C44.8736 18.284 44.8736 18.2831 44.8736 18.2823C44.8736 18.2814 44.8736 18.2805 44.8736 18.2797C44.8736 18.2788 44.8736 18.278 44.8736 18.2771C44.8736 18.2762 44.8736 18.2754 44.8736 18.2745C44.8736 18.2737 44.8736 18.2728 44.8736 18.272C44.8736 18.2711 44.8736 18.2702 44.8736 18.2694C44.8736 18.2685 44.8736 18.2677 44.8736 18.2668C44.8736 18.266 44.8736 18.2651 44.8736 18.2642C44.8736 18.2634 44.8736 18.2625 44.8736 18.2617C44.8736 18.2608 44.8736 18.26 44.8736 18.2591C44.8736 18.2583 44.8736 18.2574 44.8736 18.2566C44.8736 18.2557 44.8736 18.2548 44.8736 18.254C44.8736 18.2531 44.8736 18.2523 44.8736 18.2514C44.8736 18.2506 44.8736 18.2497 44.8736 18.2489C44.8736 18.248 44.8736 18.2472 44.8736 18.2463C44.8736 18.2455 44.8736 18.2446 44.8736 18.2438C44.8736 18.2429 44.8736 18.2421 44.8736 18.2412C44.8736 18.2404 44.8736 18.2395 44.8736 18.2387C44.8736 18.2378 44.8736 18.237 44.8736 18.2361C44.8736 18.2353 44.8736 18.2344 44.8736 18.2336C44.8736 18.2327 44.8736 18.2319 44.8736 18.231C44.8736 18.2302 44.8736 18.2293 44.8736 18.2285C44.8736 18.2277 44.8736 18.2268 44.8736 18.226C44.8736 18.2251 44.8736 18.2243 44.8736 18.2234C44.8736 18.2226 44.8736 18.2217 44.8736 18.2209C44.8736 18.2201 44.8736 18.2192 44.8736 18.2184C44.8736 18.2175 44.8736 18.2167 44.8736 18.2158C44.8736 18.215 44.8736 18.2142 44.8736 18.2133C44.8736 18.2125 44.8736 18.2116 44.8736 18.2108C44.8736 18.21 44.8736 18.2091 44.8736 18.2083C44.8736 18.2074 44.8736 18.2066 44.8736 18.2058C44.8736 18.2049 44.8736 18.2041 44.8736 18.2033C44.8736 18.2024 44.8736 18.2016 44.8736 18.2007C44.8736 18.1999 44.8736 18.1991 44.8736 18.1982C44.8736 18.1974 44.8736 18.1966 44.8736 18.1957C44.8736 18.1949 44.8736 18.1941 44.8736 18.1932C44.8736 18.1924 44.8736 18.1916 44.8736 18.1907C44.8736 18.1899 44.8736 18.1891 44.8736 18.1882C44.8736 18.1874 44.8736 18.1866 44.8736 18.1857C44.8736 18.1849 44.8736 18.1841 44.8736 18.1833C44.8736 18.1824 44.8736 18.1816 44.8736 18.1808C44.8736 18.1799 44.8736 18.1791 44.8736 18.1783C44.8736 18.1775 44.8736 18.1766 44.8736 18.1758C44.8736 18.175 44.8736 18.1742 44.8736 18.1733C44.8736 18.1725 44.8736 18.1717 44.8736 18.1709C44.8736 18.17 44.8736 18.1692 44.8736 18.1684C44.8736 18.1676 44.8736 18.1667 44.8736 18.1659C44.8736 18.1651 44.8736 18.1643 44.8736 18.1635C44.8736 18.1626 44.8736 18.1618 44.8736 18.161C44.8736 18.1602 44.8736 18.1594 44.8736 18.1586C44.8736 18.1577 44.8736 18.1569 44.8736 18.1561C44.8736 18.1553 44.8736 18.1545 44.8736 18.1537C44.8736 18.1528 44.8736 18.152 44.8736 18.1512C44.8736 18.1504 44.8736 18.1496 44.8736 18.1488C44.8736 18.148 44.8736 18.1471 44.8736 18.1463C44.8736 18.1455 44.8736 18.1447 44.8736 18.1439C44.8736 18.1431 44.8736 18.1423 44.8736 18.1415C44.8736 18.1407 44.8736 18.1398 44.8736 18.139C44.8736 18.1382 44.8736 18.1374 44.8736 18.1366C44.8736 18.1358 44.8736 18.135 44.8736 18.1342C44.8736 18.1334 44.8736 18.1326 44.8736 18.1318C44.8736 18.131 44.8736 18.1302 44.8736 18.1294C44.8736 18.1286 44.8736 18.1278 44.8736 18.127C44.8736 18.1262 44.8736 18.1254 44.8736 18.1246C44.8736 18.1238 44.8736 18.123 44.8736 18.1222C44.8736 18.1214 44.8736 18.1206 44.8736 18.1198C44.8736 18.119 44.8736 18.1182 44.8736 18.1174C44.8736 18.1166 44.8736 18.1158 44.8736 18.115C44.8736 18.1142 44.8736 18.1134 44.8736 18.1126C44.8736 18.1118 44.8736 18.111 44.8736 18.1102C44.8736 18.1095 44.8736 18.1087 44.8736 18.1079C44.8736 18.1071 44.8736 18.1063 44.8736 18.1055C44.8736 18.1047 44.8736 18.1039 44.8736 18.1031C44.8736 18.1024 44.8736 18.1016 44.8736 18.1008C44.8736 18.1 44.8736 18.0992 44.8736 18.0984C44.8736 18.0976 44.8736 18.0969 44.8736 18.0961C44.8736 18.0953 44.8736 18.0945 44.8736 18.0937C44.8736 18.093 44.8736 18.0922 44.8736 18.0914C44.8736 18.0906 44.8736 18.0898 44.8736 18.0891C44.8736 18.0883 44.8736 18.0875 44.8736 18.0867C44.8736 18.086 44.8736 18.0852 44.8736 18.0844C44.8736 18.0836 44.8736 18.0829 44.8736 18.0821C44.8736 18.0813 44.8736 18.0805 44.8736 18.0798C44.8736 18.079 44.8736 18.0782 44.8736 18.0775C44.8736 18.0767 44.8736 18.0759 44.8736 18.0752C44.8736 18.0744 44.8736 18.0736 44.8736 18.0729C44.8736 18.0721 44.8736 18.0713 44.8736 18.0706C44.8736 18.0698 44.8736 18.069 44.8736 18.0683C44.8736 18.0675 44.8736 18.0667 44.8736 18.066C44.8736 18.0652 44.8736 18.0645 44.8736 18.0637C44.8736 18.0629 44.8736 18.0622 44.8736 18.0614C44.8736 18.0607 44.8736 18.0599 44.8736 18.0592C44.8736 18.0584 44.8736 18.0576 44.8736 18.0569C44.8736 18.0561 44.8736 18.0554 44.8736 18.0546C44.8736 18.0539 44.8736 18.0531 44.8736 18.0524C44.8736 18.0516 44.8736 18.0509 44.8736 18.0501C44.8736 18.0494 44.8736 18.0486 44.8736 18.0479C44.8736 18.0471 44.8736 18.0464 44.8736 18.0456C44.8736 18.0449 44.8736 18.0442 44.8736 18.0434C44.8736 18.0427 44.8736 18.0419 44.8736 18.0412C44.8736 18.0404 44.8736 18.0397 44.8736 18.039C44.8736 18.0382 44.8736 18.0375 44.8736 18.0368C44.8736 18.036 44.8736 18.0353 44.8736 18.0345C44.8736 18.0338 44.8736 18.0331 44.8736 18.0323C44.8736 18.0316 44.8736 18.0309 44.8736 18.0301C44.8736 18.0294 44.8736 18.0287 44.8736 18.0279C44.8736 18.0272 44.8736 18.0265 44.8736 18.0258C44.8736 18.025 44.8736 18.0243 44.8736 18.0236C44.8736 18.0229 44.8736 18.0221 44.8736 18.0214C44.8736 18.0207 44.8736 18.02 44.8736 18.0192C44.8736 18.0185 44.8736 18.0178 44.8736 18.0171C44.8736 18.0164 44.8736 18.0156 44.8736 18.0149C44.8736 18.0142 44.8736 18.0135 44.8736 18.0128C44.8736 18.0121 44.8736 18.0113 44.8736 18.0106C44.8736 18.0099 44.8736 18.0092 44.8736 18.0085C44.8736 18.0078 44.8736 18.0071 44.8736 18.0064C44.8736 18.0056 44.8736 18.0049 44.8736 18.0042C44.8736 18.0035 44.8736 18.0028 44.8736 18.0021C44.8736 18.0014 44.8736 18.0007 44.8736 18H36.8736C36.8736 18.0007 36.8736 18.0014 36.8736 18.0021C36.8736 18.0028 36.8736 18.0035 36.8736 18.0042C36.8736 18.0049 36.8736 18.0056 36.8736 18.0064C36.8736 18.0071 36.8736 18.0078 36.8736 18.0085C36.8736 18.0092 36.8736 18.0099 36.8736 18.0106C36.8736 18.0113 36.8736 18.0121 36.8736 18.0128C36.8736 18.0135 36.8736 18.0142 36.8736 18.0149C36.8736 18.0156 36.8736 18.0164 36.8736 18.0171C36.8736 18.0178 36.8736 18.0185 36.8736 18.0192C36.8736 18.02 36.8736 18.0207 36.8736 18.0214C36.8736 18.0221 36.8736 18.0229 36.8736 18.0236C36.8736 18.0243 36.8736 18.025 36.8736 18.0258C36.8736 18.0265 36.8736 18.0272 36.8736 18.0279C36.8736 18.0287 36.8736 18.0294 36.8736 18.0301C36.8736 18.0309 36.8736 18.0316 36.8736 18.0323C36.8736 18.0331 36.8736 18.0338 36.8736 18.0345C36.8736 18.0353 36.8736 18.036 36.8736 18.0368C36.8736 18.0375 36.8736 18.0382 36.8736 18.039C36.8736 18.0397 36.8736 18.0404 36.8736 18.0412C36.8736 18.0419 36.8736 18.0427 36.8736 18.0434C36.8736 18.0442 36.8736 18.0449 36.8736 18.0456C36.8736 18.0464 36.8736 18.0471 36.8736 18.0479C36.8736 18.0486 36.8736 18.0494 36.8736 18.0501C36.8736 18.0509 36.8736 18.0516 36.8736 18.0524C36.8736 18.0531 36.8736 18.0539 36.8736 18.0546C36.8736 18.0554 36.8736 18.0561 36.8736 18.0569C36.8736 18.0576 36.8736 18.0584 36.8736 18.0592C36.8736 18.0599 36.8736 18.0607 36.8736 18.0614C36.8736 18.0622 36.8736 18.0629 36.8736 18.0637C36.8736 18.0645 36.8736 18.0652 36.8736 18.066C36.8736 18.0667 36.8736 18.0675 36.8736 18.0683C36.8736 18.069 36.8736 18.0698 36.8736 18.0706C36.8736 18.0713 36.8736 18.0721 36.8736 18.0729C36.8736 18.0736 36.8736 18.0744 36.8736 18.0752C36.8736 18.0759 36.8736 18.0767 36.8736 18.0775C36.8736 18.0782 36.8736 18.079 36.8736 18.0798C36.8736 18.0805 36.8736 18.0813 36.8736 18.0821C36.8736 18.0829 36.8736 18.0836 36.8736 18.0844C36.8736 18.0852 36.8736 18.086 36.8736 18.0867C36.8736 18.0875 36.8736 18.0883 36.8736 18.0891C36.8736 18.0898 36.8736 18.0906 36.8736 18.0914C36.8736 18.0922 36.8736 18.093 36.8736 18.0937C36.8736 18.0945 36.8736 18.0953 36.8736 18.0961C36.8736 18.0969 36.8736 18.0976 36.8736 18.0984C36.8736 18.0992 36.8736 18.1 36.8736 18.1008C36.8736 18.1016 36.8736 18.1024 36.8736 18.1031C36.8736 18.1039 36.8736 18.1047 36.8736 18.1055C36.8736 18.1063 36.8736 18.1071 36.8736 18.1079C36.8736 18.1087 36.8736 18.1095 36.8736 18.1102C36.8736 18.111 36.8736 18.1118 36.8736 18.1126C36.8736 18.1134 36.8736 18.1142 36.8736 18.115C36.8736 18.1158 36.8736 18.1166 36.8736 18.1174C36.8736 18.1182 36.8736 18.119 36.8736 18.1198C36.8736 18.1206 36.8736 18.1214 36.8736 18.1222C36.8736 18.123 36.8736 18.1238 36.8736 18.1246C36.8736 18.1254 36.8736 18.1262 36.8736 18.127C36.8736 18.1278 36.8736 18.1286 36.8736 18.1294C36.8736 18.1302 36.8736 18.131 36.8736 18.1318C36.8736 18.1326 36.8736 18.1334 36.8736 18.1342C36.8736 18.135 36.8736 18.1358 36.8736 18.1366C36.8736 18.1374 36.8736 18.1382 36.8736 18.139C36.8736 18.1398 36.8736 18.1407 36.8736 18.1415C36.8736 18.1423 36.8736 18.1431 36.8736 18.1439C36.8736 18.1447 36.8736 18.1455 36.8736 18.1463C36.8736 18.1471 36.8736 18.148 36.8736 18.1488C36.8736 18.1496 36.8736 18.1504 36.8736 18.1512C36.8736 18.152 36.8736 18.1528 36.8736 18.1537C36.8736 18.1545 36.8736 18.1553 36.8736 18.1561C36.8736 18.1569 36.8736 18.1577 36.8736 18.1586C36.8736 18.1594 36.8736 18.1602 36.8736 18.161C36.8736 18.1618 36.8736 18.1626 36.8736 18.1635C36.8736 18.1643 36.8736 18.1651 36.8736 18.1659C36.8736 18.1667 36.8736 18.1676 36.8736 18.1684C36.8736 18.1692 36.8736 18.17 36.8736 18.1709C36.8736 18.1717 36.8736 18.1725 36.8736 18.1733C36.8736 18.1742 36.8736 18.175 36.8736 18.1758C36.8736 18.1766 36.8736 18.1775 36.8736 18.1783C36.8736 18.1791 36.8736 18.1799 36.8736 18.1808C36.8736 18.1816 36.8736 18.1824 36.8736 18.1833C36.8736 18.1841 36.8736 18.1849 36.8736 18.1857C36.8736 18.1866 36.8736 18.1874 36.8736 18.1882C36.8736 18.1891 36.8736 18.1899 36.8736 18.1907C36.8736 18.1916 36.8736 18.1924 36.8736 18.1932C36.8736 18.1941 36.8736 18.1949 36.8736 18.1957C36.8736 18.1966 36.8736 18.1974 36.8736 18.1982C36.8736 18.1991 36.8736 18.1999 36.8736 18.2007C36.8736 18.2016 36.8736 18.2024 36.8736 18.2033C36.8736 18.2041 36.8736 18.2049 36.8736 18.2058C36.8736 18.2066 36.8736 18.2074 36.8736 18.2083C36.8736 18.2091 36.8736 18.21 36.8736 18.2108C36.8736 18.2116 36.8736 18.2125 36.8736 18.2133C36.8736 18.2142 36.8736 18.215 36.8736 18.2158C36.8736 18.2167 36.8736 18.2175 36.8736 18.2184C36.8736 18.2192 36.8736 18.2201 36.8736 18.2209C36.8736 18.2217 36.8736 18.2226 36.8736 18.2234C36.8736 18.2243 36.8736 18.2251 36.8736 18.226C36.8736 18.2268 36.8736 18.2277 36.8736 18.2285C36.8736 18.2293 36.8736 18.2302 36.8736 18.231C36.8736 18.2319 36.8736 18.2327 36.8736 18.2336C36.8736 18.2344 36.8736 18.2353 36.8736 18.2361C36.8736 18.237 36.8736 18.2378 36.8736 18.2387C36.8736 18.2395 36.8736 18.2404 36.8736 18.2412C36.8736 18.2421 36.8736 18.2429 36.8736 18.2438C36.8736 18.2446 36.8736 18.2455 36.8736 18.2463C36.8736 18.2472 36.8736 18.248 36.8736 18.2489C36.8736 18.2497 36.8736 18.2506 36.8736 18.2514C36.8736 18.2523 36.8736 18.2531 36.8736 18.254C36.8736 18.2548 36.8736 18.2557 36.8736 18.2566C36.8736 18.2574 36.8736 18.2583 36.8736 18.2591C36.8736 18.26 36.8736 18.2608 36.8736 18.2617C36.8736 18.2625 36.8736 18.2634 36.8736 18.2642C36.8736 18.2651 36.8736 18.266 36.8736 18.2668C36.8736 18.2677 36.8736 18.2685 36.8736 18.2694C36.8736 18.2702 36.8736 18.2711 36.8736 18.272C36.8736 18.2728 36.8736 18.2737 36.8736 18.2745C36.8736 18.2754 36.8736 18.2762 36.8736 18.2771C36.8736 18.278 36.8736 18.2788 36.8736 18.2797C36.8736 18.2805 36.8736 18.2814 36.8736 18.2823C36.8736 18.2831 36.8736 18.284 36.8736 18.2848C36.8736 18.2857 36.8736 18.2866 36.8736 18.2874C36.8736 18.2883 36.8736 18.2891 36.8736 18.29C36.8736 18.2909 36.8736 18.2917 36.8736 18.2926C36.8736 18.2935 36.8736 18.2943 36.8736 18.2952C36.8736 18.296 36.8736 18.2969 36.8736 18.2978C36.8736 18.2986 36.8736 18.2995 36.8736 18.3004C36.8736 18.3012 36.8736 18.3021 36.8736 18.3029C36.8736 18.3038 36.8736 18.3047 36.8736 18.3055C36.8736 18.3064 36.8736 18.3073 36.8736 18.3081C36.8736 18.309 36.8736 18.3099 36.8736 18.3107C36.8736 18.3116 36.8736 18.3124 36.8736 18.3133C36.8736 18.3142 36.8736 18.315 36.8736 18.3159C36.8736 18.3168 36.8736 18.3176 36.8736 18.3185C36.8736 18.3194 36.8736 18.3202 36.8736 18.3211C36.8736 18.322 36.8736 18.3228 36.8736 18.3237C36.8736 18.3246 36.8736 18.3254 36.8736 18.3263C36.8736 18.3272 36.8736 18.328 36.8736 18.3289C36.8736 18.3298 36.8736 18.3306 36.8736 18.3315C36.8736 18.3324 36.8736 18.3332 36.8736 18.3341C36.8736 18.335 36.8736 18.3358 36.8736 18.3367C36.8736 18.3376 36.8736 18.3384 36.8736 18.3393C36.8736 18.3402 36.8736 18.341 36.8736 18.3419C36.8736 18.3428 36.8736 18.3436 36.8736 18.3445C36.8736 18.3454 36.8736 18.3463 36.8736 18.3471C36.8736 18.348 36.8736 18.3489 36.8736 18.3497C36.8736 18.3506 36.8736 18.3515 36.8736 18.3523C36.8736 18.3532 36.8736 18.3541 36.8736 18.3549C36.8736 18.3558 36.8736 18.3567 36.8736 18.3575C36.8736 18.3584 36.8736 18.3593 36.8736 18.3602C36.8736 18.361 36.8736 18.3619 36.8736 18.3628C36.8736 18.3636 36.8736 18.3645 36.8736 18.3654C36.8736 18.3662 36.8736 18.3671 36.8736 18.368C36.8736 18.3688 36.8736 18.3697 36.8736 18.3706C36.8736 18.3715 36.8736 18.3723 36.8736 18.3732C36.8736 18.3741 36.8736 18.3749 36.8736 18.3758C36.8736 18.3767 36.8736 18.3775 36.8736 18.3784C36.8736 18.3793 36.8736 18.3802 36.8736 18.381C36.8736 18.3819 36.8736 18.3828 36.8736 18.3836C36.8736 18.3845 36.8736 18.3854 36.8736 18.3862C36.8736 18.3871 36.8736 18.388 36.8736 18.3888C36.8736 18.3897 36.8736 18.3906 36.8736 18.3915C36.8736 18.3923 36.8736 18.3932 36.8736 18.3941C36.8736 18.3949 36.8736 18.3958 36.8736 18.3967C36.8736 18.3975 36.8736 18.3984 36.8736 18.3993C36.8736 18.4001 36.8736 18.401 36.8736 18.4019C36.8736 18.4028 36.8736 18.4036 36.8736 18.4045C36.8736 18.4054 36.8736 18.4062 36.8736 18.4071C36.8736 18.408 36.8736 18.4088 36.8736 18.4097C36.8736 18.4106 36.8736 18.4114 36.8736 18.4123C36.8736 18.4132 36.8736 18.4141 36.8736 18.4149C36.8736 18.4158 36.8736 18.4167 36.8736 18.4175C36.8736 18.4184 36.8736 18.4193 36.8736 18.4201C36.8736 18.421 36.8736 18.4219 36.8736 18.4227C36.8736 18.4236 36.8736 18.4245 36.8736 18.4253C36.8736 18.4262 36.8736 18.4271 36.8736 18.4279C36.8736 18.4288 36.8736 18.4297 36.8736 18.4305C36.8736 18.4314 36.8736 18.4323 36.8736 18.4331C36.8736 18.434 36.8736 18.4349 36.8736 18.4357C36.8736 18.4366 36.8736 18.4375 36.8736 18.4383C36.8736 18.4392 36.8736 18.4401 36.8736 18.4409C36.8736 18.4418 36.8736 18.4427 36.8736 18.4435C36.8736 18.4444 36.8736 18.4453 36.8736 18.4461C36.8736 18.447 36.8736 18.4479 36.8736 18.4487C36.8736 18.4496 36.8736 18.4505 36.8736 18.4513C36.8736 18.4522 36.8736 18.453 36.8736 18.4539C36.8736 18.4548 36.8736 18.4556 36.8736 18.4565C36.8736 18.4574 36.8736 18.4582 36.8736 18.4591C36.8736 18.46 36.8736 18.4608 36.8736 18.4617C36.8736 18.4625 36.8736 18.4634 36.8736 18.4643C36.8736 18.4651 36.8736 18.466 36.8736 18.4669C36.8736 18.4677 36.8736 18.4686 36.8736 18.4694C36.8736 18.4703 36.8736 18.4712 36.8736 18.472C36.8736 18.4729 36.8736 18.4737 36.8736 18.4746C36.8736 18.4755 36.8736 18.4763 36.8736 18.4772C36.8736 18.4781 36.8736 18.4789 36.8736 18.4798C36.8736 18.4806 36.8736 18.4815 36.8736 18.4823C36.8736 18.4832 36.8736 18.4841 36.8736 18.4849C36.8736 18.4858 36.8736 18.4866 36.8736 18.4875C36.8736 18.4884 36.8736 18.4892 36.8736 18.4901C36.8736 18.4909 36.8736 18.4918 36.8736 18.4926C36.8736 18.4935 36.8736 18.4944 36.8736 18.4952C36.8736 18.4961 36.8736 18.4969 36.8736 18.4978C36.8736 18.4986 36.8736 18.4995 36.8736 18.5003C36.8736 18.5012 36.8736 18.5021 36.8736 18.5029C36.8736 18.5038 36.8736 18.5046 36.8736 18.5055C36.8736 18.5063 36.8736 18.5072 36.8736 18.508C36.8736 18.5089 36.8736 18.5097 36.8736 18.5106C36.8736 18.5114 36.8736 18.5123 36.8736 18.5131C36.8736 18.514 36.8736 18.5148 36.8736 18.5157C36.8736 18.5166 36.8736 18.5174 36.8736 18.5183C36.8736 18.5191 36.8736 18.52 36.8736 18.5208C36.8736 18.5217 36.8736 18.5225 36.8736 18.5233C36.8736 18.5242 36.8736 18.525 36.8736 18.5259C36.8736 18.5267 36.8736 18.5276 36.8736 18.5284C36.8736 18.5293 36.8736 18.5301 36.8736 18.531C36.8736 18.5318 36.8736 18.5327 36.8736 18.5335C36.8736 18.5344 36.8736 18.5352 36.8736 18.536C36.8736 18.5369 36.8736 18.5377 36.8736 18.5386C36.8736 18.5394 36.8736 18.5403 36.8736 18.5411C36.8736 18.542 36.8736 18.5428 36.8736 18.5436C36.8736 18.5445 36.8736 18.5453 36.8736 18.5462C36.8736 18.547 36.8736 18.5478 36.8736 18.5487C36.8736 18.5495 36.8736 18.5504 36.8736 18.5512C36.8736 18.552 36.8736 18.5529 36.8736 18.5537C36.8736 18.5546 36.8736 18.5554 36.8736 18.5562C36.8736 18.5571 36.8736 18.5579 36.8736 18.5588C36.8736 18.5596 36.8736 18.5604 36.8736 18.5613C36.8736 18.5621 36.8736 18.5629 36.8736 18.5638C36.8736 18.5646 36.8736 18.5654 36.8736 18.5663C36.8736 18.5671 36.8736 18.5679 36.8736 18.5688C36.8736 18.5696 36.8736 18.5704 36.8736 18.5713C36.8736 18.5721 36.8736 18.5729 36.8736 18.5738C36.8736 18.5746 36.8736 18.5754 36.8736 18.5763C36.8736 18.5771 36.8736 18.5779 36.8736 18.5787C36.8736 18.5796 36.8736 18.5804 36.8736 18.5812C36.8736 18.5821 36.8736 18.5829 36.8736 18.5837C36.8736 18.5845 36.8736 18.5854 36.8736 18.5862C36.8736 18.587 36.8736 18.5878 36.8736 18.5887C36.8736 18.5895 36.8736 18.5903 36.8736 18.5911C36.8736 18.592 36.8736 18.5928 36.8736 18.5936C36.8736 18.5944 36.8736 18.5952 36.8736 18.5961C36.8736 18.5969 36.8736 18.5977 36.8736 18.5985C36.8736 18.5993 36.8736 18.6002 36.8736 18.601C36.8736 18.6018 36.8736 18.6026 36.8736 18.6034C36.8736 18.6043 36.8736 18.6051 36.8736 18.6059C36.8736 18.6067 36.8736 18.6075 36.8736 18.6083C36.8736 18.6091 36.8736 18.61 36.8736 18.6108C36.8736 18.6116 36.8736 18.6124 36.8736 18.6132C36.8736 18.614 36.8736 18.6148 36.8736 18.6157C36.8736 18.6165 36.8736 18.6173 36.8736 18.6181C36.8736 18.6189 36.8736 18.6197 36.8736 18.6205C36.8736 18.6213 36.8736 18.6221 36.8736 18.6229C36.8736 18.6237 36.8736 18.6246 36.8736 18.6254C36.8736 18.6262 36.8736 18.627 36.8736 18.6278C36.8736 18.6286 36.8736 18.6294 36.8736 18.6302C36.8736 18.631 36.8736 18.6318 36.8736 18.6326C36.8736 18.6334 36.8736 18.6342 36.8736 18.635C36.8736 18.6358 36.8736 18.6366 36.8736 18.6374C36.8736 18.6382 36.8736 18.639 36.8736 18.6398C36.8736 18.6406 36.8736 18.6414 36.8736 18.6422C36.8736 18.643 36.8736 18.6438 36.8736 18.6446C36.8736 18.6454 36.8736 18.6462 36.8736 18.647C36.8736 18.6478 36.8736 18.6485 36.8736 18.6493C36.8736 18.6501 36.8736 18.6509 36.8736 18.6517C36.8736 18.6525 36.8736 18.6533 36.8736 18.6541C36.8736 18.6549 36.8736 18.6557 36.8736 18.6564C36.8736 18.6572 36.8736 18.658 36.8736 18.6588C36.8736 18.6596 36.8736 18.6604 36.8736 18.6612C36.8736 18.662 36.8736 18.6627 36.8736 18.6635C36.8736 18.6643 36.8736 18.6651 36.8736 18.6659C36.8736 18.6666 36.8736 18.6674 36.8736 18.6682C36.8736 18.669 36.8736 18.6698 36.8736 18.6705C36.8736 18.6713 36.8736 18.6721 36.8736 18.6729C36.8736 18.6737 36.8736 18.6744 36.8736 18.6752C36.8736 18.676 36.8736 18.6768 36.8736 18.6775C36.8736 18.6783 36.8736 18.6791 36.8736 18.6799C36.8736 18.6806 36.8736 18.6814 36.8736 18.6822C36.8736 18.6829 36.8736 18.6837 36.8736 18.6845C36.8736 18.6852 36.8736 18.686 36.8736 18.6868C36.8736 18.6875 36.8736 18.6883 36.8736 18.6891C36.8736 18.6898 36.8736 18.6906 36.8736 18.6914C36.8736 18.6921 36.8736 18.6929 36.8736 18.6937C36.8736 18.6944 36.8736 18.6952 36.8736 18.6959C36.8736 18.6967 36.8736 18.6975 36.8736 18.6982C36.8736 18.699 36.8736 18.6997 36.8736 18.7005C36.8736 18.7013 36.8736 18.702 36.8736 18.7028C36.8736 18.7035 36.8736 18.7043 36.8736 18.705C36.8736 18.7058 36.8736 18.7065 36.8736 18.7073C36.8736 18.708 36.8736 18.7088 36.8736 18.7095C36.8736 18.7103 36.8736 18.711 36.8736 18.7118C36.8736 18.7125 36.8736 18.7133 36.8736 18.714C36.8736 18.7148 36.8736 18.7155 36.8736 18.7163C36.8736 18.717 36.8736 18.7178 36.8736 18.7185C36.8736 18.7192 36.8736 18.72 36.8736 18.7207C36.8736 18.7215 36.8736 18.7222 36.8736 18.7229C36.8736 18.7237 36.8736 18.7244 36.8736 18.7252C36.8736 18.7259 36.8736 18.7266 36.8736 18.7274C36.8736 18.7281 36.8736 18.7288 36.8736 18.7296C36.8736 18.7303 36.8736 18.731 36.8736 18.7318C36.8736 18.7325 36.8736 18.7332 36.8736 18.7339C36.8736 18.7347 36.8736 18.7354 36.8736 18.7361C36.8736 18.7369 36.8736 18.7376 36.8736 18.7383C36.8736 18.739 36.8736 18.7398 36.8736 18.7405C36.8736 18.7412 36.8736 18.7419 36.8736 18.7426C36.8736 18.7434 36.8736 18.7441 36.8736 18.7448C36.8736 18.7455 36.8736 18.7462 36.8736 18.747C36.8736 18.7477 36.8736 18.7484 36.8736 18.7491C36.8736 18.7498 36.8736 18.7505 36.8736 18.7513C36.8736 18.752 36.8736 18.7527 36.8736 18.7534C36.8736 18.7541 36.8736 18.7548 36.8736 18.7555C36.8736 18.7562 36.8736 18.7569 36.8736 18.7576C36.8736 18.7583 36.8736 18.7591 36.8736 18.7598C36.8736 18.7605 36.8736 18.7612 36.8736 18.7619C36.8736 18.7626 36.8736 18.7633 36.8736 18.764C36.8736 18.7647 36.8736 18.7654 36.8736 18.7661C36.8736 18.7668 36.8736 18.7675 36.8736 18.7682C36.8736 18.7689 36.8736 18.7696 36.8736 18.7702C36.8736 18.7709 36.8736 18.7716 36.8736 18.7723C36.8736 18.773 36.8736 18.7737 36.8736 18.7744C36.8736 18.7751 36.8736 18.7758 36.8736 18.7765C36.8736 18.7771 36.8736 18.7778 36.8736 18.7785C36.8736 18.7792 36.8736 18.7799 36.8736 18.7806C36.8736 18.7812 36.8736 18.7819 36.8736 18.7826C36.8736 18.7833 36.8736 18.784 36.8736 18.7846C36.8736 18.7853 36.8736 18.786 36.8736 18.7867C36.8736 18.7874 36.8736 18.788 36.8736 18.7887C36.8736 18.7894 36.8736 18.79 36.8736 18.7907C36.8736 18.7914 36.8736 18.7921 36.8736 18.7927C36.8736 18.7934 36.8736 18.7941 36.8736 18.7947C36.8736 18.7954 36.8736 18.7961 36.8736 18.7967C36.8736 18.7974 36.8736 18.7981 36.8736 18.7987C36.8736 18.7994 36.8736 18.8 36.8736 18.8007C36.8736 18.8014 36.8736 18.802 36.8736 18.8027C36.8736 18.8033 36.8736 18.804 36.8736 18.8046C36.8736 18.8053 36.8736 18.8059 36.8736 18.8066C36.8736 18.8072 36.8736 18.8079 36.8736 18.8085C36.8736 18.8092 36.8736 18.8098 36.8736 18.8105C36.8736 18.8111 36.8736 18.8118 36.8736 18.8124C36.8736 18.8131 36.8736 18.8137 36.8736 18.8144C36.8736 18.815 36.8736 18.8156 36.8736 18.8163C36.8736 18.8169 36.8736 18.8176 36.8736 18.8182C36.8736 18.8188 36.8736 18.8195 36.8736 18.8201C36.8736 18.8207 36.8736 18.8214 36.8736 18.822C36.8736 18.8226 36.8736 18.8233 36.8736 18.8239C36.8736 18.8245 36.8736 18.8252 36.8736 18.8258C36.8736 18.8264 36.8736 18.827 36.8736 18.8277C36.8736 18.8283 36.8736 18.8289 36.8736 18.8295C36.8736 18.8302 36.8736 18.8308 36.8736 18.8314C36.8736 18.832 36.8736 18.8326 36.8736 18.8332C36.8736 18.8339 36.8736 18.8345 36.8736 18.8351C36.8736 18.8357 36.8736 18.8363 36.8736 18.8369C36.8736 18.8375 36.8736 18.8381 36.8736 18.8388C36.8736 18.8394 36.8736 18.84 36.8736 18.8406C36.8736 18.8412 36.8736 18.8418 36.8736 18.8424C36.8736 18.843 36.8736 18.8436 36.8736 18.8442C36.8736 18.8448 36.8736 18.8454 36.8736 18.846C36.8736 18.8466 36.8736 18.8472 36.8736 18.8478C36.8736 18.8484 36.8736 18.849 36.8736 18.8496C36.8736 18.8502 36.8736 18.8507 36.8736 18.8513C36.8736 18.8519 36.8736 18.8525 36.8736 18.8531C36.8736 18.8537 36.8736 18.8543 36.8736 18.8549C36.8736 18.8554 36.8736 18.856 36.8736 18.8566C36.8736 18.8572 36.8736 18.8578 36.8736 18.8583C36.8736 18.8589 36.8736 18.8595 36.8736 18.8601C36.8736 18.8606 36.8736 18.8612 36.8736 18.8618C36.8736 18.8624 36.8736 18.8629 36.8736 18.8635C36.8736 18.8641 36.8736 18.8646 36.8736 18.8652C36.8736 18.8658 36.8736 18.8663 36.8736 18.8669C36.8736 18.8675 36.8736 18.868 36.8736 18.8686C36.8736 18.8692 36.8736 18.8697 36.8736 18.8703C36.8736 18.8708 36.8736 18.8714 36.8736 18.8719C36.8736 18.8725 36.8736 18.873 36.8736 18.8736C36.8736 18.8742 36.8736 18.8747 36.8736 18.8753C36.8736 18.8758 36.8736 18.8764 36.8736 18.8769C36.8736 18.8774 36.8736 18.878 36.8736 18.8785C36.8736 18.8791 36.8736 18.8796 36.8736 18.8802C36.8736 18.8807 36.8736 18.8812 36.8736 18.8818C36.8736 18.8823 36.8736 18.8828 36.8736 18.8834C36.8736 18.8839 36.8736 18.8844 36.8736 18.885C36.8736 18.8855 36.8736 18.886 36.8736 18.8866C36.8736 18.8871 36.8736 18.8876 36.8736 18.8881C36.8736 18.8887 36.8736 18.8892 36.8736 18.8897C36.8736 18.8902 36.8736 18.8908 36.8736 18.8913C36.8736 18.8918 36.8736 18.8923 36.8736 18.8928C36.8736 18.8933 36.8736 18.8939 36.8736 18.8944C36.8736 18.8949 36.8736 18.8954 36.8736 18.8959C36.8736 18.8964 36.8736 18.8969 36.8736 18.8974C36.8736 18.8979 36.8736 18.8984 36.8736 18.8989C36.8736 18.8995 36.8736 18.9 36.8736 18.9005C36.8736 18.901 36.8736 18.9015 36.8736 18.9019C36.8736 18.9024 36.8736 18.9029 36.8736 18.9034C36.8736 18.9039 36.8736 18.9044 36.8736 18.9049C36.8736 18.9054 36.8736 18.9059 36.8736 18.9064C36.8736 18.9069 36.8736 18.9073 36.8736 18.9078C36.8736 18.9083 36.8736 18.9088 36.8736 18.9093C36.8736 18.9098 36.8736 18.9102 36.8736 18.9107C36.8736 18.9112 36.8736 18.9117 36.8736 18.9121C36.8736 18.9126 36.8736 18.9131 36.8736 18.9136C36.8736 18.914 36.8736 18.9145 36.8736 18.915C36.8736 18.9154 36.8736 18.9159 36.8736 18.9164C36.8736 18.9168 36.8736 18.9173 36.8736 18.9178C36.8736 18.9182 36.8736 18.9187 36.8736 18.9191C36.8736 18.9196 36.8736 18.92 36.8736 18.9205C36.8736 18.921 36.8736 18.9214 36.8736 18.9219C36.8736 18.9223 36.8736 18.9228 36.8736 18.9232C36.8736 18.9237 36.8736 18.9241 36.8736 18.9245C36.8736 18.925 36.8736 18.9254 36.8736 18.9259C36.8736 18.9263 36.8736 18.9267 36.8736 18.9272C36.8736 18.9276 36.8736 18.9281 36.8736 18.9285C36.8736 18.9289 36.8736 18.9294 36.8736 18.9298C36.8736 18.9302 36.8736 18.9306 36.8736 18.9311C36.8736 18.9315 36.8736 18.9319 36.8736 18.9323C36.8736 18.9328 36.8736 18.9332 36.8736 18.9336C36.8736 18.934 36.8736 18.9345 36.8736 18.9349C36.8736 18.9353 36.8736 18.9357 36.8736 18.9361C36.8736 18.9365 36.8736 18.9369 36.8736 18.9373C36.8736 18.9378 36.8736 18.9382 36.8736 18.9386C36.8736 18.939 36.8736 18.9394 36.8736 18.9398C36.8736 18.9402 36.8736 18.9406 36.8736 18.941C36.8736 18.9414 36.8736 18.9418 36.8736 18.9422C36.8736 18.9426 36.8736 18.943 36.8736 18.9433C36.8736 18.9437 36.8736 18.9441 36.8736 18.9445C36.8736 18.9449 36.8736 18.9453 36.8736 18.9457C36.8736 18.9461 36.8736 18.9464 36.8736 18.9468C36.8736 18.9472 36.8736 18.9476 36.8736 18.948C36.8736 18.9483 36.8736 18.9487 36.8736 18.9491C36.8736 18.9494 36.8736 18.9498 36.8736 18.9502C36.8736 18.9506 36.8736 18.9509 36.8736 18.9513C36.8736 18.9517 36.8736 18.952 36.8736 18.9524C36.8736 18.9527 36.8736 18.9531 36.8736 18.9535C36.8736 18.9538 36.8736 18.9542 36.8736 18.9545C36.8736 18.9549 36.8736 18.9552 36.8736 18.9556C36.8736 18.9559 36.8736 18.9563 36.8736 18.9566C36.8736 18.957 36.8736 18.9573 36.8736 18.9577C36.8736 18.958 36.8736 18.9584 36.8736 18.9587C36.8736 18.959 36.8736 18.9594 36.8736 18.9597C36.8736 18.96 36.8736 18.9604 36.8736 18.9607C36.8736 18.961 36.8736 18.9614 36.8736 18.9617C36.8736 18.962 36.8736 18.9623 36.8736 18.9627C36.8736 18.963 36.8736 18.9633 36.8736 18.9636C36.8736 18.964 36.8736 18.9643 36.8736 18.9646C36.8736 18.9649 36.8736 18.9652 36.8736 18.9655C36.8736 18.9658 36.8736 18.9662 36.8736 18.9665C36.8736 18.9668 36.8736 18.9671 36.8736 18.9674C36.8736 18.9677 36.8736 18.968 36.8736 18.9683C36.8736 18.9686 36.8736 18.9689 36.8736 18.9692C36.8736 18.9695 36.8736 18.9698 36.8736 18.9701C36.8736 18.9704 36.8736 18.9706 36.8736 18.9709C36.8736 18.9712 36.8736 18.9715 36.8736 18.9718C36.8736 18.9721 36.8736 18.9724 36.8736 18.9726C36.8736 18.9729 36.8736 18.9732 36.8736 18.9735C36.8736 18.9738 36.8736 18.974 36.8736 18.9743C36.8736 18.9746 36.8736 18.9748 36.8736 18.9751C36.8736 18.9754 36.8736 18.9756 36.8736 18.9759C36.8736 18.9762 36.8736 18.9764 36.8736 18.9767C36.8736 18.977 36.8736 18.9772 36.8736 18.9775C36.8736 18.9777 36.8736 18.978 36.8736 18.9782C36.8736 18.9785 36.8736 18.9787 36.8736 18.979C36.8736 18.9792 36.8736 18.9795 36.8736 18.9797C36.8736 18.98 36.8736 18.9802 36.8736 18.9804C36.8736 18.9807 36.8736 18.9809 36.8736 18.9812C36.8736 18.9814 36.8736 18.9816 36.8736 18.9819C36.8736 18.9821 36.8736 18.9823 36.8736 18.9825C36.8736 18.9828 36.8736 18.983 36.8736 18.9832C36.8736 18.9834 36.8736 18.9837 36.8736 18.9839C36.8736 18.9841 36.8736 18.9843 36.8736 18.9845C36.8736 18.9847 36.8736 18.985 36.8736 18.9852C36.8736 18.9854 36.8736 18.9856 36.8736 18.9858C36.8736 18.986 36.8736 18.9862 36.8736 18.9864C36.8736 18.9866 36.8736 18.9868 36.8736 18.987C36.8736 18.9872 36.8736 18.9874 36.8736 18.9876C36.8736 18.9878 36.8736 18.988 36.8736 18.9882C36.8736 18.9883 36.8736 18.9885 36.8736 18.9887C36.8736 18.9889 36.8736 18.9891 36.8736 18.9893C36.8736 18.9894 36.8736 18.9896 36.8736 18.9898C36.8736 18.99 36.8736 18.9901 36.8736 18.9903C36.8736 18.9905 36.8736 18.9907 36.8736 18.9908C36.8736 18.991 36.8736 18.9912 36.8736 18.9913C36.8736 18.9915 36.8736 18.9916 36.8736 18.9918C36.8736 18.992 36.8736 18.9921 36.8736 18.9923C36.8736 18.9924 36.8736 18.9926 36.8736 18.9927C36.8736 18.9929 36.8736 18.993 36.8736 18.9932C36.8736 18.9933 36.8736 18.9935 36.8736 18.9936C36.8736 18.9937 36.8736 18.9939 36.8736 18.994C36.8736 18.9941 36.8736 18.9943 36.8736 18.9944C36.8736 18.9945 36.8736 18.9947 36.8736 18.9948C36.8736 18.9949 36.8736 18.995 36.8736 18.9952C36.8736 18.9953 36.8736 18.9954 36.8736 18.9955C36.8736 18.9956 36.8736 18.9958 36.8736 18.9959C36.8736 18.996 36.8736 18.9961 36.8736 18.9962C36.8736 18.9963 36.8736 18.9964 36.8736 18.9965C36.8736 18.9966 36.8736 18.9967 36.8736 18.9968C36.8736 18.9969 36.8736 18.997 36.8736 18.9971C36.8736 18.9972 36.8736 18.9973 36.8736 18.9974C36.8736 18.9975 36.8736 18.9976 36.8736 18.9977C36.8736 18.9978 36.8736 18.9978 36.8736 18.9979C36.8736 18.998 36.8736 18.9981 36.8736 18.9982C36.8736 18.9982 36.8736 18.9983 36.8736 18.9984C36.8736 18.9984 36.8736 18.9985 36.8736 18.9986C36.8736 18.9987 36.8736 18.9987 36.8736 18.9988C36.8736 18.9988 36.8736 18.9989 36.8736 18.999C36.8736 18.999 36.8736 18.9991 36.8736 18.9991C36.8736 18.9992 36.8736 18.9992 36.8736 18.9993C36.8736 18.9993 36.8736 18.9994 36.8736 18.9994C36.8736 18.9995 36.8736 18.9995 36.8736 18.9995C36.8736 18.9996 36.8736 18.9996 36.8736 18.9996C36.8736 18.9997 36.8736 18.9997 36.8736 18.9997C36.8736 18.9998 36.8736 18.9998 36.8736 18.9998C36.8736 18.9998 36.8736 18.9999 36.8736 18.9999C36.8736 18.9999 36.8736 18.9999 36.8736 18.9999C36.8736 18.9999 36.8736 19 36.8736 19C36.8736 19 36.8736 19 36.8736 19C36.8736 19 36.8736 19 40.8736 19ZM44.8736 18C44.8736 13.2261 42.9772 8.64773 39.6016 5.27208L33.9447 10.9289C35.8201 12.8043 36.8736 15.3478 36.8736 18H44.8736ZM39.6016 5.27208C36.2259 1.89642 31.6475 0 26.8736 0V8C29.5258 8 32.0693 9.05357 33.9447 10.9289L39.6016 5.27208ZM26.8736 0C22.0997 0 17.5214 1.89642 14.1457 5.27208L19.8026 10.9289C21.6779 9.05357 24.2215 8 26.8736 8V0ZM14.1457 5.27208C10.7701 8.64773 8.87364 13.2261 8.87364 18H16.8736C16.8736 15.3478 17.9272 12.8043 19.8026 10.9289L14.1457 5.27208ZM8.87364 18C8.87364 18.2121 8.88865 37.0428 8.90365 55.8157C8.91114 65.2032 8.91864 74.5776 8.92427 81.6051C8.92708 85.1188 8.92943 88.0459 8.93107 90.0945C8.93189 91.1188 8.93253 91.9234 8.93297 92.472C8.93319 92.7464 8.93336 92.9566 8.93347 93.0984C8.93353 93.1692 8.93357 93.2229 8.9336 93.2589C8.93362 93.2769 8.93363 93.2905 8.93363 93.2996C8.93364 93.3041 8.93364 93.3075 8.93364 93.3098C8.93364 93.3109 8.93364 93.3118 8.93364 93.3123C8.93364 93.3129 8.93364 93.3132 12.9336 93.31C16.9336 93.3068 16.9336 93.3065 16.9336 93.3059C16.9336 93.3054 16.9336 93.3045 16.9336 93.3034C16.9336 93.3011 16.9336 93.2977 16.9336 93.2932C16.9336 93.2841 16.9336 93.2705 16.9336 93.2525C16.9336 93.2165 16.9335 93.1628 16.9335 93.0919C16.9334 92.9502 16.9332 92.7399 16.933 92.4656C16.9325 91.917 16.9319 91.1123 16.9311 90.088C16.9294 88.0395 16.9271 85.1124 16.9243 81.5987C16.9186 74.5712 16.9111 65.1968 16.9036 55.8093C16.8886 37.0322 16.8736 18.2079 16.8736 18H8.87364ZM10.4873 90.1453C6.01927 93.5991 2.74665 98.3669 1.12999 103.778L8.79518 106.068C9.93283 102.26 12.2358 98.9052 15.38 96.4747L10.4873 90.1453ZM1.12999 103.778C-0.486675 109.189 -0.36599 114.971 1.47506 120.309L9.038 117.701C7.74245 113.944 7.65753 109.876 8.79518 106.068L1.12999 103.778ZM1.47506 120.309C3.31611 125.648 6.78484 130.275 11.3931 133.54L16.0174 127.011C12.7745 124.714 10.3336 121.458 9.038 117.701L1.47506 120.309ZM11.3931 133.54C16.0014 136.804 21.5172 138.541 27.1645 138.507L27.1157 130.507C23.1418 130.531 19.2602 129.309 16.0174 127.011L11.3931 133.54ZM27.1645 138.507C32.8117 138.472 38.3059 136.668 42.8741 133.348L38.1707 126.877C34.956 129.213 31.0897 130.483 27.1157 130.507L27.1645 138.507ZM42.8741 133.348C47.4423 130.028 50.8544 125.359 52.6303 119.998L45.0361 117.482C43.7864 121.254 41.3853 124.54 38.1707 126.877L42.8741 133.348ZM52.6303 119.998C54.4062 114.637 54.4564 108.854 52.7739 103.463L45.1372 105.847C46.3212 109.64 46.2858 113.71 45.0361 117.482L52.6303 119.998ZM52.7739 103.463C51.0915 98.0724 47.761 93.3448 43.2512 89.9457L38.4361 96.3343C41.6096 98.7262 43.9533 102.053 45.1372 105.847L52.7739 103.463ZM40.8436 97.14H40.8736V89.14H40.8436V97.14Z" fill="#4A4A4A" mask="url(#path-2-outside-1_1602_4981)"/>
<path d="M40.8736 93.14V19C40.8736 19 40.8736 18.36 40.8736 18C40.8736 14.287 39.3987 10.726 36.7731 8.1005C34.1476 5.475 30.5867 4 26.8736 4C23.1606 4 19.5997 5.475 16.9741 8.1005C14.3486 10.726 12.8736 14.287 12.8736 18C12.8736 18.42 12.9336 93.31 12.9336 93.31C9.12753 96.2521 6.33974 100.314 4.96258 104.923C3.58542 109.532 3.68823 114.457 5.25653 119.005C6.82483 123.553 9.77967 127.495 13.7052 130.275C17.6308 133.056 22.3295 134.536 27.1401 134.507C31.9507 134.477 36.631 132.94 40.5224 130.112C44.4138 127.284 47.3204 123.306 48.8332 118.74C50.346 114.173 50.3888 109.247 48.9556 104.655C47.5224 100.063 44.6853 96.0355 40.8436 93.14H40.8736Z" fill="#E1E1E1"/>
<path d="M32.4338 21.0001C32.4338 21.1501 32.4338 21.3001 32.4338 21.4501V45.1301L21.6038 51.8101V20.8101C21.6832 19.4116 22.301 18.0983 23.3275 17.1453C24.354 16.1923 25.7096 15.6738 27.1101 15.6983C28.5106 15.7229 29.8472 16.2887 30.8396 17.2771C31.8321 18.2655 32.4034 19.5997 32.4338 21.0001V21.0001Z" stroke="#4A4A4A" stroke-miterlimit="10"/>
<path d="M41.0237 111.5C41.0241 114.033 40.3374 116.518 39.0366 118.692C37.7359 120.865 35.8699 122.645 33.6374 123.842C31.4049 125.038 28.8896 125.607 26.3596 125.487C23.8295 125.366 21.3794 124.562 19.2704 123.159C17.1613 121.757 15.4724 119.808 14.3835 117.521C13.2945 115.234 12.8464 112.695 13.0869 110.173C13.3274 107.652 14.2475 105.243 15.7491 103.203C17.2507 101.163 19.2775 99.5687 21.6137 98.5899V51.8099L32.4237 45.1299V98.5799C34.9717 99.6451 37.1477 101.44 38.6779 103.739C40.2082 106.038 41.0243 108.738 41.0237 111.5Z" fill="#F6B203" stroke="#F6B203" stroke-miterlimit="10"/>
<path d="M17.5237 51.9102H12.8137" stroke="#4A4A4A" stroke-miterlimit="10" stroke-linecap="round" stroke-linejoin="round"/>
<path d="M17.5237 38.8501H12.8137" stroke="#4A4A4A" stroke-miterlimit="10" stroke-linecap="round" stroke-linejoin="round"/>
<path d="M17.5237 25.79H12.8137" stroke="#4A4A4A" stroke-miterlimit="10" stroke-linecap="round" stroke-linejoin="round"/>
<path d="M17.5237 64.97H12.8137" stroke="#4A4A4A" stroke-miterlimit="10" stroke-linecap="round" stroke-linejoin="round"/>
</svg>
