<svg width="139" height="95" viewBox="0 0 139 95" fill="none" xmlns="http://www.w3.org/2000/svg">
<path d="M65.0021 7.00187H86.8033C87.9154 7.0047 88.9812 7.43957 89.7676 8.21143C90.554 8.98329 90.9971 10.0293 91 11.1209V33C91 33 64.7296 6.7451 65.0021 7.00187Z" fill="#F6B203"/>
<path d="M94 40.1722V87.129C94 87.9 93.8502 88.6634 93.559 89.3757C93.2679 90.088 92.8412 90.7353 92.3032 91.2804C91.7653 91.8256 91.1267 92.2581 90.4238 92.5531C89.721 92.8481 88.9677 93 88.2069 93H48.9106C48.2455 93 47.5696 93 46.8938 93C40.4038 92.9996 33.991 91.5733 28.0973 88.8193C22.2037 86.0652 16.9692 82.049 12.7547 77.0473C8.54014 72.0456 5.4457 66.1773 3.68459 59.8468C1.92347 53.5163 1.53755 46.8742 2.55341 40.378C3.56928 33.8818 5.96278 27.686 9.56899 22.2176C13.1752 16.7492 17.9084 12.1382 23.4424 8.70218C28.9764 5.2662 35.1797 3.087 41.6248 2.31473C48.0699 1.54246 54.6036 2.19548 60.7757 4.2288L61.2584 4.39188L89.4943 33.1596L92.305 36.019C93.3902 37.1214 93.9997 38.615 94 40.1722V40.1722Z" stroke="#4C4C4C" stroke-width="4" stroke-miterlimit="10"/>
<path d="M47 82C65.7777 82 81 66.5538 81 47.5C81 28.4462 65.7777 13 47 13C28.2223 13 13 28.4462 13 47.5C13 66.5538 28.2223 82 47 82Z" stroke="#F6B203" stroke-miterlimit="10"/>
<path d="M137 63H95V86H137V63Z" stroke="#4C4C4C" stroke-miterlimit="10"/>
<path d="M137 53V86" stroke="#4C4C4C" stroke-width="4" stroke-miterlimit="10" stroke-linecap="round"/>
<path d="M117 69V64" stroke="#4C4C4C" stroke-miterlimit="10" stroke-linecap="round"/>
<path d="M128 69V64" stroke="#4C4C4C" stroke-miterlimit="10" stroke-linecap="round"/>
<path d="M105 69V64" stroke="#4C4C4C" stroke-miterlimit="10" stroke-linecap="round"/>
<path d="M72 54.9894H69.5396L68.6641 49.581L65.7494 55H65.2617L62.3359 49.581L61.4714 54.9894H59L60.607 46H62.8235L65.572 51.0915L68.3427 46H70.5593L72 54.9894Z" fill="#4C4C4C"/>
<path d="M28.0731 52.2324H32V55H23V54.3561C24.8361 52.0968 26.184 50.425 26.9481 49.3744C27.5496 48.6216 28.086 47.8125 28.5507 46.957C28.8084 46.4739 28.9505 45.9308 28.9646 45.3755C28.9748 44.9572 28.8299 44.5514 28.5613 44.2458C28.4202 44.1027 28.2536 43.991 28.0713 43.9173C27.8891 43.8436 27.6948 43.8093 27.5 43.8166C27.3046 43.8121 27.1102 43.8487 26.9281 43.9243C26.746 43.9999 26.5797 44.113 26.4387 44.2571C26.1672 44.5615 26.0186 44.9671 26.0248 45.3868V45.624H23.2653V45.3416C23.2447 44.7633 23.3369 44.1867 23.536 43.6481C23.7351 43.1096 24.0368 42.6208 24.4222 42.2125C24.8329 41.8052 25.3155 41.4886 25.842 41.2811C26.3685 41.0736 26.9284 40.9794 27.4894 41.0038C28.2626 40.9902 29.0273 41.1763 29.7182 41.546C30.3506 41.8946 30.877 42.4274 31.2358 43.0823C31.6076 43.7683 31.7949 44.5499 31.7771 45.3416C31.7568 46.3218 31.4971 47.2795 31.0236 48.1205C30.1641 49.5871 29.1762 50.9639 28.0731 52.2324Z" fill="#4C4C4C"/>
<path d="M39.5106 54.9964C38.4752 55.0221 37.4576 54.7258 36.5991 54.1487C35.7393 53.5385 35.0744 52.6942 34.6843 51.717C34.2135 50.5359 33.9851 49.2729 34.0124 48.0025C33.9117 46.1768 34.4281 44.3702 35.4793 42.8713C35.9712 42.2855 36.5861 41.8142 37.2807 41.4909C37.9753 41.1676 38.7327 41 39.4994 41C40.2661 41 41.0235 41.1676 41.7181 41.4909C42.4127 41.8142 43.0276 42.2855 43.5195 42.8713C44.5754 44.3679 45.0924 46.1762 44.9864 48.0025C45.0858 49.8227 44.5649 51.623 43.5083 53.1113C43.0436 53.723 42.4374 54.2138 41.7414 54.542C41.0454 54.8702 40.2801 55.0261 39.5106 54.9964ZM37.6069 51.1927C37.7976 51.5267 38.0737 51.8043 38.4071 51.9975C38.7405 52.1907 39.1193 52.2924 39.505 52.2924C39.8907 52.2924 40.2695 52.1907 40.6029 51.9975C40.9363 51.8043 41.2124 51.5267 41.4031 51.1927C41.8934 50.2073 42.1172 49.1115 42.0525 48.0136C42.1193 46.9071 41.8914 45.8028 41.3919 44.8122C41.2152 44.469 40.945 44.1823 40.6123 43.985C40.2795 43.7877 39.8977 43.6878 39.5106 43.6968C39.1205 43.6875 38.7355 43.7871 38.3991 43.9842C38.0628 44.1813 37.7884 44.4681 37.6069 44.8122C37.1059 45.8022 36.8779 46.907 36.9462 48.0136C36.8797 49.1129 37.1078 50.2101 37.6069 51.1927Z" fill="#4C4C4C"/>
<path d="M51.5058 54.9964C50.4716 55.0206 49.4553 54.7244 48.597 54.1487C47.738 53.5385 47.0738 52.6942 46.684 51.717C46.2137 50.5359 45.9855 49.2729 46.0127 48.0025C45.9101 46.1749 46.4305 44.3665 47.4895 42.8713C47.9809 42.2855 48.5952 41.8143 49.2892 41.4909C49.9831 41.1676 50.7398 41 51.5058 41C52.2718 41 53.0284 41.1676 53.7224 41.4909C54.4163 41.8143 55.0307 42.2855 55.5221 42.8713C56.5723 44.3702 57.0883 46.1768 56.9876 48.0025C57.0869 49.8227 56.5666 51.623 55.5109 53.1113C55.0442 53.7232 54.4366 54.2139 53.7395 54.5421C53.0423 54.8702 52.2761 55.0261 51.5058 54.9964ZM49.5592 51.1927C49.7424 51.5352 50.017 51.8206 50.3526 52.0174C50.6882 52.2142 51.0717 52.3149 51.461 52.3082C51.8508 52.3174 52.2354 52.2179 52.5714 52.0208C52.9075 51.8237 53.1816 51.5369 53.3629 51.1927C53.8551 50.2075 54.0862 49.1131 54.0341 48.0136C54.0956 46.9075 53.8682 45.8045 53.3741 44.8122C53.1937 44.4698 52.9213 44.1841 52.5874 43.9871C52.2535 43.7902 51.8713 43.6896 51.4834 43.6968C51.0941 43.6901 50.7105 43.7907 50.375 43.9875C50.0394 44.1844 49.7648 44.4697 49.5815 44.8122C49.0865 45.8041 48.859 46.9075 48.9215 48.0136C48.8539 49.1105 49.0737 50.2061 49.5592 51.1927Z" fill="#4C4C4C"/>
</svg>
