<svg width="128" height="111" viewBox="0 0 128 111" fill="none" xmlns="http://www.w3.org/2000/svg">
<path d="M88.5893 65H107C108.105 65 109 65.8954 109 67V96C109 97.1046 108.105 98 107 98H4C2.89543 98 2 97.1046 2 96V67C2 65.8954 2.89543 65 4 65H30.1483" stroke="#4C4C4C" stroke-width="4" stroke-miterlimit="10"/>
<path d="M124 54H111C109.895 54 109 54.8954 109 56V107C109 108.105 109.895 109 111 109H124C125.105 109 126 108.105 126 107V56C126 54.8954 125.105 54 124 54Z" fill="#F6B203" stroke="#F6B203" stroke-width="4" stroke-miterlimit="10"/>
<path d="M59.5 79C80.763 79 98 61.763 98 40.5C98 19.237 80.763 2 59.5 2C38.237 2 21 19.237 21 40.5C21 61.763 38.237 79 59.5 79Z" stroke="#4C4C4C" stroke-width="4" stroke-miterlimit="10"/>
<path d="M33 41C33 34.3696 35.7393 28.0107 40.6152 23.3223C45.4912 18.6339 52.1044 16 59 16C65.8956 16 72.5088 18.6339 77.3848 23.3223C82.2607 28.0107 85 34.3696 85 41" stroke="#4C4C4C" stroke-width="4" stroke-miterlimit="10" stroke-linecap="square"/>
<path d="M30 43L39 44" stroke="#F6B203" stroke-miterlimit="10" stroke-linecap="round"/>
<path d="M79 44L88 43" stroke="#F6B203" stroke-miterlimit="10" stroke-linecap="round"/>
<path d="M59 72C76.6731 72 91 57.6731 91 40C91 22.3269 76.6731 8 59 8C41.3269 8 27 22.3269 27 40C27 57.6731 41.3269 72 59 72Z" stroke="#F6B203" stroke-miterlimit="10" stroke-linecap="round"/>
<path d="M38 21L44 27" stroke="#F6B203" stroke-miterlimit="10" stroke-linecap="round"/>
<path d="M81 21L75 27" stroke="#F6B203" stroke-miterlimit="10" stroke-linecap="round"/>
<path d="M59 12V21" stroke="#F6B203" stroke-miterlimit="10" stroke-linecap="round"/>
<path d="M61.8051 45.012L67.9743 17.6832C68.0172 17.5516 68.006 17.4084 67.9432 17.2851C67.8804 17.1618 67.7711 17.0685 67.6393 17.0256C67.5075 16.9828 67.3642 16.994 67.2407 17.0567C67.1172 17.1195 67.0237 17.2286 66.9808 17.3602L55.3585 42.8086C55.0943 43.3683 54.9728 43.9847 55.0051 44.6026C55.0373 45.2206 55.2223 45.8209 55.5434 46.3502C55.8196 46.8543 56.2277 47.274 56.7242 47.5646C57.2207 47.8551 57.7869 48.0056 58.3623 47.9998C59.1863 47.9521 59.9711 47.633 60.5941 47.0923C61.217 46.5517 61.6429 45.8201 61.8051 45.012Z" fill="#F6B203"/>
</svg>
