<svg width="128" height="99" viewBox="0 0 128 99" fill="none" xmlns="http://www.w3.org/2000/svg">
<path d="M82.3476 88H71.6903C70.9869 88 70.3122 87.7193 69.8148 87.2197C69.3174 86.7201 69.038 86.0425 69.038 85.336C69.038 84.6295 69.3174 83.9519 69.8148 83.4523C70.3122 82.9527 70.9869 82.672 71.6903 82.672H79.657V61.3312H39.8333C36.3134 61.3287 32.9382 59.9238 30.4484 57.4248C27.9586 54.9259 26.5574 51.5369 26.5523 48.0016V45.328H13.281C11.1688 45.3305 9.14396 46.1744 7.65047 47.6744C6.15699 49.1745 5.31683 51.2082 5.3143 53.3296V79.9984C5.31429 80.7058 5.59343 81.3844 6.09057 81.8855C6.58771 82.3867 7.26233 82.6695 7.96666 82.672H13.281C13.9844 82.672 14.659 82.9527 15.1565 83.4523C15.6539 83.9519 15.9333 84.6295 15.9333 85.336C15.9333 86.0425 15.6539 86.7201 15.1565 87.2197C14.659 87.7193 13.9844 88 13.281 88H7.96666C5.85454 87.9975 3.82967 87.1536 2.33618 85.6536C0.842689 84.1535 0.00253403 82.1198 0 79.9984L0 53.3296C0.00507098 49.7943 1.40624 46.4053 3.89608 43.9064C6.38592 41.4074 9.76106 40.0025 13.281 40H29.2047C29.909 40 30.5846 40.2804 31.0836 40.7797C31.5825 41.279 31.8641 41.9566 31.8666 42.664V48.0016C31.8692 50.123 32.7093 52.1567 34.2028 53.6568C35.6963 55.1568 37.7212 56.0007 39.8333 56.0032H82.3476C82.696 56.0032 83.0409 56.0721 83.3627 56.206C83.6845 56.3399 83.9769 56.5361 84.2231 56.7835C84.4694 57.0308 84.6648 57.3245 84.7981 57.6477C84.9314 57.9709 85 58.3174 85 58.6672V85.336C85 86.0425 84.7206 86.7201 84.2231 87.2197C83.7257 87.7193 83.0511 88 82.3476 88Z" fill="#4C4C4C"/>
<path d="M50.3774 88H34.6226C33.9271 88 33.26 87.7366 32.7682 87.2678C32.2763 86.7989 32 86.163 32 85.5C32 84.837 32.2763 84.2011 32.7682 83.7322C33.26 83.2634 33.9271 83 34.6226 83H50.3774C51.0729 83 51.74 83.2634 52.2318 83.7322C52.7237 84.2011 53 84.837 53 85.5C53 86.163 52.7237 86.7989 52.2318 87.2678C51.74 87.7366 51.0729 88 50.3774 88Z" fill="#4C4C4C"/>
<path d="M24.5292 99C21.8579 99.0057 19.245 98.2189 17.0211 96.739C14.7972 95.2591 13.0623 93.1527 12.036 90.6865C11.0098 88.2202 10.7383 85.5049 11.2559 82.8842C11.7735 80.2635 13.0569 77.8553 14.9437 75.9644C16.8306 74.0735 19.236 72.7848 21.8555 72.2615C24.4751 71.7383 27.191 72.0039 29.6595 73.0248C32.128 74.0458 34.2381 75.7761 35.7228 77.9967C37.2075 80.2174 38 82.8287 38 85.5C37.9974 89.0746 36.5783 92.5024 34.0534 95.0328C31.5286 97.5631 28.1038 98.9897 24.5292 99ZM24.5292 77.4117C22.9271 77.4117 21.3611 77.8868 20.0292 78.7771C18.6972 79.6674 17.6593 80.9327 17.0467 82.413C16.434 83.8933 16.2742 85.522 16.5875 87.0931C16.9007 88.6643 17.673 90.1072 18.8065 91.2393C19.94 92.3715 21.3838 93.142 22.9553 93.4533C24.5268 93.7647 26.1554 93.6029 27.6349 92.9885C29.1145 92.3741 30.3786 91.3347 31.2672 90.0017C32.1559 88.6687 32.6292 87.102 32.6273 85.5C32.6221 83.3547 31.767 81.2989 30.2491 79.7829C28.7313 78.2669 26.6745 77.4142 24.5292 77.4117Z" fill="#4C4C4C"/>
<path d="M61.5097 99C58.8389 99.0019 56.2274 98.2115 54.0059 96.7289C51.7843 95.2462 50.0525 93.1379 49.0295 90.6707C48.0065 88.2035 47.7383 85.4883 48.2589 82.8687C48.7795 80.249 50.0655 77.8427 51.9541 75.9541C53.8427 74.0655 56.249 72.7795 58.8687 72.2589C61.4883 71.7383 64.2035 72.0065 66.6707 73.0295C69.1379 74.0525 71.2462 75.7843 72.7289 78.0059C74.2115 80.2274 75.0019 82.8389 75 85.5097C74.9948 89.086 73.5719 92.5143 71.0431 95.0431C68.5143 97.5719 65.086 98.9948 61.5097 99ZM61.5097 77.4117C59.9081 77.4117 58.3424 77.8866 57.0107 78.7765C55.679 79.6663 54.641 80.931 54.0281 82.4107C53.4152 83.8905 53.2548 85.5187 53.5673 87.0896C53.8797 88.6605 54.651 90.1034 55.7835 91.2359C56.9161 92.3685 58.359 93.1397 59.9299 93.4522C61.5007 93.7646 63.129 93.6043 64.6087 92.9914C66.0884 92.3784 67.3532 91.3405 68.243 90.0088C69.1328 88.6771 69.6078 87.1114 69.6078 85.5097C69.6052 83.3628 68.7512 81.3045 67.2331 79.7864C65.715 78.2683 63.6567 77.4143 61.5097 77.4117Z" fill="#4C4C4C"/>
<path d="M125.351 88H93.649C92.9481 88 92.2757 87.7221 91.7792 87.2273C91.2827 86.7324 91.0025 86.0609 91 85.3599V53.6401C91.0025 52.9391 91.2827 52.2676 91.7792 51.7727C92.2757 51.2779 92.9481 51 93.649 51H125.351C125.698 50.9988 126.043 51.0661 126.364 51.1982C126.685 51.3304 126.977 51.5246 127.224 51.7699C127.47 52.0152 127.665 52.3067 127.798 52.6276C127.931 52.9485 128 53.2926 128 53.6401V85.3599C128 85.7074 127.931 86.0515 127.798 86.3724C127.665 86.6933 127.47 86.9848 127.224 87.2301C126.977 87.4754 126.685 87.6696 126.364 87.8018C126.043 87.9339 125.698 88.0012 125.351 88ZM96.2884 82.7197H122.712V56.2898H96.2884V82.7197Z" fill="#F6B203"/>
<path d="M125.376 56H93.6436C92.9416 55.9975 92.2692 55.7173 91.7737 55.2208C91.2782 54.7243 91 54.0519 91 53.351V21.649C90.9988 21.3016 91.0662 20.9573 91.1985 20.636C91.3308 20.3146 91.5253 20.0225 91.7709 19.7764C92.0165 19.5303 92.3084 19.3351 92.6297 19.2018C92.9511 19.0686 93.2956 19 93.6436 19H125.404C126.099 19.0125 126.76 19.2974 127.246 19.7931C127.732 20.2888 128.003 20.9555 128 21.649V53.351C128 54.0486 127.724 54.7181 127.233 55.2141C126.742 55.7101 126.074 55.9925 125.376 56ZM96.2585 50.7116H122.722V24.2884H96.2585V50.7116Z" fill="#F6B203"/>
<path d="M24 90C26.2091 90 28 88.2091 28 86C28 83.7909 26.2091 82 24 82C21.7909 82 20 83.7909 20 86C20 88.2091 21.7909 90 24 90Z" stroke="#F6B203" stroke-miterlimit="10"/>
<path d="M61 90C63.2091 90 65 88.2091 65 86C65 83.7909 63.2091 82 61 82C58.7909 82 57 83.7909 57 86C57 88.2091 58.7909 90 61 90Z" stroke="#F6B203" stroke-miterlimit="10"/>
<path d="M109 21L109 37" stroke="#F6B203" stroke-miterlimit="10" stroke-linecap="round"/>
<path d="M109 53L109 69" stroke="#F6B203" stroke-miterlimit="10" stroke-linecap="round"/>
<path d="M70.1326 54H44.9234C42.5233 53.9645 40.2353 52.9643 38.5622 51.2192C36.8891 49.4742 35.9679 47.127 36.0009 44.6936V10.8112C35.9971 10.5771 36.0388 10.3446 36.1237 10.1269C36.2086 9.90919 36.3349 9.71057 36.4955 9.54239C36.6561 9.3742 36.8478 9.23973 37.0597 9.14667C37.2715 9.0536 37.4994 9.00376 37.7302 9H52.3731C54.2583 9.01759 56.0886 9.64603 57.5965 10.7935C59.1043 11.9409 60.2107 13.5472 60.754 15.3776L71.9 51.4566C71.9957 51.7438 72.0232 52.0499 71.9803 52.3499C71.9375 52.6499 71.8254 52.9354 71.6531 53.1832C71.4809 53.4311 71.2535 53.6342 70.9893 53.7761C70.725 53.918 70.4315 53.9947 70.1326 54V54Z" stroke="#F6B203" stroke-miterlimit="10"/>
<path d="M78.4214 58.9987H43.403C36.553 58.9987 31 53.7178 31 47.2101V4.29181C31.0075 3.98342 31.0758 3.67953 31.201 3.39748C31.3263 3.11544 31.506 2.86078 31.73 2.64806C31.9539 2.43534 32.2177 2.26872 32.5062 2.15772C32.7947 2.04673 33.1023 1.99353 33.4114 2.00118H53.75C56.2923 1.96586 58.782 2.72498 60.8701 4.17215C62.9582 5.61932 64.54 7.682 65.394 10.0711L80.8905 55.7784C81.0069 56.1575 81.0309 56.5588 80.9606 56.949C80.8903 57.3393 80.7276 57.7071 80.4862 58.022C80.2447 58.3369 79.9314 58.5898 79.5723 58.7597C79.2132 58.9296 78.8187 59.0115 78.4214 58.9987V58.9987Z" stroke="#4C4C4C" stroke-width="4" stroke-miterlimit="10"/>
<path d="M125.307 88H82.6782C82.3275 88.0013 81.9801 87.9329 81.6558 87.7988C81.3315 87.6647 81.0368 87.4676 80.7884 87.2186C80.54 86.9697 80.343 86.6739 80.2085 86.3482C80.074 86.0224 80.0048 85.6732 80.0048 85.3205V4.85032C79.983 4.48426 80.0358 4.11758 80.16 3.77281C80.2842 3.42804 80.4772 3.11247 80.7272 2.8455C80.9771 2.57853 81.2787 2.36581 81.6134 2.22041C81.9481 2.07501 82.3088 2 82.6733 2C83.0379 2 83.3986 2.07501 83.7333 2.22041C84.068 2.36581 84.3696 2.57853 84.6195 2.8455C84.8695 3.11247 85.0625 3.42804 85.1867 3.77281C85.3109 4.11758 85.3637 4.48426 85.3419 4.85032V82.6411H125.336C126.043 82.6411 126.72 82.9234 127.22 83.4259C127.719 83.9284 128 84.6099 128 85.3205C128 86.0312 127.719 86.7127 127.22 87.2152C126.72 87.7177 126.043 88 125.336 88H125.307Z" fill="#4C4C4C"/>
</svg>
