<svg width="116" height="110" viewBox="0 0 116 110" fill="none" xmlns="http://www.w3.org/2000/svg">
<path d="M64.5631 95H12.7185C6.82116 95 2 90.4722 2 84.9392V21.0693C2 15.5278 6.82116 11 12.7185 11H88.2815C94.1702 11 99 15.5278 99 21.0693V59.1645" stroke="#4A4A4A" stroke-width="4" stroke-miterlimit="10" stroke-linecap="round"/>
<path d="M63.1582 86.9973H14.8873C13.3801 87.0435 11.9155 86.4968 10.8128 85.4763C9.71 84.4557 9.05841 83.0441 9 81.5489V29.4597C9.0562 27.963 9.70681 26.5491 10.8098 25.5267C11.9128 24.5044 13.3787 23.9565 14.8873 24.0027H86.1127C87.6207 23.9587 89.0853 24.5074 90.1878 25.5293C91.2903 26.5512 91.9416 27.9637 92 29.4597V56.0773" stroke="#4A4A4A" stroke-miterlimit="10" stroke-linecap="round"/>
<path d="M88 108C102.359 108 114 96.3594 114 82C114 67.6406 102.359 56 88 56C73.6406 56 62 67.6406 62 82C62 96.3594 73.6406 108 88 108Z" stroke="#F6B203" stroke-width="4" stroke-miterlimit="10" stroke-linecap="round"/>
<path d="M17 15V2" stroke="#4A4A4A" stroke-width="4" stroke-miterlimit="10" stroke-linecap="round"/>
<path d="M34 15V2" stroke="#4A4A4A" stroke-width="4" stroke-miterlimit="10" stroke-linecap="round"/>
<path d="M50 15V2" stroke="#4A4A4A" stroke-width="4" stroke-miterlimit="10" stroke-linecap="round"/>
<path d="M66 15V2" stroke="#4A4A4A" stroke-width="4" stroke-miterlimit="10" stroke-linecap="round"/>
<path d="M83 15V2" stroke="#4A4A4A" stroke-width="4" stroke-miterlimit="10" stroke-linecap="round"/>
<path d="M19.5 39C21.433 39 23 37.433 23 35.5C23 33.567 21.433 32 19.5 32C17.567 32 16 33.567 16 35.5C16 37.433 17.567 39 19.5 39Z" stroke="#F6B203" stroke-miterlimit="10" stroke-linecap="round"/>
<path d="M34.5 39C36.433 39 38 37.433 38 35.5C38 33.567 36.433 32 34.5 32C32.567 32 31 33.567 31 35.5C31 37.433 32.567 39 34.5 39Z" stroke="#F6B203" stroke-miterlimit="10" stroke-linecap="round"/>
<path d="M49.5 39C51.433 39 53 37.433 53 35.5C53 33.567 51.433 32 49.5 32C47.567 32 46 33.567 46 35.5C46 37.433 47.567 39 49.5 39Z" stroke="#F6B203" stroke-miterlimit="10" stroke-linecap="round"/>
<path d="M65.5 39C67.433 39 69 37.433 69 35.5C69 33.567 67.433 32 65.5 32C63.567 32 62 33.567 62 35.5C62 37.433 63.567 39 65.5 39Z" fill="#F6B203"/>
<path d="M80.5 39C82.433 39 84 37.433 84 35.5C84 33.567 82.433 32 80.5 32C78.567 32 77 33.567 77 35.5C77 37.433 78.567 39 80.5 39Z" fill="#F6B203"/>
<path d="M19.5 53C21.433 53 23 51.433 23 49.5C23 47.567 21.433 46 19.5 46C17.567 46 16 47.567 16 49.5C16 51.433 17.567 53 19.5 53Z" stroke="#F6B203" stroke-miterlimit="10" stroke-linecap="round"/>
<path d="M34.5 53C36.433 53 38 51.433 38 49.5C38 47.567 36.433 46 34.5 46C32.567 46 31 47.567 31 49.5C31 51.433 32.567 53 34.5 53Z" stroke="#F6B203" stroke-miterlimit="10" stroke-linecap="round"/>
<path d="M49.5 53C51.433 53 53 51.433 53 49.5C53 47.567 51.433 46 49.5 46C47.567 46 46 47.567 46 49.5C46 51.433 47.567 53 49.5 53Z" stroke="#F6B203" stroke-miterlimit="10" stroke-linecap="round"/>
<path d="M65.5 53C67.433 53 69 51.433 69 49.5C69 47.567 67.433 46 65.5 46C63.567 46 62 47.567 62 49.5C62 51.433 63.567 53 65.5 53Z" fill="#F6B203"/>
<path d="M80.5 53C82.433 53 84 51.433 84 49.5C84 47.567 82.433 46 80.5 46C78.567 46 77 47.567 77 49.5C77 51.433 78.567 53 80.5 53Z" fill="#F6B203"/>
<path d="M19.5 67C21.433 67 23 65.433 23 63.5C23 61.567 21.433 60 19.5 60C17.567 60 16 61.567 16 63.5C16 65.433 17.567 67 19.5 67Z" stroke="#F6B203" stroke-miterlimit="10" stroke-linecap="round"/>
<path d="M34.5 67C36.433 67 38 65.433 38 63.5C38 61.567 36.433 60 34.5 60C32.567 60 31 61.567 31 63.5C31 65.433 32.567 67 34.5 67Z" stroke="#F6B203" stroke-miterlimit="10" stroke-linecap="round"/>
<path d="M50.5 67C52.433 67 54 65.433 54 63.5C54 61.567 52.433 60 50.5 60C48.567 60 47 61.567 47 63.5C47 65.433 48.567 67 50.5 67Z" stroke="#F6B203" stroke-miterlimit="10" stroke-linecap="round"/>
<path d="M65.501 67C64.8251 66.9984 64.1641 66.8022 63.5974 66.4349C63.0306 66.0677 62.5823 65.5451 62.3062 64.9298C62.0301 64.3146 61.938 63.6329 62.041 62.9667C62.144 62.3005 62.4376 61.6781 62.8867 61.1744C63.3358 60.6706 63.9212 60.3069 64.5725 60.127C65.2239 59.9471 65.9134 59.9585 66.5584 60.16C67.2033 60.3615 67.7762 60.7445 68.2082 61.2629C68.6402 61.7813 68.9129 62.4131 68.9936 63.0823C69.0021 63.2214 69.0021 63.3609 68.9936 63.5" fill="#F6B203"/>
<path d="M19.5 81C21.433 81 23 79.433 23 77.5C23 75.567 21.433 74 19.5 74C17.567 74 16 75.567 16 77.5C16 79.433 17.567 81 19.5 81Z" stroke="#F6B203" stroke-miterlimit="10" stroke-linecap="round"/>
<path d="M34.5 81C36.433 81 38 79.433 38 77.5C38 75.567 36.433 74 34.5 74C32.567 74 31 75.567 31 77.5C31 79.433 32.567 81 34.5 81Z" stroke="#F6B203" stroke-miterlimit="10" stroke-linecap="round"/>
<path d="M50.5 81C52.433 81 54 79.433 54 77.5C54 75.567 52.433 74 50.5 74C48.567 74 47 75.567 47 77.5C47 79.433 48.567 81 50.5 81Z" stroke="#F6B203" stroke-miterlimit="10" stroke-linecap="round"/>
<path d="M88.5 103C99.8218 103 109 93.8218 109 82.5C109 71.1782 99.8218 62 88.5 62C77.1782 62 68 71.1782 68 82.5C68 93.8218 77.1782 103 88.5 103Z" stroke="#4A4A4A" stroke-miterlimit="10" stroke-linecap="round"/>
<path d="M89 82.3694V72M89.0492 82.4129L99.0001 92.9999" stroke="#F6B203" stroke-width="4" stroke-miterlimit="10" stroke-linecap="round"/>
</svg>
