<svg width="41" height="27" viewBox="0 0 41 27" fill="none" xmlns="http://www.w3.org/2000/svg">
<g clip-path="url(#clip0_1505_148)">
<path d="M41 -6.10352e-05H0V27.0002H41V-6.10352e-05Z" fill="#F0F0F0"/>
<path d="M23.0625 -0.000610352H17.9375V10.9681H0V16.0306H17.9375V26.9993H23.0625V16.0306H41V10.9681H23.0625V-0.000610352Z" fill="#D80027"/>
<path d="M31.5337 18.1953L41.0001 23.3904V18.1953H31.5337Z" fill="#0052B4"/>
<path d="M24.9565 18.1953L41 26.9996V24.51L29.4934 18.1953H24.9565Z" fill="#0052B4"/>
<path d="M36.7266 26.9996L24.9565 20.5399V26.9996H36.7266Z" fill="#0052B4"/>
<path d="M24.9565 18.1953L41 26.9996V24.51L29.4934 18.1953H24.9565Z" fill="#F0F0F0"/>
<path d="M24.9565 18.1953L41 26.9996V24.51L29.4934 18.1953H24.9565Z" fill="#D80027"/>
<path d="M7.23434 18.1952L0 22.1653V18.1952H7.23434Z" fill="#0052B4"/>
<path d="M16.0432 19.3148V26.9996H2.04102L16.0432 19.3148Z" fill="#0052B4"/>
<path d="M11.5067 18.1953L0 24.51V26.9996L16.0435 18.1953H11.5067Z" fill="#D80027"/>
<path d="M9.46644 8.80405L0 3.60898V8.80405H9.46644Z" fill="#0052B4"/>
<path d="M16.0435 8.80371L0 -0.000610352V2.48903L11.5067 8.80371H16.0435Z" fill="#0052B4"/>
<path d="M4.27344 -0.000411987L16.0435 6.45934V-0.000411987H4.27344Z" fill="#0052B4"/>
<path d="M16.0435 8.80371L0 -0.000610352V2.48903L11.5067 8.80371H16.0435Z" fill="#F0F0F0"/>
<path d="M16.0435 8.80371L0 -0.000610352V2.48903L11.5067 8.80371H16.0435Z" fill="#D80027"/>
<path d="M33.7656 8.8042L41 4.83409V8.8042H33.7656Z" fill="#0052B4"/>
<path d="M24.9565 7.6845V-0.000289917H38.9588L24.9565 7.6845Z" fill="#0052B4"/>
<path d="M29.4934 8.80391L41 2.48923V-0.000411987L24.9565 8.80391H29.4934Z" fill="#D80027"/>
</g>
<defs>
<clipPath id="clip0_1505_148">
<rect width="41" height="27" fill="white"/>
</clipPath>
</defs>
</svg>
