<svg width="26" height="26" viewBox="0 0 26 26" fill="none" xmlns="http://www.w3.org/2000/svg">
<path d="M13 1.625C10.7502 1.625 8.551 2.29213 6.68039 3.54203C4.80978 4.79193 3.35182 6.56847 2.49088 8.64698C1.62993 10.7255 1.40467 13.0126 1.84357 15.2192C2.28248 17.4257 3.36584 19.4525 4.95667 21.0433C6.54749 22.6342 8.57432 23.7175 10.7809 24.1564C12.9874 24.5953 15.2745 24.3701 17.353 23.5091C19.4315 22.6482 21.2081 21.1902 22.458 19.3196C23.7079 17.449 24.375 15.2498 24.375 13C24.375 9.98316 23.1766 7.08989 21.0433 4.95666C18.9101 2.82343 16.0168 1.625 13 1.625ZM13 22.75C11.0716 22.75 9.18657 22.1782 7.5832 21.1068C5.97982 20.0355 4.73013 18.5127 3.99218 16.7312C3.25423 14.9496 3.06114 12.9892 3.43735 11.0979C3.81355 9.20655 4.74215 7.46927 6.10571 6.10571C7.46928 4.74215 9.20656 3.81355 11.0979 3.43734C12.9892 3.06114 14.9496 3.25422 16.7312 3.99217C18.5127 4.73013 20.0355 5.97981 21.1068 7.58319C22.1782 9.18657 22.75 11.0716 22.75 13C22.75 15.5859 21.7228 18.0658 19.8943 19.8943C18.0658 21.7228 15.5859 22.75 13 22.75Z" fill="#F24E1E"/>
<path d="M12.1875 6.5H13.8125V15.4375H12.1875V6.5Z" fill="#F24E1E"/>
<path d="M13 17.875C12.759 17.875 12.5233 17.9465 12.3229 18.0804C12.1225 18.2143 11.9663 18.4047 11.874 18.6274C11.7818 18.8501 11.7576 19.0951 11.8047 19.3315C11.8517 19.5679 11.9678 19.7851 12.1382 19.9555C12.3087 20.126 12.5258 20.2421 12.7622 20.2891C12.9986 20.3361 13.2437 20.312 13.4664 20.2197C13.6891 20.1275 13.8794 19.9713 14.0134 19.7709C14.1473 19.5704 14.2188 19.3348 14.2188 19.0937C14.2188 18.7705 14.0903 18.4605 13.8618 18.232C13.6332 18.0034 13.3232 17.875 13 17.875Z" fill="#F24E1E"/>
</svg>
