<svg width="17" height="17" viewBox="0 0 17 17" fill="none" xmlns="http://www.w3.org/2000/svg">
<path d="M13.9451 3.04686C12.4634 1.5703 10.4878 0.749985 8.40244 0.749985C4.06707 0.749985 0.554877 4.24998 0.554877 8.5703C0.554877 9.93749 0.939024 11.3047 1.59756 12.4531L0.5 16.5L4.67073 15.4062C5.82317 16.0078 7.08537 16.3359 8.40244 16.3359C12.7378 16.3359 16.25 12.8359 16.25 8.51561C16.1951 6.49217 15.4268 4.52342 13.9451 3.04686ZM12.189 11.3594C12.0244 11.7969 11.2561 12.2344 10.872 12.289C10.5427 12.3437 10.1037 12.3437 9.66464 12.2344C9.39025 12.125 9.0061 12.0156 8.56707 11.7969C6.59146 10.9765 5.32927 9.0078 5.21951 8.84373C5.10976 8.73436 4.39634 7.80467 4.39634 6.8203C4.39634 5.83592 4.89024 5.39842 5.05488 5.17967C5.21951 4.96092 5.43902 4.96092 5.60366 4.96092C5.71342 4.96092 5.87805 4.96092 5.9878 4.96092C6.09756 4.96092 6.2622 4.90623 6.42683 5.28905C6.59146 5.67186 6.97561 6.65624 7.03049 6.71092C7.08537 6.8203 7.08537 6.92967 7.03049 7.03905C6.97561 7.14842 6.92073 7.2578 6.81097 7.36717C6.70122 7.47655 6.59146 7.64061 6.53658 7.6953C6.42683 7.80467 6.31707 7.91405 6.42683 8.07811C6.53659 8.29686 6.92073 8.89842 7.52439 9.4453C8.29268 10.1015 8.89634 10.3203 9.11586 10.4297C9.33537 10.539 9.44512 10.4844 9.55488 10.375C9.66463 10.2656 10.0488 9.82811 10.1585 9.60936C10.2683 9.39061 10.4329 9.4453 10.5976 9.49999C10.7622 9.55467 11.75 10.0469 11.9146 10.1562C12.1341 10.2656 12.2439 10.3203 12.2988 10.375C12.3537 10.539 12.3537 10.9219 12.189 11.3594Z" fill="#EAEAEA"/>
</svg>
