<svg width="1114" height="803" viewBox="0 0 1114 803" fill="none" xmlns="http://www.w3.org/2000/svg">
<line y1="-2.5" x2="390.229" y2="-2.5" transform="matrix(0.310074 -0.950712 0.950715 0.310068 983 780.236)" stroke="#FFC83C" stroke-width="5"/>
<g filter="url(#filter0_d_2232_9160)">
<circle cx="1102" cy="407.241" r="8" fill="#FFC83C"/>
</g>
<circle cx="977.5" cy="787.736" r="14.5" fill="#2D2D2D"/>
<circle cx="977.5" cy="787.736" r="7.5" fill="#FFC83B"/>
<line y1="-2.5" x2="659.234" y2="-2.5" transform="matrix(0.999347 -0.0362826 0.0362788 0.999336 20 402.12)" stroke="#FFC83C" stroke-width="5"/>
<g filter="url(#filter1_d_2232_9160)">
<circle r="8" transform="matrix(0.556244 -0.831019 0.831025 0.556234 680.472 375.709)" fill="#FFC83C"/>
</g>
<circle r="14.5" transform="matrix(0.556244 -0.831019 0.831025 0.556234 20.1154 400.235)" fill="#2D2D2D"/>
<circle r="7.5" transform="matrix(0.556244 -0.831019 0.831025 0.556234 20.1155 400.235)" fill="#FFC83B"/>
<line x1="359.768" y1="190.621" x2="824.547" y2="340.615" stroke="#FFC83C" stroke-width="5"/>
<g filter="url(#filter2_d_2232_9160)">
<circle r="8" transform="matrix(0.761947 -0.647639 0.647648 0.76194 825.066 340.051)" fill="#FFC83C"/>
</g>
<circle r="14.5" transform="matrix(0.761947 -0.647639 0.647648 0.76194 350.439 186.463)" fill="#2D2D2D"/>
<circle r="7.5" transform="matrix(0.761947 -0.647639 0.647648 0.76194 350.439 186.463)" fill="#FFC83B"/>
<line y1="-2.5" x2="791.648" y2="-2.5" transform="matrix(0.911661 -0.410942 0.462554 0.886591 98.3374 733.98)" stroke="#FFC83C" stroke-width="5"/>
<g filter="url(#filter3_d_2232_9160)">
<ellipse cx="820.652" cy="405.251" rx="9.22547" ry="9.8004" transform="rotate(-80.0172 820.652 405.251)" fill="#FFC83C"/>
</g>
<ellipse cx="90.4224" cy="735.492" rx="11.9872" ry="12.7342" transform="rotate(-80.0172 90.4224 735.492)" fill="#2D2D2D"/>
<ellipse cx="90.4226" cy="735.492" rx="6.20027" ry="6.58667" transform="rotate(-80.0172 90.4226 735.492)" fill="#FFC83B"/>
<defs>
<filter id="filter0_d_2232_9160" x="1090" y="395.241" width="24" height="24" filterUnits="userSpaceOnUse" color-interpolation-filters="sRGB">
<feFlood flood-opacity="0" result="BackgroundImageFix"/>
<feColorMatrix in="SourceAlpha" type="matrix" values="0 0 0 0 0 0 0 0 0 0 0 0 0 0 0 0 0 0 127 0" result="hardAlpha"/>
<feOffset/>
<feGaussianBlur stdDeviation="2"/>
<feColorMatrix type="matrix" values="0 0 0 0 1 0 0 0 0 0.843667 0 0 0 0 0.441667 0 0 0 0.88 0"/>
<feBlend mode="normal" in2="BackgroundImageFix" result="effect1_dropShadow_2232_9160"/>
<feBlend mode="normal" in="SourceGraphic" in2="effect1_dropShadow_2232_9160" result="shape"/>
</filter>
<filter id="filter1_d_2232_9160" x="668.471" y="363.708" width="24.002" height="24.0016" filterUnits="userSpaceOnUse" color-interpolation-filters="sRGB">
<feFlood flood-opacity="0" result="BackgroundImageFix"/>
<feColorMatrix in="SourceAlpha" type="matrix" values="0 0 0 0 0 0 0 0 0 0 0 0 0 0 0 0 0 0 127 0" result="hardAlpha"/>
<feOffset/>
<feGaussianBlur stdDeviation="2"/>
<feColorMatrix type="matrix" values="0 0 0 0 1 0 0 0 0 0.843667 0 0 0 0 0.441667 0 0 0 0.88 0"/>
<feBlend mode="normal" in2="BackgroundImageFix" result="effect1_dropShadow_2232_9160"/>
<feBlend mode="normal" in="SourceGraphic" in2="effect1_dropShadow_2232_9160" result="shape"/>
</filter>
<filter id="filter2_d_2232_9160" x="813.065" y="328.051" width="24.0005" height="24.0002" filterUnits="userSpaceOnUse" color-interpolation-filters="sRGB">
<feFlood flood-opacity="0" result="BackgroundImageFix"/>
<feColorMatrix in="SourceAlpha" type="matrix" values="0 0 0 0 0 0 0 0 0 0 0 0 0 0 0 0 0 0 127 0" result="hardAlpha"/>
<feOffset/>
<feGaussianBlur stdDeviation="2"/>
<feColorMatrix type="matrix" values="0 0 0 0 1 0 0 0 0 0.843667 0 0 0 0 0.441667 0 0 0 0.88 0"/>
<feBlend mode="normal" in2="BackgroundImageFix" result="effect1_dropShadow_2232_9160"/>
<feBlend mode="normal" in="SourceGraphic" in2="effect1_dropShadow_2232_9160" result="shape"/>
</filter>
<filter id="filter3_d_2232_9160" x="806.867" y="392.006" width="27.5703" height="26.4899" filterUnits="userSpaceOnUse" color-interpolation-filters="sRGB">
<feFlood flood-opacity="0" result="BackgroundImageFix"/>
<feColorMatrix in="SourceAlpha" type="matrix" values="0 0 0 0 0 0 0 0 0 0 0 0 0 0 0 0 0 0 127 0" result="hardAlpha"/>
<feOffset/>
<feGaussianBlur stdDeviation="2"/>
<feColorMatrix type="matrix" values="0 0 0 0 1 0 0 0 0 0.843667 0 0 0 0 0.441667 0 0 0 0.88 0"/>
<feBlend mode="normal" in2="BackgroundImageFix" result="effect1_dropShadow_2232_9160"/>
<feBlend mode="normal" in="SourceGraphic" in2="effect1_dropShadow_2232_9160" result="shape"/>
</filter>
</defs>
</svg>
