<svg width="44" height="30" viewBox="0 0 44 30" fill="none" xmlns="http://www.w3.org/2000/svg">
<path d="M42.1208 5.38292C41.894 4.52338 41.4322 3.73584 40.7819 3.09983C40.1316 2.46383 39.316 2.00189 38.4173 1.76067C35.1339 1 22 1 22 1C22 1 8.86614 1 5.58267 1.83312C4.68401 2.07433 3.86835 2.53627 3.21809 3.17228C2.56783 3.80828 2.10599 4.59583 1.87923 5.45537C1.2783 8.61679 0.984361 11.8238 1.00109 15.0362C0.979671 18.2728 1.27363 21.5043 1.87923 24.6895C2.12923 25.5224 2.60141 26.28 3.25016 26.8891C3.8989 27.4982 4.70228 27.9383 5.58267 28.1669C8.86614 29 22 29 22 29C22 29 35.1339 29 38.4173 28.1669C39.316 27.9257 40.1316 27.4637 40.7819 26.8277C41.4322 26.1917 41.894 25.4042 42.1208 24.5446C42.7171 21.407 43.011 18.2244 42.9989 15.0362C43.0203 11.7997 42.7264 8.56815 42.1208 5.38292Z" stroke="white" stroke-width="2" stroke-linecap="round" stroke-linejoin="round"/>
<path d="M17.7052 20.9586L28.6819 15.0362L17.7052 9.11382V20.9586Z" stroke="white" stroke-width="2" stroke-linecap="round" stroke-linejoin="round"/>
</svg>
