<svg width="14" height="11" viewBox="0 0 14 11" fill="none" xmlns="http://www.w3.org/2000/svg">
<path d="M13.5348 4.18484C13.5348 3.89394 13.4864 3.55455 13.4864 3.16667C13.4379 2.77879 13.3894 2.39091 13.3409 2.05151C13.2439 1.66364 13.0985 1.37273 12.8076 1.1303C12.5652 0.88788 12.2258 0.742421 11.8864 0.693936C10.7712 0.548482 9.12273 0.5 6.89243 0.5C4.66213 0.5 2.96515 0.548482 1.89848 0.693936C1.55909 0.742421 1.2197 0.88788 0.977273 1.1303C0.734849 1.37273 0.540906 1.66364 0.443936 2.05151C0.346967 2.39091 0.298488 2.7303 0.298488 3.16667C0.250003 3.55455 0.25 3.89394 0.25 4.18484C0.25 4.47575 0.25 4.81515 0.25 5.3C0.25 5.78485 0.25 6.17273 0.25 6.41515C0.25 6.70606 0.298488 7.04546 0.298488 7.43334C0.346973 7.82121 0.395452 8.20909 0.443936 8.54848C0.540906 8.93636 0.686364 9.22727 0.977273 9.4697C1.2197 9.71212 1.55909 9.85757 1.89848 9.90606C3.01363 10.0515 4.66213 10.1 6.89243 10.1C9.12273 10.1 10.8197 10.0515 11.8864 9.90606C12.2258 9.85757 12.5652 9.71212 12.8076 9.4697C13.05 9.22727 13.2439 8.93636 13.3409 8.54848C13.4379 8.20909 13.4864 7.8697 13.4864 7.43334C13.5349 7.04546 13.5348 6.70606 13.5348 6.41515C13.5348 6.12424 13.5348 5.78485 13.5348 5.3C13.5348 4.81515 13.5348 4.42727 13.5348 4.18484ZM9.46212 5.68788L5.63182 8.06363C5.58334 8.11212 5.48637 8.16061 5.3894 8.16061C5.29243 8.16061 5.24394 8.16061 5.14697 8.11212C5.00152 8.01515 4.90455 7.8697 4.90455 7.67576V2.87575C4.90455 2.68182 5.00152 2.53636 5.14697 2.43939C5.29243 2.34242 5.48637 2.34242 5.63182 2.43939L9.46212 4.81515C9.60758 4.91212 9.70455 5.05757 9.70455 5.20303C9.70455 5.34848 9.60758 5.59091 9.46212 5.68788Z" fill="#EAEAEA"/>
</svg>
