<svg width="30" height="30" viewBox="0 0 30 30" fill="none" xmlns="http://www.w3.org/2000/svg">
<path d="M15 0C6.75 0 0 6.75 0 15C0 23.25 6.75 30 15 30C23.25 30 30 23.25 30 15C30 6.75 23.25 0 15 0ZM21.3 12.45L14.1 19.65C13.5 20.25 12.6 20.25 12 19.65L8.7 16.35C8.1 15.75 8.1 14.85 8.7 14.25C9.3 13.65 10.2 13.65 10.8 14.25C12.0426 15.4926 14.0574 15.4926 15.3 14.25L19.2 10.35C19.8 9.75 20.7 9.75 21.3 10.35C21.9 10.95 21.9 11.85 21.3 12.45Z" fill="url(#paint0_linear_104_2872)"/>
<defs>
<linearGradient id="paint0_linear_104_2872" x1="28.1839" y1="0" x2="2.55605" y2="0" gradientUnits="userSpaceOnUse">
<stop stop-color="#C9BA9B"/>
<stop offset="1" stop-color="#A07E3F"/>
</linearGradient>
</defs>
</svg>
