<svg width="58" height="58" viewBox="0 0 58 58" fill="none" xmlns="http://www.w3.org/2000/svg">
<circle cx="28.5" cy="30.5" r="18.5" fill="white"/>
<path d="M28.9997 53.1666C15.6524 53.1666 4.83301 42.3472 4.83301 28.9999C4.83301 15.6527 15.6524 4.83325 28.9997 4.83325C42.3469 4.83325 53.1663 15.6527 53.1663 28.9999C53.1663 42.3472 42.3469 53.1666 28.9997 53.1666ZM21.4838 31.8274L21.5153 31.8105L23.6178 38.7463C23.8884 39.4979 24.2606 39.6333 24.7125 39.5704C25.1668 39.51 25.4061 39.2659 25.7033 38.9808L28.5743 36.2064L34.7368 40.7691C35.863 41.3902 36.6726 41.0688 36.9529 39.7251L40.9573 20.8219C41.3996 19.0626 40.6263 18.3569 39.2608 18.9176L15.7394 28.0043C14.1348 28.6471 14.1444 29.5461 15.4494 29.9448L21.4838 31.8298V31.8274Z" fill="#D7B185"/>
</svg>
