<svg width="136" height="136" viewBox="0 0 136 136" fill="none" xmlns="http://www.w3.org/2000/svg">
<g filter="url(#filter0_d_104_1080)">
<circle cx="67.9999" cy="63.9999" r="32.9726" fill="url(#paint0_linear_104_1080)"/>
</g>
<g clip-path="url(#clip0_104_1080)">
<path d="M76.8462 68.7524C76.8462 65.2 74.9155 63.0286 70.1304 61.3698C66.7135 60.1066 65.3059 59.2778 65.3059 57.9749C65.3059 56.8694 66.15 55.7628 68.7632 55.7628C70.3171 55.7628 71.5685 56.0234 72.559 56.3333C73.0864 56.4973 73.6608 56.4416 74.1457 56.1767C74.6294 55.913 74.9832 55.4658 75.1208 54.9393L75.1427 54.8568C75.313 54.2048 75.2104 53.5132 74.8576 52.9363C74.5049 52.3594 73.9316 51.9455 73.2655 51.7868C72.3668 51.5724 71.313 51.418 70.0736 51.3525V48.9882C70.0736 48.3963 69.5855 47.9159 68.9816 47.9159H66.7976C66.1948 47.9159 65.7056 48.3963 65.7056 48.9882V51.6807C61.5582 52.5664 59.1536 55.2396 59.1536 58.6451C59.1536 62.4753 62.0889 64.4483 66.3914 65.8701C69.3671 66.8577 70.6523 67.8056 70.6523 69.3047C70.6523 70.8852 69.0842 71.7527 66.7932 71.7527C65.1508 71.7527 63.6046 71.4246 62.2636 70.957C61.7012 70.7608 61.082 70.8048 60.5557 71.0804C60.0294 71.3549 59.645 71.8342 59.4965 72.4014L59.4866 72.4357C59.1306 73.8029 59.9387 75.2033 61.3157 75.6075C62.6207 75.9914 64.1484 76.2595 65.7056 76.3302V79.012C65.7056 79.605 66.1948 80.0843 66.7976 80.0843H68.9816C69.5855 80.0843 70.0736 79.605 70.0736 79.012V75.9635C74.4416 75.0724 76.8462 72.1623 76.8462 68.7524Z" fill="white"/>
</g>
<defs>
<filter id="filter0_d_104_1080" x="0.0273438" y="0.0273438" width="135.945" height="135.945" filterUnits="userSpaceOnUse" color-interpolation-filters="sRGB">
<feFlood flood-opacity="0" result="BackgroundImageFix"/>
<feColorMatrix in="SourceAlpha" type="matrix" values="0 0 0 0 0 0 0 0 0 0 0 0 0 0 0 0 0 0 127 0" result="hardAlpha"/>
<feOffset dy="4"/>
<feGaussianBlur stdDeviation="17.5"/>
<feComposite in2="hardAlpha" operator="out"/>
<feColorMatrix type="matrix" values="0 0 0 0 0 0 0 0 0 0 0 0 0 0 0 0 0 0 0.25 0"/>
<feBlend mode="normal" in2="BackgroundImageFix" result="effect1_dropShadow_104_1080"/>
<feBlend mode="normal" in="SourceGraphic" in2="effect1_dropShadow_104_1080" result="shape"/>
</filter>
<linearGradient id="paint0_linear_104_1080" x1="96.9804" y1="31.0273" x2="40.646" y2="31.0273" gradientUnits="userSpaceOnUse">
<stop stop-color="#C9BA9B"/>
<stop offset="1" stop-color="#A07E3F"/>
</linearGradient>
<clipPath id="clip0_104_1080">
<rect width="17.6926" height="32.1684" fill="white" transform="translate(59.1536 47.9159)"/>
</clipPath>
</defs>
</svg>
