<svg width="139" height="138" viewBox="0 0 139 138" fill="none" xmlns="http://www.w3.org/2000/svg">
<path d="M138.145 69C138.145 59.9388 136.36 50.9663 132.892 42.5948C129.425 34.2234 124.342 26.6169 117.935 20.2096C111.528 13.8024 103.921 8.71989 95.5499 5.25231C87.1785 1.78474 78.206 -3.96078e-07 69.1448 0C60.0836 3.96078e-07 51.1111 1.78474 42.7396 5.25231C34.3681 8.71989 26.7616 13.8024 20.3544 20.2096C13.9472 26.6169 8.86466 34.2234 5.39709 42.5948C1.92951 50.9663 0.144775 59.9388 0.144775 69L69.1448 69H138.145Z" fill="#F8F6F2" fill-opacity="0.44"/>
<path d="M120.145 69C120.145 62.3026 118.826 55.6707 116.263 49.4831C113.7 43.2955 109.943 37.6733 105.207 32.9376C100.471 28.2018 94.8492 24.4451 88.6616 21.8821C82.474 19.3192 75.8422 18 69.1448 18C62.4474 18 55.8155 19.3192 49.6279 21.8821C43.4403 24.4451 37.8181 28.2018 33.0823 32.9376C28.3465 37.6733 24.5899 43.2955 22.0269 49.4831C19.4639 55.6708 18.1448 62.3026 18.1448 69L69.1448 69H120.145Z" fill="#EEE6D9"/>
</svg>
