<svg width="44" height="30" viewBox="0 0 44 30" fill="none" xmlns="http://www.w3.org/2000/svg">
<path d="M39.0257 0.900635H9.89276C7.14964 0.900635 4.9185 2.94141 4.9185 5.45014V5.8489C2.20137 5.8772 0 7.90456 0 10.3957V24.5497C0 27.0584 2.23156 29.0992 4.97426 29.0992H34.1072C36.8499 29.0992 39.0815 27.0584 39.0815 24.5497V24.1509C41.798 24.1232 44 22.0959 44 19.6041V5.45035C44.0006 2.94162 41.7684 0.900635 39.0257 0.900635ZM35.8918 24.5497C35.8918 25.2866 35.075 25.9086 34.1079 25.9086H4.97489C4.00776 25.9086 3.19094 25.2866 3.19094 24.5497V10.3959C3.19094 9.65937 4.00818 9.03691 4.97489 9.03691H34.1079C35.075 9.03691 35.8918 9.65958 35.8918 10.3959V24.5497ZM39.0821 20.9587V10.3957C39.0821 7.88695 36.8506 5.84618 34.1079 5.84618H8.10881V5.45014C8.10881 4.71362 8.92604 4.09116 9.89276 4.09116H39.0257C39.9929 4.09116 40.8097 4.71383 40.8097 5.45014V19.6041H40.8103C40.8101 20.3262 40.0239 20.9348 39.0821 20.9587Z" fill="url(#paint0_linear_104_65)"/>
<path d="M19.5983 16.2775C18.2556 16.1175 17.574 15.9261 17.574 15.3219C17.574 14.386 18.9288 14.2849 19.5117 14.2849C20.3694 14.2849 21.3178 14.6996 21.6269 15.2095L21.7497 15.4131L23.7092 14.5065L23.5895 14.2625C22.8999 12.854 21.6774 12.4286 20.7335 12.2557V11.0093H18.4416V12.2492C16.4233 12.5634 15.2263 13.7002 15.2263 15.3215C15.2263 17.9891 17.7286 18.2688 19.3827 18.4543C20.8864 18.6319 21.5873 18.9929 21.5873 19.59C21.5873 20.745 19.9559 20.8347 19.4555 20.8347C18.3336 20.8347 17.2531 20.2792 16.9426 19.5416L16.8388 19.2965L14.7129 20.1972L14.8177 20.4423C15.4159 21.8428 16.6979 22.726 18.441 22.9462V24.2898H20.7327V22.8791C22.4055 22.6728 24.0172 21.6029 24.0172 19.5894C24.0178 16.8226 21.3587 16.4949 19.5983 16.2775Z" fill="url(#paint1_linear_104_65)"/>
<defs>
<linearGradient id="paint0_linear_104_65" x1="22" y1="0.900635" x2="22" y2="29.0992" gradientUnits="userSpaceOnUse">
<stop stop-color="#A07E3F"/>
<stop offset="1" stop-color="#D7B185"/>
</linearGradient>
<linearGradient id="paint1_linear_104_65" x1="19.365" y1="11.0093" x2="19.365" y2="24.2898" gradientUnits="userSpaceOnUse">
<stop stop-color="#A07E3F"/>
<stop offset="1" stop-color="#D7B185"/>
</linearGradient>
</defs>
</svg>
