<svg width="36" height="30" viewBox="0 0 36 30" fill="none" xmlns="http://www.w3.org/2000/svg">
<path d="M0.762932 0.987418C0.347297 1.2553 0.000134391 1.64571 0.000134391 2.20429V24.7349C0.000134391 24.7349 -0.0896595 29.3845 4.37286 29.3845H32.7823C33.684 29.3845 34.9989 29.1313 35.4922 28.5661C35.7738 28.2427 36.0001 27.8302 36.0001 27.3379C36.0001 26.8372 35.7665 26.3782 35.4791 26.0025C34.9891 25.3622 33.684 25.0086 32.7823 25.0061L7.59237 24.9268C6.68993 24.9235 5.32921 25.0411 4.81147 24.6124C4.56326 24.4074 4.37286 24.07 4.37286 23.5212V19.8557C4.37286 18.954 5.07034 18.0026 5.93119 17.7331L11.622 15.9453C12.4828 15.675 13.756 15.9078 14.4658 16.4647L20.9579 21.5585C21.6676 22.1154 22.7751 22.0657 23.4317 21.4466L34.552 10.9715C35.2087 10.3524 35.7534 9.12007 35.7681 8.21838L35.8285 4.66071C35.844 3.75902 35.3279 3.53363 34.6769 4.15843L23.5656 14.8109C22.9147 15.4357 21.8007 15.5043 21.078 14.9645L14.6888 10.1916C13.9659 9.65177 12.6904 9.45657 11.8385 9.75463L5.96212 11.8178C5.11103 12.1168 4.41685 11.6275 4.4137 10.7251L4.38097 3.6515C4.37691 2.74981 4.082 1.42438 3.46456 0.944023C2.84711 0.46307 1.46041 0.538149 0.762932 0.987418Z" fill="url(#paint0_linear_104_59)"/>
<defs>
<linearGradient id="paint0_linear_104_59" x1="18.0001" y1="0.615479" x2="18.0001" y2="29.3845" gradientUnits="userSpaceOnUse">
<stop stop-color="#A07E3F"/>
<stop offset="1" stop-color="#D7B185"/>
</linearGradient>
</defs>
</svg>
