<svg width="36" height="36" viewBox="0 0 36 36" fill="none" xmlns="http://www.w3.org/2000/svg">
<path d="M34.3636 7.09087H26.1818V2.18179C26.1818 1.27807 25.4492 0.54541 24.5455 0.54541H11.4545C10.5508 0.54541 9.81816 1.27807 9.81816 2.18179V7.09087H1.63638C0.732656 7.09087 0 7.82353 0 8.72726V20.7273C0 21.5181 0.565664 22.1958 1.34367 22.3372L2.1818 22.4895V33.8182C2.1818 34.7219 2.91445 35.4546 3.81818 35.4546H32.1818C33.0855 35.4546 33.8182 34.7219 33.8182 33.8182V22.4895L34.6565 22.3372C35.4344 22.1958 36 21.5181 36 20.7273V8.72726C36 7.82353 35.2673 7.09087 34.3636 7.09087ZM13.0909 3.81818H22.9091V7.09087H13.0909V3.81818ZM30.5454 32.1818H5.45456V23.0847L12 24.2747V26.1819C12 27.0856 12.7327 27.8182 13.6364 27.8182H22.3637C23.2674 27.8182 24 27.0856 24 26.1819V24.2748L30.5455 23.0848V32.1818H30.5454ZM15.2727 24.5455V21.2728H20.7273V24.5455H15.2727ZM32.7273 19.3615L24 20.9483V19.6363C24 18.7326 23.2674 17.9999 22.3637 17.9999H13.6363C12.7326 17.9999 12 18.7326 12 19.6363V20.9483L3.2727 19.3615V10.3636H11.4545H24.5455H32.7273V19.3615Z" fill="url(#paint0_linear_104_54)"/>
<defs>
<linearGradient id="paint0_linear_104_54" x1="18" y1="0.54541" x2="18" y2="35.4546" gradientUnits="userSpaceOnUse">
<stop stop-color="#A07E3F"/>
<stop offset="1" stop-color="#D7B185"/>
</linearGradient>
</defs>
</svg>
