<svg xmlns="http://www.w3.org/2000/svg" viewBox="0 0 222 28"><path d="M31.7 25L22.3 9.3c-1.4-2.4.3-5.5 3.1-5.5l18.5-.1c2.8 0 4.6 3 3.2 5.5L37.9 25a3.57 3.57 0 01-6.2 0z" fill="#ea5146"/><path d="M9.9 5.4L.5 21.1c-1.4 2.4.3 5.5 3.1 5.5l18.5.1c2.8 0 4.6-3 3.2-5.5L16.1 5.5c-1.4-2.4-4.8-2.4-6.2-.1z" fill="#4e56a2"/><path d="M71 22.6h-9.7l-1.8 4.5h-6.6L63 4.1h6.4l10.2 23h-6.8L71 22.6zm-1.9-4.8l-3-7.3-3 7.3h6zM81.4 4.1h6.5v17.8h11V27H81.4V4.1zm35.9 1.1c1.5.7 2.7 1.7 3.5 3 .8 1.3 1.2 2.8 1.2 4.5 0 1.7-.4 3.2-1.2 4.5-.8 1.3-2 2.2-3.5 2.9-1.5.7-3.3 1-5.4 1h-4v6h-6.5v-23h10.5c2.1 0 3.9.4 5.4 1.1zm-2.8 9.9c.7-.6 1-1.4 1-2.5s-.3-1.9-1-2.5c-.7-.6-1.7-.9-3-.9h-3.6V16h3.6c1.3 0 2.3-.3 3-.9zm25.9-8.7h-7.1V3.8h17.2v2.6h-7.1v20.7h-3V6.4zm25.1 16.1c0 1.7 0 3.2.1 4.6h-2.7l-.2-2.7h-.1c-.8 1.3-2.6 3.1-5.5 3.1-2.6 0-5.8-1.4-5.8-7.3v-9.8h3v9.2c0 3.2 1 5.3 3.7 5.3 2 0 3.4-1.4 4-2.8.2-.4.3-1 .3-1.6V10.4h3l.2 12.1zm5-6.9c0-2 0-3.7-.1-5.2h2.7l.1 3.3h.1c.8-2.2 2.6-3.7 4.6-3.7.3 0 .6 0 .9.1V13c-.3-.1-.6-.1-1-.1-2.1 0-3.7 1.6-4.1 3.9-.1.4-.1.9-.1 1.4v8.9h-3l-.1-11.5zm14.4 2.4c.5-.6 1.1-1.3 1.6-1.9l4.9-5.8h3.7l-6.4 6.9L196 27h-3.7l-5.8-8-1.6 1.7V27h-3V2.6h3V18zM155.3 3.3c-1 0-1.9.8-1.9 1.9 0 1 .8 1.9 1.9 1.9s1.9-.8 1.9-1.9c0-1.1-.8-1.9-1.9-1.9zm6.1 0c-1 0-1.9.8-1.9 1.9 0 1 .8 1.9 1.9 1.9 1 0 1.9-.8 1.9-1.9-.1-1.1-.9-1.9-1.9-1.9z" fill="#fff"/><path d="M215.2 6.8l5.8-1.9-3.6 5V3.7l3.6 5-5.8-1.9zm-1 3.4c-1.9 3-5.9 3.9-8.9 2s-3.9-5.9-2-8.9 5.9-3.9 8.9-2c.8.5 1.5 1.2 2 2-1.9-2.1-5.2-2.3-7.3-.4s-2.3 5.2-.4 7.3c1.9 2.1 5.2 2.3 7.3.4.2-.1.3-.2.4-.4z" fill="#e3131b"/><path d="M212 1.5c-2.9-1.7-6.6-.9-8.4 2-1.8 2.9-1 6.7 1.9 8.5 2 1.3 4.6 1.2 6.5.1-2 .6-4.2.1-5.7-1.6-2-2.3-1.8-5.7.4-7.7 1.5-1.4 3.5-1.8 5.3-1.3zm1.6 8.9c.1-.1.3-.2.4-.4l.5.4c-2 3.2-6.2 4.1-9.3 2.1s-4.1-6.2-2.1-9.3c2-3.2 6.2-4.1 9.3-2.1.8.5 1.6 1.3 2.1 2.1l-.5.3c-1.8-2-4.9-2.2-6.9-.4-2 1.8-2.2 4.9-.4 6.9 1.9 2 4.9 2.2 6.9.4zm3.5-7.7l1.8 2.5 2.9-1-1.8 2.5 1.8 2.5-2.9-1-1.8 2.5v-3l-2.9-1 2.9-1v-3zm0 3.8l-.9.3.9.3v-.6zm.7.8v-1l.9-.3.6.8-.6.8-.9-.3zm0 .6v1l.6-.8-.6-.2zm1.5-.1l.9.3-.6-.8-.3.5zm.4-1.6l.6-.8-.9.3.3.5zm-1.4-.8l-.6.2v-1l.6.8z" fill-rule="evenodd" clip-rule="evenodd" fill="#e3131b"/></svg>