<svg width="40" height="40" viewBox="0 0 40 40" fill="none" xmlns="http://www.w3.org/2000/svg">
<path d="M20 35.7891C19.5391 35.6328 5.28127 31.0312 4.18752 9.77344C4.73439 9.8125 13.7422 10.6484 20 4.79687C26.1641 10.5625 35.2657 9.80469 35.8125 9.77344C34.4688 31.6641 20.461 35.6328 20 35.7891ZM37.4766 6.35156C34.1407 6.85937 26.5625 7.21094 21.0625 1.32031C20.4922 0.703125 19.5156 0.703125 18.9453 1.32031C13.4375 7.21094 5.85939 6.85937 2.52345 6.35156C1.63283 6.21094 0.835954 6.91406 0.859391 7.8125C1.63283 35.1953 20 39.1406 20 39.1406C20 39.1406 38.3672 35.2031 39.1407 7.8125C39.1641 6.91406 38.3672 6.21094 37.4766 6.35156Z" fill="#A07E3F"/>
</svg>
