<svg width="62" height="62" viewBox="0 0 62 62" fill="none" xmlns="http://www.w3.org/2000/svg">
<path fill-rule="evenodd" clip-rule="evenodd" d="M11.625 27.125H50.375V55.5417H11.625V27.125ZM14.2083 29.7083V52.9583H47.7917V29.7083H14.2083Z" fill="#A07E3F"/>
<path fill-rule="evenodd" clip-rule="evenodd" d="M30.9998 9.04171C24.5795 9.04171 19.3748 14.2464 19.3748 20.6667V27.125H42.6248V20.6667C42.6248 14.2464 37.4201 9.04171 30.9998 9.04171ZM16.7915 20.6667C16.7915 12.8197 23.1528 6.45837 30.9998 6.45837C38.8469 6.45837 45.2082 12.8197 45.2082 20.6667V29.7084H16.7915V20.6667Z" fill="#A07E3F"/>
<path fill-rule="evenodd" clip-rule="evenodd" d="M31 40.0417C30.2866 40.0417 29.7083 40.62 29.7083 41.3334C29.7083 42.0467 30.2866 42.625 31 42.625C31.7134 42.625 32.2917 42.0467 32.2917 41.3334C32.2917 40.62 31.7134 40.0417 31 40.0417ZM27.125 41.3334C27.125 39.1933 28.8599 37.4584 31 37.4584C33.1401 37.4584 34.875 39.1933 34.875 41.3334C34.875 43.4735 33.1401 45.2084 31 45.2084C28.8599 45.2084 27.125 43.4735 27.125 41.3334Z" fill="#A07E3F"/>
</svg>
