<svg width="12" height="12" viewBox="0 0 12 12" fill="none" xmlns="http://www.w3.org/2000/svg">
<path d="M11.9894 4.63484C11.9641 4.55709 11.8969 4.50038 11.8159 4.48857L7.93022 3.92387L6.19252 0.402937C6.15643 0.329477 6.08168 0.283081 6.00006 0.283081C5.91844 0.283081 5.84347 0.329477 5.8076 0.402937L4.06969 3.92408L0.184033 4.48878C0.103055 4.5006 0.0360388 4.55709 0.0104781 4.63506C-0.0146531 4.7126 0.00618214 4.79809 0.0648214 4.85501L2.87671 7.5958L2.21278 11.466C2.19903 11.5465 2.23211 11.628 2.29805 11.6761C2.36443 11.7246 2.45228 11.7308 2.52423 11.6924L6.00006 9.86534L9.47546 11.6924C9.50682 11.7089 9.5414 11.7171 9.57555 11.7171C9.62002 11.7171 9.66426 11.7033 9.70185 11.6761C9.76801 11.628 9.80109 11.5465 9.78713 11.466L9.12341 7.59602L11.9353 4.85501C11.9937 4.79766 12.0148 4.71239 11.9894 4.63484Z" fill="#A07E3F"/>
</svg>
