<svg width="14" height="16" viewBox="0 0 14 16" fill="none" xmlns="http://www.w3.org/2000/svg">
<path d="M11.2527 3.83647L11.7354 3.07797C11.9497 2.74116 11.8504 2.29434 11.5136 2.08C11.1768 1.86562 10.73 1.96497 10.5156 2.30184L10.0341 3.05856C9.32448 2.70494 8.54529 2.47112 7.72279 2.38419V1.44578H7.76804C8.16726 1.44578 8.49095 1.12213 8.49095 0.722875C8.49095 0.323625 8.16726 0 7.76804 0H6.2317C5.83248 0 5.50879 0.323656 5.50879 0.722906C5.50879 1.12216 5.83245 1.44581 6.2317 1.44581H6.27701V2.38422C2.8511 2.74641 0.172852 5.65269 0.172852 9.17297C0.172852 12.9374 3.23545 16 6.99988 16C10.7643 16 13.8269 12.9374 13.8269 9.17297C13.8269 7.01522 12.8205 5.08844 11.2527 3.83647ZM9.48095 7.42881L7.54457 9.64819C7.2821 9.949 6.82545 9.98012 6.52463 9.71762C6.22382 9.45516 6.1927 8.9985 6.4552 8.69769L8.39157 6.47831C8.65407 6.17741 9.11079 6.14641 9.41151 6.40887C9.71232 6.67137 9.74345 7.128 9.48095 7.42881Z" fill="#A07E3F"/>
</svg>
