<svg width="859" height="721" viewBox="0 0 859 721" fill="none" xmlns="http://www.w3.org/2000/svg">
<path d="M291.484 8.875C293.516 8.875 295.344 9.35938 296.969 10.3281C298.594 11.2865 299.849 12.5885 300.734 14.2344C301.63 15.8698 302.078 17.6771 302.078 19.6562C302.078 21.6979 301.651 23.526 300.797 25.1406C299.953 26.7552 298.719 28.0365 297.094 28.9844C295.479 29.9219 293.609 30.3906 291.484 30.3906C289.609 30.3906 287.943 29.9844 286.484 29.1719C285.026 28.349 283.844 27.1719 282.938 25.6406L285.922 23.7656C287.214 25.8281 289.057 26.8594 291.453 26.8594C293.161 26.8594 294.604 26.349 295.781 25.3281C296.958 24.2969 297.703 22.9531 298.016 21.2969H290.812V17.875H297.984C297.661 16.25 296.911 14.9323 295.734 13.9219C294.568 12.9115 293.141 12.4062 291.453 12.4062C289.109 12.4062 287.286 13.3958 285.984 15.375L282.969 13.3906C283.927 11.8906 285.13 10.7656 286.578 10.0156C288.036 9.25521 289.672 8.875 291.484 8.875ZM318.625 30H314.047L309.188 23.5625V30H305.312V16.0469H309.188V22.125L313.859 16.0469H318.203L313.062 22.6406L318.625 30ZM327.125 30.3906C324.802 30.3906 322.964 29.6927 321.609 28.2969C320.266 26.901 319.594 25.1198 319.594 22.9531C319.594 20.8802 320.297 19.125 321.703 17.6875C323.12 16.25 324.927 15.5312 327.125 15.5312C329.427 15.5312 331.255 16.2292 332.609 17.625C333.964 19.0208 334.641 20.7969 334.641 22.9531C334.641 24.3073 334.328 25.5521 333.703 26.6875C333.078 27.8125 332.188 28.7135 331.031 29.3906C329.875 30.0573 328.573 30.3906 327.125 30.3906ZM327.125 27.0938C328.24 27.0938 329.151 26.6927 329.859 25.8906C330.568 25.0885 330.922 24.1094 330.922 22.9531C330.922 21.7552 330.568 20.7656 329.859 19.9844C329.161 19.1927 328.25 18.7969 327.125 18.7969C325.99 18.7969 325.068 19.1927 324.359 19.9844C323.661 20.776 323.312 21.776 323.312 22.9844C323.312 24.151 323.667 25.1302 324.375 25.9219C325.083 26.7031 326 27.0938 327.125 27.0938ZM343.828 30.3594C342.464 30.3594 341.25 30.0885 340.188 29.5469C339.125 28.9948 338.271 28.151 337.625 27.0156C336.99 25.8698 336.672 24.5052 336.672 22.9219C336.672 21.7969 336.87 20.7656 337.266 19.8281C337.661 18.8906 338.193 18.1146 338.859 17.5C339.536 16.875 340.323 16.3906 341.219 16.0469C342.115 15.7031 343.062 15.5312 344.062 15.5312C346.865 15.5312 348.859 16.6615 350.047 18.9219L347.25 20.7812C346.552 19.5 345.49 18.8594 344.062 18.8594C343 18.8594 342.12 19.224 341.422 19.9531C340.724 20.6823 340.375 21.6719 340.375 22.9219C340.375 24.2135 340.724 25.2292 341.422 25.9688C342.12 26.6979 343 27.0625 344.062 27.0625C344.896 27.0625 345.568 26.9062 346.078 26.5938C346.589 26.2812 347.016 25.7865 347.359 25.1094L350.109 26.8906C348.943 29.2031 346.849 30.3594 343.828 30.3594ZM363.984 15.9844H365.906V30H362.125V22.5781L354.516 30.0625H352.625V16.0469H356.406V23.3438L363.984 15.9844ZM376.047 30.3594C374.682 30.3594 373.469 30.0885 372.406 29.5469C371.344 28.9948 370.49 28.151 369.844 27.0156C369.208 25.8698 368.891 24.5052 368.891 22.9219C368.891 21.7969 369.089 20.7656 369.484 19.8281C369.88 18.8906 370.411 18.1146 371.078 17.5C371.755 16.875 372.542 16.3906 373.438 16.0469C374.333 15.7031 375.281 15.5312 376.281 15.5312C379.083 15.5312 381.078 16.6615 382.266 18.9219L379.469 20.7812C378.771 19.5 377.708 18.8594 376.281 18.8594C375.219 18.8594 374.339 19.224 373.641 19.9531C372.943 20.6823 372.594 21.6719 372.594 22.9219C372.594 24.2135 372.943 25.2292 373.641 25.9688C374.339 26.6979 375.219 27.0625 376.281 27.0625C377.115 27.0625 377.786 26.9062 378.297 26.5938C378.807 26.2812 379.234 25.7865 379.578 25.1094L382.328 26.8906C381.161 29.2031 379.068 30.3594 376.047 30.3594ZM395.75 16.0469V19.3125H391.469V30H387.625V19.3125H383.344V16.0469H395.75ZM411.109 22.7031C411.109 23.276 411.078 23.6927 411.016 23.9531H401C401.146 24.9948 401.516 25.8073 402.109 26.3906C402.714 26.9635 403.505 27.25 404.484 27.25C405.266 27.25 405.906 27.099 406.406 26.7969C406.917 26.4948 407.333 26.026 407.656 25.3906L410.703 26.7031C410.161 27.901 409.344 28.8177 408.25 29.4531C407.156 30.0781 405.87 30.3906 404.391 30.3906C403.38 30.3906 402.443 30.2396 401.578 29.9375C400.724 29.625 399.969 29.1719 399.312 28.5781C398.667 27.974 398.156 27.1979 397.781 26.25C397.417 25.2917 397.234 24.2031 397.234 22.9844C397.234 21.6094 397.526 20.3594 398.109 19.2344C398.693 18.1094 399.536 17.2135 400.641 16.5469C401.745 15.8698 403.005 15.5312 404.422 15.5312C406.484 15.5312 408.115 16.1875 409.312 17.5C410.51 18.8125 411.109 20.5469 411.109 22.7031ZM404.359 18.5469C403.547 18.5469 402.854 18.7812 402.281 19.25C401.708 19.7188 401.312 20.4115 401.094 21.3281H407.344C407.198 20.4323 406.875 19.7448 406.375 19.2656C405.875 18.7865 405.203 18.5469 404.359 18.5469ZM431.688 30H427.922L427.219 22.7031L422.516 29.0156H422.484L417.641 22.7656L417.141 30H413.391L414.672 15.8594H416.875L422.609 23.6562L428.047 15.8594H430.25L431.688 30ZM446.812 26.8906L447.828 29.3594C447.161 29.9531 446.245 30.25 445.078 30.25C443.641 30.25 442.755 29.7083 442.422 28.625C441.536 29.7812 440.151 30.3594 438.266 30.3594C436.88 30.3594 435.797 30 435.016 29.2812C434.234 28.5625 433.844 27.5885 433.844 26.3594C433.844 25.0885 434.318 24.0573 435.266 23.2656C436.214 22.4635 437.589 22.0625 439.391 22.0625H442.016V21.2344C442.016 19.5885 441.286 18.7656 439.828 18.7656C438.609 18.7656 437.854 19.3333 437.562 20.4688L434.297 19.5C434.63 18.2708 435.281 17.3021 436.25 16.5938C437.219 15.8854 438.51 15.5312 440.125 15.5312C441.865 15.5312 443.229 16 444.219 16.9375C445.219 17.875 445.719 19.3385 445.719 21.3281V26.5156C445.719 26.9219 445.911 27.125 446.297 27.125C446.484 27.125 446.656 27.0469 446.812 26.8906ZM439.328 27.5312C440.13 27.5312 440.781 27.2656 441.281 26.7344C441.792 26.1927 442.047 25.4479 442.047 24.5H439.484C438.901 24.5 438.438 24.6406 438.094 24.9219C437.76 25.1927 437.594 25.5729 437.594 26.0625C437.594 26.5312 437.745 26.8958 438.047 27.1562C438.359 27.4062 438.786 27.5312 439.328 27.5312ZM470.547 30L468.75 25.5156H460.344L458.547 30H454.578L463.672 8.96875H465.391L474.578 30H470.547ZM461.656 22.25H467.438L464.562 14.9531L461.656 22.25ZM481.109 26.3906H489.688V30H477.172V9.32812H481.109V26.3906ZM506.625 15.9844C506.646 18.1094 505.979 19.7969 504.625 21.0469C503.281 22.2865 501.406 22.9115 499 22.9219H496.609V30H492.672V9.32812H499.031C501.479 9.32812 503.354 9.91146 504.656 11.0781C505.969 12.2344 506.625 13.8698 506.625 15.9844ZM498.938 19.5C500.188 19.5 501.146 19.2083 501.812 18.625C502.479 18.0312 502.812 17.1927 502.812 16.1094C502.812 15.0365 502.484 14.2135 501.828 13.6406C501.172 13.0677 500.208 12.7812 498.938 12.7812H496.609V19.5H498.938ZM523.641 9.32812C525.391 9.32812 526.969 9.58333 528.375 10.0938C529.781 10.6042 530.948 11.3177 531.875 12.2344C532.802 13.1406 533.51 14.224 534 15.4844C534.5 16.7344 534.75 18.1146 534.75 19.625C534.75 21.1146 534.49 22.4948 533.969 23.7656C533.458 25.0365 532.729 26.1354 531.781 27.0625C530.844 27.9792 529.677 28.6979 528.281 29.2188C526.885 29.7396 525.339 30 523.641 30H516.703V9.32812H523.641ZM523.672 26.5781C525.943 26.5781 527.703 25.9323 528.953 24.6406C530.214 23.349 530.844 21.6771 530.844 19.625C530.844 17.5938 530.214 15.9427 528.953 14.6719C527.703 13.3906 525.943 12.75 523.672 12.75H520.641V26.5781H523.672ZM552.016 30L550.219 25.5156H541.812L540.016 30H536.047L545.141 8.96875H546.859L556.047 30H552.016ZM543.125 22.25H548.906L546.031 14.9531L543.125 22.25ZM567.891 30.3906C566.307 30.3906 564.849 30.1146 563.516 29.5625C562.193 29 561.078 28.2396 560.172 27.2812C559.276 26.3125 558.578 25.1719 558.078 23.8594C557.578 22.5469 557.328 21.1354 557.328 19.625C557.328 18.1354 557.594 16.7292 558.125 15.4062C558.656 14.0833 559.38 12.9427 560.297 11.9844C561.224 11.026 562.344 10.2708 563.656 9.71875C564.969 9.15625 566.38 8.875 567.891 8.875C569.484 8.875 570.948 9.15625 572.281 9.71875C573.625 10.2708 574.745 11.0312 575.641 12C576.547 12.9583 577.245 14.0938 577.734 15.4062C578.234 16.7188 578.484 18.125 578.484 19.625C578.484 21.625 578.031 23.4479 577.125 25.0938C576.229 26.7292 574.969 28.0208 573.344 28.9688C571.729 29.9167 569.911 30.3906 567.891 30.3906ZM567.891 26.8281C569.859 26.8281 571.458 26.1458 572.688 24.7812C573.927 23.4062 574.547 21.6875 574.547 19.625C574.547 17.5625 573.927 15.849 572.688 14.4844C571.458 13.1198 569.859 12.4375 567.891 12.4375C565.932 12.4375 564.339 13.1198 563.109 14.4844C561.88 15.849 561.266 17.5625 561.266 19.625C561.266 21.6875 561.88 23.4062 563.109 24.7812C564.339 26.1458 565.932 26.8281 567.891 26.8281Z" fill="#131313"/>
<g filter="url(#filter0_d_210_9)">
<circle cx="431" cy="388" r="282" fill="white"/>
<circle cx="431" cy="388" r="283.5" stroke="#D7B185" stroke-width="3" stroke-dasharray="3 3"/>
</g>
<circle cx="431" cy="388" r="127" fill="white" stroke="#D7B185" stroke-width="2" stroke-dasharray="3 3"/>
<path fill-rule="evenodd" clip-rule="evenodd" d="M225 542H226.798V541H225V542ZM225 244H226.798V243H225V244ZM411.01 243V244L412.914 244.059L413.044 243.068C412.702 243.023 412.353 243 412 243H411.01ZM409.029 243V244H407.048V243H409.029ZM405.067 243V244H403.087V243H405.067ZM401.106 243V244H399.125V243H401.106ZM397.144 243V244H395.164V243H397.144ZM393.183 243V244H391.202V243H393.183ZM389.221 243V244H387.24V243H389.221ZM385.26 243V244H383.279V243H385.26ZM381.298 243V244H379.317V243H381.298ZM377.337 243V244H375.356V243H377.337ZM373.375 243V244H371.394V243H373.375ZM369.413 243V244H367.433V243H369.413ZM365.452 243V244H363.471V243H365.452ZM361.49 243V244H359.51V243H361.49ZM357.529 243V244H355.548V243H357.529ZM353.567 243V244H351.587V243H353.567ZM349.606 243V244H347.625V243H349.606ZM345.644 243V244H343.663V243H345.644ZM341.683 243V244H339.702V243H341.683ZM337.721 243V244H335.74V243H337.721ZM333.76 243V244H331.779V243H333.76ZM329.798 243V244H327.817V243H329.798ZM325.836 243V244H323.856V243H325.836ZM321.875 243V244H319.894V243H321.875ZM317.913 243V244H315.933V243H317.913ZM313.952 243V244H311.971V243H313.952ZM309.99 243V244H308.01V243H309.99ZM306.029 243V244H304.048V243H306.029ZM302.067 243V244H300.087V243H302.067ZM298.106 243V244H296.125V243H298.106ZM294.144 243V244H292.163V243H294.144ZM290.183 243V244H288.202V243H290.183ZM286.221 243V244H284.24V243H286.221ZM282.26 243V244H280.279V243H282.26ZM278.298 243V244H276.317V243H278.298ZM274.337 243V244H272.356V243H274.337ZM270.375 243V244H268.394V243H270.375ZM266.413 243V244H264.433V243H266.413ZM262.452 243V244H260.471V243H262.452ZM258.49 243V244H256.51V243H258.49ZM254.529 243V244H252.548V243H254.529ZM250.567 243V244H248.587V243H250.567ZM246.606 243V244H244.625V243H246.606ZM242.644 243V244H240.663V243H242.644ZM238.683 243V244H236.702V243H238.683ZM234.721 243V244H232.74V243H234.721ZM230.76 243V244H228.779V243H230.76ZM228.779 542V541H230.76V542H228.779ZM232.74 542V541H234.721V542H232.74ZM236.702 542V541H238.683V542H236.702ZM240.663 542V541H242.644V542H240.663ZM244.625 542V541H246.606V542H244.625ZM248.587 542V541H250.567V542H248.587ZM252.548 542V541H254.529V542H252.548ZM256.51 542V541H258.49V542H256.51ZM260.471 542V541H262.452V542H260.471ZM264.433 542V541H266.413V542H264.433ZM268.394 542V541H270.375V542H268.394ZM272.356 542V541H274.337V542H272.356ZM276.317 542V541H278.298V542H276.317ZM280.279 542V541H282.26V542H280.279ZM284.24 542V541H286.221V542H284.24ZM288.202 542V541H290.183V542H288.202ZM292.164 542V541H294.144V542H292.164ZM296.125 542V541H298.106V542H296.125ZM300.087 542V541H302.067V542H300.087ZM304.048 542V541H306.029V542H304.048ZM308.01 542V541H309.99V542H308.01ZM311.971 542V541H313.952V542H311.971ZM315.933 542V541H317.913V542H315.933ZM319.894 542V541H321.875V542H319.894ZM323.856 542V541H325.837V542H323.856ZM327.817 542V541H329.798V542H327.817ZM331.779 542V541H333.76V542H331.779ZM335.74 542V541H337.721V542H335.74ZM339.702 542V541H341.683V542H339.702ZM343.663 542V541H345.644V542H343.663ZM347.625 542V541H349.606V542H347.625ZM351.587 542V541H353.567V542H351.587ZM355.548 542V541H357.529V542H355.548ZM359.51 542V541H361.49V542H359.51ZM363.471 542V541H365.452V542H363.471ZM367.433 542V541H369.413V542H367.433ZM371.394 542V541H373.375V542H371.394ZM375.356 542V541H377.337V542H375.356ZM379.317 542V541H381.298V542H379.317ZM383.279 542V541H385.26V542H383.279ZM387.24 542V541H389.221V542H387.24ZM391.202 542V541H393.183V542H391.202ZM395.163 542V541H397.144V542H395.163ZM399.125 542V541H401.106V542H399.125ZM403.087 542V541H405.067V542H403.087ZM407.048 542V541H409.029V542H407.048ZM411.01 542V541H412C412.31 541 412.615 540.98 412.914 540.941L413.044 541.932C412.702 541.977 412.353 542 412 542H411.01ZM415.063 541.393L414.68 540.469C415.249 540.233 415.78 539.924 416.261 539.554L416.871 540.347C416.321 540.77 415.714 541.123 415.063 541.393ZM418.347 538.871L417.554 538.262C417.924 537.78 418.233 537.249 418.469 536.68L419.393 537.063C419.123 537.714 418.77 538.321 418.347 538.871ZM419.932 535.044L418.941 534.914C418.98 534.615 419 534.31 419 534V533.003H420V534C420 534.353 419.977 534.702 419.932 535.044ZM420 531.01H419V529.017H420V531.01ZM420 527.024H419V525.031H420V527.024ZM420 523.038H419V521.045H420V523.038ZM420 519.052H419V517.059H420V519.052ZM420 515.066H419V513.073H420V515.066ZM420 511.081H419V509.088H420V511.081ZM420 507.095H419V505.102H420V507.095ZM420 503.109H419V501.116H420V503.109ZM420 499.123H419V497.13H420V499.123ZM420 495.137H419V493.144H420V495.137ZM420 491.151H419V489.158H420V491.151ZM420 487.165H419V485.172H420V487.165ZM420 483.179H419V481.186H420V483.179ZM420 479.193H419V477.2H420V479.193ZM420 475.207H419V473.214H420V475.207ZM420 471.222H419V469.229H420V471.222ZM420 467.236H419V465.243H420V467.236ZM420 463.25H419V461.257H420V463.25ZM420 459.264H419V457.271H420V459.264ZM420 455.278H419V453.285H420V455.278ZM420 451.292H419V449.299H420V451.292ZM420 447.306H419V445.313H420V447.306ZM420 443.32H419V441.327H420V443.32ZM420 439.334H419V437.341H420V439.334ZM420 435.348H419V433.355H420V435.348ZM420 431.363H419V429.37H420V431.363ZM420 427.377H419V425.384H420V427.377ZM420 423.391H419V421.398H420V423.391ZM420 419.405H419V417.412H420V419.405ZM420 415.419H419V413.426H420V415.419ZM420 411.433H419V409.44H420V411.433ZM420 407.447H419V405.454H420V407.447ZM420 403.461H419V401.468H420V403.461ZM420 399.475H419V397.482H420V399.475ZM420 395.489H419V393.496H420V395.489ZM420 391.503H419V389.511H420V391.503ZM420 387.518H419V385.525H420V387.518ZM420 383.532H419V381.539H420V383.532ZM420 379.546H419V377.553H420V379.546ZM420 375.56H419V373.567H420V375.56ZM420 371.574H419V369.581H420V371.574ZM420 367.588H419V365.595H420V367.588ZM420 363.602H419V361.609H420V363.602ZM420 359.616H419V357.623H420V359.616ZM420 355.63H419V353.637H420V355.63ZM420 351.644H419V349.651H420V351.644ZM420 347.658H419V345.666H420V347.658ZM420 343.673H419V341.68H420V343.673ZM420 339.687H419V337.694H420V339.687ZM420 335.701H419V333.708H420V335.701ZM420 331.715H419V329.722H420V331.715ZM420 327.729H419V325.736H420V327.729ZM420 323.743H419V321.75H420V323.743ZM420 319.757H419V317.764H420V319.757ZM420 315.771H419V313.778H420V315.771ZM420 311.785H419V309.792H420V311.785ZM420 307.799H419V305.806H420V307.799ZM420 303.813H419V301.82H420V303.813ZM420 299.827H419V297.835H420V299.827ZM420 295.842H419V293.849H420V295.842ZM420 291.856H419V289.863H420V291.856ZM420 287.87H419V285.877H420V287.87ZM420 283.884H419V281.891H420V283.884ZM420 279.898H419V277.905H420V279.898ZM420 275.912H419V273.919H420V275.912ZM420 271.926H419V269.933H420V271.926ZM420 267.94H419V265.947H420V267.94ZM420 263.954H419V261.961H420V263.954ZM420 259.968H419V257.975H420V259.968ZM420 255.982H419V253.989H420V255.982ZM420 251.996H419V251C419 250.69 418.98 250.385 418.941 250.086L419.932 249.956C419.977 250.298 420 250.647 420 251V251.996ZM419.393 247.937L418.469 248.32C418.233 247.751 417.924 247.22 417.554 246.739L418.347 246.129C418.77 246.679 419.123 247.287 419.393 247.937ZM416.871 244.653L416.261 245.446C415.78 245.076 415.249 244.767 414.68 244.531L415.063 243.607C415.713 243.877 416.321 244.23 416.871 244.653Z" fill="#D7B185"/>
<path fill-rule="evenodd" clip-rule="evenodd" d="M636 542H634.202V541H636V542ZM636 244H634.202V243H636V244ZM449.99 243V244L448.086 244.059L447.956 243.068C448.298 243.023 448.647 243 449 243H449.99ZM451.971 243V244H453.952V243H451.971ZM455.933 243V244H457.913V243H455.933ZM459.894 243V244H461.875V243H459.894ZM463.856 243V244H465.836V243H463.856ZM467.817 243V244H469.798V243H467.817ZM471.779 243V244H473.76V243H471.779ZM475.74 243V244H477.721V243H475.74ZM479.702 243V244H481.683V243H479.702ZM483.663 243V244H485.644V243H483.663ZM487.625 243V244H489.606V243H487.625ZM491.587 243V244H493.567V243H491.587ZM495.548 243V244H497.529V243H495.548ZM499.51 243V244H501.49V243H499.51ZM503.471 243V244H505.452V243H503.471ZM507.433 243V244H509.413V243H507.433ZM511.394 243V244H513.375V243H511.394ZM515.356 243V244H517.337V243H515.356ZM519.317 243V244H521.298V243H519.317ZM523.279 243V244H525.26V243H523.279ZM527.24 243V244H529.221V243H527.24ZM531.202 243V244H533.183V243H531.202ZM535.164 243V244H537.144V243H535.164ZM539.125 243V244H541.106V243H539.125ZM543.087 243V244H545.067V243H543.087ZM547.048 243V244H549.029V243H547.048ZM551.01 243V244H552.99V243H551.01ZM554.971 243V244H556.952V243H554.971ZM558.933 243V244H560.913V243H558.933ZM562.894 243V244H564.875V243H562.894ZM566.856 243V244H568.837V243H566.856ZM570.817 243V244H572.798V243H570.817ZM574.779 243V244H576.76V243H574.779ZM578.74 243V244H580.721V243H578.74ZM582.702 243V244H584.683V243H582.702ZM586.663 243V244H588.644V243H586.663ZM590.625 243V244H592.606V243H590.625ZM594.587 243V244H596.567V243H594.587ZM598.548 243V244H600.529V243H598.548ZM602.51 243V244H604.49V243H602.51ZM606.471 243V244H608.452V243H606.471ZM610.433 243V244H612.413V243H610.433ZM614.394 243V244H616.375V243H614.394ZM618.356 243V244H620.337V243H618.356ZM622.317 243V244H624.298V243H622.317ZM626.279 243V244H628.26V243H626.279ZM630.24 243V244H632.221V243H630.24ZM632.221 542V541H630.24V542H632.221ZM628.26 542V541H626.279V542H628.26ZM624.298 542V541H622.317V542H624.298ZM620.337 542V541H618.356V542H620.337ZM616.375 542V541H614.394V542H616.375ZM612.413 542V541H610.433V542H612.413ZM608.452 542V541H606.471V542H608.452ZM604.49 542V541H602.51V542H604.49ZM600.529 542V541H598.548V542H600.529ZM596.567 542V541H594.587V542H596.567ZM592.606 542V541H590.625V542H592.606ZM588.644 542V541H586.663V542H588.644ZM584.683 542V541H582.702V542H584.683ZM580.721 542V541H578.74V542H580.721ZM576.76 542V541H574.779V542H576.76ZM572.798 542V541H570.817V542H572.798ZM568.836 542V541H566.856V542H568.836ZM564.875 542V541H562.894V542H564.875ZM560.913 542V541H558.933V542H560.913ZM556.952 542V541H554.971V542H556.952ZM552.99 542V541H551.01V542H552.99ZM549.029 542V541H547.048V542H549.029ZM545.067 542V541H543.087V542H545.067ZM541.106 542V541H539.125V542H541.106ZM537.144 542V541H535.163V542H537.144ZM533.183 542V541H531.202V542H533.183ZM529.221 542V541H527.24V542H529.221ZM525.26 542V541H523.279V542H525.26ZM521.298 542V541H519.317V542H521.298ZM517.337 542V541H515.356V542H517.337ZM513.375 542V541H511.394V542H513.375ZM509.413 542V541H507.433V542H509.413ZM505.452 542V541H503.471V542H505.452ZM501.49 542V541H499.51V542H501.49ZM497.529 542V541H495.548V542H497.529ZM493.567 542V541H491.587V542H493.567ZM489.606 542V541H487.625V542H489.606ZM485.644 542V541H483.663V542H485.644ZM481.683 542V541H479.702V542H481.683ZM477.721 542V541H475.74V542H477.721ZM473.76 542V541H471.779V542H473.76ZM469.798 542V541H467.817V542H469.798ZM465.837 542V541H463.856V542H465.837ZM461.875 542V541H459.894V542H461.875ZM457.913 542V541H455.933V542H457.913ZM453.952 542V541H451.971V542H453.952ZM449.99 542V541H449C448.69 541 448.385 540.98 448.086 540.941L447.956 541.932C448.298 541.977 448.647 542 449 542H449.99ZM445.937 541.393L446.32 540.469C445.751 540.233 445.22 539.924 444.739 539.554L444.129 540.347C444.679 540.77 445.286 541.123 445.937 541.393ZM442.653 538.871L443.446 538.262C443.076 537.78 442.767 537.249 442.531 536.68L441.607 537.063C441.877 537.714 442.23 538.321 442.653 538.871ZM441.068 535.044L442.059 534.914C442.02 534.615 442 534.31 442 534V533.003H441V534C441 534.353 441.023 534.702 441.068 535.044ZM441 531.01H442V529.017H441V531.01ZM441 527.024H442V525.031H441V527.024ZM441 523.038H442V521.045H441V523.038ZM441 519.052H442V517.059H441V519.052ZM441 515.066H442V513.073H441V515.066ZM441 511.081H442V509.088H441V511.081ZM441 507.095H442V505.102H441V507.095ZM441 503.109H442V501.116H441V503.109ZM441 499.123H442V497.13H441V499.123ZM441 495.137H442V493.144H441V495.137ZM441 491.151H442V489.158H441V491.151ZM441 487.165H442V485.172H441V487.165ZM441 483.179H442V481.186H441V483.179ZM441 479.193H442V477.2H441V479.193ZM441 475.207H442V473.214H441V475.207ZM441 471.222H442V469.229H441V471.222ZM441 467.236H442V465.243H441V467.236ZM441 463.25H442V461.257H441V463.25ZM441 459.264H442V457.271H441V459.264ZM441 455.278H442V453.285H441V455.278ZM441 451.292H442V449.299H441V451.292ZM441 447.306H442V445.313H441V447.306ZM441 443.32H442V441.327H441V443.32ZM441 439.334H442V437.341H441V439.334ZM441 435.348H442V433.355H441V435.348ZM441 431.363H442V429.37H441V431.363ZM441 427.377H442V425.384H441V427.377ZM441 423.391H442V421.398H441V423.391ZM441 419.405H442V417.412H441V419.405ZM441 415.419H442V413.426H441V415.419ZM441 411.433H442V409.44H441V411.433ZM441 407.447H442V405.454H441V407.447ZM441 403.461H442V401.468H441V403.461ZM441 399.475H442V397.482H441V399.475ZM441 395.489H442V393.496H441V395.489ZM441 391.503H442V389.511H441V391.503ZM441 387.518H442V385.525H441V387.518ZM441 383.532H442V381.539H441V383.532ZM441 379.546H442V377.553H441V379.546ZM441 375.56H442V373.567H441V375.56ZM441 371.574H442V369.581H441V371.574ZM441 367.588H442V365.595H441V367.588ZM441 363.602H442V361.609H441V363.602ZM441 359.616H442V357.623H441V359.616ZM441 355.63H442V353.637H441V355.63ZM441 351.644H442V349.651H441V351.644ZM441 347.658H442V345.666H441V347.658ZM441 343.673H442V341.68H441V343.673ZM441 339.687H442V337.694H441V339.687ZM441 335.701H442V333.708H441V335.701ZM441 331.715H442V329.722H441V331.715ZM441 327.729H442V325.736H441V327.729ZM441 323.743H442V321.75H441V323.743ZM441 319.757H442V317.764H441V319.757ZM441 315.771H442V313.778H441V315.771ZM441 311.785H442V309.792H441V311.785ZM441 307.799H442V305.806H441V307.799ZM441 303.813H442V301.82H441V303.813ZM441 299.827H442V297.835H441V299.827ZM441 295.842H442V293.849H441V295.842ZM441 291.856H442V289.863H441V291.856ZM441 287.87H442V285.877H441V287.87ZM441 283.884H442V281.891H441V283.884ZM441 279.898H442V277.905H441V279.898ZM441 275.912H442V273.919H441V275.912ZM441 271.926H442V269.933H441V271.926ZM441 267.94H442V265.947H441V267.94ZM441 263.954H442V261.961H441V263.954ZM441 259.968H442V257.975H441V259.968ZM441 255.982H442V253.989H441V255.982ZM441 251.996H442V251C442 250.69 442.02 250.385 442.059 250.086L441.068 249.956C441.023 250.298 441 250.647 441 251V251.996ZM441.607 247.937L442.531 248.32C442.767 247.751 443.076 247.22 443.446 246.739L442.653 246.129C442.23 246.679 441.877 247.287 441.607 247.937ZM444.129 244.653L444.739 245.446C445.22 245.076 445.751 244.767 446.32 244.531L445.937 243.607C445.287 243.877 444.679 244.23 444.129 244.653Z" fill="#D7B185"/>
<g filter="url(#filter1_d_210_9)">
<rect x="95" y="225" width="160" height="40" rx="7" fill="#EEE6D9"/>
<rect x="94.5" y="224.5" width="161" height="41" rx="7.5" stroke="#D7B185"/>
</g>
<path d="M148.062 253L146.715 249.637H140.41L139.062 253H136.086L142.906 237.227H144.195L151.086 253H148.062ZM141.395 247.188H145.73L143.574 241.715L141.395 247.188ZM152.551 253V236.699H155.457V253H152.551ZM164.68 242.148C166.148 242.148 167.344 242.66 168.266 243.684C169.188 244.707 169.645 246.051 169.637 247.715C169.637 249.348 169.16 250.688 168.207 251.734C167.262 252.773 166.074 253.293 164.645 253.293C163.168 253.293 162.051 252.82 161.293 251.875V257.605H158.387V242.535H161.117V243.883C161.922 242.727 163.109 242.148 164.68 242.148ZM161.949 249.941C162.473 250.512 163.156 250.797 164 250.797C164.844 250.797 165.527 250.508 166.051 249.93C166.574 249.352 166.844 248.613 166.859 247.715C166.859 246.801 166.598 246.062 166.074 245.5C165.551 244.93 164.859 244.645 164 244.645C163.156 244.645 162.473 244.93 161.949 245.5C161.426 246.07 161.164 246.816 161.164 247.738C161.164 248.629 161.426 249.363 161.949 249.941ZM177.312 237.496C178.625 237.496 179.809 237.688 180.863 238.07C181.918 238.453 182.793 238.988 183.488 239.676C184.184 240.355 184.715 241.168 185.082 242.113C185.457 243.051 185.645 244.086 185.645 245.219C185.645 246.336 185.449 247.371 185.059 248.324C184.676 249.277 184.129 250.102 183.418 250.797C182.715 251.484 181.84 252.023 180.793 252.414C179.746 252.805 178.586 253 177.312 253H172.109V237.496H177.312ZM177.336 250.434C179.039 250.434 180.359 249.949 181.297 248.98C182.242 248.012 182.715 246.758 182.715 245.219C182.715 243.695 182.242 242.457 181.297 241.504C180.359 240.543 179.039 240.062 177.336 240.062H175.062V250.434H177.336ZM191.469 250.434H197.609V253H188.516V237.496H197.375V240.062H191.469V243.766H196.789V246.355H191.469V250.434ZM212.867 253H209.492L205.742 247.117L202.051 253H198.734L203.949 245.008L199.027 237.496H202.414L205.836 242.898L209.293 237.496H212.586L207.641 245.008L212.867 253Z" fill="#131313"/>
<g filter="url(#filter2_d_210_9)">
<rect x="286" y="282" width="112" height="40" rx="7" fill="white"/>
<rect x="285.5" y="281.5" width="113" height="41" rx="7.5" stroke="#D7B185"/>
</g>
<path d="M334.594 300.719C334.599 301.531 334.396 302.255 333.984 302.891C333.573 303.526 332.99 304.023 332.234 304.383C331.484 304.742 330.622 304.93 329.648 304.945H329.617V306.414H327.648V304.945H327.602C326.128 304.919 324.932 304.516 324.016 303.734C323.104 302.953 322.651 301.948 322.656 300.719C322.656 299.5 323.112 298.516 324.023 297.766C324.935 297.016 326.143 296.641 327.648 296.641V295.25H329.617V296.641C331.122 296.646 332.328 297.023 333.234 297.773C334.141 298.523 334.594 299.505 334.594 300.719ZM327.617 303.234H327.648V298.367H327.617C326.633 298.367 325.88 298.581 325.359 299.008C324.839 299.43 324.578 300.026 324.578 300.797C324.578 301.562 324.841 302.161 325.367 302.594C325.898 303.021 326.648 303.234 327.617 303.234ZM329.633 303.234C330.602 303.234 331.352 303.021 331.883 302.594C332.419 302.161 332.688 301.562 332.688 300.797C332.688 300.026 332.424 299.43 331.898 299.008C331.372 298.581 330.617 298.367 329.633 298.367H329.617V303.234H329.633ZM339.281 306.195C338.12 306.195 337.201 305.846 336.523 305.148C335.852 304.451 335.516 303.56 335.516 302.477C335.516 301.44 335.867 300.562 336.57 299.844C337.279 299.125 338.182 298.766 339.281 298.766C340.432 298.766 341.346 299.115 342.023 299.812C342.701 300.51 343.039 301.398 343.039 302.477C343.039 303.154 342.883 303.776 342.57 304.344C342.258 304.906 341.812 305.357 341.234 305.695C340.656 306.029 340.005 306.195 339.281 306.195ZM339.281 304.547C339.839 304.547 340.294 304.346 340.648 303.945C341.003 303.544 341.18 303.055 341.18 302.477C341.18 301.878 341.003 301.383 340.648 300.992C340.299 300.596 339.844 300.398 339.281 300.398C338.714 300.398 338.253 300.596 337.898 300.992C337.549 301.388 337.375 301.888 337.375 302.492C337.375 303.076 337.552 303.565 337.906 303.961C338.26 304.352 338.719 304.547 339.281 304.547ZM349.219 299.023H351.156V306H349.219V303.266H346.453V306H344.516V299.023H346.453V301.633H349.219V299.023ZM359.43 304.461H360.578V307.68H358.852V306H354.055V307.68H352.328V304.461H353.461C353.81 303.398 354.008 301.997 354.055 300.258L354.086 299.023H359.43V304.461ZM355.812 300.562C355.75 302.115 355.547 303.414 355.203 304.461H357.602V300.562H355.812Z" fill="#131313"/>
<g filter="url(#filter3_d_210_9)">
<rect x="286" y="464" width="112" height="40" rx="7" fill="white"/>
<rect x="285.5" y="463.5" width="113" height="41" rx="7.5" stroke="#D7B185"/>
</g>
<path d="M323.984 481.773C325.172 481.773 326.094 482.049 326.75 482.602C327.406 483.154 327.734 483.914 327.734 484.883C327.734 485.846 327.406 486.607 326.75 487.164C326.094 487.721 325.172 488 323.984 488H320.469V477.664H326.898V479.406H322.406V481.773H323.984ZM325.781 484.883C325.792 484.456 325.654 484.125 325.367 483.891C325.086 483.656 324.648 483.539 324.055 483.539H322.406V486.242H324.055C325.19 486.242 325.766 485.789 325.781 484.883ZM334.953 480.992H335.914V488H334.023V484.289L330.219 488.031H329.273V481.023H331.164V484.672L334.953 480.992ZM342.062 480.766C343.042 480.766 343.839 481.107 344.453 481.789C345.068 482.471 345.372 483.367 345.367 484.477C345.367 485.565 345.049 486.458 344.414 487.156C343.784 487.849 342.992 488.195 342.039 488.195C341.055 488.195 340.31 487.88 339.805 487.25V491.07H337.867V481.023H339.688V481.922C340.224 481.151 341.016 480.766 342.062 480.766ZM340.242 485.961C340.591 486.341 341.047 486.531 341.609 486.531C342.172 486.531 342.628 486.339 342.977 485.953C343.326 485.568 343.505 485.076 343.516 484.477C343.516 483.867 343.341 483.375 342.992 483C342.643 482.62 342.182 482.43 341.609 482.43C341.047 482.43 340.591 482.62 340.242 483C339.893 483.38 339.719 483.878 339.719 484.492C339.719 485.086 339.893 485.576 340.242 485.961ZM356.336 488H354.133L352.07 484.781V488H350.148V484.812L348.086 488H345.875L348.289 484.352L345.984 481.023H348.117L350.148 484.031V481.023H352.07V484.062L354.102 481.023H356.227L354.031 484.352L356.336 488ZM363.289 486.445L363.797 487.68C363.464 487.977 363.005 488.125 362.422 488.125C361.703 488.125 361.26 487.854 361.094 487.312C360.651 487.891 359.958 488.18 359.016 488.18C358.323 488.18 357.781 488 357.391 487.641C357 487.281 356.805 486.794 356.805 486.18C356.805 485.544 357.042 485.029 357.516 484.633C357.99 484.232 358.677 484.031 359.578 484.031H360.891V483.617C360.891 482.794 360.526 482.383 359.797 482.383C359.188 482.383 358.81 482.667 358.664 483.234L357.031 482.75C357.198 482.135 357.523 481.651 358.008 481.297C358.492 480.943 359.138 480.766 359.945 480.766C360.815 480.766 361.497 481 361.992 481.469C362.492 481.938 362.742 482.669 362.742 483.664V486.258C362.742 486.461 362.839 486.562 363.031 486.562C363.125 486.562 363.211 486.523 363.289 486.445ZM359.547 486.766C359.948 486.766 360.273 486.633 360.523 486.367C360.779 486.096 360.906 485.724 360.906 485.25H359.625C359.333 485.25 359.102 485.32 358.93 485.461C358.763 485.596 358.68 485.786 358.68 486.031C358.68 486.266 358.755 486.448 358.906 486.578C359.062 486.703 359.276 486.766 359.547 486.766Z" fill="#131313"/>
<g filter="url(#filter4_d_210_9)">
<rect x="461" y="282" width="112" height="40" rx="7" fill="white"/>
<rect x="460.5" y="281.5" width="113" height="41" rx="7.5" stroke="#D7B185"/>
</g>
<path d="M497.227 306L496.328 303.758H492.125L491.227 306H489.242L493.789 295.484H494.648L499.242 306H497.227ZM492.781 302.125H495.672L494.234 298.477L492.781 302.125ZM500.219 306V295.133H502.156V306H500.219ZM508.305 298.766C509.284 298.766 510.081 299.107 510.695 299.789C511.31 300.471 511.615 301.367 511.609 302.477C511.609 303.565 511.292 304.458 510.656 305.156C510.026 305.849 509.234 306.195 508.281 306.195C507.297 306.195 506.552 305.88 506.047 305.25V309.07H504.109V299.023H505.93V299.922C506.466 299.151 507.258 298.766 508.305 298.766ZM506.484 303.961C506.833 304.341 507.289 304.531 507.852 304.531C508.414 304.531 508.87 304.339 509.219 303.953C509.568 303.568 509.747 303.076 509.758 302.477C509.758 301.867 509.583 301.375 509.234 301C508.885 300.62 508.424 300.43 507.852 300.43C507.289 300.43 506.833 300.62 506.484 301C506.135 301.38 505.961 301.878 505.961 302.492C505.961 303.086 506.135 303.576 506.484 303.961ZM516.312 306.195C515.312 306.195 514.51 305.982 513.906 305.555C513.307 305.122 512.893 304.471 512.664 303.602L514.375 302.961C514.547 303.508 514.792 303.898 515.109 304.133C515.427 304.362 515.859 304.477 516.406 304.477C516.901 304.477 517.294 304.357 517.586 304.117C517.878 303.872 518.023 303.544 518.023 303.133C518.023 302.732 517.875 302.411 517.578 302.172C517.281 301.932 516.729 301.711 515.922 301.508C514.896 301.247 514.143 300.867 513.664 300.367C513.185 299.862 512.945 299.19 512.945 298.352C512.945 297.477 513.247 296.776 513.852 296.25C514.456 295.719 515.276 295.453 516.312 295.453C518 295.453 519.081 296.164 519.555 297.586L517.859 298.289C517.651 297.544 517.107 297.172 516.227 297.172C515.794 297.172 515.453 297.268 515.203 297.461C514.953 297.654 514.831 297.914 514.836 298.242C514.846 298.622 515.003 298.919 515.305 299.133C515.607 299.346 516.198 299.57 517.078 299.805C518.073 300.081 518.794 300.477 519.242 300.992C519.695 301.508 519.922 302.201 519.922 303.07C519.922 304.023 519.596 304.784 518.945 305.352C518.294 305.914 517.417 306.195 516.312 306.195ZM529.461 299.023H531.398L528.453 306.195H527.617L525.875 302.336L524.047 306.195H523.203L520.273 299.023H522.336L523.828 303.172L525.75 298.93H526.047L527.922 303.172L529.461 299.023ZM538.234 304.445L538.742 305.68C538.409 305.977 537.951 306.125 537.367 306.125C536.648 306.125 536.206 305.854 536.039 305.312C535.596 305.891 534.904 306.18 533.961 306.18C533.268 306.18 532.727 306 532.336 305.641C531.945 305.281 531.75 304.794 531.75 304.18C531.75 303.544 531.987 303.029 532.461 302.633C532.935 302.232 533.622 302.031 534.523 302.031H535.836V301.617C535.836 300.794 535.471 300.383 534.742 300.383C534.133 300.383 533.755 300.667 533.609 301.234L531.977 300.75C532.143 300.135 532.469 299.651 532.953 299.297C533.438 298.943 534.083 298.766 534.891 298.766C535.76 298.766 536.443 299 536.938 299.469C537.438 299.938 537.688 300.669 537.688 301.664V304.258C537.688 304.461 537.784 304.562 537.977 304.562C538.07 304.562 538.156 304.523 538.234 304.445ZM534.492 304.766C534.893 304.766 535.219 304.633 535.469 304.367C535.724 304.096 535.852 303.724 535.852 303.25H534.57C534.279 303.25 534.047 303.32 533.875 303.461C533.708 303.596 533.625 303.786 533.625 304.031C533.625 304.266 533.701 304.448 533.852 304.578C534.008 304.703 534.221 304.766 534.492 304.766ZM543.977 298.766C544.956 298.766 545.753 299.107 546.367 299.789C546.982 300.471 547.286 301.367 547.281 302.477C547.281 303.565 546.964 304.458 546.328 305.156C545.698 305.849 544.906 306.195 543.953 306.195C542.969 306.195 542.224 305.88 541.719 305.25V309.07H539.781V299.023H541.602V299.922C542.138 299.151 542.93 298.766 543.977 298.766ZM542.156 303.961C542.505 304.341 542.961 304.531 543.523 304.531C544.086 304.531 544.542 304.339 544.891 303.953C545.24 303.568 545.419 303.076 545.43 302.477C545.43 301.867 545.255 301.375 544.906 301C544.557 300.62 544.096 300.43 543.523 300.43C542.961 300.43 542.505 300.62 542.156 301C541.807 301.38 541.633 301.878 541.633 302.492C541.633 303.086 541.807 303.576 542.156 303.961Z" fill="#131313"/>
<g filter="url(#filter5_d_210_9)">
<rect x="461" y="464" width="112" height="40" rx="7" fill="white"/>
<rect x="460.5" y="463.5" width="113" height="41" rx="7.5" stroke="#D7B185"/>
</g>
<path d="M484.141 481.195C483.078 481.195 482.141 480.961 481.328 480.492C480.521 480.018 479.904 479.378 479.477 478.57C479.055 477.763 478.844 476.849 478.844 475.828C478.844 474.839 479.065 473.935 479.508 473.117C479.956 472.294 480.586 471.643 481.398 471.164C482.211 470.68 483.125 470.438 484.141 470.438C485.047 470.438 485.862 470.628 486.586 471.008C487.315 471.383 487.919 471.945 488.398 472.695L486.891 473.688C486.24 472.698 485.328 472.203 484.156 472.203C483.49 472.203 482.898 472.367 482.383 472.695C481.867 473.018 481.474 473.453 481.203 474C480.932 474.547 480.797 475.156 480.797 475.828C480.797 476.854 481.107 477.711 481.727 478.398C482.346 479.086 483.156 479.43 484.156 479.43C485.354 479.43 486.276 478.914 486.922 477.883L488.414 478.82C487.961 479.586 487.37 480.174 486.641 480.586C485.911 480.992 485.078 481.195 484.141 481.195ZM491.508 475.078C491.992 474.26 492.727 473.852 493.711 473.852V475.75C493.076 475.75 492.557 475.938 492.156 476.312C491.755 476.688 491.555 477.206 491.555 477.867V481H489.617V474.023H491.508V475.078ZM498.086 481.195C496.924 481.195 496.005 480.846 495.328 480.148C494.656 479.451 494.32 478.56 494.32 477.477C494.32 476.44 494.672 475.562 495.375 474.844C496.083 474.125 496.987 473.766 498.086 473.766C499.237 473.766 500.151 474.115 500.828 474.812C501.505 475.51 501.844 476.398 501.844 477.477C501.844 478.154 501.688 478.776 501.375 479.344C501.062 479.906 500.617 480.357 500.039 480.695C499.461 481.029 498.81 481.195 498.086 481.195ZM498.086 479.547C498.643 479.547 499.099 479.346 499.453 478.945C499.807 478.544 499.984 478.055 499.984 477.477C499.984 476.878 499.807 476.383 499.453 475.992C499.104 475.596 498.648 475.398 498.086 475.398C497.518 475.398 497.057 475.596 496.703 475.992C496.354 476.388 496.18 476.888 496.18 477.492C496.18 478.076 496.357 478.565 496.711 478.961C497.065 479.352 497.523 479.547 498.086 479.547ZM505.594 481.195C504.016 481.195 503.065 480.56 502.742 479.289L504.25 478.727C504.37 479.081 504.536 479.333 504.75 479.484C504.969 479.63 505.266 479.703 505.641 479.703C505.969 479.703 506.221 479.646 506.398 479.531C506.576 479.411 506.664 479.24 506.664 479.016C506.664 478.797 506.57 478.628 506.383 478.508C506.195 478.388 505.815 478.268 505.242 478.148C504.477 477.987 503.917 477.734 503.562 477.391C503.208 477.042 503.031 476.57 503.031 475.977C503.031 475.305 503.271 474.768 503.75 474.367C504.234 473.966 504.854 473.766 505.609 473.766C506.307 473.766 506.862 473.898 507.273 474.164C507.69 474.43 507.982 474.852 508.148 475.43L506.633 475.992C506.529 475.737 506.398 475.549 506.242 475.43C506.091 475.305 505.875 475.242 505.594 475.242C505.339 475.242 505.138 475.299 504.992 475.414C504.846 475.529 504.773 475.674 504.773 475.852C504.773 476.055 504.87 476.214 505.062 476.328C505.255 476.443 505.641 476.56 506.219 476.68C507.01 476.846 507.573 477.107 507.906 477.461C508.24 477.815 508.406 478.312 508.406 478.953C508.396 479.635 508.138 480.18 507.633 480.586C507.128 480.992 506.448 481.195 505.594 481.195ZM512.156 481.195C510.578 481.195 509.628 480.56 509.305 479.289L510.812 478.727C510.932 479.081 511.099 479.333 511.312 479.484C511.531 479.63 511.828 479.703 512.203 479.703C512.531 479.703 512.784 479.646 512.961 479.531C513.138 479.411 513.227 479.24 513.227 479.016C513.227 478.797 513.133 478.628 512.945 478.508C512.758 478.388 512.378 478.268 511.805 478.148C511.039 477.987 510.479 477.734 510.125 477.391C509.771 477.042 509.594 476.57 509.594 475.977C509.594 475.305 509.833 474.768 510.312 474.367C510.797 473.966 511.417 473.766 512.172 473.766C512.87 473.766 513.424 473.898 513.836 474.164C514.253 474.43 514.544 474.852 514.711 475.43L513.195 475.992C513.091 475.737 512.961 475.549 512.805 475.43C512.654 475.305 512.438 475.242 512.156 475.242C511.901 475.242 511.701 475.299 511.555 475.414C511.409 475.529 511.336 475.674 511.336 475.852C511.336 476.055 511.432 476.214 511.625 476.328C511.818 476.443 512.203 476.56 512.781 476.68C513.573 476.846 514.135 477.107 514.469 477.461C514.802 477.815 514.969 478.312 514.969 478.953C514.958 479.635 514.701 480.18 514.195 480.586C513.69 480.992 513.01 481.195 512.156 481.195ZM521.406 481.195C520.344 481.195 519.406 480.961 518.594 480.492C517.786 480.018 517.169 479.378 516.742 478.57C516.32 477.763 516.109 476.849 516.109 475.828C516.109 474.839 516.331 473.935 516.773 473.117C517.221 472.294 517.852 471.643 518.664 471.164C519.477 470.68 520.391 470.438 521.406 470.438C522.312 470.438 523.128 470.628 523.852 471.008C524.581 471.383 525.185 471.945 525.664 472.695L524.156 473.688C523.505 472.698 522.594 472.203 521.422 472.203C520.755 472.203 520.164 472.367 519.648 472.695C519.133 473.018 518.74 473.453 518.469 474C518.198 474.547 518.062 475.156 518.062 475.828C518.062 476.854 518.372 477.711 518.992 478.398C519.612 479.086 520.422 479.43 521.422 479.43C522.62 479.43 523.542 478.914 524.188 477.883L525.68 478.82C525.227 479.586 524.635 480.174 523.906 480.586C523.177 480.992 522.344 481.195 521.406 481.195ZM531.07 473.766C531.966 473.766 532.648 474.049 533.117 474.617C533.586 475.18 533.82 475.938 533.82 476.891V481H531.906V477.062C531.906 476.573 531.776 476.18 531.516 475.883C531.26 475.581 530.898 475.43 530.43 475.43C529.971 475.43 529.609 475.586 529.344 475.898C529.078 476.206 528.945 476.599 528.945 477.078V481H527.008V470.133H528.945V473.945L528.914 474.68C529.398 474.07 530.117 473.766 531.07 473.766ZM541.648 479.445L542.156 480.68C541.823 480.977 541.365 481.125 540.781 481.125C540.062 481.125 539.62 480.854 539.453 480.312C539.01 480.891 538.318 481.18 537.375 481.18C536.682 481.18 536.141 481 535.75 480.641C535.359 480.281 535.164 479.794 535.164 479.18C535.164 478.544 535.401 478.029 535.875 477.633C536.349 477.232 537.036 477.031 537.938 477.031H539.25V476.617C539.25 475.794 538.885 475.383 538.156 475.383C537.547 475.383 537.169 475.667 537.023 476.234L535.391 475.75C535.557 475.135 535.883 474.651 536.367 474.297C536.852 473.943 537.497 473.766 538.305 473.766C539.174 473.766 539.857 474 540.352 474.469C540.852 474.938 541.102 475.669 541.102 476.664V479.258C541.102 479.461 541.198 479.562 541.391 479.562C541.484 479.562 541.57 479.523 541.648 479.445ZM537.906 479.766C538.307 479.766 538.633 479.633 538.883 479.367C539.138 479.096 539.266 478.724 539.266 478.25H537.984C537.693 478.25 537.461 478.32 537.289 478.461C537.122 478.596 537.039 478.786 537.039 479.031C537.039 479.266 537.115 479.448 537.266 479.578C537.422 479.703 537.635 479.766 537.906 479.766ZM544.172 472.906C543.812 472.906 543.508 472.781 543.258 472.531C543.013 472.276 542.891 471.969 542.891 471.609C542.891 471.255 543.013 470.956 543.258 470.711C543.508 470.466 543.812 470.344 544.172 470.344C544.526 470.344 544.828 470.469 545.078 470.719C545.328 470.964 545.453 471.26 545.453 471.609C545.453 471.969 545.328 472.276 545.078 472.531C544.828 472.781 544.526 472.906 544.172 472.906ZM543.195 481V474.023H545.133V481H543.195ZM551.164 473.766C552.06 473.766 552.742 474.044 553.211 474.602C553.68 475.154 553.914 475.906 553.914 476.859V481H552V477.078C552 476.568 551.872 476.167 551.617 475.875C551.367 475.578 551.003 475.43 550.523 475.43C550.055 475.43 549.688 475.586 549.422 475.898C549.156 476.206 549.023 476.604 549.023 477.094V481H547.086V474.023H548.875V474.805C549.38 474.112 550.143 473.766 551.164 473.766ZM509.742 497H507.859L507.508 493.352L505.156 496.508H505.141L502.719 493.383L502.469 497H500.594L501.234 489.93H502.336L505.203 493.828L507.922 489.93H509.023L509.742 497ZM514.617 497.195C513.456 497.195 512.536 496.846 511.859 496.148C511.188 495.451 510.852 494.56 510.852 493.477C510.852 492.44 511.203 491.562 511.906 490.844C512.615 490.125 513.518 489.766 514.617 489.766C515.768 489.766 516.682 490.115 517.359 490.812C518.036 491.51 518.375 492.398 518.375 493.477C518.375 494.154 518.219 494.776 517.906 495.344C517.594 495.906 517.148 496.357 516.57 496.695C515.992 497.029 515.341 497.195 514.617 497.195ZM514.617 495.547C515.174 495.547 515.63 495.346 515.984 494.945C516.339 494.544 516.516 494.055 516.516 493.477C516.516 492.878 516.339 492.383 515.984 491.992C515.635 491.596 515.18 491.398 514.617 491.398C514.049 491.398 513.589 491.596 513.234 491.992C512.885 492.388 512.711 492.888 512.711 493.492C512.711 494.076 512.888 494.565 513.242 494.961C513.596 495.352 514.055 495.547 514.617 495.547ZM522.969 497.18C522.286 497.18 521.68 497.044 521.148 496.773C520.617 496.497 520.19 496.076 519.867 495.508C519.549 494.935 519.391 494.253 519.391 493.461C519.391 492.898 519.49 492.383 519.688 491.914C519.885 491.445 520.151 491.057 520.484 490.75C520.823 490.438 521.216 490.195 521.664 490.023C522.112 489.852 522.586 489.766 523.086 489.766C524.487 489.766 525.484 490.331 526.078 491.461L524.68 492.391C524.331 491.75 523.799 491.43 523.086 491.43C522.555 491.43 522.115 491.612 521.766 491.977C521.417 492.341 521.242 492.836 521.242 493.461C521.242 494.107 521.417 494.615 521.766 494.984C522.115 495.349 522.555 495.531 523.086 495.531C523.503 495.531 523.839 495.453 524.094 495.297C524.349 495.141 524.562 494.893 524.734 494.555L526.109 495.445C525.526 496.602 524.479 497.18 522.969 497.18ZM532.82 490.023V491.656H530.68V497H528.758V491.656H526.617V490.023H532.82Z" fill="#131313"/>
<g filter="url(#filter6_d_210_9)">
<rect x="604" y="225" width="160" height="40" rx="7" fill="#EEE6D9"/>
<rect x="603.5" y="224.5" width="161" height="41" rx="7.5" stroke="#D7B185"/>
</g>
<path d="M660.27 253L658.922 249.637H652.617L651.27 253H648.293L655.113 237.227H656.402L663.293 253H660.27ZM653.602 247.188H657.938L655.781 241.715L653.602 247.188ZM664.758 253V236.699H667.664V253H664.758ZM676.887 242.148C678.355 242.148 679.551 242.66 680.473 243.684C681.395 244.707 681.852 246.051 681.844 247.715C681.844 249.348 681.367 250.688 680.414 251.734C679.469 252.773 678.281 253.293 676.852 253.293C675.375 253.293 674.258 252.82 673.5 251.875V257.605H670.594V242.535H673.324V243.883C674.129 242.727 675.316 242.148 676.887 242.148ZM674.156 249.941C674.68 250.512 675.363 250.797 676.207 250.797C677.051 250.797 677.734 250.508 678.258 249.93C678.781 249.352 679.051 248.613 679.066 247.715C679.066 246.801 678.805 246.062 678.281 245.5C677.758 244.93 677.066 244.645 676.207 244.645C675.363 244.645 674.68 244.93 674.156 245.5C673.633 246.07 673.371 246.816 673.371 247.738C673.371 248.629 673.633 249.363 674.156 249.941ZM694.781 242.488C694.797 244.082 694.297 245.348 693.281 246.285C692.273 247.215 690.867 247.684 689.062 247.691H687.27V253H684.316V237.496H689.086C690.922 237.496 692.328 237.934 693.305 238.809C694.289 239.676 694.781 240.902 694.781 242.488ZM689.016 245.125C689.953 245.125 690.672 244.906 691.172 244.469C691.672 244.023 691.922 243.395 691.922 242.582C691.922 241.777 691.676 241.16 691.184 240.73C690.691 240.301 689.969 240.086 689.016 240.086H687.27V245.125H689.016ZM705.422 250.668L706.184 252.52C705.684 252.965 704.996 253.188 704.121 253.188C703.043 253.188 702.379 252.781 702.129 251.969C701.465 252.836 700.426 253.27 699.012 253.27C697.973 253.27 697.16 253 696.574 252.461C695.988 251.922 695.695 251.191 695.695 250.27C695.695 249.316 696.051 248.543 696.762 247.949C697.473 247.348 698.504 247.047 699.855 247.047H701.824V246.426C701.824 245.191 701.277 244.574 700.184 244.574C699.27 244.574 698.703 245 698.484 245.852L696.035 245.125C696.285 244.203 696.773 243.477 697.5 242.945C698.227 242.414 699.195 242.148 700.406 242.148C701.711 242.148 702.734 242.5 703.477 243.203C704.227 243.906 704.602 245.004 704.602 246.496V250.387C704.602 250.691 704.746 250.844 705.035 250.844C705.176 250.844 705.305 250.785 705.422 250.668ZM699.809 251.148C700.41 251.148 700.898 250.949 701.273 250.551C701.656 250.145 701.848 249.586 701.848 248.875H699.926C699.488 248.875 699.141 248.98 698.883 249.191C698.633 249.395 698.508 249.68 698.508 250.047C698.508 250.398 698.621 250.672 698.848 250.867C699.082 251.055 699.402 251.148 699.809 251.148ZM715.395 236.699H718.301V253H715.547V251.605C714.734 252.73 713.555 253.293 712.008 253.293C710.539 253.293 709.344 252.781 708.422 251.758C707.5 250.727 707.043 249.371 707.051 247.691C707.051 246.059 707.523 244.727 708.469 243.695C709.422 242.664 710.613 242.148 712.043 242.148C713.52 242.148 714.637 242.621 715.395 243.566V236.699ZM712.711 250.797C713.539 250.797 714.211 250.508 714.727 249.93C715.25 249.352 715.512 248.605 715.512 247.691C715.512 246.809 715.25 246.082 714.727 245.512C714.211 244.934 713.539 244.645 712.711 244.645C711.859 244.645 711.164 244.934 710.625 245.512C710.094 246.082 709.828 246.809 709.828 247.691C709.828 248.613 710.09 249.363 710.613 249.941C711.137 250.512 711.836 250.797 712.711 250.797Z" fill="#131313"/>
<g filter="url(#filter7_d_210_9)">
<rect x="351" y="641" width="160" height="40" rx="7" fill="#EEE6D9"/>
<rect x="350.5" y="640.5" width="161" height="41" rx="7.5" stroke="#D7B185"/>
</g>
<path d="M387.105 667L385.758 663.637H379.453L378.105 667H375.129L381.949 651.227H383.238L390.129 667H387.105ZM380.438 661.188H384.773L382.617 655.715L380.438 661.188ZM391.594 667V650.699H394.5V667H391.594ZM403.723 656.148C405.191 656.148 406.387 656.66 407.309 657.684C408.23 658.707 408.688 660.051 408.68 661.715C408.68 663.348 408.203 664.688 407.25 665.734C406.305 666.773 405.117 667.293 403.688 667.293C402.211 667.293 401.094 666.82 400.336 665.875V671.605H397.43V656.535H400.16V657.883C400.965 656.727 402.152 656.148 403.723 656.148ZM400.992 663.941C401.516 664.512 402.199 664.797 403.043 664.797C403.887 664.797 404.57 664.508 405.094 663.93C405.617 663.352 405.887 662.613 405.902 661.715C405.902 660.801 405.641 660.062 405.117 659.5C404.594 658.93 403.902 658.645 403.043 658.645C402.199 658.645 401.516 658.93 400.992 659.5C400.469 660.07 400.207 660.816 400.207 661.738C400.207 662.629 400.469 663.363 400.992 663.941ZM419.93 654.262H414.105V658.27H419.402V661.023H414.105V667H411.152V651.496H419.93V654.262ZM430.617 664.668L431.379 666.52C430.879 666.965 430.191 667.188 429.316 667.188C428.238 667.188 427.574 666.781 427.324 665.969C426.66 666.836 425.621 667.27 424.207 667.27C423.168 667.27 422.355 667 421.77 666.461C421.184 665.922 420.891 665.191 420.891 664.27C420.891 663.316 421.246 662.543 421.957 661.949C422.668 661.348 423.699 661.047 425.051 661.047H427.02V660.426C427.02 659.191 426.473 658.574 425.379 658.574C424.465 658.574 423.898 659 423.68 659.852L421.23 659.125C421.48 658.203 421.969 657.477 422.695 656.945C423.422 656.414 424.391 656.148 425.602 656.148C426.906 656.148 427.93 656.5 428.672 657.203C429.422 657.906 429.797 659.004 429.797 660.496V664.387C429.797 664.691 429.941 664.844 430.23 664.844C430.371 664.844 430.5 664.785 430.617 664.668ZM425.004 665.148C425.605 665.148 426.094 664.949 426.469 664.551C426.852 664.145 427.043 663.586 427.043 662.875H425.121C424.684 662.875 424.336 662.98 424.078 663.191C423.828 663.395 423.703 663.68 423.703 664.047C423.703 664.398 423.816 664.672 424.043 664.867C424.277 665.055 424.598 665.148 425.004 665.148ZM435.773 658.117C436.5 656.891 437.602 656.277 439.078 656.277V659.125C438.125 659.125 437.348 659.406 436.746 659.969C436.145 660.531 435.844 661.309 435.844 662.301V667H432.938V656.535H435.773V658.117ZM453.41 656.148C454.621 656.148 455.555 656.547 456.211 657.344C456.867 658.141 457.195 659.215 457.195 660.566V667H454.324V661.07C454.324 659.453 453.707 658.645 452.473 658.645C451.879 658.645 451.406 658.859 451.055 659.289C450.703 659.711 450.527 660.297 450.527 661.047V667H447.621V661.07C447.621 659.453 447.008 658.645 445.781 658.645C445.164 658.645 444.688 658.855 444.352 659.277C444.023 659.699 443.859 660.289 443.859 661.047V667H440.953V656.535H443.789V657.402C444.492 656.566 445.465 656.148 446.707 656.148C448.246 656.148 449.336 656.773 449.977 658.023C450.727 656.773 451.871 656.148 453.41 656.148ZM461.449 654.859C460.91 654.859 460.453 654.672 460.078 654.297C459.711 653.914 459.527 653.453 459.527 652.914C459.527 652.383 459.711 651.934 460.078 651.566C460.453 651.199 460.91 651.016 461.449 651.016C461.98 651.016 462.434 651.203 462.809 651.578C463.184 651.945 463.371 652.391 463.371 652.914C463.371 653.453 463.184 653.914 462.809 654.297C462.434 654.672 461.98 654.859 461.449 654.859ZM459.984 667V656.535H462.891V667H459.984ZM471.938 656.148C473.281 656.148 474.305 656.566 475.008 657.402C475.711 658.23 476.062 659.359 476.062 660.789V667H473.191V661.117C473.191 660.352 473 659.75 472.617 659.312C472.242 658.867 471.695 658.645 470.977 658.645C470.273 658.645 469.723 658.879 469.324 659.348C468.926 659.809 468.727 660.406 468.727 661.141V667H465.82V656.535H468.504V657.707C469.262 656.668 470.406 656.148 471.938 656.148ZM488.285 656.535L488.262 658.773H486.363C486.746 659.375 486.938 660.004 486.938 660.66C486.938 661.777 486.379 662.777 485.262 663.66L484.008 664.715C483.742 664.926 483.527 665.062 483.363 665.125H484.664C485.805 665.125 486.672 665.391 487.266 665.922C487.867 666.445 488.168 667.188 488.168 668.148C488.168 669.258 487.691 670.152 486.738 670.832C485.793 671.512 484.492 671.852 482.836 671.852C481.555 671.852 480.496 671.66 479.66 671.277C478.832 670.895 478.203 670.301 477.773 669.496L479.789 667.961C480.086 668.508 480.469 668.906 480.938 669.156C481.406 669.414 482.031 669.543 482.812 669.543C484.602 669.543 485.496 669.129 485.496 668.301C485.496 667.676 485.121 667.363 484.371 667.363H480.434V665.605L481.922 664.34C480.758 664.23 479.832 663.84 479.145 663.168C478.465 662.496 478.125 661.613 478.125 660.52C478.125 659.363 478.539 658.41 479.367 657.66C480.195 656.91 481.262 656.535 482.566 656.535H488.285ZM480.844 660.52C480.844 661.043 480.996 661.473 481.301 661.809C481.613 662.137 482.035 662.301 482.566 662.301C483.059 662.301 483.461 662.129 483.773 661.785C484.094 661.441 484.254 661.02 484.254 660.52C484.254 660.02 484.098 659.609 483.785 659.289C483.48 658.961 483.074 658.797 482.566 658.797C482.027 658.797 481.605 658.957 481.301 659.277C480.996 659.598 480.844 660.012 480.844 660.52Z" fill="#131313"/>
<g filter="url(#filter8_d_210_9)">
<rect x="299" y="101" width="264" height="40" rx="7" fill="#EEE6D9"/>
<rect x="298.5" y="100.5" width="265" height="41" rx="7.5" stroke="#D7B185"/>
</g>
<path d="M337.07 112.496V128H334.141V115.133H327.355V128H324.402V112.496H337.07ZM342.027 117.535H350.359V128H347.477V119.914H344.734L344.547 122.141C344.359 124.344 343.879 125.898 343.105 126.805C342.332 127.711 341.172 128.164 339.625 128.164V125.797C340.258 125.797 340.738 125.492 341.066 124.883C341.395 124.266 341.602 123.336 341.688 122.094L342.027 117.535ZM362.312 125.668L363.074 127.52C362.574 127.965 361.887 128.188 361.012 128.188C359.934 128.188 359.27 127.781 359.02 126.969C358.355 127.836 357.316 128.27 355.902 128.27C354.863 128.27 354.051 128 353.465 127.461C352.879 126.922 352.586 126.191 352.586 125.27C352.586 124.316 352.941 123.543 353.652 122.949C354.363 122.348 355.395 122.047 356.746 122.047H358.715V121.426C358.715 120.191 358.168 119.574 357.074 119.574C356.16 119.574 355.594 120 355.375 120.852L352.926 120.125C353.176 119.203 353.664 118.477 354.391 117.945C355.117 117.414 356.086 117.148 357.297 117.148C358.602 117.148 359.625 117.5 360.367 118.203C361.117 118.906 361.492 120.004 361.492 121.496V125.387C361.492 125.691 361.637 125.844 361.926 125.844C362.066 125.844 362.195 125.785 362.312 125.668ZM356.699 126.148C357.301 126.148 357.789 125.949 358.164 125.551C358.547 125.145 358.738 124.586 358.738 123.875H356.816C356.379 123.875 356.031 123.98 355.773 124.191C355.523 124.395 355.398 124.68 355.398 125.047C355.398 125.398 355.512 125.672 355.738 125.867C355.973 126.055 356.293 126.148 356.699 126.148ZM372.766 117.535V119.984H369.555V128H366.672V119.984H363.461V117.535H372.766ZM387.812 122.715C387.812 123.645 387.609 124.492 387.203 125.258C386.805 126.016 386.176 126.66 385.316 127.191C384.465 127.723 383.434 128.062 382.223 128.211V132.559H379.469V128.211C377.578 128.016 376.168 127.426 375.238 126.441C374.309 125.457 373.844 124.215 373.844 122.715C373.844 122.027 373.961 121.379 374.195 120.77C374.43 120.16 374.773 119.609 375.227 119.117C375.688 118.625 376.277 118.215 376.996 117.887C377.723 117.551 378.547 117.328 379.469 117.219V112.859H382.223V117.219C384.082 117.43 385.477 118.027 386.406 119.012C387.344 119.988 387.812 121.223 387.812 122.715ZM376.469 122.738C376.469 123.535 376.707 124.211 377.184 124.766C377.668 125.312 378.43 125.672 379.469 125.844V119.574C378.43 119.762 377.668 120.137 377.184 120.699C376.707 121.254 376.469 121.934 376.469 122.738ZM382.223 125.82C383.238 125.648 383.988 125.285 384.473 124.73C384.957 124.168 385.199 123.496 385.199 122.715C385.176 120.973 384.184 119.926 382.223 119.574V125.82ZM394.938 128.293C393.195 128.293 391.816 127.77 390.801 126.723C389.793 125.676 389.289 124.34 389.289 122.715C389.289 121.16 389.816 119.844 390.871 118.766C391.934 117.688 393.289 117.148 394.938 117.148C396.664 117.148 398.035 117.672 399.051 118.719C400.066 119.766 400.574 121.098 400.574 122.715C400.574 123.73 400.34 124.664 399.871 125.516C399.402 126.359 398.734 127.035 397.867 127.543C397 128.043 396.023 128.293 394.938 128.293ZM394.938 125.82C395.773 125.82 396.457 125.52 396.988 124.918C397.52 124.316 397.785 123.582 397.785 122.715C397.785 121.816 397.52 121.074 396.988 120.488C396.465 119.895 395.781 119.598 394.938 119.598C394.086 119.598 393.395 119.895 392.863 120.488C392.34 121.082 392.078 121.832 392.078 122.738C392.078 123.613 392.344 124.348 392.875 124.941C393.406 125.527 394.094 125.82 394.938 125.82ZM409.082 117.148C410.551 117.148 411.746 117.66 412.668 118.684C413.59 119.707 414.047 121.051 414.039 122.715C414.039 124.348 413.562 125.688 412.609 126.734C411.664 127.773 410.477 128.293 409.047 128.293C407.57 128.293 406.453 127.82 405.695 126.875V132.605H402.789V117.535H405.52V118.883C406.324 117.727 407.512 117.148 409.082 117.148ZM406.352 124.941C406.875 125.512 407.559 125.797 408.402 125.797C409.246 125.797 409.93 125.508 410.453 124.93C410.977 124.352 411.246 123.613 411.262 122.715C411.262 121.801 411 121.062 410.477 120.5C409.953 119.93 409.262 119.645 408.402 119.645C407.559 119.645 406.875 119.93 406.352 120.5C405.828 121.07 405.566 121.816 405.566 122.738C405.566 123.629 405.828 124.363 406.352 124.941ZM429.484 128H426.66L426.133 122.527L422.605 127.262H422.582L418.949 122.574L418.574 128H415.762L416.723 117.395H418.375L422.676 123.242L426.754 117.395H428.406L429.484 128ZM440.828 125.668L441.59 127.52C441.09 127.965 440.402 128.188 439.527 128.188C438.449 128.188 437.785 127.781 437.535 126.969C436.871 127.836 435.832 128.27 434.418 128.27C433.379 128.27 432.566 128 431.98 127.461C431.395 126.922 431.102 126.191 431.102 125.27C431.102 124.316 431.457 123.543 432.168 122.949C432.879 122.348 433.91 122.047 435.262 122.047H437.23V121.426C437.23 120.191 436.684 119.574 435.59 119.574C434.676 119.574 434.109 120 433.891 120.852L431.441 120.125C431.691 119.203 432.18 118.477 432.906 117.945C433.633 117.414 434.602 117.148 435.812 117.148C437.117 117.148 438.141 117.5 438.883 118.203C439.633 118.906 440.008 120.004 440.008 121.496V125.387C440.008 125.691 440.152 125.844 440.441 125.844C440.582 125.844 440.711 125.785 440.828 125.668ZM435.215 126.148C435.816 126.148 436.305 125.949 436.68 125.551C437.062 125.145 437.254 124.586 437.254 123.875H435.332C434.895 123.875 434.547 123.98 434.289 124.191C434.039 124.395 433.914 124.68 433.914 125.047C433.914 125.398 434.027 125.672 434.254 125.867C434.488 126.055 434.809 126.148 435.215 126.148ZM458.629 128L457.281 124.637H450.977L449.629 128H446.652L453.473 112.227H454.762L461.652 128H458.629ZM451.961 122.188H456.297L454.141 116.715L451.961 122.188ZM466.551 125.293H472.984V128H463.598V112.496H466.551V125.293ZM485.688 117.488C485.703 119.082 485.203 120.348 484.188 121.285C483.18 122.215 481.773 122.684 479.969 122.691H478.176V128H475.223V112.496H479.992C481.828 112.496 483.234 112.934 484.211 113.809C485.195 114.676 485.688 115.902 485.688 117.488ZM479.922 120.125C480.859 120.125 481.578 119.906 482.078 119.469C482.578 119.023 482.828 118.395 482.828 117.582C482.828 116.777 482.582 116.16 482.09 115.73C481.598 115.301 480.875 115.086 479.922 115.086H478.176V120.125H479.922ZM498.449 112.496C499.762 112.496 500.945 112.688 502 113.07C503.055 113.453 503.93 113.988 504.625 114.676C505.32 115.355 505.852 116.168 506.219 117.113C506.594 118.051 506.781 119.086 506.781 120.219C506.781 121.336 506.586 122.371 506.195 123.324C505.812 124.277 505.266 125.102 504.555 125.797C503.852 126.484 502.977 127.023 501.93 127.414C500.883 127.805 499.723 128 498.449 128H493.246V112.496H498.449ZM498.473 125.434C500.176 125.434 501.496 124.949 502.434 123.98C503.379 123.012 503.852 121.758 503.852 120.219C503.852 118.695 503.379 117.457 502.434 116.504C501.496 115.543 500.176 115.062 498.473 115.062H496.199V125.434H498.473ZM519.73 128L518.383 124.637H512.078L510.73 128H507.754L514.574 112.227H515.863L522.754 128H519.73ZM513.062 122.188H517.398L515.242 116.715L513.062 122.188ZM531.637 128.293C530.449 128.293 529.355 128.086 528.355 127.672C527.363 127.25 526.527 126.68 525.848 125.961C525.176 125.234 524.652 124.379 524.277 123.395C523.902 122.41 523.715 121.352 523.715 120.219C523.715 119.102 523.914 118.047 524.312 117.055C524.711 116.062 525.254 115.207 525.941 114.488C526.637 113.77 527.477 113.203 528.461 112.789C529.445 112.367 530.504 112.156 531.637 112.156C532.832 112.156 533.93 112.367 534.93 112.789C535.938 113.203 536.777 113.773 537.449 114.5C538.129 115.219 538.652 116.07 539.02 117.055C539.395 118.039 539.582 119.094 539.582 120.219C539.582 121.719 539.242 123.086 538.562 124.32C537.891 125.547 536.945 126.516 535.727 127.227C534.516 127.938 533.152 128.293 531.637 128.293ZM531.637 125.621C533.113 125.621 534.312 125.109 535.234 124.086C536.164 123.055 536.629 121.766 536.629 120.219C536.629 118.672 536.164 117.387 535.234 116.363C534.312 115.34 533.113 114.828 531.637 114.828C530.168 114.828 528.973 115.34 528.051 116.363C527.129 117.387 526.668 118.672 526.668 120.219C526.668 121.766 527.129 123.055 528.051 124.086C528.973 125.109 530.168 125.621 531.637 125.621Z" fill="#131313"/>
<rect x="368" y="366" width="126" height="54" rx="13" fill="url(#paint0_linear_210_9)"/>
<path d="M405.206 402L403.521 397.796H395.641L393.956 402H390.235L398.761 382.283H400.372L408.985 402H405.206ZM396.871 394.734H402.291L399.596 387.894L396.871 394.734ZM415.108 398.616H423.15V402H411.417V382.62H415.108V398.616ZM439.029 388.86C439.049 390.853 438.424 392.435 437.154 393.606C435.895 394.769 434.137 395.354 431.881 395.364H429.64V402H425.948V382.62H431.91C434.205 382.62 435.963 383.167 437.184 384.261C438.414 385.345 439.029 386.878 439.029 388.86ZM431.822 392.156C432.994 392.156 433.893 391.883 434.518 391.336C435.143 390.779 435.455 389.993 435.455 388.978C435.455 387.972 435.147 387.2 434.532 386.663C433.917 386.126 433.014 385.857 431.822 385.857H429.64V392.156H431.822ZM445.958 398.792H453.634V402H442.267V382.62H453.341V385.828H445.958V390.457H452.608V393.694H445.958V398.792ZM472.706 402H468.487L463.8 394.646L459.186 402H455.04L461.559 392.01L455.406 382.62H459.64L463.917 389.373L468.238 382.62H472.354L466.173 392.01L472.706 402Z" fill="white"/>
<g filter="url(#filter9_d_210_9)">
<rect x="36" y="373" width="160" height="40" rx="7" fill="#EEE6D9"/>
<rect x="35.5" y="372.5" width="161" height="41" rx="7.5" stroke="#D7B185"/>
</g>
<path d="M88.1445 400L86.7969 396.637H80.4922L79.1445 400H76.168L82.9883 384.227H84.2773L91.168 400H88.1445ZM81.4766 394.188H85.8125L83.6562 388.715L81.4766 394.188ZM92.6328 400V383.699H95.5391V400H92.6328ZM104.762 389.148C106.23 389.148 107.426 389.66 108.348 390.684C109.27 391.707 109.727 393.051 109.719 394.715C109.719 396.348 109.242 397.688 108.289 398.734C107.344 399.773 106.156 400.293 104.727 400.293C103.25 400.293 102.133 399.82 101.375 398.875V404.605H98.4688V389.535H101.199V390.883C102.004 389.727 103.191 389.148 104.762 389.148ZM102.031 396.941C102.555 397.512 103.238 397.797 104.082 397.797C104.926 397.797 105.609 397.508 106.133 396.93C106.656 396.352 106.926 395.613 106.941 394.715C106.941 393.801 106.68 393.062 106.156 392.5C105.633 391.93 104.941 391.645 104.082 391.645C103.238 391.645 102.555 391.93 102.031 392.5C101.508 393.07 101.246 393.816 101.246 394.738C101.246 395.629 101.508 396.363 102.031 396.941ZM120.453 384.496H123.594L116.949 400.141H115.648L109.004 384.496H112.367L116.398 394.961L120.453 384.496ZM128.469 400.293C126.727 400.293 125.348 399.77 124.332 398.723C123.324 397.676 122.82 396.34 122.82 394.715C122.82 393.16 123.348 391.844 124.402 390.766C125.465 389.688 126.82 389.148 128.469 389.148C130.195 389.148 131.566 389.672 132.582 390.719C133.598 391.766 134.105 393.098 134.105 394.715C134.105 395.73 133.871 396.664 133.402 397.516C132.934 398.359 132.266 399.035 131.398 399.543C130.531 400.043 129.555 400.293 128.469 400.293ZM128.469 397.82C129.305 397.82 129.988 397.52 130.52 396.918C131.051 396.316 131.316 395.582 131.316 394.715C131.316 393.816 131.051 393.074 130.52 392.488C129.996 391.895 129.312 391.598 128.469 391.598C127.617 391.598 126.926 391.895 126.395 392.488C125.871 393.082 125.609 393.832 125.609 394.738C125.609 395.613 125.875 396.348 126.406 396.941C126.938 397.527 127.625 397.82 128.469 397.82ZM142.109 397.07L144.02 398.301C143.371 399.629 142.223 400.293 140.574 400.293C139.457 400.293 138.586 400 137.961 399.414C137.344 398.828 137.035 397.984 137.035 396.883L137.07 391.914H134.996V391.293L139.25 387.309H139.871V389.535H143.422L143.398 391.914H139.941V396.66C139.941 397.004 140.027 397.281 140.199 397.492C140.371 397.695 140.629 397.797 140.973 397.797C141.254 397.797 141.477 397.742 141.641 397.633C141.812 397.516 141.969 397.328 142.109 397.07ZM155.129 394.527C155.129 394.957 155.105 395.27 155.059 395.465H147.547C147.656 396.246 147.934 396.855 148.379 397.293C148.832 397.723 149.426 397.938 150.16 397.938C150.746 397.938 151.227 397.824 151.602 397.598C151.984 397.371 152.297 397.02 152.539 396.543L154.824 397.527C154.418 398.426 153.805 399.113 152.984 399.59C152.164 400.059 151.199 400.293 150.09 400.293C149.332 400.293 148.629 400.18 147.98 399.953C147.34 399.719 146.773 399.379 146.281 398.934C145.797 398.48 145.414 397.898 145.133 397.188C144.859 396.469 144.723 395.652 144.723 394.738C144.723 393.707 144.941 392.77 145.379 391.926C145.816 391.082 146.449 390.41 147.277 389.91C148.105 389.402 149.051 389.148 150.113 389.148C151.66 389.148 152.883 389.641 153.781 390.625C154.68 391.609 155.129 392.91 155.129 394.527ZM150.066 391.41C149.457 391.41 148.938 391.586 148.508 391.938C148.078 392.289 147.781 392.809 147.617 393.496H152.305C152.195 392.824 151.953 392.309 151.578 391.949C151.203 391.59 150.699 391.41 150.066 391.41Z" fill="#131313"/>
<g filter="url(#filter10_d_210_9)">
<rect x="662" y="373" width="160.423" height="40" rx="7" fill="#EEE6D9"/>
<rect x="661.5" y="372.5" width="161.423" height="41" rx="7.5" stroke="#D7B185"/>
</g>
<path d="M716.436 400L715.088 396.637H708.783L707.436 400H704.459L711.279 384.227H712.568L719.459 400H716.436ZM709.768 394.188H714.104L711.947 388.715L709.768 394.188ZM720.924 400V383.699H723.83V400H720.924ZM733.053 389.148C734.521 389.148 735.717 389.66 736.639 390.684C737.561 391.707 738.018 393.051 738.01 394.715C738.01 396.348 737.533 397.688 736.58 398.734C735.635 399.773 734.447 400.293 733.018 400.293C731.541 400.293 730.424 399.82 729.666 398.875V404.605H726.76V389.535H729.49V390.883C730.295 389.727 731.482 389.148 733.053 389.148ZM730.322 396.941C730.846 397.512 731.529 397.797 732.373 397.797C733.217 397.797 733.9 397.508 734.424 396.93C734.947 396.352 735.217 395.613 735.232 394.715C735.232 393.801 734.971 393.062 734.447 392.5C733.924 391.93 733.232 391.645 732.373 391.645C731.529 391.645 730.846 391.93 730.322 392.5C729.799 393.07 729.537 393.816 729.537 394.738C729.537 395.629 729.799 396.363 730.322 396.941ZM750.947 389.488C750.963 391.082 750.463 392.348 749.447 393.285C748.439 394.215 747.033 394.684 745.229 394.691H743.436V400H740.482V384.496H745.252C747.088 384.496 748.494 384.934 749.471 385.809C750.455 386.676 750.947 387.902 750.947 389.488ZM745.182 392.125C746.119 392.125 746.838 391.906 747.338 391.469C747.838 391.023 748.088 390.395 748.088 389.582C748.088 388.777 747.842 388.16 747.35 387.73C746.857 387.301 746.135 387.086 745.182 387.086H743.436V392.125H745.182ZM757.439 400.293C755.697 400.293 754.318 399.77 753.303 398.723C752.295 397.676 751.791 396.34 751.791 394.715C751.791 393.16 752.318 391.844 753.373 390.766C754.436 389.688 755.791 389.148 757.439 389.148C759.166 389.148 760.537 389.672 761.553 390.719C762.568 391.766 763.076 393.098 763.076 394.715C763.076 395.73 762.842 396.664 762.373 397.516C761.904 398.359 761.236 399.035 760.369 399.543C759.502 400.043 758.525 400.293 757.439 400.293ZM757.439 397.82C758.275 397.82 758.959 397.52 759.49 396.918C760.021 396.316 760.287 395.582 760.287 394.715C760.287 393.816 760.021 393.074 759.49 392.488C758.967 391.895 758.283 391.598 757.439 391.598C756.588 391.598 755.896 391.895 755.365 392.488C754.842 393.082 754.58 393.832 754.58 394.738C754.58 395.613 754.846 396.348 755.377 396.941C755.908 397.527 756.596 397.82 757.439 397.82ZM770.213 400.293C768.471 400.293 767.092 399.77 766.076 398.723C765.068 397.676 764.564 396.34 764.564 394.715C764.564 393.16 765.092 391.844 766.146 390.766C767.209 389.688 768.564 389.148 770.213 389.148C771.939 389.148 773.311 389.672 774.326 390.719C775.342 391.766 775.85 393.098 775.85 394.715C775.85 395.73 775.615 396.664 775.146 397.516C774.678 398.359 774.01 399.035 773.143 399.543C772.275 400.043 771.299 400.293 770.213 400.293ZM770.213 397.82C771.049 397.82 771.732 397.52 772.264 396.918C772.795 396.316 773.061 395.582 773.061 394.715C773.061 393.816 772.795 393.074 772.264 392.488C771.74 391.895 771.057 391.598 770.213 391.598C769.361 391.598 768.67 391.895 768.139 392.488C767.615 393.082 767.354 393.832 767.354 394.738C767.354 395.613 767.619 396.348 768.15 396.941C768.682 397.527 769.369 397.82 770.213 397.82ZM778.064 400V383.699H780.971V400H778.064Z" fill="#131313"/>
<g filter="url(#filter11_d_210_9)">
<rect x="95" y="519" width="160" height="40" rx="7" fill="#EEE6D9"/>
<rect x="94.5" y="518.5" width="161" height="41" rx="7.5" stroke="#D7B185"/>
</g>
<path d="M149.324 546L147.977 542.637H141.672L140.324 546H137.348L144.168 530.227H145.457L152.348 546H149.324ZM142.656 540.188H146.992L144.836 534.715L142.656 540.188ZM153.812 546V529.699H156.719V546H153.812ZM165.941 535.148C167.41 535.148 168.605 535.66 169.527 536.684C170.449 537.707 170.906 539.051 170.898 540.715C170.898 542.348 170.422 543.688 169.469 544.734C168.523 545.773 167.336 546.293 165.906 546.293C164.43 546.293 163.312 545.82 162.555 544.875V550.605H159.648V535.535H162.379V536.883C163.184 535.727 164.371 535.148 165.941 535.148ZM163.211 542.941C163.734 543.512 164.418 543.797 165.262 543.797C166.105 543.797 166.789 543.508 167.312 542.93C167.836 542.352 168.105 541.613 168.121 540.715C168.121 539.801 167.859 539.062 167.336 538.5C166.812 537.93 166.121 537.645 165.262 537.645C164.418 537.645 163.734 537.93 163.211 538.5C162.688 539.07 162.426 539.816 162.426 540.738C162.426 541.629 162.688 542.363 163.211 542.941ZM183.379 530.496H186.191V546.117H184.891L176.207 536.18V546H173.371V530.355H174.695L183.379 540.27V530.496ZM198.859 533.262H193.035V537.27H198.332V540.023H193.035V546H190.082V530.496H198.859V533.262ZM212.406 530.496V533.262H207.637V546H204.707V533.262H199.961V530.496H212.406Z" fill="#131313"/>
<g filter="url(#filter12_d_210_9)">
<rect x="604" y="519" width="160" height="40" rx="7" fill="#EEE6D9"/>
<rect x="603.5" y="518.5" width="161" height="41" rx="7.5" stroke="#D7B185"/>
</g>
<path d="M639.336 546L637.988 542.637H631.684L630.336 546H627.359L634.18 530.227H635.469L642.359 546H639.336ZM632.668 540.188H637.004L634.848 534.715L632.668 540.188ZM643.824 546V529.699H646.73V546H643.824ZM655.953 535.148C657.422 535.148 658.617 535.66 659.539 536.684C660.461 537.707 660.918 539.051 660.91 540.715C660.91 542.348 660.434 543.688 659.48 544.734C658.535 545.773 657.348 546.293 655.918 546.293C654.441 546.293 653.324 545.82 652.566 544.875V550.605H649.66V535.535H652.391V536.883C653.195 535.727 654.383 535.148 655.953 535.148ZM653.223 542.941C653.746 543.512 654.43 543.797 655.273 543.797C656.117 543.797 656.801 543.508 657.324 542.93C657.848 542.352 658.117 541.613 658.133 540.715C658.133 539.801 657.871 539.062 657.348 538.5C656.824 537.93 656.133 537.645 655.273 537.645C654.43 537.645 653.746 537.93 653.223 538.5C652.699 539.07 652.438 539.816 652.438 540.738C652.438 541.629 652.699 542.363 653.223 542.941ZM667.965 546.293C666.465 546.293 665.262 545.973 664.355 545.332C663.457 544.684 662.836 543.707 662.492 542.402L665.059 541.441C665.316 542.262 665.684 542.848 666.16 543.199C666.637 543.543 667.285 543.715 668.105 543.715C668.848 543.715 669.438 543.535 669.875 543.176C670.312 542.809 670.531 542.316 670.531 541.699C670.531 541.098 670.309 540.617 669.863 540.258C669.418 539.898 668.59 539.566 667.379 539.262C665.84 538.871 664.711 538.301 663.992 537.551C663.273 536.793 662.914 535.785 662.914 534.527C662.914 533.215 663.367 532.164 664.273 531.375C665.18 530.578 666.41 530.18 667.965 530.18C670.496 530.18 672.117 531.246 672.828 533.379L670.285 534.434C669.973 533.316 669.156 532.758 667.836 532.758C667.188 532.758 666.676 532.902 666.301 533.191C665.926 533.48 665.742 533.871 665.75 534.363C665.766 534.934 666 535.379 666.453 535.699C666.906 536.02 667.793 536.355 669.113 536.707C670.605 537.121 671.688 537.715 672.359 538.488C673.039 539.262 673.379 540.301 673.379 541.605C673.379 543.035 672.891 544.176 671.914 545.027C670.938 545.871 669.621 546.293 667.965 546.293ZM681.324 543.07L683.234 544.301C682.586 545.629 681.438 546.293 679.789 546.293C678.672 546.293 677.801 546 677.176 545.414C676.559 544.828 676.25 543.984 676.25 542.883L676.285 537.914H674.211V537.293L678.465 533.309H679.086V535.535H682.637L682.613 537.914H679.156V542.66C679.156 543.004 679.242 543.281 679.414 543.492C679.586 543.695 679.844 543.797 680.188 543.797C680.469 543.797 680.691 543.742 680.855 543.633C681.027 543.516 681.184 543.328 681.324 543.07ZM693.723 543.668L694.484 545.52C693.984 545.965 693.297 546.188 692.422 546.188C691.344 546.188 690.68 545.781 690.43 544.969C689.766 545.836 688.727 546.27 687.312 546.27C686.273 546.27 685.461 546 684.875 545.461C684.289 544.922 683.996 544.191 683.996 543.27C683.996 542.316 684.352 541.543 685.062 540.949C685.773 540.348 686.805 540.047 688.156 540.047H690.125V539.426C690.125 538.191 689.578 537.574 688.484 537.574C687.57 537.574 687.004 538 686.785 538.852L684.336 538.125C684.586 537.203 685.074 536.477 685.801 535.945C686.527 535.414 687.496 535.148 688.707 535.148C690.012 535.148 691.035 535.5 691.777 536.203C692.527 536.906 692.902 538.004 692.902 539.496V543.387C692.902 543.691 693.047 543.844 693.336 543.844C693.477 543.844 693.605 543.785 693.723 543.668ZM688.109 544.148C688.711 544.148 689.199 543.949 689.574 543.551C689.957 543.145 690.148 542.586 690.148 541.875H688.227C687.789 541.875 687.441 541.98 687.184 542.191C686.934 542.395 686.809 542.68 686.809 543.047C686.809 543.398 686.922 543.672 687.148 543.867C687.383 544.055 687.703 544.148 688.109 544.148ZM700.719 546.27C699.695 546.27 698.785 546.066 697.988 545.66C697.191 545.246 696.551 544.613 696.066 543.762C695.59 542.902 695.352 541.879 695.352 540.691C695.352 539.848 695.5 539.074 695.797 538.371C696.094 537.668 696.492 537.086 696.992 536.625C697.5 536.156 698.09 535.793 698.762 535.535C699.434 535.277 700.145 535.148 700.895 535.148C702.996 535.148 704.492 535.996 705.383 537.691L703.285 539.086C702.762 538.125 701.965 537.645 700.895 537.645C700.098 537.645 699.438 537.918 698.914 538.465C698.391 539.012 698.129 539.754 698.129 540.691C698.129 541.66 698.391 542.422 698.914 542.977C699.438 543.523 700.098 543.797 700.895 543.797C701.52 543.797 702.023 543.68 702.406 543.445C702.789 543.211 703.109 542.84 703.367 542.332L705.43 543.668C704.555 545.402 702.984 546.27 700.719 546.27ZM717.301 546H713.867L710.223 541.172V546H707.316V529.699H710.223V540.094L713.727 535.535H716.984L713.129 540.48L717.301 546ZM720.219 533.859C719.68 533.859 719.223 533.672 718.848 533.297C718.48 532.914 718.297 532.453 718.297 531.914C718.297 531.383 718.48 530.934 718.848 530.566C719.223 530.199 719.68 530.016 720.219 530.016C720.75 530.016 721.203 530.203 721.578 530.578C721.953 530.945 722.141 531.391 722.141 531.914C722.141 532.453 721.953 532.914 721.578 533.297C721.203 533.672 720.75 533.859 720.219 533.859ZM718.754 546V535.535H721.66V546H718.754ZM730.707 535.148C732.051 535.148 733.074 535.566 733.777 536.402C734.48 537.23 734.832 538.359 734.832 539.789V546H731.961V540.117C731.961 539.352 731.77 538.75 731.387 538.312C731.012 537.867 730.465 537.645 729.746 537.645C729.043 537.645 728.492 537.879 728.094 538.348C727.695 538.809 727.496 539.406 727.496 540.141V546H724.59V535.535H727.273V536.707C728.031 535.668 729.176 535.148 730.707 535.148ZM747.055 535.535L747.031 537.773H745.133C745.516 538.375 745.707 539.004 745.707 539.66C745.707 540.777 745.148 541.777 744.031 542.66L742.777 543.715C742.512 543.926 742.297 544.062 742.133 544.125H743.434C744.574 544.125 745.441 544.391 746.035 544.922C746.637 545.445 746.938 546.188 746.938 547.148C746.938 548.258 746.461 549.152 745.508 549.832C744.562 550.512 743.262 550.852 741.605 550.852C740.324 550.852 739.266 550.66 738.43 550.277C737.602 549.895 736.973 549.301 736.543 548.496L738.559 546.961C738.855 547.508 739.238 547.906 739.707 548.156C740.176 548.414 740.801 548.543 741.582 548.543C743.371 548.543 744.266 548.129 744.266 547.301C744.266 546.676 743.891 546.363 743.141 546.363H739.203V544.605L740.691 543.34C739.527 543.23 738.602 542.84 737.914 542.168C737.234 541.496 736.895 540.613 736.895 539.52C736.895 538.363 737.309 537.41 738.137 536.66C738.965 535.91 740.031 535.535 741.336 535.535H747.055ZM739.613 539.52C739.613 540.043 739.766 540.473 740.07 540.809C740.383 541.137 740.805 541.301 741.336 541.301C741.828 541.301 742.23 541.129 742.543 540.785C742.863 540.441 743.023 540.02 743.023 539.52C743.023 539.02 742.867 538.609 742.555 538.289C742.25 537.961 741.844 537.797 741.336 537.797C740.797 537.797 740.375 537.957 740.07 538.277C739.766 538.598 739.613 539.012 739.613 539.52Z" fill="#131313"/>
<defs>
<filter id="filter0_d_210_9" x="111" y="72" width="640" height="640" filterUnits="userSpaceOnUse" color-interpolation-filters="sRGB">
<feFlood flood-opacity="0" result="BackgroundImageFix"/>
<feColorMatrix in="SourceAlpha" type="matrix" values="0 0 0 0 0 0 0 0 0 0 0 0 0 0 0 0 0 0 127 0" result="hardAlpha"/>
<feOffset dy="4"/>
<feGaussianBlur stdDeviation="17.5"/>
<feComposite in2="hardAlpha" operator="out"/>
<feColorMatrix type="matrix" values="0 0 0 0 0.898039 0 0 0 0 0.898039 0 0 0 0 0.898039 0 0 0 0.76 0"/>
<feBlend mode="multiply" in2="BackgroundImageFix" result="effect1_dropShadow_210_9"/>
<feBlend mode="normal" in="SourceGraphic" in2="effect1_dropShadow_210_9" result="shape"/>
</filter>
<filter id="filter1_d_210_9" x="59" y="193" width="232" height="112" filterUnits="userSpaceOnUse" color-interpolation-filters="sRGB">
<feFlood flood-opacity="0" result="BackgroundImageFix"/>
<feColorMatrix in="SourceAlpha" type="matrix" values="0 0 0 0 0 0 0 0 0 0 0 0 0 0 0 0 0 0 127 0" result="hardAlpha"/>
<feOffset dy="4"/>
<feGaussianBlur stdDeviation="17.5"/>
<feComposite in2="hardAlpha" operator="out"/>
<feColorMatrix type="matrix" values="0 0 0 0 0.898039 0 0 0 0 0.898039 0 0 0 0 0.898039 0 0 0 0.76 0"/>
<feBlend mode="multiply" in2="BackgroundImageFix" result="effect1_dropShadow_210_9"/>
<feBlend mode="normal" in="SourceGraphic" in2="effect1_dropShadow_210_9" result="shape"/>
</filter>
<filter id="filter2_d_210_9" x="250" y="250" width="184" height="112" filterUnits="userSpaceOnUse" color-interpolation-filters="sRGB">
<feFlood flood-opacity="0" result="BackgroundImageFix"/>
<feColorMatrix in="SourceAlpha" type="matrix" values="0 0 0 0 0 0 0 0 0 0 0 0 0 0 0 0 0 0 127 0" result="hardAlpha"/>
<feOffset dy="4"/>
<feGaussianBlur stdDeviation="17.5"/>
<feComposite in2="hardAlpha" operator="out"/>
<feColorMatrix type="matrix" values="0 0 0 0 0.898039 0 0 0 0 0.898039 0 0 0 0 0.898039 0 0 0 0.76 0"/>
<feBlend mode="multiply" in2="BackgroundImageFix" result="effect1_dropShadow_210_9"/>
<feBlend mode="normal" in="SourceGraphic" in2="effect1_dropShadow_210_9" result="shape"/>
</filter>
<filter id="filter3_d_210_9" x="250" y="432" width="184" height="112" filterUnits="userSpaceOnUse" color-interpolation-filters="sRGB">
<feFlood flood-opacity="0" result="BackgroundImageFix"/>
<feColorMatrix in="SourceAlpha" type="matrix" values="0 0 0 0 0 0 0 0 0 0 0 0 0 0 0 0 0 0 127 0" result="hardAlpha"/>
<feOffset dy="4"/>
<feGaussianBlur stdDeviation="17.5"/>
<feComposite in2="hardAlpha" operator="out"/>
<feColorMatrix type="matrix" values="0 0 0 0 0.898039 0 0 0 0 0.898039 0 0 0 0 0.898039 0 0 0 0.76 0"/>
<feBlend mode="multiply" in2="BackgroundImageFix" result="effect1_dropShadow_210_9"/>
<feBlend mode="normal" in="SourceGraphic" in2="effect1_dropShadow_210_9" result="shape"/>
</filter>
<filter id="filter4_d_210_9" x="425" y="250" width="184" height="112" filterUnits="userSpaceOnUse" color-interpolation-filters="sRGB">
<feFlood flood-opacity="0" result="BackgroundImageFix"/>
<feColorMatrix in="SourceAlpha" type="matrix" values="0 0 0 0 0 0 0 0 0 0 0 0 0 0 0 0 0 0 127 0" result="hardAlpha"/>
<feOffset dy="4"/>
<feGaussianBlur stdDeviation="17.5"/>
<feComposite in2="hardAlpha" operator="out"/>
<feColorMatrix type="matrix" values="0 0 0 0 0.898039 0 0 0 0 0.898039 0 0 0 0 0.898039 0 0 0 0.76 0"/>
<feBlend mode="multiply" in2="BackgroundImageFix" result="effect1_dropShadow_210_9"/>
<feBlend mode="normal" in="SourceGraphic" in2="effect1_dropShadow_210_9" result="shape"/>
</filter>
<filter id="filter5_d_210_9" x="425" y="432" width="184" height="112" filterUnits="userSpaceOnUse" color-interpolation-filters="sRGB">
<feFlood flood-opacity="0" result="BackgroundImageFix"/>
<feColorMatrix in="SourceAlpha" type="matrix" values="0 0 0 0 0 0 0 0 0 0 0 0 0 0 0 0 0 0 127 0" result="hardAlpha"/>
<feOffset dy="4"/>
<feGaussianBlur stdDeviation="17.5"/>
<feComposite in2="hardAlpha" operator="out"/>
<feColorMatrix type="matrix" values="0 0 0 0 0.898039 0 0 0 0 0.898039 0 0 0 0 0.898039 0 0 0 0.76 0"/>
<feBlend mode="multiply" in2="BackgroundImageFix" result="effect1_dropShadow_210_9"/>
<feBlend mode="normal" in="SourceGraphic" in2="effect1_dropShadow_210_9" result="shape"/>
</filter>
<filter id="filter6_d_210_9" x="568" y="193" width="232" height="112" filterUnits="userSpaceOnUse" color-interpolation-filters="sRGB">
<feFlood flood-opacity="0" result="BackgroundImageFix"/>
<feColorMatrix in="SourceAlpha" type="matrix" values="0 0 0 0 0 0 0 0 0 0 0 0 0 0 0 0 0 0 127 0" result="hardAlpha"/>
<feOffset dy="4"/>
<feGaussianBlur stdDeviation="17.5"/>
<feComposite in2="hardAlpha" operator="out"/>
<feColorMatrix type="matrix" values="0 0 0 0 0.898039 0 0 0 0 0.898039 0 0 0 0 0.898039 0 0 0 0.76 0"/>
<feBlend mode="multiply" in2="BackgroundImageFix" result="effect1_dropShadow_210_9"/>
<feBlend mode="normal" in="SourceGraphic" in2="effect1_dropShadow_210_9" result="shape"/>
</filter>
<filter id="filter7_d_210_9" x="315" y="609" width="232" height="112" filterUnits="userSpaceOnUse" color-interpolation-filters="sRGB">
<feFlood flood-opacity="0" result="BackgroundImageFix"/>
<feColorMatrix in="SourceAlpha" type="matrix" values="0 0 0 0 0 0 0 0 0 0 0 0 0 0 0 0 0 0 127 0" result="hardAlpha"/>
<feOffset dy="4"/>
<feGaussianBlur stdDeviation="17.5"/>
<feComposite in2="hardAlpha" operator="out"/>
<feColorMatrix type="matrix" values="0 0 0 0 0.898039 0 0 0 0 0.898039 0 0 0 0 0.898039 0 0 0 0.76 0"/>
<feBlend mode="multiply" in2="BackgroundImageFix" result="effect1_dropShadow_210_9"/>
<feBlend mode="normal" in="SourceGraphic" in2="effect1_dropShadow_210_9" result="shape"/>
</filter>
<filter id="filter8_d_210_9" x="263" y="69" width="336" height="112" filterUnits="userSpaceOnUse" color-interpolation-filters="sRGB">
<feFlood flood-opacity="0" result="BackgroundImageFix"/>
<feColorMatrix in="SourceAlpha" type="matrix" values="0 0 0 0 0 0 0 0 0 0 0 0 0 0 0 0 0 0 127 0" result="hardAlpha"/>
<feOffset dy="4"/>
<feGaussianBlur stdDeviation="17.5"/>
<feComposite in2="hardAlpha" operator="out"/>
<feColorMatrix type="matrix" values="0 0 0 0 0.898039 0 0 0 0 0.898039 0 0 0 0 0.898039 0 0 0 0.76 0"/>
<feBlend mode="multiply" in2="BackgroundImageFix" result="effect1_dropShadow_210_9"/>
<feBlend mode="normal" in="SourceGraphic" in2="effect1_dropShadow_210_9" result="shape"/>
</filter>
<filter id="filter9_d_210_9" x="0" y="341" width="232" height="112" filterUnits="userSpaceOnUse" color-interpolation-filters="sRGB">
<feFlood flood-opacity="0" result="BackgroundImageFix"/>
<feColorMatrix in="SourceAlpha" type="matrix" values="0 0 0 0 0 0 0 0 0 0 0 0 0 0 0 0 0 0 127 0" result="hardAlpha"/>
<feOffset dy="4"/>
<feGaussianBlur stdDeviation="17.5"/>
<feComposite in2="hardAlpha" operator="out"/>
<feColorMatrix type="matrix" values="0 0 0 0 0.898039 0 0 0 0 0.898039 0 0 0 0 0.898039 0 0 0 0.76 0"/>
<feBlend mode="multiply" in2="BackgroundImageFix" result="effect1_dropShadow_210_9"/>
<feBlend mode="normal" in="SourceGraphic" in2="effect1_dropShadow_210_9" result="shape"/>
</filter>
<filter id="filter10_d_210_9" x="626" y="341" width="232.424" height="112" filterUnits="userSpaceOnUse" color-interpolation-filters="sRGB">
<feFlood flood-opacity="0" result="BackgroundImageFix"/>
<feColorMatrix in="SourceAlpha" type="matrix" values="0 0 0 0 0 0 0 0 0 0 0 0 0 0 0 0 0 0 127 0" result="hardAlpha"/>
<feOffset dy="4"/>
<feGaussianBlur stdDeviation="17.5"/>
<feComposite in2="hardAlpha" operator="out"/>
<feColorMatrix type="matrix" values="0 0 0 0 0.898039 0 0 0 0 0.898039 0 0 0 0 0.898039 0 0 0 0.76 0"/>
<feBlend mode="multiply" in2="BackgroundImageFix" result="effect1_dropShadow_210_9"/>
<feBlend mode="normal" in="SourceGraphic" in2="effect1_dropShadow_210_9" result="shape"/>
</filter>
<filter id="filter11_d_210_9" x="59" y="487" width="232" height="112" filterUnits="userSpaceOnUse" color-interpolation-filters="sRGB">
<feFlood flood-opacity="0" result="BackgroundImageFix"/>
<feColorMatrix in="SourceAlpha" type="matrix" values="0 0 0 0 0 0 0 0 0 0 0 0 0 0 0 0 0 0 127 0" result="hardAlpha"/>
<feOffset dy="4"/>
<feGaussianBlur stdDeviation="17.5"/>
<feComposite in2="hardAlpha" operator="out"/>
<feColorMatrix type="matrix" values="0 0 0 0 0.898039 0 0 0 0 0.898039 0 0 0 0 0.898039 0 0 0 0.76 0"/>
<feBlend mode="multiply" in2="BackgroundImageFix" result="effect1_dropShadow_210_9"/>
<feBlend mode="normal" in="SourceGraphic" in2="effect1_dropShadow_210_9" result="shape"/>
</filter>
<filter id="filter12_d_210_9" x="568" y="487" width="232" height="112" filterUnits="userSpaceOnUse" color-interpolation-filters="sRGB">
<feFlood flood-opacity="0" result="BackgroundImageFix"/>
<feColorMatrix in="SourceAlpha" type="matrix" values="0 0 0 0 0 0 0 0 0 0 0 0 0 0 0 0 0 0 127 0" result="hardAlpha"/>
<feOffset dy="4"/>
<feGaussianBlur stdDeviation="17.5"/>
<feComposite in2="hardAlpha" operator="out"/>
<feColorMatrix type="matrix" values="0 0 0 0 0.898039 0 0 0 0 0.898039 0 0 0 0 0.898039 0 0 0 0.76 0"/>
<feBlend mode="multiply" in2="BackgroundImageFix" result="effect1_dropShadow_210_9"/>
<feBlend mode="normal" in="SourceGraphic" in2="effect1_dropShadow_210_9" result="shape"/>
</filter>
<linearGradient id="paint0_linear_210_9" x1="486.372" y1="366" x2="378.735" y2="366" gradientUnits="userSpaceOnUse">
<stop stop-color="#C9BA9B"/>
<stop offset="1" stop-color="#A07E3F"/>
</linearGradient>
</defs>
</svg>
