<svg width="82" height="82" viewBox="0 0 82 82" fill="none" xmlns="http://www.w3.org/2000/svg">
<rect width="82" height="82" rx="20" fill="#FAF7F2"/>
<path d="M41.9997 39.3333C44.2098 39.3333 46.3294 40.2112 47.8922 41.774C49.455 43.3368 50.333 45.4564 50.333 47.6666V57.6666H46.9997V47.6666C46.9997 46.3912 46.5125 45.1641 45.6375 44.2362C44.7626 43.3082 43.5662 42.7497 42.293 42.6749L41.9997 42.6666C40.7243 42.6665 39.4972 43.1538 38.5692 44.0287C37.6413 44.9037 37.0828 46.1001 37.008 47.3733L36.9997 47.6666V57.6666H33.6663V47.6666C33.6663 45.4564 34.5443 43.3368 36.1071 41.774C37.6699 40.2112 39.7895 39.3333 41.9997 39.3333ZM31.1663 44.3333C31.6313 44.3333 32.083 44.3883 32.5163 44.4899C32.2314 45.3383 32.0626 46.2213 32.0147 47.1149L31.9997 47.6666V47.8099C31.8081 47.7414 31.6088 47.6966 31.4063 47.6766L31.1663 47.6666C30.5449 47.6666 29.9457 47.8981 29.4856 48.316C29.0256 48.7338 28.7377 49.308 28.678 49.9266L28.6663 50.1666V57.6666H25.333V50.1666C25.333 48.6195 25.9476 47.1358 27.0416 46.0418C28.1355 44.9478 29.6192 44.3333 31.1663 44.3333ZM52.833 44.3333C54.3801 44.3333 55.8638 44.9478 56.9578 46.0418C58.0518 47.1358 58.6663 48.6195 58.6663 50.1666V57.6666H55.333V50.1666C55.333 49.5451 55.1015 48.9459 54.6836 48.4859C54.2658 48.0258 53.6916 47.7379 53.073 47.6783L52.833 47.6666C52.5413 47.6666 52.2613 47.7166 51.9997 47.8083V47.6666C51.9997 46.5566 51.8197 45.4899 51.4847 44.4933C51.9163 44.3883 52.368 44.3333 52.833 44.3333ZM31.1663 34.3333C32.2714 34.3333 33.3312 34.7722 34.1126 35.5536C34.894 36.335 35.333 37.3949 35.333 38.4999C35.333 39.605 34.894 40.6648 34.1126 41.4462C33.3312 42.2276 32.2714 42.6666 31.1663 42.6666C30.0613 42.6666 29.0015 42.2276 28.2201 41.4462C27.4387 40.6648 26.9997 39.605 26.9997 38.4999C26.9997 37.3949 27.4387 36.335 28.2201 35.5536C29.0015 34.7722 30.0613 34.3333 31.1663 34.3333ZM52.833 34.3333C53.9381 34.3333 54.9979 34.7722 55.7793 35.5536C56.5607 36.335 56.9997 37.3949 56.9997 38.4999C56.9997 39.605 56.5607 40.6648 55.7793 41.4462C54.9979 42.2276 53.9381 42.6666 52.833 42.6666C51.7279 42.6666 50.6681 42.2276 49.8867 41.4462C49.1053 40.6648 48.6663 39.605 48.6663 38.4999C48.6663 37.3949 49.1053 36.335 49.8867 35.5536C50.6681 34.7722 51.7279 34.3333 52.833 34.3333ZM31.1663 37.6666C30.9453 37.6666 30.7334 37.7544 30.5771 37.9107C30.4208 38.0669 30.333 38.2789 30.333 38.4999C30.333 38.7209 30.4208 38.9329 30.5771 39.0892C30.7334 39.2455 30.9453 39.3333 31.1663 39.3333C31.3874 39.3333 31.5993 39.2455 31.7556 39.0892C31.9119 38.9329 31.9997 38.7209 31.9997 38.4999C31.9997 38.2789 31.9119 38.0669 31.7556 37.9107C31.5993 37.7544 31.3874 37.6666 31.1663 37.6666ZM52.833 37.6666C52.612 37.6666 52.4 37.7544 52.2438 37.9107C52.0875 38.0669 51.9997 38.2789 51.9997 38.4999C51.9997 38.7209 52.0875 38.9329 52.2438 39.0892C52.4 39.2455 52.612 39.3333 52.833 39.3333C53.054 39.3333 53.266 39.2455 53.4223 39.0892C53.5785 38.9329 53.6663 38.7209 53.6663 38.4999C53.6663 38.2789 53.5785 38.0669 53.4223 37.9107C53.266 37.7544 53.054 37.6666 52.833 37.6666ZM41.9997 24.3333C43.7678 24.3333 45.4635 25.0356 46.7137 26.2859C47.964 27.5361 48.6663 29.2318 48.6663 30.9999C48.6663 32.768 47.964 34.4637 46.7137 35.714C45.4635 36.9642 43.7678 37.6666 41.9997 37.6666C40.2316 37.6666 38.5359 36.9642 37.2856 35.714C36.0354 34.4637 35.333 32.768 35.333 30.9999C35.333 29.2318 36.0354 27.5361 37.2856 26.2859C38.5359 25.0356 40.2316 24.3333 41.9997 24.3333ZM41.9997 27.6666C41.1156 27.6666 40.2678 28.0178 39.6427 28.6429C39.0175 29.268 38.6663 30.1159 38.6663 30.9999C38.6663 31.884 39.0175 32.7318 39.6427 33.3569C40.2678 33.9821 41.1156 34.3333 41.9997 34.3333C42.8837 34.3333 43.7316 33.9821 44.3567 33.3569C44.9818 32.7318 45.333 31.884 45.333 30.9999C45.333 30.1159 44.9818 29.268 44.3567 28.6429C43.7316 28.0178 42.8837 27.6666 41.9997 27.6666Z" fill="url(#paint0_linear_209_3)"/>
<defs>
<linearGradient id="paint0_linear_209_3" x1="41.9997" y1="24.3333" x2="41.9997" y2="57.6666" gradientUnits="userSpaceOnUse">
<stop stop-color="#A07E3F"/>
<stop offset="1" stop-color="#D7B185"/>
</linearGradient>
</defs>
</svg>
