<svg width="48" height="36" viewBox="0 0 48 36" fill="none" xmlns="http://www.w3.org/2000/svg">
<path d="M5.54381 23.6852L6.423 31.4511C6.43481 31.5641 6.45844 31.6755 6.49388 31.7835C7.18913 33.9199 9.17869 35.28 11.3117 35.28C11.8314 35.28 12.3562 35.199 12.876 35.0303C15.5288 34.1663 16.9867 31.3043 16.1227 28.6498L14.7221 24.345H15.1626L28.3065 30.9178C28.5461 31.0359 28.8026 31.095 29.0608 31.095C29.3696 31.095 29.6768 31.0106 29.9468 30.8436C30.4463 30.5364 30.75 29.9931 30.75 29.4075V22.4179C33.6542 21.6636 35.8125 19.0429 35.8125 15.9075C35.8125 12.7721 33.6542 10.1515 30.75 9.39714V2.40751C30.75 1.82195 30.4462 1.28026 29.9484 0.97145C29.4506 0.662638 28.8296 0.635637 28.3065 0.8972L15.1642 7.47001H8.8125C4.16006 7.47001 0.375 11.2551 0.375 15.9075C0.375 19.4023 2.50969 22.4061 5.54381 23.6852ZM12.9131 29.6944C13.2017 30.5786 12.7174 31.5321 11.8314 31.8206C10.9894 32.0957 10.0899 31.6704 9.75413 30.8723L9.01331 24.345H11.1716L12.9131 29.6944ZM32.4375 15.9075C32.4375 17.1512 31.7541 18.2278 30.75 18.8134V13.0033C31.7541 13.5872 32.4375 14.6638 32.4375 15.9075ZM27.375 26.6771L17.25 21.6146V10.2004L27.375 5.13789V26.6771ZM8.8125 10.845H13.875V20.97H8.8125C6.02137 20.97 3.75 18.6986 3.75 15.9075C3.75 13.1164 6.02137 10.845 8.8125 10.845Z" fill="url(#paint0_linear_104_5574)"/>
<path d="M42.5625 17.595H45.9375C46.8707 17.595 47.625 16.839 47.625 15.9075C47.625 14.976 46.8707 14.22 45.9375 14.22H42.5625C41.6293 14.22 40.875 14.976 40.875 15.9075C40.875 16.839 41.6293 17.595 42.5625 17.595Z" fill="url(#paint1_linear_104_5574)"/>
<path d="M42.5624 8.66316C42.9944 8.66316 43.4264 8.49778 43.7555 8.16872L46.1416 5.7826C46.8014 5.12278 46.8014 4.05628 46.1416 3.39647C45.4818 2.73666 44.4153 2.73666 43.7555 3.39647L41.3694 5.7826C40.7096 6.44241 40.7096 7.50891 41.3694 8.16872C41.6984 8.49947 42.1304 8.66316 42.5624 8.66316Z" fill="url(#paint2_linear_104_5574)"/>
<path d="M43.7555 28.4187C44.0846 28.7478 44.5166 28.9132 44.9486 28.9132C45.3806 28.9132 45.8126 28.7478 46.1416 28.4187C46.8014 27.7589 46.8014 26.6924 46.1416 26.0326L43.7555 23.6465C43.0957 22.9867 42.0292 22.9867 41.3694 23.6465C40.7096 24.3063 40.7096 25.3728 41.3694 26.0326L43.7555 28.4187Z" fill="url(#paint3_linear_104_5574)"/>
<defs>
<linearGradient id="paint0_linear_104_5574" x1="18.0938" y1="0.71875" x2="18.0938" y2="35.28" gradientUnits="userSpaceOnUse">
<stop stop-color="#A07E3F"/>
<stop offset="1" stop-color="#D7B185"/>
</linearGradient>
<linearGradient id="paint1_linear_104_5574" x1="44.25" y1="14.22" x2="44.25" y2="17.595" gradientUnits="userSpaceOnUse">
<stop stop-color="#A07E3F"/>
<stop offset="1" stop-color="#D7B185"/>
</linearGradient>
<linearGradient id="paint2_linear_104_5574" x1="43.7555" y1="2.90161" x2="43.7555" y2="8.66316" gradientUnits="userSpaceOnUse">
<stop stop-color="#A07E3F"/>
<stop offset="1" stop-color="#D7B185"/>
</linearGradient>
<linearGradient id="paint3_linear_104_5574" x1="43.7555" y1="23.1516" x2="43.7555" y2="28.9132" gradientUnits="userSpaceOnUse">
<stop stop-color="#A07E3F"/>
<stop offset="1" stop-color="#D7B185"/>
</linearGradient>
</defs>
</svg>
