<svg width="26" height="24" viewBox="0 0 26 24" fill="none" xmlns="http://www.w3.org/2000/svg">
<path d="M24.525 12C25.1472 11.3155 25.4945 10.4251 25.5 9.5C25.5 8.50544 25.1049 7.55161 24.4017 6.84835C23.6984 6.14509 22.7446 5.75 21.75 5.75H15.275C15.4747 5.18522 15.5362 4.58082 15.4543 3.98741C15.3724 3.39399 15.1495 2.82883 14.8044 2.33923C14.4592 1.84963 14.0018 1.44985 13.4704 1.17335C12.939 0.896849 12.349 0.751682 11.75 0.75H4.25C3.25544 0.75 2.30161 1.14509 1.59835 1.84835C0.895088 2.55161 0.5 3.50544 0.5 4.5C0.505513 5.42507 0.852764 6.31545 1.475 7C0.860056 7.68753 0.520085 8.57758 0.520085 9.5C0.520085 10.4224 0.860056 11.3125 1.475 12C0.860056 12.6875 0.520085 13.5776 0.520085 14.5C0.520085 15.4224 0.860056 16.3125 1.475 17C0.852764 17.6845 0.505513 18.5749 0.5 19.5C0.5 20.4946 0.895088 21.4484 1.59835 22.1517C2.30161 22.8549 3.25544 23.25 4.25 23.25H21.75C22.4722 23.2461 23.1779 23.0338 23.7824 22.6385C24.3868 22.2433 24.8642 21.6819 25.1573 21.0218C25.4504 20.3617 25.5466 19.6311 25.4345 18.9176C25.3223 18.2042 25.0065 17.5383 24.525 17C25.1399 16.3125 25.4799 15.4224 25.4799 14.5C25.4799 13.5776 25.1399 12.6875 24.525 12ZM11.75 20.75H4.25C3.91848 20.75 3.60054 20.6183 3.36612 20.3839C3.1317 20.1495 3 19.8315 3 19.5C3 19.1685 3.1317 18.8505 3.36612 18.6161C3.60054 18.3817 3.91848 18.25 4.25 18.25H11.75C12.0815 18.25 12.3995 18.3817 12.6339 18.6161C12.8683 18.8505 13 19.1685 13 19.5C13 19.8315 12.8683 20.1495 12.6339 20.3839C12.3995 20.6183 12.0815 20.75 11.75 20.75ZM11.75 15.75H4.25C3.91848 15.75 3.60054 15.6183 3.36612 15.3839C3.1317 15.1495 3 14.8315 3 14.5C3 14.1685 3.1317 13.8505 3.36612 13.6161C3.60054 13.3817 3.91848 13.25 4.25 13.25H11.75C12.0815 13.25 12.3995 13.3817 12.6339 13.6161C12.8683 13.8505 13 14.1685 13 14.5C13 14.8315 12.8683 15.1495 12.6339 15.3839C12.3995 15.6183 12.0815 15.75 11.75 15.75ZM11.75 10.75H4.25C3.91848 10.75 3.60054 10.6183 3.36612 10.3839C3.1317 10.1495 3 9.83152 3 9.5C3 9.16848 3.1317 8.85054 3.36612 8.61612C3.60054 8.3817 3.91848 8.25 4.25 8.25H11.75C12.0815 8.25 12.3995 8.3817 12.6339 8.61612C12.8683 8.85054 13 9.16848 13 9.5C13 9.83152 12.8683 10.1495 12.6339 10.3839C12.3995 10.6183 12.0815 10.75 11.75 10.75ZM11.75 5.75H4.25C3.91848 5.75 3.60054 5.6183 3.36612 5.38388C3.1317 5.14946 3 4.83152 3 4.5C3 4.16848 3.1317 3.85054 3.36612 3.61612C3.60054 3.3817 3.91848 3.25 4.25 3.25H11.75C12.0815 3.25 12.3995 3.3817 12.6339 3.61612C12.8683 3.85054 13 4.16848 13 4.5C13 4.83152 12.8683 5.14946 12.6339 5.38388C12.3995 5.6183 12.0815 5.75 11.75 5.75ZM22.6125 20.3875C22.5017 20.5044 22.3678 20.5969 22.2193 20.6593C22.0709 20.7217 21.911 20.7526 21.75 20.75H15.275C15.5748 19.9436 15.5748 19.0564 15.275 18.25H21.75C22.0815 18.25 22.3995 18.3817 22.6339 18.6161C22.8683 18.8505 23 19.1685 23 19.5C22.9977 19.6663 22.9622 19.8304 22.8957 19.9828C22.8291 20.1352 22.7329 20.2728 22.6125 20.3875ZM22.6125 15.3875C22.5017 15.5044 22.3678 15.5969 22.2193 15.6593C22.0709 15.7217 21.911 15.7526 21.75 15.75H15.275C15.5748 14.9436 15.5748 14.0564 15.275 13.25H21.75C22.0815 13.25 22.3995 13.3817 22.6339 13.6161C22.8683 13.8505 23 14.1685 23 14.5C22.9977 14.6663 22.9622 14.8304 22.8957 14.9828C22.8291 15.1352 22.7329 15.2728 22.6125 15.3875ZM22.6125 10.3875C22.5017 10.5044 22.3678 10.5969 22.2193 10.6593C22.0709 10.7217 21.911 10.7526 21.75 10.75H15.275C15.5748 9.94362 15.5748 9.05638 15.275 8.25H21.75C22.0815 8.25 22.3995 8.3817 22.6339 8.61612C22.8683 8.85054 23 9.16848 23 9.5C22.9977 9.66627 22.9622 9.83041 22.8957 9.9828C22.8291 10.1352 22.7329 10.2728 22.6125 10.3875Z" fill="url(#paint0_linear_104_2753)"/>
<defs>
<linearGradient id="paint0_linear_104_2753" x1="13" y1="0.75" x2="13" y2="23.25" gradientUnits="userSpaceOnUse">
<stop stop-color="#A07E3F"/>
<stop offset="1" stop-color="#D7B185"/>
</linearGradient>
</defs>
</svg>
