<svg width="30" height="22" viewBox="0 0 30 22" fill="none" xmlns="http://www.w3.org/2000/svg">
<path fill-rule="evenodd" clip-rule="evenodd" d="M25.1768 0.959062L14.9999 0.728882L4.82294 0.959062C2.93713 1.00172 1.3404 2.3626 0.999425 4.21782C0.175322 8.70166 0.175322 13.2983 0.999425 17.7822C1.3404 19.6373 2.93713 20.9982 4.82294 21.0408L14.9999 21.271L25.1768 21.0408C27.0627 20.9982 28.6594 19.6373 29.0004 17.7822C29.8245 13.2983 29.8245 8.70166 29.0004 4.21782C28.6594 2.3626 27.0627 1.00172 25.1768 0.959062ZM4.87099 3.08352L14.9999 2.85442L25.1288 3.08352C26.0075 3.1034 26.7514 3.7375 26.9104 4.60195C27.1275 5.78342 27.2839 6.97321 27.3799 8.16664H2.61994C2.71577 6.97321 2.87227 5.78342 3.08942 4.60195C3.2483 3.7375 3.99229 3.1034 4.87099 3.08352ZM2.50635 10.9999C2.50635 13.1415 2.7007 15.2831 3.08942 17.398C3.2483 18.2625 3.99229 18.8966 4.87099 18.9164L14.9999 19.1456L25.1288 18.9164C26.0075 18.8966 26.7514 18.2625 26.9104 17.398C27.2991 15.2831 27.4935 13.1415 27.4935 10.9999H2.50635Z" fill="url(#paint0_linear_152_92)"/>
<defs>
<linearGradient id="paint0_linear_152_92" x1="14.9999" y1="0.728882" x2="14.9999" y2="21.271" gradientUnits="userSpaceOnUse">
<stop stop-color="#A07E3F"/>
<stop offset="1" stop-color="#D7B185"/>
</linearGradient>
</defs>
</svg>
