<svg width="28" height="31" viewBox="0 0 28 31" fill="none" xmlns="http://www.w3.org/2000/svg">
<path d="M27.4925 8.35452C27.4683 8.10202 27.3804 7.85982 27.2368 7.65068C27.0933 7.44155 26.8989 7.27236 26.672 7.15902L14.7125 1.15903C14.5044 1.05394 14.2747 0.998938 14.0416 0.998417C13.8085 0.997896 13.5785 1.05187 13.37 1.15603L1.32949 7.15602C0.883994 7.38102 0.576494 7.81152 0.513494 8.30652C0.493994 8.45202 -1.20401 22.918 13.325 30.8185C13.5483 30.9403 13.7991 31.003 14.0535 31.0007C14.3079 30.9983 14.5575 30.931 14.7785 30.805C28.739 22.9165 27.5495 8.94552 27.4925 8.35452ZM14.027 27.7705C3.73699 21.7555 3.31699 12.2425 3.43249 9.46302L14.039 4.17852L24.536 9.44502C24.5435 12.25 23.8145 21.8095 14.027 27.7705Z" fill="url(#paint0_linear_152_88)"/>
<defs>
<linearGradient id="paint0_linear_152_88" x1="13.9918" y1="0.998413" x2="13.9918" y2="31.0007" gradientUnits="userSpaceOnUse">
<stop stop-color="#A07E3F"/>
<stop offset="1" stop-color="#D7B185"/>
</linearGradient>
</defs>
</svg>
