<svg width="11" height="20" viewBox="0 0 11 20" fill="none" xmlns="http://www.w3.org/2000/svg">
<path d="M9.81012 9.47861L2.1023 0.714856C1.84976 0.42789 1.4409 0.428372 1.18878 0.71634C0.936862 1.00427 0.93751 1.4707 1.19008 1.75789L8.43911 10L1.18981 18.2421C0.937272 18.5294 0.936623 18.9955 1.18851 19.2835C1.31489 19.4278 1.48046 19.5 1.64603 19.5C1.81118 19.5 1.9761 19.4283 2.10225 19.285L9.81012 10.5214C9.93175 10.3834 10 10.1957 10 10C10 9.8044 9.93156 9.61685 9.81012 9.47861Z" fill="white"/>
<path d="M9.81012 9.47861L10.1858 9.14862L10.1856 9.1484L9.81012 9.47861ZM2.1023 0.714855L2.47774 0.384646L2.47765 0.384537L2.1023 0.714855ZM1.18878 0.716339L0.812585 0.386982L0.81248 0.387102L1.18878 0.716339ZM1.19008 1.75789L0.814623 2.08809L0.814632 2.08809L1.19008 1.75789ZM8.43911 10L8.81455 10.3303L9.10499 10L8.81456 9.66982L8.43911 10ZM1.18981 18.2421L0.814368 17.9119L0.81431 17.912L1.18981 18.2421ZM1.18851 19.2835L0.812167 19.6127L0.812316 19.6128L1.18851 19.2835ZM1.64603 19.5L1.64603 20L1.64603 19.5ZM2.10225 19.285L2.4776 19.6153L2.47769 19.6152L2.10225 19.285ZM9.81012 10.5214L9.43506 10.1908L9.43468 10.1912L9.81012 10.5214ZM10.1856 9.1484L2.47774 0.384646L1.72685 1.04507L9.43467 9.80882L10.1856 9.1484ZM2.47765 0.384537C2.02554 -0.129213 1.26342 -0.127964 0.812585 0.386982L1.56498 1.0457C1.60003 1.00566 1.63032 1.00002 1.64612 0.999998C1.66194 0.999973 1.69205 1.00552 1.72695 1.04518L2.47765 0.384537ZM0.81248 0.387102C0.395301 0.863916 0.396325 1.61245 0.814623 2.08809L1.56554 1.42768C1.4787 1.32894 1.47842 1.14462 1.56508 1.04558L0.81248 0.387102ZM0.814632 2.08809L8.06367 10.3302L8.81456 9.66982L1.56553 1.42768L0.814632 2.08809ZM8.06367 9.66982L0.814368 17.9119L1.56525 18.5724L8.81455 10.3303L8.06367 9.66982ZM0.81431 17.912C0.396101 18.3876 0.395077 19.1358 0.812167 19.6127L1.56485 18.9543C1.47817 18.8552 1.47844 18.6711 1.56531 18.5723L0.81431 17.912ZM0.812316 19.6128C1.02972 19.8611 1.33048 20 1.64603 20L1.64603 19C1.63638 19 1.62528 18.998 1.61278 18.9922C1.60044 18.9865 1.58344 18.9755 1.5647 18.9541L0.812316 19.6128ZM1.64603 20C1.96062 20 2.26039 19.8621 2.4776 19.6153L1.7269 18.9546C1.70829 18.9758 1.69143 18.9866 1.6792 18.9923C1.66682 18.998 1.65576 19 1.64603 19L1.64603 20ZM2.47769 19.6152L10.1856 10.8516L9.43468 10.1912L1.72681 18.9547L2.47769 19.6152ZM10.1852 10.8521C10.393 10.6164 10.5 10.3086 10.5 10L9.5 10C9.5 10.0828 9.47052 10.1505 9.43506 10.1908L10.1852 10.8521ZM10.5 10C10.5 9.69089 10.3924 9.38389 10.1858 9.14862L9.43448 9.80861C9.47067 9.8498 9.5 9.9179 9.5 10L10.5 10Z" fill="white"/>
</svg>
