<svg width="47" height="46" viewBox="0 0 47 46" fill="none" xmlns="http://www.w3.org/2000/svg">
<rect width="47" height="46" rx="23" fill="#959595"/>
<path d="M19.1899 23.5214L26.8977 32.2851C27.1502 32.5721 27.5591 32.5716 27.8112 32.2837C28.0631 31.9957 28.0625 31.5293 27.8099 31.2421L20.5609 23L27.8102 14.7579C28.0627 14.4706 28.0634 14.0045 27.8115 13.7165C27.6851 13.5722 27.5195 13.5 27.354 13.5C27.1888 13.5 27.0239 13.5717 26.8977 13.715L19.1899 22.4786C19.0682 22.6166 19 22.8043 19 23C19 23.1956 19.0684 23.3832 19.1899 23.5214Z" fill="white"/>
<path d="M19.1899 23.5214L18.8142 23.8514L18.8144 23.8516L19.1899 23.5214ZM26.8977 32.2851L26.5223 32.6154L26.5224 32.6155L26.8977 32.2851ZM27.8112 32.2837L28.1874 32.613L28.1875 32.6129L27.8112 32.2837ZM27.8099 31.2421L28.1854 30.9119L28.1854 30.9119L27.8099 31.2421ZM20.5609 23L20.1854 22.6697L19.895 23L20.1854 23.3302L20.5609 23ZM27.8102 14.7579L28.1856 15.0881L28.1857 15.088L27.8102 14.7579ZM27.8115 13.7165L28.1878 13.3873L28.1877 13.3872L27.8115 13.7165ZM27.354 13.5L27.354 13L27.354 13.5ZM26.8977 13.715L26.5224 13.3847L26.5223 13.3848L26.8977 13.715ZM19.1899 22.4786L19.5649 22.8092L19.5653 22.8088L19.1899 22.4786ZM18.8144 23.8516L26.5223 32.6154L27.2732 31.9549L19.5653 23.1912L18.8144 23.8516ZM26.5224 32.6155C26.9745 33.1292 27.7366 33.128 28.1874 32.613L27.435 31.9543C27.4 31.9943 27.3697 32 27.3539 32C27.3381 32 27.308 31.9945 27.2731 31.9548L26.5224 32.6155ZM28.1875 32.6129C28.6047 32.1361 28.6037 31.3875 28.1854 30.9119L27.4345 31.5723C27.5213 31.6711 27.5216 31.8554 27.4349 31.9544L28.1875 32.6129ZM28.1854 30.9119L20.9363 22.6698L20.1854 23.3302L27.4345 31.5723L28.1854 30.9119ZM20.9363 23.3302L28.1856 15.0881L27.4347 14.4276L20.1854 22.6697L20.9363 23.3302ZM28.1857 15.088C28.6039 14.6124 28.6049 13.8642 28.1878 13.3873L27.4351 14.0457C27.5218 14.1448 27.5216 14.3289 27.4347 14.4277L28.1857 15.088ZM28.1877 13.3872C27.9703 13.1389 27.6695 13 27.354 13L27.354 14C27.3636 14 27.3747 14.002 27.3872 14.0078C27.3996 14.0135 27.4166 14.0245 27.4353 14.0459L28.1877 13.3872ZM27.354 13C27.0394 13 26.7396 13.1379 26.5224 13.3847L27.2731 14.0454C27.2917 14.0242 27.3086 14.0134 27.3208 14.0077C27.3332 14.002 27.3442 14 27.354 14L27.354 13ZM26.5223 13.3848L18.8144 22.1484L19.5653 22.8088L27.2732 14.0453L26.5223 13.3848ZM18.8148 22.1479C18.607 22.3836 18.5 22.6914 18.5 23L19.5 23C19.5 22.9172 19.5295 22.8495 19.5649 22.8092L18.8148 22.1479ZM18.5 23C18.5 23.3091 18.6076 23.6161 18.8142 23.8514L19.5655 23.1914C19.5293 23.1502 19.5 23.0821 19.5 23L18.5 23Z" fill="white"/>
</svg>
