<svg width="13" height="6" viewBox="0 0 13 6" fill="none" xmlns="http://www.w3.org/2000/svg">
<path d="M6.4898 5.99797C6.27322 5.99836 6.06333 5.92865 5.89656 5.80093L0.334863 1.51743C0.145564 1.37202 0.0265212 1.16306 0.00392239 0.936524C-0.0186764 0.70999 0.05702 0.484437 0.214359 0.309485C0.371698 0.134532 0.597792 0.0245113 0.842901 0.00362514C1.08801 -0.017261 1.33206 0.0526984 1.52136 0.198113L6.4898 4.03613L11.4583 0.335186C11.5531 0.264023 11.6622 0.210881 11.7793 0.178813C11.8964 0.146745 12.0192 0.136385 12.1407 0.148326C12.2621 0.160268 12.3798 0.194276 12.487 0.248397C12.5942 0.302518 12.6888 0.375685 12.7653 0.463691C12.8501 0.551778 12.9144 0.655119 12.9541 0.767238C12.9938 0.879357 13.0079 0.99784 12.9958 1.11526C12.9836 1.23268 12.9453 1.34652 12.8833 1.44963C12.8213 1.55273 12.7369 1.6429 12.6355 1.71447L7.07378 5.85233C6.90222 5.95986 6.69661 6.01114 6.4898 5.99797Z" fill="#465464"/>
</svg>
