<svg width="502" height="504" viewBox="0 0 502 504" fill="none" xmlns="http://www.w3.org/2000/svg">
<path d="M408.202 280.117L408.201 280.117L408.199 280.129C403.127 310.052 387.77 337.265 364.778 357.076C341.787 376.886 312.604 388.051 282.261 388.645H127.573V334.758L276.964 108.843C285.346 98.7576 290.374 86.3095 291.35 73.2317L291.351 73.2105L291.35 73.1893C290.243 56.5322 281.03 48.3928 272.098 44.4349C267.639 42.4591 263.253 41.5252 259.984 41.0847C258.349 40.8643 256.991 40.7672 256.041 40.7252C255.566 40.7042 255.193 40.697 254.938 40.695C254.81 40.694 254.712 40.6944 254.645 40.6949C254.612 40.6952 254.587 40.6956 254.569 40.6959L254.55 40.6963H254.546H167.118H166.817V40.9976V231.351L127.573 289.135V0.302294H258.942C259.332 0.302294 259.722 0.302059 260.111 0.301825C269.686 0.296062 278.877 0.29053 288.62 3.78811C298.752 7.42503 309.508 14.8623 321.876 30.1017C335.562 47.0134 337.205 65.7472 335.42 80.2711C334.528 87.5333 332.779 93.7381 331.253 98.127C330.49 100.321 329.783 102.061 329.268 103.251C329.01 103.845 328.8 104.303 328.655 104.611C328.639 104.644 328.625 104.675 328.611 104.704C328.559 104.813 328.518 104.899 328.488 104.96C328.478 104.98 328.469 104.997 328.462 105.012C328.455 105.026 328.449 105.038 328.445 105.047L328.437 105.063L173.662 348.625L173.37 349.083L173.913 349.088L173.916 348.786C173.913 349.088 173.914 349.088 173.914 349.088L173.918 349.088L173.932 349.088L173.986 349.088L174.2 349.09L175.036 349.097C175.769 349.102 176.845 349.11 178.218 349.12C180.964 349.139 184.895 349.164 189.641 349.187C199.132 349.235 211.879 349.277 224.901 349.258C237.922 349.238 251.219 349.156 261.811 348.955C267.106 348.855 271.728 348.724 275.301 348.557C278.861 348.39 281.41 348.185 282.54 347.93C283.092 347.805 283.826 347.663 284.721 347.49C290.912 346.293 304.826 343.604 319.833 334.691C337.019 324.485 355.633 306.124 365.801 272.528C375.986 238.875 362.852 213.015 347.199 195.593C339.374 186.883 330.915 180.275 324.414 175.846C321.163 173.631 318.401 171.959 316.45 170.841C315.474 170.282 314.702 169.862 314.172 169.58C313.955 169.465 313.778 169.372 313.646 169.304L333.319 136.549C333.331 136.554 333.343 136.559 333.355 136.564C333.537 136.643 333.807 136.762 334.16 136.923C334.864 137.243 335.896 137.727 337.202 138.379C339.815 139.685 343.524 141.666 347.907 144.367C356.674 149.769 368.133 158.048 378.901 169.553C400.432 192.558 419.21 228.464 408.202 280.117Z" stroke="#2040A3" stroke-width="0.602632"/>
<path d="M96.1239 56.303V103.528C72.4416 128.306 55.0385 158.397 45.372 191.282C35.6942 224.206 34.0534 258.97 40.5874 292.659C47.1213 326.348 61.6394 357.979 82.9237 384.897C104.208 411.816 131.638 433.238 162.911 447.365C194.185 461.492 228.391 467.913 262.659 466.09C296.927 464.266 330.258 454.25 359.856 436.883C389.454 419.516 414.455 395.304 432.761 366.278C451.068 337.252 462.147 304.259 465.068 270.067L465.096 269.74H464.768H434.844V233.739H501.698V251.739L501.698 251.74C501.791 292.777 491.808 333.21 472.626 369.488C453.444 405.766 425.65 436.781 391.683 459.81C357.717 482.838 318.616 497.177 277.814 501.566C237.012 505.955 195.757 500.261 157.669 484.984C119.582 469.707 85.8272 445.313 59.3683 413.944C32.9094 382.576 14.5555 345.192 5.91772 305.074C-2.72002 264.956 -1.37742 223.331 9.82764 183.853C21.0314 144.38 41.7528 108.26 70.1731 78.6638L96.1239 56.303Z" stroke="#2040A3" stroke-width="0.602632"/>
</svg>
