<svg width="24" height="24" viewBox="0 0 24 24" fill="none" xmlns="http://www.w3.org/2000/svg">
<g opacity="0.6">
<path d="M11.999 13.9995C13.6559 13.9995 14.999 12.6563 14.999 10.9995C14.999 9.3426 13.6559 7.99945 11.999 7.99945C10.3422 7.99945 8.99902 9.3426 8.99902 10.9995C8.99902 12.6563 10.3422 13.9995 11.999 13.9995Z" stroke="#465464" stroke-width="1.9375" stroke-linecap="round" stroke-linejoin="round"/>
<path d="M17.6565 16.6584L13.4135 20.9014C13.0385 21.276 12.5301 21.4864 12 21.4864C11.4699 21.4864 10.9615 21.276 10.5865 20.9014L6.34252 16.6584C5.22374 15.5395 4.46185 14.1141 4.1532 12.5622C3.84455 11.0104 4.00301 9.40187 4.60852 7.94009C5.21403 6.4783 6.23941 5.2289 7.555 4.34986C8.87058 3.47083 10.4173 3.00165 11.9995 3.00165C13.5817 3.00165 15.1285 3.47083 16.444 4.34986C17.7596 5.2289 18.785 6.4783 19.3905 7.94009C19.996 9.40187 20.1545 11.0104 19.8458 12.5622C19.5372 14.1141 18.7753 15.5395 17.6565 16.6584V16.6584Z" stroke="#465464" stroke-width="1.9375" stroke-linecap="round" stroke-linejoin="round"/>
</g>
</svg>
