<svg width="21" height="20" viewBox="0 0 21 20" fill="none" xmlns="http://www.w3.org/2000/svg">
<path fill-rule="evenodd" clip-rule="evenodd" d="M3.53043 0.52504C4.18053 0.27784 4.92495 0.10904 6.01435 0.06056C7.10605 0.01128 7.45513 0 10.2342 0C13.0132 0 13.3621 0.01208 14.4532 0.06056C15.5418 0.10824 16.2858 0.27784 16.9371 0.52504C17.6092 0.78032 18.1804 1.12192 18.7491 1.67848C19.3177 2.23504 19.6675 2.7924 19.9294 3.44992C20.1824 4.0852 20.3551 4.81256 20.4047 5.8772C20.4544 6.94344 20.4659 7.28432 20.4659 10C20.4659 12.7157 20.4544 13.0558 20.4047 14.1228C20.356 15.1874 20.1824 15.9144 19.9294 16.5501C19.6675 17.2076 19.3186 17.7658 18.7491 18.3215C18.1795 18.8772 17.6092 19.219 16.9363 19.475C16.2858 19.7222 15.5419 19.891 14.4524 19.9394C13.3612 19.9887 13.0124 20 10.2334 20C7.45431 20 7.10605 19.9879 6.01435 19.9394C4.92495 19.891 4.18176 19.7222 3.53043 19.475C2.85715 19.219 2.28712 18.877 1.71765 18.3215C1.14818 17.7661 0.79853 17.2076 0.537292 16.5501C0.284324 15.9144 0.111585 15.1874 0.0619732 14.1228C0.0115432 13.0566 0 12.7157 0 10C0 7.28432 0.0115432 6.94344 0.0619732 5.8772C0.111585 4.81264 0.284324 4.0856 0.537292 3.44992C0.79853 2.792 1.1481 2.23416 1.71765 1.67848C2.2872 1.1228 2.85715 0.78032 3.53043 0.52504ZM6.10211 18.1377C5.1044 18.0933 4.56212 17.9309 4.20174 17.7937C3.72396 17.612 3.38307 17.3955 3.02466 17.0457C2.66624 16.696 2.44438 16.3632 2.2592 15.8963C2.11872 15.5443 1.95253 15.0142 1.90717 14.0392C1.85756 12.9852 1.84766 12.6685 1.84766 9.99804C1.84766 7.32756 1.85838 7.0118 1.90717 5.95684C1.95261 4.98188 2.12003 4.45284 2.2592 4.0998C2.4452 3.63292 2.66673 3.2998 3.02466 2.94956C3.38258 2.59932 3.72314 2.38252 4.20174 2.20156C4.56195 2.06428 5.1044 1.90188 6.10211 1.85756C7.18079 1.80908 7.50482 1.7994 10.2364 1.7994C12.968 1.7994 13.2923 1.80988 14.3719 1.85756C15.3696 1.90196 15.911 2.06556 16.2723 2.20156C16.75 2.38252 17.0909 2.5998 17.4494 2.94956C17.8078 3.29932 18.0288 3.63292 18.2148 4.0998C18.3553 4.4518 18.5215 4.98188 18.5668 5.95684C18.6165 7.0118 18.6264 7.32756 18.6264 9.99804C18.6264 12.6685 18.6165 12.9843 18.5668 14.0392C18.5214 15.0142 18.3544 15.5441 18.2148 15.8963C18.0288 16.3632 17.8073 16.6963 17.4494 17.0457C17.0914 17.3952 16.75 17.612 16.2723 17.7937C15.9121 17.931 15.3696 18.0934 14.3719 18.1377C13.2932 18.1862 12.9692 18.1959 10.2364 18.1959C7.50359 18.1959 7.18047 18.1862 6.10211 18.1377ZM15.6924 5.86089C15.0141 5.86062 14.4646 5.32315 14.4648 4.66041C14.4654 3.99798 15.015 3.4612 15.6928 3.46089H15.6933C16.3715 3.46115 16.9211 3.99863 16.9209 4.66137C16.9206 5.32411 16.3706 5.86115 15.6924 5.86089ZM4.98047 10.0044C4.98047 12.8404 7.333 15.1392 10.2352 15.1392C13.1374 15.1392 15.4899 12.8404 15.4899 10.0044C15.4899 7.16836 13.1374 4.86948 10.2352 4.86948C7.333 4.86948 4.98047 7.16836 4.98047 10.0044ZM6.82422 9.99818C6.82422 8.1573 8.35096 6.66458 10.2348 6.66458C12.1186 6.66458 13.6462 8.1573 13.6462 9.99818C13.6462 11.8391 12.1186 13.3318 10.2348 13.3318C8.35096 13.3318 6.82422 11.8391 6.82422 9.99818Z" fill="#2040A3"/>
</svg>
