<svg width="179" height="42" viewBox="0 0 179 42" fill="none" xmlns="http://www.w3.org/2000/svg">
<path d="M63.7806 13.5188L63.5742 13.4156L63.7599 13.3124C64.4093 13.0119 64.9588 12.5313 65.343 11.9276C65.7271 11.3239 65.9298 10.6226 65.927 9.90705C66.0037 9.1622 65.8573 8.41135 65.5063 7.74989C65.1554 7.08843 64.6158 6.54622 63.956 6.19213C62.9276 5.65027 61.774 5.39036 60.6126 5.43883H54.4004V21.6606C56.6603 21.6606 58.9099 21.6606 61.1595 21.6606C62.0005 21.634 62.8339 21.4916 63.6361 21.2375C64.4566 20.9931 65.1781 20.4941 65.6962 19.8126C66.2143 19.1311 66.5023 18.3024 66.5183 17.4464C66.5344 16.5905 66.2778 15.7516 65.7857 15.0511C65.2935 14.3506 64.5913 13.8248 63.7806 13.5497V13.5188ZM56.9699 7.66778H57.2279C58.3733 7.66778 59.5187 7.66778 60.6538 7.66778C61.0394 7.68095 61.4213 7.74692 61.7889 7.86384C62.3373 8.01234 62.8105 8.36018 63.1159 8.83926C63.4213 9.31833 63.5369 9.89415 63.44 10.454C63.4002 11.0279 63.1391 11.5638 62.7117 11.9489C62.2843 12.3339 61.7241 12.5379 61.1492 12.5178C59.8386 12.5178 58.5281 12.5178 57.2175 12.5178H56.9905L56.9699 7.66778ZM63.8734 17.6052C63.7663 18.009 63.5511 18.3761 63.2512 18.667C62.9512 18.9578 62.5777 19.1615 62.1708 19.2562C61.946 19.343 61.7094 19.3952 61.469 19.411H56.9802V14.561C58.1979 14.561 59.4052 14.561 60.6022 14.561C61.0616 14.5501 61.521 14.5812 61.9747 14.6539C62.3014 14.7002 62.6144 14.816 62.8927 14.9934C63.1709 15.1709 63.408 15.4058 63.5878 15.6825C63.7677 15.9591 63.8863 16.2711 63.9355 16.5974C63.9848 16.9237 63.9636 17.2568 63.8734 17.5742" fill="black"/>
<path d="M176.538 7.54632C174.997 6.16046 172.997 5.39563 170.925 5.39992C168.861 5.39992 166.797 5.39992 164.733 5.39992H164.547V21.6423H164.723C166.787 21.6423 168.85 21.6423 170.914 21.6423C172.365 21.6245 173.786 21.2336 175.042 20.5072C176.24 19.8502 177.238 18.8823 177.932 17.7054C178.625 16.5286 178.989 15.1865 178.984 13.8204C179.058 12.6478 178.867 11.4736 178.423 10.3854C177.98 9.2972 177.297 8.32317 176.425 7.536L176.538 7.54632ZM176.353 14.2228C176.259 15.5593 175.673 16.8136 174.709 17.7437C173.745 18.6737 172.47 19.2134 171.131 19.2586C169.81 19.3412 168.479 19.2586 167.127 19.2586V7.77334H167.179C168.683 7.72839 170.188 7.76628 171.688 7.88685C172.428 7.97841 173.141 8.21837 173.785 8.59233C174.429 8.96629 174.991 9.46654 175.438 10.0631C175.884 10.6596 176.205 11.3401 176.382 12.0638C176.558 12.7875 176.587 13.5394 176.466 14.2744" fill="black"/>
<path d="M119.341 16.4914H119.259C119.176 16.4089 119.114 16.316 119.032 16.2231C115.626 12.663 112.211 9.10289 108.826 5.52212C108.485 5.16095 108.227 4.90297 107.794 4.41797V21.6304H110.332V10.496L110.436 10.4341C110.484 10.5295 110.543 10.6195 110.611 10.7024C114.051 14.3072 117.491 17.9086 120.93 21.5066C121.261 21.8574 121.539 22.1154 121.962 22.5385V5.38798H119.403L119.341 16.4914Z" fill="black"/>
<path d="M98.3584 16.2337C99.3208 15.8745 100.157 15.2414 100.764 14.4126C101.371 13.5838 101.722 12.5954 101.774 11.5695C101.89 10.6737 101.778 9.7631 101.448 8.92234C101.118 8.08157 100.58 7.33797 99.8856 6.76072C98.6966 5.81244 97.2053 5.32511 95.6857 5.38826C93.8283 5.38826 91.9708 5.38826 90.1133 5.38826H89.7935V21.6307H92.332V16.7084C93.2917 16.7084 94.2101 16.7084 95.1388 16.7084C95.2448 16.7041 95.35 16.7275 95.4441 16.7764C95.5383 16.8253 95.618 16.8979 95.6754 16.987C96.5216 18.1118 97.3781 19.2366 98.2346 20.3511C98.5761 20.81 98.9412 21.2509 99.3284 21.672C99.8134 21.672 100.36 21.672 100.887 21.672H102.269L98.1417 16.3473L98.3171 16.2441L98.3584 16.2337ZM92.332 14.3453V7.73072C93.5909 7.73072 94.6744 7.73072 96.0882 7.73072C96.5088 7.72125 96.9268 7.79937 97.3156 7.96013C97.7045 8.12088 98.0556 8.36076 98.3467 8.66451C98.6379 8.96826 98.8626 9.32925 99.0068 9.72454C99.1509 10.1198 99.2112 10.5408 99.1839 10.9606C99.2033 11.3831 99.1381 11.8053 98.9922 12.2023C98.8464 12.5993 98.6227 12.9632 98.3344 13.2726C98.0461 13.5821 97.6989 13.8309 97.3132 14.0045C96.9275 14.178 96.511 14.2729 96.0882 14.2834C94.8602 14.366 93.6116 14.2834 92.3423 14.2834" fill="black"/>
<path d="M155.858 16.2344C156.82 15.8752 157.656 15.2421 158.263 14.4133C158.87 13.5844 159.221 12.5961 159.273 11.5701C159.385 10.6708 159.266 9.75788 158.929 8.91685C158.591 8.07583 158.046 7.33419 157.344 6.76138C156.175 5.82793 154.711 5.34137 153.216 5.38892C151.359 5.38892 149.501 5.38892 147.644 5.38892H147.324V21.6314H149.862V16.7091C150.822 16.7091 151.751 16.7091 152.669 16.7091C152.775 16.7048 152.88 16.7282 152.974 16.7771C153.069 16.8259 153.148 16.8986 153.206 16.9877C154.052 18.1125 154.908 19.2373 155.765 20.3518C156.106 20.8107 156.471 21.2516 156.859 21.6726C157.344 21.6726 157.891 21.6726 158.417 21.6726H159.8L155.724 16.3479C155.775 16.3084 155.831 16.2738 155.889 16.2447L155.858 16.2344ZM149.862 14.3563V7.73138C151.121 7.73138 152.205 7.73138 153.618 7.73138C154.039 7.72191 154.457 7.80003 154.846 7.96079C155.235 8.12155 155.586 8.36142 155.877 8.66517C156.168 8.96892 156.393 9.32992 156.537 9.7252C156.681 10.1205 156.742 10.5414 156.714 10.9613C156.734 11.3838 156.668 11.8059 156.523 12.2029C156.377 12.6 156.153 12.9638 155.865 13.2733C155.576 13.5828 155.229 13.8316 154.843 14.0051C154.458 14.1787 154.041 14.2735 153.618 14.2841C152.39 14.3666 151.142 14.2841 149.873 14.2841" fill="black"/>
<path d="M83.5816 19.3288H75.2334V15.1702H82.5291V12.8483H75.2334V7.69906H83.5507V5.4082H72.6846V21.63H83.5816V19.3288Z" fill="black"/>
<path d="M134.861 5.45985C134.768 5.25346 134.417 4.55176 134.417 4.55176C134.417 4.55176 134.046 5.24314 133.932 5.47017C131.456 10.7536 128.972 16.0336 126.482 21.3101C126.43 21.4133 126.389 21.5165 126.327 21.661C127.173 21.661 127.968 21.661 128.762 21.661C128.85 21.6768 128.94 21.659 129.014 21.6112C129.089 21.5633 129.143 21.4889 129.165 21.403C129.567 20.4743 130.001 19.5662 130.403 18.6375C130.432 18.5367 130.495 18.4493 130.582 18.3908C130.669 18.3322 130.774 18.3063 130.878 18.3176C133.231 18.3176 135.583 18.3176 137.936 18.3176C138.04 18.3072 138.145 18.3349 138.23 18.3956C138.316 18.4564 138.376 18.5459 138.401 18.6478C138.813 19.5662 139.226 20.4949 139.66 21.403C139.66 21.5062 139.825 21.6507 139.907 21.6507H142.466C142.415 21.5165 142.384 21.4133 142.343 21.3205C139.845 16.0233 137.352 10.733 134.861 5.44953V5.45985ZM131.549 16.1609C132.508 14.097 133.458 12.0332 134.438 9.83519L137.276 16.1609H131.549Z" fill="black"/>
<path d="M62.0789 30.7646C61.7448 30.2293 61.2745 29.7924 60.716 29.4986C60.1575 29.2049 59.531 29.0648 58.9006 29.0929C58.3238 29.0779 57.7503 29.1841 57.2171 29.4045C56.6839 29.6249 56.2028 29.9546 55.8048 30.3724C55.0192 31.2118 54.582 32.3185 54.582 33.4682C54.582 34.6179 55.0192 35.7246 55.8048 36.564C56.2028 36.9818 56.6839 37.3115 57.2171 37.5319C57.7503 37.7523 58.3238 37.8585 58.9006 37.8436C59.5318 37.8694 60.1586 37.7274 60.717 37.4319C61.2754 37.1364 61.7453 36.698 62.0789 36.1615V37.3586C62.1125 37.7137 62.067 38.0718 61.9457 38.4073C61.8244 38.7427 61.6302 39.0471 61.3772 39.2986C60.8051 39.7883 60.065 40.0362 59.3134 39.9899C58.7653 40.0575 58.2096 39.9589 57.7184 39.7068C57.2271 39.4547 56.8229 39.0608 56.5582 38.5762L55.2683 39.2986C55.6133 39.962 56.1585 40.5 56.8264 40.8361C57.5886 41.2025 58.4267 41.3829 59.2721 41.3624C60.3954 41.4081 61.4966 41.041 62.3679 40.3305C62.7908 39.9772 63.1256 39.5304 63.3459 39.0253C63.5662 38.5202 63.6659 37.9708 63.6371 37.4205V29.3096H62.0789V30.7646ZM61.2224 35.6352C60.8715 35.9926 60.4375 36.2575 59.9593 36.4063C59.4811 36.5551 58.9735 36.5832 58.4817 36.4881C57.99 36.393 57.5295 36.1776 57.1412 35.8612C56.753 35.5447 56.4491 35.1371 56.2568 34.6747C56.0644 34.2123 55.9895 33.7094 56.0388 33.211C56.088 32.7126 56.2599 32.2341 56.5391 31.8183C56.8183 31.4025 57.1961 31.0623 57.6387 30.828C58.0814 30.5937 58.5752 30.4727 59.076 30.4756C59.6744 30.4743 60.2596 30.6506 60.7577 30.9821C61.2558 31.3136 61.6444 31.7854 61.8742 32.3379C62.104 32.8903 62.1648 33.4985 62.0487 34.0855C61.9327 34.6724 61.6451 35.2118 61.2224 35.6352Z" fill="black"/>
<path d="M67.2374 30.7329V29.3089H65.7617V37.7603H67.2374V33.2818C67.1967 32.9013 67.2454 32.5165 67.3798 32.1582C67.5142 31.7998 67.7304 31.4779 68.0113 31.2179C68.5354 30.7988 69.1999 30.5958 69.8688 30.6504V29.1644C69.3215 29.12 68.7741 29.2472 68.3025 29.5283C67.8309 29.8094 67.4586 30.2305 67.2374 30.7329Z" fill="black"/>
<path d="M74.7917 29.0908C74.2062 29.0838 73.6252 29.1942 73.0831 29.4154C72.5409 29.6366 72.0485 29.9641 71.6349 30.3786C71.2214 30.7931 70.895 31.2863 70.6751 31.829C70.4552 32.3716 70.3461 32.9529 70.3544 33.5384C70.349 34.1231 70.4599 34.703 70.6808 35.2445C70.9017 35.7859 71.2282 36.2779 71.6412 36.6918C72.0542 37.1058 72.5455 37.4334 73.0864 37.6556C73.6273 37.8778 74.207 37.9901 74.7917 37.9859C75.3793 37.9947 75.9627 37.885 76.507 37.6634C77.0513 37.4418 77.5453 37.1128 77.9597 36.696C78.7922 35.8538 79.259 34.7174 79.259 33.5332C79.259 32.349 78.7922 31.2126 77.9597 30.3704C77.5434 29.9569 77.0488 29.6307 76.5048 29.411C75.9608 29.1913 75.3784 29.0824 74.7917 29.0908ZM76.9278 35.6848C76.648 35.9643 76.3144 36.1843 75.9473 36.3314C75.5802 36.4786 75.1871 36.55 74.7917 36.5412C74.4079 36.5438 74.0275 36.4693 73.673 36.3222C73.3185 36.1751 72.9971 35.9583 72.7279 35.6848C72.1729 35.108 71.863 34.3387 71.863 33.5384C71.863 32.738 72.1729 31.9687 72.7279 31.392C72.9951 31.1151 73.3159 30.8955 73.6707 30.7465C74.0255 30.5975 74.4069 30.5221 74.7917 30.5251C75.1884 30.5181 75.5824 30.5913 75.95 30.7405C76.3177 30.8897 76.6513 31.1117 76.9309 31.3932C77.2105 31.6747 77.4302 32.0099 77.5769 32.3786C77.7235 32.7472 77.7941 33.1417 77.7843 33.5384C77.7938 33.9354 77.7229 34.3303 77.5757 34.6992C77.4285 35.0681 77.2081 35.4034 76.9278 35.6848Z" fill="black"/>
<path d="M86.8644 33.7877C86.9168 34.5384 86.6722 35.2796 86.1833 35.8516C85.9502 36.0816 85.6725 36.2616 85.3673 36.3805C85.0621 36.4994 84.7358 36.5547 84.4084 36.5429C84.127 36.5584 83.8453 36.5159 83.5809 36.4183C83.3165 36.3207 83.0748 36.17 82.8709 35.9754C82.6763 35.7592 82.5269 35.5064 82.4312 35.2318C82.3355 34.9571 82.2955 34.6662 82.3136 34.3759V29.2163H80.838V34.3759C80.7884 35.3108 81.1112 36.2273 81.7358 36.9248C82.0458 37.2386 82.418 37.4843 82.8285 37.646C83.2389 37.8077 83.6787 37.8819 84.1195 37.8638C84.6648 37.8934 85.208 37.7746 85.6913 37.5203C86.1746 37.2659 86.58 36.8854 86.8644 36.4191V37.6368H88.3297V29.3092H86.8644V33.7877Z" fill="black"/>
<path d="M95.2239 29.0928C94.5921 29.0651 93.9642 29.2051 93.4042 29.4988C92.8441 29.7924 92.3718 30.2291 92.0352 30.7645V29.3095H90.5596V41.1456H92.0352V36.3059C92.3713 36.8425 92.8432 37.2807 93.4032 37.5761C93.9632 37.8715 94.5913 38.0136 95.2239 37.988C95.791 37.9965 96.3535 37.8851 96.8746 37.6611C97.3957 37.437 97.8635 37.1053 98.2474 36.6877C99.0545 35.8365 99.5044 34.7082 99.5044 33.5352C99.5044 32.3622 99.0545 31.2339 98.2474 30.3827C97.8618 29.9681 97.3934 29.639 96.8725 29.4168C96.3517 29.1946 95.79 29.0842 95.2239 29.0928ZM97.1742 35.6971C96.5979 36.249 95.8308 36.557 95.033 36.557C94.2351 36.557 93.468 36.249 92.8917 35.6971C92.3307 35.1194 92.0168 34.3457 92.0168 33.5404C92.0168 32.735 92.3307 31.9614 92.8917 31.3837C93.468 30.8318 94.2351 30.5237 95.033 30.5237C95.8308 30.5237 96.5979 30.8318 97.1742 31.3837C97.7352 31.9614 98.0491 32.735 98.0491 33.5404C98.0491 34.3457 97.7352 35.1194 97.1742 35.6971Z" fill="black"/>
<path d="M33.6695 23.1171C35.5406 14.5757 27.4576 11.2358 27.4576 11.2358L25.8111 13.9769C25.8111 13.9769 31.7985 16.9519 30.1052 22.4809C28.4118 28.0099 23.9774 28.5151 23.2945 28.6928C22.6115 28.8706 14.3414 28.7864 14.3414 28.7864L27.0927 8.6818C27.0927 8.6818 28.8235 5.27646 26.5408 2.46986C24.492 -0.0467172 22.9764 6.00949e-05 21.3299 6.00949e-05H10.459V23.9403L13.7427 19.0943V3.37733H20.965C20.965 3.37733 23.7716 3.31185 23.9774 6.03424C23.8952 7.10723 23.4798 8.12771 22.7893 8.95311L10.459 27.5983V32.0795H23.2945C25.8023 32.0289 28.2142 31.1066 30.116 29.4712C32.0178 27.8357 33.2908 25.589 33.7163 23.1171" fill="#2040A3"/>
<path d="M35.8215 19.2718V22.2842H38.31C38.0681 25.1008 37.1544 27.8184 35.6454 30.209C34.1364 32.5996 32.0762 34.5935 29.6376 36.0235C27.199 37.4536 24.453 38.2781 21.63 38.4278C18.8069 38.5776 15.9892 38.0482 13.4129 36.8842C10.8367 35.7202 8.57712 33.9554 6.8237 31.7379C5.07028 29.5203 3.87414 26.9147 3.33559 24.1395C2.79704 21.3642 2.93178 18.5003 3.72851 15.7879C4.52524 13.0755 5.96073 10.5937 7.9146 8.55057V4.59326L5.73481 6.46433C3.39711 8.90994 1.69466 11.8914 0.776556 15.1476C-0.141547 18.4039 -0.247302 21.8355 0.468553 25.1421C1.18441 28.4487 2.70004 31.5293 4.88272 34.1142C7.06539 36.6992 9.84855 38.7095 12.9884 39.9693C16.1283 41.229 19.5292 41.6997 22.8932 41.3402C26.2572 40.9806 29.4818 39.8018 32.2845 37.9069C35.0873 36.012 37.3827 33.4588 38.9697 30.471C40.5568 27.4832 41.3871 24.1518 41.3879 20.7686V19.2718H35.8215Z" fill="#2040A3"/>
</svg>
