<svg width="49" height="49" viewBox="0 0 49 49" fill="none" xmlns="http://www.w3.org/2000/svg">
<path d="M39.7945 27.3227C42.006 17.2274 32.4525 13.2799 32.4525 13.2799L30.5064 16.5197C30.5064 16.5197 37.5831 20.0359 35.5817 26.5708C33.5803 33.1057 28.3391 33.7028 27.532 33.9128C26.7248 34.1229 16.9501 34.0234 16.9501 34.0234L32.0212 10.2613C32.0212 10.2613 34.0668 6.23639 31.3689 2.9192C28.9473 -0.0552164 27.156 7.10278e-05 25.2099 7.10278e-05H12.3613V28.2957L16.2424 22.568V3.99176H24.7787C24.7787 3.99176 28.0959 3.91436 28.3391 7.13204C28.2419 8.40022 27.751 9.60637 26.9349 10.5819L12.3613 32.6191V37.9156H27.532C30.496 37.8558 33.3467 36.7658 35.5945 34.8328C37.8423 32.8997 39.3469 30.2444 39.8498 27.3227" fill="#2040A3"/>
<path d="M42.3384 22.7781V26.3386H45.2797C44.9938 29.6676 43.9138 32.8796 42.1303 35.7051C40.3468 38.5306 37.9118 40.8873 35.0295 42.5775C32.1472 44.2677 28.9017 45.2422 25.5651 45.4192C22.2285 45.5962 18.898 44.9706 15.8531 43.5948C12.8082 42.219 10.1375 40.1331 8.06512 37.5122C5.99271 34.8912 4.57896 31.8115 3.94243 28.5314C3.3059 25.2513 3.46515 21.8663 4.40683 18.6605C5.34851 15.4546 7.04516 12.5213 9.35449 10.1064V5.4292L6.77813 7.64066C4.01513 10.5312 2.00296 14.0551 0.917833 17.9037C-0.167298 21.7523 -0.292293 25.8083 0.553796 29.7164C1.39988 33.6246 3.19125 37.2657 5.77102 40.3209C8.35078 43.3761 11.6403 45.7522 15.3514 47.2411C19.0625 48.73 23.0821 49.2864 27.0581 48.8614C31.0342 48.4364 34.8454 47.0431 38.158 44.8035C41.4706 42.5639 44.1836 39.5462 46.0594 36.0148C47.9352 32.4834 48.9165 28.546 48.9175 24.5473V22.7781H42.3384Z" fill="#2040A3"/>
</svg>
