<svg width="282" height="69" viewBox="0 0 282 69" fill="none" xmlns="http://www.w3.org/2000/svg">
<path d="M107.794 19.6779L107.483 19.5222L107.763 19.3665C108.743 18.9131 109.572 18.1879 110.152 17.277C110.731 16.3661 111.037 15.3079 111.033 14.2282C111.149 13.1043 110.928 11.9714 110.398 10.9733C109.869 9.97524 109.054 9.1571 108.059 8.62282C106.507 7.80521 104.767 7.41305 103.014 7.48618H93.6406V31.963C97.0506 31.963 100.445 31.963 103.839 31.963C105.108 31.9228 106.366 31.708 107.576 31.3246C108.814 30.9558 109.903 30.2028 110.685 29.1745C111.466 28.1462 111.901 26.8958 111.925 25.6043C111.949 24.3127 111.562 23.0469 110.82 21.9899C110.077 20.933 109.017 20.1396 107.794 19.7246V19.6779ZM97.5177 10.8494H97.9069C99.6353 10.8494 101.364 10.8494 103.076 10.8494C103.658 10.8693 104.234 10.9688 104.789 11.1452C105.617 11.3693 106.331 11.8942 106.791 12.617C107.252 13.3399 107.427 14.2087 107.28 15.0534C107.22 15.9194 106.826 16.7281 106.181 17.3091C105.537 17.8901 104.691 18.1979 103.824 18.1675C101.846 18.1675 99.8688 18.1675 97.8914 18.1675H97.5488L97.5177 10.8494ZM107.934 25.8438C107.773 26.4532 107.448 27.007 106.995 27.4459C106.543 27.8848 105.979 28.1922 105.365 28.3351C105.026 28.466 104.669 28.5447 104.306 28.5686H97.5332V21.2505C99.3706 21.2505 101.192 21.2505 102.998 21.2505C103.692 21.234 104.385 21.2809 105.069 21.3906C105.562 21.4606 106.035 21.6353 106.454 21.903C106.874 22.1707 107.232 22.5252 107.503 22.9426C107.775 23.3601 107.954 23.8308 108.028 24.3232C108.102 24.8155 108.07 25.3181 107.934 25.7971" fill="white"/>
<path d="M277.933 10.6651C275.608 8.57399 272.59 7.41995 269.463 7.42642C266.349 7.42642 263.235 7.42642 260.121 7.42642H259.84V31.9344H260.105C263.219 31.9344 266.333 31.9344 269.447 31.9344C271.636 31.9074 273.781 31.3176 275.676 30.2216C277.483 29.2302 278.989 27.7697 280.036 25.994C281.083 24.2183 281.631 22.1932 281.623 20.1319C281.735 18.3626 281.446 16.5908 280.778 14.9489C280.109 13.307 279.078 11.8373 277.762 10.6495L277.933 10.6651ZM277.653 20.7392C277.512 22.7557 276.628 24.6484 275.173 26.0517C273.718 27.455 271.795 28.2694 269.774 28.3376C267.781 28.4621 265.773 28.3376 263.733 28.3376V11.0076H263.811C266.08 10.9398 268.352 10.997 270.615 11.1789C271.731 11.3171 272.807 11.6791 273.779 12.2434C274.751 12.8077 275.599 13.5625 276.272 14.4626C276.946 15.3627 277.43 16.3895 277.697 17.4814C277.963 18.5734 278.007 19.7079 277.824 20.817" fill="white"/>
<path d="M191.627 24.1635H191.502C191.377 24.0389 191.284 23.8988 191.159 23.7587C186.021 18.3869 180.867 13.015 175.76 7.61209C175.246 7.06712 174.857 6.67786 174.203 5.94604V31.9176H178.033V15.1171L178.189 15.0236C178.263 15.1677 178.351 15.3034 178.454 15.4285C183.644 20.8678 188.834 26.3019 194.024 31.7308C194.523 32.2602 194.943 32.6494 195.581 33.2878V7.40967H191.72L191.627 24.1635Z" fill="white"/>
<path d="M159.97 23.7747C161.423 23.2326 162.684 22.2774 163.6 21.0268C164.516 19.7762 165.046 18.2849 165.124 16.7368C165.3 15.3852 165.13 14.0112 164.632 12.7426C164.134 11.474 163.323 10.352 162.275 9.48095C160.481 8.05011 158.23 7.31479 155.938 7.41008C153.135 7.41008 150.332 7.41008 147.53 7.41008H147.047V31.918H150.877V24.4909C152.325 24.4909 153.711 24.4909 155.112 24.4909C155.272 24.4844 155.431 24.5198 155.573 24.5935C155.715 24.6672 155.835 24.7768 155.922 24.9113C157.199 26.6085 158.491 28.3057 159.784 29.9873C160.299 30.6798 160.85 31.345 161.434 31.9803C162.166 31.9803 162.991 31.9803 163.785 31.9803H165.872L159.643 23.9459L159.908 23.7902L159.97 23.7747ZM150.877 20.9253V10.9446C152.777 10.9446 154.412 10.9446 156.545 10.9446C157.18 10.9303 157.81 11.0482 158.397 11.2907C158.984 11.5333 159.513 11.8952 159.953 12.3536C160.392 12.8119 160.731 13.3566 160.949 13.953C161.166 14.5495 161.257 15.1846 161.216 15.8181C161.245 16.4557 161.147 17.0926 160.927 17.6917C160.707 18.2907 160.369 18.8398 159.934 19.3067C159.499 19.7737 158.975 20.1491 158.393 20.411C157.811 20.6728 157.183 20.8159 156.545 20.8318C154.692 20.9564 152.808 20.8318 150.893 20.8318" fill="white"/>
<path d="M246.729 23.7754C248.181 23.2333 249.443 22.2781 250.359 21.0275C251.274 19.7769 251.804 18.2856 251.883 16.7375C252.051 15.3805 251.872 14.0031 251.363 12.734C250.853 11.465 250.031 10.346 248.971 9.48168C247.207 8.07321 244.999 7.33906 242.743 7.41081C239.94 7.41081 237.137 7.41081 234.335 7.41081H233.852V31.9188H237.682V24.4916C239.13 24.4916 240.532 24.4916 241.918 24.4916C242.077 24.4851 242.236 24.5205 242.378 24.5942C242.52 24.668 242.641 24.7775 242.727 24.912C244.004 26.6092 245.296 28.3064 246.589 29.988C247.104 30.6805 247.655 31.3457 248.239 31.981C248.971 31.981 249.796 31.981 250.59 31.981H252.677L246.526 23.9467C246.604 23.887 246.688 23.8349 246.776 23.791L246.729 23.7754ZM237.682 20.9416V10.9453C239.582 10.9453 241.217 10.9453 243.35 10.9453C243.985 10.931 244.615 11.0489 245.202 11.2915C245.789 11.534 246.319 11.896 246.758 12.3543C247.197 12.8126 247.536 13.3573 247.754 13.9538C247.971 14.5502 248.062 15.1854 248.021 15.8189C248.05 16.4564 247.952 17.0933 247.732 17.6924C247.512 18.2914 247.174 18.8405 246.739 19.3074C246.304 19.7744 245.78 20.1498 245.198 20.4117C244.616 20.6736 243.988 20.8167 243.35 20.8326C241.497 20.9571 239.613 20.8326 237.698 20.8326" fill="white"/>
<path d="M137.673 28.4453H125.077V22.1704H136.085V18.667H125.077V10.8973H137.627V7.44067H121.231V31.9175H137.673V28.4453Z" fill="white"/>
<path d="M215.045 7.5184C214.905 7.20699 214.375 6.14819 214.375 6.14819C214.375 6.14819 213.815 7.19141 213.643 7.53397C209.906 15.5061 206.159 23.4729 202.402 31.4347C202.324 31.5904 202.261 31.7461 202.168 31.9641C203.445 31.9641 204.644 31.9641 205.843 31.9641C205.974 31.9879 206.11 31.9611 206.223 31.8889C206.335 31.8166 206.417 31.7044 206.45 31.5748C207.057 30.1735 207.711 28.8033 208.318 27.4019C208.361 27.2498 208.457 27.118 208.588 27.0296C208.719 26.9413 208.877 26.9022 209.035 26.9192C212.585 26.9192 216.135 26.9192 219.685 26.9192C219.842 26.9036 220 26.9454 220.128 27.037C220.257 27.1286 220.349 27.2638 220.385 27.4175C221.008 28.8033 221.631 30.2046 222.285 31.5748C222.285 31.7305 222.534 31.9485 222.659 31.9485H226.52C226.442 31.7461 226.396 31.5904 226.333 31.4502C222.565 23.4574 218.802 15.4749 215.045 7.50282V7.5184ZM210.047 23.665C211.495 20.5509 212.927 17.4368 214.406 14.1203L218.688 23.665H210.047Z" fill="white"/>
<path d="M105.226 45.6996C104.722 44.8919 104.012 44.2326 103.17 43.7894C102.327 43.3462 101.381 43.1349 100.43 43.1772C99.56 43.1547 98.6946 43.3148 97.8901 43.6474C97.0855 43.98 96.3596 44.4775 95.7591 45.1079C94.5737 46.3744 93.9141 48.0443 93.9141 49.7791C93.9141 51.5138 94.5737 53.1837 95.7591 54.4502C96.3596 55.0806 97.0855 55.5782 97.8901 55.9107C98.6946 56.2433 99.56 56.4035 100.43 56.381C101.383 56.42 102.328 56.2057 103.171 55.7598C104.014 55.3139 104.723 54.6524 105.226 53.843V55.6491C105.277 56.185 105.208 56.7254 105.025 57.2315C104.842 57.7377 104.549 58.197 104.167 58.5764C103.304 59.3153 102.187 59.6894 101.053 59.6196C100.226 59.7216 99.3877 59.5727 98.6464 59.1924C97.9051 58.812 97.2952 58.2177 96.8958 57.4865L94.9495 58.5764C95.4701 59.5775 96.2927 60.3892 97.3006 60.8964C98.4506 61.4493 99.7153 61.7214 100.991 61.6905C102.686 61.7594 104.347 61.2056 105.662 60.1334C106.3 59.6004 106.805 58.9261 107.138 58.164C107.47 57.4019 107.621 56.5729 107.577 55.7426V43.5042H105.226V45.6996ZM103.934 53.0489C103.404 53.588 102.749 53.9877 102.028 54.2123C101.306 54.4368 100.54 54.4792 99.7983 54.3357C99.0563 54.1922 98.3614 53.8672 97.7756 53.3897C97.1898 52.9123 96.7313 52.2973 96.4411 51.5995C96.1508 50.9018 96.0378 50.143 96.1121 49.391C96.1865 48.6389 96.4458 47.917 96.8671 47.2896C97.2883 46.6621 97.8584 46.1488 98.5263 45.7953C99.1942 45.4418 99.9393 45.2591 100.695 45.2636C101.598 45.2617 102.481 45.5276 103.232 46.0278C103.984 46.528 104.57 47.2399 104.917 48.0735C105.264 48.907 105.356 49.8247 105.18 50.7104C105.005 51.5961 104.571 52.4099 103.934 53.0489Z" fill="white"/>
<path d="M113.011 45.6518V43.503H110.785V56.2553H113.011V49.4977C112.95 48.9235 113.023 48.3429 113.226 47.8022C113.429 47.2616 113.755 46.7758 114.179 46.3836C114.97 45.7512 115.972 45.4448 116.982 45.5272V43.285C116.156 43.218 115.33 43.41 114.618 43.8341C113.907 44.2583 113.345 44.8936 113.011 45.6518Z" fill="white"/>
<path d="M124.407 43.1747C123.523 43.1643 122.647 43.3308 121.829 43.6645C121.011 43.9983 120.268 44.4925 119.644 45.1179C119.02 45.7434 118.527 46.4875 118.195 47.3063C117.864 48.1252 117.699 49.0022 117.712 49.8856C117.703 50.7679 117.871 51.643 118.204 52.4599C118.537 53.2769 119.03 54.0193 119.653 54.6439C120.276 55.2685 121.018 55.7628 121.834 56.0981C122.65 56.4333 123.525 56.6027 124.407 56.5965C125.294 56.6097 126.174 56.4442 126.995 56.1098C127.816 55.7754 128.562 55.279 129.187 54.6502C130.443 53.3794 131.148 51.6646 131.148 49.8778C131.148 48.091 130.443 46.3763 129.187 45.1055C128.559 44.4816 127.813 43.9895 126.992 43.658C126.171 43.3264 125.292 43.1621 124.407 43.1747ZM127.63 53.1243C127.208 53.546 126.705 53.878 126.151 54.1001C125.597 54.3222 125.004 54.4299 124.407 54.4166C123.828 54.4205 123.254 54.3081 122.719 54.0861C122.184 53.8641 121.699 53.5371 121.293 53.1243C120.456 52.254 119.988 51.0933 119.988 49.8856C119.988 48.678 120.456 47.5172 121.293 46.647C121.696 46.2292 122.18 45.8978 122.715 45.673C123.251 45.4481 123.826 45.3345 124.407 45.339C125.005 45.3284 125.6 45.4389 126.155 45.664C126.709 45.8891 127.213 46.2241 127.635 46.6489C128.057 47.0736 128.388 47.5794 128.609 48.1356C128.831 48.6919 128.937 49.2872 128.922 49.8856C128.937 50.4847 128.83 51.0806 128.608 51.6372C128.386 52.1938 128.053 52.6997 127.63 53.1243Z" fill="white"/>
<path d="M142.625 50.2616C142.704 51.3943 142.335 52.5126 141.597 53.3757C141.245 53.7229 140.826 53.9944 140.366 54.1738C139.905 54.3532 139.413 54.4366 138.919 54.4189C138.494 54.4422 138.069 54.3782 137.67 54.2309C137.271 54.0836 136.907 53.8562 136.599 53.5626C136.305 53.2364 136.08 52.8549 135.935 52.4405C135.791 52.0261 135.731 51.5871 135.758 51.1491V43.3639H133.531V51.1491C133.457 52.5598 133.944 53.9427 134.886 54.995C135.354 55.4687 135.915 55.8393 136.535 56.0833C137.154 56.3273 137.818 56.4392 138.483 56.412C139.306 56.4566 140.125 56.2774 140.855 55.8936C141.584 55.5098 142.195 54.9356 142.625 54.2321V56.0694H144.836V43.504H142.625V50.2616Z" fill="white"/>
<path d="M155.237 43.1772C154.284 43.1353 153.336 43.3467 152.491 43.7898C151.646 44.2328 150.934 44.8918 150.426 45.6996V43.5042H148.199V61.3635H150.426V54.061C150.933 54.8706 151.645 55.5317 152.49 55.9775C153.335 56.4232 154.283 56.6376 155.237 56.599C156.093 56.6119 156.942 56.4438 157.728 56.1057C158.514 55.7676 159.22 55.2671 159.799 54.6371C161.017 53.3527 161.696 51.6502 161.696 49.8803C161.696 48.1104 161.017 46.4079 159.799 45.1235C159.217 44.4978 158.511 44.0013 157.725 43.666C156.939 43.3308 156.091 43.1642 155.237 43.1772ZM158.18 53.1423C157.31 53.975 156.153 54.4399 154.949 54.4399C153.745 54.4399 152.588 53.975 151.718 53.1423C150.872 52.2706 150.398 51.1032 150.398 49.8881C150.398 48.6729 150.872 47.5056 151.718 46.6338C152.588 45.8011 153.745 45.3363 154.949 45.3363C156.153 45.3363 157.31 45.8011 158.18 46.6338C159.026 47.5056 159.5 48.6729 159.5 49.8881C159.5 51.1032 159.026 52.2706 158.18 53.1423Z" fill="white"/>
<path d="M56.0376 38.4748C59.1517 24.2589 45.6988 18.7003 45.6988 18.7003L42.9584 23.2624C42.9584 23.2624 52.9235 28.2138 50.1052 37.416C47.287 46.6181 39.9066 47.4589 38.7699 47.7548C37.6333 48.0506 23.869 47.9105 23.869 47.9105L45.0916 14.4495C45.0916 14.4495 47.9721 8.78185 44.1729 4.11071C40.763 -0.0777536 38.2405 0.000100019 35.5001 0.000100019H17.4072V39.845L22.8725 31.7795V5.62105H34.8929C34.8929 5.62105 39.564 5.51205 39.9066 10.0431C39.7697 11.8289 39.0783 13.5273 37.9291 14.9011L17.4072 45.933V53.3913H38.7699C42.9438 53.3071 46.9581 51.7722 50.1233 49.0502C53.2886 46.3282 55.4073 42.589 56.1155 38.4748" fill="white"/>
<path d="M59.6194 32.075V37.0887H63.7611C63.3585 41.7765 61.8377 46.2995 59.3262 50.2783C56.8148 54.2571 53.3859 57.5757 49.3272 59.9557C45.2685 62.3358 40.6983 63.708 35.9998 63.9573C31.3013 64.2065 26.6115 63.3255 22.3237 61.3882C18.036 59.4509 14.2753 56.5137 11.357 52.8229C8.4387 49.1322 6.44791 44.7955 5.55158 40.1765C4.65525 35.5576 4.8795 30.7911 6.20553 26.2767C7.53156 21.7623 9.92072 17.6317 13.1726 14.2312V7.6449L9.54471 10.759C5.65396 14.8293 2.8205 19.7915 1.29246 25.211C-0.235583 30.6305 -0.411596 36.342 0.779834 41.8453C1.97126 47.3486 4.4938 52.4758 8.12653 56.778C11.7593 61.0802 16.3914 64.4262 21.6173 66.5228C26.8431 68.6195 32.5033 69.4029 38.1022 68.8045C43.7011 68.2061 49.0679 66.2441 53.7326 63.0903C58.3973 59.9365 62.2177 55.6872 64.8591 50.7144C67.5005 45.7416 68.8824 40.197 68.8838 34.5663V32.075H59.6194Z" fill="white"/>
</svg>
