<svg width="502" height="505" viewBox="0 0 502 505" fill="none" xmlns="http://www.w3.org/2000/svg">
<path d="M408.496 280.913C430.563 177.376 333.196 136.902 333.196 136.902L313.221 170.159C313.221 170.159 385.802 206.136 365.513 273.174C345.223 340.212 291.258 346.382 282.473 348.369C273.688 350.356 173.916 349.52 173.916 349.52L328.699 105.945C328.699 105.945 349.616 64.6348 322.11 30.6452C297.324 0.106874 278.918 0.734376 258.942 0.734376H127.272V290.849L167.118 232.177V41.731H254.55C254.55 41.731 288.853 40.8944 291.049 73.9427C290.078 86.9635 285.07 99.357 276.721 109.396L127.272 335.401V389.68H282.264C312.678 389.085 341.93 377.894 364.975 358.038C388.02 338.181 403.412 310.905 408.496 280.913Z" fill="#EFF1F4"/>
<path d="M434.543 234.171V270.775H464.768C461.851 304.919 450.788 337.866 432.506 366.851C414.225 395.836 389.26 420.014 359.704 437.357C330.148 454.699 296.863 464.701 262.643 466.522C228.423 468.343 194.265 461.931 163.035 447.824C131.806 433.716 104.414 412.325 83.16 385.444C61.9057 358.563 47.4079 326.977 40.8832 293.335C34.3584 259.694 35.9969 224.978 45.6611 192.1C55.3254 159.223 72.7335 129.142 96.4252 104.383V56.379L69.9656 79.1782C41.5061 108.812 20.7563 144.979 9.53777 184.504C-1.68076 224.03 -3.02497 265.705 5.62316 305.871C14.2713 346.037 32.6473 383.466 59.138 414.872C85.6287 446.278 119.424 470.701 157.557 485.997C195.691 501.293 236.996 506.994 277.847 502.599C318.697 498.204 357.845 483.849 391.852 460.793C425.86 437.736 453.688 406.684 472.892 370.362C492.097 334.04 502.092 293.559 501.999 252.473V234.171H434.543Z" fill="#EFF1F4"/>
</svg>
