<svg width="22" height="22" viewBox="0 0 22 22" fill="none" xmlns="http://www.w3.org/2000/svg">
<g opacity="0.7">
<path d="M7.66696 9.88861C10.1215 9.88861 12.1113 7.89883 12.1113 5.44431C12.1113 2.98978 10.1215 1 7.66696 1C5.21244 1 3.22266 2.98978 3.22266 5.44431C3.22266 7.89883 5.21244 9.88861 7.66696 9.88861Z" stroke="#465464" stroke-width="1.5" stroke-linecap="round" stroke-linejoin="round"/>
<path d="M1 20.9995V18.7773C1 17.5986 1.46824 16.4682 2.30171 15.6347C3.13518 14.8012 4.2656 14.333 5.44431 14.333H9.88861C11.0673 14.333 12.1977 14.8012 13.0312 15.6347C13.8647 16.4682 14.3329 17.5986 14.3329 18.7773V20.9995" stroke="#465464" stroke-width="1.5" stroke-linecap="round" stroke-linejoin="round"/>
<path d="M15.4438 1.14453C16.3998 1.3893 17.2472 1.94529 17.8523 2.72483C18.4574 3.50437 18.7858 4.46313 18.7858 5.44995C18.7858 6.43678 18.4574 7.39554 17.8523 8.17508C17.2472 8.95462 16.3998 9.5106 15.4438 9.75538" stroke="#465464" stroke-width="1.5" stroke-linecap="round" stroke-linejoin="round"/>
<path d="M20.9997 20.9993V18.7772C20.9941 17.7963 20.6641 16.8448 20.0612 16.071C19.4582 15.2973 18.6163 14.7447 17.6665 14.4995" stroke="#465464" stroke-width="1.5" stroke-linecap="round" stroke-linejoin="round"/>
</g>
</svg>
