<svg width="22" height="22" viewBox="0 0 22 22" fill="none" xmlns="http://www.w3.org/2000/svg">
<path d="M11 21C16.5228 21 21 16.5228 21 11C21 5.47715 16.5228 1 11 1C5.47715 1 1 5.47715 1 11C1 16.5228 5.47715 21 11 21Z" stroke="#7B8692" stroke-width="1.5" stroke-linecap="round" stroke-linejoin="round"/>
<path d="M14.1114 7.66681C13.9102 7.31766 13.6177 7.02982 13.2654 6.83409C12.9131 6.63837 12.5142 6.54214 12.1114 6.5557H9.88921C9.29984 6.5557 8.73461 6.78983 8.31787 7.20658C7.90112 7.62332 7.66699 8.18855 7.66699 8.77792C7.66699 9.36729 7.90112 9.93252 8.31787 10.3493C8.73461 10.766 9.29984 11.0001 9.88921 11.0001H12.1114C12.7008 11.0001 13.266 11.2343 13.6828 11.651C14.0995 12.0678 14.3337 12.633 14.3337 13.2224C14.3337 13.8117 14.0995 14.377 13.6828 14.7937C13.266 15.2105 12.7008 15.4446 12.1114 15.4446H9.88921C9.48643 15.4582 9.08753 15.3619 8.73523 15.1662C8.38294 14.9705 8.09049 14.6826 7.88921 14.3335" stroke="#7B8692" stroke-width="1.5" stroke-linecap="round" stroke-linejoin="round"/>
<path d="M11 15.4446V17.6668M11 4.3335V6.55572V4.3335Z" stroke="#7B8692" stroke-width="1.5" stroke-linecap="round" stroke-linejoin="round"/>
</svg>
