<svg width="21" height="22" viewBox="0 0 21 22" fill="none" xmlns="http://www.w3.org/2000/svg">
<mask id="path-1-inside-1" fill="white">
<path d="M17.084 11.7295C18.0334 7.39561 13.9321 5.70098 13.9321 5.70098L13.0967 7.0918C13.0967 7.0918 16.1347 8.6013 15.2755 11.4067C14.4163 14.2121 12.1663 14.4684 11.8198 14.5586C11.4733 14.6488 7.27707 14.6061 7.27707 14.6061L13.747 4.4051C13.747 4.4051 14.6252 2.67725 13.4669 1.2532C12.4274 -0.0237041 11.6584 3.04918e-05 10.823 3.04918e-05H5.30713V12.1472L6.97327 9.68833V1.71364H10.6378C10.6378 1.71364 12.0619 1.68041 12.1663 3.06174C12.1246 3.60617 11.9138 4.12396 11.5635 4.54276L5.30713 14.0032V16.2769H11.8198C13.0922 16.2513 14.316 15.7833 15.281 14.9535C16.246 14.1237 16.8919 12.9837 17.1078 11.7295"/>
</mask>
<path d="M17.084 11.7295C18.0334 7.39561 13.9321 5.70098 13.9321 5.70098L13.0967 7.0918C13.0967 7.0918 16.1347 8.6013 15.2755 11.4067C14.4163 14.2121 12.1663 14.4684 11.8198 14.5586C11.4733 14.6488 7.27707 14.6061 7.27707 14.6061L13.747 4.4051C13.747 4.4051 14.6252 2.67725 13.4669 1.2532C12.4274 -0.0237041 11.6584 3.04918e-05 10.823 3.04918e-05H5.30713V12.1472L6.97327 9.68833V1.71364H10.6378C10.6378 1.71364 12.0619 1.68041 12.1663 3.06174C12.1246 3.60617 11.9138 4.12396 11.5635 4.54276L5.30713 14.0032V16.2769H11.8198C13.0922 16.2513 14.316 15.7833 15.281 14.9535C16.246 14.1237 16.8919 12.9837 17.1078 11.7295" fill="#7B8692"/>
<path d="M13.9321 5.70098L13.9703 5.60856L13.8907 5.57568L13.8464 5.64949L13.9321 5.70098ZM13.0967 7.0918L13.011 7.04031L12.9552 7.13316L13.0522 7.18136L13.0967 7.0918ZM7.27707 14.6061L7.19262 14.5525L7.09639 14.7042L7.27605 14.706L7.27707 14.6061ZM13.747 4.4051L13.8318 4.4589L13.8362 4.45041L13.747 4.4051ZM13.4669 1.2532L13.5445 1.1901L13.5445 1.19006L13.4669 1.2532ZM5.30713 3.04918e-05V-0.0999695H5.20713V3.04918e-05H5.30713ZM5.30713 12.1472H5.20713V12.473L5.38991 12.2033L5.30713 12.1472ZM6.97327 9.68833L7.05605 9.74442L7.07327 9.71902V9.68833H6.97327ZM6.97327 1.71364V1.61364H6.87327V1.71364H6.97327ZM10.6378 1.71364V1.81367L10.6402 1.81361L10.6378 1.71364ZM12.1663 3.06174L12.266 3.06938L12.2666 3.06179L12.266 3.0542L12.1663 3.06174ZM11.5635 4.54276L11.4863 4.47818L11.48 4.4876L11.5635 4.54276ZM5.30713 14.0032L5.22372 13.948L5.20713 13.9731V14.0032H5.30713ZM5.30713 16.2769H5.20713V16.3769H5.30713V16.2769ZM11.8198 16.2769V16.377L11.8218 16.3769L11.8198 16.2769ZM17.1817 11.7509C17.6649 9.54518 16.8612 8.00565 15.937 7.02157C15.476 6.53073 14.9854 6.17812 14.6104 5.94823C14.4227 5.83319 14.2636 5.74865 14.151 5.69271C14.0947 5.66473 14.05 5.64389 14.0191 5.62994C14.0037 5.62297 13.9917 5.61772 13.9835 5.61417C13.9794 5.61239 13.9762 5.61104 13.974 5.61011C13.9729 5.60964 13.972 5.60928 13.9714 5.60902C13.9711 5.60889 13.9709 5.60879 13.9707 5.60871C13.9706 5.60867 13.9705 5.60864 13.9705 5.60862C13.9704 5.60859 13.9703 5.60856 13.9321 5.70098C13.8939 5.7934 13.8939 5.79339 13.8939 5.79339C13.8939 5.79339 13.8939 5.79339 13.894 5.79341C13.894 5.79343 13.8941 5.79349 13.8943 5.79356C13.8947 5.79372 13.8953 5.79398 13.8962 5.79435C13.8979 5.79508 13.9006 5.79622 13.9042 5.79778C13.9115 5.8009 13.9224 5.8057 13.9368 5.8122C13.9655 5.82519 14.008 5.84499 14.062 5.87182C14.17 5.92547 14.3239 6.00718 14.5059 6.11874C14.8701 6.34202 15.3455 6.68393 15.7912 7.15848C16.6803 8.10518 17.4525 9.57989 16.9863 11.7081L17.1817 11.7509ZM13.8464 5.64949L13.011 7.04031L13.1824 7.1433L14.0179 5.75247L13.8464 5.64949ZM13.0967 7.0918C13.0522 7.18136 13.0522 7.18135 13.0521 7.18134C13.0522 7.18134 13.0522 7.18134 13.0522 7.18135C13.0522 7.18138 13.0523 7.18142 13.0524 7.18149C13.0527 7.18162 13.0532 7.18184 13.0538 7.18216C13.055 7.18279 13.057 7.18379 13.0597 7.18516C13.065 7.18788 13.073 7.19207 13.0836 7.1977C13.1047 7.20897 13.136 7.22604 13.1757 7.24886C13.2552 7.2945 13.3683 7.36305 13.5015 7.45408C13.7684 7.63634 14.1146 7.90757 14.4338 8.26394C15.0713 8.9757 15.5959 10.0191 15.1799 11.3774L15.3711 11.436C15.8143 9.98888 15.2495 8.87485 14.5828 8.13051C14.2499 7.75884 13.8903 7.47736 13.6143 7.28892C13.4762 7.19459 13.3587 7.1233 13.2754 7.07543C13.2337 7.05149 13.2005 7.03339 13.1776 7.02118C13.1661 7.01508 13.1572 7.01044 13.1511 7.00729C13.148 7.00571 13.1456 7.0045 13.144 7.00366C13.1432 7.00324 13.1425 7.00291 13.142 7.00268C13.1418 7.00256 13.1416 7.00247 13.1415 7.00239C13.1414 7.00236 13.1413 7.00232 13.1413 7.00231C13.1412 7.00227 13.1412 7.00225 13.0967 7.0918ZM15.1799 11.3774C14.758 12.7548 13.9975 13.5008 13.3041 13.915C12.6068 14.3315 11.9784 14.414 11.7946 14.4618L11.845 14.6554C12.0076 14.613 12.6775 14.5222 13.4067 14.0867C14.1397 13.6488 14.9338 12.8639 15.3711 11.436L15.1799 11.3774ZM11.7946 14.4618C11.7634 14.4699 11.6714 14.479 11.5201 14.4866C11.3737 14.494 11.1825 14.4997 10.9618 14.5041C10.5207 14.5127 9.96441 14.5158 9.41843 14.5161C8.87256 14.5164 8.33746 14.5139 7.93879 14.5113C7.73946 14.51 7.57427 14.5087 7.45891 14.5077C7.40123 14.5072 7.35601 14.5068 7.32522 14.5065C7.30982 14.5064 7.29803 14.5063 7.2901 14.5062C7.28613 14.5061 7.28312 14.5061 7.28111 14.5061C7.2801 14.5061 7.27935 14.5061 7.27884 14.5061C7.27859 14.5061 7.2784 14.5061 7.27827 14.5061C7.27821 14.5061 7.27816 14.5061 7.27813 14.5061C7.2781 14.5061 7.27808 14.5061 7.27707 14.6061C7.27605 14.706 7.27607 14.706 7.2761 14.706C7.27613 14.706 7.27618 14.706 7.27624 14.706C7.27637 14.706 7.27657 14.7061 7.27682 14.7061C7.27733 14.7061 7.2781 14.7061 7.27911 14.7061C7.28113 14.7061 7.28415 14.7061 7.28813 14.7062C7.2961 14.7062 7.30791 14.7064 7.32333 14.7065C7.35418 14.7068 7.39945 14.7072 7.45719 14.7077C7.57267 14.7087 7.738 14.71 7.93749 14.7113C8.33643 14.7139 8.87204 14.7164 9.41854 14.7161C9.96492 14.7158 10.5227 14.7127 10.9658 14.704C11.1872 14.6997 11.3807 14.6939 11.5301 14.6864C11.6746 14.6791 11.7896 14.6698 11.845 14.6554L11.7946 14.4618ZM7.36151 14.6596L13.8315 4.45866L13.6626 4.35154L7.19262 14.5525L7.36151 14.6596ZM13.747 4.4051C13.8362 4.45041 13.8362 4.45036 13.8362 4.45031C13.8362 4.45028 13.8362 4.45023 13.8363 4.45017C13.8363 4.45007 13.8364 4.44994 13.8365 4.44979C13.8366 4.44947 13.8368 4.44906 13.8371 4.44854C13.8376 4.44749 13.8383 4.44603 13.8393 4.44416C13.8411 4.44043 13.8437 4.43505 13.847 4.4281C13.8536 4.41419 13.8629 4.39397 13.8742 4.36794C13.8968 4.3159 13.9275 4.24051 13.9605 4.14579C14.0265 3.95654 14.1021 3.68898 14.1406 3.37533C14.2175 2.74787 14.146 1.92964 13.5445 1.1901L13.3894 1.31629C13.9461 2.0008 14.0147 2.75852 13.9421 3.351C13.9057 3.64732 13.8342 3.90073 13.7717 4.07995C13.7405 4.16946 13.7116 4.24019 13.6908 4.2882C13.6803 4.3122 13.6719 4.33049 13.6662 4.34259C13.6633 4.34864 13.6611 4.35314 13.6597 4.35603C13.659 4.35747 13.6585 4.35851 13.6582 4.35914C13.658 4.35946 13.6579 4.35967 13.6579 4.35978C13.6578 4.35983 13.6578 4.35986 13.6578 4.35986C13.6578 4.35986 13.6578 4.35984 13.6578 4.35984C13.6578 4.35982 13.6579 4.35979 13.747 4.4051ZM13.5445 1.19006C13.0167 0.541804 12.5506 0.215166 12.1023 0.0536936C11.6565 -0.106892 11.2375 -0.0999695 10.823 -0.0999695V0.10003C11.2438 0.10003 11.6271 0.0950859 12.0345 0.241858C12.4395 0.387743 12.8776 0.687687 13.3894 1.31633L13.5445 1.19006ZM10.823 -0.0999695H5.30713V0.10003H10.823V-0.0999695ZM5.20713 3.04918e-05V12.1472H5.40713V3.04918e-05H5.20713ZM5.38991 12.2033L7.05605 9.74442L6.89048 9.63223L5.22434 12.0911L5.38991 12.2033ZM7.07327 9.68833V1.71364H6.87327V9.68833H7.07327ZM6.97327 1.81364H10.6378V1.61364H6.97327V1.81364ZM10.6378 1.71364C10.6402 1.81361 10.6401 1.81361 10.6401 1.81361C10.6401 1.81361 10.64 1.81361 10.64 1.81361C10.64 1.81362 10.64 1.81362 10.64 1.81361C10.6401 1.81361 10.6402 1.81361 10.6404 1.81361C10.6408 1.8136 10.6416 1.81359 10.6427 1.81358C10.6448 1.81357 10.6483 1.81356 10.6529 1.8136C10.6623 1.81368 10.6764 1.81397 10.6947 1.8148C10.7312 1.81648 10.7842 1.82034 10.8484 1.82911C10.9772 1.84671 11.1487 1.88379 11.3222 1.96104C11.6645 2.11345 12.0177 2.42211 12.0666 3.06928L12.266 3.0542C12.2105 2.32004 11.7995 1.95465 11.4036 1.77834C11.208 1.69124 11.017 1.65028 10.8755 1.63095C10.8046 1.62126 10.7455 1.61692 10.7038 1.61501C10.6829 1.61406 10.6663 1.61371 10.6547 1.61361C10.6489 1.61356 10.6444 1.61356 10.6411 1.61359C10.6395 1.6136 10.6382 1.61362 10.6373 1.61363C10.6368 1.61364 10.6364 1.61365 10.6361 1.61365C10.636 1.61366 10.6359 1.61366 10.6357 1.61366C10.6357 1.61366 10.6356 1.61366 10.6356 1.61366C10.6355 1.61367 10.6355 1.61367 10.6378 1.71364ZM12.0666 3.0541C12.0265 3.57775 11.8237 4.07577 11.4868 4.47859L11.6402 4.60692C12.0039 4.17214 12.2227 3.63459 12.266 3.06938L12.0666 3.0541ZM11.48 4.4876L5.22372 13.948L5.39054 14.0584L11.6469 4.59792L11.48 4.4876ZM5.20713 14.0032V16.2769H5.40713V14.0032H5.20713ZM5.30713 16.3769H11.8198V16.1769H5.30713V16.3769ZM11.8218 16.3769C13.1175 16.3508 14.3636 15.8743 15.3462 15.0293L15.2158 14.8777C14.2684 15.6924 13.067 16.1518 11.8178 16.177L11.8218 16.3769ZM15.3462 15.0293C16.3288 14.1843 16.9865 13.0236 17.2063 11.7464L17.0092 11.7125C16.7973 12.9439 16.1631 14.063 15.2158 14.8777L15.3462 15.0293Z" fill="#F7F9FC" mask="url(#path-1-inside-1)"/>
<path d="M19.4383 11.2568H18.2256V9.82835H20.95V10.5378C20.9496 12.2463 20.5303 13.9285 19.7289 15.4373C18.9274 16.9461 17.7683 18.2354 16.353 19.1923C14.9377 20.1492 13.3093 20.7445 11.6106 20.926C9.91182 21.1076 8.19446 20.8699 6.60888 20.2338C5.0233 19.5976 3.61787 18.5824 2.51566 17.2771C1.41346 15.9718 0.6481 14.4161 0.286609 12.7464C-0.0748822 11.0766 -0.021478 9.34369 0.442144 7.69937C0.905542 6.05583 1.76464 4.55091 2.94425 3.31626L3.96582 2.43938V4.31845C2.97599 5.35812 2.24847 6.61907 1.84385 7.99658C1.43734 9.38051 1.3686 10.8417 1.64338 12.2577C1.91816 13.6737 2.52845 15.0032 3.42309 16.1346C4.31772 17.266 5.4706 18.1665 6.78505 18.7604C8.0995 19.3543 9.5372 19.6244 10.9776 19.548C12.4179 19.4715 13.819 19.0509 15.0632 18.3212C16.3075 17.5916 17.3586 16.5743 18.1285 15.3545C18.8985 14.1348 19.3647 12.7482 19.4881 11.3111L19.4928 11.2568H19.4383Z" fill="#7B8692" stroke="#F7F9FC" stroke-width="0.1"/>
</svg>
