<svg width="20" height="13" viewBox="0 0 20 13" fill="none" xmlns="http://www.w3.org/2000/svg">
<path opacity="0.5" d="M1.19211 1.46816L8.85726 5.49421C9.11481 5.62911 9.44799 5.69307 9.78321 5.69307C10.1184 5.69307 10.4516 5.62911 10.7092 5.49421L18.3743 1.46816C18.8741 1.20536 19.3462 0.183105 18.4295 0.183105H1.13794C0.221191 0.183105 0.693364 1.20536 1.19211 1.46816V1.46816ZM18.6063 3.66955L10.7092 7.6936C10.3617 7.87147 10.1184 7.89245 9.78321 7.89245C9.44799 7.89245 9.20475 7.87147 8.85726 7.6936C8.50977 7.51573 1.56719 3.95734 0.99997 3.66855C0.601382 3.4647 0.60547 3.70352 0.60547 3.88739V11.175C0.60547 11.5947 1.18393 12.1743 1.62749 12.1743H17.9798C18.4234 12.1743 19.0018 11.5947 19.0018 11.175V3.88839C19.0018 3.70452 19.0059 3.4657 18.6063 3.66955V3.66955Z" fill="#95AAEE"/>
</svg>
