<svg width="18" height="14" viewBox="0 0 18 14" fill="none" xmlns="http://www.w3.org/2000/svg">
<path opacity="0.5" fill-rule="evenodd" clip-rule="evenodd" d="M15.5562 2.214C16.2934 1.77716 16.8591 1.08449 17.1256 0.259354C16.4353 0.663833 15.6726 0.95809 14.8578 1.11584C14.2084 0.429235 13.2802 0.000488281 12.253 0.000488281C10.2834 0.000488281 8.6854 1.58301 8.6854 3.53462C8.6854 3.81168 8.71603 4.08066 8.7773 4.33953C5.81108 4.19189 3.18182 2.78633 1.42047 0.645631C1.11312 1.16943 0.937498 1.77716 0.937498 2.42432C0.937498 3.64989 1.5675 4.73187 2.52527 5.36589C1.94121 5.3487 1.38983 5.18792 0.907887 4.92501V4.96849C0.907887 6.68146 2.13828 8.11028 3.772 8.43386C3.47282 8.51678 3.15731 8.55824 2.83159 8.55824C2.60185 8.55824 2.37721 8.537 2.15972 8.49554C2.6141 9.89908 3.93128 10.9214 5.49353 10.9487C4.27232 11.8972 2.73254 12.4625 1.06105 12.4625C0.773105 12.4625 0.488226 12.4463 0.209473 12.4139C1.78907 13.415 3.6658 14.0005 5.68038 14.0005C12.2459 14.0005 15.835 8.61587 15.835 3.94516C15.835 3.79146 15.8319 3.63776 15.8258 3.48709C16.5232 2.98857 17.1287 2.36669 17.6055 1.65784C16.9663 1.93895 16.2781 2.12905 15.5562 2.214Z" fill="#95AAEE"/>
</svg>
