<svg width="21" height="16" viewBox="0 0 21 16" fill="none" xmlns="http://www.w3.org/2000/svg">
<path fill-rule="evenodd" clip-rule="evenodd" d="M17.8627 2.52972C18.7103 2.03048 19.3606 1.23886 19.667 0.295847C18.8734 0.758108 17.9965 1.0944 17.0597 1.27468C16.3131 0.489996 15.246 0 14.0651 0C11.8006 0 9.96342 1.8086 9.96342 4.039C9.96342 4.35565 9.99864 4.66305 10.0691 4.9589C6.65885 4.79018 3.63602 3.18382 1.61101 0.737306C1.25767 1.33593 1.05575 2.03048 1.05575 2.7701C1.05575 4.17075 1.78006 5.40729 2.88119 6.13189C2.20971 6.11224 1.5758 5.92849 1.02171 5.62802V5.67772C1.02171 7.63539 2.43628 9.26833 4.31454 9.63814C3.97058 9.7329 3.60784 9.78028 3.23337 9.78028C2.96923 9.78028 2.71097 9.75601 2.46093 9.70863C2.98332 11.3127 4.49767 12.481 6.29376 12.5122C4.88976 13.5962 3.1195 14.2423 1.1978 14.2423C0.866751 14.2423 0.539229 14.2238 0.21875 14.1868C2.0348 15.3309 4.19245 16 6.50859 16C14.0569 16 18.1832 9.84615 18.1832 4.5082C18.1832 4.33254 18.1797 4.15688 18.1726 3.98469C18.9744 3.41495 19.6705 2.70423 20.2188 1.89411C19.4839 2.21538 18.6927 2.43265 17.8627 2.52972Z" fill="#2040A3"/>
</svg>
