<svg width="703" height="684" viewBox="0 0 703 684" fill="none" xmlns="http://www.w3.org/2000/svg">
<path d="M254.055 34.4179L243.951 53.9775L203.961 52.107L173.701 88.8748L116.495 111.641L100.67 158.135L47.2607 204.682C25.1806 248.932 12.7237 298.793 12.7237 351.593C12.7237 533.455 160.228 680.9 342.162 680.9C426.634 680.9 503.674 649.102 561.948 596.89C577.399 583.048 591.513 567.764 604.131 551.304L610.172 501.39" stroke="#ECEFF8" stroke-width="1.5449" stroke-miterlimit="10"/>
<path d="M558.046 119.07L592.957 140.928L518.002 114.421L492.874 59.0557L420.325 46.8175L396.748 26.9373L299.98 40.6183L254.055 34.4191" stroke="#ECEFF8" stroke-width="1.5449" stroke-miterlimit="10"/>
<path d="M518.004 114.42L554.787 100.098L558.048 119.07L522.976 76.3163L518.004 114.42Z" stroke="#ECEFF8" stroke-width="1.5449" stroke-miterlimit="10"/>
<path d="M394.72 676.196L312.868 679.029L244.275 665.668L394.72 676.196Z" stroke="#ECEFF8" stroke-width="1.5449" stroke-miterlimit="10"/>
<path d="M610.172 501.336L564.568 594.858L503.139 618.533L491.057 644.613L395.679 644.132L394.716 676.196L312.865 648.3L246.784 665.241L460.476 657.599L395.679 644.132L312.865 679.029L249.083 653.911L207.222 652.041L204.442 561.832L137.88 609.234" stroke="#ECEFF8" stroke-width="1.5449" stroke-miterlimit="10"/>
<path d="M173.701 88.8222C173.701 88.8222 220.695 82.3023 223.957 80.0043L243.952 53.9783L173.701 88.8222ZM173.701 88.8222L100.671 158.136L83.9371 199.553L21.1181 278.165C21.1181 278.165 59.7184 348.869 60.1995 350.258C60.6807 351.647 44.3745 421.87 44.3745 421.87L76.0246 479.052V545.533L137.881 609.235L244.272 665.67" stroke="#ECEFF8" stroke-width="1.5449" stroke-miterlimit="10"/>
<path d="M299.982 40.6154L420.327 46.8146L518.004 114.418L640.862 213.445L558.048 119.068L518.004 114.418L531.049 94.8585" stroke="#ECEFF8" stroke-width="1.5449" stroke-miterlimit="10"/>
<path d="M558.048 119.069L420.328 46.8157L531.049 94.8596L396.75 26.8286L245.825 53.3355L321.688 22.6067L420.328 46.8157L365.421 78.1324L254.058 34.4173" stroke="#ECEFF8" stroke-width="1.5449" stroke-miterlimit="10"/>
<path d="M59.718 298.099L95.8588 284.311L60.1991 350.204L98.3716 397.179" stroke="#ECEFF8" stroke-width="1.5449" stroke-miterlimit="10"/>
<path d="M144.244 223.545L116.497 111.585L95.8598 284.308L43.7334 249.571L144.244 223.545ZM144.244 223.545L83.9376 199.496" stroke="#ECEFF8" stroke-width="1.5449" stroke-miterlimit="10"/>
<path d="M171.885 522.765L204.444 561.83L110.938 555.31L171.885 522.765Z" stroke="#ECEFF8" stroke-width="1.5449" stroke-miterlimit="10"/>
<path d="M76.0257 545.532L171.885 522.766L76.0257 479.051L98.3733 397.179L44.3757 421.815" stroke="#ECEFF8" stroke-width="1.5449" stroke-miterlimit="10"/>
<path d="M584.724 406.479L610.172 501.338L553.394 444.636L584.724 406.479Z" stroke="#ECEFF8" stroke-width="1.5449" stroke-miterlimit="10"/>
<path d="M610.762 359.341L581.304 283.668L640.862 213.446L649.683 469.27" stroke="#ECEFF8" stroke-width="1.5449" stroke-miterlimit="10"/>
<path d="M553.394 444.633L557.083 513.466L610.172 501.335" stroke="#ECEFF8" stroke-width="1.5449" stroke-miterlimit="10"/>
<path d="M564.572 594.859L557.087 513.468L503.143 618.534L395.683 644.132L345.855 607.365L312.869 648.301L110.939 555.313" stroke="#ECEFF8" stroke-width="1.5449" stroke-miterlimit="10"/>
<path d="M345.854 607.364L503.142 618.534L476.143 556.221L616.536 533.829" stroke="#ECEFF8" stroke-width="1.5449" stroke-miterlimit="10"/>
<path d="M518.003 114.42L512.443 165.564L621.775 319.475L610.762 359.342C610.762 359.342 675.291 375.482 670.64 374.84C665.989 374.199 584.725 406.478 584.725 406.478L637.119 425.075L610.12 501.336L670.64 374.84" stroke="#ECEFF8" stroke-width="1.5449" stroke-miterlimit="10"/>
<path d="M512.443 165.561L607.661 193.137L670.64 374.838L640.861 213.445L592.958 140.871L607.714 193.137L640.915 213.445L621.828 319.473L670.693 374.838L637.172 425.073L649.736 469.269L610.173 501.334L616.589 533.826C651.34 481.668 671.602 418.981 671.602 351.591C671.602 250.747 626.266 160.484 554.786 100.095L531.048 94.8581L522.922 76.3139C485.498 51.6773 442.727 34.5226 396.749 26.827C379 23.8878 360.715 22.338 342.11 22.338C226.47 22.338 124.783 81.8718 65.9742 171.974L83.8843 199.55L36.4093 228.408L59.7191 298.096L13.6341 371.578L44.3217 421.813L75.9718 545.53L110.883 555.31L137.882 609.286L249.085 653.909L312.813 648.352L460.477 657.65" stroke="#ECEFF8" stroke-width="1.5449" stroke-miterlimit="10"/>
<path d="M195.141 139.537L83.9382 199.498" stroke="#ECEFF8" stroke-width="1.5449" stroke-miterlimit="10"/>
<path d="M492.875 59.0538L365.419 78.1324L321.686 22.6067L223.956 80.0029" stroke="#ECEFF8" stroke-width="1.5449" stroke-miterlimit="10"/>
<path d="M21.1176 278.111L44.374 421.815L36.4615 228.357L116.495 111.587L195.139 139.537L223.956 80.0031L365.419 78.1326L518.002 118.107L607.659 193.139" stroke="#ECEFF8" stroke-width="1.5449" stroke-miterlimit="10"/>
<path d="M610.763 359.342L607.662 193.139L581.305 283.669" stroke="#ECEFF8" stroke-width="1.5449" stroke-miterlimit="10"/>
<path d="M508.436 497.007L483.575 503.206L513.354 521.804L508.436 497.007Z" stroke="#ECEFF8" stroke-width="1.5449" stroke-miterlimit="10"/>
<path d="M464.969 532.974L436.473 560.283V537.944L464.969 532.974Z" stroke="#ECEFF8" stroke-width="1.5449" stroke-miterlimit="10"/>
<path d="M267.691 102.609L326.019 116.236L234.223 129.917L267.691 102.609Z" stroke="#ECEFF8" stroke-width="1.5449" stroke-miterlimit="10"/>
<path d="M326.019 116.236L277.635 144.774L267.691 102.609" stroke="#ECEFF8" stroke-width="1.5449" stroke-miterlimit="10"/>
<path d="M93.9901 341.975L122.539 349.403L100.192 350.686L93.9901 341.975Z" stroke="#ECEFF8" stroke-width="1.5449" stroke-miterlimit="10"/>
<path d="M459.998 134.834L497.261 186.939L461.281 158.401L459.998 134.834Z" stroke="#ECEFF8" stroke-width="1.5449" stroke-miterlimit="10"/>
<path d="M237.911 534.201L277.634 575.138L237.911 561.51L255.287 531.743L237.911 534.201Z" stroke="#ECEFF8" stroke-width="1.5449" stroke-miterlimit="10"/>
<path d="M558.047 286.182L560.506 251.445L544.414 263.844L558.047 286.182Z" stroke="#ECEFF8" stroke-width="1.5449" stroke-miterlimit="10"/>
<path d="M101.476 472.21L149.86 487.067L128.742 466.011L112.596 485.838L101.476 472.21Z" stroke="#ECEFF8" stroke-width="1.5449" stroke-miterlimit="10"/>
<path d="M551.204 444.633C551.204 445.809 552.166 446.824 553.396 446.824C554.572 446.824 555.588 445.862 555.588 444.633C555.588 443.457 554.626 442.442 553.396 442.442C552.166 442.442 551.204 443.404 551.204 444.633Z" fill="#5E7BD7"/>
<path d="M557.726 542.753C557.726 543.929 558.689 544.944 559.918 544.944C561.094 544.944 562.11 543.982 562.11 542.753C562.11 541.577 561.148 540.562 559.918 540.562C558.689 540.562 557.726 541.524 557.726 542.753Z" fill="#5E7BD7"/>
<path d="M581.787 406.476C581.787 408.026 583.016 409.255 584.567 409.255C586.117 409.255 587.347 408.026 587.347 406.476C587.347 404.926 586.117 403.697 584.567 403.697C583.016 403.697 581.787 404.926 581.787 406.476Z" fill="#5E7BD7"/>
<path d="M392.845 644.132C392.845 645.682 394.075 646.911 395.625 646.911C397.176 646.911 398.405 645.682 398.405 644.132C398.405 642.583 397.176 641.353 395.625 641.353C394.128 641.353 392.845 642.583 392.845 644.132Z" fill="#5E7BD7"/>
<path d="M241.493 665.667C241.493 667.217 242.723 668.446 244.273 668.446C245.824 668.446 247.053 667.217 247.053 665.667C247.053 664.117 245.824 662.888 244.273 662.888C242.723 662.888 241.493 664.117 241.493 665.667Z" fill="#5E7BD7"/>
<path d="M169.052 523.192C169.052 524.742 170.281 525.971 171.832 525.971C173.382 525.971 174.612 524.742 174.612 523.192C174.612 521.642 173.382 520.413 171.832 520.413C170.335 520.413 169.052 521.642 169.052 523.192Z" fill="#5E7BD7"/>
<path d="M95.5405 397.177C95.5405 398.727 96.7701 399.956 98.3205 399.956C99.8709 399.956 101.101 398.727 101.101 397.177C101.101 395.627 99.8709 394.398 98.3205 394.398C96.8236 394.398 95.5405 395.627 95.5405 397.177Z" fill="#5E7BD7"/>
<path d="M0.643163 407.385C0.643163 408.935 1.87279 410.164 3.42323 410.164C4.97367 410.164 6.20337 408.935 6.20337 407.385C6.20337 405.835 4.97367 404.606 3.42323 404.606C1.87279 404.606 0.643163 405.835 0.643163 407.385Z" fill="#5E7BD7"/>
<path d="M40.9514 249.572C40.9514 251.122 42.181 252.351 43.7315 252.351C45.2819 252.351 46.5116 251.122 46.5116 249.572C46.5116 248.022 45.2819 246.793 43.7315 246.793C42.2345 246.793 40.9514 248.022 40.9514 249.572Z" fill="#5E7BD7"/>
<path d="M113.716 111.906C113.716 113.456 114.946 114.685 116.496 114.685C118.047 114.685 119.276 113.456 119.276 111.906C119.276 110.357 118.047 109.127 116.496 109.127C114.946 109.127 113.716 110.357 113.716 111.906Z" fill="#5E7BD7"/>
<path d="M64.8515 115.326C64.8515 116.876 66.0812 118.105 67.6316 118.105C69.182 118.105 70.4116 116.876 70.4116 115.326C70.4116 113.776 69.182 112.547 67.6316 112.547C66.0812 112.547 64.8515 113.776 64.8515 115.326Z" fill="#5E7BD7"/>
<path d="M221.659 80.1079C221.659 81.6577 222.889 82.8868 224.439 82.8868C225.99 82.8868 227.219 81.6577 227.219 80.1079C227.219 78.5581 225.99 77.3289 224.439 77.3289C222.889 77.3289 221.659 78.6115 221.659 80.1079Z" fill="#5E7BD7"/>
<path d="M264.91 103.09C264.91 104.639 266.14 105.869 267.691 105.869C269.241 105.869 270.471 104.639 270.471 103.09C270.471 101.54 269.241 100.311 267.691 100.311C266.194 100.311 264.91 101.54 264.91 103.09Z" fill="#5E7BD7"/>
<path d="M323.4 116.237C323.4 117.787 324.629 119.016 326.18 119.016C327.73 119.016 328.96 117.787 328.96 116.237C328.96 114.687 327.73 113.458 326.18 113.458C324.629 113.458 323.4 114.741 323.4 116.237Z" fill="#5E7BD7"/>
<path d="M275.336 144.293C275.336 145.843 276.565 147.072 278.116 147.072C279.666 147.072 280.896 145.843 280.896 144.293C280.896 142.743 279.666 141.514 278.116 141.514C276.565 141.514 275.336 142.797 275.336 144.293Z" fill="#5E7BD7"/>
<path d="M231.122 130.075C231.122 131.625 232.351 132.854 233.902 132.854C235.452 132.854 236.682 131.625 236.682 130.075C236.682 128.525 235.452 127.296 233.902 127.296C232.351 127.243 231.122 128.525 231.122 130.075Z" fill="#5E7BD7"/>
<path d="M363.23 79.0406C363.23 80.5904 364.459 81.8195 366.01 81.8195C367.56 81.8195 368.79 80.5904 368.79 79.0406C368.79 77.4908 367.56 76.2616 366.01 76.2616C364.513 76.2616 363.23 77.4908 363.23 79.0406Z" fill="#5E7BD7"/>
<path d="M354.248 2.77895C354.248 4.32875 355.478 5.5579 357.028 5.5579C358.579 5.5579 359.808 4.32875 359.808 2.77895C359.808 1.22915 358.579 0 357.028 0C355.478 0 354.248 1.22915 354.248 2.77895Z" fill="#5E7BD7"/>
<path d="M135.585 608.806C135.585 610.356 136.814 611.585 138.365 611.585C139.915 611.585 141.145 610.356 141.145 608.806C141.145 607.256 139.915 606.027 138.365 606.027C136.814 605.974 135.585 607.256 135.585 608.806Z" fill="#5E7BD7"/>
<path d="M138.365 631.57C138.365 633.12 139.594 634.349 141.145 634.349C142.695 634.349 143.925 633.12 143.925 631.57C143.925 630.021 142.695 628.791 141.145 628.791C139.594 628.791 138.365 630.021 138.365 631.57Z" fill="#5E7BD7"/>
<path d="M667.592 374.625C667.592 376.175 668.822 377.404 670.372 377.404C671.923 377.404 673.152 376.175 673.152 374.625C673.152 373.075 671.923 371.846 670.372 371.846C668.875 371.846 667.592 373.075 667.592 374.625Z" fill="#5E7BD7"/>
<path d="M697.318 371.098C697.318 372.647 698.548 373.877 700.098 373.877C701.649 373.877 702.879 372.647 702.879 371.098C702.879 369.548 701.649 368.319 700.098 368.319C698.548 368.319 697.318 369.601 697.318 371.098Z" fill="#5E7BD7"/>
<path d="M578.737 283.455C578.737 285.005 579.967 286.234 581.517 286.234C583.068 286.234 584.297 285.005 584.297 283.455C584.297 281.905 583.068 280.676 581.517 280.676C580.02 280.676 578.737 281.905 578.737 283.455Z" fill="#5E7BD7"/>
<path d="M641.342 298.578C641.342 300.128 642.571 301.357 644.122 301.357C645.672 301.357 646.902 300.128 646.902 298.578C646.902 297.028 645.672 295.799 644.122 295.799C642.571 295.799 641.342 297.028 641.342 298.578Z" fill="#5E7BD7"/>
<path d="M632.468 179.512C632.468 181.061 633.698 182.29 635.248 182.29C636.799 182.29 638.028 181.061 638.028 179.512C638.028 177.962 636.799 176.733 635.248 176.733C633.751 176.733 632.468 177.962 632.468 179.512Z" fill="#5E7BD7"/>
<path d="M495.227 187.419C495.227 188.969 496.456 190.198 498.007 190.198C499.557 190.198 500.787 188.969 500.787 187.419C500.787 185.869 499.557 184.64 498.007 184.64C496.456 184.64 495.227 185.869 495.227 187.419Z" fill="#5E7BD7"/>
<path d="M604.828 192.763C604.828 194.313 606.058 195.542 607.608 195.542C609.159 195.542 610.388 194.313 610.388 192.763C610.388 191.213 609.159 189.984 607.608 189.984C606.058 189.984 604.828 191.213 604.828 192.763Z" fill="#5E7BD7"/>
<path d="M516.187 113.454C516.187 115.004 517.417 116.233 518.967 116.233C520.518 116.233 521.747 115.004 521.747 113.454C521.747 111.904 520.518 110.675 518.967 110.675C517.417 110.675 516.187 111.904 516.187 113.454Z" fill="#5E7BD7"/>
<path d="M647.545 469.269C647.545 470.445 648.508 471.46 649.737 471.46C650.914 471.46 651.929 470.498 651.929 469.269C651.929 468.093 650.967 467.078 649.737 467.078C648.508 467.078 647.545 468.04 647.545 469.269Z" fill="#5E7BD7"/>
<path d="M671.282 443.083C671.282 444.259 672.244 445.274 673.474 445.274C674.65 445.274 675.666 444.312 675.666 443.083C675.666 441.907 674.703 440.892 673.474 440.892C672.244 440.892 671.282 441.854 671.282 443.083Z" fill="#5E7BD7"/>
<path d="M634.981 425.074C634.981 426.25 635.944 427.265 637.173 427.265C638.349 427.265 639.365 426.303 639.365 425.074C639.365 423.898 638.403 422.883 637.173 422.883C635.944 422.883 634.981 423.898 634.981 425.074Z" fill="#5E7BD7"/>
<path d="M608.675 358.806C608.675 359.982 609.638 360.997 610.867 360.997C612.043 360.997 613.059 360.035 613.059 358.806C613.059 357.63 612.097 356.615 610.867 356.615C609.638 356.615 608.675 357.577 608.675 358.806Z" fill="#5E7BD7"/>
<path d="M555.856 286.928C555.856 288.103 556.818 289.119 558.048 289.119C559.224 289.119 560.24 288.157 560.24 286.928C560.24 285.752 559.277 284.736 558.048 284.736C556.818 284.79 555.856 285.752 555.856 286.928Z" fill="#5E7BD7"/>
<path d="M607.501 303.227C607.501 304.402 608.464 305.418 609.693 305.418C610.87 305.418 611.885 304.456 611.885 303.227C611.885 302.051 610.923 301.035 609.693 301.035C608.464 301.035 607.501 301.997 607.501 303.227Z" fill="#5E7BD7"/>
<path d="M558.366 251.443C558.366 252.619 559.329 253.634 560.558 253.634C561.735 253.634 562.75 252.672 562.75 251.443C562.75 250.267 561.788 249.252 560.558 249.252C559.329 249.252 558.366 250.267 558.366 251.443Z" fill="#5E7BD7"/>
<path d="M542.436 263.893C542.436 265.069 543.398 266.084 544.627 266.084C545.804 266.084 546.819 265.123 546.819 263.893C546.819 262.718 545.857 261.702 544.627 261.702C543.451 261.756 542.436 262.718 542.436 263.893Z" fill="#5E7BD7"/>
<path d="M459.407 158.346C459.407 159.522 460.369 160.537 461.599 160.537C462.775 160.537 463.791 159.575 463.791 158.346C463.791 157.171 462.829 156.155 461.599 156.155C460.369 156.155 459.407 157.171 459.407 158.346Z" fill="#5E7BD7"/>
<path d="M589.698 139.537C589.698 140.712 590.661 141.728 591.89 141.728C593.066 141.728 594.082 140.766 594.082 139.537C594.082 138.361 593.12 137.345 591.89 137.345C590.661 137.345 589.698 138.307 589.698 139.537Z" fill="#5E7BD7"/>
<path d="M555.697 119.283C555.697 120.459 556.66 121.474 557.889 121.474C559.065 121.474 560.081 120.512 560.081 119.283C560.081 118.107 559.119 117.092 557.889 117.092C556.713 117.092 555.697 118.107 555.697 119.283Z" fill="#5E7BD7"/>
<path d="M552.594 100.096C552.594 101.271 553.556 102.287 554.786 102.287C556.015 102.287 556.978 101.325 556.978 100.096C556.978 98.9199 556.015 97.9045 554.786 97.9045C553.556 97.9045 552.594 98.8664 552.594 100.096Z" fill="#5E7BD7"/>
<path d="M457.751 133.712C457.751 134.887 458.714 135.903 459.943 135.903C461.119 135.903 462.135 134.941 462.135 133.712C462.135 132.536 461.173 131.521 459.943 131.521C458.767 131.521 457.751 132.483 457.751 133.712Z" fill="#5E7BD7"/>
<path d="M510.25 165.56C510.25 166.736 511.213 167.752 512.442 167.752C513.618 167.752 514.634 166.79 514.634 165.56C514.634 164.385 513.672 163.369 512.442 163.369C511.266 163.369 510.25 164.331 510.25 165.56Z" fill="#5E7BD7"/>
<path d="M638.937 213.926C638.937 215.102 639.899 216.117 641.129 216.117C642.305 216.117 643.321 215.155 643.321 213.926C643.321 212.75 642.359 211.735 641.129 211.735C639.899 211.735 638.937 212.75 638.937 213.926Z" fill="#5E7BD7"/>
<path d="M650.805 219.806C650.805 220.982 651.767 221.998 652.997 221.998C654.173 221.998 655.189 221.036 655.189 219.806C655.189 218.631 654.226 217.615 652.997 217.615C651.767 217.669 650.805 218.631 650.805 219.806Z" fill="#5E7BD7"/>
<path d="M543.453 75.0323C543.453 76.208 544.415 77.2234 545.645 77.2234C546.821 77.2234 547.837 76.2615 547.837 75.0323C547.837 73.8566 546.874 72.8412 545.645 72.8412C544.415 72.8412 543.453 73.8031 543.453 75.0323Z" fill="#5E7BD7"/>
<path d="M510.25 44.6241C510.25 45.7998 511.213 46.8152 512.442 46.8152C513.618 46.8152 514.634 45.8533 514.634 44.6241C514.634 43.4484 513.672 42.433 512.442 42.433C511.266 42.4864 510.25 43.4484 510.25 44.6241Z" fill="#5E7BD7"/>
<path d="M290.679 11.4374C290.679 12.6131 291.641 13.6285 292.871 13.6285C294.047 13.6285 295.063 12.6666 295.063 11.4374C295.063 10.2617 294.1 9.24634 292.871 9.24634C291.641 9.29978 290.679 10.2617 290.679 11.4374Z" fill="#5E7BD7"/>
<path d="M327.89 13.3062C327.89 14.4819 328.852 15.4973 330.082 15.4973C331.258 15.4973 332.274 14.5353 332.274 13.3062C332.274 12.1305 331.311 11.1151 330.082 11.1151C328.852 11.1685 327.89 12.1305 327.89 13.3062Z" fill="#5E7BD7"/>
<path d="M607.662 500.747C607.662 501.923 608.624 502.938 609.854 502.938C611.03 502.938 612.046 501.976 612.046 500.747C612.046 499.571 611.083 498.556 609.854 498.556C608.624 498.556 607.662 499.518 607.662 500.747Z" fill="#5E7BD7"/>
<path d="M614.505 534.199C614.505 535.375 615.468 536.39 616.697 536.39C617.873 536.39 618.889 535.428 618.889 534.199C618.889 533.024 617.927 532.008 616.697 532.008C615.468 532.062 614.505 533.024 614.505 534.199Z" fill="#5E7BD7"/>
<path d="M555.269 513.732C555.269 514.908 556.232 515.923 557.461 515.923C558.637 515.923 559.653 514.961 559.653 513.732C559.653 512.556 558.691 511.541 557.461 511.541C556.232 511.594 555.269 512.556 555.269 513.732Z" fill="#5E7BD7"/>
<path d="M506.243 497.006C506.243 498.182 507.206 499.198 508.435 499.198C509.612 499.198 510.627 498.236 510.627 497.006C510.627 495.831 509.665 494.815 508.435 494.815C507.206 494.815 506.243 495.831 506.243 497.006Z" fill="#5E7BD7"/>
<path d="M511.213 521.803C511.213 522.979 512.175 523.994 513.405 523.994C514.581 523.994 515.597 523.032 515.597 521.803C515.597 520.627 514.635 519.612 513.405 519.612C512.175 519.665 511.213 520.627 511.213 521.803Z" fill="#5E7BD7"/>
<path d="M678.713 401.827C678.713 403.003 679.675 404.018 680.905 404.018C682.081 404.018 683.096 403.056 683.096 401.827C683.096 400.651 682.134 399.636 680.905 399.636C679.675 399.636 678.713 400.598 678.713 401.827Z" fill="#5E7BD7"/>
<path d="M481.755 503.526C481.755 504.702 482.718 505.717 483.947 505.717C485.123 505.717 486.139 504.755 486.139 503.526C486.139 502.35 485.177 501.335 483.947 501.335C482.718 501.335 481.755 502.297 481.755 503.526Z" fill="#5E7BD7"/>
<path d="M474.005 555.898C474.005 557.074 474.967 558.089 476.197 558.089C477.373 558.089 478.389 557.128 478.389 555.898C478.389 554.723 477.426 553.707 476.197 553.707C474.967 553.761 474.005 554.723 474.005 555.898Z" fill="#5E7BD7"/>
<path d="M462.83 532.974C462.83 534.149 463.792 535.165 465.022 535.165C466.198 535.165 467.214 534.203 467.214 532.974C467.214 531.798 466.252 530.783 465.022 530.783C463.792 530.783 462.83 531.798 462.83 532.974Z" fill="#5E7BD7"/>
<path d="M434.281 560.281C434.281 561.457 435.243 562.472 436.473 562.472C437.649 562.472 438.665 561.51 438.665 560.281C438.665 559.106 437.703 558.09 436.473 558.09C435.243 558.09 434.281 559.052 434.281 560.281Z" fill="#5E7BD7"/>
<path d="M344.196 607.095C344.196 608.271 345.158 609.286 346.388 609.286C347.564 609.286 348.58 608.324 348.58 607.095C348.58 605.919 347.617 604.904 346.388 604.904C345.158 604.904 344.196 605.866 344.196 607.095Z" fill="#5E7BD7"/>
<path d="M310.354 648.298C310.354 649.474 311.317 650.489 312.546 650.489C313.723 650.489 314.738 649.527 314.738 648.298C314.738 647.123 313.776 646.107 312.546 646.107C311.317 646.161 310.354 647.123 310.354 648.298Z" fill="#5E7BD7"/>
<path d="M310.513 679.296C310.513 680.472 311.475 681.487 312.705 681.487C313.881 681.487 314.897 680.525 314.897 679.296C314.897 678.12 313.934 677.105 312.705 677.105C311.475 677.158 310.513 678.12 310.513 679.296Z" fill="#5E7BD7"/>
<path d="M350.825 662.246C350.825 663.422 351.787 664.437 353.017 664.437C354.193 664.437 355.208 663.475 355.208 662.246C355.208 661.07 354.246 660.055 353.017 660.055C351.787 660.108 350.825 661.07 350.825 662.246Z" fill="#5E7BD7"/>
<path d="M392.738 676.515C392.738 677.69 393.701 678.706 394.93 678.706C396.106 678.706 397.122 677.744 397.122 676.515C397.122 675.339 396.16 674.324 394.93 674.324C393.701 674.377 392.738 675.339 392.738 676.515Z" fill="#5E7BD7"/>
<path d="M462.509 659.787C461.299 659.787 460.317 658.806 460.317 657.595C460.317 656.385 461.299 655.404 462.509 655.404C463.72 655.404 464.701 656.385 464.701 657.595C464.701 658.806 463.72 659.787 462.509 659.787Z" fill="#5E7BD7"/>
<path d="M488.868 645.2C488.868 646.376 489.831 647.391 491.06 647.391C492.236 647.391 493.252 646.429 493.252 645.2C493.252 644.025 492.29 643.009 491.06 643.009C489.831 643.063 488.868 644.025 488.868 645.2Z" fill="#5E7BD7"/>
<path d="M417.548 681.808C417.548 682.984 418.51 683.999 419.74 683.999C420.916 683.999 421.932 683.038 421.932 681.808C421.932 680.633 420.97 679.617 419.74 679.617C418.51 679.617 417.548 680.579 417.548 681.808Z" fill="#5E7BD7"/>
<path d="M524.526 645.519C524.526 646.695 525.488 647.71 526.718 647.71C527.894 647.71 528.91 646.748 528.91 645.519C528.91 644.343 527.947 643.328 526.718 643.328C525.488 643.328 524.526 644.343 524.526 645.519Z" fill="#5E7BD7"/>
<path d="M275.441 575.136C275.441 576.312 276.403 577.328 277.633 577.328C278.809 577.328 279.825 576.366 279.825 575.136C279.825 573.907 278.863 572.945 277.633 572.945C276.457 572.945 275.441 573.961 275.441 575.136Z" fill="#5E7BD7"/>
<path d="M235.614 561.831C235.614 563.006 236.576 564.022 237.806 564.022C238.982 564.022 239.998 563.06 239.998 561.831C239.998 560.655 239.035 559.64 237.806 559.64C236.576 559.64 235.614 560.602 235.614 561.831Z" fill="#5E7BD7"/>
<path d="M253.148 531.743C253.148 532.918 254.11 533.934 255.34 533.934C256.516 533.934 257.532 532.972 257.532 531.743C257.532 530.567 256.57 529.552 255.34 529.552C254.11 529.552 253.148 530.514 253.148 531.743Z" fill="#5E7BD7"/>
<path d="M235.772 534.199C235.772 535.375 236.734 536.39 237.964 536.39C239.14 536.39 240.156 535.428 240.156 534.199C240.156 533.024 239.194 532.008 237.964 532.008C236.734 532.062 235.772 533.024 235.772 534.199Z" fill="#5E7BD7"/>
<path d="M148.575 487.708C148.575 488.884 149.538 489.899 150.767 489.899C151.944 489.899 152.959 488.937 152.959 487.708C152.959 486.479 151.997 485.517 150.767 485.517C149.591 485.517 148.575 486.532 148.575 487.708Z" fill="#5E7BD7"/>
<path d="M126.603 466.009C126.603 467.185 127.565 468.2 128.795 468.2C129.971 468.2 130.987 467.238 130.987 466.009C130.987 464.833 130.025 463.818 128.795 463.818C127.565 463.818 126.603 464.78 126.603 466.009Z" fill="#5E7BD7"/>
<path d="M110.456 485.248C110.456 486.423 111.418 487.439 112.648 487.439C113.824 487.439 114.84 486.477 114.84 485.248C114.84 484.018 113.877 483.056 112.648 483.056C111.418 483.056 110.456 484.018 110.456 485.248Z" fill="#5E7BD7"/>
<path d="M99.281 472.208C99.281 473.384 100.243 474.399 101.473 474.399C102.649 474.399 103.665 473.437 103.665 472.208C103.665 471.033 102.703 470.017 101.473 470.017C100.243 470.017 99.281 470.979 99.281 472.208Z" fill="#5E7BD7"/>
<path d="M74.1544 479.05C74.1544 480.226 75.1167 481.241 76.3464 481.241C77.5225 481.241 78.5383 480.279 78.5383 479.05C78.5383 477.874 77.576 476.859 76.3464 476.859C75.1167 476.859 74.1544 477.821 74.1544 479.05Z" fill="#5E7BD7"/>
<path d="M42.1831 421.814C42.1831 422.99 43.1455 424.005 44.3751 424.005C45.5513 424.005 46.5671 423.043 46.5671 421.814C46.5671 420.639 45.6048 419.623 44.3751 419.623C43.1989 419.623 42.1831 420.639 42.1831 421.814Z" fill="#5E7BD7"/>
<path d="M17.6968 478.409C17.6968 479.585 18.6591 480.6 19.8887 480.6C21.0649 480.6 22.0807 479.638 22.0807 478.409C22.0807 477.233 21.1184 476.218 19.8887 476.218C18.6591 476.218 17.6968 477.18 17.6968 478.409Z" fill="#5E7BD7"/>
<path d="M11.4961 371.579C11.4961 372.754 12.4584 373.77 13.6881 373.77C14.8642 373.77 15.88 372.808 15.88 371.579C15.88 370.403 14.9177 369.387 13.6881 369.387C12.4584 369.441 11.4961 370.403 11.4961 371.579Z" fill="#5E7BD7"/>
<path d="M4.10065e-05 445.864C4.10065e-05 447.04 0.962373 448.055 2.19204 448.055C3.36824 448.055 4.38403 447.093 4.38403 445.864C4.38403 444.688 3.4217 443.673 2.19204 443.673C1.01584 443.673 4.10065e-05 444.635 4.10065e-05 445.864Z" fill="#5E7BD7"/>
<path d="M18.6056 278.75C18.6056 279.926 19.5679 280.941 20.7975 280.941C21.9737 280.941 22.9895 279.979 22.9895 278.75C22.9895 277.575 22.0271 276.559 20.7975 276.559C19.6214 276.559 18.6056 277.521 18.6056 278.75Z" fill="#5E7BD7"/>
<path d="M57.5807 298.097C57.5807 299.272 58.543 300.288 59.7725 300.288C60.9486 300.288 61.9644 299.326 61.9644 298.097C61.9644 296.921 61.0021 295.905 59.7725 295.905C58.543 295.959 57.5807 296.921 57.5807 298.097Z" fill="#5E7BD7"/>
<path d="M93.561 284.471C93.561 285.646 94.5234 286.662 95.753 286.662C96.9293 286.662 97.9451 285.7 97.9451 284.471C97.9451 283.295 96.9827 282.279 95.753 282.279C94.5234 282.279 93.561 283.241 93.561 284.471Z" fill="#5E7BD7"/>
<path d="M142.105 223.223C142.105 224.399 143.068 225.414 144.297 225.414C145.473 225.414 146.489 224.452 146.489 223.223C146.489 222.047 145.527 221.032 144.297 221.032C143.068 221.032 142.105 222.047 142.105 223.223Z" fill="#5E7BD7"/>
<path d="M82.2246 199.657C82.2246 200.833 83.1869 201.849 84.4165 201.849C85.5927 201.849 86.6085 200.887 86.6085 199.657C86.6085 198.482 85.6462 197.466 84.4165 197.466C83.1869 197.466 82.2246 198.482 82.2246 199.657Z" fill="#5E7BD7"/>
<path d="M63.6243 172.082C63.6243 173.258 64.5866 174.273 65.8163 174.273C66.9925 174.273 68.0083 173.311 68.0083 172.082C68.0083 170.906 67.046 169.891 65.8163 169.891C64.5866 169.891 63.6243 170.853 63.6243 172.082Z" fill="#5E7BD7"/>
<path d="M60.2013 133.285C60.2013 134.461 61.1636 135.476 62.3933 135.476C63.5694 135.476 64.5852 134.514 64.5852 133.285C64.5852 132.109 63.6229 131.094 62.3933 131.094C61.1636 131.147 60.2013 132.109 60.2013 133.285Z" fill="#5E7BD7"/>
<path d="M44.6984 164.92C44.6984 166.096 45.6607 167.111 46.8903 167.111C48.12 167.111 49.0823 166.149 49.0823 164.92C49.0823 163.744 48.12 162.729 46.8903 162.729C45.6607 162.729 44.6984 163.744 44.6984 164.92Z" fill="#5E7BD7"/>
<path d="M105.111 209.972C103.9 209.972 102.919 208.991 102.919 207.781C102.919 206.571 103.9 205.59 105.111 205.59C106.322 205.59 107.303 206.571 107.303 207.781C107.303 208.991 106.322 209.972 105.111 209.972Z" fill="#5E7BD7"/>
<path d="M129.702 173.576C129.702 174.752 130.664 175.767 131.894 175.767C133.07 175.767 134.086 174.805 134.086 173.576C134.086 172.4 133.124 171.385 131.894 171.385C130.664 171.385 129.702 172.4 129.702 173.576Z" fill="#5E7BD7"/>
<path d="M138.524 120.084C138.524 121.26 139.486 122.275 140.716 122.275C141.892 122.275 142.908 121.313 142.908 120.084C142.908 118.909 141.945 117.893 140.716 117.893C139.486 117.947 138.524 118.909 138.524 120.084Z" fill="#5E7BD7"/>
<path d="M105.484 186.831C105.484 188.007 106.447 189.022 107.676 189.022C108.852 189.022 109.868 188.06 109.868 186.831C109.868 185.655 108.906 184.64 107.676 184.64C106.447 184.64 105.484 185.655 105.484 186.831Z" fill="#5E7BD7"/>
<path d="M192.949 139.537C192.949 140.712 193.912 141.728 195.142 141.728C196.318 141.728 197.333 140.766 197.333 139.537C197.333 138.361 196.371 137.345 195.142 137.345C193.912 137.345 192.949 138.307 192.949 139.537Z" fill="#5E7BD7"/>
<path d="M171.564 88.8205C171.564 89.9962 172.526 91.0116 173.756 91.0116C174.932 91.0116 175.948 90.0496 175.948 88.8205C175.948 87.6448 174.986 86.6294 173.756 86.6294C172.526 86.6294 171.564 87.5913 171.564 88.8205Z" fill="#5E7BD7"/>
<path d="M251.863 34.4178C251.863 35.5935 252.826 36.6089 254.055 36.6089C255.231 36.6089 256.247 35.647 256.247 34.4178C256.247 33.2421 255.285 32.2267 254.055 32.2267C252.879 32.2267 251.863 33.1887 251.863 34.4178Z" fill="#5E7BD7"/>
<path d="M241.812 53.9241C241.812 55.0999 242.775 56.1153 244.004 56.1153C245.181 56.1153 246.196 55.1533 246.196 53.9241C246.196 52.7484 245.234 51.733 244.004 51.733C242.775 51.7865 241.812 52.7484 241.812 53.9241Z" fill="#5E7BD7"/>
<path d="M319.817 23.087C319.817 24.2627 320.779 25.2781 322.009 25.2781C323.185 25.2781 324.201 24.3162 324.201 23.087C324.201 21.9113 323.238 20.8959 322.009 20.8959C320.779 20.8959 319.817 21.8579 319.817 23.087Z" fill="#5E7BD7"/>
<path d="M394.879 27.0935C394.879 28.2692 395.841 29.2846 397.071 29.2846C398.247 29.2846 399.263 28.3227 399.263 27.0935C399.263 25.9178 398.301 24.9024 397.071 24.9024C395.841 24.9558 394.879 25.9178 394.879 27.0935Z" fill="#5E7BD7"/>
<path d="M417.976 46.9745C417.976 48.1502 418.938 49.1656 420.168 49.1656C421.344 49.1656 422.36 48.2037 422.36 46.9745C422.36 45.7988 421.398 44.7834 420.168 44.7834C418.992 44.7834 417.976 45.7453 417.976 46.9745Z" fill="#5E7BD7"/>
<path d="M490.739 59.0526C490.739 60.2283 491.701 61.2437 492.931 61.2437C494.107 61.2437 495.123 60.2817 495.123 59.0526C495.123 57.8768 494.16 56.8615 492.931 56.8615C491.701 56.8615 490.739 57.8768 490.739 59.0526Z" fill="#5E7BD7"/>
<path d="M520.786 76.314C520.786 77.4897 521.748 78.5051 522.978 78.5051C524.154 78.5051 525.17 77.5432 525.17 76.314C525.17 75.1383 524.207 74.1229 522.978 74.1229C521.748 74.1229 520.786 75.0849 520.786 76.314Z" fill="#5E7BD7"/>
<path d="M528.75 95.3399C528.75 96.5156 529.713 97.531 530.942 97.531C532.118 97.531 533.134 96.5691 533.134 95.3399C533.134 94.1642 532.172 93.1488 530.942 93.1488C529.713 93.1488 528.75 94.1108 528.75 95.3399Z" fill="#5E7BD7"/>
<path d="M201.769 52.0505C201.769 53.2262 202.732 54.2416 203.961 54.2416C205.137 54.2416 206.153 53.2796 206.153 52.0505C206.153 50.8748 205.191 49.8594 203.961 49.8594C202.785 49.9128 201.769 50.8748 201.769 52.0505Z" fill="#5E7BD7"/>
<path d="M45.07 204.681C45.07 205.857 46.0323 206.872 47.2619 206.872C48.4381 206.872 49.4539 205.91 49.4539 204.681C49.4539 203.506 48.4915 202.49 47.2619 202.49C46.0858 202.49 45.07 203.452 45.07 204.681Z" fill="#5E7BD7"/>
<path d="M34.7516 228.194C34.7516 229.37 35.7138 230.385 36.9434 230.385C38.1195 230.385 39.1353 229.423 39.1353 228.194C39.1353 227.019 38.173 226.003 36.9434 226.003C35.7138 226.003 34.7516 226.965 34.7516 228.194Z" fill="#5E7BD7"/>
<path d="M58.3309 350.364C58.3309 351.54 59.2932 352.555 60.5229 352.555C61.6991 352.555 62.7148 351.593 62.7148 350.364C62.7148 349.188 61.7525 348.173 60.5229 348.173C59.2932 348.173 58.3309 349.135 58.3309 350.364Z" fill="#5E7BD7"/>
<path d="M122.218 349.401C122.218 350.577 123.181 351.592 124.41 351.592C125.587 351.592 126.602 350.631 126.602 349.401C126.602 348.226 125.64 347.21 124.41 347.21C123.181 347.264 122.218 348.226 122.218 349.401Z" fill="#5E7BD7"/>
<path d="M97.732 351.271C97.732 352.447 98.6943 353.462 99.924 353.462C101.1 353.462 102.116 352.501 102.116 351.271C102.116 350.096 101.154 349.08 99.924 349.08C98.6943 349.134 97.732 350.096 97.732 351.271Z" fill="#5E7BD7"/>
<path d="M91.2071 341.971C91.2071 343.147 92.1694 344.162 93.3991 344.162C94.5753 344.162 95.5911 343.2 95.5911 341.971C95.5911 340.795 94.6287 339.78 93.3991 339.78C92.1694 339.78 91.2071 340.795 91.2071 341.971Z" fill="#5E7BD7"/>
<path d="M201.769 561.989C201.769 563.165 202.732 564.181 203.961 564.181C205.137 564.181 206.153 563.219 206.153 561.989C206.153 560.814 205.191 559.798 203.961 559.798C202.785 559.798 201.769 560.76 201.769 561.989Z" fill="#5E7BD7"/>
<path d="M108.745 555.31C108.745 556.485 109.708 557.501 110.937 557.501C112.114 557.501 113.129 556.539 113.129 555.31C113.129 554.134 112.167 553.118 110.937 553.118C109.708 553.118 108.745 554.08 108.745 555.31Z" fill="#5E7BD7"/>
<path d="M90.6216 586.95C90.6216 588.125 91.584 589.141 92.8136 589.141C93.9898 589.141 95.0056 588.179 95.0056 586.95C95.0056 585.774 94.0433 584.758 92.8136 584.758C91.584 584.758 90.6216 585.72 90.6216 586.95Z" fill="#5E7BD7"/>
<path d="M204.604 652.361C204.604 653.537 205.566 654.552 206.796 654.552C207.972 654.552 208.988 653.59 208.988 652.361C208.988 651.185 208.026 650.17 206.796 650.17C205.566 650.17 204.604 651.132 204.604 652.361Z" fill="#5E7BD7"/>
<path d="M73.8339 545.53C73.8339 546.706 74.7962 547.721 76.0258 547.721C77.2555 547.721 78.2178 546.759 78.2178 545.53C78.2178 544.355 77.2555 543.339 76.0258 543.339C74.7962 543.339 73.8339 544.355 73.8339 545.53Z" fill="#5E7BD7"/>
<path d="M175.895 665.989C175.895 667.164 176.857 668.18 178.087 668.18C179.263 668.18 180.279 667.218 180.279 665.989C180.279 664.813 179.317 663.797 178.087 663.797C176.857 663.797 175.895 664.813 175.895 665.989Z" fill="#5E7BD7"/>
<path d="M434.281 537.94C434.281 539.115 435.243 540.131 436.473 540.131C437.649 540.131 438.665 539.169 438.665 537.94C438.665 536.764 437.703 535.749 436.473 535.749C435.243 535.749 434.281 536.711 434.281 537.94Z" fill="#5E7BD7"/>
<path d="M562.379 594.857C562.379 596.033 563.341 597.048 564.571 597.048C565.747 597.048 566.763 596.086 566.763 594.857C566.763 593.681 565.8 592.666 564.571 592.666C563.341 592.666 562.379 593.628 562.379 594.857Z" fill="#5E7BD7"/>
<path d="M601.457 551.729C601.457 552.905 602.42 553.921 603.649 553.921C604.826 553.921 605.841 552.959 605.841 551.729C605.841 550.554 604.879 549.538 603.649 549.538C602.42 549.538 601.457 550.554 601.457 551.729Z" fill="#5E7BD7"/>
<path d="M500.948 618.53C500.948 619.706 501.91 620.721 503.14 620.721C504.316 620.721 505.332 619.759 505.332 618.53C505.332 617.355 504.37 616.339 503.14 616.339C501.964 616.393 500.948 617.355 500.948 618.53Z" fill="#5E7BD7"/>
<path d="M541.903 623.181C541.903 624.357 542.865 625.372 544.095 625.372C545.271 625.372 546.287 624.41 546.287 623.181C546.287 622.006 545.324 620.99 544.095 620.99C542.865 621.044 541.903 622.006 541.903 623.181Z" fill="#5E7BD7"/>
</svg>
